<?xml version="1.0" encoding="UTF-8" standalone="no"?>
<!-- Created with Inkscape (http://www.inkscape.org/) -->

<svg
   xmlns:ns0="http://www.iki.fi/pav/software/textext/"
   xmlns:dc="http://purl.org/dc/elements/1.1/"
   xmlns:cc="http://creativecommons.org/ns#"
   xmlns:rdf="http://www.w3.org/1999/02/22-rdf-syntax-ns#"
   xmlns:svg="http://www.w3.org/2000/svg"
   xmlns="http://www.w3.org/2000/svg"
   xmlns:xlink="http://www.w3.org/1999/xlink"
   xmlns:sodipodi="http://sodipodi.sourceforge.net/DTD/sodipodi-0.dtd"
   xmlns:inkscape="http://www.inkscape.org/namespaces/inkscape"
   width="1052.3622"
   height="744.09448"
   id="svg36025"
   version="1.1"
   inkscape:version="0.48.3.1 r9886"
   sodipodi:docname="venn-diagramm-schnittmenge.svg">
  <sodipodi:namedview
     id="base"
     pagecolor="#ffffff"
     bordercolor="#666666"
     borderopacity="1.0"
     inkscape:pageopacity="0.0"
     inkscape:pageshadow="2"
     inkscape:zoom="0.34588852"
     inkscape:cx="427.68076"
     inkscape:cy="100.39579"
     inkscape:document-units="px"
     inkscape:current-layer="layer1"
     showgrid="false"
     inkscape:window-width="1280"
     inkscape:window-height="974"
     inkscape:window-x="0"
     inkscape:window-y="0"
     inkscape:window-maximized="1"
     inkscape:snap-global="false" />
  <title
     id="title36514">Venn-Diagramm (Schnittmenge)</title>
  <defs
     id="defs36027">
    <defs
       id="defs36250">
      <g
         id="g36252">
        <symbol
           style="overflow:visible"
           id="textext-ef24bb1e-0"
           overflow="visible">
          <path
             inkscape:connector-curvature="0"
             id="path36255"
             d="m 4.46875,-2 c 0,-1.1875 -0.8125,-2.1875 -1.890625,-2.1875 -0.46875,0 -0.90625,0.15625 -1.265625,0.515625 l 0,-1.953125 c 0.203125,0.0625 0.53125,0.125 0.84375,0.125 1.234375,0 1.9375,-0.90625 1.9375,-1.03125 0,-0.0625 -0.03125,-0.109375 -0.109375,-0.109375 0,0 -0.03125,0 -0.078125,0.03125 C 3.703125,-6.515625 3.21875,-6.3125 2.546875,-6.3125 2.15625,-6.3125 1.6875,-6.390625 1.21875,-6.59375 1.140625,-6.625 1.125,-6.625 1.109375,-6.625 1,-6.625 1,-6.546875 1,-6.390625 L 1,-3.4375 c 0,0.171875 0,0.25 0.140625,0.25 0.078125,0 0.09375,-0.015625 0.140625,-0.078125 C 1.390625,-3.421875 1.75,-3.96875 2.5625,-3.96875 c 0.515625,0 0.765625,0.453125 0.84375,0.640625 0.15625,0.375 0.1875,0.75 0.1875,1.25 0,0.359375 0,0.953125 -0.25,1.375 C 3.109375,-0.3125 2.734375,-0.0625 2.28125,-0.0625 c -0.71875,0 -1.296875,-0.53125 -1.46875,-1.109375 0.03125,0 0.0625,0.015625 0.171875,0.015625 0.328125,0 0.5,-0.25 0.5,-0.484375 0,-0.25 -0.171875,-0.5 -0.5,-0.5 C 0.84375,-2.140625 0.5,-2.0625 0.5,-1.609375 0.5,-0.75 1.1875,0.21875 2.296875,0.21875 3.453125,0.21875 4.46875,-0.734375 4.46875,-2 z m 0,0"
             style="stroke:none" />
        </symbol>
      </g>
    </defs>
    <defs
       id="defs36164">
      <g
         id="g36166">
        <symbol
           style="overflow:visible"
           overflow="visible"
           id="textext-ad032493-0">
          <path
             inkscape:connector-curvature="0"
             style="stroke:none"
             d="m 2.890625,-3.515625 c 0.8125,-0.265625 1.390625,-0.953125 1.390625,-1.75 0,-0.8125 -0.875,-1.375 -1.828125,-1.375 -1,0 -1.765625,0.59375 -1.765625,1.359375 0,0.328125 0.21875,0.515625 0.515625,0.515625 0.296875,0 0.5,-0.21875 0.5,-0.515625 0,-0.484375 -0.46875,-0.484375 -0.609375,-0.484375 0.296875,-0.5 0.953125,-0.625 1.3125,-0.625 0.421875,0 0.96875,0.21875 0.96875,1.109375 0,0.125 -0.03125,0.703125 -0.28125,1.140625 C 2.796875,-3.65625 2.453125,-3.625 2.203125,-3.625 2.125,-3.609375 1.890625,-3.59375 1.8125,-3.59375 c -0.078125,0.015625 -0.140625,0.03125 -0.140625,0.125 0,0.109375 0.0625,0.109375 0.234375,0.109375 l 0.4375,0 c 0.8125,0 1.1875,0.671875 1.1875,1.65625 0,1.359375 -0.6875,1.640625 -1.125,1.640625 -0.4375,0 -1.1875,-0.171875 -1.53125,-0.75 0.34375,0.046875 0.65625,-0.171875 0.65625,-0.546875 0,-0.359375 -0.265625,-0.5625 -0.546875,-0.5625 -0.25,0 -0.5625,0.140625 -0.5625,0.578125 0,0.90625 0.921875,1.5625 2.015625,1.5625 1.21875,0 2.125,-0.90625 2.125,-1.921875 0,-0.8125 -0.640625,-1.59375 -1.671875,-1.8125 z m 0,0"
             id="path36169" />
        </symbol>
      </g>
    </defs>
    <defs
       id="defs36040">
      <g
         id="g36042">
        <symbol
           style="overflow:visible"
           overflow="visible"
           id="textext-e7fc490d-0">
          <path
             inkscape:connector-curvature="0"
             style="stroke:none"
             d="m 2.9375,-6.375 c 0,-0.25 0,-0.265625 -0.234375,-0.265625 C 2.078125,-6 1.203125,-6 0.890625,-6 l 0,0.3125 c 0.203125,0 0.78125,0 1.296875,-0.265625 l 0,5.171875 c 0,0.359375 -0.03125,0.46875 -0.921875,0.46875 l -0.3125,0 0,0.3125 c 0.34375,-0.03125 1.203125,-0.03125 1.609375,-0.03125 0.390625,0 1.265625,0 1.609375,0.03125 l 0,-0.3125 -0.3125,0 c -0.90625,0 -0.921875,-0.109375 -0.921875,-0.46875 z m 0,0"
             id="path36045" />
        </symbol>
      </g>
    </defs>
  </defs>
  <metadata
     id="metadata36030">
    <rdf:RDF>
      <cc:Work
         rdf:about="">
        <dc:format>image/svg+xml</dc:format>
        <dc:type
           rdf:resource="http://purl.org/dc/dcmitype/StillImage" />
        <dc:title>Venn-Diagramm (Schnittmenge)</dc:title>
        <cc:license
           rdf:resource="http://creativecommons.org/licenses/by-nc-sa/3.0/" />
        <dc:date>2012-08-12</dc:date>
        <dc:creator>
          <cc:Agent>
            <dc:title>Bernhard Grotz</dc:title>
          </cc:Agent>
        </dc:creator>
        <dc:rights>
          <cc:Agent>
            <dc:title>Bernhard Grotz</dc:title>
          </cc:Agent>
        </dc:rights>
        <dc:publisher>
          <cc:Agent>
            <dc:title>Bernhard Grotz</dc:title>
          </cc:Agent>
        </dc:publisher>
        <dc:language>de-DE</dc:language>
        <dc:subject>
          <rdf:Bag>
            <rdf:li>Mathematik</rdf:li>
            <rdf:li>Mengenlehre</rdf:li>
            <rdf:li>Menge</rdf:li>
            <rdf:li>Venn-Diagramm</rdf:li>
            <rdf:li>Schnittmenge</rdf:li>
          </rdf:Bag>
        </dc:subject>
      </cc:Work>
      <cc:License
         rdf:about="http://creativecommons.org/licenses/by-nc-sa/3.0/">
        <cc:permits
           rdf:resource="http://creativecommons.org/ns#Reproduction" />
        <cc:permits
           rdf:resource="http://creativecommons.org/ns#Distribution" />
        <cc:requires
           rdf:resource="http://creativecommons.org/ns#Notice" />
        <cc:requires
           rdf:resource="http://creativecommons.org/ns#Attribution" />
        <cc:prohibits
           rdf:resource="http://creativecommons.org/ns#CommercialUse" />
        <cc:permits
           rdf:resource="http://creativecommons.org/ns#DerivativeWorks" />
        <cc:requires
           rdf:resource="http://creativecommons.org/ns#ShareAlike" />
      </cc:License>
    </rdf:RDF>
  </metadata>
  <g
     transform="translate(0,-308.2677)"
     id="layer1"
     inkscape:groupmode="layer"
     inkscape:label="Layer 1">
    <rect
       style="fill:#ffffff;fill-opacity:1;stroke:#ffffff;stroke-width:6"
       id="rect36516-8"
       width="984.91638"
       height="578.2074"
       x="33.7229"
       y="391.21124"
       ry="2.6893368"
       inkscape:export-filename="/home/waldgeist/data/pics/physik/Own/mathematik/venn-diagramm-schnittmenge.png"
       inkscape:export-xdpi="150"
       inkscape:export-ydpi="150" />
    <g
       transform="matrix(9.1747899,0,0,9.1747899,-1677.1289,-551.56046)"
       id="textext-ad032493-1"
       inkscape:export-filename="/home/waldgeist/data/pics/physik/Own/mathematik/venn-diagramm-schnittmenge.png"
       inkscape:export-xdpi="150"
       inkscape:export-ydpi="150">
      <g
         style="fill:#000000;fill-opacity:1"
         id="g36172">
        <use
           height="1052.3622"
           width="744.09448"
           xlink:href="#textext-ad032493-0"
           x="223.43201"
           y="134.765"
           id="use36174" />
      </g>
    </g>
    <g
       transform="matrix(9.1747899,0,0,9.1747899,-1804.5486,-550.55697)"
       id="textext-e7fc490d-1"
       inkscape:export-filename="/home/waldgeist/data/pics/physik/Own/mathematik/venn-diagramm-schnittmenge.png"
       inkscape:export-xdpi="150"
       inkscape:export-ydpi="150">
      <g
         style="fill:#000000;fill-opacity:1"
         id="g36048">
        <use
           height="1052.3622"
           width="744.09448"
           xlink:href="#textext-e7fc490d-0"
           x="223.43201"
           y="134.765"
           id="use36050" />
      </g>
    </g>
    <g
       ns0:text="7"
       ns0:preamble="/home/waldgeist/.config/inkscape/extensions/preamble.tex"
       transform="matrix(9.1747899,0,0,9.1747899,-1417.989,-551.13039)"
       id="g36808"
       inkscape:export-filename="/home/waldgeist/data/pics/physik/Own/mathematik/venn-diagramm-schnittmenge.png"
       inkscape:export-xdpi="150"
       inkscape:export-ydpi="150">
      <defs
         id="defs36810">
        <g
           id="g36812">
          <symbol
             overflow="visible"
             id="textext-71fd6a88-0"
             style="overflow:visible">
            <path
               style="stroke:none"
               d="m 4.75,-6.078125 c 0.078125,-0.109375 0.078125,-0.125 0.078125,-0.34375 l -2.421875,0 c -1.203125,0 -1.234375,-0.125 -1.265625,-0.3125 l -0.25,0 -0.328125,2.046875 0.25,0 c 0.03125,-0.15625 0.109375,-0.78125 0.25,-0.90625 0.0625,-0.0625 0.84375,-0.0625 0.96875,-0.0625 l 2.0625,0 C 3.984375,-5.5 3.203125,-4.40625 2.984375,-4.078125 2.078125,-2.734375 1.75,-1.34375 1.75,-0.328125 c 0,0.09375 0,0.546875 0.46875,0.546875 0.453125,0 0.453125,-0.453125 0.453125,-0.546875 l 0,-0.515625 c 0,-0.546875 0.03125,-1.09375 0.109375,-1.625 0.046875,-0.234375 0.171875,-1.09375 0.625,-1.703125 z m 0,0"
               id="path36815"
               inkscape:connector-curvature="0" />
          </symbol>
        </g>
      </defs>
      <g
         id="textext-71fd6a88-1">
        <g
           style="fill:#000000;fill-opacity:1"
           id="g36818">
          <use
             xlink:href="#textext-71fd6a88-0"
             x="223.43201"
             y="134.765"
             id="use36820"
             width="744.09448"
             height="1052.3622" />
        </g>
      </g>
    </g>
    <g
       transform="matrix(9.1747899,0,0,9.1747899,-1546.8422,-551.56046)"
       id="textext-ef24bb1e-1"
       inkscape:export-filename="/home/waldgeist/data/pics/physik/Own/mathematik/venn-diagramm-schnittmenge.png"
       inkscape:export-xdpi="150"
       inkscape:export-ydpi="150">
      <g
         id="g36258"
         style="fill:#000000;fill-opacity:1">
        <use
           height="1052.3622"
           width="744.09448"
           id="use36260"
           y="134.765"
           x="223.43201"
           xlink:href="#textext-ef24bb1e-0" />
      </g>
    </g>
    <g
       id="g36908"
       transform="matrix(9.1747899,0,0,9.1747899,-1284.5484,-551.56046)"
       ns0:preamble="/home/waldgeist/.config/inkscape/extensions/preamble.tex"
       ns0:text="9"
       inkscape:export-filename="/home/waldgeist/data/pics/physik/Own/mathematik/venn-diagramm-schnittmenge.png"
       inkscape:export-xdpi="150"
       inkscape:export-ydpi="150">
      <defs
         id="defs36910">
        <g
           id="g36912">
          <symbol
             id="textext-3d192785-0"
             overflow="visible"
             style="overflow:visible">
            <path
               id="path36915"
               d="m 3.65625,-3.171875 0,0.328125 c 0,2.328125 -1.03125,2.78125 -1.609375,2.78125 -0.171875,0 -0.71875,-0.015625 -0.984375,-0.359375 0.4375,0 0.515625,-0.28125 0.515625,-0.453125 0,-0.3125 -0.234375,-0.453125 -0.453125,-0.453125 -0.15625,0 -0.453125,0.078125 -0.453125,0.46875 0,0.671875 0.53125,1.078125 1.375,1.078125 1.296875,0 2.515625,-1.359375 2.515625,-3.5 0,-2.6875 -1.15625,-3.359375 -2.046875,-3.359375 -0.546875,0 -1.03125,0.1875 -1.453125,0.625 -0.421875,0.453125 -0.640625,0.875 -0.640625,1.625 0,1.234375 0.875,2.21875 1.984375,2.21875 0.609375,0 1.015625,-0.421875 1.25,-1 z M 2.421875,-2.40625 c -0.15625,0 -0.625,0 -0.921875,-0.625 -0.1875,-0.375 -0.1875,-0.859375 -0.1875,-1.359375 0,-0.53125 0,-1 0.21875,-1.375 0.265625,-0.5 0.640625,-0.625 0.984375,-0.625 0.46875,0 0.796875,0.34375 0.96875,0.78125 0.109375,0.328125 0.15625,0.953125 0.15625,1.40625 0,0.828125 -0.34375,1.796875 -1.21875,1.796875 z m 0,0"
               style="stroke:none"
               inkscape:connector-curvature="0" />
          </symbol>
        </g>
      </defs>
      <g
         id="textext-3d192785-1">
        <g
           id="g36918"
           style="fill:#000000;fill-opacity:1">
          <use
             id="use36920"
             y="134.765"
             x="223.43201"
             xlink:href="#textext-3d192785-0"
             width="744.09448"
             height="1052.3622" />
        </g>
      </g>
    </g>
    <g
       style="fill:#000080"
       ns0:text="$\\mathbb{M}_{\\rm{1}}$"
       ns0:preamble="/home/waldgeist/.config/inkscape/extensions/preamble.tex"
       transform="matrix(9.1747899,0,0,9.1747899,-1938.202,-671.32624)"
       id="g37088"
       inkscape:export-filename="/home/waldgeist/data/pics/physik/Own/mathematik/venn-diagramm-schnittmenge.png"
       inkscape:export-xdpi="150"
       inkscape:export-ydpi="150">
      <defs
         id="defs37090">
        <g
           id="g37092">
          <symbol
             style="overflow:visible"
             overflow="visible"
             id="textext-f73b7cd9-0">
            <path
               inkscape:connector-curvature="0"
               style="stroke:none"
               d="M 4.640625,-2.09375 2.734375,-6.625 C 2.65625,-6.828125 2.65625,-6.828125 2.375,-6.828125 l -1.84375,0 c -0.1875,0 -0.328125,0 -0.328125,0.171875 0,0.171875 0.171875,0.171875 0.21875,0.171875 0.125,0 0.390625,0.03125 0.609375,0.109375 l 0,5.3125 c 0,0.21875 0,0.65625 -0.671875,0.71875 -0.1875,0.015625 -0.1875,0.15625 -0.1875,0.171875 C 0.171875,0 0.328125,0 0.515625,0 l 1.53125,0 C 2.234375,0 2.375,0 2.375,-0.171875 2.375,-0.265625 2.296875,-0.34375 2.21875,-0.34375 1.453125,-0.40625 1.453125,-0.828125 1.453125,-1.0625 l 0,-4.953125 0.015625,-0.015625 2.421875,5.828125 C 3.984375,-0.03125 4.046875,0 4.109375,0 4.234375,0 4.25,-0.078125 4.3125,-0.203125 L 6.75,-6.03125 l 0.015625,0.015625 0,4.953125 c 0,0.21875 0,0.65625 -0.6875,0.71875 -0.1875,0.015625 -0.1875,0.15625 -0.1875,0.171875 C 5.890625,0 6.046875,0 6.234375,0 l 2.65625,0 C 9.078125,0 9.21875,0 9.21875,-0.171875 9.21875,-0.265625 9.140625,-0.34375 9.0625,-0.34375 8.296875,-0.40625 8.296875,-0.828125 8.296875,-1.0625 l 0,-4.703125 c 0,-0.21875 0,-0.65625 0.671875,-0.71875 0.109375,0 0.1875,-0.0625 0.1875,-0.171875 0,-0.171875 -0.140625,-0.171875 -0.328125,-0.171875 l -1.921875,0 c -0.25,0 -0.28125,0 -0.359375,0.203125 z M 4.34375,-1.90625 C 4.421875,-1.75 4.4375,-1.734375 4.5625,-1.6875 l -0.453125,1.046875 -0.015625,0 L 1.828125,-6.0625 C 1.78125,-6.1875 1.6875,-6.359375 1.5625,-6.484375 l 0.859375,0 z m -3.015625,1.5625 -0.15625,0 C 1.1875,-0.375 1.203125,-0.40625 1.21875,-0.421875 1.234375,-0.4375 1.234375,-0.453125 1.25,-0.453125 z m 5.78125,-6.140625 1.0625,0 C 7.9375,-6.234375 7.9375,-5.96875 7.9375,-5.796875 l 0,4.765625 c 0,0.171875 0,0.4375 0.234375,0.6875 l -1.28125,0 c 0.21875,-0.25 0.21875,-0.515625 0.21875,-0.6875 z m 0,0"
               id="path37095" />
          </symbol>
          <symbol
             style="overflow:visible"
             overflow="visible"
             id="textext-f73b7cd9-1">
            <path
               inkscape:connector-curvature="0"
               style="stroke:none"
               d="m 2.328125,-4.4375 c 0,-0.1875 0,-0.1875 -0.203125,-0.1875 -0.453125,0.4375 -1.078125,0.4375 -1.359375,0.4375 l 0,0.25 c 0.15625,0 0.625,0 1,-0.1875 l 0,3.546875 c 0,0.234375 0,0.328125 -0.6875,0.328125 l -0.265625,0 0,0.25 c 0.125,0 0.984375,-0.03125 1.234375,-0.03125 0.21875,0 1.09375,0.03125 1.25,0.03125 l 0,-0.25 -0.265625,0 c -0.703125,0 -0.703125,-0.09375 -0.703125,-0.328125 z m 0,0"
               id="path37098" />
          </symbol>
        </g>
      </defs>
      <g
         style="fill:#000080"
         id="textext-f73b7cd9-2">
        <g
           style="fill:#000080;fill-opacity:1"
           id="g37101">
          <use
             style="fill:#000080"
             height="1052.3622"
             width="744.09448"
             xlink:href="#textext-f73b7cd9-0"
             x="223.43201"
             y="134.765"
             id="use37103" />
        </g>
        <g
           style="fill:#000080;fill-opacity:1"
           id="g37105">
          <use
             style="fill:#000080"
             height="1052.3622"
             width="744.09448"
             xlink:href="#textext-f73b7cd9-1"
             x="232.841"
             y="136.259"
             id="use37107" />
        </g>
      </g>
    </g>
    <g
       id="g37253"
       style="fill:#800000"
       transform="matrix(9.1747899,0,0,9.1747899,-1229.4769,-671.32624)"
       ns0:preamble="/home/waldgeist/.config/inkscape/extensions/preamble.tex"
       ns0:text="$\\mathbb{M}_{\\rm{2}}$"
       inkscape:export-filename="/home/waldgeist/data/pics/physik/Own/mathematik/venn-diagramm-schnittmenge.png"
       inkscape:export-xdpi="150"
       inkscape:export-ydpi="150">
      <defs
         id="defs37255">
        <g
           id="g37257">
          <symbol
             id="textext-b16cf13a-0"
             overflow="visible"
             style="overflow:visible">
            <path
               id="path37260"
               d="M 4.640625,-2.09375 2.734375,-6.625 C 2.65625,-6.828125 2.65625,-6.828125 2.375,-6.828125 l -1.84375,0 c -0.1875,0 -0.328125,0 -0.328125,0.171875 0,0.171875 0.171875,0.171875 0.21875,0.171875 0.125,0 0.390625,0.03125 0.609375,0.109375 l 0,5.3125 c 0,0.21875 0,0.65625 -0.671875,0.71875 -0.1875,0.015625 -0.1875,0.15625 -0.1875,0.171875 C 0.171875,0 0.328125,0 0.515625,0 l 1.53125,0 C 2.234375,0 2.375,0 2.375,-0.171875 2.375,-0.265625 2.296875,-0.34375 2.21875,-0.34375 1.453125,-0.40625 1.453125,-0.828125 1.453125,-1.0625 l 0,-4.953125 0.015625,-0.015625 2.421875,5.828125 C 3.984375,-0.03125 4.046875,0 4.109375,0 4.234375,0 4.25,-0.078125 4.3125,-0.203125 L 6.75,-6.03125 l 0.015625,0.015625 0,4.953125 c 0,0.21875 0,0.65625 -0.6875,0.71875 -0.1875,0.015625 -0.1875,0.15625 -0.1875,0.171875 C 5.890625,0 6.046875,0 6.234375,0 l 2.65625,0 C 9.078125,0 9.21875,0 9.21875,-0.171875 9.21875,-0.265625 9.140625,-0.34375 9.0625,-0.34375 8.296875,-0.40625 8.296875,-0.828125 8.296875,-1.0625 l 0,-4.703125 c 0,-0.21875 0,-0.65625 0.671875,-0.71875 0.109375,0 0.1875,-0.0625 0.1875,-0.171875 0,-0.171875 -0.140625,-0.171875 -0.328125,-0.171875 l -1.921875,0 c -0.25,0 -0.28125,0 -0.359375,0.203125 z M 4.34375,-1.90625 C 4.421875,-1.75 4.4375,-1.734375 4.5625,-1.6875 l -0.453125,1.046875 -0.015625,0 L 1.828125,-6.0625 C 1.78125,-6.1875 1.6875,-6.359375 1.5625,-6.484375 l 0.859375,0 z m -3.015625,1.5625 -0.15625,0 C 1.1875,-0.375 1.203125,-0.40625 1.21875,-0.421875 1.234375,-0.4375 1.234375,-0.453125 1.25,-0.453125 z m 5.78125,-6.140625 1.0625,0 C 7.9375,-6.234375 7.9375,-5.96875 7.9375,-5.796875 l 0,4.765625 c 0,0.171875 0,0.4375 0.234375,0.6875 l -1.28125,0 c 0.21875,-0.25 0.21875,-0.515625 0.21875,-0.6875 z m 0,0"
               style="stroke:none"
               inkscape:connector-curvature="0" />
          </symbol>
          <symbol
             id="textext-b16cf13a-1"
             overflow="visible"
             style="overflow:visible">
            <path
               id="path37263"
               d="m 3.515625,-1.265625 -0.234375,0 c -0.015625,0.15625 -0.09375,0.5625 -0.1875,0.625 -0.046875,0.046875 -0.578125,0.046875 -0.6875,0.046875 l -1.28125,0 c 0.734375,-0.640625 0.984375,-0.84375 1.390625,-1.171875 0.515625,-0.40625 1,-0.84375 1,-1.5 0,-0.84375 -0.734375,-1.359375 -1.625,-1.359375 -0.859375,0 -1.453125,0.609375 -1.453125,1.25 0,0.34375 0.296875,0.390625 0.375,0.390625 0.15625,0 0.359375,-0.125 0.359375,-0.375 0,-0.125 -0.046875,-0.375 -0.40625,-0.375 C 0.984375,-4.21875 1.453125,-4.375 1.78125,-4.375 c 0.703125,0 1.0625,0.546875 1.0625,1.109375 0,0.609375 -0.4375,1.078125 -0.65625,1.328125 L 0.515625,-0.265625 C 0.4375,-0.203125 0.4375,-0.1875 0.4375,0 l 2.875,0 z m 0,0"
               style="stroke:none"
               inkscape:connector-curvature="0" />
          </symbol>
        </g>
      </defs>
      <g
         id="textext-b16cf13a-2"
         style="fill:#800000">
        <g
           id="g37266"
           style="fill:#800000;fill-opacity:1">
          <use
             id="use37268"
             y="134.765"
             x="223.43201"
             xlink:href="#textext-b16cf13a-0"
             style="fill:#800000"
             width="744.09448"
             height="1052.3622" />
        </g>
        <g
           id="g37270"
           style="fill:#800000;fill-opacity:1">
          <use
             id="use37272"
             y="136.259"
             x="232.841"
             xlink:href="#textext-b16cf13a-1"
             style="fill:#800000"
             width="744.09448"
             height="1052.3622" />
        </g>
      </g>
    </g>
    <rect
       style="color:#000000;fill:none;stroke:#800000;stroke-width:3;stroke-linecap:round;stroke-linejoin:bevel;stroke-miterlimit:4;stroke-opacity:1;stroke-dasharray:none;stroke-dashoffset:0;marker:none;visibility:visible;display:inline;overflow:visible;enable-background:accumulate"
       id="rect4116"
       width="374.52414"
       height="178.34425"
       x="470.20804"
       y="566.24829"
       rx="89.237679"
       ry="89.172127"
       inkscape:export-filename="/home/waldgeist/data/pics/physik/Own/mathematik/venn-diagramm-schnittmenge.png"
       inkscape:export-xdpi="150"
       inkscape:export-ydpi="150" />
    <rect
       ry="89.172127"
       rx="89.237679"
       y="566.24829"
       x="211.56984"
       height="178.34425"
       width="374.52414"
       id="rect6031"
       style="color:#000000;fill:none;stroke:#000080;stroke-width:3;stroke-linecap:round;stroke-linejoin:bevel;stroke-miterlimit:4;stroke-opacity:1;stroke-dasharray:none;stroke-dashoffset:0;marker:none;visibility:visible;display:inline;overflow:visible;enable-background:accumulate"
       inkscape:export-filename="/home/waldgeist/data/pics/physik/Own/mathematik/venn-diagramm-schnittmenge.png"
       inkscape:export-xdpi="150"
       inkscape:export-ydpi="150" />
    <path
       inkscape:connector-curvature="0"
       id="rect6095"
       d="m 528.07712,571.84229 c -33.91648,12.61321 -57.96875,45.17141 -57.96875,83.5625 0,38.394 24.04821,70.98261 57.96875,83.59375 33.90593,-12.61857 57.9375,-45.2102 57.9375,-83.59375 0,-38.38075 -24.03548,-70.94194 -57.9375,-83.5625 z"
       style="color:#000000;fill:none;stroke:#008000;stroke-width:5;stroke-linecap:round;stroke-linejoin:bevel;stroke-miterlimit:4;stroke-opacity:1;stroke-dasharray:none;stroke-dashoffset:0;marker:none;visibility:visible;display:inline;overflow:visible;enable-background:accumulate"
       inkscape:export-filename="/home/waldgeist/data/pics/physik/Own/mathematik/venn-diagramm-schnittmenge.png"
       inkscape:export-xdpi="150"
       inkscape:export-ydpi="150" />
    <g
       id="g38733"
       style="fill:#008000;stroke:#008000"
       transform="matrix(9.1747899,0,0,9.1747899,-1693.0545,-391.98554)"
       ns0:preamble="/home/waldgeist/data/sphinx/inkscape-preamble.tex"
       ns0:text="$\\mathbb{M}_{\\rm{1}} \\cap \\mathbb{M}_{\\rm{2}}$"
       inkscape:export-filename="/home/waldgeist/data/pics/physik/Own/mathematik/venn-diagramm-schnittmenge.png"
       inkscape:export-xdpi="150"
       inkscape:export-ydpi="150">
      <defs
         id="defs38735">
        <g
           id="g38737">
          <symbol
             style="overflow:visible"
             id="textext-99759eb6-0"
             overflow="visible">
            <path
               inkscape:connector-curvature="0"
               id="path38740"
               d="M 4.640625,-2.09375 2.734375,-6.625 C 2.65625,-6.828125 2.65625,-6.828125 2.375,-6.828125 l -1.84375,0 c -0.1875,0 -0.328125,0 -0.328125,0.171875 0,0.171875 0.171875,0.171875 0.21875,0.171875 0.125,0 0.390625,0.03125 0.609375,0.109375 l 0,5.3125 c 0,0.21875 0,0.65625 -0.671875,0.71875 -0.1875,0.015625 -0.1875,0.15625 -0.1875,0.171875 C 0.171875,0 0.328125,0 0.515625,0 l 1.53125,0 C 2.234375,0 2.375,0 2.375,-0.171875 2.375,-0.265625 2.296875,-0.34375 2.21875,-0.34375 1.453125,-0.40625 1.453125,-0.828125 1.453125,-1.0625 l 0,-4.953125 0.015625,-0.015625 2.421875,5.828125 C 3.984375,-0.03125 4.046875,0 4.109375,0 4.234375,0 4.25,-0.078125 4.3125,-0.203125 L 6.75,-6.03125 l 0.015625,0.015625 0,4.953125 c 0,0.21875 0,0.65625 -0.6875,0.71875 -0.1875,0.015625 -0.1875,0.15625 -0.1875,0.171875 C 5.890625,0 6.046875,0 6.234375,0 l 2.65625,0 C 9.078125,0 9.21875,0 9.21875,-0.171875 9.21875,-0.265625 9.140625,-0.34375 9.0625,-0.34375 8.296875,-0.40625 8.296875,-0.828125 8.296875,-1.0625 l 0,-4.703125 c 0,-0.21875 0,-0.65625 0.671875,-0.71875 0.109375,0 0.1875,-0.0625 0.1875,-0.171875 0,-0.171875 -0.140625,-0.171875 -0.328125,-0.171875 l -1.921875,0 c -0.25,0 -0.28125,0 -0.359375,0.203125 z M 4.34375,-1.90625 C 4.421875,-1.75 4.4375,-1.734375 4.5625,-1.6875 l -0.453125,1.046875 -0.015625,0 L 1.828125,-6.0625 C 1.78125,-6.1875 1.6875,-6.359375 1.5625,-6.484375 l 0.859375,0 z m -3.015625,1.5625 -0.15625,0 C 1.1875,-0.375 1.203125,-0.40625 1.21875,-0.421875 1.234375,-0.4375 1.234375,-0.453125 1.25,-0.453125 z m 5.78125,-6.140625 1.0625,0 C 7.9375,-6.234375 7.9375,-5.96875 7.9375,-5.796875 l 0,4.765625 c 0,0.171875 0,0.4375 0.234375,0.6875 l -1.28125,0 c 0.21875,-0.25 0.21875,-0.515625 0.21875,-0.6875 z m 0,0"
               style="stroke:none" />
          </symbol>
          <symbol
             style="overflow:visible"
             id="textext-99759eb6-1"
             overflow="visible">
            <path
               inkscape:connector-curvature="0"
               id="path38743"
               d="m 2.328125,-4.4375 c 0,-0.1875 0,-0.1875 -0.203125,-0.1875 -0.453125,0.4375 -1.078125,0.4375 -1.359375,0.4375 l 0,0.25 c 0.15625,0 0.625,0 1,-0.1875 l 0,3.546875 c 0,0.234375 0,0.328125 -0.6875,0.328125 l -0.265625,0 0,0.25 c 0.125,0 0.984375,-0.03125 1.234375,-0.03125 0.21875,0 1.09375,0.03125 1.25,0.03125 l 0,-0.25 -0.265625,0 c -0.703125,0 -0.703125,-0.09375 -0.703125,-0.328125 z m 0,0"
               style="stroke:none" />
          </symbol>
          <symbol
             style="overflow:visible"
             id="textext-99759eb6-2"
             overflow="visible">
            <path
               inkscape:connector-curvature="0"
               id="path38746"
               d="m 3.515625,-1.265625 -0.234375,0 c -0.015625,0.15625 -0.09375,0.5625 -0.1875,0.625 -0.046875,0.046875 -0.578125,0.046875 -0.6875,0.046875 l -1.28125,0 c 0.734375,-0.640625 0.984375,-0.84375 1.390625,-1.171875 0.515625,-0.40625 1,-0.84375 1,-1.5 0,-0.84375 -0.734375,-1.359375 -1.625,-1.359375 -0.859375,0 -1.453125,0.609375 -1.453125,1.25 0,0.34375 0.296875,0.390625 0.375,0.390625 0.15625,0 0.359375,-0.125 0.359375,-0.375 0,-0.125 -0.046875,-0.375 -0.40625,-0.375 C 0.984375,-4.21875 1.453125,-4.375 1.78125,-4.375 c 0.703125,0 1.0625,0.546875 1.0625,1.109375 0,0.609375 -0.4375,1.078125 -0.65625,1.328125 L 0.515625,-0.265625 C 0.4375,-0.203125 0.4375,-0.1875 0.4375,0 l 2.875,0 z m 0,0"
               style="stroke:none" />
          </symbol>
          <symbol
             style="overflow:visible"
             id="textext-99759eb6-3"
             overflow="visible">
            <path
               inkscape:connector-curvature="0"
               id="path38749"
               d="m 6.09375,-3.78125 c 0,-1.515625 -1.53125,-2.1875 -2.78125,-2.1875 -1.28125,0 -2.765625,0.703125 -2.765625,2.171875 l 0,3.65625 c 0,0.1875 0,0.359375 0.203125,0.359375 0.203125,0 0.203125,-0.171875 0.203125,-0.359375 l 0,-3.609375 c 0,-1.5 1.625,-1.8125 2.359375,-1.8125 0.453125,0 1.078125,0.09375 1.609375,0.421875 C 5.6875,-4.640625 5.6875,-4 5.6875,-3.734375 l 0,3.59375 c 0,0.1875 0,0.359375 0.203125,0.359375 0.203125,0 0.203125,-0.171875 0.203125,-0.359375 z m 0,0"
               style="stroke:none" />
          </symbol>
        </g>
      </defs>
      <g
         id="textext-99759eb6-4"
         style="fill:#008000;stroke:#008000">
        <g
           id="g38752"
           style="fill:#008000;fill-opacity:1;stroke:#008000">
          <use
             height="744.09448"
             width="1052.3622"
             id="use38754"
             y="134.765"
             x="223.43201"
             xlink:href="#textext-99759eb6-0"
             style="fill:#008000;stroke:#008000" />
        </g>
        <g
           id="g38756"
           style="fill:#008000;fill-opacity:1;stroke:#008000">
          <use
             height="744.09448"
             width="1052.3622"
             id="use38758"
             y="136.259"
             x="232.841"
             xlink:href="#textext-99759eb6-1"
             style="fill:#008000;stroke:#008000" />
        </g>
        <g
           id="g38760"
           style="fill:#008000;fill-opacity:1;stroke:#008000">
          <use
             height="744.09448"
             width="1052.3622"
             id="use38762"
             y="134.765"
             x="239.52499"
             xlink:href="#textext-99759eb6-3"
             style="fill:#008000;stroke:#008000" />
        </g>
        <g
           id="g38764"
           style="fill:#008000;fill-opacity:1;stroke:#008000">
          <use
             height="744.09448"
             width="1052.3622"
             id="use38766"
             y="134.765"
             x="248.38"
             xlink:href="#textext-99759eb6-0"
             style="fill:#008000;stroke:#008000" />
        </g>
        <g
           id="g38768"
           style="fill:#008000;fill-opacity:1;stroke:#008000">
          <use
             height="744.09448"
             width="1052.3622"
             id="use38770"
             y="136.259"
             x="257.789"
             xlink:href="#textext-99759eb6-2"
             style="fill:#008000;stroke:#008000" />
        </g>
      </g>
    </g>
  </g>
</svg>
