<svg xmlns:ns0="http://www.iki.fi/pav/software/textext/" xmlns="http://www.w3.org/2000/svg" xmlns:xlink="http://www.w3.org/1999/xlink" width="1052.362" height="744.094"><title>Venn-Diagramm</title><defs><symbol id="e" overflow="visible"><path d="M1.625-4.563c-.453-.296-.5-.625-.5-.796 0-.61.656-1.032 1.36-1.032.718 0 1.359.516 1.359 1.235 0 .578-.39 1.047-.985 1.39zm1.453.954c.719-.375 1.203-.891 1.203-1.547 0-.922-.875-1.485-1.781-1.485-1 0-1.813.735-1.813 1.672 0 .172.016.625.438 1.094.11.11.484.36.734.531C1.281-3.047.422-2.5.422-1.5.422-.453 1.438.219 2.484.219c1.125 0 2.079-.828 2.079-1.89 0-.36-.11-.813-.5-1.235-.188-.203-.344-.297-.985-.703zm-1 .421l1.235.782c.28.187.75.484.75 1.094 0 .734-.75 1.25-1.563 1.25C1.64-.063.922-.672.922-1.5c0-.578.312-1.219 1.156-1.688zm0 0"/></symbol><symbol overflow="visible" id="d"><path d="M4.469-2c0-1.188-.813-2.188-1.89-2.188-.47 0-.907.157-1.267.516v-1.953c.204.063.532.125.844.125 1.235 0 1.938-.906 1.938-1.031 0-.063-.032-.11-.11-.11 0 0-.03 0-.078.032a3.22 3.22 0 0 1-1.36.296c-.39 0-.858-.078-1.327-.28-.078-.032-.094-.032-.11-.032C1-6.625 1-6.547 1-6.391v2.954c0 .171 0 .25.14.25.079 0 .094-.016.141-.079.11-.156.469-.703 1.282-.703.515 0 .765.453.843.64.156.376.188.75.188 1.25 0 .36 0 .954-.25 1.376-.235.39-.61.64-1.063.64-.719 0-1.297-.53-1.469-1.109.032 0 .063.016.172.016.329 0 .5-.25.5-.485 0-.25-.171-.5-.5-.5-.14 0-.484.079-.484.532C.5-.75 1.188.219 2.297.219 3.453.219 4.469-.734 4.469-2zm0 0"/></symbol><symbol id="c" overflow="visible"><path d="M2.89-3.516c.813-.265 1.391-.953 1.391-1.75 0-.812-.875-1.375-1.828-1.375-1 0-1.765.594-1.765 1.36 0 .328.218.515.515.515.297 0 .5-.218.5-.515 0-.485-.469-.485-.61-.485.298-.5.954-.625 1.313-.625.422 0 .969.22.969 1.11 0 .125-.031.703-.281 1.14-.297.485-.64.516-.89.516a3.29 3.29 0 0 1-.392.031c-.078.016-.14.031-.14.125 0 .11.062.11.234.11h.438c.812 0 1.187.671 1.187 1.656 0 1.36-.687 1.64-1.125 1.64-.437 0-1.187-.171-1.531-.75.344.047.656-.171.656-.546a.537.537 0 0 0-.547-.563c-.25 0-.562.14-.562.578C.422-.437 1.344.22 2.437.22c1.22 0 2.126-.906 2.126-1.922 0-.813-.641-1.594-1.672-1.813zm0 0"/></symbol><symbol overflow="visible" id="b"><path d="M1.266-.766l1.062-1.03c1.547-1.376 2.14-1.907 2.14-2.907 0-1.14-.89-1.938-2.109-1.938C1.234-6.64.5-5.719.5-4.828c0 .547.5.547.531.547.172 0 .516-.11.516-.532a.513.513 0 0 0-.531-.515c-.079 0-.094 0-.125.016.218-.657.765-1.016 1.343-1.016.907 0 1.329.812 1.329 1.625 0 .797-.485 1.578-1.047 2.203L.609-.375C.5-.265.5-.235.5 0h3.703l.266-1.734h-.235C4.172-1.438 4.11-1 4-.844c-.063.078-.719.078-.938.078zm0 0"/></symbol><symbol id="a" overflow="visible"><path d="M2.938-6.375c0-.25 0-.266-.235-.266C2.078-6 1.203-6 .891-6v.313c.203 0 .78 0 1.296-.266v5.172c0 .36-.03.469-.921.469H.953V0c.344-.031 1.203-.031 1.61-.031.39 0 1.265 0 1.609.031v-.313h-.313c-.906 0-.921-.109-.921-.468zm0 0"/></symbol></defs><g transform="translate(0 -308.268)"><rect width="984.916" height="578.207" x="33.723" y="391.211" ry="2.689" fill="#fff" stroke="#fff" stroke-width="6"/><use transform="matrix(9.17479 0 0 9.17479 -1602.583 -435.657)" y="134.765" x="223.432" xlink:href="#a" width="744.094" height="1052.362"/><use transform="matrix(9.17479 0 0 9.17479 -1536.869 -647.086)" xlink:href="#b" x="223.432" y="134.765" width="744.094" height="1052.362"/><use transform="matrix(9.17479 0 0 9.17479 -1445.44 -409.943)" y="134.765" x="223.432" xlink:href="#c" width="744.094" height="1052.362"/><use transform="matrix(9.17479 0 0 9.17479 -1708.298 -558.514)" xlink:href="#d" x="223.432" y="134.765" width="744.094" height="1052.362"/><use transform="matrix(9.17479 0 0 9.17479 -1405.44 -555.657)" y="134.765" x="223.432" xlink:href="#e" width="744.094" height="1052.362"/><g transform="matrix(9.17479 0 0 9.17479 -1274.731 -726.466)" ns0:preamble="/home/waldgeist/.config/inkscape/extensions/preamble.tex" ns0:text="$\\mathbb{M}$" fill="navy"><defs><symbol id="f" overflow="visible"><path d="M4.64-2.094L2.735-6.625c-.078-.203-.078-.203-.359-.203H.531c-.187 0-.328 0-.328.172s.172.172.219.172c.125 0 .39.03.61.109v5.313c0 .218 0 .656-.673.718-.187.016-.187.156-.187.172C.172 0 .328 0 .516 0h1.53c.188 0 .329 0 .329-.172 0-.094-.078-.172-.156-.172-.766-.062-.766-.484-.766-.719v-4.953l.016-.015L3.89-.203c.093.172.156.203.218.203.125 0 .141-.078.204-.203L6.75-6.031l.016.015v4.954c0 .218 0 .656-.688.718-.187.016-.187.156-.187.172 0 .172.156.172.343.172h2.657c.187 0 .328 0 .328-.172 0-.094-.078-.172-.156-.172-.766-.062-.766-.484-.766-.719v-4.703c0-.218 0-.656.672-.718.11 0 .187-.063.187-.172 0-.172-.14-.172-.328-.172H6.906c-.25 0-.281 0-.36.203zm-.296.188c.078.156.093.172.218.218L4.11-.64h-.015L1.828-6.062a1.26 1.26 0 0 0-.266-.422h.86zM1.328-.344h-.156c.016-.031.031-.062.047-.078.015-.016.015-.031.031-.031zm5.781-6.14h1.063c-.235.25-.235.515-.235.687v4.766c0 .172 0 .437.235.687H6.89c.218-.25.218-.515.218-.687zm0 0"/></symbol></defs><use y="134.765" x="223.432" xlink:href="#f" width="744.094" height="1052.362"/></g><rect style="marker:none" width="527.325" height="422.857" x="262.519" y="468.886" ry="211.429" rx="211.439" color="#000" fill="none" stroke="navy" stroke-width="3" stroke-linecap="round" stroke-linejoin="bevel" overflow="visible"/></g></svg>