<svg xmlns:ns0="http://www.iki.fi/pav/software/textext/" xmlns="http://www.w3.org/2000/svg" xmlns:xlink="http://www.w3.org/1999/xlink" height="744.094" width="1052.362"><title>Venn-Diagramm einer Abbildung</title><defs><marker orient="auto" id="u" overflow="visible"><path d="M8.719 4.034L-2.207.016 8.719-4.002c-1.746 2.372-1.736 5.618 0 8.036z" transform="rotate(180) scale(.6)" fill-rule="evenodd" stroke-width=".625" stroke-linejoin="round"/></marker></defs><g transform="translate(0 -308.268)"><rect width="492.458" height="356.546" x="279.952" y="502.042" ry="1.658" fill="#fff" stroke="#fff" stroke-width="3.332"/><rect rx="67.857" ry="67.857" y="297.511" x="560.083" height="135.714" width="263.662" style="marker:none" transform="matrix(0 1 1 0 0 0)" color="#000" fill="none" stroke="#666" stroke-width="1.5" stroke-linecap="round" stroke-linejoin="bevel" overflow="visible"/><g transform="matrix(4.5874 0 0 4.5874 -611.517 -50.762)" ns0:preamble="/home/waldgeist/data/sphinx/inkscape-preamble.tex" ns0:text="$\\mathbb{M} _{\\rm{1}}$" fill="#333" stroke="#4d4d4d"><defs><symbol id="a" overflow="visible"><path d="M4.64-2.094L2.735-6.625c-.078-.203-.078-.203-.359-.203H.531c-.187 0-.328 0-.328.172s.172.172.219.172c.125 0 .39.03.61.109v5.313c0 .218 0 .656-.673.718-.187.016-.187.156-.187.172C.172 0 .328 0 .516 0h1.53c.188 0 .329 0 .329-.172 0-.094-.078-.172-.156-.172-.766-.062-.766-.484-.766-.719v-4.953l.016-.015L3.89-.203c.093.172.156.203.218.203.125 0 .141-.078.204-.203L6.75-6.031l.016.015v4.954c0 .218 0 .656-.688.718-.187.016-.187.156-.187.172 0 .172.156.172.343.172h2.657c.187 0 .328 0 .328-.172 0-.094-.078-.172-.156-.172-.766-.062-.766-.484-.766-.719v-4.703c0-.218 0-.656.672-.718.11 0 .187-.063.187-.172 0-.172-.14-.172-.328-.172H6.906c-.25 0-.281 0-.36.203zm-.296.188c.078.156.093.172.218.218L4.11-.64h-.015L1.828-6.062a1.26 1.26 0 0 0-.266-.422h.86zM1.328-.344h-.156c.016-.031.031-.062.047-.078.015-.016.015-.031.031-.031zm5.781-6.14h1.063c-.235.25-.235.515-.235.687v4.766c0 .172 0 .437.235.687H6.89c.218-.25.218-.515.218-.687z" stroke="none"/></symbol><symbol id="b" overflow="visible"><path d="M2.328-4.438c0-.187 0-.187-.203-.187-.453.438-1.078.438-1.36.438v.25c.157 0 .626 0 1-.188v3.547c0 .234 0 .328-.687.328H.812V0c.125 0 .985-.031 1.235-.031.219 0 1.094.031 1.25.031v-.25H3.03c-.703 0-.703-.094-.703-.328z" stroke="none"/></symbol></defs><use height="744.094" width="1052.362" y="134.765" x="223.432" xlink:href="#a"/><use height="744.094" width="1052.362" y="136.259" x="232.841" xlink:href="#b"/></g><rect transform="matrix(0 1 1 0 0 0)" style="marker:none" width="263.662" height="211.429" x="560.083" y="527.511" ry="105.714" rx="105.72" color="#000" fill="none" stroke="#666" stroke-width="1.5" stroke-linecap="round" stroke-linejoin="bevel" overflow="visible"/><g transform="matrix(4.60995 0 0 4.60995 -686.67 -6.688)" ns0:text="$x _{\\rm{1}}$" ns0:preamble="/home/waldgeist/data/sphinx/inkscape-preamble.tex"><defs><symbol overflow="visible" id="c"><path d="M3.328-3.016c.063-.25.297-1.171.985-1.171.046 0 .296 0 .5.125a.578.578 0 0 0-.47.546c0 .157.11.344.376.344a.546.546 0 0 0 .531-.578c0-.516-.578-.656-.922-.656-.578 0-.922.531-1.047.75-.25-.656-.781-.75-1.078-.75-1.031 0-1.61 1.281-1.61 1.531 0 .11.11.11.126.11.078 0 .11-.032.125-.11.344-1.063 1-1.313 1.344-1.313.187 0 .53.094.53.672 0 .313-.171.97-.53 2.375-.157.61-.516 1.032-.954 1.032-.062 0-.28 0-.5-.125.25-.063.47-.266.47-.547 0-.266-.22-.344-.36-.344-.313 0-.547.25-.547.578 0 .453.484.656.922.656.672 0 1.031-.703 1.047-.75.125.36.484.75 1.078.75 1.031 0 1.594-1.28 1.594-1.53 0-.11-.079-.11-.11-.11-.094 0-.11.047-.14.11-.329 1.077-1 1.312-1.313 1.312-.39 0-.547-.313-.547-.657 0-.218.047-.437.156-.875z"/></symbol><symbol overflow="visible" id="d"><path d="M2.328-4.438c0-.187 0-.187-.203-.187-.453.438-1.078.438-1.36.438v.25c.157 0 .626 0 1-.188v3.547c0 .234 0 .328-.687.328H.812V0c.125 0 .985-.031 1.235-.031.219 0 1.094.031 1.25.031v-.25H3.03c-.703 0-.703-.094-.703-.328z"/></symbol></defs><use height="744.094" width="1052.362" xlink:href="#c" x="223.432" y="134.765"/><use height="744.094" width="1052.362" xlink:href="#d" x="229.126" y="136.259"/></g><g ns0:text="$x _{\\rm{2}}$" ns0:preamble="/home/waldgeist/data/sphinx/inkscape-preamble.tex" transform="matrix(4.60995 0 0 4.60995 -664.527 68.312)"><defs><symbol overflow="visible" id="e"><path d="M3.328-3.016c.063-.25.297-1.171.985-1.171.046 0 .296 0 .5.125a.578.578 0 0 0-.47.546c0 .157.11.344.376.344a.546.546 0 0 0 .531-.578c0-.516-.578-.656-.922-.656-.578 0-.922.531-1.047.75-.25-.656-.781-.75-1.078-.75-1.031 0-1.61 1.281-1.61 1.531 0 .11.11.11.126.11.078 0 .11-.032.125-.11.344-1.063 1-1.313 1.344-1.313.187 0 .53.094.53.672 0 .313-.171.97-.53 2.375-.157.61-.516 1.032-.954 1.032-.062 0-.28 0-.5-.125.25-.063.47-.266.47-.547 0-.266-.22-.344-.36-.344-.313 0-.547.25-.547.578 0 .453.484.656.922.656.672 0 1.031-.703 1.047-.75.125.36.484.75 1.078.75 1.031 0 1.594-1.28 1.594-1.53 0-.11-.079-.11-.11-.11-.094 0-.11.047-.14.11-.329 1.077-1 1.312-1.313 1.312-.39 0-.547-.313-.547-.657 0-.218.047-.437.156-.875z"/></symbol><symbol overflow="visible" id="f"><path d="M3.516-1.266H3.28c-.015.157-.094.563-.187.625-.047.047-.578.047-.688.047H1.125c.734-.64.984-.844 1.39-1.172.516-.406 1-.843 1-1.5 0-.843-.734-1.359-1.624-1.359-.86 0-1.454.61-1.454 1.25 0 .344.297.39.376.39.156 0 .359-.124.359-.374 0-.125-.047-.375-.406-.375.218-.485.687-.641 1.015-.641.703 0 1.063.547 1.063 1.11 0 .609-.438 1.078-.656 1.328L.516-.266C.437-.203.437-.187.437 0h2.876z"/></symbol></defs><use height="744.094" width="1052.362" xlink:href="#e" x="223.432" y="134.765"/><use height="744.094" width="1052.362" xlink:href="#f" x="229.126" y="136.259"/></g><g transform="matrix(4.60995 0 0 4.60995 -687.384 139.74)" ns0:preamble="/home/waldgeist/data/sphinx/inkscape-preamble.tex" ns0:text="$x _{\\rm{3}}$"><defs><symbol id="g" overflow="visible"><path d="M3.328-3.016c.063-.25.297-1.171.985-1.171.046 0 .296 0 .5.125a.578.578 0 0 0-.47.546c0 .157.11.344.376.344a.546.546 0 0 0 .531-.578c0-.516-.578-.656-.922-.656-.578 0-.922.531-1.047.75-.25-.656-.781-.75-1.078-.75-1.031 0-1.61 1.281-1.61 1.531 0 .11.11.11.126.11.078 0 .11-.032.125-.11.344-1.063 1-1.313 1.344-1.313.187 0 .53.094.53.672 0 .313-.171.97-.53 2.375-.157.61-.516 1.032-.954 1.032-.062 0-.28 0-.5-.125.25-.063.47-.266.47-.547 0-.266-.22-.344-.36-.344-.313 0-.547.25-.547.578 0 .453.484.656.922.656.672 0 1.031-.703 1.047-.75.125.36.484.75 1.078.75 1.031 0 1.594-1.28 1.594-1.53 0-.11-.079-.11-.11-.11-.094 0-.11.047-.14.11-.329 1.077-1 1.312-1.313 1.312-.39 0-.547-.313-.547-.657 0-.218.047-.437.156-.875z"/></symbol><symbol id="h" overflow="visible"><path d="M1.906-2.328c.547 0 .938.375.938 1.125 0 .86-.516 1.125-.906 1.125-.282 0-.907-.078-1.188-.5.328 0 .406-.235.406-.39 0-.22-.172-.376-.39-.376a.38.38 0 0 0-.391.407C.375-.281 1.094.14 1.938.14c.968 0 1.64-.657 1.64-1.344 0-.547-.437-1.094-1.203-1.25.719-.266.984-.781.984-1.219 0-.547-.625-.953-1.406-.953-.766 0-1.36.375-1.36.938 0 .234.157.359.36.359.219 0 .36-.156.36-.344 0-.203-.141-.36-.36-.375.25-.297.719-.375.985-.375.312 0 .75.156.75.75 0 .297-.094.625-.282.828-.219.266-.422.281-.765.313-.172.015-.188.015-.22.015-.015 0-.077.016-.077.094 0 .094.062.094.187.094z"/></symbol></defs><use height="744.094" width="1052.362" y="134.765" x="223.432" xlink:href="#g"/><use height="744.094" width="1052.362" y="136.259" x="229.126" xlink:href="#h"/></g><g ns0:text="$y _{\\rm{1}}$" ns0:preamble="/home/waldgeist/data/sphinx/inkscape-preamble.tex" transform="matrix(4.60995 0 0 4.60995 -435.956 -10.617)"><defs><symbol overflow="visible" id="i"><path d="M4.844-3.797c.047-.14.047-.156.047-.234 0-.172-.141-.266-.297-.266a.455.455 0 0 0-.344.203c-.016.063-.11.36-.14.547-.079.25-.141.531-.204.797L3.453-.953c-.031.14-.469.844-1.125.844-.5 0-.61-.438-.61-.813 0-.453.173-1.078.5-1.953.157-.406.204-.516.204-.719 0-.437-.313-.812-.813-.812-.953 0-1.312 1.453-1.312 1.531 0 .11.094.11.11.11.109 0 .109-.032.156-.188.28-.938.671-1.235 1.015-1.235.078 0 .25 0 .25.313 0 .25-.11.516-.172.703-.406 1.063-.578 1.625-.578 2.094 0 .89.625 1.187 1.219 1.187.39 0 .719-.171 1-.453-.125.516-.25 1.016-.64 1.547-.266.328-.641.625-1.095.625-.14 0-.593-.031-.765-.422.156 0 .297 0 .422-.125a.493.493 0 0 0 .203-.406c0-.313-.266-.344-.36-.344C.829.531.5.687.5 1.171c0 .5.438.876 1.063.876 1.015 0 2.046-.906 2.328-2.031z"/></symbol><symbol overflow="visible" id="j"><path d="M2.328-4.438c0-.187 0-.187-.203-.187-.453.438-1.078.438-1.36.438v.25c.157 0 .626 0 1-.188v3.547c0 .234 0 .328-.687.328H.812V0c.125 0 .985-.031 1.235-.031.219 0 1.094.031 1.25.031v-.25H3.03c-.703 0-.703-.094-.703-.328z"/></symbol></defs><use height="744.094" width="1052.362" xlink:href="#i" x="223.432" y="134.765"/><use height="744.094" width="1052.362" xlink:href="#j" x="228.317" y="136.259"/></g><g transform="matrix(4.60995 0 0 4.60995 -398.099 41.169)" ns0:preamble="/home/waldgeist/data/sphinx/inkscape-preamble.tex" ns0:text="$y _{\\rm{2}}$"><defs><symbol id="k" overflow="visible"><path d="M4.844-3.797c.047-.14.047-.156.047-.234 0-.172-.141-.266-.297-.266a.455.455 0 0 0-.344.203c-.016.063-.11.36-.14.547-.079.25-.141.531-.204.797L3.453-.953c-.031.14-.469.844-1.125.844-.5 0-.61-.438-.61-.813 0-.453.173-1.078.5-1.953.157-.406.204-.516.204-.719 0-.437-.313-.812-.813-.812-.953 0-1.312 1.453-1.312 1.531 0 .11.094.11.11.11.109 0 .109-.032.156-.188.28-.938.671-1.235 1.015-1.235.078 0 .25 0 .25.313 0 .25-.11.516-.172.703-.406 1.063-.578 1.625-.578 2.094 0 .89.625 1.187 1.219 1.187.39 0 .719-.171 1-.453-.125.516-.25 1.016-.64 1.547-.266.328-.641.625-1.095.625-.14 0-.593-.031-.765-.422.156 0 .297 0 .422-.125a.493.493 0 0 0 .203-.406c0-.313-.266-.344-.36-.344C.829.531.5.687.5 1.171c0 .5.438.876 1.063.876 1.015 0 2.046-.906 2.328-2.031z"/></symbol><symbol id="l" overflow="visible"><path d="M3.516-1.266H3.28c-.015.157-.094.563-.187.625-.047.047-.578.047-.688.047H1.125c.734-.64.984-.844 1.39-1.172.516-.406 1-.843 1-1.5 0-.843-.734-1.359-1.624-1.359-.86 0-1.454.61-1.454 1.25 0 .344.297.39.376.39.156 0 .359-.124.359-.374 0-.125-.047-.375-.406-.375.218-.485.687-.641 1.015-.641.703 0 1.063.547 1.063 1.11 0 .609-.438 1.078-.656 1.328L.516-.266C.437-.203.437-.187.437 0h2.876z"/></symbol></defs><use height="744.094" width="1052.362" y="134.765" x="223.432" xlink:href="#k"/><use height="744.094" width="1052.362" y="136.259" x="228.317" xlink:href="#l"/></g><g ns0:text="$y _{\\rm{3}}$" ns0:preamble="/home/waldgeist/data/sphinx/inkscape-preamble.tex" transform="matrix(4.60995 0 0 4.60995 -454.527 91.169)"><defs><symbol overflow="visible" id="m"><path d="M4.844-3.797c.047-.14.047-.156.047-.234 0-.172-.141-.266-.297-.266a.455.455 0 0 0-.344.203c-.016.063-.11.36-.14.547-.079.25-.141.531-.204.797L3.453-.953c-.031.14-.469.844-1.125.844-.5 0-.61-.438-.61-.813 0-.453.173-1.078.5-1.953.157-.406.204-.516.204-.719 0-.437-.313-.812-.813-.812-.953 0-1.312 1.453-1.312 1.531 0 .11.094.11.11.11.109 0 .109-.032.156-.188.28-.938.671-1.235 1.015-1.235.078 0 .25 0 .25.313 0 .25-.11.516-.172.703-.406 1.063-.578 1.625-.578 2.094 0 .89.625 1.187 1.219 1.187.39 0 .719-.171 1-.453-.125.516-.25 1.016-.64 1.547-.266.328-.641.625-1.095.625-.14 0-.593-.031-.765-.422.156 0 .297 0 .422-.125a.493.493 0 0 0 .203-.406c0-.313-.266-.344-.36-.344C.829.531.5.687.5 1.171c0 .5.438.876 1.063.876 1.015 0 2.046-.906 2.328-2.031z"/></symbol><symbol overflow="visible" id="n"><path d="M1.906-2.328c.547 0 .938.375.938 1.125 0 .86-.516 1.125-.906 1.125-.282 0-.907-.078-1.188-.5.328 0 .406-.235.406-.39 0-.22-.172-.376-.39-.376a.38.38 0 0 0-.391.407C.375-.281 1.094.14 1.938.14c.968 0 1.64-.657 1.64-1.344 0-.547-.437-1.094-1.203-1.25.719-.266.984-.781.984-1.219 0-.547-.625-.953-1.406-.953-.766 0-1.36.375-1.36.938 0 .234.157.359.36.359.219 0 .36-.156.36-.344 0-.203-.141-.36-.36-.375.25-.297.719-.375.985-.375.312 0 .75.156.75.75 0 .297-.094.625-.282.828-.219.266-.422.281-.765.313-.172.015-.188.015-.22.015-.015 0-.077.016-.077.094 0 .094.062.094.187.094z"/></symbol></defs><use height="744.094" width="1052.362" xlink:href="#m" x="223.432" y="134.765"/><use height="744.094" width="1052.362" xlink:href="#n" x="228.317" y="136.259"/></g><g transform="matrix(4.60995 0 0 4.60995 -372.384 113.312)" ns0:preamble="/home/waldgeist/data/sphinx/inkscape-preamble.tex" ns0:text="$y _{\\rm{4}}$"><defs><symbol id="o" overflow="visible"><path d="M4.844-3.797c.047-.14.047-.156.047-.234 0-.172-.141-.266-.297-.266a.455.455 0 0 0-.344.203c-.016.063-.11.36-.14.547-.079.25-.141.531-.204.797L3.453-.953c-.031.14-.469.844-1.125.844-.5 0-.61-.438-.61-.813 0-.453.173-1.078.5-1.953.157-.406.204-.516.204-.719 0-.437-.313-.812-.813-.812-.953 0-1.312 1.453-1.312 1.531 0 .11.094.11.11.11.109 0 .109-.032.156-.188.28-.938.671-1.235 1.015-1.235.078 0 .25 0 .25.313 0 .25-.11.516-.172.703-.406 1.063-.578 1.625-.578 2.094 0 .89.625 1.187 1.219 1.187.39 0 .719-.171 1-.453-.125.516-.25 1.016-.64 1.547-.266.328-.641.625-1.095.625-.14 0-.593-.031-.765-.422.156 0 .297 0 .422-.125a.493.493 0 0 0 .203-.406c0-.313-.266-.344-.36-.344C.829.531.5.687.5 1.171c0 .5.438.876 1.063.876 1.015 0 2.046-.906 2.328-2.031z"/></symbol><symbol id="p" overflow="visible"><path d="M3.688-1.14v-.25h-.782V-4.5c0-.14 0-.203-.14-.203-.094 0-.125 0-.188.11L.266-1.392v.25h2.062v.563c0 .25 0 .328-.578.328h-.188V0c.36-.016.797-.031 1.047-.031.266 0 .704.015 1.063.031v-.25h-.188c-.578 0-.578-.078-.578-.328v-.563zM2.375-3.939v2.547H.531z"/></symbol></defs><use height="744.094" width="1052.362" y="134.765" x="223.432" xlink:href="#o"/><use height="744.094" width="1052.362" y="136.259" x="228.317" xlink:href="#p"/></g><g ns0:text="$y _{\\rm{5}}$" ns0:preamble="/home/waldgeist/data/sphinx/inkscape-preamble.tex" transform="matrix(4.60995 0 0 4.60995 -415.956 170.454)"><defs><symbol overflow="visible" id="q"><path d="M4.844-3.797c.047-.14.047-.156.047-.234 0-.172-.141-.266-.297-.266a.455.455 0 0 0-.344.203c-.016.063-.11.36-.14.547-.079.25-.141.531-.204.797L3.453-.953c-.031.14-.469.844-1.125.844-.5 0-.61-.438-.61-.813 0-.453.173-1.078.5-1.953.157-.406.204-.516.204-.719 0-.437-.313-.812-.813-.812-.953 0-1.312 1.453-1.312 1.531 0 .11.094.11.11.11.109 0 .109-.032.156-.188.28-.938.671-1.235 1.015-1.235.078 0 .25 0 .25.313 0 .25-.11.516-.172.703-.406 1.063-.578 1.625-.578 2.094 0 .89.625 1.187 1.219 1.187.39 0 .719-.171 1-.453-.125.516-.25 1.016-.64 1.547-.266.328-.641.625-1.095.625-.14 0-.593-.031-.765-.422.156 0 .297 0 .422-.125a.493.493 0 0 0 .203-.406c0-.313-.266-.344-.36-.344C.829.531.5.687.5 1.171c0 .5.438.876 1.063.876 1.015 0 2.046-.906 2.328-2.031z"/></symbol><symbol overflow="visible" id="r"><path d="M1.078-3.89c.36.093.563.093.672.093.922 0 1.469-.625 1.469-.734 0-.078-.047-.094-.078-.094-.016 0-.032 0-.063.016-.172.062-.531.203-1.047.203-.203 0-.562-.016-1.015-.188-.079-.031-.094-.031-.094-.031-.094 0-.094.078-.094.188v2.046c0 .125 0 .204.11.204.062 0 .078 0 .14-.094.297-.375.734-.438.969-.438.422 0 .61.328.64.39.126.235.172.5.172.907 0 .203 0 .61-.218.922a.984.984 0 0 1-.813.422c-.453 0-.922-.25-1.094-.719.266.016.407-.156.407-.344 0-.296-.266-.343-.36-.343 0 0-.344 0-.344.375 0 .625.579 1.25 1.407 1.25.89 0 1.672-.657 1.672-1.547 0-.782-.594-1.5-1.454-1.5-.312 0-.671.062-.984.328z"/></symbol></defs><use height="744.094" width="1052.362" xlink:href="#q" x="223.432" y="134.765"/><use height="744.094" width="1052.362" xlink:href="#r" x="228.317" y="136.259"/></g><g transform="matrix(4.5874 0 0 4.5874 -328.66 -50.762)" ns0:preamble="/home/waldgeist/data/sphinx/inkscape-preamble.tex" ns0:text="$\\mathbb{M} _{\\rm{2}}$" fill="#333" stroke="#4d4d4d"><defs><symbol id="s" overflow="visible"><path d="M4.64-2.094L2.735-6.625c-.078-.203-.078-.203-.359-.203H.531c-.187 0-.328 0-.328.172s.172.172.219.172c.125 0 .39.03.61.109v5.313c0 .218 0 .656-.673.718-.187.016-.187.156-.187.172C.172 0 .328 0 .516 0h1.53c.188 0 .329 0 .329-.172 0-.094-.078-.172-.156-.172-.766-.062-.766-.484-.766-.719v-4.953l.016-.015L3.89-.203c.093.172.156.203.218.203.125 0 .141-.078.204-.203L6.75-6.031l.016.015v4.954c0 .218 0 .656-.688.718-.187.016-.187.156-.187.172 0 .172.156.172.343.172h2.657c.187 0 .328 0 .328-.172 0-.094-.078-.172-.156-.172-.766-.062-.766-.484-.766-.719v-4.703c0-.218 0-.656.672-.718.11 0 .187-.063.187-.172 0-.172-.14-.172-.328-.172H6.906c-.25 0-.281 0-.36.203zm-.296.188c.078.156.093.172.218.218L4.11-.64h-.015L1.828-6.062a1.26 1.26 0 0 0-.266-.422h.86zM1.328-.344h-.156c.016-.031.031-.062.047-.078.015-.016.015-.031.031-.031zm5.781-6.14h1.063c-.235.25-.235.515-.235.687v4.766c0 .172 0 .437.235.687H6.89c.218-.25.218-.515.218-.687z" stroke="none"/></symbol><symbol id="t" overflow="visible"><path d="M3.516-1.266H3.28c-.015.157-.094.563-.187.625-.047.047-.578.047-.688.047H1.125c.734-.64.984-.844 1.39-1.172.516-.406 1-.843 1-1.5 0-.843-.734-1.359-1.624-1.359-.86 0-1.454.61-1.454 1.25 0 .344.297.39.376.39.156 0 .359-.124.359-.374 0-.125-.047-.375-.406-.375.218-.485.687-.641 1.015-.641.703 0 1.063.547 1.063 1.11 0 .609-.438 1.078-.656 1.328L.516-.266C.437-.203.437-.187.437 0h2.876z" stroke="none"/></symbol></defs><use y="134.765" x="223.432" xlink:href="#s" width="1052.362" height="744.094"/><use y="136.259" x="232.841" xlink:href="#t" width="1052.362" height="744.094"/></g><path d="M393.448 605.219h190.976M418.443 682.772l204.964-25.782M418.443 682.772l186.387 101.2M392.684 751.968l176.845-45.138" fill="none" stroke="#000" stroke-width="1.5" stroke-linecap="round" marker-end="url(#u)"/></g></svg>