<svg xmlns:ns0="http://www.iki.fi/pav/software/textext/" xmlns="http://www.w3.org/2000/svg" xmlns:xlink="http://www.w3.org/1999/xlink" width="1052.362" height="744.094"><title>Venn-Diagramm (Restmenge)</title><defs><symbol overflow="visible" id="g"><path d="M2.89-3.516c.813-.265 1.391-.953 1.391-1.75 0-.812-.875-1.375-1.828-1.375-1 0-1.765.594-1.765 1.36 0 .328.218.515.515.515.297 0 .5-.218.5-.515 0-.485-.469-.485-.61-.485.298-.5.954-.625 1.313-.625.422 0 .969.22.969 1.11 0 .125-.031.703-.281 1.14-.297.485-.64.516-.89.516a3.29 3.29 0 0 1-.392.031c-.078.016-.14.031-.14.125 0 .11.062.11.234.11h.438c.812 0 1.187.671 1.187 1.656 0 1.36-.687 1.64-1.125 1.64-.437 0-1.187-.171-1.531-.75.344.047.656-.171.656-.546a.537.537 0 0 0-.547-.563c-.25 0-.562.14-.562.578C.422-.437 1.344.22 2.437.22c1.22 0 2.126-.906 2.126-1.922 0-.813-.641-1.594-1.672-1.813zm0 0"/></symbol></defs><g transform="translate(0 -308.268)"><rect ry="2.689" y="391.211" x="33.723" height="578.207" width="984.916" fill="#fff" stroke="#fff" stroke-width="6"/><g ns0:text="$\\mathbb{M}_{\\rm{1}}$" ns0:preamble="/home/waldgeist/.config/inkscape/extensions/preamble.tex" transform="matrix(9.17479 0 0 9.17479 -1949.875 -652.466)" fill="navy"><defs><symbol overflow="visible" id="a"><path d="M4.64-2.094L2.735-6.625c-.078-.203-.078-.203-.359-.203H.531c-.187 0-.328 0-.328.172s.172.172.219.172c.125 0 .39.03.61.109v5.313c0 .218 0 .656-.673.718-.187.016-.187.156-.187.172C.172 0 .328 0 .516 0h1.53c.188 0 .329 0 .329-.172 0-.094-.078-.172-.156-.172-.766-.062-.766-.484-.766-.719v-4.953l.016-.015L3.89-.203c.093.172.156.203.218.203.125 0 .141-.078.204-.203L6.75-6.031l.016.015v4.954c0 .218 0 .656-.688.718-.187.016-.187.156-.187.172 0 .172.156.172.343.172h2.657c.187 0 .328 0 .328-.172 0-.094-.078-.172-.156-.172-.766-.062-.766-.484-.766-.719v-4.703c0-.218 0-.656.672-.718.11 0 .187-.063.187-.172 0-.172-.14-.172-.328-.172H6.906c-.25 0-.281 0-.36.203zm-.296.188c.078.156.093.172.218.218L4.11-.64h-.015L1.828-6.062a1.26 1.26 0 0 0-.266-.422h.86zM1.328-.344h-.156c.016-.031.031-.062.047-.078.015-.016.015-.031.031-.031zm5.781-6.14h1.063c-.235.25-.235.515-.235.687v4.766c0 .172 0 .437.235.687H6.89c.218-.25.218-.515.218-.687zm0 0"/></symbol><symbol overflow="visible" id="b"><path d="M2.328-4.438c0-.187 0-.187-.203-.187-.453.438-1.078.438-1.36.438v.25c.157 0 .626 0 1-.188v3.547c0 .234 0 .328-.687.328H.812V0c.125 0 .985-.031 1.235-.031.219 0 1.094.031 1.25.031v-.25H3.03c-.703 0-.703-.094-.703-.328zm0 0"/></symbol></defs><use height="1052.362" width="744.094" xlink:href="#a" x="223.432" y="134.765"/><use height="1052.362" width="744.094" xlink:href="#b" x="232.841" y="136.259"/></g><g transform="matrix(9.17479 0 0 9.17479 -1206.24 -652.466)" ns0:preamble="/home/waldgeist/.config/inkscape/extensions/preamble.tex" ns0:text="$\\mathbb{M}_{\\rm{2}}$" fill="maroon"><defs><symbol id="c" overflow="visible"><path d="M4.64-2.094L2.735-6.625c-.078-.203-.078-.203-.359-.203H.531c-.187 0-.328 0-.328.172s.172.172.219.172c.125 0 .39.03.61.109v5.313c0 .218 0 .656-.673.718-.187.016-.187.156-.187.172C.172 0 .328 0 .516 0h1.53c.188 0 .329 0 .329-.172 0-.094-.078-.172-.156-.172-.766-.062-.766-.484-.766-.719v-4.953l.016-.015L3.89-.203c.093.172.156.203.218.203.125 0 .141-.078.204-.203L6.75-6.031l.016.015v4.954c0 .218 0 .656-.688.718-.187.016-.187.156-.187.172 0 .172.156.172.343.172h2.657c.187 0 .328 0 .328-.172 0-.094-.078-.172-.156-.172-.766-.062-.766-.484-.766-.719v-4.703c0-.218 0-.656.672-.718.11 0 .187-.063.187-.172 0-.172-.14-.172-.328-.172H6.906c-.25 0-.281 0-.36.203zm-.296.188c.078.156.093.172.218.218L4.11-.64h-.015L1.828-6.062a1.26 1.26 0 0 0-.266-.422h.86zM1.328-.344h-.156c.016-.031.031-.062.047-.078.015-.016.015-.031.031-.031zm5.781-6.14h1.063c-.235.25-.235.515-.235.687v4.766c0 .172 0 .437.235.687H6.89c.218-.25.218-.515.218-.687zm0 0"/></symbol><symbol id="d" overflow="visible"><path d="M3.516-1.266H3.28c-.015.157-.094.563-.187.625-.047.047-.578.047-.688.047H1.125c.734-.64.984-.844 1.39-1.172.516-.406 1-.843 1-1.5 0-.843-.734-1.359-1.624-1.359-.86 0-1.454.61-1.454 1.25 0 .344.297.39.376.39.156 0 .359-.124.359-.374 0-.125-.047-.375-.406-.375.218-.485.687-.641 1.015-.641.703 0 1.063.547 1.063 1.11 0 .609-.438 1.078-.656 1.328L.516-.266C.437-.203.437-.187.437 0h2.876zm0 0"/></symbol></defs><use y="134.765" x="223.432" xlink:href="#c" width="744.094" height="1052.362"/><use y="136.259" x="232.841" xlink:href="#d" width="744.094" height="1052.362"/></g><g transform="matrix(9.17479 0 0 9.17479 -1816.115 -528.52)" ns0:text="1" ns0:preamble="/home/waldgeist/.config/inkscape/extensions/preamble.tex"><defs><symbol overflow="visible" id="e"><path d="M2.938-6.375c0-.25 0-.266-.235-.266C2.078-6 1.203-6 .891-6v.313c.203 0 .78 0 1.296-.266v5.172c0 .36-.03.469-.921.469H.953V0c.344-.031 1.203-.031 1.61-.031.39 0 1.265 0 1.609.031v-.313h-.313c-.906 0-.921-.109-.921-.468zm0 0"/></symbol></defs><use height="1052.362" width="744.094" xlink:href="#e" x="223.432" y="134.765" transform="translate(2.491 .311)"/></g><g transform="matrix(9.17479 0 0 9.17479 -1546.554 -526.666)" ns0:preamble="/home/waldgeist/.config/inkscape/extensions/preamble.tex" ns0:text="5"><defs><symbol id="f" overflow="visible"><path d="M4.469-2c0-1.188-.813-2.188-1.89-2.188-.47 0-.907.157-1.267.516v-1.953c.204.063.532.125.844.125 1.235 0 1.938-.906 1.938-1.031 0-.063-.032-.11-.11-.11 0 0-.03 0-.078.032a3.22 3.22 0 0 1-1.36.296c-.39 0-.858-.078-1.327-.28-.078-.032-.094-.032-.11-.032C1-6.625 1-6.547 1-6.391v2.954c0 .171 0 .25.14.25.079 0 .094-.016.141-.079.11-.156.469-.703 1.282-.703.515 0 .765.453.843.64.156.376.188.75.188 1.25 0 .36 0 .954-.25 1.376-.235.39-.61.64-1.063.64-.719 0-1.297-.53-1.469-1.109.032 0 .063.016.172.016.329 0 .5-.25.5-.485 0-.25-.171-.5-.5-.5-.14 0-.484.079-.484.532C.5-.75 1.188.219 2.297.219 3.453.219 4.469-.734 4.469-2zm0 0"/></symbol></defs><use height="1052.362" width="744.094" y="134.765" x="223.432" xlink:href="#f"/></g><use height="1052.362" width="744.094" xlink:href="#g" x="223.432" y="134.765" transform="matrix(9.17479 0 0 9.17479 -1665.838 -526.666)"/><g transform="matrix(9.17479 0 0 9.17479 -1406.698 -526.236)" ns0:preamble="/home/waldgeist/.config/inkscape/extensions/preamble.tex" ns0:text="7"><defs><symbol id="h" overflow="visible"><path d="M4.75-6.078c.078-.11.078-.125.078-.344H2.406c-1.203 0-1.234-.125-1.265-.312H.89L.562-4.688h.25c.032-.156.11-.78.25-.906.063-.062.844-.062.97-.062h2.062c-.11.156-.89 1.25-1.11 1.578C2.078-2.734 1.75-1.344 1.75-.328c0 .094 0 .547.469.547.453 0 .453-.453.453-.547v-.516c0-.547.031-1.094.11-1.625.046-.234.171-1.094.624-1.703zm0 0"/></symbol></defs><use height="1052.362" width="744.094" y="134.765" x="223.432" xlink:href="#h"/></g><g ns0:text="9" ns0:preamble="/home/waldgeist/.config/inkscape/extensions/preamble.tex" transform="matrix(9.17479 0 0 9.17479 -1273.258 -526.666)"><defs><symbol overflow="visible" id="i"><path d="M3.656-3.172v.328c0 2.328-1.031 2.781-1.61 2.781-.171 0-.718-.015-.983-.359.437 0 .515-.281.515-.453 0-.313-.234-.453-.453-.453-.156 0-.453.078-.453.469 0 .671.531 1.078 1.375 1.078 1.297 0 2.515-1.36 2.515-3.5 0-2.688-1.156-3.36-2.046-3.36-.547 0-1.032.188-1.454.625-.421.454-.64.875-.64 1.625 0 1.235.875 2.22 1.984 2.22.61 0 1.016-.423 1.25-1zm-1.234.766c-.156 0-.625 0-.922-.625-.188-.375-.188-.86-.188-1.36 0-.53 0-1 .22-1.375.265-.5.64-.625.984-.625.468 0 .796.344.968.782.11.328.157.953.157 1.406 0 .828-.344 1.797-1.22 1.797zm0 0"/></symbol></defs><use height="1052.362" width="744.094" xlink:href="#i" x="223.432" y="134.765"/></g><rect style="marker:none" width="673.8" height="203.67" x="189.281" y="578.48" rx="101.835" ry="101.835" color="#000" fill="none" stroke="navy" stroke-width="3" stroke-linecap="round" stroke-linejoin="bevel" overflow="visible"/><rect ry="89.172" rx="89.172" y="591.143" x="226.755" height="178.344" width="355.732" style="marker:none" color="#000" fill="none" stroke="green" stroke-width="5" stroke-linecap="round" stroke-linejoin="bevel" overflow="visible"/><rect style="marker:none" width="240.088" height="178.344" x="613.43" y="591.143" rx="89.172" ry="89.172" color="#000" fill="none" stroke="maroon" stroke-width="3" stroke-linecap="round" stroke-linejoin="bevel" overflow="visible"/><g transform="matrix(9.17479 0 0 9.17479 -1808.88 -377.725)" ns0:preamble="/home/waldgeist/data/sphinx/inkscape-preamble.tex" ns0:text="$\\mathbb{M}_{\\rm{1}} \\setminus \\mathbb{M}_{\\rm{2}}$" fill="green"><defs><symbol id="j" overflow="visible"><path d="M4.64-2.094L2.735-6.625c-.078-.203-.078-.203-.359-.203H.531c-.187 0-.328 0-.328.172s.172.172.219.172c.125 0 .39.03.61.109v5.313c0 .218 0 .656-.673.718-.187.016-.187.156-.187.172C.172 0 .328 0 .516 0h1.53c.188 0 .329 0 .329-.172 0-.094-.078-.172-.156-.172-.766-.062-.766-.484-.766-.719v-4.953l.016-.015L3.89-.203c.093.172.156.203.218.203.125 0 .141-.078.204-.203L6.75-6.031l.016.015v4.954c0 .218 0 .656-.688.718-.187.016-.187.156-.187.172 0 .172.156.172.343.172h2.657c.187 0 .328 0 .328-.172 0-.094-.078-.172-.156-.172-.766-.062-.766-.484-.766-.719v-4.703c0-.218 0-.656.672-.718.11 0 .187-.063.187-.172 0-.172-.14-.172-.328-.172H6.906c-.25 0-.281 0-.36.203zm-.296.188c.078.156.093.172.218.218L4.11-.64h-.015L1.828-6.062a1.26 1.26 0 0 0-.266-.422h.86zM1.328-.344h-.156c.016-.031.031-.062.047-.078.015-.016.015-.031.031-.031zm5.781-6.14h1.063c-.235.25-.235.515-.235.687v4.766c0 .172 0 .437.235.687H6.89c.218-.25.218-.515.218-.687zm0 0"/></symbol><symbol id="k" overflow="visible"><path d="M2.328-4.438c0-.187 0-.187-.203-.187-.453.438-1.078.438-1.36.438v.25c.157 0 .626 0 1-.188v3.547c0 .234 0 .328-.687.328H.812V0c.125 0 .985-.031 1.235-.031.219 0 1.094.031 1.25.031v-.25H3.03c-.703 0-.703-.094-.703-.328zm0 0"/></symbol><symbol id="m" overflow="visible"><path d="M3.516-1.266H3.28c-.015.157-.094.563-.187.625-.047.047-.578.047-.688.047H1.125c.734-.64.984-.844 1.39-1.172.516-.406 1-.843 1-1.5 0-.843-.734-1.359-1.624-1.359-.86 0-1.454.61-1.454 1.25 0 .344.297.39.376.39.156 0 .359-.124.359-.374 0-.125-.047-.375-.406-.375.218-.485.687-.641 1.015-.641.703 0 1.063.547 1.063 1.11 0 .609-.438 1.078-.656 1.328L.516-.266C.437-.203.437-.187.437 0h2.876zm0 0"/></symbol><symbol id="l" overflow="visible"><path d="M4 2.25c.047.14.094.25.234.25.11 0 .188-.094.188-.203 0-.031 0-.047-.047-.156L.969-7.234c-.063-.172-.094-.25-.219-.25a.207.207 0 0 0-.203.203c0 .031 0 .047.047.156zm0 0"/></symbol></defs><use height="744.094" width="1052.362" y="134.765" x="223.432" xlink:href="#j"/><use height="744.094" width="1052.362" y="136.259" x="232.841" xlink:href="#k"/><use height="744.094" width="1052.362" y="134.765" x="239.525" xlink:href="#l"/><use height="744.094" width="1052.362" y="134.765" x="246.72" xlink:href="#j"/><use height="744.094" width="1052.362" y="136.259" x="256.129" xlink:href="#m"/></g></g></svg>