<svg xmlns:ns0="http://www.iki.fi/pav/software/textext/" xmlns="http://www.w3.org/2000/svg" xmlns:xlink="http://www.w3.org/1999/xlink" width="1052.362" height="744.094"><title>Venn-Diagramm (Teilmenge)</title><g transform="translate(0 -308.268)"><rect width="984.916" height="578.207" x="33.723" y="391.211" ry="2.689" fill="#fff" stroke="#fff" stroke-width="6"/><g transform="matrix(9.17479 0 0 9.17479 -1681.357 -526.666)" ns0:preamble="/home/waldgeist/.config/inkscape/extensions/preamble.tex" ns0:text="3"><defs><symbol id="a" overflow="visible"><path d="M2.89-3.516c.813-.265 1.391-.953 1.391-1.75 0-.812-.875-1.375-1.828-1.375-1 0-1.765.594-1.765 1.36 0 .328.218.515.515.515.297 0 .5-.218.5-.515 0-.485-.469-.485-.61-.485.298-.5.954-.625 1.313-.625.422 0 .969.22.969 1.11 0 .125-.031.703-.281 1.14-.297.485-.64.516-.89.516a3.29 3.29 0 0 1-.392.031c-.078.016-.14.031-.14.125 0 .11.062.11.234.11h.438c.812 0 1.187.671 1.187 1.656 0 1.36-.687 1.64-1.125 1.64-.437 0-1.187-.171-1.531-.75.344.047.656-.171.656-.546a.537.537 0 0 0-.547-.563c-.25 0-.562.14-.562.578C.422-.437 1.344.22 2.437.22c1.22 0 2.126-.906 2.126-1.922 0-.813-.641-1.594-1.672-1.813zm0 0"/></symbol></defs><use y="134.765" x="223.432" xlink:href="#a" width="744.094" height="1052.362"/></g><g ns0:text="5" ns0:preamble="/home/waldgeist/.config/inkscape/extensions/preamble.tex" transform="matrix(9.17479 0 0 9.17479 -1551.07 -526.666)"><defs><symbol overflow="visible" id="b"><path d="M4.469-2c0-1.188-.813-2.188-1.89-2.188-.47 0-.907.157-1.267.516v-1.953c.204.063.532.125.844.125 1.235 0 1.938-.906 1.938-1.031 0-.063-.032-.11-.11-.11 0 0-.03 0-.078.032a3.22 3.22 0 0 1-1.36.296c-.39 0-.858-.078-1.327-.28-.078-.032-.094-.032-.11-.032C1-6.625 1-6.547 1-6.391v2.954c0 .171 0 .25.14.25.079 0 .094-.016.141-.079.11-.156.469-.703 1.282-.703.515 0 .765.453.843.64.156.376.188.75.188 1.25 0 .36 0 .954-.25 1.376-.235.39-.61.64-1.063.64-.719 0-1.297-.53-1.469-1.109.032 0 .063.016.172.016.329 0 .5-.25.5-.485 0-.25-.171-.5-.5-.5-.14 0-.484.079-.484.532C.5-.75 1.188.219 2.297.219 3.453.219 4.469-.734 4.469-2zm0 0"/></symbol></defs><use xlink:href="#b" x="223.432" y="134.765" width="744.094" height="1052.362"/></g><g ns0:text="7" ns0:preamble="/home/waldgeist/.config/inkscape/extensions/preamble.tex" transform="matrix(9.17479 0 0 9.17479 -1422.217 -526.236)"><defs><symbol overflow="visible" id="c"><path d="M4.75-6.078c.078-.11.078-.125.078-.344H2.406c-1.203 0-1.234-.125-1.265-.312H.89L.562-4.688h.25c.032-.156.11-.78.25-.906.063-.062.844-.062.97-.062h2.062c-.11.156-.89 1.25-1.11 1.578C2.078-2.734 1.75-1.344 1.75-.328c0 .094 0 .547.469.547.453 0 .453-.453.453-.547v-.516c0-.547.031-1.094.11-1.625.046-.234.171-1.094.624-1.703zm0 0"/></symbol></defs><use xlink:href="#c" x="223.432" y="134.765" width="744.094" height="1052.362"/></g><g ns0:preamble="/home/waldgeist/.config/inkscape/extensions/preamble.tex" ns0:text="1" transform="matrix(9.17479 0 0 9.17479 -1831.633 -528.52)"><defs><symbol id="d" overflow="visible"><path d="M2.938-6.375c0-.25 0-.266-.235-.266C2.078-6 1.203-6 .891-6v.313c.203 0 .78 0 1.296-.266v5.172c0 .36-.03.469-.921.469H.953V0c.344-.031 1.203-.031 1.61-.031.39 0 1.265 0 1.609.031v-.313h-.313c-.906 0-.921-.109-.921-.468zm0 0"/></symbol></defs><use y="134.765" x="223.432" xlink:href="#d" width="744.094" height="1052.362" transform="translate(2.491 .311)"/></g><g transform="matrix(9.17479 0 0 9.17479 -1288.776 -526.666)" ns0:preamble="/home/waldgeist/.config/inkscape/extensions/preamble.tex" ns0:text="9"><defs><symbol id="e" overflow="visible"><path d="M3.656-3.172v.328c0 2.328-1.031 2.781-1.61 2.781-.171 0-.718-.015-.983-.359.437 0 .515-.281.515-.453 0-.313-.234-.453-.453-.453-.156 0-.453.078-.453.469 0 .671.531 1.078 1.375 1.078 1.297 0 2.515-1.36 2.515-3.5 0-2.688-1.156-3.36-2.046-3.36-.547 0-1.032.188-1.454.625-.421.454-.64.875-.64 1.625 0 1.235.875 2.22 1.984 2.22.61 0 1.016-.423 1.25-1zm-1.234.766c-.156 0-.625 0-.922-.625-.188-.375-.188-.86-.188-1.36 0-.53 0-1 .22-1.375.265-.5.64-.625.984-.625.468 0 .796.344.968.782.11.328.157.953.157 1.406 0 .828-.344 1.797-1.22 1.797zm0 0"/></symbol></defs><use y="134.765" x="223.432" xlink:href="#e" width="744.094" height="1052.362"/></g><g ns0:text="$\\mathbb{M}_{\\rm{2}}$" ns0:preamble="/home/waldgeist/.config/inkscape/extensions/preamble.tex" fill="navy"><path d="M915.603 518.334l-17.49-41.573c-.716-1.863-.716-1.863-3.296-1.863H877.9c-1.72 0-3.01 0-3.01 1.577 0 1.576 1.576 1.576 2.006 1.576 1.147 0 3.584.287 5.591 1.004v48.741c0 2.007 0 6.021-6.164 6.594-1.72.144-1.72 1.434-1.72 1.577 0 1.577 1.433 1.577 3.153 1.577h14.05c1.72 0 3.01 0 3.01-1.577 0-.86-.717-1.577-1.434-1.577-7.024-.573-7.024-4.444-7.024-6.594v-45.444l.143-.143 22.22 53.472c.86 1.576 1.434 1.863 2.007 1.863 1.147 0 1.29-.717 1.864-1.863l22.363-53.472.144.143v45.444c0 2.007 0 6.021-6.308 6.594-1.72.144-1.72 1.434-1.72 1.577 0 1.577 1.433 1.577 3.154 1.577h24.37c1.72 0 3.01 0 3.01-1.577 0-.86-.716-1.577-1.433-1.577-7.024-.573-7.024-4.444-7.024-6.594v-43.15c0-2.007 0-6.021 6.164-6.595 1.003 0 1.72-.573 1.72-1.576 0-1.577-1.29-1.577-3.01-1.577H936.39c-2.294 0-2.58 0-3.297 1.863zm-2.723 1.72c.716 1.434.86 1.578 2.007 2.008l-4.158 9.605h-.143l-20.787-49.745c-.43-1.147-1.29-2.724-2.437-3.87h7.885zm-27.668 14.336h-1.434c.144-.286.287-.573.43-.716.144-.144.144-.287.287-.287zm53.042-56.339h9.748c-2.15 2.294-2.15 4.731-2.15 6.308v43.724c0 1.577 0 4.014 2.15 6.307h-11.755c2.007-2.293 2.007-4.73 2.007-6.307zm0 0M991.607 539.64h-2.15c-.144 1.433-.86 5.16-1.72 5.734-.43.43-5.305.43-6.308.43h-11.755c6.737-5.878 9.031-7.741 12.758-10.752 4.731-3.727 9.175-7.741 9.175-13.762 0-7.741-6.738-12.472-14.909-12.472-7.884 0-13.332 5.59-13.332 11.468 0 3.154 2.724 3.584 3.44 3.584a3.356 3.356 0 0 0 3.298-3.44c0-1.147-.43-3.44-3.727-3.44 2.006-4.445 6.307-5.878 9.318-5.878 6.45 0 9.748 5.017 9.748 10.178 0 5.59-4.014 9.891-6.021 12.185l-15.34 15.34c-.716.573-.716.716-.716 2.436h26.378zm0 0"/></g><g ns0:preamble="/home/waldgeist/.config/inkscape/extensions/preamble.tex" ns0:text="$\\mathbb{M}_{\\rm{1}}$" fill="maroon"><path d="M745.11 603.444l-17.49-41.574c-.717-1.863-.717-1.863-3.297-1.863h-16.916c-1.72 0-3.01 0-3.01 1.577s1.576 1.577 2.006 1.577c1.147 0 3.584.286 5.591 1.003v48.741c0 2.007 0 6.021-6.164 6.595-1.72.143-1.72 1.433-1.72 1.576 0 1.577 1.433 1.577 3.154 1.577h14.048c1.72 0 3.011 0 3.011-1.577 0-.86-.717-1.576-1.434-1.576-7.024-.574-7.024-4.445-7.024-6.595v-45.444l.143-.143 22.22 53.472c.86 1.577 1.434 1.863 2.008 1.863 1.146 0 1.29-.716 1.863-1.863l22.364-53.472.143.143v45.444c0 2.007 0 6.021-6.308 6.595-1.72.143-1.72 1.433-1.72 1.576 0 1.577 1.434 1.577 3.154 1.577h24.37c1.72 0 3.01 0 3.01-1.577 0-.86-.716-1.576-1.433-1.576-7.024-.574-7.024-4.445-7.024-6.595v-43.15c0-2.007 0-6.021 6.164-6.594 1.004 0 1.72-.574 1.72-1.577 0-1.577-1.29-1.577-3.01-1.577h-17.633c-2.293 0-2.58 0-3.297 1.863zm-2.724 1.72c.717 1.433.86 1.577 2.007 2.007l-4.157 9.605h-.144l-20.786-49.745c-.43-1.147-1.29-2.724-2.438-3.87h7.885zM714.718 619.5h-1.433c.143-.287.286-.574.43-.717.143-.144.143-.287.286-.287zm53.042-56.34h9.748c-2.15 2.294-2.15 4.731-2.15 6.308v43.724c0 1.577 0 4.014 2.15 6.308h-11.755c2.007-2.294 2.007-4.731 2.007-6.308zm0 0M810.218 595.647c0-1.72 0-1.72-1.863-1.72-4.158 4.014-9.892 4.014-12.472 4.014v2.294c1.433 0 5.734 0 9.175-1.72v32.541c0 2.15 0 3.01-6.308 3.01h-2.437v2.294c1.147 0 9.031-.286 11.325-.286 2.007 0 10.035.286 11.468.286v-2.293h-2.437c-6.45 0-6.45-.86-6.45-3.01zm0 0"/></g><rect style="marker:none" width="359.675" height="189.909" x="347.114" y="582.222" rx="95.009" ry="94.954" color="#000" fill="none" stroke="maroon" stroke-width="3" stroke-linecap="round" stroke-linejoin="bevel" overflow="visible"/><rect ry="204.051" rx="203.367" y="473.125" x="142.009" height="408.102" width="769.884" style="marker:none" color="#000" fill="none" stroke="navy" stroke-width="3" stroke-linecap="round" stroke-linejoin="bevel" overflow="visible"/></g></svg>