<?xml version="1.0" encoding="UTF-8" standalone="no"?>
<!-- Created with Inkscape (http://www.inkscape.org/) -->

<svg
   xmlns:ns0="http://www.iki.fi/pav/software/textext/"
   xmlns:dc="http://purl.org/dc/elements/1.1/"
   xmlns:cc="http://creativecommons.org/ns#"
   xmlns:rdf="http://www.w3.org/1999/02/22-rdf-syntax-ns#"
   xmlns:svg="http://www.w3.org/2000/svg"
   xmlns="http://www.w3.org/2000/svg"
   xmlns:xlink="http://www.w3.org/1999/xlink"
   xmlns:sodipodi="http://sodipodi.sourceforge.net/DTD/sodipodi-0.dtd"
   xmlns:inkscape="http://www.inkscape.org/namespaces/inkscape"
   inkscape:export-ydpi="150"
   inkscape:export-xdpi="150"
   inkscape:export-filename="/home/waldgeist/data/pics/physik/Own/mathematik/venn-diagramm-abbildung.png"
   sodipodi:docname="venn-diagramm-abbildung.svg"
   inkscape:version="0.48.3.1 r9886"
   version="1.1"
   id="svg36025"
   height="744.09448"
   width="1052.3622">
  <sodipodi:namedview
     id="base"
     pagecolor="#ffffff"
     bordercolor="#666666"
     borderopacity="1.0"
     inkscape:pageopacity="0.0"
     inkscape:pageshadow="2"
     inkscape:zoom="0.49497475"
     inkscape:cx="615.69284"
     inkscape:cy="412.17236"
     inkscape:document-units="px"
     inkscape:current-layer="layer1"
     showgrid="false"
     inkscape:window-width="1280"
     inkscape:window-height="974"
     inkscape:window-x="0"
     inkscape:window-y="0"
     inkscape:window-maximized="1"
     inkscape:snap-global="true"
     showguides="false"
     inkscape:guide-bbox="true"
     inkscape:object-paths="true"
     inkscape:object-nodes="true"
     inkscape:snap-smooth-nodes="true"
     inkscape:snap-midpoints="true"
     inkscape:snap-object-midpoints="true"
     inkscape:snap-page="true">
    <sodipodi:guide
       orientation="0,1"
       position="671.42857,418.69649"
       id="guide7923" />
  </sodipodi:namedview>
  <title
     id="title36514">Venn-Diagramm einer Abbildung</title>
  <defs
     id="defs36027">
    <marker
       inkscape:stockid="Arrow2Mend"
       orient="auto"
       refY="0.0"
       refX="0.0"
       id="Arrow2Mend"
       style="overflow:visible;">
      <path
         id="path7320"
         style="fill-rule:evenodd;stroke-width:0.62500000;stroke-linejoin:round;"
         d="M 8.7185878,4.0337352 L -2.2072895,0.016013256 L 8.7185884,-4.0017078 C 6.9730900,-1.6296469 6.9831476,1.6157441 8.7185878,4.0337352 z "
         transform="scale(0.6) rotate(180) translate(0,0)" />
    </marker>
    <marker
       inkscape:stockid="Arrow2Mstart"
       orient="auto"
       refY="0.0"
       refX="0.0"
       id="Arrow2Mstart"
       style="overflow:visible">
      <path
         id="path7317"
         style="fill-rule:evenodd;stroke-width:0.62500000;stroke-linejoin:round"
         d="M 8.7185878,4.0337352 L -2.2072895,0.016013256 L 8.7185884,-4.0017078 C 6.9730900,-1.6296469 6.9831476,1.6157441 8.7185878,4.0337352 z "
         transform="scale(0.6) translate(0,0)" />
    </marker>
    <defs
       id="defs36352">
      <g
         id="g36354">
        <symbol
           style="overflow:visible"
           overflow="visible"
           id="textext-89ea37bc-0">
          <path
             inkscape:connector-curvature="0"
             style="stroke:none"
             d="m 1.625,-4.5625 c -0.453125,-0.296875 -0.5,-0.625 -0.5,-0.796875 0,-0.609375 0.65625,-1.03125 1.359375,-1.03125 0.71875,0 1.359375,0.515625 1.359375,1.234375 0,0.578125 -0.390625,1.046875 -0.984375,1.390625 z m 1.453125,0.953125 C 3.796875,-3.984375 4.28125,-4.5 4.28125,-5.15625 c 0,-0.921875 -0.875,-1.484375 -1.78125,-1.484375 -1,0 -1.8125,0.734375 -1.8125,1.671875 0,0.171875 0.015625,0.625 0.4375,1.09375 0.109375,0.109375 0.484375,0.359375 0.734375,0.53125 C 1.28125,-3.046875 0.421875,-2.5 0.421875,-1.5 c 0,1.046875 1.015625,1.71875 2.0625,1.71875 1.125,0 2.078125,-0.828125 2.078125,-1.890625 0,-0.359375 -0.109375,-0.8125 -0.5,-1.234375 C 3.875,-3.109375 3.71875,-3.203125 3.078125,-3.609375 z m -1,0.421875 1.234375,0.78125 c 0.28125,0.1875 0.75,0.484375 0.75,1.09375 0,0.734375 -0.75,1.25 -1.5625,1.25 -0.859375,0 -1.578125,-0.609375 -1.578125,-1.4375 0,-0.578125 0.3125,-1.21875 1.15625,-1.6875 z m 0,0"
             id="path36357" />
        </symbol>
      </g>
    </defs>
    <defs
       id="defs36250">
      <g
         id="g36252">
        <symbol
           style="overflow:visible"
           id="textext-ef24bb1e-0"
           overflow="visible">
          <path
             inkscape:connector-curvature="0"
             id="path36255"
             d="m 4.46875,-2 c 0,-1.1875 -0.8125,-2.1875 -1.890625,-2.1875 -0.46875,0 -0.90625,0.15625 -1.265625,0.515625 l 0,-1.953125 c 0.203125,0.0625 0.53125,0.125 0.84375,0.125 1.234375,0 1.9375,-0.90625 1.9375,-1.03125 0,-0.0625 -0.03125,-0.109375 -0.109375,-0.109375 0,0 -0.03125,0 -0.078125,0.03125 C 3.703125,-6.515625 3.21875,-6.3125 2.546875,-6.3125 2.15625,-6.3125 1.6875,-6.390625 1.21875,-6.59375 1.140625,-6.625 1.125,-6.625 1.109375,-6.625 1,-6.625 1,-6.546875 1,-6.390625 L 1,-3.4375 c 0,0.171875 0,0.25 0.140625,0.25 0.078125,0 0.09375,-0.015625 0.140625,-0.078125 C 1.390625,-3.421875 1.75,-3.96875 2.5625,-3.96875 c 0.515625,0 0.765625,0.453125 0.84375,0.640625 0.15625,0.375 0.1875,0.75 0.1875,1.25 0,0.359375 0,0.953125 -0.25,1.375 C 3.109375,-0.3125 2.734375,-0.0625 2.28125,-0.0625 c -0.71875,0 -1.296875,-0.53125 -1.46875,-1.109375 0.03125,0 0.0625,0.015625 0.171875,0.015625 0.328125,0 0.5,-0.25 0.5,-0.484375 0,-0.25 -0.171875,-0.5 -0.5,-0.5 C 0.84375,-2.140625 0.5,-2.0625 0.5,-1.609375 0.5,-0.75 1.1875,0.21875 2.296875,0.21875 3.453125,0.21875 4.46875,-0.734375 4.46875,-2 z m 0,0"
             style="stroke:none" />
        </symbol>
      </g>
    </defs>
    <defs
       id="defs36164">
      <g
         id="g36166">
        <symbol
           style="overflow:visible"
           overflow="visible"
           id="textext-ad032493-0">
          <path
             inkscape:connector-curvature="0"
             style="stroke:none"
             d="m 2.890625,-3.515625 c 0.8125,-0.265625 1.390625,-0.953125 1.390625,-1.75 0,-0.8125 -0.875,-1.375 -1.828125,-1.375 -1,0 -1.765625,0.59375 -1.765625,1.359375 0,0.328125 0.21875,0.515625 0.515625,0.515625 0.296875,0 0.5,-0.21875 0.5,-0.515625 0,-0.484375 -0.46875,-0.484375 -0.609375,-0.484375 0.296875,-0.5 0.953125,-0.625 1.3125,-0.625 0.421875,0 0.96875,0.21875 0.96875,1.109375 0,0.125 -0.03125,0.703125 -0.28125,1.140625 C 2.796875,-3.65625 2.453125,-3.625 2.203125,-3.625 2.125,-3.609375 1.890625,-3.59375 1.8125,-3.59375 c -0.078125,0.015625 -0.140625,0.03125 -0.140625,0.125 0,0.109375 0.0625,0.109375 0.234375,0.109375 l 0.4375,0 c 0.8125,0 1.1875,0.671875 1.1875,1.65625 0,1.359375 -0.6875,1.640625 -1.125,1.640625 -0.4375,0 -1.1875,-0.171875 -1.53125,-0.75 0.34375,0.046875 0.65625,-0.171875 0.65625,-0.546875 0,-0.359375 -0.265625,-0.5625 -0.546875,-0.5625 -0.25,0 -0.5625,0.140625 -0.5625,0.578125 0,0.90625 0.921875,1.5625 2.015625,1.5625 1.21875,0 2.125,-0.90625 2.125,-1.921875 0,-0.8125 -0.640625,-1.59375 -1.671875,-1.8125 z m 0,0"
             id="path36169" />
        </symbol>
      </g>
    </defs>
    <defs
       id="defs36094">
      <g
         id="g36096">
        <symbol
           style="overflow:visible"
           id="textext-ba8ce2a6-0"
           overflow="visible">
          <path
             inkscape:connector-curvature="0"
             id="path36099"
             d="m 1.265625,-0.765625 1.0625,-1.03125 c 1.546875,-1.375 2.140625,-1.90625 2.140625,-2.90625 0,-1.140625 -0.890625,-1.9375 -2.109375,-1.9375 -1.125,0 -1.859375,0.921875 -1.859375,1.8125 0,0.546875 0.5,0.546875 0.53125,0.546875 0.171875,0 0.515625,-0.109375 0.515625,-0.53125 0,-0.25 -0.1875,-0.515625 -0.53125,-0.515625 -0.078125,0 -0.09375,0 -0.125,0.015625 0.21875,-0.65625 0.765625,-1.015625 1.34375,-1.015625 0.90625,0 1.328125,0.8125 1.328125,1.625 C 3.5625,-3.90625 3.078125,-3.125 2.515625,-2.5 l -1.90625,2.125 C 0.5,-0.265625 0.5,-0.234375 0.5,0 l 3.703125,0 0.265625,-1.734375 -0.234375,0 C 4.171875,-1.4375 4.109375,-1 4,-0.84375 3.9375,-0.765625 3.28125,-0.765625 3.0625,-0.765625 z m 0,0"
             style="stroke:none" />
        </symbol>
      </g>
    </defs>
    <defs
       id="defs36040">
      <g
         id="g36042">
        <symbol
           style="overflow:visible"
           overflow="visible"
           id="textext-e7fc490d-0">
          <path
             inkscape:connector-curvature="0"
             style="stroke:none"
             d="m 2.9375,-6.375 c 0,-0.25 0,-0.265625 -0.234375,-0.265625 C 2.078125,-6 1.203125,-6 0.890625,-6 l 0,0.3125 c 0.203125,0 0.78125,0 1.296875,-0.265625 l 0,5.171875 c 0,0.359375 -0.03125,0.46875 -0.921875,0.46875 l -0.3125,0 0,0.3125 c 0.34375,-0.03125 1.203125,-0.03125 1.609375,-0.03125 0.390625,0 1.265625,0 1.609375,0.03125 l 0,-0.3125 -0.3125,0 c -0.90625,0 -0.921875,-0.109375 -0.921875,-0.46875 z m 0,0"
             id="path36045" />
        </symbol>
      </g>
    </defs>
  </defs>
  <metadata
     id="metadata36030">
    <rdf:RDF>
      <cc:Work
         rdf:about="">
        <dc:format>image/svg+xml</dc:format>
        <dc:type
           rdf:resource="http://purl.org/dc/dcmitype/StillImage" />
        <dc:title>Venn-Diagramm einer Abbildung</dc:title>
        <cc:license
           rdf:resource="http://creativecommons.org/licenses/by-nc-sa/3.0/" />
        <dc:date>2013-06-29</dc:date>
        <dc:creator>
          <cc:Agent>
            <dc:title>Bernhard Grotz</dc:title>
          </cc:Agent>
        </dc:creator>
        <dc:rights>
          <cc:Agent>
            <dc:title>Bernhard Grotz</dc:title>
          </cc:Agent>
        </dc:rights>
        <dc:publisher>
          <cc:Agent>
            <dc:title>Bernhard Grotz</dc:title>
          </cc:Agent>
        </dc:publisher>
        <dc:language>de-DE</dc:language>
        <dc:subject>
          <rdf:Bag>
            <rdf:li>Mathematik</rdf:li>
            <rdf:li>Mengenlehre</rdf:li>
            <rdf:li>Menge</rdf:li>
            <rdf:li>Venn-Diagramm</rdf:li>
            <rdf:li>Abbildung</rdf:li>
          </rdf:Bag>
        </dc:subject>
      </cc:Work>
      <cc:License
         rdf:about="http://creativecommons.org/licenses/by-nc-sa/3.0/">
        <cc:permits
           rdf:resource="http://creativecommons.org/ns#Reproduction" />
        <cc:permits
           rdf:resource="http://creativecommons.org/ns#Distribution" />
        <cc:requires
           rdf:resource="http://creativecommons.org/ns#Notice" />
        <cc:requires
           rdf:resource="http://creativecommons.org/ns#Attribution" />
        <cc:prohibits
           rdf:resource="http://creativecommons.org/ns#CommercialUse" />
        <cc:permits
           rdf:resource="http://creativecommons.org/ns#DerivativeWorks" />
        <cc:requires
           rdf:resource="http://creativecommons.org/ns#ShareAlike" />
      </cc:License>
    </rdf:RDF>
  </metadata>
  <g
     transform="translate(0,-308.2677)"
     id="layer1"
     inkscape:groupmode="layer"
     inkscape:label="Layer 1">
    <rect
       style="fill:#ffffff;fill-opacity:1;stroke:#ffffff;stroke-width:3.33159375"
       id="rect36516-8"
       width="492.45819"
       height="356.54568"
       x="279.952"
       y="502.04205"
       ry="1.658352"
       inkscape:export-filename="/home/waldgeist/data/pics/physik/Own/mathematik/venn-diagramm-abbildung.png"
       inkscape:export-xdpi="150"
       inkscape:export-ydpi="150" />
    <rect
       inkscape:export-ydpi="150"
       inkscape:export-xdpi="150"
       inkscape:export-filename="/home/waldgeist/data/pics/physik/Own/mathematik/venn-diagramm.png"
       rx="67.857147"
       ry="67.857147"
       y="297.51071"
       x="560.08282"
       height="135.71429"
       width="263.66226"
       id="rect3138"
       style="color:#000000;fill:none;stroke:#666666;stroke-width:1.5;stroke-linecap:round;stroke-linejoin:bevel;stroke-miterlimit:4;stroke-opacity:1;stroke-dasharray:none;stroke-dashoffset:0;marker:none;visibility:visible;display:inline;overflow:visible;enable-background:accumulate"
       transform="matrix(0,1,1,0,0,0)" />
    <g
       id="g3456"
       style="fill:#333333;stroke:#4d4d4d;stroke-width:1"
       transform="matrix(4.5873949,0,0,4.5873949,-611.51691,-50.762144)"
       ns0:preamble="/home/waldgeist/data/sphinx/inkscape-preamble.tex"
       ns0:text="$\\mathbb{M} _{\\rm{1}}$">
      <defs
         id="defs3458">
        <g
           id="g3460">
          <symbol
             style="overflow:visible"
             id="textext-4237f74f-0"
             overflow="visible">
            <path
               inkscape:connector-curvature="0"
               id="path3463"
               d=""
               style="stroke:none" />
          </symbol>
          <symbol
             style="overflow:visible"
             id="textext-4237f74f-1"
             overflow="visible">
            <path
               inkscape:connector-curvature="0"
               id="path3466"
               d="M 4.640625,-2.09375 2.734375,-6.625 C 2.65625,-6.828125 2.65625,-6.828125 2.375,-6.828125 l -1.84375,0 c -0.1875,0 -0.328125,0 -0.328125,0.171875 0,0.171875 0.171875,0.171875 0.21875,0.171875 0.125,0 0.390625,0.03125 0.609375,0.109375 l 0,5.3125 c 0,0.21875 0,0.65625 -0.671875,0.71875 -0.1875,0.015625 -0.1875,0.15625 -0.1875,0.171875 C 0.171875,0 0.328125,0 0.515625,0 l 1.53125,0 C 2.234375,0 2.375,0 2.375,-0.171875 2.375,-0.265625 2.296875,-0.34375 2.21875,-0.34375 1.453125,-0.40625 1.453125,-0.828125 1.453125,-1.0625 l 0,-4.953125 0.015625,-0.015625 2.421875,5.828125 C 3.984375,-0.03125 4.046875,0 4.109375,0 4.234375,0 4.25,-0.078125 4.3125,-0.203125 L 6.75,-6.03125 l 0.015625,0.015625 0,4.953125 c 0,0.21875 0,0.65625 -0.6875,0.71875 -0.1875,0.015625 -0.1875,0.15625 -0.1875,0.171875 C 5.890625,0 6.046875,0 6.234375,0 l 2.65625,0 C 9.078125,0 9.21875,0 9.21875,-0.171875 9.21875,-0.265625 9.140625,-0.34375 9.0625,-0.34375 8.296875,-0.40625 8.296875,-0.828125 8.296875,-1.0625 l 0,-4.703125 c 0,-0.21875 0,-0.65625 0.671875,-0.71875 0.109375,0 0.1875,-0.0625 0.1875,-0.171875 0,-0.171875 -0.140625,-0.171875 -0.328125,-0.171875 l -1.921875,0 c -0.25,0 -0.28125,0 -0.359375,0.203125 z M 4.34375,-1.90625 C 4.421875,-1.75 4.4375,-1.734375 4.5625,-1.6875 l -0.453125,1.046875 -0.015625,0 L 1.828125,-6.0625 C 1.78125,-6.1875 1.6875,-6.359375 1.5625,-6.484375 l 0.859375,0 z m -3.015625,1.5625 -0.15625,0 C 1.1875,-0.375 1.203125,-0.40625 1.21875,-0.421875 1.234375,-0.4375 1.234375,-0.453125 1.25,-0.453125 z m 5.78125,-6.140625 1.0625,0 C 7.9375,-6.234375 7.9375,-5.96875 7.9375,-5.796875 l 0,4.765625 c 0,0.171875 0,0.4375 0.234375,0.6875 l -1.28125,0 c 0.21875,-0.25 0.21875,-0.515625 0.21875,-0.6875 z"
               style="stroke:none" />
          </symbol>
          <symbol
             style="overflow:visible"
             id="textext-4237f74f-2"
             overflow="visible">
            <path
               inkscape:connector-curvature="0"
               id="path3469"
               d=""
               style="stroke:none" />
          </symbol>
          <symbol
             style="overflow:visible"
             id="textext-4237f74f-3"
             overflow="visible">
            <path
               inkscape:connector-curvature="0"
               id="path3472"
               d="m 2.328125,-4.4375 c 0,-0.1875 0,-0.1875 -0.203125,-0.1875 -0.453125,0.4375 -1.078125,0.4375 -1.359375,0.4375 l 0,0.25 c 0.15625,0 0.625,0 1,-0.1875 l 0,3.546875 c 0,0.234375 0,0.328125 -0.6875,0.328125 l -0.265625,0 0,0.25 c 0.125,0 0.984375,-0.03125 1.234375,-0.03125 0.21875,0 1.09375,0.03125 1.25,0.03125 l 0,-0.25 -0.265625,0 c -0.703125,0 -0.703125,-0.09375 -0.703125,-0.328125 z"
               style="stroke:none" />
          </symbol>
        </g>
      </defs>
      <g
         id="textext-4237f74f-4"
         style="fill:#333333;stroke:#4d4d4d;stroke-width:1">
        <g
           id="g3475"
           style="fill:#333333;fill-opacity:1;stroke:#4d4d4d;stroke-width:1">
          <use
             height="744.09448"
             width="1052.3622"
             id="use3477"
             y="134.765"
             x="223.43201"
             xlink:href="#textext-4237f74f-1"
             style="fill:#333333;stroke:#4d4d4d;stroke-width:1" />
        </g>
        <g
           id="g3479"
           style="fill:#333333;fill-opacity:1;stroke:#4d4d4d;stroke-width:1">
          <use
             height="744.09448"
             width="1052.3622"
             id="use3481"
             y="136.259"
             x="232.841"
             xlink:href="#textext-4237f74f-3"
             style="fill:#333333;stroke:#4d4d4d;stroke-width:1" />
        </g>
      </g>
    </g>
    <rect
       transform="matrix(0,1,1,0,0,0)"
       style="color:#000000;fill:none;stroke:#666666;stroke-width:1.5;stroke-linecap:round;stroke-linejoin:bevel;stroke-miterlimit:4;stroke-opacity:1;stroke-dasharray:none;stroke-dashoffset:0;marker:none;visibility:visible;display:inline;overflow:visible;enable-background:accumulate"
       id="rect3530"
       width="263.66226"
       height="211.42857"
       x="560.08282"
       y="527.51068"
       ry="105.71429"
       rx="105.71964"
       inkscape:export-filename="/home/waldgeist/data/pics/physik/Own/mathematik/venn-diagramm.png"
       inkscape:export-xdpi="150"
       inkscape:export-ydpi="150" />
    <g
       transform="matrix(4.6099499,0,0,4.6099499,-686.67016,-6.688429)"
       ns0:text="$x _{\\rm{1}}$"
       ns0:preamble="/home/waldgeist/data/sphinx/inkscape-preamble.tex"
       id="g3582">
      <defs
         id="defs3584">
        <g
           id="g3586">
          <symbol
             style="overflow:visible"
             overflow="visible"
             id="textext-3e64bd03-0">
            <path
               inkscape:connector-curvature="0"
               style="stroke:none"
               d=""
               id="path3589" />
          </symbol>
          <symbol
             style="overflow:visible"
             overflow="visible"
             id="textext-3e64bd03-1">
            <path
               inkscape:connector-curvature="0"
               style="stroke:none"
               d="M 3.328125,-3.015625 C 3.390625,-3.265625 3.625,-4.1875 4.3125,-4.1875 c 0.046875,0 0.296875,0 0.5,0.125 C 4.53125,-4 4.34375,-3.765625 4.34375,-3.515625 c 0,0.15625 0.109375,0.34375 0.375,0.34375 0.21875,0 0.53125,-0.171875 0.53125,-0.578125 0,-0.515625 -0.578125,-0.65625 -0.921875,-0.65625 -0.578125,0 -0.921875,0.53125 -1.046875,0.75 -0.25,-0.65625 -0.78125,-0.75 -1.078125,-0.75 -1.03125,0 -1.609375,1.28125 -1.609375,1.53125 0,0.109375 0.109375,0.109375 0.125,0.109375 0.078125,0 0.109375,-0.03125 0.125,-0.109375 0.34375,-1.0625 1,-1.3125 1.34375,-1.3125 0.1875,0 0.53125,0.09375 0.53125,0.671875 0,0.3125 -0.171875,0.96875 -0.53125,2.375 -0.15625,0.609375 -0.515625,1.03125 -0.953125,1.03125 -0.0625,0 -0.28125,0 -0.5,-0.125 0.25,-0.0625 0.46875,-0.265625 0.46875,-0.546875 0,-0.265625 -0.21875,-0.34375 -0.359375,-0.34375 -0.3125,0 -0.546875,0.25 -0.546875,0.578125 0,0.453125 0.484375,0.65625 0.921875,0.65625 0.671875,0 1.03125,-0.703125 1.046875,-0.75 0.125,0.359375 0.484375,0.75 1.078125,0.75 1.03125,0 1.59375,-1.28125 1.59375,-1.53125 0,-0.109375 -0.078125,-0.109375 -0.109375,-0.109375 -0.09375,0 -0.109375,0.046875 -0.140625,0.109375 -0.328125,1.078125 -1,1.3125 -1.3125,1.3125 -0.390625,0 -0.546875,-0.3125 -0.546875,-0.65625 0,-0.21875 0.046875,-0.4375 0.15625,-0.875 z"
               id="path3592" />
          </symbol>
          <symbol
             style="overflow:visible"
             overflow="visible"
             id="textext-3e64bd03-2">
            <path
               inkscape:connector-curvature="0"
               style="stroke:none"
               d=""
               id="path3595" />
          </symbol>
          <symbol
             style="overflow:visible"
             overflow="visible"
             id="textext-3e64bd03-3">
            <path
               inkscape:connector-curvature="0"
               style="stroke:none"
               d="m 2.328125,-4.4375 c 0,-0.1875 0,-0.1875 -0.203125,-0.1875 -0.453125,0.4375 -1.078125,0.4375 -1.359375,0.4375 l 0,0.25 c 0.15625,0 0.625,0 1,-0.1875 l 0,3.546875 c 0,0.234375 0,0.328125 -0.6875,0.328125 l -0.265625,0 0,0.25 c 0.125,0 0.984375,-0.03125 1.234375,-0.03125 0.21875,0 1.09375,0.03125 1.25,0.03125 l 0,-0.25 -0.265625,0 c -0.703125,0 -0.703125,-0.09375 -0.703125,-0.328125 z"
               id="path3598" />
          </symbol>
        </g>
      </defs>
      <g
         id="textext-3e64bd03-4">
        <g
           style="fill:#000000;fill-opacity:1"
           id="g3601">
          <use
             height="744.09448"
             width="1052.3622"
             xlink:href="#textext-3e64bd03-1"
             x="223.43201"
             y="134.765"
             id="use3603" />
        </g>
        <g
           style="fill:#000000;fill-opacity:1"
           id="g3605">
          <use
             height="744.09448"
             width="1052.3622"
             xlink:href="#textext-3e64bd03-3"
             x="229.12601"
             y="136.259"
             id="use3607" />
        </g>
      </g>
    </g>
    <g
       ns0:text="$x _{\\rm{2}}$"
       ns0:preamble="/home/waldgeist/data/sphinx/inkscape-preamble.tex"
       transform="matrix(4.6099499,0,0,4.6099499,-664.52731,68.311571)"
       id="g3960">
      <defs
         id="defs3962">
        <g
           id="g3964">
          <symbol
             style="overflow:visible"
             overflow="visible"
             id="textext-40d3c38f-0">
            <path
               inkscape:connector-curvature="0"
               style="stroke:none"
               d=""
               id="path3967" />
          </symbol>
          <symbol
             style="overflow:visible"
             overflow="visible"
             id="textext-40d3c38f-1">
            <path
               inkscape:connector-curvature="0"
               style="stroke:none"
               d="M 3.328125,-3.015625 C 3.390625,-3.265625 3.625,-4.1875 4.3125,-4.1875 c 0.046875,0 0.296875,0 0.5,0.125 C 4.53125,-4 4.34375,-3.765625 4.34375,-3.515625 c 0,0.15625 0.109375,0.34375 0.375,0.34375 0.21875,0 0.53125,-0.171875 0.53125,-0.578125 0,-0.515625 -0.578125,-0.65625 -0.921875,-0.65625 -0.578125,0 -0.921875,0.53125 -1.046875,0.75 -0.25,-0.65625 -0.78125,-0.75 -1.078125,-0.75 -1.03125,0 -1.609375,1.28125 -1.609375,1.53125 0,0.109375 0.109375,0.109375 0.125,0.109375 0.078125,0 0.109375,-0.03125 0.125,-0.109375 0.34375,-1.0625 1,-1.3125 1.34375,-1.3125 0.1875,0 0.53125,0.09375 0.53125,0.671875 0,0.3125 -0.171875,0.96875 -0.53125,2.375 -0.15625,0.609375 -0.515625,1.03125 -0.953125,1.03125 -0.0625,0 -0.28125,0 -0.5,-0.125 0.25,-0.0625 0.46875,-0.265625 0.46875,-0.546875 0,-0.265625 -0.21875,-0.34375 -0.359375,-0.34375 -0.3125,0 -0.546875,0.25 -0.546875,0.578125 0,0.453125 0.484375,0.65625 0.921875,0.65625 0.671875,0 1.03125,-0.703125 1.046875,-0.75 0.125,0.359375 0.484375,0.75 1.078125,0.75 1.03125,0 1.59375,-1.28125 1.59375,-1.53125 0,-0.109375 -0.078125,-0.109375 -0.109375,-0.109375 -0.09375,0 -0.109375,0.046875 -0.140625,0.109375 -0.328125,1.078125 -1,1.3125 -1.3125,1.3125 -0.390625,0 -0.546875,-0.3125 -0.546875,-0.65625 0,-0.21875 0.046875,-0.4375 0.15625,-0.875 z"
               id="path3970" />
          </symbol>
          <symbol
             style="overflow:visible"
             overflow="visible"
             id="textext-40d3c38f-2">
            <path
               inkscape:connector-curvature="0"
               style="stroke:none"
               d=""
               id="path3973" />
          </symbol>
          <symbol
             style="overflow:visible"
             overflow="visible"
             id="textext-40d3c38f-3">
            <path
               inkscape:connector-curvature="0"
               style="stroke:none"
               d="m 3.515625,-1.265625 -0.234375,0 c -0.015625,0.15625 -0.09375,0.5625 -0.1875,0.625 -0.046875,0.046875 -0.578125,0.046875 -0.6875,0.046875 l -1.28125,0 c 0.734375,-0.640625 0.984375,-0.84375 1.390625,-1.171875 0.515625,-0.40625 1,-0.84375 1,-1.5 0,-0.84375 -0.734375,-1.359375 -1.625,-1.359375 -0.859375,0 -1.453125,0.609375 -1.453125,1.25 0,0.34375 0.296875,0.390625 0.375,0.390625 0.15625,0 0.359375,-0.125 0.359375,-0.375 0,-0.125 -0.046875,-0.375 -0.40625,-0.375 C 0.984375,-4.21875 1.453125,-4.375 1.78125,-4.375 c 0.703125,0 1.0625,0.546875 1.0625,1.109375 0,0.609375 -0.4375,1.078125 -0.65625,1.328125 L 0.515625,-0.265625 C 0.4375,-0.203125 0.4375,-0.1875 0.4375,0 l 2.875,0 z"
               id="path3976" />
          </symbol>
        </g>
      </defs>
      <g
         id="textext-40d3c38f-4">
        <g
           style="fill:#000000;fill-opacity:1"
           id="g3979">
          <use
             height="744.09448"
             width="1052.3622"
             xlink:href="#textext-40d3c38f-1"
             x="223.43201"
             y="134.765"
             id="use3981" />
        </g>
        <g
           style="fill:#000000;fill-opacity:1"
           id="g3983">
          <use
             height="744.09448"
             width="1052.3622"
             xlink:href="#textext-40d3c38f-3"
             x="229.12601"
             y="136.259"
             id="use3985" />
        </g>
      </g>
    </g>
    <g
       id="g4367"
       transform="matrix(4.6099499,0,0,4.6099499,-687.38446,139.74014)"
       ns0:preamble="/home/waldgeist/data/sphinx/inkscape-preamble.tex"
       ns0:text="$x _{\\rm{3}}$">
      <defs
         id="defs4369">
        <g
           id="g4371">
          <symbol
             style="overflow:visible"
             id="textext-6b43bb3a-0"
             overflow="visible">
            <path
               inkscape:connector-curvature="0"
               id="path4374"
               d=""
               style="stroke:none" />
          </symbol>
          <symbol
             style="overflow:visible"
             id="textext-6b43bb3a-1"
             overflow="visible">
            <path
               inkscape:connector-curvature="0"
               id="path4377"
               d="M 3.328125,-3.015625 C 3.390625,-3.265625 3.625,-4.1875 4.3125,-4.1875 c 0.046875,0 0.296875,0 0.5,0.125 C 4.53125,-4 4.34375,-3.765625 4.34375,-3.515625 c 0,0.15625 0.109375,0.34375 0.375,0.34375 0.21875,0 0.53125,-0.171875 0.53125,-0.578125 0,-0.515625 -0.578125,-0.65625 -0.921875,-0.65625 -0.578125,0 -0.921875,0.53125 -1.046875,0.75 -0.25,-0.65625 -0.78125,-0.75 -1.078125,-0.75 -1.03125,0 -1.609375,1.28125 -1.609375,1.53125 0,0.109375 0.109375,0.109375 0.125,0.109375 0.078125,0 0.109375,-0.03125 0.125,-0.109375 0.34375,-1.0625 1,-1.3125 1.34375,-1.3125 0.1875,0 0.53125,0.09375 0.53125,0.671875 0,0.3125 -0.171875,0.96875 -0.53125,2.375 -0.15625,0.609375 -0.515625,1.03125 -0.953125,1.03125 -0.0625,0 -0.28125,0 -0.5,-0.125 0.25,-0.0625 0.46875,-0.265625 0.46875,-0.546875 0,-0.265625 -0.21875,-0.34375 -0.359375,-0.34375 -0.3125,0 -0.546875,0.25 -0.546875,0.578125 0,0.453125 0.484375,0.65625 0.921875,0.65625 0.671875,0 1.03125,-0.703125 1.046875,-0.75 0.125,0.359375 0.484375,0.75 1.078125,0.75 1.03125,0 1.59375,-1.28125 1.59375,-1.53125 0,-0.109375 -0.078125,-0.109375 -0.109375,-0.109375 -0.09375,0 -0.109375,0.046875 -0.140625,0.109375 -0.328125,1.078125 -1,1.3125 -1.3125,1.3125 -0.390625,0 -0.546875,-0.3125 -0.546875,-0.65625 0,-0.21875 0.046875,-0.4375 0.15625,-0.875 z"
               style="stroke:none" />
          </symbol>
          <symbol
             style="overflow:visible"
             id="textext-6b43bb3a-2"
             overflow="visible">
            <path
               inkscape:connector-curvature="0"
               id="path4380"
               d=""
               style="stroke:none" />
          </symbol>
          <symbol
             style="overflow:visible"
             id="textext-6b43bb3a-3"
             overflow="visible">
            <path
               inkscape:connector-curvature="0"
               id="path4383"
               d="m 1.90625,-2.328125 c 0.546875,0 0.9375,0.375 0.9375,1.125 0,0.859375 -0.515625,1.125 -0.90625,1.125 -0.28125,0 -0.90625,-0.078125 -1.1875,-0.5 0.328125,0 0.40625,-0.234375 0.40625,-0.390625 0,-0.21875 -0.171875,-0.375 -0.390625,-0.375 -0.1875,0 -0.390625,0.125 -0.390625,0.40625 0,0.65625 0.71875,1.078125 1.5625,1.078125 0.96875,0 1.640625,-0.65625 1.640625,-1.34375 0,-0.546875 -0.4375,-1.09375 -1.203125,-1.25 0.71875,-0.265625 0.984375,-0.78125 0.984375,-1.21875 0,-0.546875 -0.625,-0.953125 -1.40625,-0.953125 -0.765625,0 -1.359375,0.375 -1.359375,0.9375 0,0.234375 0.15625,0.359375 0.359375,0.359375 0.21875,0 0.359375,-0.15625 0.359375,-0.34375 0,-0.203125 -0.140625,-0.359375 -0.359375,-0.375 0.25,-0.296875 0.71875,-0.375 0.984375,-0.375 0.3125,0 0.75,0.15625 0.75,0.75 0,0.296875 -0.09375,0.625 -0.28125,0.828125 -0.21875,0.265625 -0.421875,0.28125 -0.765625,0.3125 -0.171875,0.015625 -0.1875,0.015625 -0.21875,0.015625 -0.015625,0 -0.078125,0.015625 -0.078125,0.09375 0,0.09375 0.0625,0.09375 0.1875,0.09375 z"
               style="stroke:none" />
          </symbol>
        </g>
      </defs>
      <g
         id="textext-6b43bb3a-4">
        <g
           id="g4386"
           style="fill:#000000;fill-opacity:1">
          <use
             height="744.09448"
             width="1052.3622"
             id="use4388"
             y="134.765"
             x="223.43201"
             xlink:href="#textext-6b43bb3a-1" />
        </g>
        <g
           id="g4390"
           style="fill:#000000;fill-opacity:1">
          <use
             height="744.09448"
             width="1052.3622"
             id="use4392"
             y="136.259"
             x="229.12601"
             xlink:href="#textext-6b43bb3a-3" />
        </g>
      </g>
    </g>
    <g
       ns0:text="$y _{\\rm{1}}$"
       ns0:preamble="/home/waldgeist/data/sphinx/inkscape-preamble.tex"
       transform="matrix(4.6099499,0,0,4.6099499,-435.95591,-10.616994)"
       id="g4610">
      <defs
         id="defs4612">
        <g
           id="g4614">
          <symbol
             style="overflow:visible"
             overflow="visible"
             id="textext-f4afa8ef-0">
            <path
               inkscape:connector-curvature="0"
               style="stroke:none"
               d=""
               id="path4617" />
          </symbol>
          <symbol
             style="overflow:visible"
             overflow="visible"
             id="textext-f4afa8ef-1">
            <path
               inkscape:connector-curvature="0"
               style="stroke:none"
               d="m 4.84375,-3.796875 c 0.046875,-0.140625 0.046875,-0.15625 0.046875,-0.234375 0,-0.171875 -0.140625,-0.265625 -0.296875,-0.265625 -0.09375,0 -0.25,0.0625 -0.34375,0.203125 -0.015625,0.0625 -0.109375,0.359375 -0.140625,0.546875 -0.078125,0.25 -0.140625,0.53125 -0.203125,0.796875 l -0.453125,1.796875 c -0.03125,0.140625 -0.46875,0.84375 -1.125,0.84375 -0.5,0 -0.609375,-0.4375 -0.609375,-0.8125 C 1.71875,-1.375 1.890625,-2 2.21875,-2.875 2.375,-3.28125 2.421875,-3.390625 2.421875,-3.59375 c 0,-0.4375 -0.3125,-0.8125 -0.8125,-0.8125 -0.953125,0 -1.3125,1.453125 -1.3125,1.53125 0,0.109375 0.09375,0.109375 0.109375,0.109375 0.109375,0 0.109375,-0.03125 0.15625,-0.1875 0.28125,-0.9375 0.671875,-1.234375 1.015625,-1.234375 0.078125,0 0.25,0 0.25,0.3125 0,0.25 -0.109375,0.515625 -0.171875,0.703125 -0.40625,1.0625 -0.578125,1.625 -0.578125,2.09375 0,0.890625 0.625,1.1875 1.21875,1.1875 0.390625,0 0.71875,-0.171875 1,-0.453125 -0.125,0.515625 -0.25,1.015625 -0.640625,1.546875 -0.265625,0.328125 -0.640625,0.625 -1.09375,0.625 -0.140625,0 -0.59375,-0.03125 -0.765625,-0.421875 0.15625,0 0.296875,0 0.421875,-0.125 C 1.328125,1.203125 1.421875,1.0625 1.421875,0.875 1.421875,0.5625 1.15625,0.53125 1.0625,0.53125 0.828125,0.53125 0.5,0.6875 0.5,1.171875 c 0,0.5 0.4375,0.875 1.0625,0.875 1.015625,0 2.046875,-0.90625 2.328125,-2.03125 z"
               id="path4620" />
          </symbol>
          <symbol
             style="overflow:visible"
             overflow="visible"
             id="textext-f4afa8ef-2">
            <path
               inkscape:connector-curvature="0"
               style="stroke:none"
               d=""
               id="path4623" />
          </symbol>
          <symbol
             style="overflow:visible"
             overflow="visible"
             id="textext-f4afa8ef-3">
            <path
               inkscape:connector-curvature="0"
               style="stroke:none"
               d="m 2.328125,-4.4375 c 0,-0.1875 0,-0.1875 -0.203125,-0.1875 -0.453125,0.4375 -1.078125,0.4375 -1.359375,0.4375 l 0,0.25 c 0.15625,0 0.625,0 1,-0.1875 l 0,3.546875 c 0,0.234375 0,0.328125 -0.6875,0.328125 l -0.265625,0 0,0.25 c 0.125,0 0.984375,-0.03125 1.234375,-0.03125 0.21875,0 1.09375,0.03125 1.25,0.03125 l 0,-0.25 -0.265625,0 c -0.703125,0 -0.703125,-0.09375 -0.703125,-0.328125 z"
               id="path4626" />
          </symbol>
        </g>
      </defs>
      <g
         id="textext-f4afa8ef-4">
        <g
           style="fill:#000000;fill-opacity:1"
           id="g4629">
          <use
             height="744.09448"
             width="1052.3622"
             xlink:href="#textext-f4afa8ef-1"
             x="223.43201"
             y="134.765"
             id="use4631" />
        </g>
        <g
           style="fill:#000000;fill-opacity:1"
           id="g4633">
          <use
             height="744.09448"
             width="1052.3622"
             xlink:href="#textext-f4afa8ef-3"
             x="228.317"
             y="136.259"
             id="use4635" />
        </g>
      </g>
    </g>
    <g
       id="g4885"
       transform="matrix(4.6099499,0,0,4.6099499,-398.09876,41.168716)"
       ns0:preamble="/home/waldgeist/data/sphinx/inkscape-preamble.tex"
       ns0:text="$y _{\\rm{2}}$">
      <defs
         id="defs4887">
        <g
           id="g4889">
          <symbol
             style="overflow:visible"
             id="textext-779cf666-0"
             overflow="visible">
            <path
               inkscape:connector-curvature="0"
               id="path4892"
               d=""
               style="stroke:none" />
          </symbol>
          <symbol
             style="overflow:visible"
             id="textext-779cf666-1"
             overflow="visible">
            <path
               inkscape:connector-curvature="0"
               id="path4895"
               d="m 4.84375,-3.796875 c 0.046875,-0.140625 0.046875,-0.15625 0.046875,-0.234375 0,-0.171875 -0.140625,-0.265625 -0.296875,-0.265625 -0.09375,0 -0.25,0.0625 -0.34375,0.203125 -0.015625,0.0625 -0.109375,0.359375 -0.140625,0.546875 -0.078125,0.25 -0.140625,0.53125 -0.203125,0.796875 l -0.453125,1.796875 c -0.03125,0.140625 -0.46875,0.84375 -1.125,0.84375 -0.5,0 -0.609375,-0.4375 -0.609375,-0.8125 C 1.71875,-1.375 1.890625,-2 2.21875,-2.875 2.375,-3.28125 2.421875,-3.390625 2.421875,-3.59375 c 0,-0.4375 -0.3125,-0.8125 -0.8125,-0.8125 -0.953125,0 -1.3125,1.453125 -1.3125,1.53125 0,0.109375 0.09375,0.109375 0.109375,0.109375 0.109375,0 0.109375,-0.03125 0.15625,-0.1875 0.28125,-0.9375 0.671875,-1.234375 1.015625,-1.234375 0.078125,0 0.25,0 0.25,0.3125 0,0.25 -0.109375,0.515625 -0.171875,0.703125 -0.40625,1.0625 -0.578125,1.625 -0.578125,2.09375 0,0.890625 0.625,1.1875 1.21875,1.1875 0.390625,0 0.71875,-0.171875 1,-0.453125 -0.125,0.515625 -0.25,1.015625 -0.640625,1.546875 -0.265625,0.328125 -0.640625,0.625 -1.09375,0.625 -0.140625,0 -0.59375,-0.03125 -0.765625,-0.421875 0.15625,0 0.296875,0 0.421875,-0.125 C 1.328125,1.203125 1.421875,1.0625 1.421875,0.875 1.421875,0.5625 1.15625,0.53125 1.0625,0.53125 0.828125,0.53125 0.5,0.6875 0.5,1.171875 c 0,0.5 0.4375,0.875 1.0625,0.875 1.015625,0 2.046875,-0.90625 2.328125,-2.03125 z"
               style="stroke:none" />
          </symbol>
          <symbol
             style="overflow:visible"
             id="textext-779cf666-2"
             overflow="visible">
            <path
               inkscape:connector-curvature="0"
               id="path4898"
               d=""
               style="stroke:none" />
          </symbol>
          <symbol
             style="overflow:visible"
             id="textext-779cf666-3"
             overflow="visible">
            <path
               inkscape:connector-curvature="0"
               id="path4901"
               d="m 3.515625,-1.265625 -0.234375,0 c -0.015625,0.15625 -0.09375,0.5625 -0.1875,0.625 -0.046875,0.046875 -0.578125,0.046875 -0.6875,0.046875 l -1.28125,0 c 0.734375,-0.640625 0.984375,-0.84375 1.390625,-1.171875 0.515625,-0.40625 1,-0.84375 1,-1.5 0,-0.84375 -0.734375,-1.359375 -1.625,-1.359375 -0.859375,0 -1.453125,0.609375 -1.453125,1.25 0,0.34375 0.296875,0.390625 0.375,0.390625 0.15625,0 0.359375,-0.125 0.359375,-0.375 0,-0.125 -0.046875,-0.375 -0.40625,-0.375 C 0.984375,-4.21875 1.453125,-4.375 1.78125,-4.375 c 0.703125,0 1.0625,0.546875 1.0625,1.109375 0,0.609375 -0.4375,1.078125 -0.65625,1.328125 L 0.515625,-0.265625 C 0.4375,-0.203125 0.4375,-0.1875 0.4375,0 l 2.875,0 z"
               style="stroke:none" />
          </symbol>
        </g>
      </defs>
      <g
         id="textext-779cf666-4">
        <g
           id="g4904"
           style="fill:#000000;fill-opacity:1">
          <use
             height="744.09448"
             width="1052.3622"
             id="use4906"
             y="134.765"
             x="223.43201"
             xlink:href="#textext-779cf666-1" />
        </g>
        <g
           id="g4908"
           style="fill:#000000;fill-opacity:1">
          <use
             height="744.09448"
             width="1052.3622"
             id="use4910"
             y="136.259"
             x="228.317"
             xlink:href="#textext-779cf666-3" />
        </g>
      </g>
    </g>
    <g
       ns0:text="$y _{\\rm{3}}$"
       ns0:preamble="/home/waldgeist/data/sphinx/inkscape-preamble.tex"
       transform="matrix(4.6099499,0,0,4.6099499,-454.52731,91.168716)"
       id="g5192">
      <defs
         id="defs5194">
        <g
           id="g5196">
          <symbol
             style="overflow:visible"
             overflow="visible"
             id="textext-3894ff8c-0">
            <path
               inkscape:connector-curvature="0"
               style="stroke:none"
               d=""
               id="path5199" />
          </symbol>
          <symbol
             style="overflow:visible"
             overflow="visible"
             id="textext-3894ff8c-1">
            <path
               inkscape:connector-curvature="0"
               style="stroke:none"
               d="m 4.84375,-3.796875 c 0.046875,-0.140625 0.046875,-0.15625 0.046875,-0.234375 0,-0.171875 -0.140625,-0.265625 -0.296875,-0.265625 -0.09375,0 -0.25,0.0625 -0.34375,0.203125 -0.015625,0.0625 -0.109375,0.359375 -0.140625,0.546875 -0.078125,0.25 -0.140625,0.53125 -0.203125,0.796875 l -0.453125,1.796875 c -0.03125,0.140625 -0.46875,0.84375 -1.125,0.84375 -0.5,0 -0.609375,-0.4375 -0.609375,-0.8125 C 1.71875,-1.375 1.890625,-2 2.21875,-2.875 2.375,-3.28125 2.421875,-3.390625 2.421875,-3.59375 c 0,-0.4375 -0.3125,-0.8125 -0.8125,-0.8125 -0.953125,0 -1.3125,1.453125 -1.3125,1.53125 0,0.109375 0.09375,0.109375 0.109375,0.109375 0.109375,0 0.109375,-0.03125 0.15625,-0.1875 0.28125,-0.9375 0.671875,-1.234375 1.015625,-1.234375 0.078125,0 0.25,0 0.25,0.3125 0,0.25 -0.109375,0.515625 -0.171875,0.703125 -0.40625,1.0625 -0.578125,1.625 -0.578125,2.09375 0,0.890625 0.625,1.1875 1.21875,1.1875 0.390625,0 0.71875,-0.171875 1,-0.453125 -0.125,0.515625 -0.25,1.015625 -0.640625,1.546875 -0.265625,0.328125 -0.640625,0.625 -1.09375,0.625 -0.140625,0 -0.59375,-0.03125 -0.765625,-0.421875 0.15625,0 0.296875,0 0.421875,-0.125 C 1.328125,1.203125 1.421875,1.0625 1.421875,0.875 1.421875,0.5625 1.15625,0.53125 1.0625,0.53125 0.828125,0.53125 0.5,0.6875 0.5,1.171875 c 0,0.5 0.4375,0.875 1.0625,0.875 1.015625,0 2.046875,-0.90625 2.328125,-2.03125 z"
               id="path5202" />
          </symbol>
          <symbol
             style="overflow:visible"
             overflow="visible"
             id="textext-3894ff8c-2">
            <path
               inkscape:connector-curvature="0"
               style="stroke:none"
               d=""
               id="path5205" />
          </symbol>
          <symbol
             style="overflow:visible"
             overflow="visible"
             id="textext-3894ff8c-3">
            <path
               inkscape:connector-curvature="0"
               style="stroke:none"
               d="m 1.90625,-2.328125 c 0.546875,0 0.9375,0.375 0.9375,1.125 0,0.859375 -0.515625,1.125 -0.90625,1.125 -0.28125,0 -0.90625,-0.078125 -1.1875,-0.5 0.328125,0 0.40625,-0.234375 0.40625,-0.390625 0,-0.21875 -0.171875,-0.375 -0.390625,-0.375 -0.1875,0 -0.390625,0.125 -0.390625,0.40625 0,0.65625 0.71875,1.078125 1.5625,1.078125 0.96875,0 1.640625,-0.65625 1.640625,-1.34375 0,-0.546875 -0.4375,-1.09375 -1.203125,-1.25 0.71875,-0.265625 0.984375,-0.78125 0.984375,-1.21875 0,-0.546875 -0.625,-0.953125 -1.40625,-0.953125 -0.765625,0 -1.359375,0.375 -1.359375,0.9375 0,0.234375 0.15625,0.359375 0.359375,0.359375 0.21875,0 0.359375,-0.15625 0.359375,-0.34375 0,-0.203125 -0.140625,-0.359375 -0.359375,-0.375 0.25,-0.296875 0.71875,-0.375 0.984375,-0.375 0.3125,0 0.75,0.15625 0.75,0.75 0,0.296875 -0.09375,0.625 -0.28125,0.828125 -0.21875,0.265625 -0.421875,0.28125 -0.765625,0.3125 -0.171875,0.015625 -0.1875,0.015625 -0.21875,0.015625 -0.015625,0 -0.078125,0.015625 -0.078125,0.09375 0,0.09375 0.0625,0.09375 0.1875,0.09375 z"
               id="path5208" />
          </symbol>
        </g>
      </defs>
      <g
         id="textext-3894ff8c-4">
        <g
           style="fill:#000000;fill-opacity:1"
           id="g5211">
          <use
             height="744.09448"
             width="1052.3622"
             xlink:href="#textext-3894ff8c-1"
             x="223.43201"
             y="134.765"
             id="use5213" />
        </g>
        <g
           style="fill:#000000;fill-opacity:1"
           id="g5215">
          <use
             height="744.09448"
             width="1052.3622"
             xlink:href="#textext-3894ff8c-3"
             x="228.317"
             y="136.259"
             id="use5217" />
        </g>
      </g>
    </g>
    <g
       id="g5531"
       transform="matrix(4.6099499,0,0,4.6099499,-372.38446,113.31157)"
       ns0:preamble="/home/waldgeist/data/sphinx/inkscape-preamble.tex"
       ns0:text="$y _{\\rm{4}}$">
      <defs
         id="defs5533">
        <g
           id="g5535">
          <symbol
             style="overflow:visible"
             id="textext-f19d4d97-0"
             overflow="visible">
            <path
               inkscape:connector-curvature="0"
               id="path5538"
               d=""
               style="stroke:none" />
          </symbol>
          <symbol
             style="overflow:visible"
             id="textext-f19d4d97-1"
             overflow="visible">
            <path
               inkscape:connector-curvature="0"
               id="path5541"
               d="m 4.84375,-3.796875 c 0.046875,-0.140625 0.046875,-0.15625 0.046875,-0.234375 0,-0.171875 -0.140625,-0.265625 -0.296875,-0.265625 -0.09375,0 -0.25,0.0625 -0.34375,0.203125 -0.015625,0.0625 -0.109375,0.359375 -0.140625,0.546875 -0.078125,0.25 -0.140625,0.53125 -0.203125,0.796875 l -0.453125,1.796875 c -0.03125,0.140625 -0.46875,0.84375 -1.125,0.84375 -0.5,0 -0.609375,-0.4375 -0.609375,-0.8125 C 1.71875,-1.375 1.890625,-2 2.21875,-2.875 2.375,-3.28125 2.421875,-3.390625 2.421875,-3.59375 c 0,-0.4375 -0.3125,-0.8125 -0.8125,-0.8125 -0.953125,0 -1.3125,1.453125 -1.3125,1.53125 0,0.109375 0.09375,0.109375 0.109375,0.109375 0.109375,0 0.109375,-0.03125 0.15625,-0.1875 0.28125,-0.9375 0.671875,-1.234375 1.015625,-1.234375 0.078125,0 0.25,0 0.25,0.3125 0,0.25 -0.109375,0.515625 -0.171875,0.703125 -0.40625,1.0625 -0.578125,1.625 -0.578125,2.09375 0,0.890625 0.625,1.1875 1.21875,1.1875 0.390625,0 0.71875,-0.171875 1,-0.453125 -0.125,0.515625 -0.25,1.015625 -0.640625,1.546875 -0.265625,0.328125 -0.640625,0.625 -1.09375,0.625 -0.140625,0 -0.59375,-0.03125 -0.765625,-0.421875 0.15625,0 0.296875,0 0.421875,-0.125 C 1.328125,1.203125 1.421875,1.0625 1.421875,0.875 1.421875,0.5625 1.15625,0.53125 1.0625,0.53125 0.828125,0.53125 0.5,0.6875 0.5,1.171875 c 0,0.5 0.4375,0.875 1.0625,0.875 1.015625,0 2.046875,-0.90625 2.328125,-2.03125 z"
               style="stroke:none" />
          </symbol>
          <symbol
             style="overflow:visible"
             id="textext-f19d4d97-2"
             overflow="visible">
            <path
               inkscape:connector-curvature="0"
               id="path5544"
               d=""
               style="stroke:none" />
          </symbol>
          <symbol
             style="overflow:visible"
             id="textext-f19d4d97-3"
             overflow="visible">
            <path
               inkscape:connector-curvature="0"
               id="path5547"
               d="m 3.6875,-1.140625 0,-0.25 -0.78125,0 0,-3.109375 c 0,-0.140625 0,-0.203125 -0.140625,-0.203125 -0.09375,0 -0.125,0 -0.1875,0.109375 l -2.3125,3.203125 0,0.25 2.0625,0 0,0.5625 c 0,0.25 0,0.328125 -0.578125,0.328125 l -0.1875,0 0,0.25 C 1.921875,-0.015625 2.359375,-0.03125 2.609375,-0.03125 2.875,-0.03125 3.3125,-0.015625 3.671875,0 l 0,-0.25 -0.1875,0 C 2.90625,-0.25 2.90625,-0.328125 2.90625,-0.578125 l 0,-0.5625 z M 2.375,-3.9375 l 0,2.546875 -1.84375,0 z"
               style="stroke:none" />
          </symbol>
        </g>
      </defs>
      <g
         id="textext-f19d4d97-4">
        <g
           id="g5550"
           style="fill:#000000;fill-opacity:1">
          <use
             height="744.09448"
             width="1052.3622"
             id="use5552"
             y="134.765"
             x="223.43201"
             xlink:href="#textext-f19d4d97-1" />
        </g>
        <g
           id="g5554"
           style="fill:#000000;fill-opacity:1">
          <use
             height="744.09448"
             width="1052.3622"
             id="use5556"
             y="136.259"
             x="228.317"
             xlink:href="#textext-f19d4d97-3" />
        </g>
      </g>
    </g>
    <g
       ns0:text="$y _{\\rm{5}}$"
       ns0:preamble="/home/waldgeist/data/sphinx/inkscape-preamble.tex"
       transform="matrix(4.6099499,0,0,4.6099499,-415.95586,170.45443)"
       id="g5902">
      <defs
         id="defs5904">
        <g
           id="g5906">
          <symbol
             style="overflow:visible"
             overflow="visible"
             id="textext-7df66d52-0">
            <path
               inkscape:connector-curvature="0"
               style="stroke:none"
               d=""
               id="path5909" />
          </symbol>
          <symbol
             style="overflow:visible"
             overflow="visible"
             id="textext-7df66d52-1">
            <path
               inkscape:connector-curvature="0"
               style="stroke:none"
               d="m 4.84375,-3.796875 c 0.046875,-0.140625 0.046875,-0.15625 0.046875,-0.234375 0,-0.171875 -0.140625,-0.265625 -0.296875,-0.265625 -0.09375,0 -0.25,0.0625 -0.34375,0.203125 -0.015625,0.0625 -0.109375,0.359375 -0.140625,0.546875 -0.078125,0.25 -0.140625,0.53125 -0.203125,0.796875 l -0.453125,1.796875 c -0.03125,0.140625 -0.46875,0.84375 -1.125,0.84375 -0.5,0 -0.609375,-0.4375 -0.609375,-0.8125 C 1.71875,-1.375 1.890625,-2 2.21875,-2.875 2.375,-3.28125 2.421875,-3.390625 2.421875,-3.59375 c 0,-0.4375 -0.3125,-0.8125 -0.8125,-0.8125 -0.953125,0 -1.3125,1.453125 -1.3125,1.53125 0,0.109375 0.09375,0.109375 0.109375,0.109375 0.109375,0 0.109375,-0.03125 0.15625,-0.1875 0.28125,-0.9375 0.671875,-1.234375 1.015625,-1.234375 0.078125,0 0.25,0 0.25,0.3125 0,0.25 -0.109375,0.515625 -0.171875,0.703125 -0.40625,1.0625 -0.578125,1.625 -0.578125,2.09375 0,0.890625 0.625,1.1875 1.21875,1.1875 0.390625,0 0.71875,-0.171875 1,-0.453125 -0.125,0.515625 -0.25,1.015625 -0.640625,1.546875 -0.265625,0.328125 -0.640625,0.625 -1.09375,0.625 -0.140625,0 -0.59375,-0.03125 -0.765625,-0.421875 0.15625,0 0.296875,0 0.421875,-0.125 C 1.328125,1.203125 1.421875,1.0625 1.421875,0.875 1.421875,0.5625 1.15625,0.53125 1.0625,0.53125 0.828125,0.53125 0.5,0.6875 0.5,1.171875 c 0,0.5 0.4375,0.875 1.0625,0.875 1.015625,0 2.046875,-0.90625 2.328125,-2.03125 z"
               id="path5912" />
          </symbol>
          <symbol
             style="overflow:visible"
             overflow="visible"
             id="textext-7df66d52-2">
            <path
               inkscape:connector-curvature="0"
               style="stroke:none"
               d=""
               id="path5915" />
          </symbol>
          <symbol
             style="overflow:visible"
             overflow="visible"
             id="textext-7df66d52-3">
            <path
               inkscape:connector-curvature="0"
               style="stroke:none"
               d="m 1.078125,-3.890625 c 0.359375,0.09375 0.5625,0.09375 0.671875,0.09375 0.921875,0 1.46875,-0.625 1.46875,-0.734375 0,-0.078125 -0.046875,-0.09375 -0.078125,-0.09375 -0.015625,0 -0.03125,0 -0.0625,0.015625 -0.171875,0.0625 -0.53125,0.203125 -1.046875,0.203125 -0.203125,0 -0.5625,-0.015625 -1.015625,-0.1875 C 0.9375,-4.625 0.921875,-4.625 0.921875,-4.625 c -0.09375,0 -0.09375,0.078125 -0.09375,0.1875 l 0,2.046875 c 0,0.125 0,0.203125 0.109375,0.203125 0.0625,0 0.078125,0 0.140625,-0.09375 0.296875,-0.375 0.734375,-0.4375 0.96875,-0.4375 0.421875,0 0.609375,0.328125 0.640625,0.390625 0.125,0.234375 0.171875,0.5 0.171875,0.90625 0,0.203125 0,0.609375 -0.21875,0.921875 -0.171875,0.25 -0.46875,0.421875 -0.8125,0.421875 -0.453125,0 -0.921875,-0.25 -1.09375,-0.71875 0.265625,0.015625 0.40625,-0.15625 0.40625,-0.34375 0,-0.296875 -0.265625,-0.34375 -0.359375,-0.34375 0,0 -0.34375,0 -0.34375,0.375 0,0.625 0.578125,1.25 1.40625,1.25 0.890625,0 1.671875,-0.65625 1.671875,-1.546875 0,-0.78125 -0.59375,-1.5 -1.453125,-1.5 -0.3125,0 -0.671875,0.0625 -0.984375,0.328125 z"
               id="path5918" />
          </symbol>
        </g>
      </defs>
      <g
         id="textext-7df66d52-4">
        <g
           style="fill:#000000;fill-opacity:1"
           id="g5921">
          <use
             height="744.09448"
             width="1052.3622"
             xlink:href="#textext-7df66d52-1"
             x="223.43201"
             y="134.765"
             id="use5923" />
        </g>
        <g
           style="fill:#000000;fill-opacity:1"
           id="g5925">
          <use
             height="744.09448"
             width="1052.3622"
             xlink:href="#textext-7df66d52-3"
             x="228.317"
             y="136.259"
             id="use5927" />
        </g>
      </g>
    </g>
    <g
       id="g6305"
       style="fill:#333333;stroke:#4d4d4d;stroke-width:1"
       transform="matrix(4.5873949,0,0,4.5873949,-328.65976,-50.762144)"
       ns0:preamble="/home/waldgeist/data/sphinx/inkscape-preamble.tex"
       ns0:text="$\\mathbb{M} _{\\rm{2}}$">
      <defs
         id="defs6307">
        <g
           id="g6309">
          <symbol
             id="textext-4f75d39c-0"
             overflow="visible"
             style="overflow:visible">
            <path
               id="path6312"
               d=""
               style="stroke:none"
               inkscape:connector-curvature="0" />
          </symbol>
          <symbol
             id="textext-4f75d39c-1"
             overflow="visible"
             style="overflow:visible">
            <path
               id="path6315"
               d="M 4.640625,-2.09375 2.734375,-6.625 C 2.65625,-6.828125 2.65625,-6.828125 2.375,-6.828125 l -1.84375,0 c -0.1875,0 -0.328125,0 -0.328125,0.171875 0,0.171875 0.171875,0.171875 0.21875,0.171875 0.125,0 0.390625,0.03125 0.609375,0.109375 l 0,5.3125 c 0,0.21875 0,0.65625 -0.671875,0.71875 -0.1875,0.015625 -0.1875,0.15625 -0.1875,0.171875 C 0.171875,0 0.328125,0 0.515625,0 l 1.53125,0 C 2.234375,0 2.375,0 2.375,-0.171875 2.375,-0.265625 2.296875,-0.34375 2.21875,-0.34375 1.453125,-0.40625 1.453125,-0.828125 1.453125,-1.0625 l 0,-4.953125 0.015625,-0.015625 2.421875,5.828125 C 3.984375,-0.03125 4.046875,0 4.109375,0 4.234375,0 4.25,-0.078125 4.3125,-0.203125 L 6.75,-6.03125 l 0.015625,0.015625 0,4.953125 c 0,0.21875 0,0.65625 -0.6875,0.71875 -0.1875,0.015625 -0.1875,0.15625 -0.1875,0.171875 C 5.890625,0 6.046875,0 6.234375,0 l 2.65625,0 C 9.078125,0 9.21875,0 9.21875,-0.171875 9.21875,-0.265625 9.140625,-0.34375 9.0625,-0.34375 8.296875,-0.40625 8.296875,-0.828125 8.296875,-1.0625 l 0,-4.703125 c 0,-0.21875 0,-0.65625 0.671875,-0.71875 0.109375,0 0.1875,-0.0625 0.1875,-0.171875 0,-0.171875 -0.140625,-0.171875 -0.328125,-0.171875 l -1.921875,0 c -0.25,0 -0.28125,0 -0.359375,0.203125 z M 4.34375,-1.90625 C 4.421875,-1.75 4.4375,-1.734375 4.5625,-1.6875 l -0.453125,1.046875 -0.015625,0 L 1.828125,-6.0625 C 1.78125,-6.1875 1.6875,-6.359375 1.5625,-6.484375 l 0.859375,0 z m -3.015625,1.5625 -0.15625,0 C 1.1875,-0.375 1.203125,-0.40625 1.21875,-0.421875 1.234375,-0.4375 1.234375,-0.453125 1.25,-0.453125 z m 5.78125,-6.140625 1.0625,0 C 7.9375,-6.234375 7.9375,-5.96875 7.9375,-5.796875 l 0,4.765625 c 0,0.171875 0,0.4375 0.234375,0.6875 l -1.28125,0 c 0.21875,-0.25 0.21875,-0.515625 0.21875,-0.6875 z"
               style="stroke:none"
               inkscape:connector-curvature="0" />
          </symbol>
          <symbol
             id="textext-4f75d39c-2"
             overflow="visible"
             style="overflow:visible">
            <path
               id="path6318"
               d=""
               style="stroke:none"
               inkscape:connector-curvature="0" />
          </symbol>
          <symbol
             id="textext-4f75d39c-3"
             overflow="visible"
             style="overflow:visible">
            <path
               id="path6321"
               d="m 3.515625,-1.265625 -0.234375,0 c -0.015625,0.15625 -0.09375,0.5625 -0.1875,0.625 -0.046875,0.046875 -0.578125,0.046875 -0.6875,0.046875 l -1.28125,0 c 0.734375,-0.640625 0.984375,-0.84375 1.390625,-1.171875 0.515625,-0.40625 1,-0.84375 1,-1.5 0,-0.84375 -0.734375,-1.359375 -1.625,-1.359375 -0.859375,0 -1.453125,0.609375 -1.453125,1.25 0,0.34375 0.296875,0.390625 0.375,0.390625 0.15625,0 0.359375,-0.125 0.359375,-0.375 0,-0.125 -0.046875,-0.375 -0.40625,-0.375 C 0.984375,-4.21875 1.453125,-4.375 1.78125,-4.375 c 0.703125,0 1.0625,0.546875 1.0625,1.109375 0,0.609375 -0.4375,1.078125 -0.65625,1.328125 L 0.515625,-0.265625 C 0.4375,-0.203125 0.4375,-0.1875 0.4375,0 l 2.875,0 z"
               style="stroke:none"
               inkscape:connector-curvature="0" />
          </symbol>
        </g>
      </defs>
      <g
         id="textext-4f75d39c-4"
         style="fill:#333333;stroke:#4d4d4d;stroke-width:1">
        <g
           id="g6324"
           style="fill:#333333;fill-opacity:1;stroke:#4d4d4d;stroke-width:1">
          <use
             id="use6326"
             y="134.765"
             x="223.43201"
             xlink:href="#textext-4f75d39c-1"
             style="fill:#333333;stroke:#4d4d4d;stroke-width:1"
             width="1052.3622"
             height="744.09448" />
        </g>
        <g
           id="g6328"
           style="fill:#333333;fill-opacity:1;stroke:#4d4d4d;stroke-width:1">
          <use
             id="use6330"
             y="136.259"
             x="232.841"
             xlink:href="#textext-4f75d39c-3"
             style="fill:#333333;stroke:#4d4d4d;stroke-width:1"
             width="1052.3622"
             height="744.09448" />
        </g>
      </g>
    </g>
    <path
       style="fill:none;stroke:#000000;stroke-width:1.5;stroke-linecap:round;stroke-linejoin:miter;stroke-miterlimit:4;stroke-opacity:1;stroke-dasharray:none;marker-end:url(#Arrow2Mend)"
       d="m 393.44769,605.21902 190.976,0"
       id="path6519"
       inkscape:connector-curvature="0" />
    <path
       inkscape:connector-curvature="0"
       id="path7919"
       d="M 418.44282,682.77236 623.40724,656.99032"
       style="fill:none;stroke:#000000;stroke-width:1.50000012;stroke-linecap:round;stroke-linejoin:miter;stroke-miterlimit:4;stroke-opacity:1;stroke-dasharray:none;marker-end:url(#Arrow2Mend)"
       inkscape:transform-center-x="-103.92063"
       inkscape:transform-center-y="-13.916595" />
    <path
       inkscape:transform-center-y="51.042892"
       inkscape:transform-center-x="-94.448759"
       style="fill:none;stroke:#000000;stroke-width:1.50000012;stroke-linecap:round;stroke-linejoin:miter;stroke-miterlimit:4;stroke-opacity:1;stroke-dasharray:none;marker-end:url(#Arrow2Mend)"
       d="M 418.44282,682.77237 604.83025,783.97232"
       id="path7925"
       inkscape:connector-curvature="0" />
    <path
       inkscape:transform-center-y="-23.138491"
       inkscape:transform-center-x="-89.723251"
       style="fill:none;stroke:#000000;stroke-width:1.49999988;stroke-linecap:round;stroke-linejoin:miter;stroke-miterlimit:4;stroke-opacity:1;stroke-dasharray:none;marker-end:url(#Arrow2Mend)"
       d="M 392.68392,751.96781 569.52895,706.83032"
       id="path7927"
       inkscape:connector-curvature="0" />
  </g>
</svg>
