<svg xmlns:ns0="http://www.iki.fi/pav/software/textext/" xmlns="http://www.w3.org/2000/svg" xmlns:xlink="http://www.w3.org/1999/xlink" width="1052.362" height="744.094"><title>Das Pascalsche Dreieck</title><g transform="translate(0 -308.268)"><rect style="marker:none" width="1045.601" height="412.857" x="3.381" y="473.886" ry="2.859" color="#000" fill="#fff" stroke="#fff" stroke-width="1.315" stroke-linecap="round" overflow="visible"/><g ns0:text="$\\ldots$" ns0:preamble="/home/waldgeist/data/sphinx/inkscape-preamble.tex" transform="matrix(3.24482 0 0 3 -485.895 462.651)"><defs><symbol overflow="visible" id="a"><path d="M1.906-.531a.534.534 0 0 0-.515-.531.537.537 0 0 0-.532.53.524.524 0 1 0 1.047 0z"/></symbol></defs><use height="1052.362" width="744.094" xlink:href="#a" x="223.432" y="134.765"/><use height="1052.362" width="744.094" xlink:href="#a" x="227.863" y="134.765"/><use height="1052.362" width="744.094" xlink:href="#a" x="232.285" y="134.765"/></g><g ns0:preamble="/home/waldgeist/data/sphinx/inkscape-preamble.tex" ns0:text="$\\binom{0}{0}$" transform="matrix(3 0 0 3 -431.995 108.01)"><defs><symbol id="b" overflow="visible"><path d="M4.11 11.453c0-.031-.016-.062-.032-.094-.453-.484-1.14-1.296-1.562-2.921-.22-.907-.313-1.922-.313-2.86 0-2.625.625-4.453 1.828-5.75.078-.094.078-.11.078-.125 0-.11-.078-.11-.109-.11-.156 0-.688.61-.813.75-1.03 1.22-1.671 3-1.671 5.235 0 1.406.25 3.406 1.562 5.094.094.125.735.875.922.875.031 0 .11 0 .11-.094z"/></symbol><symbol id="d" overflow="visible"><path d="M3.047 5.578c0-1.406-.25-3.422-1.563-5.094-.093-.125-.75-.89-.921-.89-.047 0-.125.031-.125.11 0 .03.015.062.062.093.484.516 1.125 1.328 1.531 2.922.235.906.328 1.922.328 2.86 0 1-.093 2.015-.359 3-.375 1.39-.969 2.187-1.469 2.75-.094.093-.094.108-.094.124 0 .078.079.094.126.094.14 0 .687-.594.812-.735 1.016-1.218 1.672-3 1.672-5.234z"/></symbol><symbol id="c" overflow="visible"><path d="M3.594-2.219c0-.765-.094-1.328-.406-1.812-.22-.313-.657-.594-1.204-.594C.36-4.625.36-2.719.36-2.219c0 .5 0 2.36 1.625 2.36 1.61 0 1.61-1.86 1.61-2.36zM1.984-.063c-.328 0-.75-.187-.89-.75C1-1.219 1-1.796 1-2.313c0-.515 0-1.046.094-1.421.156-.547.593-.704.89-.704.375 0 .735.235.86.641.11.375.125.875.125 1.485 0 .515 0 1.03-.094 1.468-.14.64-.61.781-.89.781z"/></symbol></defs><use y="126.695" x="223.432" xlink:href="#b" width="744.094" height="1052.362"/><use y="130.344" x="227.998" xlink:href="#c" width="744.094" height="1052.362"/><use y="138.2" x="227.998" xlink:href="#c" width="744.094" height="1052.362"/><use y="126.695" x="231.97" xlink:href="#d" width="744.094" height="1052.362"/></g><g ns0:text="$\\binom{1}{0}$" ns0:preamble="/home/waldgeist/data/sphinx/inkscape-preamble.tex" transform="matrix(3 0 0 3 -465.77 152.954)"><defs><symbol overflow="visible" id="e"><path d="M4.11 11.453c0-.031-.016-.062-.032-.094-.453-.484-1.14-1.296-1.562-2.921-.22-.907-.313-1.922-.313-2.86 0-2.625.625-4.453 1.828-5.75.078-.094.078-.11.078-.125 0-.11-.078-.11-.109-.11-.156 0-.688.61-.813.75-1.03 1.22-1.671 3-1.671 5.235 0 1.406.25 3.406 1.562 5.094.094.125.735.875.922.875.031 0 .11 0 .11-.094z"/></symbol><symbol overflow="visible" id="h"><path d="M3.047 5.578c0-1.406-.25-3.422-1.563-5.094-.093-.125-.75-.89-.921-.89-.047 0-.125.031-.125.11 0 .03.015.062.062.093.484.516 1.125 1.328 1.531 2.922.235.906.328 1.922.328 2.86 0 1-.093 2.015-.359 3-.375 1.39-.969 2.187-1.469 2.75-.094.093-.094.108-.094.124 0 .078.079.094.126.094.14 0 .687-.594.812-.735 1.016-1.218 1.672-3 1.672-5.234z"/></symbol><symbol overflow="visible" id="f"><path d="M2.328-4.438c0-.187 0-.187-.203-.187-.453.438-1.078.438-1.36.438v.25c.157 0 .626 0 1-.188v3.547c0 .234 0 .328-.687.328H.812V0c.125 0 .985-.031 1.235-.031.219 0 1.094.031 1.25.031v-.25H3.03c-.703 0-.703-.094-.703-.328z"/></symbol><symbol overflow="visible" id="g"><path d="M3.594-2.219c0-.765-.094-1.328-.406-1.812-.22-.313-.657-.594-1.204-.594C.36-4.625.36-2.719.36-2.219c0 .5 0 2.36 1.625 2.36 1.61 0 1.61-1.86 1.61-2.36zM1.984-.063c-.328 0-.75-.187-.89-.75C1-1.219 1-1.796 1-2.313c0-.515 0-1.046.094-1.421.156-.547.593-.704.89-.704.375 0 .735.235.86.641.11.375.125.875.125 1.485 0 .515 0 1.03-.094 1.468-.14.64-.61.781-.89.781z"/></symbol></defs><use height="1052.362" width="744.094" xlink:href="#e" x="223.432" y="126.695"/><use height="1052.362" width="744.094" xlink:href="#f" x="227.998" y="130.344"/><use height="1052.362" width="744.094" xlink:href="#g" x="227.998" y="138.2"/><use height="1052.362" width="744.094" xlink:href="#h" x="231.97" y="126.695"/></g><g transform="matrix(3 0 0 3 -398.22 153.102)" ns0:preamble="/home/waldgeist/data/sphinx/inkscape-preamble.tex" ns0:text="$\\binom{1}{1}$"><defs><symbol id="i" overflow="visible"><path d="M4.11 11.453c0-.031-.016-.062-.032-.094-.453-.484-1.14-1.296-1.562-2.921-.22-.907-.313-1.922-.313-2.86 0-2.625.625-4.453 1.828-5.75.078-.094.078-.11.078-.125 0-.11-.078-.11-.109-.11-.156 0-.688.61-.813.75-1.03 1.22-1.671 3-1.671 5.235 0 1.406.25 3.406 1.562 5.094.094.125.735.875.922.875.031 0 .11 0 .11-.094z"/></symbol><symbol id="k" overflow="visible"><path d="M3.047 5.578c0-1.406-.25-3.422-1.563-5.094-.093-.125-.75-.89-.921-.89-.047 0-.125.031-.125.11 0 .03.015.062.062.093.484.516 1.125 1.328 1.531 2.922.235.906.328 1.922.328 2.86 0 1-.093 2.015-.359 3-.375 1.39-.969 2.187-1.469 2.75-.094.093-.094.108-.094.124 0 .078.079.094.126.094.14 0 .687-.594.812-.735 1.016-1.218 1.672-3 1.672-5.234z"/></symbol><symbol id="j" overflow="visible"><path d="M2.328-4.438c0-.187 0-.187-.203-.187-.453.438-1.078.438-1.36.438v.25c.157 0 .626 0 1-.188v3.547c0 .234 0 .328-.687.328H.812V0c.125 0 .985-.031 1.235-.031.219 0 1.094.031 1.25.031v-.25H3.03c-.703 0-.703-.094-.703-.328z"/></symbol></defs><use y="126.695" x="223.432" xlink:href="#i" width="744.094" height="1052.362"/><use y="130.344" x="227.998" xlink:href="#j" width="744.094" height="1052.362"/><use y="138.2" x="227.998" xlink:href="#j" width="744.094" height="1052.362"/><use y="126.695" x="231.97" xlink:href="#k" width="744.094" height="1052.362"/></g><g ns0:text="$\\binom{2}{0}$" ns0:preamble="/home/waldgeist/data/sphinx/inkscape-preamble.tex" transform="matrix(3 0 0 3 -499.546 197.899)"><defs><symbol overflow="visible" id="l"><path d="M4.11 11.453c0-.031-.016-.062-.032-.094-.453-.484-1.14-1.296-1.562-2.921-.22-.907-.313-1.922-.313-2.86 0-2.625.625-4.453 1.828-5.75.078-.094.078-.11.078-.125 0-.11-.078-.11-.109-.11-.156 0-.688.61-.813.75-1.03 1.22-1.671 3-1.671 5.235 0 1.406.25 3.406 1.562 5.094.094.125.735.875.922.875.031 0 .11 0 .11-.094z"/></symbol><symbol overflow="visible" id="o"><path d="M3.047 5.578c0-1.406-.25-3.422-1.563-5.094-.093-.125-.75-.89-.921-.89-.047 0-.125.031-.125.11 0 .03.015.062.062.093.484.516 1.125 1.328 1.531 2.922.235.906.328 1.922.328 2.86 0 1-.093 2.015-.359 3-.375 1.39-.969 2.187-1.469 2.75-.094.093-.094.108-.094.124 0 .078.079.094.126.094.14 0 .687-.594.812-.735 1.016-1.218 1.672-3 1.672-5.234z"/></symbol><symbol overflow="visible" id="m"><path d="M3.516-1.266H3.28c-.015.157-.094.563-.187.625-.047.047-.578.047-.688.047H1.125c.734-.64.984-.844 1.39-1.172.516-.406 1-.843 1-1.5 0-.843-.734-1.359-1.624-1.359-.86 0-1.454.61-1.454 1.25 0 .344.297.39.376.39.156 0 .359-.124.359-.374 0-.125-.047-.375-.406-.375.218-.485.687-.641 1.015-.641.703 0 1.063.547 1.063 1.11 0 .609-.438 1.078-.656 1.328L.516-.266C.437-.203.437-.187.437 0h2.876z"/></symbol><symbol overflow="visible" id="n"><path d="M3.594-2.219c0-.765-.094-1.328-.406-1.812-.22-.313-.657-.594-1.204-.594C.36-4.625.36-2.719.36-2.219c0 .5 0 2.36 1.625 2.36 1.61 0 1.61-1.86 1.61-2.36zM1.984-.063c-.328 0-.75-.187-.89-.75C1-1.219 1-1.796 1-2.313c0-.515 0-1.046.094-1.421.156-.547.593-.704.89-.704.375 0 .735.235.86.641.11.375.125.875.125 1.485 0 .515 0 1.03-.094 1.468-.14.64-.61.781-.89.781z"/></symbol></defs><use height="1052.362" width="744.094" xlink:href="#l" x="223.432" y="126.695"/><use height="1052.362" width="744.094" xlink:href="#m" x="227.998" y="130.344"/><use height="1052.362" width="744.094" xlink:href="#n" x="227.998" y="138.2"/><use height="1052.362" width="744.094" xlink:href="#o" x="231.97" y="126.695"/></g><g transform="matrix(3 0 0 3 -533.322 242.844)" ns0:preamble="/home/waldgeist/data/sphinx/inkscape-preamble.tex" ns0:text="$\\binom{3}{0}$"><defs><symbol id="p" overflow="visible"><path d="M4.11 11.453c0-.031-.016-.062-.032-.094-.453-.484-1.14-1.296-1.562-2.921-.22-.907-.313-1.922-.313-2.86 0-2.625.625-4.453 1.828-5.75.078-.094.078-.11.078-.125 0-.11-.078-.11-.109-.11-.156 0-.688.61-.813.75-1.03 1.22-1.671 3-1.671 5.235 0 1.406.25 3.406 1.562 5.094.094.125.735.875.922.875.031 0 .11 0 .11-.094z"/></symbol><symbol id="s" overflow="visible"><path d="M3.047 5.578c0-1.406-.25-3.422-1.563-5.094-.093-.125-.75-.89-.921-.89-.047 0-.125.031-.125.11 0 .03.015.062.062.093.484.516 1.125 1.328 1.531 2.922.235.906.328 1.922.328 2.86 0 1-.093 2.015-.359 3-.375 1.39-.969 2.187-1.469 2.75-.094.093-.094.108-.094.124 0 .078.079.094.126.094.14 0 .687-.594.812-.735 1.016-1.218 1.672-3 1.672-5.234z"/></symbol><symbol id="q" overflow="visible"><path d="M1.906-2.328c.547 0 .938.375.938 1.125 0 .86-.516 1.125-.906 1.125-.282 0-.907-.078-1.188-.5.328 0 .406-.235.406-.39 0-.22-.172-.376-.39-.376a.38.38 0 0 0-.391.407C.375-.281 1.094.14 1.938.14c.968 0 1.64-.657 1.64-1.344 0-.547-.437-1.094-1.203-1.25.719-.266.984-.781.984-1.219 0-.547-.625-.953-1.406-.953-.766 0-1.36.375-1.36.938 0 .234.157.359.36.359.219 0 .36-.156.36-.344 0-.203-.141-.36-.36-.375.25-.297.719-.375.985-.375.312 0 .75.156.75.75 0 .297-.094.625-.282.828-.219.266-.422.281-.765.313-.172.015-.188.015-.22.015-.015 0-.077.016-.077.094 0 .094.062.094.187.094z"/></symbol><symbol id="r" overflow="visible"><path d="M3.594-2.219c0-.765-.094-1.328-.406-1.812-.22-.313-.657-.594-1.204-.594C.36-4.625.36-2.719.36-2.219c0 .5 0 2.36 1.625 2.36 1.61 0 1.61-1.86 1.61-2.36zM1.984-.063c-.328 0-.75-.187-.89-.75C1-1.219 1-1.796 1-2.313c0-.515 0-1.046.094-1.421.156-.547.593-.704.89-.704.375 0 .735.235.86.641.11.375.125.875.125 1.485 0 .515 0 1.03-.094 1.468-.14.64-.61.781-.89.781z"/></symbol></defs><use y="126.695" x="223.432" xlink:href="#p" width="744.094" height="1052.362"/><use y="130.344" x="227.998" xlink:href="#q" width="744.094" height="1052.362"/><use y="138.2" x="227.998" xlink:href="#r" width="744.094" height="1052.362"/><use y="126.695" x="231.97" xlink:href="#s" width="744.094" height="1052.362"/></g><g ns0:text="$\\binom{4}{0}$" ns0:preamble="/home/waldgeist/data/sphinx/inkscape-preamble.tex" transform="matrix(3 0 0 3 -567.097 287.906)"><defs><symbol overflow="visible" id="t"><path d="M4.11 11.453c0-.031-.016-.062-.032-.094-.453-.484-1.14-1.296-1.562-2.921-.22-.907-.313-1.922-.313-2.86 0-2.625.625-4.453 1.828-5.75.078-.094.078-.11.078-.125 0-.11-.078-.11-.109-.11-.156 0-.688.61-.813.75-1.03 1.22-1.671 3-1.671 5.235 0 1.406.25 3.406 1.562 5.094.094.125.735.875.922.875.031 0 .11 0 .11-.094z"/></symbol><symbol overflow="visible" id="w"><path d="M3.047 5.578c0-1.406-.25-3.422-1.563-5.094-.093-.125-.75-.89-.921-.89-.047 0-.125.031-.125.11 0 .03.015.062.062.093.484.516 1.125 1.328 1.531 2.922.235.906.328 1.922.328 2.86 0 1-.093 2.015-.359 3-.375 1.39-.969 2.187-1.469 2.75-.094.093-.094.108-.094.124 0 .078.079.094.126.094.14 0 .687-.594.812-.735 1.016-1.218 1.672-3 1.672-5.234z"/></symbol><symbol overflow="visible" id="u"><path d="M3.688-1.14v-.25h-.782V-4.5c0-.14 0-.203-.14-.203-.094 0-.125 0-.188.11L.266-1.392v.25h2.062v.563c0 .25 0 .328-.578.328h-.188V0c.36-.016.797-.031 1.047-.031.266 0 .704.015 1.063.031v-.25h-.188c-.578 0-.578-.078-.578-.328v-.563zM2.375-3.939v2.547H.531z"/></symbol><symbol overflow="visible" id="v"><path d="M3.594-2.219c0-.765-.094-1.328-.406-1.812-.22-.313-.657-.594-1.204-.594C.36-4.625.36-2.719.36-2.219c0 .5 0 2.36 1.625 2.36 1.61 0 1.61-1.86 1.61-2.36zM1.984-.063c-.328 0-.75-.187-.89-.75C1-1.219 1-1.796 1-2.313c0-.515 0-1.046.094-1.421.156-.547.593-.704.89-.704.375 0 .735.235.86.641.11.375.125.875.125 1.485 0 .515 0 1.03-.094 1.468-.14.64-.61.781-.89.781z"/></symbol></defs><use height="1052.362" width="744.094" xlink:href="#t" x="223.432" y="126.695"/><use height="1052.362" width="744.094" xlink:href="#u" x="227.998" y="130.344"/><use height="1052.362" width="744.094" xlink:href="#v" x="227.998" y="138.2"/><use height="1052.362" width="744.094" xlink:href="#w" x="231.97" y="126.695"/></g><g transform="matrix(3 0 0 3 -600.873 332.733)" ns0:preamble="/home/waldgeist/data/sphinx/inkscape-preamble.tex" ns0:text="$\\binom{5}{0}$"><defs><symbol id="x" overflow="visible"><path d="M4.11 11.453c0-.031-.016-.062-.032-.094-.453-.484-1.14-1.296-1.562-2.921-.22-.907-.313-1.922-.313-2.86 0-2.625.625-4.453 1.828-5.75.078-.094.078-.11.078-.125 0-.11-.078-.11-.109-.11-.156 0-.688.61-.813.75-1.03 1.22-1.671 3-1.671 5.235 0 1.406.25 3.406 1.562 5.094.094.125.735.875.922.875.031 0 .11 0 .11-.094z"/></symbol><symbol id="A" overflow="visible"><path d="M3.047 5.578c0-1.406-.25-3.422-1.563-5.094-.093-.125-.75-.89-.921-.89-.047 0-.125.031-.125.11 0 .03.015.062.062.093.484.516 1.125 1.328 1.531 2.922.235.906.328 1.922.328 2.86 0 1-.093 2.015-.359 3-.375 1.39-.969 2.187-1.469 2.75-.094.093-.094.108-.094.124 0 .078.079.094.126.094.14 0 .687-.594.812-.735 1.016-1.218 1.672-3 1.672-5.234z"/></symbol><symbol id="y" overflow="visible"><path d="M1.078-3.89c.36.093.563.093.672.093.922 0 1.469-.625 1.469-.734 0-.078-.047-.094-.078-.094-.016 0-.032 0-.063.016-.172.062-.531.203-1.047.203-.203 0-.562-.016-1.015-.188-.079-.031-.094-.031-.094-.031-.094 0-.094.078-.094.188v2.046c0 .125 0 .204.11.204.062 0 .078 0 .14-.094.297-.375.734-.438.969-.438.422 0 .61.328.64.39.126.235.172.5.172.907 0 .203 0 .61-.218.922a.984.984 0 0 1-.813.422c-.453 0-.922-.25-1.094-.719.266.016.407-.156.407-.344 0-.296-.266-.343-.36-.343 0 0-.344 0-.344.375 0 .625.579 1.25 1.407 1.25.89 0 1.672-.657 1.672-1.547 0-.782-.594-1.5-1.454-1.5-.312 0-.671.062-.984.328z"/></symbol><symbol id="z" overflow="visible"><path d="M3.594-2.219c0-.765-.094-1.328-.406-1.812-.22-.313-.657-.594-1.204-.594C.36-4.625.36-2.719.36-2.219c0 .5 0 2.36 1.625 2.36 1.61 0 1.61-1.86 1.61-2.36zM1.984-.063c-.328 0-.75-.187-.89-.75C1-1.219 1-1.796 1-2.313c0-.515 0-1.046.094-1.421.156-.547.593-.704.89-.704.375 0 .735.235.86.641.11.375.125.875.125 1.485 0 .515 0 1.03-.094 1.468-.14.64-.61.781-.89.781z"/></symbol></defs><use y="126.695" x="223.432" xlink:href="#x" width="744.094" height="1052.362"/><use y="130.344" x="227.998" xlink:href="#y" width="744.094" height="1052.362"/><use y="138.2" x="227.998" xlink:href="#z" width="744.094" height="1052.362"/><use y="126.695" x="231.97" xlink:href="#A" width="744.094" height="1052.362"/></g><g ns0:text="$\\binom{6}{0}$" ns0:preamble="/home/waldgeist/data/sphinx/inkscape-preamble.tex" transform="matrix(3 0 0 3 -634.648 377.678)"><defs><symbol overflow="visible" id="B"><path d="M4.11 11.453c0-.031-.016-.062-.032-.094-.453-.484-1.14-1.296-1.562-2.921-.22-.907-.313-1.922-.313-2.86 0-2.625.625-4.453 1.828-5.75.078-.094.078-.11.078-.125 0-.11-.078-.11-.109-.11-.156 0-.688.61-.813.75-1.03 1.22-1.671 3-1.671 5.235 0 1.406.25 3.406 1.562 5.094.094.125.735.875.922.875.031 0 .11 0 .11-.094z"/></symbol><symbol overflow="visible" id="E"><path d="M3.047 5.578c0-1.406-.25-3.422-1.563-5.094-.093-.125-.75-.89-.921-.89-.047 0-.125.031-.125.11 0 .03.015.062.062.093.484.516 1.125 1.328 1.531 2.922.235.906.328 1.922.328 2.86 0 1-.093 2.015-.359 3-.375 1.39-.969 2.187-1.469 2.75-.094.093-.094.108-.094.124 0 .078.079.094.126.094.14 0 .687-.594.812-.735 1.016-1.218 1.672-3 1.672-5.234z"/></symbol><symbol overflow="visible" id="C"><path d="M1.047-2.281c0-.563.047-1.078.312-1.516.235-.375.61-.625 1.063-.625.203 0 .484.047.625.234-.172.016-.328.141-.328.344a.32.32 0 0 0 .328.328c.219 0 .344-.14.344-.343 0-.407-.297-.766-.985-.766-1 0-2.031.922-2.031 2.422C.375-.406 1.219.14 2 .14c.844 0 1.578-.657 1.578-1.563 0-.89-.703-1.547-1.515-1.547-.563 0-.86.375-1.016.688zM2-.078c-.36 0-.625-.203-.781-.516-.094-.203-.157-.562-.157-.969 0-.687.407-1.203.97-1.203.312 0 .53.125.702.375.172.266.172.563.172.97 0 .39 0 .687-.187.968A.815.815 0 0 1 2-.078z"/></symbol><symbol overflow="visible" id="D"><path d="M3.594-2.219c0-.765-.094-1.328-.406-1.812-.22-.313-.657-.594-1.204-.594C.36-4.625.36-2.719.36-2.219c0 .5 0 2.36 1.625 2.36 1.61 0 1.61-1.86 1.61-2.36zM1.984-.063c-.328 0-.75-.187-.89-.75C1-1.219 1-1.796 1-2.313c0-.515 0-1.046.094-1.421.156-.547.593-.704.89-.704.375 0 .735.235.86.641.11.375.125.875.125 1.485 0 .515 0 1.03-.094 1.468-.14.64-.61.781-.89.781z"/></symbol></defs><use height="1052.362" width="744.094" xlink:href="#B" x="223.432" y="126.695"/><use height="1052.362" width="744.094" xlink:href="#C" x="227.998" y="130.344"/><use height="1052.362" width="744.094" xlink:href="#D" x="227.998" y="138.2"/><use height="1052.362" width="744.094" xlink:href="#E" x="231.97" y="126.695"/></g><g transform="matrix(3 0 0 3 -668.424 422.623)" ns0:preamble="/home/waldgeist/data/sphinx/inkscape-preamble.tex" ns0:text="$\\binom{7}{0}$"><defs><symbol id="F" overflow="visible"><path d="M4.11 11.453c0-.031-.016-.062-.032-.094-.453-.484-1.14-1.296-1.562-2.921-.22-.907-.313-1.922-.313-2.86 0-2.625.625-4.453 1.828-5.75.078-.094.078-.11.078-.125 0-.11-.078-.11-.109-.11-.156 0-.688.61-.813.75-1.03 1.22-1.671 3-1.671 5.235 0 1.406.25 3.406 1.562 5.094.094.125.735.875.922.875.031 0 .11 0 .11-.094z"/></symbol><symbol id="I" overflow="visible"><path d="M3.047 5.578c0-1.406-.25-3.422-1.563-5.094-.093-.125-.75-.89-.921-.89-.047 0-.125.031-.125.11 0 .03.015.062.062.093.484.516 1.125 1.328 1.531 2.922.235.906.328 1.922.328 2.86 0 1-.093 2.015-.359 3-.375 1.39-.969 2.187-1.469 2.75-.094.093-.094.108-.094.124 0 .078.079.094.126.094.14 0 .687-.594.812-.735 1.016-1.218 1.672-3 1.672-5.234z"/></symbol><symbol id="G" overflow="visible"><path d="M3.734-4.203c.063-.094.063-.11.063-.281H1.969c-.282 0-.36-.016-.61-.032C1-4.546.984-4.594.97-4.703H.734L.484-3.22H.72c.015-.11.094-.562.203-.64.047-.032.625-.032.719-.032h1.515c-.219.282-.578.72-.719.922-.906 1.188-1 2.297-1 2.703 0 .079 0 .407.329.407.343 0 .343-.313.343-.407v-.28c0-1.345.282-1.97.579-2.345z"/></symbol><symbol id="H" overflow="visible"><path d="M3.594-2.219c0-.765-.094-1.328-.406-1.812-.22-.313-.657-.594-1.204-.594C.36-4.625.36-2.719.36-2.219c0 .5 0 2.36 1.625 2.36 1.61 0 1.61-1.86 1.61-2.36zM1.984-.063c-.328 0-.75-.187-.89-.75C1-1.219 1-1.796 1-2.313c0-.515 0-1.046.094-1.421.156-.547.593-.704.89-.704.375 0 .735.235.86.641.11.375.125.875.125 1.485 0 .515 0 1.03-.094 1.468-.14.64-.61.781-.89.781z"/></symbol></defs><use y="126.695" x="223.432" xlink:href="#F" width="744.094" height="1052.362"/><use y="130.344" x="227.998" xlink:href="#G" width="744.094" height="1052.362"/><use y="138.2" x="227.998" xlink:href="#H" width="744.094" height="1052.362"/><use y="126.695" x="231.97" xlink:href="#I" width="744.094" height="1052.362"/></g><g ns0:text="$\\binom{2}{1}$" ns0:preamble="/home/waldgeist/data/sphinx/inkscape-preamble.tex" transform="matrix(3 0 0 3 -431.995 198.047)"><defs><symbol overflow="visible" id="J"><path d="M4.11 11.453c0-.031-.016-.062-.032-.094-.453-.484-1.14-1.296-1.562-2.921-.22-.907-.313-1.922-.313-2.86 0-2.625.625-4.453 1.828-5.75.078-.094.078-.11.078-.125 0-.11-.078-.11-.109-.11-.156 0-.688.61-.813.75-1.03 1.22-1.671 3-1.671 5.235 0 1.406.25 3.406 1.562 5.094.094.125.735.875.922.875.031 0 .11 0 .11-.094z"/></symbol><symbol overflow="visible" id="M"><path d="M3.047 5.578c0-1.406-.25-3.422-1.563-5.094-.093-.125-.75-.89-.921-.89-.047 0-.125.031-.125.11 0 .03.015.062.062.093.484.516 1.125 1.328 1.531 2.922.235.906.328 1.922.328 2.86 0 1-.093 2.015-.359 3-.375 1.39-.969 2.187-1.469 2.75-.094.093-.094.108-.094.124 0 .078.079.094.126.094.14 0 .687-.594.812-.735 1.016-1.218 1.672-3 1.672-5.234z"/></symbol><symbol overflow="visible" id="K"><path d="M3.516-1.266H3.28c-.015.157-.094.563-.187.625-.047.047-.578.047-.688.047H1.125c.734-.64.984-.844 1.39-1.172.516-.406 1-.843 1-1.5 0-.843-.734-1.359-1.624-1.359-.86 0-1.454.61-1.454 1.25 0 .344.297.39.376.39.156 0 .359-.124.359-.374 0-.125-.047-.375-.406-.375.218-.485.687-.641 1.015-.641.703 0 1.063.547 1.063 1.11 0 .609-.438 1.078-.656 1.328L.516-.266C.437-.203.437-.187.437 0h2.876z"/></symbol><symbol overflow="visible" id="L"><path d="M2.328-4.438c0-.187 0-.187-.203-.187-.453.438-1.078.438-1.36.438v.25c.157 0 .626 0 1-.188v3.547c0 .234 0 .328-.687.328H.812V0c.125 0 .985-.031 1.235-.031.219 0 1.094.031 1.25.031v-.25H3.03c-.703 0-.703-.094-.703-.328z"/></symbol></defs><use xlink:href="#J" x="223.432" y="126.695" width="744.094" height="1052.362"/><use xlink:href="#K" x="227.998" y="130.344" width="744.094" height="1052.362"/><use xlink:href="#L" x="227.998" y="138.2" width="744.094" height="1052.362"/><use xlink:href="#M" x="231.97" y="126.695" width="744.094" height="1052.362"/></g><g transform="matrix(3 0 0 3 -364.444 198.047)" ns0:preamble="/home/waldgeist/data/sphinx/inkscape-preamble.tex" ns0:text="$\\binom{2}{2}$"><defs><symbol id="N" overflow="visible"><path d="M4.11 11.453c0-.031-.016-.062-.032-.094-.453-.484-1.14-1.296-1.562-2.921-.22-.907-.313-1.922-.313-2.86 0-2.625.625-4.453 1.828-5.75.078-.094.078-.11.078-.125 0-.11-.078-.11-.109-.11-.156 0-.688.61-.813.75-1.03 1.22-1.671 3-1.671 5.235 0 1.406.25 3.406 1.562 5.094.094.125.735.875.922.875.031 0 .11 0 .11-.094z"/></symbol><symbol id="P" overflow="visible"><path d="M3.047 5.578c0-1.406-.25-3.422-1.563-5.094-.093-.125-.75-.89-.921-.89-.047 0-.125.031-.125.11 0 .03.015.062.062.093.484.516 1.125 1.328 1.531 2.922.235.906.328 1.922.328 2.86 0 1-.093 2.015-.359 3-.375 1.39-.969 2.187-1.469 2.75-.094.093-.094.108-.094.124 0 .078.079.094.126.094.14 0 .687-.594.812-.735 1.016-1.218 1.672-3 1.672-5.234z"/></symbol><symbol id="O" overflow="visible"><path d="M3.516-1.266H3.28c-.015.157-.094.563-.187.625-.047.047-.578.047-.688.047H1.125c.734-.64.984-.844 1.39-1.172.516-.406 1-.843 1-1.5 0-.843-.734-1.359-1.624-1.359-.86 0-1.454.61-1.454 1.25 0 .344.297.39.376.39.156 0 .359-.124.359-.374 0-.125-.047-.375-.406-.375.218-.485.687-.641 1.015-.641.703 0 1.063.547 1.063 1.11 0 .609-.438 1.078-.656 1.328L.516-.266C.437-.203.437-.187.437 0h2.876z"/></symbol></defs><use y="126.695" x="223.432" xlink:href="#N" width="744.094" height="1052.362"/><use y="130.344" x="227.998" xlink:href="#O" width="744.094" height="1052.362"/><use y="138.2" x="227.998" xlink:href="#O" width="744.094" height="1052.362"/><use y="126.695" x="231.97" xlink:href="#P" width="744.094" height="1052.362"/></g><g ns0:text="$\\binom{3}{3}$" ns0:preamble="/home/waldgeist/data/sphinx/inkscape-preamble.tex" transform="matrix(3 0 0 3 -330.669 242.844)"><defs><symbol overflow="visible" id="Q"><path d="M4.11 11.453c0-.031-.016-.062-.032-.094-.453-.484-1.14-1.296-1.562-2.921-.22-.907-.313-1.922-.313-2.86 0-2.625.625-4.453 1.828-5.75.078-.094.078-.11.078-.125 0-.11-.078-.11-.109-.11-.156 0-.688.61-.813.75-1.03 1.22-1.671 3-1.671 5.235 0 1.406.25 3.406 1.562 5.094.094.125.735.875.922.875.031 0 .11 0 .11-.094z"/></symbol><symbol overflow="visible" id="S"><path d="M3.047 5.578c0-1.406-.25-3.422-1.563-5.094-.093-.125-.75-.89-.921-.89-.047 0-.125.031-.125.11 0 .03.015.062.062.093.484.516 1.125 1.328 1.531 2.922.235.906.328 1.922.328 2.86 0 1-.093 2.015-.359 3-.375 1.39-.969 2.187-1.469 2.75-.094.093-.094.108-.094.124 0 .078.079.094.126.094.14 0 .687-.594.812-.735 1.016-1.218 1.672-3 1.672-5.234z"/></symbol><symbol overflow="visible" id="R"><path d="M1.906-2.328c.547 0 .938.375.938 1.125 0 .86-.516 1.125-.906 1.125-.282 0-.907-.078-1.188-.5.328 0 .406-.235.406-.39 0-.22-.172-.376-.39-.376a.38.38 0 0 0-.391.407C.375-.281 1.094.14 1.938.14c.968 0 1.64-.657 1.64-1.344 0-.547-.437-1.094-1.203-1.25.719-.266.984-.781.984-1.219 0-.547-.625-.953-1.406-.953-.766 0-1.36.375-1.36.938 0 .234.157.359.36.359.219 0 .36-.156.36-.344 0-.203-.141-.36-.36-.375.25-.297.719-.375.985-.375.312 0 .75.156.75.75 0 .297-.094.625-.282.828-.219.266-.422.281-.765.313-.172.015-.188.015-.22.015-.015 0-.077.016-.077.094 0 .094.062.094.187.094z"/></symbol></defs><use height="1052.362" width="744.094" xlink:href="#Q" x="223.432" y="126.695"/><use height="1052.362" width="744.094" xlink:href="#R" x="227.998" y="130.344"/><use height="1052.362" width="744.094" xlink:href="#R" x="227.998" y="138.2"/><use height="1052.362" width="744.094" xlink:href="#S" x="231.97" y="126.695"/></g><g transform="matrix(3 0 0 3 -465.77 242.992)" ns0:preamble="/home/waldgeist/data/sphinx/inkscape-preamble.tex" ns0:text="$\\binom{3}{1}$"><defs><symbol id="T" overflow="visible"><path d="M4.11 11.453c0-.031-.016-.062-.032-.094-.453-.484-1.14-1.296-1.562-2.921-.22-.907-.313-1.922-.313-2.86 0-2.625.625-4.453 1.828-5.75.078-.094.078-.11.078-.125 0-.11-.078-.11-.109-.11-.156 0-.688.61-.813.75-1.03 1.22-1.671 3-1.671 5.235 0 1.406.25 3.406 1.562 5.094.094.125.735.875.922.875.031 0 .11 0 .11-.094z"/></symbol><symbol id="W" overflow="visible"><path d="M3.047 5.578c0-1.406-.25-3.422-1.563-5.094-.093-.125-.75-.89-.921-.89-.047 0-.125.031-.125.11 0 .03.015.062.062.093.484.516 1.125 1.328 1.531 2.922.235.906.328 1.922.328 2.86 0 1-.093 2.015-.359 3-.375 1.39-.969 2.187-1.469 2.75-.094.093-.094.108-.094.124 0 .078.079.094.126.094.14 0 .687-.594.812-.735 1.016-1.218 1.672-3 1.672-5.234z"/></symbol><symbol id="U" overflow="visible"><path d="M1.906-2.328c.547 0 .938.375.938 1.125 0 .86-.516 1.125-.906 1.125-.282 0-.907-.078-1.188-.5.328 0 .406-.235.406-.39 0-.22-.172-.376-.39-.376a.38.38 0 0 0-.391.407C.375-.281 1.094.14 1.938.14c.968 0 1.64-.657 1.64-1.344 0-.547-.437-1.094-1.203-1.25.719-.266.984-.781.984-1.219 0-.547-.625-.953-1.406-.953-.766 0-1.36.375-1.36.938 0 .234.157.359.36.359.219 0 .36-.156.36-.344 0-.203-.141-.36-.36-.375.25-.297.719-.375.985-.375.312 0 .75.156.75.75 0 .297-.094.625-.282.828-.219.266-.422.281-.765.313-.172.015-.188.015-.22.015-.015 0-.077.016-.077.094 0 .094.062.094.187.094z"/></symbol><symbol id="V" overflow="visible"><path d="M2.328-4.438c0-.187 0-.187-.203-.187-.453.438-1.078.438-1.36.438v.25c.157 0 .626 0 1-.188v3.547c0 .234 0 .328-.687.328H.812V0c.125 0 .985-.031 1.235-.031.219 0 1.094.031 1.25.031v-.25H3.03c-.703 0-.703-.094-.703-.328z"/></symbol></defs><use y="126.695" x="223.432" xlink:href="#T" width="744.094" height="1052.362"/><use y="130.344" x="227.998" xlink:href="#U" width="744.094" height="1052.362"/><use y="138.2" x="227.998" xlink:href="#V" width="744.094" height="1052.362"/><use y="126.695" x="231.97" xlink:href="#W" width="744.094" height="1052.362"/></g><g ns0:text="$\\binom{3}{2}$" ns0:preamble="/home/waldgeist/data/sphinx/inkscape-preamble.tex" transform="matrix(3 0 0 3 -398.22 242.992)"><defs><symbol overflow="visible" id="X"><path d="M4.11 11.453c0-.031-.016-.062-.032-.094-.453-.484-1.14-1.296-1.562-2.921-.22-.907-.313-1.922-.313-2.86 0-2.625.625-4.453 1.828-5.75.078-.094.078-.11.078-.125 0-.11-.078-.11-.109-.11-.156 0-.688.61-.813.75-1.03 1.22-1.671 3-1.671 5.235 0 1.406.25 3.406 1.562 5.094.094.125.735.875.922.875.031 0 .11 0 .11-.094z"/></symbol><symbol overflow="visible" id="aa"><path d="M3.047 5.578c0-1.406-.25-3.422-1.563-5.094-.093-.125-.75-.89-.921-.89-.047 0-.125.031-.125.11 0 .03.015.062.062.093.484.516 1.125 1.328 1.531 2.922.235.906.328 1.922.328 2.86 0 1-.093 2.015-.359 3-.375 1.39-.969 2.187-1.469 2.75-.094.093-.094.108-.094.124 0 .078.079.094.126.094.14 0 .687-.594.812-.735 1.016-1.218 1.672-3 1.672-5.234z"/></symbol><symbol overflow="visible" id="Y"><path d="M1.906-2.328c.547 0 .938.375.938 1.125 0 .86-.516 1.125-.906 1.125-.282 0-.907-.078-1.188-.5.328 0 .406-.235.406-.39 0-.22-.172-.376-.39-.376a.38.38 0 0 0-.391.407C.375-.281 1.094.14 1.938.14c.968 0 1.64-.657 1.64-1.344 0-.547-.437-1.094-1.203-1.25.719-.266.984-.781.984-1.219 0-.547-.625-.953-1.406-.953-.766 0-1.36.375-1.36.938 0 .234.157.359.36.359.219 0 .36-.156.36-.344 0-.203-.141-.36-.36-.375.25-.297.719-.375.985-.375.312 0 .75.156.75.75 0 .297-.094.625-.282.828-.219.266-.422.281-.765.313-.172.015-.188.015-.22.015-.015 0-.077.016-.077.094 0 .094.062.094.187.094z"/></symbol><symbol overflow="visible" id="Z"><path d="M3.516-1.266H3.28c-.015.157-.094.563-.187.625-.047.047-.578.047-.688.047H1.125c.734-.64.984-.844 1.39-1.172.516-.406 1-.843 1-1.5 0-.843-.734-1.359-1.624-1.359-.86 0-1.454.61-1.454 1.25 0 .344.297.39.376.39.156 0 .359-.124.359-.374 0-.125-.047-.375-.406-.375.218-.485.687-.641 1.015-.641.703 0 1.063.547 1.063 1.11 0 .609-.438 1.078-.656 1.328L.516-.266C.437-.203.437-.187.437 0h2.876z"/></symbol></defs><use height="1052.362" width="744.094" xlink:href="#X" x="223.432" y="126.695"/><use height="1052.362" width="744.094" xlink:href="#Y" x="227.998" y="130.344"/><use height="1052.362" width="744.094" xlink:href="#Z" x="227.998" y="138.2"/><use height="1052.362" width="744.094" xlink:href="#aa" x="231.97" y="126.695"/></g><g transform="matrix(3 0 0 3 -499.546 288.054)" ns0:preamble="/home/waldgeist/data/sphinx/inkscape-preamble.tex" ns0:text="$\\binom{4}{1}$"><defs><symbol id="ab" overflow="visible"><path d="M4.11 11.453c0-.031-.016-.062-.032-.094-.453-.484-1.14-1.296-1.562-2.921-.22-.907-.313-1.922-.313-2.86 0-2.625.625-4.453 1.828-5.75.078-.094.078-.11.078-.125 0-.11-.078-.11-.109-.11-.156 0-.688.61-.813.75-1.03 1.22-1.671 3-1.671 5.235 0 1.406.25 3.406 1.562 5.094.094.125.735.875.922.875.031 0 .11 0 .11-.094z"/></symbol><symbol id="ae" overflow="visible"><path d="M3.047 5.578c0-1.406-.25-3.422-1.563-5.094-.093-.125-.75-.89-.921-.89-.047 0-.125.031-.125.11 0 .03.015.062.062.093.484.516 1.125 1.328 1.531 2.922.235.906.328 1.922.328 2.86 0 1-.093 2.015-.359 3-.375 1.39-.969 2.187-1.469 2.75-.094.093-.094.108-.094.124 0 .078.079.094.126.094.14 0 .687-.594.812-.735 1.016-1.218 1.672-3 1.672-5.234z"/></symbol><symbol id="ac" overflow="visible"><path d="M3.688-1.14v-.25h-.782V-4.5c0-.14 0-.203-.14-.203-.094 0-.125 0-.188.11L.266-1.392v.25h2.062v.563c0 .25 0 .328-.578.328h-.188V0c.36-.016.797-.031 1.047-.031.266 0 .704.015 1.063.031v-.25h-.188c-.578 0-.578-.078-.578-.328v-.563zM2.375-3.939v2.547H.531z"/></symbol><symbol id="ad" overflow="visible"><path d="M2.328-4.438c0-.187 0-.187-.203-.187-.453.438-1.078.438-1.36.438v.25c.157 0 .626 0 1-.188v3.547c0 .234 0 .328-.687.328H.812V0c.125 0 .985-.031 1.235-.031.219 0 1.094.031 1.25.031v-.25H3.03c-.703 0-.703-.094-.703-.328z"/></symbol></defs><use y="126.695" x="223.432" xlink:href="#ab" width="744.094" height="1052.362"/><use y="130.344" x="227.998" xlink:href="#ac" width="744.094" height="1052.362"/><use y="138.2" x="227.998" xlink:href="#ad" width="744.094" height="1052.362"/><use y="126.695" x="231.97" xlink:href="#ae" width="744.094" height="1052.362"/></g><g ns0:text="$\\binom{4}{2}$" ns0:preamble="/home/waldgeist/data/sphinx/inkscape-preamble.tex" transform="matrix(3 0 0 3 -431.995 288.054)"><defs><symbol overflow="visible" id="af"><path d="M4.11 11.453c0-.031-.016-.062-.032-.094-.453-.484-1.14-1.296-1.562-2.921-.22-.907-.313-1.922-.313-2.86 0-2.625.625-4.453 1.828-5.75.078-.094.078-.11.078-.125 0-.11-.078-.11-.109-.11-.156 0-.688.61-.813.75-1.03 1.22-1.671 3-1.671 5.235 0 1.406.25 3.406 1.562 5.094.094.125.735.875.922.875.031 0 .11 0 .11-.094z"/></symbol><symbol overflow="visible" id="ai"><path d="M3.047 5.578c0-1.406-.25-3.422-1.563-5.094-.093-.125-.75-.89-.921-.89-.047 0-.125.031-.125.11 0 .03.015.062.062.093.484.516 1.125 1.328 1.531 2.922.235.906.328 1.922.328 2.86 0 1-.093 2.015-.359 3-.375 1.39-.969 2.187-1.469 2.75-.094.093-.094.108-.094.124 0 .078.079.094.126.094.14 0 .687-.594.812-.735 1.016-1.218 1.672-3 1.672-5.234z"/></symbol><symbol overflow="visible" id="ag"><path d="M3.688-1.14v-.25h-.782V-4.5c0-.14 0-.203-.14-.203-.094 0-.125 0-.188.11L.266-1.392v.25h2.062v.563c0 .25 0 .328-.578.328h-.188V0c.36-.016.797-.031 1.047-.031.266 0 .704.015 1.063.031v-.25h-.188c-.578 0-.578-.078-.578-.328v-.563zM2.375-3.939v2.547H.531z"/></symbol><symbol overflow="visible" id="ah"><path d="M3.516-1.266H3.28c-.015.157-.094.563-.187.625-.047.047-.578.047-.688.047H1.125c.734-.64.984-.844 1.39-1.172.516-.406 1-.843 1-1.5 0-.843-.734-1.359-1.624-1.359-.86 0-1.454.61-1.454 1.25 0 .344.297.39.376.39.156 0 .359-.124.359-.374 0-.125-.047-.375-.406-.375.218-.485.687-.641 1.015-.641.703 0 1.063.547 1.063 1.11 0 .609-.438 1.078-.656 1.328L.516-.266C.437-.203.437-.187.437 0h2.876z"/></symbol></defs><use height="1052.362" width="744.094" xlink:href="#af" x="223.432" y="126.695"/><use height="1052.362" width="744.094" xlink:href="#ag" x="227.998" y="130.344"/><use height="1052.362" width="744.094" xlink:href="#ah" x="227.998" y="138.2"/><use height="1052.362" width="744.094" xlink:href="#ai" x="231.97" y="126.695"/></g><g transform="matrix(3 0 0 3 -364.444 290.422)" ns0:preamble="/home/waldgeist/data/sphinx/inkscape-preamble.tex" ns0:text="$\\binom{4}{3}$"><defs><symbol id="aj" overflow="visible"><path d="M4.11 11.453c0-.031-.016-.062-.032-.094-.453-.484-1.14-1.296-1.562-2.921-.22-.907-.313-1.922-.313-2.86 0-2.625.625-4.453 1.828-5.75.078-.094.078-.11.078-.125 0-.11-.078-.11-.109-.11-.156 0-.688.61-.813.75-1.03 1.22-1.671 3-1.671 5.235 0 1.406.25 3.406 1.562 5.094.094.125.735.875.922.875.031 0 .11 0 .11-.094z"/></symbol><symbol id="am" overflow="visible"><path d="M3.047 5.578c0-1.406-.25-3.422-1.563-5.094-.093-.125-.75-.89-.921-.89-.047 0-.125.031-.125.11 0 .03.015.062.062.093.484.516 1.125 1.328 1.531 2.922.235.906.328 1.922.328 2.86 0 1-.093 2.015-.359 3-.375 1.39-.969 2.187-1.469 2.75-.094.093-.094.108-.094.124 0 .078.079.094.126.094.14 0 .687-.594.812-.735 1.016-1.218 1.672-3 1.672-5.234z"/></symbol><symbol id="ak" overflow="visible"><path d="M3.688-1.14v-.25h-.782V-4.5c0-.14 0-.203-.14-.203-.094 0-.125 0-.188.11L.266-1.392v.25h2.062v.563c0 .25 0 .328-.578.328h-.188V0c.36-.016.797-.031 1.047-.031.266 0 .704.015 1.063.031v-.25h-.188c-.578 0-.578-.078-.578-.328v-.563zM2.375-3.939v2.547H.531z"/></symbol><symbol id="al" overflow="visible"><path d="M1.906-2.328c.547 0 .938.375.938 1.125 0 .86-.516 1.125-.906 1.125-.282 0-.907-.078-1.188-.5.328 0 .406-.235.406-.39 0-.22-.172-.376-.39-.376a.38.38 0 0 0-.391.407C.375-.281 1.094.14 1.938.14c.968 0 1.64-.657 1.64-1.344 0-.547-.437-1.094-1.203-1.25.719-.266.984-.781.984-1.219 0-.547-.625-.953-1.406-.953-.766 0-1.36.375-1.36.938 0 .234.157.359.36.359.219 0 .36-.156.36-.344 0-.203-.141-.36-.36-.375.25-.297.719-.375.985-.375.312 0 .75.156.75.75 0 .297-.094.625-.282.828-.219.266-.422.281-.765.313-.172.015-.188.015-.22.015-.015 0-.077.016-.077.094 0 .094.062.094.187.094z"/></symbol></defs><use height="1052.362" width="744.094" y="126.695" x="223.432" xlink:href="#aj"/><use height="1052.362" width="744.094" y="130.344" x="227.998" xlink:href="#ak"/><use height="1052.362" width="744.094" y="138.2" x="227.998" xlink:href="#al"/><use height="1052.362" width="744.094" y="126.695" x="231.97" xlink:href="#am"/></g><g ns0:text="$\\binom{4}{4}$" ns0:preamble="/home/waldgeist/data/sphinx/inkscape-preamble.tex" transform="matrix(3 0 0 3 -296.893 288.054)"><defs><symbol overflow="visible" id="an"><path d="M4.11 11.453c0-.031-.016-.062-.032-.094-.453-.484-1.14-1.296-1.562-2.921-.22-.907-.313-1.922-.313-2.86 0-2.625.625-4.453 1.828-5.75.078-.094.078-.11.078-.125 0-.11-.078-.11-.109-.11-.156 0-.688.61-.813.75-1.03 1.22-1.671 3-1.671 5.235 0 1.406.25 3.406 1.562 5.094.094.125.735.875.922.875.031 0 .11 0 .11-.094z"/></symbol><symbol overflow="visible" id="ap"><path d="M3.047 5.578c0-1.406-.25-3.422-1.563-5.094-.093-.125-.75-.89-.921-.89-.047 0-.125.031-.125.11 0 .03.015.062.062.093.484.516 1.125 1.328 1.531 2.922.235.906.328 1.922.328 2.86 0 1-.093 2.015-.359 3-.375 1.39-.969 2.187-1.469 2.75-.094.093-.094.108-.094.124 0 .078.079.094.126.094.14 0 .687-.594.812-.735 1.016-1.218 1.672-3 1.672-5.234z"/></symbol><symbol overflow="visible" id="ao"><path d="M3.688-1.14v-.25h-.782V-4.5c0-.14 0-.203-.14-.203-.094 0-.125 0-.188.11L.266-1.392v.25h2.062v.563c0 .25 0 .328-.578.328h-.188V0c.36-.016.797-.031 1.047-.031.266 0 .704.015 1.063.031v-.25h-.188c-.578 0-.578-.078-.578-.328v-.563zM2.375-3.939v2.547H.531z"/></symbol></defs><use height="1052.362" width="744.094" xlink:href="#an" x="223.432" y="126.695"/><use height="1052.362" width="744.094" xlink:href="#ao" x="227.998" y="130.344"/><use height="1052.362" width="744.094" xlink:href="#ao" x="227.998" y="138.2"/><use height="1052.362" width="744.094" xlink:href="#ap" x="231.97" y="126.695"/></g><g transform="matrix(3.16844 0 0 3 -639.612 422.888)" ns0:preamble="/home/waldgeist/data/sphinx/inkscape-preamble.tex" ns0:text="$\\binom{7}{1}$"><defs><symbol id="aq" overflow="visible"><path d="M4.11 11.453c0-.031-.016-.062-.032-.094-.453-.484-1.14-1.296-1.562-2.921-.22-.907-.313-1.922-.313-2.86 0-2.625.625-4.453 1.828-5.75.078-.094.078-.11.078-.125 0-.11-.078-.11-.109-.11-.156 0-.688.61-.813.75-1.03 1.22-1.671 3-1.671 5.235 0 1.406.25 3.406 1.562 5.094.094.125.735.875.922.875.031 0 .11 0 .11-.094z"/></symbol><symbol id="at" overflow="visible"><path d="M3.047 5.578c0-1.406-.25-3.422-1.563-5.094-.093-.125-.75-.89-.921-.89-.047 0-.125.031-.125.11 0 .03.015.062.062.093.484.516 1.125 1.328 1.531 2.922.235.906.328 1.922.328 2.86 0 1-.093 2.015-.359 3-.375 1.39-.969 2.187-1.469 2.75-.094.093-.094.108-.094.124 0 .078.079.094.126.094.14 0 .687-.594.812-.735 1.016-1.218 1.672-3 1.672-5.234z"/></symbol><symbol id="ar" overflow="visible"><path d="M3.734-4.203c.063-.094.063-.11.063-.281H1.969c-.282 0-.36-.016-.61-.032C1-4.546.984-4.594.97-4.703H.734L.484-3.22H.72c.015-.11.094-.562.203-.64.047-.032.625-.032.719-.032h1.515c-.219.282-.578.72-.719.922-.906 1.188-1 2.297-1 2.703 0 .079 0 .407.329.407.343 0 .343-.313.343-.407v-.28c0-1.345.282-1.97.579-2.345z"/></symbol><symbol id="as" overflow="visible"><path d="M2.328-4.438c0-.187 0-.187-.203-.187-.453.438-1.078.438-1.36.438v.25c.157 0 .626 0 1-.188v3.547c0 .234 0 .328-.687.328H.812V0c.125 0 .985-.031 1.235-.031.219 0 1.094.031 1.25.031v-.25H3.03c-.703 0-.703-.094-.703-.328z"/></symbol></defs><use y="126.695" x="223.432" xlink:href="#aq" width="744.094" height="1052.362"/><use y="130.344" x="227.998" xlink:href="#ar" width="744.094" height="1052.362"/><use y="138.2" x="227.998" xlink:href="#as" width="744.094" height="1052.362"/><use y="126.695" x="231.97" xlink:href="#at" width="744.094" height="1052.362"/></g><g ns0:text="$\\binom{7}{2}$" ns0:preamble="/home/waldgeist/data/sphinx/inkscape-preamble.tex" transform="matrix(3.16844 0 0 3 -572.06 422.888)"><defs><symbol overflow="visible" id="au"><path d="M4.11 11.453c0-.031-.016-.062-.032-.094-.453-.484-1.14-1.296-1.562-2.921-.22-.907-.313-1.922-.313-2.86 0-2.625.625-4.453 1.828-5.75.078-.094.078-.11.078-.125 0-.11-.078-.11-.109-.11-.156 0-.688.61-.813.75-1.03 1.22-1.671 3-1.671 5.235 0 1.406.25 3.406 1.562 5.094.094.125.735.875.922.875.031 0 .11 0 .11-.094z"/></symbol><symbol overflow="visible" id="ax"><path d="M3.047 5.578c0-1.406-.25-3.422-1.563-5.094-.093-.125-.75-.89-.921-.89-.047 0-.125.031-.125.11 0 .03.015.062.062.093.484.516 1.125 1.328 1.531 2.922.235.906.328 1.922.328 2.86 0 1-.093 2.015-.359 3-.375 1.39-.969 2.187-1.469 2.75-.094.093-.094.108-.094.124 0 .078.079.094.126.094.14 0 .687-.594.812-.735 1.016-1.218 1.672-3 1.672-5.234z"/></symbol><symbol overflow="visible" id="av"><path d="M3.734-4.203c.063-.094.063-.11.063-.281H1.969c-.282 0-.36-.016-.61-.032C1-4.546.984-4.594.97-4.703H.734L.484-3.22H.72c.015-.11.094-.562.203-.64.047-.032.625-.032.719-.032h1.515c-.219.282-.578.72-.719.922-.906 1.188-1 2.297-1 2.703 0 .079 0 .407.329.407.343 0 .343-.313.343-.407v-.28c0-1.345.282-1.97.579-2.345z"/></symbol><symbol overflow="visible" id="aw"><path d="M3.516-1.266H3.28c-.015.157-.094.563-.187.625-.047.047-.578.047-.688.047H1.125c.734-.64.984-.844 1.39-1.172.516-.406 1-.843 1-1.5 0-.843-.734-1.359-1.624-1.359-.86 0-1.454.61-1.454 1.25 0 .344.297.39.376.39.156 0 .359-.124.359-.374 0-.125-.047-.375-.406-.375.218-.485.687-.641 1.015-.641.703 0 1.063.547 1.063 1.11 0 .609-.438 1.078-.656 1.328L.516-.266C.437-.203.437-.187.437 0h2.876z"/></symbol></defs><use xlink:href="#au" x="223.432" y="126.695" width="744.094" height="1052.362"/><use xlink:href="#av" x="227.998" y="130.344" width="744.094" height="1052.362"/><use xlink:href="#aw" x="227.998" y="138.2" width="744.094" height="1052.362"/><use xlink:href="#ax" x="231.97" y="126.695" width="744.094" height="1052.362"/></g><g transform="matrix(3.16844 0 0 3 -504.51 422.74)" ns0:preamble="/home/waldgeist/data/sphinx/inkscape-preamble.tex" ns0:text="$\\binom{7}{3}$"><defs><symbol id="ay" overflow="visible"><path d="M4.11 11.453c0-.031-.016-.062-.032-.094-.453-.484-1.14-1.296-1.562-2.921-.22-.907-.313-1.922-.313-2.86 0-2.625.625-4.453 1.828-5.75.078-.094.078-.11.078-.125 0-.11-.078-.11-.109-.11-.156 0-.688.61-.813.75-1.03 1.22-1.671 3-1.671 5.235 0 1.406.25 3.406 1.562 5.094.094.125.735.875.922.875.031 0 .11 0 .11-.094z"/></symbol><symbol id="aB" overflow="visible"><path d="M3.047 5.578c0-1.406-.25-3.422-1.563-5.094-.093-.125-.75-.89-.921-.89-.047 0-.125.031-.125.11 0 .03.015.062.062.093.484.516 1.125 1.328 1.531 2.922.235.906.328 1.922.328 2.86 0 1-.093 2.015-.359 3-.375 1.39-.969 2.187-1.469 2.75-.094.093-.094.108-.094.124 0 .078.079.094.126.094.14 0 .687-.594.812-.735 1.016-1.218 1.672-3 1.672-5.234z"/></symbol><symbol id="az" overflow="visible"><path d="M3.734-4.203c.063-.094.063-.11.063-.281H1.969c-.282 0-.36-.016-.61-.032C1-4.546.984-4.594.97-4.703H.734L.484-3.22H.72c.015-.11.094-.562.203-.64.047-.032.625-.032.719-.032h1.515c-.219.282-.578.72-.719.922-.906 1.188-1 2.297-1 2.703 0 .079 0 .407.329.407.343 0 .343-.313.343-.407v-.28c0-1.345.282-1.97.579-2.345z"/></symbol><symbol id="aA" overflow="visible"><path d="M1.906-2.328c.547 0 .938.375.938 1.125 0 .86-.516 1.125-.906 1.125-.282 0-.907-.078-1.188-.5.328 0 .406-.235.406-.39 0-.22-.172-.376-.39-.376a.38.38 0 0 0-.391.407C.375-.281 1.094.14 1.938.14c.968 0 1.64-.657 1.64-1.344 0-.547-.437-1.094-1.203-1.25.719-.266.984-.781.984-1.219 0-.547-.625-.953-1.406-.953-.766 0-1.36.375-1.36.938 0 .234.157.359.36.359.219 0 .36-.156.36-.344 0-.203-.141-.36-.36-.375.25-.297.719-.375.985-.375.312 0 .75.156.75.75 0 .297-.094.625-.282.828-.219.266-.422.281-.765.313-.172.015-.188.015-.22.015-.015 0-.077.016-.077.094 0 .094.062.094.187.094z"/></symbol></defs><use y="126.695" x="223.432" xlink:href="#ay" width="744.094" height="1052.362"/><use y="130.344" x="227.998" xlink:href="#az" width="744.094" height="1052.362"/><use y="138.2" x="227.998" xlink:href="#aA" width="744.094" height="1052.362"/><use y="126.695" x="231.97" xlink:href="#aB" width="744.094" height="1052.362"/></g><g ns0:text="$\\binom{7}{4}$" ns0:preamble="/home/waldgeist/data/sphinx/inkscape-preamble.tex" transform="matrix(3.16844 0 0 3 -436.959 422.888)"><defs><symbol overflow="visible" id="aC"><path d="M4.11 11.453c0-.031-.016-.062-.032-.094-.453-.484-1.14-1.296-1.562-2.921-.22-.907-.313-1.922-.313-2.86 0-2.625.625-4.453 1.828-5.75.078-.094.078-.11.078-.125 0-.11-.078-.11-.109-.11-.156 0-.688.61-.813.75-1.03 1.22-1.671 3-1.671 5.235 0 1.406.25 3.406 1.562 5.094.094.125.735.875.922.875.031 0 .11 0 .11-.094z"/></symbol><symbol overflow="visible" id="aF"><path d="M3.047 5.578c0-1.406-.25-3.422-1.563-5.094-.093-.125-.75-.89-.921-.89-.047 0-.125.031-.125.11 0 .03.015.062.062.093.484.516 1.125 1.328 1.531 2.922.235.906.328 1.922.328 2.86 0 1-.093 2.015-.359 3-.375 1.39-.969 2.187-1.469 2.75-.094.093-.094.108-.094.124 0 .078.079.094.126.094.14 0 .687-.594.812-.735 1.016-1.218 1.672-3 1.672-5.234z"/></symbol><symbol overflow="visible" id="aD"><path d="M3.734-4.203c.063-.094.063-.11.063-.281H1.969c-.282 0-.36-.016-.61-.032C1-4.546.984-4.594.97-4.703H.734L.484-3.22H.72c.015-.11.094-.562.203-.64.047-.032.625-.032.719-.032h1.515c-.219.282-.578.72-.719.922-.906 1.188-1 2.297-1 2.703 0 .079 0 .407.329.407.343 0 .343-.313.343-.407v-.28c0-1.345.282-1.97.579-2.345z"/></symbol><symbol overflow="visible" id="aE"><path d="M3.688-1.14v-.25h-.782V-4.5c0-.14 0-.203-.14-.203-.094 0-.125 0-.188.11L.266-1.392v.25h2.062v.563c0 .25 0 .328-.578.328h-.188V0c.36-.016.797-.031 1.047-.031.266 0 .704.015 1.063.031v-.25h-.188c-.578 0-.578-.078-.578-.328v-.563zM2.375-3.939v2.547H.531z"/></symbol></defs><use xlink:href="#aC" x="223.432" y="126.695" width="744.094" height="1052.362"/><use xlink:href="#aD" x="227.998" y="130.344" width="744.094" height="1052.362"/><use xlink:href="#aE" x="227.998" y="138.2" width="744.094" height="1052.362"/><use xlink:href="#aF" x="231.97" y="126.695" width="744.094" height="1052.362"/></g><g transform="matrix(3.16844 0 0 3 -369.408 422.74)" ns0:preamble="/home/waldgeist/data/sphinx/inkscape-preamble.tex" ns0:text="$\\binom{7}{5}$"><defs><symbol id="aG" overflow="visible"><path d="M4.11 11.453c0-.031-.016-.062-.032-.094-.453-.484-1.14-1.296-1.562-2.921-.22-.907-.313-1.922-.313-2.86 0-2.625.625-4.453 1.828-5.75.078-.094.078-.11.078-.125 0-.11-.078-.11-.109-.11-.156 0-.688.61-.813.75-1.03 1.22-1.671 3-1.671 5.235 0 1.406.25 3.406 1.562 5.094.094.125.735.875.922.875.031 0 .11 0 .11-.094z"/></symbol><symbol id="aJ" overflow="visible"><path d="M3.047 5.578c0-1.406-.25-3.422-1.563-5.094-.093-.125-.75-.89-.921-.89-.047 0-.125.031-.125.11 0 .03.015.062.062.093.484.516 1.125 1.328 1.531 2.922.235.906.328 1.922.328 2.86 0 1-.093 2.015-.359 3-.375 1.39-.969 2.187-1.469 2.75-.094.093-.094.108-.094.124 0 .078.079.094.126.094.14 0 .687-.594.812-.735 1.016-1.218 1.672-3 1.672-5.234z"/></symbol><symbol id="aH" overflow="visible"><path d="M3.734-4.203c.063-.094.063-.11.063-.281H1.969c-.282 0-.36-.016-.61-.032C1-4.546.984-4.594.97-4.703H.734L.484-3.22H.72c.015-.11.094-.562.203-.64.047-.032.625-.032.719-.032h1.515c-.219.282-.578.72-.719.922-.906 1.188-1 2.297-1 2.703 0 .079 0 .407.329.407.343 0 .343-.313.343-.407v-.28c0-1.345.282-1.97.579-2.345z"/></symbol><symbol id="aI" overflow="visible"><path d="M1.078-3.89c.36.093.563.093.672.093.922 0 1.469-.625 1.469-.734 0-.078-.047-.094-.078-.094-.016 0-.032 0-.063.016-.172.062-.531.203-1.047.203-.203 0-.562-.016-1.015-.188-.079-.031-.094-.031-.094-.031-.094 0-.094.078-.094.188v2.046c0 .125 0 .204.11.204.062 0 .078 0 .14-.094.297-.375.734-.438.969-.438.422 0 .61.328.64.39.126.235.172.5.172.907 0 .203 0 .61-.218.922a.984.984 0 0 1-.813.422c-.453 0-.922-.25-1.094-.719.266.016.407-.156.407-.344 0-.296-.266-.343-.36-.343 0 0-.344 0-.344.375 0 .625.579 1.25 1.407 1.25.89 0 1.672-.657 1.672-1.547 0-.782-.594-1.5-1.454-1.5-.312 0-.671.062-.984.328z"/></symbol></defs><use y="126.695" x="223.432" xlink:href="#aG" width="744.094" height="1052.362"/><use y="130.344" x="227.998" xlink:href="#aH" width="744.094" height="1052.362"/><use y="138.2" x="227.998" xlink:href="#aI" width="744.094" height="1052.362"/><use y="126.695" x="231.97" xlink:href="#aJ" width="744.094" height="1052.362"/></g><g ns0:text="$\\binom{6}{1}$" ns0:preamble="/home/waldgeist/data/sphinx/inkscape-preamble.tex" transform="matrix(3 0 0 3 -567.097 377.826)"><defs><symbol overflow="visible" id="aK"><path d="M4.11 11.453c0-.031-.016-.062-.032-.094-.453-.484-1.14-1.296-1.562-2.921-.22-.907-.313-1.922-.313-2.86 0-2.625.625-4.453 1.828-5.75.078-.094.078-.11.078-.125 0-.11-.078-.11-.109-.11-.156 0-.688.61-.813.75-1.03 1.22-1.671 3-1.671 5.235 0 1.406.25 3.406 1.562 5.094.094.125.735.875.922.875.031 0 .11 0 .11-.094z"/></symbol><symbol overflow="visible" id="aN"><path d="M3.047 5.578c0-1.406-.25-3.422-1.563-5.094-.093-.125-.75-.89-.921-.89-.047 0-.125.031-.125.11 0 .03.015.062.062.093.484.516 1.125 1.328 1.531 2.922.235.906.328 1.922.328 2.86 0 1-.093 2.015-.359 3-.375 1.39-.969 2.187-1.469 2.75-.094.093-.094.108-.094.124 0 .078.079.094.126.094.14 0 .687-.594.812-.735 1.016-1.218 1.672-3 1.672-5.234z"/></symbol><symbol overflow="visible" id="aL"><path d="M1.047-2.281c0-.563.047-1.078.312-1.516.235-.375.61-.625 1.063-.625.203 0 .484.047.625.234-.172.016-.328.141-.328.344a.32.32 0 0 0 .328.328c.219 0 .344-.14.344-.343 0-.407-.297-.766-.985-.766-1 0-2.031.922-2.031 2.422C.375-.406 1.219.14 2 .14c.844 0 1.578-.657 1.578-1.563 0-.89-.703-1.547-1.515-1.547-.563 0-.86.375-1.016.688zM2-.078c-.36 0-.625-.203-.781-.516-.094-.203-.157-.562-.157-.969 0-.687.407-1.203.97-1.203.312 0 .53.125.702.375.172.266.172.563.172.97 0 .39 0 .687-.187.968A.815.815 0 0 1 2-.078z"/></symbol><symbol overflow="visible" id="aM"><path d="M2.328-4.438c0-.187 0-.187-.203-.187-.453.438-1.078.438-1.36.438v.25c.157 0 .626 0 1-.188v3.547c0 .234 0 .328-.687.328H.812V0c.125 0 .985-.031 1.235-.031.219 0 1.094.031 1.25.031v-.25H3.03c-.703 0-.703-.094-.703-.328z"/></symbol></defs><use height="1052.362" width="744.094" xlink:href="#aK" x="223.432" y="126.695"/><use height="1052.362" width="744.094" xlink:href="#aL" x="227.998" y="130.344"/><use height="1052.362" width="744.094" xlink:href="#aM" x="227.998" y="138.2"/><use height="1052.362" width="744.094" xlink:href="#aN" x="231.97" y="126.695"/></g><g transform="matrix(3 0 0 3 -499.546 377.826)" ns0:preamble="/home/waldgeist/data/sphinx/inkscape-preamble.tex" ns0:text="$\\binom{6}{2}$"><defs><symbol id="aO" overflow="visible"><path d="M4.11 11.453c0-.031-.016-.062-.032-.094-.453-.484-1.14-1.296-1.562-2.921-.22-.907-.313-1.922-.313-2.86 0-2.625.625-4.453 1.828-5.75.078-.094.078-.11.078-.125 0-.11-.078-.11-.109-.11-.156 0-.688.61-.813.75-1.03 1.22-1.671 3-1.671 5.235 0 1.406.25 3.406 1.562 5.094.094.125.735.875.922.875.031 0 .11 0 .11-.094z"/></symbol><symbol id="aR" overflow="visible"><path d="M3.047 5.578c0-1.406-.25-3.422-1.563-5.094-.093-.125-.75-.89-.921-.89-.047 0-.125.031-.125.11 0 .03.015.062.062.093.484.516 1.125 1.328 1.531 2.922.235.906.328 1.922.328 2.86 0 1-.093 2.015-.359 3-.375 1.39-.969 2.187-1.469 2.75-.094.093-.094.108-.094.124 0 .078.079.094.126.094.14 0 .687-.594.812-.735 1.016-1.218 1.672-3 1.672-5.234z"/></symbol><symbol id="aP" overflow="visible"><path d="M1.047-2.281c0-.563.047-1.078.312-1.516.235-.375.61-.625 1.063-.625.203 0 .484.047.625.234-.172.016-.328.141-.328.344a.32.32 0 0 0 .328.328c.219 0 .344-.14.344-.343 0-.407-.297-.766-.985-.766-1 0-2.031.922-2.031 2.422C.375-.406 1.219.14 2 .14c.844 0 1.578-.657 1.578-1.563 0-.89-.703-1.547-1.515-1.547-.563 0-.86.375-1.016.688zM2-.078c-.36 0-.625-.203-.781-.516-.094-.203-.157-.562-.157-.969 0-.687.407-1.203.97-1.203.312 0 .53.125.702.375.172.266.172.563.172.97 0 .39 0 .687-.187.968A.815.815 0 0 1 2-.078z"/></symbol><symbol id="aQ" overflow="visible"><path d="M3.516-1.266H3.28c-.015.157-.094.563-.187.625-.047.047-.578.047-.688.047H1.125c.734-.64.984-.844 1.39-1.172.516-.406 1-.843 1-1.5 0-.843-.734-1.359-1.624-1.359-.86 0-1.454.61-1.454 1.25 0 .344.297.39.376.39.156 0 .359-.124.359-.374 0-.125-.047-.375-.406-.375.218-.485.687-.641 1.015-.641.703 0 1.063.547 1.063 1.11 0 .609-.438 1.078-.656 1.328L.516-.266C.437-.203.437-.187.437 0h2.876z"/></symbol></defs><use height="1052.362" width="744.094" y="126.695" x="223.432" xlink:href="#aO"/><use height="1052.362" width="744.094" y="130.344" x="227.998" xlink:href="#aP"/><use height="1052.362" width="744.094" y="138.2" x="227.998" xlink:href="#aQ"/><use height="1052.362" width="744.094" y="126.695" x="231.97" xlink:href="#aR"/></g><g ns0:text="$\\binom{6}{3}$" ns0:preamble="/home/waldgeist/data/sphinx/inkscape-preamble.tex" transform="matrix(3 0 0 3 -431.995 377.678)"><defs><symbol overflow="visible" id="aS"><path d="M4.11 11.453c0-.031-.016-.062-.032-.094-.453-.484-1.14-1.296-1.562-2.921-.22-.907-.313-1.922-.313-2.86 0-2.625.625-4.453 1.828-5.75.078-.094.078-.11.078-.125 0-.11-.078-.11-.109-.11-.156 0-.688.61-.813.75-1.03 1.22-1.671 3-1.671 5.235 0 1.406.25 3.406 1.562 5.094.094.125.735.875.922.875.031 0 .11 0 .11-.094z"/></symbol><symbol overflow="visible" id="aV"><path d="M3.047 5.578c0-1.406-.25-3.422-1.563-5.094-.093-.125-.75-.89-.921-.89-.047 0-.125.031-.125.11 0 .03.015.062.062.093.484.516 1.125 1.328 1.531 2.922.235.906.328 1.922.328 2.86 0 1-.093 2.015-.359 3-.375 1.39-.969 2.187-1.469 2.75-.094.093-.094.108-.094.124 0 .078.079.094.126.094.14 0 .687-.594.812-.735 1.016-1.218 1.672-3 1.672-5.234z"/></symbol><symbol overflow="visible" id="aT"><path d="M1.047-2.281c0-.563.047-1.078.312-1.516.235-.375.61-.625 1.063-.625.203 0 .484.047.625.234-.172.016-.328.141-.328.344a.32.32 0 0 0 .328.328c.219 0 .344-.14.344-.343 0-.407-.297-.766-.985-.766-1 0-2.031.922-2.031 2.422C.375-.406 1.219.14 2 .14c.844 0 1.578-.657 1.578-1.563 0-.89-.703-1.547-1.515-1.547-.563 0-.86.375-1.016.688zM2-.078c-.36 0-.625-.203-.781-.516-.094-.203-.157-.562-.157-.969 0-.687.407-1.203.97-1.203.312 0 .53.125.702.375.172.266.172.563.172.97 0 .39 0 .687-.187.968A.815.815 0 0 1 2-.078z"/></symbol><symbol overflow="visible" id="aU"><path d="M1.906-2.328c.547 0 .938.375.938 1.125 0 .86-.516 1.125-.906 1.125-.282 0-.907-.078-1.188-.5.328 0 .406-.235.406-.39 0-.22-.172-.376-.39-.376a.38.38 0 0 0-.391.407C.375-.281 1.094.14 1.938.14c.968 0 1.64-.657 1.64-1.344 0-.547-.437-1.094-1.203-1.25.719-.266.984-.781.984-1.219 0-.547-.625-.953-1.406-.953-.766 0-1.36.375-1.36.938 0 .234.157.359.36.359.219 0 .36-.156.36-.344 0-.203-.141-.36-.36-.375.25-.297.719-.375.985-.375.312 0 .75.156.75.75 0 .297-.094.625-.282.828-.219.266-.422.281-.765.313-.172.015-.188.015-.22.015-.015 0-.077.016-.077.094 0 .094.062.094.187.094z"/></symbol></defs><use height="1052.362" width="744.094" xlink:href="#aS" x="223.432" y="126.695"/><use height="1052.362" width="744.094" xlink:href="#aT" x="227.998" y="130.344"/><use height="1052.362" width="744.094" xlink:href="#aU" x="227.998" y="138.2"/><use height="1052.362" width="744.094" xlink:href="#aV" x="231.97" y="126.695"/></g><g transform="matrix(3 0 0 3 -533.322 332.881)" ns0:preamble="/home/waldgeist/data/sphinx/inkscape-preamble.tex" ns0:text="$\\binom{5}{1}$"><defs><symbol id="aW" overflow="visible"><path d="M4.11 11.453c0-.031-.016-.062-.032-.094-.453-.484-1.14-1.296-1.562-2.921-.22-.907-.313-1.922-.313-2.86 0-2.625.625-4.453 1.828-5.75.078-.094.078-.11.078-.125 0-.11-.078-.11-.109-.11-.156 0-.688.61-.813.75-1.03 1.22-1.671 3-1.671 5.235 0 1.406.25 3.406 1.562 5.094.094.125.735.875.922.875.031 0 .11 0 .11-.094z"/></symbol><symbol id="aZ" overflow="visible"><path d="M3.047 5.578c0-1.406-.25-3.422-1.563-5.094-.093-.125-.75-.89-.921-.89-.047 0-.125.031-.125.11 0 .03.015.062.062.093.484.516 1.125 1.328 1.531 2.922.235.906.328 1.922.328 2.86 0 1-.093 2.015-.359 3-.375 1.39-.969 2.187-1.469 2.75-.094.093-.094.108-.094.124 0 .078.079.094.126.094.14 0 .687-.594.812-.735 1.016-1.218 1.672-3 1.672-5.234z"/></symbol><symbol id="aX" overflow="visible"><path d="M1.078-3.89c.36.093.563.093.672.093.922 0 1.469-.625 1.469-.734 0-.078-.047-.094-.078-.094-.016 0-.032 0-.063.016-.172.062-.531.203-1.047.203-.203 0-.562-.016-1.015-.188-.079-.031-.094-.031-.094-.031-.094 0-.094.078-.094.188v2.046c0 .125 0 .204.11.204.062 0 .078 0 .14-.094.297-.375.734-.438.969-.438.422 0 .61.328.64.39.126.235.172.5.172.907 0 .203 0 .61-.218.922a.984.984 0 0 1-.813.422c-.453 0-.922-.25-1.094-.719.266.016.407-.156.407-.344 0-.296-.266-.343-.36-.343 0 0-.344 0-.344.375 0 .625.579 1.25 1.407 1.25.89 0 1.672-.657 1.672-1.547 0-.782-.594-1.5-1.454-1.5-.312 0-.671.062-.984.328z"/></symbol><symbol id="aY" overflow="visible"><path d="M2.328-4.438c0-.187 0-.187-.203-.187-.453.438-1.078.438-1.36.438v.25c.157 0 .626 0 1-.188v3.547c0 .234 0 .328-.687.328H.812V0c.125 0 .985-.031 1.235-.031.219 0 1.094.031 1.25.031v-.25H3.03c-.703 0-.703-.094-.703-.328z"/></symbol></defs><use y="126.695" x="223.432" xlink:href="#aW" width="744.094" height="1052.362"/><use y="130.344" x="227.998" xlink:href="#aX" width="744.094" height="1052.362"/><use y="138.2" x="227.998" xlink:href="#aY" width="744.094" height="1052.362"/><use y="126.695" x="231.97" xlink:href="#aZ" width="744.094" height="1052.362"/></g><g ns0:text="$\\binom{5}{2}$" ns0:preamble="/home/waldgeist/data/sphinx/inkscape-preamble.tex" transform="matrix(3 0 0 3 -465.77 332.881)"><defs><symbol overflow="visible" id="ba"><path d="M4.11 11.453c0-.031-.016-.062-.032-.094-.453-.484-1.14-1.296-1.562-2.921-.22-.907-.313-1.922-.313-2.86 0-2.625.625-4.453 1.828-5.75.078-.094.078-.11.078-.125 0-.11-.078-.11-.109-.11-.156 0-.688.61-.813.75-1.03 1.22-1.671 3-1.671 5.235 0 1.406.25 3.406 1.562 5.094.094.125.735.875.922.875.031 0 .11 0 .11-.094z"/></symbol><symbol overflow="visible" id="bd"><path d="M3.047 5.578c0-1.406-.25-3.422-1.563-5.094-.093-.125-.75-.89-.921-.89-.047 0-.125.031-.125.11 0 .03.015.062.062.093.484.516 1.125 1.328 1.531 2.922.235.906.328 1.922.328 2.86 0 1-.093 2.015-.359 3-.375 1.39-.969 2.187-1.469 2.75-.094.093-.094.108-.094.124 0 .078.079.094.126.094.14 0 .687-.594.812-.735 1.016-1.218 1.672-3 1.672-5.234z"/></symbol><symbol overflow="visible" id="bb"><path d="M1.078-3.89c.36.093.563.093.672.093.922 0 1.469-.625 1.469-.734 0-.078-.047-.094-.078-.094-.016 0-.032 0-.063.016-.172.062-.531.203-1.047.203-.203 0-.562-.016-1.015-.188-.079-.031-.094-.031-.094-.031-.094 0-.094.078-.094.188v2.046c0 .125 0 .204.11.204.062 0 .078 0 .14-.094.297-.375.734-.438.969-.438.422 0 .61.328.64.39.126.235.172.5.172.907 0 .203 0 .61-.218.922a.984.984 0 0 1-.813.422c-.453 0-.922-.25-1.094-.719.266.016.407-.156.407-.344 0-.296-.266-.343-.36-.343 0 0-.344 0-.344.375 0 .625.579 1.25 1.407 1.25.89 0 1.672-.657 1.672-1.547 0-.782-.594-1.5-1.454-1.5-.312 0-.671.062-.984.328z"/></symbol><symbol overflow="visible" id="bc"><path d="M3.516-1.266H3.28c-.015.157-.094.563-.187.625-.047.047-.578.047-.688.047H1.125c.734-.64.984-.844 1.39-1.172.516-.406 1-.843 1-1.5 0-.843-.734-1.359-1.624-1.359-.86 0-1.454.61-1.454 1.25 0 .344.297.39.376.39.156 0 .359-.124.359-.374 0-.125-.047-.375-.406-.375.218-.485.687-.641 1.015-.641.703 0 1.063.547 1.063 1.11 0 .609-.438 1.078-.656 1.328L.516-.266C.437-.203.437-.187.437 0h2.876z"/></symbol></defs><use xlink:href="#ba" x="223.432" y="126.695" width="744.094" height="1052.362"/><use xlink:href="#bb" x="227.998" y="130.344" width="744.094" height="1052.362"/><use xlink:href="#bc" x="227.998" y="138.2" width="744.094" height="1052.362"/><use xlink:href="#bd" x="231.97" y="126.695" width="744.094" height="1052.362"/></g><g transform="matrix(3 0 0 3 -398.22 332.733)" ns0:preamble="/home/waldgeist/data/sphinx/inkscape-preamble.tex" ns0:text="$\\binom{5}{3}$"><defs><symbol id="be" overflow="visible"><path d="M4.11 11.453c0-.031-.016-.062-.032-.094-.453-.484-1.14-1.296-1.562-2.921-.22-.907-.313-1.922-.313-2.86 0-2.625.625-4.453 1.828-5.75.078-.094.078-.11.078-.125 0-.11-.078-.11-.109-.11-.156 0-.688.61-.813.75-1.03 1.22-1.671 3-1.671 5.235 0 1.406.25 3.406 1.562 5.094.094.125.735.875.922.875.031 0 .11 0 .11-.094z"/></symbol><symbol id="bh" overflow="visible"><path d="M3.047 5.578c0-1.406-.25-3.422-1.563-5.094-.093-.125-.75-.89-.921-.89-.047 0-.125.031-.125.11 0 .03.015.062.062.093.484.516 1.125 1.328 1.531 2.922.235.906.328 1.922.328 2.86 0 1-.093 2.015-.359 3-.375 1.39-.969 2.187-1.469 2.75-.094.093-.094.108-.094.124 0 .078.079.094.126.094.14 0 .687-.594.812-.735 1.016-1.218 1.672-3 1.672-5.234z"/></symbol><symbol id="bf" overflow="visible"><path d="M1.078-3.89c.36.093.563.093.672.093.922 0 1.469-.625 1.469-.734 0-.078-.047-.094-.078-.094-.016 0-.032 0-.063.016-.172.062-.531.203-1.047.203-.203 0-.562-.016-1.015-.188-.079-.031-.094-.031-.094-.031-.094 0-.094.078-.094.188v2.046c0 .125 0 .204.11.204.062 0 .078 0 .14-.094.297-.375.734-.438.969-.438.422 0 .61.328.64.39.126.235.172.5.172.907 0 .203 0 .61-.218.922a.984.984 0 0 1-.813.422c-.453 0-.922-.25-1.094-.719.266.016.407-.156.407-.344 0-.296-.266-.343-.36-.343 0 0-.344 0-.344.375 0 .625.579 1.25 1.407 1.25.89 0 1.672-.657 1.672-1.547 0-.782-.594-1.5-1.454-1.5-.312 0-.671.062-.984.328z"/></symbol><symbol id="bg" overflow="visible"><path d="M1.906-2.328c.547 0 .938.375.938 1.125 0 .86-.516 1.125-.906 1.125-.282 0-.907-.078-1.188-.5.328 0 .406-.235.406-.39 0-.22-.172-.376-.39-.376a.38.38 0 0 0-.391.407C.375-.281 1.094.14 1.938.14c.968 0 1.64-.657 1.64-1.344 0-.547-.437-1.094-1.203-1.25.719-.266.984-.781.984-1.219 0-.547-.625-.953-1.406-.953-.766 0-1.36.375-1.36.938 0 .234.157.359.36.359.219 0 .36-.156.36-.344 0-.203-.141-.36-.36-.375.25-.297.719-.375.985-.375.312 0 .75.156.75.75 0 .297-.094.625-.282.828-.219.266-.422.281-.765.313-.172.015-.188.015-.22.015-.015 0-.077.016-.077.094 0 .094.062.094.187.094z"/></symbol></defs><use y="126.695" x="223.432" xlink:href="#be" width="744.094" height="1052.362"/><use y="130.344" x="227.998" xlink:href="#bf" width="744.094" height="1052.362"/><use y="138.2" x="227.998" xlink:href="#bg" width="744.094" height="1052.362"/><use y="126.695" x="231.97" xlink:href="#bh" width="744.094" height="1052.362"/></g><g ns0:text="$\\binom{5}{4}$" ns0:preamble="/home/waldgeist/data/sphinx/inkscape-preamble.tex" transform="matrix(3 0 0 3 -330.669 332.881)"><defs><symbol overflow="visible" id="bi"><path d="M4.11 11.453c0-.031-.016-.062-.032-.094-.453-.484-1.14-1.296-1.562-2.921-.22-.907-.313-1.922-.313-2.86 0-2.625.625-4.453 1.828-5.75.078-.094.078-.11.078-.125 0-.11-.078-.11-.109-.11-.156 0-.688.61-.813.75-1.03 1.22-1.671 3-1.671 5.235 0 1.406.25 3.406 1.562 5.094.094.125.735.875.922.875.031 0 .11 0 .11-.094z"/></symbol><symbol overflow="visible" id="bl"><path d="M3.047 5.578c0-1.406-.25-3.422-1.563-5.094-.093-.125-.75-.89-.921-.89-.047 0-.125.031-.125.11 0 .03.015.062.062.093.484.516 1.125 1.328 1.531 2.922.235.906.328 1.922.328 2.86 0 1-.093 2.015-.359 3-.375 1.39-.969 2.187-1.469 2.75-.094.093-.094.108-.094.124 0 .078.079.094.126.094.14 0 .687-.594.812-.735 1.016-1.218 1.672-3 1.672-5.234z"/></symbol><symbol overflow="visible" id="bj"><path d="M1.078-3.89c.36.093.563.093.672.093.922 0 1.469-.625 1.469-.734 0-.078-.047-.094-.078-.094-.016 0-.032 0-.063.016-.172.062-.531.203-1.047.203-.203 0-.562-.016-1.015-.188-.079-.031-.094-.031-.094-.031-.094 0-.094.078-.094.188v2.046c0 .125 0 .204.11.204.062 0 .078 0 .14-.094.297-.375.734-.438.969-.438.422 0 .61.328.64.39.126.235.172.5.172.907 0 .203 0 .61-.218.922a.984.984 0 0 1-.813.422c-.453 0-.922-.25-1.094-.719.266.016.407-.156.407-.344 0-.296-.266-.343-.36-.343 0 0-.344 0-.344.375 0 .625.579 1.25 1.407 1.25.89 0 1.672-.657 1.672-1.547 0-.782-.594-1.5-1.454-1.5-.312 0-.671.062-.984.328z"/></symbol><symbol overflow="visible" id="bk"><path d="M3.688-1.14v-.25h-.782V-4.5c0-.14 0-.203-.14-.203-.094 0-.125 0-.188.11L.266-1.392v.25h2.062v.563c0 .25 0 .328-.578.328h-.188V0c.36-.016.797-.031 1.047-.031.266 0 .704.015 1.063.031v-.25h-.188c-.578 0-.578-.078-.578-.328v-.563zM2.375-3.939v2.547H.531z"/></symbol></defs><use xlink:href="#bi" x="223.432" y="126.695" width="744.094" height="1052.362"/><use xlink:href="#bj" x="227.998" y="130.344" width="744.094" height="1052.362"/><use xlink:href="#bk" x="227.998" y="138.2" width="744.094" height="1052.362"/><use xlink:href="#bl" x="231.97" y="126.695" width="744.094" height="1052.362"/></g><g transform="matrix(3 0 0 3 -263.118 332.733)" ns0:preamble="/home/waldgeist/data/sphinx/inkscape-preamble.tex" ns0:text="$\\binom{5}{5}$"><defs><symbol id="bm" overflow="visible"><path d="M4.11 11.453c0-.031-.016-.062-.032-.094-.453-.484-1.14-1.296-1.562-2.921-.22-.907-.313-1.922-.313-2.86 0-2.625.625-4.453 1.828-5.75.078-.094.078-.11.078-.125 0-.11-.078-.11-.109-.11-.156 0-.688.61-.813.75-1.03 1.22-1.671 3-1.671 5.235 0 1.406.25 3.406 1.562 5.094.094.125.735.875.922.875.031 0 .11 0 .11-.094z"/></symbol><symbol id="bo" overflow="visible"><path d="M3.047 5.578c0-1.406-.25-3.422-1.563-5.094-.093-.125-.75-.89-.921-.89-.047 0-.125.031-.125.11 0 .03.015.062.062.093.484.516 1.125 1.328 1.531 2.922.235.906.328 1.922.328 2.86 0 1-.093 2.015-.359 3-.375 1.39-.969 2.187-1.469 2.75-.094.093-.094.108-.094.124 0 .078.079.094.126.094.14 0 .687-.594.812-.735 1.016-1.218 1.672-3 1.672-5.234z"/></symbol><symbol id="bn" overflow="visible"><path d="M1.078-3.89c.36.093.563.093.672.093.922 0 1.469-.625 1.469-.734 0-.078-.047-.094-.078-.094-.016 0-.032 0-.063.016-.172.062-.531.203-1.047.203-.203 0-.562-.016-1.015-.188-.079-.031-.094-.031-.094-.031-.094 0-.094.078-.094.188v2.046c0 .125 0 .204.11.204.062 0 .078 0 .14-.094.297-.375.734-.438.969-.438.422 0 .61.328.64.39.126.235.172.5.172.907 0 .203 0 .61-.218.922a.984.984 0 0 1-.813.422c-.453 0-.922-.25-1.094-.719.266.016.407-.156.407-.344 0-.296-.266-.343-.36-.343 0 0-.344 0-.344.375 0 .625.579 1.25 1.407 1.25.89 0 1.672-.657 1.672-1.547 0-.782-.594-1.5-1.454-1.5-.312 0-.671.062-.984.328z"/></symbol></defs><use y="126.695" x="223.432" xlink:href="#bm" width="744.094" height="1052.362"/><use y="130.344" x="227.998" xlink:href="#bn" width="744.094" height="1052.362"/><use y="138.2" x="227.998" xlink:href="#bn" width="744.094" height="1052.362"/><use y="126.695" x="231.97" xlink:href="#bo" width="744.094" height="1052.362"/></g><g ns0:text="$\\binom{6}{4}$" ns0:preamble="/home/waldgeist/data/sphinx/inkscape-preamble.tex" transform="matrix(3 0 0 3 -364.444 377.826)"><defs><symbol overflow="visible" id="bp"><path d="M4.11 11.453c0-.031-.016-.062-.032-.094-.453-.484-1.14-1.296-1.562-2.921-.22-.907-.313-1.922-.313-2.86 0-2.625.625-4.453 1.828-5.75.078-.094.078-.11.078-.125 0-.11-.078-.11-.109-.11-.156 0-.688.61-.813.75-1.03 1.22-1.671 3-1.671 5.235 0 1.406.25 3.406 1.562 5.094.094.125.735.875.922.875.031 0 .11 0 .11-.094z"/></symbol><symbol overflow="visible" id="bs"><path d="M3.047 5.578c0-1.406-.25-3.422-1.563-5.094-.093-.125-.75-.89-.921-.89-.047 0-.125.031-.125.11 0 .03.015.062.062.093.484.516 1.125 1.328 1.531 2.922.235.906.328 1.922.328 2.86 0 1-.093 2.015-.359 3-.375 1.39-.969 2.187-1.469 2.75-.094.093-.094.108-.094.124 0 .078.079.094.126.094.14 0 .687-.594.812-.735 1.016-1.218 1.672-3 1.672-5.234z"/></symbol><symbol overflow="visible" id="bq"><path d="M1.047-2.281c0-.563.047-1.078.312-1.516.235-.375.61-.625 1.063-.625.203 0 .484.047.625.234-.172.016-.328.141-.328.344a.32.32 0 0 0 .328.328c.219 0 .344-.14.344-.343 0-.407-.297-.766-.985-.766-1 0-2.031.922-2.031 2.422C.375-.406 1.219.14 2 .14c.844 0 1.578-.657 1.578-1.563 0-.89-.703-1.547-1.515-1.547-.563 0-.86.375-1.016.688zM2-.078c-.36 0-.625-.203-.781-.516-.094-.203-.157-.562-.157-.969 0-.687.407-1.203.97-1.203.312 0 .53.125.702.375.172.266.172.563.172.97 0 .39 0 .687-.187.968A.815.815 0 0 1 2-.078z"/></symbol><symbol overflow="visible" id="br"><path d="M3.688-1.14v-.25h-.782V-4.5c0-.14 0-.203-.14-.203-.094 0-.125 0-.188.11L.266-1.392v.25h2.062v.563c0 .25 0 .328-.578.328h-.188V0c.36-.016.797-.031 1.047-.031.266 0 .704.015 1.063.031v-.25h-.188c-.578 0-.578-.078-.578-.328v-.563zM2.375-3.939v2.547H.531z"/></symbol></defs><use height="1052.362" width="744.094" xlink:href="#bp" x="223.432" y="126.695"/><use height="1052.362" width="744.094" xlink:href="#bq" x="227.998" y="130.344"/><use height="1052.362" width="744.094" xlink:href="#br" x="227.998" y="138.2"/><use height="1052.362" width="744.094" xlink:href="#bs" x="231.97" y="126.695"/></g><g transform="matrix(3.16844 0 0 3 -301.857 422.74)" ns0:preamble="/home/waldgeist/data/sphinx/inkscape-preamble.tex" ns0:text="$\\binom{7}{6}$"><defs><symbol id="bt" overflow="visible"><path d="M4.11 11.453c0-.031-.016-.062-.032-.094-.453-.484-1.14-1.296-1.562-2.921-.22-.907-.313-1.922-.313-2.86 0-2.625.625-4.453 1.828-5.75.078-.094.078-.11.078-.125 0-.11-.078-.11-.109-.11-.156 0-.688.61-.813.75-1.03 1.22-1.671 3-1.671 5.235 0 1.406.25 3.406 1.562 5.094.094.125.735.875.922.875.031 0 .11 0 .11-.094z"/></symbol><symbol id="bw" overflow="visible"><path d="M3.047 5.578c0-1.406-.25-3.422-1.563-5.094-.093-.125-.75-.89-.921-.89-.047 0-.125.031-.125.11 0 .03.015.062.062.093.484.516 1.125 1.328 1.531 2.922.235.906.328 1.922.328 2.86 0 1-.093 2.015-.359 3-.375 1.39-.969 2.187-1.469 2.75-.094.093-.094.108-.094.124 0 .078.079.094.126.094.14 0 .687-.594.812-.735 1.016-1.218 1.672-3 1.672-5.234z"/></symbol><symbol id="bu" overflow="visible"><path d="M3.734-4.203c.063-.094.063-.11.063-.281H1.969c-.282 0-.36-.016-.61-.032C1-4.546.984-4.594.97-4.703H.734L.484-3.22H.72c.015-.11.094-.562.203-.64.047-.032.625-.032.719-.032h1.515c-.219.282-.578.72-.719.922-.906 1.188-1 2.297-1 2.703 0 .079 0 .407.329.407.343 0 .343-.313.343-.407v-.28c0-1.345.282-1.97.579-2.345z"/></symbol><symbol id="bv" overflow="visible"><path d="M1.047-2.281c0-.563.047-1.078.312-1.516.235-.375.61-.625 1.063-.625.203 0 .484.047.625.234-.172.016-.328.141-.328.344a.32.32 0 0 0 .328.328c.219 0 .344-.14.344-.343 0-.407-.297-.766-.985-.766-1 0-2.031.922-2.031 2.422C.375-.406 1.219.14 2 .14c.844 0 1.578-.657 1.578-1.563 0-.89-.703-1.547-1.515-1.547-.563 0-.86.375-1.016.688zM2-.078c-.36 0-.625-.203-.781-.516-.094-.203-.157-.562-.157-.969 0-.687.407-1.203.97-1.203.312 0 .53.125.702.375.172.266.172.563.172.97 0 .39 0 .687-.187.968A.815.815 0 0 1 2-.078z"/></symbol></defs><use height="1052.362" width="744.094" y="126.695" x="223.432" xlink:href="#bt"/><use height="1052.362" width="744.094" y="130.344" x="227.998" xlink:href="#bu"/><use height="1052.362" width="744.094" y="138.2" x="227.998" xlink:href="#bv"/><use height="1052.362" width="744.094" y="126.695" x="231.97" xlink:href="#bw"/></g><g ns0:text="$\\binom{7}{7}$" ns0:preamble="/home/waldgeist/data/sphinx/inkscape-preamble.tex" transform="matrix(3.16844 0 0 3 -234.306 422.74)"><defs><symbol overflow="visible" id="bx"><path d="M4.11 11.453c0-.031-.016-.062-.032-.094-.453-.484-1.14-1.296-1.562-2.921-.22-.907-.313-1.922-.313-2.86 0-2.625.625-4.453 1.828-5.75.078-.094.078-.11.078-.125 0-.11-.078-.11-.109-.11-.156 0-.688.61-.813.75-1.03 1.22-1.671 3-1.671 5.235 0 1.406.25 3.406 1.562 5.094.094.125.735.875.922.875.031 0 .11 0 .11-.094z"/></symbol><symbol overflow="visible" id="bz"><path d="M3.047 5.578c0-1.406-.25-3.422-1.563-5.094-.093-.125-.75-.89-.921-.89-.047 0-.125.031-.125.11 0 .03.015.062.062.093.484.516 1.125 1.328 1.531 2.922.235.906.328 1.922.328 2.86 0 1-.093 2.015-.359 3-.375 1.39-.969 2.187-1.469 2.75-.094.093-.094.108-.094.124 0 .078.079.094.126.094.14 0 .687-.594.812-.735 1.016-1.218 1.672-3 1.672-5.234z"/></symbol><symbol overflow="visible" id="by"><path d="M3.734-4.203c.063-.094.063-.11.063-.281H1.969c-.282 0-.36-.016-.61-.032C1-4.546.984-4.594.97-4.703H.734L.484-3.22H.72c.015-.11.094-.562.203-.64.047-.032.625-.032.719-.032h1.515c-.219.282-.578.72-.719.922-.906 1.188-1 2.297-1 2.703 0 .079 0 .407.329.407.343 0 .343-.313.343-.407v-.28c0-1.345.282-1.97.579-2.345z"/></symbol></defs><use height="1052.362" width="744.094" xlink:href="#bx" x="223.432" y="126.695"/><use height="1052.362" width="744.094" xlink:href="#by" x="227.998" y="130.344"/><use height="1052.362" width="744.094" xlink:href="#by" x="227.998" y="138.2"/><use height="1052.362" width="744.094" xlink:href="#bz" x="231.97" y="126.695"/></g><g transform="matrix(3 0 0 3 -296.893 377.678)" ns0:preamble="/home/waldgeist/data/sphinx/inkscape-preamble.tex" ns0:text="$\\binom{6}{5}$"><defs><symbol id="bA" overflow="visible"><path d="M4.11 11.453c0-.031-.016-.062-.032-.094-.453-.484-1.14-1.296-1.562-2.921-.22-.907-.313-1.922-.313-2.86 0-2.625.625-4.453 1.828-5.75.078-.094.078-.11.078-.125 0-.11-.078-.11-.109-.11-.156 0-.688.61-.813.75-1.03 1.22-1.671 3-1.671 5.235 0 1.406.25 3.406 1.562 5.094.094.125.735.875.922.875.031 0 .11 0 .11-.094z"/></symbol><symbol id="bD" overflow="visible"><path d="M3.047 5.578c0-1.406-.25-3.422-1.563-5.094-.093-.125-.75-.89-.921-.89-.047 0-.125.031-.125.11 0 .03.015.062.062.093.484.516 1.125 1.328 1.531 2.922.235.906.328 1.922.328 2.86 0 1-.093 2.015-.359 3-.375 1.39-.969 2.187-1.469 2.75-.094.093-.094.108-.094.124 0 .078.079.094.126.094.14 0 .687-.594.812-.735 1.016-1.218 1.672-3 1.672-5.234z"/></symbol><symbol id="bB" overflow="visible"><path d="M1.047-2.281c0-.563.047-1.078.312-1.516.235-.375.61-.625 1.063-.625.203 0 .484.047.625.234-.172.016-.328.141-.328.344a.32.32 0 0 0 .328.328c.219 0 .344-.14.344-.343 0-.407-.297-.766-.985-.766-1 0-2.031.922-2.031 2.422C.375-.406 1.219.14 2 .14c.844 0 1.578-.657 1.578-1.563 0-.89-.703-1.547-1.515-1.547-.563 0-.86.375-1.016.688zM2-.078c-.36 0-.625-.203-.781-.516-.094-.203-.157-.562-.157-.969 0-.687.407-1.203.97-1.203.312 0 .53.125.702.375.172.266.172.563.172.97 0 .39 0 .687-.187.968A.815.815 0 0 1 2-.078z"/></symbol><symbol id="bC" overflow="visible"><path d="M1.078-3.89c.36.093.563.093.672.093.922 0 1.469-.625 1.469-.734 0-.078-.047-.094-.078-.094-.016 0-.032 0-.063.016-.172.062-.531.203-1.047.203-.203 0-.562-.016-1.015-.188-.079-.031-.094-.031-.094-.031-.094 0-.094.078-.094.188v2.046c0 .125 0 .204.11.204.062 0 .078 0 .14-.094.297-.375.734-.438.969-.438.422 0 .61.328.64.39.126.235.172.5.172.907 0 .203 0 .61-.218.922a.984.984 0 0 1-.813.422c-.453 0-.922-.25-1.094-.719.266.016.407-.156.407-.344 0-.296-.266-.343-.36-.343 0 0-.344 0-.344.375 0 .625.579 1.25 1.407 1.25.89 0 1.672-.657 1.672-1.547 0-.782-.594-1.5-1.454-1.5-.312 0-.671.062-.984.328z"/></symbol></defs><use height="1052.362" width="744.094" y="126.695" x="223.432" xlink:href="#bA"/><use height="1052.362" width="744.094" y="130.344" x="227.998" xlink:href="#bB"/><use height="1052.362" width="744.094" y="138.2" x="227.998" xlink:href="#bC"/><use height="1052.362" width="744.094" y="126.695" x="231.97" xlink:href="#bD"/></g><g ns0:text="$\\binom{6}{6}$" ns0:preamble="/home/waldgeist/data/sphinx/inkscape-preamble.tex" transform="matrix(3 0 0 3 -229.342 377.678)"><defs><symbol overflow="visible" id="bE"><path d="M4.11 11.453c0-.031-.016-.062-.032-.094-.453-.484-1.14-1.296-1.562-2.921-.22-.907-.313-1.922-.313-2.86 0-2.625.625-4.453 1.828-5.75.078-.094.078-.11.078-.125 0-.11-.078-.11-.109-.11-.156 0-.688.61-.813.75-1.03 1.22-1.671 3-1.671 5.235 0 1.406.25 3.406 1.562 5.094.094.125.735.875.922.875.031 0 .11 0 .11-.094z"/></symbol><symbol overflow="visible" id="bG"><path d="M3.047 5.578c0-1.406-.25-3.422-1.563-5.094-.093-.125-.75-.89-.921-.89-.047 0-.125.031-.125.11 0 .03.015.062.062.093.484.516 1.125 1.328 1.531 2.922.235.906.328 1.922.328 2.86 0 1-.093 2.015-.359 3-.375 1.39-.969 2.187-1.469 2.75-.094.093-.094.108-.094.124 0 .078.079.094.126.094.14 0 .687-.594.812-.735 1.016-1.218 1.672-3 1.672-5.234z"/></symbol><symbol overflow="visible" id="bF"><path d="M1.047-2.281c0-.563.047-1.078.312-1.516.235-.375.61-.625 1.063-.625.203 0 .484.047.625.234-.172.016-.328.141-.328.344a.32.32 0 0 0 .328.328c.219 0 .344-.14.344-.343 0-.407-.297-.766-.985-.766-1 0-2.031.922-2.031 2.422C.375-.406 1.219.14 2 .14c.844 0 1.578-.657 1.578-1.563 0-.89-.703-1.547-1.515-1.547-.563 0-.86.375-1.016.688zM2-.078c-.36 0-.625-.203-.781-.516-.094-.203-.157-.562-.157-.969 0-.687.407-1.203.97-1.203.312 0 .53.125.702.375.172.266.172.563.172.97 0 .39 0 .687-.187.968A.815.815 0 0 1 2-.078z"/></symbol></defs><use height="1052.362" width="744.094" xlink:href="#bE" x="223.432" y="126.695"/><use height="1052.362" width="744.094" xlink:href="#bF" x="227.998" y="130.344"/><use height="1052.362" width="744.094" xlink:href="#bF" x="227.998" y="138.2"/><use height="1052.362" width="744.094" xlink:href="#bG" x="231.97" y="126.695"/></g><g transform="matrix(3 0 0 3 153.176 423.596)" ns0:text="35" ns0:preamble="/home/waldgeist/data/sphinx/inkscape-preamble.tex"><defs><symbol overflow="visible" id="bH"><path d="M2.89-3.516c.813-.265 1.391-.953 1.391-1.75 0-.812-.875-1.375-1.828-1.375-1 0-1.765.594-1.765 1.36 0 .328.218.515.515.515.297 0 .5-.218.5-.515 0-.485-.469-.485-.61-.485.298-.5.954-.625 1.313-.625.422 0 .969.22.969 1.11 0 .125-.031.703-.281 1.14-.297.485-.64.516-.89.516a3.29 3.29 0 0 1-.392.031c-.078.016-.14.031-.14.125 0 .11.062.11.234.11h.438c.812 0 1.187.671 1.187 1.656 0 1.36-.687 1.64-1.125 1.64-.437 0-1.187-.171-1.531-.75.344.047.656-.171.656-.546a.537.537 0 0 0-.547-.563c-.25 0-.562.14-.562.578C.422-.437 1.344.22 2.437.22c1.22 0 2.126-.906 2.126-1.922 0-.813-.641-1.594-1.672-1.813z"/></symbol><symbol overflow="visible" id="bI"><path d="M4.469-2c0-1.188-.813-2.188-1.89-2.188-.47 0-.907.157-1.267.516v-1.953c.204.063.532.125.844.125 1.235 0 1.938-.906 1.938-1.031 0-.063-.032-.11-.11-.11 0 0-.03 0-.078.032a3.22 3.22 0 0 1-1.36.296c-.39 0-.858-.078-1.327-.28-.078-.032-.094-.032-.11-.032C1-6.625 1-6.547 1-6.391v2.954c0 .171 0 .25.14.25.079 0 .094-.016.141-.079.11-.156.469-.703 1.282-.703.515 0 .765.453.843.64.156.376.188.75.188 1.25 0 .36 0 .954-.25 1.376-.235.39-.61.64-1.063.64-.719 0-1.297-.53-1.469-1.109.032 0 .063.016.172.016.329 0 .5-.25.5-.485 0-.25-.171-.5-.5-.5-.14 0-.484.079-.484.532C.5-.75 1.188.219 2.297.219 3.453.219 4.469-.734 4.469-2z"/></symbol></defs><use height="1052.362" width="744.094" xlink:href="#bH" x="223.432" y="134.765"/><use height="1052.362" width="744.094" xlink:href="#bI" x="228.413" y="134.765"/></g><g transform="matrix(3 0 0 3 221.055 423.924)" ns0:preamble="/home/waldgeist/data/sphinx/inkscape-preamble.tex" ns0:text="21"><defs><symbol id="bJ" overflow="visible"><path d="M1.266-.766l1.062-1.03c1.547-1.376 2.14-1.907 2.14-2.907 0-1.14-.89-1.938-2.109-1.938C1.234-6.64.5-5.719.5-4.828c0 .547.5.547.531.547.172 0 .516-.11.516-.532a.513.513 0 0 0-.531-.515c-.079 0-.094 0-.125.016.218-.657.765-1.016 1.343-1.016.907 0 1.329.812 1.329 1.625 0 .797-.485 1.578-1.047 2.203L.609-.375C.5-.265.5-.235.5 0h3.703l.266-1.734h-.235C4.172-1.438 4.11-1 4-.844c-.063.078-.719.078-.938.078z"/></symbol><symbol id="bK" overflow="visible"><path d="M2.938-6.375c0-.25 0-.266-.235-.266C2.078-6 1.203-6 .891-6v.313c.203 0 .78 0 1.296-.266v5.172c0 .36-.03.469-.921.469H.953V0c.344-.031 1.203-.031 1.61-.031.39 0 1.265 0 1.609.031v-.313h-.313c-.906 0-.921-.109-.921-.468z"/></symbol></defs><use height="1052.362" width="744.094" y="134.765" x="223.432" xlink:href="#bJ"/><use height="1052.362" width="744.094" y="134.765" x="228.413" xlink:href="#bK"/></g><g ns0:text="7" ns0:preamble="/home/waldgeist/data/sphinx/inkscape-preamble.tex" transform="matrix(3 0 0 3 295 423.737)"><defs><symbol overflow="visible" id="bL"><path d="M4.75-6.078c.078-.11.078-.125.078-.344H2.406c-1.203 0-1.234-.125-1.265-.312H.89L.562-4.688h.25c.032-.156.11-.78.25-.906.063-.062.844-.062.97-.062h2.062c-.11.156-.89 1.25-1.11 1.578C2.078-2.734 1.75-1.344 1.75-.328c0 .094 0 .547.469.547.453 0 .453-.453.453-.547v-.516c0-.547.031-1.094.11-1.625.046-.234.171-1.094.624-1.703z"/></symbol></defs><use height="1052.362" width="744.094" xlink:href="#bL" x="223.432" y="134.765"/></g><g transform="matrix(3 0 0 3 363.044 423.924)" ns0:preamble="/home/waldgeist/data/sphinx/inkscape-preamble.tex" ns0:text="1"><defs><symbol id="bM" overflow="visible"><path d="M2.938-6.375c0-.25 0-.266-.235-.266C2.078-6 1.203-6 .891-6v.313c.203 0 .78 0 1.296-.266v5.172c0 .36-.03.469-.921.469H.953V0c.344-.031 1.203-.031 1.61-.031.39 0 1.265 0 1.609.031v-.313h-.313c-.906 0-.921-.109-.921-.468z"/></symbol></defs><use y="134.765" x="223.432" xlink:href="#bM" width="744.094" height="1052.362"/></g><g transform="matrix(3 0 0 3 18.402 423.924)" ns0:text="21" ns0:preamble="/home/waldgeist/data/sphinx/inkscape-preamble.tex"><use xlink:href="#bJ" x="223.432" y="134.765" width="744.094" height="1052.362"/><use xlink:href="#bK" x="228.413" y="134.765" width="744.094" height="1052.362"/></g><use y="134.765" x="223.432" xlink:href="#bL" width="744.094" height="1052.362" transform="matrix(3 0 0 3 -42.755 423.737)" ns0:preamble="/home/waldgeist/data/sphinx/inkscape-preamble.tex" ns0:text="7"/><use xlink:href="#bM" x="223.432" y="134.765" width="744.094" height="1052.362" transform="matrix(3 0 0 3 -109.814 423.924)" ns0:text="1" ns0:preamble="/home/waldgeist/data/sphinx/inkscape-preamble.tex"/><g transform="matrix(3 0 0 3 85.625 423.596)" ns0:preamble="/home/waldgeist/data/sphinx/inkscape-preamble.tex" ns0:text="35"><use y="134.765" x="223.432" xlink:href="#bH" width="744.094" height="1052.362"/><use y="134.765" x="228.413" xlink:href="#bI" width="744.094" height="1052.362"/></g><use height="1052.362" width="744.094" y="134.765" x="223.432" xlink:href="#bM" transform="matrix(3 0 0 3 -76.038 378.98)" ns0:preamble="/home/waldgeist/data/sphinx/inkscape-preamble.tex" ns0:text="1"/><use xlink:href="#bM" x="223.432" y="134.765" width="744.094" height="1052.362" transform="matrix(3 0 0 3 329.268 378.98)" ns0:text="1" ns0:preamble="/home/waldgeist/data/sphinx/inkscape-preamble.tex"/><g ns0:text="6" ns0:preamble="/home/waldgeist/data/sphinx/inkscape-preamble.tex" transform="matrix(3 0 0 3 -8.37 378.651)"><defs><symbol overflow="visible" id="bN"><path d="M1.313-3.266v-.25c0-2.515 1.234-2.875 1.75-2.875.234 0 .656.063.874.407-.156 0-.546 0-.546.437 0 .313.234.469.453.469.156 0 .469-.094.469-.484 0-.594-.438-1.079-1.266-1.079C1.766-6.64.422-5.359.422-3.156.422-.484 1.578.219 2.5.219c1.11 0 2.063-.938 2.063-2.25 0-1.266-.891-2.219-2-2.219-.672 0-1.047.5-1.25.984zM2.5-.062c-.625 0-.922-.594-.984-.75-.188-.47-.188-1.266-.188-1.438 0-.781.328-1.781 1.219-1.781.172 0 .625 0 .937.625.172.36.172.875.172 1.36 0 .483 0 .983-.172 1.343-.296.594-.75.64-.984.64z"/></symbol></defs><use height="1052.362" width="744.094" xlink:href="#bN" x="223.432" y="134.765"/></g><use height="1052.362" width="744.094" y="134.765" x="223.432" xlink:href="#bN" transform="matrix(3 0 0 3 261.834 378.651)" ns0:preamble="/home/waldgeist/data/sphinx/inkscape-preamble.tex" ns0:text="6"/><g transform="matrix(3.24482 0 0 3 -4.82 378.651)" ns0:preamble="/home/waldgeist/data/sphinx/inkscape-preamble.tex" ns0:text="15"><defs><symbol id="bO" overflow="visible"><path d="M2.938-6.375c0-.25 0-.266-.235-.266C2.078-6 1.203-6 .891-6v.313c.203 0 .78 0 1.296-.266v5.172c0 .36-.03.469-.921.469H.953V0c.344-.031 1.203-.031 1.61-.031.39 0 1.265 0 1.609.031v-.313h-.313c-.906 0-.921-.109-.921-.468z"/></symbol><symbol id="bP" overflow="visible"><path d="M4.469-2c0-1.188-.813-2.188-1.89-2.188-.47 0-.907.157-1.267.516v-1.953c.204.063.532.125.844.125 1.235 0 1.938-.906 1.938-1.031 0-.063-.032-.11-.11-.11 0 0-.03 0-.078.032a3.22 3.22 0 0 1-1.36.296c-.39 0-.858-.078-1.327-.28-.078-.032-.094-.032-.11-.032C1-6.625 1-6.547 1-6.391v2.954c0 .171 0 .25.14.25.079 0 .094-.016.141-.079.11-.156.469-.703 1.282-.703.515 0 .765.453.843.64.156.376.188.75.188 1.25 0 .36 0 .954-.25 1.376-.235.39-.61.64-1.063.64-.719 0-1.297-.53-1.469-1.109.032 0 .063.016.172.016.329 0 .5-.25.5-.485 0-.25-.171-.5-.5-.5-.14 0-.484.079-.484.532C.5-.75 1.188.219 2.297.219 3.453.219 4.469-.734 4.469-2z"/></symbol></defs><use height="1052.362" width="744.094" y="134.765" x="223.432" xlink:href="#bO"/><use height="1052.362" width="744.094" y="134.765" x="228.413" xlink:href="#bP"/></g><g transform="matrix(3.24482 0 0 3 130.282 378.651)" ns0:text="15" ns0:preamble="/home/waldgeist/data/sphinx/inkscape-preamble.tex"><use xlink:href="#bO" x="223.432" y="134.765" width="744.094" height="1052.362"/><use xlink:href="#bP" x="228.413" y="134.765" width="744.094" height="1052.362"/></g><g ns0:text="20" ns0:preamble="/home/waldgeist/data/sphinx/inkscape-preamble.tex" transform="matrix(3.24482 0 0 3 63.188 378.651)"><defs><symbol overflow="visible" id="bQ"><path d="M1.266-.766l1.062-1.03c1.547-1.376 2.14-1.907 2.14-2.907 0-1.14-.89-1.938-2.109-1.938C1.234-6.64.5-5.719.5-4.828c0 .547.5.547.531.547.172 0 .516-.11.516-.532a.513.513 0 0 0-.531-.515c-.079 0-.094 0-.125.016.218-.657.765-1.016 1.343-1.016.907 0 1.329.812 1.329 1.625 0 .797-.485 1.578-1.047 2.203L.609-.375C.5-.265.5-.235.5 0h3.703l.266-1.734h-.235C4.172-1.438 4.11-1 4-.844c-.063.078-.719.078-.938.078z"/></symbol><symbol overflow="visible" id="bR"><path d="M4.578-3.188c0-.796-.047-1.593-.39-2.328C3.733-6.484 2.905-6.64 2.5-6.64c-.61 0-1.328.266-1.75 1.188-.313.687-.36 1.469-.36 2.266 0 .75.032 1.64.454 2.406a1.83 1.83 0 0 0 1.64 1c.532 0 1.297-.203 1.735-1.157.312-.687.36-1.468.36-2.25zM2.484 0c-.39 0-.984-.25-1.156-1.203-.11-.594-.11-1.516-.11-2.11 0-.64 0-1.296.079-1.828.187-1.187.937-1.28 1.187-1.28.329 0 .985.187 1.172 1.171.11.563.11 1.313.11 1.938 0 .75 0 1.421-.11 2.062C3.5-.297 2.937 0 2.484 0z"/></symbol></defs><use height="1052.362" width="744.094" xlink:href="#bQ" x="223.432" y="134.765"/><use height="1052.362" width="744.094" xlink:href="#bR" x="228.413" y="134.765"/></g><use height="1052.362" width="744.094" y="134.765" x="223.432" xlink:href="#bM" transform="matrix(3 0 0 3 295.493 334.035)" ns0:preamble="/home/waldgeist/data/sphinx/inkscape-preamble.tex" ns0:text="1"/><use xlink:href="#bM" x="223.432" y="134.765" width="744.094" height="1052.362" transform="matrix(3 0 0 3 -42.263 334.035)" ns0:text="1" ns0:preamble="/home/waldgeist/data/sphinx/inkscape-preamble.tex"/><g transform="matrix(3 0 0 3 25.43 333.707)" ns0:preamble="/home/waldgeist/data/sphinx/inkscape-preamble.tex" ns0:text="5"><defs><symbol id="bS" overflow="visible"><path d="M4.469-2c0-1.188-.813-2.188-1.89-2.188-.47 0-.907.157-1.267.516v-1.953c.204.063.532.125.844.125 1.235 0 1.938-.906 1.938-1.031 0-.063-.032-.11-.11-.11 0 0-.03 0-.078.032a3.22 3.22 0 0 1-1.36.296c-.39 0-.858-.078-1.327-.28-.078-.032-.094-.032-.11-.032C1-6.625 1-6.547 1-6.391v2.954c0 .171 0 .25.14.25.079 0 .094-.016.141-.079.11-.156.469-.703 1.282-.703.515 0 .765.453.843.64.156.376.188.75.188 1.25 0 .36 0 .954-.25 1.376-.235.39-.61.64-1.063.64-.719 0-1.297-.53-1.469-1.109.032 0 .063.016.172.016.329 0 .5-.25.5-.485 0-.25-.171-.5-.5-.5-.14 0-.484.079-.484.532C.5-.75 1.188.219 2.297.219 3.453.219 4.469-.734 4.469-2z"/></symbol></defs><use y="134.765" x="223.432" xlink:href="#bS" width="744.094" height="1052.362"/></g><use xlink:href="#bS" x="223.432" y="134.765" width="744.094" height="1052.362" transform="matrix(3 0 0 3 228.082 333.707)" ns0:text="5" ns0:preamble="/home/waldgeist/data/sphinx/inkscape-preamble.tex"/><g ns0:text="10" ns0:preamble="/home/waldgeist/data/sphinx/inkscape-preamble.tex" transform="matrix(3 0 0 3 152.31 333.707)"><defs><symbol overflow="visible" id="bT"><path d="M2.938-6.375c0-.25 0-.266-.235-.266C2.078-6 1.203-6 .891-6v.313c.203 0 .78 0 1.296-.266v5.172c0 .36-.03.469-.921.469H.953V0c.344-.031 1.203-.031 1.61-.031.39 0 1.265 0 1.609.031v-.313h-.313c-.906 0-.921-.109-.921-.468z"/></symbol><symbol overflow="visible" id="bU"><path d="M4.578-3.188c0-.796-.047-1.593-.39-2.328C3.733-6.484 2.905-6.64 2.5-6.64c-.61 0-1.328.266-1.75 1.188-.313.687-.36 1.469-.36 2.266 0 .75.032 1.64.454 2.406a1.83 1.83 0 0 0 1.64 1c.532 0 1.297-.203 1.735-1.157.312-.687.36-1.468.36-2.25zM2.484 0c-.39 0-.984-.25-1.156-1.203-.11-.594-.11-1.516-.11-2.11 0-.64 0-1.296.079-1.828.187-1.187.937-1.28 1.187-1.28.329 0 .985.187 1.172 1.171.11.563.11 1.313.11 1.938 0 .75 0 1.421-.11 2.062C3.5-.297 2.937 0 2.484 0z"/></symbol></defs><use xlink:href="#bT" x="223.432" y="134.765" width="744.094" height="1052.362"/><use xlink:href="#bU" x="228.413" y="134.765" width="744.094" height="1052.362"/></g><g transform="matrix(3 0 0 3 84.758 333.707)" ns0:preamble="/home/waldgeist/data/sphinx/inkscape-preamble.tex" ns0:text="10"><use height="1052.362" width="744.094" y="134.765" x="223.432" xlink:href="#bT"/><use height="1052.362" width="744.094" y="134.765" x="228.413" xlink:href="#bU"/></g><g transform="matrix(3 0 0 3 59.205 289.254)" ns0:preamble="/home/waldgeist/data/sphinx/inkscape-preamble.tex" ns0:text="4"><defs><symbol id="bV" overflow="visible"><path d="M2.938-1.64v.859c0 .36-.032.469-.766.469h-.203V0c.406-.031.922-.031 1.343-.031.422 0 .938 0 1.36.031v-.313h-.219c-.734 0-.75-.109-.75-.468v-.86h.985v-.312h-.985v-4.531c0-.204 0-.266-.172-.266-.078 0-.11 0-.187.125L.28-1.953v.312zm.046-.313H.563l2.421-3.719z"/></symbol></defs><use y="134.765" x="223.432" xlink:href="#bV" width="744.094" height="1052.362"/></g><use height="1052.362" width="744.094" y="134.765" x="223.432" xlink:href="#bM" transform="matrix(3 0 0 3 -8.487 289.09)" ns0:preamble="/home/waldgeist/data/sphinx/inkscape-preamble.tex" ns0:text="1"/><use xlink:href="#bM" x="223.432" y="134.765" width="744.094" height="1052.362" transform="matrix(3 0 0 3 261.717 289.09)" ns0:text="1" ns0:preamble="/home/waldgeist/data/sphinx/inkscape-preamble.tex"/><use xlink:href="#bV" x="223.432" y="134.765" width="744.094" height="1052.362" transform="matrix(3 0 0 3 194.307 289.254)" ns0:text="4" ns0:preamble="/home/waldgeist/data/sphinx/inkscape-preamble.tex"/><use y="134.765" x="223.432" xlink:href="#bN" width="744.094" height="1052.362" transform="matrix(3 0 0 3 126.732 288.762)" ns0:preamble="/home/waldgeist/data/sphinx/inkscape-preamble.tex" ns0:text="6"/><use xlink:href="#bM" x="223.432" y="134.765" width="744.094" height="1052.362" transform="matrix(3 0 0 3 25.288 244.145)" ns0:text="1" ns0:preamble="/home/waldgeist/data/sphinx/inkscape-preamble.tex"/><use height="1052.362" width="744.094" y="134.765" x="223.432" xlink:href="#bM" transform="matrix(3 0 0 3 227.941 244.145)" ns0:preamble="/home/waldgeist/data/sphinx/inkscape-preamble.tex" ns0:text="1"/><g ns0:text="3" ns0:preamble="/home/waldgeist/data/sphinx/inkscape-preamble.tex" transform="matrix(3.0627 0 0 3 78.791 243.817)"><defs><symbol overflow="visible" id="bW"><path d="M2.89-3.516c.813-.265 1.391-.953 1.391-1.75 0-.812-.875-1.375-1.828-1.375-1 0-1.765.594-1.765 1.36 0 .328.218.515.515.515.297 0 .5-.218.5-.515 0-.485-.469-.485-.61-.485.298-.5.954-.625 1.313-.625.422 0 .969.22.969 1.11 0 .125-.031.703-.281 1.14-.297.485-.64.516-.89.516a3.29 3.29 0 0 1-.392.031c-.078.016-.14.031-.14.125 0 .11.062.11.234.11h.438c.812 0 1.187.671 1.187 1.656 0 1.36-.687 1.64-1.125 1.64-.437 0-1.187-.171-1.531-.75.344.047.656-.171.656-.546a.537.537 0 0 0-.547-.563c-.25 0-.562.14-.562.578C.422-.437 1.344.22 2.437.22c1.22 0 2.126-.906 2.126-1.922 0-.813-.641-1.594-1.672-1.813z"/></symbol></defs><use xlink:href="#bW" x="223.432" y="134.765" width="744.094" height="1052.362"/></g><use height="1052.362" width="744.094" y="134.765" x="223.432" xlink:href="#bW" transform="matrix(3.0627 0 0 3 146.342 243.817)" ns0:preamble="/home/waldgeist/data/sphinx/inkscape-preamble.tex" ns0:text="3"/><g transform="matrix(3.0627 0 0 3 112.59 199.2)" ns0:preamble="/home/waldgeist/data/sphinx/inkscape-preamble.tex" ns0:text="2"><defs><symbol id="bX" overflow="visible"><path d="M1.266-.766l1.062-1.03c1.547-1.376 2.14-1.907 2.14-2.907 0-1.14-.89-1.938-2.109-1.938C1.234-6.64.5-5.719.5-4.828c0 .547.5.547.531.547.172 0 .516-.11.516-.532a.513.513 0 0 0-.531-.515c-.079 0-.094 0-.125.016.218-.657.765-1.016 1.343-1.016.907 0 1.329.812 1.329 1.625 0 .797-.485 1.578-1.047 2.203L.609-.375C.5-.265.5-.235.5 0h3.703l.266-1.734h-.235C4.172-1.438 4.11-1 4-.844c-.063.078-.719.078-.938.078z"/></symbol></defs><use y="134.765" x="223.432" xlink:href="#bX" width="744.094" height="1052.362"/></g><use height="1052.362" width="744.094" y="134.765" x="223.432" xlink:href="#bM" transform="matrix(3 0 0 3 59.064 199.2)" ns0:preamble="/home/waldgeist/data/sphinx/inkscape-preamble.tex" ns0:text="1"/><use xlink:href="#bM" x="223.432" y="134.765" width="744.094" height="1052.362" transform="matrix(3 0 0 3 194.166 199.2)" ns0:text="1" ns0:preamble="/home/waldgeist/data/sphinx/inkscape-preamble.tex"/><use height="1052.362" width="744.094" y="134.765" x="223.432" xlink:href="#bM" transform="matrix(3 0 0 3 92.84 154.255)" ns0:preamble="/home/waldgeist/data/sphinx/inkscape-preamble.tex" ns0:text="1"/><use xlink:href="#bM" x="223.432" y="134.765" width="744.094" height="1052.362" transform="matrix(3 0 0 3 160.39 154.255)" ns0:text="1" ns0:preamble="/home/waldgeist/data/sphinx/inkscape-preamble.tex"/><use xlink:href="#bM" x="223.432" y="134.765" width="744.094" height="1052.362" transform="matrix(3 0 0 3 126.615 109.31)"/><g ns0:text="$\\ldots$" ns0:preamble="/home/waldgeist/data/sphinx/inkscape-preamble.tex" transform="matrix(3.24482 0 0 3 60.658 462.651)"><defs><symbol overflow="visible" id="bY"><path d="M1.906-.531a.534.534 0 0 0-.515-.531.537.537 0 0 0-.532.53.524.524 0 1 0 1.047 0z"/></symbol></defs><use height="1052.362" width="744.094" xlink:href="#bY" x="223.432" y="134.765"/><use height="1052.362" width="744.094" xlink:href="#bY" x="227.863" y="134.765"/><use height="1052.362" width="744.094" xlink:href="#bY" x="232.285" y="134.765"/></g><g transform="matrix(8.11205 0 0 7.5 -1312.486 -330.86)" ns0:preamble="/home/waldgeist/data/sphinx/inkscape-preamble.tex" ns0:text="$=$"><defs><symbol id="bZ" overflow="visible"><path d="M6.844-3.266c.156 0 .343 0 .343-.187 0-.203-.187-.203-.328-.203H.891c-.141 0-.329 0-.329.203 0 .187.188.187.329.187zm.015 1.938c.141 0 .329 0 .329-.203 0-.188-.188-.188-.344-.188H.89c-.141 0-.329 0-.329.188 0 .203.188.203.329.203z"/></symbol></defs><use y="134.765" x="223.432" xlink:href="#bZ" width="1052.362" height="744.094"/></g></g></svg>