<svg xmlns:ns0="http://www.iki.fi/pav/software/textext/" xmlns="http://www.w3.org/2000/svg" xmlns:xlink="http://www.w3.org/1999/xlink" width="744.094" height="1052.362"><title>Abstand Punkt-Gerade</title><use transform="translate(-690.002 115.427) scale(3.49978)" height="1052.362" width="744.094" xlink:href="#textext-28c1ecfe-0" x="223.432" y="134.765"/><use transform="translate(-200.574 -112.91) scale(3.49978)" height="1052.362" width="744.094" xlink:href="#textext-28c1ecfe-0" x="223.432" y="134.765"/><use transform="translate(-200.574 -112.91) scale(3.49978)" height="1052.362" width="744.094" xlink:href="#textext-28c1ecfe-0" x="223.432" y="134.765"/><path fill="#fff" stroke="#fff" stroke-width="3" stroke-linecap="square" d="M59.322 388.392h625.45V663.97H59.322z"/><g stroke="#4d4d4d" color="#000" stroke-linecap="round"><path style="marker:none" d="M293.505 549.228c14.21-3.807 28.817 4.626 32.625 18.836" fill="#fff" stroke-width="3" overflow="visible"/><path style="marker:none" d="M309.49 561.618a1.717 1.717 0 1 1-3.317-.889 1.717 1.717 0 0 1 3.317.889z" fill="#4d4d4d" stroke-width="1" overflow="visible"/></g><path d="M300.4 574.959l-30.546-113.997" fill="none" stroke="#000" stroke-width="3" stroke-linecap="round"/><path d="M224.436 595.383l45.418-134.42" fill="none" stroke="#b3b3b3" stroke-width="3" stroke-linecap="round" stroke-dasharray="3,5.99999998"/><path d="M357.826 559.641l-87.972-98.679" fill="none" stroke="#b3b3b3" stroke-width="3" stroke-linecap="round" stroke-dasharray="3.00000004,6.0000001"/><path d="M550.937 507.897l-281.185-47.712" fill="none" stroke="#b3b3b3" stroke-width="3" stroke-linecap="round" stroke-dasharray="3.00000024,6.00000049"/><path d="M448.678 535.297l-178.824-74.335" fill="none" stroke="#b3b3b3" stroke-width="3" stroke-linecap="round" stroke-dasharray="3.0000001,6.00000022"/><path d="M159.948 612.662L584.147 499" fill="none" stroke="#000" stroke-width="3" stroke-linecap="round"/><g transform="translate(-373.193 140.698) scale(3.26815)" ns0:preamble="/home/waldgeist/data/sphinx/inkscape-preamble.tex" ns0:text="$g _{\\rm{}}$"><defs><symbol id="a" overflow="visible"><path d="M4.688-3.766a.562.562 0 0 0 .03-.171c0-.172-.109-.266-.28-.266-.094 0-.375.062-.407.422-.187-.36-.531-.625-.937-.625-1.125 0-2.36 1.39-2.36 2.828C.734-.594 1.328 0 2.047 0c.594 0 1.062-.469 1.156-.578l.016.015C3.016.313 2.89.734 2.89.75c-.047.094-.375 1.078-1.438 1.078a2.68 2.68 0 0 1-.797-.11.542.542 0 0 0 .406-.515C1.063 1.047.954.86.688.86a.546.546 0 0 0-.53.579c0 .406.359.609 1.312.609 1.25 0 1.968-.781 2.125-1.375zM3.405-1.28c-.062.265-.297.515-.515.703-.204.172-.516.36-.813.36-.5 0-.64-.516-.64-.923 0-.468.28-1.656.562-2.156.266-.484.688-.89 1.11-.89.656 0 .796.812.796.859 0 .047-.015.11-.031.14z"/></symbol></defs><use y="134.765" x="223.432" xlink:href="#a" width="744.094" height="1052.362"/></g><g stroke="#000" stroke-width="1.62" stroke-linecap="round"><path d="M248.028 289.417l5.169 8.951M253.197 289.417l-5.169 8.951" transform="matrix(1.83354 0 0 1.8711 -189.652 -88.942)"/></g><g transform="matrix(3.37375 0 0 3.37375 -511.718 1.699)" ns0:preamble="/home/waldgeist/data/sphinx/inkscape-preamble.tex" ns0:text="$\\rm{P}$" stroke="#000"><defs><symbol id="b" overflow="visible"><path d="M2.266-3.156h1.687c1.188 0 2.266-.797 2.266-1.797 0-.984-.985-1.86-2.344-1.86H.344v.313h.25c.765 0 .781.11.781.469v5.25c0 .36-.016.469-.781.469h-.25V0c.36-.031 1.094-.031 1.469-.031s1.125 0 1.484.031v-.313h-.25c-.766 0-.781-.109-.781-.468zm-.032-.25v-2.688c0-.343.016-.406.485-.406h.89c1.579 0 1.579 1.063 1.579 1.547 0 .469 0 1.547-1.579 1.547z" stroke="none"/></symbol></defs><use y="134.765" x="223.432" xlink:href="#b" width="744.094" height="1052.362"/></g><g transform="translate(-467.207 91.808) scale(3.26815)" ns0:preamble="/home/waldgeist/data/sphinx/inkscape-preamble.tex" ns0:text="$a$" stroke="#666" stroke-width="1.822"><defs><symbol id="c" overflow="visible"><path d="M3.719-3.766c-.188-.375-.469-.64-.922-.64-1.156 0-2.39 1.468-2.39 2.922C.406-.547.952.109 1.718.109c.203 0 .703-.046 1.297-.75a.91.91 0 0 0 .906.75c.36 0 .578-.234.75-.546a6.49 6.49 0 0 0 .297-.985c0-.11-.094-.11-.125-.11-.094 0-.11.048-.14.188-.173.64-.345 1.235-.75 1.235-.282 0-.298-.266-.298-.454 0-.218.016-.312.125-.75.11-.406.125-.515.219-.89l.36-1.39c.062-.282.062-.298.062-.345 0-.171-.11-.265-.281-.265-.25 0-.391.219-.422.437zm-.64 2.579c-.063.187-.063.203-.204.375-.438.546-.844.703-1.125.703-.5 0-.64-.547-.64-.938 0-.5.312-1.719.546-2.187.313-.579.75-.954 1.157-.954.64 0 .78.813.78.875a.562.562 0 0 1-.03.172z" stroke="none"/></symbol></defs><use y="134.765" x="223.432" xlink:href="#c" width="744.094" height="1052.362"/></g></svg>