<svg xmlns:ns0="http://www.iki.fi/pav/software/textext/" xmlns="http://www.w3.org/2000/svg" xmlns:xlink="http://www.w3.org/1999/xlink" width="744.094" height="1052.362"><title>Abstand paralleler Geraden</title><use y="134.765" x="223.432" xlink:href="#textext-28c1ecfe-0" width="744.094" height="1052.362" transform="translate(-690.002 115.427) scale(3.49978)"/><use y="134.765" x="223.432" xlink:href="#textext-28c1ecfe-0" width="744.094" height="1052.362" transform="translate(-200.574 -112.91) scale(3.49978)"/><use y="134.765" x="223.432" xlink:href="#textext-28c1ecfe-0" width="744.094" height="1052.362" transform="translate(-200.574 -112.91) scale(3.49978)"/><path fill="#fff" stroke="#fff" stroke-width="3" stroke-linecap="square" d="M59.322 385.535h625.45v281.293H59.322z"/><g transform="translate(-417.92 185.904) scale(3.26815)" ns0:preamble="/home/waldgeist/data/sphinx/inkscape-preamble.tex" ns0:text="$g _{\\rm{1}}$"><defs><symbol id="a" overflow="visible"><path d="M4.688-3.766a.562.562 0 0 0 .03-.171c0-.172-.109-.266-.28-.266-.094 0-.375.062-.407.422-.187-.36-.531-.625-.937-.625-1.125 0-2.36 1.39-2.36 2.828C.734-.594 1.328 0 2.047 0c.594 0 1.062-.469 1.156-.578l.016.015C3.016.313 2.89.734 2.89.75c-.047.094-.375 1.078-1.438 1.078a2.68 2.68 0 0 1-.797-.11.542.542 0 0 0 .406-.515C1.063 1.047.954.86.688.86a.546.546 0 0 0-.53.579c0 .406.359.609 1.312.609 1.25 0 1.968-.781 2.125-1.375zM3.405-1.28c-.062.265-.297.515-.515.703-.204.172-.516.36-.813.36-.5 0-.64-.516-.64-.923 0-.468.28-1.656.562-2.156.266-.484.688-.89 1.11-.89.656 0 .796.812.796.859 0 .047-.015.11-.031.14z"/></symbol><symbol id="b" overflow="visible"><path d="M2.328-4.438c0-.187 0-.187-.203-.187-.453.438-1.078.438-1.36.438v.25c.157 0 .626 0 1-.188v3.547c0 .234 0 .328-.687.328H.812V0c.125 0 .985-.031 1.235-.031.219 0 1.094.031 1.25.031v-.25H3.03c-.703 0-.703-.094-.703-.328z"/></symbol></defs><use y="134.765" x="223.432" xlink:href="#a" width="744.094" height="1052.362"/><use y="136.259" x="228.184" xlink:href="#b" width="744.094" height="1052.362"/></g><g stroke="#b3b3b3" color="#000" stroke-linecap="round"><path d="M229.483 597.894c14.21-3.808 28.817 4.626 32.624 18.836" style="marker:none" fill="#fff" stroke-width="3" overflow="visible"/><path d="M245.468 610.284a1.717 1.717 0 1 1-3.318-.89 1.717 1.717 0 0 1 3.318.89z" style="marker:none" fill="gray" stroke-width="1" overflow="visible"/></g><g stroke="#b3b3b3" color="#000" stroke-linecap="round"><path style="marker:none" d="M231.562 502.733c3.808 14.21-4.625 28.817-18.836 32.625" fill="#fff" stroke-width="3" overflow="visible"/><path style="marker:none" d="M219.172 518.719a1.717 1.717 0 1 1 .89-3.318 1.717 1.717 0 0 1-.89 3.318z" fill="gray" stroke-width="1" overflow="visible"/></g><path d="M236.377 623.624l-30.545-113.996" fill="none" stroke="#000" stroke-width="3" stroke-linecap="round"/><g ns0:text="$g _{\\rm{2}}$" ns0:preamble="/home/waldgeist/data/sphinx/inkscape-preamble.tex" transform="translate(-460.84 28.76) scale(3.26815)"><defs><symbol overflow="visible" id="c"><path d="M4.688-3.766a.562.562 0 0 0 .03-.171c0-.172-.109-.266-.28-.266-.094 0-.375.062-.407.422-.187-.36-.531-.625-.937-.625-1.125 0-2.36 1.39-2.36 2.828C.734-.594 1.328 0 2.047 0c.594 0 1.062-.469 1.156-.578l.016.015C3.016.313 2.89.734 2.89.75c-.047.094-.375 1.078-1.438 1.078a2.68 2.68 0 0 1-.797-.11.542.542 0 0 0 .406-.515C1.063 1.047.954.86.688.86a.546.546 0 0 0-.53.579c0 .406.359.609 1.312.609 1.25 0 1.968-.781 2.125-1.375zM3.405-1.28c-.062.265-.297.515-.515.703-.204.172-.516.36-.813.36-.5 0-.64-.516-.64-.923 0-.468.28-1.656.562-2.156.266-.484.688-.89 1.11-.89.656 0 .796.812.796.859 0 .047-.015.11-.031.14z"/></symbol><symbol overflow="visible" id="d"><path d="M3.516-1.266H3.28c-.015.157-.094.563-.187.625-.047.047-.578.047-.688.047H1.125c.734-.64.984-.844 1.39-1.172.516-.406 1-.843 1-1.5 0-.843-.734-1.359-1.624-1.359-.86 0-1.454.61-1.454 1.25 0 .344.297.39.376.39.156 0 .359-.124.359-.374 0-.125-.047-.375-.406-.375.218-.485.687-.641 1.015-.641.703 0 1.063.547 1.063 1.11 0 .609-.438 1.078-.656 1.328L.516-.266C.437-.203.437-.187.437 0h2.876z"/></symbol></defs><use height="1052.362" width="744.094" xlink:href="#c" x="223.432" y="134.765"/><use height="1052.362" width="744.094" xlink:href="#d" x="228.184" y="136.259"/></g><g stroke="#b3b3b3" color="#000" stroke-linecap="round"><path style="marker:none" d="M380.425 557.45c14.21-3.809 28.817 4.625 32.625 18.835" fill="#fff" stroke-width="3" overflow="visible"/><path style="marker:none" d="M396.41 569.839a1.717 1.717 0 1 1-3.317-.89 1.717 1.717 0 0 1 3.318.89z" fill="gray" stroke-width="1" overflow="visible"/></g><g stroke="#b3b3b3" color="#000" stroke-linecap="round"><path d="M382.505 462.288c3.808 14.21-4.626 28.817-18.836 32.625" style="marker:none" fill="#fff" stroke-width="3" overflow="visible"/><path d="M370.115 478.274a1.717 1.717 0 1 1 .89-3.318 1.717 1.717 0 0 1-.89 3.318z" style="marker:none" fill="gray" stroke-width="1" overflow="visible"/></g><path d="M387.32 583.18l-30.545-113.997" fill="none" stroke="#666" stroke-width="3" stroke-linecap="round"/><g stroke="#b3b3b3" color="#000" stroke-linecap="round"><path d="M531.368 517.004c14.21-3.808 28.817 4.626 32.625 18.836" style="marker:none" fill="#fff" stroke-width="3" overflow="visible"/><path d="M547.354 529.394a1.717 1.717 0 1 1-3.318-.89 1.717 1.717 0 0 1 3.318.89z" style="marker:none" fill="gray" stroke-width="1" overflow="visible"/></g><g stroke="#b3b3b3" color="#000" stroke-linecap="round"><path style="marker:none" d="M533.448 421.843c3.807 14.21-4.626 28.817-18.836 32.625" fill="#fff" stroke-width="3" overflow="visible"/><path style="marker:none" d="M521.058 437.828a1.717 1.717 0 1 1 .89-3.317 1.717 1.717 0 0 1-.89 3.317z" fill="gray" stroke-width="1" overflow="visible"/></g><path d="M538.263 542.734l-30.545-113.996" fill="none" stroke="#666" stroke-width="3" stroke-linecap="round"/><g transform="translate(-536.525 142.438) scale(3.26815)" ns0:preamble="/home/waldgeist/data/sphinx/inkscape-preamble.tex" ns0:text="$a$" stroke="#666" stroke-width="1.822"><defs><symbol id="e" overflow="visible"><path d="M3.719-3.766c-.188-.375-.469-.64-.922-.64-1.156 0-2.39 1.468-2.39 2.922C.406-.547.952.109 1.718.109c.203 0 .703-.046 1.297-.75a.91.91 0 0 0 .906.75c.36 0 .578-.234.75-.546a6.49 6.49 0 0 0 .297-.985c0-.11-.094-.11-.125-.11-.094 0-.11.048-.14.188-.173.64-.345 1.235-.75 1.235-.282 0-.298-.266-.298-.454 0-.218.016-.312.125-.75.11-.406.125-.515.219-.89l.36-1.39c.062-.282.062-.298.062-.345 0-.171-.11-.265-.281-.265-.25 0-.391.219-.422.437zm-.64 2.579c-.063.187-.063.203-.204.375-.438.546-.844.703-1.125.703-.5 0-.64-.547-.64-.938 0-.5.312-1.719.546-2.187.313-.579.75-.954 1.157-.954.64 0 .78.813.78.875a.562.562 0 0 1-.03.172z" stroke="none"/></symbol></defs><use y="134.765" x="223.432" xlink:href="#e" width="744.094" height="1052.362"/></g><path d="M144.675 526.015L568.874 412.35M175.22 640.011l424.2-113.663" fill="none" stroke="#000" stroke-width="3" stroke-linecap="round"/></svg>