<svg xmlns:ns0="http://www.iki.fi/pav/software/textext/" xmlns="http://www.w3.org/2000/svg" xmlns:xlink="http://www.w3.org/1999/xlink" viewBox="0 0 744.09448 1052.3622" height="1122.52" width="793.701"><title>Das Drachenviereck</title><path fill="#fff" stroke="#fff" stroke-width="3" stroke-linecap="square" d="M59.223 288.238h625.649v475.886H59.223z"/><path d="M223.419 486.28l148.637-148.637 148.637 148.638-148.637 225.547z" fill="#f9f9f9" stroke="#000" stroke-width="3" stroke-linecap="square"/><path d="M471.275 602.162c-.873-1.747-2.184-2.984-4.295-2.984-5.387 0-11.138 6.843-11.138 13.613 0 4.368 2.548 7.425 6.115 7.425.946 0 3.276-.218 6.042-3.494a4.244 4.244 0 0 0 4.223 3.494c1.674 0 2.693-1.092 3.494-2.548.728-1.674 1.383-4.513 1.383-4.586 0-.51-.437-.51-.582-.51-.437 0-.51.219-.656.874-.8 2.985-1.601 5.751-3.494 5.751-1.31 0-1.383-1.237-1.383-2.111 0-1.02.073-1.456.582-3.494.51-1.893.583-2.403 1.02-4.15l1.674-6.479c.291-1.31.291-1.383.291-1.601 0-.801-.51-1.238-1.31-1.238-1.165 0-1.82 1.02-1.966 2.038zm-2.985 12.012c-.29.874-.29.946-.946 1.747-2.038 2.548-3.931 3.276-5.241 3.276-2.33 0-2.985-2.548-2.985-4.368 0-2.33 1.456-8.008 2.548-10.191 1.456-2.694 3.494-4.441 5.387-4.441 2.985 0 3.64 3.785 3.64 4.077 0 .29-.073.582-.146.8zm0 0" ns0:text="$a$" ns0:preamble="/home/waldgeist/data/sphinx/test.tex" fill="#4d4d4d"/><g transform="matrix(4.5985 0 0 4.5985 -851.929 -117.51)" ns0:text="$\\rm{D}$"><defs><symbol id="a" overflow="visible"><path d="M.344-6.813v.313h.25c.765 0 .781.11.781.469v5.25c0 .36-.016.469-.781.469h-.25V0H4c1.672 0 3.047-1.469 3.047-3.344C7.047-5.25 5.703-6.813 4-6.813zm2.375 6.5c-.469 0-.485-.062-.485-.39v-5.39c0-.345.016-.407.485-.407h1c.625 0 1.312.219 1.812.922.438.594.516 1.453.516 2.234 0 1.094-.188 1.703-.547 2.188a2.192 2.192 0 0 1-1.766.843z"/></symbol></defs><use height="1052.362" width="744.094" y="134.765" x="223.432" xlink:href="#a"/></g><g ns0:text="$\\rm{A}$" transform="matrix(4.5985 0 0 4.5985 -672.956 136.974)"><defs><symbol overflow="visible" id="b"><path d="M3.969-6.938c-.047-.125-.078-.203-.235-.203-.156 0-.187.063-.234.204L1.437-.984C1.25-.47.86-.313.313-.313V0c.235-.016.672-.031 1.016-.031.313 0 .828.015 1.156.031v-.313c-.5 0-.75-.25-.75-.5 0-.03.016-.14.016-.156l.469-1.297h2.453L5.203-.75a.58.58 0 0 1 .031.14c0 .297-.562.297-.828.297V0c.36-.031 1.063-.031 1.438-.031.422 0 .89.015 1.297.031v-.313h-.172c-.594 0-.735-.062-.844-.39zm-.531 1.11l1.124 3.25H2.329z"/></symbol></defs><use height="1052.362" width="744.094" xlink:href="#b" x="223.432" y="134.765"/></g><g transform="matrix(4.5985 0 0 4.5985 -499.307 -117.51)" ns0:text="$\\rm{B}$"><defs><symbol id="c" overflow="visible"><path d="M2.219-3.656v-2.438c0-.343.015-.406.484-.406h1.235c.968 0 1.312.844 1.312 1.375 0 .64-.484 1.469-1.594 1.469zm2.344.094c.968-.188 1.656-.829 1.656-1.563 0-.86-.922-1.688-2.219-1.688H.36v.313h.234c.765 0 .797.11.797.469v5.25c0 .36-.032.469-.797.469H.359V0h3.907c1.328 0 2.218-.89 2.218-1.828 0-.86-.812-1.61-1.921-1.734zm-.61 3.25h-1.25c-.469 0-.484-.063-.484-.391v-2.719h1.875c.984 0 1.406.922 1.406 1.594 0 .703-.531 1.516-1.547 1.516z"/></symbol></defs><use height="1052.362" width="744.094" y="134.765" x="223.432" xlink:href="#c"/></g><g ns0:text="$\\rm{C}$" transform="matrix(4.5985 0 0 4.5985 -672.502 -291.71)"><defs><symbol overflow="visible" id="d"><path d="M.563-3.406C.563-1.344 2.171.219 4.03.219c1.625 0 2.594-1.39 2.594-2.547 0-.094 0-.172-.125-.172-.11 0-.11.063-.125.172C6.297-.906 5.235-.094 4.141-.094c-.61 0-2.563-.328-2.563-3.312 0-2.969 1.953-3.313 2.563-3.313 1.078 0 1.968.907 2.171 2.36.016.14.016.171.157.171.156 0 .156-.03.156-.234v-2.36c0-.171 0-.25-.11-.25-.03 0-.077 0-.156.126l-.5.734c-.359-.36-.875-.86-1.828-.86-1.875 0-3.468 1.595-3.468 3.626z"/></symbol></defs><use height="1052.362" width="744.094" xlink:href="#d" x="223.432" y="134.765"/></g><g transform="matrix(4.74659 0 0 4.74659 -614.384 -237.038)" ns0:text="$b$" fill="#4d4d4d" stroke-width="1.579"><defs><symbol id="e" overflow="visible"><path d="M2.375-6.813s0-.109-.125-.109c-.219 0-.953.078-1.219.11-.078 0-.187.015-.187.187 0 .125.094.125.25.125.468 0 .484.063.484.172 0 .062-.078.406-.125.61l-.828 3.25c-.11.5-.156.671-.156 1.015C.469-.516 1 .109 1.734.109c1.172 0 2.407-1.484 2.407-2.921 0-.907-.532-1.594-1.329-1.594-.453 0-.874.297-1.171.593zm-.922 3.766c.047-.219.047-.234.14-.344.485-.64.938-.796 1.204-.796.36 0 .625.296.625.937 0 .594-.328 1.734-.516 2.11-.328.671-.781 1.03-1.172 1.03-.343 0-.671-.265-.671-1 0-.202 0-.39.156-1.015zm0 0"/></symbol></defs><use y="134.765" x="223.432" xlink:href="#e" width="100%" height="100%"/></g><g ns0:text="$c$" ns0:preamble="/home/waldgeist/data/homepage/inkscape-preamble.tex" transform="translate(-285.173 8.175) scale(4.7296)" fill="#4d4d4d" stroke-width="1.584"><defs><symbol overflow="visible" id="f"><path d="M3.953-3.781c-.172 0-.297 0-.437.125a.53.53 0 0 0-.188.39c0 .25.188.36.375.36.281 0 .547-.25.547-.64 0-.485-.469-.86-1.172-.86-1.344 0-2.672 1.422-2.672 2.828C.406-.672.984.109 2.031.109c1.422 0 2.25-1.062 2.25-1.171 0-.063-.047-.141-.11-.141-.062 0-.077.031-.14.11-.781.984-1.875.984-1.984.984-.625 0-.906-.485-.906-1.094 0-.406.203-1.375.546-1.984.313-.579.86-1 1.407-1 .328 0 .719.125.86.406zm0 0"/></symbol></defs><use height="100%" width="100%" xlink:href="#f" x="118.801" y="83.403"/></g><g transform="translate(-304.4 225.236) scale(4.7296)" ns0:preamble="/home/waldgeist/data/homepage/inkscape-preamble.tex" ns0:text="$d$" fill="#4d4d4d" stroke-width="1.584"><defs><symbol id="g" overflow="visible"><path d="M5.14-6.813s0-.109-.124-.109c-.157 0-1.094.094-1.266.11-.078.015-.14.062-.14.187s.093.125.234.125c.484 0 .5.063.5.172l-.032.203-.593 2.36c-.188-.376-.469-.641-.922-.641-1.156 0-2.39 1.468-2.39 2.922C.406-.547.952.109 1.718.109c.203 0 .703-.046 1.297-.75a.91.91 0 0 0 .906.75c.36 0 .578-.234.75-.546a6.49 6.49 0 0 0 .297-.985c0-.11-.094-.11-.125-.11-.094 0-.11.048-.14.188-.173.64-.345 1.235-.75 1.235-.282 0-.298-.266-.298-.454 0-.25.016-.312.047-.484zM3.079-1.188c-.062.188-.062.204-.203.375-.438.547-.844.704-1.125.704-.5 0-.64-.547-.64-.938 0-.5.312-1.719.546-2.187.313-.579.75-.954 1.157-.954.64 0 .78.813.78.875a.562.562 0 0 1-.03.172zm0 0"/></symbol></defs><use y="83.403" x="118.801" xlink:href="#g" width="100%" height="100%"/></g></svg>