<svg xmlns:ns0="http://www.iki.fi/pav/software/textext/" xmlns="http://www.w3.org/2000/svg" xmlns:xlink="http://www.w3.org/1999/xlink" height="1052.362" width="744.094"><title>Sinussatz</title><path fill="#fff" stroke="#fff" stroke-width="3" stroke-linecap="square" d="M3.827 294.777h736.44v462.808H3.827z"/><use transform="translate(-690.002 115.427) scale(3.49978)" height="1052.362" width="744.094" xlink:href="#textext-28c1ecfe-0" x="223.432" y="134.765"/><use transform="translate(-200.574 -112.91) scale(3.49978)" height="1052.362" width="744.094" xlink:href="#textext-28c1ecfe-0" x="223.432" y="134.765"/><use transform="translate(-200.574 -112.91) scale(3.49978)" height="1052.362" width="744.094" xlink:href="#textext-28c1ecfe-0" x="223.432" y="134.765"/><path d="M425.91 359.444l198.912 344.754-507.968-20.833z" fill="#f9f9f9" stroke="#000" stroke-width="3" stroke-linecap="round"/><g transform="matrix(4.63723 0 0 4.63723 -471.734 65.868)" ns0:preamble="/home/waldgeist/data/sphinx/test.tex" ns0:text="$\\beta$"><defs><symbol id="a" overflow="visible"><path d="M5.734-5.672c0-.75-.546-1.36-1.359-1.36-.578 0-.86.157-1.203.407C2.625-6.219 2.078-5.25 1.89-4.5L.297 1.828c0 .047.047.11.125.11s.11-.032.11-.047l.702-2.766c.188.61.625.969 1.36.969.719 0 1.469-.344 1.922-.781a2.486 2.486 0 0 0 .796-1.829c0-.718-.375-1.25-.734-1.484.578-.344 1.156-.953 1.156-1.672zM3.938-4.016c-.126.047-.235.063-.485.063-.14 0-.328.015-.437-.031.03-.11.39-.079.5-.079.203 0 .296 0 .421.047zm1.234-1.89c0 .703-.375 1.422-.89 1.734-.282-.11-.47-.125-.766-.125-.22 0-.782-.016-.782.313 0 .28.516.25.688.25.375 0 .531 0 .828-.125.375.359.422.671.438 1.125.015.578-.22 1.328-.5 1.718-.391.532-1.063.891-1.625.891-.766 0-1.141-.578-1.141-1.281 0-.094 0-.25.047-.438l.64-2.515c.22-.86.938-2.454 2.141-2.454.578 0 .922.313.922.907zm0 0"/></symbol></defs><use y="134.765" x="223.432" xlink:href="#a" width="744.094" height="1052.362"/></g><g ns0:text="$\\rm{C}$" transform="matrix(4.58764 0 0 4.56905 -611.305 -271.295)"><defs><symbol overflow="visible" id="b"><path d="M.563-3.406C.563-1.344 2.171.219 4.03.219c1.625 0 2.594-1.39 2.594-2.547 0-.094 0-.172-.125-.172-.11 0-.11.063-.125.172C6.297-.906 5.235-.094 4.141-.094c-.61 0-2.563-.328-2.563-3.312 0-2.969 1.953-3.313 2.563-3.313 1.078 0 1.968.907 2.171 2.36.016.14.016.171.157.171.156 0 .156-.03.156-.234v-2.36c0-.171 0-.25-.11-.25-.03 0-.077 0-.156.126l-.5.734c-.359-.36-.875-.86-1.828-.86-1.875 0-3.468 1.595-3.468 3.626z"/></symbol></defs><use height="1052.362" width="744.094" xlink:href="#b" x="223.432" y="134.765"/></g><g transform="matrix(4.56905 0 0 4.56905 -940.22 105.023)" ns0:text="$\\rm{A}$"><defs><symbol id="c" overflow="visible"><path d="M3.969-6.938c-.047-.125-.078-.203-.235-.203-.156 0-.187.063-.234.204L1.437-.984C1.25-.47.86-.313.313-.313V0c.235-.016.672-.031 1.016-.031.313 0 .828.015 1.156.031v-.313c-.5 0-.75-.25-.75-.5 0-.03.016-.14.016-.156l.469-1.297h2.453L5.203-.75a.58.58 0 0 1 .031.14c0 .297-.562.297-.828.297V0c.36-.031 1.063-.031 1.438-.031.422 0 .89.015 1.297.031v-.313h-.172c-.594 0-.735-.062-.844-.39zm-.531 1.11l1.124 3.25H2.329z"/></symbol></defs><use y="134.765" x="223.432" xlink:href="#c" width="744.094" height="1052.362"/></g><g ns0:text="$\\rm{B}$" transform="matrix(4.56905 0 0 4.56905 -388.483 124.288)"><defs><symbol overflow="visible" id="d"><path d="M2.219-3.656v-2.438c0-.343.015-.406.484-.406h1.235c.968 0 1.312.844 1.312 1.375 0 .64-.484 1.469-1.594 1.469zm2.344.094c.968-.188 1.656-.829 1.656-1.563 0-.86-.922-1.688-2.219-1.688H.36v.313h.234c.765 0 .797.11.797.469v5.25c0 .36-.032.469-.797.469H.359V0h3.907c1.328 0 2.218-.89 2.218-1.828 0-.86-.812-1.61-1.921-1.734zm-.61 3.25h-1.25c-.469 0-.484-.063-.484-.391v-2.719h1.875c.984 0 1.406.922 1.406 1.594 0 .703-.531 1.516-1.547 1.516z"/></symbol></defs><use height="1052.362" width="744.094" xlink:href="#d" x="223.432" y="134.765"/></g><g transform="matrix(4.63723 0 0 4.63723 -628.86 -216.118)" ns0:text="$\\gamma$"><defs><symbol id="e" overflow="visible"><path d="M.406-2.531C.796-3.671 1.891-3.687 2-3.687c1.5 0 1.61 1.75 1.61 2.53 0 .61-.047.782-.126.985-.218.719-.515 1.875-.515 2.14 0 .11.047.173.125.173.14 0 .219-.22.328-.594.234-.844.328-1.406.36-1.719.03-.125.046-.25.093-.39.313-.985.953-2.47 1.344-3.25.078-.126.187-.344.187-.391 0-.094-.093-.094-.11-.094-.03 0-.093 0-.124.063-.516.953-.922 1.953-1.313 2.953-.015-.297-.015-1.063-.406-2.032-.25-.609-.64-1.093-1.328-1.093-1.25 0-1.953 1.515-1.953 1.828 0 .094.094.094.203.094zm0 0"/></symbol></defs><use y="134.765" x="223.432" xlink:href="#e" width="744.094" height="1052.362"/></g><path transform="matrix(1.988 -.53268 .36465 1.36089 -82.254 -230.498)" d="M10.577 634.906a42.613 42.613 0 0 1 7.01 44.786" style="marker:none" color="#000" fill="none" stroke="#000" stroke-width="1.762" stroke-linecap="round" stroke-linejoin="round" overflow="visible"/><path transform="matrix(1.988 .53268 -.36465 1.36089 909.148 -186.686)" d="M-62.19 675.757a42.613 42.613 0 0 1 16.51-48.015" style="marker:none" color="#000" fill="none" stroke="#000" stroke-width="1.762" stroke-linecap="round" stroke-linejoin="round" overflow="visible"/><g ns0:text="$\\alpha$" transform="matrix(4.63723 0 0 4.63723 -878.579 46.928)"><defs><symbol overflow="visible" id="f"><path d="M4.75-2.36c0-1.562-.922-2.046-1.656-2.046-1.375 0-2.688 1.422-2.688 2.828C.406-.641 1 .109 2.031.109c.625 0 1.344-.234 2.094-.843.125.53.453.843.906.843.532 0 .844-.546.844-.703 0-.078-.063-.11-.125-.11-.063 0-.094.032-.125.11-.188.485-.547.485-.563.485-.312 0-.312-.782-.312-1.016 0-.203 0-.234.11-.344C5.796-2.656 6-3.812 6-3.812c0-.032-.016-.11-.125-.11-.094 0-.094.031-.14.219-.188.625-.516 1.375-.985 1.969zM4.094-.983c-.89.765-1.657.875-2.047.875-.594 0-.906-.454-.906-1.094 0-.484.265-1.563.578-2.063.468-.734 1.015-.921 1.36-.921.983 0 .983 1.312.983 2.078 0 .375 0 .953.032 1.125zm0 0"/></symbol></defs><use height="1052.362" width="744.094" xlink:href="#f" x="223.432" y="134.765"/></g><path d="M425.638 359.173L411.46 695.187" fill="none" stroke="#5f8dd3" stroke-width="1.5" stroke-linecap="round"/><g fill="#37c837" stroke="#003380" stroke-width="6.883"><path d="M749.083 510.761l24.652 42.699M773.735 510.761l-24.652 42.699" transform="matrix(.36448 0 0 .23166 133.944 571.92)"/></g><g transform="matrix(4.56905 0 0 4.56905 -622.504 119.804)" ns0:preamble="/home/waldgeist/data/sphinx/inkscape-preamble.tex" ns0:text="$\\rm{D}$" fill="#003380" stroke="#5f8dd3"><defs><symbol id="g" overflow="visible"><path d="M.344-6.813v.313h.25c.765 0 .781.11.781.469v5.25c0 .36-.016.469-.781.469h-.25V0H4c1.672 0 3.047-1.469 3.047-3.344C7.047-5.25 5.703-6.813 4-6.813zm2.375 6.5c-.469 0-.485-.062-.485-.39v-5.39c0-.345.016-.407.485-.407h1c.625 0 1.312.219 1.812.922.438.594.516 1.453.516 2.234 0 1.094-.188 1.703-.547 2.188a2.192 2.192 0 0 1-1.766.843zm0 0" stroke="none"/></symbol></defs><use y="134.765" x="223.432" xlink:href="#g" width="744.094" height="1052.362" fill="#000"/></g><path style="marker:none" d="M402.859 683.896a1.36 1.36 0 1 1-2.719 0 1.36 1.36 0 1 1 2.719 0z" color="#000" fill="gray" stroke="gray" stroke-width="1.500012" stroke-linecap="round" stroke-linejoin="round" overflow="visible"/><path style="marker:none" d="M412.31 671.704a23.82 23.498 0 0 1 22.965 23.963M387.645 694.71a23.82 23.498 0 0 1 24.596-23.009" color="#000" fill="none" stroke="gray" stroke-width="1.50022656" stroke-linecap="round" stroke-linejoin="round" overflow="visible"/><path d="M423.318 684.508a1.36 1.36 0 1 1-2.719 0 1.36 1.36 0 1 1 2.719 0z" style="marker:none" color="#000" fill="gray" stroke="gray" stroke-width="1.500012" stroke-linecap="round" stroke-linejoin="round" overflow="visible"/><path style="marker:none" d="M-57.711 685.455a42.613 42.613 0 0 1 7.13-53.79" transform="matrix(0 -1.59723 1.4089 0 -508.312 325.303)" color="#000" fill="none" stroke="#000" stroke-width="2" stroke-linecap="round" stroke-linejoin="round" overflow="visible"/><g ns0:text="$a$" ns0:preamble="/home/waldgeist/data/sphinx/inkscape-preamble.tex" transform="matrix(4.56905 0 0 4.56905 -480.12 -81.865)"><defs><symbol overflow="visible" id="h"><path d="M3.719-3.766c-.188-.375-.469-.64-.922-.64-1.156 0-2.39 1.468-2.39 2.922C.406-.547.952.109 1.718.109c.203 0 .703-.046 1.297-.75a.91.91 0 0 0 .906.75c.36 0 .578-.234.75-.546a6.49 6.49 0 0 0 .297-.985c0-.11-.094-.11-.125-.11-.094 0-.11.048-.14.188-.173.64-.345 1.235-.75 1.235-.282 0-.298-.266-.298-.454 0-.218.016-.312.125-.75.11-.406.125-.515.219-.89l.36-1.39c.062-.282.062-.298.062-.345 0-.171-.11-.265-.281-.265-.25 0-.391.219-.422.437zm-.64 2.579c-.063.187-.063.203-.204.375-.438.546-.844.703-1.125.703-.5 0-.64-.547-.64-.938 0-.5.312-1.719.546-2.187.313-.579.75-.954 1.157-.954.64 0 .78.813.78.875a.562.562 0 0 1-.03.172zm0 0"/></symbol></defs><use height="1052.362" width="744.094" xlink:href="#h" x="223.432" y="134.765"/></g><g transform="matrix(4.56905 0 0 4.56905 -774.941 -99.288)" ns0:preamble="/home/waldgeist/data/sphinx/inkscape-preamble.tex" ns0:text="$b$"><defs><symbol id="i" overflow="visible"><path d="M2.375-6.813s0-.109-.125-.109c-.219 0-.953.078-1.219.11-.078 0-.187.015-.187.187 0 .125.094.125.25.125.468 0 .484.063.484.172 0 .062-.078.406-.125.61l-.828 3.25c-.11.5-.156.671-.156 1.015C.469-.516 1 .109 1.734.109c1.172 0 2.407-1.484 2.407-2.921 0-.907-.532-1.594-1.329-1.594-.453 0-.874.297-1.171.593zm-.922 3.766c.047-.219.047-.234.14-.344.485-.64.938-.796 1.204-.796.36 0 .625.296.625.937 0 .594-.328 1.734-.516 2.11-.328.671-.781 1.03-1.172 1.03-.343 0-.671-.265-.671-1 0-.202 0-.39.156-1.015zm0 0"/></symbol></defs><use y="134.765" x="223.432" xlink:href="#i" width="744.094" height="1052.362"/></g><g transform="matrix(4.56905 0 0 4.56905 -598.48 -33.082)" ns0:preamble="/home/waldgeist/data/sphinx/inkscape-preamble.tex" ns0:text="$h _{\\rm{c}}$" fill="#5f8dd3"><defs><symbol id="j" overflow="visible"><path d="M2.86-6.813s0-.109-.126-.109c-.234 0-.953.078-1.218.11-.079 0-.188.015-.188.187 0 .125.094.125.234.125.485 0 .5.063.5.172l-.03.203L.593-.391C.547-.25.547-.234.547-.17c0 .234.203.28.297.28a.407.407 0 0 0 .36-.265l.187-.75.218-.89c.063-.235.125-.454.172-.673.016-.062.11-.39.11-.453.03-.094.343-.64.687-.922.219-.156.516-.344.953-.344.422 0 .531.344.531.704 0 .53-.375 1.625-.609 2.234-.078.219-.14.344-.14.547 0 .469.359.812.828.812.937 0 1.296-1.453 1.296-1.53 0-.11-.078-.11-.109-.11-.11 0-.11.031-.156.187-.14.532-.469 1.235-1.016 1.235-.172 0-.234-.094-.234-.329 0-.25.078-.484.172-.703.156-.437.61-1.625.61-2.203 0-.64-.391-1.062-1.141-1.062-.626 0-1.11.312-1.485.765zm0 0"/></symbol><symbol id="k" overflow="visible"><path d="M2.703-2.781a.328.328 0 0 0-.187.312c0 .188.125.328.328.328.187 0 .328-.125.328-.343 0-.625-.969-.625-1.156-.625C.969-3.11.328-2.313.328-1.5c0 .875.734 1.563 1.656 1.563 1.032 0 1.282-.813 1.282-.907 0-.078-.094-.078-.125-.078-.094 0-.094.016-.125.125-.157.422-.532.64-.954.64-.484 0-1.109-.359-1.109-1.359 0-.875.438-1.375 1.078-1.375.094 0 .422 0 .672.11zm0 0"/></symbol></defs><use y="134.765" x="223.432" xlink:href="#j" width="744.094" height="1052.362"/><use y="136.259" x="229.172" xlink:href="#k" width="744.094" height="1052.362"/></g></svg>