<svg xmlns:ns0="http://www.iki.fi/pav/software/textext/" xmlns="http://www.w3.org/2000/svg" xmlns:xlink="http://www.w3.org/1999/xlink" height="1052.362" width="744.094"><title>Ein allgemeines Dreieck</title><path transform="matrix(1.988 -.53268 .36465 1.36089 -80.881 -236.724)" d="M17.138 680.7a42.613 42.613 0 0 1-70.707 10.32" style="marker:none" color="#000" fill="none" stroke="gray" stroke-width="1.762" stroke-linecap="round" stroke-linejoin="round" overflow="visible"/><use transform="translate(-690.002 115.427) scale(3.49978)" height="1052.362" width="744.094" xlink:href="#textext-28c1ecfe-0" x="223.432" y="134.765"/><use transform="translate(-200.574 -112.91) scale(3.49978)" height="1052.362" width="744.094" xlink:href="#textext-28c1ecfe-0" x="223.432" y="134.765"/><use transform="translate(-200.574 -112.91) scale(3.49978)" height="1052.362" width="744.094" xlink:href="#textext-28c1ecfe-0" x="223.432" y="134.765"/><path transform="matrix(1.988 -.53268 .36465 1.36089 -80.881 -236.724)" d="M-60.116 644.71a42.613 42.613 0 0 1 70.62-9.89" style="marker:none" color="#000" fill="none" stroke="gray" stroke-width="1.762" stroke-linecap="round" stroke-linejoin="round" overflow="visible"/><path fill="#fff" stroke="#fff" stroke-width="3" stroke-linecap="square" d="M3.827 255.914h736.44v540.535H3.827z"/><path d="M117.955 676.867l-79.643 83.296M625.923 697.7l101.733 4.947" fill="none" stroke="gray" stroke-width="3" stroke-linecap="round"/><path transform="matrix(1.988 -.53268 .36465 1.36089 -80.881 -236.724)" d="M16.993 681.012a42.613 42.613 0 0 1-70.417 10.172" style="marker:none" color="#000" fill="none" stroke="gray" stroke-width="1.762" stroke-linecap="round" stroke-linejoin="round" overflow="visible"/><path d="M674.727 782.19l-48.804-84.49M16.438 673.015l101.517 4.313M501.077 276.875l-74.067 76.072M427.01 352.947l-47.787-82.774" fill="none" stroke="gray" stroke-width="3" stroke-linecap="round"/><path d="M427.01 352.947L625.923 697.7l-507.968-20.833z" fill="#f9f9f9" stroke="#000" stroke-width="3" stroke-linecap="round"/><path d="M180.411 655.398c0-7.246-4.275-9.492-7.68-9.492-6.376 0-12.463 6.594-12.463 13.115 0 4.347 2.754 7.825 7.536 7.825 2.898 0 6.231-1.087 9.71-3.912.579 2.463 2.1 3.912 4.202 3.912 2.463 0 3.912-2.536 3.912-3.26 0-.362-.29-.507-.58-.507s-.434.145-.579.507c-.87 2.246-2.536 2.246-2.608 2.246-1.45 0-1.45-3.623-1.45-4.71 0-.942 0-1.087.508-1.594 4.347-5.507 5.289-10.868 5.289-10.868 0-.145-.072-.508-.58-.508-.434 0-.434.145-.652 1.015-.87 2.898-2.39 6.376-4.565 9.13zm-3.043 6.376c-4.13 3.55-7.68 4.058-9.492 4.058-2.753 0-4.202-2.101-4.202-5.072 0-2.246 1.232-7.246 2.68-9.564 2.175-3.406 4.71-4.275 6.305-4.275 4.564 0 4.564 6.086 4.564 9.636 0 1.74 0 4.42.145 5.217zm0 0"/><path d="M243.741 480.545s0-.506-.579-.506c-1.012 0-4.412.362-5.641.506-.362 0-.868.073-.868.868 0 .579.434.579 1.157.579 2.17 0 2.242.29 2.242.796 0 .289-.361 1.88-.578 2.82l-3.834 15.045c-.506 2.315-.723 3.11-.723 4.702 0 4.34 2.459 7.233 5.859 7.233 5.424 0 11.139-6.871 11.139-13.526 0-4.195-2.46-7.378-6.149-7.378-2.097 0-4.05 1.375-5.424 2.749zm-4.267 17.432c.217-1.012.217-1.085.65-1.591 2.243-2.966 4.34-3.689 5.57-3.689 1.664 0 2.893 1.374 2.893 4.34 0 2.748-1.519 8.029-2.387 9.765-1.519 3.11-3.616 4.774-5.424 4.774-1.592 0-3.11-1.23-3.11-4.63 0-.94 0-1.808.723-4.701zm0 0" ns0:preamble="/home/waldgeist/data/sphinx/test.tex" ns0:text="$b$" fill="#4d4d4d"/><path d="M557.83 494.65c-.867-1.736-2.169-2.966-4.267-2.966-5.352 0-11.066 6.8-11.066 13.526 0 4.34 2.531 7.378 6.075 7.378.94 0 3.255-.217 6.004-3.472a4.217 4.217 0 0 0 4.195 3.472c1.664 0 2.676-1.085 3.472-2.531.723-1.664 1.374-4.485 1.374-4.557 0-.507-.434-.507-.578-.507-.434 0-.507.217-.651.868-.796 2.966-1.591 5.714-3.472 5.714-1.302 0-1.374-1.23-1.374-2.097 0-1.013.072-1.447.578-3.472.507-1.88.579-2.387 1.013-4.123l1.664-6.437c.289-1.302.289-1.375.289-1.592 0-.795-.506-1.23-1.302-1.23-1.157 0-1.808 1.013-1.953 2.026zm-2.965 11.935c-.289.868-.289.94-.94 1.736-2.025 2.531-3.906 3.254-5.208 3.254-2.314 0-2.965-2.531-2.965-4.34 0-2.314 1.446-7.956 2.531-10.126 1.447-2.676 3.472-4.412 5.353-4.412 2.965 0 3.616 3.761 3.616 4.05a2.6 2.6 0 0 1-.144.796zm0 0" ns0:text="$a$" ns0:preamble="/home/waldgeist/data/sphinx/test.tex" fill="#4d4d4d"/><g transform="matrix(4.63723 0 0 4.63723 -670.542 99.731)" ns0:preamble="/home/waldgeist/data/sphinx/test.tex" ns0:text="$c$" fill="#4d4d4d"><defs><symbol id="a" overflow="visible"><path d="M3.953-3.781c-.172 0-.297 0-.437.125a.53.53 0 0 0-.188.39c0 .25.188.36.375.36.281 0 .547-.25.547-.64 0-.485-.469-.86-1.172-.86-1.344 0-2.672 1.422-2.672 2.828C.406-.672.984.109 2.031.109c1.422 0 2.25-1.062 2.25-1.171 0-.063-.047-.141-.11-.141-.062 0-.077.031-.14.11-.781.984-1.875.984-1.984.984-.625 0-.906-.485-.906-1.094 0-.406.203-1.375.546-1.984.313-.579.86-1 1.407-1 .328 0 .719.125.86.406zm0 0"/></symbol></defs><use y="134.765" x="223.432" xlink:href="#a" width="744.094" height="1052.362"/></g><g transform="matrix(4.63723 0 0 4.63723 -470.36 59.641)" ns0:preamble="/home/waldgeist/data/sphinx/test.tex" ns0:text="$\\beta$"><defs><symbol id="b" overflow="visible"><path d="M5.734-5.672c0-.75-.546-1.36-1.359-1.36-.578 0-.86.157-1.203.407C2.625-6.219 2.078-5.25 1.89-4.5L.297 1.828c0 .047.047.11.125.11s.11-.032.11-.047l.702-2.766c.188.61.625.969 1.36.969.719 0 1.469-.344 1.922-.781a2.486 2.486 0 0 0 .796-1.829c0-.718-.375-1.25-.734-1.484.578-.344 1.156-.953 1.156-1.672zM3.938-4.016c-.126.047-.235.063-.485.063-.14 0-.328.015-.437-.031.03-.11.39-.079.5-.079.203 0 .296 0 .421.047zm1.234-1.89c0 .703-.375 1.422-.89 1.734-.282-.11-.47-.125-.766-.125-.22 0-.782-.016-.782.313 0 .28.516.25.688.25.375 0 .531 0 .828-.125.375.359.422.671.438 1.125.015.578-.22 1.328-.5 1.718-.391.532-1.063.891-1.625.891-.766 0-1.141-.578-1.141-1.281 0-.094 0-.25.047-.438l.64-2.515c.22-.86.938-2.454 2.141-2.454.578 0 .922.313.922.907zm0 0"/></symbol></defs><use y="134.765" x="223.432" xlink:href="#b" width="744.094" height="1052.362"/></g><g ns0:text="$\\rm{C}$" transform="matrix(4.58764 0 0 4.56905 -607.932 -291.52)"><defs><symbol overflow="visible" id="c"><path d="M.563-3.406C.563-1.344 2.171.219 4.03.219c1.625 0 2.594-1.39 2.594-2.547 0-.094 0-.172-.125-.172-.11 0-.11.063-.125.172C6.297-.906 5.235-.094 4.141-.094c-.61 0-2.563-.328-2.563-3.312 0-2.969 1.953-3.313 2.563-3.313 1.078 0 1.968.907 2.171 2.36.016.14.016.171.157.171.156 0 .156-.03.156-.234v-2.36c0-.171 0-.25-.11-.25-.03 0-.077 0-.156.126l-.5.734c-.359-.36-.875-.86-1.828-.86-1.875 0-3.468 1.595-3.468 3.626z"/></symbol></defs><use height="1052.362" width="744.094" xlink:href="#c" x="223.432" y="134.765"/></g><g transform="matrix(4.56905 0 0 4.56905 -980.847 98.797)" ns0:text="$\\rm{A}$"><defs><symbol id="d" overflow="visible"><path d="M3.969-6.938c-.047-.125-.078-.203-.235-.203-.156 0-.187.063-.234.204L1.437-.984C1.25-.47.86-.313.313-.313V0c.235-.016.672-.031 1.016-.031.313 0 .828.015 1.156.031v-.313c-.5 0-.75-.25-.75-.5 0-.03.016-.14.016-.156l.469-1.297h2.453L5.203-.75a.58.58 0 0 1 .031.14c0 .297-.562.297-.828.297V0c.36-.031 1.063-.031 1.438-.031.422 0 .89.015 1.297.031v-.313h-.172c-.594 0-.735-.062-.844-.39zm-.531 1.11l1.124 3.25H2.329z"/></symbol></defs><use y="134.765" x="223.432" xlink:href="#d" width="744.094" height="1052.362"/></g><g ns0:text="$\\rm{B}$" transform="matrix(4.56905 0 0 4.56905 -365.11 124.062)"><defs><symbol overflow="visible" id="e"><path d="M2.219-3.656v-2.438c0-.343.015-.406.484-.406h1.235c.968 0 1.312.844 1.312 1.375 0 .64-.484 1.469-1.594 1.469zm2.344.094c.968-.188 1.656-.829 1.656-1.563 0-.86-.922-1.688-2.219-1.688H.36v.313h.234c.765 0 .797.11.797.469v5.25c0 .36-.032.469-.797.469H.359V0h3.907c1.328 0 2.218-.89 2.218-1.828 0-.86-.812-1.61-1.921-1.734zm-.61 3.25h-1.25c-.469 0-.484-.063-.484-.391v-2.719h1.875c.984 0 1.406.922 1.406 1.594 0 .703-.531 1.516-1.547 1.516z"/></symbol></defs><use height="1052.362" width="744.094" xlink:href="#e" x="223.432" y="134.765"/></g><path style="marker:none" d="M-60.373 645.266a42.613 42.613 0 0 1 70.39-10.99" transform="matrix(1.988 -.53268 .36465 1.36089 -80.881 -236.724)" color="#000" fill="none" stroke="gray" stroke-width="1.762" stroke-linecap="round" stroke-linejoin="round" overflow="visible"/><g transform="matrix(4.63723 0 0 4.63723 -627.487 -222.344)" ns0:text="$\\gamma$"><defs><symbol id="f" overflow="visible"><path d="M.406-2.531C.796-3.671 1.891-3.687 2-3.687c1.5 0 1.61 1.75 1.61 2.53 0 .61-.047.782-.126.985-.218.719-.515 1.875-.515 2.14 0 .11.047.173.125.173.14 0 .219-.22.328-.594.234-.844.328-1.406.36-1.719.03-.125.046-.25.093-.39.313-.985.953-2.47 1.344-3.25.078-.126.187-.344.187-.391 0-.094-.093-.094-.11-.094-.03 0-.093 0-.124.063-.516.953-.922 1.953-1.313 2.953-.015-.297-.015-1.063-.406-2.032-.25-.609-.64-1.093-1.328-1.093-1.25 0-1.953 1.515-1.953 1.828 0 .094.094.094.203.094zm0 0"/></symbol></defs><use y="134.765" x="223.432" xlink:href="#f" width="744.094" height="1052.362"/></g><g transform="matrix(3.70979 0 0 3.70979 -711.278 218.751)" ns0:preamble="/home/waldgeist/data/sphinx/inkscape-preamble.tex" ns0:text="$\\alpha^{*}$" fill="gray"><defs><symbol id="g" overflow="visible"><path d="M4.75-2.36c0-1.562-.922-2.046-1.656-2.046-1.375 0-2.688 1.422-2.688 2.828C.406-.641 1 .109 2.031.109c.625 0 1.344-.234 2.094-.843.125.53.453.843.906.843.532 0 .844-.546.844-.703 0-.078-.063-.11-.125-.11-.063 0-.094.032-.125.11-.188.485-.547.485-.563.485-.312 0-.312-.782-.312-1.016 0-.203 0-.234.11-.344C5.796-2.656 6-3.812 6-3.812c0-.032-.016-.11-.125-.11-.094 0-.094.031-.14.219-.188.625-.516 1.375-.985 1.969zM4.094-.983c-.89.765-1.657.875-2.047.875-.594 0-.906-.454-.906-1.094 0-.484.265-1.563.578-2.063.468-.734 1.015-.921 1.36-.921.983 0 .983 1.312.983 2.078 0 .375 0 .953.032 1.125zm0 0"/></symbol><symbol id="h" overflow="visible"><path d="M2.25-1.734c.578-.25.828-.344 1-.438.14-.047.203-.078.203-.219a.223.223 0 0 0-.219-.218c-.046 0-.062 0-.14.062l-.953.64.109-1.03c.016-.126 0-.297-.219-.297-.078 0-.219.046-.219.203 0 .062.032.265.047.344.016.109.063.624.079.78l-.954-.64c-.062-.031-.078-.062-.14-.062-.14 0-.219.109-.219.218 0 .141.078.188.14.204l1.047.453c-.562.25-.828.343-1 .421-.125.063-.187.094-.187.22 0 .124.078.218.219.218.047 0 .062 0 .14-.063l.954-.625-.125 1.11c0 .156.14.219.218.219.094 0 .219-.063.219-.22 0-.062-.031-.265-.031-.327-.016-.125-.063-.625-.078-.781l.828.546c.187.141.203.141.265.141a.214.214 0 0 0 .22-.219c0-.14-.095-.172-.157-.203zm0 0"/></symbol></defs><use y="134.765" x="223.432" xlink:href="#g" width="744.094" height="1052.362"/><use y="131.149" x="229.842" xlink:href="#h" width="744.094" height="1052.362"/></g><g ns0:text="$\\alpha^{*}$" ns0:preamble="/home/waldgeist/data/sphinx/inkscape-preamble.tex" fill="gray"><use height="1052.362" width="744.094" xlink:href="#g" x="223.432" y="134.765" transform="matrix(3.70979 0 0 3.70979 -742.414 155.71)"/><use height="1052.362" width="744.094" xlink:href="#h" x="229.842" y="131.149" transform="matrix(3.70979 0 0 3.70979 -742.414 155.71)"/></g><path style="marker:none" d="M-50.526 631.615a42.613 42.613 0 0 1 64.628 7.953M6.997 694.5a42.613 42.613 0 0 1-64.24-8.313" transform="matrix(0 -1.59723 1.4089 0 -506.914 318.495)" color="#000" fill="none" stroke="gray" stroke-width="2" stroke-linecap="round" stroke-linejoin="round" overflow="visible"/><g ns0:text="$\\gamma^*$" ns0:preamble="/home/waldgeist/data/sphinx/inkscape-preamble.tex" transform="matrix(3.70979 0 0 3.70979 -383.232 -137.403)" fill="gray"><defs><symbol overflow="visible" id="i"><path d="M.406-2.531C.796-3.671 1.891-3.687 2-3.687c1.5 0 1.61 1.75 1.61 2.53 0 .61-.047.782-.126.985-.218.719-.515 1.875-.515 2.14 0 .11.047.173.125.173.14 0 .219-.22.328-.594.234-.844.328-1.406.36-1.719.03-.125.046-.25.093-.39.313-.985.953-2.47 1.344-3.25.078-.126.187-.344.187-.391 0-.094-.093-.094-.11-.094-.03 0-.093 0-.124.063-.516.953-.922 1.953-1.313 2.953-.015-.297-.015-1.063-.406-2.032-.25-.609-.64-1.093-1.328-1.093-1.25 0-1.953 1.515-1.953 1.828 0 .094.094.094.203.094zm0 0"/></symbol><symbol overflow="visible" id="j"><path d="M2.25-1.734c.578-.25.828-.344 1-.438.14-.047.203-.078.203-.219a.223.223 0 0 0-.219-.218c-.046 0-.062 0-.14.062l-.953.64.109-1.03c.016-.126 0-.297-.219-.297-.078 0-.219.046-.219.203 0 .062.032.265.047.344.016.109.063.624.079.78l-.954-.64c-.062-.031-.078-.062-.14-.062-.14 0-.219.109-.219.218 0 .141.078.188.14.204l1.047.453c-.562.25-.828.343-1 .421-.125.063-.187.094-.187.22 0 .124.078.218.219.218.047 0 .062 0 .14-.063l.954-.625-.125 1.11c0 .156.14.219.218.219.094 0 .219-.063.219-.22 0-.062-.031-.265-.031-.327-.016-.125-.063-.625-.078-.781l.828.546c.187.141.203.141.265.141a.214.214 0 0 0 .22-.219c0-.14-.095-.172-.157-.203zm0 0"/></symbol></defs><use height="1052.362" width="744.094" xlink:href="#i" x="223.432" y="134.765"/><use height="1052.362" width="744.094" xlink:href="#j" x="229.144" y="131.149"/></g><g ns0:preamble="/home/waldgeist/data/sphinx/inkscape-preamble.tex" ns0:text="$\\gamma^*$" fill="gray"><use y="134.765" x="223.432" xlink:href="#i" width="744.094" height="1052.362" transform="matrix(3.70979 0 0 3.70979 -450.926 -137.403)"/><use y="131.149" x="229.144" xlink:href="#j" width="744.094" height="1052.362" transform="matrix(3.70979 0 0 3.70979 -450.926 -137.403)"/></g><g transform="matrix(3.70979 0 0 3.70979 -239.231 237.82)" ns0:text="$\\beta^*$" fill="gray"><defs><symbol id="k" overflow="visible"><path d="M5.734-5.672c0-.75-.546-1.36-1.359-1.36-.578 0-.86.157-1.203.407C2.625-6.219 2.078-5.25 1.89-4.5L.297 1.828c0 .047.047.11.125.11s.11-.032.11-.047l.702-2.766c.188.61.625.969 1.36.969.719 0 1.469-.344 1.922-.781a2.486 2.486 0 0 0 .796-1.829c0-.718-.375-1.25-.734-1.484.578-.344 1.156-.953 1.156-1.672zM3.938-4.016c-.126.047-.235.063-.485.063-.14 0-.328.015-.437-.031.03-.11.39-.079.5-.079.203 0 .296 0 .421.047zm1.234-1.89c0 .703-.375 1.422-.89 1.734-.282-.11-.47-.125-.766-.125-.22 0-.782-.016-.782.313 0 .28.516.25.688.25.375 0 .531 0 .828-.125.375.359.422.671.438 1.125.015.578-.22 1.328-.5 1.718-.391.532-1.063.891-1.625.891-.766 0-1.141-.578-1.141-1.281 0-.094 0-.25.047-.438l.64-2.515c.22-.86.938-2.454 2.141-2.454.578 0 .922.313.922.907zm0 0"/></symbol><symbol id="l" overflow="visible"><path d="M2.25-1.734c.578-.25.828-.344 1-.438.14-.047.203-.078.203-.219a.223.223 0 0 0-.219-.218c-.046 0-.062 0-.14.062l-.953.64.109-1.03c.016-.126 0-.297-.219-.297-.078 0-.219.046-.219.203 0 .062.032.265.047.344.016.109.063.624.079.78l-.954-.64c-.062-.031-.078-.062-.14-.062-.14 0-.219.109-.219.218 0 .141.078.188.14.204l1.047.453c-.562.25-.828.343-1 .421-.125.063-.187.094-.187.22 0 .124.078.218.219.218.047 0 .062 0 .14-.063l.954-.625-.125 1.11c0 .156.14.219.218.219.094 0 .219-.063.219-.22 0-.062-.031-.265-.031-.327-.016-.125-.063-.625-.078-.781l.828.546c.187.141.203.141.265.141a.214.214 0 0 0 .22-.219c0-.14-.095-.172-.157-.203zm0 0"/></symbol></defs><use y="134.765" x="223.432" xlink:href="#k" width="744.094" height="1052.362"/><use y="131.15" x="229.593" xlink:href="#l" width="744.094" height="1052.362"/></g><g ns0:text="$\\beta^*$" fill="gray"><use height="1052.362" width="744.094" xlink:href="#k" x="223.432" y="134.765" transform="matrix(3.70979 0 0 3.70979 -195.503 180.73)"/><use height="1052.362" width="744.094" xlink:href="#l" x="229.593" y="131.15" transform="matrix(3.70979 0 0 3.70979 -195.503 180.73)"/></g><path transform="matrix(1.988 -.53268 .36465 1.36089 -80.881 -236.724)" d="M10.577 634.906a42.613 42.613 0 0 1 7.01 44.786" style="marker:none" color="#000" fill="none" stroke="#000" stroke-width="1.762" stroke-linecap="round" stroke-linejoin="round" overflow="visible"/><path style="marker:none" d="M-45.714 627.765a42.613 42.613 0 0 1 64.6 21.724M2.203 698.244a42.613 42.613 0 0 1-64.236-22" transform="matrix(1.988 .53268 -.36465 1.36089 910.521 -192.912)" color="#000" fill="none" stroke="gray" stroke-width="1.762" stroke-linecap="round" stroke-linejoin="round" overflow="visible"/><path transform="matrix(1.988 .53268 -.36465 1.36089 910.521 -192.912)" d="M-62.19 675.757a42.613 42.613 0 0 1 16.51-48.015" style="marker:none" color="#000" fill="none" stroke="#000" stroke-width="1.762" stroke-linecap="round" stroke-linejoin="round" overflow="visible"/><path transform="matrix(0 -1.59723 1.4089 0 -506.914 318.495)" d="M-57.711 685.455a42.613 42.613 0 0 1 7.13-53.79" style="marker:none" color="#000" fill="none" stroke="#000" stroke-width="2" stroke-linecap="round" stroke-linejoin="round" overflow="visible"/></svg>