<?xml version="1.0" encoding="UTF-8" standalone="no"?>
<!-- Created with Inkscape (http://www.inkscape.org/) -->

<svg
   xmlns:ns0="http://www.iki.fi/pav/software/textext/"
   xmlns:dc="http://purl.org/dc/elements/1.1/"
   xmlns:cc="http://creativecommons.org/ns#"
   xmlns:rdf="http://www.w3.org/1999/02/22-rdf-syntax-ns#"
   xmlns:svg="http://www.w3.org/2000/svg"
   xmlns="http://www.w3.org/2000/svg"
   xmlns:xlink="http://www.w3.org/1999/xlink"
   xmlns:sodipodi="http://sodipodi.sourceforge.net/DTD/sodipodi-0.dtd"
   xmlns:inkscape="http://www.inkscape.org/namespaces/inkscape"
   sodipodi:docname="dreieck-mittelpunkt.svg"
   inkscape:version="0.48.4 r9939"
   version="1.1"
   id="svg2"
   height="1052.3622047"
   width="744.09448819">
  <sodipodi:namedview
     id="base"
     pagecolor="#ffffff"
     bordercolor="#666666"
     borderopacity="1.0"
     inkscape:pageopacity="0.0"
     inkscape:pageshadow="2"
     inkscape:zoom="0.65020017"
     inkscape:cx="528.29483"
     inkscape:cy="625.53677"
     inkscape:document-units="px"
     inkscape:current-layer="layer1"
     showgrid="false"
     inkscape:window-width="1600"
     inkscape:window-height="1150"
     inkscape:window-x="0"
     inkscape:window-y="0"
     inkscape:window-maximized="1"
     inkscape:snap-global="false"
     showguides="false"
     inkscape:guide-bbox="true"
     inkscape:object-paths="true"
     inkscape:object-nodes="true"
     inkscape:snap-smooth-nodes="false"
     inkscape:snap-center="false"
     inkscape:snap-object-midpoints="false"
     inkscape:snap-midpoints="true"
     inkscape:snap-intersection-paths="true">
    <sodipodi:guide
       id="guide6595"
       position="374.99726,439.64554"
       orientation="0,1" />
    <sodipodi:guide
       id="guide6597"
       position="374.99726,439.64554"
       orientation="1,0" />
  </sodipodi:namedview>
  <title
     id="title4433">Mittelpunkt eines Dreiecks</title>
  <defs
     id="defs4" />
  <metadata
     id="metadata7">
    <rdf:RDF>
      <cc:Work
         rdf:about="">
        <dc:format>image/svg+xml</dc:format>
        <dc:type
           rdf:resource="http://purl.org/dc/dcmitype/StillImage" />
        <dc:title>Mittelpunkt eines Dreiecks</dc:title>
        <dc:date>2014-09-10</dc:date>
        <dc:creator>
          <cc:Agent>
            <dc:title>Bernhard Grotz</dc:title>
          </cc:Agent>
        </dc:creator>
        <dc:rights>
          <cc:Agent>
            <dc:title>Bernhard Grotz</dc:title>
          </cc:Agent>
        </dc:rights>
        <dc:publisher>
          <cc:Agent>
            <dc:title>Bernhard Grotz</dc:title>
          </cc:Agent>
        </dc:publisher>
        <dc:language>de-DE</dc:language>
        <dc:subject>
          <rdf:Bag>
            <rdf:li>Mathematik</rdf:li>
            <rdf:li>Geometrie</rdf:li>
            <rdf:li>Planimetrie</rdf:li>
            <rdf:li>Dreieck</rdf:li>
            <rdf:li>Mittelpunkt</rdf:li>
          </rdf:Bag>
        </dc:subject>
        <cc:license
           rdf:resource="http://creativecommons.org/licenses/by-nc-sa/3.0/" />
      </cc:Work>
      <cc:License
         rdf:about="http://creativecommons.org/licenses/by-nc-sa/3.0/">
        <cc:permits
           rdf:resource="http://creativecommons.org/ns#Reproduction" />
        <cc:permits
           rdf:resource="http://creativecommons.org/ns#Distribution" />
        <cc:requires
           rdf:resource="http://creativecommons.org/ns#Notice" />
        <cc:requires
           rdf:resource="http://creativecommons.org/ns#Attribution" />
        <cc:prohibits
           rdf:resource="http://creativecommons.org/ns#CommercialUse" />
        <cc:permits
           rdf:resource="http://creativecommons.org/ns#DerivativeWorks" />
        <cc:requires
           rdf:resource="http://creativecommons.org/ns#ShareAlike" />
      </cc:License>
    </rdf:RDF>
  </metadata>
  <g
     inkscape:label="Layer 1"
     inkscape:groupmode="layer"
     id="layer1">
    <path
       inkscape:export-ydpi="150"
       inkscape:export-xdpi="150"
       inkscape:export-filename="/home/waldgeist/data/homepage/pics/mathematik/geometrie/dreieck-mittelpunkt.png"
       sodipodi:open="true"
       sodipodi:end="2.4202495"
       sodipodi:start="0.43147096"
       sodipodi:type="arc"
       style="color:#000000;fill:none;stroke:#808080;stroke-width:1.76175499;stroke-linecap:round;stroke-linejoin:round;stroke-miterlimit:4;stroke-opacity:1;stroke-dasharray:none;stroke-dashoffset:0;marker:none;visibility:visible;display:inline;overflow:visible;enable-background:accumulate"
       id="path46896"
       sodipodi:cx="-21.569786"
       sodipodi:cy="662.87848"
       sodipodi:rx="42.61348"
       sodipodi:ry="42.61348"
       d="m 17.138235,680.69975 a 42.61348,42.61348 0 0 1 -70.707309,10.32041"
       transform="matrix(1.988005,-0.53268433,0.36464818,1.3608856,-80.88128,-236.72419)" />
    <path
       inkscape:export-ydpi="150"
       inkscape:export-xdpi="150"
       inkscape:export-filename="/home/waldgeist/data/homepage/pics/mathematik/geometrie/dreieck-mittelpunkt.png"
       sodipodi:open="true"
       sodipodi:end="5.5644598"
       sodipodi:start="3.5820523"
       sodipodi:type="arc"
       style="color:#000000;fill:none;stroke:#808080;stroke-width:1.76175499;stroke-linecap:round;stroke-linejoin:round;stroke-miterlimit:4;stroke-opacity:1;stroke-dasharray:none;stroke-dashoffset:0;marker:none;visibility:visible;display:inline;overflow:visible;enable-background:accumulate"
       id="path46898"
       sodipodi:cx="-21.569786"
       sodipodi:cy="662.87848"
       sodipodi:rx="42.61348"
       sodipodi:ry="42.61348"
       d="m -60.116056,644.71 a 42.61348,42.61348 0 0 1 70.619114,-9.88934"
       transform="matrix(1.988005,-0.53268433,0.36464818,1.3608856,-80.88128,-236.72419)" />
    <rect
       inkscape:export-ydpi="150"
       inkscape:export-xdpi="150"
       inkscape:export-filename="/home/waldgeist/data/homepage/pics/mathematik/geometrie/dreieck-mittelpunkt.png"
       style="fill:#ffffff;fill-opacity:1;fill-rule:nonzero;stroke:#ffffff;stroke-width:3.00000024;stroke-linecap:square;stroke-linejoin:miter;stroke-miterlimit:4;stroke-opacity:1;stroke-dasharray:none;stroke-dashoffset:0"
       id="rect3851"
       width="736.4397"
       height="639.38208"
       x="3.8273926"
       y="206.49007" />
    <path
       inkscape:export-ydpi="150"
       inkscape:export-xdpi="150"
       inkscape:export-filename="/home/waldgeist/data/homepage/pics/mathematik/geometrie/dreieck-mittelpunkt.png"
       style="fill:#f9f9f9;fill-opacity:1;stroke:#000000;stroke-width:3;stroke-linecap:round;stroke-linejoin:miter;stroke-miterlimit:4;stroke-opacity:1;stroke-dashoffset:0"
       inkscape:transform-center-y="-43.102719"
       d="M 425.63752,285.53914 624.55014,630.29229 116.58233,609.4601 z"
       id="path9108"
       inkscape:connector-curvature="0"
       sodipodi:nodetypes="cccc" />
    <path
       inkscape:connector-curvature="0"
       id="path6569"
       d="m 373.63811,278.95061 c -147.3882,0 -266.8914,119.471 -266.8914,266.85919 0,147.3882 119.5032,266.85918 266.8914,266.85918 147.38819,0 266.85919,-119.47098 266.85919,-266.85918 0,-147.38819 -119.471,-266.85919 -266.85919,-266.85919 z"
       style="color:#000000;fill:none;fill-opacity:1;fill-rule:nonzero;stroke:#5f8dd3;stroke-width:2;stroke-linecap:round;stroke-linejoin:round;stroke-miterlimit:4;stroke-opacity:1;stroke-dasharray:none;stroke-dashoffset:0;marker:none;visibility:visible;display:inline;overflow:visible;enable-background:accumulate"
       inkscape:export-filename="/home/waldgeist/data/homepage/pics/mathematik/geometrie/dreieck-mittelpunkt.png"
       inkscape:export-xdpi="150"
       inkscape:export-ydpi="150" />
    <g
       id="g3817"
       transform="matrix(7.4449455,0,0,7.4449455,-1139.9653,-447.43445)"
       ns0:preamble="/home/waldgeist/data/sphinx/test.tex"
       ns0:text="$b$">
      <defs
         id="defs3819">
        <g
           id="g3821">
          <symbol
             id="textext-7eb8a748-0"
             overflow="visible"
             style="overflow:visible">
            <path
               id="path3824"
               d="m 2.375,-6.8125 c 0,0 0,-0.109375 -0.125,-0.109375 -0.21875,0 -0.953125,0.078125 -1.21875,0.109375 -0.078125,0 -0.1875,0.015625 -0.1875,0.1875 0,0.125 0.09375,0.125 0.25,0.125 0.46875,0 0.484375,0.0625 0.484375,0.171875 0,0.0625 -0.078125,0.40625 -0.125,0.609375 l -0.828125,3.25 c -0.109375,0.5 -0.15625,0.671875 -0.15625,1.015625 0,0.9375 0.53125,1.5625 1.265625,1.5625 1.171875,0 2.40625,-1.484375 2.40625,-2.921875 0,-0.90625 -0.53125,-1.59375 -1.328125,-1.59375 -0.453125,0 -0.875,0.296875 -1.171875,0.59375 z M 1.453125,-3.046875 C 1.5,-3.265625 1.5,-3.28125 1.59375,-3.390625 2.078125,-4.03125 2.53125,-4.1875 2.796875,-4.1875 c 0.359375,0 0.625,0.296875 0.625,0.9375 0,0.59375 -0.328125,1.734375 -0.515625,2.109375 -0.328125,0.671875 -0.78125,1.03125 -1.171875,1.03125 -0.34375,0 -0.671875,-0.265625 -0.671875,-1 0,-0.203125 0,-0.390625 0.15625,-1.015625 z m 0,0"
               style="stroke:none"
               inkscape:connector-curvature="0" />
          </symbol>
        </g>
      </defs>
      <g
         id="textext-7eb8a748-1">
        <g
           id="g3827"
           style="fill:#000000;fill-opacity:1" />
      </g>
    </g>
    <use
       style="fill:#000000;fill-opacity:1"
       id="use3030-8"
       y="134.765"
       x="223.43201"
       xlink:href="#textext-28c1ecfe-0"
       width="744.09448"
       height="1052.3622"
       transform="matrix(3.4997807,0,0,3.4997807,-690.00194,115.42685)" />
    <use
       style="fill:#000000;fill-opacity:1"
       id="use3030-8-7"
       y="134.765"
       x="223.43201"
       xlink:href="#textext-28c1ecfe-0"
       width="744.09448"
       height="1052.3622"
       transform="matrix(3.4997807,0,0,3.4997807,-200.5737,-112.9098)" />
    <use
       style="fill:#000000;fill-opacity:1"
       id="use3030-8-3"
       y="134.765"
       x="223.43201"
       xlink:href="#textext-28c1ecfe-0"
       width="744.09448"
       height="1052.3622"
       transform="matrix(3.4997807,0,0,3.4997807,-200.5737,-112.9098)" />
    <g
       inkscape:export-ydpi="150"
       inkscape:export-xdpi="150"
       inkscape:export-filename="/home/waldgeist/data/homepage/pics/mathematik/geometrie/dreieck-mittelpunkt.png"
       ns0:text="$\\beta$"
       ns0:preamble="/home/waldgeist/data/sphinx/test.tex"
       transform="matrix(4.6372342,0,0,4.6372342,-471.73378,-7.7659241)"
       id="g12193">
      <defs
         id="defs12195">
        <g
           id="g12197">
          <symbol
             style="overflow:visible"
             overflow="visible"
             id="textext-2d68729f-0">
            <path
               inkscape:connector-curvature="0"
               style="stroke:none"
               d="m 5.734375,-5.671875 c 0,-0.75 -0.546875,-1.359375 -1.359375,-1.359375 -0.578125,0 -0.859375,0.15625 -1.203125,0.40625 C 2.625,-6.21875 2.078125,-5.25 1.890625,-4.5 L 0.296875,1.828125 C 0.296875,1.875 0.34375,1.9375 0.421875,1.9375 0.5,1.9375 0.53125,1.90625 0.53125,1.890625 L 1.234375,-0.875 c 0.1875,0.609375 0.625,0.96875 1.359375,0.96875 C 3.3125,0.09375 4.0625,-0.25 4.515625,-0.6875 5,-1.140625 5.3125,-1.78125 5.3125,-2.515625 c 0,-0.71875 -0.375,-1.25 -0.734375,-1.484375 0.578125,-0.34375 1.15625,-0.953125 1.15625,-1.671875 z M 3.9375,-4.015625 c -0.125,0.046875 -0.234375,0.0625 -0.484375,0.0625 -0.140625,0 -0.328125,0.015625 -0.4375,-0.03125 0.03125,-0.109375 0.390625,-0.078125 0.5,-0.078125 0.203125,0 0.296875,0 0.421875,0.046875 z M 5.171875,-5.90625 c 0,0.703125 -0.375,1.421875 -0.890625,1.734375 C 4,-4.28125 3.8125,-4.296875 3.515625,-4.296875 c -0.21875,0 -0.78125,-0.015625 -0.78125,0.3125 0,0.28125 0.515625,0.25 0.6875,0.25 0.375,0 0.53125,0 0.828125,-0.125 0.375,0.359375 0.421875,0.671875 0.4375,1.125 0.015625,0.578125 -0.21875,1.328125 -0.5,1.71875 C 3.796875,-0.484375 3.125,-0.125 2.5625,-0.125 c -0.765625,0 -1.140625,-0.578125 -1.140625,-1.28125 0,-0.09375 0,-0.25 0.046875,-0.4375 L 2.109375,-4.359375 C 2.328125,-5.21875 3.046875,-6.8125 4.25,-6.8125 c 0.578125,0 0.921875,0.3125 0.921875,0.90625 z m 0,0"
               id="path12200" />
          </symbol>
        </g>
      </defs>
      <g
         id="textext-2d68729f-1">
        <g
           style="fill:#000000;fill-opacity:1"
           id="g12203">
          <use
             height="1052.3622"
             width="744.09448"
             xlink:href="#textext-2d68729f-0"
             x="223.43201"
             y="134.765"
             id="use12205" />
        </g>
      </g>
    </g>
    <g
       id="g9742"
       transform="matrix(4.5876391,0,0,4.5690468,-611.30499,-344.92828)"
       ns0:preamble=""
       ns0:text="$\\rm{C}$"
       inkscape:export-filename="/home/waldgeist/data/homepage/pics/mathematik/geometrie/dreieck-mittelpunkt.png"
       inkscape:export-xdpi="150"
       inkscape:export-ydpi="150">
      <defs
         id="defs9744">
        <g
           id="g9746">
          <symbol
             id="textext-dbe9b446-0"
             overflow="visible"
             style="overflow:visible">
            <path
               id="path9749"
               d=""
               style="stroke:none"
               inkscape:connector-curvature="0" />
          </symbol>
          <symbol
             id="textext-dbe9b446-1"
             overflow="visible"
             style="overflow:visible">
            <path
               id="path9752"
               d="m 0.5625,-3.40625 c 0,2.0625 1.609375,3.625 3.46875,3.625 1.625,0 2.59375,-1.390625 2.59375,-2.546875 C 6.625,-2.421875 6.625,-2.5 6.5,-2.5 6.390625,-2.5 6.390625,-2.4375 6.375,-2.328125 6.296875,-0.90625 5.234375,-0.09375 4.140625,-0.09375 c -0.609375,0 -2.5625,-0.328125 -2.5625,-3.3125 0,-2.96875 1.953125,-3.3125 2.5625,-3.3125 1.078125,0 1.96875,0.90625 2.171875,2.359375 0.015625,0.140625 0.015625,0.171875 0.15625,0.171875 0.15625,0 0.15625,-0.03125 0.15625,-0.234375 l 0,-2.359375 c 0,-0.171875 0,-0.25 -0.109375,-0.25 -0.03125,0 -0.078125,0 -0.15625,0.125 l -0.5,0.734375 C 5.5,-6.53125 4.984375,-7.03125 4.03125,-7.03125 c -1.875,0 -3.46875,1.59375 -3.46875,3.625 z"
               style="stroke:none"
               inkscape:connector-curvature="0" />
          </symbol>
        </g>
      </defs>
      <g
         id="textext-dbe9b446-2">
        <g
           id="g9755"
           style="fill:#000000;fill-opacity:1">
          <use
             id="use9757"
             y="134.765"
             x="223.43201"
             xlink:href="#textext-dbe9b446-1"
             width="744.09448"
             height="1052.3622" />
        </g>
      </g>
    </g>
    <g
       ns0:text="$\\rm{A}$"
       ns0:preamble=""
       transform="matrix(4.5690468,0,0,4.5690468,-940.22009,31.389982)"
       id="g9971"
       inkscape:export-filename="/home/waldgeist/data/homepage/pics/mathematik/geometrie/dreieck-mittelpunkt.png"
       inkscape:export-xdpi="150"
       inkscape:export-ydpi="150">
      <defs
         id="defs9973">
        <g
           id="g9975">
          <symbol
             style="overflow:visible"
             overflow="visible"
             id="textext-a37735b6-0">
            <path
               inkscape:connector-curvature="0"
               style="stroke:none"
               d=""
               id="path9978" />
          </symbol>
          <symbol
             style="overflow:visible"
             overflow="visible"
             id="textext-a37735b6-1">
            <path
               inkscape:connector-curvature="0"
               style="stroke:none"
               d="m 3.96875,-6.9375 c -0.046875,-0.125 -0.078125,-0.203125 -0.234375,-0.203125 -0.15625,0 -0.1875,0.0625 -0.234375,0.203125 L 1.4375,-0.984375 C 1.25,-0.46875 0.859375,-0.3125 0.3125,-0.3125 l 0,0.3125 c 0.234375,-0.015625 0.671875,-0.03125 1.015625,-0.03125 0.3125,0 0.828125,0.015625 1.15625,0.03125 l 0,-0.3125 c -0.5,0 -0.75,-0.25 -0.75,-0.5 0,-0.03125 0.015625,-0.140625 0.015625,-0.15625 l 0.46875,-1.296875 2.453125,0 0.53125,1.515625 c 0.015625,0.046875 0.03125,0.109375 0.03125,0.140625 0,0.296875 -0.5625,0.296875 -0.828125,0.296875 l 0,0.3125 c 0.359375,-0.03125 1.0625,-0.03125 1.4375,-0.03125 0.421875,0 0.890625,0.015625 1.296875,0.03125 l 0,-0.3125 -0.171875,0 C 6.375,-0.3125 6.234375,-0.375 6.125,-0.703125 z m -0.53125,1.109375 1.125,3.25 -2.234375,0 z"
               id="path9981" />
          </symbol>
        </g>
      </defs>
      <g
         id="textext-a37735b6-2">
        <g
           style="fill:#000000;fill-opacity:1"
           id="g9984">
          <use
             height="1052.3622"
             width="744.09448"
             xlink:href="#textext-a37735b6-1"
             x="223.43201"
             y="134.765"
             id="use9986" />
        </g>
      </g>
    </g>
    <g
       id="g10204"
       transform="matrix(4.5690468,0,0,4.5690468,-388.48325,50.654502)"
       ns0:preamble=""
       ns0:text="$\\rm{B}$"
       inkscape:export-filename="/home/waldgeist/data/homepage/pics/mathematik/geometrie/dreieck-mittelpunkt.png"
       inkscape:export-xdpi="150"
       inkscape:export-ydpi="150">
      <defs
         id="defs10206">
        <g
           id="g10208">
          <symbol
             id="textext-dc4e2a99-0"
             overflow="visible"
             style="overflow:visible">
            <path
               id="path10211"
               d=""
               style="stroke:none"
               inkscape:connector-curvature="0" />
          </symbol>
          <symbol
             id="textext-dc4e2a99-1"
             overflow="visible"
             style="overflow:visible">
            <path
               id="path10214"
               d="m 2.21875,-3.65625 0,-2.4375 C 2.21875,-6.4375 2.234375,-6.5 2.703125,-6.5 l 1.234375,0 c 0.96875,0 1.3125,0.84375 1.3125,1.375 0,0.640625 -0.484375,1.46875 -1.59375,1.46875 z M 4.5625,-3.5625 C 5.53125,-3.75 6.21875,-4.390625 6.21875,-5.125 6.21875,-5.984375 5.296875,-6.8125 4,-6.8125 l -3.640625,0 0,0.3125 0.234375,0 c 0.765625,0 0.796875,0.109375 0.796875,0.46875 l 0,5.25 c 0,0.359375 -0.03125,0.46875 -0.796875,0.46875 l -0.234375,0 0,0.3125 3.90625,0 c 1.328125,0 2.21875,-0.890625 2.21875,-1.828125 0,-0.859375 -0.8125,-1.609375 -1.921875,-1.734375 z m -0.609375,3.25 -1.25,0 c -0.46875,0 -0.484375,-0.0625 -0.484375,-0.390625 l 0,-2.71875 1.875,0 C 5.078125,-3.421875 5.5,-2.5 5.5,-1.828125 5.5,-1.125 4.96875,-0.3125 3.953125,-0.3125 z"
               style="stroke:none"
               inkscape:connector-curvature="0" />
          </symbol>
        </g>
      </defs>
      <g
         id="textext-dc4e2a99-2">
        <g
           id="g10217"
           style="fill:#000000;fill-opacity:1">
          <use
             id="use10219"
             y="134.765"
             x="223.43201"
             xlink:href="#textext-dc4e2a99-1"
             width="744.09448"
             height="1052.3622" />
        </g>
      </g>
    </g>
    <g
       inkscape:export-ydpi="150"
       inkscape:export-xdpi="150"
       inkscape:export-filename="/home/waldgeist/data/homepage/pics/mathematik/geometrie/dreieck-mittelpunkt.png"
       ns0:text="$\\gamma$"
       ns0:preamble=""
       transform="matrix(4.6372342,0,0,4.6372342,-628.86003,-289.75142)"
       id="g45370">
      <defs
         id="defs45372">
        <g
           id="g45374">
          <symbol
             style="overflow:visible"
             overflow="visible"
             id="textext-02cff600-0">
            <path
               inkscape:connector-curvature="0"
               style="stroke:none"
               d=""
               id="path45377" />
          </symbol>
          <symbol
             style="overflow:visible"
             overflow="visible"
             id="textext-02cff600-1">
            <path
               inkscape:connector-curvature="0"
               style="stroke:none"
               d="M 0.40625,-2.53125 C 0.796875,-3.671875 1.890625,-3.6875 2,-3.6875 c 1.5,0 1.609375,1.75 1.609375,2.53125 0,0.609375 -0.046875,0.78125 -0.125,0.984375 -0.21875,0.71875 -0.515625,1.875 -0.515625,2.140625 0,0.109375 0.046875,0.171875 0.125,0.171875 0.140625,0 0.21875,-0.21875 0.328125,-0.59375 C 3.65625,0.703125 3.75,0.140625 3.78125,-0.171875 c 0.03125,-0.125 0.046875,-0.25 0.09375,-0.390625 0.3125,-0.984375 0.953125,-2.46875 1.34375,-3.25 0.078125,-0.125 0.1875,-0.34375 0.1875,-0.390625 0,-0.09375 -0.09375,-0.09375 -0.109375,-0.09375 -0.03125,0 -0.09375,0 -0.125,0.0625 C 4.65625,-3.28125 4.25,-2.28125 3.859375,-1.28125 3.84375,-1.578125 3.84375,-2.34375 3.453125,-3.3125 3.203125,-3.921875 2.8125,-4.40625 2.125,-4.40625 c -1.25,0 -1.953125,1.515625 -1.953125,1.828125 0,0.09375 0.09375,0.09375 0.203125,0.09375 z m 0,0"
               id="path45380" />
          </symbol>
        </g>
      </defs>
      <g
         id="textext-02cff600-2">
        <g
           style="fill:#000000;fill-opacity:1"
           id="g45383">
          <use
             height="1052.3622"
             width="744.09448"
             xlink:href="#textext-02cff600-1"
             x="223.43201"
             y="134.765"
             id="use45385" />
        </g>
      </g>
    </g>
    <path
       inkscape:export-ydpi="150"
       inkscape:export-xdpi="150"
       inkscape:export-filename="/home/waldgeist/data/homepage/pics/mathematik/geometrie/dreieck-mittelpunkt.png"
       sodipodi:open="true"
       sodipodi:end="6.6887686"
       sodipodi:start="5.5671024"
       sodipodi:type="arc"
       style="color:#000000;fill:none;stroke:#000000;stroke-width:1.76175499;stroke-linecap:round;stroke-linejoin:round;stroke-miterlimit:4;stroke-opacity:1;stroke-dasharray:none;stroke-dashoffset:0;marker:none;visibility:visible;display:inline;overflow:visible;enable-background:accumulate"
       id="path46891"
       sodipodi:cx="-21.569786"
       sodipodi:cy="662.87848"
       sodipodi:rx="42.61348"
       sodipodi:ry="42.61348"
       d="m 10.577091,634.90551 a 42.61348,42.61348 0 0 1 7.009474,44.78632"
       transform="matrix(1.988005,-0.53268433,0.36464818,1.3608856,-82.254265,-304.13156)" />
    <path
       inkscape:export-ydpi="150"
       inkscape:export-xdpi="150"
       inkscape:export-filename="/home/waldgeist/data/homepage/pics/mathematik/geometrie/dreieck-mittelpunkt.png"
       sodipodi:open="true"
       sodipodi:end="4.1109782"
       sodipodi:start="2.8345819"
       sodipodi:type="arc"
       style="color:#000000;fill:none;stroke:#000000;stroke-width:1.76175499;stroke-linecap:round;stroke-linejoin:round;stroke-miterlimit:4;stroke-opacity:1;stroke-dasharray:none;stroke-dashoffset:0;marker:none;visibility:visible;display:inline;overflow:visible;enable-background:accumulate"
       id="path46904"
       sodipodi:cx="-21.569786"
       sodipodi:cy="662.87848"
       sodipodi:rx="42.61348"
       sodipodi:ry="42.61348"
       d="M -62.190711,675.75672 A 42.61348,42.61348 0 0 1 -45.68076,627.74204"
       transform="matrix(1.988005,0.53268433,-0.3646482,1.3608856,909.14843,-260.3196)" />
    <path
       inkscape:export-ydpi="150"
       inkscape:export-xdpi="150"
       inkscape:export-filename="/home/waldgeist/data/homepage/pics/mathematik/geometrie/dreieck-mittelpunkt.png"
       sodipodi:type="arc"
       style="color:#000000;fill:none;stroke:#000000;stroke-width:1.99985623;stroke-linecap:round;stroke-linejoin:round;stroke-miterlimit:4;stroke-opacity:1;stroke-dasharray:none;stroke-dashoffset:0;marker:none;visibility:visible;display:inline;overflow:visible;enable-background:accumulate"
       id="path46912"
       sodipodi:cx="-21.569786"
       sodipodi:cy="662.87848"
       sodipodi:rx="42.61348"
       sodipodi:ry="42.61348"
       d="m -57.711304,685.455 a 42.61348,42.61348 0 0 1 7.130442,-53.78976"
       transform="matrix(0,-1.5972288,1.4088926,0,-508.28706,251.08726)"
       sodipodi:start="2.5832307"
       sodipodi:end="3.9635405"
       sodipodi:open="true" />
    <g
       inkscape:export-ydpi="150"
       inkscape:export-xdpi="150"
       inkscape:export-filename="/home/waldgeist/data/homepage/pics/mathematik/geometrie/dreieck-mittelpunkt.png"
       id="g4055"
       transform="matrix(4.6372342,0,0,4.6372342,-878.57853,-26.705249)"
       ns0:preamble=""
       ns0:text="$\\alpha$">
      <defs
         id="defs4057">
        <g
           id="g4059">
          <symbol
             id="textext-d0596571-0"
             overflow="visible"
             style="overflow:visible">
            <path
               id="path4062"
               d=""
               style="stroke:none"
               inkscape:connector-curvature="0" />
          </symbol>
          <symbol
             id="textext-d0596571-1"
             overflow="visible"
             style="overflow:visible">
            <path
               id="path4065"
               d="m 4.75,-2.359375 c 0,-1.5625 -0.921875,-2.046875 -1.65625,-2.046875 -1.375,0 -2.6875,1.421875 -2.6875,2.828125 0,0.9375 0.59375,1.6875 1.625,1.6875 0.625,0 1.34375,-0.234375 2.09375,-0.84375 0.125,0.53125 0.453125,0.84375 0.90625,0.84375 0.53125,0 0.84375,-0.546875 0.84375,-0.703125 0,-0.078125 -0.0625,-0.109375 -0.125,-0.109375 -0.0625,0 -0.09375,0.03125 -0.125,0.109375 -0.1875,0.484375 -0.546875,0.484375 -0.5625,0.484375 -0.3125,0 -0.3125,-0.78125 -0.3125,-1.015625 0,-0.203125 0,-0.234375 0.109375,-0.34375 C 5.796875,-2.65625 6,-3.8125 6,-3.8125 6,-3.84375 5.984375,-3.921875 5.875,-3.921875 c -0.09375,0 -0.09375,0.03125 -0.140625,0.21875 -0.1875,0.625 -0.515625,1.375 -0.984375,1.96875 z m -0.65625,1.375 c -0.890625,0.765625 -1.65625,0.875 -2.046875,0.875 -0.59375,0 -0.90625,-0.453125 -0.90625,-1.09375 0,-0.484375 0.265625,-1.5625 0.578125,-2.0625 C 2.1875,-4 2.734375,-4.1875 3.078125,-4.1875 c 0.984375,0 0.984375,1.3125 0.984375,2.078125 0,0.375 0,0.953125 0.03125,1.125 z m 0,0"
               style="stroke:none"
               inkscape:connector-curvature="0" />
          </symbol>
        </g>
      </defs>
      <g
         id="textext-d0596571-2">
        <g
           id="g4068"
           style="fill:#000000;fill-opacity:1">
          <use
             id="use4070"
             y="134.765"
             x="223.43201"
             xlink:href="#textext-d0596571-1"
             width="744.09448"
             height="1052.3622" />
        </g>
      </g>
    </g>
    <path
       inkscape:connector-curvature="0"
       id="path6561"
       d="m 375.39371,490.71664 -4.82748,129.15955"
       style="fill:none;stroke:#5f8dd3;stroke-width:1.5;stroke-linecap:round;stroke-linejoin:miter;stroke-opacity:1"
       inkscape:export-filename="/home/waldgeist/data/homepage/pics/mathematik/geometrie/dreieck-mittelpunkt.png"
       inkscape:export-xdpi="150"
       inkscape:export-ydpi="150" />
    <path
       sodipodi:nodetypes="cc"
       style="fill:none;stroke:#5f8dd3;stroke-width:1.5;stroke-linecap:round;stroke-linejoin:miter;stroke-opacity:1"
       d="M 525.09383,457.91571 310.37962,581.79962"
       id="path6563"
       inkscape:connector-curvature="0"
       inkscape:export-filename="/home/waldgeist/data/homepage/pics/mathematik/geometrie/dreieck-mittelpunkt.png"
       inkscape:export-xdpi="150"
       inkscape:export-ydpi="150" />
    <path
       inkscape:connector-curvature="0"
       id="path6565"
       d="M 416.72816,586.23434 271.214,447.39054"
       style="fill:none;stroke:#5f8dd3;stroke-width:1.5;stroke-linecap:round;stroke-linejoin:miter;stroke-opacity:1"
       sodipodi:nodetypes="cc"
       inkscape:export-filename="/home/waldgeist/data/homepage/pics/mathematik/geometrie/dreieck-mittelpunkt.png"
       inkscape:export-xdpi="150"
       inkscape:export-ydpi="150" />
    <g
       id="g8517"
       transform="matrix(4.5690468,0,0,4.5690468,-639.01694,-64.868341)"
       ns0:preamble="/home/waldgeist/data/sphinx/inkscape-preamble.tex"
       ns0:text="$\\rm{M}$"
       style="fill:#003380;fill-opacity:1;stroke:#5f8dd3"
       inkscape:export-filename="/home/waldgeist/data/homepage/pics/mathematik/geometrie/dreieck-mittelpunkt.png"
       inkscape:export-xdpi="150"
       inkscape:export-ydpi="150">
      <defs
         id="defs8519">
        <g
           id="g8521">
          <symbol
             id="textext-dc8460af-0"
             overflow="visible"
             style="overflow:visible">
            <path
               id="path8524"
               d=""
               style="stroke:none"
               inkscape:connector-curvature="0" />
          </symbol>
          <symbol
             id="textext-dc8460af-1"
             overflow="visible"
             style="overflow:visible">
            <path
               id="path8527"
               d="M 2.40625,-6.59375 C 2.3125,-6.8125 2.28125,-6.8125 2.046875,-6.8125 l -1.671875,0 0,0.3125 0.234375,0 c 0.765625,0 0.78125,0.109375 0.78125,0.46875 l 0,4.984375 c 0,0.265625 0,0.734375 -1.015625,0.734375 L 0.375,0 c 0.34375,-0.015625 0.828125,-0.03125 1.15625,-0.03125 0.328125,0 0.828125,0.015625 1.171875,0.03125 l 0,-0.3125 c -1.03125,0 -1.03125,-0.46875 -1.03125,-0.734375 l 0,-5.375 0.015625,0 2.40625,6.203125 C 4.140625,-0.09375 4.1875,0 4.28125,0 4.390625,0 4.421875,-0.078125 4.46875,-0.1875 L 6.921875,-6.5 l 0,5.71875 c 0,0.359375 -0.015625,0.46875 -0.78125,0.46875 l -0.234375,0 0,0.3125 c 0.359375,-0.03125 1.046875,-0.03125 1.4375,-0.03125 0.375,0 1.046875,0 1.421875,0.03125 l 0,-0.3125 -0.25,0 c -0.765625,0 -0.78125,-0.109375 -0.78125,-0.46875 l 0,-5.25 C 7.734375,-6.390625 7.75,-6.5 8.515625,-6.5 l 0.25,0 0,-0.3125 -1.6875,0 C 6.8125,-6.8125 6.8125,-6.796875 6.75,-6.625 L 4.5625,-1 z m 0,0"
               style="stroke:none"
               inkscape:connector-curvature="0" />
          </symbol>
        </g>
      </defs>
      <g
         id="textext-dc8460af-2"
         style="fill:#003380;fill-opacity:1;stroke:#5f8dd3">
        <g
           id="g8530"
           style="fill:#003380;fill-opacity:1;stroke:#5f8dd3">
          <use
             id="use8532"
             y="134.765"
             x="223.43201"
             xlink:href="#textext-dc8460af-1"
             width="744.09448"
             height="1052.3622"
             style="fill:#003380;fill-opacity:1;stroke:#5f8dd3" />
        </g>
      </g>
    </g>
    <g
       id="g23344"
       transform="matrix(0.36447696,0,0,0.23165608,96.240662,421.96616)"
       style="fill:#37c837;stroke:#003380;stroke-width:6.88292599"
       inkscape:export-filename="/home/waldgeist/data/homepage/pics/mathematik/geometrie/dreieck-mittelpunkt.png"
       inkscape:export-xdpi="150"
       inkscape:export-ydpi="150">
      <path
         inkscape:connector-curvature="0"
         id="path23340"
         d="m 749.08334,510.76133 24.65195,42.69844"
         style="fill:#37c837;stroke:#003380;stroke-width:6.88292599;stroke-linecap:butt;stroke-linejoin:miter;stroke-opacity:1" />
      <path
         style="fill:#37c837;stroke:#003380;stroke-width:6.88292599;stroke-linecap:butt;stroke-linejoin:miter;stroke-opacity:1"
         d="m 773.73529,510.76133 -24.65195,42.69844"
         id="path23342"
         inkscape:connector-curvature="0" />
    </g>
  </g>
</svg>
