<svg xmlns:ns0="http://www.iki.fi/pav/software/textext/" xmlns="http://www.w3.org/2000/svg" xmlns:xlink="http://www.w3.org/1999/xlink" height="1488.189" width="2104.724"><title>Der Satz des Pythagoras</title><g transform="translate(0 435.827)"><use y="134.765" x="223.432" xlink:href="#textext-28c1ecfe-0" width="744.094" height="1052.362" transform="translate(-690.002 115.427) scale(3.49978)"/><use y="134.765" x="223.432" xlink:href="#textext-28c1ecfe-0" width="744.094" height="1052.362" transform="translate(-200.574 -112.91) scale(3.49978)"/><use y="134.765" x="223.432" xlink:href="#textext-28c1ecfe-0" width="744.094" height="1052.362" transform="translate(-200.574 -112.91) scale(3.49978)"/><path fill="#fff" stroke="#fff" stroke-width="3" stroke-linecap="square" d="M433.07-392.059h1238.583v1400.654H433.07z"/><path d="M1201.674 104.96l149.313 258.616h-597.25z" fill="#f9f9f9" stroke="#000" stroke-width="3" stroke-linecap="round"/><path opacity=".3" fill="green" stroke="green" stroke-width="3" stroke-linecap="round" d="M1460.29-45.008l149.313 258.616-258.616 149.312-149.312-258.616z"/><path opacity=".3" fill="purple" stroke="purple" stroke-width="3" stroke-linecap="round" d="M753.738 362.92h597.249v597.249H753.738z"/><path d="M1201.674 104.303l149.312 258.617H753.738z" fill="none" stroke="#000" stroke-width="3" stroke-linecap="round"/><g fill="navy" stroke="navy" stroke-width="3"><path d="M753.738 362.92L495.122-85.017M495.122-85.017l447.936-258.616M1201.674 104.303L943.058-343.633"/></g><g fill="purple" stroke="purple" stroke-width="3"><path d="M753.738 362.92v597.248M1350.987 362.92v597.248M1350.987 960.168h-597.25M1350.987 362.92h-597.25"/></g><g fill="green" stroke="green" stroke-width="3"><path d="M1460.29-45.009l149.313 258.617M1201.674 104.303l258.617-149.312M1350.987 362.92l258.616-149.312"/></g><g transform="matrix(4.63723 0 0 4.63723 5.387 46.57)" ns0:preamble="/home/waldgeist/data/sphinx/test.tex" ns0:text="$c^2$" fill="purple"><defs><symbol id="a" overflow="visible"><path d="M3.953-3.781c-.172 0-.297 0-.437.125a.53.53 0 0 0-.188.39c0 .25.188.36.375.36.281 0 .547-.25.547-.64 0-.485-.469-.86-1.172-.86-1.344 0-2.672 1.422-2.672 2.828C.406-.672.984.109 2.031.109c1.422 0 2.25-1.062 2.25-1.171 0-.063-.047-.141-.11-.141-.062 0-.077.031-.14.11-.781.984-1.875.984-1.984.984-.625 0-.906-.485-.906-1.094 0-.406.203-1.375.546-1.984.313-.579.86-1 1.407-1 .328 0 .719.125.86.406zm0 0"/></symbol><symbol id="b" overflow="visible"><path d="M3.516-1.266H3.28c-.015.157-.094.563-.187.625-.047.047-.578.047-.688.047H1.125c.734-.64.984-.844 1.39-1.172.516-.406 1-.843 1-1.5 0-.843-.734-1.359-1.624-1.359-.86 0-1.454.61-1.454 1.25 0 .344.297.39.376.39.156 0 .359-.124.359-.374 0-.125-.047-.375-.406-.375.218-.485.687-.641 1.015-.641.703 0 1.063.547 1.063 1.11 0 .609-.438 1.078-.656 1.328L.516-.266C.437-.203.437-.187.437 0h2.876zm0 0"/></symbol></defs><use height="1488.189" width="2104.724" y="134.765" x="223.432" xlink:href="#a"/><use height="1488.189" width="2104.724" y="131.15" x="227.743" xlink:href="#b"/></g><g transform="matrix(4.63723 0 0 4.63723 348.229 -464.859)" ns0:preamble="/home/waldgeist/data/sphinx/test.tex" ns0:text="$a^2$" fill="green"><defs><symbol id="c" overflow="visible"><path d="M3.719-3.766c-.188-.375-.469-.64-.922-.64-1.156 0-2.39 1.468-2.39 2.922C.406-.547.952.109 1.718.109c.203 0 .703-.046 1.297-.75a.91.91 0 0 0 .906.75c.36 0 .578-.234.75-.546a6.49 6.49 0 0 0 .297-.985c0-.11-.094-.11-.125-.11-.094 0-.11.048-.14.188-.173.64-.345 1.235-.75 1.235-.282 0-.298-.266-.298-.454 0-.218.016-.312.125-.75.11-.406.125-.515.219-.89l.36-1.39c.062-.282.062-.298.062-.345 0-.171-.11-.265-.281-.265-.25 0-.391.219-.422.437zm-.64 2.579c-.063.187-.063.203-.204.375-.438.546-.844.703-1.125.703-.5 0-.64-.547-.64-.938 0-.5.312-1.719.546-2.187.313-.579.75-.954 1.157-.954.64 0 .78.813.78.875a.562.562 0 0 1-.03.172zm0 0"/></symbol><symbol id="d" overflow="visible"><path d="M3.516-1.266H3.28c-.015.157-.094.563-.187.625-.047.047-.578.047-.688.047H1.125c.734-.64.984-.844 1.39-1.172.516-.406 1-.843 1-1.5 0-.843-.734-1.359-1.624-1.359-.86 0-1.454.61-1.454 1.25 0 .344.297.39.376.39.156 0 .359-.124.359-.374 0-.125-.047-.375-.406-.375.218-.485.687-.641 1.015-.641.703 0 1.063.547 1.063 1.11 0 .609-.438 1.078-.656 1.328L.516-.266C.437-.203.437-.187.437 0h2.876zm0 0"/></symbol></defs><use height="1488.189" width="2104.724" y="134.765" x="223.432" xlink:href="#c"/><use height="1488.189" width="2104.724" y="131.15" x="228.698" xlink:href="#d"/></g><g ns0:text="$b^2$" ns0:preamble="/home/waldgeist/data/sphinx/test.tex" transform="matrix(4.63723 0 0 4.63723 -206.861 -596.442)" fill="navy"><defs><symbol overflow="visible" id="e"><path d="M2.375-6.813s0-.109-.125-.109c-.219 0-.953.078-1.219.11-.078 0-.187.015-.187.187 0 .125.094.125.25.125.468 0 .484.063.484.172 0 .062-.078.406-.125.61l-.828 3.25c-.11.5-.156.671-.156 1.015C.469-.516 1 .109 1.734.109c1.172 0 2.407-1.484 2.407-2.921 0-.907-.532-1.594-1.329-1.594-.453 0-.874.297-1.171.593zm-.922 3.766c.047-.219.047-.234.14-.344.485-.64.938-.796 1.204-.796.36 0 .625.296.625.937 0 .594-.328 1.734-.516 2.11-.328.671-.781 1.03-1.172 1.03-.343 0-.671-.265-.671-1 0-.202 0-.39.156-1.015zm0 0"/></symbol><symbol overflow="visible" id="f"><path d="M3.516-1.266H3.28c-.015.157-.094.563-.187.625-.047.047-.578.047-.688.047H1.125c.734-.64.984-.844 1.39-1.172.516-.406 1-.843 1-1.5 0-.843-.734-1.359-1.624-1.359-.86 0-1.454.61-1.454 1.25 0 .344.297.39.376.39.156 0 .359-.124.359-.374 0-.125-.047-.375-.406-.375.218-.485.687-.641 1.015-.641.703 0 1.063.547 1.063 1.11 0 .609-.438 1.078-.656 1.328L.516-.266C.437-.203.437-.187.437 0h2.876zm0 0"/></symbol></defs><use height="1488.189" width="2104.724" xlink:href="#e" x="223.432" y="134.765"/><use height="1488.189" width="2104.724" xlink:href="#f" x="227.708" y="131.15"/></g><g fill="none" stroke="#000"><path d="M1220.947 139.771c-19.3 11.143-43.98 4.53-55.122-14.77" stroke-width="2.99980942" stroke-linecap="round"/><path d="M1195.944 127.04a.535.535 0 1 1 1.07 0 .535.535 0 0 1-1.07 0z" stroke-width="2.9997883200000004"/></g><path d="M753.738 362.92h597.248" fill="none" stroke="purple" stroke-width="3"/><path d="M1201.674 104.303l149.312 258.617" fill="none" stroke="green" stroke-width="3"/><path d="M753.738 362.92l447.936-258.617" fill="none" stroke="navy" stroke-width="3"/><path opacity=".3" fill="navy" stroke="navy" stroke-width="3" stroke-linecap="round" d="M495.121-85.017l447.936-258.616 258.617 447.937L753.738 362.92z"/><g transform="matrix(4.58764 0 0 4.56905 170.129 -530.073)" ns0:text="$\\rm{C}$"><defs><symbol id="g" overflow="visible"><path d="M.563-3.406C.563-1.344 2.171.219 4.03.219c1.625 0 2.594-1.39 2.594-2.547 0-.094 0-.172-.125-.172-.11 0-.11.063-.125.172C6.297-.906 5.235-.094 4.141-.094c-.61 0-2.563-.328-2.563-3.312 0-2.969 1.953-3.313 2.563-3.313 1.078 0 1.968.907 2.171 2.36.016.14.016.171.157.171.156 0 .156-.03.156-.234v-2.36c0-.171 0-.25-.11-.25-.03 0-.077 0-.156.126l-.5.734c-.359-.36-.875-.86-1.828-.86-1.875 0-3.468 1.595-3.468 3.626z"/></symbol></defs><use y="134.765" x="223.432" xlink:href="#g" width="744.094" height="1052.362"/></g><g ns0:text="$\\rm{A}$" transform="matrix(4.56905 0 0 4.56905 -310.635 -213.43)"><defs><symbol overflow="visible" id="h"><path d="M3.969-6.938c-.047-.125-.078-.203-.235-.203-.156 0-.187.063-.234.204L1.437-.984C1.25-.47.86-.313.313-.313V0c.235-.016.672-.031 1.016-.031.313 0 .828.015 1.156.031v-.313c-.5 0-.75-.25-.75-.5 0-.03.016-.14.016-.156l.469-1.297h2.453L5.203-.75a.58.58 0 0 1 .031.14c0 .297-.562.297-.828.297V0c.36-.031 1.063-.031 1.438-.031.422 0 .89.015 1.297.031v-.313h-.172c-.594 0-.735-.062-.844-.39zm-.531 1.11l1.124 3.25H2.329z"/></symbol></defs><use height="1052.362" width="744.094" xlink:href="#h" x="223.432" y="134.765"/></g><g transform="matrix(4.56905 0 0 4.56905 337.493 -211.215)" ns0:text="$\\rm{B}$"><defs><symbol id="i" overflow="visible"><path d="M2.219-3.656v-2.438c0-.343.015-.406.484-.406h1.235c.968 0 1.312.844 1.312 1.375 0 .64-.484 1.469-1.594 1.469zm2.344.094c.968-.188 1.656-.829 1.656-1.563 0-.86-.922-1.688-2.219-1.688H.36v.313h.234c.765 0 .797.11.797.469v5.25c0 .36-.032.469-.797.469H.359V0h3.907c1.328 0 2.218-.89 2.218-1.828 0-.86-.812-1.61-1.921-1.734zm-.61 3.25h-1.25c-.469 0-.484-.063-.484-.391v-2.719h1.875c.984 0 1.406.922 1.406 1.594 0 .703-.531 1.516-1.547 1.516z"/></symbol></defs><use y="134.765" x="223.432" xlink:href="#i" width="744.094" height="1052.362"/></g></g></svg>