<?xml version="1.0" encoding="UTF-8" standalone="no"?>
<!-- Created with Inkscape (http://www.inkscape.org/) -->

<svg
   xmlns:ns0="http://www.iki.fi/pav/software/textext/"
   xmlns:dc="http://purl.org/dc/elements/1.1/"
   xmlns:cc="http://creativecommons.org/ns#"
   xmlns:rdf="http://www.w3.org/1999/02/22-rdf-syntax-ns#"
   xmlns:svg="http://www.w3.org/2000/svg"
   xmlns="http://www.w3.org/2000/svg"
   xmlns:xlink="http://www.w3.org/1999/xlink"
   xmlns:sodipodi="http://sodipodi.sourceforge.net/DTD/sodipodi-0.dtd"
   xmlns:inkscape="http://www.inkscape.org/namespaces/inkscape"
   sodipodi:docname="dreieck-innenwinkel.svg"
   inkscape:version="0.48.4 r9939"
   version="1.1"
   id="svg2"
   height="1052.3622047"
   width="744.09448819">
  <title
     id="title4433">Innenwinkel eines Dreiecks</title>
  <sodipodi:namedview
     id="base"
     pagecolor="#ffffff"
     bordercolor="#666666"
     borderopacity="1.0"
     inkscape:pageopacity="0.0"
     inkscape:pageshadow="2"
     inkscape:zoom="0.96277139"
     inkscape:cx="300.33383"
     inkscape:cy="499.93152"
     inkscape:document-units="px"
     inkscape:current-layer="layer1"
     showgrid="false"
     inkscape:window-width="1600"
     inkscape:window-height="1150"
     inkscape:window-x="0"
     inkscape:window-y="0"
     inkscape:window-maximized="1"
     inkscape:snap-global="true"
     showguides="true"
     inkscape:guide-bbox="true"
     inkscape:object-paths="true"
     inkscape:object-nodes="true"
     inkscape:snap-smooth-nodes="true"
     inkscape:snap-center="false"
     inkscape:snap-object-midpoints="true" />
  <defs
     id="defs4" />
  <metadata
     id="metadata7">
    <rdf:RDF>
      <cc:Work
         rdf:about="">
        <dc:format>image/svg+xml</dc:format>
        <dc:type
           rdf:resource="http://purl.org/dc/dcmitype/StillImage" />
        <dc:title>Innenwinkel eines Dreiecks</dc:title>
        <dc:date>2014-08-30</dc:date>
        <dc:creator>
          <cc:Agent>
            <dc:title>Bernhard Grotz</dc:title>
          </cc:Agent>
        </dc:creator>
        <dc:rights>
          <cc:Agent>
            <dc:title>Bernhard Grotz</dc:title>
          </cc:Agent>
        </dc:rights>
        <dc:publisher>
          <cc:Agent>
            <dc:title>Bernhard Grotz</dc:title>
          </cc:Agent>
        </dc:publisher>
        <dc:language>de-DE</dc:language>
        <dc:subject>
          <rdf:Bag>
            <rdf:li>Mathematik</rdf:li>
            <rdf:li>Geometrie</rdf:li>
            <rdf:li>Planimetrie</rdf:li>
            <rdf:li>Dreieck</rdf:li>
            <rdf:li>Innenwinkel</rdf:li>
          </rdf:Bag>
        </dc:subject>
        <cc:license
           rdf:resource="http://creativecommons.org/licenses/by-nc-sa/3.0/" />
      </cc:Work>
      <cc:License
         rdf:about="http://creativecommons.org/licenses/by-nc-sa/3.0/">
        <cc:permits
           rdf:resource="http://creativecommons.org/ns#Reproduction" />
        <cc:permits
           rdf:resource="http://creativecommons.org/ns#Distribution" />
        <cc:requires
           rdf:resource="http://creativecommons.org/ns#Notice" />
        <cc:requires
           rdf:resource="http://creativecommons.org/ns#Attribution" />
        <cc:prohibits
           rdf:resource="http://creativecommons.org/ns#CommercialUse" />
        <cc:permits
           rdf:resource="http://creativecommons.org/ns#DerivativeWorks" />
        <cc:requires
           rdf:resource="http://creativecommons.org/ns#ShareAlike" />
      </cc:License>
    </rdf:RDF>
  </metadata>
  <g
     id="layer1"
     inkscape:groupmode="layer"
     inkscape:label="Layer 1">
    <path
       transform="matrix(1.988005,-0.53268433,0.36464818,1.3608856,-80.88128,-236.72419)"
       d="m 17.138235,680.69975 a 42.61348,42.61348 0 0 1 -70.707309,10.32041"
       sodipodi:ry="42.61348"
       sodipodi:rx="42.61348"
       sodipodi:cy="662.87848"
       sodipodi:cx="-21.569786"
       id="path46896"
       style="color:#000000;fill:none;stroke:#808080;stroke-width:1.76175499;stroke-linecap:round;stroke-linejoin:round;stroke-miterlimit:4;stroke-opacity:1;stroke-dasharray:none;stroke-dashoffset:0;marker:none;visibility:visible;display:inline;overflow:visible;enable-background:accumulate"
       sodipodi:type="arc"
       sodipodi:start="0.43147096"
       sodipodi:end="2.4202495"
       sodipodi:open="true"
       inkscape:export-filename="/home/waldgeist/data/homepage/pics/mathematik/geometrie/dreieck-innenwinkel.png"
       inkscape:export-xdpi="150"
       inkscape:export-ydpi="150" />
    <g
       ns0:text="$b$"
       ns0:preamble="/home/waldgeist/data/sphinx/test.tex"
       transform="matrix(7.4449455,0,0,7.4449455,-1139.9653,-447.43445)"
       id="g3817">
      <defs
         id="defs3819">
        <g
           id="g3821">
          <symbol
             style="overflow:visible"
             overflow="visible"
             id="textext-7eb8a748-0">
            <path
               inkscape:connector-curvature="0"
               style="stroke:none"
               d="m 2.375,-6.8125 c 0,0 0,-0.109375 -0.125,-0.109375 -0.21875,0 -0.953125,0.078125 -1.21875,0.109375 -0.078125,0 -0.1875,0.015625 -0.1875,0.1875 0,0.125 0.09375,0.125 0.25,0.125 0.46875,0 0.484375,0.0625 0.484375,0.171875 0,0.0625 -0.078125,0.40625 -0.125,0.609375 l -0.828125,3.25 c -0.109375,0.5 -0.15625,0.671875 -0.15625,1.015625 0,0.9375 0.53125,1.5625 1.265625,1.5625 1.171875,0 2.40625,-1.484375 2.40625,-2.921875 0,-0.90625 -0.53125,-1.59375 -1.328125,-1.59375 -0.453125,0 -0.875,0.296875 -1.171875,0.59375 z M 1.453125,-3.046875 C 1.5,-3.265625 1.5,-3.28125 1.59375,-3.390625 2.078125,-4.03125 2.53125,-4.1875 2.796875,-4.1875 c 0.359375,0 0.625,0.296875 0.625,0.9375 0,0.59375 -0.328125,1.734375 -0.515625,2.109375 -0.328125,0.671875 -0.78125,1.03125 -1.171875,1.03125 -0.34375,0 -0.671875,-0.265625 -0.671875,-1 0,-0.203125 0,-0.390625 0.15625,-1.015625 z m 0,0"
               id="path3824" />
          </symbol>
        </g>
      </defs>
      <g
         id="textext-7eb8a748-1">
        <g
           style="fill:#000000;fill-opacity:1"
           id="g3827" />
      </g>
    </g>
    <use
       transform="matrix(3.4997807,0,0,3.4997807,-690.00194,115.42685)"
       height="1052.3622"
       width="744.09448"
       xlink:href="#textext-28c1ecfe-0"
       x="223.43201"
       y="134.765"
       id="use3030-8"
       style="fill:#000000;fill-opacity:1" />
    <use
       transform="matrix(3.4997807,0,0,3.4997807,-200.5737,-112.9098)"
       height="1052.3622"
       width="744.09448"
       xlink:href="#textext-28c1ecfe-0"
       x="223.43201"
       y="134.765"
       id="use3030-8-7"
       style="fill:#000000;fill-opacity:1" />
    <use
       transform="matrix(3.4997807,0,0,3.4997807,-200.5737,-112.9098)"
       height="1052.3622"
       width="744.09448"
       xlink:href="#textext-28c1ecfe-0"
       x="223.43201"
       y="134.765"
       id="use3030-8-3"
       style="fill:#000000;fill-opacity:1" />
    <path
       transform="matrix(1.988005,-0.53268433,0.36464818,1.3608856,-80.88128,-236.72419)"
       d="m -60.116056,644.71 a 42.61348,42.61348 0 0 1 70.619114,-9.88934"
       sodipodi:ry="42.61348"
       sodipodi:rx="42.61348"
       sodipodi:cy="662.87848"
       sodipodi:cx="-21.569786"
       id="path46898"
       style="color:#000000;fill:none;stroke:#808080;stroke-width:1.76175499;stroke-linecap:round;stroke-linejoin:round;stroke-miterlimit:4;stroke-opacity:1;stroke-dasharray:none;stroke-dashoffset:0;marker:none;visibility:visible;display:inline;overflow:visible;enable-background:accumulate"
       sodipodi:type="arc"
       sodipodi:start="3.5820523"
       sodipodi:end="5.5644598"
       sodipodi:open="true"
       inkscape:export-filename="/home/waldgeist/data/homepage/pics/mathematik/geometrie/dreieck-innenwinkel.png"
       inkscape:export-xdpi="150"
       inkscape:export-ydpi="150" />
    <rect
       y="289.58353"
       x="3.8273926"
       height="473.19516"
       width="736.4397"
       id="rect3851"
       style="fill:#ffffff;fill-opacity:1;fill-rule:nonzero;stroke:#ffffff;stroke-width:3.00000024;stroke-linecap:square;stroke-linejoin:miter;stroke-miterlimit:4;stroke-opacity:1;stroke-dasharray:none;stroke-dashoffset:0"
       inkscape:export-filename="/home/waldgeist/data/homepage/pics/mathematik/geometrie/dreieck-innenwinkel.png"
       inkscape:export-xdpi="150"
       inkscape:export-ydpi="150" />
    <path
       style="fill:none;stroke:#808080;stroke-width:3;stroke-linecap:butt;stroke-linejoin:miter;stroke-opacity:1"
       d="m 249.22176,345.65524 355.57747,14.58254"
       id="path4431"
       inkscape:connector-curvature="0"
       inkscape:export-filename="/home/waldgeist/data/homepage/pics/mathematik/geometrie/dreieck-innenwinkel.png"
       inkscape:export-xdpi="150"
       inkscape:export-ydpi="150" />
    <path
       sodipodi:nodetypes="cccc"
       inkscape:connector-curvature="0"
       id="path9108"
       d="M 427.0105,352.94651 625.92312,697.69966 117.95531,676.86747 z"
       inkscape:transform-center-y="-43.102719"
       style="fill:#f9f9f9;stroke:#000000;stroke-width:3;stroke-linecap:round;stroke-linejoin:miter;stroke-miterlimit:4;stroke-opacity:1;stroke-dashoffset:0;fill-opacity:1"
       inkscape:export-filename="/home/waldgeist/data/homepage/pics/mathematik/geometrie/dreieck-innenwinkel.png"
       inkscape:export-xdpi="150"
       inkscape:export-ydpi="150" />
    <g
       id="g12193"
       transform="matrix(4.6372342,0,0,4.6372342,-470.3608,59.641444)"
       ns0:preamble="/home/waldgeist/data/sphinx/test.tex"
       ns0:text="$\\beta$"
       inkscape:export-filename="/home/waldgeist/data/homepage/pics/mathematik/geometrie/dreieck-innenwinkel.png"
       inkscape:export-xdpi="150"
       inkscape:export-ydpi="150">
      <defs
         id="defs12195">
        <g
           id="g12197">
          <symbol
             id="textext-2d68729f-0"
             overflow="visible"
             style="overflow:visible">
            <path
               id="path12200"
               d="m 5.734375,-5.671875 c 0,-0.75 -0.546875,-1.359375 -1.359375,-1.359375 -0.578125,0 -0.859375,0.15625 -1.203125,0.40625 C 2.625,-6.21875 2.078125,-5.25 1.890625,-4.5 L 0.296875,1.828125 C 0.296875,1.875 0.34375,1.9375 0.421875,1.9375 0.5,1.9375 0.53125,1.90625 0.53125,1.890625 L 1.234375,-0.875 c 0.1875,0.609375 0.625,0.96875 1.359375,0.96875 C 3.3125,0.09375 4.0625,-0.25 4.515625,-0.6875 5,-1.140625 5.3125,-1.78125 5.3125,-2.515625 c 0,-0.71875 -0.375,-1.25 -0.734375,-1.484375 0.578125,-0.34375 1.15625,-0.953125 1.15625,-1.671875 z M 3.9375,-4.015625 c -0.125,0.046875 -0.234375,0.0625 -0.484375,0.0625 -0.140625,0 -0.328125,0.015625 -0.4375,-0.03125 0.03125,-0.109375 0.390625,-0.078125 0.5,-0.078125 0.203125,0 0.296875,0 0.421875,0.046875 z M 5.171875,-5.90625 c 0,0.703125 -0.375,1.421875 -0.890625,1.734375 C 4,-4.28125 3.8125,-4.296875 3.515625,-4.296875 c -0.21875,0 -0.78125,-0.015625 -0.78125,0.3125 0,0.28125 0.515625,0.25 0.6875,0.25 0.375,0 0.53125,0 0.828125,-0.125 0.375,0.359375 0.421875,0.671875 0.4375,1.125 0.015625,0.578125 -0.21875,1.328125 -0.5,1.71875 C 3.796875,-0.484375 3.125,-0.125 2.5625,-0.125 c -0.765625,0 -1.140625,-0.578125 -1.140625,-1.28125 0,-0.09375 0,-0.25 0.046875,-0.4375 L 2.109375,-4.359375 C 2.328125,-5.21875 3.046875,-6.8125 4.25,-6.8125 c 0.578125,0 0.921875,0.3125 0.921875,0.90625 z m 0,0"
               style="stroke:none"
               inkscape:connector-curvature="0" />
          </symbol>
        </g>
      </defs>
      <g
         id="textext-2d68729f-1">
        <g
           id="g12203"
           style="fill:#000000;fill-opacity:1">
          <use
             id="use12205"
             y="134.765"
             x="223.43201"
             xlink:href="#textext-2d68729f-0"
             width="744.09448"
             height="1052.3622" />
        </g>
      </g>
    </g>
    <g
       inkscape:export-ydpi="150"
       inkscape:export-xdpi="150"
       inkscape:export-filename="/home/waldgeist/data/homepage/pics/mathematik/geometrie/dreieck-innenwinkel.png"
       ns0:text="$\\rm{C}$"
       ns0:preamble=""
       transform="matrix(4.5876391,0,0,4.5690468,-609.93201,-277.52091)"
       id="g9742">
      <defs
         id="defs9744">
        <g
           id="g9746">
          <symbol
             style="overflow:visible"
             overflow="visible"
             id="textext-dbe9b446-0">
            <path
               inkscape:connector-curvature="0"
               style="stroke:none"
               d=""
               id="path9749" />
          </symbol>
          <symbol
             style="overflow:visible"
             overflow="visible"
             id="textext-dbe9b446-1">
            <path
               inkscape:connector-curvature="0"
               style="stroke:none"
               d="m 0.5625,-3.40625 c 0,2.0625 1.609375,3.625 3.46875,3.625 1.625,0 2.59375,-1.390625 2.59375,-2.546875 C 6.625,-2.421875 6.625,-2.5 6.5,-2.5 6.390625,-2.5 6.390625,-2.4375 6.375,-2.328125 6.296875,-0.90625 5.234375,-0.09375 4.140625,-0.09375 c -0.609375,0 -2.5625,-0.328125 -2.5625,-3.3125 0,-2.96875 1.953125,-3.3125 2.5625,-3.3125 1.078125,0 1.96875,0.90625 2.171875,2.359375 0.015625,0.140625 0.015625,0.171875 0.15625,0.171875 0.15625,0 0.15625,-0.03125 0.15625,-0.234375 l 0,-2.359375 c 0,-0.171875 0,-0.25 -0.109375,-0.25 -0.03125,0 -0.078125,0 -0.15625,0.125 l -0.5,0.734375 C 5.5,-6.53125 4.984375,-7.03125 4.03125,-7.03125 c -1.875,0 -3.46875,1.59375 -3.46875,3.625 z"
               id="path9752" />
          </symbol>
        </g>
      </defs>
      <g
         id="textext-dbe9b446-2">
        <g
           style="fill:#000000;fill-opacity:1"
           id="g9755">
          <use
             height="1052.3622"
             width="744.09448"
             xlink:href="#textext-dbe9b446-1"
             x="223.43201"
             y="134.765"
             id="use9757" />
        </g>
      </g>
    </g>
    <g
       inkscape:export-ydpi="150"
       inkscape:export-xdpi="150"
       inkscape:export-filename="/home/waldgeist/data/homepage/pics/mathematik/geometrie/dreieck-innenwinkel.png"
       id="g9971"
       transform="matrix(4.5690468,0,0,4.5690468,-938.84711,98.79735)"
       ns0:preamble=""
       ns0:text="$\\rm{A}$">
      <defs
         id="defs9973">
        <g
           id="g9975">
          <symbol
             id="textext-a37735b6-0"
             overflow="visible"
             style="overflow:visible">
            <path
               id="path9978"
               d=""
               style="stroke:none"
               inkscape:connector-curvature="0" />
          </symbol>
          <symbol
             id="textext-a37735b6-1"
             overflow="visible"
             style="overflow:visible">
            <path
               id="path9981"
               d="m 3.96875,-6.9375 c -0.046875,-0.125 -0.078125,-0.203125 -0.234375,-0.203125 -0.15625,0 -0.1875,0.0625 -0.234375,0.203125 L 1.4375,-0.984375 C 1.25,-0.46875 0.859375,-0.3125 0.3125,-0.3125 l 0,0.3125 c 0.234375,-0.015625 0.671875,-0.03125 1.015625,-0.03125 0.3125,0 0.828125,0.015625 1.15625,0.03125 l 0,-0.3125 c -0.5,0 -0.75,-0.25 -0.75,-0.5 0,-0.03125 0.015625,-0.140625 0.015625,-0.15625 l 0.46875,-1.296875 2.453125,0 0.53125,1.515625 c 0.015625,0.046875 0.03125,0.109375 0.03125,0.140625 0,0.296875 -0.5625,0.296875 -0.828125,0.296875 l 0,0.3125 c 0.359375,-0.03125 1.0625,-0.03125 1.4375,-0.03125 0.421875,0 0.890625,0.015625 1.296875,0.03125 l 0,-0.3125 -0.171875,0 C 6.375,-0.3125 6.234375,-0.375 6.125,-0.703125 z m -0.53125,1.109375 1.125,3.25 -2.234375,0 z"
               style="stroke:none"
               inkscape:connector-curvature="0" />
          </symbol>
        </g>
      </defs>
      <g
         id="textext-a37735b6-2">
        <g
           id="g9984"
           style="fill:#000000;fill-opacity:1">
          <use
             id="use9986"
             y="134.765"
             x="223.43201"
             xlink:href="#textext-a37735b6-1"
             width="744.09448"
             height="1052.3622" />
        </g>
      </g>
    </g>
    <g
       inkscape:export-ydpi="150"
       inkscape:export-xdpi="150"
       inkscape:export-filename="/home/waldgeist/data/homepage/pics/mathematik/geometrie/dreieck-innenwinkel.png"
       ns0:text="$\\rm{B}$"
       ns0:preamble=""
       transform="matrix(4.5690468,0,0,4.5690468,-387.11027,118.06187)"
       id="g10204">
      <defs
         id="defs10206">
        <g
           id="g10208">
          <symbol
             style="overflow:visible"
             overflow="visible"
             id="textext-dc4e2a99-0">
            <path
               inkscape:connector-curvature="0"
               style="stroke:none"
               d=""
               id="path10211" />
          </symbol>
          <symbol
             style="overflow:visible"
             overflow="visible"
             id="textext-dc4e2a99-1">
            <path
               inkscape:connector-curvature="0"
               style="stroke:none"
               d="m 2.21875,-3.65625 0,-2.4375 C 2.21875,-6.4375 2.234375,-6.5 2.703125,-6.5 l 1.234375,0 c 0.96875,0 1.3125,0.84375 1.3125,1.375 0,0.640625 -0.484375,1.46875 -1.59375,1.46875 z M 4.5625,-3.5625 C 5.53125,-3.75 6.21875,-4.390625 6.21875,-5.125 6.21875,-5.984375 5.296875,-6.8125 4,-6.8125 l -3.640625,0 0,0.3125 0.234375,0 c 0.765625,0 0.796875,0.109375 0.796875,0.46875 l 0,5.25 c 0,0.359375 -0.03125,0.46875 -0.796875,0.46875 l -0.234375,0 0,0.3125 3.90625,0 c 1.328125,0 2.21875,-0.890625 2.21875,-1.828125 0,-0.859375 -0.8125,-1.609375 -1.921875,-1.734375 z m -0.609375,3.25 -1.25,0 c -0.46875,0 -0.484375,-0.0625 -0.484375,-0.390625 l 0,-2.71875 1.875,0 C 5.078125,-3.421875 5.5,-2.5 5.5,-1.828125 5.5,-1.125 4.96875,-0.3125 3.953125,-0.3125 z"
               id="path10214" />
          </symbol>
        </g>
      </defs>
      <g
         id="textext-dc4e2a99-2">
        <g
           style="fill:#000000;fill-opacity:1"
           id="g10217">
          <use
             height="1052.3622"
             width="744.09448"
             xlink:href="#textext-dc4e2a99-1"
             x="223.43201"
             y="134.765"
             id="use10219" />
        </g>
      </g>
    </g>
    <g
       id="g45370"
       transform="matrix(4.6372342,0,0,4.6372342,-627.48705,-222.34405)"
       ns0:preamble=""
       ns0:text="$\\gamma$"
       inkscape:export-filename="/home/waldgeist/data/homepage/pics/mathematik/geometrie/dreieck-innenwinkel.png"
       inkscape:export-xdpi="150"
       inkscape:export-ydpi="150">
      <defs
         id="defs45372">
        <g
           id="g45374">
          <symbol
             id="textext-02cff600-0"
             overflow="visible"
             style="overflow:visible">
            <path
               id="path45377"
               d=""
               style="stroke:none"
               inkscape:connector-curvature="0" />
          </symbol>
          <symbol
             id="textext-02cff600-1"
             overflow="visible"
             style="overflow:visible">
            <path
               id="path45380"
               d="M 0.40625,-2.53125 C 0.796875,-3.671875 1.890625,-3.6875 2,-3.6875 c 1.5,0 1.609375,1.75 1.609375,2.53125 0,0.609375 -0.046875,0.78125 -0.125,0.984375 -0.21875,0.71875 -0.515625,1.875 -0.515625,2.140625 0,0.109375 0.046875,0.171875 0.125,0.171875 0.140625,0 0.21875,-0.21875 0.328125,-0.59375 C 3.65625,0.703125 3.75,0.140625 3.78125,-0.171875 c 0.03125,-0.125 0.046875,-0.25 0.09375,-0.390625 0.3125,-0.984375 0.953125,-2.46875 1.34375,-3.25 0.078125,-0.125 0.1875,-0.34375 0.1875,-0.390625 0,-0.09375 -0.09375,-0.09375 -0.109375,-0.09375 -0.03125,0 -0.09375,0 -0.125,0.0625 C 4.65625,-3.28125 4.25,-2.28125 3.859375,-1.28125 3.84375,-1.578125 3.84375,-2.34375 3.453125,-3.3125 3.203125,-3.921875 2.8125,-4.40625 2.125,-4.40625 c -1.25,0 -1.953125,1.515625 -1.953125,1.828125 0,0.09375 0.09375,0.09375 0.203125,0.09375 z m 0,0"
               style="stroke:none"
               inkscape:connector-curvature="0" />
          </symbol>
        </g>
      </defs>
      <g
         id="textext-02cff600-2">
        <g
           id="g45383"
           style="fill:#000000;fill-opacity:1">
          <use
             id="use45385"
             y="134.765"
             x="223.43201"
             xlink:href="#textext-02cff600-1"
             width="744.09448"
             height="1052.3622" />
        </g>
      </g>
    </g>
    <path
       inkscape:export-ydpi="150"
       inkscape:export-xdpi="150"
       inkscape:export-filename="/home/waldgeist/data/homepage/pics/mathematik/geometrie/dreieck-innenwinkel.png"
       sodipodi:type="arc"
       style="color:#000000;fill:none;stroke:#808080;stroke-width:1.99985623;stroke-linecap:round;stroke-linejoin:round;stroke-miterlimit:4;stroke-opacity:1;stroke-dasharray:none;stroke-dashoffset:0;marker:none;visibility:visible;display:inline;overflow:visible;enable-background:accumulate"
       id="path3467"
       sodipodi:cx="-21.569786"
       sodipodi:cy="662.87848"
       sodipodi:rx="42.61348"
       sodipodi:ry="42.61348"
       d="m -50.23644,631.34863 a 42.61348,42.61348 0 0 1 30.190478,-11.05638"
       transform="matrix(0,-1.5972288,1.4088926,0,-506.91408,318.49463)"
       sodipodi:start="3.9745192"
       sodipodi:end="4.7481558"
       sodipodi:open="true" />
    <path
       sodipodi:end="2.5645623"
       sodipodi:start="1.628325"
       transform="matrix(0,-1.5972288,1.4088926,0,-506.91408,318.49463)"
       d="M -24.019931,705.42146 A 42.61348,42.61348 0 0 1 -57.283564,686.12573"
       sodipodi:ry="42.61348"
       sodipodi:rx="42.61348"
       sodipodi:cy="662.87848"
       sodipodi:cx="-21.569786"
       id="path3469"
       style="color:#000000;fill:none;stroke:#808080;stroke-width:1.99985623;stroke-linecap:round;stroke-linejoin:round;stroke-miterlimit:4;stroke-opacity:1;stroke-dasharray:none;stroke-dashoffset:0;marker:none;visibility:visible;display:inline;overflow:visible;enable-background:accumulate"
       sodipodi:type="arc"
       inkscape:export-filename="/home/waldgeist/data/homepage/pics/mathematik/geometrie/dreieck-innenwinkel.png"
       inkscape:export-xdpi="150"
       inkscape:export-ydpi="150"
       sodipodi:open="true" />
    <path
       transform="matrix(1.988005,-0.53268433,0.36464818,1.3608856,-80.88128,-236.72419)"
       d="m 10.577091,634.90551 a 42.61348,42.61348 0 0 1 7.009474,44.78632"
       sodipodi:ry="42.61348"
       sodipodi:rx="42.61348"
       sodipodi:cy="662.87848"
       sodipodi:cx="-21.569786"
       id="path46891"
       style="color:#000000;fill:none;stroke:#000000;stroke-width:1.76175499;stroke-linecap:round;stroke-linejoin:round;stroke-miterlimit:4;stroke-opacity:1;stroke-dasharray:none;stroke-dashoffset:0;marker:none;visibility:visible;display:inline;overflow:visible;enable-background:accumulate"
       sodipodi:type="arc"
       sodipodi:start="5.5671024"
       sodipodi:end="6.6887686"
       sodipodi:open="true"
       inkscape:export-filename="/home/waldgeist/data/homepage/pics/mathematik/geometrie/dreieck-innenwinkel.png"
       inkscape:export-xdpi="150"
       inkscape:export-ydpi="150" />
    <path
       transform="matrix(1.988005,0.53268433,-0.3646482,1.3608856,910.52141,-192.91223)"
       d="M -62.190711,675.75672 A 42.61348,42.61348 0 0 1 -45.68076,627.74204"
       sodipodi:ry="42.61348"
       sodipodi:rx="42.61348"
       sodipodi:cy="662.87848"
       sodipodi:cx="-21.569786"
       id="path46904"
       style="color:#000000;fill:none;stroke:#000000;stroke-width:1.76175499;stroke-linecap:round;stroke-linejoin:round;stroke-miterlimit:4;stroke-opacity:1;stroke-dasharray:none;stroke-dashoffset:0;marker:none;visibility:visible;display:inline;overflow:visible;enable-background:accumulate"
       sodipodi:type="arc"
       sodipodi:start="2.8345819"
       sodipodi:end="4.1109782"
       sodipodi:open="true"
       inkscape:export-filename="/home/waldgeist/data/homepage/pics/mathematik/geometrie/dreieck-innenwinkel.png"
       inkscape:export-xdpi="150"
       inkscape:export-ydpi="150" />
    <path
       sodipodi:open="true"
       sodipodi:end="3.9635405"
       sodipodi:start="2.5832307"
       transform="matrix(0,-1.5972288,1.4088926,0,-506.91408,318.49463)"
       d="m -57.711304,685.455 a 42.61348,42.61348 0 0 1 7.130442,-53.78976"
       sodipodi:ry="42.61348"
       sodipodi:rx="42.61348"
       sodipodi:cy="662.87848"
       sodipodi:cx="-21.569786"
       id="path46912"
       style="color:#000000;fill:none;stroke:#000000;stroke-width:1.99985623;stroke-linecap:round;stroke-linejoin:round;stroke-miterlimit:4;stroke-opacity:1;stroke-dasharray:none;stroke-dashoffset:0;marker:none;visibility:visible;display:inline;overflow:visible;enable-background:accumulate"
       sodipodi:type="arc"
       inkscape:export-filename="/home/waldgeist/data/homepage/pics/mathematik/geometrie/dreieck-innenwinkel.png"
       inkscape:export-xdpi="150"
       inkscape:export-ydpi="150" />
    <g
       ns0:text="$\\beta\'$"
       ns0:preamble=""
       transform="matrix(3.2460639,0,0,3.2460639,-273.43601,-51.15359)"
       id="g3591"
       style="fill:#808080"
       inkscape:export-filename="/home/waldgeist/data/homepage/pics/mathematik/geometrie/dreieck-innenwinkel.png"
       inkscape:export-xdpi="150"
       inkscape:export-ydpi="150">
      <defs
         id="defs3593">
        <g
           id="g3595">
          <symbol
             style="overflow:visible"
             overflow="visible"
             id="textext-83249bf3-0">
            <path
               inkscape:connector-curvature="0"
               style="stroke:none"
               d=""
               id="path3598" />
          </symbol>
          <symbol
             style="overflow:visible"
             overflow="visible"
             id="textext-83249bf3-1">
            <path
               inkscape:connector-curvature="0"
               style="stroke:none"
               d="m 5.734375,-5.671875 c 0,-0.75 -0.546875,-1.359375 -1.359375,-1.359375 -0.578125,0 -0.859375,0.15625 -1.203125,0.40625 C 2.625,-6.21875 2.078125,-5.25 1.890625,-4.5 L 0.296875,1.828125 C 0.296875,1.875 0.34375,1.9375 0.421875,1.9375 0.5,1.9375 0.53125,1.90625 0.53125,1.890625 L 1.234375,-0.875 c 0.1875,0.609375 0.625,0.96875 1.359375,0.96875 C 3.3125,0.09375 4.0625,-0.25 4.515625,-0.6875 5,-1.140625 5.3125,-1.78125 5.3125,-2.515625 c 0,-0.71875 -0.375,-1.25 -0.734375,-1.484375 0.578125,-0.34375 1.15625,-0.953125 1.15625,-1.671875 z M 3.9375,-4.015625 c -0.125,0.046875 -0.234375,0.0625 -0.484375,0.0625 -0.140625,0 -0.328125,0.015625 -0.4375,-0.03125 0.03125,-0.109375 0.390625,-0.078125 0.5,-0.078125 0.203125,0 0.296875,0 0.421875,0.046875 z M 5.171875,-5.90625 c 0,0.703125 -0.375,1.421875 -0.890625,1.734375 C 4,-4.28125 3.8125,-4.296875 3.515625,-4.296875 c -0.21875,0 -0.78125,-0.015625 -0.78125,0.3125 0,0.28125 0.515625,0.25 0.6875,0.25 0.375,0 0.53125,0 0.828125,-0.125 0.375,0.359375 0.421875,0.671875 0.4375,1.125 0.015625,0.578125 -0.21875,1.328125 -0.5,1.71875 C 3.796875,-0.484375 3.125,-0.125 2.5625,-0.125 c -0.765625,0 -1.140625,-0.578125 -1.140625,-1.28125 0,-0.09375 0,-0.25 0.046875,-0.4375 L 2.109375,-4.359375 C 2.328125,-5.21875 3.046875,-6.8125 4.25,-6.8125 c 0.578125,0 0.921875,0.3125 0.921875,0.90625 z m 0,0"
               id="path3601" />
          </symbol>
          <symbol
             style="overflow:visible"
             overflow="visible"
             id="textext-83249bf3-2">
            <path
               inkscape:connector-curvature="0"
               style="stroke:none"
               d=""
               id="path3604" />
          </symbol>
          <symbol
             style="overflow:visible"
             overflow="visible"
             id="textext-83249bf3-3">
            <path
               inkscape:connector-curvature="0"
               style="stroke:none"
               d="m 2.015625,-3.296875 c 0.0625,-0.109375 0.0625,-0.171875 0.0625,-0.21875 0,-0.21875 -0.1875,-0.375 -0.40625,-0.375 -0.265625,0 -0.34375,0.21875 -0.375,0.328125 L 0.375,-0.546875 c -0.015625,0.015625 -0.046875,0.09375 -0.046875,0.109375 0,0.078125 0.21875,0.15625 0.28125,0.15625 0.046875,0 0.046875,-0.015625 0.09375,-0.125 z m 0,0"
               id="path3607" />
          </symbol>
        </g>
      </defs>
      <g
         id="textext-83249bf3-4"
         style="fill:#808080">
        <g
           style="fill:#808080;fill-opacity:1"
           id="g3610">
          <use
             height="1052.3622"
             width="744.09448"
             xlink:href="#textext-83249bf3-1"
             x="223.43201"
             y="134.765"
             id="use3612"
             style="fill:#808080" />
        </g>
        <g
           style="fill:#808080;fill-opacity:1"
           id="g3614">
          <use
             height="1052.3622"
             width="744.09448"
             xlink:href="#textext-83249bf3-3"
             x="229.593"
             y="131.14999"
             id="use3616"
             style="fill:#808080" />
        </g>
      </g>
    </g>
    <g
       ns0:text="$\\alpha$"
       ns0:preamble=""
       transform="matrix(4.6372342,0,0,4.6372342,-877.20555,40.702119)"
       id="g4055"
       inkscape:export-filename="/home/waldgeist/data/homepage/pics/mathematik/geometrie/dreieck-innenwinkel.png"
       inkscape:export-xdpi="150"
       inkscape:export-ydpi="150">
      <defs
         id="defs4057">
        <g
           id="g4059">
          <symbol
             style="overflow:visible"
             overflow="visible"
             id="textext-d0596571-0">
            <path
               inkscape:connector-curvature="0"
               style="stroke:none"
               d=""
               id="path4062" />
          </symbol>
          <symbol
             style="overflow:visible"
             overflow="visible"
             id="textext-d0596571-1">
            <path
               inkscape:connector-curvature="0"
               style="stroke:none"
               d="m 4.75,-2.359375 c 0,-1.5625 -0.921875,-2.046875 -1.65625,-2.046875 -1.375,0 -2.6875,1.421875 -2.6875,2.828125 0,0.9375 0.59375,1.6875 1.625,1.6875 0.625,0 1.34375,-0.234375 2.09375,-0.84375 0.125,0.53125 0.453125,0.84375 0.90625,0.84375 0.53125,0 0.84375,-0.546875 0.84375,-0.703125 0,-0.078125 -0.0625,-0.109375 -0.125,-0.109375 -0.0625,0 -0.09375,0.03125 -0.125,0.109375 -0.1875,0.484375 -0.546875,0.484375 -0.5625,0.484375 -0.3125,0 -0.3125,-0.78125 -0.3125,-1.015625 0,-0.203125 0,-0.234375 0.109375,-0.34375 C 5.796875,-2.65625 6,-3.8125 6,-3.8125 6,-3.84375 5.984375,-3.921875 5.875,-3.921875 c -0.09375,0 -0.09375,0.03125 -0.140625,0.21875 -0.1875,0.625 -0.515625,1.375 -0.984375,1.96875 z m -0.65625,1.375 c -0.890625,0.765625 -1.65625,0.875 -2.046875,0.875 -0.59375,0 -0.90625,-0.453125 -0.90625,-1.09375 0,-0.484375 0.265625,-1.5625 0.578125,-2.0625 C 2.1875,-4 2.734375,-4.1875 3.078125,-4.1875 c 0.984375,0 0.984375,1.3125 0.984375,2.078125 0,0.375 0,0.953125 0.03125,1.125 z m 0,0"
               id="path4065" />
          </symbol>
        </g>
      </defs>
      <g
         id="textext-d0596571-2">
        <g
           style="fill:#000000;fill-opacity:1"
           id="g4068">
          <use
             height="1052.3622"
             width="744.09448"
             xlink:href="#textext-d0596571-1"
             x="223.43201"
             y="134.765"
             id="use4070" />
        </g>
      </g>
    </g>
    <g
       id="g4290"
       transform="matrix(3.2460639,0,0,3.2460639,-348.94404,-57.156476)"
       ns0:preamble="/home/waldgeist/data/sphinx/inkscape-preamble.tex"
       ns0:text="$\\alpha\'$"
       style="fill:#808080"
       inkscape:export-filename="/home/waldgeist/data/homepage/pics/mathematik/geometrie/dreieck-innenwinkel.png"
       inkscape:export-xdpi="150"
       inkscape:export-ydpi="150">
      <defs
         id="defs4292">
        <g
           id="g4294">
          <symbol
             id="textext-b676c31c-0"
             overflow="visible"
             style="overflow:visible">
            <path
               id="path4297"
               d=""
               style="stroke:none"
               inkscape:connector-curvature="0" />
          </symbol>
          <symbol
             id="textext-b676c31c-1"
             overflow="visible"
             style="overflow:visible">
            <path
               id="path4300"
               d="m 4.75,-2.359375 c 0,-1.5625 -0.921875,-2.046875 -1.65625,-2.046875 -1.375,0 -2.6875,1.421875 -2.6875,2.828125 0,0.9375 0.59375,1.6875 1.625,1.6875 0.625,0 1.34375,-0.234375 2.09375,-0.84375 0.125,0.53125 0.453125,0.84375 0.90625,0.84375 0.53125,0 0.84375,-0.546875 0.84375,-0.703125 0,-0.078125 -0.0625,-0.109375 -0.125,-0.109375 -0.0625,0 -0.09375,0.03125 -0.125,0.109375 -0.1875,0.484375 -0.546875,0.484375 -0.5625,0.484375 -0.3125,0 -0.3125,-0.78125 -0.3125,-1.015625 0,-0.203125 0,-0.234375 0.109375,-0.34375 C 5.796875,-2.65625 6,-3.8125 6,-3.8125 6,-3.84375 5.984375,-3.921875 5.875,-3.921875 c -0.09375,0 -0.09375,0.03125 -0.140625,0.21875 -0.1875,0.625 -0.515625,1.375 -0.984375,1.96875 z m -0.65625,1.375 c -0.890625,0.765625 -1.65625,0.875 -2.046875,0.875 -0.59375,0 -0.90625,-0.453125 -0.90625,-1.09375 0,-0.484375 0.265625,-1.5625 0.578125,-2.0625 C 2.1875,-4 2.734375,-4.1875 3.078125,-4.1875 c 0.984375,0 0.984375,1.3125 0.984375,2.078125 0,0.375 0,0.953125 0.03125,1.125 z m 0,0"
               style="stroke:none"
               inkscape:connector-curvature="0" />
          </symbol>
          <symbol
             id="textext-b676c31c-2"
             overflow="visible"
             style="overflow:visible">
            <path
               id="path4303"
               d=""
               style="stroke:none"
               inkscape:connector-curvature="0" />
          </symbol>
          <symbol
             id="textext-b676c31c-3"
             overflow="visible"
             style="overflow:visible">
            <path
               id="path4306"
               d="m 2.015625,-3.296875 c 0.0625,-0.109375 0.0625,-0.171875 0.0625,-0.21875 0,-0.21875 -0.1875,-0.375 -0.40625,-0.375 -0.265625,0 -0.34375,0.21875 -0.375,0.328125 L 0.375,-0.546875 c -0.015625,0.015625 -0.046875,0.09375 -0.046875,0.109375 0,0.078125 0.21875,0.15625 0.28125,0.15625 0.046875,0 0.046875,-0.015625 0.09375,-0.125 z m 0,0"
               style="stroke:none"
               inkscape:connector-curvature="0" />
          </symbol>
        </g>
      </defs>
      <g
         id="textext-b676c31c-4"
         style="fill:#808080">
        <g
           id="g4309"
           style="fill:#808080;fill-opacity:1">
          <use
             id="use4311"
             y="134.765"
             x="223.43201"
             xlink:href="#textext-b676c31c-1"
             width="744.09448"
             height="1052.3622"
             style="fill:#808080" />
        </g>
        <g
           id="g4313"
           style="fill:#808080;fill-opacity:1">
          <use
             id="use4315"
             y="131.149"
             x="229.842"
             xlink:href="#textext-b676c31c-3"
             width="744.09448"
             height="1052.3622"
             style="fill:#808080" />
        </g>
      </g>
    </g>
  </g>
</svg>
