<svg xmlns:ns0="http://www.iki.fi/pav/software/textext/" xmlns="http://www.w3.org/2000/svg" xmlns:xlink="http://www.w3.org/1999/xlink" height="1052.362" width="744.094"><title>Das rechtwinklige Dreieck</title><use y="134.765" x="223.432" xlink:href="#textext-28c1ecfe-0" width="744.094" height="1052.362" transform="translate(-690.002 115.427) scale(3.49978)"/><use y="134.765" x="223.432" xlink:href="#textext-28c1ecfe-0" width="744.094" height="1052.362" transform="translate(-200.574 -112.91) scale(3.49978)"/><use y="134.765" x="223.432" xlink:href="#textext-28c1ecfe-0" width="744.094" height="1052.362" transform="translate(-200.574 -112.91) scale(3.49978)"/><path fill="#fff" stroke="#fff" stroke-width="3" stroke-linecap="square" d="M12.755 337.283h718.583V715.08H12.755z"/><path d="M519.333 402.587l149.312 258.617H71.396z" fill="#f9f9f9" stroke="#000" stroke-width="3" stroke-linecap="round"/><g transform="matrix(4.63723 0 0 4.63723 -511.467 -83.897)" ns0:preamble="/home/waldgeist/data/sphinx/test.tex" ns0:text="$h$" fill="gray" stroke="gray"><defs><symbol id="a" overflow="visible"><path d="M2.86-6.813s0-.109-.126-.109c-.234 0-.953.078-1.218.11-.079 0-.188.015-.188.187 0 .125.094.125.234.125.485 0 .5.063.5.172l-.03.203L.593-.391C.547-.25.547-.234.547-.17c0 .234.203.28.297.28a.407.407 0 0 0 .36-.265l.187-.75.218-.89c.063-.235.125-.454.172-.673.016-.062.11-.39.11-.453.03-.094.343-.64.687-.922.219-.156.516-.344.953-.344.422 0 .531.344.531.704 0 .53-.375 1.625-.609 2.234-.078.219-.14.344-.14.547 0 .469.359.812.828.812.937 0 1.296-1.453 1.296-1.53 0-.11-.078-.11-.109-.11-.11 0-.11.031-.156.187-.14.532-.469 1.235-1.016 1.235-.172 0-.234-.094-.234-.329 0-.25.078-.484.172-.703.156-.437.61-1.625.61-2.203 0-.64-.391-1.062-1.141-1.062-.626 0-1.11.312-1.485.765zm0 0" stroke="none"/></symbol></defs><use transform="translate(0 12.076)" y="134.765" x="223.432" xlink:href="#a" width="744.094" height="1052.362"/></g><path d="M519.333 658.385V405.913" fill="none" stroke="gray" stroke-width="2" stroke-linecap="round" stroke-dasharray="5.99999962,5.99999962"/><g fill="none" stroke="gray" stroke-linecap="round"><path d="M519.333 638.621c11.158 0 20.204 9.046 20.204 20.205" stroke-width="3"/><path d="M526.391 650.942a.268.268 0 1 1 .536 0 .268.268 0 0 1-.536 0z" stroke-width="3.00001482"/></g><path d="M259.4 503.071s0-.506-.579-.506c-1.012 0-4.412.361-5.642.506-.361 0-.868.072-.868.868 0 .579.434.579 1.158.579 2.17 0 2.242.29 2.242.795 0 .29-.362 1.881-.579 2.821L251.3 523.18c-.507 2.315-.724 3.11-.724 4.702 0 4.34 2.46 7.233 5.86 7.233 5.424 0 11.138-6.871 11.138-13.526 0-4.195-2.459-7.378-6.148-7.378-2.097 0-4.05 1.375-5.425 2.749zm-4.268 17.432c.217-1.013.217-1.085.651-1.591 2.243-2.966 4.34-3.69 5.57-3.69 1.664 0 2.893 1.375 2.893 4.34 0 2.75-1.519 8.03-2.387 9.766-1.519 3.11-3.616 4.773-5.425 4.773-1.591 0-3.11-1.23-3.11-4.629 0-.94 0-1.808.723-4.701zm0 0" ns0:text="$b$" ns0:preamble="/home/waldgeist/data/sphinx/test.tex" fill="#4d4d4d"/><path d="M630.59 511.353c-.868-1.736-2.17-2.965-4.268-2.965-5.352 0-11.067 6.799-11.067 13.526 0 4.34 2.532 7.377 6.076 7.377.94 0 3.255-.217 6.004-3.472a4.217 4.217 0 0 0 4.195 3.472c1.664 0 2.676-1.085 3.472-2.531.723-1.664 1.374-4.485 1.374-4.557 0-.506-.434-.506-.578-.506-.434 0-.507.217-.651.868-.796 2.965-1.592 5.714-3.472 5.714-1.302 0-1.375-1.23-1.375-2.098 0-1.013.073-1.447.579-3.472.506-1.88.579-2.387 1.013-4.123l1.663-6.437c.29-1.302.29-1.375.29-1.592 0-.795-.507-1.23-1.302-1.23-1.158 0-1.809 1.013-1.953 2.026zm-2.966 11.935c-.29.868-.29.94-.94 1.736-2.025 2.531-3.906 3.255-5.208 3.255-2.315 0-2.966-2.532-2.966-4.34 0-2.315 1.447-7.957 2.532-10.127 1.447-2.676 3.472-4.412 5.352-4.412 2.966 0 3.617 3.761 3.617 4.05a2.6 2.6 0 0 1-.145.796zm0 0" ns0:preamble="/home/waldgeist/data/sphinx/test.tex" ns0:text="$a$" fill="#4d4d4d"/><g transform="matrix(4.63723 0 0 4.63723 -753.377 77.157)" ns0:preamble="/home/waldgeist/data/sphinx/test.tex" ns0:text="$p$"><defs><symbol id="b" overflow="visible"><path d="M.453 1.219c-.078.343-.11.406-.547.406-.11 0-.218 0-.218.188 0 .078.046.125.124.125.266 0 .563-.032.829-.032.343 0 .671.032 1 .032.046 0 .171 0 .171-.204 0-.109-.093-.109-.234-.109-.5 0-.5-.063-.5-.156 0-.125.422-1.75.484-2 .125.297.407.64.922.64 1.157 0 2.407-1.453 2.407-2.921 0-.938-.579-1.594-1.329-1.594-.5 0-.984.36-1.312.75-.094-.547-.531-.75-.89-.75-.47 0-.657.39-.735.562-.188.344-.313.938-.313.969 0 .11.094.11.11.11.11 0 .11-.016.172-.235.172-.703.375-1.188.734-1.188.172 0 .313.079.313.454 0 .234-.032.343-.079.515zm1.75-4.328c.063-.266.344-.547.516-.704.36-.296.64-.374.812-.374.39 0 .64.343.64.937 0 .594-.327 1.734-.515 2.11-.344.702-.812 1.03-1.187 1.03-.656 0-.781-.828-.781-.89 0-.016 0-.031.03-.156zm0 0"/></symbol></defs><use height="1052.362" width="744.094" y="134.765" x="223.432" xlink:href="#b"/></g><g ns0:text="$q$" ns0:preamble="/home/waldgeist/data/sphinx/test.tex" transform="matrix(4.63723 0 0 4.63723 -453.494 77.157)"><defs><symbol overflow="visible" id="c"><path d="M4.5-4.297c0-.047-.031-.094-.094-.094-.11 0-.515.391-.672.688-.218-.547-.609-.703-.937-.703-1.172 0-2.39 1.468-2.39 2.922C.406-.516.983.109 1.718.109c.422 0 .812-.234 1.172-.593-.094.343-.422 1.687-.454 1.78-.078.282-.156.313-.718.329-.125 0-.219 0-.219.203 0 0 0 .11.125.11.313 0 .672-.032 1-.032.328 0 .688.032 1.031.032.047 0 .172 0 .172-.204 0-.109-.094-.109-.265-.109-.47 0-.47-.063-.47-.156 0-.078.016-.14.032-.219zM1.75-.109c-.61 0-.64-.766-.64-.938 0-.484.28-1.562.452-1.984.313-.735.829-1.156 1.235-1.156.656 0 .797.812.797.875 0 .062-.547 2.25-.578 2.28-.157.282-.72.923-1.266.923zm0 0"/></symbol></defs><use height="1052.362" width="744.094" xlink:href="#c" x="223.432" y="134.765"/></g><g ns0:text="$\\rm{C}$" transform="matrix(4.58764 0 0 4.56905 -520.186 -229.789)"><defs><symbol overflow="visible" id="d"><path d="M.563-3.406C.563-1.344 2.171.219 4.03.219c1.625 0 2.594-1.39 2.594-2.547 0-.094 0-.172-.125-.172-.11 0-.11.063-.125.172C6.297-.906 5.235-.094 4.141-.094c-.61 0-2.563-.328-2.563-3.312 0-2.969 1.953-3.313 2.563-3.313 1.078 0 1.968.907 2.171 2.36.016.14.016.171.157.171.156 0 .156-.03.156-.234v-2.36c0-.171 0-.25-.11-.25-.03 0-.077 0-.156.126l-.5.734c-.359-.36-.875-.86-1.828-.86-1.875 0-3.468 1.595-3.468 3.626z"/></symbol></defs><use height="1052.362" width="744.094" xlink:href="#d" x="223.432" y="134.765"/></g><g transform="matrix(4.56905 0 0 4.56905 -990.95 86.853)" ns0:text="$\\rm{A}$"><defs><symbol id="e" overflow="visible"><path d="M3.969-6.938c-.047-.125-.078-.203-.235-.203-.156 0-.187.063-.234.204L1.437-.984C1.25-.47.86-.313.313-.313V0c.235-.016.672-.031 1.016-.031.313 0 .828.015 1.156.031v-.313c-.5 0-.75-.25-.75-.5 0-.03.016-.14.016-.156l.469-1.297h2.453L5.203-.75a.58.58 0 0 1 .031.14c0 .297-.562.297-.828.297V0c.36-.031 1.063-.031 1.438-.031.422 0 .89.015 1.297.031v-.313h-.172c-.594 0-.735-.062-.844-.39zm-.531 1.11l1.124 3.25H2.329z"/></symbol></defs><use y="134.765" x="223.432" xlink:href="#e" width="744.094" height="1052.362"/></g><g ns0:text="$\\rm{B}$" transform="matrix(4.56905 0 0 4.56905 -342.822 91.069)"><defs><symbol overflow="visible" id="f"><path d="M2.219-3.656v-2.438c0-.343.015-.406.484-.406h1.235c.968 0 1.312.844 1.312 1.375 0 .64-.484 1.469-1.594 1.469zm2.344.094c.968-.188 1.656-.829 1.656-1.563 0-.86-.922-1.688-2.219-1.688H.36v.313h.234c.765 0 .797.11.797.469v5.25c0 .36-.032.469-.797.469H.359V0h3.907c1.328 0 2.218-.89 2.218-1.828 0-.86-.812-1.61-1.921-1.734zm-.61 3.25h-1.25c-.469 0-.484-.063-.484-.391v-2.719h1.875c.984 0 1.406.922 1.406 1.594 0 .703-.531 1.516-1.547 1.516z"/></symbol></defs><use height="1052.362" width="744.094" xlink:href="#f" x="223.432" y="134.765"/></g><g transform="matrix(4.56905 0 0 4.56905 -516.338 91.069)" ns0:preamble="/home/waldgeist/data/sphinx/inkscape-preamble.tex" ns0:text="$\\rm{H}_c$"><defs><symbol id="g" overflow="visible"><path d="M6.11-6.031c0-.36.015-.469.78-.469h.25v-.313c-.359.032-1.093.032-1.468.032s-1.125 0-1.469-.032v.313h.234c.766 0 .782.11.782.469v2.328H2.25v-2.328c0-.36.016-.469.781-.469h.235v-.313c-.344.032-1.079.032-1.47.032-.374 0-1.124 0-1.468-.032v.313h.234c.766 0 .797.11.797.469v5.25c0 .36-.03.469-.796.469H.328V0c.344-.031 1.094-.031 1.469-.031s1.125 0 1.469.031v-.313H3.03c-.765 0-.781-.109-.781-.468v-2.61h2.969v2.61c0 .36-.016.469-.782.469h-.234V0c.344-.031 1.078-.031 1.453-.031.39 0 1.125 0 1.485.031v-.313h-.25c-.766 0-.782-.109-.782-.468zm0 0"/></symbol><symbol id="h" overflow="visible"><path d="M2.703-2.781a.328.328 0 0 0-.187.312c0 .188.125.328.328.328.187 0 .328-.125.328-.343 0-.625-.969-.625-1.156-.625C.969-3.11.328-2.313.328-1.5c0 .875.734 1.563 1.656 1.563 1.032 0 1.282-.813 1.282-.907 0-.078-.094-.078-.125-.078-.094 0-.094.016-.125.125-.157.422-.532.64-.954.64-.484 0-1.109-.359-1.109-1.359 0-.875.438-1.375 1.078-1.375.094 0 .422 0 .672.11zm0 0"/></symbol></defs><use y="134.765" x="223.432" xlink:href="#g"/><use y="136.259" x="230.904" xlink:href="#h"/></g><path d="M151.396 615.016a49.497 49.497 0 0 1 23.05 44.477" fill="#fff" stroke="#000" stroke-width="3" stroke-linecap="square"/><path d="M151.172 639.951c0-5.797-3.42-7.593-6.145-7.593-5.1 0-9.97 5.274-9.97 10.491 0 3.478 2.203 6.26 6.029 6.26 2.318 0 4.985-.869 7.767-3.13.464 1.971 1.681 3.13 3.362 3.13 1.97 0 3.13-2.028 3.13-2.608 0-.29-.232-.406-.464-.406-.231 0-.347.116-.463.406-.696 1.797-2.03 1.797-2.087 1.797-1.16 0-1.16-2.898-1.16-3.768 0-.753 0-.87.406-1.275 3.478-4.405 4.232-8.695 4.232-8.695 0-.116-.058-.406-.464-.406-.348 0-.348.116-.522.812-.695 2.319-1.912 5.1-3.651 7.304zm-2.435 5.1c-3.304 2.841-6.144 3.247-7.593 3.247-2.203 0-3.362-1.681-3.362-4.058 0-1.797.985-5.796 2.144-7.651 1.74-2.724 3.768-3.42 5.043-3.42 3.652 0 3.652 4.87 3.652 7.71 0 1.39 0 3.535.116 4.173zm0 0"/><path transform="matrix(-1.03933 0 0 1.04 798.95 132.97)" d="M154.215 457.992a49.497 49.497 0 0 1 41.755 48.888" fill="#fff" stroke="#000" stroke-width="2.886" stroke-linecap="square"/><g ns0:text="$\\beta$" ns0:preamble="/home/waldgeist/data/sphinx/test.tex" transform="matrix(3.70979 0 0 3.70979 -212.39 148.3)"><defs><symbol overflow="visible" id="i"><path d="M5.734-5.672c0-.75-.546-1.36-1.359-1.36-.578 0-.86.157-1.203.407C2.625-6.219 2.078-5.25 1.89-4.5L.297 1.828c0 .047.047.11.125.11s.11-.032.11-.047l.702-2.766c.188.61.625.969 1.36.969.719 0 1.469-.344 1.922-.781a2.486 2.486 0 0 0 .796-1.829c0-.718-.375-1.25-.734-1.484.578-.344 1.156-.953 1.156-1.672zM3.938-4.016c-.126.047-.235.063-.485.063-.14 0-.328.015-.437-.031.03-.11.39-.079.5-.079.203 0 .296 0 .421.047zm1.234-1.89c0 .703-.375 1.422-.89 1.734-.282-.11-.47-.125-.766-.125-.22 0-.782-.016-.782.313 0 .28.516.25.688.25.375 0 .531 0 .828-.125.375.359.422.671.438 1.125.015.578-.22 1.328-.5 1.718-.391.532-1.063.891-1.625.891-.766 0-1.141-.578-1.141-1.281 0-.094 0-.25.047-.438l.64-2.515c.22-.86.938-2.454 2.141-2.454.578 0 .922.313.922.907zm0 0"/></symbol></defs><use height="1052.362" width="744.094" xlink:href="#i" x="223.432" y="134.765"/></g><path d="M540.076 461.861c0-5.231-3.086-6.853-5.545-6.853-4.604 0-8.998 4.76-8.998 9.469 0 3.139 1.988 5.65 5.44 5.65 2.093 0 4.5-.785 7.01-2.825.419 1.778 1.518 2.825 3.035 2.825 1.778 0 2.825-1.831 2.825-2.354 0-.262-.21-.367-.419-.367-.21 0-.314.105-.418.367-.628 1.621-1.831 1.621-1.884 1.621-1.046 0-1.046-2.615-1.046-3.4 0-.68 0-.785.366-1.151 3.139-3.976 3.82-7.847 3.82-7.847 0-.105-.053-.366-.42-.366-.313 0-.313.104-.47.732-.628 2.093-1.727 4.604-3.296 6.592zm-2.197 4.604c-2.982 2.563-5.545 2.93-6.853 2.93-1.988 0-3.034-1.518-3.034-3.663 0-1.621.889-5.231 1.935-6.905 1.57-2.459 3.4-3.087 4.551-3.087 3.296 0 3.296 4.395 3.296 6.958 0 1.256 0 3.191.105 3.767zm0 0" fill="gray"/><use y="134.765" x="223.432" xlink:href="#i" width="744.094" height="1052.362" stroke-width="1.053" transform="matrix(3.5243 0 0 3.5243 -308.134 -5.28)" ns0:preamble="/home/waldgeist/data/sphinx/test.tex" ns0:text="$\\beta$" fill="gray" stroke="gray"/><path style="marker:none" d="M538.028 433.962a36.523 36.523 0 0 1-50.53-13.474" color="#000" fill="none" stroke="#000" stroke-width="3.0001116" overflow="visible"/><path d="M517.932 493.193a74.206 74.206 0 0 1-68.057-48.074" style="marker:none" color="#000" fill="none" stroke="#666" stroke-width="2.9989342" overflow="visible" stroke-linecap="round"/><path d="M515.38 421.6a.505.505 0 1 1 1.01 0 .505.505 0 1 1-1.01 0z" fill="none" stroke="#333" stroke-width="3.0001846" stroke-linecap="round"/><path style="marker:none" d="M562.277 479.518a74.206 74.206 0 0 1-41.775 13.68" color="#000" fill="none" stroke="#666" stroke-width="2.9989342" stroke-linecap="round" overflow="visible"/></svg>