<svg xmlns:ns0="http://www.iki.fi/pav/software/textext/" xmlns="http://www.w3.org/2000/svg" xmlns:xlink="http://www.w3.org/1999/xlink" height="1052.362" width="744.094"><title>Das gleichschenklige Dreieck</title><use transform="translate(-690.002 115.427) scale(3.49978)" height="1052.362" width="744.094" xlink:href="#textext-28c1ecfe-0" x="223.432" y="134.765"/><use transform="translate(-200.574 -112.91) scale(3.49978)" height="1052.362" width="744.094" xlink:href="#textext-28c1ecfe-0" x="223.432" y="134.765"/><use transform="translate(-200.574 -112.91) scale(3.49978)" height="1052.362" width="744.094" xlink:href="#textext-28c1ecfe-0" x="223.432" y="134.765"/><path fill="#fff" stroke="#fff" stroke-width="3" stroke-linecap="square" d="M64.223 339.425h625.649v377.797H64.223z"/><path d="M372.047 391.159l125.698 275.759H246.349z" fill="#f9f9f9" stroke="#000" stroke-width="3" stroke-linecap="round"/><g ns0:text="$h$" ns0:preamble="/home/waldgeist/data/sphinx/test.tex" transform="matrix(4.63723 0 0 4.63723 -654.783 -83.897)"><defs><symbol overflow="visible" id="a"><path d="M2.86-6.813s0-.109-.126-.109c-.234 0-.953.078-1.218.11-.079 0-.188.015-.188.187 0 .125.094.125.234.125.485 0 .5.063.5.172l-.03.203L.593-.391C.547-.25.547-.234.547-.17c0 .234.203.28.297.28a.407.407 0 0 0 .36-.265l.187-.75.218-.89c.063-.235.125-.454.172-.673.016-.062.11-.39.11-.453.03-.094.343-.64.687-.922.219-.156.516-.344.953-.344.422 0 .531.344.531.704 0 .53-.375 1.625-.609 2.234-.078.219-.14.344-.14.547 0 .469.359.812.828.812.937 0 1.296-1.453 1.296-1.53 0-.11-.078-.11-.109-.11-.11 0-.11.031-.156.187-.14.532-.469 1.235-1.016 1.235-.172 0-.234-.094-.234-.329 0-.25.078-.484.172-.703.156-.437.61-1.625.61-2.203 0-.64-.391-1.062-1.141-1.062-.626 0-1.11.312-1.485.765zm0 0"/></symbol></defs><use height="1052.362" width="744.094" xlink:href="#a" x="223.432" y="134.765" transform="translate(0 12.076)" fill="#333"/></g><path d="M205.107 421.752V630.61" fill="none" stroke="gray" stroke-width="1.797" stroke-linecap="round" stroke-dasharray="5.3919945,5.3919945" transform="matrix(-1 0 0 -1.23824 577.154 1183.432)"/><path d="M271.459 615.473a49.497 49.497 0 0 1 41.754 48.888" fill="#fff" stroke="#000" stroke-width="3" stroke-linecap="square"/><path d="M284.699 645.164c0-7.245-4.275-9.492-7.68-9.492-6.377 0-12.463 6.594-12.463 13.115 0 4.348 2.753 7.825 7.535 7.825 2.899 0 6.232-1.086 9.71-3.912.58 2.463 2.1 3.912 4.202 3.912 2.464 0 3.913-2.535 3.913-3.26 0-.362-.29-.507-.58-.507s-.435.145-.58.507c-.87 2.246-2.536 2.246-2.608 2.246-1.45 0-1.45-3.623-1.45-4.71 0-.942 0-1.086.508-1.594 4.347-5.506 5.29-10.868 5.29-10.868 0-.145-.073-.507-.58-.507-.435 0-.435.145-.652 1.014-.87 2.898-2.392 6.376-4.565 9.13zm-3.043 6.377c-4.13 3.55-7.68 4.057-9.492 4.057-2.754 0-4.203-2.101-4.203-5.072 0-2.246 1.232-7.246 2.681-9.564 2.174-3.406 4.71-4.275 6.304-4.275 4.565 0 4.565 6.086 4.565 9.637 0 1.739 0 4.42.145 5.217zm0 0"/><path d="M271.686 516.127s0-.506-.579-.506c-1.013 0-4.412.361-5.642.506-.362 0-.868.072-.868.868 0 .579.434.579 1.157.579 2.17 0 2.243.29 2.243.795 0 .29-.362 1.881-.579 2.821l-3.834 15.045c-.506 2.315-.723 3.11-.723 4.702 0 4.34 2.46 7.233 5.859 7.233 5.425 0 11.14-6.871 11.14-13.526 0-4.195-2.46-7.378-6.15-7.378-2.097 0-4.05 1.374-5.424 2.749zm-4.268 17.432c.217-1.013.217-1.085.651-1.591 2.242-2.966 4.34-3.69 5.57-3.69 1.663 0 2.893 1.375 2.893 4.34 0 2.75-1.52 8.03-2.387 9.765-1.52 3.11-3.617 4.774-5.425 4.774-1.591 0-3.11-1.23-3.11-4.629 0-.94 0-1.808.723-4.701zm0 0" ns0:preamble="/home/waldgeist/data/sphinx/test.tex" ns0:text="$b$" fill="#4d4d4d"/><path d="M475.447 524.41c-.868-1.737-2.17-2.966-4.268-2.966-5.352 0-11.066 6.799-11.066 13.526 0 4.34 2.531 7.377 6.075 7.377.94 0 3.255-.217 6.004-3.472a4.217 4.217 0 0 0 4.195 3.472c1.664 0 2.676-1.085 3.472-2.531.723-1.664 1.374-4.485 1.374-4.557 0-.506-.434-.506-.578-.506-.434 0-.507.217-.651.868-.796 2.965-1.592 5.714-3.472 5.714-1.302 0-1.375-1.23-1.375-2.098 0-1.013.073-1.447.58-3.472.505-1.88.578-2.387 1.012-4.123l1.663-6.437c.29-1.302.29-1.375.29-1.592 0-.795-.507-1.23-1.302-1.23-1.158 0-1.809 1.013-1.953 2.026zm-2.966 11.934c-.29.868-.29.94-.94 1.736-2.025 2.531-3.906 3.255-5.208 3.255-2.315 0-2.966-2.532-2.966-4.34 0-2.315 1.447-7.957 2.532-10.127 1.447-2.676 3.472-4.412 5.353-4.412 2.965 0 3.616 3.761 3.616 4.05a2.6 2.6 0 0 1-.145.796zm0 0" ns0:text="$a$" ns0:preamble="/home/waldgeist/data/sphinx/test.tex" fill="#4d4d4d"/><g transform="matrix(4.63723 0 0 4.63723 -674.928 85.157)" ns0:preamble="/home/waldgeist/data/sphinx/test.tex" ns0:text="$c$" fill="#4d4d4d"><defs><symbol id="b" overflow="visible"><path d="M3.953-3.781c-.172 0-.297 0-.437.125a.53.53 0 0 0-.188.39c0 .25.188.36.375.36.281 0 .547-.25.547-.64 0-.485-.469-.86-1.172-.86-1.344 0-2.672 1.422-2.672 2.828C.406-.672.984.109 2.031.109c1.422 0 2.25-1.062 2.25-1.171 0-.063-.047-.141-.11-.141-.062 0-.077.031-.14.11-.781.984-1.875.984-1.984.984-.625 0-.906-.485-.906-1.094 0-.406.203-1.375.546-1.984.313-.579.86-1 1.407-1 .328 0 .719.125.86.406zm0 0"/></symbol></defs><use y="134.765" x="223.432" xlink:href="#b" width="744.094" height="1052.362"/></g><g ns0:text="$\\gamma$" ns0:preamble="/home/waldgeist/data/sphinx/test.tex" transform="matrix(4.63723 0 0 4.63723 -680.493 -167.692)"><defs><symbol overflow="visible" id="c"><path d="M.406-2.531C.796-3.671 1.891-3.687 2-3.687c1.5 0 1.61 1.75 1.61 2.53 0 .61-.047.782-.126.985-.218.719-.515 1.875-.515 2.14 0 .11.047.173.125.173.14 0 .219-.22.328-.594.234-.844.328-1.406.36-1.719.03-.125.046-.25.093-.39.313-.985.953-2.47 1.344-3.25.078-.126.187-.344.187-.391 0-.094-.093-.094-.11-.094-.03 0-.093 0-.124.063-.516.953-.922 1.953-1.313 2.953-.015-.297-.015-1.063-.406-2.032-.25-.609-.64-1.093-1.328-1.093-1.25 0-1.953 1.515-1.953 1.828 0 .094.094.094.203.094zm0 0"/></symbol></defs><use transform="translate(.039 .655)" height="1052.362" width="744.094" xlink:href="#c" x="223.432" y="134.765"/></g><path d="M401.276 467.855a49.497 49.497 0 0 1-58.606-.103M471.107 614.722a49.497 49.497 0 0 1-41.754 48.888" fill="#fff" stroke="#000" stroke-width="3" stroke-linecap="square"/><g transform="matrix(4.63723 0 0 4.63723 -589.065 33.38)" ns0:preamble="/home/waldgeist/data/sphinx/test.tex" ns0:text="$\\beta$"><defs><symbol id="d" overflow="visible"><path d="M5.734-5.672c0-.75-.546-1.36-1.359-1.36-.578 0-.86.157-1.203.407C2.625-6.219 2.078-5.25 1.89-4.5L.297 1.828c0 .047.047.11.125.11s.11-.032.11-.047l.702-2.766c.188.61.625.969 1.36.969.719 0 1.469-.344 1.922-.781a2.486 2.486 0 0 0 .796-1.829c0-.718-.375-1.25-.734-1.484.578-.344 1.156-.953 1.156-1.672zM3.938-4.016c-.126.047-.235.063-.485.063-.14 0-.328.015-.437-.031.03-.11.39-.079.5-.079.203 0 .296 0 .421.047zm1.234-1.89c0 .703-.375 1.422-.89 1.734-.282-.11-.47-.125-.766-.125-.22 0-.782-.016-.782.313 0 .28.516.25.688.25.375 0 .531 0 .828-.125.375.359.422.671.438 1.125.015.578-.22 1.328-.5 1.718-.391.532-1.063.891-1.625.891-.766 0-1.141-.578-1.141-1.281 0-.094 0-.25.047-.438l.64-2.515c.22-.86.938-2.454 2.141-2.454.578 0 .922.313.922.907zm0 0"/></symbol></defs><use y="134.765" x="223.432" xlink:href="#d" width="744.094" height="1052.362"/></g><g ns0:text="$\\rm{A}$" transform="matrix(4.56905 0 0 4.56905 -805.807 94.853)" stroke="#4d4d4d"><defs><symbol overflow="visible" id="e"><path d="M3.969-6.938c-.047-.125-.078-.203-.235-.203-.156 0-.187.063-.234.204L1.437-.984C1.25-.47.86-.313.313-.313V0c.235-.016.672-.031 1.016-.031.313 0 .828.015 1.156.031v-.313c-.5 0-.75-.25-.75-.5 0-.03.016-.14.016-.156l.469-1.297h2.453L5.203-.75a.58.58 0 0 1 .031.14c0 .297-.562.297-.828.297V0c.36-.031 1.063-.031 1.438-.031.422 0 .89.015 1.297.031v-.313h-.172c-.594 0-.735-.062-.844-.39zm-.531 1.11l1.124 3.25H2.329z" stroke="none"/></symbol></defs><use height="1052.362" width="744.094" xlink:href="#e" x="223.432" y="134.765"/></g><g transform="matrix(4.56905 0 0 4.56905 -516.537 93.354)" ns0:text="$\\rm{B}$"><defs><symbol id="f" overflow="visible"><path d="M2.219-3.656v-2.438c0-.343.015-.406.484-.406h1.235c.968 0 1.312.844 1.312 1.375 0 .64-.484 1.469-1.594 1.469zm2.344.094c.968-.188 1.656-.829 1.656-1.563 0-.86-.922-1.688-2.219-1.688H.36v.313h.234c.765 0 .797.11.797.469v5.25c0 .36-.032.469-.797.469H.359V0h3.907c1.328 0 2.218-.89 2.218-1.828 0-.86-.812-1.61-1.921-1.734zm-.61 3.25h-1.25c-.469 0-.484-.063-.484-.391v-2.719h1.875c.984 0 1.406.922 1.406 1.594 0 .703-.531 1.516-1.547 1.516z"/></symbol></defs><use y="134.765" x="223.432" xlink:href="#f" width="744.094" height="1052.362"/></g><g transform="matrix(4.58764 0 0 4.56905 -669.465 -245.575)" ns0:preamble="/home/waldgeist/data/sphinx/inkscape-preamble.tex" ns0:text="$\\rm{C}$"><defs><symbol id="g" overflow="visible"><path d="M.563-3.406C.563-1.344 2.171.219 4.03.219c1.625 0 2.594-1.39 2.594-2.547 0-.094 0-.172-.125-.172-.11 0-.11.063-.125.172C6.297-.906 5.235-.094 4.141-.094c-.61 0-2.563-.328-2.563-3.312 0-2.969 1.953-3.313 2.563-3.313 1.078 0 1.968.907 2.171 2.36.016.14.016.171.157.171.156 0 .156-.03.156-.234v-2.36c0-.171 0-.25-.11-.25-.03 0-.077 0-.156.126l-.5.734c-.359-.36-.875-.86-1.828-.86-1.875 0-3.468 1.595-3.468 3.626z"/></symbol></defs><use y="134.765" x="223.432" xlink:href="#g" width="744.094" height="1052.362"/></g></svg>