<svg xmlns:ns0="http://www.iki.fi/pav/software/textext/" xmlns="http://www.w3.org/2000/svg" xmlns:xlink="http://www.w3.org/1999/xlink" height="1052.362" width="744.094"><title>Höhenschnittpunkt eines Dreiecks</title><path fill="#fff" stroke="#fff" stroke-width="3" stroke-linecap="square" d="M3.827 294.777h736.44v462.808H3.827z"/><use y="134.765" x="223.432" xlink:href="#textext-28c1ecfe-0" width="744.094" height="1052.362" transform="translate(-690.002 115.427) scale(3.49978)"/><use y="134.765" x="223.432" xlink:href="#textext-28c1ecfe-0" width="744.094" height="1052.362" transform="translate(-200.574 -112.91) scale(3.49978)"/><use y="134.765" x="223.432" xlink:href="#textext-28c1ecfe-0" width="744.094" height="1052.362" transform="translate(-200.574 -112.91) scale(3.49978)"/><path d="M425.638 359.173L624.55 703.926l-507.968-20.832z" fill="#f9f9f9" stroke="#000" stroke-width="3" stroke-linecap="round"/><g ns0:text="$\\beta$" ns0:preamble="/home/waldgeist/data/sphinx/test.tex" transform="matrix(4.63723 0 0 4.63723 -471.734 65.868)"><defs><symbol overflow="visible" id="a"><path d="M5.734-5.672c0-.75-.546-1.36-1.359-1.36-.578 0-.86.157-1.203.407C2.625-6.219 2.078-5.25 1.89-4.5L.297 1.828c0 .047.047.11.125.11s.11-.032.11-.047l.702-2.766c.188.61.625.969 1.36.969.719 0 1.469-.344 1.922-.781a2.486 2.486 0 0 0 .796-1.829c0-.718-.375-1.25-.734-1.484.578-.344 1.156-.953 1.156-1.672zM3.938-4.016c-.126.047-.235.063-.485.063-.14 0-.328.015-.437-.031.03-.11.39-.079.5-.079.203 0 .296 0 .421.047zm1.234-1.89c0 .703-.375 1.422-.89 1.734-.282-.11-.47-.125-.766-.125-.22 0-.782-.016-.782.313 0 .28.516.25.688.25.375 0 .531 0 .828-.125.375.359.422.671.438 1.125.015.578-.22 1.328-.5 1.718-.391.532-1.063.891-1.625.891-.766 0-1.141-.578-1.141-1.281 0-.094 0-.25.047-.438l.64-2.515c.22-.86.938-2.454 2.141-2.454.578 0 .922.313.922.907zm0 0"/></symbol></defs><use height="1052.362" width="744.094" xlink:href="#a" x="223.432" y="134.765"/></g><g transform="matrix(4.58764 0 0 4.56905 -611.305 -271.295)" ns0:text="$\\rm{C}$"><defs><symbol id="b" overflow="visible"><path d="M.563-3.406C.563-1.344 2.171.219 4.03.219c1.625 0 2.594-1.39 2.594-2.547 0-.094 0-.172-.125-.172-.11 0-.11.063-.125.172C6.297-.906 5.235-.094 4.141-.094c-.61 0-2.563-.328-2.563-3.312 0-2.969 1.953-3.313 2.563-3.313 1.078 0 1.968.907 2.171 2.36.016.14.016.171.157.171.156 0 .156-.03.156-.234v-2.36c0-.171 0-.25-.11-.25-.03 0-.077 0-.156.126l-.5.734c-.359-.36-.875-.86-1.828-.86-1.875 0-3.468 1.595-3.468 3.626z"/></symbol></defs><use y="134.765" x="223.432" xlink:href="#b" width="744.094" height="1052.362"/></g><g ns0:text="$\\rm{A}$" transform="matrix(4.56905 0 0 4.56905 -940.22 105.023)"><defs><symbol overflow="visible" id="c"><path d="M3.969-6.938c-.047-.125-.078-.203-.235-.203-.156 0-.187.063-.234.204L1.437-.984C1.25-.47.86-.313.313-.313V0c.235-.016.672-.031 1.016-.031.313 0 .828.015 1.156.031v-.313c-.5 0-.75-.25-.75-.5 0-.03.016-.14.016-.156l.469-1.297h2.453L5.203-.75a.58.58 0 0 1 .031.14c0 .297-.562.297-.828.297V0c.36-.031 1.063-.031 1.438-.031.422 0 .89.015 1.297.031v-.313h-.172c-.594 0-.735-.062-.844-.39zm-.531 1.11l1.124 3.25H2.329z"/></symbol></defs><use height="1052.362" width="744.094" xlink:href="#c" x="223.432" y="134.765"/></g><g transform="matrix(4.56905 0 0 4.56905 -388.483 124.288)" ns0:text="$\\rm{B}$"><defs><symbol id="d" overflow="visible"><path d="M2.219-3.656v-2.438c0-.343.015-.406.484-.406h1.235c.968 0 1.312.844 1.312 1.375 0 .64-.484 1.469-1.594 1.469zm2.344.094c.968-.188 1.656-.829 1.656-1.563 0-.86-.922-1.688-2.219-1.688H.36v.313h.234c.765 0 .797.11.797.469v5.25c0 .36-.032.469-.797.469H.359V0h3.907c1.328 0 2.218-.89 2.218-1.828 0-.86-.812-1.61-1.921-1.734zm-.61 3.25h-1.25c-.469 0-.484-.063-.484-.391v-2.719h1.875c.984 0 1.406.922 1.406 1.594 0 .703-.531 1.516-1.547 1.516z"/></symbol></defs><use y="134.765" x="223.432" xlink:href="#d" width="744.094" height="1052.362"/></g><g ns0:text="$\\gamma$" transform="matrix(4.63723 0 0 4.63723 -628.86 -216.118)"><defs><symbol overflow="visible" id="e"><path d="M.406-2.531C.796-3.671 1.891-3.687 2-3.687c1.5 0 1.61 1.75 1.61 2.53 0 .61-.047.782-.126.985-.218.719-.515 1.875-.515 2.14 0 .11.047.173.125.173.14 0 .219-.22.328-.594.234-.844.328-1.406.36-1.719.03-.125.046-.25.093-.39.313-.985.953-2.47 1.344-3.25.078-.126.187-.344.187-.391 0-.094-.093-.094-.11-.094-.03 0-.093 0-.124.063-.516.953-.922 1.953-1.313 2.953-.015-.297-.015-1.063-.406-2.032-.25-.609-.64-1.093-1.328-1.093-1.25 0-1.953 1.515-1.953 1.828 0 .094.094.094.203.094zm0 0"/></symbol></defs><use height="1052.362" width="744.094" xlink:href="#e" x="223.432" y="134.765"/></g><path style="marker:none" d="M10.577 634.906a42.613 42.613 0 0 1 7.01 44.786" transform="matrix(1.988 -.53268 .36465 1.36089 -82.254 -230.498)" color="#000" fill="none" stroke="#000" stroke-width="1.762" stroke-linecap="round" stroke-linejoin="round" overflow="visible"/><path style="marker:none" d="M-62.19 675.757a42.613 42.613 0 0 1 16.51-48.015" transform="matrix(1.988 .53268 -.36465 1.36089 909.148 -186.686)" color="#000" fill="none" stroke="#000" stroke-width="1.762" stroke-linecap="round" stroke-linejoin="round" overflow="visible"/><path style="marker:none" d="M-57.711 685.455a42.613 42.613 0 0 1 7.13-53.79" transform="matrix(0 -1.59723 1.4089 0 -508.287 324.72)" color="#000" fill="none" stroke="#000" stroke-width="2" stroke-linecap="round" stroke-linejoin="round" overflow="visible"/><g transform="matrix(4.63723 0 0 4.63723 -878.579 46.928)" ns0:text="$\\alpha$"><defs><symbol id="f" overflow="visible"><path d="M4.75-2.36c0-1.562-.922-2.046-1.656-2.046-1.375 0-2.688 1.422-2.688 2.828C.406-.641 1 .109 2.031.109c.625 0 1.344-.234 2.094-.843.125.53.453.843.906.843.532 0 .844-.546.844-.703 0-.078-.063-.11-.125-.11-.063 0-.094.032-.125.11-.188.485-.547.485-.563.485-.312 0-.312-.782-.312-1.016 0-.203 0-.234.11-.344C5.796-2.656 6-3.812 6-3.812c0-.032-.016-.11-.125-.11-.094 0-.094.031-.14.219-.188.625-.516 1.375-.985 1.969zM4.094-.983c-.89.765-1.657.875-2.047.875-.594 0-.906-.454-.906-1.094 0-.484.265-1.563.578-2.063.468-.734 1.015-.921 1.36-.921.983 0 .983 1.312.983 2.078 0 .375 0 .953.032 1.125zm0 0"/></symbol></defs><use y="134.765" x="223.432" xlink:href="#f" width="744.094" height="1052.362"/></g><path d="M425.638 359.173L411.46 695.187M488.666 468.412L116.582 683.094M624.55 703.926L348.238 440.295" fill="none" stroke="#5f8dd3" stroke-width="1.5" stroke-linecap="round"/><g fill="#37c837" stroke="#003380" stroke-width="6.883"><path d="M749.083 510.761l24.652 42.699M773.735 510.761l-24.652 42.699" transform="matrix(.36448 0 0 .23166 141.825 385.144)"/></g><g transform="matrix(4.56905 0 0 4.56905 -596.504 -100.196)" ns0:preamble="/home/waldgeist/data/sphinx/inkscape-preamble.tex" ns0:text="$\\rm{H}$" fill="#003380" stroke="#5f8dd3"><defs><symbol id="g" overflow="visible"><path d="M6.11-6.031c0-.36.015-.469.78-.469h.25v-.313c-.359.032-1.093.032-1.468.032s-1.125 0-1.469-.032v.313h.234c.766 0 .782.11.782.469v2.328H2.25v-2.328c0-.36.016-.469.781-.469h.235v-.313c-.344.032-1.079.032-1.47.032-.374 0-1.124 0-1.468-.032v.313h.234c.766 0 .797.11.797.469v5.25c0 .36-.03.469-.796.469H.328V0c.344-.031 1.094-.031 1.469-.031s1.125 0 1.469.031v-.313H3.03c-.765 0-.781-.109-.781-.468v-2.61h2.969v2.61c0 .36-.016.469-.782.469h-.234V0c.344-.031 1.078-.031 1.453-.031.39 0 1.125 0 1.485.031v-.313h-.25c-.766 0-.782-.109-.782-.468zm0 0" stroke="none"/></symbol></defs><use y="134.765" x="223.432" xlink:href="#g" width="744.094" height="1052.362"/></g></svg>