<svg xmlns:ns0="http://www.iki.fi/pav/software/textext/" xmlns="http://www.w3.org/2000/svg" xmlns:xlink="http://www.w3.org/1999/xlink" height="1052.362" width="744.094"><title>Das rechtwinklige Dreieck</title><use y="134.765" x="223.432" xlink:href="#textext-28c1ecfe-0" width="744.094" height="1052.362" transform="translate(-690.002 115.427) scale(3.49978)"/><use y="134.765" x="223.432" xlink:href="#textext-28c1ecfe-0" width="744.094" height="1052.362" transform="translate(-200.574 -112.91) scale(3.49978)"/><use y="134.765" x="223.432" xlink:href="#textext-28c1ecfe-0" width="744.094" height="1052.362" transform="translate(-200.574 -112.91) scale(3.49978)"/><path fill="#fff" stroke="#fff" stroke-width="3" stroke-linecap="square" d="M12.755 337.283h718.583V715.08H12.755z"/><path d="M519.333 402.587l149.312 258.617H71.396z" fill="#f9f9f9" stroke="#000" stroke-width="3" stroke-linecap="round"/><g transform="matrix(4.63723 0 0 4.63723 -511.467 -83.897)" ns0:preamble="/home/waldgeist/data/sphinx/test.tex" ns0:text="$h$" fill="gray" stroke="gray"><defs><symbol id="a" overflow="visible"><path d="M2.86-6.813s0-.109-.126-.109c-.234 0-.953.078-1.218.11-.079 0-.188.015-.188.187 0 .125.094.125.234.125.485 0 .5.063.5.172l-.03.203L.593-.391C.547-.25.547-.234.547-.17c0 .234.203.28.297.28a.407.407 0 0 0 .36-.265l.187-.75.218-.89c.063-.235.125-.454.172-.673.016-.062.11-.39.11-.453.03-.094.343-.64.687-.922.219-.156.516-.344.953-.344.422 0 .531.344.531.704 0 .53-.375 1.625-.609 2.234-.078.219-.14.344-.14.547 0 .469.359.812.828.812.937 0 1.296-1.453 1.296-1.53 0-.11-.078-.11-.109-.11-.11 0-.11.031-.156.187-.14.532-.469 1.235-1.016 1.235-.172 0-.234-.094-.234-.329 0-.25.078-.484.172-.703.156-.437.61-1.625.61-2.203 0-.64-.391-1.062-1.141-1.062-.626 0-1.11.312-1.485.765zm0 0" stroke="none"/></symbol></defs><use transform="translate(0 12.076)" y="134.765" x="223.432" xlink:href="#a" width="744.094" height="1052.362"/></g><path d="M205.107 421.752V630.61" fill="none" stroke="gray" stroke-width="1.797" stroke-linecap="round" stroke-dasharray="5.3919945,5.3919945" transform="matrix(-1 0 0 -1.23824 724.44 1183.432)"/><path d="M519.333 637.998c11.158 0 20.204 9.046 20.204 20.204" fill="none" stroke="gray" stroke-width="3" stroke-linecap="round"/><path d="M526.391 650.32a.268.268 0 1 1 .536 0 .268.268 0 0 1-.536 0z" fill="none" stroke="gray" stroke-width="3.00001482" stroke-linecap="round"/><g fill="none" stroke="#000"><path d="M539.546 437.512c-19.3 11.143-43.98 4.53-55.123-14.77" stroke-width="2.99980942" stroke-linecap="round"/><path d="M514.543 424.78a.535.535 0 1 1 1.07 0 .535.535 0 0 1-1.07 0z" stroke-width="2.9997883200000004" stroke-linejoin="round"/></g><path d="M149.802 617.996a49.497 49.497 0 0 1 25.35 43.208" fill="#fff" stroke="#000" stroke-width="3" stroke-linecap="square"/><path d="M149.322 642.644c0-7.245-4.275-9.491-7.68-9.491-6.377 0-12.463 6.593-12.463 13.114 0 4.348 2.753 7.826 7.535 7.826 2.899 0 6.232-1.087 9.71-3.913.58 2.463 2.1 3.913 4.202 3.913 2.464 0 3.913-2.536 3.913-3.261 0-.362-.29-.507-.58-.507s-.435.145-.58.507c-.869 2.246-2.535 2.246-2.608 2.246-1.449 0-1.449-3.623-1.449-4.71 0-.941 0-1.086.507-1.594 4.348-5.506 5.29-10.868 5.29-10.868 0-.145-.073-.507-.58-.507-.435 0-.435.145-.652 1.014-.87 2.898-2.391 6.376-4.565 9.13zm-3.043 6.377c-4.13 3.55-7.68 4.057-9.492 4.057-2.753 0-4.203-2.101-4.203-5.072 0-2.246 1.232-7.245 2.681-9.564 2.174-3.406 4.71-4.275 6.304-4.275 4.565 0 4.565 6.086 4.565 9.637 0 1.739 0 4.42.145 5.217zm0 0"/><path d="M259.4 503.071s0-.506-.579-.506c-1.012 0-4.412.361-5.642.506-.361 0-.868.072-.868.868 0 .579.434.579 1.158.579 2.17 0 2.242.29 2.242.795 0 .29-.362 1.881-.579 2.821L251.3 523.18c-.507 2.315-.724 3.11-.724 4.702 0 4.34 2.46 7.233 5.86 7.233 5.424 0 11.138-6.871 11.138-13.526 0-4.195-2.459-7.378-6.148-7.378-2.097 0-4.05 1.375-5.425 2.749zm-4.268 17.432c.217-1.013.217-1.085.651-1.591 2.243-2.966 4.34-3.69 5.57-3.69 1.664 0 2.893 1.375 2.893 4.34 0 2.75-1.519 8.03-2.387 9.766-1.519 3.11-3.616 4.773-5.425 4.773-1.591 0-3.11-1.23-3.11-4.629 0-.94 0-1.808.723-4.701zm0 0" ns0:text="$b$" ns0:preamble="/home/waldgeist/data/sphinx/test.tex" fill="#4d4d4d"/><path d="M630.59 511.353c-.868-1.736-2.17-2.965-4.268-2.965-5.352 0-11.067 6.799-11.067 13.526 0 4.34 2.532 7.377 6.076 7.377.94 0 3.255-.217 6.004-3.472a4.217 4.217 0 0 0 4.195 3.472c1.664 0 2.676-1.085 3.472-2.531.723-1.664 1.374-4.485 1.374-4.557 0-.506-.434-.506-.578-.506-.434 0-.507.217-.651.868-.796 2.965-1.592 5.714-3.472 5.714-1.302 0-1.375-1.23-1.375-2.098 0-1.013.073-1.447.579-3.472.506-1.88.579-2.387 1.013-4.123l1.663-6.437c.29-1.302.29-1.375.29-1.592 0-.795-.507-1.23-1.302-1.23-1.158 0-1.809 1.013-1.953 2.026zm-2.966 11.935c-.29.868-.29.94-.94 1.736-2.025 2.531-3.906 3.255-5.208 3.255-2.315 0-2.966-2.532-2.966-4.34 0-2.315 1.447-7.957 2.532-10.127 1.447-2.676 3.472-4.412 5.352-4.412 2.966 0 3.617 3.761 3.617 4.05a2.6 2.6 0 0 1-.145.796zm0 0" ns0:preamble="/home/waldgeist/data/sphinx/test.tex" ns0:text="$a$" fill="#4d4d4d"/><g ns0:text="$c$" ns0:preamble="/home/waldgeist/data/sphinx/test.tex" transform="matrix(4.63723 0 0 4.63723 -657.762 77.157)" fill="#4d4d4d"><defs><symbol overflow="visible" id="b"><path d="M3.953-3.781c-.172 0-.297 0-.437.125a.53.53 0 0 0-.188.39c0 .25.188.36.375.36.281 0 .547-.25.547-.64 0-.485-.469-.86-1.172-.86-1.344 0-2.672 1.422-2.672 2.828C.406-.672.984.109 2.031.109c1.422 0 2.25-1.062 2.25-1.171 0-.063-.047-.141-.11-.141-.062 0-.077.031-.14.11-.781.984-1.875.984-1.984.984-.625 0-.906-.485-.906-1.094 0-.406.203-1.375.546-1.984.313-.579.86-1 1.407-1 .328 0 .719.125.86.406zm0 0"/></symbol></defs><use height="1052.362" width="744.094" xlink:href="#b" x="223.432" y="134.765"/></g><path transform="matrix(-1.03933 0 0 1.04 797.238 134.046)" d="M154.215 457.992a49.497 49.497 0 0 1 41.755 48.888" fill="#fff" stroke="#000" stroke-width="2.886" stroke-linecap="square"/><g ns0:text="$\\beta$" ns0:preamble="/home/waldgeist/data/sphinx/test.tex" transform="matrix(4.63723 0 0 4.63723 -425.124 28.686)"><defs><symbol overflow="visible" id="c"><path d="M5.734-5.672c0-.75-.546-1.36-1.359-1.36-.578 0-.86.157-1.203.407C2.625-6.219 2.078-5.25 1.89-4.5L.297 1.828c0 .047.047.11.125.11s.11-.032.11-.047l.702-2.766c.188.61.625.969 1.36.969.719 0 1.469-.344 1.922-.781a2.486 2.486 0 0 0 .796-1.829c0-.718-.375-1.25-.734-1.484.578-.344 1.156-.953 1.156-1.672zM3.938-4.016c-.126.047-.235.063-.485.063-.14 0-.328.015-.437-.031.03-.11.39-.079.5-.079.203 0 .296 0 .421.047zm1.234-1.89c0 .703-.375 1.422-.89 1.734-.282-.11-.47-.125-.766-.125-.22 0-.782-.016-.782.313 0 .28.516.25.688.25.375 0 .531 0 .828-.125.375.359.422.671.438 1.125.015.578-.22 1.328-.5 1.718-.391.532-1.063.891-1.625.891-.766 0-1.141-.578-1.141-1.281 0-.094 0-.25.047-.438l.64-2.515c.22-.86.938-2.454 2.141-2.454.578 0 .922.313.922.907zm0 0"/></symbol></defs><use height="1052.362" width="744.094" xlink:href="#c" x="223.432" y="134.765"/></g><g transform="matrix(4.58764 0 0 4.56905 -520.186 -229.575)" ns0:text="$\\rm{C}$"><defs><symbol id="d" overflow="visible"><path d="M.563-3.406C.563-1.344 2.171.219 4.03.219c1.625 0 2.594-1.39 2.594-2.547 0-.094 0-.172-.125-.172-.11 0-.11.063-.125.172C6.297-.906 5.235-.094 4.141-.094c-.61 0-2.563-.328-2.563-3.312 0-2.969 1.953-3.313 2.563-3.313 1.078 0 1.968.907 2.171 2.36.016.14.016.171.157.171.156 0 .156-.03.156-.234v-2.36c0-.171 0-.25-.11-.25-.03 0-.077 0-.156.126l-.5.734c-.359-.36-.875-.86-1.828-.86-1.875 0-3.468 1.595-3.468 3.626z"/></symbol></defs><use y="134.765" x="223.432" xlink:href="#d" width="744.094" height="1052.362"/></g><g ns0:text="$\\rm{A}$" transform="matrix(4.56905 0 0 4.56905 -990.95 86.853)"><defs><symbol overflow="visible" id="e"><path d="M3.969-6.938c-.047-.125-.078-.203-.235-.203-.156 0-.187.063-.234.204L1.437-.984C1.25-.47.86-.313.313-.313V0c.235-.016.672-.031 1.016-.031.313 0 .828.015 1.156.031v-.313c-.5 0-.75-.25-.75-.5 0-.03.016-.14.016-.156l.469-1.297h2.453L5.203-.75a.58.58 0 0 1 .031.14c0 .297-.562.297-.828.297V0c.36-.031 1.063-.031 1.438-.031.422 0 .89.015 1.297.031v-.313h-.172c-.594 0-.735-.062-.844-.39zm-.531 1.11l1.124 3.25H2.329z"/></symbol></defs><use height="1052.362" width="744.094" xlink:href="#e" x="223.432" y="134.765"/></g><g transform="matrix(4.56905 0 0 4.56905 -342.822 85.354)" ns0:text="$\\rm{B}$"><defs><symbol id="f" overflow="visible"><path d="M2.219-3.656v-2.438c0-.343.015-.406.484-.406h1.235c.968 0 1.312.844 1.312 1.375 0 .64-.484 1.469-1.594 1.469zm2.344.094c.968-.188 1.656-.829 1.656-1.563 0-.86-.922-1.688-2.219-1.688H.36v.313h.234c.765 0 .797.11.797.469v5.25c0 .36-.032.469-.797.469H.359V0h3.907c1.328 0 2.218-.89 2.218-1.828 0-.86-.812-1.61-1.921-1.734zm-.61 3.25h-1.25c-.469 0-.484-.063-.484-.391v-2.719h1.875c.984 0 1.406.922 1.406 1.594 0 .703-.531 1.516-1.547 1.516z"/></symbol></defs><use y="134.765" x="223.432" xlink:href="#f" width="744.094" height="1052.362"/></g></svg>