<?xml version="1.0" encoding="UTF-8" standalone="no"?>
<!-- Created with Inkscape (http://www.inkscape.org/) -->

<svg
   xmlns:ns0="http://www.iki.fi/pav/software/textext/"
   xmlns:dc="http://purl.org/dc/elements/1.1/"
   xmlns:cc="http://creativecommons.org/ns#"
   xmlns:rdf="http://www.w3.org/1999/02/22-rdf-syntax-ns#"
   xmlns:svg="http://www.w3.org/2000/svg"
   xmlns="http://www.w3.org/2000/svg"
   xmlns:xlink="http://www.w3.org/1999/xlink"
   xmlns:sodipodi="http://sodipodi.sourceforge.net/DTD/sodipodi-0.dtd"
   xmlns:inkscape="http://www.inkscape.org/namespaces/inkscape"
   sodipodi:docname="dreieck-rechtwinklig.svg"
   inkscape:version="0.48.3.1 r9886"
   version="1.1"
   id="svg2"
   height="1052.3622047"
   width="744.09448819">
  <sodipodi:namedview
     id="base"
     pagecolor="#ffffff"
     bordercolor="#666666"
     borderopacity="1.0"
     inkscape:pageopacity="0.0"
     inkscape:pageshadow="2"
     inkscape:zoom="0.26386719"
     inkscape:cx="325.12167"
     inkscape:cy="167.23393"
     inkscape:document-units="px"
     inkscape:current-layer="layer1"
     showgrid="false"
     inkscape:window-width="1280"
     inkscape:window-height="974"
     inkscape:window-x="0"
     inkscape:window-y="0"
     inkscape:window-maximized="1"
     inkscape:snap-global="true"
     showguides="false"
     inkscape:guide-bbox="true"
     inkscape:object-paths="true"
     inkscape:object-nodes="true"
     inkscape:snap-smooth-nodes="true">
    <sodipodi:guide
       orientation="0,1"
       position="330.12909,526.18109"
       id="guide7588" />
    <sodipodi:guide
       id="guide12486"
       position="519.33265,649.77491"
       orientation="0.5,-0.8660254" />
    <sodipodi:guide
       id="guide12488"
       position="519.33265,649.77491"
       orientation="0.8660254,0.5" />
    <sodipodi:guide
       id="guide12490"
       position="372.04725,649.77491"
       orientation="0,1" />
    <sodipodi:guide
       id="guide12492"
       position="264.28571,391.15866"
       orientation="0,1" />
  </sodipodi:namedview>
  <title
     id="title3921">Das rechtwinklige Dreieck</title>
  <defs
     id="defs4" />
  <metadata
     id="metadata7">
    <rdf:RDF>
      <cc:Work
         rdf:about="">
        <dc:format>image/svg+xml</dc:format>
        <dc:type
           rdf:resource="http://purl.org/dc/dcmitype/StillImage" />
        <dc:title>Das rechtwinklige Dreieck</dc:title>
        <dc:date>2012-07-21</dc:date>
        <dc:creator>
          <cc:Agent>
            <dc:title>Bernhard Grotz</dc:title>
          </cc:Agent>
        </dc:creator>
        <dc:rights>
          <cc:Agent>
            <dc:title>Bernhard Grotz</dc:title>
          </cc:Agent>
        </dc:rights>
        <dc:publisher>
          <cc:Agent>
            <dc:title>Bernhard Grotz</dc:title>
          </cc:Agent>
        </dc:publisher>
        <dc:language>de-DE</dc:language>
        <dc:subject>
          <rdf:Bag>
            <rdf:li>Mathematik</rdf:li>
            <rdf:li>Geometrie</rdf:li>
            <rdf:li>Planimetrie</rdf:li>
            <rdf:li>Dreieck</rdf:li>
            <rdf:li>rechtwinklig</rdf:li>
          </rdf:Bag>
        </dc:subject>
        <cc:license
           rdf:resource="http://creativecommons.org/licenses/by-nc-sa/3.0/" />
      </cc:Work>
      <cc:License
         rdf:about="http://creativecommons.org/licenses/by-nc-sa/3.0/">
        <cc:permits
           rdf:resource="http://creativecommons.org/ns#Reproduction" />
        <cc:permits
           rdf:resource="http://creativecommons.org/ns#Distribution" />
        <cc:requires
           rdf:resource="http://creativecommons.org/ns#Notice" />
        <cc:requires
           rdf:resource="http://creativecommons.org/ns#Attribution" />
        <cc:prohibits
           rdf:resource="http://creativecommons.org/ns#CommercialUse" />
        <cc:permits
           rdf:resource="http://creativecommons.org/ns#DerivativeWorks" />
        <cc:requires
           rdf:resource="http://creativecommons.org/ns#ShareAlike" />
      </cc:License>
    </rdf:RDF>
  </metadata>
  <g
     inkscape:label="Layer 1"
     inkscape:groupmode="layer"
     id="layer1">
    <g
       id="g3817"
       transform="matrix(7.4449455,0,0,7.4449455,-1139.9653,-447.43445)"
       ns0:preamble="/home/waldgeist/data/sphinx/test.tex"
       ns0:text="$b$">
      <defs
         id="defs3819">
        <g
           id="g3821">
          <symbol
             id="textext-7eb8a748-0"
             overflow="visible"
             style="overflow:visible">
            <path
               id="path3824"
               d="m 2.375,-6.8125 c 0,0 0,-0.109375 -0.125,-0.109375 -0.21875,0 -0.953125,0.078125 -1.21875,0.109375 -0.078125,0 -0.1875,0.015625 -0.1875,0.1875 0,0.125 0.09375,0.125 0.25,0.125 0.46875,0 0.484375,0.0625 0.484375,0.171875 0,0.0625 -0.078125,0.40625 -0.125,0.609375 l -0.828125,3.25 c -0.109375,0.5 -0.15625,0.671875 -0.15625,1.015625 0,0.9375 0.53125,1.5625 1.265625,1.5625 1.171875,0 2.40625,-1.484375 2.40625,-2.921875 0,-0.90625 -0.53125,-1.59375 -1.328125,-1.59375 -0.453125,0 -0.875,0.296875 -1.171875,0.59375 z M 1.453125,-3.046875 C 1.5,-3.265625 1.5,-3.28125 1.59375,-3.390625 2.078125,-4.03125 2.53125,-4.1875 2.796875,-4.1875 c 0.359375,0 0.625,0.296875 0.625,0.9375 0,0.59375 -0.328125,1.734375 -0.515625,2.109375 -0.328125,0.671875 -0.78125,1.03125 -1.171875,1.03125 -0.34375,0 -0.671875,-0.265625 -0.671875,-1 0,-0.203125 0,-0.390625 0.15625,-1.015625 z m 0,0"
               style="stroke:none"
               inkscape:connector-curvature="0" />
          </symbol>
        </g>
      </defs>
      <g
         id="textext-7eb8a748-1">
        <g
           id="g3827"
           style="fill:#000000;fill-opacity:1" />
      </g>
    </g>
    <use
       style="fill:#000000;fill-opacity:1"
       id="use3030-8"
       y="134.765"
       x="223.43201"
       xlink:href="#textext-28c1ecfe-0"
       width="744.09448"
       height="1052.3622"
       transform="matrix(3.4997807,0,0,3.4997807,-690.00194,115.42685)" />
    <use
       style="fill:#000000;fill-opacity:1"
       id="use3030-8-7"
       y="134.765"
       x="223.43201"
       xlink:href="#textext-28c1ecfe-0"
       width="744.09448"
       height="1052.3622"
       transform="matrix(3.4997807,0,0,3.4997807,-200.5737,-112.9098)" />
    <use
       style="fill:#000000;fill-opacity:1"
       id="use3030-8-3"
       y="134.765"
       x="223.43201"
       xlink:href="#textext-28c1ecfe-0"
       width="744.09448"
       height="1052.3622"
       transform="matrix(3.4997807,0,0,3.4997807,-200.5737,-112.9098)" />
    <rect
       inkscape:export-ydpi="150"
       inkscape:export-xdpi="150"
       inkscape:export-filename="/home/waldgeist/data/pics/Homepage/mathematik/geometrie/dreieck-rechtwinklig.png"
       style="fill:#ffffff;fill-opacity:1;fill-rule:nonzero;stroke:#ffffff;stroke-width:3;stroke-linecap:square;stroke-linejoin:miter;stroke-miterlimit:4;stroke-opacity:1;stroke-dasharray:none;stroke-dashoffset:0"
       id="rect3851"
       width="718.5835"
       height="377.79706"
       x="12.755486"
       y="337.28256" />
    <path
       inkscape:export-ydpi="150"
       inkscape:export-xdpi="150"
       inkscape:export-filename="/home/waldgeist/data/pics/Homepage/mathematik/geometrie/dreieck-rechtwinklig.png"
       style="fill:#f9f9f9;stroke:#000000;stroke-width:3;stroke-linecap:round;stroke-linejoin:miter;stroke-miterlimit:4;stroke-opacity:1;stroke-dashoffset:0"
       inkscape:transform-center-y="-43.102719"
       d="m 519.33265,402.58727 149.31216,258.61625 -597.248643,0 z"
       id="path9108"
       inkscape:connector-curvature="0"
       sodipodi:nodetypes="cccc" />
    <g
       inkscape:export-ydpi="150"
       inkscape:export-xdpi="150"
       inkscape:export-filename="/home/waldgeist/data/pics/Homepage/mathematik/geometrie/dreieck-rechtwinklig.png"
       style="fill:#808080;fill-opacity:1;stroke:#808080;stroke-opacity:1"
       id="g7139"
       transform="matrix(4.6372342,0,0,4.6372342,-511.46723,-83.8965)"
       ns0:preamble="/home/waldgeist/data/sphinx/test.tex"
       ns0:text="$h$">
      <defs
         id="defs7141">
        <g
           id="g7143">
          <symbol
             id="textext-5038b5b6-0"
             overflow="visible"
             style="overflow:visible">
            <path
               id="path7146"
               d="m 2.859375,-6.8125 c 0,0 0,-0.109375 -0.125,-0.109375 -0.234375,0 -0.953125,0.078125 -1.21875,0.109375 -0.078125,0 -0.1875,0.015625 -0.1875,0.1875 0,0.125 0.09375,0.125 0.234375,0.125 0.484375,0 0.5,0.0625 0.5,0.171875 L 2.03125,-6.125 0.59375,-0.390625 c -0.046875,0.140625 -0.046875,0.15625 -0.046875,0.21875 0,0.234375 0.203125,0.28125 0.296875,0.28125 0.15625,0 0.3125,-0.125 0.359375,-0.265625 l 0.1875,-0.75 0.21875,-0.890625 C 1.671875,-2.03125 1.734375,-2.25 1.78125,-2.46875 1.796875,-2.53125 1.890625,-2.859375 1.890625,-2.921875 1.921875,-3.015625 2.234375,-3.5625 2.578125,-3.84375 2.796875,-4 3.09375,-4.1875 3.53125,-4.1875 c 0.421875,0 0.53125,0.34375 0.53125,0.703125 0,0.53125 -0.375,1.625 -0.609375,2.234375 C 3.375,-1.03125 3.3125,-0.90625 3.3125,-0.703125 c 0,0.46875 0.359375,0.8125 0.828125,0.8125 0.9375,0 1.296875,-1.453125 1.296875,-1.53125 0,-0.109375 -0.078125,-0.109375 -0.109375,-0.109375 -0.109375,0 -0.109375,0.03125 -0.15625,0.1875 -0.140625,0.53125 -0.46875,1.234375 -1.015625,1.234375 -0.171875,0 -0.234375,-0.09375 -0.234375,-0.328125 0,-0.25 0.078125,-0.484375 0.171875,-0.703125 0.15625,-0.4375 0.609375,-1.625 0.609375,-2.203125 0,-0.640625 -0.390625,-1.0625 -1.140625,-1.0625 -0.625,0 -1.109375,0.3125 -1.484375,0.765625 z m 0,0"
               style="stroke:none"
               inkscape:connector-curvature="0" />
          </symbol>
        </g>
      </defs>
      <g
         style="fill:#808080;fill-opacity:1;stroke:#808080;stroke-opacity:1"
         id="textext-5038b5b6-1">
        <g
           id="g7149"
           style="fill:#808080;fill-opacity:1;stroke:#808080;stroke-opacity:1">
          <use
             transform="translate(0,12.076166)"
             style="fill:#808080;fill-opacity:1;stroke:#808080;stroke-opacity:1"
             id="use7151"
             y="134.765"
             x="223.43201"
             xlink:href="#textext-5038b5b6-0"
             width="744.09448"
             height="1052.3622" />
        </g>
      </g>
    </g>
    <g
       inkscape:export-ydpi="150"
       inkscape:export-xdpi="150"
       inkscape:export-filename="/home/waldgeist/data/pics/Homepage/mathematik/geometrie/dreieck-rechtwinklig.png"
       transform="matrix(-1,0,0,-1.2382364,724.43947,1183.432)"
       id="g7568">
      <path
         inkscape:connector-curvature="0"
         id="path7570"
         d="m 205.10682,421.7518 0,104.42929 0,104.42929"
         style="fill:none;stroke:#808080;stroke-width:1.79733145;stroke-linecap:round;stroke-linejoin:miter;stroke-miterlimit:4;stroke-opacity:1;stroke-dasharray:5.3919945, 5.3919945;stroke-dashoffset:0"
         sodipodi:nodetypes="ccc" />
      <g
         id="g7572"
         transform="matrix(4.6372342,0,0,4.6372342,-820.5138,-82.960195)"
         ns0:preamble="/home/waldgeist/data/sphinx/test.tex"
         ns0:text="$h$">
        <defs
           id="defs7574">
          <g
             id="g7576">
            <symbol
               id="symbol7578"
               overflow="visible"
               style="overflow:visible">
              <path
                 id="path7580"
                 d="m 2.859375,-6.8125 c 0,0 0,-0.109375 -0.125,-0.109375 -0.234375,0 -0.953125,0.078125 -1.21875,0.109375 -0.078125,0 -0.1875,0.015625 -0.1875,0.1875 0,0.125 0.09375,0.125 0.234375,0.125 0.484375,0 0.5,0.0625 0.5,0.171875 L 2.03125,-6.125 0.59375,-0.390625 c -0.046875,0.140625 -0.046875,0.15625 -0.046875,0.21875 0,0.234375 0.203125,0.28125 0.296875,0.28125 0.15625,0 0.3125,-0.125 0.359375,-0.265625 l 0.1875,-0.75 0.21875,-0.890625 C 1.671875,-2.03125 1.734375,-2.25 1.78125,-2.46875 1.796875,-2.53125 1.890625,-2.859375 1.890625,-2.921875 1.921875,-3.015625 2.234375,-3.5625 2.578125,-3.84375 2.796875,-4 3.09375,-4.1875 3.53125,-4.1875 c 0.421875,0 0.53125,0.34375 0.53125,0.703125 0,0.53125 -0.375,1.625 -0.609375,2.234375 C 3.375,-1.03125 3.3125,-0.90625 3.3125,-0.703125 c 0,0.46875 0.359375,0.8125 0.828125,0.8125 0.9375,0 1.296875,-1.453125 1.296875,-1.53125 0,-0.109375 -0.078125,-0.109375 -0.109375,-0.109375 -0.109375,0 -0.109375,0.03125 -0.15625,0.1875 -0.140625,0.53125 -0.46875,1.234375 -1.015625,1.234375 -0.171875,0 -0.234375,-0.09375 -0.234375,-0.328125 0,-0.25 0.078125,-0.484375 0.171875,-0.703125 0.15625,-0.4375 0.609375,-1.625 0.609375,-2.203125 0,-0.640625 -0.390625,-1.0625 -1.140625,-1.0625 -0.625,0 -1.109375,0.3125 -1.484375,0.765625 z m 0,0"
                 style="stroke:none"
                 inkscape:connector-curvature="0" />
            </symbol>
          </g>
        </defs>
        <g
           id="g7582">
          <g
             id="g7584"
             style="fill:#000000;fill-opacity:1" />
        </g>
      </g>
    </g>
    <g
       inkscape:export-ydpi="150"
       inkscape:export-xdpi="150"
       inkscape:export-filename="/home/waldgeist/data/pics/Homepage/mathematik/geometrie/dreieck-rechtwinklig.png"
       id="g9653"
       transform="translate(3.3756929,-5.6231862)">
      <path
         transform="translate(103.31093,56.822884)"
         sodipodi:open="true"
         sodipodi:end="6.2831853"
         sodipodi:start="4.712389"
         d="m 412.64603,586.79833 c 11.15855,0 20.20435,9.0458 20.20435,20.20436"
         sodipodi:ry="20.204355"
         sodipodi:rx="20.204355"
         sodipodi:cy="607.00269"
         sodipodi:cx="412.64603"
         id="path9226"
         style="fill:none;stroke:#808080;stroke-width:3;stroke-linecap:round;stroke-linejoin:miter;stroke-miterlimit:4;stroke-opacity:1;stroke-dasharray:none;stroke-dashoffset:0"
         sodipodi:type="arc" />
      <path
         transform="matrix(-0.30294371,0,0,-0.30294371,644.67721,843.82986)"
         d="m 401.59876,620.2063 c 0,0.48815 -0.39573,0.88388 -0.88389,0.88388 -0.48815,0 -0.88388,-0.39573 -0.88388,-0.88388 0,-0.48816 0.39573,-0.88388 0.88388,-0.88388 0.48816,0 0.88389,0.39572 0.88389,0.88388 z"
         sodipodi:ry="0.88388348"
         sodipodi:rx="0.88388348"
         sodipodi:cy="620.2063"
         sodipodi:cx="400.71487"
         id="path9230"
         style="fill:none;stroke:#808080;stroke-width:9.90283012;stroke-linecap:round;stroke-linejoin:miter;stroke-miterlimit:4;stroke-opacity:1;stroke-dasharray:none;stroke-dashoffset:0"
         sodipodi:type="arc" />
      <g
         transform="matrix(1.4318442,0,0,1.4318442,-229.10019,-184.05956)"
         id="g6534">
        <g
           transform="matrix(1.3948528,0,0,1.3948528,-203.43452,-168.88549)"
           id="g6538">
          <path
             sodipodi:type="arc"
             style="fill:none;stroke:#000000;stroke-width:1.50209403;stroke-linecap:round;stroke-linejoin:miter;stroke-miterlimit:4;stroke-opacity:1;stroke-dasharray:none;stroke-dashoffset:0"
             id="path12494"
             sodipodi:cx="412.64603"
             sodipodi:cy="607.00269"
             sodipodi:rx="20.204355"
             sodipodi:ry="20.204355"
             d="m 412.64603,586.79833 c 11.15855,0 20.20435,9.0458 20.20435,20.20436"
             sodipodi:start="4.712389"
             sodipodi:end="6.2831853"
             sodipodi:open="true"
             transform="matrix(-0.86602541,0.5,-0.5,-0.86602541,1179.777,736.97211)" />
          <path
             sodipodi:type="arc"
             style="fill:none;stroke:#000000;stroke-width:4.95832708000000011;stroke-linecap:butt;stroke-linejoin:round;stroke-miterlimit:4;stroke-opacity:1;stroke-dasharray:none;stroke-dashoffset:0"
             id="path12496"
             sodipodi:cx="400.71487"
             sodipodi:cy="620.2063"
             sodipodi:rx="0.88388348"
             sodipodi:ry="0.88388348"
             d="m 401.59876,620.2063 c 0,0.48815 -0.39573,0.88388 -0.88389,0.88388 -0.48815,0 -0.88388,-0.39573 -0.88388,-0.88388 0,-0.48816 0.39573,-0.88388 0.88388,-0.88388 0.48816,0 0.88389,0.39572 0.88389,0.88388 z"
             transform="matrix(-0.30294371,0,0,-0.30294371,638.1587,616.62572)" />
        </g>
      </g>
    </g>
    <path
       inkscape:export-ydpi="150"
       inkscape:export-xdpi="150"
       inkscape:export-filename="/home/waldgeist/data/pics/Homepage/mathematik/geometrie/dreieck-rechtwinklig.png"
       sodipodi:type="arc"
       style="fill:#ffffff;fill-opacity:1;fill-rule:nonzero;stroke:#000000;stroke-width:3;stroke-linecap:square;stroke-linejoin:miter;stroke-miterlimit:4;stroke-opacity:1;stroke-dasharray:none;stroke-dashoffset:0"
       id="path6794"
       sodipodi:cx="146.47212"
       sodipodi:cy="506.87982"
       sodipodi:rx="49.497475"
       sodipodi:ry="49.497475"
       d="m 170.61994,463.67238 a 49.497475,49.497475 0 0 1 25.34966,43.20744"
       sodipodi:start="5.2220251"
       sodipodi:end="6.2831853"
       sodipodi:open="true"
       transform="translate(-20.818349,154.3237)" />
    <g
       inkscape:export-ydpi="150"
       inkscape:export-xdpi="150"
       inkscape:export-filename="/home/waldgeist/data/pics/Homepage/mathematik/geometrie/dreieck-rechtwinklig.png"
       transform="matrix(4.6372342,0,0,4.6372342,127.29509,653.5854)"
       style="fill:#000000;fill-opacity:1"
       id="use6966">
      <path
         id="path12626"
         d="m 4.75,-2.359375 c 0,-1.5625 -0.921875,-2.046875 -1.65625,-2.046875 -1.375,0 -2.6875,1.421875 -2.6875,2.828125 0,0.9375 0.59375,1.6875 1.625,1.6875 0.625,0 1.34375,-0.234375 2.09375,-0.84375 0.125,0.53125 0.453125,0.84375 0.90625,0.84375 0.53125,0 0.84375,-0.546875 0.84375,-0.703125 0,-0.078125 -0.0625,-0.109375 -0.125,-0.109375 -0.0625,0 -0.09375,0.03125 -0.125,0.109375 -0.1875,0.484375 -0.546875,0.484375 -0.5625,0.484375 -0.3125,0 -0.3125,-0.78125 -0.3125,-1.015625 0,-0.203125 0,-0.234375 0.109375,-0.34375 C 5.796875,-2.65625 6,-3.8125 6,-3.8125 6,-3.84375 5.984375,-3.921875 5.875,-3.921875 c -0.09375,0 -0.09375,0.03125 -0.140625,0.21875 -0.1875,0.625 -0.515625,1.375 -0.984375,1.96875 z m -0.65625,1.375 c -0.890625,0.765625 -1.65625,0.875 -2.046875,0.875 -0.59375,0 -0.90625,-0.453125 -0.90625,-1.09375 0,-0.484375 0.265625,-1.5625 0.578125,-2.0625 C 2.1875,-4 2.734375,-4.1875 3.078125,-4.1875 c 0.984375,0 0.984375,1.3125 0.984375,2.078125 0,0.375 0,0.953125 0.03125,1.125 z m 0,0"
         style="stroke:none"
         inkscape:connector-curvature="0" />
    </g>
    <g
       inkscape:export-ydpi="150"
       inkscape:export-xdpi="150"
       inkscape:export-filename="/home/waldgeist/data/pics/Homepage/mathematik/geometrie/dreieck-rechtwinklig.png"
       ns0:text="$b$"
       ns0:preamble="/home/waldgeist/data/sphinx/test.tex"
       transform="matrix(7.4449455,0,0,7.4449455,-1398.2632,-454.7761)"
       id="g10197"
       style="fill:#4d4d4d">
      <defs
         id="defs10199">
        <g
           id="g10201">
          <symbol
             style="overflow:visible"
             overflow="visible"
             id="symbol10203">
            <path
               inkscape:connector-curvature="0"
               style="stroke:none"
               d="m 2.375,-6.8125 c 0,0 0,-0.109375 -0.125,-0.109375 -0.21875,0 -0.953125,0.078125 -1.21875,0.109375 -0.078125,0 -0.1875,0.015625 -0.1875,0.1875 0,0.125 0.09375,0.125 0.25,0.125 0.46875,0 0.484375,0.0625 0.484375,0.171875 0,0.0625 -0.078125,0.40625 -0.125,0.609375 l -0.828125,3.25 c -0.109375,0.5 -0.15625,0.671875 -0.15625,1.015625 0,0.9375 0.53125,1.5625 1.265625,1.5625 1.171875,0 2.40625,-1.484375 2.40625,-2.921875 0,-0.90625 -0.53125,-1.59375 -1.328125,-1.59375 -0.453125,0 -0.875,0.296875 -1.171875,0.59375 z M 1.453125,-3.046875 C 1.5,-3.265625 1.5,-3.28125 1.59375,-3.390625 2.078125,-4.03125 2.53125,-4.1875 2.796875,-4.1875 c 0.359375,0 0.625,0.296875 0.625,0.9375 0,0.59375 -0.328125,1.734375 -0.515625,2.109375 -0.328125,0.671875 -0.78125,1.03125 -1.171875,1.03125 -0.34375,0 -0.671875,-0.265625 -0.671875,-1 0,-0.203125 0,-0.390625 0.15625,-1.015625 z m 0,0"
               id="path10205" />
          </symbol>
        </g>
      </defs>
      <g
         id="g10207"
         style="fill:#4d4d4d">
        <g
           style="fill:#4d4d4d;fill-opacity:1"
           id="g10209">
          <g
             id="use10211"
             transform="matrix(0.62179376,0,0,0.62179376,221.17942,132.89336)"
             style="fill:#4d4d4d">
            <path
               inkscape:connector-curvature="0"
               style="stroke:none;fill:#4d4d4d"
               d="m 2.375,-6.8125 c 0,0 0,-0.109375 -0.125,-0.109375 -0.21875,0 -0.953125,0.078125 -1.21875,0.109375 -0.078125,0 -0.1875,0.015625 -0.1875,0.1875 0,0.125 0.09375,0.125 0.25,0.125 0.46875,0 0.484375,0.0625 0.484375,0.171875 0,0.0625 -0.078125,0.40625 -0.125,0.609375 l -0.828125,3.25 c -0.109375,0.5 -0.15625,0.671875 -0.15625,1.015625 0,0.9375 0.53125,1.5625 1.265625,1.5625 1.171875,0 2.40625,-1.484375 2.40625,-2.921875 0,-0.90625 -0.53125,-1.59375 -1.328125,-1.59375 -0.453125,0 -0.875,0.296875 -1.171875,0.59375 z M 1.453125,-3.046875 C 1.5,-3.265625 1.5,-3.28125 1.59375,-3.390625 2.078125,-4.03125 2.53125,-4.1875 2.796875,-4.1875 c 0.359375,0 0.625,0.296875 0.625,0.9375 0,0.59375 -0.328125,1.734375 -0.515625,2.109375 -0.328125,0.671875 -0.78125,1.03125 -1.171875,1.03125 -0.34375,0 -0.671875,-0.265625 -0.671875,-1 0,-0.203125 0,-0.390625 0.15625,-1.015625 z m 0,0"
               id="path10872" />
          </g>
        </g>
      </g>
    </g>
    <g
       inkscape:export-ydpi="150"
       inkscape:export-xdpi="150"
       inkscape:export-filename="/home/waldgeist/data/pics/Homepage/mathematik/geometrie/dreieck-rechtwinklig.png"
       id="g10854"
       ns0:preamble="/home/waldgeist/data/sphinx/test.tex"
       ns0:text="$a$"
       transform="matrix(7.4449455,0,0,7.4449455,-1107.4167,-474.84105)"
       style="fill:#4d4d4d">
      <defs
         id="defs10856">
        <g
           id="g10858">
          <symbol
             id="symbol10860"
             overflow="visible"
             style="overflow:visible">
            <path
               id="path10862"
               d="M 3.71875,-3.765625 C 3.53125,-4.140625 3.25,-4.40625 2.796875,-4.40625 c -1.15625,0 -2.390625,1.46875 -2.390625,2.921875 0,0.9375 0.546875,1.59375 1.3125,1.59375 0.203125,0 0.703125,-0.046875 1.296875,-0.75 0.078125,0.421875 0.4375,0.75 0.90625,0.75 0.359375,0 0.578125,-0.234375 0.75,-0.546875 0.15625,-0.359375 0.296875,-0.96875 0.296875,-0.984375 0,-0.109375 -0.09375,-0.109375 -0.125,-0.109375 -0.09375,0 -0.109375,0.046875 -0.140625,0.1875 -0.171875,0.640625 -0.34375,1.234375 -0.75,1.234375 -0.28125,0 -0.296875,-0.265625 -0.296875,-0.453125 0,-0.21875 0.015625,-0.3125 0.125,-0.75 C 3.890625,-1.71875 3.90625,-1.828125 4,-2.203125 L 4.359375,-3.59375 c 0.0625,-0.28125 0.0625,-0.296875 0.0625,-0.34375 0,-0.171875 -0.109375,-0.265625 -0.28125,-0.265625 -0.25,0 -0.390625,0.21875 -0.421875,0.4375 z M 3.078125,-1.1875 C 3.015625,-1 3.015625,-0.984375 2.875,-0.8125 2.4375,-0.265625 2.03125,-0.109375 1.75,-0.109375 c -0.5,0 -0.640625,-0.546875 -0.640625,-0.9375 0,-0.5 0.3125,-1.71875 0.546875,-2.1875 0.3125,-0.578125 0.75,-0.953125 1.15625,-0.953125 0.640625,0 0.78125,0.8125 0.78125,0.875 0,0.0625 -0.015625,0.125 -0.03125,0.171875 z m 0,0"
               style="stroke:none"
               inkscape:connector-curvature="0" />
          </symbol>
        </g>
      </defs>
      <g
         id="g10864"
         style="fill:#4d4d4d">
        <g
           id="g10866"
           style="fill:#4d4d4d;fill-opacity:1">
          <g
             id="use10868"
             transform="matrix(0.62179376,0,0,0.62179376,231.13554,134.80637)"
             style="fill:#4d4d4d">
            <path
               id="path11260"
               d="M 3.71875,-3.765625 C 3.53125,-4.140625 3.25,-4.40625 2.796875,-4.40625 c -1.15625,0 -2.390625,1.46875 -2.390625,2.921875 0,0.9375 0.546875,1.59375 1.3125,1.59375 0.203125,0 0.703125,-0.046875 1.296875,-0.75 0.078125,0.421875 0.4375,0.75 0.90625,0.75 0.359375,0 0.578125,-0.234375 0.75,-0.546875 0.15625,-0.359375 0.296875,-0.96875 0.296875,-0.984375 0,-0.109375 -0.09375,-0.109375 -0.125,-0.109375 -0.09375,0 -0.109375,0.046875 -0.140625,0.1875 -0.171875,0.640625 -0.34375,1.234375 -0.75,1.234375 -0.28125,0 -0.296875,-0.265625 -0.296875,-0.453125 0,-0.21875 0.015625,-0.3125 0.125,-0.75 C 3.890625,-1.71875 3.90625,-1.828125 4,-2.203125 L 4.359375,-3.59375 c 0.0625,-0.28125 0.0625,-0.296875 0.0625,-0.34375 0,-0.171875 -0.109375,-0.265625 -0.28125,-0.265625 -0.25,0 -0.390625,0.21875 -0.421875,0.4375 z M 3.078125,-1.1875 C 3.015625,-1 3.015625,-0.984375 2.875,-0.8125 2.4375,-0.265625 2.03125,-0.109375 1.75,-0.109375 c -0.5,0 -0.640625,-0.546875 -0.640625,-0.9375 0,-0.5 0.3125,-1.71875 0.546875,-2.1875 0.3125,-0.578125 0.75,-0.953125 1.15625,-0.953125 0.640625,0 0.78125,0.8125 0.78125,0.875 0,0.0625 -0.015625,0.125 -0.03125,0.171875 z m 0,0"
               style="stroke:none;fill:#4d4d4d"
               inkscape:connector-curvature="0" />
          </g>
        </g>
      </g>
    </g>
    <g
       inkscape:export-ydpi="150"
       inkscape:export-xdpi="150"
       inkscape:export-filename="/home/waldgeist/data/pics/Homepage/mathematik/geometrie/dreieck-rechtwinklig.png"
       ns0:text="$c$"
       ns0:preamble="/home/waldgeist/data/sphinx/test.tex"
       transform="matrix(4.6372342,0,0,4.6372342,-657.76167,77.156974)"
       id="g11439"
       style="fill:#4d4d4d">
      <defs
         id="defs11441">
        <g
           id="g11443">
          <symbol
             style="overflow:visible"
             overflow="visible"
             id="textext-26a702f7-0">
            <path
               inkscape:connector-curvature="0"
               style="stroke:none"
               d="m 3.953125,-3.78125 c -0.171875,0 -0.296875,0 -0.4375,0.125 -0.171875,0.15625 -0.1875,0.328125 -0.1875,0.390625 0,0.25 0.1875,0.359375 0.375,0.359375 0.28125,0 0.546875,-0.25 0.546875,-0.640625 0,-0.484375 -0.46875,-0.859375 -1.171875,-0.859375 -1.34375,0 -2.671875,1.421875 -2.671875,2.828125 0,0.90625 0.578125,1.6875 1.625,1.6875 1.421875,0 2.25,-1.0625 2.25,-1.171875 0,-0.0625 -0.046875,-0.140625 -0.109375,-0.140625 -0.0625,0 -0.078125,0.03125 -0.140625,0.109375 -0.78125,0.984375 -1.875,0.984375 -1.984375,0.984375 -0.625,0 -0.90625,-0.484375 -0.90625,-1.09375 0,-0.40625 0.203125,-1.375 0.546875,-1.984375 0.3125,-0.578125 0.859375,-1 1.40625,-1 0.328125,0 0.71875,0.125 0.859375,0.40625 z m 0,0"
               id="path11446" />
          </symbol>
        </g>
      </defs>
      <g
         id="textext-26a702f7-1"
         style="fill:#4d4d4d">
        <g
           style="fill:#4d4d4d;fill-opacity:1"
           id="g11449">
          <use
             height="1052.3622"
             width="744.09448"
             xlink:href="#textext-26a702f7-0"
             x="223.43201"
             y="134.765"
             id="use11451"
             style="fill:#4d4d4d" />
        </g>
      </g>
    </g>
    <path
       inkscape:export-ydpi="150"
       inkscape:export-xdpi="150"
       inkscape:export-filename="/home/waldgeist/data/pics/Homepage/mathematik/geometrie/dreieck-rechtwinklig.png"
       transform="matrix(-1.0393263,0,0,1.0400055,797.2378,134.04572)"
       sodipodi:open="true"
       sodipodi:end="6.2831853"
       sodipodi:start="4.8694686"
       d="m 154.21523,457.99174 a 49.497475,49.497475 0 0 1 41.75437,48.88808"
       sodipodi:ry="49.497475"
       sodipodi:rx="49.497475"
       sodipodi:cy="506.87982"
       sodipodi:cx="146.47212"
       id="path11996"
       style="fill:#ffffff;fill-opacity:1;fill-rule:nonzero;stroke:#000000;stroke-width:2.88554263;stroke-linecap:square;stroke-linejoin:miter;stroke-miterlimit:4;stroke-opacity:1;stroke-dasharray:none;stroke-dashoffset:0"
       sodipodi:type="arc" />
    <g
       inkscape:export-ydpi="150"
       inkscape:export-xdpi="150"
       inkscape:export-filename="/home/waldgeist/data/pics/Homepage/mathematik/geometrie/dreieck-rechtwinklig.png"
       ns0:text="$\\beta$"
       ns0:preamble="/home/waldgeist/data/sphinx/test.tex"
       transform="matrix(4.6372342,0,0,4.6372342,-425.12383,28.686462)"
       id="g12193">
      <defs
         id="defs12195">
        <g
           id="g12197">
          <symbol
             style="overflow:visible"
             overflow="visible"
             id="textext-2d68729f-0">
            <path
               inkscape:connector-curvature="0"
               style="stroke:none"
               d="m 5.734375,-5.671875 c 0,-0.75 -0.546875,-1.359375 -1.359375,-1.359375 -0.578125,0 -0.859375,0.15625 -1.203125,0.40625 C 2.625,-6.21875 2.078125,-5.25 1.890625,-4.5 L 0.296875,1.828125 C 0.296875,1.875 0.34375,1.9375 0.421875,1.9375 0.5,1.9375 0.53125,1.90625 0.53125,1.890625 L 1.234375,-0.875 c 0.1875,0.609375 0.625,0.96875 1.359375,0.96875 C 3.3125,0.09375 4.0625,-0.25 4.515625,-0.6875 5,-1.140625 5.3125,-1.78125 5.3125,-2.515625 c 0,-0.71875 -0.375,-1.25 -0.734375,-1.484375 0.578125,-0.34375 1.15625,-0.953125 1.15625,-1.671875 z M 3.9375,-4.015625 c -0.125,0.046875 -0.234375,0.0625 -0.484375,0.0625 -0.140625,0 -0.328125,0.015625 -0.4375,-0.03125 0.03125,-0.109375 0.390625,-0.078125 0.5,-0.078125 0.203125,0 0.296875,0 0.421875,0.046875 z M 5.171875,-5.90625 c 0,0.703125 -0.375,1.421875 -0.890625,1.734375 C 4,-4.28125 3.8125,-4.296875 3.515625,-4.296875 c -0.21875,0 -0.78125,-0.015625 -0.78125,0.3125 0,0.28125 0.515625,0.25 0.6875,0.25 0.375,0 0.53125,0 0.828125,-0.125 0.375,0.359375 0.421875,0.671875 0.4375,1.125 0.015625,0.578125 -0.21875,1.328125 -0.5,1.71875 C 3.796875,-0.484375 3.125,-0.125 2.5625,-0.125 c -0.765625,0 -1.140625,-0.578125 -1.140625,-1.28125 0,-0.09375 0,-0.25 0.046875,-0.4375 L 2.109375,-4.359375 C 2.328125,-5.21875 3.046875,-6.8125 4.25,-6.8125 c 0.578125,0 0.921875,0.3125 0.921875,0.90625 z m 0,0"
               id="path12200" />
          </symbol>
        </g>
      </defs>
      <g
         id="textext-2d68729f-1">
        <g
           style="fill:#000000;fill-opacity:1"
           id="g12203">
          <use
             height="1052.3622"
             width="744.09448"
             xlink:href="#textext-2d68729f-0"
             x="223.43201"
             y="134.765"
             id="use12205" />
        </g>
      </g>
    </g>
    <g
       id="g9742"
       transform="matrix(4.5876391,0,0,4.5690468,-520.18604,-229.57461)"
       ns0:preamble=""
       ns0:text="$\\rm{C}$"
       inkscape:export-filename="/home/waldgeist/data/pics/Homepage/mathematik/geometrie/dreieck-rechtwinklig.png"
       inkscape:export-xdpi="150"
       inkscape:export-ydpi="150">
      <defs
         id="defs9744">
        <g
           id="g9746">
          <symbol
             id="textext-dbe9b446-0"
             overflow="visible"
             style="overflow:visible">
            <path
               id="path9749"
               d=""
               style="stroke:none"
               inkscape:connector-curvature="0" />
          </symbol>
          <symbol
             id="textext-dbe9b446-1"
             overflow="visible"
             style="overflow:visible">
            <path
               id="path9752"
               d="m 0.5625,-3.40625 c 0,2.0625 1.609375,3.625 3.46875,3.625 1.625,0 2.59375,-1.390625 2.59375,-2.546875 C 6.625,-2.421875 6.625,-2.5 6.5,-2.5 6.390625,-2.5 6.390625,-2.4375 6.375,-2.328125 6.296875,-0.90625 5.234375,-0.09375 4.140625,-0.09375 c -0.609375,0 -2.5625,-0.328125 -2.5625,-3.3125 0,-2.96875 1.953125,-3.3125 2.5625,-3.3125 1.078125,0 1.96875,0.90625 2.171875,2.359375 0.015625,0.140625 0.015625,0.171875 0.15625,0.171875 0.15625,0 0.15625,-0.03125 0.15625,-0.234375 l 0,-2.359375 c 0,-0.171875 0,-0.25 -0.109375,-0.25 -0.03125,0 -0.078125,0 -0.15625,0.125 l -0.5,0.734375 C 5.5,-6.53125 4.984375,-7.03125 4.03125,-7.03125 c -1.875,0 -3.46875,1.59375 -3.46875,3.625 z"
               style="stroke:none"
               inkscape:connector-curvature="0" />
          </symbol>
        </g>
      </defs>
      <g
         id="textext-dbe9b446-2">
        <g
           id="g9755"
           style="fill:#000000;fill-opacity:1">
          <use
             id="use9757"
             y="134.765"
             x="223.43201"
             xlink:href="#textext-dbe9b446-1"
             width="744.09448"
             height="1052.3622" />
        </g>
      </g>
    </g>
    <g
       ns0:text="$\\rm{A}$"
       ns0:preamble=""
       transform="matrix(4.5690468,0,0,4.5690468,-990.9499,86.853446)"
       id="g9971"
       inkscape:export-filename="/home/waldgeist/data/pics/Homepage/mathematik/geometrie/dreieck-rechtwinklig.png"
       inkscape:export-xdpi="150"
       inkscape:export-ydpi="150">
      <defs
         id="defs9973">
        <g
           id="g9975">
          <symbol
             style="overflow:visible"
             overflow="visible"
             id="textext-a37735b6-0">
            <path
               inkscape:connector-curvature="0"
               style="stroke:none"
               d=""
               id="path9978" />
          </symbol>
          <symbol
             style="overflow:visible"
             overflow="visible"
             id="textext-a37735b6-1">
            <path
               inkscape:connector-curvature="0"
               style="stroke:none"
               d="m 3.96875,-6.9375 c -0.046875,-0.125 -0.078125,-0.203125 -0.234375,-0.203125 -0.15625,0 -0.1875,0.0625 -0.234375,0.203125 L 1.4375,-0.984375 C 1.25,-0.46875 0.859375,-0.3125 0.3125,-0.3125 l 0,0.3125 c 0.234375,-0.015625 0.671875,-0.03125 1.015625,-0.03125 0.3125,0 0.828125,0.015625 1.15625,0.03125 l 0,-0.3125 c -0.5,0 -0.75,-0.25 -0.75,-0.5 0,-0.03125 0.015625,-0.140625 0.015625,-0.15625 l 0.46875,-1.296875 2.453125,0 0.53125,1.515625 c 0.015625,0.046875 0.03125,0.109375 0.03125,0.140625 0,0.296875 -0.5625,0.296875 -0.828125,0.296875 l 0,0.3125 c 0.359375,-0.03125 1.0625,-0.03125 1.4375,-0.03125 0.421875,0 0.890625,0.015625 1.296875,0.03125 l 0,-0.3125 -0.171875,0 C 6.375,-0.3125 6.234375,-0.375 6.125,-0.703125 z m -0.53125,1.109375 1.125,3.25 -2.234375,0 z"
               id="path9981" />
          </symbol>
        </g>
      </defs>
      <g
         id="textext-a37735b6-2">
        <g
           style="fill:#000000;fill-opacity:1"
           id="g9984">
          <use
             height="1052.3622"
             width="744.09448"
             xlink:href="#textext-a37735b6-1"
             x="223.43201"
             y="134.765"
             id="use9986" />
        </g>
      </g>
    </g>
    <g
       id="g10204"
       transform="matrix(4.5690468,0,0,4.5690468,-342.82231,85.354228)"
       ns0:preamble=""
       ns0:text="$\\rm{B}$"
       inkscape:export-filename="/home/waldgeist/data/pics/Homepage/mathematik/geometrie/dreieck-rechtwinklig.png"
       inkscape:export-xdpi="150"
       inkscape:export-ydpi="150">
      <defs
         id="defs10206">
        <g
           id="g10208">
          <symbol
             id="textext-dc4e2a99-0"
             overflow="visible"
             style="overflow:visible">
            <path
               id="path10211"
               d=""
               style="stroke:none"
               inkscape:connector-curvature="0" />
          </symbol>
          <symbol
             id="textext-dc4e2a99-1"
             overflow="visible"
             style="overflow:visible">
            <path
               id="path10214"
               d="m 2.21875,-3.65625 0,-2.4375 C 2.21875,-6.4375 2.234375,-6.5 2.703125,-6.5 l 1.234375,0 c 0.96875,0 1.3125,0.84375 1.3125,1.375 0,0.640625 -0.484375,1.46875 -1.59375,1.46875 z M 4.5625,-3.5625 C 5.53125,-3.75 6.21875,-4.390625 6.21875,-5.125 6.21875,-5.984375 5.296875,-6.8125 4,-6.8125 l -3.640625,0 0,0.3125 0.234375,0 c 0.765625,0 0.796875,0.109375 0.796875,0.46875 l 0,5.25 c 0,0.359375 -0.03125,0.46875 -0.796875,0.46875 l -0.234375,0 0,0.3125 3.90625,0 c 1.328125,0 2.21875,-0.890625 2.21875,-1.828125 0,-0.859375 -0.8125,-1.609375 -1.921875,-1.734375 z m -0.609375,3.25 -1.25,0 c -0.46875,0 -0.484375,-0.0625 -0.484375,-0.390625 l 0,-2.71875 1.875,0 C 5.078125,-3.421875 5.5,-2.5 5.5,-1.828125 5.5,-1.125 4.96875,-0.3125 3.953125,-0.3125 z"
               style="stroke:none"
               inkscape:connector-curvature="0" />
          </symbol>
        </g>
      </defs>
      <g
         id="textext-dc4e2a99-2">
        <g
           id="g10217"
           style="fill:#000000;fill-opacity:1">
          <use
             id="use10219"
             y="134.765"
             x="223.43201"
             xlink:href="#textext-dc4e2a99-1"
             width="744.09448"
             height="1052.3622" />
        </g>
      </g>
    </g>
  </g>
</svg>
