<svg xmlns:ns0="http://www.iki.fi/pav/software/textext/" xmlns="http://www.w3.org/2000/svg" xmlns:xlink="http://www.w3.org/1999/xlink" width="210mm" height="297mm"><title>Die Gerade</title><defs><marker id="a" orient="auto" overflow="visible"><path transform="scale(.6)" d="M8.719 4.034L-2.207.016 8.719-4.002c-1.746 2.372-1.736 5.618 0 8.036z" fill-rule="evenodd" stroke-width=".625" stroke-linejoin="round"/></marker><marker id="b" orient="auto" overflow="visible"><path transform="rotate(180) scale(.6)" d="M8.719 4.034L-2.207.016 8.719-4.002c-1.746 2.372-1.736 5.618 0 8.036z" fill-rule="evenodd" stroke-width=".625" stroke-linejoin="round"/></marker></defs><rect style="marker:none" width="669.908" height="203.569" x="37.093" y="424.396" ry="2.218" color="#000" fill="#fff" stroke="#fff" stroke-width="2.396" stroke-linecap="round" stroke-linejoin="bevel" overflow="visible"/><path d="M124.281 595.02l495.532-137.9" fill="none" stroke="gray" stroke-width="3" stroke-linecap="round" stroke-dasharray="3,9"/><path d="M211.14 570.596l321.814-88.83" fill="none" stroke="#000" stroke-width="3" marker-start="url(#a)" marker-end="url(#b)"/><g transform="matrix(3.37375 0 0 3.37375 -369.042 101.198)" ns0:preamble="/home/waldgeist/data/sphinx/inkscape-preamble.tex" ns0:text="$g$" stroke="#000"><defs><symbol id="c" overflow="visible"><path d="M4.688-3.766a.562.562 0 0 0 .03-.171c0-.172-.109-.266-.28-.266-.094 0-.375.062-.407.422-.187-.36-.531-.625-.937-.625-1.125 0-2.36 1.39-2.36 2.828C.734-.594 1.328 0 2.047 0c.594 0 1.062-.469 1.156-.578l.016.015C3.016.313 2.89.734 2.89.75c-.047.094-.375 1.078-1.438 1.078a2.68 2.68 0 0 1-.797-.11.542.542 0 0 0 .406-.515C1.063 1.047.954.86.688.86a.546.546 0 0 0-.53.579c0 .406.359.609 1.312.609 1.25 0 1.968-.781 2.125-1.375zM3.405-1.28c-.062.265-.297.515-.515.703-.204.172-.516.36-.813.36-.5 0-.64-.516-.64-.923 0-.468.28-1.656.562-2.156.266-.484.688-.89 1.11-.89.656 0 .796.812.796.859 0 .047-.015.11-.031.14z" stroke="none"/></symbol></defs><use y="134.765" x="223.432" xlink:href="#c" width="744.094" height="1052.362"/></g></svg>