<svg xmlns:ns0="http://www.iki.fi/pav/software/textext/" xmlns="http://www.w3.org/2000/svg" xmlns:xlink="http://www.w3.org/1999/xlink" width="1052.362" height="744.094"><title>Der Kreisbogen</title><defs><marker id="r" orient="auto" overflow="visible"><path d="M-2.308 0l3.46-2v4l-3.46-2z" fill-rule="evenodd" stroke="#000" stroke-width=".4pt"/></marker></defs><g transform="translate(0 -308.268)"><use y="134.765" x="223.432" xlink:href="#textext-28c1ecfe-0" width="744.094" height="1052.362" transform="translate(-690.002 115.427) scale(3.49978)"/><use y="134.765" x="223.432" xlink:href="#textext-28c1ecfe-0" width="744.094" height="1052.362" transform="translate(-200.574 -112.91) scale(3.49978)"/><use y="134.765" x="223.432" xlink:href="#textext-28c1ecfe-0" width="744.094" height="1052.362" transform="translate(-200.574 -112.91) scale(3.49978)"/><use y="134.765" x="223.432" xlink:href="#textext-28c1ecfe-0" width="744.094" height="1052.362" transform="translate(247.109 692.116) scale(3.49978)"/><use y="134.765" x="223.432" xlink:href="#textext-28c1ecfe-0" width="744.094" height="1052.362" transform="translate(736.537 463.779) scale(3.49978)"/><use y="134.765" x="223.432" xlink:href="#textext-28c1ecfe-0" width="744.094" height="1052.362" transform="translate(736.537 463.779) scale(3.49978)"/><path fill="#fff" stroke="#fff" stroke-width="4.405" stroke-linecap="square" d="M86.485 390.599h879.392v579.432H86.485z"/><path d="M688.78 680.315c0 89.801-72.798 162.6-162.599 162.6-89.801 0-162.6-72.799-162.6-162.6 0-89.801 72.799-162.6 162.6-162.6 89.801 0 162.6 72.799 162.6 162.6z" fill="#fff" stroke="#000" stroke-width="3.0002544" stroke-linecap="round" stroke-dasharray="4.95958435000000009,4.95958435000000009"/><path d="M688.78 680.315c0 89.801-72.798 162.6-162.599 162.6-89.801 0-162.6-72.799-162.6-162.6 0-89.801 72.799-162.6 162.6-162.6 89.801 0 162.6 72.799 162.6 162.6z" fill="#f9f9f9" stroke="#000" stroke-width="3.0002544" stroke-linecap="round"/><g stroke="#4d4d4d" stroke-width="1.418" stroke-dasharray=".70876729999999999,2.8350692099999999"><path d="M205.107 421.752V630.61" fill="none" stroke-linecap="round" transform="matrix(.01573 -1.27855 1.55702 -.00485 -296.446 944.662)"/></g><g stroke="#4d4d4d" stroke-width="1.418" stroke-dasharray=".70876735000000002,2.83506941999999995"><path d="M205.107 421.752V630.61" fill="none" stroke-linecap="round" transform="matrix(-1.27854 -.01573 -.00485 -1.55702 791.476 1502.813)"/></g><path d="M578.68 679.873c0 29.065-23.561 52.627-52.626 52.627-29.065 0-52.627-23.562-52.627-52.627s23.562-52.627 52.627-52.627 52.627 23.562 52.627 52.627z" fill="none" stroke="#b2b2b2" stroke-width="1.5000663600000002" stroke-linecap="round" stroke-dasharray="3.83086301,15.32345202"/><g ns0:text="\n\\begin{align*}\n&amp;90^{\\circ} \\stackrel{\\wedge}= \\frac{\\pi}{2}\n\\end{align*}" ns0:preamble="/home/waldgeist/data/sphinx/inkscape-preamble.tex" transform="matrix(4.58764 0 0 4.56905 -1301.271 -246.718)"><defs><symbol overflow="visible" id="a"><path d="M3.656-3.172v.328c0 2.328-1.031 2.781-1.61 2.781-.171 0-.718-.015-.983-.359.437 0 .515-.281.515-.453 0-.313-.234-.453-.453-.453-.156 0-.453.078-.453.469 0 .671.531 1.078 1.375 1.078 1.297 0 2.515-1.36 2.515-3.5 0-2.688-1.156-3.36-2.046-3.36-.547 0-1.032.188-1.454.625-.421.454-.64.875-.64 1.625 0 1.235.875 2.22 1.984 2.22.61 0 1.016-.423 1.25-1zm-1.234.766c-.156 0-.625 0-.922-.625-.188-.375-.188-.86-.188-1.36 0-.53 0-1 .22-1.375.265-.5.64-.625.984-.625.468 0 .796.344.968.782.11.328.157.953.157 1.406 0 .828-.344 1.797-1.22 1.797zm0 0"/></symbol><symbol overflow="visible" id="b"><path d="M4.578-3.188c0-.796-.047-1.593-.39-2.328C3.733-6.484 2.905-6.64 2.5-6.64c-.61 0-1.328.266-1.75 1.188-.313.687-.36 1.469-.36 2.266 0 .75.032 1.64.454 2.406a1.83 1.83 0 0 0 1.64 1c.532 0 1.297-.203 1.735-1.157.312-.687.36-1.468.36-2.25zM2.484 0c-.39 0-.984-.25-1.156-1.203-.11-.594-.11-1.516-.11-2.11 0-.64 0-1.296.079-1.828.187-1.187.937-1.28 1.187-1.28.329 0 .985.187 1.172 1.171.11.563.11 1.313.11 1.938 0 .75 0 1.421-.11 2.062C3.5-.297 2.937 0 2.484 0zm0 0"/></symbol><symbol overflow="visible" id="e"><path d="M6.844-3.266c.156 0 .343 0 .343-.187 0-.203-.187-.203-.328-.203H.891c-.141 0-.329 0-.329.203 0 .187.188.187.329.187zm.015 1.938c.141 0 .329 0 .329-.203 0-.188-.188-.188-.344-.188H.89c-.141 0-.329 0-.329.188 0 .203.188.203.329.203zm0 0"/></symbol><symbol overflow="visible" id="g"><path d="M1.266-.766l1.062-1.03c1.547-1.376 2.14-1.907 2.14-2.907 0-1.14-.89-1.938-2.109-1.938C1.234-6.64.5-5.719.5-4.828c0 .547.5.547.531.547.172 0 .516-.11.516-.532a.513.513 0 0 0-.531-.515c-.079 0-.094 0-.125.016.218-.657.765-1.016 1.343-1.016.907 0 1.329.812 1.329 1.625 0 .797-.485 1.578-1.047 2.203L.609-.375C.5-.265.5-.235.5 0h3.703l.266-1.734h-.235C4.172-1.438 4.11-1 4-.844c-.063.078-.719.078-.938.078zm0 0"/></symbol><symbol overflow="visible" id="c"><path d="M3.531-1.734c0-.844-.672-1.5-1.5-1.5s-1.5.671-1.5 1.484a1.5 1.5 0 0 0 1.5 1.5c.844 0 1.5-.672 1.5-1.484zm-1.5 1.14A1.157 1.157 0 1 1 3.187-1.75c0 .656-.515 1.156-1.156 1.156zm0 0"/></symbol><symbol overflow="visible" id="d"><path d="M2.86-4.031c-.032-.078-.079-.157-.172-.157-.11 0-.141.063-.188.157L.578-.156c-.047.093-.047.093-.047.125 0 .11.094.172.172.172.094 0 .14-.063.203-.172l1.766-3.594L4.453-.047c.063.14.094.188.203.188a.173.173 0 0 0 .172-.172c0-.032 0-.032-.047-.125zm0 0"/></symbol><symbol overflow="visible" id="f"><path d="M2.64-3.719h1.126c-.329 1.469-.422 1.906-.422 2.578 0 .141 0 .407.078.75.11.438.219.5.36.5.202 0 .421-.171.421-.375 0-.062 0-.078-.062-.218-.297-.72-.297-1.375-.297-1.657 0-.515.078-1.062.187-1.578h1.125c.14 0 .5 0 .5-.344 0-.234-.218-.234-.406-.234H1.906c-.218 0-.593 0-1.031.469-.344.39-.61.844-.61.89 0 .016 0 .11.126.11.078 0 .093-.047.156-.125.484-.766 1.062-.766 1.265-.766h.563c-.313 1.203-.844 2.406-1.266 3.313-.078.156-.078.172-.078.25 0 .187.157.265.282.265.296 0 .375-.28.5-.64.14-.469.14-.485.265-.985zm0 0"/></symbol></defs><use height="744.094" width="1052.362" xlink:href="#a" x="377.161" y="156.682"/><use height="744.094" width="1052.362" xlink:href="#b" x="382.142" y="156.682"/><use height="744.094" width="1052.362" xlink:href="#c" x="387.124" y="152.569"/><use height="744.094" width="1052.362" xlink:href="#d" x="395.661" y="151.035"/><use height="744.094" width="1052.362" xlink:href="#e" x="394.471" y="156.682"/><use height="744.094" width="1052.362" xlink:href="#f" x="406.183" y="149.943"/><path d="M406.5 154.5h6" fill="none" stroke="#000" stroke-miterlimit="10"/><g><use height="744.094" width="1052.362" xlink:href="#g" x="406.71" y="163.516"/></g></g><g transform="matrix(4.58764 0 0 4.56905 -1285.271 190.71)" ns0:preamble="/home/waldgeist/data/sphinx/inkscape-preamble.tex" ns0:text="\n\\begin{align*}\n&amp;270^{\\circ} \\stackrel{\\wedge}= \\frac{3 \\cdot \\pi}{2}\n\\end{align*}"><defs><symbol id="h" overflow="visible"><path d="M1.266-.766l1.062-1.03c1.547-1.376 2.14-1.907 2.14-2.907 0-1.14-.89-1.938-2.109-1.938C1.234-6.64.5-5.719.5-4.828c0 .547.5.547.531.547.172 0 .516-.11.516-.532a.513.513 0 0 0-.531-.515c-.079 0-.094 0-.125.016.218-.657.765-1.016 1.343-1.016.907 0 1.329.812 1.329 1.625 0 .797-.485 1.578-1.047 2.203L.609-.375C.5-.265.5-.235.5 0h3.703l.266-1.734h-.235C4.172-1.438 4.11-1 4-.844c-.063.078-.719.078-.938.078zm0 0"/></symbol><symbol id="i" overflow="visible"><path d="M4.75-6.078c.078-.11.078-.125.078-.344H2.406c-1.203 0-1.234-.125-1.265-.312H.89L.562-4.688h.25c.032-.156.11-.78.25-.906.063-.062.844-.062.97-.062h2.062c-.11.156-.89 1.25-1.11 1.578C2.078-2.734 1.75-1.344 1.75-.328c0 .094 0 .547.469.547.453 0 .453-.453.453-.547v-.516c0-.547.031-1.094.11-1.625.046-.234.171-1.094.624-1.703zm0 0"/></symbol><symbol id="j" overflow="visible"><path d="M4.578-3.188c0-.796-.047-1.593-.39-2.328C3.733-6.484 2.905-6.64 2.5-6.64c-.61 0-1.328.266-1.75 1.188-.313.687-.36 1.469-.36 2.266 0 .75.032 1.64.454 2.406a1.83 1.83 0 0 0 1.64 1c.532 0 1.297-.203 1.735-1.157.312-.687.36-1.468.36-2.25zM2.484 0c-.39 0-.984-.25-1.156-1.203-.11-.594-.11-1.516-.11-2.11 0-.64 0-1.296.079-1.828.187-1.187.937-1.28 1.187-1.28.329 0 .985.187 1.172 1.171.11.563.11 1.313.11 1.938 0 .75 0 1.421-.11 2.062C3.5-.297 2.937 0 2.484 0zm0 0"/></symbol><symbol id="m" overflow="visible"><path d="M6.844-3.266c.156 0 .343 0 .343-.187 0-.203-.187-.203-.328-.203H.891c-.141 0-.329 0-.329.203 0 .187.188.187.329.187zm.015 1.938c.141 0 .329 0 .329-.203 0-.188-.188-.188-.344-.188H.89c-.141 0-.329 0-.329.188 0 .203.188.203.329.203zm0 0"/></symbol><symbol id="n" overflow="visible"><path d="M2.89-3.516c.813-.265 1.391-.953 1.391-1.75 0-.812-.875-1.375-1.828-1.375-1 0-1.765.594-1.765 1.36 0 .328.218.515.515.515.297 0 .5-.218.5-.515 0-.485-.469-.485-.61-.485.298-.5.954-.625 1.313-.625.422 0 .969.22.969 1.11 0 .125-.031.703-.281 1.14-.297.485-.64.516-.89.516a3.29 3.29 0 0 1-.392.031c-.078.016-.14.031-.14.125 0 .11.062.11.234.11h.438c.812 0 1.187.671 1.187 1.656 0 1.36-.687 1.64-1.125 1.64-.437 0-1.187-.171-1.531-.75.344.047.656-.171.656-.546a.537.537 0 0 0-.547-.563c-.25 0-.562.14-.562.578C.422-.437 1.344.22 2.437.22c1.22 0 2.126-.906 2.126-1.922 0-.813-.641-1.594-1.672-1.813zm0 0"/></symbol><symbol id="k" overflow="visible"><path d="M3.531-1.734c0-.844-.672-1.5-1.5-1.5s-1.5.671-1.5 1.484a1.5 1.5 0 0 0 1.5 1.5c.844 0 1.5-.672 1.5-1.484zm-1.5 1.14A1.157 1.157 0 1 1 3.187-1.75c0 .656-.515 1.156-1.156 1.156zm0 0"/></symbol><symbol id="l" overflow="visible"><path d="M2.86-4.031c-.032-.078-.079-.157-.172-.157-.11 0-.141.063-.188.157L.578-.156c-.047.093-.047.093-.047.125 0 .11.094.172.172.172.094 0 .14-.063.203-.172l1.766-3.594L4.453-.047c.063.14.094.188.203.188a.173.173 0 0 0 .172-.172c0-.032 0-.032-.047-.125zm0 0"/></symbol><symbol id="o" overflow="visible"><path d="M1.906-2.5a.524.524 0 1 0-.516.531.524.524 0 0 0 .516-.531zm0 0"/></symbol><symbol id="p" overflow="visible"><path d="M2.64-3.719h1.126c-.329 1.469-.422 1.906-.422 2.578 0 .141 0 .407.078.75.11.438.219.5.36.5.202 0 .421-.171.421-.375 0-.062 0-.078-.062-.218-.297-.72-.297-1.375-.297-1.657 0-.515.078-1.062.187-1.578h1.125c.14 0 .5 0 .5-.344 0-.234-.218-.234-.406-.234H1.906c-.218 0-.593 0-1.031.469-.344.39-.61.844-.61.89 0 .016 0 .11.126.11.078 0 .093-.047.156-.125.484-.766 1.062-.766 1.265-.766h.563c-.313 1.203-.844 2.406-1.266 3.313-.078.156-.078.172-.078.25 0 .187.157.265.282.265.296 0 .375-.28.5-.64.14-.469.14-.485.265-.985zm0 0"/></symbol></defs><use y="158.884" x="368.582" xlink:href="#h" width="1052.362" height="744.094"/><use y="158.884" x="373.563" xlink:href="#i" width="1052.362" height="744.094"/><use y="158.884" x="378.545" xlink:href="#j" width="1052.362" height="744.094"/><use y="154.77" x="383.526" xlink:href="#k" width="1052.362" height="744.094"/><use y="153.236" x="392.063" xlink:href="#l" width="1052.362" height="744.094"/><use y="158.884" x="390.873" xlink:href="#m" width="1052.362" height="744.094"/><use y="152.144" x="402.585" xlink:href="#n" width="1052.362" height="744.094"/><use y="152.144" x="409.78" xlink:href="#o" width="1052.362" height="744.094"/><use y="152.144" x="414.761" xlink:href="#p" width="1052.362" height="744.094"/><path d="M402.5 156.5h18" fill="none" stroke="#000" stroke-miterlimit="10"/><g><use y="165.718" x="409.201" xlink:href="#h" width="1052.362" height="744.094"/></g></g><g transform="matrix(4.58764 0 0 4.56905 -494.866 51.616)" ns0:preamble="/home/waldgeist/data/sphinx/test.tex" ns0:text="$\\alpha$"><defs><symbol id="q" overflow="visible"><path d="M4.75-2.36c0-1.562-.922-2.046-1.656-2.046-1.375 0-2.688 1.422-2.688 2.828C.406-.641 1 .109 2.031.109c.625 0 1.344-.234 2.094-.843.125.53.453.843.906.843.532 0 .844-.546.844-.703 0-.078-.063-.11-.125-.11-.063 0-.094.032-.125.11-.188.485-.547.485-.563.485-.312 0-.312-.782-.312-1.016 0-.203 0-.234.11-.344C5.796-2.656 6-3.812 6-3.812c0-.032-.016-.11-.125-.11-.094 0-.094.031-.14.219-.188.625-.516 1.375-.985 1.969zM4.094-.983c-.89.765-1.657.875-2.047.875-.594 0-.906-.454-.906-1.094 0-.484.265-1.563.578-2.063.468-.734 1.015-.921 1.36-.921.983 0 .983 1.312.983 2.078 0 .375 0 .953.032 1.125zm0 0"/></symbol></defs><use y="134.765" x="223.432" xlink:href="#q" width="744.094" height="1052.362"/></g><use transform="translate(-481.055 786.73) scale(3.49978)" height="1052.362" width="744.094" xlink:href="#textext-28c1ecfe-0" x="223.432" y="134.765"/><use transform="translate(8.373 558.393) scale(3.49978)" height="1052.362" width="744.094" xlink:href="#textext-28c1ecfe-0" x="223.432" y="134.765"/><use transform="translate(8.373 558.393) scale(3.49978)" height="1052.362" width="744.094" xlink:href="#textext-28c1ecfe-0" x="223.432" y="134.765"/><use transform="translate(456.055 1363.418) scale(3.49978)" height="1052.362" width="744.094" xlink:href="#textext-28c1ecfe-0" x="223.432" y="134.765"/><use transform="translate(945.483 1135.081) scale(3.49978)" height="1052.362" width="744.094" xlink:href="#textext-28c1ecfe-0" x="223.432" y="134.765"/><use transform="translate(945.483 1135.081) scale(3.49978)" height="1052.362" width="744.094" xlink:href="#textext-28c1ecfe-0" x="223.432" y="134.765"/><path d="M384.922 446.27c74.23 0 134.405 60.176 134.405 134.405" transform="matrix(.39156 0 0 .39156 375.335 452.506)" fill="none" stroke="#000" stroke-width="3.831" stroke-linecap="round" marker-start="url(#r)"/><g ns0:text="\n\\begin{align*}\n&amp;180^{\\circ} \\stackrel{\\wedge}= \\pi\n\\end{align*}" ns0:preamble="/home/waldgeist/data/sphinx/inkscape-preamble.tex" transform="matrix(4.58764 0 0 4.56905 -1561.557 -23.963)"><defs><symbol overflow="visible" id="s"><path d="M2.938-6.375c0-.25 0-.266-.235-.266C2.078-6 1.203-6 .891-6v.313c.203 0 .78 0 1.296-.266v5.172c0 .36-.03.469-.921.469H.953V0c.344-.031 1.203-.031 1.61-.031.39 0 1.265 0 1.609.031v-.313h-.313c-.906 0-.921-.109-.921-.468zm0 0"/></symbol><symbol overflow="visible" id="t"><path d="M1.625-4.563c-.453-.296-.5-.625-.5-.796 0-.61.656-1.032 1.36-1.032.718 0 1.359.516 1.359 1.235 0 .578-.39 1.047-.985 1.39zm1.453.954c.719-.375 1.203-.891 1.203-1.547 0-.922-.875-1.485-1.781-1.485-1 0-1.813.735-1.813 1.672 0 .172.016.625.438 1.094.11.11.484.36.734.531C1.281-3.047.422-2.5.422-1.5.422-.453 1.438.219 2.484.219c1.125 0 2.079-.828 2.079-1.89 0-.36-.11-.813-.5-1.235-.188-.203-.344-.297-.985-.703zm-1 .421l1.235.782c.28.187.75.484.75 1.094 0 .734-.75 1.25-1.563 1.25C1.64-.063.922-.672.922-1.5c0-.578.312-1.219 1.156-1.688zm0 0"/></symbol><symbol overflow="visible" id="u"><path d="M4.578-3.188c0-.796-.047-1.593-.39-2.328C3.733-6.484 2.905-6.64 2.5-6.64c-.61 0-1.328.266-1.75 1.188-.313.687-.36 1.469-.36 2.266 0 .75.032 1.64.454 2.406a1.83 1.83 0 0 0 1.64 1c.532 0 1.297-.203 1.735-1.157.312-.687.36-1.468.36-2.25zM2.484 0c-.39 0-.984-.25-1.156-1.203-.11-.594-.11-1.516-.11-2.11 0-.64 0-1.296.079-1.828.187-1.187.937-1.28 1.187-1.28.329 0 .985.187 1.172 1.171.11.563.11 1.313.11 1.938 0 .75 0 1.421-.11 2.062C3.5-.297 2.937 0 2.484 0zm0 0"/></symbol><symbol overflow="visible" id="x"><path d="M6.844-3.266c.156 0 .343 0 .343-.187 0-.203-.187-.203-.328-.203H.891c-.141 0-.329 0-.329.203 0 .187.188.187.329.187zm.015 1.938c.141 0 .329 0 .329-.203 0-.188-.188-.188-.344-.188H.89c-.141 0-.329 0-.329.188 0 .203.188.203.329.203zm0 0"/></symbol><symbol overflow="visible" id="v"><path d="M3.531-1.734c0-.844-.672-1.5-1.5-1.5s-1.5.671-1.5 1.484a1.5 1.5 0 0 0 1.5 1.5c.844 0 1.5-.672 1.5-1.484zm-1.5 1.14A1.157 1.157 0 1 1 3.187-1.75c0 .656-.515 1.156-1.156 1.156zm0 0"/></symbol><symbol overflow="visible" id="w"><path d="M2.86-4.031c-.032-.078-.079-.157-.172-.157-.11 0-.141.063-.188.157L.578-.156c-.047.093-.047.093-.047.125 0 .11.094.172.172.172.094 0 .14-.063.203-.172l1.766-3.594L4.453-.047c.063.14.094.188.203.188a.173.173 0 0 0 .172-.172c0-.032 0-.032-.047-.125zm0 0"/></symbol><symbol overflow="visible" id="y"><path d="M2.64-3.719h1.126c-.329 1.469-.422 1.906-.422 2.578 0 .141 0 .407.078.75.11.438.219.5.36.5.202 0 .421-.171.421-.375 0-.062 0-.078-.062-.218-.297-.72-.297-1.375-.297-1.657 0-.515.078-1.062.187-1.578h1.125c.14 0 .5 0 .5-.344 0-.234-.218-.234-.406-.234H1.906c-.218 0-.593 0-1.031.469-.344.39-.61.844-.61.89 0 .016 0 .11.126.11.078 0 .093-.047.156-.125.484-.766 1.062-.766 1.265-.766h.563c-.313 1.203-.844 2.406-1.266 3.313-.078.156-.078.172-.078.25 0 .187.157.265.282.265.296 0 .375-.28.5-.64.14-.469.14-.485.265-.985zm0 0"/></symbol></defs><use height="744.094" width="1052.362" xlink:href="#s" x="375.866" y="156.682"/><use height="744.094" width="1052.362" xlink:href="#t" x="380.847" y="156.682"/><use height="744.094" width="1052.362" xlink:href="#u" x="385.829" y="156.682"/><use height="744.094" width="1052.362" xlink:href="#v" x="390.81" y="152.569"/><use height="744.094" width="1052.362" xlink:href="#w" x="399.347" y="151.035"/><g><use height="744.094" width="1052.362" xlink:href="#x" x="398.157" y="156.682"/></g><g><use height="744.094" width="1052.362" xlink:href="#y" x="408.673" y="156.682"/></g></g><g transform="matrix(4.58764 0 0 4.56905 -985.557 -23.963)" ns0:preamble="/home/waldgeist/data/sphinx/inkscape-preamble.tex" ns0:text="\n\\begin{align*}\n&amp;360^{\\circ} \\stackrel{\\wedge}= 2 \\cdot \\pi\n\\end{align*}"><defs><symbol id="z" overflow="visible"><path d="M2.89-3.516c.813-.265 1.391-.953 1.391-1.75 0-.812-.875-1.375-1.828-1.375-1 0-1.765.594-1.765 1.36 0 .328.218.515.515.515.297 0 .5-.218.5-.515 0-.485-.469-.485-.61-.485.298-.5.954-.625 1.313-.625.422 0 .969.22.969 1.11 0 .125-.031.703-.281 1.14-.297.485-.64.516-.89.516a3.29 3.29 0 0 1-.392.031c-.078.016-.14.031-.14.125 0 .11.062.11.234.11h.438c.812 0 1.187.671 1.187 1.656 0 1.36-.687 1.64-1.125 1.64-.437 0-1.187-.171-1.531-.75.344.047.656-.171.656-.546a.537.537 0 0 0-.547-.563c-.25 0-.562.14-.562.578C.422-.437 1.344.22 2.437.22c1.22 0 2.126-.906 2.126-1.922 0-.813-.641-1.594-1.672-1.813zm0 0"/></symbol><symbol id="A" overflow="visible"><path d="M1.313-3.266v-.25c0-2.515 1.234-2.875 1.75-2.875.234 0 .656.063.874.407-.156 0-.546 0-.546.437 0 .313.234.469.453.469.156 0 .469-.094.469-.484 0-.594-.438-1.079-1.266-1.079C1.766-6.64.422-5.359.422-3.156.422-.484 1.578.219 2.5.219c1.11 0 2.063-.938 2.063-2.25 0-1.266-.891-2.219-2-2.219-.672 0-1.047.5-1.25.984zM2.5-.062c-.625 0-.922-.594-.984-.75-.188-.47-.188-1.266-.188-1.438 0-.781.328-1.781 1.219-1.781.172 0 .625 0 .937.625.172.36.172.875.172 1.36 0 .483 0 .983-.172 1.343-.296.594-.75.64-.984.64zm0 0"/></symbol><symbol id="B" overflow="visible"><path d="M4.578-3.188c0-.796-.047-1.593-.39-2.328C3.733-6.484 2.905-6.64 2.5-6.64c-.61 0-1.328.266-1.75 1.188-.313.687-.36 1.469-.36 2.266 0 .75.032 1.64.454 2.406a1.83 1.83 0 0 0 1.64 1c.532 0 1.297-.203 1.735-1.157.312-.687.36-1.468.36-2.25zM2.484 0c-.39 0-.984-.25-1.156-1.203-.11-.594-.11-1.516-.11-2.11 0-.64 0-1.296.079-1.828.187-1.187.937-1.28 1.187-1.28.329 0 .985.187 1.172 1.171.11.563.11 1.313.11 1.938 0 .75 0 1.421-.11 2.062C3.5-.297 2.937 0 2.484 0zm0 0"/></symbol><symbol id="E" overflow="visible"><path d="M6.844-3.266c.156 0 .343 0 .343-.187 0-.203-.187-.203-.328-.203H.891c-.141 0-.329 0-.329.203 0 .187.188.187.329.187zm.015 1.938c.141 0 .329 0 .329-.203 0-.188-.188-.188-.344-.188H.89c-.141 0-.329 0-.329.188 0 .203.188.203.329.203zm0 0"/></symbol><symbol id="F" overflow="visible"><path d="M1.266-.766l1.062-1.03c1.547-1.376 2.14-1.907 2.14-2.907 0-1.14-.89-1.938-2.109-1.938C1.234-6.64.5-5.719.5-4.828c0 .547.5.547.531.547.172 0 .516-.11.516-.532a.513.513 0 0 0-.531-.515c-.079 0-.094 0-.125.016.218-.657.765-1.016 1.343-1.016.907 0 1.329.812 1.329 1.625 0 .797-.485 1.578-1.047 2.203L.609-.375C.5-.265.5-.235.5 0h3.703l.266-1.734h-.235C4.172-1.438 4.11-1 4-.844c-.063.078-.719.078-.938.078zm0 0"/></symbol><symbol id="C" overflow="visible"><path d="M3.531-1.734c0-.844-.672-1.5-1.5-1.5s-1.5.671-1.5 1.484a1.5 1.5 0 0 0 1.5 1.5c.844 0 1.5-.672 1.5-1.484zm-1.5 1.14A1.157 1.157 0 1 1 3.187-1.75c0 .656-.515 1.156-1.156 1.156zm0 0"/></symbol><symbol id="D" overflow="visible"><path d="M2.86-4.031c-.032-.078-.079-.157-.172-.157-.11 0-.141.063-.188.157L.578-.156c-.047.093-.047.093-.047.125 0 .11.094.172.172.172.094 0 .14-.063.203-.172l1.766-3.594L4.453-.047c.063.14.094.188.203.188a.173.173 0 0 0 .172-.172c0-.032 0-.032-.047-.125zm0 0"/></symbol><symbol id="G" overflow="visible"><path d="M1.906-2.5a.524.524 0 1 0-.516.531.524.524 0 0 0 .516-.531zm0 0"/></symbol><symbol id="H" overflow="visible"><path d="M2.64-3.719h1.126c-.329 1.469-.422 1.906-.422 2.578 0 .141 0 .407.078.75.11.438.219.5.36.5.202 0 .421-.171.421-.375 0-.062 0-.078-.062-.218-.297-.72-.297-1.375-.297-1.657 0-.515.078-1.062.187-1.578h1.125c.14 0 .5 0 .5-.344 0-.234-.218-.234-.406-.234H1.906c-.218 0-.593 0-1.031.469-.344.39-.61.844-.61.89 0 .016 0 .11.126.11.078 0 .093-.047.156-.125.484-.766 1.062-.766 1.265-.766h.563c-.313 1.203-.844 2.406-1.266 3.313-.078.156-.078.172-.078.25 0 .187.157.265.282.265.296 0 .375-.28.5-.64.14-.469.14-.485.265-.985zm0 0"/></symbol></defs><use y="156.682" x="369.777" xlink:href="#z" width="1052.362" height="744.094"/><use y="156.682" x="374.758" xlink:href="#A" width="1052.362" height="744.094"/><use y="156.682" x="379.74" xlink:href="#B" width="1052.362" height="744.094"/><use y="152.569" x="384.721" xlink:href="#C" width="1052.362" height="744.094"/><use y="151.035" x="393.259" xlink:href="#D" width="1052.362" height="744.094"/><use y="156.682" x="392.069" xlink:href="#E" width="1052.362" height="744.094"/><use y="156.682" x="402.588" xlink:href="#F" width="1052.362" height="744.094"/><g><use y="156.682" x="409.78" xlink:href="#G" width="1052.362" height="744.094"/></g><g><use y="156.682" x="414.761" xlink:href="#H" width="1052.362" height="744.094"/></g></g></g></svg>