<svg xmlns:ns0="http://www.iki.fi/pav/software/textext/" xmlns="http://www.w3.org/2000/svg" xmlns:xlink="http://www.w3.org/1999/xlink" width="210mm" height="297mm"><title>Parallele zu einer Strecke</title><rect ry="5.194" y="287.863" x="43.122" height="476.636" width="657.851" style="marker:none" color="#000" fill="#fff" stroke="#fff" stroke-width="2.396" stroke-linecap="round" stroke-linejoin="bevel" overflow="visible"/><path d="M511.977 526.181h-279.86" fill="none" stroke="#000" stroke-width="3" stroke-linecap="round"/><path d="M232.117 514.688v22.986" fill="gray" stroke="#000" stroke-width="3" stroke-linecap="round"/><g transform="matrix(3.37375 0 0 3.37375 -534.259 110.309)" ns0:preamble="/home/waldgeist/data/sphinx/inkscape-preamble.tex" ns0:text="$\\rm{A}$" stroke="navy"><defs><symbol id="a" overflow="visible"><path d="M3.969-6.938c-.047-.125-.078-.203-.235-.203-.156 0-.187.063-.234.204L1.437-.984C1.25-.47.86-.313.313-.313V0c.235-.016.672-.031 1.016-.031.313 0 .828.015 1.156.031v-.313c-.5 0-.75-.25-.75-.5 0-.03.016-.14.016-.156l.469-1.297h2.453L5.203-.75a.58.58 0 0 1 .031.14c0 .297-.562.297-.828.297V0c.36-.031 1.063-.031 1.438-.031.422 0 .89.015 1.297.031v-.313h-.172c-.594 0-.735-.062-.844-.39zm-.531 1.11l1.124 3.25H2.329z" stroke="none"/></symbol></defs><use height="1052.362" width="744.094" y="134.765" x="223.432" xlink:href="#a"/></g><path d="M511.977 514.688v22.986" fill="gray" stroke="#000" stroke-width="3" stroke-linecap="round"/><g ns0:text="$\\rm{B}$" ns0:preamble="/home/waldgeist/data/sphinx/inkscape-preamble.tex" transform="matrix(3.37375 0 0 3.37375 -253.37 111.425)" stroke="navy"><defs><symbol overflow="visible" id="b"><path d="M2.219-3.656v-2.438c0-.343.015-.406.484-.406h1.235c.968 0 1.312.844 1.312 1.375 0 .64-.484 1.469-1.594 1.469zm2.344.094c.968-.188 1.656-.829 1.656-1.563 0-.86-.922-1.688-2.219-1.688H.36v.313h.234c.765 0 .797.11.797.469v5.25c0 .36-.032.469-.797.469H.359V0h3.907c1.328 0 2.218-.89 2.218-1.828 0-.86-.812-1.61-1.921-1.734zm-.61 3.25h-1.25c-.469 0-.484-.063-.484-.391v-2.719h1.875c.984 0 1.406.922 1.406 1.594 0 .703-.531 1.516-1.547 1.516z" stroke="none"/></symbol></defs><use height="1052.362" width="744.094" xlink:href="#b" x="223.432" y="134.765"/></g><g transform="matrix(3.37375 0 0 3.37375 -489.683 109.94)" ns0:preamble="/home/waldgeist/data/sphinx/inkscape-preamble.tex" ns0:text="$\\rm{S}_{\\rm{1}}$" fill="#4d4d4d" stroke="gray"><defs><symbol id="c" overflow="visible"><path d="M3.484-3.875l-1.28-.297c-.626-.156-1-.687-1-1.266 0-.703.53-1.312 1.312-1.312 1.656 0 1.875 1.64 1.937 2.078.016.063.016.125.125.125.125 0 .125-.047.125-.234v-2c0-.172 0-.25-.11-.25-.062 0-.077.015-.14.14l-.36.563c-.296-.297-.702-.703-1.593-.703-1.11 0-1.938.875-1.938 1.937 0 .828.532 1.563 1.297 1.828.11.032.625.157 1.329.329.265.062.562.14.843.5.203.265.313.593.313.921 0 .704-.5 1.422-1.344 1.422-.281 0-1.047-.047-1.578-.531-.578-.547-.61-1.172-.61-1.531-.015-.11-.093-.11-.125-.11-.125 0-.125.079-.125.25v2c0 .172 0 .235.11.235.062 0 .078-.016.14-.125 0-.016.032-.047.36-.578.312.343.953.703 1.844.703 1.156 0 1.953-.969 1.953-2.078 0-.985-.657-1.813-1.485-2.016z" stroke="none"/></symbol><symbol id="d" overflow="visible"><path d="M2.328-4.438c0-.187 0-.187-.203-.187-.453.438-1.078.438-1.36.438v.25c.157 0 .626 0 1-.188v3.547c0 .234 0 .328-.687.328H.812V0c.125 0 .985-.031 1.235-.031.219 0 1.094.031 1.25.031v-.25H3.03c-.703 0-.703-.094-.703-.328z" stroke="none"/></symbol></defs><use y="134.765" x="223.432" xlink:href="#c" width="744.094" height="1052.362"/><use y="136.259" x="228.967" xlink:href="#d" width="744.094" height="1052.362"/></g><g ns0:text="$\\rm{S}_{\\rm{2}}$" ns0:preamble="/home/waldgeist/data/sphinx/inkscape-preamble.tex" transform="matrix(3.37375 0 0 3.37375 -530.726 258.711)" fill="#4d4d4d" stroke="gray"><defs><symbol overflow="visible" id="e"><path d="M3.484-3.875l-1.28-.297c-.626-.156-1-.687-1-1.266 0-.703.53-1.312 1.312-1.312 1.656 0 1.875 1.64 1.937 2.078.016.063.016.125.125.125.125 0 .125-.047.125-.234v-2c0-.172 0-.25-.11-.25-.062 0-.077.015-.14.14l-.36.563c-.296-.297-.702-.703-1.593-.703-1.11 0-1.938.875-1.938 1.937 0 .828.532 1.563 1.297 1.828.11.032.625.157 1.329.329.265.062.562.14.843.5.203.265.313.593.313.921 0 .704-.5 1.422-1.344 1.422-.281 0-1.047-.047-1.578-.531-.578-.547-.61-1.172-.61-1.531-.015-.11-.093-.11-.125-.11-.125 0-.125.079-.125.25v2c0 .172 0 .235.11.235.062 0 .078-.016.14-.125 0-.016.032-.047.36-.578.312.343.953.703 1.844.703 1.156 0 1.953-.969 1.953-2.078 0-.985-.657-1.813-1.485-2.016z" stroke="none"/></symbol><symbol overflow="visible" id="f"><path d="M3.516-1.266H3.28c-.015.157-.094.563-.187.625-.047.047-.578.047-.688.047H1.125c.734-.64.984-.844 1.39-1.172.516-.406 1-.843 1-1.5 0-.843-.734-1.359-1.624-1.359-.86 0-1.454.61-1.454 1.25 0 .344.297.39.376.39.156 0 .359-.124.359-.374 0-.125-.047-.375-.406-.375.218-.485.687-.641 1.015-.641.703 0 1.063.547 1.063 1.11 0 .609-.438 1.078-.656 1.328L.516-.266C.437-.203.437-.187.437 0h2.876z" stroke="none"/></symbol></defs><use height="1052.362" width="744.094" xlink:href="#e" x="223.432" y="134.765"/><use height="1052.362" width="744.094" xlink:href="#f" x="228.967" y="136.259"/></g><g transform="matrix(3.37375 0 0 3.37375 -447.601 -88.738)" ns0:preamble="/home/waldgeist/data/sphinx/inkscape-preamble.tex" ns0:text="$\\rm{P}$" stroke="navy"><defs><symbol id="g" overflow="visible"><path d="M2.266-3.156h1.687c1.188 0 2.266-.797 2.266-1.797 0-.984-.985-1.86-2.344-1.86H.344v.313h.25c.765 0 .781.11.781.469v5.25c0 .36-.016.469-.781.469h-.25V0c.36-.031 1.094-.031 1.469-.031s1.125 0 1.484.031v-.313h-.25c-.766 0-.781-.109-.781-.468zm-.032-.25v-2.688c0-.343.016-.406.485-.406h.89c1.579 0 1.579 1.063 1.579 1.547 0 .469 0 1.547-1.579 1.547z" stroke="none"/></symbol></defs><use y="134.765" x="223.432" xlink:href="#g" width="744.094" height="1052.362"/></g><path d="M122.888 526.181a149.644 149.644 0 1 1 299.289 0 149.644 149.644 0 1 1-299.29 0z" style="marker:none" color="#000" fill="none" stroke="gray" stroke-width=".9994682699999999" stroke-linecap="round" stroke-linejoin="round" stroke-dasharray=".84945466000000003,2.54836397999999997" overflow="visible"/><path d="M230.01 684.848L311.273 381.6" fill="none" stroke="#4d4d4d" stroke-width="1.5" stroke-linecap="round" stroke-dasharray="1.50000001,4.50000001"/><g stroke="#4d4d4d" stroke-width="1.322" fill="none" stroke-linecap="round"><path d="M266.666 516.02l11.732 20.322M278.398 516.02l-11.732 20.322M278.398 516.02l-11.732 20.322" stroke-width="3.00103254"/></g><path style="marker:none" d="M214.598 664.196a149.644 149.644 0 0 1 37.695 10.251" color="#000" fill="none" stroke="#b3b3b3" stroke-width=".9994682699999999" stroke-linecap="round" stroke-linejoin="round" overflow="visible"/><path d="M233.76 670.753l352.766-313.142" fill="none" stroke="#4d4d4d" stroke-width="1.5" stroke-linecap="round" stroke-dasharray="1.5,4.5"/><g stroke="#4d4d4d" stroke-width="1.322" fill="none" stroke-linecap="round"><path d="M390.767 516.02l11.732 20.322M402.5 516.02l-11.733 20.322M402.5 516.02l-11.733 20.322" stroke-width="3.00103254"/></g><path style="marker:none" d="M179.176 526.181a217.457 217.457 0 1 1 434.914 0 217.457 217.457 0 1 1-434.914 0z" color="#000" fill="none" stroke="gray" stroke-width="1.0007595" stroke-linecap="round" stroke-linejoin="round" stroke-dasharray=".58455749999999995,1.75367257999999993" overflow="visible"/><path d="M570.302 395.312a217.457 217.457 0 0 1-25.364-28.169" style="marker:none" color="#000" fill="none" stroke="#b3b3b3" stroke-width="1.0007595" stroke-linecap="round" stroke-linejoin="round" overflow="visible"/><path d="M330.396 388.136a149.644 149.644 0 0 1-37.696-10.252" style="marker:none" color="#000" fill="none" stroke="#b3b3b3" stroke-width=".9994682699999999" stroke-linecap="round" stroke-linejoin="round" overflow="visible"/><g stroke="#000" stroke-width="1.322" fill="none" stroke-linecap="round"><path d="M305.406 371.44l11.733 20.32M317.139 371.44l-11.733 20.32" stroke-width="3.00103254"/></g><path style="marker:none" d="M222.65 656.792a217.457 217.457 0 0 1 28.162 30.733" color="#000" fill="none" stroke="#b3b3b3" stroke-width="1.0007595" stroke-linecap="round" stroke-linejoin="round" overflow="visible"/><path d="M597.224 381.6H198.238" fill="none" stroke="#000" stroke-width="3" stroke-linecap="round" stroke-dasharray="3.00000001,6.00000001"/><g stroke="#4d4d4d" stroke-width="1.322" fill="none" stroke-linecap="round"><path d="M552.947 371.155l11.732 20.32M564.68 371.155l-11.733 20.32" stroke-width="3.00103254"/></g><g stroke="#4d4d4d" stroke-width="1.322" fill="none" stroke-linecap="round"><path d="M227.893 660.593l11.732 20.321M239.625 660.593l-11.732 20.321" stroke-width="3.00103254"/></g><g ns0:text="$\\rm{S}_{\\rm{3}}$" ns0:preamble="/home/waldgeist/data/sphinx/inkscape-preamble.tex" transform="matrix(3.37375 0 0 3.37375 -366.826 109.94)" fill="#4d4d4d" stroke="gray"><defs><symbol overflow="visible" id="h"><path d="M3.484-3.875l-1.28-.297c-.626-.156-1-.687-1-1.266 0-.703.53-1.312 1.312-1.312 1.656 0 1.875 1.64 1.937 2.078.016.063.016.125.125.125.125 0 .125-.047.125-.234v-2c0-.172 0-.25-.11-.25-.062 0-.077.015-.14.14l-.36.563c-.296-.297-.702-.703-1.593-.703-1.11 0-1.938.875-1.938 1.937 0 .828.532 1.563 1.297 1.828.11.032.625.157 1.329.329.265.062.562.14.843.5.203.265.313.593.313.921 0 .704-.5 1.422-1.344 1.422-.281 0-1.047-.047-1.578-.531-.578-.547-.61-1.172-.61-1.531-.015-.11-.093-.11-.125-.11-.125 0-.125.079-.125.25v2c0 .172 0 .235.11.235.062 0 .078-.016.14-.125 0-.016.032-.047.36-.578.312.343.953.703 1.844.703 1.156 0 1.953-.969 1.953-2.078 0-.985-.657-1.813-1.485-2.016z" stroke="none"/></symbol><symbol overflow="visible" id="i"><path d="M1.906-2.328c.547 0 .938.375.938 1.125 0 .86-.516 1.125-.906 1.125-.282 0-.907-.078-1.188-.5.328 0 .406-.235.406-.39 0-.22-.172-.376-.39-.376a.38.38 0 0 0-.391.407C.375-.281 1.094.14 1.938.14c.968 0 1.64-.657 1.64-1.344 0-.547-.437-1.094-1.203-1.25.719-.266.984-.781.984-1.219 0-.547-.625-.953-1.406-.953-.766 0-1.36.375-1.36.938 0 .234.157.359.36.359.219 0 .36-.156.36-.344 0-.203-.141-.36-.36-.375.25-.297.719-.375.985-.375.312 0 .75.156.75.75 0 .297-.094.625-.282.828-.219.266-.422.281-.765.313-.172.015-.188.015-.22.015-.015 0-.077.016-.077.094 0 .094.062.094.187.094z" stroke="none"/></symbol></defs><use xlink:href="#h" x="223.432" y="134.765" width="744.094" height="1052.362"/><use xlink:href="#i" x="228.967" y="136.259" width="744.094" height="1052.362"/></g><g transform="matrix(3.37375 0 0 3.37375 -203.985 -35.462)" ns0:preamble="/home/waldgeist/data/sphinx/inkscape-preamble.tex" ns0:text="$\\rm{S}_{\\rm{4}}$" fill="#4d4d4d" stroke="gray"><defs><symbol id="j" overflow="visible"><path d="M3.484-3.875l-1.28-.297c-.626-.156-1-.687-1-1.266 0-.703.53-1.312 1.312-1.312 1.656 0 1.875 1.64 1.937 2.078.016.063.016.125.125.125.125 0 .125-.047.125-.234v-2c0-.172 0-.25-.11-.25-.062 0-.077.015-.14.14l-.36.563c-.296-.297-.702-.703-1.593-.703-1.11 0-1.938.875-1.938 1.937 0 .828.532 1.563 1.297 1.828.11.032.625.157 1.329.329.265.062.562.14.843.5.203.265.313.593.313.921 0 .704-.5 1.422-1.344 1.422-.281 0-1.047-.047-1.578-.531-.578-.547-.61-1.172-.61-1.531-.015-.11-.093-.11-.125-.11-.125 0-.125.079-.125.25v2c0 .172 0 .235.11.235.062 0 .078-.016.14-.125 0-.016.032-.047.36-.578.312.343.953.703 1.844.703 1.156 0 1.953-.969 1.953-2.078 0-.985-.657-1.813-1.485-2.016z" stroke="none"/></symbol><symbol id="k" overflow="visible"><path d="M3.688-1.14v-.25h-.782V-4.5c0-.14 0-.203-.14-.203-.094 0-.125 0-.188.11L.266-1.392v.25h2.062v.563c0 .25 0 .328-.578.328h-.188V0c.36-.016.797-.031 1.047-.031.266 0 .704.015 1.063.031v-.25h-.188c-.578 0-.578-.078-.578-.328v-.563zM2.375-3.939v2.547H.531z" stroke="none"/></symbol></defs><use y="134.765" x="223.432" xlink:href="#j" width="744.094" height="1052.362"/><use y="136.259" x="228.967" xlink:href="#k" width="744.094" height="1052.362"/></g></svg>