<svg xmlns:ns0="http://www.iki.fi/pav/software/textext/" xmlns="http://www.w3.org/2000/svg" xmlns:xlink="http://www.w3.org/1999/xlink" width="210mm" height="297mm" viewBox="0 0 744.09449 1052.3622"><title>Parallele zu einer Strecke</title><defs><marker orient="auto" id="d" overflow="visible"><path d="M-5.231-2.42L1.324-.01-5.23 2.401c1.047-1.423 1.041-3.37 0-4.821z" fill-rule="evenodd" stroke-width=".375" stroke-linejoin="round" stroke="navy" fill="navy"/></marker></defs><path fill="#fff" stroke="#fff" stroke-width="2.813" stroke-linecap="square" d="M35.211 349.089h673.672v354.185H35.211z"/><path d="M486.294 642.787h-279.86" fill="none" stroke="#000" stroke-width="3" stroke-linecap="round"/><path d="M206.433 631.294v22.986" fill="gray" stroke="#000" stroke-width="3" stroke-linecap="round"/><g transform="matrix(3.37375 0 0 3.37375 -559.943 226.915)" ns0:preamble="/home/waldgeist/data/sphinx/inkscape-preamble.tex" ns0:text="$\\rm{A}$" stroke="navy"><defs><symbol id="a" overflow="visible"><path d="M3.969-6.938c-.047-.125-.078-.203-.235-.203-.156 0-.187.063-.234.204L1.437-.984C1.25-.47.86-.313.313-.313V0c.235-.016.672-.031 1.016-.031.313 0 .828.015 1.156.031v-.313c-.5 0-.75-.25-.75-.5 0-.03.016-.14.016-.156l.469-1.297h2.453L5.203-.75a.58.58 0 0 1 .031.14c0 .297-.562.297-.828.297V0c.36-.031 1.063-.031 1.438-.031.422 0 .89.015 1.297.031v-.313h-.172c-.594 0-.735-.062-.844-.39zm-.531 1.11l1.124 3.25H2.329z" stroke="none"/></symbol></defs><use height="1052.362" width="744.094" y="134.765" x="223.432" xlink:href="#a"/></g><path d="M486.294 631.294v22.986" fill="gray" stroke="#000" stroke-width="3" stroke-linecap="round"/><g ns0:text="$\\rm{B}$" ns0:preamble="/home/waldgeist/data/sphinx/inkscape-preamble.tex" transform="matrix(3.37375 0 0 3.37375 -279.054 228.03)" stroke="navy"><defs><symbol overflow="visible" id="b"><path d="M2.219-3.656v-2.438c0-.343.015-.406.484-.406h1.235c.968 0 1.312.844 1.312 1.375 0 .64-.484 1.469-1.594 1.469zm2.344.094c.968-.188 1.656-.829 1.656-1.563 0-.86-.922-1.688-2.219-1.688H.36v.313h.234c.765 0 .797.11.797.469v5.25c0 .36-.032.469-.797.469H.359V0h3.907c1.328 0 2.218-.89 2.218-1.828 0-.86-.812-1.61-1.921-1.734zm-.61 3.25h-1.25c-.469 0-.484-.063-.484-.391v-2.719h1.875c.984 0 1.406.922 1.406 1.594 0 .703-.531 1.516-1.547 1.516z" stroke="none"/></symbol></defs><use height="1052.362" width="744.094" xlink:href="#b" x="223.432" y="134.765"/></g><g transform="matrix(3.37375 0 0 3.37375 -402.035 82.243)" ns0:preamble="/home/waldgeist/data/sphinx/inkscape-preamble.tex" ns0:text="$\\rm{P}$" stroke="navy"><defs><symbol id="c" overflow="visible"><path d="M2.266-3.156h1.687c1.188 0 2.266-.797 2.266-1.797 0-.984-.985-1.86-2.344-1.86H.344v.313h.25c.765 0 .781.11.781.469v5.25c0 .36-.016.469-.781.469h-.25V0c.36-.031 1.094-.031 1.469-.031s1.125 0 1.484.031v-.313h-.25c-.766 0-.781-.109-.781-.468zm-.032-.25v-2.688c0-.343.016-.406.485-.406h.89c1.579 0 1.579 1.063 1.579 1.547 0 .469 0 1.547-1.579 1.547z" stroke="none"/></symbol></defs><use y="134.765" x="223.432" xlink:href="#c" width="744.094" height="1052.362"/></g><path d="M571.54 498.206H172.555" fill="none" stroke="#000" stroke-width="3" stroke-linecap="round" stroke-dasharray="3.00000001,6.00000001"/><use y="134.765" x="223.432" xlink:href="#textext-28c1ecfe-0" width="744.094" height="1052.362" transform="matrix(3.28104 0 0 3.28104 -1208.448 -223.803)"/><use y="134.765" x="223.432" xlink:href="#textext-28c1ecfe-0" width="744.094" height="1052.362" transform="matrix(3.28104 0 0 3.28104 -749.609 -437.868)"/><use y="134.765" x="223.432" xlink:href="#textext-28c1ecfe-0" width="744.094" height="1052.362" transform="matrix(3.28104 0 0 3.28104 -749.609 -437.868)"/><path d="M309.402 575.79l-36.716 63.594h146.865z" fill="#e6e6e6" stroke="gray" stroke-width="2.813" stroke-linecap="round"/><path style="isolation:auto;mix-blend-mode:normal" d="M221.317 670.508l174.048-301.46 22.18 12.806-174.047 301.46z" color="#000" overflow="visible" fill="#e6e6e6" fill-rule="evenodd" stroke="gray" stroke-width="2.813" stroke-linecap="round" stroke-linejoin="round"/><path d="M392.862 431.208l-36.716 63.594H503.01z" fill="#e6e6e6" stroke="gray" stroke-width="2.813" stroke-linecap="round"/><g stroke="#000" stroke-width="1.322" fill="none" stroke-linecap="round"><path d="M349.098 488.045l11.732 20.321M360.83 488.045l-11.732 20.321" stroke-width="3.00103254"/></g><path style="isolation:auto;mix-blend-mode:normal" d="M368.472 603.49l56.28-97.481" color="#000" overflow="visible" fill="none" stroke="navy" stroke-width="2.813" stroke-linecap="round" stroke-linejoin="round" marker-end="url(#d)"/></svg>