<?xml version="1.0" encoding="UTF-8" standalone="no"?>
<!-- Created with Inkscape (http://www.inkscape.org/) -->

<svg
   xmlns:ns0="http://www.iki.fi/pav/software/textext/"
   xmlns:dc="http://purl.org/dc/elements/1.1/"
   xmlns:cc="http://creativecommons.org/ns#"
   xmlns:rdf="http://www.w3.org/1999/02/22-rdf-syntax-ns#"
   xmlns:svg="http://www.w3.org/2000/svg"
   xmlns="http://www.w3.org/2000/svg"
   xmlns:xlink="http://www.w3.org/1999/xlink"
   xmlns:sodipodi="http://sodipodi.sourceforge.net/DTD/sodipodi-0.dtd"
   xmlns:inkscape="http://www.inkscape.org/namespaces/inkscape"
   width="210mm"
   height="297mm"
   id="svg2"
   version="1.1"
   inkscape:version="0.48.3.1 r9886"
   sodipodi:docname="grundkonstruktion-parallele-zu-strecke.svg">
  <sodipodi:namedview
     id="base"
     pagecolor="#ffffff"
     bordercolor="#666666"
     borderopacity="1.0"
     inkscape:pageopacity="0.0"
     inkscape:pageshadow="2"
     inkscape:zoom="0.84838907"
     inkscape:cx="287.53525"
     inkscape:cy="496.33962"
     inkscape:document-units="px"
     inkscape:current-layer="layer1"
     showgrid="false"
     inkscape:window-width="1280"
     inkscape:window-height="974"
     inkscape:window-x="0"
     inkscape:window-y="0"
     inkscape:window-maximized="1"
     showguides="false"
     inkscape:guide-bbox="true"
     inkscape:snap-nodes="true"
     inkscape:object-paths="true"
     inkscape:object-nodes="true"
     inkscape:snap-smooth-nodes="false"
     inkscape:snap-midpoints="true"
     inkscape:snap-object-midpoints="true"
     inkscape:snap-global="true">
    <sodipodi:guide
       orientation="-0.96360713,-0.26732247"
       position="-154.62209,534.95688"
       id="guide8703" />
    <sodipodi:guide
       id="guide10297"
       position="489.63661,529.30655"
       orientation="0,1" />
    <sodipodi:guide
       id="guide10299"
       position="232.11708,545.61864"
       orientation="1,0" />
    <sodipodi:guide
       id="guide10301"
       position="511.9774,548.08456"
       orientation="1,0" />
    <sodipodi:guide
       orientation="0,1"
       position="330.29862,673.88771"
       id="guide14215" />
  </sodipodi:namedview>
  <title
     id="title11442">Parallele zu einer Strecke</title>
  <defs
     id="defs4">
    <marker
       style="overflow:visible"
       id="StopL"
       refX="0.0"
       refY="0.0"
       orient="auto"
       inkscape:stockid="StopL">
      <path
         transform="scale(0.8)"
         style="fill:none;fill-opacity:0.75000000;fill-rule:evenodd;stroke:#000000;stroke-width:1.0pt"
         d="M 0.0,5.65 L 0.0,-5.65"
         id="path3928" />
    </marker>
    <marker
       style="overflow:visible;"
       id="Arrow1Lend"
       refX="0.0"
       refY="0.0"
       orient="auto"
       inkscape:stockid="Arrow1Lend">
      <path
         transform="scale(0.8) rotate(180) translate(12.5,0)"
         style="fill-rule:evenodd;stroke:#000000;stroke-width:1.0pt;"
         d="M 0.0,0.0 L 5.0,-5.0 L -12.5,0.0 L 5.0,5.0 L 0.0,0.0 z "
         id="path3762" />
    </marker>
    <marker
       style="overflow:visible;"
       id="Arrow2Mend"
       refX="0.0"
       refY="0.0"
       orient="auto"
       inkscape:stockid="Arrow2Mend">
      <path
         transform="scale(0.6) rotate(180) translate(0,0)"
         d="M 8.7185878,4.0337352 L -2.2072895,0.016013256 L 8.7185884,-4.0017078 C 6.9730900,-1.6296469 6.9831476,1.6157441 8.7185878,4.0337352 z "
         style="fill-rule:evenodd;stroke-width:0.62500000;stroke-linejoin:round;"
         id="path3786" />
    </marker>
    <marker
       inkscape:stockid="Arrow2Mend"
       orient="auto"
       refY="0"
       refX="0"
       id="Arrow2Mend-5"
       style="overflow:visible">
      <path
         id="path3786-0"
         style="fill-rule:evenodd;stroke-width:0.625;stroke-linejoin:round"
         d="M 8.7185878,4.0337352 -2.2072895,0.01601326 8.7185884,-4.0017078 c -1.7454984,2.3720609 -1.7354408,5.6174519 -6e-7,8.035443 z"
         transform="scale(-0.6,-0.6)"
         inkscape:connector-curvature="0" />
    </marker>
  </defs>
  <metadata
     id="metadata7">
    <rdf:RDF>
      <cc:Work
         rdf:about="">
        <dc:format>image/svg+xml</dc:format>
        <dc:type
           rdf:resource="http://purl.org/dc/dcmitype/StillImage" />
        <dc:title>Parallele zu einer Strecke</dc:title>
        <dc:date>2013-10-22</dc:date>
        <dc:creator>
          <cc:Agent>
            <dc:title>Bernhard Grotz</dc:title>
          </cc:Agent>
        </dc:creator>
        <dc:rights>
          <cc:Agent>
            <dc:title>Bernhard Grotz</dc:title>
          </cc:Agent>
        </dc:rights>
        <dc:publisher>
          <cc:Agent>
            <dc:title>Bernhard Grotz</dc:title>
          </cc:Agent>
        </dc:publisher>
        <dc:language>de_DE</dc:language>
        <dc:subject>
          <rdf:Bag>
            <rdf:li>Mathematik</rdf:li>
            <rdf:li>Geometrie</rdf:li>
            <rdf:li>Grundkonstruktion</rdf:li>
            <rdf:li>Zirkel</rdf:li>
            <rdf:li>Lineal</rdf:li>
            <rdf:li>Parallele zu einer Strecke</rdf:li>
          </rdf:Bag>
        </dc:subject>
        <cc:license
           rdf:resource="http://creativecommons.org/licenses/by-nc-sa/3.0/" />
      </cc:Work>
      <cc:License
         rdf:about="http://creativecommons.org/licenses/by-nc-sa/3.0/">
        <cc:permits
           rdf:resource="http://creativecommons.org/ns#Reproduction" />
        <cc:permits
           rdf:resource="http://creativecommons.org/ns#Distribution" />
        <cc:requires
           rdf:resource="http://creativecommons.org/ns#Notice" />
        <cc:requires
           rdf:resource="http://creativecommons.org/ns#Attribution" />
        <cc:prohibits
           rdf:resource="http://creativecommons.org/ns#CommercialUse" />
        <cc:permits
           rdf:resource="http://creativecommons.org/ns#DerivativeWorks" />
        <cc:requires
           rdf:resource="http://creativecommons.org/ns#ShareAlike" />
      </cc:License>
    </rdf:RDF>
  </metadata>
  <g
     id="layer1"
     inkscape:groupmode="layer"
     inkscape:label="Ebene 1">
    <rect
       ry="5.1940646"
       y="287.86279"
       x="43.121826"
       height="476.63644"
       width="657.85083"
       id="rect4674-6-2"
       style="color:#000000;fill:#ffffff;fill-opacity:1;fill-rule:nonzero;stroke:#ffffff;stroke-width:2.39586616;stroke-linecap:round;stroke-linejoin:bevel;stroke-miterlimit:4;stroke-opacity:1;stroke-dasharray:none;stroke-dashoffset:0;marker:none;visibility:visible;display:inline;overflow:visible;enable-background:accumulate"
       inkscape:export-filename="/home/waldgeist/data/pics/Homepage/mathematik/geometrie/grundkonstruktion-parallele-zu-strecke.png"
       inkscape:export-xdpi="150"
       inkscape:export-ydpi="150" />
    <g
       ns0:text="$\\vec{c}$"
       ns0:preamble="/home/waldgeist/data/sphinx/inkscape-preamble.tex"
       transform="matrix(3.3737494,0,0,3.3737494,-254.33287,-175.74676)"
       id="g4492">
      <defs
         id="defs4494">
        <g
           id="g4496">
          <symbol
             style="overflow:visible"
             overflow="visible"
             id="textext-23843a60-0">
            <path
               inkscape:connector-curvature="0"
               style="stroke:none"
               d="m 5.359375,-5.9375 c -0.140625,0.140625 -0.46875,0.421875 -0.46875,0.59375 0,0.09375 0.09375,0.203125 0.1875,0.203125 0.09375,0 0.140625,-0.078125 0.203125,-0.140625 C 5.390625,-5.421875 5.625,-5.703125 6.0625,-5.921875 6.125,-5.96875 6.234375,-6.015625 6.234375,-6.125 6.234375,-6.234375 6.15625,-6.28125 6.09375,-6.328125 5.875,-6.484375 5.765625,-6.65625 5.6875,-6.890625 5.65625,-6.984375 5.625,-7.125 5.484375,-7.125 c -0.140625,0 -0.203125,0.140625 -0.203125,0.21875 0,0.046875 0.078125,0.359375 0.234375,0.578125 l -3.359375,0 c -0.15625,0 -0.34375,0 -0.34375,0.203125 0,0.1875 0.1875,0.1875 0.34375,0.1875 z m 0,0"
               id="path4499" />
          </symbol>
          <symbol
             style="overflow:visible"
             overflow="visible"
             id="textext-23843a60-1">
            <path
               inkscape:connector-curvature="0"
               style="stroke:none"
               d="m 3.953125,-3.78125 c -0.171875,0 -0.296875,0 -0.4375,0.125 -0.171875,0.15625 -0.1875,0.328125 -0.1875,0.390625 0,0.25 0.1875,0.359375 0.375,0.359375 0.28125,0 0.546875,-0.25 0.546875,-0.640625 0,-0.484375 -0.46875,-0.859375 -1.171875,-0.859375 -1.34375,0 -2.671875,1.421875 -2.671875,2.828125 0,0.90625 0.578125,1.6875 1.625,1.6875 1.421875,0 2.25,-1.0625 2.25,-1.171875 0,-0.0625 -0.046875,-0.140625 -0.109375,-0.140625 -0.0625,0 -0.078125,0.03125 -0.140625,0.109375 -0.78125,0.984375 -1.875,0.984375 -1.984375,0.984375 -0.625,0 -0.90625,-0.484375 -0.90625,-1.09375 0,-0.40625 0.203125,-1.375 0.546875,-1.984375 0.3125,-0.578125 0.859375,-1 1.40625,-1 0.328125,0 0.71875,0.125 0.859375,0.40625 z m 0,0"
               id="path4502" />
          </symbol>
        </g>
      </defs>
      <g
         id="textext-23843a60-2">
        <g
           style="fill:#000000;fill-opacity:1"
           id="g4505" />
        <g
           style="fill:#000000;fill-opacity:1"
           id="g4509" />
      </g>
    </g>
    <path
       inkscape:export-ydpi="150"
       inkscape:export-xdpi="150"
       inkscape:export-filename="/home/waldgeist/data/pics/Homepage/mathematik/geometrie/grundkonstruktion-parallele-zu-strecke.png"
       inkscape:connector-curvature="0"
       id="path10303"
       d="m 511.9774,526.18101 -279.86032,0"
       style="fill:none;stroke:#000000;stroke-width:3;stroke-linecap:round;stroke-linejoin:miter;stroke-opacity:1" />
    <path
       inkscape:export-ydpi="150"
       inkscape:export-xdpi="150"
       inkscape:export-filename="/home/waldgeist/data/pics/Homepage/mathematik/geometrie/grundkonstruktion-parallele-zu-strecke.png"
       inkscape:connector-curvature="0"
       id="path20418"
       d="m 232.11708,514.68809 0,22.98584"
       style="fill:#808080;fill-opacity:1;stroke:#000000;stroke-width:3;stroke-linecap:round;stroke-linejoin:miter;stroke-opacity:1" />
    <g
       inkscape:export-ydpi="150"
       inkscape:export-xdpi="150"
       inkscape:export-filename="/home/waldgeist/data/pics/Homepage/mathematik/geometrie/grundkonstruktion-parallele-zu-strecke.png"
       id="g11527"
       style="fill:#000000;fill-opacity:1;stroke:#000080;stroke-width:1"
       transform="matrix(3.3737494,0,0,3.3737494,-534.25901,110.3089)"
       ns0:preamble="/home/waldgeist/data/sphinx/inkscape-preamble.tex"
       ns0:text="$\\rm{A}$">
      <defs
         id="defs11529">
        <g
           id="g11531">
          <symbol
             style="overflow:visible"
             id="textext-66788d6b-0"
             overflow="visible">
            <path
               inkscape:connector-curvature="0"
               id="path11534"
               d=""
               style="stroke:none" />
          </symbol>
          <symbol
             style="overflow:visible"
             id="textext-66788d6b-1"
             overflow="visible">
            <path
               inkscape:connector-curvature="0"
               id="path11537"
               d="m 3.96875,-6.9375 c -0.046875,-0.125 -0.078125,-0.203125 -0.234375,-0.203125 -0.15625,0 -0.1875,0.0625 -0.234375,0.203125 L 1.4375,-0.984375 C 1.25,-0.46875 0.859375,-0.3125 0.3125,-0.3125 l 0,0.3125 c 0.234375,-0.015625 0.671875,-0.03125 1.015625,-0.03125 0.3125,0 0.828125,0.015625 1.15625,0.03125 l 0,-0.3125 c -0.5,0 -0.75,-0.25 -0.75,-0.5 0,-0.03125 0.015625,-0.140625 0.015625,-0.15625 l 0.46875,-1.296875 2.453125,0 0.53125,1.515625 c 0.015625,0.046875 0.03125,0.109375 0.03125,0.140625 0,0.296875 -0.5625,0.296875 -0.828125,0.296875 l 0,0.3125 c 0.359375,-0.03125 1.0625,-0.03125 1.4375,-0.03125 0.421875,0 0.890625,0.015625 1.296875,0.03125 l 0,-0.3125 -0.171875,0 C 6.375,-0.3125 6.234375,-0.375 6.125,-0.703125 z m -0.53125,1.109375 1.125,3.25 -2.234375,0 z"
               style="stroke:none" />
          </symbol>
        </g>
      </defs>
      <g
         style="fill:#000000;stroke:#000080;stroke-width:1"
         id="textext-66788d6b-2">
        <g
           id="g11540"
           style="fill:#000000;fill-opacity:1;stroke:#000080;stroke-width:1">
          <use
             style="fill:#000000;stroke:#000080;stroke-width:1"
             height="1052.3622"
             width="744.09448"
             id="use11542"
             y="134.765"
             x="223.43201"
             xlink:href="#textext-66788d6b-1" />
        </g>
      </g>
    </g>
    <path
       style="fill:#808080;fill-opacity:1;stroke:#000000;stroke-width:3;stroke-linecap:round;stroke-linejoin:miter;stroke-opacity:1"
       d="m 511.9774,514.68809 0,22.98584"
       id="path11625"
       inkscape:connector-curvature="0"
       inkscape:export-filename="/home/waldgeist/data/pics/Homepage/mathematik/geometrie/grundkonstruktion-parallele-zu-strecke.png"
       inkscape:export-xdpi="150"
       inkscape:export-ydpi="150" />
    <g
       inkscape:export-ydpi="150"
       inkscape:export-xdpi="150"
       inkscape:export-filename="/home/waldgeist/data/pics/Homepage/mathematik/geometrie/grundkonstruktion-parallele-zu-strecke.png"
       ns0:text="$\\rm{B}$"
       ns0:preamble="/home/waldgeist/data/sphinx/inkscape-preamble.tex"
       transform="matrix(3.3737494,0,0,3.3737494,-253.37075,111.42462)"
       style="fill:#000000;fill-opacity:1;stroke:#000080;stroke-width:1"
       id="g11691">
      <defs
         id="defs11693">
        <g
           id="g11695">
          <symbol
             style="overflow:visible"
             overflow="visible"
             id="textext-29579761-0">
            <path
               inkscape:connector-curvature="0"
               style="stroke:none"
               d=""
               id="path11698" />
          </symbol>
          <symbol
             style="overflow:visible"
             overflow="visible"
             id="textext-29579761-1">
            <path
               inkscape:connector-curvature="0"
               style="stroke:none"
               d="m 2.21875,-3.65625 0,-2.4375 C 2.21875,-6.4375 2.234375,-6.5 2.703125,-6.5 l 1.234375,0 c 0.96875,0 1.3125,0.84375 1.3125,1.375 0,0.640625 -0.484375,1.46875 -1.59375,1.46875 z M 4.5625,-3.5625 C 5.53125,-3.75 6.21875,-4.390625 6.21875,-5.125 6.21875,-5.984375 5.296875,-6.8125 4,-6.8125 l -3.640625,0 0,0.3125 0.234375,0 c 0.765625,0 0.796875,0.109375 0.796875,0.46875 l 0,5.25 c 0,0.359375 -0.03125,0.46875 -0.796875,0.46875 l -0.234375,0 0,0.3125 3.90625,0 c 1.328125,0 2.21875,-0.890625 2.21875,-1.828125 0,-0.859375 -0.8125,-1.609375 -1.921875,-1.734375 z m -0.609375,3.25 -1.25,0 c -0.46875,0 -0.484375,-0.0625 -0.484375,-0.390625 l 0,-2.71875 1.875,0 C 5.078125,-3.421875 5.5,-2.5 5.5,-1.828125 5.5,-1.125 4.96875,-0.3125 3.953125,-0.3125 z"
               id="path11701" />
          </symbol>
        </g>
      </defs>
      <g
         style="fill:#000000;stroke:#000080;stroke-width:1"
         id="textext-29579761-2">
        <g
           style="fill:#000000;fill-opacity:1;stroke:#000080;stroke-width:1"
           id="g11704">
          <use
             style="fill:#000000;stroke:#000080;stroke-width:1"
             height="1052.3622"
             width="744.09448"
             xlink:href="#textext-29579761-1"
             x="223.43201"
             y="134.765"
             id="use11706" />
        </g>
      </g>
    </g>
    <g
       inkscape:export-ydpi="150"
       inkscape:export-xdpi="150"
       inkscape:export-filename="/home/waldgeist/data/pics/Homepage/mathematik/geometrie/grundkonstruktion-parallele-zu-strecke.png"
       id="g12171"
       style="fill:#4d4d4d;fill-opacity:1;stroke:#808080;stroke-width:1"
       transform="matrix(3.3737494,0,0,3.3737494,-489.68271,109.9399)"
       ns0:preamble="/home/waldgeist/data/sphinx/inkscape-preamble.tex"
       ns0:text="$\\rm{S}_{\\rm{1}}$">
      <defs
         id="defs12173">
        <g
           id="g12175">
          <symbol
             id="textext-a4166d0a-0"
             overflow="visible"
             style="overflow:visible">
            <path
               id="path12178"
               d=""
               style="stroke:none"
               inkscape:connector-curvature="0" />
          </symbol>
          <symbol
             id="textext-a4166d0a-1"
             overflow="visible"
             style="overflow:visible">
            <path
               id="path12181"
               d="m 3.484375,-3.875 -1.28125,-0.296875 c -0.625,-0.15625 -1,-0.6875 -1,-1.265625 0,-0.703125 0.53125,-1.3125 1.3125,-1.3125 1.65625,0 1.875,1.640625 1.9375,2.078125 0.015625,0.0625 0.015625,0.125 0.125,0.125 0.125,0 0.125,-0.046875 0.125,-0.234375 l 0,-2 c 0,-0.171875 0,-0.25 -0.109375,-0.25 -0.0625,0 -0.078125,0.015625 -0.140625,0.140625 l -0.359375,0.5625 C 3.796875,-6.625 3.390625,-7.03125 2.5,-7.03125 c -1.109375,0 -1.9375,0.875 -1.9375,1.9375 0,0.828125 0.53125,1.5625 1.296875,1.828125 0.109375,0.03125 0.625,0.15625 1.328125,0.328125 0.265625,0.0625 0.5625,0.140625 0.84375,0.5 0.203125,0.265625 0.3125,0.59375 0.3125,0.921875 0,0.703125 -0.5,1.421875 -1.34375,1.421875 -0.28125,0 -1.046875,-0.046875 -1.578125,-0.53125 C 0.84375,-1.171875 0.8125,-1.796875 0.8125,-2.15625 0.796875,-2.265625 0.71875,-2.265625 0.6875,-2.265625 c -0.125,0 -0.125,0.078125 -0.125,0.25 l 0,2 c 0,0.171875 0,0.234375 0.109375,0.234375 0.0625,0 0.078125,-0.015625 0.140625,-0.125 0,-0.015625 0.03125,-0.046875 0.359375,-0.578125 0.3125,0.34375 0.953125,0.703125 1.84375,0.703125 1.15625,0 1.953125,-0.96875 1.953125,-2.078125 0,-0.984375 -0.65625,-1.8125 -1.484375,-2.015625 z"
               style="stroke:none"
               inkscape:connector-curvature="0" />
          </symbol>
          <symbol
             id="textext-a4166d0a-2"
             overflow="visible"
             style="overflow:visible">
            <path
               id="path12184"
               d=""
               style="stroke:none"
               inkscape:connector-curvature="0" />
          </symbol>
          <symbol
             id="textext-a4166d0a-3"
             overflow="visible"
             style="overflow:visible">
            <path
               id="path12187"
               d="m 2.328125,-4.4375 c 0,-0.1875 0,-0.1875 -0.203125,-0.1875 -0.453125,0.4375 -1.078125,0.4375 -1.359375,0.4375 l 0,0.25 c 0.15625,0 0.625,0 1,-0.1875 l 0,3.546875 c 0,0.234375 0,0.328125 -0.6875,0.328125 l -0.265625,0 0,0.25 c 0.125,0 0.984375,-0.03125 1.234375,-0.03125 0.21875,0 1.09375,0.03125 1.25,0.03125 l 0,-0.25 -0.265625,0 c -0.703125,0 -0.703125,-0.09375 -0.703125,-0.328125 z"
               style="stroke:none"
               inkscape:connector-curvature="0" />
          </symbol>
        </g>
      </defs>
      <g
         id="textext-a4166d0a-4"
         style="fill:#4d4d4d;stroke:#808080;stroke-width:1">
        <g
           id="g12190"
           style="fill:#4d4d4d;fill-opacity:1;stroke:#808080;stroke-width:1">
          <use
             id="use12192"
             y="134.765"
             x="223.43201"
             xlink:href="#textext-a4166d0a-1"
             width="744.09448"
             height="1052.3622"
             style="fill:#4d4d4d;stroke:#808080;stroke-width:1" />
        </g>
        <g
           id="g12194"
           style="fill:#4d4d4d;fill-opacity:1;stroke:#808080;stroke-width:1">
          <use
             id="use12196"
             y="136.259"
             x="228.967"
             xlink:href="#textext-a4166d0a-3"
             width="744.09448"
             height="1052.3622"
             style="fill:#4d4d4d;stroke:#808080;stroke-width:1" />
        </g>
      </g>
    </g>
    <g
       inkscape:export-ydpi="150"
       inkscape:export-xdpi="150"
       inkscape:export-filename="/home/waldgeist/data/pics/Homepage/mathematik/geometrie/grundkonstruktion-parallele-zu-strecke.png"
       ns0:text="$\\rm{S}_{\\rm{2}}$"
       ns0:preamble="/home/waldgeist/data/sphinx/inkscape-preamble.tex"
       transform="matrix(3.3737494,0,0,3.3737494,-530.72638,258.71148)"
       style="fill:#4d4d4d;fill-opacity:1;stroke:#808080;stroke-width:1"
       id="g12400">
      <defs
         id="defs12402">
        <g
           id="g12404">
          <symbol
             style="overflow:visible"
             overflow="visible"
             id="textext-56a16339-0">
            <path
               inkscape:connector-curvature="0"
               style="stroke:none"
               d=""
               id="path12407" />
          </symbol>
          <symbol
             style="overflow:visible"
             overflow="visible"
             id="textext-56a16339-1">
            <path
               inkscape:connector-curvature="0"
               style="stroke:none"
               d="m 3.484375,-3.875 -1.28125,-0.296875 c -0.625,-0.15625 -1,-0.6875 -1,-1.265625 0,-0.703125 0.53125,-1.3125 1.3125,-1.3125 1.65625,0 1.875,1.640625 1.9375,2.078125 0.015625,0.0625 0.015625,0.125 0.125,0.125 0.125,0 0.125,-0.046875 0.125,-0.234375 l 0,-2 c 0,-0.171875 0,-0.25 -0.109375,-0.25 -0.0625,0 -0.078125,0.015625 -0.140625,0.140625 l -0.359375,0.5625 C 3.796875,-6.625 3.390625,-7.03125 2.5,-7.03125 c -1.109375,0 -1.9375,0.875 -1.9375,1.9375 0,0.828125 0.53125,1.5625 1.296875,1.828125 0.109375,0.03125 0.625,0.15625 1.328125,0.328125 0.265625,0.0625 0.5625,0.140625 0.84375,0.5 0.203125,0.265625 0.3125,0.59375 0.3125,0.921875 0,0.703125 -0.5,1.421875 -1.34375,1.421875 -0.28125,0 -1.046875,-0.046875 -1.578125,-0.53125 C 0.84375,-1.171875 0.8125,-1.796875 0.8125,-2.15625 0.796875,-2.265625 0.71875,-2.265625 0.6875,-2.265625 c -0.125,0 -0.125,0.078125 -0.125,0.25 l 0,2 c 0,0.171875 0,0.234375 0.109375,0.234375 0.0625,0 0.078125,-0.015625 0.140625,-0.125 0,-0.015625 0.03125,-0.046875 0.359375,-0.578125 0.3125,0.34375 0.953125,0.703125 1.84375,0.703125 1.15625,0 1.953125,-0.96875 1.953125,-2.078125 0,-0.984375 -0.65625,-1.8125 -1.484375,-2.015625 z"
               id="path12410" />
          </symbol>
          <symbol
             style="overflow:visible"
             overflow="visible"
             id="textext-56a16339-2">
            <path
               inkscape:connector-curvature="0"
               style="stroke:none"
               d=""
               id="path12413" />
          </symbol>
          <symbol
             style="overflow:visible"
             overflow="visible"
             id="textext-56a16339-3">
            <path
               inkscape:connector-curvature="0"
               style="stroke:none"
               d="m 3.515625,-1.265625 -0.234375,0 c -0.015625,0.15625 -0.09375,0.5625 -0.1875,0.625 -0.046875,0.046875 -0.578125,0.046875 -0.6875,0.046875 l -1.28125,0 c 0.734375,-0.640625 0.984375,-0.84375 1.390625,-1.171875 0.515625,-0.40625 1,-0.84375 1,-1.5 0,-0.84375 -0.734375,-1.359375 -1.625,-1.359375 -0.859375,0 -1.453125,0.609375 -1.453125,1.25 0,0.34375 0.296875,0.390625 0.375,0.390625 0.15625,0 0.359375,-0.125 0.359375,-0.375 0,-0.125 -0.046875,-0.375 -0.40625,-0.375 C 0.984375,-4.21875 1.453125,-4.375 1.78125,-4.375 c 0.703125,0 1.0625,0.546875 1.0625,1.109375 0,0.609375 -0.4375,1.078125 -0.65625,1.328125 L 0.515625,-0.265625 C 0.4375,-0.203125 0.4375,-0.1875 0.4375,0 l 2.875,0 z"
               id="path12416" />
          </symbol>
        </g>
      </defs>
      <g
         style="fill:#4d4d4d;stroke-width:1"
         id="textext-56a16339-4">
        <g
           style="fill:#4d4d4d;fill-opacity:1;stroke-width:1"
           id="g12419">
          <use
             height="1052.3622"
             width="744.09448"
             style="fill:#4d4d4d;stroke-width:1"
             xlink:href="#textext-56a16339-1"
             x="223.43201"
             y="134.765"
             id="use12421" />
        </g>
        <g
           style="fill:#4d4d4d;fill-opacity:1;stroke-width:1"
           id="g12423">
          <use
             height="1052.3622"
             width="744.09448"
             style="fill:#4d4d4d;stroke-width:1"
             xlink:href="#textext-56a16339-3"
             x="228.967"
             y="136.259"
             id="use12425" />
        </g>
      </g>
    </g>
    <g
       id="g13278"
       style="fill:#000000;fill-opacity:1;stroke:#000080;stroke-width:1"
       transform="matrix(3.3737494,0,0,3.3737494,-447.60104,-88.738158)"
       ns0:preamble="/home/waldgeist/data/sphinx/inkscape-preamble.tex"
       ns0:text="$\\rm{P}$"
       inkscape:export-filename="/home/waldgeist/data/pics/Homepage/mathematik/geometrie/grundkonstruktion-parallele-zu-strecke.png"
       inkscape:export-xdpi="150"
       inkscape:export-ydpi="150">
      <defs
         id="defs13280">
        <g
           id="g13282">
          <symbol
             id="textext-9247dc32-0"
             overflow="visible"
             style="overflow:visible">
            <path
               id="path13285"
               d=""
               style="stroke:none"
               inkscape:connector-curvature="0" />
          </symbol>
          <symbol
             id="textext-9247dc32-1"
             overflow="visible"
             style="overflow:visible">
            <path
               id="path13288"
               d="m 2.265625,-3.15625 1.6875,0 c 1.1875,0 2.265625,-0.796875 2.265625,-1.796875 C 6.21875,-5.9375 5.234375,-6.8125 3.875,-6.8125 l -3.53125,0 0,0.3125 0.25,0 c 0.765625,0 0.78125,0.109375 0.78125,0.46875 l 0,5.25 c 0,0.359375 -0.015625,0.46875 -0.78125,0.46875 l -0.25,0 0,0.3125 c 0.359375,-0.03125 1.09375,-0.03125 1.46875,-0.03125 0.375,0 1.125,0 1.484375,0.03125 l 0,-0.3125 -0.25,0 c -0.765625,0 -0.78125,-0.109375 -0.78125,-0.46875 z m -0.03125,-0.25 0,-2.6875 C 2.234375,-6.4375 2.25,-6.5 2.71875,-6.5 l 0.890625,0 c 1.578125,0 1.578125,1.0625 1.578125,1.546875 0,0.46875 0,1.546875 -1.578125,1.546875 z"
               style="stroke:none"
               inkscape:connector-curvature="0" />
          </symbol>
        </g>
      </defs>
      <g
         id="textext-9247dc32-2"
         style="stroke-width:1">
        <g
           id="g13291"
           style="fill:#000000;fill-opacity:1;stroke-width:1">
          <use
             id="use13293"
             y="134.765"
             x="223.43201"
             xlink:href="#textext-9247dc32-1"
             width="744.09448"
             height="1052.3622"
             style="stroke-width:1" />
        </g>
      </g>
    </g>
    <path
       inkscape:export-ydpi="150"
       inkscape:export-xdpi="150"
       inkscape:export-filename="/home/waldgeist/data/pics/Homepage/mathematik/geometrie/grundkonstruktion-parallele-zu-strecke.png"
       transform="matrix(-1.1772258,0,0,1.1772258,695.43081,79.273762)"
       d="m 486.34924,379.62747 a 127.11608,127.11608 0 1 1 -254.23217,0 127.11608,127.11608 0 1 1 254.23217,0 z"
       sodipodi:ry="127.11608"
       sodipodi:rx="127.11608"
       sodipodi:cy="379.62747"
       sodipodi:cx="359.23315"
       id="path13410"
       style="color:#000000;fill:none;stroke:#808080;stroke-width:0.84945464000000004;stroke-linecap:round;stroke-linejoin:round;stroke-miterlimit:4;stroke-opacity:1;stroke-dasharray:0.84945466000000003, 2.54836397999999997;stroke-dashoffset:0;marker:none;visibility:visible;display:inline;overflow:visible;enable-background:accumulate"
       sodipodi:type="arc" />
    <path
       style="fill:none;stroke:#4d4d4d;stroke-width:1.5;stroke-linecap:round;stroke-linejoin:miter;stroke-miterlimit:4;stroke-opacity:1;stroke-dasharray:1.50000001, 4.50000001;stroke-dashoffset:0"
       d="M 230.00962,684.84787 311.27271,381.59986"
       id="path13412"
       inkscape:connector-curvature="0"
       inkscape:export-filename="/home/waldgeist/data/pics/Homepage/mathematik/geometrie/grundkonstruktion-parallele-zu-strecke.png"
       inkscape:export-xdpi="150"
       inkscape:export-ydpi="150" />
    <g
       style="stroke:#4d4d4d;stroke-width:1.32154547999999994"
       id="g13145"
       transform="matrix(2.2700694,0,0,2.2700694,-296.37525,-140.97529)"
       inkscape:export-filename="/home/waldgeist/data/pics/Homepage/mathematik/geometrie/grundkonstruktion-parallele-zu-strecke.png"
       inkscape:export-xdpi="150"
       inkscape:export-ydpi="150">
      <path
         style="fill:none;stroke:#4d4d4d;stroke-width:1.32154547999999994;stroke-linecap:round;stroke-linejoin:miter;stroke-opacity:1"
         d="m 248.02823,289.41659 5.16832,8.95176"
         id="path13147"
         inkscape:connector-curvature="0" />
      <path
         inkscape:connector-curvature="0"
         id="path13149"
         d="m 253.19655,289.41659 -5.16832,8.95176"
         style="fill:none;stroke:#4d4d4d;stroke-width:1.32154547999999994;stroke-linecap:round;stroke-linejoin:miter;stroke-opacity:1" />
      <path
         style="fill:none;stroke:#4d4d4d;stroke-width:1.32154547999999994;stroke-linecap:round;stroke-linejoin:miter;stroke-opacity:1"
         d="m 253.19655,289.41659 -5.16832,8.95176"
         id="path13420"
         inkscape:connector-curvature="0" />
    </g>
    <path
       sodipodi:type="arc"
       style="color:#000000;fill:none;stroke:#b3b3b3;stroke-width:0.84945464;stroke-linecap:round;stroke-linejoin:round;stroke-miterlimit:4;stroke-opacity:1;stroke-dasharray:none;stroke-dashoffset:0;marker:none;visibility:visible;display:inline;overflow:visible;enable-background:accumulate"
       id="path13414"
       sodipodi:cx="359.23315"
       sodipodi:cy="379.62747"
       sodipodi:rx="127.11608"
       sodipodi:ry="127.11608"
       d="m 370.31205,506.25984 a 127.11608,127.11608 0 0 1 -33.15238,-1.44747"
       transform="matrix(-1.1214097,-0.3581913,-0.3581913,1.1214097,811.20694,229.11362)"
       inkscape:export-filename="/home/waldgeist/data/pics/Homepage/mathematik/geometrie/grundkonstruktion-parallele-zu-strecke.png"
       inkscape:export-xdpi="150"
       inkscape:export-ydpi="150"
       sodipodi:start="1.4835299"
       sodipodi:end="1.7453293"
       inkscape:transform-center-x="29.043429"
       inkscape:transform-center-y="74.62139"
       sodipodi:open="true" />
    <path
       inkscape:connector-curvature="0"
       id="path14211"
       d="M 233.75911,670.75343 586.52634,357.61133"
       style="fill:none;stroke:#4d4d4d;stroke-width:1.5;stroke-linecap:round;stroke-linejoin:miter;stroke-miterlimit:4;stroke-opacity:1;stroke-dasharray:1.5, 4.5;stroke-dashoffset:0"
       sodipodi:nodetypes="cc"
       inkscape:export-filename="/home/waldgeist/data/pics/Homepage/mathematik/geometrie/grundkonstruktion-parallele-zu-strecke.png"
       inkscape:export-xdpi="150"
       inkscape:export-ydpi="150" />
    <g
       inkscape:export-ydpi="150"
       inkscape:export-xdpi="150"
       inkscape:export-filename="/home/waldgeist/data/pics/Homepage/mathematik/geometrie/grundkonstruktion-parallele-zu-strecke.png"
       transform="matrix(2.2700694,0,0,2.2700694,-172.27451,-140.97529)"
       id="g13422"
       style="stroke:#4d4d4d;stroke-width:1.32154547999999994">
      <path
         inkscape:connector-curvature="0"
         id="path13424"
         d="m 248.02823,289.41659 5.16832,8.95176"
         style="fill:none;stroke:#4d4d4d;stroke-width:1.32154547999999994;stroke-linecap:round;stroke-linejoin:miter;stroke-opacity:1" />
      <path
         style="fill:none;stroke:#4d4d4d;stroke-width:1.32154547999999994;stroke-linecap:round;stroke-linejoin:miter;stroke-opacity:1"
         d="m 253.19655,289.41659 -5.16832,8.95176"
         id="path13426"
         inkscape:connector-curvature="0" />
      <path
         inkscape:connector-curvature="0"
         id="path13428"
         d="m 253.19655,289.41659 -5.16832,8.95176"
         style="fill:none;stroke:#4d4d4d;stroke-width:1.32154547999999994;stroke-linecap:round;stroke-linejoin:miter;stroke-opacity:1" />
    </g>
    <path
       sodipodi:type="arc"
       style="color:#000000;fill:none;stroke:#808080;stroke-width:0.58455752999999999;stroke-linecap:round;stroke-linejoin:round;stroke-miterlimit:4;stroke-opacity:1;stroke-dasharray:0.58455749999999995, 1.75367257999999993;stroke-dashoffset:0;marker:none;visibility:visible;display:inline;overflow:visible;enable-background:accumulate"
       id="path14213"
       sodipodi:cx="359.23315"
       sodipodi:cy="379.62747"
       sodipodi:rx="127.11608"
       sodipodi:ry="127.11608"
       d="m 486.34924,379.62747 a 127.11608,127.11608 0 1 1 -254.23217,0 127.11608,127.11608 0 1 1 254.23217,0 z"
       transform="matrix(-1.7106958,0,0,1.7106958,1011.1717,-123.24603)"
       inkscape:export-filename="/home/waldgeist/data/pics/Homepage/mathematik/geometrie/grundkonstruktion-parallele-zu-strecke.png"
       inkscape:export-xdpi="150"
       inkscape:export-ydpi="150" />
    <path
       inkscape:export-ydpi="150"
       inkscape:export-xdpi="150"
       inkscape:export-filename="/home/waldgeist/data/pics/Homepage/mathematik/geometrie/grundkonstruktion-parallele-zu-strecke.png"
       transform="matrix(-1.7106958,-2.4828068e-8,-2.4828068e-8,1.7106958,1011.1717,-123.24603)"
       d="M 257.71374,303.1271 A 127.11608,127.11608 0 0 1 272.5402,286.66066"
       sodipodi:ry="127.11608"
       sodipodi:rx="127.11608"
       sodipodi:cy="379.62747"
       sodipodi:cx="359.23315"
       id="path14217"
       style="color:#000000;fill:none;stroke:#b3b3b3;stroke-width:0.58455753;stroke-linecap:round;stroke-linejoin:round;stroke-miterlimit:4;stroke-opacity:1;stroke-dasharray:none;stroke-dashoffset:0;marker:none;visibility:visible;display:inline;overflow:visible;enable-background:accumulate"
       sodipodi:type="arc"
       sodipodi:start="3.7873645"
       sodipodi:end="3.9618974"
       inkscape:transform-center-x="-89.565142"
       inkscape:transform-center-y="-83.790856"
       sodipodi:open="true" />
    <path
       inkscape:transform-center-y="-74.621385"
       inkscape:transform-center-x="-29.043433"
       sodipodi:end="1.7453293"
       sodipodi:start="1.4835299"
       inkscape:export-ydpi="150"
       inkscape:export-xdpi="150"
       inkscape:export-filename="/home/waldgeist/data/pics/Homepage/mathematik/geometrie/grundkonstruktion-parallele-zu-strecke.png"
       transform="matrix(1.1214097,0.35819132,0.35819132,-1.1214097,-266.21316,823.21796)"
       d="m 370.31205,506.25984 a 127.11608,127.11608 0 0 1 -33.15238,-1.44747"
       sodipodi:ry="127.11608"
       sodipodi:rx="127.11608"
       sodipodi:cy="379.62747"
       sodipodi:cx="359.23315"
       id="path14221"
       style="color:#000000;fill:none;stroke:#b3b3b3;stroke-width:0.84945464;stroke-linecap:round;stroke-linejoin:round;stroke-miterlimit:4;stroke-opacity:1;stroke-dasharray:none;stroke-dashoffset:0;marker:none;visibility:visible;display:inline;overflow:visible;enable-background:accumulate"
       sodipodi:type="arc"
       sodipodi:open="true" />
    <g
       inkscape:export-ydpi="150"
       inkscape:export-xdpi="150"
       inkscape:export-filename="/home/waldgeist/data/pics/Homepage/mathematik/geometrie/grundkonstruktion-parallele-zu-strecke.png"
       transform="matrix(2.2700694,0,0,2.2700694,-257.63484,-285.55645)"
       id="g13295"
       style="stroke:#000000;stroke-width:1.32154548">
      <path
         inkscape:connector-curvature="0"
         id="path13297"
         d="m 248.02823,289.41659 5.16832,8.95176"
         style="fill:none;stroke:#000000;stroke-width:1.32154548;stroke-linecap:round;stroke-linejoin:miter;stroke-opacity:1" />
      <path
         style="fill:none;stroke:#000000;stroke-width:1.32154548;stroke-linecap:round;stroke-linejoin:miter;stroke-opacity:1"
         d="m 253.19655,289.41659 -5.16832,8.95176"
         id="path13299"
         inkscape:connector-curvature="0" />
    </g>
    <path
       inkscape:transform-center-y="83.790711"
       inkscape:transform-center-x="89.565157"
       sodipodi:end="3.9793507"
       sodipodi:start="3.7873645"
       sodipodi:type="arc"
       style="color:#000000;fill:none;stroke:#b3b3b3;stroke-width:0.58455753;stroke-linecap:round;stroke-linejoin:round;stroke-miterlimit:4;stroke-opacity:1;stroke-dasharray:none;stroke-dashoffset:0;marker:none;visibility:visible;display:inline;overflow:visible;enable-background:accumulate"
       id="path14223"
       sodipodi:cx="359.23315"
       sodipodi:cy="379.62747"
       sodipodi:rx="127.11608"
       sodipodi:ry="127.11608"
       d="m 257.71374,303.1271 a 127.11608,127.11608 0 0 1 16.46215,-17.96529"
       transform="matrix(1.7106957,-9.4550549e-8,-9.4550549e-8,-1.7106957,-218.21977,1175.3504)"
       inkscape:export-filename="/home/waldgeist/data/pics/Homepage/mathematik/geometrie/grundkonstruktion-parallele-zu-strecke.png"
       inkscape:export-xdpi="150"
       inkscape:export-ydpi="150"
       sodipodi:open="true" />
    <path
       style="fill:none;stroke:#000000;stroke-width:3;stroke-linecap:round;stroke-linejoin:miter;stroke-miterlimit:4;stroke-opacity:1;stroke-dasharray:3.00000001, 6.00000001;stroke-dashoffset:0"
       d="m 597.22361,381.59985 -398.98537,0"
       id="path14227"
       inkscape:connector-curvature="0"
       inkscape:export-filename="/home/waldgeist/data/pics/Homepage/mathematik/geometrie/grundkonstruktion-parallele-zu-strecke.png"
       inkscape:export-xdpi="150"
       inkscape:export-ydpi="150" />
    <g
       style="stroke:#4d4d4d;stroke-width:1.32154547999999994"
       id="g14229"
       transform="matrix(2.2700694,0,0,2.2700694,-10.094667,-285.84118)"
       inkscape:export-filename="/home/waldgeist/data/pics/Homepage/mathematik/geometrie/grundkonstruktion-parallele-zu-strecke.png"
       inkscape:export-xdpi="150"
       inkscape:export-ydpi="150">
      <path
         style="fill:none;stroke:#4d4d4d;stroke-width:1.32154547999999994;stroke-linecap:round;stroke-linejoin:miter;stroke-opacity:1"
         d="m 248.02823,289.41659 5.16832,8.95176"
         id="path14231"
         inkscape:connector-curvature="0" />
      <path
         inkscape:connector-curvature="0"
         id="path14233"
         d="m 253.19655,289.41659 -5.16832,8.95176"
         style="fill:none;stroke:#4d4d4d;stroke-width:1.32154547999999994;stroke-linecap:round;stroke-linejoin:miter;stroke-opacity:1" />
    </g>
    <g
       style="stroke:#4d4d4d;stroke-width:1.32154547999999994"
       id="g14235"
       transform="matrix(2.2700694,0,0,2.2700694,-335.14841,3.5971265)"
       inkscape:export-filename="/home/waldgeist/data/pics/Homepage/mathematik/geometrie/grundkonstruktion-parallele-zu-strecke.png"
       inkscape:export-xdpi="150"
       inkscape:export-ydpi="150">
      <path
         style="fill:none;stroke:#4d4d4d;stroke-width:1.32154547999999994;stroke-linecap:round;stroke-linejoin:miter;stroke-opacity:1"
         d="m 248.02823,289.41659 5.16832,8.95176"
         id="path14237"
         inkscape:connector-curvature="0" />
      <path
         inkscape:connector-curvature="0"
         id="path14239"
         d="m 253.19655,289.41659 -5.16832,8.95176"
         style="fill:none;stroke:#4d4d4d;stroke-width:1.32154547999999994;stroke-linecap:round;stroke-linejoin:miter;stroke-opacity:1" />
    </g>
    <g
       ns0:text="$\\rm{S}_{\\rm{3}}$"
       ns0:preamble="/home/waldgeist/data/sphinx/inkscape-preamble.tex"
       transform="matrix(3.3737494,0,0,3.3737494,-366.82636,109.9399)"
       style="fill:#4d4d4d;fill-opacity:1;stroke:#808080;stroke-width:1"
       id="g15049"
       inkscape:export-filename="/home/waldgeist/data/pics/Homepage/mathematik/geometrie/grundkonstruktion-parallele-zu-strecke.png"
       inkscape:export-xdpi="150"
       inkscape:export-ydpi="150">
      <defs
         id="defs15051">
        <g
           id="g15053">
          <symbol
             overflow="visible"
             id="textext-8559f164-0"
             style="overflow:visible">
            <path
               style="stroke:none"
               d=""
               id="path15056"
               inkscape:connector-curvature="0" />
          </symbol>
          <symbol
             overflow="visible"
             id="textext-8559f164-1"
             style="overflow:visible">
            <path
               style="stroke:none"
               d="m 3.484375,-3.875 -1.28125,-0.296875 c -0.625,-0.15625 -1,-0.6875 -1,-1.265625 0,-0.703125 0.53125,-1.3125 1.3125,-1.3125 1.65625,0 1.875,1.640625 1.9375,2.078125 0.015625,0.0625 0.015625,0.125 0.125,0.125 0.125,0 0.125,-0.046875 0.125,-0.234375 l 0,-2 c 0,-0.171875 0,-0.25 -0.109375,-0.25 -0.0625,0 -0.078125,0.015625 -0.140625,0.140625 l -0.359375,0.5625 C 3.796875,-6.625 3.390625,-7.03125 2.5,-7.03125 c -1.109375,0 -1.9375,0.875 -1.9375,1.9375 0,0.828125 0.53125,1.5625 1.296875,1.828125 0.109375,0.03125 0.625,0.15625 1.328125,0.328125 0.265625,0.0625 0.5625,0.140625 0.84375,0.5 0.203125,0.265625 0.3125,0.59375 0.3125,0.921875 0,0.703125 -0.5,1.421875 -1.34375,1.421875 -0.28125,0 -1.046875,-0.046875 -1.578125,-0.53125 C 0.84375,-1.171875 0.8125,-1.796875 0.8125,-2.15625 0.796875,-2.265625 0.71875,-2.265625 0.6875,-2.265625 c -0.125,0 -0.125,0.078125 -0.125,0.25 l 0,2 c 0,0.171875 0,0.234375 0.109375,0.234375 0.0625,0 0.078125,-0.015625 0.140625,-0.125 0,-0.015625 0.03125,-0.046875 0.359375,-0.578125 0.3125,0.34375 0.953125,0.703125 1.84375,0.703125 1.15625,0 1.953125,-0.96875 1.953125,-2.078125 0,-0.984375 -0.65625,-1.8125 -1.484375,-2.015625 z"
               id="path15059"
               inkscape:connector-curvature="0" />
          </symbol>
          <symbol
             overflow="visible"
             id="textext-8559f164-2"
             style="overflow:visible">
            <path
               style="stroke:none"
               d=""
               id="path15062"
               inkscape:connector-curvature="0" />
          </symbol>
          <symbol
             overflow="visible"
             id="textext-8559f164-3"
             style="overflow:visible">
            <path
               style="stroke:none"
               d="m 1.90625,-2.328125 c 0.546875,0 0.9375,0.375 0.9375,1.125 0,0.859375 -0.515625,1.125 -0.90625,1.125 -0.28125,0 -0.90625,-0.078125 -1.1875,-0.5 0.328125,0 0.40625,-0.234375 0.40625,-0.390625 0,-0.21875 -0.171875,-0.375 -0.390625,-0.375 -0.1875,0 -0.390625,0.125 -0.390625,0.40625 0,0.65625 0.71875,1.078125 1.5625,1.078125 0.96875,0 1.640625,-0.65625 1.640625,-1.34375 0,-0.546875 -0.4375,-1.09375 -1.203125,-1.25 0.71875,-0.265625 0.984375,-0.78125 0.984375,-1.21875 0,-0.546875 -0.625,-0.953125 -1.40625,-0.953125 -0.765625,0 -1.359375,0.375 -1.359375,0.9375 0,0.234375 0.15625,0.359375 0.359375,0.359375 0.21875,0 0.359375,-0.15625 0.359375,-0.34375 0,-0.203125 -0.140625,-0.359375 -0.359375,-0.375 0.25,-0.296875 0.71875,-0.375 0.984375,-0.375 0.3125,0 0.75,0.15625 0.75,0.75 0,0.296875 -0.09375,0.625 -0.28125,0.828125 -0.21875,0.265625 -0.421875,0.28125 -0.765625,0.3125 -0.171875,0.015625 -0.1875,0.015625 -0.21875,0.015625 -0.015625,0 -0.078125,0.015625 -0.078125,0.09375 0,0.09375 0.0625,0.09375 0.1875,0.09375 z"
               id="path15065"
               inkscape:connector-curvature="0" />
          </symbol>
        </g>
      </defs>
      <g
         id="textext-8559f164-4"
         style="fill:#4d4d4d;stroke-width:1">
        <g
           style="fill:#4d4d4d;fill-opacity:1;stroke-width:1"
           id="g15068">
          <use
             xlink:href="#textext-8559f164-1"
             x="223.43201"
             y="134.765"
             id="use15070"
             style="fill:#4d4d4d;stroke-width:1"
             width="744.09448"
             height="1052.3622" />
        </g>
        <g
           style="fill:#4d4d4d;fill-opacity:1;stroke-width:1"
           id="g15072">
          <use
             xlink:href="#textext-8559f164-3"
             x="228.967"
             y="136.259"
             id="use15074"
             style="fill:#4d4d4d;stroke-width:1"
             width="744.09448"
             height="1052.3622" />
        </g>
      </g>
    </g>
    <g
       id="g15380"
       style="fill:#4d4d4d;fill-opacity:1;stroke:#808080;stroke-width:1"
       transform="matrix(3.3737494,0,0,3.3737494,-203.985,-35.462335)"
       ns0:preamble="/home/waldgeist/data/sphinx/inkscape-preamble.tex"
       ns0:text="$\\rm{S}_{\\rm{4}}$"
       inkscape:export-filename="/home/waldgeist/data/pics/Homepage/mathematik/geometrie/grundkonstruktion-parallele-zu-strecke.png"
       inkscape:export-xdpi="150"
       inkscape:export-ydpi="150">
      <defs
         id="defs15382">
        <g
           id="g15384">
          <symbol
             id="textext-e5a057d4-0"
             overflow="visible"
             style="overflow:visible">
            <path
               id="path15387"
               d=""
               style="stroke:none"
               inkscape:connector-curvature="0" />
          </symbol>
          <symbol
             id="textext-e5a057d4-1"
             overflow="visible"
             style="overflow:visible">
            <path
               id="path15390"
               d="m 3.484375,-3.875 -1.28125,-0.296875 c -0.625,-0.15625 -1,-0.6875 -1,-1.265625 0,-0.703125 0.53125,-1.3125 1.3125,-1.3125 1.65625,0 1.875,1.640625 1.9375,2.078125 0.015625,0.0625 0.015625,0.125 0.125,0.125 0.125,0 0.125,-0.046875 0.125,-0.234375 l 0,-2 c 0,-0.171875 0,-0.25 -0.109375,-0.25 -0.0625,0 -0.078125,0.015625 -0.140625,0.140625 l -0.359375,0.5625 C 3.796875,-6.625 3.390625,-7.03125 2.5,-7.03125 c -1.109375,0 -1.9375,0.875 -1.9375,1.9375 0,0.828125 0.53125,1.5625 1.296875,1.828125 0.109375,0.03125 0.625,0.15625 1.328125,0.328125 0.265625,0.0625 0.5625,0.140625 0.84375,0.5 0.203125,0.265625 0.3125,0.59375 0.3125,0.921875 0,0.703125 -0.5,1.421875 -1.34375,1.421875 -0.28125,0 -1.046875,-0.046875 -1.578125,-0.53125 C 0.84375,-1.171875 0.8125,-1.796875 0.8125,-2.15625 0.796875,-2.265625 0.71875,-2.265625 0.6875,-2.265625 c -0.125,0 -0.125,0.078125 -0.125,0.25 l 0,2 c 0,0.171875 0,0.234375 0.109375,0.234375 0.0625,0 0.078125,-0.015625 0.140625,-0.125 0,-0.015625 0.03125,-0.046875 0.359375,-0.578125 0.3125,0.34375 0.953125,0.703125 1.84375,0.703125 1.15625,0 1.953125,-0.96875 1.953125,-2.078125 0,-0.984375 -0.65625,-1.8125 -1.484375,-2.015625 z"
               style="stroke:none"
               inkscape:connector-curvature="0" />
          </symbol>
          <symbol
             id="textext-e5a057d4-2"
             overflow="visible"
             style="overflow:visible">
            <path
               id="path15393"
               d=""
               style="stroke:none"
               inkscape:connector-curvature="0" />
          </symbol>
          <symbol
             id="textext-e5a057d4-3"
             overflow="visible"
             style="overflow:visible">
            <path
               id="path15396"
               d="m 3.6875,-1.140625 0,-0.25 -0.78125,0 0,-3.109375 c 0,-0.140625 0,-0.203125 -0.140625,-0.203125 -0.09375,0 -0.125,0 -0.1875,0.109375 l -2.3125,3.203125 0,0.25 2.0625,0 0,0.5625 c 0,0.25 0,0.328125 -0.578125,0.328125 l -0.1875,0 0,0.25 C 1.921875,-0.015625 2.359375,-0.03125 2.609375,-0.03125 2.875,-0.03125 3.3125,-0.015625 3.671875,0 l 0,-0.25 -0.1875,0 C 2.90625,-0.25 2.90625,-0.328125 2.90625,-0.578125 l 0,-0.5625 z M 2.375,-3.9375 l 0,2.546875 -1.84375,0 z"
               style="stroke:none"
               inkscape:connector-curvature="0" />
          </symbol>
        </g>
      </defs>
      <g
         id="textext-e5a057d4-4"
         style="fill:#4d4d4d;stroke-width:1">
        <g
           id="g15399"
           style="fill:#4d4d4d;fill-opacity:1;stroke-width:1">
          <use
             id="use15401"
             y="134.765"
             x="223.43201"
             xlink:href="#textext-e5a057d4-1"
             width="744.09448"
             height="1052.3622"
             style="fill:#4d4d4d;stroke-width:1" />
        </g>
        <g
           id="g15403"
           style="fill:#4d4d4d;fill-opacity:1;stroke-width:1">
          <use
             id="use15405"
             y="136.259"
             x="228.967"
             xlink:href="#textext-e5a057d4-3"
             width="744.09448"
             height="1052.3622"
             style="fill:#4d4d4d;stroke-width:1" />
        </g>
      </g>
    </g>
  </g>
</svg>
