<svg xmlns:ns0="http://www.iki.fi/pav/software/textext/" xmlns="http://www.w3.org/2000/svg" xmlns:xlink="http://www.w3.org/1999/xlink" height="297mm" width="210mm"><title>Halbierung einer Strecke</title><rect ry="4.555" y="317.188" x="43.122" height="417.987" width="657.851" style="marker:none" color="#000" fill="#fff" stroke="#fff" stroke-width="2.396" stroke-linecap="round" stroke-linejoin="bevel" overflow="visible"/><path style="marker:none" d="M323.575 523.056a188.995 188.995 0 1 1 377.99 0 188.995 188.995 0 1 1-377.99 0z" color="#000" fill="none" stroke="gray" stroke-width="1.00060967" stroke-linecap="round" stroke-linejoin="round" stroke-dasharray=".67258872000000003,2.01776615999999986" overflow="visible"/><circle style="marker:none" transform="matrix(1.4868 0 0 1.4868 -301.395 -41.372)" color="#000" fill="none" stroke="gray" stroke-width=".673" stroke-linecap="round" stroke-linejoin="round" stroke-dasharray=".67258872000000003,2.01776615999999986" overflow="visible"/><use xlink:href="#a" transform="matrix(-1 0 0 1 745.28 0)" width="744.094" height="1052.362"/><use xlink:href="#a" transform="rotate(180 372.64 523.056)" width="744.094" height="1052.362"/><path d="M512.57 523.056H232.71" fill="none" stroke="#000" stroke-width="3" stroke-linecap="round"/><path d="M232.71 511.563v22.986" fill="gray" stroke="#000" stroke-width="3" stroke-linecap="round"/><use xlink:href="#a" transform="matrix(1 0 0 -1 0 1046.111)" width="744.094" height="1052.362"/><path style="marker:none" id="a" d="M392.987 623.208a188.995 188.995 0 0 1-41.338 46.725" color="#000" fill="none" stroke="#b3b3b3" stroke-width="1.00060967" stroke-linecap="round" stroke-linejoin="round" overflow="visible"/><path d="M372.64 396.017v254.077" fill="none" stroke="#000" stroke-width="3" stroke-linecap="round" stroke-dasharray="3,6"/><g ns0:text="$\\rm{A}$" ns0:preamble="/home/waldgeist/data/sphinx/inkscape-preamble.tex" transform="matrix(3.37375 0 0 3.37375 -533.666 110.077)" stroke="navy"><defs><symbol overflow="visible" id="b"><path d="M3.969-6.938c-.047-.125-.078-.203-.235-.203-.156 0-.187.063-.234.204L1.437-.984C1.25-.47.86-.313.313-.313V0c.235-.016.672-.031 1.016-.031.313 0 .828.015 1.156.031v-.313c-.5 0-.75-.25-.75-.5 0-.03.016-.14.016-.156l.469-1.297h2.453L5.203-.75a.58.58 0 0 1 .031.14c0 .297-.562.297-.828.297V0c.36-.031 1.063-.031 1.438-.031.422 0 .89.015 1.297.031v-.313h-.172c-.594 0-.735-.062-.844-.39zm-.531 1.11l1.124 3.25H2.329z" stroke="none"/></symbol></defs><use xlink:href="#b" x="223.432" y="134.765" width="744.094" height="1052.362"/></g><path d="M512.57 511.563v22.986" fill="gray" stroke="#000" stroke-width="3" stroke-linecap="round"/><g transform="matrix(3.37375 0 0 3.37375 -252.778 110.077)" ns0:preamble="/home/waldgeist/data/sphinx/inkscape-preamble.tex" ns0:text="$\\rm{B}$" stroke="navy"><defs><symbol id="c" overflow="visible"><path d="M2.219-3.656v-2.438c0-.343.015-.406.484-.406h1.235c.968 0 1.312.844 1.312 1.375 0 .64-.484 1.469-1.594 1.469zm2.344.094c.968-.188 1.656-.829 1.656-1.563 0-.86-.922-1.688-2.219-1.688H.36v.313h.234c.765 0 .797.11.797.469v5.25c0 .36-.032.469-.797.469H.359V0h3.907c1.328 0 2.218-.89 2.218-1.828 0-.86-.812-1.61-1.921-1.734zm-.61 3.25h-1.25c-.469 0-.484-.063-.484-.391v-2.719h1.875c.984 0 1.406.922 1.406 1.594 0 .703-.531 1.516-1.547 1.516z" stroke="none"/></symbol></defs><use y="134.765" x="223.432" xlink:href="#c" width="744.094" height="1052.362"/></g><g transform="matrix(3.37375 0 0 3.37375 -379.21 104.944)" ns0:preamble="/home/waldgeist/data/sphinx/inkscape-preamble.tex" ns0:text="$\\rm{M}$" fill="navy" stroke="#000"><defs><symbol id="d" overflow="visible"><path d="M2.406-6.594c-.094-.218-.125-.218-.36-.218H.376v.312h.234c.766 0 .782.11.782.469v4.984c0 .266 0 .734-1.016.734V0c.344-.016.828-.031 1.156-.031.328 0 .828.015 1.172.031v-.313c-1.031 0-1.031-.468-1.031-.734v-5.375h.016L4.094-.219c.047.125.093.219.187.219.11 0 .14-.078.188-.188L6.922-6.5v5.719c0 .36-.016.469-.781.469h-.235V0c.36-.031 1.047-.031 1.438-.031.375 0 1.047 0 1.422.031v-.313h-.25c-.766 0-.782-.109-.782-.468v-5.25c0-.36.016-.469.782-.469h.25v-.313H7.078c-.266 0-.266.016-.328.188L4.562-1z" stroke="none"/></symbol></defs><use y="134.765" x="223.432" xlink:href="#d" width="744.094" height="1052.362" fill="#000"/></g><g ns0:text="$\\rm{S}_{\\rm{1}}$" ns0:preamble="/home/waldgeist/data/sphinx/inkscape-preamble.tex" transform="matrix(3.37375 0 0 3.37375 -391.774 -79.433)" fill="#4d4d4d" stroke="gray"><defs><symbol overflow="visible" id="e"><path d="M3.484-3.875l-1.28-.297c-.626-.156-1-.687-1-1.266 0-.703.53-1.312 1.312-1.312 1.656 0 1.875 1.64 1.937 2.078.016.063.016.125.125.125.125 0 .125-.047.125-.234v-2c0-.172 0-.25-.11-.25-.062 0-.077.015-.14.14l-.36.563c-.296-.297-.702-.703-1.593-.703-1.11 0-1.938.875-1.938 1.937 0 .828.532 1.563 1.297 1.828.11.032.625.157 1.329.329.265.062.562.14.843.5.203.265.313.593.313.921 0 .704-.5 1.422-1.344 1.422-.281 0-1.047-.047-1.578-.531-.578-.547-.61-1.172-.61-1.531-.015-.11-.093-.11-.125-.11-.125 0-.125.079-.125.25v2c0 .172 0 .235.11.235.062 0 .078-.016.14-.125 0-.016.032-.047.36-.578.312.343.953.703 1.844.703 1.156 0 1.953-.969 1.953-2.078 0-.985-.657-1.813-1.485-2.016z" stroke="none"/></symbol><symbol overflow="visible" id="f"><path d="M2.328-4.438c0-.187 0-.187-.203-.187-.453.438-1.078.438-1.36.438v.25c.157 0 .626 0 1-.188v3.547c0 .234 0 .328-.687.328H.812V0c.125 0 .985-.031 1.235-.031.219 0 1.094.031 1.25.031v-.25H3.03c-.703 0-.703-.094-.703-.328z" stroke="none"/></symbol></defs><use height="1052.362" width="744.094" xlink:href="#e" x="223.432" y="134.765"/><use height="1052.362" width="744.094" xlink:href="#f" x="228.967" y="136.259"/></g><g transform="matrix(3.37375 0 0 3.37375 -391.552 235.15)" ns0:preamble="/home/waldgeist/data/sphinx/inkscape-preamble.tex" ns0:text="$\\rm{S}_{\\rm{2}}$" fill="#4d4d4d" stroke="gray"><defs><symbol id="g" overflow="visible"><path d="M3.484-3.875l-1.28-.297c-.626-.156-1-.687-1-1.266 0-.703.53-1.312 1.312-1.312 1.656 0 1.875 1.64 1.937 2.078.016.063.016.125.125.125.125 0 .125-.047.125-.234v-2c0-.172 0-.25-.11-.25-.062 0-.077.015-.14.14l-.36.563c-.296-.297-.702-.703-1.593-.703-1.11 0-1.938.875-1.938 1.937 0 .828.532 1.563 1.297 1.828.11.032.625.157 1.329.329.265.062.562.14.843.5.203.265.313.593.313.921 0 .704-.5 1.422-1.344 1.422-.281 0-1.047-.047-1.578-.531-.578-.547-.61-1.172-.61-1.531-.015-.11-.093-.11-.125-.11-.125 0-.125.079-.125.25v2c0 .172 0 .235.11.235.062 0 .078-.016.14-.125 0-.016.032-.047.36-.578.312.343.953.703 1.844.703 1.156 0 1.953-.969 1.953-2.078 0-.985-.657-1.813-1.485-2.016z" stroke="none"/></symbol><symbol id="h" overflow="visible"><path d="M3.516-1.266H3.28c-.015.157-.094.563-.187.625-.047.047-.578.047-.688.047H1.125c.734-.64.984-.844 1.39-1.172.516-.406 1-.843 1-1.5 0-.843-.734-1.359-1.624-1.359-.86 0-1.454.61-1.454 1.25 0 .344.297.39.376.39.156 0 .359-.124.359-.374 0-.125-.047-.375-.406-.375.218-.485.687-.641 1.015-.641.703 0 1.063.547 1.063 1.11 0 .609-.438 1.078-.656 1.328L.516-.266C.437-.203.437-.187.437 0h2.876z" stroke="none"/></symbol></defs><use y="134.765" x="223.432" xlink:href="#g" width="744.094" height="1052.362"/><use y="136.259" x="228.967" xlink:href="#h" width="744.094" height="1052.362"/></g><g stroke="#4d4d4d" stroke-width="1.322" fill="none" stroke-linecap="round"><path d="M366.774 512.895l11.733 20.321M378.507 512.895l-11.733 20.321" stroke-width="3.00103254"/></g><g stroke="#4d4d4d" stroke-width="1.322" fill="none" stroke-linecap="round"><path d="M366.774 385.857l11.733 20.32M378.507 385.857l-11.733 20.32" stroke-width="3.00103254"/></g><g stroke="#4d4d4d" stroke-width="1.322" fill="none" stroke-linecap="round"><path d="M366.774 639.934l11.733 20.32M378.507 639.934l-11.733 20.32" stroke-width="3.00103254"/></g></svg>