<?xml version="1.0" encoding="UTF-8" standalone="no"?>
<!-- Created with Inkscape (http://www.inkscape.org/) -->

<svg
   xmlns:ns0="http://www.iki.fi/pav/software/textext/"
   xmlns:dc="http://purl.org/dc/elements/1.1/"
   xmlns:cc="http://creativecommons.org/ns#"
   xmlns:rdf="http://www.w3.org/1999/02/22-rdf-syntax-ns#"
   xmlns:svg="http://www.w3.org/2000/svg"
   xmlns="http://www.w3.org/2000/svg"
   xmlns:xlink="http://www.w3.org/1999/xlink"
   xmlns:sodipodi="http://sodipodi.sourceforge.net/DTD/sodipodi-0.dtd"
   xmlns:inkscape="http://www.inkscape.org/namespaces/inkscape"
   width="210mm"
   height="297mm"
   id="svg2"
   version="1.1"
   inkscape:version="0.48.3.1 r9886"
   sodipodi:docname="grundkonstruktion-senkrechte-zu-strecke-durch-punkt-auf-der-strecke.svg">
  <sodipodi:namedview
     id="base"
     pagecolor="#ffffff"
     bordercolor="#666666"
     borderopacity="1.0"
     inkscape:pageopacity="0.0"
     inkscape:pageshadow="2"
     inkscape:zoom="0.31980291"
     inkscape:cx="1044.9298"
     inkscape:cy="1407.6817"
     inkscape:document-units="px"
     inkscape:current-layer="layer1"
     showgrid="false"
     inkscape:window-width="1280"
     inkscape:window-height="974"
     inkscape:window-x="0"
     inkscape:window-y="0"
     inkscape:window-maximized="1"
     showguides="false"
     inkscape:guide-bbox="true"
     inkscape:snap-nodes="true"
     inkscape:object-paths="true"
     inkscape:object-nodes="true"
     inkscape:snap-smooth-nodes="true"
     inkscape:snap-midpoints="true"
     inkscape:snap-object-midpoints="false"
     inkscape:snap-global="true"
     inkscape:snap-intersection-paths="true">
    <sodipodi:guide
       id="guide18089"
       orientation="1052.3622,0"
       position="0.0,0" />
    <sodipodi:guide
       id="guide18091"
       orientation="1052.3622,0"
       position="372.0472,0" />
    <sodipodi:guide
       id="guide18093"
       orientation="1052.3622,0"
       position="744.0945,0" />
    <sodipodi:guide
       id="guide18095"
       orientation="0,744.0945"
       position="0,0.0" />
    <sodipodi:guide
       id="guide18097"
       orientation="0,744.0945"
       position="0,526.1811" />
    <sodipodi:guide
       id="guide18099"
       orientation="0,744.0945"
       position="0,1052.3622" />
  </sodipodi:namedview>
  <title
     id="title11442">Senkrechte zu einer Strecke durch Punkt auf der Strecke</title>
  <defs
     id="defs4">
    <marker
       inkscape:stockid="StopL"
       orient="auto"
       refY="0.0"
       refX="0.0"
       id="StopL"
       style="overflow:visible">
      <path
         id="path3928"
         d="M 0.0,5.65 L 0.0,-5.65"
         style="fill:none;fill-opacity:0.75000000;fill-rule:evenodd;stroke:#000000;stroke-width:1.0pt"
         transform="scale(0.8)" />
    </marker>
    <marker
       inkscape:stockid="Arrow1Lend"
       orient="auto"
       refY="0.0"
       refX="0.0"
       id="Arrow1Lend"
       style="overflow:visible;">
      <path
         id="path3762"
         d="M 0.0,0.0 L 5.0,-5.0 L -12.5,0.0 L 5.0,5.0 L 0.0,0.0 z "
         style="fill-rule:evenodd;stroke:#000000;stroke-width:1.0pt;"
         transform="scale(0.8) rotate(180) translate(12.5,0)" />
    </marker>
    <marker
       inkscape:stockid="Arrow2Mend"
       orient="auto"
       refY="0.0"
       refX="0.0"
       id="Arrow2Mend"
       style="overflow:visible;">
      <path
         id="path3786"
         style="fill-rule:evenodd;stroke-width:0.62500000;stroke-linejoin:round;"
         d="M 8.7185878,4.0337352 L -2.2072895,0.016013256 L 8.7185884,-4.0017078 C 6.9730900,-1.6296469 6.9831476,1.6157441 8.7185878,4.0337352 z "
         transform="scale(0.6) rotate(180) translate(0,0)" />
    </marker>
    <marker
       style="overflow:visible"
       id="Arrow2Mend-5"
       refX="0"
       refY="0"
       orient="auto"
       inkscape:stockid="Arrow2Mend">
      <path
         inkscape:connector-curvature="0"
         transform="scale(-0.6,-0.6)"
         d="M 8.7185878,4.0337352 -2.2072895,0.01601326 8.7185884,-4.0017078 c -1.7454984,2.3720609 -1.7354408,5.6174519 -6e-7,8.035443 z"
         style="fill-rule:evenodd;stroke-width:0.625;stroke-linejoin:round"
         id="path3786-0" />
    </marker>
  </defs>
  <metadata
     id="metadata7">
    <rdf:RDF>
      <cc:Work
         rdf:about="">
        <dc:format>image/svg+xml</dc:format>
        <dc:type
           rdf:resource="http://purl.org/dc/dcmitype/StillImage" />
        <dc:title>Senkrechte zu einer Strecke durch Punkt auf der Strecke</dc:title>
        <dc:date>2013-10-22</dc:date>
        <dc:creator>
          <cc:Agent>
            <dc:title>Bernhard Grotz</dc:title>
          </cc:Agent>
        </dc:creator>
        <dc:rights>
          <cc:Agent>
            <dc:title>Bernhard Grotz</dc:title>
          </cc:Agent>
        </dc:rights>
        <dc:publisher>
          <cc:Agent>
            <dc:title>Bernhard Grotz</dc:title>
          </cc:Agent>
        </dc:publisher>
        <dc:language>de_DE</dc:language>
        <dc:subject>
          <rdf:Bag>
            <rdf:li>Mathematik</rdf:li>
            <rdf:li>Geometrie</rdf:li>
            <rdf:li>Grundkonstruktion</rdf:li>
            <rdf:li>Zirkel</rdf:li>
            <rdf:li>Lineal</rdf:li>
            <rdf:li>Senkrechte zu einer Strecke</rdf:li>
          </rdf:Bag>
        </dc:subject>
        <cc:license
           rdf:resource="http://creativecommons.org/licenses/by-nc-sa/3.0/" />
      </cc:Work>
      <cc:License
         rdf:about="http://creativecommons.org/licenses/by-nc-sa/3.0/">
        <cc:permits
           rdf:resource="http://creativecommons.org/ns#Reproduction" />
        <cc:permits
           rdf:resource="http://creativecommons.org/ns#Distribution" />
        <cc:requires
           rdf:resource="http://creativecommons.org/ns#Notice" />
        <cc:requires
           rdf:resource="http://creativecommons.org/ns#Attribution" />
        <cc:prohibits
           rdf:resource="http://creativecommons.org/ns#CommercialUse" />
        <cc:permits
           rdf:resource="http://creativecommons.org/ns#DerivativeWorks" />
        <cc:requires
           rdf:resource="http://creativecommons.org/ns#ShareAlike" />
      </cc:License>
    </rdf:RDF>
  </metadata>
  <g
     inkscape:label="Ebene 1"
     inkscape:groupmode="layer"
     id="layer1">
    <rect
       ry="4.0411496"
       y="340.76184"
       x="43.121826"
       height="370.8385"
       width="657.85083"
       id="rect4674-6-2"
       style="color:#000000;fill:#ffffff;fill-opacity:1;fill-rule:nonzero;stroke:#ffffff;stroke-width:2.39586616;stroke-linecap:round;stroke-linejoin:bevel;stroke-miterlimit:4;stroke-opacity:1;stroke-dasharray:none;stroke-dashoffset:0;marker:none;visibility:visible;display:inline;overflow:visible;enable-background:accumulate"
       inkscape:export-filename="/home/waldgeist/data/pics/Homepage/mathematik/geometrie/grundkonstruktion-senkrechte-zu-strecke-durch-punkt-auf-der-strecke.png"
       inkscape:export-xdpi="150"
       inkscape:export-ydpi="150" />
    <path
       inkscape:export-ydpi="150"
       inkscape:export-xdpi="150"
       inkscape:export-filename="/home/waldgeist/data/pics/Homepage/mathematik/geometrie/grundkonstruktion-senkrechte-zu-strecke-durch-punkt-auf-der-strecke.png"
       inkscape:connector-curvature="0"
       id="path18083"
       d="m 561.57864,526.2081 -379.0628,0"
       style="fill:none;stroke:#b3b3b3;stroke-width:3.00000024;stroke-linecap:round;stroke-linejoin:miter;stroke-miterlimit:4;stroke-opacity:1;stroke-dasharray:3.00000006, 3.00000006;stroke-dashoffset:0" />
    <path
       inkscape:export-ydpi="150"
       inkscape:export-xdpi="150"
       inkscape:export-filename="/home/waldgeist/data/pics/Homepage/mathematik/geometrie/grundkonstruktion-senkrechte-zu-strecke-durch-punkt-auf-der-strecke.png"
       transform="matrix(1.248625,0,0,1.248625,-152.92111,52.1959)"
       d="m 486.34924,379.62747 a 127.11608,127.11608 0 1 1 -254.23217,0 127.11608,127.11608 0 1 1 254.23217,0 z"
       sodipodi:ry="127.11608"
       sodipodi:rx="127.11608"
       sodipodi:cy="379.62747"
       sodipodi:cx="359.23315"
       id="path12545"
       style="color:#000000;fill:none;stroke:#808080;stroke-width:0.80088102999999999;stroke-linecap:round;stroke-linejoin:round;stroke-miterlimit:4;stroke-opacity:1;stroke-dasharray:0.80088108000000002, 2.40264322999999980;stroke-dashoffset:0;marker:none;visibility:visible;display:inline;overflow:visible;enable-background:accumulate"
       sodipodi:type="arc" />
    <g
       id="g4492"
       transform="matrix(3.3737494,0,0,3.3737494,-254.33287,-175.74676)"
       ns0:preamble="/home/waldgeist/data/sphinx/inkscape-preamble.tex"
       ns0:text="$\\vec{c}$">
      <defs
         id="defs4494">
        <g
           id="g4496">
          <symbol
             id="textext-23843a60-0"
             overflow="visible"
             style="overflow:visible">
            <path
               id="path4499"
               d="m 5.359375,-5.9375 c -0.140625,0.140625 -0.46875,0.421875 -0.46875,0.59375 0,0.09375 0.09375,0.203125 0.1875,0.203125 0.09375,0 0.140625,-0.078125 0.203125,-0.140625 C 5.390625,-5.421875 5.625,-5.703125 6.0625,-5.921875 6.125,-5.96875 6.234375,-6.015625 6.234375,-6.125 6.234375,-6.234375 6.15625,-6.28125 6.09375,-6.328125 5.875,-6.484375 5.765625,-6.65625 5.6875,-6.890625 5.65625,-6.984375 5.625,-7.125 5.484375,-7.125 c -0.140625,0 -0.203125,0.140625 -0.203125,0.21875 0,0.046875 0.078125,0.359375 0.234375,0.578125 l -3.359375,0 c -0.15625,0 -0.34375,0 -0.34375,0.203125 0,0.1875 0.1875,0.1875 0.34375,0.1875 z m 0,0"
               style="stroke:none"
               inkscape:connector-curvature="0" />
          </symbol>
          <symbol
             id="textext-23843a60-1"
             overflow="visible"
             style="overflow:visible">
            <path
               id="path4502"
               d="m 3.953125,-3.78125 c -0.171875,0 -0.296875,0 -0.4375,0.125 -0.171875,0.15625 -0.1875,0.328125 -0.1875,0.390625 0,0.25 0.1875,0.359375 0.375,0.359375 0.28125,0 0.546875,-0.25 0.546875,-0.640625 0,-0.484375 -0.46875,-0.859375 -1.171875,-0.859375 -1.34375,0 -2.671875,1.421875 -2.671875,2.828125 0,0.90625 0.578125,1.6875 1.625,1.6875 1.421875,0 2.25,-1.0625 2.25,-1.171875 0,-0.0625 -0.046875,-0.140625 -0.109375,-0.140625 -0.0625,0 -0.078125,0.03125 -0.140625,0.109375 -0.78125,0.984375 -1.875,0.984375 -1.984375,0.984375 -0.625,0 -0.90625,-0.484375 -0.90625,-1.09375 0,-0.40625 0.203125,-1.375 0.546875,-1.984375 0.3125,-0.578125 0.859375,-1 1.40625,-1 0.328125,0 0.71875,0.125 0.859375,0.40625 z m 0,0"
               style="stroke:none"
               inkscape:connector-curvature="0" />
          </symbol>
        </g>
      </defs>
      <g
         id="textext-23843a60-2">
        <g
           id="g4505"
           style="fill:#000000;fill-opacity:1" />
        <g
           id="g4509"
           style="fill:#000000;fill-opacity:1" />
      </g>
    </g>
    <path
       style="fill:none;stroke:#000000;stroke-width:3;stroke-linecap:round;stroke-linejoin:miter;stroke-opacity:1"
       d="m 511.97736,526.2081 -285.25401,0"
       id="path10303"
       inkscape:connector-curvature="0"
       inkscape:export-filename="/home/waldgeist/data/pics/Homepage/mathematik/geometrie/grundkonstruktion-senkrechte-zu-strecke-durch-punkt-auf-der-strecke.png"
       inkscape:export-xdpi="150"
       inkscape:export-ydpi="150" />
    <path
       style="fill:#808080;fill-opacity:1;stroke:#000000;stroke-width:3;stroke-linecap:round;stroke-linejoin:miter;stroke-opacity:1"
       d="m 226.72335,514.71518 0,22.98584"
       id="path20418"
       inkscape:connector-curvature="0"
       inkscape:export-filename="/home/waldgeist/data/pics/Homepage/mathematik/geometrie/grundkonstruktion-senkrechte-zu-strecke-durch-punkt-auf-der-strecke.png"
       inkscape:export-xdpi="150"
       inkscape:export-ydpi="150" />
    <path
       inkscape:connector-curvature="0"
       id="path11444"
       d="m 418.00395,425.12784 0,205.69661"
       style="fill:none;stroke:#000000;stroke-width:3;stroke-linecap:round;stroke-linejoin:miter;stroke-miterlimit:4;stroke-opacity:1;stroke-dasharray:2.99999996, 5.99999989;stroke-dashoffset:0"
       inkscape:export-filename="/home/waldgeist/data/pics/Homepage/mathematik/geometrie/grundkonstruktion-senkrechte-zu-strecke-durch-punkt-auf-der-strecke.png"
       inkscape:export-xdpi="150"
       inkscape:export-ydpi="150" />
    <g
       ns0:text="$\\rm{A}$"
       ns0:preamble="/home/waldgeist/data/sphinx/inkscape-preamble.tex"
       transform="matrix(3.3737494,0,0,3.3737494,-539.65274,113.22898)"
       style="fill:#000000;fill-opacity:1;stroke:#000080;stroke-width:1"
       id="g11527"
       inkscape:export-filename="/home/waldgeist/data/pics/Homepage/mathematik/geometrie/grundkonstruktion-senkrechte-zu-strecke-durch-punkt-auf-der-strecke.png"
       inkscape:export-xdpi="150"
       inkscape:export-ydpi="150">
      <defs
         id="defs11529">
        <g
           id="g11531">
          <symbol
             overflow="visible"
             id="textext-66788d6b-0"
             style="overflow:visible">
            <path
               style="stroke:none"
               d=""
               id="path11534"
               inkscape:connector-curvature="0" />
          </symbol>
          <symbol
             overflow="visible"
             id="textext-66788d6b-1"
             style="overflow:visible">
            <path
               style="stroke:none"
               d="m 3.96875,-6.9375 c -0.046875,-0.125 -0.078125,-0.203125 -0.234375,-0.203125 -0.15625,0 -0.1875,0.0625 -0.234375,0.203125 L 1.4375,-0.984375 C 1.25,-0.46875 0.859375,-0.3125 0.3125,-0.3125 l 0,0.3125 c 0.234375,-0.015625 0.671875,-0.03125 1.015625,-0.03125 0.3125,0 0.828125,0.015625 1.15625,0.03125 l 0,-0.3125 c -0.5,0 -0.75,-0.25 -0.75,-0.5 0,-0.03125 0.015625,-0.140625 0.015625,-0.15625 l 0.46875,-1.296875 2.453125,0 0.53125,1.515625 c 0.015625,0.046875 0.03125,0.109375 0.03125,0.140625 0,0.296875 -0.5625,0.296875 -0.828125,0.296875 l 0,0.3125 c 0.359375,-0.03125 1.0625,-0.03125 1.4375,-0.03125 0.421875,0 0.890625,0.015625 1.296875,0.03125 l 0,-0.3125 -0.171875,0 C 6.375,-0.3125 6.234375,-0.375 6.125,-0.703125 z m -0.53125,1.109375 1.125,3.25 -2.234375,0 z"
               id="path11537"
               inkscape:connector-curvature="0" />
          </symbol>
        </g>
      </defs>
      <g
         id="textext-66788d6b-2"
         style="fill:#000000;stroke:#000080;stroke-width:1">
        <g
           style="fill:#000000;fill-opacity:1;stroke:#000080;stroke-width:1"
           id="g11540">
          <use
             xlink:href="#textext-66788d6b-1"
             x="223.43201"
             y="134.765"
             id="use11542"
             width="744.09448"
             height="1052.3622"
             style="fill:#000000;stroke:#000080;stroke-width:1" />
        </g>
      </g>
    </g>
    <path
       inkscape:export-ydpi="150"
       inkscape:export-xdpi="150"
       inkscape:export-filename="/home/waldgeist/data/pics/Homepage/mathematik/geometrie/grundkonstruktion-senkrechte-zu-strecke-durch-punkt-auf-der-strecke.png"
       inkscape:connector-curvature="0"
       id="path11625"
       d="m 511.97736,514.71518 0,22.98584"
       style="fill:#808080;fill-opacity:1;stroke:#000000;stroke-width:3;stroke-linecap:round;stroke-linejoin:miter;stroke-opacity:1" />
    <g
       id="g11691"
       style="fill:#000000;fill-opacity:1;stroke:#000080;stroke-width:1"
       transform="matrix(3.3737494,0,0,3.3737494,-253.37079,113.22898)"
       ns0:preamble="/home/waldgeist/data/sphinx/inkscape-preamble.tex"
       ns0:text="$\\rm{B}$"
       inkscape:export-filename="/home/waldgeist/data/pics/Homepage/mathematik/geometrie/grundkonstruktion-senkrechte-zu-strecke-durch-punkt-auf-der-strecke.png"
       inkscape:export-xdpi="150"
       inkscape:export-ydpi="150">
      <defs
         id="defs11693">
        <g
           id="g11695">
          <symbol
             id="textext-29579761-0"
             overflow="visible"
             style="overflow:visible">
            <path
               id="path11698"
               d=""
               style="stroke:none"
               inkscape:connector-curvature="0" />
          </symbol>
          <symbol
             id="textext-29579761-1"
             overflow="visible"
             style="overflow:visible">
            <path
               id="path11701"
               d="m 2.21875,-3.65625 0,-2.4375 C 2.21875,-6.4375 2.234375,-6.5 2.703125,-6.5 l 1.234375,0 c 0.96875,0 1.3125,0.84375 1.3125,1.375 0,0.640625 -0.484375,1.46875 -1.59375,1.46875 z M 4.5625,-3.5625 C 5.53125,-3.75 6.21875,-4.390625 6.21875,-5.125 6.21875,-5.984375 5.296875,-6.8125 4,-6.8125 l -3.640625,0 0,0.3125 0.234375,0 c 0.765625,0 0.796875,0.109375 0.796875,0.46875 l 0,5.25 c 0,0.359375 -0.03125,0.46875 -0.796875,0.46875 l -0.234375,0 0,0.3125 3.90625,0 c 1.328125,0 2.21875,-0.890625 2.21875,-1.828125 0,-0.859375 -0.8125,-1.609375 -1.921875,-1.734375 z m -0.609375,3.25 -1.25,0 c -0.46875,0 -0.484375,-0.0625 -0.484375,-0.390625 l 0,-2.71875 1.875,0 C 5.078125,-3.421875 5.5,-2.5 5.5,-1.828125 5.5,-1.125 4.96875,-0.3125 3.953125,-0.3125 z"
               style="stroke:none"
               inkscape:connector-curvature="0" />
          </symbol>
        </g>
      </defs>
      <g
         id="textext-29579761-2"
         style="fill:#000000;stroke:#000080;stroke-width:1">
        <g
           id="g11704"
           style="fill:#000000;fill-opacity:1;stroke:#000080;stroke-width:1">
          <use
             id="use11706"
             y="134.765"
             x="223.43201"
             xlink:href="#textext-29579761-1"
             width="744.09448"
             height="1052.3622"
             style="fill:#000000;stroke:#000080;stroke-width:1" />
        </g>
      </g>
    </g>
    <path
       style="fill:#808080;fill-opacity:1;stroke:#000000;stroke-width:3;stroke-linecap:round;stroke-linejoin:miter;stroke-opacity:1"
       d="m 418.00395,514.71518 0,22.98584"
       id="path20418-2"
       inkscape:connector-curvature="0"
       inkscape:export-filename="/home/waldgeist/data/pics/Homepage/mathematik/geometrie/grundkonstruktion-senkrechte-zu-strecke-durch-punkt-auf-der-strecke.png"
       inkscape:export-xdpi="150"
       inkscape:export-ydpi="150" />
    <g
       inkscape:export-ydpi="150"
       inkscape:export-xdpi="150"
       inkscape:export-filename="/home/waldgeist/data/pics/Homepage/mathematik/geometrie/grundkonstruktion-senkrechte-zu-strecke-durch-punkt-auf-der-strecke.png"
       ns0:text="$\\rm{P}$"
       ns0:preamble="/home/waldgeist/data/sphinx/inkscape-preamble.tex"
       transform="matrix(3.3737494,0,0,3.3737494,-333.82792,111.22898)"
       style="fill:#000080;fill-opacity:1;stroke:#000000;stroke-width:1"
       id="g15948">
      <defs
         id="defs15950">
        <g
           id="g15952">
          <symbol
             style="overflow:visible"
             overflow="visible"
             id="textext-9247dc32-0">
            <path
               inkscape:connector-curvature="0"
               style="stroke:none"
               d=""
               id="path15955" />
          </symbol>
          <symbol
             style="overflow:visible"
             overflow="visible"
             id="textext-9247dc32-1">
            <path
               inkscape:connector-curvature="0"
               style="stroke:none"
               d="m 2.265625,-3.15625 1.6875,0 c 1.1875,0 2.265625,-0.796875 2.265625,-1.796875 C 6.21875,-5.9375 5.234375,-6.8125 3.875,-6.8125 l -3.53125,0 0,0.3125 0.25,0 c 0.765625,0 0.78125,0.109375 0.78125,0.46875 l 0,5.25 c 0,0.359375 -0.015625,0.46875 -0.78125,0.46875 l -0.25,0 0,0.3125 c 0.359375,-0.03125 1.09375,-0.03125 1.46875,-0.03125 0.375,0 1.125,0 1.484375,0.03125 l 0,-0.3125 -0.25,0 c -0.765625,0 -0.78125,-0.109375 -0.78125,-0.46875 z m -0.03125,-0.25 0,-2.6875 C 2.234375,-6.4375 2.25,-6.5 2.71875,-6.5 l 0.890625,0 c 1.578125,0 1.578125,1.0625 1.578125,1.546875 0,0.46875 0,1.546875 -1.578125,1.546875 z"
               id="path15958" />
          </symbol>
        </g>
      </defs>
      <g
         style="stroke-width:1"
         id="textext-9247dc32-2">
        <g
           style="fill:#000000;fill-opacity:1;stroke-width:1"
           id="g15961">
          <use
             style="stroke-width:1"
             height="1052.3622"
             width="744.09448"
             xlink:href="#textext-9247dc32-1"
             x="223.43201"
             y="134.765"
             id="use15963" />
        </g>
      </g>
    </g>
    <g
       inkscape:export-ydpi="150"
       inkscape:export-xdpi="150"
       inkscape:export-filename="/home/waldgeist/data/pics/Homepage/mathematik/geometrie/grundkonstruktion-senkrechte-zu-strecke-durch-punkt-auf-der-strecke.png"
       transform="matrix(2.2700694,0,0,2.2700694,-28.498384,-140.9481)"
       id="g13295"
       style="stroke:#4d4d4d;stroke-width:1.32154548">
      <path
         inkscape:connector-curvature="0"
         id="path13297"
         d="m 248.02823,289.41659 5.16832,8.95176"
         style="fill:none;stroke:#4d4d4d;stroke-width:1.32154548;stroke-linecap:round;stroke-linejoin:miter;stroke-opacity:1" />
      <path
         style="fill:none;stroke:#4d4d4d;stroke-width:1.32154548;stroke-linecap:round;stroke-linejoin:miter;stroke-opacity:1"
         d="m 253.19655,289.41659 -5.16832,8.95176"
         id="path13299"
         inkscape:connector-curvature="0" />
    </g>
    <g
       style="stroke:#4d4d4d;stroke-width:1.32154548"
       id="g17147"
       transform="matrix(2.2700694,0,0,2.2700694,-273.28121,-140.9481)"
       inkscape:export-filename="/home/waldgeist/data/pics/Homepage/mathematik/geometrie/grundkonstruktion-senkrechte-zu-strecke-durch-punkt-auf-der-strecke.png"
       inkscape:export-xdpi="150"
       inkscape:export-ydpi="150">
      <path
         style="fill:none;stroke:#4d4d4d;stroke-width:1.32154548;stroke-linecap:round;stroke-linejoin:miter;stroke-opacity:1"
         d="m 248.02823,289.41659 5.16832,8.95176"
         id="path17149"
         inkscape:connector-curvature="0" />
      <path
         inkscape:connector-curvature="0"
         id="path17151"
         d="m 253.19655,289.41659 -5.16832,8.95176"
         style="fill:none;stroke:#4d4d4d;stroke-width:1.32154548;stroke-linecap:round;stroke-linejoin:miter;stroke-opacity:1" />
    </g>
    <path
       inkscape:transform-center-y="-65.86608"
       inkscape:transform-center-x="-66.490347"
       sodipodi:end="0.20943951"
       sodipodi:start="0"
       sodipodi:type="arc"
       style="color:#000000;fill:none;stroke:#4d4d4d;stroke-width:0.80088103;stroke-linecap:round;stroke-linejoin:round;stroke-miterlimit:4;stroke-opacity:1;stroke-dasharray:none;stroke-dashoffset:0;marker:none;visibility:visible;display:inline;overflow:visible;enable-background:accumulate"
       id="path17398"
       sodipodi:cx="359.23315"
       sodipodi:cy="379.62747"
       sodipodi:rx="127.11608"
       sodipodi:ry="127.11608"
       d="m 486.34924,379.62747 a 127.11608,127.11608 0 0 1 -2.7778,26.42892"
       transform="matrix(1.0449564,-0.68346863,-0.68346863,-1.0449564,179.12511,1168.2412)"
       inkscape:export-filename="/home/waldgeist/data/pics/Homepage/mathematik/geometrie/grundkonstruktion-senkrechte-zu-strecke-durch-punkt-auf-der-strecke.png"
       inkscape:export-xdpi="150"
       inkscape:export-ydpi="150"
       sodipodi:open="true" />
    <g
       transform="matrix(2.2330223,0,0,2.2330223,-439.55782,-647.83922)"
       id="g18078"
       inkscape:export-filename="/home/waldgeist/data/pics/Homepage/mathematik/geometrie/grundkonstruktion-senkrechte-zu-strecke-durch-punkt-auf-der-strecke.png"
       inkscape:export-xdpi="150"
       inkscape:export-ydpi="150"
       style="stroke:#808080">
      <path
         sodipodi:type="arc"
         style="color:#000000;fill:none;stroke:#808080;stroke-width:0.44782355000000001;stroke-linecap:round;stroke-linejoin:round;stroke-miterlimit:4;stroke-opacity:1;stroke-dasharray:0.44782359999999999, 1.34347083000000000;stroke-dashoffset:0;marker:none;visibility:visible;display:inline;overflow:visible;enable-background:accumulate"
         id="path17121"
         sodipodi:cx="470.89246"
         sodipodi:cy="577.93365"
         sodipodi:rx="54.809757"
         sodipodi:ry="54.809757"
         d="m 525.70221,577.93365 c 0,30.2706 -24.53916,54.80976 -54.80975,54.80976 -30.2706,0 -54.80976,-24.53916 -54.80976,-54.80976 0,-30.27059 24.53916,-54.80975 54.80976,-54.80975 30.27059,0 54.80975,24.53916 54.80975,54.80975 z"
         transform="translate(-86.849923,-52.167555)"
         inkscape:export-filename="/home/waldgeist/data/pics/Homepage/mathematik/geometrie/grundkonstruktion-senkrechte-zu-strecke-durch-punkt-auf-der-strecke.png"
         inkscape:export-xdpi="150"
         inkscape:export-ydpi="150" />
      <path
         transform="translate(-86.849923,-52.167555)"
         d="m 525.29367,571.25403 c 0.54472,4.43643 0.54472,8.92283 0,13.35926"
         sodipodi:ry="54.809757"
         sodipodi:rx="54.809757"
         sodipodi:cy="577.93365"
         sodipodi:cx="470.89246"
         id="path17400"
         style="color:#000000;fill:none;stroke:#808080;stroke-width:0.44782355000000001;stroke-linecap:round;stroke-linejoin:round;stroke-miterlimit:4;stroke-opacity:1;stroke-dasharray:none;stroke-dashoffset:0;marker:none;visibility:visible;display:inline;overflow:visible;enable-background:accumulate"
         sodipodi:type="arc"
         sodipodi:start="6.1610123"
         sodipodi:end="6.4053584"
         sodipodi:open="true"
         inkscape:export-filename="/home/waldgeist/data/pics/Homepage/mathematik/geometrie/grundkonstruktion-senkrechte-zu-strecke-durch-punkt-auf-der-strecke.png"
         inkscape:export-xdpi="150"
         inkscape:export-ydpi="150" />
      <use
         x="0"
         y="0"
         xlink:href="#path17400"
         id="use17402"
         transform="matrix(-1,0,0,1,768.06295,0.07366965)"
         width="744.09448"
         height="1052.3622"
         inkscape:export-filename="/home/waldgeist/data/pics/Homepage/mathematik/geometrie/grundkonstruktion-senkrechte-zu-strecke-durch-punkt-auf-der-strecke.png"
         inkscape:export-xdpi="150"
         inkscape:export-ydpi="150"
         style="stroke:#808080" />
    </g>
    <g
       id="g12400"
       style="fill:#4d4d4d;fill-opacity:1;stroke:#808080;stroke-width:1"
       transform="matrix(3.3737494,0,0,3.3737494,-222.72655,113.96709)"
       ns0:preamble="/home/waldgeist/data/sphinx/inkscape-preamble.tex"
       ns0:text="$\\rm{S}_{\\rm{2}}$"
       inkscape:export-filename="/home/waldgeist/data/pics/Homepage/mathematik/geometrie/grundkonstruktion-senkrechte-zu-strecke-durch-punkt-auf-der-strecke.png"
       inkscape:export-xdpi="150"
       inkscape:export-ydpi="150">
      <defs
         id="defs12402">
        <g
           id="g12404">
          <symbol
             id="textext-56a16339-0"
             overflow="visible"
             style="overflow:visible">
            <path
               id="path12407"
               d=""
               style="stroke:none"
               inkscape:connector-curvature="0" />
          </symbol>
          <symbol
             id="textext-56a16339-1"
             overflow="visible"
             style="overflow:visible">
            <path
               id="path12410"
               d="m 3.484375,-3.875 -1.28125,-0.296875 c -0.625,-0.15625 -1,-0.6875 -1,-1.265625 0,-0.703125 0.53125,-1.3125 1.3125,-1.3125 1.65625,0 1.875,1.640625 1.9375,2.078125 0.015625,0.0625 0.015625,0.125 0.125,0.125 0.125,0 0.125,-0.046875 0.125,-0.234375 l 0,-2 c 0,-0.171875 0,-0.25 -0.109375,-0.25 -0.0625,0 -0.078125,0.015625 -0.140625,0.140625 l -0.359375,0.5625 C 3.796875,-6.625 3.390625,-7.03125 2.5,-7.03125 c -1.109375,0 -1.9375,0.875 -1.9375,1.9375 0,0.828125 0.53125,1.5625 1.296875,1.828125 0.109375,0.03125 0.625,0.15625 1.328125,0.328125 0.265625,0.0625 0.5625,0.140625 0.84375,0.5 0.203125,0.265625 0.3125,0.59375 0.3125,0.921875 0,0.703125 -0.5,1.421875 -1.34375,1.421875 -0.28125,0 -1.046875,-0.046875 -1.578125,-0.53125 C 0.84375,-1.171875 0.8125,-1.796875 0.8125,-2.15625 0.796875,-2.265625 0.71875,-2.265625 0.6875,-2.265625 c -0.125,0 -0.125,0.078125 -0.125,0.25 l 0,2 c 0,0.171875 0,0.234375 0.109375,0.234375 0.0625,0 0.078125,-0.015625 0.140625,-0.125 0,-0.015625 0.03125,-0.046875 0.359375,-0.578125 0.3125,0.34375 0.953125,0.703125 1.84375,0.703125 1.15625,0 1.953125,-0.96875 1.953125,-2.078125 0,-0.984375 -0.65625,-1.8125 -1.484375,-2.015625 z"
               style="stroke:none"
               inkscape:connector-curvature="0" />
          </symbol>
          <symbol
             id="textext-56a16339-2"
             overflow="visible"
             style="overflow:visible">
            <path
               id="path12413"
               d=""
               style="stroke:none"
               inkscape:connector-curvature="0" />
          </symbol>
          <symbol
             id="textext-56a16339-3"
             overflow="visible"
             style="overflow:visible">
            <path
               id="path12416"
               d="m 3.515625,-1.265625 -0.234375,0 c -0.015625,0.15625 -0.09375,0.5625 -0.1875,0.625 -0.046875,0.046875 -0.578125,0.046875 -0.6875,0.046875 l -1.28125,0 c 0.734375,-0.640625 0.984375,-0.84375 1.390625,-1.171875 0.515625,-0.40625 1,-0.84375 1,-1.5 0,-0.84375 -0.734375,-1.359375 -1.625,-1.359375 -0.859375,0 -1.453125,0.609375 -1.453125,1.25 0,0.34375 0.296875,0.390625 0.375,0.390625 0.15625,0 0.359375,-0.125 0.359375,-0.375 0,-0.125 -0.046875,-0.375 -0.40625,-0.375 C 0.984375,-4.21875 1.453125,-4.375 1.78125,-4.375 c 0.703125,0 1.0625,0.546875 1.0625,1.109375 0,0.609375 -0.4375,1.078125 -0.65625,1.328125 L 0.515625,-0.265625 C 0.4375,-0.203125 0.4375,-0.1875 0.4375,0 l 2.875,0 z"
               style="stroke:none"
               inkscape:connector-curvature="0" />
          </symbol>
        </g>
      </defs>
      <g
         id="textext-56a16339-4"
         style="fill:#4d4d4d;stroke-width:1">
        <g
           id="g12419"
           style="fill:#4d4d4d;fill-opacity:1;stroke-width:1">
          <use
             id="use12421"
             y="134.765"
             x="223.43201"
             xlink:href="#textext-56a16339-1"
             style="fill:#4d4d4d;stroke-width:1"
             width="744.09448"
             height="1052.3622" />
        </g>
        <g
           id="g12423"
           style="fill:#4d4d4d;fill-opacity:1;stroke-width:1">
          <use
             id="use12425"
             y="136.259"
             x="228.967"
             xlink:href="#textext-56a16339-3"
             style="fill:#4d4d4d;stroke-width:1"
             width="744.09448"
             height="1052.3622" />
        </g>
      </g>
    </g>
    <g
       ns0:text="$\\rm{S}_{\\rm{1}}$"
       ns0:preamble="/home/waldgeist/data/sphinx/inkscape-preamble.tex"
       transform="matrix(3.3737494,0,0,3.3737494,-468.02441,113.96709)"
       style="fill:#4d4d4d;fill-opacity:1;stroke:#808080;stroke-width:1"
       id="g12171"
       inkscape:export-filename="/home/waldgeist/data/pics/Homepage/mathematik/geometrie/grundkonstruktion-senkrechte-zu-strecke-durch-punkt-auf-der-strecke.png"
       inkscape:export-xdpi="150"
       inkscape:export-ydpi="150">
      <defs
         id="defs12173">
        <g
           id="g12175">
          <symbol
             style="overflow:visible"
             overflow="visible"
             id="textext-a4166d0a-0">
            <path
               inkscape:connector-curvature="0"
               style="stroke:none"
               d=""
               id="path12178" />
          </symbol>
          <symbol
             style="overflow:visible"
             overflow="visible"
             id="textext-a4166d0a-1">
            <path
               inkscape:connector-curvature="0"
               style="stroke:none"
               d="m 3.484375,-3.875 -1.28125,-0.296875 c -0.625,-0.15625 -1,-0.6875 -1,-1.265625 0,-0.703125 0.53125,-1.3125 1.3125,-1.3125 1.65625,0 1.875,1.640625 1.9375,2.078125 0.015625,0.0625 0.015625,0.125 0.125,0.125 0.125,0 0.125,-0.046875 0.125,-0.234375 l 0,-2 c 0,-0.171875 0,-0.25 -0.109375,-0.25 -0.0625,0 -0.078125,0.015625 -0.140625,0.140625 l -0.359375,0.5625 C 3.796875,-6.625 3.390625,-7.03125 2.5,-7.03125 c -1.109375,0 -1.9375,0.875 -1.9375,1.9375 0,0.828125 0.53125,1.5625 1.296875,1.828125 0.109375,0.03125 0.625,0.15625 1.328125,0.328125 0.265625,0.0625 0.5625,0.140625 0.84375,0.5 0.203125,0.265625 0.3125,0.59375 0.3125,0.921875 0,0.703125 -0.5,1.421875 -1.34375,1.421875 -0.28125,0 -1.046875,-0.046875 -1.578125,-0.53125 C 0.84375,-1.171875 0.8125,-1.796875 0.8125,-2.15625 0.796875,-2.265625 0.71875,-2.265625 0.6875,-2.265625 c -0.125,0 -0.125,0.078125 -0.125,0.25 l 0,2 c 0,0.171875 0,0.234375 0.109375,0.234375 0.0625,0 0.078125,-0.015625 0.140625,-0.125 0,-0.015625 0.03125,-0.046875 0.359375,-0.578125 0.3125,0.34375 0.953125,0.703125 1.84375,0.703125 1.15625,0 1.953125,-0.96875 1.953125,-2.078125 0,-0.984375 -0.65625,-1.8125 -1.484375,-2.015625 z"
               id="path12181" />
          </symbol>
          <symbol
             style="overflow:visible"
             overflow="visible"
             id="textext-a4166d0a-2">
            <path
               inkscape:connector-curvature="0"
               style="stroke:none"
               d=""
               id="path12184" />
          </symbol>
          <symbol
             style="overflow:visible"
             overflow="visible"
             id="textext-a4166d0a-3">
            <path
               inkscape:connector-curvature="0"
               style="stroke:none"
               d="m 2.328125,-4.4375 c 0,-0.1875 0,-0.1875 -0.203125,-0.1875 -0.453125,0.4375 -1.078125,0.4375 -1.359375,0.4375 l 0,0.25 c 0.15625,0 0.625,0 1,-0.1875 l 0,3.546875 c 0,0.234375 0,0.328125 -0.6875,0.328125 l -0.265625,0 0,0.25 c 0.125,0 0.984375,-0.03125 1.234375,-0.03125 0.21875,0 1.09375,0.03125 1.25,0.03125 l 0,-0.25 -0.265625,0 c -0.703125,0 -0.703125,-0.09375 -0.703125,-0.328125 z"
               id="path12187" />
          </symbol>
        </g>
      </defs>
      <g
         style="fill:#4d4d4d;stroke:#808080;stroke-width:1"
         id="textext-a4166d0a-4">
        <g
           style="fill:#4d4d4d;fill-opacity:1;stroke:#808080;stroke-width:1"
           id="g12190">
          <use
             style="fill:#4d4d4d;stroke:#808080;stroke-width:1"
             height="1052.3622"
             width="744.09448"
             xlink:href="#textext-a4166d0a-1"
             x="223.43201"
             y="134.765"
             id="use12192" />
        </g>
        <g
           style="fill:#4d4d4d;fill-opacity:1;stroke:#808080;stroke-width:1"
           id="g12194">
          <use
             style="fill:#4d4d4d;stroke:#808080;stroke-width:1"
             height="1052.3622"
             width="744.09448"
             xlink:href="#textext-a4166d0a-3"
             x="228.967"
             y="136.259"
             id="use12196" />
        </g>
      </g>
    </g>
    <use
       inkscape:export-ydpi="150"
       inkscape:export-xdpi="150"
       inkscape:export-filename="/home/waldgeist/data/pics/Homepage/mathematik/geometrie/grundkonstruktion-senkrechte-zu-strecke-durch-punkt-auf-der-strecke.png"
       height="1052.3622"
       width="744.09448"
       transform="matrix(1,0,0,-1,-3.4088651e-7,1052.0133)"
       id="use17404"
       inkscape:transform-center-y="59.032026"
       inkscape:transform-center-x="-36.888811"
       xlink:href="#path17398"
       y="0"
       x="0" />
    <use
       inkscape:export-ydpi="150"
       inkscape:export-xdpi="150"
       inkscape:export-filename="/home/waldgeist/data/pics/Homepage/mathematik/geometrie/grundkonstruktion-senkrechte-zu-strecke-durch-punkt-auf-der-strecke.png"
       height="1052.3622"
       width="744.09448"
       transform="matrix(-1,0,0,1,835.43785,0.20153201)"
       id="use17406"
       inkscape:transform-center-y="-59.032023"
       inkscape:transform-center-x="36.888816"
       xlink:href="#path17398"
       y="0"
       x="0" />
    <use
       inkscape:export-ydpi="150"
       inkscape:export-xdpi="150"
       inkscape:export-filename="/home/waldgeist/data/pics/Homepage/mathematik/geometrie/grundkonstruktion-senkrechte-zu-strecke-durch-punkt-auf-der-strecke.png"
       height="1052.3622"
       width="744.09448"
       transform="matrix(-1,0,0,-1,835.43785,1052.2149)"
       id="use17408"
       inkscape:transform-center-y="59.032026"
       inkscape:transform-center-x="36.888816"
       xlink:href="#path17398"
       y="0"
       x="0" />
    <g
       inkscape:export-ydpi="150"
       inkscape:export-xdpi="150"
       inkscape:export-filename="/home/waldgeist/data/pics/Homepage/mathematik/geometrie/grundkonstruktion-senkrechte-zu-strecke-durch-punkt-auf-der-strecke.png"
       transform="matrix(2.2700694,0,0,2.2700694,-150.90357,-140.9482)"
       id="g18034"
       style="stroke:#000000;stroke-width:1.32154547999999994">
      <path
         inkscape:connector-curvature="0"
         id="path18036"
         d="m 248.02823,289.41659 5.16832,8.95176"
         style="fill:none;stroke:#000000;stroke-width:1.32154547999999994;stroke-linecap:round;stroke-linejoin:miter;stroke-opacity:1" />
      <path
         style="fill:none;stroke:#000000;stroke-width:1.32154547999999994;stroke-linecap:round;stroke-linejoin:miter;stroke-opacity:1"
         d="m 253.19655,289.41659 -5.16832,8.95176"
         id="path18038"
         inkscape:connector-curvature="0" />
    </g>
    <path
       sodipodi:type="arc"
       style="color:#000000;fill:none;stroke:#808080;stroke-width:0.80088102999999999;stroke-linecap:round;stroke-linejoin:round;stroke-miterlimit:4;stroke-opacity:1;stroke-dasharray:0.80088108000000002, 2.40264322999999980;stroke-dashoffset:0;marker:none;visibility:visible;display:inline;overflow:visible;enable-background:accumulate"
       id="path18085"
       sodipodi:cx="359.23315"
       sodipodi:cy="379.62747"
       sodipodi:rx="127.11608"
       sodipodi:ry="127.11608"
       d="m 486.34924,379.62747 a 127.11608,127.11608 0 1 1 -254.23217,0 127.11608,127.11608 0 1 1 254.23217,0 z"
       transform="matrix(1.248625,0,0,1.248625,92.048885,52.258883)"
       inkscape:export-filename="/home/waldgeist/data/pics/Homepage/mathematik/geometrie/grundkonstruktion-senkrechte-zu-strecke-durch-punkt-auf-der-strecke.png"
       inkscape:export-xdpi="150"
       inkscape:export-ydpi="150" />
    <g
       inkscape:export-ydpi="150"
       inkscape:export-xdpi="150"
       inkscape:export-filename="/home/waldgeist/data/pics/Homepage/mathematik/geometrie/grundkonstruktion-senkrechte-zu-strecke-durch-punkt-auf-der-strecke.png"
       id="g17555"
       style="fill:#4d4d4d;fill-opacity:1;stroke:#808080;stroke-width:1"
       transform="matrix(3.3737494,0,0,3.3737494,-345.19813,-46.978007)"
       ns0:preamble="/home/waldgeist/data/sphinx/inkscape-preamble.tex"
       ns0:text="$\\rm{S}_{\\rm{3}}$">
      <defs
         id="defs17557">
        <g
           id="g17559">
          <symbol
             id="textext-8559f164-0"
             overflow="visible"
             style="overflow:visible">
            <path
               id="path17562"
               d=""
               style="stroke:none"
               inkscape:connector-curvature="0" />
          </symbol>
          <symbol
             id="textext-8559f164-1"
             overflow="visible"
             style="overflow:visible">
            <path
               id="path17565"
               d="m 3.484375,-3.875 -1.28125,-0.296875 c -0.625,-0.15625 -1,-0.6875 -1,-1.265625 0,-0.703125 0.53125,-1.3125 1.3125,-1.3125 1.65625,0 1.875,1.640625 1.9375,2.078125 0.015625,0.0625 0.015625,0.125 0.125,0.125 0.125,0 0.125,-0.046875 0.125,-0.234375 l 0,-2 c 0,-0.171875 0,-0.25 -0.109375,-0.25 -0.0625,0 -0.078125,0.015625 -0.140625,0.140625 l -0.359375,0.5625 C 3.796875,-6.625 3.390625,-7.03125 2.5,-7.03125 c -1.109375,0 -1.9375,0.875 -1.9375,1.9375 0,0.828125 0.53125,1.5625 1.296875,1.828125 0.109375,0.03125 0.625,0.15625 1.328125,0.328125 0.265625,0.0625 0.5625,0.140625 0.84375,0.5 0.203125,0.265625 0.3125,0.59375 0.3125,0.921875 0,0.703125 -0.5,1.421875 -1.34375,1.421875 -0.28125,0 -1.046875,-0.046875 -1.578125,-0.53125 C 0.84375,-1.171875 0.8125,-1.796875 0.8125,-2.15625 0.796875,-2.265625 0.71875,-2.265625 0.6875,-2.265625 c -0.125,0 -0.125,0.078125 -0.125,0.25 l 0,2 c 0,0.171875 0,0.234375 0.109375,0.234375 0.0625,0 0.078125,-0.015625 0.140625,-0.125 0,-0.015625 0.03125,-0.046875 0.359375,-0.578125 0.3125,0.34375 0.953125,0.703125 1.84375,0.703125 1.15625,0 1.953125,-0.96875 1.953125,-2.078125 0,-0.984375 -0.65625,-1.8125 -1.484375,-2.015625 z"
               style="stroke:none"
               inkscape:connector-curvature="0" />
          </symbol>
          <symbol
             id="textext-8559f164-2"
             overflow="visible"
             style="overflow:visible">
            <path
               id="path17568"
               d=""
               style="stroke:none"
               inkscape:connector-curvature="0" />
          </symbol>
          <symbol
             id="textext-8559f164-3"
             overflow="visible"
             style="overflow:visible">
            <path
               id="path17571"
               d="m 1.90625,-2.328125 c 0.546875,0 0.9375,0.375 0.9375,1.125 0,0.859375 -0.515625,1.125 -0.90625,1.125 -0.28125,0 -0.90625,-0.078125 -1.1875,-0.5 0.328125,0 0.40625,-0.234375 0.40625,-0.390625 0,-0.21875 -0.171875,-0.375 -0.390625,-0.375 -0.1875,0 -0.390625,0.125 -0.390625,0.40625 0,0.65625 0.71875,1.078125 1.5625,1.078125 0.96875,0 1.640625,-0.65625 1.640625,-1.34375 0,-0.546875 -0.4375,-1.09375 -1.203125,-1.25 0.71875,-0.265625 0.984375,-0.78125 0.984375,-1.21875 0,-0.546875 -0.625,-0.953125 -1.40625,-0.953125 -0.765625,0 -1.359375,0.375 -1.359375,0.9375 0,0.234375 0.15625,0.359375 0.359375,0.359375 0.21875,0 0.359375,-0.15625 0.359375,-0.34375 0,-0.203125 -0.140625,-0.359375 -0.359375,-0.375 0.25,-0.296875 0.71875,-0.375 0.984375,-0.375 0.3125,0 0.75,0.15625 0.75,0.75 0,0.296875 -0.09375,0.625 -0.28125,0.828125 -0.21875,0.265625 -0.421875,0.28125 -0.765625,0.3125 -0.171875,0.015625 -0.1875,0.015625 -0.21875,0.015625 -0.015625,0 -0.078125,0.015625 -0.078125,0.09375 0,0.09375 0.0625,0.09375 0.1875,0.09375 z"
               style="stroke:none"
               inkscape:connector-curvature="0" />
          </symbol>
        </g>
      </defs>
      <g
         id="textext-8559f164-4"
         style="fill:#4d4d4d;stroke-width:1">
        <g
           id="g17574"
           style="fill:#4d4d4d;fill-opacity:1;stroke-width:1">
          <use
             id="use17576"
             y="134.765"
             x="223.43201"
             xlink:href="#textext-8559f164-1"
             style="fill:#4d4d4d;stroke-width:1"
             width="744.09448"
             height="1052.3622" />
        </g>
        <g
           id="g17578"
           style="fill:#4d4d4d;fill-opacity:1;stroke-width:1">
          <use
             id="use17580"
             y="136.259"
             x="228.967"
             xlink:href="#textext-8559f164-3"
             style="fill:#4d4d4d;stroke-width:1"
             width="744.09448"
             height="1052.3622" />
        </g>
      </g>
    </g>
    <g
       inkscape:export-ydpi="150"
       inkscape:export-xdpi="150"
       inkscape:export-filename="/home/waldgeist/data/pics/Homepage/mathematik/geometrie/grundkonstruktion-senkrechte-zu-strecke-durch-punkt-auf-der-strecke.png"
       ns0:text="$\\rm{S}_{\\rm{4}}$"
       ns0:preamble="/home/waldgeist/data/sphinx/inkscape-preamble.tex"
       transform="matrix(3.3737494,0,0,3.3737494,-344.743,212.82902)"
       style="fill:#4d4d4d;fill-opacity:1;stroke:#808080;stroke-width:1"
       id="g17866">
      <defs
         id="defs17868">
        <g
           id="g17870">
          <symbol
             style="overflow:visible"
             overflow="visible"
             id="textext-e5a057d4-0">
            <path
               inkscape:connector-curvature="0"
               style="stroke:none"
               d=""
               id="path17873" />
          </symbol>
          <symbol
             style="overflow:visible"
             overflow="visible"
             id="textext-e5a057d4-1">
            <path
               inkscape:connector-curvature="0"
               style="stroke:none"
               d="m 3.484375,-3.875 -1.28125,-0.296875 c -0.625,-0.15625 -1,-0.6875 -1,-1.265625 0,-0.703125 0.53125,-1.3125 1.3125,-1.3125 1.65625,0 1.875,1.640625 1.9375,2.078125 0.015625,0.0625 0.015625,0.125 0.125,0.125 0.125,0 0.125,-0.046875 0.125,-0.234375 l 0,-2 c 0,-0.171875 0,-0.25 -0.109375,-0.25 -0.0625,0 -0.078125,0.015625 -0.140625,0.140625 l -0.359375,0.5625 C 3.796875,-6.625 3.390625,-7.03125 2.5,-7.03125 c -1.109375,0 -1.9375,0.875 -1.9375,1.9375 0,0.828125 0.53125,1.5625 1.296875,1.828125 0.109375,0.03125 0.625,0.15625 1.328125,0.328125 0.265625,0.0625 0.5625,0.140625 0.84375,0.5 0.203125,0.265625 0.3125,0.59375 0.3125,0.921875 0,0.703125 -0.5,1.421875 -1.34375,1.421875 -0.28125,0 -1.046875,-0.046875 -1.578125,-0.53125 C 0.84375,-1.171875 0.8125,-1.796875 0.8125,-2.15625 0.796875,-2.265625 0.71875,-2.265625 0.6875,-2.265625 c -0.125,0 -0.125,0.078125 -0.125,0.25 l 0,2 c 0,0.171875 0,0.234375 0.109375,0.234375 0.0625,0 0.078125,-0.015625 0.140625,-0.125 0,-0.015625 0.03125,-0.046875 0.359375,-0.578125 0.3125,0.34375 0.953125,0.703125 1.84375,0.703125 1.15625,0 1.953125,-0.96875 1.953125,-2.078125 0,-0.984375 -0.65625,-1.8125 -1.484375,-2.015625 z"
               id="path17876" />
          </symbol>
          <symbol
             style="overflow:visible"
             overflow="visible"
             id="textext-e5a057d4-2">
            <path
               inkscape:connector-curvature="0"
               style="stroke:none"
               d=""
               id="path17879" />
          </symbol>
          <symbol
             style="overflow:visible"
             overflow="visible"
             id="textext-e5a057d4-3">
            <path
               inkscape:connector-curvature="0"
               style="stroke:none"
               d="m 3.6875,-1.140625 0,-0.25 -0.78125,0 0,-3.109375 c 0,-0.140625 0,-0.203125 -0.140625,-0.203125 -0.09375,0 -0.125,0 -0.1875,0.109375 l -2.3125,3.203125 0,0.25 2.0625,0 0,0.5625 c 0,0.25 0,0.328125 -0.578125,0.328125 l -0.1875,0 0,0.25 C 1.921875,-0.015625 2.359375,-0.03125 2.609375,-0.03125 2.875,-0.03125 3.3125,-0.015625 3.671875,0 l 0,-0.25 -0.1875,0 C 2.90625,-0.25 2.90625,-0.328125 2.90625,-0.578125 l 0,-0.5625 z M 2.375,-3.9375 l 0,2.546875 -1.84375,0 z"
               id="path17882" />
          </symbol>
        </g>
      </defs>
      <g
         style="fill:#4d4d4d;stroke-width:1"
         id="textext-e5a057d4-4">
        <g
           style="fill:#4d4d4d;fill-opacity:1;stroke-width:1"
           id="g17885">
          <use
             height="1052.3622"
             width="744.09448"
             style="fill:#4d4d4d;stroke-width:1"
             xlink:href="#textext-e5a057d4-1"
             x="223.43201"
             y="134.765"
             id="use17887" />
        </g>
        <g
           style="fill:#4d4d4d;fill-opacity:1;stroke-width:1"
           id="g17889">
          <use
             height="1052.3622"
             width="744.09448"
             style="fill:#4d4d4d;stroke-width:1"
             xlink:href="#textext-e5a057d4-3"
             x="228.967"
             y="136.259"
             id="use17891" />
        </g>
      </g>
    </g>
    <g
       style="stroke:#4d4d4d;stroke-width:1.32154548"
       id="g18653"
       transform="matrix(2.2700694,0,0,2.2700694,-150.98811,-241.60229)"
       inkscape:export-filename="/home/waldgeist/data/pics/Homepage/mathematik/geometrie/grundkonstruktion-senkrechte-zu-strecke-durch-punkt-auf-der-strecke.png"
       inkscape:export-xdpi="150"
       inkscape:export-ydpi="150">
      <path
         style="fill:none;stroke:#4d4d4d;stroke-width:1.32154548;stroke-linecap:round;stroke-linejoin:miter;stroke-opacity:1"
         d="m 248.02823,289.41659 5.16832,8.95176"
         id="path18655"
         inkscape:connector-curvature="0" />
      <path
         inkscape:connector-curvature="0"
         id="path18657"
         d="m 253.19655,289.41659 -5.16832,8.95176"
         style="fill:none;stroke:#4d4d4d;stroke-width:1.32154548;stroke-linecap:round;stroke-linejoin:miter;stroke-opacity:1" />
    </g>
    <g
       style="stroke:#4d4d4d;stroke-width:1.32154548"
       id="g18659"
       transform="matrix(2.2700694,0,0,2.2700694,-150.90357,-39.904536)"
       inkscape:export-filename="/home/waldgeist/data/pics/Homepage/mathematik/geometrie/grundkonstruktion-senkrechte-zu-strecke-durch-punkt-auf-der-strecke.png"
       inkscape:export-xdpi="150"
       inkscape:export-ydpi="150">
      <path
         style="fill:none;stroke:#4d4d4d;stroke-width:1.32154548;stroke-linecap:round;stroke-linejoin:miter;stroke-opacity:1"
         d="m 248.02823,289.41659 5.16832,8.95176"
         id="path18661"
         inkscape:connector-curvature="0" />
      <path
         inkscape:connector-curvature="0"
         id="path18663"
         d="m 253.19655,289.41659 -5.16832,8.95176"
         style="fill:none;stroke:#4d4d4d;stroke-width:1.32154548;stroke-linecap:round;stroke-linejoin:miter;stroke-opacity:1" />
    </g>
  </g>
</svg>
