<svg xmlns:ns0="http://www.iki.fi/pav/software/textext/" xmlns="http://www.w3.org/2000/svg" xmlns:xlink="http://www.w3.org/1999/xlink" width="210mm" height="297mm" viewBox="0 0 744.09449 1052.3622"><title>Halbierung eines Winkels</title><rect style="marker:none" width="657.851" height="417.987" x="43.719" y="317.188" ry="4.555" color="#000" overflow="visible" fill="#fff" stroke="#fff" stroke-width="2.396" stroke-linecap="round" stroke-linejoin="bevel"/><path d="M486.406 468.89a123.937 123.937 0 0 1-55.56-32.077" style="marker:none" color="#000" overflow="visible" fill="none" stroke="gray" stroke-width="1.406" stroke-linecap="round" stroke-linejoin="round" stroke-dasharray="1.00000013,3.00000022"/><circle r="123.937" cy="556.526" cx="274.833" style="marker:none" color="#000" overflow="visible" fill="none" stroke="gray" stroke-width="1.406" stroke-linecap="round" stroke-linejoin="round" stroke-dasharray="1.00000013,3.00000022"/><path d="M554.693 556.527h-279.86" fill="none" stroke="#000" stroke-width="3" stroke-linecap="round"/><path d="M592.383 372.714l-317.55 183.813" fill="none" stroke="#000" stroke-width="3" stroke-linecap="round" stroke-dasharray="3.00000003,6.00000005"/><g transform="matrix(3.37375 0 0 3.37375 -500.604 131.902)" ns0:preamble="/home/waldgeist/data/sphinx/inkscape-preamble.tex" ns0:text="$\\rm{A}$" stroke="navy"><defs><symbol id="a" overflow="visible"><path d="M3.969-6.938c-.047-.125-.078-.203-.235-.203-.156 0-.187.063-.234.204L1.437-.984C1.25-.47.86-.313.313-.313V0c.235-.016.672-.031 1.016-.031.313 0 .828.015 1.156.031v-.313c-.5 0-.75-.25-.75-.5 0-.03.016-.14.016-.156l.469-1.297h2.453L5.203-.75a.58.58 0 0 1 .031.14c0 .297-.562.297-.828.297V0c.36-.031 1.063-.031 1.438-.031.422 0 .89.015 1.297.031v-.313h-.172c-.594 0-.735-.062-.844-.39zm-.531 1.11l1.124 3.25H2.329z" stroke="none"/></symbol></defs><use height="1052.362" width="744.094" y="134.765" x="223.432" xlink:href="#a"/></g><g transform="matrix(3.37375 0 0 3.37375 -447.247 -28.579)" ns0:preamble="/home/waldgeist/data/sphinx/inkscape-preamble.tex" ns0:text="$\\rm{S}_{\\rm{1}}$" fill="#4d4d4d" stroke="gray"><defs><symbol id="b" overflow="visible"><path d="M3.484-3.875l-1.28-.297c-.626-.156-1-.687-1-1.266 0-.703.53-1.312 1.312-1.312 1.656 0 1.875 1.64 1.937 2.078.016.063.016.125.125.125.125 0 .125-.047.125-.234v-2c0-.172 0-.25-.11-.25-.062 0-.077.015-.14.14l-.36.563c-.296-.297-.702-.703-1.593-.703-1.11 0-1.938.875-1.938 1.937 0 .828.532 1.563 1.297 1.828.11.032.625.157 1.329.329.265.062.562.14.843.5.203.265.313.593.313.921 0 .704-.5 1.422-1.344 1.422-.281 0-1.047-.047-1.578-.531-.578-.547-.61-1.172-.61-1.531-.015-.11-.093-.11-.125-.11-.125 0-.125.079-.125.25v2c0 .172 0 .235.11.235.062 0 .078-.016.14-.125 0-.016.032-.047.36-.578.312.343.953.703 1.844.703 1.156 0 1.953-.969 1.953-2.078 0-.985-.657-1.813-1.485-2.016z" stroke="none"/></symbol><symbol id="c" overflow="visible"><path d="M2.328-4.438c0-.187 0-.187-.203-.187-.453.438-1.078.438-1.36.438v.25c.157 0 .626 0 1-.188v3.547c0 .234 0 .328-.687.328H.812V0c.125 0 .985-.031 1.235-.031.219 0 1.094.031 1.25.031v-.25H3.03c-.703 0-.703-.094-.703-.328z" stroke="none"/></symbol></defs><use y="134.765" x="223.432" xlink:href="#b" width="744.094" height="1052.362"/><use y="136.259" x="228.967" xlink:href="#c" width="744.094" height="1052.362"/></g><g ns0:text="$\\rm{S}_{\\rm{2}}$" ns0:preamble="/home/waldgeist/data/sphinx/inkscape-preamble.tex" transform="matrix(3.37375 0 0 3.37375 -348.14 138.8)" fill="#4d4d4d" stroke="gray"><defs><symbol overflow="visible" id="d"><path d="M3.484-3.875l-1.28-.297c-.626-.156-1-.687-1-1.266 0-.703.53-1.312 1.312-1.312 1.656 0 1.875 1.64 1.937 2.078.016.063.016.125.125.125.125 0 .125-.047.125-.234v-2c0-.172 0-.25-.11-.25-.062 0-.077.015-.14.14l-.36.563c-.296-.297-.702-.703-1.593-.703-1.11 0-1.938.875-1.938 1.937 0 .828.532 1.563 1.297 1.828.11.032.625.157 1.329.329.265.062.562.14.843.5.203.265.313.593.313.921 0 .704-.5 1.422-1.344 1.422-.281 0-1.047-.047-1.578-.531-.578-.547-.61-1.172-.61-1.531-.015-.11-.093-.11-.125-.11-.125 0-.125.079-.125.25v2c0 .172 0 .235.11.235.062 0 .078-.016.14-.125 0-.016.032-.047.36-.578.312.343.953.703 1.844.703 1.156 0 1.953-.969 1.953-2.078 0-.985-.657-1.813-1.485-2.016z" stroke="none"/></symbol><symbol overflow="visible" id="e"><path d="M3.516-1.266H3.28c-.015.157-.094.563-.187.625-.047.047-.578.047-.688.047H1.125c.734-.64.984-.844 1.39-1.172.516-.406 1-.843 1-1.5 0-.843-.734-1.359-1.624-1.359-.86 0-1.454.61-1.454 1.25 0 .344.297.39.376.39.156 0 .359-.124.359-.374 0-.125-.047-.375-.406-.375.218-.485.687-.641 1.015-.641.703 0 1.063.547 1.063 1.11 0 .609-.438 1.078-.656 1.328L.516-.266C.437-.203.437-.187.437 0h2.876z" stroke="none"/></symbol></defs><use height="1052.362" width="744.094" xlink:href="#d" x="223.432" y="134.765"/><use height="1052.362" width="744.094" xlink:href="#e" x="228.967" y="136.259"/></g><g stroke="#4d4d4d" stroke-width="1.322" fill="none" stroke-linecap="round"><path d="M336.801 437.462v23.464M346.962 443.328L326.64 455.06" stroke-width="3.00103254"/></g><g stroke="#4d4d4d" stroke-width="1.322" fill="none" stroke-linecap="round"><path d="M408.93 550.66l-20.32 11.733M408.93 562.393l-20.32-11.733" stroke-width="3.00103254"/></g><path d="M380.653 372.714l-105.82 183.813" fill="none" stroke="#000" stroke-width="3" stroke-linecap="round"/><path d="M457.004 479.35a123.937 123.937 0 0 1-1.032-64.145" style="marker:none" color="#000" overflow="visible" fill="none" stroke="gray" stroke-width="1.406" stroke-linecap="round" stroke-linejoin="round" stroke-dasharray="1.00000013,3.00000022"/><g transform="matrix(3.37375 0 0 3.37375 -292.95 31.088)" ns0:text="$\\rm{S}_3$" fill="navy" stroke="#000"><defs><symbol id="f" overflow="visible"><path d="M3.484-3.875l-1.28-.297c-.626-.156-1-.687-1-1.266 0-.703.53-1.312 1.312-1.312 1.656 0 1.875 1.64 1.937 2.078.016.063.016.125.125.125.125 0 .125-.047.125-.234v-2c0-.172 0-.25-.11-.25-.062 0-.077.015-.14.14l-.36.563c-.296-.297-.702-.703-1.593-.703-1.11 0-1.938.875-1.938 1.937 0 .828.532 1.563 1.297 1.828.11.032.625.157 1.329.329.265.062.562.14.843.5.203.265.313.593.313.921 0 .704-.5 1.422-1.344 1.422-.281 0-1.047-.047-1.578-.531-.578-.547-.61-1.172-.61-1.531-.015-.11-.093-.11-.125-.11-.125 0-.125.079-.125.25v2c0 .172 0 .235.11.235.062 0 .078-.016.14-.125 0-.016.032-.047.36-.578.312.343.953.703 1.844.703 1.156 0 1.953-.969 1.953-2.078 0-.985-.657-1.813-1.485-2.016zm0 0" stroke="none"/></symbol><symbol id="g" overflow="visible"><path d="M1.906-2.328c.547 0 .938.375.938 1.125 0 .86-.516 1.125-.906 1.125-.282 0-.907-.078-1.188-.5.328 0 .406-.235.406-.39 0-.22-.172-.376-.39-.376a.38.38 0 0 0-.391.407C.375-.281 1.094.14 1.938.14c.968 0 1.64-.657 1.64-1.344 0-.547-.437-1.094-1.203-1.25.719-.266.984-.781.984-1.219 0-.547-.625-.953-1.406-.953-.766 0-1.36.375-1.36.938 0 .234.157.359.36.359.219 0 .36-.156.36-.344 0-.203-.141-.36-.36-.375.25-.297.719-.375.985-.375.312 0 .75.156.75.75 0 .297-.094.625-.282.828-.219.266-.422.281-.765.313-.172.015-.188.015-.22.015-.015 0-.077.016-.077.094 0 .094.062.094.187.094zm0 0" stroke="none"/></symbol></defs><g fill="#000"><use y="134.765" x="223.432" xlink:href="#f" width="100%" height="100%"/><use y="136.259" x="228.967" xlink:href="#g" width="100%" height="100%"/></g></g><g stroke="#4d4d4d" stroke-width="1.322" fill="none" stroke-linecap="round"><path d="M466.592 438.763l-11.732 20.32M472.459 448.923h-23.465" stroke-width="3.00103254"/></g></svg>