<svg xmlns:ns0="http://www.iki.fi/pav/software/textext/" xmlns="http://www.w3.org/2000/svg" xmlns:xlink="http://www.w3.org/1999/xlink" width="1052.362" height="744.094"><title>Halbgerade und Strahl</title><defs><marker orient="auto" id="h" overflow="visible"><path d="M8.719 4.034L-2.207.016 8.719-4.002c-1.746 2.372-1.736 5.618 0 8.036z" transform="scale(-.6)" fill-rule="evenodd" stroke-width=".625" stroke-linejoin="round"/></marker><symbol overflow="visible" id="g"><path d="M2.219-3.656v-2.438c0-.343.015-.406.484-.406h1.235c.968 0 1.312.844 1.312 1.375 0 .64-.484 1.469-1.594 1.469zm2.344.094c.968-.188 1.656-.829 1.656-1.563 0-.86-.922-1.688-2.219-1.688H.36v.313h.234c.765 0 .797.11.797.469v5.25c0 .36-.032.469-.797.469H.359V0h3.907c1.328 0 2.218-.89 2.218-1.828 0-.86-.812-1.61-1.921-1.734zm-.61 3.25h-1.25c-.469 0-.484-.063-.484-.391v-2.719h1.875c.984 0 1.406.922 1.406 1.594 0 .703-.531 1.516-1.547 1.516z"/></symbol></defs><g transform="translate(0 -308.268)"><rect ry="2.218" y="578.53" x="23.829" height="203.569" width="1004.705" style="marker:none" color="#000" fill="#fff" stroke="#fff" stroke-width="2.396" stroke-linecap="round" stroke-linejoin="bevel" overflow="visible"/><path d="M63.957 747.009L559.49 609.108" fill="none" stroke="gray" stroke-width="3" stroke-linecap="round" stroke-dasharray="3,9"/><path d="M99.223 736.942l417.89-115.99" fill="none" stroke="#000" stroke-width="3" stroke-linecap="round"/><g transform="matrix(3.37375 0 0 3.37375 -650.904 304.006)" ns0:preamble="/home/waldgeist/data/sphinx/inkscape-preamble.tex" ns0:text="$g _{\\rm{1}}$" stroke="#000"><defs><symbol id="a" overflow="visible"><path d="M4.688-3.766a.562.562 0 0 0 .03-.171c0-.172-.109-.266-.28-.266-.094 0-.375.062-.407.422-.187-.36-.531-.625-.937-.625-1.125 0-2.36 1.39-2.36 2.828C.734-.594 1.328 0 2.047 0c.594 0 1.062-.469 1.156-.578l.016.015C3.016.313 2.89.734 2.89.75c-.047.094-.375 1.078-1.438 1.078a2.68 2.68 0 0 1-.797-.11.542.542 0 0 0 .406-.515C1.063 1.047.954.86.688.86a.546.546 0 0 0-.53.579c0 .406.359.609 1.312.609 1.25 0 1.968-.781 2.125-1.375zM3.405-1.28c-.062.265-.297.515-.515.703-.204.172-.516.36-.813.36-.5 0-.64-.516-.64-.923 0-.468.28-1.656.562-2.156.266-.484.688-.89 1.11-.89.656 0 .796.812.796.859 0 .047-.015.11-.031.14z" stroke="none"/></symbol><symbol id="b" overflow="visible"><path d="M2.328-4.438c0-.187 0-.187-.203-.187-.453.438-1.078.438-1.36.438v.25c.157 0 .626 0 1-.188v3.547c0 .234 0 .328-.687.328H.812V0c.125 0 .985-.031 1.235-.031.219 0 1.094.031 1.25.031v-.25H3.03c-.703 0-.703-.094-.703-.328z" stroke="none"/></symbol></defs><use y="134.765" x="223.432" xlink:href="#a" width="744.094" height="1052.362"/><use y="136.259" x="228.184" xlink:href="#b" width="744.094" height="1052.362"/></g><g ns0:text="$g _{\\rm{2}}$" ns0:preamble="/home/waldgeist/data/sphinx/inkscape-preamble.tex" transform="matrix(3.37375 0 0 3.37375 -252.128 192.939)" stroke="#000"><defs><symbol overflow="visible" id="c"><path d="M4.688-3.766a.562.562 0 0 0 .03-.171c0-.172-.109-.266-.28-.266-.094 0-.375.062-.407.422-.187-.36-.531-.625-.937-.625-1.125 0-2.36 1.39-2.36 2.828C.734-.594 1.328 0 2.047 0c.594 0 1.062-.469 1.156-.578l.016.015C3.016.313 2.89.734 2.89.75c-.047.094-.375 1.078-1.438 1.078a2.68 2.68 0 0 1-.797-.11.542.542 0 0 0 .406-.515C1.063 1.047.954.86.688.86a.546.546 0 0 0-.53.579c0 .406.359.609 1.312.609 1.25 0 1.968-.781 2.125-1.375zM3.405-1.28c-.062.265-.297.515-.515.703-.204.172-.516.36-.813.36-.5 0-.64-.516-.64-.923 0-.468.28-1.656.562-2.156.266-.484.688-.89 1.11-.89.656 0 .796.812.796.859 0 .047-.015.11-.031.14z" stroke="none"/></symbol><symbol overflow="visible" id="d"><path d="M3.516-1.266H3.28c-.015.157-.094.563-.187.625-.047.047-.578.047-.688.047H1.125c.734-.64.984-.844 1.39-1.172.516-.406 1-.843 1-1.5 0-.843-.734-1.359-1.624-1.359-.86 0-1.454.61-1.454 1.25 0 .344.297.39.376.39.156 0 .359-.124.359-.374 0-.125-.047-.375-.406-.375.218-.485.687-.641 1.015-.641.703 0 1.063.547 1.063 1.11 0 .609-.438 1.078-.656 1.328L.516-.266C.437-.203.437-.187.437 0h2.876z" stroke="none"/></symbol></defs><use height="1052.362" width="744.094" xlink:href="#c" x="223.432" y="134.765"/><use height="1052.362" width="744.094" xlink:href="#d" x="228.184" y="136.259"/></g><g transform="matrix(3.37375 0 0 3.37375 -457.606 266.86)" ns0:preamble="/home/waldgeist/data/sphinx/inkscape-preamble.tex" ns0:text="$\\rm{P}$" stroke="#000"><defs><symbol id="e" overflow="visible"><path d="M2.266-3.156h1.687c1.188 0 2.266-.797 2.266-1.797 0-.984-.985-1.86-2.344-1.86H.344v.313h.25c.765 0 .781.11.781.469v5.25c0 .36-.016.469-.781.469h-.25V0c.36-.031 1.094-.031 1.469-.031s1.125 0 1.484.031v-.313h-.25c-.766 0-.781-.109-.781-.468zm-.032-.25v-2.688c0-.343.016-.406.485-.406h.89c1.579 0 1.579 1.063 1.579 1.547 0 .469 0 1.547-1.579 1.547z" stroke="none"/></symbol></defs><use y="134.765" x="223.432" xlink:href="#e" width="744.094" height="1052.362"/></g><path d="M300.278 669.214l5.95 22.202" fill="gray" stroke="#000" stroke-width="3" stroke-linecap="round"/><g ns0:text="$\\rm{A}$" ns0:preamble="/home/waldgeist/data/sphinx/inkscape-preamble.tex" transform="matrix(3.37375 0 0 3.37375 -553.832 232.014)" fill="gray" stroke="#000"><defs><symbol overflow="visible" id="f"><path d="M3.969-6.938c-.047-.125-.078-.203-.235-.203-.156 0-.187.063-.234.204L1.437-.984C1.25-.47.86-.313.313-.313V0c.235-.016.672-.031 1.016-.031.313 0 .828.015 1.156.031v-.313c-.5 0-.75-.25-.75-.5 0-.03.016-.14.016-.156l.469-1.297h2.453L5.203-.75a.58.58 0 0 1 .031.14c0 .297-.562.297-.828.297V0c.36-.031 1.063-.031 1.438-.031.422 0 .89.015 1.297.031v-.313h-.172c-.594 0-.735-.062-.844-.39zm-.531 1.11l1.124 3.25H2.329z" stroke="none"/></symbol></defs><use xlink:href="#f" x="223.432" y="134.765" width="744.094" height="1052.362"/></g><use height="1052.362" width="744.094" xlink:href="#g" x="223.432" y="134.765" transform="matrix(3.37375 0 0 3.37375 -371.386 182.063)" fill="gray" stroke="#000"/><g fill="gray" stroke="gray" stroke-width="1.322" stroke-linecap="round"><path d="M388.096 645.014l11.732 20.32M399.828 645.014l-11.732 20.32" stroke-width="3.00103254"/></g><g stroke="gray" stroke-width="1.322" fill="none" stroke-linecap="round"><path d="M206.678 695.295l11.732 20.321M218.41 695.295l-11.732 20.321" stroke-width="3.00103254"/></g><path d="M741.636 681.32l246.77-69.956" fill="none" stroke="gray" stroke-width="3" stroke-linecap="round" stroke-dasharray="3.00000007,9.00000022"/><path d="M587.051 725.036l361.525-102.24" fill="none" stroke="#000" stroke-width="3" marker-end="url(#h)"/><use height="1052.362" width="744.094" xlink:href="#e" x="223.432" y="134.765" transform="matrix(3.37375 0 0 3.37375 -172.293 311.4)" ns0:text="$\\rm{P}$" ns0:preamble="/home/waldgeist/data/sphinx/inkscape-preamble.tex" stroke="#000"/><path d="M584.077 713.935l5.949 22.202" fill="gray" stroke="#000" stroke-width="3" stroke-linecap="round"/><use height="1052.362" width="744.094" xlink:href="#g" x="223.432" y="134.765" transform="matrix(3.37375 0 0 3.37375 39.863 189.655)" fill="gray" stroke="#000"/><g fill="gray" stroke="gray" stroke-width="1.322" stroke-linecap="round"><path d="M799.345 653.18l11.733 20.32M811.078 653.18l-11.733 20.32" stroke-width="3.00103254"/></g><g ns0:text="$\\rm{[PB}$" ns0:preamble="/home/waldgeist/data/sphinx/inkscape-preamble.tex" transform="matrix(3.37375 0 0 3.37375 168.05 212.574)" stroke="#000"><defs><symbol overflow="visible" id="i"><path d="M2.547 2.5v-.406h-.969v-9.172h.969v-.406H1.172V2.5z" stroke="none"/></symbol><symbol overflow="visible" id="j"><path d="M2.266-3.156h1.687c1.188 0 2.266-.797 2.266-1.797 0-.984-.985-1.86-2.344-1.86H.344v.313h.25c.765 0 .781.11.781.469v5.25c0 .36-.016.469-.781.469h-.25V0c.36-.031 1.094-.031 1.469-.031s1.125 0 1.484.031v-.313h-.25c-.766 0-.781-.109-.781-.468zm-.032-.25v-2.688c0-.343.016-.406.485-.406h.89c1.579 0 1.579 1.063 1.579 1.547 0 .469 0 1.547-1.579 1.547z" stroke="none"/></symbol><symbol overflow="visible" id="k"><path d="M2.219-3.656v-2.438c0-.343.015-.406.484-.406h1.235c.968 0 1.312.844 1.312 1.375 0 .64-.484 1.469-1.594 1.469zm2.344.094c.968-.188 1.656-.829 1.656-1.563 0-.86-.922-1.688-2.219-1.688H.36v.313h.234c.765 0 .797.11.797.469v5.25c0 .36-.032.469-.797.469H.359V0h3.907c1.328 0 2.218-.89 2.218-1.828 0-.86-.812-1.61-1.921-1.734zm-.61 3.25h-1.25c-.469 0-.484-.063-.484-.391v-2.719h1.875c.984 0 1.406.922 1.406 1.594 0 .703-.531 1.516-1.547 1.516z" stroke="none"/></symbol></defs><use height="744.094" width="1052.362" xlink:href="#i" x="223.432" y="134.765"/><use height="744.094" width="1052.362" xlink:href="#j" x="226.2" y="134.765"/><use height="744.094" width="1052.362" xlink:href="#k" x="232.98" y="134.765"/></g></g></svg>