<svg xmlns:ns0="http://www.iki.fi/pav/software/textext/" xmlns="http://www.w3.org/2000/svg" xmlns:xlink="http://www.w3.org/1999/xlink" width="744.094" height="1052.362"><title>Polarkoordinatensystem</title><defs><marker id="j" orient="auto" overflow="visible"><path transform="scale(.6)" d="M8.719 4.034L-2.207.016 8.719-4.002c-1.746 2.372-1.736 5.618 0 8.036z" fill-rule="evenodd" stroke-width=".625" stroke-linejoin="round"/></marker><marker id="b" orient="auto" overflow="visible"><path transform="scale(-.6)" d="M8.719 4.034L-2.207.016 8.719-4.002c-1.746 2.372-1.736 5.618 0 8.036z" fill-rule="evenodd" stroke-width=".625" stroke-linejoin="round"/></marker></defs><path style="marker:none" color="#000" fill="#fff" stroke="#fff" stroke-width="3" stroke-linecap="round" stroke-linejoin="round" overflow="visible" d="M9.301 174.749h725.492v702.864H9.301z"/><path style="marker:none" color="#000" fill="#fff" stroke="#fff" stroke-width="2" stroke-linecap="round" stroke-linejoin="round" overflow="visible" d="M55.876 210.01h632.342v632.342H55.876z"/><use y="134.765" x="223.432" xlink:href="#textext-28c1ecfe-0" width="744.094" height="1052.362" transform="translate(-690.002 115.427) scale(3.49978)"/><use y="134.765" x="223.432" xlink:href="#textext-28c1ecfe-0" width="744.094" height="1052.362" transform="translate(-200.574 -112.91) scale(3.49978)"/><use y="134.765" x="223.432" xlink:href="#textext-28c1ecfe-0" width="744.094" height="1052.362" transform="translate(-200.574 -112.91) scale(3.49978)"/><path style="marker:none" d="M424.001 526.181a51.954 51.954 0 1 1-103.908 0 51.954 51.954 0 1 1 103.908 0z" color="#000" fill="none" stroke="#666" stroke-width="2" stroke-linecap="round" stroke-linejoin="round" overflow="visible"/><path d="M475.955 526.181a103.908 103.908 0 1 1-207.816 0 103.908 103.908 0 1 1 207.816 0z" style="marker:none" color="#000" fill="none" stroke="gray" stroke-linecap="round" stroke-linejoin="round" overflow="visible" stroke-width="2"/><path d="M527.91 526.181a155.862 155.862 0 1 1-311.725 0 155.862 155.862 0 1 1 311.724 0z" style="marker:none" color="#000" fill="none" stroke="#666" stroke-width="2.0010000000000003" stroke-linecap="round" stroke-linejoin="round" overflow="visible"/><path d="M579.863 526.181a207.816 207.816 0 1 1-415.632 0 207.816 207.816 0 1 1 415.632 0z" style="marker:none" color="#000" fill="none" stroke="gray" stroke-width="2" stroke-linecap="round" stroke-linejoin="round" overflow="visible"/><path d="M631.817 526.181a259.77 259.77 0 1 1-519.54 0 259.77 259.77 0 1 1 519.54 0z" style="marker:none" color="#000" fill="none" stroke="gray" stroke-width="2" stroke-linecap="round" stroke-linejoin="round" overflow="visible"/><path d="M372.05 526.18l316.168-55.748M372.054 526.18l316.164-115.074M372.057 526.179l316.161-182.536M372.06 526.177l316.158-265.289M372.062 526.174L637.355 210.01M371.968 526.12l182.506-316.11M371.866 526.082L486.907 210.01M371.76 526.063l55.728-316.053M371.651 526.063V210.01M371.544 526.081l-55.731-316.07M371.442 526.118L256.39 210.01M371.348 526.172L188.812 210.01M371.265 526.241l-265.35-316.23M371.195 526.324L55.876 261.74M371.14 526.418L55.876 344.4M371.103 526.52L55.876 411.785M371.084 526.626l-315.208-55.58" fill="none" stroke="gray" stroke-width="2" stroke-linecap="round"/><path d="M371.083 526.735H55.876" fill="none" stroke="#666" stroke-width="2" stroke-linecap="round"/><path d="M371.102 526.841L55.876 582.424M371.139 526.943L55.876 641.69M371.192 527.038L55.876 709.085M371.262 527.12L55.876 791.76M371.345 527.19L106.893 842.353M371.438 527.245L189.512 842.352M371.54 527.283L256.864 842.352M371.647 527.302l-55.552 315.05M371.755 527.303v315.049M371.862 527.284l55.555 315.068M371.964 527.247l114.689 315.105M372.058 527.193l181.957 315.159M372.142 527.124l264.507 315.228M372.212 527.041l316.006 265.161M372.266 526.948l315.952 182.414M372.304 526.846l315.914 114.983M372.323 526.739l315.895 55.7" fill="none" stroke="gray" stroke-width="2" stroke-linecap="round"/><g ns0:text="$r _{\\rm{}}$" ns0:preamble="/home/waldgeist/data/sphinx/inkscape-preamble.tex" transform="translate(-62.537 111.712) scale(3.26815)"><defs><symbol overflow="visible" id="a"><path d="M.875-.594c-.031.156-.094.39-.094.438 0 .172.14.265.297.265a.414.414 0 0 0 .375-.28c.016-.032.344-1.391.39-1.579.079-.328.266-1.016.313-1.297.047-.125.328-.594.563-.812.078-.063.375-.329.797-.329.265 0 .406.125.421.125-.296.047-.515.282-.515.547 0 .157.11.344.375.344s.547-.234.547-.594c0-.343-.313-.64-.828-.64-.641 0-1.079.484-1.266.765-.094-.453-.453-.765-.922-.765-.453 0-.64.39-.734.562-.172.344-.297.938-.297.969 0 .11.094.11.11.11.109 0 .109-.016.171-.235.172-.703.375-1.188.735-1.188.156 0 .296.079.296.454 0 .218-.03.328-.156.843z"/></symbol></defs><use height="1052.362" width="744.094" xlink:href="#a" x="223.432" y="134.765"/></g><path d="M372.047 526.181h312.725" fill="none" stroke="#000" stroke-width="3" stroke-linecap="round" marker-end="url(#b)"/><g transform="translate(-316.479 112.419) scale(3.26815)" ns0:preamble="/home/waldgeist/data/sphinx/inkscape-preamble.tex" ns0:text="1"><defs><symbol id="c" overflow="visible"><path d="M2.938-6.375c0-.25 0-.266-.235-.266C2.078-6 1.203-6 .891-6v.313c.203 0 .78 0 1.296-.266v5.172c0 .36-.03.469-.921.469H.953V0c.344-.031 1.203-.031 1.61-.031.39 0 1.265 0 1.609.031v-.313h-.313c-.906 0-.921-.109-.921-.468z"/></symbol></defs><use y="134.765" x="223.432" xlink:href="#c" width="744.094" height="1052.362"/></g><g ns0:text="2" ns0:preamble="/home/waldgeist/data/sphinx/inkscape-preamble.tex" transform="translate(-263.324 112.419) scale(3.26815)"><defs><symbol overflow="visible" id="d"><path d="M1.266-.766l1.062-1.03c1.547-1.376 2.14-1.907 2.14-2.907 0-1.14-.89-1.938-2.109-1.938C1.234-6.64.5-5.719.5-4.828c0 .547.5.547.531.547.172 0 .516-.11.516-.532a.513.513 0 0 0-.531-.515c-.079 0-.094 0-.125.016.218-.657.765-1.016 1.343-1.016.907 0 1.329.812 1.329 1.625 0 .797-.485 1.578-1.047 2.203L.609-.375C.5-.265.5-.235.5 0h3.703l.266-1.734h-.235C4.172-1.438 4.11-1 4-.844c-.063.078-.719.078-.938.078z"/></symbol></defs><use height="1052.362" width="744.094" xlink:href="#d" x="223.432" y="134.765"/></g><g ns0:text="0" ns0:preamble="/home/waldgeist/data/sphinx/inkscape-preamble.tex" transform="translate(-366.678 111.919) scale(3.26815)"><defs><symbol overflow="visible" id="e"><path d="M4.578-3.188c0-.796-.047-1.593-.39-2.328C3.733-6.484 2.905-6.64 2.5-6.64c-.61 0-1.328.266-1.75 1.188-.313.687-.36 1.469-.36 2.266 0 .75.032 1.64.454 2.406a1.83 1.83 0 0 0 1.64 1c.532 0 1.297-.203 1.735-1.157.312-.687.36-1.468.36-2.25zM2.484 0c-.39 0-.984-.25-1.156-1.203-.11-.594-.11-1.516-.11-2.11 0-.64 0-1.296.079-1.828.187-1.187.937-1.28 1.187-1.28.329 0 .985.187 1.172 1.171.11.563.11 1.313.11 1.938 0 .75 0 1.421-.11 2.062C3.5-.297 2.937 0 2.484 0z"/></symbol></defs><use height="1052.362" width="744.094" xlink:href="#e" x="223.432" y="134.765"/></g><g transform="translate(-161.413 112.419) scale(3.26815)" ns0:preamble="/home/waldgeist/data/sphinx/inkscape-preamble.tex" ns0:text="4"><defs><symbol id="f" overflow="visible"><path d="M2.938-1.64v.859c0 .36-.032.469-.766.469h-.203V0c.406-.031.922-.031 1.343-.031.422 0 .938 0 1.36.031v-.313h-.219c-.734 0-.75-.109-.75-.468v-.86h.985v-.312h-.985v-4.531c0-.204 0-.266-.172-.266-.078 0-.11 0-.187.125L.28-1.953v.312zm.046-.313H.563l2.421-3.719z"/></symbol></defs><use height="1052.362" width="744.094" y="134.765" x="223.432" xlink:href="#f"/></g><g ns0:text="5" ns0:preamble="/home/waldgeist/data/sphinx/inkscape-preamble.tex" transform="translate(-105.913 112.419) scale(3.26815)"><defs><symbol overflow="visible" id="g"><path d="M4.469-2c0-1.188-.813-2.188-1.89-2.188-.47 0-.907.157-1.267.516v-1.953c.204.063.532.125.844.125 1.235 0 1.938-.906 1.938-1.031 0-.063-.032-.11-.11-.11 0 0-.03 0-.078.032a3.22 3.22 0 0 1-1.36.296c-.39 0-.858-.078-1.327-.28-.078-.032-.094-.032-.11-.032C1-6.625 1-6.547 1-6.391v2.954c0 .171 0 .25.14.25.079 0 .094-.016.141-.079.11-.156.469-.703 1.282-.703.515 0 .765.453.843.64.156.376.188.75.188 1.25 0 .36 0 .954-.25 1.376-.235.39-.61.64-1.063.64-.719 0-1.297-.53-1.469-1.109.032 0 .063.016.172.016.329 0 .5-.25.5-.485 0-.25-.171-.5-.5-.5-.14 0-.484.079-.484.532C.5-.75 1.188.219 2.297.219 3.453.219 4.469-.734 4.469-2z"/></symbol></defs><use height="1052.362" width="744.094" xlink:href="#g" x="223.432" y="134.765"/></g><path style="marker:none" d="M527.91 526.181a155.862 155.862 0 1 1-311.725 0 155.862 155.862 0 1 1 311.724 0z" color="#000" fill="none" stroke="gray" stroke-width="2.0010000000000003" stroke-linecap="round" stroke-linejoin="round" overflow="visible"/><path d="M371.837 525.537L319.4 382.514" fill="#00f" stroke="#00f" stroke-width="4" stroke-linecap="round" marker-end="url(#b)"/><path d="M317.38 404.863l.57-25.998 17.657 20.05c-9.212-2.702-13.967 1.253-18.228 5.948z" fill="#00f" stroke="#00f"/><g transform="translate(-210.913 112.419) scale(3.26815)" ns0:preamble="/home/waldgeist/data/sphinx/inkscape-preamble.tex" ns0:text="3"><defs><symbol id="h" overflow="visible"><path d="M2.89-3.516c.813-.265 1.391-.953 1.391-1.75 0-.812-.875-1.375-1.828-1.375-1 0-1.765.594-1.765 1.36 0 .328.218.515.515.515.297 0 .5-.218.5-.515 0-.485-.469-.485-.61-.485.298-.5.954-.625 1.313-.625.422 0 .969.22.969 1.11 0 .125-.031.703-.281 1.14-.297.485-.64.516-.89.516a3.29 3.29 0 0 1-.392.031c-.078.016-.14.031-.14.125 0 .11.062.11.234.11h.438c.812 0 1.187.671 1.187 1.656 0 1.36-.687 1.64-1.125 1.64-.437 0-1.187-.171-1.531-.75.344.047.656-.171.656-.546a.537.537 0 0 0-.547-.563c-.25 0-.562.14-.562.578C.422-.437 1.344.22 2.437.22c1.22 0 2.126-.906 2.126-1.922 0-.813-.641-1.594-1.672-1.813z"/></symbol></defs><use height="1052.362" width="744.094" y="134.765" x="223.432" xlink:href="#h"/></g><g ns0:text="$\\varphi$" ns0:preamble="/home/waldgeist/data/sphinx/inkscape-preamble.tex" transform="translate(-268.48 -55.231) scale(3.26815)"><defs><symbol overflow="visible" id="i"><path d="M1.688 1.688c-.032.14-.047.156-.047.203 0 .218.187.28.296.28a.413.413 0 0 0 .36-.265c.031-.078.078-.406.36-1.812.077 0 .155.015.327.015 1.657 0 3.188-1.562 3.188-3.14 0-.781-.39-1.375-1.14-1.375-1.438 0-2.048 1.937-2.641 3.875C1.312-.734.75-1.281.75-2c0-.281.234-1.375.828-2.063.094-.093.094-.109.094-.14 0-.031-.031-.094-.125-.094C1.266-4.297.5-2.844.5-1.89c0 .938.656 1.657 1.719 1.907zM3.077-.47c-.094 0-.11 0-.187-.015-.125 0-.125 0-.125-.032 0-.015.171-.937.187-1.078.313-1.281 1.094-2.234 1.985-2.234.687 0 .953.531.953 1.015 0 1.126-1.282 2.344-2.813 2.344z"/></symbol></defs><use height="1052.362" width="744.094" xlink:href="#i" x="223.432" y="134.765"/></g><path transform="matrix(3 0 0 3 -716.24 -1142.14)" d="M346.708 506.696a51.954 51.954 0 0 1 68.008 49.411" style="marker:none" color="#000" fill="none" stroke="#000" stroke-linecap="round" stroke-linejoin="round" marker-start="url(#j)" overflow="visible"/><g transform="translate(-441.987 -78.788) scale(3.26815)" ns0:preamble="/home/waldgeist/data/sphinx/inkscape-preamble.tex" ns0:text="$\\mathrm{P} (3, 110^{\\circ})$" fill="#00f" stroke="#00f"><defs><symbol id="k" overflow="visible"><path d="M2.266-3.156h1.687c1.188 0 2.266-.797 2.266-1.797 0-.984-.985-1.86-2.344-1.86H.344v.313h.25c.765 0 .781.11.781.469v5.25c0 .36-.016.469-.781.469h-.25V0c.36-.031 1.094-.031 1.469-.031s1.125 0 1.484.031v-.313h-.25c-.766 0-.781-.109-.781-.468zm-.032-.25v-2.688c0-.343.016-.406.485-.406h.89c1.579 0 1.579 1.063 1.579 1.547 0 .469 0 1.547-1.579 1.547z" stroke="none"/></symbol><symbol id="l" overflow="visible"><path d="M3.297 2.39c0-.03 0-.046-.172-.218C1.891.922 1.562-.968 1.562-2.5c0-1.734.375-3.469 1.61-4.703.125-.125.125-.14.125-.172 0-.078-.031-.11-.094-.11-.11 0-1 .688-1.594 1.954C1.11-4.438.984-3.328.984-2.5c0 .781.11 1.984.657 3.125C2.25 1.844 3.094 2.5 3.203 2.5c.063 0 .094-.031.094-.11z" stroke="none"/></symbol><symbol id="m" overflow="visible"><path d="M2.89-3.516c.813-.265 1.391-.953 1.391-1.75 0-.812-.875-1.375-1.828-1.375-1 0-1.765.594-1.765 1.36 0 .328.218.515.515.515.297 0 .5-.218.5-.515 0-.485-.469-.485-.61-.485.298-.5.954-.625 1.313-.625.422 0 .969.22.969 1.11 0 .125-.031.703-.281 1.14-.297.485-.64.516-.89.516a3.29 3.29 0 0 1-.392.031c-.078.016-.14.031-.14.125 0 .11.062.11.234.11h.438c.812 0 1.187.671 1.187 1.656 0 1.36-.687 1.64-1.125 1.64-.437 0-1.187-.171-1.531-.75.344.047.656-.171.656-.546a.537.537 0 0 0-.547-.563c-.25 0-.562.14-.562.578C.422-.437 1.344.22 2.437.22c1.22 0 2.126-.906 2.126-1.922 0-.813-.641-1.594-1.672-1.813z" stroke="none"/></symbol><symbol id="o" overflow="visible"><path d="M2.938-6.375c0-.25 0-.266-.235-.266C2.078-6 1.203-6 .891-6v.313c.203 0 .78 0 1.296-.266v5.172c0 .36-.03.469-.921.469H.953V0c.344-.031 1.203-.031 1.61-.031.39 0 1.265 0 1.609.031v-.313h-.313c-.906 0-.921-.109-.921-.468z" stroke="none"/></symbol><symbol id="p" overflow="visible"><path d="M4.578-3.188c0-.796-.047-1.593-.39-2.328C3.733-6.484 2.905-6.64 2.5-6.64c-.61 0-1.328.266-1.75 1.188-.313.687-.36 1.469-.36 2.266 0 .75.032 1.64.454 2.406a1.83 1.83 0 0 0 1.64 1c.532 0 1.297-.203 1.735-1.157.312-.687.36-1.468.36-2.25zM2.484 0c-.39 0-.984-.25-1.156-1.203-.11-.594-.11-1.516-.11-2.11 0-.64 0-1.296.079-1.828.187-1.187.937-1.28 1.187-1.28.329 0 .985.187 1.172 1.171.11.563.11 1.313.11 1.938 0 .75 0 1.421-.11 2.062C3.5-.297 2.937 0 2.484 0z" stroke="none"/></symbol><symbol id="r" overflow="visible"><path d="M2.875-2.5c0-.766-.11-1.969-.656-3.11C1.625-6.827.766-7.483.672-7.483a.107.107 0 0 0-.11.109c0 .031 0 .047.188.234.984.985 1.547 2.563 1.547 4.641 0 1.719-.36 3.469-1.594 4.719-.14.125-.14.14-.14.172 0 .062.046.109.109.109.094 0 1-.688 1.578-1.953.516-1.094.625-2.203.625-3.047z" stroke="none"/></symbol><symbol id="n" overflow="visible"><path d="M2.031-.016c0-.656-.25-1.046-.64-1.046a.517.517 0 0 0-.532.53c0 .266.204.532.532.532a.58.58 0 0 0 .343-.125c.032-.031.047-.031.047-.031.016 0 .016 0 .016.14 0 .75-.344 1.344-.672 1.672-.11.11-.11.125-.11.157 0 .078.048.109.094.109.11 0 .922-.766.922-1.938z" stroke="none"/></symbol><symbol id="q" overflow="visible"><path d="M3.531-1.734c0-.844-.672-1.5-1.5-1.5s-1.5.671-1.5 1.484a1.5 1.5 0 0 0 1.5 1.5c.844 0 1.5-.672 1.5-1.484zm-1.5 1.14A1.157 1.157 0 1 1 3.187-1.75c0 .656-.515 1.156-1.156 1.156z" stroke="none"/></symbol></defs><use y="134.765" x="223.432" xlink:href="#k" width="744.094" height="1052.362"/><use y="134.765" x="230.213" xlink:href="#l" width="744.094" height="1052.362"/><use y="134.765" x="234.087" xlink:href="#m" width="744.094" height="1052.362"/><use y="134.765" x="239.068" xlink:href="#n" width="744.094" height="1052.362"/><use y="134.765" x="243.496" xlink:href="#o" width="744.094" height="1052.362"/><use y="134.765" x="248.477" xlink:href="#o" width="744.094" height="1052.362"/><use y="134.765" x="253.459" xlink:href="#p" width="744.094" height="1052.362"/><g><use y="131.149" x="258.44" xlink:href="#q" width="744.094" height="1052.362"/></g><g><use y="134.765" x="263.02" xlink:href="#r" width="744.094" height="1052.362"/></g></g></svg>