<svg xmlns:ns0="http://www.iki.fi/pav/software/textext/" xmlns="http://www.w3.org/2000/svg" xmlns:xlink="http://www.w3.org/1999/xlink" width="744.094" height="1052.362"><title>Kartesisches Koordinatensystem</title><defs><marker orient="auto" id="a" overflow="visible"><path d="M8.719 4.034L-2.207.016 8.719-4.002c-1.746 2.372-1.736 5.618 0 8.036z" transform="scale(-.6)" fill-rule="evenodd" stroke-width=".625" stroke-linejoin="round"/></marker></defs><path fill="#fff" stroke="#fff" stroke-miterlimit="3.9" d="M17.484 162.526h709.127v727.31H17.484z"/><g stroke="#e6e6e6" fill="none"><g stroke-width="2.509"><path d="M132.92 227.272V825.09M192.702 227.272V825.09M252.484 227.272V825.09M312.266 227.272V825.09M372.047 227.272V825.09M431.829 227.272V825.09M491.61 227.272V825.09M551.392 227.272V825.09M611.174 227.272V825.09" stroke-width="1.49993038"/></g><g stroke-width="2.509"><path d="M73.139 287.054h597.817M73.139 346.836h597.817M73.139 406.618h597.817M73.139 466.4h597.817M73.139 526.181h597.817M73.139 585.963h597.817M73.139 645.745h597.817M73.139 705.526h597.817M73.139 765.308h597.817" stroke-width="1.49993038"/></g><g stroke-width=".836"><path d="M79.117 227.272V825.09M85.095 227.272V825.09M91.073 227.272V825.09M97.051 227.272V825.09M103.03 227.272V825.09M109.008 227.272V825.09M114.986 227.272V825.09M120.964 227.272V825.09M126.942 227.272V825.09M138.899 227.272V825.09M144.877 227.272V825.09M150.855 227.272V825.09M156.833 227.272V825.09M162.811 227.272V825.09M168.79 227.272V825.09M174.768 227.272V825.09M180.746 227.272V825.09M186.724 227.272V825.09M198.68 227.272V825.09M204.658 227.272V825.09M210.637 227.272V825.09M216.615 227.272V825.09M222.593 227.272V825.09M228.571 227.272V825.09M234.55 227.272V825.09M240.527 227.272V825.09M246.506 227.272V825.09M258.462 227.272V825.09M264.44 227.272V825.09M270.418 227.272V825.09M276.396 227.272V825.09M282.375 227.272V825.09M288.353 227.272V825.09M294.331 227.272V825.09M300.31 227.272V825.09M306.287 227.272V825.09M318.244 227.272V825.09M324.222 227.272V825.09M330.2 227.272V825.09M336.178 227.272V825.09M342.156 227.272V825.09M348.135 227.272V825.09M354.113 227.272V825.09M360.09 227.272V825.09M366.07 227.272V825.09M378.025 227.272V825.09M384.004 227.272V825.09M389.982 227.272V825.09M395.96 227.272V825.09M401.938 227.272V825.09M407.916 227.272V825.09M413.894 227.272V825.09M419.873 227.272V825.09M425.85 227.272V825.09M437.807 227.272V825.09M443.785 227.272V825.09M449.763 227.272V825.09M455.742 227.272V825.09M461.72 227.272V825.09M467.698 227.272V825.09M473.676 227.272V825.09M479.654 227.272V825.09M485.633 227.272V825.09M497.589 227.272V825.09M503.567 227.272V825.09M509.545 227.272V825.09M515.523 227.272V825.09M521.502 227.272V825.09M527.48 227.272V825.09M533.458 227.272V825.09M539.436 227.272V825.09M545.414 227.272V825.09M557.37 227.272V825.09M563.349 227.272V825.09M569.327 227.272V825.09M575.305 227.272V825.09M581.283 227.272V825.09M587.261 227.272V825.09M593.24 227.272V825.09M599.218 227.272V825.09M605.196 227.272V825.09M617.152 227.272V825.09M623.13 227.272V825.09M629.109 227.272V825.09M635.087 227.272V825.09M641.065 227.272V825.09M647.043 227.272V825.09M653.021 227.272V825.09M659 227.272V825.09M664.978 227.272V825.09" stroke-width=".49977752"/></g><g stroke-width=".836"><path d="M73.139 233.25h597.817M73.139 239.229h597.817M73.139 245.207h597.817M73.139 251.185h597.817M73.139 257.163h597.817M73.139 263.141h597.817M73.139 269.12h597.817M73.139 275.098h597.817M73.139 281.076h597.817M73.139 293.032h597.817M73.139 299.01h597.817M73.139 304.989h597.817M73.139 310.967h597.817M73.139 316.945h597.817M73.139 322.923h597.817M73.139 328.901h597.817M73.139 334.88h597.817M73.139 340.858h597.817M73.139 352.814h597.817M73.139 358.792h597.817M73.139 364.77h597.817M73.139 370.749h597.817M73.139 376.727h597.817M73.139 382.705h597.817M73.139 388.683h597.817M73.139 394.661h597.817M73.139 400.64h597.817M73.139 412.596h597.817M73.139 418.574h597.817M73.139 424.552h597.817M73.139 430.53h597.817M73.139 436.509h597.817M73.139 442.487h597.817M73.139 448.465h597.817M73.139 454.443h597.817M73.139 460.421h597.817M73.139 472.378h597.817M73.139 478.356h597.817M73.139 484.334h597.817M73.139 490.312h597.817M73.139 496.29h597.817M73.139 502.268h597.817M73.139 508.247h597.817M73.139 514.225h597.817M73.139 520.203h597.817M73.139 532.16h597.817M73.139 538.137h597.817M73.139 544.116h597.817M73.139 550.094h597.817M73.139 556.072h597.817M73.139 562.05h597.817M73.139 568.028h597.817M73.139 574.006h597.817M73.139 579.985h597.817M73.139 591.941h597.817M73.139 597.92h597.817M73.139 603.897h597.817M73.139 609.876h597.817M73.139 615.854h597.817M73.139 621.832h597.817M73.139 627.81h597.817M73.139 633.788h597.817M73.139 639.766h597.817M73.139 651.723h597.817M73.139 657.7h597.817M73.139 663.68h597.817M73.139 669.657h597.817M73.139 675.635h597.817M73.139 681.614h597.817M73.139 687.592h597.817M73.139 693.57h597.817M73.139 699.548h597.817M73.139 711.504h597.817M73.139 717.483h597.817M73.139 723.46h597.817M73.139 729.439h597.817M73.139 735.417h597.817M73.139 741.395h597.817M73.139 747.373h597.817M73.139 753.352h597.817M73.139 759.33h597.817M73.139 771.286h597.817M73.139 777.264h597.817M73.139 783.243h597.817M73.139 789.22h597.817M73.139 795.199h597.817M73.139 801.177h597.817M73.139 807.155h597.817M73.139 813.133h597.817M73.139 819.112h597.817" stroke-width=".49977752"/></g><path stroke-width="1.5" d="M73.138 227.272h597.817V825.09H73.138z"/></g><path d="M371.91 526.286h339.535" fill="none" stroke="#000" stroke-width="3" stroke-linecap="round" marker-end="url(#a)"/><g ns0:text="1" ns0:preamble="/home/waldgeist/data/sphinx/inkscape-preamble.tex" transform="translate(-306.479 125.134) scale(3.26815)"><defs><symbol overflow="visible" id="b"><path d="M2.938-6.375c0-.25 0-.266-.235-.266C2.078-6 1.203-6 .891-6v.313c.203 0 .78 0 1.296-.266v5.172c0 .36-.03.469-.921.469H.953V0c.344-.031 1.203-.031 1.61-.031.39 0 1.265 0 1.609.031v-.313h-.313c-.906 0-.921-.109-.921-.468z"/></symbol></defs><use height="1052.362" width="744.094" xlink:href="#b" x="223.432" y="134.765"/></g><g transform="translate(-247.324 125.134) scale(3.26815)" ns0:preamble="/home/waldgeist/data/sphinx/inkscape-preamble.tex" ns0:text="2"><defs><symbol id="c" overflow="visible"><path d="M1.266-.766l1.062-1.03c1.547-1.376 2.14-1.907 2.14-2.907 0-1.14-.89-1.938-2.109-1.938C1.234-6.64.5-5.719.5-4.828c0 .547.5.547.531.547.172 0 .516-.11.516-.532a.513.513 0 0 0-.531-.515c-.079 0-.094 0-.125.016.218-.657.765-1.016 1.343-1.016.907 0 1.329.812 1.329 1.625 0 .797-.485 1.578-1.047 2.203L.609-.375C.5-.265.5-.235.5 0h3.703l.266-1.734h-.235C4.172-1.438 4.11-1 4-.844c-.063.078-.719.078-.938.078z"/></symbol></defs><use y="134.765" x="223.432" xlink:href="#c" width="744.094" height="1052.362"/></g><g transform="translate(-366.678 124.419) scale(3.26815)" ns0:preamble="/home/waldgeist/data/sphinx/inkscape-preamble.tex" ns0:text="0"><defs><symbol id="d" overflow="visible"><path d="M4.578-3.188c0-.796-.047-1.593-.39-2.328C3.733-6.484 2.905-6.64 2.5-6.64c-.61 0-1.328.266-1.75 1.188-.313.687-.36 1.469-.36 2.266 0 .75.032 1.64.454 2.406a1.83 1.83 0 0 0 1.64 1c.532 0 1.297-.203 1.735-1.157.312-.687.36-1.468.36-2.25zM2.484 0c-.39 0-.984-.25-1.156-1.203-.11-.594-.11-1.516-.11-2.11 0-.64 0-1.296.079-1.828.187-1.187.937-1.28 1.187-1.28.329 0 .985.187 1.172 1.171.11.563.11 1.313.11 1.938 0 .75 0 1.421-.11 2.062C3.5-.297 2.937 0 2.484 0z"/></symbol></defs><use y="134.765" x="223.432" xlink:href="#d" width="744.094" height="1052.362"/></g><g ns0:text="4" ns0:preamble="/home/waldgeist/data/sphinx/inkscape-preamble.tex" transform="translate(-127.413 125.134) scale(3.26815)"><defs><symbol overflow="visible" id="e"><path d="M2.938-1.64v.859c0 .36-.032.469-.766.469h-.203V0c.406-.031.922-.031 1.343-.031.422 0 .938 0 1.36.031v-.313h-.219c-.734 0-.75-.109-.75-.468v-.86h.985v-.312h-.985v-4.531c0-.204 0-.266-.172-.266-.078 0-.11 0-.187.125L.28-1.953v.312zm.046-.313H.563l2.421-3.719z"/></symbol></defs><use xlink:href="#e" x="223.432" y="134.765" width="744.094" height="1052.362"/></g><g transform="translate(-65.913 124.419) scale(3.26815)" ns0:preamble="/home/waldgeist/data/sphinx/inkscape-preamble.tex" ns0:text="5"><defs><symbol id="f" overflow="visible"><path d="M4.469-2c0-1.188-.813-2.188-1.89-2.188-.47 0-.907.157-1.267.516v-1.953c.204.063.532.125.844.125 1.235 0 1.938-.906 1.938-1.031 0-.063-.032-.11-.11-.11 0 0-.03 0-.078.032a3.22 3.22 0 0 1-1.36.296c-.39 0-.858-.078-1.327-.28-.078-.032-.094-.032-.11-.032C1-6.625 1-6.547 1-6.391v2.954c0 .171 0 .25.14.25.079 0 .094-.016.141-.079.11-.156.469-.703 1.282-.703.515 0 .765.453.843.64.156.376.188.75.188 1.25 0 .36 0 .954-.25 1.376-.235.39-.61.64-1.063.64-.719 0-1.297-.53-1.469-1.109.032 0 .063.016.172.016.329 0 .5-.25.5-.485 0-.25-.171-.5-.5-.5-.14 0-.484.079-.484.532C.5-.75 1.188.219 2.297.219 3.453.219 4.469-.734 4.469-2z"/></symbol></defs><use y="134.765" x="223.432" xlink:href="#f" width="744.094" height="1052.362"/></g><g ns0:text="3" ns0:preamble="/home/waldgeist/data/sphinx/inkscape-preamble.tex" transform="translate(-186.913 124.419) scale(3.26815)"><defs><symbol overflow="visible" id="g"><path d="M2.89-3.516c.813-.265 1.391-.953 1.391-1.75 0-.812-.875-1.375-1.828-1.375-1 0-1.765.594-1.765 1.36 0 .328.218.515.515.515.297 0 .5-.218.5-.515 0-.485-.469-.485-.61-.485.298-.5.954-.625 1.313-.625.422 0 .969.22.969 1.11 0 .125-.031.703-.281 1.14-.297.485-.64.516-.89.516a3.29 3.29 0 0 1-.392.031c-.078.016-.14.031-.14.125 0 .11.062.11.234.11h.438c.812 0 1.187.671 1.187 1.656 0 1.36-.687 1.64-1.125 1.64-.437 0-1.187-.171-1.531-.75.344.047.656-.171.656-.546a.537.537 0 0 0-.547-.563c-.25 0-.562.14-.562.578C.422-.437 1.344.22 2.437.22c1.22 0 2.126-.906 2.126-1.922 0-.813-.641-1.594-1.672-1.813z"/></symbol></defs><use xlink:href="#g" x="223.432" y="134.765" width="744.094" height="1052.362"/></g><path d="M372.389 526.286H32.854" fill="none" stroke="#000" stroke-width="3" stroke-linecap="round"/><path d="M372.389 526.702V187.167" fill="none" stroke="#000" stroke-width="3" stroke-linecap="round" marker-end="url(#a)"/><path d="M372.047 526.286V865.82" fill="none" stroke="#000" stroke-width="3" stroke-linecap="round"/><g transform="translate(-34.537 111.712) scale(3.26815)" ns0:preamble="/home/waldgeist/data/sphinx/inkscape-preamble.tex" ns0:text="$x _{\\rm{}}$"><defs><symbol id="h" overflow="visible"><path d="M3.328-3.016c.063-.25.297-1.171.985-1.171.046 0 .296 0 .5.125a.578.578 0 0 0-.47.546c0 .157.11.344.376.344a.546.546 0 0 0 .531-.578c0-.516-.578-.656-.922-.656-.578 0-.922.531-1.047.75-.25-.656-.781-.75-1.078-.75-1.031 0-1.61 1.281-1.61 1.531 0 .11.11.11.126.11.078 0 .11-.032.125-.11.344-1.063 1-1.313 1.344-1.313.187 0 .53.094.53.672 0 .313-.171.97-.53 2.375-.157.61-.516 1.032-.954 1.032-.062 0-.28 0-.5-.125.25-.063.47-.266.47-.547 0-.266-.22-.344-.36-.344-.313 0-.547.25-.547.578 0 .453.484.656.922.656.672 0 1.031-.703 1.047-.75.125.36.484.75 1.078.75 1.031 0 1.594-1.28 1.594-1.53 0-.11-.079-.11-.11-.11-.094 0-.11.047-.14.11-.329 1.077-1 1.312-1.313 1.312-.39 0-.547-.313-.547-.657 0-.218.047-.437.156-.875z"/></symbol></defs><use y="134.765" x="223.432" xlink:href="#h"/></g><g ns0:text="$y _{\\rm{}}$" ns0:preamble="/home/waldgeist/data/sphinx/inkscape-preamble.tex" transform="translate(-389.162 -239.256) scale(3.26815)"><defs><symbol overflow="visible" id="i"><path d="M4.844-3.797c.047-.14.047-.156.047-.234 0-.172-.141-.266-.297-.266a.455.455 0 0 0-.344.203c-.016.063-.11.36-.14.547-.079.25-.141.531-.204.797L3.453-.953c-.031.14-.469.844-1.125.844-.5 0-.61-.438-.61-.813 0-.453.173-1.078.5-1.953.157-.406.204-.516.204-.719 0-.437-.313-.812-.813-.812-.953 0-1.312 1.453-1.312 1.531 0 .11.094.11.11.11.109 0 .109-.032.156-.188.28-.938.671-1.235 1.015-1.235.078 0 .25 0 .25.313 0 .25-.11.516-.172.703-.406 1.063-.578 1.625-.578 2.094 0 .89.625 1.187 1.219 1.187.39 0 .719-.171 1-.453-.125.516-.25 1.016-.64 1.547-.266.328-.641.625-1.095.625-.14 0-.593-.031-.765-.422.156 0 .297 0 .422-.125a.493.493 0 0 0 .203-.406c0-.313-.266-.344-.36-.344C.829.531.5.687.5 1.171c0 .5.438.876 1.063.876 1.015 0 2.046-.906 2.328-2.031z"/></symbol></defs><use height="1052.362" width="744.094" xlink:href="#i" x="223.432" y="134.765"/></g><path id="j" d="M670.956 514.022v24.319" fill="navy" stroke="#000" stroke-width="2" stroke-linecap="round" stroke-miterlimit="3.9"/><use height="1052.362" width="744.094" transform="translate(-59.782 .203)" xlink:href="#j"/><use height="1052.362" width="744.094" transform="translate(-119.563 .203)" xlink:href="#j"/><use height="1052.362" width="744.094" transform="translate(-179.345 .203)" xlink:href="#j"/><use height="1052.362" width="744.094" transform="translate(-239.127)" xlink:href="#j"/><use height="1052.362" width="744.094" transform="translate(-358.69 .104)" xlink:href="#j"/><use height="1052.362" width="744.094" transform="translate(-597.817 .104)" xlink:href="#j"/><use height="1052.362" width="744.094" transform="translate(-538.036 .104)" xlink:href="#j"/><use height="1052.362" width="744.094" transform="translate(-478.254)" xlink:href="#j"/><use height="1052.362" width="744.094" transform="translate(-418.472 .104)" xlink:href="#j"/><path d="M360.23 227.272h24.318" id="k" fill="navy" stroke="#000" stroke-width="2" stroke-linecap="round" stroke-miterlimit="3.9"/><use height="1052.362" width="744.094" transform="translate(-.342 59.782)" xlink:href="#k"/><use height="1052.362" width="744.094" transform="translate(-.138 119.563)" xlink:href="#k"/><use height="1052.362" width="744.094" transform="translate(-.138 179.345)" xlink:href="#k"/><g transform="translate(-451.151 125.134) scale(3.26815)" ns0:preamble="/home/waldgeist/data/sphinx/inkscape-preamble.tex" ns0:text="$-1$"><defs><symbol id="l" overflow="visible"><path d="M6.563-2.297c.171 0 .359 0 .359-.203 0-.188-.188-.188-.36-.188h-5.39c-.172 0-.344 0-.344.188 0 .203.172.203.344.203z"/></symbol><symbol id="m" overflow="visible"><path d="M2.938-6.375c0-.25 0-.266-.235-.266C2.078-6 1.203-6 .891-6v.313c.203 0 .78 0 1.296-.266v5.172c0 .36-.03.469-.921.469H.953V0c.344-.031 1.203-.031 1.61-.031.39 0 1.265 0 1.609.031v-.313h-.313c-.906 0-.921-.109-.921-.468z"/></symbol></defs><use y="134.765" x="223.432" xlink:href="#l" width="744.094" height="1052.362"/><use y="134.765" x="231.181" xlink:href="#m" width="744.094" height="1052.362"/></g><use xlink:href="#k" transform="translate(0 239.127)" width="744.094" height="1052.362"/><use xlink:href="#k" transform="translate(-.138 597.817)" width="744.094" height="1052.362"/><use xlink:href="#k" transform="translate(-.138 538.036)" width="744.094" height="1052.362"/><use xlink:href="#k" transform="translate(-.138 358.69)" width="744.094" height="1052.362"/><use xlink:href="#k" transform="translate(-.342 418.472)" width="744.094" height="1052.362"/><use xlink:href="#k" transform="translate(-.342 478.254)" width="744.094" height="1052.362"/><g ns0:text="$-5$" ns0:preamble="/home/waldgeist/data/sphinx/inkscape-preamble.tex" transform="translate(-690.74 125.134) scale(3.26815)"><defs><symbol overflow="visible" id="n"><path d="M6.563-2.297c.171 0 .359 0 .359-.203 0-.188-.188-.188-.36-.188h-5.39c-.172 0-.344 0-.344.188 0 .203.172.203.344.203z"/></symbol><symbol overflow="visible" id="o"><path d="M4.469-2c0-1.188-.813-2.188-1.89-2.188-.47 0-.907.157-1.267.516v-1.953c.204.063.532.125.844.125 1.235 0 1.938-.906 1.938-1.031 0-.063-.032-.11-.11-.11 0 0-.03 0-.078.032a3.22 3.22 0 0 1-1.36.296c-.39 0-.858-.078-1.327-.28-.078-.032-.094-.032-.11-.032C1-6.625 1-6.547 1-6.391v2.954c0 .171 0 .25.14.25.079 0 .094-.016.141-.079.11-.156.469-.703 1.282-.703.515 0 .765.453.843.64.156.376.188.75.188 1.25 0 .36 0 .954-.25 1.376-.235.39-.61.64-1.063.64-.719 0-1.297-.53-1.469-1.109.032 0 .063.016.172.016.329 0 .5-.25.5-.485 0-.25-.171-.5-.5-.5-.14 0-.484.079-.484.532C.5-.75 1.188.219 2.297.219 3.453.219 4.469-.734 4.469-2z"/></symbol></defs><use xlink:href="#n" x="223.432" y="134.765" width="744.094" height="1052.362"/><use xlink:href="#o" x="231.181" y="134.765" width="744.094" height="1052.362"/></g><g transform="translate(-631.342 125.134) scale(3.26815)" ns0:preamble="/home/waldgeist/data/sphinx/inkscape-preamble.tex" ns0:text="$-4$"><defs><symbol id="p" overflow="visible"><path d="M6.563-2.297c.171 0 .359 0 .359-.203 0-.188-.188-.188-.36-.188h-5.39c-.172 0-.344 0-.344.188 0 .203.172.203.344.203z"/></symbol><symbol id="q" overflow="visible"><path d="M2.938-1.64v.859c0 .36-.032.469-.766.469h-.203V0c.406-.031.922-.031 1.343-.031.422 0 .938 0 1.36.031v-.313h-.219c-.734 0-.75-.109-.75-.468v-.86h.985v-.312h-.985v-4.531c0-.204 0-.266-.172-.266-.078 0-.11 0-.187.125L.28-1.953v.312zm.046-.313H.563l2.421-3.719z"/></symbol></defs><use y="134.765" x="223.432" xlink:href="#p" width="744.094" height="1052.362"/><use y="134.765" x="231.181" xlink:href="#q" width="744.094" height="1052.362"/></g><g ns0:text="$-3$" ns0:preamble="/home/waldgeist/data/sphinx/inkscape-preamble.tex" transform="translate(-570.531 125.134) scale(3.26815)"><defs><symbol overflow="visible" id="r"><path d="M6.563-2.297c.171 0 .359 0 .359-.203 0-.188-.188-.188-.36-.188h-5.39c-.172 0-.344 0-.344.188 0 .203.172.203.344.203z"/></symbol><symbol overflow="visible" id="s"><path d="M2.89-3.516c.813-.265 1.391-.953 1.391-1.75 0-.812-.875-1.375-1.828-1.375-1 0-1.765.594-1.765 1.36 0 .328.218.515.515.515.297 0 .5-.218.5-.515 0-.485-.469-.485-.61-.485.298-.5.954-.625 1.313-.625.422 0 .969.22.969 1.11 0 .125-.031.703-.281 1.14-.297.485-.64.516-.89.516a3.29 3.29 0 0 1-.392.031c-.078.016-.14.031-.14.125 0 .11.062.11.234.11h.438c.812 0 1.187.671 1.187 1.656 0 1.36-.687 1.64-1.125 1.64-.437 0-1.187-.171-1.531-.75.344.047.656-.171.656-.546a.537.537 0 0 0-.547-.563c-.25 0-.562.14-.562.578C.422-.437 1.344.22 2.437.22c1.22 0 2.126-.906 2.126-1.922 0-.813-.641-1.594-1.672-1.813z"/></symbol></defs><use xlink:href="#r" x="223.432" y="134.765" width="744.094" height="1052.362"/><use xlink:href="#s" x="231.181" y="134.765" width="744.094" height="1052.362"/></g><g transform="translate(-511.72 125.134) scale(3.26815)" ns0:preamble="/home/waldgeist/data/sphinx/inkscape-preamble.tex" ns0:text="$-2$"><defs><symbol id="t" overflow="visible"><path d="M6.563-2.297c.171 0 .359 0 .359-.203 0-.188-.188-.188-.36-.188h-5.39c-.172 0-.344 0-.344.188 0 .203.172.203.344.203z"/></symbol><symbol id="u" overflow="visible"><path d="M1.266-.766l1.062-1.03c1.547-1.376 2.14-1.907 2.14-2.907 0-1.14-.89-1.938-2.109-1.938C1.234-6.64.5-5.719.5-4.828c0 .547.5.547.531.547.172 0 .516-.11.516-.532a.513.513 0 0 0-.531-.515c-.079 0-.094 0-.125.016.218-.657.765-1.016 1.343-1.016.907 0 1.329.812 1.329 1.625 0 .797-.485 1.578-1.047 2.203L.609-.375C.5-.265.5-.235.5 0h3.703l.266-1.734h-.235C4.172-1.438 4.11-1 4-.844c-.063.078-.719.078-.938.078z"/></symbol></defs><use y="134.765" x="223.432" xlink:href="#t" width="744.094" height="1052.362"/><use y="134.765" x="231.181" xlink:href="#u" width="744.094" height="1052.362"/></g><use y="134.765" x="223.432" xlink:href="#b" width="744.094" height="1052.362" transform="translate(-394.867 36.818) scale(3.26815)" ns0:preamble="/home/waldgeist/data/sphinx/inkscape-preamble.tex" ns0:text="1"/><use height="1052.362" width="744.094" xlink:href="#c" x="223.432" y="134.765" transform="translate(-395.837 -22.964) scale(3.26815)" ns0:text="2" ns0:preamble="/home/waldgeist/data/sphinx/inkscape-preamble.tex"/><use height="1052.362" width="744.094" y="134.765" x="223.432" xlink:href="#g" transform="translate(-396.144 -83.103) scale(3.26815)" ns0:preamble="/home/waldgeist/data/sphinx/inkscape-preamble.tex" ns0:text="3"/><use height="1052.362" width="744.094" y="134.765" x="223.432" xlink:href="#e" transform="translate(-396.552 -142.348) scale(3.26815)" ns0:preamble="/home/waldgeist/data/sphinx/inkscape-preamble.tex" ns0:text="4"/><use height="1052.362" width="744.094" xlink:href="#f" x="223.432" y="134.765" transform="translate(-395.837 -202.666) scale(3.26815)" ns0:text="5" ns0:preamble="/home/waldgeist/data/sphinx/inkscape-preamble.tex"/><g ns0:text="$-1$" ns0:preamble="/home/waldgeist/data/sphinx/inkscape-preamble.tex"><use height="1052.362" width="744.094" xlink:href="#l" x="223.432" y="134.765" transform="translate(-420.192 154.134) scale(3.26815)"/><use height="1052.362" width="744.094" xlink:href="#m" x="231.181" y="134.765" transform="translate(-420.192 154.134) scale(3.26815)"/></g><g ns0:text="$-2$" ns0:preamble="/home/waldgeist/data/sphinx/inkscape-preamble.tex"><use xlink:href="#t" x="223.432" y="134.765" width="744.094" height="1052.362" transform="translate(-421.162 213.134) scale(3.26815)"/><use xlink:href="#u" x="231.181" y="134.765" width="744.094" height="1052.362" transform="translate(-421.162 213.134) scale(3.26815)"/></g><g ns0:preamble="/home/waldgeist/data/sphinx/inkscape-preamble.tex" ns0:text="$-3$"><use y="134.765" x="223.432" xlink:href="#r" width="744.094" height="1052.362" transform="translate(-421.469 273.134) scale(3.26815)"/><use y="134.765" x="231.181" xlink:href="#s" width="744.094" height="1052.362" transform="translate(-421.469 273.134) scale(3.26815)"/></g><g ns0:text="$-4$" ns0:preamble="/home/waldgeist/data/sphinx/inkscape-preamble.tex"><use xlink:href="#p" x="223.432" y="134.765" width="744.094" height="1052.362" transform="translate(-421.877 333.134) scale(3.26815)"/><use xlink:href="#q" x="231.181" y="134.765" width="744.094" height="1052.362" transform="translate(-421.877 333.134) scale(3.26815)"/></g><g ns0:preamble="/home/waldgeist/data/sphinx/inkscape-preamble.tex" ns0:text="$-5$"><use y="134.765" x="223.432" xlink:href="#n" width="744.094" height="1052.362" transform="translate(-421.162 395.134) scale(3.26815)"/><use y="134.765" x="231.181" xlink:href="#o" width="744.094" height="1052.362" transform="translate(-421.162 395.134) scale(3.26815)"/></g><g stroke="#00f" stroke-width="2.695" fill="navy" stroke-linecap="round" stroke-miterlimit="3.9"><path d="M197.214 339.022l-9.024 15.628M188.19 339.022l9.024 15.628" stroke-width="1.9998786499999999"/></g><path d="M551.392 466.4v59.781" fill="navy" stroke="#00f" stroke-width="2" stroke-linecap="round" stroke-dasharray="3.99999997,7.99999995"/><g stroke="#00f" stroke-width="2.695" fill="navy" stroke-linecap="round" stroke-miterlimit="3.9"><path d="M555.904 458.585l-9.023 15.629M546.88 458.585l9.024 15.629" stroke-width="1.9998786499999999"/></g><path d="M372.047 532.286v119.459" fill="navy" stroke="#00f" stroke-width="2" stroke-linecap="round" stroke-dasharray="4.00000003,8.00000009"/><g stroke="#00f" stroke-width="2.695" fill="navy" stroke-linecap="round" stroke-miterlimit="3.9"><path d="M376.559 637.93l-9.023 15.629M367.536 637.93l9.023 15.629" stroke-width="1.9998786499999999"/></g><g ns0:text="I" ns0:preamble="/home/waldgeist/data/sphinx/inkscape-preamble.tex" transform="matrix(14.70669 0 0 14.70669 -2790.698 -1555.125)" fill="#e6e6e6"><defs><symbol overflow="visible" id="v"><path d="M2.25-6.031c0-.36.016-.469.813-.469h.25v-.313c-.344.032-1.126.032-1.516.032-.375 0-1.172 0-1.516-.032v.313h.25c.797 0 .828.11.828.469v5.25c0 .36-.03.469-.828.469h-.25V0c.344-.031 1.14-.031 1.516-.031.39 0 1.172 0 1.516.031v-.313h-.25c-.797 0-.813-.109-.813-.468z"/></symbol></defs><use height="1052.362" width="744.094" xlink:href="#v" x="223.432" y="134.765"/></g><path d="M378.025 466.4h173.367" fill="navy" stroke="#00f" stroke-width="2" stroke-linecap="round" stroke-dasharray="4.00000001,8.00000004"/><g transform="matrix(14.70669 0 0 14.70669 -3118.111 -1555.125)" ns0:preamble="/home/waldgeist/data/sphinx/inkscape-preamble.tex" ns0:text="II" fill="#e6e6e6"><defs><symbol id="w" overflow="visible"><path d="M2.25-6.031c0-.36.016-.469.813-.469h.25v-.313c-.344.032-1.126.032-1.516.032-.375 0-1.172 0-1.516-.032v.313h.25c.797 0 .828.11.828.469v5.25c0 .36-.03.469-.828.469h-.25V0c.344-.031 1.14-.031 1.516-.031.39 0 1.172 0 1.516.031v-.313h-.25c-.797 0-.813-.109-.813-.468z"/></symbol></defs><use y="134.765" x="223.432" xlink:href="#w" width="744.094" height="1052.362"/><use y="134.765" x="227.308" xlink:href="#w" width="744.094" height="1052.362"/></g><g ns0:text="III" ns0:preamble="/home/waldgeist/data/sphinx/inkscape-preamble.tex" transform="matrix(14.70669 0 0 14.70669 -3146.616 -1256.112)" fill="#e6e6e6"><defs><symbol overflow="visible" id="x"><path d="M2.25-6.031c0-.36.016-.469.813-.469h.25v-.313c-.344.032-1.126.032-1.516.032-.375 0-1.172 0-1.516-.032v.313h.25c.797 0 .828.11.828.469v5.25c0 .36-.03.469-.828.469h-.25V0c.344-.031 1.14-.031 1.516-.031.39 0 1.172 0 1.516.031v-.313h-.25c-.797 0-.813-.109-.813-.468z"/></symbol></defs><use xlink:href="#x" x="223.432" y="134.765" width="744.094" height="1052.362"/><use xlink:href="#x" x="227.308" y="134.765" width="744.094" height="1052.362"/><use xlink:href="#x" x="231.185" y="134.765" width="744.094" height="1052.362"/></g><g transform="matrix(14.70669 0 0 14.70669 -2846.335 -1257.72)" ns0:preamble="/home/waldgeist/data/sphinx/inkscape-preamble.tex" ns0:text="IV" fill="#e6e6e6"><defs><symbol id="y" overflow="visible"><path d="M2.25-6.031c0-.36.016-.469.813-.469h.25v-.313c-.344.032-1.126.032-1.516.032-.375 0-1.172 0-1.516-.032v.313h.25c.797 0 .828.11.828.469v5.25c0 .36-.03.469-.828.469h-.25V0c.344-.031 1.14-.031 1.516-.031.39 0 1.172 0 1.516.031v-.313h-.25c-.797 0-.813-.109-.813-.468z"/></symbol><symbol id="z" overflow="visible"><path d="M6.188-5.828c.14-.375.406-.656 1.093-.672v-.313c-.312.032-.718.032-.968.032-.297 0-.875-.016-1.141-.032v.313c.516.016.734.266.734.5 0 .078-.031.14-.047.203L4.031-1 2.125-6.031c-.063-.14-.063-.157-.063-.172 0-.297.563-.297.813-.297v-.313c-.36.032-1.047.032-1.422.032-.469 0-.906-.016-1.266-.032v.313c.657 0 .844 0 .985.375L3.484 0c.063.188.11.219.25.219.157 0 .188-.047.235-.188z"/></symbol></defs><use y="134.765" x="223.432" xlink:href="#y" width="744.094" height="1052.362"/><use y="134.765" x="227.03" xlink:href="#z" width="744.094" height="1052.362"/></g><path d="M132.92 287.054v239.232" fill="navy" stroke="#00f" stroke-width="2" stroke-linecap="round" stroke-dasharray="4.00000002,8.00000004"/><path d="M132.92 287.054H372.39" fill="navy" stroke="#00f" stroke-width="2" stroke-linecap="round" stroke-dasharray="4,8"/><g transform="translate(-622.34 -171.391) scale(3.26815)" ns0:preamble="/home/waldgeist/data/sphinx/inkscape-preamble.tex" ns0:text="$\\mathrm{P_2} (-4\\,, 4)$" fill="#00f" stroke="#00f"><defs><symbol id="A" overflow="visible"><path d="M2.266-3.156h1.687c1.188 0 2.266-.797 2.266-1.797 0-.984-.985-1.86-2.344-1.86H.344v.313h.25c.765 0 .781.11.781.469v5.25c0 .36-.016.469-.781.469h-.25V0c.36-.031 1.094-.031 1.469-.031s1.125 0 1.484.031v-.313h-.25c-.766 0-.781-.109-.781-.468zm-.032-.25v-2.688c0-.343.016-.406.485-.406h.89c1.579 0 1.579 1.063 1.579 1.547 0 .469 0 1.547-1.579 1.547z" stroke="none"/></symbol><symbol id="C" overflow="visible"><path d="M3.297 2.39c0-.03 0-.046-.172-.218C1.891.922 1.562-.968 1.562-2.5c0-1.734.375-3.469 1.61-4.703.125-.125.125-.14.125-.172 0-.078-.031-.11-.094-.11-.11 0-1 .688-1.594 1.954C1.11-4.438.984-3.328.984-2.5c0 .781.11 1.984.657 3.125C2.25 1.844 3.094 2.5 3.203 2.5c.063 0 .094-.031.094-.11z" stroke="none"/></symbol><symbol id="E" overflow="visible"><path d="M2.938-1.64v.859c0 .36-.032.469-.766.469h-.203V0c.406-.031.922-.031 1.343-.031.422 0 .938 0 1.36.031v-.313h-.219c-.734 0-.75-.109-.75-.468v-.86h.985v-.312h-.985v-4.531c0-.204 0-.266-.172-.266-.078 0-.11 0-.187.125L.28-1.953v.312zm.046-.313H.563l2.421-3.719z" stroke="none"/></symbol><symbol id="G" overflow="visible"><path d="M2.875-2.5c0-.766-.11-1.969-.656-3.11C1.625-6.827.766-7.483.672-7.483a.107.107 0 0 0-.11.109c0 .031 0 .047.188.234.984.985 1.547 2.563 1.547 4.641 0 1.719-.36 3.469-1.594 4.719-.14.125-.14.14-.14.172 0 .062.046.109.109.109.094 0 1-.688 1.578-1.953.516-1.094.625-2.203.625-3.047z" stroke="none"/></symbol><symbol id="B" overflow="visible"><path d="M3.516-1.266H3.28c-.015.157-.094.563-.187.625-.047.047-.578.047-.688.047H1.125c.734-.64.984-.844 1.39-1.172.516-.406 1-.843 1-1.5 0-.843-.734-1.359-1.624-1.359-.86 0-1.454.61-1.454 1.25 0 .344.297.39.376.39.156 0 .359-.124.359-.374 0-.125-.047-.375-.406-.375.218-.485.687-.641 1.015-.641.703 0 1.063.547 1.063 1.11 0 .609-.438 1.078-.656 1.328L.516-.266C.437-.203.437-.187.437 0h2.876z" stroke="none"/></symbol><symbol id="D" overflow="visible"><path d="M6.563-2.297c.171 0 .359 0 .359-.203 0-.188-.188-.188-.36-.188h-5.39c-.172 0-.344 0-.344.188 0 .203.172.203.344.203z" stroke="none"/></symbol><symbol id="F" overflow="visible"><path d="M2.031-.016c0-.656-.25-1.046-.64-1.046a.517.517 0 0 0-.532.53c0 .266.204.532.532.532a.58.58 0 0 0 .343-.125c.032-.031.047-.031.047-.031.016 0 .016 0 .016.14 0 .75-.344 1.344-.672 1.672-.11.11-.11.125-.11.157 0 .078.048.109.094.109.11 0 .922-.766.922-1.938z" stroke="none"/></symbol></defs><use y="134.765" x="223.432" xlink:href="#A"/><use y="136.259" x="230.212" xlink:href="#B"/><use y="134.765" x="234.682" xlink:href="#C"/><use y="134.765" x="238.556" xlink:href="#D"/><use y="134.765" x="246.305" xlink:href="#E"/><use y="134.765" x="252.946" xlink:href="#F"/><use y="134.765" x="257.374" xlink:href="#E"/><use y="134.765" x="262.355" xlink:href="#G"/></g><g ns0:text="$\\mathrm{P_3} (0\\,,-2)$" ns0:preamble="/home/waldgeist/data/sphinx/inkscape-preamble.tex" transform="translate(-349.017 232.947) scale(3.26815)" fill="#00f" stroke="#00f"><defs><symbol overflow="visible" id="H"><path d="M2.266-3.156h1.687c1.188 0 2.266-.797 2.266-1.797 0-.984-.985-1.86-2.344-1.86H.344v.313h.25c.765 0 .781.11.781.469v5.25c0 .36-.016.469-.781.469h-.25V0c.36-.031 1.094-.031 1.469-.031s1.125 0 1.484.031v-.313h-.25c-.766 0-.781-.109-.781-.468zm-.032-.25v-2.688c0-.343.016-.406.485-.406h.89c1.579 0 1.579 1.063 1.579 1.547 0 .469 0 1.547-1.579 1.547z" stroke="none"/></symbol><symbol overflow="visible" id="J"><path d="M3.297 2.39c0-.03 0-.046-.172-.218C1.891.922 1.562-.968 1.562-2.5c0-1.734.375-3.469 1.61-4.703.125-.125.125-.14.125-.172 0-.078-.031-.11-.094-.11-.11 0-1 .688-1.594 1.954C1.11-4.438.984-3.328.984-2.5c0 .781.11 1.984.657 3.125C2.25 1.844 3.094 2.5 3.203 2.5c.063 0 .094-.031.094-.11z" stroke="none"/></symbol><symbol overflow="visible" id="K"><path d="M4.578-3.188c0-.796-.047-1.593-.39-2.328C3.733-6.484 2.905-6.64 2.5-6.64c-.61 0-1.328.266-1.75 1.188-.313.687-.36 1.469-.36 2.266 0 .75.032 1.64.454 2.406a1.83 1.83 0 0 0 1.64 1c.532 0 1.297-.203 1.735-1.157.312-.687.36-1.468.36-2.25zM2.484 0c-.39 0-.984-.25-1.156-1.203-.11-.594-.11-1.516-.11-2.11 0-.64 0-1.296.079-1.828.187-1.187.937-1.28 1.187-1.28.329 0 .985.187 1.172 1.171.11.563.11 1.313.11 1.938 0 .75 0 1.421-.11 2.062C3.5-.297 2.937 0 2.484 0z" stroke="none"/></symbol><symbol overflow="visible" id="N"><path d="M1.266-.766l1.062-1.03c1.547-1.376 2.14-1.907 2.14-2.907 0-1.14-.89-1.938-2.109-1.938C1.234-6.64.5-5.719.5-4.828c0 .547.5.547.531.547.172 0 .516-.11.516-.532a.513.513 0 0 0-.531-.515c-.079 0-.094 0-.125.016.218-.657.765-1.016 1.343-1.016.907 0 1.329.812 1.329 1.625 0 .797-.485 1.578-1.047 2.203L.609-.375C.5-.265.5-.235.5 0h3.703l.266-1.734h-.235C4.172-1.438 4.11-1 4-.844c-.063.078-.719.078-.938.078z" stroke="none"/></symbol><symbol overflow="visible" id="O"><path d="M2.875-2.5c0-.766-.11-1.969-.656-3.11C1.625-6.827.766-7.483.672-7.483a.107.107 0 0 0-.11.109c0 .031 0 .047.188.234.984.985 1.547 2.563 1.547 4.641 0 1.719-.36 3.469-1.594 4.719-.14.125-.14.14-.14.172 0 .062.046.109.109.109.094 0 1-.688 1.578-1.953.516-1.094.625-2.203.625-3.047z" stroke="none"/></symbol><symbol overflow="visible" id="I"><path d="M1.906-2.328c.547 0 .938.375.938 1.125 0 .86-.516 1.125-.906 1.125-.282 0-.907-.078-1.188-.5.328 0 .406-.235.406-.39 0-.22-.172-.376-.39-.376a.38.38 0 0 0-.391.407C.375-.281 1.094.14 1.938.14c.968 0 1.64-.657 1.64-1.344 0-.547-.437-1.094-1.203-1.25.719-.266.984-.781.984-1.219 0-.547-.625-.953-1.406-.953-.766 0-1.36.375-1.36.938 0 .234.157.359.36.359.219 0 .36-.156.36-.344 0-.203-.141-.36-.36-.375.25-.297.719-.375.985-.375.312 0 .75.156.75.75 0 .297-.094.625-.282.828-.219.266-.422.281-.765.313-.172.015-.188.015-.22.015-.015 0-.077.016-.077.094 0 .094.062.094.187.094z" stroke="none"/></symbol><symbol overflow="visible" id="L"><path d="M2.031-.016c0-.656-.25-1.046-.64-1.046a.517.517 0 0 0-.532.53c0 .266.204.532.532.532a.58.58 0 0 0 .343-.125c.032-.031.047-.031.047-.031.016 0 .016 0 .016.14 0 .75-.344 1.344-.672 1.672-.11.11-.11.125-.11.157 0 .078.048.109.094.109.11 0 .922-.766.922-1.938z" stroke="none"/></symbol><symbol overflow="visible" id="M"><path d="M6.563-2.297c.171 0 .359 0 .359-.203 0-.188-.188-.188-.36-.188h-5.39c-.172 0-.344 0-.344.188 0 .203.172.203.344.203z" stroke="none"/></symbol></defs><use xlink:href="#H" x="223.432" y="134.765"/><use xlink:href="#I" x="230.212" y="136.259"/><use xlink:href="#J" x="234.682" y="134.765"/><use xlink:href="#K" x="238.556" y="134.765"/><use xlink:href="#L" x="245.198" y="134.765"/><use xlink:href="#M" x="249.626" y="134.765"/><g><use xlink:href="#N" x="257.374" y="134.765"/><use xlink:href="#O" x="262.355" y="134.765"/></g></g><g stroke="#00f" stroke-width="2.695" fill="navy" stroke-linecap="round" stroke-miterlimit="3.9"><path d="M137.432 279.24l-9.023 15.629M128.409 279.24l9.023 15.629" stroke-width="1.9998786499999999"/></g><g transform="translate(-175.84 13.48) scale(3.26815)" ns0:preamble="/home/waldgeist/data/sphinx/inkscape-preamble.tex" ns0:text="$\\mathrm{P_1} (3\\,, 1)$" fill="#00f" stroke="#00f"><defs><symbol id="P" overflow="visible"><path d="M2.266-3.156h1.687c1.188 0 2.266-.797 2.266-1.797 0-.984-.985-1.86-2.344-1.86H.344v.313h.25c.765 0 .781.11.781.469v5.25c0 .36-.016.469-.781.469h-.25V0c.36-.031 1.094-.031 1.469-.031s1.125 0 1.484.031v-.313h-.25c-.766 0-.781-.109-.781-.468zm-.032-.25v-2.688c0-.343.016-.406.485-.406h.89c1.579 0 1.579 1.063 1.579 1.547 0 .469 0 1.547-1.579 1.547z" stroke="none"/></symbol><symbol id="R" overflow="visible"><path d="M3.297 2.39c0-.03 0-.046-.172-.218C1.891.922 1.562-.968 1.562-2.5c0-1.734.375-3.469 1.61-4.703.125-.125.125-.14.125-.172 0-.078-.031-.11-.094-.11-.11 0-1 .688-1.594 1.954C1.11-4.438.984-3.328.984-2.5c0 .781.11 1.984.657 3.125C2.25 1.844 3.094 2.5 3.203 2.5c.063 0 .094-.031.094-.11z" stroke="none"/></symbol><symbol id="S" overflow="visible"><path d="M2.89-3.516c.813-.265 1.391-.953 1.391-1.75 0-.812-.875-1.375-1.828-1.375-1 0-1.765.594-1.765 1.36 0 .328.218.515.515.515.297 0 .5-.218.5-.515 0-.485-.469-.485-.61-.485.298-.5.954-.625 1.313-.625.422 0 .969.22.969 1.11 0 .125-.031.703-.281 1.14-.297.485-.64.516-.89.516a3.29 3.29 0 0 1-.392.031c-.078.016-.14.031-.14.125 0 .11.062.11.234.11h.438c.812 0 1.187.671 1.187 1.656 0 1.36-.687 1.64-1.125 1.64-.437 0-1.187-.171-1.531-.75.344.047.656-.171.656-.546a.537.537 0 0 0-.547-.563c-.25 0-.562.14-.562.578C.422-.437 1.344.22 2.437.22c1.22 0 2.126-.906 2.126-1.922 0-.813-.641-1.594-1.672-1.813z" stroke="none"/></symbol><symbol id="U" overflow="visible"><path d="M2.938-6.375c0-.25 0-.266-.235-.266C2.078-6 1.203-6 .891-6v.313c.203 0 .78 0 1.296-.266v5.172c0 .36-.03.469-.921.469H.953V0c.344-.031 1.203-.031 1.61-.031.39 0 1.265 0 1.609.031v-.313h-.313c-.906 0-.921-.109-.921-.468z" stroke="none"/></symbol><symbol id="V" overflow="visible"><path d="M2.875-2.5c0-.766-.11-1.969-.656-3.11C1.625-6.827.766-7.483.672-7.483a.107.107 0 0 0-.11.109c0 .031 0 .047.188.234.984.985 1.547 2.563 1.547 4.641 0 1.719-.36 3.469-1.594 4.719-.14.125-.14.14-.14.172 0 .062.046.109.109.109.094 0 1-.688 1.578-1.953.516-1.094.625-2.203.625-3.047z" stroke="none"/></symbol><symbol id="Q" overflow="visible"><path d="M2.328-4.438c0-.187 0-.187-.203-.187-.453.438-1.078.438-1.36.438v.25c.157 0 .626 0 1-.188v3.547c0 .234 0 .328-.687.328H.812V0c.125 0 .985-.031 1.235-.031.219 0 1.094.031 1.25.031v-.25H3.03c-.703 0-.703-.094-.703-.328z" stroke="none"/></symbol><symbol id="T" overflow="visible"><path d="M2.031-.016c0-.656-.25-1.046-.64-1.046a.517.517 0 0 0-.532.53c0 .266.204.532.532.532a.58.58 0 0 0 .343-.125c.032-.031.047-.031.047-.031.016 0 .016 0 .016.14 0 .75-.344 1.344-.672 1.672-.11.11-.11.125-.11.157 0 .078.048.109.094.109.11 0 .922-.766.922-1.938z" stroke="none"/></symbol></defs><use y="134.765" x="223.432" xlink:href="#P" width="744.094" height="1052.362"/><use y="136.259" x="230.212" xlink:href="#Q" width="744.094" height="1052.362"/><use y="134.765" x="234.682" xlink:href="#R" width="744.094" height="1052.362"/><use y="134.765" x="238.556" xlink:href="#S" width="744.094" height="1052.362"/><use y="134.765" x="245.198" xlink:href="#T" width="744.094" height="1052.362"/><g><use y="134.765" x="249.626" xlink:href="#U" width="744.094" height="1052.362"/><use y="134.765" x="254.607" xlink:href="#V" width="744.094" height="1052.362"/></g></g></svg>