<svg xmlns:ns0="http://www.iki.fi/pav/software/textext/" xmlns="http://www.w3.org/2000/svg" xmlns:xlink="http://www.w3.org/1999/xlink" width="744.094" height="1052.362"><title>Quadrantentabelle</title><path fill="#fff" stroke="#fff" stroke-miterlimit="3.9" d="M17.484 306.526h709.127v439.31H17.484z"/><g transform="translate(-632.26 -60.977) scale(3.26815)" ns0:preamble="/home/waldgeist/data/sphinx/inkscape-preamble.tex" ns0:text="Quadrant" fill="#00f" stroke="#00f"><defs><symbol id="a" overflow="visible"><path d="M3.203-.156c-.531-.203-1.64-.938-1.64-3.219 0-2.594 1.39-3.406 2.312-3.406.953 0 2.313.86 2.313 3.406 0 .766-.11 2.172-1.172 2.953-.22-.562-.547-1.047-1.125-1.047-.516 0-.813.422-.813.828 0 .266.125.47.125.485zm1.547-.11a1.634 1.634 0 0 1-.875.235c-.5 0-.578-.453-.578-.61 0-.28.203-.609.594-.609.53 0 .75.406.859.984zm.406.204c1.188-.532 2.032-1.813 2.032-3.313 0-2.031-1.5-3.656-3.313-3.656-1.797 0-3.313 1.593-3.313 3.656 0 2.016 1.5 3.594 3.313 3.594.313 0 .656-.063.953-.157.14.954.281 1.875 1.219 1.875C7.063 1.938 7.25.61 7.25.095c0-.094 0-.203-.11-.203-.093 0-.109.078-.109.171-.062.547-.484.844-.906.844-.469 0-.719-.344-.969-.969z" stroke="none"/></symbol><symbol id="b" overflow="visible"><path d="M3.89-.781v.89L5.329 0v-.313c-.687 0-.766-.062-.766-.562v-3.531l-1.468.11v.312c.687 0 .781.062.781.562v1.766c0 .875-.484 1.547-1.219 1.547-.828 0-.875-.47-.875-.985v-3.312l-1.468.11v.312c.78 0 .78.03.78.906v1.5c0 .781 0 1.687 1.516 1.687.563 0 1-.28 1.282-.89z" stroke="none"/></symbol><symbol id="c" overflow="visible"><path d="M3.313-.75c.046.39.312.813.78.813.22 0 .829-.141.829-.954v-.562h-.25v.562c0 .579-.25.641-.36.641-.328 0-.375-.453-.375-.5v-1.984c0-.422 0-.813-.359-1.188-.39-.39-.89-.547-1.36-.547-.827 0-1.515.469-1.515 1.125 0 .297.203.469.469.469a.435.435 0 0 0 .453-.453c0-.125-.047-.453-.516-.453.282-.36.766-.469 1.079-.469.5 0 1.062.39 1.062 1.281v.36c-.516.03-1.203.062-1.828.359-.75.344-1 .86-1 1.297 0 .812.969 1.062 1.594 1.062.656 0 1.109-.406 1.296-.859zM3.25-2.39v1c0 .937-.719 1.28-1.172 1.28-.484 0-.89-.343-.89-.843 0-.547.421-1.375 2.062-1.438z" stroke="none"/></symbol><symbol id="d" overflow="visible"><path d="M3.781-.547V.11L5.25 0v-.313c-.688 0-.781-.062-.781-.562v-6.047l-1.422.11v.312c.687 0 .765.063.765.563v2.156a1.582 1.582 0 0 0-1.25-.625c-1.171 0-2.218.984-2.218 2.265 0 1.266.969 2.25 2.11 2.25.64 0 1.077-.343 1.327-.656zm0-2.672v2.047c0 .172 0 .188-.11.36-.296.484-.733.703-1.171.703-.453 0-.813-.266-1.047-.641-.25-.406-.281-.969-.281-1.39 0-.36.016-.954.297-1.407.218-.312.593-.64 1.14-.64.344 0 .766.156 1.063.593.11.172.11.188.11.375z" stroke="none"/></symbol><symbol id="e" overflow="visible"><path d="M1.672-3.313v-1.093l-1.39.11v.312c.702 0 .78.062.78.562V-.75c0 .438-.109.438-.78.438V0c.39-.016.859-.031 1.14-.031.39 0 .86 0 1.266.031v-.313h-.22c-.734 0-.75-.109-.75-.468v-1.531c0-.985.423-1.876 1.173-1.876.062 0 .093 0 .109.016-.031 0-.234.125-.234.39 0 .266.218.423.437.423a.421.421 0 0 0 .422-.438c0-.312-.313-.61-.734-.61-.735 0-1.094.673-1.22 1.095z" stroke="none"/></symbol><symbol id="f" overflow="visible"><path d="M1.094-3.422V-.75c0 .438-.11.438-.782.438V0c.36-.016.86-.031 1.141-.031.25 0 .766.015 1.11.031v-.313c-.672 0-.782 0-.782-.437v-1.844c0-1.031.719-1.594 1.344-1.594.64 0 .75.532.75 1.11V-.75c0 .438-.11.438-.781.438V0c.344-.016.86-.031 1.125-.031.25 0 .781.015 1.11.031v-.313c-.516 0-.766 0-.766-.296v-1.907c0-.859 0-1.156-.313-1.515-.14-.172-.469-.375-1.047-.375-.734 0-1.203.422-1.484 1.047v-1.047l-1.407.11v.312c.704 0 .782.062.782.562z" stroke="none"/></symbol><symbol id="g" overflow="visible"><path d="M1.719-3.984h1.437v-.313H1.72v-1.828h-.25c0 .813-.297 1.875-1.282 1.922v.219h.844v2.75c0 1.218.938 1.343 1.297 1.343.703 0 .985-.703.985-1.343v-.563h-.25v.547c0 .734-.297 1.11-.672 1.11-.672 0-.672-.907-.672-1.079z" stroke="none"/></symbol></defs><g fill="#000"><use y="134.765" x="223.432" xlink:href="#a" width="744.094" height="1052.362"/><use y="134.765" x="231.181" xlink:href="#b" width="744.094" height="1052.362"/><use y="134.765" x="236.716" xlink:href="#c" width="744.094" height="1052.362"/><use y="134.765" x="241.697" xlink:href="#d" width="744.094" height="1052.362"/><use y="134.765" x="247.233" xlink:href="#e" width="744.094" height="1052.362"/><use y="134.765" x="251.135" xlink:href="#c" width="744.094" height="1052.362"/><use y="134.765" x="256.116" xlink:href="#f" width="744.094" height="1052.362"/><g><use y="134.765" x="261.373" xlink:href="#g" width="744.094" height="1052.362"/></g></g></g><g ns0:text="I" ns0:preamble="/home/waldgeist/data/sphinx/inkscape-preamble.tex" transform="translate(-569.803 19.856) scale(3.26815)" fill="#00f" stroke="#00f"><defs><symbol overflow="visible" id="h"><path d="M2.25-6.031c0-.36.016-.469.813-.469h.25v-.313c-.344.032-1.126.032-1.516.032-.375 0-1.172 0-1.516-.032v.313h.25c.797 0 .828.11.828.469v5.25c0 .36-.03.469-.828.469h-.25V0c.344-.031 1.14-.031 1.516-.031.39 0 1.172 0 1.516.031v-.313h-.25c-.797 0-.813-.109-.813-.468z" stroke="none"/></symbol></defs><use xlink:href="#h" x="223.432" y="134.765" width="744.094" height="1052.362" fill="#000"/></g><g transform="translate(-576.138 97.88) scale(3.26815)" ns0:preamble="/home/waldgeist/data/sphinx/inkscape-preamble.tex" ns0:text="II" fill="#00f" stroke="#00f"><defs><symbol id="i" overflow="visible"><path d="M2.25-6.031c0-.36.016-.469.813-.469h.25v-.313c-.344.032-1.126.032-1.516.032-.375 0-1.172 0-1.516-.032v.313h.25c.797 0 .828.11.828.469v5.25c0 .36-.03.469-.828.469h-.25V0c.344-.031 1.14-.031 1.516-.031.39 0 1.172 0 1.516.031v-.313h-.25c-.797 0-.813-.109-.813-.468z" stroke="none"/></symbol></defs><g fill="#000"><use y="134.765" x="223.432" xlink:href="#i" width="744.094" height="1052.362"/><use y="134.765" x="227.308" xlink:href="#i" width="744.094" height="1052.362"/></g></g><g ns0:text="III" ns0:preamble="/home/waldgeist/data/sphinx/inkscape-preamble.tex" transform="translate(-582.472 175.905) scale(3.26815)" fill="#00f" stroke="#00f"><defs><symbol overflow="visible" id="j"><path d="M2.25-6.031c0-.36.016-.469.813-.469h.25v-.313c-.344.032-1.126.032-1.516.032-.375 0-1.172 0-1.516-.032v.313h.25c.797 0 .828.11.828.469v5.25c0 .36-.03.469-.828.469h-.25V0c.344-.031 1.14-.031 1.516-.031.39 0 1.172 0 1.516.031v-.313h-.25c-.797 0-.813-.109-.813-.468z" stroke="none"/></symbol></defs><g fill="#000"><use xlink:href="#j" x="223.432" y="134.765" width="744.094" height="1052.362"/><use xlink:href="#j" x="227.308" y="134.765" width="744.094" height="1052.362"/><use xlink:href="#j" x="231.185" y="134.765" width="744.094" height="1052.362"/></g></g><g transform="translate(-582.167 253.572) scale(3.26815)" ns0:preamble="/home/waldgeist/data/sphinx/inkscape-preamble.tex" ns0:text="IV" fill="#00f" stroke="#00f"><defs><symbol id="k" overflow="visible"><path d="M2.25-6.031c0-.36.016-.469.813-.469h.25v-.313c-.344.032-1.126.032-1.516.032-.375 0-1.172 0-1.516-.032v.313h.25c.797 0 .828.11.828.469v5.25c0 .36-.03.469-.828.469h-.25V0c.344-.031 1.14-.031 1.516-.031.39 0 1.172 0 1.516.031v-.313h-.25c-.797 0-.813-.109-.813-.468z" stroke="none"/></symbol><symbol id="l" overflow="visible"><path d="M6.188-5.828c.14-.375.406-.656 1.093-.672v-.313c-.312.032-.718.032-.968.032-.297 0-.875-.016-1.141-.032v.313c.516.016.734.266.734.5 0 .078-.031.14-.047.203L4.031-1 2.125-6.031c-.063-.14-.063-.157-.063-.172 0-.297.563-.297.813-.297v-.313c-.36.032-1.047.032-1.422.032-.469 0-.906-.016-1.266-.032v.313c.657 0 .844 0 .985.375L3.484 0c.063.188.11.219.25.219.157 0 .188-.047.235-.188z" stroke="none"/></symbol></defs><g fill="#000"><use y="134.765" x="223.432" xlink:href="#k" width="744.094" height="1052.362"/><use y="134.765" x="227.03" xlink:href="#l" width="744.094" height="1052.362"/></g></g><g ns0:text="$x$" ns0:preamble="/home/waldgeist/data/sphinx/inkscape-preamble.tex" transform="translate(-366.52 -58.601) scale(3.26815)" fill="#00f" stroke="#00f"><defs><symbol overflow="visible" id="m"><path d="M3.328-3.016c.063-.25.297-1.171.985-1.171.046 0 .296 0 .5.125a.578.578 0 0 0-.47.546c0 .157.11.344.376.344a.546.546 0 0 0 .531-.578c0-.516-.578-.656-.922-.656-.578 0-.922.531-1.047.75-.25-.656-.781-.75-1.078-.75-1.031 0-1.61 1.281-1.61 1.531 0 .11.11.11.126.11.078 0 .11-.032.125-.11.344-1.063 1-1.313 1.344-1.313.187 0 .53.094.53.672 0 .313-.171.97-.53 2.375-.157.61-.516 1.032-.954 1.032-.062 0-.28 0-.5-.125.25-.063.47-.266.47-.547 0-.266-.22-.344-.36-.344-.313 0-.547.25-.547.578 0 .453.484.656.922.656.672 0 1.031-.703 1.047-.75.125.36.484.75 1.078.75 1.031 0 1.594-1.28 1.594-1.53 0-.11-.079-.11-.11-.11-.094 0-.11.047-.14.11-.329 1.077-1 1.312-1.313 1.312-.39 0-.547-.313-.547-.657 0-.218.047-.437.156-.875z" stroke="none"/></symbol></defs><use xlink:href="#m" x="223.432" y="134.765" width="744.094" height="1052.362" fill="#000"/></g><g transform="translate(-170.094 -56.601) scale(3.26815)" ns0:preamble="/home/waldgeist/data/sphinx/inkscape-preamble.tex" ns0:text="$y$" fill="#00f" stroke="#00f"><defs><symbol id="n" overflow="visible"><path d="M4.844-3.797c.047-.14.047-.156.047-.234 0-.172-.141-.266-.297-.266a.455.455 0 0 0-.344.203c-.016.063-.11.36-.14.547-.079.25-.141.531-.204.797L3.453-.953c-.031.14-.469.844-1.125.844-.5 0-.61-.438-.61-.813 0-.453.173-1.078.5-1.953.157-.406.204-.516.204-.719 0-.437-.313-.812-.813-.812-.953 0-1.312 1.453-1.312 1.531 0 .11.094.11.11.11.109 0 .109-.032.156-.188.28-.938.671-1.235 1.015-1.235.078 0 .25 0 .25.313 0 .25-.11.516-.172.703-.406 1.063-.578 1.625-.578 2.094 0 .89.625 1.187 1.219 1.187.39 0 .719-.171 1-.453-.125.516-.25 1.016-.64 1.547-.266.328-.641.625-1.095.625-.14 0-.593-.031-.765-.422.156 0 .297 0 .422-.125a.493.493 0 0 0 .203-.406c0-.313-.266-.344-.36-.344C.829.531.5.687.5 1.171c0 .5.438.876 1.063.876 1.015 0 2.046-.906 2.328-2.031z" stroke="none"/></symbol></defs><use y="134.765" x="223.432" xlink:href="#n" transform="translate(3.255)" width="744.094" height="1052.362" fill="#000"/></g><g ns0:text="$+$" ns0:preamble="/home/waldgeist/data/sphinx/inkscape-preamble.tex" transform="translate(-370.12 16.869) scale(3.26815)" fill="#00f" stroke="#00f"><defs><symbol overflow="visible" id="o"><path d="M4.078-2.297H6.86c.141 0 .329 0 .329-.203 0-.188-.188-.188-.329-.188H4.08v-2.796c0-.141 0-.329-.204-.329-.203 0-.203.188-.203.329v2.796H.89c-.141 0-.329 0-.329.188 0 .203.188.203.329.203h2.78V.5c0 .14 0 .328.204.328.203 0 .203-.187.203-.328z" stroke="none"/></symbol></defs><use xlink:href="#o" x="223.432" y="134.765" width="744.094" height="1052.362" fill="#000"/></g><g transform="translate(-370.12 94.893) scale(3.26815)" ns0:preamble="/home/waldgeist/data/sphinx/inkscape-preamble.tex" ns0:text="$-$" fill="#00f" stroke="#00f"><defs><symbol id="p" overflow="visible"><path d="M6.563-2.297c.171 0 .359 0 .359-.203 0-.188-.188-.188-.36-.188h-5.39c-.172 0-.344 0-.344.188 0 .203.172.203.344.203z" stroke="none"/></symbol></defs><use y="134.765" x="223.432" xlink:href="#p" width="744.094" height="1052.362" fill="#000"/></g><use height="1052.362" width="744.094" xlink:href="#p" x="223.432" y="134.765" fill="#000" transform="translate(-370.12 172.918) scale(3.26815)" ns0:text="$-$" ns0:preamble="/home/waldgeist/data/sphinx/inkscape-preamble.tex" stroke="#00f"/><use y="134.765" x="223.432" xlink:href="#p" width="744.094" height="1052.362" transform="translate(-163.644 172.918) scale(3.26815)" fill="#000" ns0:preamble="/home/waldgeist/data/sphinx/inkscape-preamble.tex" ns0:text="$-$" stroke="#00f"/><use height="1052.362" width="744.094" y="134.765" x="223.432" xlink:href="#o" fill="#000" transform="translate(-370.12 250.942) scale(3.26815)" ns0:preamble="/home/waldgeist/data/sphinx/inkscape-preamble.tex" ns0:text="$+$" stroke="#00f"/><use xlink:href="#o" x="223.432" y="134.765" width="744.094" height="1052.362" transform="translate(-163.644 16.869) scale(3.26815)" fill="#000" ns0:text="$+$" ns0:preamble="/home/waldgeist/data/sphinx/inkscape-preamble.tex" stroke="#00f"/><use height="1052.362" width="744.094" y="134.765" x="223.432" xlink:href="#o" transform="translate(-163.644 94.893) scale(3.26815)" fill="#000" ns0:preamble="/home/waldgeist/data/sphinx/inkscape-preamble.tex" ns0:text="$+$" stroke="#00f"/><use height="1052.362" width="744.094" xlink:href="#p" x="223.432" y="134.765" fill="#000" transform="translate(-163.644 250.942) scale(3.26815)" ns0:text="$-$" ns0:preamble="/home/waldgeist/data/sphinx/inkscape-preamble.tex" stroke="#00f"/><path d="M682.467 410.144H63.042M269.517 722.242V330.12M475.992 722.242V330.12M682.467 488.169H63.042M681.053 566.193H61.627M682.467 644.218H63.042" fill="none" stroke="#000" stroke-width="2" stroke-linecap="round"/></svg>