<svg xmlns:ns0="http://www.iki.fi/pav/software/textext/" xmlns="http://www.w3.org/2000/svg" xmlns:xlink="http://www.w3.org/1999/xlink" width="793.701" height="1122.52" viewBox="0 0 744.09448 1052.3622"><title>Der Kreisbogen</title><defs><marker id="b" orient="auto" overflow="visible"><path d="M-2.308 0l3.46-2v4z" fill-rule="evenodd" stroke="#000" stroke-width=".5332"/></marker></defs><use y="134.765" x="223.432" xlink:href="#textext-28c1ecfe-0" width="744.094" height="1052.362" transform="translate(-690.002 115.427) scale(3.49978)"/><use y="134.765" x="223.432" xlink:href="#textext-28c1ecfe-0" width="744.094" height="1052.362" transform="translate(-200.574 -112.91) scale(3.49978)"/><use y="134.765" x="223.432" xlink:href="#textext-28c1ecfe-0" width="744.094" height="1052.362" transform="translate(-200.574 -112.91) scale(3.49978)"/><use y="134.765" x="223.432" xlink:href="#textext-28c1ecfe-0" width="744.094" height="1052.362" transform="translate(247.109 692.116) scale(3.49978)"/><use y="134.765" x="223.432" xlink:href="#textext-28c1ecfe-0" width="744.094" height="1052.362" transform="translate(736.537 463.779) scale(3.49978)"/><use y="134.765" x="223.432" xlink:href="#textext-28c1ecfe-0" width="744.094" height="1052.362" transform="translate(736.537 463.779) scale(3.49978)"/><path fill="#fff" stroke="#fff" stroke-width="3" stroke-linecap="square" d="M59.223 337.283h625.649V715.08H59.223z"/><circle r="134.404" cy="580.675" cx="384.922" transform="matrix(1.20978 0 0 1.20978 -93.624 -176.294)" fill="#f9f9f9" stroke="gray" stroke-width="2.48" stroke-linecap="round" stroke-dasharray="4.95958435,4.95958435"/><g stroke="#4d4d4d" stroke-width="3.007"><path d="M205.107 421.752V630.61" fill="none" stroke="gray" stroke-linecap="round" stroke-dasharray="4.16305806,4.16305806" transform="matrix(.00787 -1.27855 .7785 -.00485 42.103 791.49)"/></g><g transform="matrix(4.58764 0 0 4.56905 -574.322 -56.053)" ns0:preamble="/home/waldgeist/data/sphinx/test.tex" ns0:text="$r$" fill="#4d4d4d"><defs><symbol id="a" overflow="visible"><path d="M.875-.594c-.031.156-.094.39-.094.438 0 .172.14.265.297.265a.414.414 0 0 0 .375-.28c.016-.032.344-1.391.39-1.579.079-.328.266-1.016.313-1.297.047-.125.328-.594.563-.812.078-.063.375-.329.797-.329.265 0 .406.125.421.125-.296.047-.515.282-.515.547 0 .157.11.344.375.344s.547-.234.547-.594c0-.343-.313-.64-.828-.64-.641 0-1.079.484-1.266.765-.094-.453-.453-.765-.922-.765-.453 0-.64.39-.734.562-.172.344-.297.938-.297.969 0 .11.094.11.11.11.109 0 .109-.016.171-.235.172-.703.375-1.188.735-1.188.156 0 .296.079.296.454 0 .218-.03.328-.156.843zm0 0"/></symbol></defs><use transform="translate(-1.744)" y="134.765" x="223.432" xlink:href="#a" width="744.094" height="1052.362"/></g><path d="M290.747 385.38a162.6 162.6 0 0 1 162.6 0 162.6 162.6 0 0 1 81.3 140.815" fill="#f9f9f9" stroke="#000" stroke-width="3.0002544" stroke-linecap="round"/><g stroke="#4d4d4d" stroke-width="3.007"><path d="M205.107 421.752V630.61" fill="none" stroke="gray" stroke-linecap="round" stroke-dasharray="4.16305806,4.16305806" transform="matrix(-1.11119 .63246 -.39345 -.67178 765.9 680.809)"/></g><path d="M317.72 464.277a134.404 134.404 0 0 1 134.405 0 134.404 134.404 0 0 1 67.202 116.398" transform="matrix(.39156 0 0 .39156 228.381 297.443)" fill="none" stroke="#000" stroke-width="3.831" stroke-linecap="round" marker-start="url(#b)"/><g ns0:text="$\\alpha$" ns0:preamble="/home/waldgeist/data/sphinx/test.tex" transform="matrix(4.58764 0 0 4.56905 -651.053 -102.56)"><defs><symbol overflow="visible" id="c"><path d="M4.75-2.36c0-1.562-.922-2.046-1.656-2.046-1.375 0-2.688 1.422-2.688 2.828C.406-.641 1 .109 2.031.109c.625 0 1.344-.234 2.094-.843.125.53.453.843.906.843.532 0 .844-.546.844-.703 0-.078-.063-.11-.125-.11-.063 0-.094.032-.125.11-.188.485-.547.485-.563.485-.312 0-.312-.782-.312-1.016 0-.203 0-.234.11-.344C5.796-2.656 6-3.812 6-3.812c0-.032-.016-.11-.125-.11-.094 0-.094.031-.14.219-.188.625-.516 1.375-.985 1.969zM4.094-.983c-.89.765-1.657.875-2.047.875-.594 0-.906-.454-.906-1.094 0-.484.265-1.563.578-2.063.468-.734 1.015-.921 1.36-.921.983 0 .983 1.312.983 2.078 0 .375 0 .953.032 1.125zm0 0"/></symbol></defs><use height="1052.362" width="744.094" xlink:href="#c" x="223.432" y="134.765"/></g><g transform="matrix(4.58764 0 0 4.56905 -80.92 4.14)" ns0:preamble="/home/waldgeist/data/homepage/inkscape-preamble.tex" ns0:text="$b$"><defs><symbol id="d" overflow="visible"><path d="M2.375-6.813s0-.109-.125-.109c-.219 0-.953.078-1.219.11-.078 0-.187.015-.187.187 0 .125.094.125.25.125.468 0 .484.063.484.172 0 .062-.078.406-.125.61l-.828 3.25c-.11.5-.156.671-.156 1.015C.469-.516 1 .109 1.734.109c1.172 0 2.407-1.484 2.407-2.921 0-.907-.532-1.594-1.329-1.594-.453 0-.874.297-1.171.593zm-.922 3.766c.047-.219.047-.234.14-.344.485-.64.938-.796 1.204-.796.36 0 .625.296.625.937 0 .594-.328 1.734-.516 2.11-.328.671-.781 1.03-1.172 1.03-.343 0-.671-.265-.671-1 0-.202 0-.39.156-1.015zm0 0"/></symbol></defs><use y="83.403" x="118.801" xlink:href="#d" width="100%" height="100%"/></g></svg>