<svg xmlns="http://www.w3.org/2000/svg" width="210mm" height="297mm"><title>Kreiskegel</title><rect style="marker:none" width="718.96" height="278.214" x="12.567" y="387.074" ry="3.032" color="#000" fill="#fff" stroke="#fff" stroke-width="2.396" stroke-linecap="round" stroke-linejoin="bevel" overflow="visible"/><path d="M312.141 591.07l59.906-176.59s61.151 184.425 61.156 184.434l-122.307-.009" fill="#f9f9f9"/><path style="marker:none" d="M433.198 598.905a61.151 38.977 0 1 1-122.302 0 61.151 38.977 0 1 1 122.302 0z" color="#000" fill="#b3b3b3" overflow="visible"/><path d="M310.891 598.914c0-1.345.104-2.69.312-4 .21-1.31.53-2.575.938-3.844.407-1.268.904-2.53 1.5-3.75a31.54 31.54 0 0 1 2.062-3.593 35.467 35.467 0 0 1 2.563-3.407 40.593 40.593 0 0 1 3.062-3.187c2.198-2.074 4.703-4.018 7.47-5.781 2.766-1.764 5.808-3.35 9.062-4.75a76.714 76.714 0 0 1 10.375-3.594 88.047 88.047 0 0 1 11.5-2.281 95.2 95.2 0 0 1 12.312-.782c4.222 0 8.363.262 12.344.782 3.98.519 7.81 1.295 11.469 2.28a76.714 76.714 0 0 1 10.375 3.595c3.253 1.4 6.296 2.986 9.062 4.75 2.767 1.763 5.271 3.707 7.469 5.78a40.593 40.593 0 0 1 3.062 3.188 35.467 35.467 0 0 1 2.563 3.407 31.54 31.54 0 0 1 2.062 3.593 28.253 28.253 0 0 1 1.5 3.75c.408 1.269.73 2.534.938 3.844.209 1.31.312 2.655.312 4" style="marker:none" color="#000" fill="none" stroke="#4d4d4d" stroke-width="3" stroke-linecap="round" stroke-linejoin="round" stroke-dasharray="3,6" overflow="visible"/><path style="marker:none" d="M310.891 598.914c0 1.345.104 2.69.312 4 .21 1.31.53 2.575.938 3.844.407 1.268.904 2.53 1.5 3.75a31.54 31.54 0 0 0 2.062 3.594 35.467 35.467 0 0 0 2.563 3.406 40.593 40.593 0 0 0 3.062 3.187c2.198 2.074 4.703 4.018 7.47 5.782 2.766 1.763 5.808 3.349 9.062 4.75a76.714 76.714 0 0 0 10.375 3.593 88.047 88.047 0 0 0 11.5 2.282 95.2 95.2 0 0 0 12.312.78c4.222 0 8.363-.261 12.344-.78 3.98-.52 7.81-1.296 11.469-2.282a76.714 76.714 0 0 0 10.375-3.593c3.253-1.401 6.296-2.987 9.062-4.75 2.767-1.764 5.271-3.708 7.469-5.782a40.591 40.591 0 0 0 3.062-3.187 35.467 35.467 0 0 0 2.563-3.406 31.54 31.54 0 0 0 2.062-3.594 28.252 28.252 0 0 0 1.5-3.75c.408-1.269.73-2.534.938-3.844.209-1.31.312-2.655.312-4" color="#000" fill="none" stroke="#000" stroke-width="3" stroke-linecap="round" stroke-linejoin="round" overflow="visible"/><path d="M310.97 596.98l61.077-182.5M433.198 598.905l-61.15-184.426" fill="none" stroke="#000" stroke-width="3" stroke-linecap="round" stroke-linejoin="round"/></svg>