<svg xmlns:ns0="http://www.iki.fi/pav/software/textext/" xmlns="http://www.w3.org/2000/svg" xmlns:xlink="http://www.w3.org/1999/xlink" width="793.701" height="1122.52" viewBox="0 0 744.09448 1052.3622"><title>Kreiswinkel</title><defs><symbol id="a" overflow="visible"><path d="M4.75-2.36c0-1.562-.922-2.046-1.656-2.046-1.375 0-2.688 1.422-2.688 2.828C.406-.641 1 .109 2.031.109c.625 0 1.344-.234 2.094-.843.125.53.453.843.906.843.532 0 .844-.546.844-.703 0-.078-.063-.11-.125-.11-.063 0-.094.032-.125.11-.188.485-.547.485-.563.485-.312 0-.312-.782-.312-1.016 0-.203 0-.234.11-.344C5.796-2.656 6-3.812 6-3.812c0-.032-.016-.11-.125-.11-.094 0-.094.031-.14.219-.188.625-.516 1.375-.985 1.969zM4.094-.983c-.89.765-1.657.875-2.047.875-.594 0-.906-.454-.906-1.094 0-.484.265-1.563.578-2.063.468-.734 1.015-.921 1.36-.921.983 0 .983 1.312.983 2.078 0 .375 0 .953.032 1.125zm0 0"/></symbol></defs><use transform="translate(-690.002 115.427) scale(3.49978)" height="1052.362" width="744.094" xlink:href="#textext-28c1ecfe-0" x="223.432" y="134.765"/><use transform="translate(-200.574 -112.91) scale(3.49978)" height="1052.362" width="744.094" xlink:href="#textext-28c1ecfe-0" x="223.432" y="134.765"/><use transform="translate(-200.574 -112.91) scale(3.49978)" height="1052.362" width="744.094" xlink:href="#textext-28c1ecfe-0" x="223.432" y="134.765"/><use transform="translate(247.109 692.116) scale(3.49978)" height="1052.362" width="744.094" xlink:href="#textext-28c1ecfe-0" x="223.432" y="134.765"/><use transform="translate(736.537 463.779) scale(3.49978)" height="1052.362" width="744.094" xlink:href="#textext-28c1ecfe-0" x="223.432" y="134.765"/><use transform="translate(736.537 463.779) scale(3.49978)" height="1052.362" width="744.094" xlink:href="#textext-28c1ecfe-0" x="223.432" y="134.765"/><path fill="#fff" stroke="#fff" stroke-width="3" stroke-linecap="square" d="M59.223 337.283h625.649V715.08H59.223z"/><circle r="134.404" cy="580.675" cx="384.922" transform="matrix(1.20978 0 0 1.20978 -93.624 -176.294)" fill="#f9f9f9" stroke="gray" stroke-width="2.48" stroke-linecap="round"/><path d="M231.232 607.495l140.815-81.314M512.863 607.495L372.047 526.18" style="isolation:auto;mix-blend-mode:normal" color="#000" overflow="visible" fill="none" stroke="#666" stroke-width="2.813" stroke-linecap="round" stroke-linejoin="round" stroke-dasharray="2.81249999,5.62499997000000018"/><path d="M406.58 546.133a39.876 39.876 0 0 1-34.533 19.937 39.876 39.876 0 0 1-34.533-19.937l34.533-19.938z" fill="#fff" stroke="#000" stroke-width="1.5" stroke-linecap="round" opacity=".5"/><path d="M231.232 607.495h281.63z" style="isolation:auto;mix-blend-mode:normal" color="#000" overflow="visible" fill="#ececec" fill-rule="evenodd" stroke="#999" stroke-width="2.813" stroke-linecap="round" stroke-linejoin="round" stroke-dasharray="2.81249999,8.43749996000000024"/><use y="134.765" x="223.432" xlink:href="#a" width="744.094" height="1052.362" transform="matrix(4.58764 0 0 4.56905 -667.673 -57.924)" ns0:preamble="/home/waldgeist/data/sphinx/test.tex" ns0:text="$\\alpha$" fill="#666" stroke="#666"/><path d="M512.655 607.853a162.6 162.6 0 0 1-140.6 80.941 162.6 162.6 0 0 1-140.609-80.93" fill="none" stroke="#333" stroke-width="3.0002544" stroke-linecap="round"/><path style="isolation:auto;mix-blend-mode:normal" d="M512.863 607.495L415.3 682.936M231.232 607.495l184.08 75.438M512.863 607.495l-208.77-229.02M227.955 608.503l76.138-230.027" color="#000" overflow="visible" fill="none" stroke="#333" stroke-width="2.813" stroke-linecap="round" stroke-linejoin="round"/><g transform="matrix(4.58764 0 0 4.56905 -183.757 251.714)" ns0:preamble="/home/waldgeist/data/homepage/inkscape-preamble.tex" ns0:text="$s$" fill="#999"><defs><symbol id="b" overflow="visible"><path d="M3.89-3.734c-.265.015-.468.234-.468.453 0 .14.094.297.312.297.22 0 .454-.172.454-.563 0-.453-.422-.86-1.188-.86-1.313 0-1.688 1.016-1.688 1.454 0 .781.735.922 1.032.984.515.11 1.031.219 1.031.766 0 .25-.219 1.094-1.422 1.094-.14 0-.906 0-1.14-.532.39.047.64-.25.64-.53 0-.22-.172-.345-.375-.345-.266 0-.562.204-.562.657 0 .562.578.968 1.421.968 1.625 0 2.016-1.203 2.016-1.656a.97.97 0 0 0-.312-.719c-.266-.28-.563-.343-1-.421-.36-.079-.75-.157-.75-.61 0-.281.234-.89 1.109-.89.25 0 .75.078.89.453zm0 0"/></symbol></defs><use y="83.403" x="118.801" xlink:href="#b" width="100%" height="100%"/></g><path d="M-87.504-546.93a63.566 63.576 0 0 1 60.406 25.178" transform="rotate(149.992) skewX(-.016)" opacity=".5" fill="#fff" stroke="#000" stroke-width="1.5" stroke-linecap="round"/><g ns0:text="$\\beta$" transform="matrix(4.24432 0 0 4.22712 -650.597 -137.016)" fill="#333" stroke-width="1.081"><defs><symbol overflow="visible" id="c"><path d="M5.734-5.672c0-.75-.546-1.36-1.359-1.36-.578 0-.86.157-1.203.407C2.625-6.219 2.078-5.25 1.89-4.5L.297 1.828c0 .047.047.11.125.11s.11-.032.11-.047l.702-2.766c.188.61.625.969 1.36.969.719 0 1.469-.344 1.922-.781a2.486 2.486 0 0 0 .796-1.829c0-.718-.375-1.25-.734-1.484.578-.344 1.156-.953 1.156-1.672zM3.938-4.016c-.126.047-.235.063-.485.063-.14 0-.328.015-.437-.031.03-.11.39-.079.5-.079.203 0 .296 0 .421.047zm1.234-1.89c0 .703-.375 1.422-.89 1.734-.282-.11-.47-.125-.766-.125-.22 0-.782-.016-.782.313 0 .28.516.25.688.25.375 0 .531 0 .828-.125.375.359.422.671.438 1.125.015.578-.22 1.328-.5 1.718-.391.532-1.063.891-1.625.891-.766 0-1.141-.578-1.141-1.281 0-.094 0-.25.047-.438l.64-2.515c.22-.86.938-2.454 2.141-2.454.578 0 .922.313.922.907zm0 0"/></symbol></defs><use height="100%" width="100%" xlink:href="#c" x="223.432" y="134.765" transform="translate(-.442 -.196)"/></g><path transform="rotate(-14.944) skewX(.111)" d="M184.597 737.863a48.759 48.578 0 0 1 44.717-19.176 48.759 48.578 0 0 1 39.08 28.924" opacity=".5" fill="#fff" stroke="#000" stroke-width="1.5" stroke-linecap="round"/><g transform="matrix(4.24432 0 0 4.22712 -105.32 318.178)" ns0:preamble="/home/waldgeist/data/homepage/inkscape-preamble.tex" ns0:text="$\\beta^{*}$" fill="#333" stroke-width="1.081"><defs><symbol id="d" overflow="visible"><path d="M5.734-5.672c0-.75-.546-1.36-1.359-1.36-.578 0-.86.157-1.203.407C2.625-6.219 2.078-5.25 1.89-4.5L.297 1.828c0 .047.047.11.125.11s.11-.032.11-.047l.702-2.766c.188.61.625.969 1.36.969.719 0 1.469-.344 1.922-.781a2.486 2.486 0 0 0 .796-1.829c0-.718-.375-1.25-.734-1.484.578-.344 1.156-.953 1.156-1.672zM3.938-4.016c-.126.047-.235.063-.485.063-.14 0-.328.015-.437-.031.03-.11.39-.079.5-.079.203 0 .296 0 .421.047zm1.234-1.89c0 .703-.375 1.422-.89 1.734-.282-.11-.47-.125-.766-.125-.22 0-.782-.016-.782.313 0 .28.516.25.688.25.375 0 .531 0 .828-.125.375.359.422.671.438 1.125.015.578-.22 1.328-.5 1.718-.391.532-1.063.891-1.625.891-.766 0-1.141-.578-1.141-1.281 0-.094 0-.25.047-.438l.64-2.515c.22-.86.938-2.454 2.141-2.454.578 0 .922.313.922.907zm0 0"/></symbol><symbol id="e" overflow="visible"><path d="M2.25-1.734c.578-.25.828-.344 1-.438.14-.047.203-.078.203-.219a.223.223 0 0 0-.219-.218c-.046 0-.062 0-.14.062l-.953.64.109-1.03c.016-.126 0-.297-.219-.297-.078 0-.219.046-.219.203 0 .062.032.265.047.344.016.109.063.624.079.78l-.954-.64c-.062-.031-.078-.062-.14-.062-.14 0-.219.109-.219.218 0 .141.078.188.14.204l1.047.453c-.562.25-.828.343-1 .421-.125.063-.187.094-.187.22 0 .124.078.218.219.218.047 0 .062 0 .14-.063l.954-.625-.125 1.11c0 .156.14.219.218.219.094 0 .219-.063.219-.22 0-.062-.031-.265-.031-.327-.016-.125-.063-.625-.078-.781l.828.546c.187.141.203.141.265.141a.214.214 0 0 0 .22-.219c0-.14-.095-.172-.157-.203zm0 0"/></symbol></defs><use y="83.403" x="118.801" xlink:href="#d" width="100%" height="100%"/><use y="79.788" x="124.962" xlink:href="#e" width="100%" height="100%"/></g></svg>