<svg xmlns:ns0="http://www.iki.fi/pav/software/textext/" xmlns="http://www.w3.org/2000/svg" xmlns:xlink="http://www.w3.org/1999/xlink" width="793.701" height="1122.52" viewBox="0 0 744.09448 1052.3622"><title>Die Kreissehne</title><defs><symbol overflow="visible" id="b"><path d="M4.75-2.36c0-1.562-.922-2.046-1.656-2.046-1.375 0-2.688 1.422-2.688 2.828C.406-.641 1 .109 2.031.109c.625 0 1.344-.234 2.094-.843.125.53.453.843.906.843.532 0 .844-.546.844-.703 0-.078-.063-.11-.125-.11-.063 0-.094.032-.125.11-.188.485-.547.485-.563.485-.312 0-.312-.782-.312-1.016 0-.203 0-.234.11-.344C5.796-2.656 6-3.812 6-3.812c0-.032-.016-.11-.125-.11-.094 0-.094.031-.14.219-.188.625-.516 1.375-.985 1.969zM4.094-.983c-.89.765-1.657.875-2.047.875-.594 0-.906-.454-.906-1.094 0-.484.265-1.563.578-2.063.468-.734 1.015-.921 1.36-.921.983 0 .983 1.312.983 2.078 0 .375 0 .953.032 1.125zm0 0"/></symbol></defs><use y="134.765" x="223.432" xlink:href="#textext-28c1ecfe-0" width="744.094" height="1052.362" transform="translate(-690.002 115.427) scale(3.49978)"/><use y="134.765" x="223.432" xlink:href="#textext-28c1ecfe-0" width="744.094" height="1052.362" transform="translate(-200.574 -112.91) scale(3.49978)"/><use y="134.765" x="223.432" xlink:href="#textext-28c1ecfe-0" width="744.094" height="1052.362" transform="translate(-200.574 -112.91) scale(3.49978)"/><use y="134.765" x="223.432" xlink:href="#textext-28c1ecfe-0" width="744.094" height="1052.362" transform="translate(247.109 692.116) scale(3.49978)"/><use y="134.765" x="223.432" xlink:href="#textext-28c1ecfe-0" width="744.094" height="1052.362" transform="translate(736.537 463.779) scale(3.49978)"/><use y="134.765" x="223.432" xlink:href="#textext-28c1ecfe-0" width="744.094" height="1052.362" transform="translate(736.537 463.779) scale(3.49978)"/><path fill="#fff" stroke="#fff" stroke-width="3" stroke-linecap="square" d="M59.223 337.283h625.649V715.08H59.223z"/><circle transform="matrix(1.20978 0 0 1.20978 -93.624 -176.294)" cx="384.922" cy="580.675" r="134.404" fill="#f9f9f9" stroke="gray" stroke-width="2.48" stroke-linecap="round"/><path style="isolation:auto;mix-blend-mode:normal" d="M231.232 607.495l140.815-81.314M512.863 607.495L372.047 526.18" color="#000" overflow="visible" fill="none" stroke="#4d4d4d" stroke-width="2.813" stroke-linecap="round" stroke-linejoin="round" stroke-dasharray="2.81249999,5.62499997"/><path d="M372.047 363.595v325.172" style="isolation:auto;mix-blend-mode:normal" color="#000" overflow="visible" fill="none" stroke="#999" stroke-width="1.406" stroke-linecap="round" stroke-linejoin="round" stroke-dasharray="1.40624999,2.81249997"/><path opacity=".75" fill="#fff" stroke="#fff" stroke-width="1.406" stroke-linecap="round" stroke-linejoin="round" stroke-dasharray="1.40625,2.81249999" d="M361.07 612.313h21.954v23.915H361.07z"/><g ns0:text="$s$" transform="matrix(4.58764 0 0 4.56905 -663.766 18.339)"><defs><symbol overflow="visible" id="a"><path d="M3.89-3.734c-.265.015-.468.234-.468.453 0 .14.094.297.312.297.22 0 .454-.172.454-.563 0-.453-.422-.86-1.188-.86-1.313 0-1.688 1.016-1.688 1.454 0 .781.735.922 1.032.984.515.11 1.031.219 1.031.766 0 .25-.219 1.094-1.422 1.094-.14 0-.906 0-1.14-.532.39.047.64-.25.64-.53 0-.22-.172-.345-.375-.345-.266 0-.562.204-.562.657 0 .562.578.968 1.421.968 1.625 0 2.016-1.203 2.016-1.656a.97.97 0 0 0-.312-.719c-.266-.28-.563-.343-1-.421-.36-.079-.75-.157-.75-.61 0-.281.234-.89 1.109-.89.25 0 .75.078.89.453zm0 0"/></symbol></defs><use height="100%" width="100%" xlink:href="#a" x="223.432" y="134.765"/></g><path d="M406.58 546.133a39.876 39.876 0 0 1-34.533 19.937 39.876 39.876 0 0 1-34.533-19.937l34.533-19.938z" fill="#fff" stroke="#000" stroke-width="1.5" stroke-linecap="round" opacity=".5"/><path style="isolation:auto;mix-blend-mode:normal" d="M231.232 607.495h281.63z" color="#000" overflow="visible" fill="#ececec" fill-rule="evenodd" stroke="#000" stroke-width="2.813" stroke-linecap="round" stroke-linejoin="round"/><use height="1052.362" width="744.094" xlink:href="#b" x="223.432" y="134.765" transform="matrix(4.58764 0 0 4.56905 -667.673 -57.924)" ns0:text="$\\alpha$" ns0:preamble="/home/waldgeist/data/sphinx/test.tex" fill="#333"/><g transform="matrix(4.58764 0 0 4.56905 -183.542 345.589)" ns0:preamble="/home/waldgeist/data/homepage/inkscape-preamble.tex" ns0:text="$b$" fill="#333"><defs><symbol id="c" overflow="visible"><path d="M2.375-6.813s0-.109-.125-.109c-.219 0-.953.078-1.219.11-.078 0-.187.015-.187.187 0 .125.094.125.25.125.468 0 .484.063.484.172 0 .062-.078.406-.125.61l-.828 3.25c-.11.5-.156.671-.156 1.015C.469-.516 1 .109 1.734.109c1.172 0 2.407-1.484 2.407-2.921 0-.907-.532-1.594-1.329-1.594-.453 0-.874.297-1.171.593zm-.922 3.766c.047-.219.047-.234.14-.344.485-.64.938-.796 1.204-.796.36 0 .625.296.625.937 0 .594-.328 1.734-.516 2.11-.328.671-.781 1.03-1.172 1.03-.343 0-.671-.265-.671-1 0-.202 0-.39.156-1.015zm0 0"/></symbol></defs><use y="83.403" x="118.801" xlink:href="#c" width="100%" height="100%"/></g><path d="M512.655 607.853a162.6 162.6 0 0 1-140.6 80.941 162.6 162.6 0 0 1-140.609-80.93" fill="none" stroke="#333" stroke-width="3.0002544" stroke-linecap="round"/></svg>