<svg xmlns="http://www.w3.org/2000/svg" xmlns:xlink="http://www.w3.org/1999/xlink" width="793.701" height="1122.52" viewBox="0 0 744.09448 1052.3622"><title>Die Kugel</title><use transform="translate(-690.002 115.427) scale(3.49978)" height="1052.362" width="744.094" xlink:href="#textext-28c1ecfe-0" x="223.432" y="134.765"/><use transform="translate(-200.574 -112.91) scale(3.49978)" height="1052.362" width="744.094" xlink:href="#textext-28c1ecfe-0" x="223.432" y="134.765"/><use transform="translate(-200.574 -112.91) scale(3.49978)" height="1052.362" width="744.094" xlink:href="#textext-28c1ecfe-0" x="223.432" y="134.765"/><use transform="translate(247.109 692.116) scale(3.49978)" height="1052.362" width="744.094" xlink:href="#textext-28c1ecfe-0" x="223.432" y="134.765"/><use transform="translate(736.537 463.779) scale(3.49978)" height="1052.362" width="744.094" xlink:href="#textext-28c1ecfe-0" x="223.432" y="134.765"/><use transform="translate(736.537 463.779) scale(3.49978)" height="1052.362" width="744.094" xlink:href="#textext-28c1ecfe-0" x="223.432" y="134.765"/><path fill="#fff" stroke="#fff" stroke-width="3" stroke-linecap="square" d="M59.223 403.615h625.649v245.133H59.223z"/><circle transform="matrix(.60005 0 0 .60005 141.077 177.747)" cx="384.922" cy="580.675" r="134.404" fill="#f9f9f9"/><circle transform="matrix(.60005 0 0 .60005 141.077 177.747)" cx="384.922" cy="580.675" r="134.404" fill="#f9f9f9" stroke="#000" stroke-width="5" stroke-linecap="round"/><g stroke="#000" fill="none" stroke-width="6.048" stroke-linecap="round"><path d="M372.05 445.532c-13.06 0-23.653 36.105-23.653 80.646 0 44.542 10.593 80.646 23.653 80.646" stroke="#4d4d4d" stroke-dasharray="6.04839771,12.09679544" stroke-width="2.999808"/><path d="M372.05 606.824c13.06 0 23.637-36.104 23.637-80.646 0-44.541-10.577-80.646-23.637-80.646" stroke-width="2.999808"/></g><g fill="none" stroke-width="6.048" stroke-linecap="round"><path d="M452.688 526.186c0-13.06-36.105-23.653-80.646-23.653-44.541 0-80.646 10.593-80.646 23.653" stroke="#4d4d4d" stroke-dasharray="6.04839771,12.09679544" stroke-width="2.999808"/><path d="M291.396 526.186c0 13.06 36.105 23.637 80.646 23.637 44.541 0 80.646-10.577 80.646-23.637" stroke="#000" stroke-width="2.999808"/></g></svg>