<svg xmlns:ns0="http://www.iki.fi/pav/software/textext/" xmlns="http://www.w3.org/2000/svg" xmlns:xlink="http://www.w3.org/1999/xlink" width="210mm" height="297mm" viewBox="0 0 744.09449 1052.3622"><title>Ortsvektor</title><defs><marker orient="auto" id="k" overflow="visible"><path d="M-5.231-2.42L1.324-.01-5.23 2.401c1.047-1.423 1.041-3.37 0-4.821z" fill-rule="evenodd" stroke-width=".375" stroke-linejoin="round" stroke="#00f" fill="#00f"/></marker><marker orient="auto" id="a" overflow="visible"><path d="M8.719 4.034L-2.207.016 8.719-4.002c-1.746 2.372-1.736 5.618 0 8.036z" transform="scale(-.6)" fill-rule="evenodd" stroke-width=".625" stroke-linejoin="round"/></marker></defs><rect style="marker:none" width="696.722" height="603.932" x="28.25" y="224.215" ry="2.785" color="#000" overflow="visible" fill="#fff" stroke="#fff" stroke-width="3" stroke-linecap="round" stroke-linejoin="round"/><path d="M288.992 618.527V262.562M288.992 618.527h337.343M288.992 618.527L116.576 790.944" fill="none" stroke="#000" stroke-width="3" stroke-linecap="round" marker-end="url(#a)"/><path d="M185.125 722.394h281.316" fill="none" stroke="gray" stroke-width="3" stroke-linecap="round" stroke-dasharray="2.99999977,5.99999955"/><path d="M570.307 618.527L466.441 722.394" fill="none" stroke="gray" stroke-width="3" stroke-linecap="round" stroke-dasharray="2.99999978,5.99999955"/><path d="M570.307 631.123v-25.19M197.076 722.348h-25.19" fill="none" stroke="gray" stroke-width="3" stroke-linecap="round"/><path d="M466.44 722.03V404.605" fill="none" stroke="gray" stroke-width="3" stroke-linecap="round" stroke-dasharray="2.99999977,5.99999951"/><path d="M466.44 722.03L288.993 618.527" fill="none" stroke="#ccc" stroke-width="3" stroke-linecap="round" stroke-dasharray="2.99999976,5.99999952"/><path d="M301.587 301.103h-25.19" fill="none" stroke="gray" stroke-width="3" stroke-linecap="round"/><g ns0:text="$\\vec{a _{\\rm{}}}$" ns0:preamble="/home/waldgeist/data/sphinx/inkscape-preamble.tex" transform="matrix(3.37375 0 0 3.37375 -393.634 49.362)" fill="#00f" stroke="#000"><defs><symbol overflow="visible" id="b"><path d="M5.36-5.938c-.141.141-.47.422-.47.594 0 .094.094.203.188.203s.14-.078.203-.14c.11-.14.344-.422.782-.64.062-.048.171-.095.171-.204 0-.11-.078-.156-.14-.203a1.034 1.034 0 0 1-.407-.563c-.03-.093-.062-.234-.203-.234-.14 0-.203.14-.203.219 0 .047.078.36.235.578h-3.36c-.156 0-.344 0-.344.203 0 .188.188.188.344.188z" stroke="none"/></symbol><symbol overflow="visible" id="c"><path d="M3.719-3.766c-.188-.375-.469-.64-.922-.64-1.156 0-2.39 1.468-2.39 2.922C.406-.547.952.109 1.718.109c.203 0 .703-.046 1.297-.75a.91.91 0 0 0 .906.75c.36 0 .578-.234.75-.546a6.49 6.49 0 0 0 .297-.985c0-.11-.094-.11-.125-.11-.094 0-.11.048-.14.188-.173.64-.345 1.235-.75 1.235-.282 0-.298-.266-.298-.454 0-.218.016-.312.125-.75.11-.406.125-.515.219-.89l.36-1.39c.062-.282.062-.298.062-.345 0-.171-.11-.265-.281-.265-.25 0-.391.219-.422.437zm-.64 2.579c-.063.187-.063.203-.204.375-.438.546-.844.703-1.125.703-.5 0-.64-.547-.64-.938 0-.5.312-1.719.546-2.187.313-.579.75-.954 1.157-.954.64 0 .78.813.78.875a.562.562 0 0 1-.03.172z" stroke="none"/></symbol></defs><use height="1052.362" width="744.094" xlink:href="#b" x="223.057" y="134.765"/><use height="1052.362" width="744.094" xlink:href="#c" x="223.436" y="134.765"/></g><g transform="matrix(3.37375 0 0 3.37375 -511.762 -147.712)" ns0:preamble="/home/waldgeist/data/sphinx/inkscape-preamble.tex" ns0:text="$a _{\\rm{z}}$" fill="gray" stroke="#000"><defs><symbol id="d" overflow="visible"><path d="M3.719-3.766c-.188-.375-.469-.64-.922-.64-1.156 0-2.39 1.468-2.39 2.922C.406-.547.952.109 1.718.109c.203 0 .703-.046 1.297-.75a.91.91 0 0 0 .906.75c.36 0 .578-.234.75-.546a6.49 6.49 0 0 0 .297-.985c0-.11-.094-.11-.125-.11-.094 0-.11.048-.14.188-.173.64-.345 1.235-.75 1.235-.282 0-.298-.266-.298-.454 0-.218.016-.312.125-.75.11-.406.125-.515.219-.89l.36-1.39c.062-.282.062-.298.062-.345 0-.171-.11-.265-.281-.265-.25 0-.391.219-.422.437zm-.64 2.579c-.063.187-.063.203-.204.375-.438.546-.844.703-1.125.703-.5 0-.64-.547-.64-.938 0-.5.312-1.719.546-2.187.313-.579.75-.954 1.157-.954.64 0 .78.813.78.875a.562.562 0 0 1-.03.172z" stroke="none"/></symbol><symbol id="e" overflow="visible"><path d="M3.078-2.766c.047-.062.063-.078.063-.125C3.14-3 3.047-3 2.937-3H.454L.375-1.844h.234c.047-.734.22-.968 1-.968h.829L.328-.267c-.062.079-.062.11-.062.141C.266 0 .344 0 .469 0H3.03l.125-1.36h-.234C2.844-.53 2.703-.218 1.828-.218h-.86z" stroke="none"/></symbol></defs><use y="134.765" x="223.432" xlink:href="#d" width="744.094" height="1052.362"/><use y="136.259" x="228.698" xlink:href="#e" width="744.094" height="1052.362"/></g><g ns0:text="$a _{\\rm{y}}$" ns0:preamble="/home/waldgeist/data/sphinx/inkscape-preamble.tex" transform="matrix(3.37375 0 0 3.37375 -192.368 198.863)" fill="gray" stroke="#000"><defs><symbol overflow="visible" id="f"><path d="M3.719-3.766c-.188-.375-.469-.64-.922-.64-1.156 0-2.39 1.468-2.39 2.922C.406-.547.952.109 1.718.109c.203 0 .703-.046 1.297-.75a.91.91 0 0 0 .906.75c.36 0 .578-.234.75-.546a6.49 6.49 0 0 0 .297-.985c0-.11-.094-.11-.125-.11-.094 0-.11.048-.14.188-.173.64-.345 1.235-.75 1.235-.282 0-.298-.266-.298-.454 0-.218.016-.312.125-.75.11-.406.125-.515.219-.89l.36-1.39c.062-.282.062-.298.062-.345 0-.171-.11-.265-.281-.265-.25 0-.391.219-.422.437zm-.64 2.579c-.063.187-.063.203-.204.375-.438.546-.844.703-1.125.703-.5 0-.64-.547-.64-.938 0-.5.312-1.719.546-2.187.313-.579.75-.954 1.157-.954.64 0 .78.813.78.875a.562.562 0 0 1-.03.172z" stroke="none"/></symbol><symbol overflow="visible" id="g"><path d="M3.297-2.328c.187-.422.547-.422.656-.422V-3c-.187.016-.328.031-.531.031-.188 0-.438-.015-.625-.031v.25c.234.016.281.156.281.266 0 .078-.031.14-.062.218L2.25-.625l-.86-1.828a.252.252 0 0 1-.046-.14c0-.157.234-.157.36-.157V-3c-.11 0-.61.031-.798.031C.687-2.969.422-2.984.22-3v.25c.39 0 .469.016.562.234L1.953 0c-.062.14-.125.266-.187.406-.157.344-.375.813-.86.813-.172 0-.219-.032-.297-.078.016 0 .204-.063.204-.297A.287.287 0 0 0 .516.547C.328.547.203.672.203.844c0 .328.328.578.703.578.594 0 .938-.625 1.031-.828z" stroke="none"/></symbol></defs><use height="1052.362" width="744.094" xlink:href="#f" x="223.432" y="134.765"/><use height="1052.362" width="744.094" xlink:href="#g" x="228.698" y="136.259"/></g><g transform="matrix(3.37375 0 0 3.37375 -622.234 270.598)" ns0:preamble="/home/waldgeist/data/sphinx/inkscape-preamble.tex" ns0:text="$a _{\\rm{x}}$" fill="gray" stroke="#000"><defs><symbol id="h" overflow="visible"><path d="M3.719-3.766c-.188-.375-.469-.64-.922-.64-1.156 0-2.39 1.468-2.39 2.922C.406-.547.952.109 1.718.109c.203 0 .703-.046 1.297-.75a.91.91 0 0 0 .906.75c.36 0 .578-.234.75-.546a6.49 6.49 0 0 0 .297-.985c0-.11-.094-.11-.125-.11-.094 0-.11.048-.14.188-.173.64-.345 1.235-.75 1.235-.282 0-.298-.266-.298-.454 0-.218.016-.312.125-.75.11-.406.125-.515.219-.89l.36-1.39c.062-.282.062-.298.062-.345 0-.171-.11-.265-.281-.265-.25 0-.391.219-.422.437zm-.64 2.579c-.063.187-.063.203-.204.375-.438.546-.844.703-1.125.703-.5 0-.64-.547-.64-.938 0-.5.312-1.719.546-2.187.313-.579.75-.954 1.157-.954.64 0 .78.813.78.875a.562.562 0 0 1-.03.172z" stroke="none"/></symbol><symbol id="i" overflow="visible"><path d="M2.36-1.563l-.047-.062c0-.031.453-.516.515-.578.25-.281.485-.547 1.047-.547V-3c-.203.016-.406.031-.594.031-.203 0-.484-.015-.687-.031v.25c.11.016.14.094.14.156 0 .016 0 .125-.109.235l-.484.546-.579-.656c-.078-.078-.078-.11-.078-.14 0-.094.094-.141.188-.141V-3c-.25.016-.516.031-.781.031-.204 0-.47-.015-.672-.031v.25c.312 0 .5 0 .687.203l.86 1c.015.016.062.063.062.078 0 .016-.531.594-.594.672-.265.281-.5.531-1.046.547V0C.39-.016.546-.031.765-.031c.203 0 .484.015.687.031v-.25c-.078-.016-.14-.063-.14-.156 0-.14.078-.235.187-.344l.5-.547.594.703c.14.14.14.156.14.203 0 .125-.156.141-.187.141V0c.062 0 .562-.031.781-.031.219 0 .453.015.672.031v-.25c-.469 0-.516-.047-.688-.219z" stroke="none"/></symbol></defs><use y="134.765" x="223.432" xlink:href="#h" width="744.094" height="1052.362"/><use y="136.259" x="228.698" xlink:href="#i" width="744.094" height="1052.362"/></g><path d="M466.44 404.605L288.993 301.103" fill="none" stroke="#ccc" stroke-width="3" stroke-linecap="round" stroke-dasharray="2.99999976,5.99999952"/><g ns0:text="$\\rm{O}$" ns0:preamble="/home/waldgeist/data/sphinx/inkscape-preamble.tex" transform="matrix(3.37375 0 0 3.37375 -499.624 173.446)" fill="gray" stroke="#000"><defs><symbol overflow="visible" id="j"><path d="M7.188-3.375c0-2.031-1.5-3.656-3.313-3.656-1.797 0-3.313 1.593-3.313 3.656C.563-1.328 2.095.219 3.876.219c1.813 0 3.313-1.578 3.313-3.594zM3.874-.047c-.953 0-2.297-.875-2.297-3.469 0-2.578 1.469-3.265 2.297-3.265.86 0 2.281.703 2.281 3.265 0 2.641-1.36 3.47-2.281 3.47z" stroke="none"/></symbol></defs><use height="1052.362" width="744.094" xlink:href="#j" x="223.432" y="134.765"/></g><path d="M461.68 399.844l9.522 9.522" fill="none" stroke="gray" stroke-width="3" stroke-linecap="round"/><g fill="none" stroke="gray" stroke-width="3" stroke-linecap="round"><path d="M471.202 399.844l-9.523 9.522M461.68 399.844l9.522 9.522"/></g><path d="M288.992 618.527L464.085 406.84" fill="none" stroke="#00f" stroke-width="3" stroke-linecap="round" marker-end="url(#k)"/><g transform="matrix(3.37375 0 0 3.37375 -275.637 -42.467)" ns0:preamble="/home/waldgeist/data/sphinx/inkscape-preamble.tex" ns0:text="$\\rm{A} (a _{\\rm{x}} \\, , \\, a _{\\rm{y}} \\, , \\, a _{\\rm{z}})$" fill="gray" stroke="gray"><defs><symbol id="l" overflow="visible"><path d="M3.969-6.938c-.047-.125-.078-.203-.235-.203-.156 0-.187.063-.234.204L1.437-.984C1.25-.47.86-.313.313-.313V0c.235-.016.672-.031 1.016-.031.313 0 .828.015 1.156.031v-.313c-.5 0-.75-.25-.75-.5 0-.03.016-.14.016-.156l.469-1.297h2.453L5.203-.75a.58.58 0 0 1 .031.14c0 .297-.562.297-.828.297V0c.36-.031 1.063-.031 1.438-.031.422 0 .89.015 1.297.031v-.313h-.172c-.594 0-.735-.062-.844-.39zm-.531 1.11l1.124 3.25H2.329z" stroke="none"/></symbol><symbol id="m" overflow="visible"><path d="M3.297 2.39c0-.03 0-.046-.172-.218C1.891.922 1.562-.968 1.562-2.5c0-1.734.375-3.469 1.61-4.703.125-.125.125-.14.125-.172 0-.078-.031-.11-.094-.11-.11 0-1 .688-1.594 1.954C1.11-4.438.984-3.328.984-2.5c0 .781.11 1.984.657 3.125C2.25 1.844 3.094 2.5 3.203 2.5c.063 0 .094-.031.094-.11z" stroke="none"/></symbol><symbol id="n" overflow="visible"><path d="M3.313-.75c.046.39.312.813.78.813.22 0 .829-.141.829-.954v-.562h-.25v.562c0 .579-.25.641-.36.641-.328 0-.375-.453-.375-.5v-1.984c0-.422 0-.813-.359-1.188-.39-.39-.89-.547-1.36-.547-.827 0-1.515.469-1.515 1.125 0 .297.203.469.469.469a.435.435 0 0 0 .453-.453c0-.125-.047-.453-.516-.453.282-.36.766-.469 1.079-.469.5 0 1.062.39 1.062 1.281v.36c-.516.03-1.203.062-1.828.359-.75.344-1 .86-1 1.297 0 .812.969 1.062 1.594 1.062.656 0 1.109-.406 1.296-.859zM3.25-2.39v1c0 .937-.719 1.28-1.172 1.28-.484 0-.89-.343-.89-.843 0-.547.421-1.375 2.062-1.438z" stroke="none"/></symbol><symbol id="s" overflow="visible"><path d="M2.875-2.5c0-.766-.11-1.969-.656-3.11C1.625-6.827.766-7.483.672-7.483a.107.107 0 0 0-.11.109c0 .031 0 .047.188.234.984.985 1.547 2.563 1.547 4.641 0 1.719-.36 3.469-1.594 4.719-.14.125-.14.14-.14.172 0 .062.046.109.109.109.094 0 1-.688 1.578-1.953.516-1.094.625-2.203.625-3.047z" stroke="none"/></symbol><symbol id="o" overflow="visible"><path d="M2.36-1.563l-.047-.062c0-.031.453-.516.515-.578.25-.281.485-.547 1.047-.547V-3c-.203.016-.406.031-.594.031-.203 0-.484-.015-.687-.031v.25c.11.016.14.094.14.156 0 .016 0 .125-.109.235l-.484.546-.579-.656c-.078-.078-.078-.11-.078-.14 0-.094.094-.141.188-.141V-3c-.25.016-.516.031-.781.031-.204 0-.47-.015-.672-.031v.25c.312 0 .5 0 .687.203l.86 1c.015.016.062.063.062.078 0 .016-.531.594-.594.672-.265.281-.5.531-1.046.547V0C.39-.016.546-.031.765-.031c.203 0 .484.015.687.031v-.25c-.078-.016-.14-.063-.14-.156 0-.14.078-.235.187-.344l.5-.547.594.703c.14.14.14.156.14.203 0 .125-.156.141-.187.141V0c.062 0 .562-.031.781-.031.219 0 .453.015.672.031v-.25c-.469 0-.516-.047-.688-.219z" stroke="none"/></symbol><symbol id="q" overflow="visible"><path d="M3.297-2.328c.187-.422.547-.422.656-.422V-3c-.187.016-.328.031-.531.031-.188 0-.438-.015-.625-.031v.25c.234.016.281.156.281.266 0 .078-.031.14-.062.218L2.25-.625l-.86-1.828a.252.252 0 0 1-.046-.14c0-.157.234-.157.36-.157V-3c-.11 0-.61.031-.798.031C.687-2.969.422-2.984.22-3v.25c.39 0 .469.016.562.234L1.953 0c-.062.14-.125.266-.187.406-.157.344-.375.813-.86.813-.172 0-.219-.032-.297-.078.016 0 .204-.063.204-.297A.287.287 0 0 0 .516.547C.328.547.203.672.203.844c0 .328.328.578.703.578.594 0 .938-.625 1.031-.828z" stroke="none"/></symbol><symbol id="r" overflow="visible"><path d="M3.078-2.766c.047-.062.063-.078.063-.125C3.14-3 3.047-3 2.937-3H.454L.375-1.844h.234c.047-.734.22-.968 1-.968h.829L.328-.267c-.062.079-.062.11-.062.141C.266 0 .344 0 .469 0H3.03l.125-1.36h-.234C2.844-.53 2.703-.218 1.828-.218h-.86z" stroke="none"/></symbol><symbol id="p" overflow="visible"><path d="M2.031-.016c0-.656-.25-1.046-.64-1.046a.517.517 0 0 0-.532.53c0 .266.204.532.532.532a.58.58 0 0 0 .343-.125c.032-.031.047-.031.047-.031.016 0 .016 0 .016.14 0 .75-.344 1.344-.672 1.672-.11.11-.11.125-.11.157 0 .078.048.109.094.109.11 0 .922-.766.922-1.938z" stroke="none"/></symbol></defs><use y="134.765" x="223.432" xlink:href="#l" width="744.094" height="1052.362"/><use y="134.765" x="230.904" xlink:href="#m" width="744.094" height="1052.362"/><use y="134.765" x="234.778" xlink:href="#n" width="744.094" height="1052.362"/><use y="136.259" x="239.76" xlink:href="#o" width="744.094" height="1052.362"/><use y="134.765" x="246.104" xlink:href="#p" width="744.094" height="1052.362"/><use y="134.765" x="252.192" xlink:href="#n" width="744.094" height="1052.362"/><use y="136.259" x="257.174" xlink:href="#q" width="744.094" height="1052.362"/><use y="134.765" x="263.625" xlink:href="#p" width="744.094" height="1052.362"/><use y="134.765" x="269.713" xlink:href="#n" width="744.094" height="1052.362"/><g><use y="136.259" x="274.695" xlink:href="#r" width="744.094" height="1052.362"/></g><g><use y="134.765" x="278.735" xlink:href="#s" width="744.094" height="1052.362"/></g></g></svg>