<?xml version="1.0" encoding="UTF-8" standalone="no"?>
<!-- Created with Inkscape (http://www.inkscape.org/) -->

<svg
   xmlns:ns0="http://www.iki.fi/pav/software/textext/"
   xmlns:dc="http://purl.org/dc/elements/1.1/"
   xmlns:cc="http://creativecommons.org/ns#"
   xmlns:rdf="http://www.w3.org/1999/02/22-rdf-syntax-ns#"
   xmlns:svg="http://www.w3.org/2000/svg"
   xmlns="http://www.w3.org/2000/svg"
   xmlns:xlink="http://www.w3.org/1999/xlink"
   xmlns:sodipodi="http://sodipodi.sourceforge.net/DTD/sodipodi-0.dtd"
   xmlns:inkscape="http://www.inkscape.org/namespaces/inkscape"
   width="210mm"
   height="297mm"
   id="svg2"
   version="1.1"
   inkscape:version="0.48.3.1 r9886"
   sodipodi:docname="ortsvektor.svg.2013_09_25_05_09_18.0.svg">
  <title
     id="title6696">Ortsvektor</title>
  <sodipodi:namedview
     id="base"
     pagecolor="#ffffff"
     bordercolor="#666666"
     borderopacity="1.0"
     inkscape:pageopacity="0.0"
     inkscape:pageshadow="2"
     inkscape:zoom="0.74632912"
     inkscape:cx="435.5379"
     inkscape:cy="477.79349"
     inkscape:document-units="px"
     inkscape:current-layer="layer1"
     showgrid="false"
     inkscape:object-paths="true"
     inkscape:object-nodes="true"
     inkscape:snap-midpoints="true"
     inkscape:snap-smooth-nodes="true"
     inkscape:snap-object-midpoints="true"
     inkscape:snap-center="true"
     inkscape:snap-page="true"
     inkscape:snap-global="true"
     inkscape:window-width="1280"
     inkscape:window-height="974"
     inkscape:window-x="0"
     inkscape:window-y="0"
     inkscape:window-maximized="1"
     showguides="false"
     inkscape:guide-bbox="true">
    <sodipodi:guide
       orientation="1,0"
       position="484.09931,527.72761"
       id="guide6090" />
  </sodipodi:namedview>
  <defs
     id="defs4">
    <marker
       inkscape:stockid="Arrow2Mend"
       orient="auto"
       refY="0.0"
       refX="0.0"
       id="Arrow2Mend"
       style="overflow:visible;">
      <path
         id="path3786"
         style="fill-rule:evenodd;stroke-width:0.62500000;stroke-linejoin:round;"
         d="M 8.7185878,4.0337352 L -2.2072895,0.016013256 L 8.7185884,-4.0017078 C 6.9730900,-1.6296469 6.9831476,1.6157441 8.7185878,4.0337352 z "
         transform="scale(0.6) rotate(180) translate(0,0)" />
    </marker>
  </defs>
  <metadata
     id="metadata7">
    <rdf:RDF>
      <cc:Work
         rdf:about="">
        <dc:format>image/svg+xml</dc:format>
        <dc:type
           rdf:resource="http://purl.org/dc/dcmitype/StillImage" />
        <dc:title>Ortsvektor</dc:title>
        <dc:date>2013-09-25</dc:date>
        <dc:creator>
          <cc:Agent>
            <dc:title>Bernhard Grotz</dc:title>
          </cc:Agent>
        </dc:creator>
        <dc:rights>
          <cc:Agent>
            <dc:title>Bernhard Grotz</dc:title>
          </cc:Agent>
        </dc:rights>
        <dc:publisher>
          <cc:Agent>
            <dc:title>Bernhard Grotz</dc:title>
          </cc:Agent>
        </dc:publisher>
        <dc:language>de_DE</dc:language>
        <dc:subject>
          <rdf:Bag>
            <rdf:li>Mathematik</rdf:li>
            <rdf:li>Geometrie</rdf:li>
            <rdf:li>Ortsvektor</rdf:li>
            <rdf:li>Vektor</rdf:li>
          </rdf:Bag>
        </dc:subject>
        <cc:license
           rdf:resource="http://creativecommons.org/licenses/by-nc-sa/3.0/" />
      </cc:Work>
      <cc:License
         rdf:about="http://creativecommons.org/licenses/by-nc-sa/3.0/">
        <cc:permits
           rdf:resource="http://creativecommons.org/ns#Reproduction" />
        <cc:permits
           rdf:resource="http://creativecommons.org/ns#Distribution" />
        <cc:requires
           rdf:resource="http://creativecommons.org/ns#Notice" />
        <cc:requires
           rdf:resource="http://creativecommons.org/ns#Attribution" />
        <cc:prohibits
           rdf:resource="http://creativecommons.org/ns#CommercialUse" />
        <cc:permits
           rdf:resource="http://creativecommons.org/ns#DerivativeWorks" />
        <cc:requires
           rdf:resource="http://creativecommons.org/ns#ShareAlike" />
      </cc:License>
    </rdf:RDF>
  </metadata>
  <g
     inkscape:label="Ebene 1"
     inkscape:groupmode="layer"
     id="layer1">
    <rect
       style="color:#000000;fill:#ffffff;fill-opacity:1;fill-rule:nonzero;stroke:#ffffff;stroke-width:2.99999976;stroke-linecap:round;stroke-linejoin:round;stroke-miterlimit:4;stroke-opacity:1;stroke-dasharray:none;stroke-dashoffset:0;marker:none;visibility:visible;display:inline;overflow:visible;enable-background:accumulate"
       id="rect6088"
       width="696.72217"
       height="603.93213"
       x="28.249975"
       y="224.21504"
       ry="2.7846704"
       inkscape:export-filename="/home/waldgeist/data/pics/Homepage/mathematik/geometrie/ortsvektor.png"
       inkscape:export-xdpi="150"
       inkscape:export-ydpi="150" />
    <path
       style="fill:none;stroke:#000000;stroke-width:2.99999976;stroke-linecap:round;stroke-linejoin:miter;stroke-miterlimit:4;stroke-opacity:1;stroke-dasharray:none;marker-end:url(#Arrow2Mend)"
       d="m 288.99165,618.52742 0,-355.96542"
       id="path2985"
       inkscape:connector-curvature="0"
       inkscape:export-filename="/home/waldgeist/data/pics/Homepage/mathematik/geometrie/ortsvektor.png"
       inkscape:export-xdpi="150"
       inkscape:export-ydpi="150" />
    <path
       inkscape:connector-curvature="0"
       id="path4199"
       d="m 288.99165,618.52741 337.34306,0"
       style="fill:none;stroke:#000000;stroke-width:2.99999976;stroke-linecap:round;stroke-linejoin:miter;stroke-miterlimit:4;stroke-opacity:1;stroke-dasharray:none;marker-end:url(#Arrow2Mend)"
       inkscape:export-filename="/home/waldgeist/data/pics/Homepage/mathematik/geometrie/ortsvektor.png"
       inkscape:export-xdpi="150"
       inkscape:export-ydpi="150" />
    <path
       inkscape:connector-curvature="0"
       id="path4201"
       d="M 288.99165,618.52743 116.57569,790.94351"
       style="fill:none;stroke:#000000;stroke-width:2.99999976;stroke-linecap:round;stroke-linejoin:miter;stroke-miterlimit:4;stroke-opacity:1;stroke-dasharray:none;marker-end:url(#Arrow2Mend)"
       inkscape:export-filename="/home/waldgeist/data/pics/Homepage/mathematik/geometrie/ortsvektor.png"
       inkscape:export-xdpi="150"
       inkscape:export-ydpi="150" />
    <path
       style="fill:none;stroke:#808080;stroke-width:2.99999976;stroke-linecap:round;stroke-linejoin:miter;stroke-miterlimit:4;stroke-opacity:1;stroke-dasharray:2.99999977, 5.99999955;stroke-dashoffset:0;marker-end:none"
       d="m 185.12498,722.39413 281.31564,0"
       id="path4203"
       inkscape:connector-curvature="0"
       inkscape:export-filename="/home/waldgeist/data/pics/Homepage/mathematik/geometrie/ortsvektor.png"
       inkscape:export-xdpi="150"
       inkscape:export-ydpi="150" />
    <path
       inkscape:connector-curvature="0"
       id="path4387"
       d="M 570.30735,618.52741 466.44062,722.39413"
       style="fill:none;stroke:#808080;stroke-width:2.99999976;stroke-linecap:round;stroke-linejoin:miter;stroke-miterlimit:4;stroke-opacity:1;stroke-dasharray:2.99999978, 5.99999955;stroke-dashoffset:0;marker-end:none"
       inkscape:export-filename="/home/waldgeist/data/pics/Homepage/mathematik/geometrie/ortsvektor.png"
       inkscape:export-xdpi="150"
       inkscape:export-ydpi="150" />
    <path
       inkscape:connector-curvature="0"
       id="path4389"
       d="m 570.30735,631.12277 0,-25.19071"
       style="fill:none;stroke:#808080;stroke-width:2.99999976;stroke-linecap:round;stroke-linejoin:miter;stroke-miterlimit:4;stroke-opacity:1;stroke-dasharray:none;marker-end:none"
       inkscape:export-filename="/home/waldgeist/data/pics/Homepage/mathematik/geometrie/ortsvektor.png"
       inkscape:export-xdpi="150"
       inkscape:export-ydpi="150" />
    <path
       style="fill:none;stroke:#808080;stroke-width:2.99999976;stroke-linecap:round;stroke-linejoin:miter;stroke-miterlimit:4;stroke-opacity:1;stroke-dasharray:none;marker-end:none"
       d="m 197.07581,722.34844 -25.1907,0"
       id="path4573"
       inkscape:connector-curvature="0"
       inkscape:export-filename="/home/waldgeist/data/pics/Homepage/mathematik/geometrie/ortsvektor.png"
       inkscape:export-xdpi="150"
       inkscape:export-ydpi="150" />
    <path
       inkscape:connector-curvature="0"
       id="path4575"
       d="m 466.44062,722.02969 0,-317.42449"
       style="fill:none;stroke:#808080;stroke-width:2.99999976;stroke-linecap:round;stroke-linejoin:miter;stroke-miterlimit:4;stroke-opacity:1;stroke-dasharray:2.99999977, 5.99999951;stroke-dashoffset:0;marker-end:none"
       inkscape:export-filename="/home/waldgeist/data/pics/Homepage/mathematik/geometrie/ortsvektor.png"
       inkscape:export-xdpi="150"
       inkscape:export-ydpi="150" />
    <path
       inkscape:connector-curvature="0"
       id="path5127"
       d="M 466.44062,722.02969 288.99165,618.52743"
       style="fill:none;stroke:#cccccc;stroke-width:2.99999976;stroke-linecap:round;stroke-linejoin:miter;stroke-miterlimit:4;stroke-opacity:1;stroke-dasharray:2.99999976, 5.99999952;stroke-dashoffset:0;marker-end:none"
       sodipodi:nodetypes="cc"
       inkscape:export-filename="/home/waldgeist/data/pics/Homepage/mathematik/geometrie/ortsvektor.png"
       inkscape:export-xdpi="150"
       inkscape:export-ydpi="150" />
    <path
       inkscape:connector-curvature="0"
       id="path5129"
       d="m 301.587,301.10294 -25.1907,0"
       style="fill:none;stroke:#808080;stroke-width:2.99999976;stroke-linecap:round;stroke-linejoin:miter;stroke-miterlimit:4;stroke-opacity:1;stroke-dasharray:none;marker-end:none"
       inkscape:export-filename="/home/waldgeist/data/pics/Homepage/mathematik/geometrie/ortsvektor.png"
       inkscape:export-xdpi="150"
       inkscape:export-ydpi="150" />
    <g
       ns0:text="$\\vec{a _{\\rm{}}}$"
       ns0:preamble="/home/waldgeist/data/sphinx/inkscape-preamble.tex"
       transform="matrix(3.3737494,0,0,3.3737494,-393.6342,49.362018)"
       style="fill:#0000ff;stroke:#000000;stroke-width:1"
       id="g5527"
       inkscape:export-filename="/home/waldgeist/data/pics/Homepage/mathematik/geometrie/ortsvektor.png"
       inkscape:export-xdpi="150"
       inkscape:export-ydpi="150">
      <defs
         id="defs5529">
        <g
           id="g5531">
          <symbol
             style="overflow:visible"
             overflow="visible"
             id="textext-0240160a-0">
            <path
               inkscape:connector-curvature="0"
               style="stroke:none"
               d=""
               id="path5534" />
          </symbol>
          <symbol
             style="overflow:visible"
             overflow="visible"
             id="textext-0240160a-1">
            <path
               inkscape:connector-curvature="0"
               style="stroke:none"
               d="m 5.359375,-5.9375 c -0.140625,0.140625 -0.46875,0.421875 -0.46875,0.59375 0,0.09375 0.09375,0.203125 0.1875,0.203125 0.09375,0 0.140625,-0.078125 0.203125,-0.140625 C 5.390625,-5.421875 5.625,-5.703125 6.0625,-5.921875 6.125,-5.96875 6.234375,-6.015625 6.234375,-6.125 6.234375,-6.234375 6.15625,-6.28125 6.09375,-6.328125 5.875,-6.484375 5.765625,-6.65625 5.6875,-6.890625 5.65625,-6.984375 5.625,-7.125 5.484375,-7.125 c -0.140625,0 -0.203125,0.140625 -0.203125,0.21875 0,0.046875 0.078125,0.359375 0.234375,0.578125 l -3.359375,0 c -0.15625,0 -0.34375,0 -0.34375,0.203125 0,0.1875 0.1875,0.1875 0.34375,0.1875 z"
               id="path5537" />
          </symbol>
          <symbol
             style="overflow:visible"
             overflow="visible"
             id="textext-0240160a-2">
            <path
               inkscape:connector-curvature="0"
               style="stroke:none"
               d="M 3.71875,-3.765625 C 3.53125,-4.140625 3.25,-4.40625 2.796875,-4.40625 c -1.15625,0 -2.390625,1.46875 -2.390625,2.921875 0,0.9375 0.546875,1.59375 1.3125,1.59375 0.203125,0 0.703125,-0.046875 1.296875,-0.75 0.078125,0.421875 0.4375,0.75 0.90625,0.75 0.359375,0 0.578125,-0.234375 0.75,-0.546875 0.15625,-0.359375 0.296875,-0.96875 0.296875,-0.984375 0,-0.109375 -0.09375,-0.109375 -0.125,-0.109375 -0.09375,0 -0.109375,0.046875 -0.140625,0.1875 -0.171875,0.640625 -0.34375,1.234375 -0.75,1.234375 -0.28125,0 -0.296875,-0.265625 -0.296875,-0.453125 0,-0.21875 0.015625,-0.3125 0.125,-0.75 C 3.890625,-1.71875 3.90625,-1.828125 4,-2.203125 L 4.359375,-3.59375 c 0.0625,-0.28125 0.0625,-0.296875 0.0625,-0.34375 0,-0.171875 -0.109375,-0.265625 -0.28125,-0.265625 -0.25,0 -0.390625,0.21875 -0.421875,0.4375 z M 3.078125,-1.1875 C 3.015625,-1 3.015625,-0.984375 2.875,-0.8125 2.4375,-0.265625 2.03125,-0.109375 1.75,-0.109375 c -0.5,0 -0.640625,-0.546875 -0.640625,-0.9375 0,-0.5 0.3125,-1.71875 0.546875,-2.1875 0.3125,-0.578125 0.75,-0.953125 1.15625,-0.953125 0.640625,0 0.78125,0.8125 0.78125,0.875 0,0.0625 -0.015625,0.125 -0.03125,0.171875 z"
               id="path5540" />
          </symbol>
        </g>
      </defs>
      <g
         style="fill:#0000ff;stroke-width:1"
         id="textext-0240160a-3">
        <g
           style="fill:#0000ff;fill-opacity:1;stroke-width:1"
           id="g5543">
          <use
             style="fill:#0000ff;stroke-width:1"
             height="1052.3622"
             width="744.09448"
             xlink:href="#textext-0240160a-1"
             x="223.05701"
             y="134.765"
             id="use5545" />
        </g>
        <g
           style="fill:#0000ff;fill-opacity:1;stroke-width:1"
           id="g5547">
          <use
             style="fill:#0000ff;stroke-width:1"
             height="1052.3622"
             width="744.09448"
             xlink:href="#textext-0240160a-2"
             x="223.43558"
             y="134.765"
             id="use5549" />
        </g>
      </g>
    </g>
    <g
       id="g5641"
       style="fill:#808080;stroke:#000000;stroke-width:1"
       transform="matrix(3.3737494,0,0,3.3737494,-511.76154,-147.71213)"
       ns0:preamble="/home/waldgeist/data/sphinx/inkscape-preamble.tex"
       ns0:text="$a _{\\rm{z}}$"
       inkscape:export-filename="/home/waldgeist/data/pics/Homepage/mathematik/geometrie/ortsvektor.png"
       inkscape:export-xdpi="150"
       inkscape:export-ydpi="150">
      <defs
         id="defs5643">
        <g
           id="g5645">
          <symbol
             id="textext-413581d5-0"
             overflow="visible"
             style="overflow:visible">
            <path
               id="path5648"
               d=""
               style="stroke:none"
               inkscape:connector-curvature="0" />
          </symbol>
          <symbol
             id="textext-413581d5-1"
             overflow="visible"
             style="overflow:visible">
            <path
               id="path5651"
               d="M 3.71875,-3.765625 C 3.53125,-4.140625 3.25,-4.40625 2.796875,-4.40625 c -1.15625,0 -2.390625,1.46875 -2.390625,2.921875 0,0.9375 0.546875,1.59375 1.3125,1.59375 0.203125,0 0.703125,-0.046875 1.296875,-0.75 0.078125,0.421875 0.4375,0.75 0.90625,0.75 0.359375,0 0.578125,-0.234375 0.75,-0.546875 0.15625,-0.359375 0.296875,-0.96875 0.296875,-0.984375 0,-0.109375 -0.09375,-0.109375 -0.125,-0.109375 -0.09375,0 -0.109375,0.046875 -0.140625,0.1875 -0.171875,0.640625 -0.34375,1.234375 -0.75,1.234375 -0.28125,0 -0.296875,-0.265625 -0.296875,-0.453125 0,-0.21875 0.015625,-0.3125 0.125,-0.75 C 3.890625,-1.71875 3.90625,-1.828125 4,-2.203125 L 4.359375,-3.59375 c 0.0625,-0.28125 0.0625,-0.296875 0.0625,-0.34375 0,-0.171875 -0.109375,-0.265625 -0.28125,-0.265625 -0.25,0 -0.390625,0.21875 -0.421875,0.4375 z M 3.078125,-1.1875 C 3.015625,-1 3.015625,-0.984375 2.875,-0.8125 2.4375,-0.265625 2.03125,-0.109375 1.75,-0.109375 c -0.5,0 -0.640625,-0.546875 -0.640625,-0.9375 0,-0.5 0.3125,-1.71875 0.546875,-2.1875 0.3125,-0.578125 0.75,-0.953125 1.15625,-0.953125 0.640625,0 0.78125,0.8125 0.78125,0.875 0,0.0625 -0.015625,0.125 -0.03125,0.171875 z"
               style="stroke:none"
               inkscape:connector-curvature="0" />
          </symbol>
          <symbol
             id="textext-413581d5-2"
             overflow="visible"
             style="overflow:visible">
            <path
               id="path5654"
               d=""
               style="stroke:none"
               inkscape:connector-curvature="0" />
          </symbol>
          <symbol
             id="textext-413581d5-3"
             overflow="visible"
             style="overflow:visible">
            <path
               id="path5657"
               d="m 3.078125,-2.765625 c 0.046875,-0.0625 0.0625,-0.078125 0.0625,-0.125 C 3.140625,-3 3.046875,-3 2.9375,-3 L 0.453125,-3 0.375,-1.84375 l 0.234375,0 c 0.046875,-0.734375 0.21875,-0.96875 1,-0.96875 l 0.828125,0 -2.109375,2.546875 C 0.265625,-0.1875 0.265625,-0.15625 0.265625,-0.125 0.265625,0 0.34375,0 0.46875,0 l 2.5625,0 0.125,-1.359375 -0.234375,0 C 2.84375,-0.53125 2.703125,-0.21875 1.828125,-0.21875 l -0.859375,0 z"
               style="stroke:none"
               inkscape:connector-curvature="0" />
          </symbol>
        </g>
      </defs>
      <g
         id="textext-413581d5-4"
         style="fill:#808080;stroke-width:1">
        <g
           id="g5660"
           style="fill:#808080;fill-opacity:1;stroke-width:1">
          <use
             id="use5662"
             y="134.765"
             x="223.43201"
             xlink:href="#textext-413581d5-1"
             width="744.09448"
             height="1052.3622"
             style="fill:#808080;stroke-width:1" />
        </g>
        <g
           id="g5664"
           style="fill:#808080;fill-opacity:1;stroke-width:1">
          <use
             id="use5666"
             y="136.259"
             x="228.698"
             xlink:href="#textext-413581d5-3"
             width="744.09448"
             height="1052.3622"
             style="fill:#808080;stroke-width:1" />
        </g>
      </g>
    </g>
    <g
       ns0:text="$a _{\\rm{y}}$"
       ns0:preamble="/home/waldgeist/data/sphinx/inkscape-preamble.tex"
       transform="matrix(3.3737494,0,0,3.3737494,-192.36752,198.8634)"
       style="fill:#808080;stroke:#000000;stroke-width:1"
       id="g5794"
       inkscape:export-filename="/home/waldgeist/data/pics/Homepage/mathematik/geometrie/ortsvektor.png"
       inkscape:export-xdpi="150"
       inkscape:export-ydpi="150">
      <defs
         id="defs5796">
        <g
           id="g5798">
          <symbol
             style="overflow:visible"
             overflow="visible"
             id="textext-fdf122d5-0">
            <path
               inkscape:connector-curvature="0"
               style="stroke:none"
               d=""
               id="path5801" />
          </symbol>
          <symbol
             style="overflow:visible"
             overflow="visible"
             id="textext-fdf122d5-1">
            <path
               inkscape:connector-curvature="0"
               style="stroke:none"
               d="M 3.71875,-3.765625 C 3.53125,-4.140625 3.25,-4.40625 2.796875,-4.40625 c -1.15625,0 -2.390625,1.46875 -2.390625,2.921875 0,0.9375 0.546875,1.59375 1.3125,1.59375 0.203125,0 0.703125,-0.046875 1.296875,-0.75 0.078125,0.421875 0.4375,0.75 0.90625,0.75 0.359375,0 0.578125,-0.234375 0.75,-0.546875 0.15625,-0.359375 0.296875,-0.96875 0.296875,-0.984375 0,-0.109375 -0.09375,-0.109375 -0.125,-0.109375 -0.09375,0 -0.109375,0.046875 -0.140625,0.1875 -0.171875,0.640625 -0.34375,1.234375 -0.75,1.234375 -0.28125,0 -0.296875,-0.265625 -0.296875,-0.453125 0,-0.21875 0.015625,-0.3125 0.125,-0.75 C 3.890625,-1.71875 3.90625,-1.828125 4,-2.203125 L 4.359375,-3.59375 c 0.0625,-0.28125 0.0625,-0.296875 0.0625,-0.34375 0,-0.171875 -0.109375,-0.265625 -0.28125,-0.265625 -0.25,0 -0.390625,0.21875 -0.421875,0.4375 z M 3.078125,-1.1875 C 3.015625,-1 3.015625,-0.984375 2.875,-0.8125 2.4375,-0.265625 2.03125,-0.109375 1.75,-0.109375 c -0.5,0 -0.640625,-0.546875 -0.640625,-0.9375 0,-0.5 0.3125,-1.71875 0.546875,-2.1875 0.3125,-0.578125 0.75,-0.953125 1.15625,-0.953125 0.640625,0 0.78125,0.8125 0.78125,0.875 0,0.0625 -0.015625,0.125 -0.03125,0.171875 z"
               id="path5804" />
          </symbol>
          <symbol
             style="overflow:visible"
             overflow="visible"
             id="textext-fdf122d5-2">
            <path
               inkscape:connector-curvature="0"
               style="stroke:none"
               d=""
               id="path5807" />
          </symbol>
          <symbol
             style="overflow:visible"
             overflow="visible"
             id="textext-fdf122d5-3">
            <path
               inkscape:connector-curvature="0"
               style="stroke:none"
               d="M 3.296875,-2.328125 C 3.484375,-2.75 3.84375,-2.75 3.953125,-2.75 l 0,-0.25 c -0.1875,0.015625 -0.328125,0.03125 -0.53125,0.03125 -0.1875,0 -0.4375,-0.015625 -0.625,-0.03125 l 0,0.25 c 0.234375,0.015625 0.28125,0.15625 0.28125,0.265625 0,0.078125 -0.03125,0.140625 -0.0625,0.21875 L 2.25,-0.625 1.390625,-2.453125 C 1.359375,-2.5 1.34375,-2.546875 1.34375,-2.59375 1.34375,-2.75 1.578125,-2.75 1.703125,-2.75 l 0,-0.25 C 1.59375,-3 1.09375,-2.96875 0.90625,-2.96875 0.6875,-2.96875 0.421875,-2.984375 0.21875,-3 l 0,0.25 c 0.390625,0 0.46875,0.015625 0.5625,0.234375 L 1.953125,0 c -0.0625,0.140625 -0.125,0.265625 -0.1875,0.40625 -0.15625,0.34375 -0.375,0.8125 -0.859375,0.8125 -0.171875,0 -0.21875,-0.03125 -0.296875,-0.078125 0.015625,0 0.203125,-0.0625 0.203125,-0.296875 0,-0.171875 -0.125,-0.296875 -0.296875,-0.296875 -0.1875,0 -0.3125,0.125 -0.3125,0.296875 0,0.328125 0.328125,0.578125 0.703125,0.578125 0.59375,0 0.9375,-0.625 1.03125,-0.828125 z"
               id="path5810" />
          </symbol>
        </g>
      </defs>
      <g
         style="fill:#808080;stroke-width:1"
         id="textext-fdf122d5-4">
        <g
           style="fill:#808080;fill-opacity:1;stroke-width:1"
           id="g5813">
          <use
             style="fill:#808080;stroke-width:1"
             height="1052.3622"
             width="744.09448"
             xlink:href="#textext-fdf122d5-1"
             x="223.43201"
             y="134.765"
             id="use5815" />
        </g>
        <g
           style="fill:#808080;fill-opacity:1;stroke-width:1"
           id="g5817">
          <use
             style="fill:#808080;stroke-width:1"
             height="1052.3622"
             width="744.09448"
             xlink:href="#textext-fdf122d5-3"
             x="228.698"
             y="136.259"
             id="use5819" />
        </g>
      </g>
    </g>
    <g
       id="g5979"
       style="fill:#808080;stroke:#000000;stroke-width:1"
       transform="matrix(3.3737494,0,0,3.3737494,-622.23435,270.5977)"
       ns0:preamble="/home/waldgeist/data/sphinx/inkscape-preamble.tex"
       ns0:text="$a _{\\rm{x}}$"
       inkscape:export-filename="/home/waldgeist/data/pics/Homepage/mathematik/geometrie/ortsvektor.png"
       inkscape:export-xdpi="150"
       inkscape:export-ydpi="150">
      <defs
         id="defs5981">
        <g
           id="g5983">
          <symbol
             id="textext-94fcb0c7-0"
             overflow="visible"
             style="overflow:visible">
            <path
               id="path5986"
               d=""
               style="stroke:none"
               inkscape:connector-curvature="0" />
          </symbol>
          <symbol
             id="textext-94fcb0c7-1"
             overflow="visible"
             style="overflow:visible">
            <path
               id="path5989"
               d="M 3.71875,-3.765625 C 3.53125,-4.140625 3.25,-4.40625 2.796875,-4.40625 c -1.15625,0 -2.390625,1.46875 -2.390625,2.921875 0,0.9375 0.546875,1.59375 1.3125,1.59375 0.203125,0 0.703125,-0.046875 1.296875,-0.75 0.078125,0.421875 0.4375,0.75 0.90625,0.75 0.359375,0 0.578125,-0.234375 0.75,-0.546875 0.15625,-0.359375 0.296875,-0.96875 0.296875,-0.984375 0,-0.109375 -0.09375,-0.109375 -0.125,-0.109375 -0.09375,0 -0.109375,0.046875 -0.140625,0.1875 -0.171875,0.640625 -0.34375,1.234375 -0.75,1.234375 -0.28125,0 -0.296875,-0.265625 -0.296875,-0.453125 0,-0.21875 0.015625,-0.3125 0.125,-0.75 C 3.890625,-1.71875 3.90625,-1.828125 4,-2.203125 L 4.359375,-3.59375 c 0.0625,-0.28125 0.0625,-0.296875 0.0625,-0.34375 0,-0.171875 -0.109375,-0.265625 -0.28125,-0.265625 -0.25,0 -0.390625,0.21875 -0.421875,0.4375 z M 3.078125,-1.1875 C 3.015625,-1 3.015625,-0.984375 2.875,-0.8125 2.4375,-0.265625 2.03125,-0.109375 1.75,-0.109375 c -0.5,0 -0.640625,-0.546875 -0.640625,-0.9375 0,-0.5 0.3125,-1.71875 0.546875,-2.1875 0.3125,-0.578125 0.75,-0.953125 1.15625,-0.953125 0.640625,0 0.78125,0.8125 0.78125,0.875 0,0.0625 -0.015625,0.125 -0.03125,0.171875 z"
               style="stroke:none"
               inkscape:connector-curvature="0" />
          </symbol>
          <symbol
             id="textext-94fcb0c7-2"
             overflow="visible"
             style="overflow:visible">
            <path
               id="path5992"
               d=""
               style="stroke:none"
               inkscape:connector-curvature="0" />
          </symbol>
          <symbol
             id="textext-94fcb0c7-3"
             overflow="visible"
             style="overflow:visible">
            <path
               id="path5995"
               d="m 2.359375,-1.5625 c 0,0 -0.046875,-0.0625 -0.046875,-0.0625 0,-0.03125 0.453125,-0.515625 0.515625,-0.578125 C 3.078125,-2.484375 3.3125,-2.75 3.875,-2.75 l 0,-0.25 C 3.671875,-2.984375 3.46875,-2.96875 3.28125,-2.96875 3.078125,-2.96875 2.796875,-2.984375 2.59375,-3 l 0,0.25 c 0.109375,0.015625 0.140625,0.09375 0.140625,0.15625 0,0.015625 0,0.125 -0.109375,0.234375 L 2.140625,-1.8125 1.5625,-2.46875 C 1.484375,-2.546875 1.484375,-2.578125 1.484375,-2.609375 c 0,-0.09375 0.09375,-0.140625 0.1875,-0.140625 l 0,-0.25 c -0.25,0.015625 -0.515625,0.03125 -0.78125,0.03125 C 0.6875,-2.96875 0.421875,-2.984375 0.21875,-3 l 0,0.25 c 0.3125,0 0.5,0 0.6875,0.203125 l 0.859375,1 c 0.015625,0.015625 0.0625,0.0625 0.0625,0.078125 0,0.015625 -0.53125,0.59375 -0.59375,0.671875 -0.265625,0.28125 -0.5,0.53125 -1.046875,0.546875 l 0,0.25 C 0.390625,-0.015625 0.546875,-0.03125 0.765625,-0.03125 0.96875,-0.03125 1.25,-0.015625 1.453125,0 l 0,-0.25 C 1.375,-0.265625 1.3125,-0.3125 1.3125,-0.40625 1.3125,-0.546875 1.390625,-0.640625 1.5,-0.75 L 2,-1.296875 2.59375,-0.59375 c 0.140625,0.140625 0.140625,0.15625 0.140625,0.203125 0,0.125 -0.15625,0.140625 -0.1875,0.140625 l 0,0.25 c 0.0625,0 0.5625,-0.03125 0.78125,-0.03125 C 3.546875,-0.03125 3.78125,-0.015625 4,0 l 0,-0.25 c -0.46875,0 -0.515625,-0.046875 -0.6875,-0.21875 z"
               style="stroke:none"
               inkscape:connector-curvature="0" />
          </symbol>
        </g>
      </defs>
      <g
         id="textext-94fcb0c7-4"
         style="fill:#808080;stroke-width:1">
        <g
           id="g5998"
           style="fill:#808080;fill-opacity:1;stroke-width:1">
          <use
             id="use6000"
             y="134.765"
             x="223.43201"
             xlink:href="#textext-94fcb0c7-1"
             style="fill:#808080;stroke-width:1"
             width="744.09448"
             height="1052.3622" />
        </g>
        <g
           id="g6002"
           style="fill:#808080;fill-opacity:1;stroke-width:1">
          <use
             id="use6004"
             y="136.259"
             x="228.698"
             xlink:href="#textext-94fcb0c7-3"
             style="fill:#808080;stroke-width:1"
             width="744.09448"
             height="1052.3622" />
        </g>
      </g>
    </g>
    <path
       sodipodi:nodetypes="cc"
       style="fill:none;stroke:#cccccc;stroke-width:2.99999976;stroke-linecap:round;stroke-linejoin:miter;stroke-miterlimit:4;stroke-opacity:1;stroke-dasharray:2.99999976, 5.99999952;stroke-dashoffset:0;marker-end:none"
       d="M 466.44062,404.6052 288.99165,301.10294"
       id="path6094"
       inkscape:connector-curvature="0"
       inkscape:export-filename="/home/waldgeist/data/pics/Homepage/mathematik/geometrie/ortsvektor.png"
       inkscape:export-xdpi="150"
       inkscape:export-ydpi="150" />
    <g
       ns0:text="$\\rm{O}$"
       ns0:preamble="/home/waldgeist/data/sphinx/inkscape-preamble.tex"
       transform="matrix(3.3737494,0,0,3.3737494,-499.62445,173.44573)"
       style="fill:#808080;stroke:#000000;stroke-width:1"
       id="g6211"
       inkscape:export-filename="/home/waldgeist/data/pics/Homepage/mathematik/geometrie/ortsvektor.png"
       inkscape:export-xdpi="150"
       inkscape:export-ydpi="150">
      <defs
         id="defs6213">
        <g
           id="g6215">
          <symbol
             style="overflow:visible"
             overflow="visible"
             id="textext-dd829adb-0">
            <path
               inkscape:connector-curvature="0"
               style="stroke:none"
               d=""
               id="path6218" />
          </symbol>
          <symbol
             style="overflow:visible"
             overflow="visible"
             id="textext-dd829adb-1">
            <path
               inkscape:connector-curvature="0"
               style="stroke:none"
               d="m 7.1875,-3.375 c 0,-2.03125 -1.5,-3.65625 -3.3125,-3.65625 -1.796875,0 -3.3125,1.59375 -3.3125,3.65625 0,2.046875 1.53125,3.59375 3.3125,3.59375 1.8125,0 3.3125,-1.578125 3.3125,-3.59375 z M 3.875,-0.046875 c -0.953125,0 -2.296875,-0.875 -2.296875,-3.46875 0,-2.578125 1.46875,-3.265625 2.296875,-3.265625 0.859375,0 2.28125,0.703125 2.28125,3.265625 0,2.640625 -1.359375,3.46875 -2.28125,3.46875 z"
               id="path6221" />
          </symbol>
        </g>
      </defs>
      <g
         style="fill:#808080;stroke-width:1"
         id="textext-dd829adb-2">
        <g
           style="fill:#808080;fill-opacity:1;stroke-width:1"
           id="g6224">
          <use
             style="fill:#808080;stroke-width:1"
             height="1052.3622"
             width="744.09448"
             xlink:href="#textext-dd829adb-1"
             x="223.43201"
             y="134.765"
             id="use6226" />
        </g>
      </g>
    </g>
    <path
       style="fill:none;stroke:#808080;stroke-width:2.99999952;stroke-linecap:round;stroke-linejoin:miter;stroke-miterlimit:4;stroke-opacity:1;stroke-dasharray:none;marker-end:none"
       d="m 461.67945,399.84402 9.52235,9.52237"
       id="path6344"
       inkscape:connector-curvature="0"
       inkscape:export-filename="/home/waldgeist/data/pics/Homepage/mathematik/geometrie/ortsvektor.png"
       inkscape:export-xdpi="150"
       inkscape:export-ydpi="150" />
    <g
       id="g6686"
       inkscape:export-filename="/home/waldgeist/data/pics/Homepage/mathematik/geometrie/ortsvektor.png"
       inkscape:export-xdpi="150"
       inkscape:export-ydpi="150"
       transform="translate(-17.658685,26.96962)">
      <path
         style="fill:none;stroke:#808080;stroke-width:2.99999952;stroke-linecap:round;stroke-linejoin:miter;stroke-miterlimit:4;stroke-opacity:1;stroke-dasharray:none;marker-end:none"
         d="m 488.86049,372.87439 -9.52235,9.52237"
         id="path6342"
         inkscape:connector-curvature="0" />
      <path
         style="fill:none;stroke:#808080;stroke-width:2.99999952;stroke-linecap:round;stroke-linejoin:miter;stroke-miterlimit:4;stroke-opacity:1;stroke-dasharray:none;marker-end:none"
         d="m 479.33814,372.87439 9.52235,9.52237"
         id="path6684"
         inkscape:connector-curvature="0" />
    </g>
    <path
       inkscape:connector-curvature="0"
       id="path5123"
       d="M 288.99165,618.52741 464.08547,406.83893"
       style="fill:none;stroke:#0000ff;stroke-width:2.99999976;stroke-linecap:round;stroke-linejoin:miter;stroke-miterlimit:4;stroke-opacity:1;stroke-dasharray:none;marker-end:url(#Arrow2Mend)"
       sodipodi:nodetypes="cc"
       inkscape:export-filename="/home/waldgeist/data/pics/Homepage/mathematik/geometrie/ortsvektor.png"
       inkscape:export-xdpi="150"
       inkscape:export-ydpi="150" />
    <g
       id="g6463"
       style="fill:#808080;stroke:#808080;stroke-width:1"
       transform="matrix(3.3737494,0,0,3.3737494,-275.63689,-42.466932)"
       ns0:preamble="/home/waldgeist/data/sphinx/inkscape-preamble.tex"
       ns0:text="$\\rm{A} (a _{\\rm{x}} \\, , \\, a _{\\rm{y}} \\, , \\, a _{\\rm{z}})$"
       inkscape:export-filename="/home/waldgeist/data/pics/Homepage/mathematik/geometrie/ortsvektor.png"
       inkscape:export-xdpi="150"
       inkscape:export-ydpi="150">
      <defs
         id="defs6465">
        <g
           id="g6467">
          <symbol
             id="textext-c2466667-0"
             overflow="visible"
             style="overflow:visible">
            <path
               id="path6470"
               d=""
               style="stroke:none"
               inkscape:connector-curvature="0" />
          </symbol>
          <symbol
             id="textext-c2466667-1"
             overflow="visible"
             style="overflow:visible">
            <path
               id="path6473"
               d="m 3.96875,-6.9375 c -0.046875,-0.125 -0.078125,-0.203125 -0.234375,-0.203125 -0.15625,0 -0.1875,0.0625 -0.234375,0.203125 L 1.4375,-0.984375 C 1.25,-0.46875 0.859375,-0.3125 0.3125,-0.3125 l 0,0.3125 c 0.234375,-0.015625 0.671875,-0.03125 1.015625,-0.03125 0.3125,0 0.828125,0.015625 1.15625,0.03125 l 0,-0.3125 c -0.5,0 -0.75,-0.25 -0.75,-0.5 0,-0.03125 0.015625,-0.140625 0.015625,-0.15625 l 0.46875,-1.296875 2.453125,0 0.53125,1.515625 c 0.015625,0.046875 0.03125,0.109375 0.03125,0.140625 0,0.296875 -0.5625,0.296875 -0.828125,0.296875 l 0,0.3125 c 0.359375,-0.03125 1.0625,-0.03125 1.4375,-0.03125 0.421875,0 0.890625,0.015625 1.296875,0.03125 l 0,-0.3125 -0.171875,0 C 6.375,-0.3125 6.234375,-0.375 6.125,-0.703125 z m -0.53125,1.109375 1.125,3.25 -2.234375,0 z"
               style="stroke:none"
               inkscape:connector-curvature="0" />
          </symbol>
          <symbol
             id="textext-c2466667-2"
             overflow="visible"
             style="overflow:visible">
            <path
               id="path6476"
               d="m 3.296875,2.390625 c 0,-0.03125 0,-0.046875 -0.171875,-0.21875 C 1.890625,0.921875 1.5625,-0.96875 1.5625,-2.5 c 0,-1.734375 0.375,-3.46875 1.609375,-4.703125 0.125,-0.125 0.125,-0.140625 0.125,-0.171875 0,-0.078125 -0.03125,-0.109375 -0.09375,-0.109375 -0.109375,0 -1,0.6875 -1.59375,1.953125 -0.5,1.09375 -0.625,2.203125 -0.625,3.03125 0,0.78125 0.109375,1.984375 0.65625,3.125 C 2.25,1.84375 3.09375,2.5 3.203125,2.5 c 0.0625,0 0.09375,-0.03125 0.09375,-0.109375 z"
               style="stroke:none"
               inkscape:connector-curvature="0" />
          </symbol>
          <symbol
             id="textext-c2466667-3"
             overflow="visible"
             style="overflow:visible">
            <path
               id="path6479"
               d="m 3.3125,-0.75 c 0.046875,0.390625 0.3125,0.8125 0.78125,0.8125 0.21875,0 0.828125,-0.140625 0.828125,-0.953125 l 0,-0.5625 -0.25,0 0,0.5625 c 0,0.578125 -0.25,0.640625 -0.359375,0.640625 -0.328125,0 -0.375,-0.453125 -0.375,-0.5 l 0,-1.984375 c 0,-0.421875 0,-0.8125 -0.359375,-1.1875 C 3.1875,-4.3125 2.6875,-4.46875 2.21875,-4.46875 c -0.828125,0 -1.515625,0.46875 -1.515625,1.125 0,0.296875 0.203125,0.46875 0.46875,0.46875 0.28125,0 0.453125,-0.203125 0.453125,-0.453125 0,-0.125 -0.046875,-0.453125 -0.515625,-0.453125 C 1.390625,-4.140625 1.875,-4.25 2.1875,-4.25 c 0.5,0 1.0625,0.390625 1.0625,1.28125 l 0,0.359375 c -0.515625,0.03125 -1.203125,0.0625 -1.828125,0.359375 -0.75,0.34375 -1,0.859375 -1,1.296875 0,0.8125 0.96875,1.0625 1.59375,1.0625 0.65625,0 1.109375,-0.40625 1.296875,-0.859375 z M 3.25,-2.390625 l 0,1 c 0,0.9375 -0.71875,1.28125 -1.171875,1.28125 -0.484375,0 -0.890625,-0.34375 -0.890625,-0.84375 0,-0.546875 0.421875,-1.375 2.0625,-1.4375 z"
               style="stroke:none"
               inkscape:connector-curvature="0" />
          </symbol>
          <symbol
             id="textext-c2466667-4"
             overflow="visible"
             style="overflow:visible">
            <path
               id="path6482"
               d="m 2.875,-2.5 c 0,-0.765625 -0.109375,-1.96875 -0.65625,-3.109375 -0.59375,-1.21875 -1.453125,-1.875 -1.546875,-1.875 -0.0625,0 -0.109375,0.046875 -0.109375,0.109375 0,0.03125 0,0.046875 0.1875,0.234375 0.984375,0.984375 1.546875,2.5625 1.546875,4.640625 0,1.71875 -0.359375,3.46875 -1.59375,4.71875 C 0.5625,2.34375 0.5625,2.359375 0.5625,2.390625 0.5625,2.453125 0.609375,2.5 0.671875,2.5 0.765625,2.5 1.671875,1.8125 2.25,0.546875 2.765625,-0.546875 2.875,-1.65625 2.875,-2.5 z"
               style="stroke:none"
               inkscape:connector-curvature="0" />
          </symbol>
          <symbol
             id="textext-c2466667-5"
             overflow="visible"
             style="overflow:visible">
            <path
               id="path6485"
               d=""
               style="stroke:none"
               inkscape:connector-curvature="0" />
          </symbol>
          <symbol
             id="textext-c2466667-6"
             overflow="visible"
             style="overflow:visible">
            <path
               id="path6488"
               d="m 2.359375,-1.5625 c 0,0 -0.046875,-0.0625 -0.046875,-0.0625 0,-0.03125 0.453125,-0.515625 0.515625,-0.578125 C 3.078125,-2.484375 3.3125,-2.75 3.875,-2.75 l 0,-0.25 C 3.671875,-2.984375 3.46875,-2.96875 3.28125,-2.96875 3.078125,-2.96875 2.796875,-2.984375 2.59375,-3 l 0,0.25 c 0.109375,0.015625 0.140625,0.09375 0.140625,0.15625 0,0.015625 0,0.125 -0.109375,0.234375 L 2.140625,-1.8125 1.5625,-2.46875 C 1.484375,-2.546875 1.484375,-2.578125 1.484375,-2.609375 c 0,-0.09375 0.09375,-0.140625 0.1875,-0.140625 l 0,-0.25 c -0.25,0.015625 -0.515625,0.03125 -0.78125,0.03125 C 0.6875,-2.96875 0.421875,-2.984375 0.21875,-3 l 0,0.25 c 0.3125,0 0.5,0 0.6875,0.203125 l 0.859375,1 c 0.015625,0.015625 0.0625,0.0625 0.0625,0.078125 0,0.015625 -0.53125,0.59375 -0.59375,0.671875 -0.265625,0.28125 -0.5,0.53125 -1.046875,0.546875 l 0,0.25 C 0.390625,-0.015625 0.546875,-0.03125 0.765625,-0.03125 0.96875,-0.03125 1.25,-0.015625 1.453125,0 l 0,-0.25 C 1.375,-0.265625 1.3125,-0.3125 1.3125,-0.40625 1.3125,-0.546875 1.390625,-0.640625 1.5,-0.75 L 2,-1.296875 2.59375,-0.59375 c 0.140625,0.140625 0.140625,0.15625 0.140625,0.203125 0,0.125 -0.15625,0.140625 -0.1875,0.140625 l 0,0.25 c 0.0625,0 0.5625,-0.03125 0.78125,-0.03125 C 3.546875,-0.03125 3.78125,-0.015625 4,0 l 0,-0.25 c -0.46875,0 -0.515625,-0.046875 -0.6875,-0.21875 z"
               style="stroke:none"
               inkscape:connector-curvature="0" />
          </symbol>
          <symbol
             id="textext-c2466667-7"
             overflow="visible"
             style="overflow:visible">
            <path
               id="path6491"
               d="M 3.296875,-2.328125 C 3.484375,-2.75 3.84375,-2.75 3.953125,-2.75 l 0,-0.25 c -0.1875,0.015625 -0.328125,0.03125 -0.53125,0.03125 -0.1875,0 -0.4375,-0.015625 -0.625,-0.03125 l 0,0.25 c 0.234375,0.015625 0.28125,0.15625 0.28125,0.265625 0,0.078125 -0.03125,0.140625 -0.0625,0.21875 L 2.25,-0.625 1.390625,-2.453125 C 1.359375,-2.5 1.34375,-2.546875 1.34375,-2.59375 1.34375,-2.75 1.578125,-2.75 1.703125,-2.75 l 0,-0.25 C 1.59375,-3 1.09375,-2.96875 0.90625,-2.96875 0.6875,-2.96875 0.421875,-2.984375 0.21875,-3 l 0,0.25 c 0.390625,0 0.46875,0.015625 0.5625,0.234375 L 1.953125,0 c -0.0625,0.140625 -0.125,0.265625 -0.1875,0.40625 -0.15625,0.34375 -0.375,0.8125 -0.859375,0.8125 -0.171875,0 -0.21875,-0.03125 -0.296875,-0.078125 0.015625,0 0.203125,-0.0625 0.203125,-0.296875 0,-0.171875 -0.125,-0.296875 -0.296875,-0.296875 -0.1875,0 -0.3125,0.125 -0.3125,0.296875 0,0.328125 0.328125,0.578125 0.703125,0.578125 0.59375,0 0.9375,-0.625 1.03125,-0.828125 z"
               style="stroke:none"
               inkscape:connector-curvature="0" />
          </symbol>
          <symbol
             id="textext-c2466667-8"
             overflow="visible"
             style="overflow:visible">
            <path
               id="path6494"
               d="m 3.078125,-2.765625 c 0.046875,-0.0625 0.0625,-0.078125 0.0625,-0.125 C 3.140625,-3 3.046875,-3 2.9375,-3 L 0.453125,-3 0.375,-1.84375 l 0.234375,0 c 0.046875,-0.734375 0.21875,-0.96875 1,-0.96875 l 0.828125,0 -2.109375,2.546875 C 0.265625,-0.1875 0.265625,-0.15625 0.265625,-0.125 0.265625,0 0.34375,0 0.46875,0 l 2.5625,0 0.125,-1.359375 -0.234375,0 C 2.84375,-0.53125 2.703125,-0.21875 1.828125,-0.21875 l -0.859375,0 z"
               style="stroke:none"
               inkscape:connector-curvature="0" />
          </symbol>
          <symbol
             id="textext-c2466667-9"
             overflow="visible"
             style="overflow:visible">
            <path
               id="path6497"
               d=""
               style="stroke:none"
               inkscape:connector-curvature="0" />
          </symbol>
          <symbol
             id="textext-c2466667-10"
             overflow="visible"
             style="overflow:visible">
            <path
               id="path6500"
               d="m 2.03125,-0.015625 c 0,-0.65625 -0.25,-1.046875 -0.640625,-1.046875 -0.328125,0 -0.53125,0.25 -0.53125,0.53125 C 0.859375,-0.265625 1.0625,0 1.390625,0 1.5,0 1.640625,-0.046875 1.734375,-0.125 1.765625,-0.15625 1.78125,-0.15625 1.78125,-0.15625 c 0.015625,0 0.015625,0 0.015625,0.140625 0,0.75 -0.34375,1.34375 -0.671875,1.671875 -0.109375,0.109375 -0.109375,0.125 -0.109375,0.15625 0,0.078125 0.046875,0.109375 0.09375,0.109375 0.109375,0 0.921875,-0.765625 0.921875,-1.9375 z"
               style="stroke:none"
               inkscape:connector-curvature="0" />
          </symbol>
        </g>
      </defs>
      <g
         id="textext-c2466667-11"
         style="fill:#808080;stroke:#808080;stroke-width:1">
        <g
           id="g6503"
           style="fill:#808080;fill-opacity:1;stroke:#808080;stroke-width:1">
          <use
             id="use6505"
             y="134.765"
             x="223.43201"
             xlink:href="#textext-c2466667-1"
             style="fill:#808080;stroke:#808080;stroke-width:1"
             width="744.09448"
             height="1052.3622" />
          <use
             id="use6507"
             y="134.765"
             x="230.90395"
             xlink:href="#textext-c2466667-2"
             style="fill:#808080;stroke:#808080;stroke-width:1"
             width="744.09448"
             height="1052.3622" />
          <use
             id="use6509"
             y="134.765"
             x="234.77841"
             xlink:href="#textext-c2466667-3"
             style="fill:#808080;stroke:#808080;stroke-width:1"
             width="744.09448"
             height="1052.3622" />
        </g>
        <g
           id="g6511"
           style="fill:#808080;fill-opacity:1;stroke:#808080;stroke-width:1">
          <use
             id="use6513"
             y="136.259"
             x="239.75999"
             xlink:href="#textext-c2466667-6"
             style="fill:#808080;stroke:#808080;stroke-width:1"
             width="744.09448"
             height="1052.3622" />
        </g>
        <g
           id="g6515"
           style="fill:#808080;fill-opacity:1;stroke:#808080;stroke-width:1">
          <use
             id="use6517"
             y="134.765"
             x="246.104"
             xlink:href="#textext-c2466667-10"
             style="fill:#808080;stroke:#808080;stroke-width:1"
             width="744.09448"
             height="1052.3622" />
        </g>
        <g
           id="g6519"
           style="fill:#808080;fill-opacity:1;stroke:#808080;stroke-width:1">
          <use
             id="use6521"
             y="134.765"
             x="252.192"
             xlink:href="#textext-c2466667-3"
             style="fill:#808080;stroke:#808080;stroke-width:1"
             width="744.09448"
             height="1052.3622" />
        </g>
        <g
           id="g6523"
           style="fill:#808080;fill-opacity:1;stroke:#808080;stroke-width:1">
          <use
             id="use6525"
             y="136.259"
             x="257.17401"
             xlink:href="#textext-c2466667-7"
             style="fill:#808080;stroke:#808080;stroke-width:1"
             width="744.09448"
             height="1052.3622" />
        </g>
        <g
           id="g6527"
           style="fill:#808080;fill-opacity:1;stroke:#808080;stroke-width:1">
          <use
             id="use6529"
             y="134.765"
             x="263.625"
             xlink:href="#textext-c2466667-10"
             style="fill:#808080;stroke:#808080;stroke-width:1"
             width="744.09448"
             height="1052.3622" />
        </g>
        <g
           id="g6531"
           style="fill:#808080;fill-opacity:1;stroke:#808080;stroke-width:1">
          <use
             id="use6533"
             y="134.765"
             x="269.71301"
             xlink:href="#textext-c2466667-3"
             style="fill:#808080;stroke:#808080;stroke-width:1"
             width="744.09448"
             height="1052.3622" />
        </g>
        <g
           id="g6535"
           style="fill:#808080;fill-opacity:1;stroke:#808080;stroke-width:1">
          <use
             id="use6537"
             y="136.259"
             x="274.69501"
             xlink:href="#textext-c2466667-8"
             style="fill:#808080;stroke:#808080;stroke-width:1"
             width="744.09448"
             height="1052.3622" />
        </g>
        <g
           id="g6539"
           style="fill:#808080;fill-opacity:1;stroke:#808080;stroke-width:1">
          <use
             id="use6541"
             y="134.765"
             x="278.73499"
             xlink:href="#textext-c2466667-4"
             style="fill:#808080;stroke:#808080;stroke-width:1"
             width="744.09448"
             height="1052.3622" />
        </g>
      </g>
    </g>
  </g>
</svg>
