<svg xmlns="http://www.w3.org/2000/svg" width="210mm" height="297mm"><title>Prisma-Formen</title><rect style="marker:none" width="718.96" height="278.214" x="12.567" y="387.074" ry="3.032" color="#000" fill="#fff" stroke="#fff" stroke-width="2.396" stroke-linecap="round" stroke-linejoin="bevel" overflow="visible"/><path d="M30.67 630.453V484.996l37.966-63.087 109.234 63.087v145.457L68.636 567.367z" fill="#f9f9f9"/><g stroke-width="3" stroke-linecap="round" stroke-linejoin="round"><path d="M68.636 567.367V421.909" fill="none" stroke="gray" stroke-dasharray="2.99999995,5.99999991"/><path d="M30.67 630.453h147.2L68.636 567.367z" fill="#b3b3b3" stroke="gray" stroke-dasharray="3,6"/><path d="M30.67 630.453V484.996M177.87 630.453V485.355M30.67 484.996h147.2L68.636 421.909zM30.67 630.453h145.458" fill="none" stroke="#000"/></g><path d="M229.632 567.035V421.577h137.75v145.458z" fill="#f9f9f9"/><g stroke-width="3" stroke-linecap="round" stroke-linejoin="round"><path d="M229.632 567.035l36.906 63.75h63.938l36.906-63.75h-137.75z" fill="#b3b3b3" stroke="gray" stroke-dasharray="3,6"/><path d="M266.538 630.785V485.327M229.632 567.035V421.577M330.476 630.785V485.327M367.382 567.035V421.577M229.632 421.577l36.906 63.75h63.938l36.906-63.75h-137.75zM266.538 630.785h63.938M330.476 630.785l36.906-63.75M266.538 630.785l-36.906-63.75" fill="none" stroke="#000"/></g><path d="M419.145 591.429V445.972l62.01-24.066 61.938 24.12-.12 145.437-61.817-24.1z" fill="#f9f9f9"/><g stroke-linecap="round" stroke-linejoin="round"><path d="M481.156 567.363V421.906" fill="none" stroke="gray" stroke-width="3" stroke-dasharray="2.99999997,5.99999995"/><path style="marker:none" d="M527.552 780.44l-27.328 12.166-20.017-22.23 14.957-25.907 29.26 6.22z" transform="matrix(-.26976 1.36262 -2.54656 -.14435 2572.504 24.222)" color="#000" fill="#b3b3b3" stroke="gray" stroke-width="1.602" stroke-dasharray="1.60152394,3.2030479" overflow="visible"/><path d="M442.757 630.423V484.966M419.145 591.429V445.972M543.093 591.483V446.026M519.361 630.457V484.999" fill="none" stroke="#000" stroke-width="3"/><path transform="matrix(-.26976 1.36262 -2.54656 -.14435 2572.504 -121.235)" d="M527.552 780.44l-27.328 12.166-20.017-22.23 14.957-25.907 29.26 6.22z" style="marker:none" color="#000" fill="none" stroke="#000" stroke-width="1.602" overflow="visible"/><path d="M442.757 630.423l76.604.034M442.757 630.423l-23.612-38.994M519.361 630.457l23.613-38.994" fill="none" stroke="#000" stroke-width="3"/></g><path d="M594.856 599.02V453.561l20.156-31.813h76.257l20.156 31.813v145.457l-20.156-31.812h-76.257z" fill="#f9f9f9"/><g stroke-width="3" stroke-linecap="round" stroke-linejoin="round"><path d="M615.012 567.207l-20.156 31.812 20.156 31.594s18.45-.118 32.917-.219c19.03.101 43.34.219 43.34.219l20.156-31.594-20.156-31.812h-76.257z" fill="#b3b3b3" stroke="gray" stroke-dasharray="3.00000006,6.00000011"/><path d="M594.856 599.02V453.561M711.425 599.02V453.561M615.012 630.613h76.257M615.012 630.613l-20.156-31.594M691.27 630.613l20.155-31.594" fill="none" stroke="#000"/><path d="M615.012 567.207V421.749" fill="none" stroke="gray" stroke-dasharray="3.00000006,6.00000011"/><path d="M615.012 630.613V485.156" fill="none" stroke="#000"/><path d="M691.27 567.207V421.749" fill="none" stroke="gray" stroke-dasharray="3.00000006,6.00000011"/><path d="M691.27 630.613V485.156M615.012 421.75l-20.156 31.812 20.156 31.594s18.45-.118 32.917-.22c19.03.102 43.34.22 43.34.22l20.156-31.594-20.156-31.813h-76.257z" fill="none" stroke="#000"/></g></svg>