<svg xmlns="http://www.w3.org/2000/svg" width="210mm" height="297mm"><title>Pyramidenstumpf</title><rect style="marker:none" width="718.96" height="278.214" x="12.567" y="387.074" ry="3.032" color="#000" fill="#fff" stroke="#fff" stroke-width="2.396" stroke-linecap="round" stroke-linejoin="bevel" overflow="visible"/><path d="M280.247 631.507l49.9-174.504h62.873l20.927-36.148 49.9 131.454h-137.75z" fill="#f9f9f9"/><path d="M280.247 631.507l91.8-209.152 91.8 129.954h-137.75z" fill="#f9f9f9"/><path d="M280.247 631.507l45.85-79.198h137.75l-45.85 79.198z" fill="#b3b3b3"/><path d="M326.097 552.309l24.977-131.454M280.247 631.507l45.85-79.198M326.097 552.309h137.75" fill="none" stroke="gray" stroke-width="3" stroke-linecap="round" stroke-linejoin="round" stroke-dasharray="2.99999994,5.99999989"/><path d="M463.847 552.309l-49.9-131.454M417.997 631.507L393.02 457.003M280.247 631.507l49.9-174.504M280.247 631.507h137.75M417.997 631.507l45.85-79.198" fill="none" stroke="#000" stroke-width="3" stroke-linecap="round" stroke-linejoin="round"/><path d="M330.147 457.003l20.927-36.148h62.873l-20.927 36.148z" fill="#b3b3b3"/><path d="M351.074 420.855h62.873M393.02 457.003l20.927-36.148M330.147 457.003h62.873M330.147 457.003l20.927-36.148" fill="none" stroke="#000" stroke-width="3" stroke-linecap="round" stroke-linejoin="round"/></svg>