<svg xmlns="http://www.w3.org/2000/svg" width="210mm" height="297mm"><title>Pyramide-Formen</title><rect style="marker:none" width="718.96" height="278.214" x="12.567" y="387.074" ry="3.032" color="#000" fill="#fff" stroke="#fff" stroke-width="2.396" stroke-linecap="round" stroke-linejoin="bevel" overflow="visible"/><path d="M520.05 631.062l91.799-209.153 91.8 129.954h-137.75zM277.388 633.796l81.767-211.887 81.767 167.349h-137.75l-25.784 44.538M30.67 630.453l73.6-208.544 73.6 208.544-73.6-63.086-73.6 63.086" fill="#f9f9f9"/><g stroke-width="3" stroke-linecap="round" stroke-linejoin="round"><path d="M104.27 567.367V421.909" fill="none" stroke="gray" stroke-dasharray="2.99999995,5.99999991"/><path d="M30.67 630.453h147.2l-73.6-63.086z" fill="#b3b3b3" stroke="gray" stroke-dasharray="3,6"/><path d="M177.87 630.453l-73.6-208.544M30.67 630.453h145.458M30.67 630.453l73.6-208.544" fill="none" stroke="#000"/></g><path d="M520.05 631.062l45.849-79.199h137.75l-45.85 79.199zM277.388 633.796l25.784-44.539h137.75l-25.784 44.539z" fill="#b3b3b3"/><path d="M303.172 589.258h137.75" fill="none" stroke="gray" stroke-width="3" stroke-linecap="round" stroke-linejoin="round" stroke-dasharray="2.99999994,5.99999989"/><path d="M415.138 633.796l-55.983-211.887M277.388 633.796h137.75M415.138 633.796l25.784-44.538M359.155 421.91l81.767 167.348" fill="none" stroke="#000" stroke-width="3" stroke-linecap="round" stroke-linejoin="round"/><path d="M303.172 589.258l55.983-167.349M277.388 633.796l25.784-44.538" fill="none" stroke="gray" stroke-width="3" stroke-linecap="round" stroke-linejoin="round" stroke-dasharray="2.99999994,5.99999989"/><path d="M359.155 421.91l-81.767 211.886" fill="none" stroke="#000" stroke-width="3" stroke-linecap="round" stroke-linejoin="round"/><path d="M565.899 551.863l45.95-129.954M520.05 631.062l45.849-79.199M565.899 551.863h137.75" fill="none" stroke="gray" stroke-width="3" stroke-linecap="round" stroke-linejoin="round" stroke-dasharray="2.99999994,5.99999989"/><path d="M703.649 551.863l-91.8-129.954M657.8 631.062l-45.951-209.153M520.05 631.062l91.799-209.153M520.05 631.062H657.8M657.8 631.062l45.849-79.199" fill="none" stroke="#000" stroke-width="3" stroke-linecap="round" stroke-linejoin="round"/></svg>