<svg xmlns="http://www.w3.org/2000/svg" width="210mm" height="297mm"><title>Quader</title><rect style="marker:none" width="718.96" height="196.46" x="12.567" y="427.951" ry="2.141" color="#000" fill="#fff" stroke="#fff" stroke-width="2.396" stroke-linecap="round" stroke-linejoin="bevel" overflow="visible"/><path d="M290.265 579.785l25.785-44.538H453.8l-25.784 44.538z" fill="#b3b3b3"/><path d="M290.265 579.785v-62.62l25.872-44.588 137.663.05v62.62l-137.721-.05z" fill="#f9f9f9"/><path d="M290.265 579.785l25.814-44.589" fill="none" stroke="gray" stroke-width="3" stroke-linecap="round" stroke-linejoin="round" stroke-dasharray="3.00000024,6.00000048"/><path d="M290.266 579.785v-62.62M290.266 579.785h137.75" fill="none" stroke="#000" stroke-width="3" stroke-linecap="round" stroke-linejoin="round"/><path d="M453.779 535.283l-137.7-.087" fill="none" stroke="gray" stroke-width="3" stroke-linecap="round" stroke-linejoin="round" stroke-dasharray="3.00000024,6.00000048"/><path d="M428.015 579.785l25.785-44.538M428.016 579.785v-62.62M453.8 535.247v-62.62" fill="none" stroke="#000" stroke-width="3" stroke-linecap="round" stroke-linejoin="round"/><path d="M316.137 472.577l-.087 62.67" fill="none" stroke="gray" stroke-width="3" stroke-linecap="round" stroke-linejoin="round" stroke-dasharray="3.00000025,6.0000005"/><path d="M290.266 517.166l25.813-44.589M316.079 472.577h137.75M290.266 517.166h137.75M428.016 517.166l25.784-44.539" fill="none" stroke="#000" stroke-width="3" stroke-linecap="round" stroke-linejoin="round"/></svg>