<?xml version="1.0" encoding="UTF-8" standalone="no"?>
<!-- Created with Inkscape (http://www.inkscape.org/) -->

<svg
   xmlns:ns0="http://www.iki.fi/pav/software/textext/"
   xmlns:dc="http://purl.org/dc/elements/1.1/"
   xmlns:cc="http://creativecommons.org/ns#"
   xmlns:rdf="http://www.w3.org/1999/02/22-rdf-syntax-ns#"
   xmlns:svg="http://www.w3.org/2000/svg"
   xmlns="http://www.w3.org/2000/svg"
   xmlns:xlink="http://www.w3.org/1999/xlink"
   xmlns:sodipodi="http://sodipodi.sourceforge.net/DTD/sodipodi-0.dtd"
   xmlns:inkscape="http://www.inkscape.org/namespaces/inkscape"
   width="1052.3622"
   height="744.09448"
   id="svg2"
   version="1.1"
   inkscape:version="0.48.3.1 r9886"
   sodipodi:docname="rechtwinkliges-dreieck.svg">
  <title
     id="title6190">Ankathete, Gegenkathete, Hypothenuse</title>
  <sodipodi:namedview
     id="base"
     pagecolor="#ffffff"
     bordercolor="#666666"
     borderopacity="1.0"
     inkscape:pageopacity="0.0"
     inkscape:pageshadow="2"
     inkscape:zoom="0.26386719"
     inkscape:cx="1654.0195"
     inkscape:cy="1395.5807"
     inkscape:document-units="px"
     inkscape:current-layer="layer1"
     showgrid="false"
     inkscape:object-nodes="true"
     inkscape:snap-smooth-nodes="true"
     inkscape:object-paths="true"
     showguides="true"
     inkscape:guide-bbox="true"
     inkscape:snap-global="true"
     inkscape:window-width="1280"
     inkscape:window-height="974"
     inkscape:window-x="0"
     inkscape:window-y="0"
     inkscape:window-maximized="1" />
  <defs
     id="defs4" />
  <metadata
     id="metadata7">
    <rdf:RDF>
      <cc:Work
         rdf:about="">
        <dc:format>image/svg+xml</dc:format>
        <dc:type
           rdf:resource="http://purl.org/dc/dcmitype/StillImage" />
        <dc:title>Ankathete, Gegenkathete, Hypothenuse</dc:title>
        <dc:date>2012-07-19</dc:date>
        <dc:creator>
          <cc:Agent>
            <dc:title>Bernhard Grotz</dc:title>
          </cc:Agent>
        </dc:creator>
        <dc:rights>
          <cc:Agent>
            <dc:title>Bernhard Grotz</dc:title>
          </cc:Agent>
        </dc:rights>
        <dc:publisher>
          <cc:Agent>
            <dc:title>Bernhard Grotz</dc:title>
          </cc:Agent>
        </dc:publisher>
        <dc:language>de-DE</dc:language>
        <dc:subject>
          <rdf:Bag>
            <rdf:li>Mathematik</rdf:li>
            <rdf:li>Rechtwinkliges Dreieck</rdf:li>
            <rdf:li>Trigonometrie</rdf:li>
            <rdf:li>Sinus</rdf:li>
            <rdf:li>Kosinus</rdf:li>
            <rdf:li>Tangens</rdf:li>
            <rdf:li>Ankathete</rdf:li>
            <rdf:li>Gegenkathete</rdf:li>
            <rdf:li>Hypothenuse</rdf:li>
          </rdf:Bag>
        </dc:subject>
        <cc:license
           rdf:resource="http://creativecommons.org/licenses/by-nc-sa/3.0/" />
      </cc:Work>
      <cc:License
         rdf:about="http://creativecommons.org/licenses/by-nc-sa/3.0/">
        <cc:permits
           rdf:resource="http://creativecommons.org/ns#Reproduction" />
        <cc:permits
           rdf:resource="http://creativecommons.org/ns#Distribution" />
        <cc:requires
           rdf:resource="http://creativecommons.org/ns#Notice" />
        <cc:requires
           rdf:resource="http://creativecommons.org/ns#Attribution" />
        <cc:prohibits
           rdf:resource="http://creativecommons.org/ns#CommercialUse" />
        <cc:permits
           rdf:resource="http://creativecommons.org/ns#DerivativeWorks" />
        <cc:requires
           rdf:resource="http://creativecommons.org/ns#ShareAlike" />
      </cc:License>
    </rdf:RDF>
  </metadata>
  <g
     id="layer1"
     inkscape:groupmode="layer"
     inkscape:label="Layer 1"
     transform="translate(0,-308.2677)">
    <g
       id="g2997"
       transform="translate(-96.974641,4.0406102)" />
    <rect
       style="fill:#ffffff;fill-opacity:1;fill-rule:nonzero;stroke:#ffffff;stroke-width:1.50000012;stroke-linecap:round;stroke-linejoin:miter;stroke-miterlimit:4;stroke-opacity:1;stroke-dasharray:none;stroke-dashoffset:0"
       id="rect6038"
       width="1020.2541"
       height="438.40622"
       x="16.054047"
       y="461.11182"
       inkscape:export-filename="/home/waldgeist/data/pics/Homepage/mathematik/geometrie/rechtwinkliges-dreieck.png"
       inkscape:export-xdpi="150"
       inkscape:export-ydpi="150" />
    <path
       inkscape:connector-curvature="0"
       id="path2991"
       d="m 296.25952,767.4381 459.8431,-265.38042 0,265.38042 z"
       style="fill:#f9f9f9;stroke:#000000;stroke-width:1.50000000000000000;stroke-linecap:butt;stroke-linejoin:miter;stroke-opacity:1"
       inkscape:export-filename="/home/waldgeist/data/pics/Homepage/mathematik/geometrie/rechtwinkliges-dreieck.png"
       inkscape:export-xdpi="150"
       inkscape:export-ydpi="150" />
    <g
       id="g5831"
       transform="translate(170.16186,20.428579)"
       inkscape:export-filename="/home/waldgeist/data/pics/Homepage/mathematik/geometrie/rechtwinkliges-dreieck.png"
       inkscape:export-xdpi="150"
       inkscape:export-ydpi="150">
      <path
         transform="translate(5.226439,272.50449)"
         sodipodi:end="4.712389"
         sodipodi:start="3.1415927"
         d="m 530.00001,474.50503 c 0,-28.00872 22.70556,-50.71428 50.71429,-50.71428 l -10e-6,50.71429 z"
         sodipodi:ry="50.714287"
         sodipodi:rx="50.714287"
         sodipodi:cy="474.50504"
         sodipodi:cx="580.71429"
         id="path2993"
         style="fill:none;fill-opacity:1;fill-rule:nonzero;stroke:#000000;stroke-width:1.50000000000000000;stroke-linecap:round;stroke-linejoin:miter;stroke-miterlimit:4;stroke-opacity:1;stroke-dasharray:none;stroke-dashoffset:0"
         sodipodi:type="arc" />
      <path
         transform="matrix(1.0941395,0,0,1.0941395,31.041396,332.24132)"
         d="m 491.07144,363.25504 c 0,0.8876 -0.71955,1.60714 -1.60715,1.60714 -0.8876,0 -1.60714,-0.71954 -1.60714,-1.60714 0,-0.88761 0.71954,-1.60715 1.60714,-1.60715 0.8876,0 1.60715,0.71954 1.60715,1.60715 z"
         sodipodi:ry="1.6071428"
         sodipodi:rx="1.6071428"
         sodipodi:cy="363.25504"
         sodipodi:cx="489.46429"
         id="path2995"
         style="fill:#000000;fill-opacity:1;fill-rule:nonzero;stroke:#000000;stroke-width:1.5;stroke-linecap:round;stroke-linejoin:miter;stroke-miterlimit:4;stroke-opacity:1;stroke-dasharray:none;stroke-dashoffset:0"
         sodipodi:type="arc" />
    </g>
    <g
       id="g5835"
       transform="translate(170.16181,20.428567)"
       inkscape:export-filename="/home/waldgeist/data/pics/Homepage/mathematik/geometrie/rechtwinkliges-dreieck.png"
       inkscape:export-xdpi="150"
       inkscape:export-ydpi="150">
      <g
         id="g3001"
         transform="matrix(-2.0632094,0,0,2.0632094,1357.4577,-239.36233)">
        <path
           sodipodi:type="arc"
           style="fill:none;fill-opacity:1;fill-rule:nonzero;stroke:#000000;stroke-width:0.72702264999999999;stroke-linecap:round;stroke-linejoin:miter;stroke-miterlimit:4;stroke-opacity:1;stroke-dasharray:none;stroke-dashoffset:0"
           id="path3003"
           sodipodi:cx="580.71429"
           sodipodi:cy="474.50504"
           sodipodi:rx="50.714287"
           sodipodi:ry="50.714287"
           d="m 530.00001,474.50503 c 0,-8.90221 2.34332,-17.64759 6.79442,-25.35714 l 43.91986,25.35715 z"
           sodipodi:start="3.1415927"
           sodipodi:end="3.6651914"
           transform="translate(16.103439,3.5714346)" />
      </g>
      <g
         transform="matrix(5.5130951,0,0,5.5130951,-1052.2978,-2.276731)"
         ns0:text="$\\alpha$"
         ns0:preamble="/home/waldgeist/data/sphinx/test.tex"
         id="g3018">
        <defs
           id="defs3020">
          <g
             id="g3022">
            <symbol
               style="overflow:visible"
               overflow="visible"
               id="textext-28c1ecfe-0">
              <path
                 inkscape:connector-curvature="0"
                 style="stroke:none"
                 d="m 4.75,-2.359375 c 0,-1.5625 -0.921875,-2.046875 -1.65625,-2.046875 -1.375,0 -2.6875,1.421875 -2.6875,2.828125 0,0.9375 0.59375,1.6875 1.625,1.6875 0.625,0 1.34375,-0.234375 2.09375,-0.84375 0.125,0.53125 0.453125,0.84375 0.90625,0.84375 0.53125,0 0.84375,-0.546875 0.84375,-0.703125 0,-0.078125 -0.0625,-0.109375 -0.125,-0.109375 -0.0625,0 -0.09375,0.03125 -0.125,0.109375 -0.1875,0.484375 -0.546875,0.484375 -0.5625,0.484375 -0.3125,0 -0.3125,-0.78125 -0.3125,-1.015625 0,-0.203125 0,-0.234375 0.109375,-0.34375 C 5.796875,-2.65625 6,-3.8125 6,-3.8125 6,-3.84375 5.984375,-3.921875 5.875,-3.921875 c -0.09375,0 -0.09375,0.03125 -0.140625,0.21875 -0.1875,0.625 -0.515625,1.375 -0.984375,1.96875 z m -0.65625,1.375 c -0.890625,0.765625 -1.65625,0.875 -2.046875,0.875 -0.59375,0 -0.90625,-0.453125 -0.90625,-1.09375 0,-0.484375 0.265625,-1.5625 0.578125,-2.0625 C 2.1875,-4 2.734375,-4.1875 3.078125,-4.1875 c 0.984375,0 0.984375,1.3125 0.984375,2.078125 0,0.375 0,0.953125 0.03125,1.125 z m 0,0"
                 id="path3025" />
            </symbol>
          </g>
        </defs>
        <g
           id="textext-28c1ecfe-1">
          <g
             style="fill:#000000;fill-opacity:1"
             id="g3028">
            <use
               transform="matrix(0.63481232,0,0,0.63481232,82.764358,48.429935)"
               height="1052.3622"
               width="744.09448"
               xlink:href="#textext-28c1ecfe-0"
               x="223.43201"
               y="134.765"
               id="use3030" />
          </g>
        </g>
      </g>
    </g>
    <g
       ns0:text="\\centering Ankathete \\\\ von $\\alpha$"
       ns0:preamble="/home/waldgeist/data/sphinx/test.tex"
       transform="matrix(3.7647233,0,0,3.7647233,-935.04933,306.55022)"
       id="g4995"
       inkscape:export-filename="/home/waldgeist/data/pics/Homepage/mathematik/geometrie/rechtwinkliges-dreieck.png"
       inkscape:export-xdpi="150"
       inkscape:export-ydpi="150">
      <defs
         id="defs4997">
        <g
           id="g4999">
          <symbol
             style="overflow:visible"
             overflow="visible"
             id="textext-ba588ec8-0">
            <path
               inkscape:connector-curvature="0"
               style="stroke:none"
               d="m 3.96875,-6.9375 c -0.046875,-0.125 -0.078125,-0.203125 -0.234375,-0.203125 -0.15625,0 -0.1875,0.0625 -0.234375,0.203125 L 1.4375,-0.984375 C 1.25,-0.46875 0.859375,-0.3125 0.3125,-0.3125 l 0,0.3125 c 0.234375,-0.015625 0.671875,-0.03125 1.015625,-0.03125 0.3125,0 0.828125,0.015625 1.15625,0.03125 l 0,-0.3125 c -0.5,0 -0.75,-0.25 -0.75,-0.5 0,-0.03125 0.015625,-0.140625 0.015625,-0.15625 l 0.46875,-1.296875 2.453125,0 0.53125,1.515625 c 0.015625,0.046875 0.03125,0.109375 0.03125,0.140625 0,0.296875 -0.5625,0.296875 -0.828125,0.296875 l 0,0.3125 c 0.359375,-0.03125 1.0625,-0.03125 1.4375,-0.03125 0.421875,0 0.890625,0.015625 1.296875,0.03125 l 0,-0.3125 -0.171875,0 C 6.375,-0.3125 6.234375,-0.375 6.125,-0.703125 z m -0.53125,1.109375 1.125,3.25 -2.234375,0 z m 0,0"
               id="path5002" />
          </symbol>
          <symbol
             style="overflow:visible"
             overflow="visible"
             id="textext-ba588ec8-1">
            <path
               inkscape:connector-curvature="0"
               style="stroke:none"
               d="m 1.09375,-3.421875 0,2.671875 c 0,0.4375 -0.109375,0.4375 -0.78125,0.4375 l 0,0.3125 c 0.359375,-0.015625 0.859375,-0.03125 1.140625,-0.03125 0.25,0 0.765625,0.015625 1.109375,0.03125 l 0,-0.3125 c -0.671875,0 -0.78125,0 -0.78125,-0.4375 l 0,-1.84375 C 1.78125,-3.625 2.5,-4.1875 3.125,-4.1875 c 0.640625,0 0.75,0.53125 0.75,1.109375 l 0,2.328125 c 0,0.4375 -0.109375,0.4375 -0.78125,0.4375 l 0,0.3125 c 0.34375,-0.015625 0.859375,-0.03125 1.125,-0.03125 0.25,0 0.78125,0.015625 1.109375,0.03125 l 0,-0.3125 c -0.515625,0 -0.765625,0 -0.765625,-0.296875 l 0,-1.90625 c 0,-0.859375 0,-1.15625 -0.3125,-1.515625 -0.140625,-0.171875 -0.46875,-0.375 -1.046875,-0.375 C 2.46875,-4.40625 2,-3.984375 1.71875,-3.359375 l 0,-1.046875 -1.40625,0.109375 0,0.3125 c 0.703125,0 0.78125,0.0625 0.78125,0.5625 z m 0,0"
               id="path5005" />
          </symbol>
          <symbol
             style="overflow:visible"
             overflow="visible"
             id="textext-ba588ec8-2">
            <path
               inkscape:connector-curvature="0"
               style="stroke:none"
               d="m 1.0625,-0.75 c 0,0.4375 -0.109375,0.4375 -0.78125,0.4375 l 0,0.3125 c 0.328125,-0.015625 0.796875,-0.03125 1.078125,-0.03125 0.3125,0 0.703125,0.015625 1.109375,0.03125 l 0,-0.3125 c -0.671875,0 -0.78125,0 -0.78125,-0.4375 l 0,-1.03125 0.640625,-0.546875 c 0.765625,1.046875 1.1875,1.609375 1.1875,1.796875 0,0.1875 -0.171875,0.21875 -0.359375,0.21875 l 0,0.3125 c 0.265625,-0.015625 0.859375,-0.03125 1.078125,-0.03125 0.28125,0 0.578125,0.015625 0.859375,0.03125 l 0,-0.3125 c -0.375,0 -0.59375,0 -0.96875,-0.53125 L 2.859375,-2.625 c -0.015625,-0.015625 -0.0625,-0.078125 -0.0625,-0.109375 0,-0.03125 0.71875,-0.640625 0.8125,-0.71875 0.625,-0.5 1.046875,-0.53125 1.25,-0.53125 l 0,-0.3125 c -0.28125,0.03125 -0.40625,0.03125 -0.6875,0.03125 -0.359375,0 -0.984375,-0.015625 -1.125,-0.03125 l 0,0.3125 c 0.1875,0 0.296875,0.109375 0.296875,0.25 0,0.203125 -0.140625,0.3125 -0.21875,0.390625 l -1.40625,1.203125 0,-4.78125 -1.4375,0.109375 0,0.3125 c 0.703125,0 0.78125,0.0625 0.78125,0.5625 z m 0,0"
               id="path5008" />
          </symbol>
          <symbol
             style="overflow:visible"
             overflow="visible"
             id="textext-ba588ec8-3">
            <path
               inkscape:connector-curvature="0"
               style="stroke:none"
               d="m 3.3125,-0.75 c 0.046875,0.390625 0.3125,0.8125 0.78125,0.8125 0.21875,0 0.828125,-0.140625 0.828125,-0.953125 l 0,-0.5625 -0.25,0 0,0.5625 c 0,0.578125 -0.25,0.640625 -0.359375,0.640625 -0.328125,0 -0.375,-0.453125 -0.375,-0.5 l 0,-1.984375 c 0,-0.421875 0,-0.8125 -0.359375,-1.1875 C 3.1875,-4.3125 2.6875,-4.46875 2.21875,-4.46875 c -0.828125,0 -1.515625,0.46875 -1.515625,1.125 0,0.296875 0.203125,0.46875 0.46875,0.46875 0.28125,0 0.453125,-0.203125 0.453125,-0.453125 0,-0.125 -0.046875,-0.453125 -0.515625,-0.453125 C 1.390625,-4.140625 1.875,-4.25 2.1875,-4.25 c 0.5,0 1.0625,0.390625 1.0625,1.28125 l 0,0.359375 c -0.515625,0.03125 -1.203125,0.0625 -1.828125,0.359375 -0.75,0.34375 -1,0.859375 -1,1.296875 0,0.8125 0.96875,1.0625 1.59375,1.0625 0.65625,0 1.109375,-0.40625 1.296875,-0.859375 z M 3.25,-2.390625 l 0,1 c 0,0.9375 -0.71875,1.28125 -1.171875,1.28125 -0.484375,0 -0.890625,-0.34375 -0.890625,-0.84375 0,-0.546875 0.421875,-1.375 2.0625,-1.4375 z m 0,0"
               id="path5011" />
          </symbol>
          <symbol
             style="overflow:visible"
             overflow="visible"
             id="textext-ba588ec8-4">
            <path
               inkscape:connector-curvature="0"
               style="stroke:none"
               d="m 1.71875,-3.984375 1.4375,0 0,-0.3125 -1.4375,0 0,-1.828125 -0.25,0 c 0,0.8125 -0.296875,1.875 -1.28125,1.921875 l 0,0.21875 0.84375,0 0,2.75 c 0,1.21875 0.9375,1.34375 1.296875,1.34375 0.703125,0 0.984375,-0.703125 0.984375,-1.34375 l 0,-0.5625 -0.25,0 0,0.546875 c 0,0.734375 -0.296875,1.109375 -0.671875,1.109375 -0.671875,0 -0.671875,-0.90625 -0.671875,-1.078125 z m 0,0"
               id="path5014" />
          </symbol>
          <symbol
             style="overflow:visible"
             overflow="visible"
             id="textext-ba588ec8-5">
            <path
               inkscape:connector-curvature="0"
               style="stroke:none"
               d="m 1.09375,-0.75 c 0,0.4375 -0.109375,0.4375 -0.78125,0.4375 l 0,0.3125 c 0.359375,-0.015625 0.859375,-0.03125 1.140625,-0.03125 0.25,0 0.765625,0.015625 1.109375,0.03125 l 0,-0.3125 c -0.671875,0 -0.78125,0 -0.78125,-0.4375 l 0,-1.84375 C 1.78125,-3.625 2.5,-4.1875 3.125,-4.1875 c 0.640625,0 0.75,0.53125 0.75,1.109375 l 0,2.328125 c 0,0.4375 -0.109375,0.4375 -0.78125,0.4375 l 0,0.3125 c 0.34375,-0.015625 0.859375,-0.03125 1.125,-0.03125 0.25,0 0.78125,0.015625 1.109375,0.03125 l 0,-0.3125 c -0.515625,0 -0.765625,0 -0.765625,-0.296875 l 0,-1.90625 c 0,-0.859375 0,-1.15625 -0.3125,-1.515625 -0.140625,-0.171875 -0.46875,-0.375 -1.046875,-0.375 -0.84375,0 -1.28125,0.59375 -1.453125,0.984375 l 0,-3.5 -1.4375,0.109375 0,0.3125 c 0.703125,0 0.78125,0.0625 0.78125,0.5625 z m 0,0"
               id="path5017" />
          </symbol>
          <symbol
             style="overflow:visible"
             overflow="visible"
             id="textext-ba588ec8-6">
            <path
               inkscape:connector-curvature="0"
               style="stroke:none"
               d="M 1.109375,-2.515625 C 1.171875,-4 2.015625,-4.25 2.359375,-4.25 c 1.015625,0 1.125,1.34375 1.125,1.734375 z m 0,0.21875 2.78125,0 c 0.21875,0 0.25,0 0.25,-0.21875 0,-0.984375 -0.546875,-1.953125 -1.78125,-1.953125 -1.15625,0 -2.078125,1.03125 -2.078125,2.28125 0,1.328125 1.046875,2.296875 2.1875,2.296875 C 3.6875,0.109375 4.140625,-1 4.140625,-1.1875 4.140625,-1.28125 4.0625,-1.3125 4,-1.3125 c -0.078125,0 -0.109375,0.0625 -0.125,0.140625 -0.34375,1.03125 -1.25,1.03125 -1.34375,1.03125 -0.5,0 -0.890625,-0.296875 -1.125,-0.671875 -0.296875,-0.46875 -0.296875,-1.125 -0.296875,-1.484375 z m 0,0"
               id="path5020" />
          </symbol>
          <symbol
             style="overflow:visible"
             overflow="visible"
             id="textext-ba588ec8-7">
            <path
               inkscape:connector-curvature="0"
               style="stroke:none"
               d="M 4.140625,-3.3125 C 4.234375,-3.546875 4.40625,-3.984375 5.0625,-3.984375 l 0,-0.3125 c -0.234375,0.015625 -0.515625,0.03125 -0.75,0.03125 -0.234375,0 -0.6875,-0.015625 -0.859375,-0.03125 l 0,0.3125 c 0.359375,0 0.46875,0.234375 0.46875,0.421875 0,0.09375 -0.015625,0.140625 -0.046875,0.25 L 2.84375,-0.78125 1.734375,-3.5625 c -0.0625,-0.125 -0.0625,-0.140625 -0.0625,-0.171875 0,-0.25 0.390625,-0.25 0.578125,-0.25 l 0,-0.3125 c -0.3125,0.015625 -0.859375,0.03125 -1.09375,0.03125 -0.265625,0 -0.671875,-0.015625 -0.96875,-0.03125 l 0,0.3125 c 0.625,0 0.671875,0.0625 0.796875,0.359375 l 1.4375,3.546875 C 2.484375,0.0625 2.5,0.109375 2.625,0.109375 c 0.140625,0 0.171875,-0.09375 0.21875,-0.1875 z m 0,0"
               id="path5023" />
          </symbol>
          <symbol
             style="overflow:visible"
             overflow="visible"
             id="textext-ba588ec8-8">
            <path
               inkscape:connector-curvature="0"
               style="stroke:none"
               d="M 4.6875,-2.140625 C 4.6875,-3.40625 3.703125,-4.46875 2.5,-4.46875 c -1.25,0 -2.21875,1.09375 -2.21875,2.328125 0,1.296875 1.03125,2.25 2.203125,2.25 1.203125,0 2.203125,-0.984375 2.203125,-2.25 z m -2.1875,2 c -0.4375,0 -0.875,-0.203125 -1.140625,-0.671875 -0.25,-0.4375 -0.25,-1.046875 -0.25,-1.40625 0,-0.390625 0,-0.921875 0.234375,-1.359375 C 1.609375,-4.03125 2.078125,-4.25 2.484375,-4.25 c 0.4375,0 0.859375,0.21875 1.125,0.65625 0.265625,0.421875 0.265625,1 0.265625,1.375 0,0.359375 0,0.90625 -0.21875,1.34375 C 3.421875,-0.421875 2.984375,-0.140625 2.5,-0.140625 z m 0,0"
               id="path5026" />
          </symbol>
          <symbol
             style="overflow:visible"
             overflow="visible"
             id="textext-ba588ec8-9">
            <path
               inkscape:connector-curvature="0"
               style="stroke:none"
               d="m 4.75,-2.359375 c 0,-1.5625 -0.921875,-2.046875 -1.65625,-2.046875 -1.375,0 -2.6875,1.421875 -2.6875,2.828125 0,0.9375 0.59375,1.6875 1.625,1.6875 0.625,0 1.34375,-0.234375 2.09375,-0.84375 0.125,0.53125 0.453125,0.84375 0.90625,0.84375 0.53125,0 0.84375,-0.546875 0.84375,-0.703125 0,-0.078125 -0.0625,-0.109375 -0.125,-0.109375 -0.0625,0 -0.09375,0.03125 -0.125,0.109375 -0.1875,0.484375 -0.546875,0.484375 -0.5625,0.484375 -0.3125,0 -0.3125,-0.78125 -0.3125,-1.015625 0,-0.203125 0,-0.234375 0.109375,-0.34375 C 5.796875,-2.65625 6,-3.8125 6,-3.8125 6,-3.84375 5.984375,-3.921875 5.875,-3.921875 c -0.09375,0 -0.09375,0.03125 -0.140625,0.21875 -0.1875,0.625 -0.515625,1.375 -0.984375,1.96875 z m -0.65625,1.375 c -0.890625,0.765625 -1.65625,0.875 -2.046875,0.875 -0.59375,0 -0.90625,-0.453125 -0.90625,-1.09375 0,-0.484375 0.265625,-1.5625 0.578125,-2.0625 C 2.1875,-4 2.734375,-4.1875 3.078125,-4.1875 c 0.984375,0 0.984375,1.3125 0.984375,2.078125 0,0.375 0,0.953125 0.03125,1.125 z m 0,0"
               id="path5029" />
          </symbol>
        </g>
      </defs>
      <g
         id="textext-ba588ec8-10">
        <g
           style="fill:#000000;fill-opacity:1"
           id="g5032">
          <use
             height="744.09448"
             width="1052.3622"
             xlink:href="#textext-ba588ec8-0"
             x="372.87201"
             y="134.765"
             id="use5034" />
          <use
             height="744.09448"
             width="1052.3622"
             xlink:href="#textext-ba588ec8-1"
             x="380.34396"
             y="134.765"
             id="use5036" />
          <use
             height="744.09448"
             width="1052.3622"
             xlink:href="#textext-ba588ec8-2"
             x="385.87918"
             y="134.765"
             id="use5038" />
        </g>
        <g
           style="fill:#000000;fill-opacity:1"
           id="g5040">
          <use
             height="744.09448"
             width="1052.3622"
             xlink:href="#textext-ba588ec8-3"
             x="390.57953"
             y="134.765"
             id="use5042" />
          <use
             height="744.09448"
             width="1052.3622"
             xlink:href="#textext-ba588ec8-4"
             x="395.56082"
             y="134.765"
             id="use5044" />
          <use
             height="744.09448"
             width="1052.3622"
             xlink:href="#textext-ba588ec8-5"
             x="399.43527"
             y="134.765"
             id="use5046" />
          <use
             height="744.09448"
             width="1052.3622"
             xlink:href="#textext-ba588ec8-6"
             x="404.97049"
             y="134.765"
             id="use5048" />
          <use
             height="744.09448"
             width="1052.3622"
             xlink:href="#textext-ba588ec8-4"
             x="409.39789"
             y="134.765"
             id="use5050" />
          <use
             height="744.09448"
             width="1052.3622"
             xlink:href="#textext-ba588ec8-6"
             x="413.27234"
             y="134.765"
             id="use5052" />
        </g>
        <g
           style="fill:#000000;fill-opacity:1"
           id="g5054">
          <use
             height="744.09448"
             width="1052.3622"
             xlink:href="#textext-ba588ec8-7"
             x="382.673"
             y="146.72"
             id="use5056" />
        </g>
        <g
           style="fill:#000000;fill-opacity:1"
           id="g5058">
          <use
             height="744.09448"
             width="1052.3622"
             xlink:href="#textext-ba588ec8-8"
             x="387.65231"
             y="146.72"
             id="use5060" />
          <use
             height="744.09448"
             width="1052.3622"
             xlink:href="#textext-ba588ec8-1"
             x="392.63361"
             y="146.72"
             id="use5062" />
        </g>
        <g
           style="fill:#000000;fill-opacity:1"
           id="g5064">
          <use
             height="744.09448"
             width="1052.3622"
             xlink:href="#textext-ba588ec8-9"
             x="401.492"
             y="146.72"
             id="use5066" />
        </g>
      </g>
    </g>
    <g
       id="g5313"
       transform="matrix(3.7647233,0,0,3.7647233,-594.85215,117.9208)"
       ns0:preamble="/home/waldgeist/data/sphinx/test.tex"
       ns0:text="\\centering Gegenkathete \\\\ von $\\alpha$"
       inkscape:export-filename="/home/waldgeist/data/pics/Homepage/mathematik/geometrie/rechtwinkliges-dreieck.png"
       inkscape:export-xdpi="150"
       inkscape:export-ydpi="150">
      <defs
         id="defs5315">
        <g
           id="g5317">
          <symbol
             id="textext-bb33c9f4-0"
             overflow="visible"
             style="overflow:visible">
            <path
               id="path5320"
               d="m 5.90625,-0.625 c 0.140625,0.21875 0.53125,0.609375 0.640625,0.609375 0.09375,0 0.09375,-0.078125 0.09375,-0.21875 l 0,-1.734375 c 0,-0.390625 0.03125,-0.4375 0.6875,-0.4375 l 0,-0.3125 c -0.375,0 -0.921875,0.03125 -1.21875,0.03125 -0.390625,0 -1.25,0 -1.609375,-0.03125 l 0,0.3125 0.328125,0 C 5.71875,-2.40625 5.75,-2.296875 5.75,-1.9375 l 0,0.640625 c 0,1.125 -1.265625,1.203125 -1.546875,1.203125 -0.640625,0 -2.625,-0.34375 -2.625,-3.3125 0,-2.984375 1.96875,-3.3125 2.5625,-3.3125 1.078125,0 1.984375,0.890625 2.171875,2.359375 0.03125,0.140625 0.03125,0.171875 0.171875,0.171875 0.15625,0 0.15625,-0.03125 0.15625,-0.234375 l 0,-2.359375 c 0,-0.171875 0,-0.25 -0.109375,-0.25 -0.046875,0 -0.078125,0 -0.15625,0.125 l -0.5,0.734375 C 5.546875,-6.484375 5.015625,-7.03125 4.03125,-7.03125 c -1.859375,0 -3.46875,1.578125 -3.46875,3.625 0,2.046875 1.59375,3.625 3.484375,3.625 0.734375,0 1.53125,-0.265625 1.859375,-0.84375 z m 0,0"
               style="stroke:none"
               inkscape:connector-curvature="0" />
          </symbol>
          <symbol
             id="textext-bb33c9f4-1"
             overflow="visible"
             style="overflow:visible">
            <path
               id="path5323"
               d="M 1.109375,-2.515625 C 1.171875,-4 2.015625,-4.25 2.359375,-4.25 c 1.015625,0 1.125,1.34375 1.125,1.734375 z m 0,0.21875 2.78125,0 c 0.21875,0 0.25,0 0.25,-0.21875 0,-0.984375 -0.546875,-1.953125 -1.78125,-1.953125 -1.15625,0 -2.078125,1.03125 -2.078125,2.28125 0,1.328125 1.046875,2.296875 2.1875,2.296875 C 3.6875,0.109375 4.140625,-1 4.140625,-1.1875 4.140625,-1.28125 4.0625,-1.3125 4,-1.3125 c -0.078125,0 -0.109375,0.0625 -0.125,0.140625 -0.34375,1.03125 -1.25,1.03125 -1.34375,1.03125 -0.5,0 -0.890625,-0.296875 -1.125,-0.671875 -0.296875,-0.46875 -0.296875,-1.125 -0.296875,-1.484375 z m 0,0"
               style="stroke:none"
               inkscape:connector-curvature="0" />
          </symbol>
          <symbol
             id="textext-bb33c9f4-2"
             overflow="visible"
             style="overflow:visible">
            <path
               id="path5326"
               d="m 2.21875,-1.71875 c -0.875,0 -0.875,-1 -0.875,-1.21875 0,-0.265625 0.015625,-0.59375 0.15625,-0.84375 0.078125,-0.109375 0.3125,-0.390625 0.71875,-0.390625 0.859375,0 0.859375,0.984375 0.859375,1.21875 0,0.265625 0,0.59375 -0.15625,0.84375 C 2.84375,-2 2.609375,-1.71875 2.21875,-1.71875 z M 1.0625,-1.328125 c 0,-0.03125 0,-0.265625 0.15625,-0.46875 0.390625,0.28125 0.8125,0.3125 1,0.3125 0.921875,0 1.609375,-0.6875 1.609375,-1.453125 0,-0.375 -0.15625,-0.734375 -0.40625,-0.96875 C 3.78125,-4.25 4.140625,-4.296875 4.3125,-4.296875 c 0.03125,0 0.078125,0 0.109375,0.015625 C 4.3125,-4.25 4.25,-4.140625 4.25,-4.015625 c 0,0.171875 0.140625,0.28125 0.296875,0.28125 0.09375,0 0.28125,-0.0625 0.28125,-0.296875 0,-0.171875 -0.109375,-0.484375 -0.5,-0.484375 -0.203125,0 -0.640625,0.0625 -1.0625,0.46875 C 2.84375,-4.375 2.4375,-4.40625 2.21875,-4.40625 c -0.9375,0 -1.625,0.6875 -1.625,1.453125 0,0.4375 0.21875,0.8125 0.46875,1.03125 -0.125,0.140625 -0.3125,0.46875 -0.3125,0.828125 0,0.3125 0.140625,0.6875 0.453125,0.890625 -0.609375,0.15625 -0.921875,0.59375 -0.921875,0.984375 0,0.71875 0.984375,1.265625 2.203125,1.265625 1.171875,0 2.203125,-0.5 2.203125,-1.28125 0,-0.34375 -0.125,-0.859375 -0.640625,-1.140625 -0.53125,-0.265625 -1.109375,-0.265625 -1.71875,-0.265625 -0.25,0 -0.671875,0 -0.75,-0.015625 C 1.265625,-0.703125 1.0625,-1 1.0625,-1.328125 z M 2.5,1.828125 c -1.015625,0 -1.703125,-0.515625 -1.703125,-1.046875 0,-0.453125 0.375,-0.828125 0.8125,-0.84375 l 0.59375,0 c 0.859375,0 1.96875,0 1.96875,0.84375 0,0.546875 -0.703125,1.046875 -1.671875,1.046875 z m 0,0"
               style="stroke:none"
               inkscape:connector-curvature="0" />
          </symbol>
          <symbol
             id="textext-bb33c9f4-3"
             overflow="visible"
             style="overflow:visible">
            <path
               id="path5329"
               d="m 1.09375,-3.421875 0,2.671875 c 0,0.4375 -0.109375,0.4375 -0.78125,0.4375 l 0,0.3125 c 0.359375,-0.015625 0.859375,-0.03125 1.140625,-0.03125 0.25,0 0.765625,0.015625 1.109375,0.03125 l 0,-0.3125 c -0.671875,0 -0.78125,0 -0.78125,-0.4375 l 0,-1.84375 C 1.78125,-3.625 2.5,-4.1875 3.125,-4.1875 c 0.640625,0 0.75,0.53125 0.75,1.109375 l 0,2.328125 c 0,0.4375 -0.109375,0.4375 -0.78125,0.4375 l 0,0.3125 c 0.34375,-0.015625 0.859375,-0.03125 1.125,-0.03125 0.25,0 0.78125,0.015625 1.109375,0.03125 l 0,-0.3125 c -0.515625,0 -0.765625,0 -0.765625,-0.296875 l 0,-1.90625 c 0,-0.859375 0,-1.15625 -0.3125,-1.515625 -0.140625,-0.171875 -0.46875,-0.375 -1.046875,-0.375 C 2.46875,-4.40625 2,-3.984375 1.71875,-3.359375 l 0,-1.046875 -1.40625,0.109375 0,0.3125 c 0.703125,0 0.78125,0.0625 0.78125,0.5625 z m 0,0"
               style="stroke:none"
               inkscape:connector-curvature="0" />
          </symbol>
          <symbol
             id="textext-bb33c9f4-4"
             overflow="visible"
             style="overflow:visible">
            <path
               id="path5332"
               d="m 1.0625,-0.75 c 0,0.4375 -0.109375,0.4375 -0.78125,0.4375 l 0,0.3125 c 0.328125,-0.015625 0.796875,-0.03125 1.078125,-0.03125 0.3125,0 0.703125,0.015625 1.109375,0.03125 l 0,-0.3125 c -0.671875,0 -0.78125,0 -0.78125,-0.4375 l 0,-1.03125 0.640625,-0.546875 c 0.765625,1.046875 1.1875,1.609375 1.1875,1.796875 0,0.1875 -0.171875,0.21875 -0.359375,0.21875 l 0,0.3125 c 0.265625,-0.015625 0.859375,-0.03125 1.078125,-0.03125 0.28125,0 0.578125,0.015625 0.859375,0.03125 l 0,-0.3125 c -0.375,0 -0.59375,0 -0.96875,-0.53125 L 2.859375,-2.625 c -0.015625,-0.015625 -0.0625,-0.078125 -0.0625,-0.109375 0,-0.03125 0.71875,-0.640625 0.8125,-0.71875 0.625,-0.5 1.046875,-0.53125 1.25,-0.53125 l 0,-0.3125 c -0.28125,0.03125 -0.40625,0.03125 -0.6875,0.03125 -0.359375,0 -0.984375,-0.015625 -1.125,-0.03125 l 0,0.3125 c 0.1875,0 0.296875,0.109375 0.296875,0.25 0,0.203125 -0.140625,0.3125 -0.21875,0.390625 l -1.40625,1.203125 0,-4.78125 -1.4375,0.109375 0,0.3125 c 0.703125,0 0.78125,0.0625 0.78125,0.5625 z m 0,0"
               style="stroke:none"
               inkscape:connector-curvature="0" />
          </symbol>
          <symbol
             id="textext-bb33c9f4-5"
             overflow="visible"
             style="overflow:visible">
            <path
               id="path5335"
               d="m 3.3125,-0.75 c 0.046875,0.390625 0.3125,0.8125 0.78125,0.8125 0.21875,0 0.828125,-0.140625 0.828125,-0.953125 l 0,-0.5625 -0.25,0 0,0.5625 c 0,0.578125 -0.25,0.640625 -0.359375,0.640625 -0.328125,0 -0.375,-0.453125 -0.375,-0.5 l 0,-1.984375 c 0,-0.421875 0,-0.8125 -0.359375,-1.1875 C 3.1875,-4.3125 2.6875,-4.46875 2.21875,-4.46875 c -0.828125,0 -1.515625,0.46875 -1.515625,1.125 0,0.296875 0.203125,0.46875 0.46875,0.46875 0.28125,0 0.453125,-0.203125 0.453125,-0.453125 0,-0.125 -0.046875,-0.453125 -0.515625,-0.453125 C 1.390625,-4.140625 1.875,-4.25 2.1875,-4.25 c 0.5,0 1.0625,0.390625 1.0625,1.28125 l 0,0.359375 c -0.515625,0.03125 -1.203125,0.0625 -1.828125,0.359375 -0.75,0.34375 -1,0.859375 -1,1.296875 0,0.8125 0.96875,1.0625 1.59375,1.0625 0.65625,0 1.109375,-0.40625 1.296875,-0.859375 z M 3.25,-2.390625 l 0,1 c 0,0.9375 -0.71875,1.28125 -1.171875,1.28125 -0.484375,0 -0.890625,-0.34375 -0.890625,-0.84375 0,-0.546875 0.421875,-1.375 2.0625,-1.4375 z m 0,0"
               style="stroke:none"
               inkscape:connector-curvature="0" />
          </symbol>
          <symbol
             id="textext-bb33c9f4-6"
             overflow="visible"
             style="overflow:visible">
            <path
               id="path5338"
               d="m 1.71875,-3.984375 1.4375,0 0,-0.3125 -1.4375,0 0,-1.828125 -0.25,0 c 0,0.8125 -0.296875,1.875 -1.28125,1.921875 l 0,0.21875 0.84375,0 0,2.75 c 0,1.21875 0.9375,1.34375 1.296875,1.34375 0.703125,0 0.984375,-0.703125 0.984375,-1.34375 l 0,-0.5625 -0.25,0 0,0.546875 c 0,0.734375 -0.296875,1.109375 -0.671875,1.109375 -0.671875,0 -0.671875,-0.90625 -0.671875,-1.078125 z m 0,0"
               style="stroke:none"
               inkscape:connector-curvature="0" />
          </symbol>
          <symbol
             id="textext-bb33c9f4-7"
             overflow="visible"
             style="overflow:visible">
            <path
               id="path5341"
               d="m 1.09375,-0.75 c 0,0.4375 -0.109375,0.4375 -0.78125,0.4375 l 0,0.3125 c 0.359375,-0.015625 0.859375,-0.03125 1.140625,-0.03125 0.25,0 0.765625,0.015625 1.109375,0.03125 l 0,-0.3125 c -0.671875,0 -0.78125,0 -0.78125,-0.4375 l 0,-1.84375 C 1.78125,-3.625 2.5,-4.1875 3.125,-4.1875 c 0.640625,0 0.75,0.53125 0.75,1.109375 l 0,2.328125 c 0,0.4375 -0.109375,0.4375 -0.78125,0.4375 l 0,0.3125 c 0.34375,-0.015625 0.859375,-0.03125 1.125,-0.03125 0.25,0 0.78125,0.015625 1.109375,0.03125 l 0,-0.3125 c -0.515625,0 -0.765625,0 -0.765625,-0.296875 l 0,-1.90625 c 0,-0.859375 0,-1.15625 -0.3125,-1.515625 -0.140625,-0.171875 -0.46875,-0.375 -1.046875,-0.375 -0.84375,0 -1.28125,0.59375 -1.453125,0.984375 l 0,-3.5 -1.4375,0.109375 0,0.3125 c 0.703125,0 0.78125,0.0625 0.78125,0.5625 z m 0,0"
               style="stroke:none"
               inkscape:connector-curvature="0" />
          </symbol>
          <symbol
             id="textext-bb33c9f4-8"
             overflow="visible"
             style="overflow:visible">
            <path
               id="path5344"
               d="M 4.140625,-3.3125 C 4.234375,-3.546875 4.40625,-3.984375 5.0625,-3.984375 l 0,-0.3125 c -0.234375,0.015625 -0.515625,0.03125 -0.75,0.03125 -0.234375,0 -0.6875,-0.015625 -0.859375,-0.03125 l 0,0.3125 c 0.359375,0 0.46875,0.234375 0.46875,0.421875 0,0.09375 -0.015625,0.140625 -0.046875,0.25 L 2.84375,-0.78125 1.734375,-3.5625 c -0.0625,-0.125 -0.0625,-0.140625 -0.0625,-0.171875 0,-0.25 0.390625,-0.25 0.578125,-0.25 l 0,-0.3125 c -0.3125,0.015625 -0.859375,0.03125 -1.09375,0.03125 -0.265625,0 -0.671875,-0.015625 -0.96875,-0.03125 l 0,0.3125 c 0.625,0 0.671875,0.0625 0.796875,0.359375 l 1.4375,3.546875 C 2.484375,0.0625 2.5,0.109375 2.625,0.109375 c 0.140625,0 0.171875,-0.09375 0.21875,-0.1875 z m 0,0"
               style="stroke:none"
               inkscape:connector-curvature="0" />
          </symbol>
          <symbol
             id="textext-bb33c9f4-9"
             overflow="visible"
             style="overflow:visible">
            <path
               id="path5347"
               d="M 4.6875,-2.140625 C 4.6875,-3.40625 3.703125,-4.46875 2.5,-4.46875 c -1.25,0 -2.21875,1.09375 -2.21875,2.328125 0,1.296875 1.03125,2.25 2.203125,2.25 1.203125,0 2.203125,-0.984375 2.203125,-2.25 z m -2.1875,2 c -0.4375,0 -0.875,-0.203125 -1.140625,-0.671875 -0.25,-0.4375 -0.25,-1.046875 -0.25,-1.40625 0,-0.390625 0,-0.921875 0.234375,-1.359375 C 1.609375,-4.03125 2.078125,-4.25 2.484375,-4.25 c 0.4375,0 0.859375,0.21875 1.125,0.65625 0.265625,0.421875 0.265625,1 0.265625,1.375 0,0.359375 0,0.90625 -0.21875,1.34375 C 3.421875,-0.421875 2.984375,-0.140625 2.5,-0.140625 z m 0,0"
               style="stroke:none"
               inkscape:connector-curvature="0" />
          </symbol>
          <symbol
             id="textext-bb33c9f4-10"
             overflow="visible"
             style="overflow:visible">
            <path
               id="path5350"
               d="m 4.75,-2.359375 c 0,-1.5625 -0.921875,-2.046875 -1.65625,-2.046875 -1.375,0 -2.6875,1.421875 -2.6875,2.828125 0,0.9375 0.59375,1.6875 1.625,1.6875 0.625,0 1.34375,-0.234375 2.09375,-0.84375 0.125,0.53125 0.453125,0.84375 0.90625,0.84375 0.53125,0 0.84375,-0.546875 0.84375,-0.703125 0,-0.078125 -0.0625,-0.109375 -0.125,-0.109375 -0.0625,0 -0.09375,0.03125 -0.125,0.109375 -0.1875,0.484375 -0.546875,0.484375 -0.5625,0.484375 -0.3125,0 -0.3125,-0.78125 -0.3125,-1.015625 0,-0.203125 0,-0.234375 0.109375,-0.34375 C 5.796875,-2.65625 6,-3.8125 6,-3.8125 6,-3.84375 5.984375,-3.921875 5.875,-3.921875 c -0.09375,0 -0.09375,0.03125 -0.140625,0.21875 -0.1875,0.625 -0.515625,1.375 -0.984375,1.96875 z m -0.65625,1.375 c -0.890625,0.765625 -1.65625,0.875 -2.046875,0.875 -0.59375,0 -0.90625,-0.453125 -0.90625,-1.09375 0,-0.484375 0.265625,-1.5625 0.578125,-2.0625 C 2.1875,-4 2.734375,-4.1875 3.078125,-4.1875 c 0.984375,0 0.984375,1.3125 0.984375,2.078125 0,0.375 0,0.953125 0.03125,1.125 z m 0,0"
               style="stroke:none"
               inkscape:connector-curvature="0" />
          </symbol>
        </g>
      </defs>
      <g
         id="textext-bb33c9f4-11">
        <g
           id="g5353"
           style="fill:#000000;fill-opacity:1">
          <use
             id="use5355"
             y="134.765"
             x="365.78"
             xlink:href="#textext-bb33c9f4-0"
             width="1052.3622"
             height="744.09448" />
          <use
             id="use5357"
             y="134.765"
             x="373.59766"
             xlink:href="#textext-bb33c9f4-1"
             width="1052.3622"
             height="744.09448" />
          <use
             id="use5359"
             y="134.765"
             x="378.02502"
             xlink:href="#textext-bb33c9f4-2"
             width="1052.3622"
             height="744.09448" />
          <use
             id="use5361"
             y="134.765"
             x="383.00632"
             xlink:href="#textext-bb33c9f4-1"
             width="1052.3622"
             height="744.09448" />
          <use
             id="use5363"
             y="134.765"
             x="387.43372"
             xlink:href="#textext-bb33c9f4-3"
             width="1052.3622"
             height="744.09448" />
          <use
             id="use5365"
             y="134.765"
             x="392.96893"
             xlink:href="#textext-bb33c9f4-4"
             width="1052.3622"
             height="744.09448" />
        </g>
        <g
           id="g5367"
           style="fill:#000000;fill-opacity:1">
          <use
             id="use5369"
             y="134.765"
             x="397.67926"
             xlink:href="#textext-bb33c9f4-5"
             width="1052.3622"
             height="744.09448" />
          <use
             id="use5371"
             y="134.765"
             x="402.66055"
             xlink:href="#textext-bb33c9f4-6"
             width="1052.3622"
             height="744.09448" />
          <use
             id="use5373"
             y="134.765"
             x="406.535"
             xlink:href="#textext-bb33c9f4-7"
             width="1052.3622"
             height="744.09448" />
        </g>
        <g
           id="g5375"
           style="fill:#000000;fill-opacity:1">
          <use
             id="use5377"
             y="134.765"
             x="412.06027"
             xlink:href="#textext-bb33c9f4-1"
             width="1052.3622"
             height="744.09448" />
        </g>
        <g
           id="g5379"
           style="fill:#000000;fill-opacity:1">
          <use
             id="use5381"
             y="134.765"
             x="416.49759"
             xlink:href="#textext-bb33c9f4-6"
             width="1052.3622"
             height="744.09448" />
          <use
             id="use5383"
             y="134.765"
             x="420.37207"
             xlink:href="#textext-bb33c9f4-1"
             width="1052.3622"
             height="744.09448" />
        </g>
        <g
           id="g5385"
           style="fill:#000000;fill-opacity:1">
          <use
             id="use5387"
             y="146.72"
             x="382.673"
             xlink:href="#textext-bb33c9f4-8"
             width="1052.3622"
             height="744.09448" />
        </g>
        <g
           id="g5389"
           style="fill:#000000;fill-opacity:1">
          <use
             id="use5391"
             y="146.72"
             x="387.65231"
             xlink:href="#textext-bb33c9f4-9"
             width="1052.3622"
             height="744.09448" />
          <use
             id="use5393"
             y="146.72"
             x="392.63361"
             xlink:href="#textext-bb33c9f4-3"
             width="1052.3622"
             height="744.09448" />
        </g>
        <g
           id="g5395"
           style="fill:#000000;fill-opacity:1">
          <use
             id="use5397"
             y="146.72"
             x="401.492"
             xlink:href="#textext-bb33c9f4-10"
             width="1052.3622"
             height="744.09448" />
        </g>
      </g>
    </g>
    <g
       id="g4022"
       transform="matrix(3.260346,-1.8823616,1.8823616,3.260346,-561.932,645.30357)"
       ns0:preamble="/home/waldgeist/data/sphinx/test.tex"
       ns0:text="Hypothenuse"
       inkscape:export-filename="/home/waldgeist/data/pics/Homepage/mathematik/geometrie/rechtwinkliges-dreieck.png"
       inkscape:export-xdpi="150"
       inkscape:export-ydpi="150">
      <defs
         id="defs4024">
        <g
           id="g4026">
          <symbol
             id="textext-8d3a2911-0"
             overflow="visible"
             style="overflow:visible">
            <path
               id="path4029"
               d="M 6.109375,-6.03125 C 6.109375,-6.390625 6.125,-6.5 6.890625,-6.5 l 0.25,0 0,-0.3125 c -0.359375,0.03125 -1.09375,0.03125 -1.46875,0.03125 -0.375,0 -1.125,0 -1.46875,-0.03125 l 0,0.3125 0.234375,0 c 0.765625,0 0.78125,0.109375 0.78125,0.46875 l 0,2.328125 -2.96875,0 0,-2.328125 C 2.25,-6.390625 2.265625,-6.5 3.03125,-6.5 l 0.234375,0 0,-0.3125 c -0.34375,0.03125 -1.078125,0.03125 -1.46875,0.03125 -0.375,0 -1.125,0 -1.46875,-0.03125 l 0,0.3125 0.234375,0 c 0.765625,0 0.796875,0.109375 0.796875,0.46875 l 0,5.25 c 0,0.359375 -0.03125,0.46875 -0.796875,0.46875 l -0.234375,0 0,0.3125 c 0.34375,-0.03125 1.09375,-0.03125 1.46875,-0.03125 0.375,0 1.125,0 1.46875,0.03125 l 0,-0.3125 -0.234375,0 C 2.265625,-0.3125 2.25,-0.421875 2.25,-0.78125 l 0,-2.609375 2.96875,0 0,2.609375 c 0,0.359375 -0.015625,0.46875 -0.78125,0.46875 l -0.234375,0 0,0.3125 c 0.34375,-0.03125 1.078125,-0.03125 1.453125,-0.03125 0.390625,0 1.125,0 1.484375,0.03125 l 0,-0.3125 -0.25,0 c -0.765625,0 -0.78125,-0.109375 -0.78125,-0.46875 z m 0,0"
               style="stroke:none"
               inkscape:connector-curvature="0" />
          </symbol>
          <symbol
             id="textext-8d3a2911-1"
             overflow="visible"
             style="overflow:visible">
            <path
               id="path4032"
               d="m 4.140625,-3.34375 c 0.25,-0.640625 0.765625,-0.640625 0.921875,-0.640625 l 0,-0.3125 c -0.234375,0.015625 -0.515625,0.03125 -0.75,0.03125 -0.171875,0 -0.640625,-0.015625 -0.859375,-0.03125 l 0,0.3125 c 0.3125,0 0.46875,0.171875 0.46875,0.421875 0,0.109375 -0.015625,0.125 -0.0625,0.25 L 2.84375,-0.875 1.75,-3.546875 C 1.703125,-3.65625 1.6875,-3.6875 1.6875,-3.734375 c 0,-0.25 0.359375,-0.25 0.5625,-0.25 l 0,-0.3125 c -0.265625,0.015625 -0.921875,0.03125 -1.09375,0.03125 -0.265625,0 -0.671875,-0.015625 -0.96875,-0.03125 l 0,0.3125 c 0.484375,0 0.671875,0 0.8125,0.34375 L 2.5,0 C 2.4375,0.125 2.296875,0.453125 2.25,0.59375 2.03125,1.140625 1.75,1.828125 1.109375,1.828125 c -0.046875,0 -0.28125,0 -0.46875,-0.1875 0.3125,-0.03125 0.390625,-0.25 0.390625,-0.421875 0,-0.25 -0.1875,-0.40625 -0.421875,-0.40625 -0.203125,0 -0.421875,0.125 -0.421875,0.421875 0,0.453125 0.421875,0.8125 0.921875,0.8125 0.625,0 1.03125,-0.578125 1.265625,-1.140625 z m 0,0"
               style="stroke:none"
               inkscape:connector-curvature="0" />
          </symbol>
          <symbol
             id="textext-8d3a2911-2"
             overflow="visible"
             style="overflow:visible">
            <path
               id="path4035"
               d="m 1.71875,-3.75 0,-0.65625 -1.4375,0.109375 0,0.3125 c 0.703125,0 0.78125,0.0625 0.78125,0.5 l 0,4.65625 C 1.0625,1.625 0.953125,1.625 0.28125,1.625 l 0,0.3125 C 0.625,1.921875 1.140625,1.90625 1.390625,1.90625 c 0.28125,0 0.78125,0.015625 1.125,0.03125 l 0,-0.3125 C 1.859375,1.625 1.75,1.625 1.75,1.171875 l 0,-1.765625 c 0.046875,0.171875 0.46875,0.703125 1.21875,0.703125 1.1875,0 2.21875,-0.984375 2.21875,-2.265625 0,-1.265625 -0.953125,-2.25 -2.078125,-2.25 -0.78125,0 -1.203125,0.4375 -1.390625,0.65625 z m 0.03125,2.609375 0,-2.21875 C 2.03125,-3.875 2.515625,-4.15625 3.03125,-4.15625 c 0.734375,0 1.328125,0.875 1.328125,2 0,1.203125 -0.6875,2.046875 -1.421875,2.046875 -0.40625,0 -0.78125,-0.203125 -1.046875,-0.609375 C 1.75,-0.921875 1.75,-0.9375 1.75,-1.140625 z m 0,0"
               style="stroke:none"
               inkscape:connector-curvature="0" />
          </symbol>
          <symbol
             id="textext-8d3a2911-3"
             overflow="visible"
             style="overflow:visible">
            <path
               id="path4038"
               d="M 4.6875,-2.140625 C 4.6875,-3.40625 3.703125,-4.46875 2.5,-4.46875 c -1.25,0 -2.21875,1.09375 -2.21875,2.328125 0,1.296875 1.03125,2.25 2.203125,2.25 1.203125,0 2.203125,-0.984375 2.203125,-2.25 z m -2.1875,2 c -0.4375,0 -0.875,-0.203125 -1.140625,-0.671875 -0.25,-0.4375 -0.25,-1.046875 -0.25,-1.40625 0,-0.390625 0,-0.921875 0.234375,-1.359375 C 1.609375,-4.03125 2.078125,-4.25 2.484375,-4.25 c 0.4375,0 0.859375,0.21875 1.125,0.65625 0.265625,0.421875 0.265625,1 0.265625,1.375 0,0.359375 0,0.90625 -0.21875,1.34375 C 3.421875,-0.421875 2.984375,-0.140625 2.5,-0.140625 z m 0,0"
               style="stroke:none"
               inkscape:connector-curvature="0" />
          </symbol>
          <symbol
             id="textext-8d3a2911-4"
             overflow="visible"
             style="overflow:visible">
            <path
               id="path4041"
               d="m 1.71875,-3.984375 1.4375,0 0,-0.3125 -1.4375,0 0,-1.828125 -0.25,0 c 0,0.8125 -0.296875,1.875 -1.28125,1.921875 l 0,0.21875 0.84375,0 0,2.75 c 0,1.21875 0.9375,1.34375 1.296875,1.34375 0.703125,0 0.984375,-0.703125 0.984375,-1.34375 l 0,-0.5625 -0.25,0 0,0.546875 c 0,0.734375 -0.296875,1.109375 -0.671875,1.109375 -0.671875,0 -0.671875,-0.90625 -0.671875,-1.078125 z m 0,0"
               style="stroke:none"
               inkscape:connector-curvature="0" />
          </symbol>
          <symbol
             id="textext-8d3a2911-5"
             overflow="visible"
             style="overflow:visible">
            <path
               id="path4044"
               d="m 1.09375,-0.75 c 0,0.4375 -0.109375,0.4375 -0.78125,0.4375 l 0,0.3125 c 0.359375,-0.015625 0.859375,-0.03125 1.140625,-0.03125 0.25,0 0.765625,0.015625 1.109375,0.03125 l 0,-0.3125 c -0.671875,0 -0.78125,0 -0.78125,-0.4375 l 0,-1.84375 C 1.78125,-3.625 2.5,-4.1875 3.125,-4.1875 c 0.640625,0 0.75,0.53125 0.75,1.109375 l 0,2.328125 c 0,0.4375 -0.109375,0.4375 -0.78125,0.4375 l 0,0.3125 c 0.34375,-0.015625 0.859375,-0.03125 1.125,-0.03125 0.25,0 0.78125,0.015625 1.109375,0.03125 l 0,-0.3125 c -0.515625,0 -0.765625,0 -0.765625,-0.296875 l 0,-1.90625 c 0,-0.859375 0,-1.15625 -0.3125,-1.515625 -0.140625,-0.171875 -0.46875,-0.375 -1.046875,-0.375 -0.84375,0 -1.28125,0.59375 -1.453125,0.984375 l 0,-3.5 -1.4375,0.109375 0,0.3125 c 0.703125,0 0.78125,0.0625 0.78125,0.5625 z m 0,0"
               style="stroke:none"
               inkscape:connector-curvature="0" />
          </symbol>
          <symbol
             id="textext-8d3a2911-6"
             overflow="visible"
             style="overflow:visible">
            <path
               id="path4047"
               d="M 1.109375,-2.515625 C 1.171875,-4 2.015625,-4.25 2.359375,-4.25 c 1.015625,0 1.125,1.34375 1.125,1.734375 z m 0,0.21875 2.78125,0 c 0.21875,0 0.25,0 0.25,-0.21875 0,-0.984375 -0.546875,-1.953125 -1.78125,-1.953125 -1.15625,0 -2.078125,1.03125 -2.078125,2.28125 0,1.328125 1.046875,2.296875 2.1875,2.296875 C 3.6875,0.109375 4.140625,-1 4.140625,-1.1875 4.140625,-1.28125 4.0625,-1.3125 4,-1.3125 c -0.078125,0 -0.109375,0.0625 -0.125,0.140625 -0.34375,1.03125 -1.25,1.03125 -1.34375,1.03125 -0.5,0 -0.890625,-0.296875 -1.125,-0.671875 -0.296875,-0.46875 -0.296875,-1.125 -0.296875,-1.484375 z m 0,0"
               style="stroke:none"
               inkscape:connector-curvature="0" />
          </symbol>
          <symbol
             id="textext-8d3a2911-7"
             overflow="visible"
             style="overflow:visible">
            <path
               id="path4050"
               d="m 1.09375,-3.421875 0,2.671875 c 0,0.4375 -0.109375,0.4375 -0.78125,0.4375 l 0,0.3125 c 0.359375,-0.015625 0.859375,-0.03125 1.140625,-0.03125 0.25,0 0.765625,0.015625 1.109375,0.03125 l 0,-0.3125 c -0.671875,0 -0.78125,0 -0.78125,-0.4375 l 0,-1.84375 C 1.78125,-3.625 2.5,-4.1875 3.125,-4.1875 c 0.640625,0 0.75,0.53125 0.75,1.109375 l 0,2.328125 c 0,0.4375 -0.109375,0.4375 -0.78125,0.4375 l 0,0.3125 c 0.34375,-0.015625 0.859375,-0.03125 1.125,-0.03125 0.25,0 0.78125,0.015625 1.109375,0.03125 l 0,-0.3125 c -0.515625,0 -0.765625,0 -0.765625,-0.296875 l 0,-1.90625 c 0,-0.859375 0,-1.15625 -0.3125,-1.515625 -0.140625,-0.171875 -0.46875,-0.375 -1.046875,-0.375 C 2.46875,-4.40625 2,-3.984375 1.71875,-3.359375 l 0,-1.046875 -1.40625,0.109375 0,0.3125 c 0.703125,0 0.78125,0.0625 0.78125,0.5625 z m 0,0"
               style="stroke:none"
               inkscape:connector-curvature="0" />
          </symbol>
          <symbol
             id="textext-8d3a2911-8"
             overflow="visible"
             style="overflow:visible">
            <path
               id="path4053"
               d="m 3.890625,-0.78125 0,0.890625 L 5.328125,0 l 0,-0.3125 C 4.640625,-0.3125 4.5625,-0.375 4.5625,-0.875 l 0,-3.53125 -1.46875,0.109375 0,0.3125 c 0.6875,0 0.78125,0.0625 0.78125,0.5625 l 0,1.765625 c 0,0.875 -0.484375,1.546875 -1.21875,1.546875 -0.828125,0 -0.875,-0.46875 -0.875,-0.984375 l 0,-3.3125 -1.46875,0.109375 0,0.3125 c 0.78125,0 0.78125,0.03125 0.78125,0.90625 l 0,1.5 c 0,0.78125 0,1.6875 1.515625,1.6875 0.5625,0 1,-0.28125 1.28125,-0.890625 z m 0,0"
               style="stroke:none"
               inkscape:connector-curvature="0" />
          </symbol>
          <symbol
             id="textext-8d3a2911-9"
             overflow="visible"
             style="overflow:visible">
            <path
               id="path4056"
               d="m 2.078125,-1.9375 c 0.21875,0.046875 1.03125,0.203125 1.03125,0.921875 0,0.5 -0.34375,0.90625 -1.125,0.90625 -0.84375,0 -1.203125,-0.5625 -1.390625,-1.421875 C 0.5625,-1.65625 0.5625,-1.6875 0.453125,-1.6875 c -0.125,0 -0.125,0.0625 -0.125,0.234375 l 0,1.328125 c 0,0.171875 0,0.234375 0.109375,0.234375 0.046875,0 0.0625,-0.015625 0.25,-0.203125 0.015625,-0.015625 0.015625,-0.03125 0.203125,-0.21875 0.4375,0.40625 0.890625,0.421875 1.09375,0.421875 1.140625,0 1.609375,-0.671875 1.609375,-1.390625 0,-0.515625 -0.296875,-0.828125 -0.421875,-0.9375 C 2.84375,-2.546875 2.453125,-2.625 2.03125,-2.703125 1.46875,-2.8125 0.8125,-2.9375 0.8125,-3.515625 c 0,-0.359375 0.25,-0.765625 1.109375,-0.765625 1.09375,0 1.15625,0.90625 1.171875,1.203125 0,0.09375 0.09375,0.09375 0.109375,0.09375 0.140625,0 0.140625,-0.046875 0.140625,-0.234375 l 0,-1.015625 c 0,-0.15625 0,-0.234375 -0.109375,-0.234375 -0.046875,0 -0.078125,0 -0.203125,0.125 -0.03125,0.03125 -0.125,0.125 -0.171875,0.15625 -0.375,-0.28125 -0.78125,-0.28125 -0.9375,-0.28125 -1.21875,0 -1.59375,0.671875 -1.59375,1.234375 0,0.34375 0.15625,0.625 0.421875,0.84375 0.328125,0.25 0.609375,0.3125 1.328125,0.453125 z m 0,0"
               style="stroke:none"
               inkscape:connector-curvature="0" />
          </symbol>
        </g>
      </defs>
      <g
         id="textext-8d3a2911-10">
        <g
           id="g4059"
           style="fill:#000000;fill-opacity:1">
          <use
             id="use4061"
             y="134.765"
             x="223.43201"
             xlink:href="#textext-8d3a2911-0"
             width="1052.3622"
             height="744.09448" />
          <use
             id="use4063"
             y="134.765"
             x="230.90395"
             xlink:href="#textext-8d3a2911-1"
             width="1052.3622"
             height="744.09448" />
          <use
             id="use4065"
             y="134.765"
             x="236.16222"
             xlink:href="#textext-8d3a2911-2"
             width="1052.3622"
             height="744.09448" />
        </g>
        <g
           id="g4067"
           style="fill:#000000;fill-opacity:1">
          <use
             id="use4069"
             y="134.765"
             x="241.97638"
             xlink:href="#textext-8d3a2911-3"
             width="1052.3622"
             height="744.09448" />
          <use
             id="use4071"
             y="134.765"
             x="246.95769"
             xlink:href="#textext-8d3a2911-4"
             width="1052.3622"
             height="744.09448" />
          <use
             id="use4073"
             y="134.765"
             x="250.83214"
             xlink:href="#textext-8d3a2911-5"
             width="1052.3622"
             height="744.09448" />
          <use
             id="use4075"
             y="134.765"
             x="256.36737"
             xlink:href="#textext-8d3a2911-6"
             width="1052.3622"
             height="744.09448" />
          <use
             id="use4077"
             y="134.765"
             x="260.79474"
             xlink:href="#textext-8d3a2911-7"
             width="1052.3622"
             height="744.09448" />
        </g>
        <g
           id="g4079"
           style="fill:#000000;fill-opacity:1">
          <use
             id="use4081"
             y="134.765"
             x="266.05099"
             xlink:href="#textext-8d3a2911-8"
             width="1052.3622"
             height="744.09448" />
          <use
             id="use4083"
             y="134.765"
             x="271.58621"
             xlink:href="#textext-8d3a2911-9"
             width="1052.3622"
             height="744.09448" />
          <use
             id="use4085"
             y="134.765"
             x="275.51547"
             xlink:href="#textext-8d3a2911-6"
             width="1052.3622"
             height="744.09448" />
        </g>
      </g>
    </g>
    <path
       style="fill:#f9f9f9;stroke:#000000;stroke-width:1px;stroke-linecap:butt;stroke-linejoin:miter;stroke-opacity:1"
       d="M 296.2595,767.43808 756.10262,502.05768"
       id="path5847"
       inkscape:connector-curvature="0"
       inkscape:export-filename="/home/waldgeist/data/pics/Homepage/mathematik/geometrie/rechtwinkliges-dreieck.png"
       inkscape:export-xdpi="150"
       inkscape:export-ydpi="150" />
  </g>
</svg>
