<svg xmlns:ns0="http://www.iki.fi/pav/software/textext/" xmlns="http://www.w3.org/2000/svg" xmlns:xlink="http://www.w3.org/1999/xlink" height="744.094" width="1052.362"><title>Rotation (Drehung)</title><defs><marker orient="auto" id="e" overflow="visible"><path d="M-4 0l-2 2 7-2-7-2 2 2z" fill-rule="evenodd" stroke="#000" stroke-width=".4pt"/></marker></defs><g transform="translate(0 -308.268)"><use y="134.765" x="223.432" xlink:href="#textext-28c1ecfe-0" width="744.094" height="1052.362" transform="translate(-690.002 115.427) scale(3.49978)"/><use y="134.765" x="223.432" xlink:href="#textext-28c1ecfe-0" width="744.094" height="1052.362" transform="translate(-200.574 -112.91) scale(3.49978)"/><use y="134.765" x="223.432" xlink:href="#textext-28c1ecfe-0" width="744.094" height="1052.362" transform="translate(-200.574 -112.91) scale(3.49978)"/><path fill="#fff" stroke="#fff" stroke-width="3" stroke-linecap="square" d="M12.814 388.769h1026.734V971.86H12.814z"/><path d="M757.03 671.622l-89.208 51.483-.371-206.574z" fill="#f9f9f9" stroke="#000" stroke-width="3" stroke-linecap="round"/><g ns0:text="$\\rm{P_3\'}$" ns0:preamble="/home/waldgeist/data/sphinx/inkscape-preamble.tex" transform="matrix(4.58764 0 0 4.56905 -416.223 -166.572)"><defs><symbol overflow="visible" id="a"><path d="M2.266-3.156h1.687c1.188 0 2.266-.797 2.266-1.797 0-.984-.985-1.86-2.344-1.86H.344v.313h.25c.765 0 .781.11.781.469v5.25c0 .36-.016.469-.781.469h-.25V0c.36-.031 1.094-.031 1.469-.031s1.125 0 1.484.031v-.313h-.25c-.766 0-.781-.109-.781-.468zm-.032-.25v-2.688c0-.343.016-.406.485-.406h.89c1.579 0 1.579 1.063 1.579 1.547 0 .469 0 1.547-1.579 1.547zm0 0"/></symbol><symbol overflow="visible" id="b"><path d="M2.016-3.297c.062-.11.062-.172.062-.219 0-.218-.187-.375-.406-.375-.266 0-.344.22-.375.329L.375-.547a.33.33 0 0 0-.047.11c0 .078.219.156.281.156.047 0 .047-.016.094-.125zm0 0"/></symbol><symbol overflow="visible" id="c"><path d="M1.906-2.328c.547 0 .938.375.938 1.125 0 .86-.516 1.125-.906 1.125-.282 0-.907-.078-1.188-.5.328 0 .406-.235.406-.39 0-.22-.172-.376-.39-.376a.38.38 0 0 0-.391.407C.375-.281 1.094.14 1.938.14c.968 0 1.64-.657 1.64-1.344 0-.547-.437-1.094-1.203-1.25.719-.266.984-.781.984-1.219 0-.547-.625-.953-1.406-.953-.766 0-1.36.375-1.36.938 0 .234.157.359.36.359.219 0 .36-.156.36-.344 0-.203-.141-.36-.36-.375.25-.297.719-.375.985-.375.312 0 .75.156.75.75 0 .297-.094.625-.282.828-.219.266-.422.281-.765.313-.172.015-.188.015-.22.015-.015 0-.077.016-.077.094 0 .094.062.094.187.094zm0 0"/></symbol></defs><use xlink:href="#a" x="223.432" y="134.765" width="1052.362" height="744.094"/><use xlink:href="#b" x="230.212" y="131.149" width="1052.362" height="744.094"/><use xlink:href="#c" x="230.212" y="137.237" width="1052.362" height="744.094"/></g><path style="marker:none" d="M404.647 160.572a127.96 127.96 0 1 1-255.919 0 127.96 127.96 0 1 1 255.92 0z" transform="matrix(-1.30346 0 0 1.33648 864.46 472.21)" color="#000" fill="none" stroke="#5f8dd3" stroke-width="1.515" stroke-linecap="round" stroke-linejoin="round" stroke-dasharray="1.13647619999999994,4.54590479999999975" overflow="visible"/><path transform="matrix(-1.8678 0 0 1.86779 1016.681 386.96)" d="M404.647 160.572a127.96 127.96 0 1 1-255.919 0 127.96 127.96 0 1 1 255.92 0z" style="marker:none" color="#000" fill="none" stroke="#5f8dd3" stroke-width="1.071" stroke-linecap="round" stroke-linejoin="round" stroke-dasharray=".80308785999999999,3.21235144999999989" overflow="visible"/><path d="M499.886 428.996a257.878 257.878 0 1 1 0 515.757 257.878 257.878 0 1 1 0-515.757z" style="marker:none" color="#000" fill="none" stroke="#5f8dd3" stroke-width="1.99918752" stroke-linecap="round" stroke-linejoin="round" stroke-dasharray=".74430253999999985,2.97721013999999995" overflow="visible"/><g ns0:text="$\\rm{Z}$" ns0:preamble="/home/waldgeist/data/sphinx/inkscape-preamble.tex" transform="matrix(4.56905 0 0 4.56905 -535.013 56.045)"><defs><symbol overflow="visible" id="d"><path d="M5.453-6.453c.063-.11.063-.125.063-.203 0-.157-.047-.157-.25-.157H.796l-.109 2.25h.25C1-5.688 1.313-6.5 2.938-6.5H4.5L.625-.375c-.063.11-.063.125-.063.203C.563 0 .61 0 .813 0h4.594l.172-2.656h-.25C5.25-1.281 5.062-.344 3.218-.344h-1.64zm0 0"/></symbol></defs><use height="744.094" width="1052.362" xlink:href="#d" x="223.432" y="134.765"/></g><path transform="matrix(-1.30346 0 0 1.33648 864.46 472.21)" d="M151.541 187.256a127.96 127.96 0 0 1 37.837-120.23" style="marker:none" color="#000" fill="none" stroke="#5f8dd3" stroke-width="2.273" stroke-linecap="round" stroke-linejoin="round" marker-end="url(#e)" overflow="visible"/><path d="M615.25 456.555l-.02 102.998-179.083-102.965z" fill="#f9f9f9" stroke="#000" stroke-width="3" stroke-linecap="round"/><path style="marker:none" d="M187.136 69.17a127.96 127.96 0 0 1 121.65-32.467" transform="matrix(-1.8678 0 0 1.86779 1016.681 386.96)" color="#000" fill="none" stroke="#5f8dd3" stroke-width="1.606" stroke-linecap="round" stroke-linejoin="round" marker-end="url(#e)" overflow="visible"/><path style="marker:none" d="M284.21 32.833a127.96 127.96 0 0 1 106.266 69.208" transform="matrix(0 -2.01531 -2.01531 0 823.488 1244.486)" color="#000" fill="none" stroke="#5f8dd3" stroke-width="1.489" stroke-linecap="round" stroke-linejoin="round" marker-end="url(#e)" overflow="visible"/><path d="M499.886 686.874l167.047 35.6M499.886 686.874l115.345-127.321" fill="none" stroke="#5f8dd3" stroke-width="1.5" stroke-dasharray="1,2"/><g fill="none" stroke="#000" stroke-linecap="round"><path d="M507.926 679.003l-16.08 15.743M491.847 679.003l16.079 15.743"/></g><path style="marker:none" d="M151.541 187.256a127.96 127.96 0 0 1 72.036-143.101" transform="matrix(-.3485 0 0 .35733 615.935 633.44)" color="#000" fill="none" stroke="#5f8dd3" stroke-width="4.251" stroke-linecap="round" stroke-linejoin="round" marker-end="url(#e)" overflow="visible"/><g transform="matrix(4.56905 0 0 4.56905 -497.91 69.546)" ns0:preamble="/home/waldgeist/data/sphinx/inkscape-preamble.tex" ns0:text="$\\alpha$" fill="#5f8dd3"><defs><symbol id="f" overflow="visible"><path d="M4.75-2.36c0-1.562-.922-2.046-1.656-2.046-1.375 0-2.688 1.422-2.688 2.828C.406-.641 1 .109 2.031.109c.625 0 1.344-.234 2.094-.843.125.53.453.843.906.843.532 0 .844-.546.844-.703 0-.078-.063-.11-.125-.11-.063 0-.094.032-.125.11-.188.485-.547.485-.563.485-.312 0-.312-.782-.312-1.016 0-.203 0-.234.11-.344C5.796-2.656 6-3.812 6-3.812c0-.032-.016-.11-.125-.11-.094 0-.094.031-.14.219-.188.625-.516 1.375-.985 1.969zM4.094-.983c-.89.765-1.657.875-2.047.875-.594 0-.906-.454-.906-1.094 0-.484.265-1.563.578-2.063.468-.734 1.015-.921 1.36-.921.983 0 .983 1.312.983 2.078 0 .375 0 .953.032 1.125zm0 0"/></symbol></defs><use y="134.765" x="223.432" xlink:href="#f" width="1052.362" height="744.094"/></g><g ns0:text="$\\rm{P_1}$" ns0:preamble="/home/waldgeist/data/sphinx/inkscape-preamble.tex" transform="matrix(4.56905 0 0 4.56905 -362.854 -107.073)"><defs><symbol overflow="visible" id="g"><path d="M2.266-3.156h1.687c1.188 0 2.266-.797 2.266-1.797 0-.984-.985-1.86-2.344-1.86H.344v.313h.25c.765 0 .781.11.781.469v5.25c0 .36-.016.469-.781.469h-.25V0c.36-.031 1.094-.031 1.469-.031s1.125 0 1.484.031v-.313h-.25c-.766 0-.781-.109-.781-.468zm-.032-.25v-2.688c0-.343.016-.406.485-.406h.89c1.579 0 1.579 1.063 1.579 1.547 0 .469 0 1.547-1.579 1.547zm0 0"/></symbol><symbol overflow="visible" id="h"><path d="M2.328-4.438c0-.187 0-.187-.203-.187-.453.438-1.078.438-1.36.438v.25c.157 0 .626 0 1-.188v3.547c0 .234 0 .328-.687.328H.812V0c.125 0 .985-.031 1.235-.031.219 0 1.094.031 1.25.031v-.25H3.03c-.703 0-.703-.094-.703-.328zm0 0"/></symbol></defs><use height="744.094" width="1052.362" xlink:href="#g" x="223.432" y="134.765"/><use height="744.094" width="1052.362" xlink:href="#h" x="230.212" y="136.259"/></g><g transform="matrix(4.56905 0 0 4.56905 -367.764 147.565)" ns0:preamble="/home/waldgeist/data/sphinx/inkscape-preamble.tex" ns0:text="$\\rm{P_2}$"><defs><symbol id="i" overflow="visible"><path d="M2.266-3.156h1.687c1.188 0 2.266-.797 2.266-1.797 0-.984-.985-1.86-2.344-1.86H.344v.313h.25c.765 0 .781.11.781.469v5.25c0 .36-.016.469-.781.469h-.25V0c.36-.031 1.094-.031 1.469-.031s1.125 0 1.484.031v-.313h-.25c-.766 0-.781-.109-.781-.468zm-.032-.25v-2.688c0-.343.016-.406.485-.406h.89c1.579 0 1.579 1.063 1.579 1.547 0 .469 0 1.547-1.579 1.547zm0 0"/></symbol><symbol id="j" overflow="visible"><path d="M3.516-1.266H3.28c-.015.157-.094.563-.187.625-.047.047-.578.047-.688.047H1.125c.734-.64.984-.844 1.39-1.172.516-.406 1-.843 1-1.5 0-.843-.734-1.359-1.624-1.359-.86 0-1.454.61-1.454 1.25 0 .344.297.39.376.39.156 0 .359-.124.359-.374 0-.125-.047-.375-.406-.375.218-.485.687-.641 1.015-.641.703 0 1.063.547 1.063 1.11 0 .609-.438 1.078-.656 1.328L.516-.266C.437-.203.437-.187.437 0h2.876zm0 0"/></symbol></defs><use y="134.765" x="223.432" xlink:href="#i" width="1052.362" height="744.094"/><use y="136.259" x="230.212" xlink:href="#j" width="1052.362" height="744.094"/></g><g ns0:text="$\\rm{P_3}$" ns0:preamble="/home/waldgeist/data/sphinx/inkscape-preamble.tex" transform="matrix(4.58764 0 0 4.56905 -261.19 65.443)"><defs><symbol overflow="visible" id="k"><path d="M2.266-3.156h1.687c1.188 0 2.266-.797 2.266-1.797 0-.984-.985-1.86-2.344-1.86H.344v.313h.25c.765 0 .781.11.781.469v5.25c0 .36-.016.469-.781.469h-.25V0c.36-.031 1.094-.031 1.469-.031s1.125 0 1.484.031v-.313h-.25c-.766 0-.781-.109-.781-.468zm-.032-.25v-2.688c0-.343.016-.406.485-.406h.89c1.579 0 1.579 1.063 1.579 1.547 0 .469 0 1.547-1.579 1.547zm0 0"/></symbol><symbol overflow="visible" id="l"><path d="M1.906-2.328c.547 0 .938.375.938 1.125 0 .86-.516 1.125-.906 1.125-.282 0-.907-.078-1.188-.5.328 0 .406-.235.406-.39 0-.22-.172-.376-.39-.376a.38.38 0 0 0-.391.407C.375-.281 1.094.14 1.938.14c.968 0 1.64-.657 1.64-1.344 0-.547-.437-1.094-1.203-1.25.719-.266.984-.781.984-1.219 0-.547-.625-.953-1.406-.953-.766 0-1.36.375-1.36.938 0 .234.157.359.36.359.219 0 .36-.156.36-.344 0-.203-.141-.36-.36-.375.25-.297.719-.375.985-.375.312 0 .75.156.75.75 0 .297-.094.625-.282.828-.219.266-.422.281-.765.313-.172.015-.188.015-.22.015-.015 0-.077.016-.077.094 0 .094.062.094.187.094zm0 0"/></symbol></defs><use height="744.094" width="1052.362" xlink:href="#k" x="223.432" y="134.765"/><use height="744.094" width="1052.362" xlink:href="#l" x="230.212" y="136.259"/></g><g transform="matrix(4.56905 0 0 4.56905 -630.43 -140.924)" ns0:preamble="/home/waldgeist/data/sphinx/inkscape-preamble.tex" ns0:text="$\\rm{P_1\'}$"><defs><symbol id="m" overflow="visible"><path d="M2.266-3.156h1.687c1.188 0 2.266-.797 2.266-1.797 0-.984-.985-1.86-2.344-1.86H.344v.313h.25c.765 0 .781.11.781.469v5.25c0 .36-.016.469-.781.469h-.25V0c.36-.031 1.094-.031 1.469-.031s1.125 0 1.484.031v-.313h-.25c-.766 0-.781-.109-.781-.468zm-.032-.25v-2.688c0-.343.016-.406.485-.406h.89c1.579 0 1.579 1.063 1.579 1.547 0 .469 0 1.547-1.579 1.547zm0 0"/></symbol><symbol id="n" overflow="visible"><path d="M2.016-3.297c.062-.11.062-.172.062-.219 0-.218-.187-.375-.406-.375-.266 0-.344.22-.375.329L.375-.547a.33.33 0 0 0-.047.11c0 .078.219.156.281.156.047 0 .047-.016.094-.125zm0 0"/></symbol><symbol id="o" overflow="visible"><path d="M2.328-4.438c0-.187 0-.187-.203-.187-.453.438-1.078.438-1.36.438v.25c.157 0 .626 0 1-.188v3.547c0 .234 0 .328-.687.328H.812V0c.125 0 .985-.031 1.235-.031.219 0 1.094.031 1.25.031v-.25H3.03c-.703 0-.703-.094-.703-.328zm0 0"/></symbol></defs><use y="134.765" x="223.432" xlink:href="#m" width="1052.362" height="744.094"/><use y="131.149" x="230.212" xlink:href="#n" width="1052.362" height="744.094"/><use y="137.237" x="230.212" xlink:href="#o" width="1052.362" height="744.094"/></g><g transform="matrix(4.56905 0 0 4.56905 -423.017 -10.847)" ns0:preamble="/home/waldgeist/data/sphinx/inkscape-preamble.tex" ns0:text="$\\rm{P_2\'}$"><defs><symbol id="p" overflow="visible"><path d="M2.266-3.156h1.687c1.188 0 2.266-.797 2.266-1.797 0-.984-.985-1.86-2.344-1.86H.344v.313h.25c.765 0 .781.11.781.469v5.25c0 .36-.016.469-.781.469h-.25V0c.36-.031 1.094-.031 1.469-.031s1.125 0 1.484.031v-.313h-.25c-.766 0-.781-.109-.781-.468zm-.032-.25v-2.688c0-.343.016-.406.485-.406h.89c1.579 0 1.579 1.063 1.579 1.547 0 .469 0 1.547-1.579 1.547zm0 0"/></symbol><symbol id="q" overflow="visible"><path d="M2.016-3.297c.062-.11.062-.172.062-.219 0-.218-.187-.375-.406-.375-.266 0-.344.22-.375.329L.375-.547a.33.33 0 0 0-.047.11c0 .078.219.156.281.156.047 0 .047-.016.094-.125zm0 0"/></symbol><symbol id="r" overflow="visible"><path d="M3.516-1.266H3.28c-.015.157-.094.563-.187.625-.047.047-.578.047-.688.047H1.125c.734-.64.984-.844 1.39-1.172.516-.406 1-.843 1-1.5 0-.843-.734-1.359-1.624-1.359-.86 0-1.454.61-1.454 1.25 0 .344.297.39.376.39.156 0 .359-.124.359-.374 0-.125-.047-.375-.406-.375.218-.485.687-.641 1.015-.641.703 0 1.063.547 1.063 1.11 0 .609-.438 1.078-.656 1.328L.516-.266C.437-.203.437-.187.437 0h2.876zm0 0"/></symbol></defs><use y="134.765" x="223.432" xlink:href="#p" width="1052.362" height="744.094"/><use y="131.149" x="230.212" xlink:href="#q" width="1052.362" height="744.094"/><use y="137.237" x="230.212" xlink:href="#r" width="1052.362" height="744.094"/></g></g></svg>