<svg xmlns:ns0="http://www.iki.fi/pav/software/textext/" xmlns="http://www.w3.org/2000/svg" xmlns:xlink="http://www.w3.org/1999/xlink" width="1052.362" height="744.094"><title>Strahlensatz 1</title><defs><symbol overflow="visible" id="a"><path d="M2.219-3.656v-2.438c0-.343.015-.406.484-.406h1.235c.968 0 1.312.844 1.312 1.375 0 .64-.484 1.469-1.594 1.469zm2.344.094c.968-.188 1.656-.829 1.656-1.563 0-.86-.922-1.688-2.219-1.688H.36v.313h.234c.765 0 .797.11.797.469v5.25c0 .36-.032.469-.797.469H.359V0h3.907c1.328 0 2.218-.89 2.218-1.828 0-.86-.812-1.61-1.921-1.734zm-.61 3.25h-1.25c-.469 0-.484-.063-.484-.391v-2.719h1.875c.984 0 1.406.922 1.406 1.594 0 .703-.531 1.516-1.547 1.516z"/></symbol></defs><g transform="translate(0 -308.268)"><rect ry="5.976" y="406.136" x="23.829" height="548.359" width="1004.705" style="marker:none" color="#000" fill="#fff" stroke="#fff" stroke-width="2.396" stroke-linecap="round" stroke-linejoin="bevel" overflow="visible"/><path d="M720.074 564.373l55.978 96.958" fill="none" stroke="green" stroke-width="8" stroke-linecap="round"/><use height="744.094" width="1052.362" xlink:href="#a" x="223.432" y="134.765" transform="matrix(3.37375 0 0 3.37375 -638.202 353.664)" ns0:text="$\\rm{B}$" ns0:preamble="/home/waldgeist/data/sphinx/inkscape-preamble.tex" stroke="#000"/><path d="M193.64 669.047c-.158-.421-.263-.685-.79-.685s-.633.21-.79.685l-6.96 20.085c-.632 1.74-1.95 2.266-3.795 2.266v1.055c.791-.053 2.267-.106 3.427-.106 1.054 0 2.794.053 3.9.106v-1.055c-1.686 0-2.53-.843-2.53-1.686 0-.106.053-.475.053-.528l1.581-4.375h8.277l1.792 5.113c.053.159.105.37.105.475 0 1.001-1.897 1.001-2.793 1.001v1.055c1.212-.106 3.584-.106 4.85-.106 1.423 0 3.004.053 4.375.106v-1.055h-.58c-2.003 0-2.478-.21-2.847-1.317zm-1.792 3.743l3.796 10.965h-7.539z" stroke="none" ns0:preamble="/home/waldgeist/data/sphinx/inkscape-preamble.tex" ns0:text="$\\rm{A}$"/><g transform="matrix(3.37375 0 0 3.37375 -461.275 71.575)" ns0:preamble="/home/waldgeist/data/sphinx/inkscape-preamble.tex" ns0:text="$\\rm{S}$" stroke="#000"><defs><symbol id="b" overflow="visible"><path d="M3.484-3.875l-1.28-.297c-.626-.156-1-.687-1-1.266 0-.703.53-1.312 1.312-1.312 1.656 0 1.875 1.64 1.937 2.078.016.063.016.125.125.125.125 0 .125-.047.125-.234v-2c0-.172 0-.25-.11-.25-.062 0-.077.015-.14.14l-.36.563c-.296-.297-.702-.703-1.593-.703-1.11 0-1.938.875-1.938 1.937 0 .828.532 1.563 1.297 1.828.11.032.625.157 1.329.329.265.062.562.14.843.5.203.265.313.593.313.921 0 .704-.5 1.422-1.344 1.422-.281 0-1.047-.047-1.578-.531-.578-.547-.61-1.172-.61-1.531-.015-.11-.093-.11-.125-.11-.125 0-.125.079-.125.25v2c0 .172 0 .235.11.235.062 0 .078-.016.14-.125 0-.016.032-.047.36-.578.312.343.953.703 1.844.703 1.156 0 1.953-.969 1.953-2.078 0-.985-.657-1.813-1.485-2.016z" stroke="none"/></symbol></defs><use y="134.765" x="223.432" xlink:href="#b" width="1052.362" height="744.094"/></g><g ns0:text="$\\rm{C}$" ns0:preamble="/home/waldgeist/data/sphinx/inkscape-preamble.tex" transform="matrix(3.37375 0 0 3.37375 -385.504 185.784)" stroke="#000"><defs><symbol overflow="visible" id="c"><path d="M.563-3.406C.563-1.344 2.171.219 4.03.219c1.625 0 2.594-1.39 2.594-2.547 0-.094 0-.172-.125-.172-.11 0-.11.063-.125.172C6.297-.906 5.235-.094 4.141-.094c-.61 0-2.563-.328-2.563-3.312 0-2.969 1.953-3.313 2.563-3.313 1.078 0 1.968.907 2.171 2.36.016.14.016.171.157.171.156 0 .156-.03.156-.234v-2.36c0-.171 0-.25-.11-.25-.03 0-.077 0-.156.126l-.5.734c-.359-.36-.875-.86-1.828-.86-1.875 0-3.468 1.595-3.468 3.626z" stroke="none"/></symbol></defs><use xlink:href="#c" x="223.432" y="134.765" width="1052.362" height="744.094"/></g><g transform="matrix(3.37375 0 0 3.37375 -333.979 267.47)" ns0:preamble="/home/waldgeist/data/sphinx/inkscape-preamble.tex" ns0:text="$\\rm{D}$" stroke="#000"><defs><symbol id="d" overflow="visible"><path d="M.344-6.813v.313h.25c.765 0 .781.11.781.469v5.25c0 .36-.016.469-.781.469h-.25V0H4c1.672 0 3.047-1.469 3.047-3.344C7.047-5.25 5.703-6.813 4-6.813zm2.375 6.5c-.469 0-.485-.062-.485-.39v-5.39c0-.345.016-.407.485-.407h1c.625 0 1.312.219 1.812.922.438.594.516 1.453.516 2.234 0 1.094-.188 1.703-.547 2.188a2.192 2.192 0 0 1-1.766.843z" stroke="none"/></symbol></defs><use y="134.765" x="223.432" xlink:href="#d" width="1052.362" height="744.094"/></g><path d="M145.789 806.689l57.752-100.03" fill="none" stroke="#00f" stroke-width="8" stroke-linecap="round"/><path d="M212.236 691.6L297.62 543.71" fill="#87de87" stroke="green" stroke-width="8" stroke-linecap="round"/><path d="M415.03 731.852l-41.748-72.31" fill="none" stroke="#00f" stroke-width="8" stroke-linecap="round"/><path d="M366.365 647.561l-60.578-104.925" fill="#59f" stroke="green" stroke-width="8" stroke-linecap="round"/><path d="M75.842 927.84L302.013 536.1l163.212 282.692" fill="none" stroke="#000" stroke-width="3" stroke-linecap="round" stroke-linejoin="round"/><path d="M53.507 838.572l452.724-125.73M119.846 723.67l338.178-94.002" fill="none" stroke="#000" stroke-width="3" stroke-linecap="round"/><use y="134.765" x="223.432" xlink:href="#a" width="1052.362" height="744.094" transform="matrix(3.37375 0 0 3.37375 -75.376 335.891)" ns0:preamble="/home/waldgeist/data/sphinx/inkscape-preamble.tex" ns0:text="$\\rm{B}$" stroke="#000"/><path d="M690.748 532.058c-.158-.422-.263-.686-.79-.686-.528 0-.633.211-.791.686l-6.959 20.084c-.632 1.74-1.95 2.267-3.795 2.267v1.054c.79-.053 2.267-.106 3.426-.106 1.055 0 2.794.053 3.901.106v-1.054c-1.687 0-2.53-.844-2.53-1.687 0-.106.053-.475.053-.527l1.581-4.376h8.276l1.793 5.114c.052.158.105.369.105.474 0 1.002-1.898 1.002-2.794 1.002v1.054c1.213-.106 3.585-.106 4.85-.106 1.423 0 3.005.053 4.375.106v-1.054h-.58c-2.003 0-2.477-.211-2.846-1.318zm-1.792 3.742l3.795 10.965h-7.538z" stroke="none" ns0:text="$\\rm{A}$" ns0:preamble="/home/waldgeist/data/sphinx/inkscape-preamble.tex"/><use height="744.094" width="1052.362" xlink:href="#b" x="223.432" y="134.765" transform="matrix(3.37375 0 0 3.37375 -6.862 223.531)" ns0:text="$\\rm{S}$" ns0:preamble="/home/waldgeist/data/sphinx/inkscape-preamble.tex" stroke="#000"/><path d="M710.279 788.259l66.277-114.796" fill="none" stroke="#00f" stroke-width="8" stroke-linecap="round"/><use height="744.094" width="1052.362" y="134.765" x="223.432" xlink:href="#c" transform="matrix(3.37375 0 0 3.37375 90.236 56.044)" ns0:preamble="/home/waldgeist/data/sphinx/inkscape-preamble.tex" ns0:text="$\\rm{C}$" stroke="#000"/><use height="744.094" width="1052.362" xlink:href="#d" x="223.432" y="134.765" transform="matrix(3.37375 0 0 3.37375 80.446 292.352)" ns0:text="$\\rm{D}$" ns0:preamble="/home/waldgeist/data/sphinx/inkscape-preamble.tex" stroke="#000"/><path d="M829.3 753.558l-46.323-80.233" fill="none" stroke="#00f" stroke-width="8" stroke-linecap="round"/><path d="M863.734 522.466l-80.095 138.73" fill="none" stroke="green" stroke-width="8" stroke-linecap="round"/><path d="M644.104 902.877L915.509 432.79M546.131 838.572l452.724-125.73M625.549 583.102l338.178-94.003M881.584 844.116L678.029 491.55" fill="none" stroke="#000" stroke-width="3" stroke-linecap="round"/></g></svg>