<?xml version="1.0" encoding="UTF-8" standalone="no"?>
<!-- Created with Inkscape (http://www.inkscape.org/) -->

<svg
   xmlns:ns0="http://www.iki.fi/pav/software/textext/"
   xmlns:dc="http://purl.org/dc/elements/1.1/"
   xmlns:cc="http://creativecommons.org/ns#"
   xmlns:rdf="http://www.w3.org/1999/02/22-rdf-syntax-ns#"
   xmlns:svg="http://www.w3.org/2000/svg"
   xmlns="http://www.w3.org/2000/svg"
   xmlns:xlink="http://www.w3.org/1999/xlink"
   xmlns:sodipodi="http://sodipodi.sourceforge.net/DTD/sodipodi-0.dtd"
   xmlns:inkscape="http://www.inkscape.org/namespaces/inkscape"
   width="1052.3622"
   height="744.09448"
   id="svg2"
   version="1.1"
   inkscape:version="0.48.3.1 r9886"
   sodipodi:docname="strahlensatz-1.svg">
  <title
     id="title10968">Strahlensatz 1</title>
  <sodipodi:namedview
     id="base"
     pagecolor="#ffffff"
     bordercolor="#666666"
     borderopacity="1.0"
     inkscape:pageopacity="0.0"
     inkscape:pageshadow="2"
     inkscape:zoom="0.42419454"
     inkscape:cx="504.61429"
     inkscape:cy="671.90153"
     inkscape:document-units="px"
     inkscape:current-layer="layer1"
     showgrid="false"
     inkscape:window-width="1280"
     inkscape:window-height="974"
     inkscape:window-x="0"
     inkscape:window-y="0"
     inkscape:window-maximized="1"
     showguides="false"
     inkscape:guide-bbox="true"
     inkscape:snap-nodes="true"
     inkscape:object-paths="true"
     inkscape:object-nodes="true"
     inkscape:snap-smooth-nodes="true"
     inkscape:snap-midpoints="true"
     inkscape:snap-global="true"
     inkscape:snap-object-midpoints="true"
     inkscape:snap-intersection-paths="true">
    <sodipodi:guide
       id="guide18392"
       orientation="744.0945,0"
       position="0.0,0" />
    <sodipodi:guide
       id="guide18394"
       orientation="744.0945,0"
       position="526.1811,0" />
    <sodipodi:guide
       id="guide18396"
       orientation="744.0945,0"
       position="1052.3622,0" />
    <sodipodi:guide
       id="guide18398"
       orientation="0,1052.3622"
       position="0,0.0" />
    <sodipodi:guide
       id="guide18400"
       orientation="0,1052.3622"
       position="0,372.0472" />
    <sodipodi:guide
       id="guide18402"
       orientation="0,1052.3622"
       position="0,744.0945" />
    <sodipodi:guide
       orientation="0.26781232,-0.9634711"
       position="499.95091,458.30844"
       id="guide10934" />
    <sodipodi:guide
       orientation="0,1"
       position="343.94012,551.87565"
       id="guide11080" />
  </sodipodi:namedview>
  <defs
     id="defs4">
    <marker
       inkscape:stockid="Arrow2Mstart"
       orient="auto"
       refY="0"
       refX="0"
       id="Arrow2Mstart"
       style="overflow:visible">
      <path
         id="path10062"
         style="fill-rule:evenodd;stroke-width:0.625;stroke-linejoin:round"
         d="M 8.7185878,4.0337352 -2.2072895,0.01601326 8.7185884,-4.0017078 c -1.7454984,2.3720609 -1.7354408,5.6174519 -6e-7,8.035443 z"
         transform="scale(0.6,0.6)"
         inkscape:connector-curvature="0" />
    </marker>
    <marker
       inkscape:stockid="Arrow2Sstart"
       orient="auto"
       refY="0"
       refX="0"
       id="Arrow2Sstart"
       style="overflow:visible">
      <path
         id="path10068"
         style="fill-rule:evenodd;stroke-width:0.625;stroke-linejoin:round"
         d="M 8.7185878,4.0337352 -2.2072895,0.01601326 8.7185884,-4.0017078 c -1.7454984,2.3720609 -1.7354408,5.6174519 -6e-7,8.035443 z"
         transform="matrix(0.3,0,0,0.3,-0.69,0)"
         inkscape:connector-curvature="0" />
    </marker>
    <marker
       inkscape:stockid="Arrow2Send"
       orient="auto"
       refY="0"
       refX="0"
       id="Arrow2Send"
       style="overflow:visible">
      <path
         id="path10071"
         style="fill-rule:evenodd;stroke-width:0.625;stroke-linejoin:round"
         d="M 8.7185878,4.0337352 -2.2072895,0.01601326 8.7185884,-4.0017078 c -1.7454984,2.3720609 -1.7354408,5.6174519 -6e-7,8.035443 z"
         transform="matrix(-0.3,0,0,-0.3,0.69,0)"
         inkscape:connector-curvature="0" />
    </marker>
    <marker
       inkscape:stockid="StopL"
       orient="auto"
       refY="0"
       refX="0"
       id="StopL"
       style="overflow:visible">
      <path
         id="path3928"
         d="M 0,5.65 0,-5.65"
         style="fill:none;stroke:#000000;stroke-width:1pt"
         transform="scale(0.8,0.8)"
         inkscape:connector-curvature="0" />
    </marker>
    <marker
       inkscape:stockid="Arrow1Lend"
       orient="auto"
       refY="0"
       refX="0"
       id="Arrow1Lend"
       style="overflow:visible">
      <path
         id="path3762"
         d="M 0,0 5,-5 -12.5,0 5,5 0,0 z"
         style="fill-rule:evenodd;stroke:#000000;stroke-width:1pt"
         transform="matrix(-0.8,0,0,-0.8,-10,0)"
         inkscape:connector-curvature="0" />
    </marker>
    <marker
       inkscape:stockid="Arrow2Mend"
       orient="auto"
       refY="0"
       refX="0"
       id="Arrow2Mend"
       style="overflow:visible">
      <path
         id="path3786"
         style="fill-rule:evenodd;stroke-width:0.625;stroke-linejoin:round"
         d="M 8.7185878,4.0337352 -2.2072895,0.01601326 8.7185884,-4.0017078 c -1.7454984,2.3720609 -1.7354408,5.6174519 -6e-7,8.035443 z"
         transform="scale(-0.6,-0.6)"
         inkscape:connector-curvature="0" />
    </marker>
    <defs
       id="defs13164">
      <g
         id="g13166">
        <symbol
           style="overflow:visible"
           overflow="visible"
           id="textext-29579761-0">
          <path
             inkscape:connector-curvature="0"
             style="stroke:none"
             d=""
             id="path13169" />
        </symbol>
        <symbol
           style="overflow:visible"
           overflow="visible"
           id="textext-29579761-1">
          <path
             inkscape:connector-curvature="0"
             style="stroke:none"
             d="m 2.21875,-3.65625 0,-2.4375 C 2.21875,-6.4375 2.234375,-6.5 2.703125,-6.5 l 1.234375,0 c 0.96875,0 1.3125,0.84375 1.3125,1.375 0,0.640625 -0.484375,1.46875 -1.59375,1.46875 z M 4.5625,-3.5625 C 5.53125,-3.75 6.21875,-4.390625 6.21875,-5.125 6.21875,-5.984375 5.296875,-6.8125 4,-6.8125 l -3.640625,0 0,0.3125 0.234375,0 c 0.765625,0 0.796875,0.109375 0.796875,0.46875 l 0,5.25 c 0,0.359375 -0.03125,0.46875 -0.796875,0.46875 l -0.234375,0 0,0.3125 3.90625,0 c 1.328125,0 2.21875,-0.890625 2.21875,-1.828125 0,-0.859375 -0.8125,-1.609375 -1.921875,-1.734375 z m -0.609375,3.25 -1.25,0 c -0.46875,0 -0.484375,-0.0625 -0.484375,-0.390625 l 0,-2.71875 1.875,0 C 5.078125,-3.421875 5.5,-2.5 5.5,-1.828125 5.5,-1.125 4.96875,-0.3125 3.953125,-0.3125 z"
             id="path13172" />
        </symbol>
      </g>
    </defs>
  </defs>
  <metadata
     id="metadata7">
    <rdf:RDF>
      <cc:Work
         rdf:about="">
        <dc:format>image/svg+xml</dc:format>
        <dc:type
           rdf:resource="http://purl.org/dc/dcmitype/StillImage" />
        <dc:title>Strahlensatz 1</dc:title>
        <dc:date>2013-11-22</dc:date>
        <dc:creator>
          <cc:Agent>
            <dc:title>Bernhard Grotz</dc:title>
          </cc:Agent>
        </dc:creator>
        <dc:rights>
          <cc:Agent>
            <dc:title>Bernhard Grotz</dc:title>
          </cc:Agent>
        </dc:rights>
        <dc:publisher>
          <cc:Agent>
            <dc:title>Bernhard Grotz</dc:title>
          </cc:Agent>
        </dc:publisher>
        <dc:language>de_DE</dc:language>
        <dc:subject>
          <rdf:Bag>
            <rdf:li>Mathematik</rdf:li>
            <rdf:li>Geometrie</rdf:li>
            <rdf:li>Planimetrie</rdf:li>
            <rdf:li>Zentrische Streckung</rdf:li>
            <rdf:li>Strahlensatz</rdf:li>
          </rdf:Bag>
        </dc:subject>
        <cc:license
           rdf:resource="http://creativecommons.org/licenses/by-nc-sa/3.0/" />
      </cc:Work>
      <cc:License
         rdf:about="http://creativecommons.org/licenses/by-nc-sa/3.0/">
        <cc:permits
           rdf:resource="http://creativecommons.org/ns#Reproduction" />
        <cc:permits
           rdf:resource="http://creativecommons.org/ns#Distribution" />
        <cc:requires
           rdf:resource="http://creativecommons.org/ns#Notice" />
        <cc:requires
           rdf:resource="http://creativecommons.org/ns#Attribution" />
        <cc:prohibits
           rdf:resource="http://creativecommons.org/ns#CommercialUse" />
        <cc:permits
           rdf:resource="http://creativecommons.org/ns#DerivativeWorks" />
        <cc:requires
           rdf:resource="http://creativecommons.org/ns#ShareAlike" />
      </cc:License>
    </rdf:RDF>
  </metadata>
  <g
     inkscape:label="Ebene 1"
     inkscape:groupmode="layer"
     id="layer1"
     transform="translate(0,-308.2677)">
    <g
       id="g4492"
       transform="matrix(3.3737494,0,0,3.3737494,-254.33287,-175.74676)"
       ns0:preamble="/home/waldgeist/data/sphinx/inkscape-preamble.tex"
       ns0:text="$\\vec{c}$">
      <defs
         id="defs4494">
        <g
           id="g4496">
          <symbol
             id="textext-23843a60-0"
             overflow="visible"
             style="overflow:visible">
            <path
               id="path4499"
               d="m 5.359375,-5.9375 c -0.140625,0.140625 -0.46875,0.421875 -0.46875,0.59375 0,0.09375 0.09375,0.203125 0.1875,0.203125 0.09375,0 0.140625,-0.078125 0.203125,-0.140625 C 5.390625,-5.421875 5.625,-5.703125 6.0625,-5.921875 6.125,-5.96875 6.234375,-6.015625 6.234375,-6.125 6.234375,-6.234375 6.15625,-6.28125 6.09375,-6.328125 5.875,-6.484375 5.765625,-6.65625 5.6875,-6.890625 5.65625,-6.984375 5.625,-7.125 5.484375,-7.125 c -0.140625,0 -0.203125,0.140625 -0.203125,0.21875 0,0.046875 0.078125,0.359375 0.234375,0.578125 l -3.359375,0 c -0.15625,0 -0.34375,0 -0.34375,0.203125 0,0.1875 0.1875,0.1875 0.34375,0.1875 z m 0,0"
               style="stroke:none"
               inkscape:connector-curvature="0" />
          </symbol>
          <symbol
             id="textext-23843a60-1"
             overflow="visible"
             style="overflow:visible">
            <path
               id="path4502"
               d="m 3.953125,-3.78125 c -0.171875,0 -0.296875,0 -0.4375,0.125 -0.171875,0.15625 -0.1875,0.328125 -0.1875,0.390625 0,0.25 0.1875,0.359375 0.375,0.359375 0.28125,0 0.546875,-0.25 0.546875,-0.640625 0,-0.484375 -0.46875,-0.859375 -1.171875,-0.859375 -1.34375,0 -2.671875,1.421875 -2.671875,2.828125 0,0.90625 0.578125,1.6875 1.625,1.6875 1.421875,0 2.25,-1.0625 2.25,-1.171875 0,-0.0625 -0.046875,-0.140625 -0.109375,-0.140625 -0.0625,0 -0.078125,0.03125 -0.140625,0.109375 -0.78125,0.984375 -1.875,0.984375 -1.984375,0.984375 -0.625,0 -0.90625,-0.484375 -0.90625,-1.09375 0,-0.40625 0.203125,-1.375 0.546875,-1.984375 0.3125,-0.578125 0.859375,-1 1.40625,-1 0.328125,0 0.71875,0.125 0.859375,0.40625 z m 0,0"
               style="stroke:none"
               inkscape:connector-curvature="0" />
          </symbol>
        </g>
      </defs>
      <g
         id="textext-23843a60-2">
        <g
           id="g4505"
           style="fill:#000000;fill-opacity:1" />
        <g
           id="g4509"
           style="fill:#000000;fill-opacity:1" />
      </g>
    </g>
    <rect
       ry="5.975647"
       y="406.13556"
       x="23.828827"
       height="548.35876"
       width="1004.7045"
       id="rect4674-6"
       style="color:#000000;fill:#ffffff;fill-opacity:1;fill-rule:nonzero;stroke:#ffffff;stroke-width:2.39586639;stroke-linecap:round;stroke-linejoin:bevel;stroke-miterlimit:4;stroke-opacity:1;stroke-dasharray:none;stroke-dashoffset:0;marker:none;visibility:visible;display:inline;overflow:visible;enable-background:accumulate"
       inkscape:export-filename="/home/waldgeist/data/pics/Homepage/mathematik/geometrie/strahlensatz-1.png"
       inkscape:export-xdpi="150"
       inkscape:export-ydpi="150" />
    <path
       style="fill:none;stroke:#008000;stroke-width:7.99999952;stroke-linecap:round;stroke-linejoin:miter;stroke-opacity:1"
       d="m 720.07363,564.37288 55.97863,96.95784"
       id="path11151"
       inkscape:connector-curvature="0"
       inkscape:export-filename="/home/waldgeist/data/pics/Homepage/mathematik/geometrie/strahlensatz-1.png"
       inkscape:export-xdpi="150"
       inkscape:export-ydpi="150" />
    <g
       ns0:text="$\\rm{B}$"
       ns0:preamble="/home/waldgeist/data/sphinx/inkscape-preamble.tex"
       transform="matrix(3.3737494,0,0,3.3737494,-638.20221,353.66365)"
       style="fill:#000000;fill-opacity:1;stroke:#000000;stroke-width:1"
       id="g7802"
       inkscape:export-filename="/home/waldgeist/data/pics/Homepage/mathematik/geometrie/strahlensatz-1.png"
       inkscape:export-xdpi="150"
       inkscape:export-ydpi="150">
      <defs
         id="defs7804">
        <g
           id="g7806">
          <symbol
             style="overflow:visible"
             overflow="visible"
             id="symbol7808">
            <path
               inkscape:connector-curvature="0"
               style="stroke:none"
               d=""
               id="path7810" />
          </symbol>
          <symbol
             style="overflow:visible"
             overflow="visible"
             id="symbol7812">
            <path
               inkscape:connector-curvature="0"
               style="stroke:none"
               d="m 2.21875,-3.65625 0,-2.4375 C 2.21875,-6.4375 2.234375,-6.5 2.703125,-6.5 l 1.234375,0 c 0.96875,0 1.3125,0.84375 1.3125,1.375 0,0.640625 -0.484375,1.46875 -1.59375,1.46875 z M 4.5625,-3.5625 C 5.53125,-3.75 6.21875,-4.390625 6.21875,-5.125 6.21875,-5.984375 5.296875,-6.8125 4,-6.8125 l -3.640625,0 0,0.3125 0.234375,0 c 0.765625,0 0.796875,0.109375 0.796875,0.46875 l 0,5.25 c 0,0.359375 -0.03125,0.46875 -0.796875,0.46875 l -0.234375,0 0,0.3125 3.90625,0 c 1.328125,0 2.21875,-0.890625 2.21875,-1.828125 0,-0.859375 -0.8125,-1.609375 -1.921875,-1.734375 z m -0.609375,3.25 -1.25,0 c -0.46875,0 -0.484375,-0.0625 -0.484375,-0.390625 l 0,-2.71875 1.875,0 C 5.078125,-3.421875 5.5,-2.5 5.5,-1.828125 5.5,-1.125 4.96875,-0.3125 3.953125,-0.3125 z"
               id="path7814" />
          </symbol>
        </g>
      </defs>
      <g
         style="stroke-width:1"
         id="g7816">
        <g
           style="fill:#000000;fill-opacity:1;stroke-width:1"
           id="g7818">
          <use
             style="stroke-width:1"
             height="744.09448"
             width="1052.3622"
             xlink:href="#textext-29579761-1"
             x="223.43201"
             y="134.765"
             id="use7820" />
        </g>
      </g>
    </g>
    <g
       inkscape:export-ydpi="150"
       inkscape:export-xdpi="150"
       inkscape:export-filename="/home/waldgeist/data/pics/Homepage/mathematik/geometrie/strahlensatz-1.png"
       id="g7943"
       style="fill:#000000;fill-opacity:1;stroke:#000000;stroke-width:1"
       transform="matrix(3.3737494,0,0,3.3737494,-572.66401,238.67803)"
       ns0:preamble="/home/waldgeist/data/sphinx/inkscape-preamble.tex"
       ns0:text="$\\rm{A}$">
      <defs
         id="defs7945">
        <g
           id="g7947">
          <symbol
             style="overflow:visible"
             id="symbol7949"
             overflow="visible">
            <path
               inkscape:connector-curvature="0"
               id="path7951"
               d=""
               style="stroke:none" />
          </symbol>
          <symbol
             style="overflow:visible"
             id="symbol7953"
             overflow="visible">
            <path
               inkscape:connector-curvature="0"
               id="path7955"
               d="m 3.96875,-6.9375 c -0.046875,-0.125 -0.078125,-0.203125 -0.234375,-0.203125 -0.15625,0 -0.1875,0.0625 -0.234375,0.203125 L 1.4375,-0.984375 C 1.25,-0.46875 0.859375,-0.3125 0.3125,-0.3125 l 0,0.3125 c 0.234375,-0.015625 0.671875,-0.03125 1.015625,-0.03125 0.3125,0 0.828125,0.015625 1.15625,0.03125 l 0,-0.3125 c -0.5,0 -0.75,-0.25 -0.75,-0.5 0,-0.03125 0.015625,-0.140625 0.015625,-0.15625 l 0.46875,-1.296875 2.453125,0 0.53125,1.515625 c 0.015625,0.046875 0.03125,0.109375 0.03125,0.140625 0,0.296875 -0.5625,0.296875 -0.828125,0.296875 l 0,0.3125 c 0.359375,-0.03125 1.0625,-0.03125 1.4375,-0.03125 0.421875,0 0.890625,0.015625 1.296875,0.03125 l 0,-0.3125 -0.171875,0 C 6.375,-0.3125 6.234375,-0.375 6.125,-0.703125 z m -0.53125,1.109375 1.125,3.25 -2.234375,0 z"
               style="stroke:none" />
          </symbol>
        </g>
      </defs>
      <g
         style="fill:#000000;fill-opacity:1;stroke-width:1"
         id="g7957">
        <g
           id="g7959"
           style="fill:#000000;fill-opacity:1;stroke-width:1">
          <g
             transform="translate(223.43201,134.765)"
             style="fill:#000000;fill-opacity:1;stroke-width:1"
             id="use7961">
            <path
               inkscape:connector-curvature="0"
               id="path8033"
               d="m 3.7053538,-7.2008962 c -0.046875,-0.125 -0.078125,-0.203125 -0.234375,-0.203125 -0.15625,0 -0.1875,0.0625 -0.234375,0.203125 l -2.0625,5.953125 c -0.18749997,0.51562503 -0.57812497,0.67187503 -1.12499997,0.67187503 l 0,0.3125 c 0.234375,-0.015625 0.671875,-0.03125 1.01562497,-0.03125 0.3125,0 0.828125,0.015625 1.15625,0.03125 l 0,-0.3125 c -0.5,0 -0.75,-0.25 -0.75,-0.50000003 0,-0.03125 0.015625,-0.140625 0.015625,-0.15625 l 0.46875,-1.296875 2.453125,0 0.53125,1.515625 c 0.015625,0.046875 0.03125,0.10937503 0.03125,0.14062503 0,0.296875 -0.5625,0.296875 -0.828125,0.296875 l 0,0.3125 c 0.359375,-0.03125 1.0625,-0.03125 1.4375,-0.03125 0.421875,0 0.890625,0.015625 1.296875,0.03125 l 0,-0.3125 -0.171875,0 c -0.59375,0 -0.734375,-0.0625 -0.84375,-0.390625 z m -0.53125,1.109375 1.125,3.25 -2.234375,0 z"
               style="stroke:none" />
          </g>
        </g>
      </g>
    </g>
    <g
       id="g8188"
       style="fill:#000000;fill-opacity:1;stroke:#000000;stroke-width:1"
       transform="matrix(3.3737494,0,0,3.3737494,-461.27546,71.575231)"
       ns0:preamble="/home/waldgeist/data/sphinx/inkscape-preamble.tex"
       ns0:text="$\\rm{S}$"
       inkscape:export-filename="/home/waldgeist/data/pics/Homepage/mathematik/geometrie/strahlensatz-1.png"
       inkscape:export-xdpi="150"
       inkscape:export-ydpi="150">
      <defs
         id="defs8190">
        <g
           id="g8192">
          <symbol
             id="textext-b08c904e-0"
             overflow="visible"
             style="overflow:visible">
            <path
               id="path8195"
               d=""
               style="stroke:none"
               inkscape:connector-curvature="0" />
          </symbol>
          <symbol
             id="textext-b08c904e-1"
             overflow="visible"
             style="overflow:visible">
            <path
               id="path8198"
               d="m 3.484375,-3.875 -1.28125,-0.296875 c -0.625,-0.15625 -1,-0.6875 -1,-1.265625 0,-0.703125 0.53125,-1.3125 1.3125,-1.3125 1.65625,0 1.875,1.640625 1.9375,2.078125 0.015625,0.0625 0.015625,0.125 0.125,0.125 0.125,0 0.125,-0.046875 0.125,-0.234375 l 0,-2 c 0,-0.171875 0,-0.25 -0.109375,-0.25 -0.0625,0 -0.078125,0.015625 -0.140625,0.140625 l -0.359375,0.5625 C 3.796875,-6.625 3.390625,-7.03125 2.5,-7.03125 c -1.109375,0 -1.9375,0.875 -1.9375,1.9375 0,0.828125 0.53125,1.5625 1.296875,1.828125 0.109375,0.03125 0.625,0.15625 1.328125,0.328125 0.265625,0.0625 0.5625,0.140625 0.84375,0.5 0.203125,0.265625 0.3125,0.59375 0.3125,0.921875 0,0.703125 -0.5,1.421875 -1.34375,1.421875 -0.28125,0 -1.046875,-0.046875 -1.578125,-0.53125 C 0.84375,-1.171875 0.8125,-1.796875 0.8125,-2.15625 0.796875,-2.265625 0.71875,-2.265625 0.6875,-2.265625 c -0.125,0 -0.125,0.078125 -0.125,0.25 l 0,2 c 0,0.171875 0,0.234375 0.109375,0.234375 0.0625,0 0.078125,-0.015625 0.140625,-0.125 0,-0.015625 0.03125,-0.046875 0.359375,-0.578125 0.3125,0.34375 0.953125,0.703125 1.84375,0.703125 1.15625,0 1.953125,-0.96875 1.953125,-2.078125 0,-0.984375 -0.65625,-1.8125 -1.484375,-2.015625 z"
               style="stroke:none"
               inkscape:connector-curvature="0" />
          </symbol>
        </g>
      </defs>
      <g
         id="textext-b08c904e-2"
         style="stroke-width:1">
        <g
           id="g8201"
           style="fill:#000000;fill-opacity:1;stroke-width:1">
          <use
             id="use8203"
             y="134.765"
             x="223.43201"
             xlink:href="#textext-b08c904e-1"
             width="1052.3622"
             height="744.09448"
             style="stroke-width:1" />
        </g>
      </g>
    </g>
    <g
       ns0:text="$\\rm{C}$"
       ns0:preamble="/home/waldgeist/data/sphinx/inkscape-preamble.tex"
       transform="matrix(3.3737494,0,0,3.3737494,-385.50438,185.78397)"
       style="fill:#000000;fill-opacity:1;stroke:#000000;stroke-width:1"
       id="g8494"
       inkscape:export-filename="/home/waldgeist/data/pics/Homepage/mathematik/geometrie/strahlensatz-1.png"
       inkscape:export-xdpi="150"
       inkscape:export-ydpi="150">
      <defs
         id="defs8496">
        <g
           id="g8498">
          <symbol
             overflow="visible"
             id="textext-a89c4c06-0"
             style="overflow:visible">
            <path
               style="stroke:none"
               d=""
               id="path8501"
               inkscape:connector-curvature="0" />
          </symbol>
          <symbol
             overflow="visible"
             id="textext-a89c4c06-1"
             style="overflow:visible">
            <path
               style="stroke:none"
               d="m 0.5625,-3.40625 c 0,2.0625 1.609375,3.625 3.46875,3.625 1.625,0 2.59375,-1.390625 2.59375,-2.546875 C 6.625,-2.421875 6.625,-2.5 6.5,-2.5 6.390625,-2.5 6.390625,-2.4375 6.375,-2.328125 6.296875,-0.90625 5.234375,-0.09375 4.140625,-0.09375 c -0.609375,0 -2.5625,-0.328125 -2.5625,-3.3125 0,-2.96875 1.953125,-3.3125 2.5625,-3.3125 1.078125,0 1.96875,0.90625 2.171875,2.359375 0.015625,0.140625 0.015625,0.171875 0.15625,0.171875 0.15625,0 0.15625,-0.03125 0.15625,-0.234375 l 0,-2.359375 c 0,-0.171875 0,-0.25 -0.109375,-0.25 -0.03125,0 -0.078125,0 -0.15625,0.125 l -0.5,0.734375 C 5.5,-6.53125 4.984375,-7.03125 4.03125,-7.03125 c -1.875,0 -3.46875,1.59375 -3.46875,3.625 z"
               id="path8504"
               inkscape:connector-curvature="0" />
          </symbol>
        </g>
      </defs>
      <g
         id="textext-a89c4c06-2"
         style="stroke-width:1">
        <g
           style="fill:#000000;fill-opacity:1;stroke-width:1"
           id="g8507">
          <use
             xlink:href="#textext-a89c4c06-1"
             x="223.43201"
             y="134.765"
             id="use8509"
             width="1052.3622"
             height="744.09448"
             style="stroke-width:1" />
        </g>
      </g>
    </g>
    <g
       id="g8798"
       style="fill:#000000;fill-opacity:1;stroke:#000000;stroke-width:1"
       transform="matrix(3.3737494,0,0,3.3737494,-333.97902,267.47053)"
       ns0:preamble="/home/waldgeist/data/sphinx/inkscape-preamble.tex"
       ns0:text="$\\rm{D}$"
       inkscape:export-filename="/home/waldgeist/data/pics/Homepage/mathematik/geometrie/strahlensatz-1.png"
       inkscape:export-xdpi="150"
       inkscape:export-ydpi="150">
      <defs
         id="defs8800">
        <g
           id="g8802">
          <symbol
             id="textext-f8170276-0"
             overflow="visible"
             style="overflow:visible">
            <path
               id="path8805"
               d=""
               style="stroke:none"
               inkscape:connector-curvature="0" />
          </symbol>
          <symbol
             id="textext-f8170276-1"
             overflow="visible"
             style="overflow:visible">
            <path
               id="path8808"
               d="m 0.34375,-6.8125 0,0.3125 0.25,0 c 0.765625,0 0.78125,0.109375 0.78125,0.46875 l 0,5.25 c 0,0.359375 -0.015625,0.46875 -0.78125,0.46875 l -0.25,0 0,0.3125 L 4,0 C 5.671875,0 7.046875,-1.46875 7.046875,-3.34375 7.046875,-5.25 5.703125,-6.8125 4,-6.8125 z m 2.375,6.5 C 2.25,-0.3125 2.234375,-0.375 2.234375,-0.703125 l 0,-5.390625 C 2.234375,-6.4375 2.25,-6.5 2.71875,-6.5 l 1,0 c 0.625,0 1.3125,0.21875 1.8125,0.921875 0.4375,0.59375 0.515625,1.453125 0.515625,2.234375 0,1.09375 -0.1875,1.703125 -0.546875,2.1875 -0.203125,0.265625 -0.765625,0.84375 -1.765625,0.84375 z"
               style="stroke:none"
               inkscape:connector-curvature="0" />
          </symbol>
        </g>
      </defs>
      <g
         id="textext-f8170276-2"
         style="stroke-width:1">
        <g
           id="g8811"
           style="fill:#000000;fill-opacity:1;stroke-width:1">
          <use
             id="use8813"
             y="134.765"
             x="223.43201"
             xlink:href="#textext-f8170276-1"
             width="1052.3622"
             height="744.09448"
             style="stroke-width:1" />
        </g>
      </g>
    </g>
    <path
       inkscape:connector-curvature="0"
       id="path11143"
       d="M 145.78899,806.68902 203.54118,706.65924"
       style="fill:none;stroke:#0000ff;stroke-width:7.99999857;stroke-linecap:round;stroke-linejoin:miter;stroke-opacity:1"
       sodipodi:nodetypes="cc"
       inkscape:export-filename="/home/waldgeist/data/pics/Homepage/mathematik/geometrie/strahlensatz-1.png"
       inkscape:export-xdpi="150"
       inkscape:export-ydpi="150" />
    <path
       style="fill:#87de87;stroke:#008000;stroke-width:7.99999857;stroke-linecap:round;stroke-linejoin:miter;stroke-opacity:1"
       d="M 212.23607,691.59928 297.61939,543.71102"
       id="path11139"
       inkscape:connector-curvature="0"
       inkscape:export-filename="/home/waldgeist/data/pics/Homepage/mathematik/geometrie/strahlensatz-1.png"
       inkscape:export-xdpi="150"
       inkscape:export-ydpi="150" />
    <path
       inkscape:connector-curvature="0"
       id="path11145"
       d="M 415.03053,731.85201 373.28247,659.54223"
       style="fill:none;stroke:#0000ff;stroke-width:7.99999857;stroke-linecap:round;stroke-linejoin:miter;stroke-opacity:1"
       sodipodi:nodetypes="cc"
       inkscape:export-filename="/home/waldgeist/data/pics/Homepage/mathematik/geometrie/strahlensatz-1.png"
       inkscape:export-xdpi="150"
       inkscape:export-ydpi="150" />
    <path
       style="fill:#5599ff;stroke:#008000;stroke-width:8;stroke-linecap:round;stroke-linejoin:miter;stroke-opacity:1"
       d="M 366.3653,647.56133 305.78665,542.63606"
       id="path11141"
       inkscape:connector-curvature="0"
       inkscape:export-filename="/home/waldgeist/data/pics/Homepage/mathematik/geometrie/strahlensatz-1.png"
       inkscape:export-xdpi="150"
       inkscape:export-ydpi="150" />
    <path
       style="fill:none;stroke:#000000;stroke-width:3;stroke-linecap:round;stroke-linejoin:round;stroke-opacity:1"
       d="M 75.841903,927.84091 302.01334,536.10049 465.22507,818.79151"
       id="path8972"
       inkscape:connector-curvature="0"
       sodipodi:nodetypes="ccc"
       inkscape:export-filename="/home/waldgeist/data/pics/Homepage/mathematik/geometrie/strahlensatz-1.png"
       inkscape:export-xdpi="150"
       inkscape:export-ydpi="150" />
    <path
       style="fill:none;stroke:#000000;stroke-width:3;stroke-linecap:round;stroke-linejoin:miter;stroke-opacity:1;marker-start:none;marker-end:none"
       d="M 53.50685,838.57249 506.23075,712.84243"
       id="path8974"
       inkscape:connector-curvature="0"
       inkscape:export-filename="/home/waldgeist/data/pics/Homepage/mathematik/geometrie/strahlensatz-1.png"
       inkscape:export-xdpi="150"
       inkscape:export-ydpi="150" />
    <path
       inkscape:export-ydpi="150"
       inkscape:export-xdpi="150"
       inkscape:export-filename="/home/waldgeist/data/pics/Homepage/mathematik/geometrie/strahlensatz-1.png"
       inkscape:connector-curvature="0"
       id="path10932"
       d="M 119.84595,723.66978 458.02413,629.6677"
       style="fill:none;stroke:#000000;stroke-width:3;stroke-linecap:round;stroke-linejoin:miter;stroke-opacity:1;marker-start:none;marker-end:none" />
    <g
       id="g10970"
       style="fill:#000000;fill-opacity:1;stroke:#000000;stroke-width:1"
       transform="matrix(3.3737494,0,0,3.3737494,-75.375709,335.891)"
       ns0:preamble="/home/waldgeist/data/sphinx/inkscape-preamble.tex"
       ns0:text="$\\rm{B}$"
       inkscape:export-filename="/home/waldgeist/data/pics/Homepage/mathematik/geometrie/strahlensatz-1.png"
       inkscape:export-xdpi="150"
       inkscape:export-ydpi="150">
      <defs
         id="defs10972">
        <g
           id="g10974">
          <symbol
             id="symbol10976"
             overflow="visible"
             style="overflow:visible">
            <path
               id="path10978"
               d=""
               style="stroke:none"
               inkscape:connector-curvature="0" />
          </symbol>
          <symbol
             id="symbol10980"
             overflow="visible"
             style="overflow:visible">
            <path
               id="path10982"
               d="m 2.21875,-3.65625 0,-2.4375 C 2.21875,-6.4375 2.234375,-6.5 2.703125,-6.5 l 1.234375,0 c 0.96875,0 1.3125,0.84375 1.3125,1.375 0,0.640625 -0.484375,1.46875 -1.59375,1.46875 z M 4.5625,-3.5625 C 5.53125,-3.75 6.21875,-4.390625 6.21875,-5.125 6.21875,-5.984375 5.296875,-6.8125 4,-6.8125 l -3.640625,0 0,0.3125 0.234375,0 c 0.765625,0 0.796875,0.109375 0.796875,0.46875 l 0,5.25 c 0,0.359375 -0.03125,0.46875 -0.796875,0.46875 l -0.234375,0 0,0.3125 3.90625,0 c 1.328125,0 2.21875,-0.890625 2.21875,-1.828125 0,-0.859375 -0.8125,-1.609375 -1.921875,-1.734375 z m -0.609375,3.25 -1.25,0 c -0.46875,0 -0.484375,-0.0625 -0.484375,-0.390625 l 0,-2.71875 1.875,0 C 5.078125,-3.421875 5.5,-2.5 5.5,-1.828125 5.5,-1.125 4.96875,-0.3125 3.953125,-0.3125 z"
               style="stroke:none"
               inkscape:connector-curvature="0" />
          </symbol>
        </g>
      </defs>
      <g
         id="g10984"
         style="stroke-width:1">
        <g
           id="g10986"
           style="fill:#000000;fill-opacity:1;stroke-width:1">
          <use
             id="use10988"
             y="134.765"
             x="223.43201"
             xlink:href="#textext-29579761-1"
             width="1052.3622"
             height="744.09448"
             style="stroke-width:1" />
        </g>
      </g>
    </g>
    <g
       ns0:text="$\\rm{A}$"
       ns0:preamble="/home/waldgeist/data/sphinx/inkscape-preamble.tex"
       transform="matrix(3.3737494,0,0,3.3737494,-75.556427,101.68821)"
       style="fill:#000000;fill-opacity:1;stroke:#000000;stroke-width:1"
       id="g10990"
       inkscape:export-filename="/home/waldgeist/data/pics/Homepage/mathematik/geometrie/strahlensatz-1.png"
       inkscape:export-xdpi="150"
       inkscape:export-ydpi="150">
      <defs
         id="defs10992">
        <g
           id="g10994">
          <symbol
             overflow="visible"
             id="symbol10996"
             style="overflow:visible">
            <path
               style="stroke:none"
               d=""
               id="path10998"
               inkscape:connector-curvature="0" />
          </symbol>
          <symbol
             overflow="visible"
             id="symbol11000"
             style="overflow:visible">
            <path
               style="stroke:none"
               d="m 3.96875,-6.9375 c -0.046875,-0.125 -0.078125,-0.203125 -0.234375,-0.203125 -0.15625,0 -0.1875,0.0625 -0.234375,0.203125 L 1.4375,-0.984375 C 1.25,-0.46875 0.859375,-0.3125 0.3125,-0.3125 l 0,0.3125 c 0.234375,-0.015625 0.671875,-0.03125 1.015625,-0.03125 0.3125,0 0.828125,0.015625 1.15625,0.03125 l 0,-0.3125 c -0.5,0 -0.75,-0.25 -0.75,-0.5 0,-0.03125 0.015625,-0.140625 0.015625,-0.15625 l 0.46875,-1.296875 2.453125,0 0.53125,1.515625 c 0.015625,0.046875 0.03125,0.109375 0.03125,0.140625 0,0.296875 -0.5625,0.296875 -0.828125,0.296875 l 0,0.3125 c 0.359375,-0.03125 1.0625,-0.03125 1.4375,-0.03125 0.421875,0 0.890625,0.015625 1.296875,0.03125 l 0,-0.3125 -0.171875,0 C 6.375,-0.3125 6.234375,-0.375 6.125,-0.703125 z m -0.53125,1.109375 1.125,3.25 -2.234375,0 z"
               id="path11002"
               inkscape:connector-curvature="0" />
          </symbol>
        </g>
      </defs>
      <g
         id="g11004"
         style="fill:#000000;fill-opacity:1;stroke-width:1">
        <g
           style="fill:#000000;fill-opacity:1;stroke-width:1"
           id="g11006">
          <g
             id="g11008"
             style="fill:#000000;fill-opacity:1;stroke-width:1"
             transform="translate(223.43201,134.765)">
            <path
               style="stroke:none"
               d="m 3.7053538,-7.2008962 c -0.046875,-0.125 -0.078125,-0.203125 -0.234375,-0.203125 -0.15625,0 -0.1875,0.0625 -0.234375,0.203125 l -2.0625,5.953125 c -0.18749997,0.51562503 -0.57812497,0.67187503 -1.12499997,0.67187503 l 0,0.3125 c 0.234375,-0.015625 0.671875,-0.03125 1.01562497,-0.03125 0.3125,0 0.828125,0.015625 1.15625,0.03125 l 0,-0.3125 c -0.5,0 -0.75,-0.25 -0.75,-0.50000003 0,-0.03125 0.015625,-0.140625 0.015625,-0.15625 l 0.46875,-1.296875 2.453125,0 0.53125,1.515625 c 0.015625,0.046875 0.03125,0.10937503 0.03125,0.14062503 0,0.296875 -0.5625,0.296875 -0.828125,0.296875 l 0,0.3125 c 0.359375,-0.03125 1.0625,-0.03125 1.4375,-0.03125 0.421875,0 0.890625,0.015625 1.296875,0.03125 l 0,-0.3125 -0.171875,0 c -0.59375,0 -0.734375,-0.0625 -0.84375,-0.390625 z m -0.53125,1.109375 1.125,3.25 -2.234375,0 z"
               id="path11010"
               inkscape:connector-curvature="0" />
          </g>
        </g>
      </g>
    </g>
    <g
       ns0:text="$\\rm{S}$"
       ns0:preamble="/home/waldgeist/data/sphinx/inkscape-preamble.tex"
       transform="matrix(3.3737494,0,0,3.3737494,-6.8621502,223.53142)"
       style="fill:#000000;fill-opacity:1;stroke:#000000;stroke-width:1"
       id="g11012"
       inkscape:export-filename="/home/waldgeist/data/pics/Homepage/mathematik/geometrie/strahlensatz-1.png"
       inkscape:export-xdpi="150"
       inkscape:export-ydpi="150">
      <defs
         id="defs11014">
        <g
           id="g11016">
          <symbol
             style="overflow:visible"
             overflow="visible"
             id="symbol11018">
            <path
               inkscape:connector-curvature="0"
               style="stroke:none"
               d=""
               id="path11020" />
          </symbol>
          <symbol
             style="overflow:visible"
             overflow="visible"
             id="symbol11022">
            <path
               inkscape:connector-curvature="0"
               style="stroke:none"
               d="m 3.484375,-3.875 -1.28125,-0.296875 c -0.625,-0.15625 -1,-0.6875 -1,-1.265625 0,-0.703125 0.53125,-1.3125 1.3125,-1.3125 1.65625,0 1.875,1.640625 1.9375,2.078125 0.015625,0.0625 0.015625,0.125 0.125,0.125 0.125,0 0.125,-0.046875 0.125,-0.234375 l 0,-2 c 0,-0.171875 0,-0.25 -0.109375,-0.25 -0.0625,0 -0.078125,0.015625 -0.140625,0.140625 l -0.359375,0.5625 C 3.796875,-6.625 3.390625,-7.03125 2.5,-7.03125 c -1.109375,0 -1.9375,0.875 -1.9375,1.9375 0,0.828125 0.53125,1.5625 1.296875,1.828125 0.109375,0.03125 0.625,0.15625 1.328125,0.328125 0.265625,0.0625 0.5625,0.140625 0.84375,0.5 0.203125,0.265625 0.3125,0.59375 0.3125,0.921875 0,0.703125 -0.5,1.421875 -1.34375,1.421875 -0.28125,0 -1.046875,-0.046875 -1.578125,-0.53125 C 0.84375,-1.171875 0.8125,-1.796875 0.8125,-2.15625 0.796875,-2.265625 0.71875,-2.265625 0.6875,-2.265625 c -0.125,0 -0.125,0.078125 -0.125,0.25 l 0,2 c 0,0.171875 0,0.234375 0.109375,0.234375 0.0625,0 0.078125,-0.015625 0.140625,-0.125 0,-0.015625 0.03125,-0.046875 0.359375,-0.578125 0.3125,0.34375 0.953125,0.703125 1.84375,0.703125 1.15625,0 1.953125,-0.96875 1.953125,-2.078125 0,-0.984375 -0.65625,-1.8125 -1.484375,-2.015625 z"
               id="path11024" />
          </symbol>
        </g>
      </defs>
      <g
         style="stroke-width:1"
         id="g11026">
        <g
           style="fill:#000000;fill-opacity:1;stroke-width:1"
           id="g11028">
          <use
             style="stroke-width:1"
             height="744.09448"
             width="1052.3622"
             xlink:href="#textext-b08c904e-1"
             x="223.43201"
             y="134.765"
             id="use11030" />
        </g>
      </g>
    </g>
    <path
       style="fill:none;stroke:#0000ff;stroke-width:7.99999952;stroke-linecap:round;stroke-linejoin:miter;stroke-opacity:1"
       d="M 710.27889,788.25859 776.5562,673.46297"
       id="path11147"
       inkscape:connector-curvature="0"
       inkscape:export-filename="/home/waldgeist/data/pics/Homepage/mathematik/geometrie/strahlensatz-1.png"
       inkscape:export-xdpi="150"
       inkscape:export-ydpi="150" />
    <g
       id="g11032"
       style="fill:#000000;fill-opacity:1;stroke:#000000;stroke-width:1"
       transform="matrix(3.3737494,0,0,3.3737494,90.236113,56.043598)"
       ns0:preamble="/home/waldgeist/data/sphinx/inkscape-preamble.tex"
       ns0:text="$\\rm{C}$"
       inkscape:export-filename="/home/waldgeist/data/pics/Homepage/mathematik/geometrie/strahlensatz-1.png"
       inkscape:export-xdpi="150"
       inkscape:export-ydpi="150">
      <defs
         id="defs11034">
        <g
           id="g11036">
          <symbol
             style="overflow:visible"
             id="symbol11038"
             overflow="visible">
            <path
               inkscape:connector-curvature="0"
               id="path11040"
               d=""
               style="stroke:none" />
          </symbol>
          <symbol
             style="overflow:visible"
             id="symbol11042"
             overflow="visible">
            <path
               inkscape:connector-curvature="0"
               id="path11044"
               d="m 0.5625,-3.40625 c 0,2.0625 1.609375,3.625 3.46875,3.625 1.625,0 2.59375,-1.390625 2.59375,-2.546875 C 6.625,-2.421875 6.625,-2.5 6.5,-2.5 6.390625,-2.5 6.390625,-2.4375 6.375,-2.328125 6.296875,-0.90625 5.234375,-0.09375 4.140625,-0.09375 c -0.609375,0 -2.5625,-0.328125 -2.5625,-3.3125 0,-2.96875 1.953125,-3.3125 2.5625,-3.3125 1.078125,0 1.96875,0.90625 2.171875,2.359375 0.015625,0.140625 0.015625,0.171875 0.15625,0.171875 0.15625,0 0.15625,-0.03125 0.15625,-0.234375 l 0,-2.359375 c 0,-0.171875 0,-0.25 -0.109375,-0.25 -0.03125,0 -0.078125,0 -0.15625,0.125 l -0.5,0.734375 C 5.5,-6.53125 4.984375,-7.03125 4.03125,-7.03125 c -1.875,0 -3.46875,1.59375 -3.46875,3.625 z"
               style="stroke:none" />
          </symbol>
        </g>
      </defs>
      <g
         style="stroke-width:1"
         id="g11046">
        <g
           id="g11048"
           style="fill:#000000;fill-opacity:1;stroke-width:1">
          <use
             style="stroke-width:1"
             height="744.09448"
             width="1052.3622"
             id="use11050"
             y="134.765"
             x="223.43201"
             xlink:href="#textext-a89c4c06-1" />
        </g>
      </g>
    </g>
    <g
       ns0:text="$\\rm{D}$"
       ns0:preamble="/home/waldgeist/data/sphinx/inkscape-preamble.tex"
       transform="matrix(3.3737494,0,0,3.3737494,80.445823,292.35224)"
       style="fill:#000000;fill-opacity:1;stroke:#000000;stroke-width:1"
       id="g11052"
       inkscape:export-filename="/home/waldgeist/data/pics/Homepage/mathematik/geometrie/strahlensatz-1.png"
       inkscape:export-xdpi="150"
       inkscape:export-ydpi="150">
      <defs
         id="defs11054">
        <g
           id="g11056">
          <symbol
             style="overflow:visible"
             overflow="visible"
             id="symbol11058">
            <path
               inkscape:connector-curvature="0"
               style="stroke:none"
               d=""
               id="path11060" />
          </symbol>
          <symbol
             style="overflow:visible"
             overflow="visible"
             id="symbol11062">
            <path
               inkscape:connector-curvature="0"
               style="stroke:none"
               d="m 0.34375,-6.8125 0,0.3125 0.25,0 c 0.765625,0 0.78125,0.109375 0.78125,0.46875 l 0,5.25 c 0,0.359375 -0.015625,0.46875 -0.78125,0.46875 l -0.25,0 0,0.3125 L 4,0 C 5.671875,0 7.046875,-1.46875 7.046875,-3.34375 7.046875,-5.25 5.703125,-6.8125 4,-6.8125 z m 2.375,6.5 C 2.25,-0.3125 2.234375,-0.375 2.234375,-0.703125 l 0,-5.390625 C 2.234375,-6.4375 2.25,-6.5 2.71875,-6.5 l 1,0 c 0.625,0 1.3125,0.21875 1.8125,0.921875 0.4375,0.59375 0.515625,1.453125 0.515625,2.234375 0,1.09375 -0.1875,1.703125 -0.546875,2.1875 -0.203125,0.265625 -0.765625,0.84375 -1.765625,0.84375 z"
               id="path11064" />
          </symbol>
        </g>
      </defs>
      <g
         style="stroke-width:1"
         id="g11066">
        <g
           style="fill:#000000;fill-opacity:1;stroke-width:1"
           id="g11068">
          <use
             style="stroke-width:1"
             height="744.09448"
             width="1052.3622"
             xlink:href="#textext-f8170276-1"
             x="223.43201"
             y="134.765"
             id="use11070" />
        </g>
      </g>
    </g>
    <path
       style="fill:none;stroke:#0000ff;stroke-width:8;stroke-linecap:round;stroke-linejoin:miter;stroke-opacity:1"
       d="M 829.29992,753.55834 782.97741,673.32542"
       id="path11149"
       inkscape:connector-curvature="0"
       inkscape:export-filename="/home/waldgeist/data/pics/Homepage/mathematik/geometrie/strahlensatz-1.png"
       inkscape:export-xdpi="150"
       inkscape:export-ydpi="150" />
    <path
       style="fill:none;stroke:#008000;stroke-width:7.99999952;stroke-linecap:round;stroke-linejoin:miter;stroke-opacity:1"
       d="M 863.73408,522.46646 783.63872,661.19565"
       id="path11153"
       inkscape:connector-curvature="0"
       inkscape:export-filename="/home/waldgeist/data/pics/Homepage/mathematik/geometrie/strahlensatz-1.png"
       inkscape:export-xdpi="150"
       inkscape:export-ydpi="150" />
    <path
       sodipodi:nodetypes="cc"
       inkscape:connector-curvature="0"
       id="path11072"
       d="m 644.10359,902.87748 271.4058,-470.0885"
       style="fill:none;stroke:#000000;stroke-width:3;stroke-linecap:round;stroke-linejoin:miter;stroke-opacity:1"
       inkscape:export-filename="/home/waldgeist/data/pics/Homepage/mathematik/geometrie/strahlensatz-1.png"
       inkscape:export-xdpi="150"
       inkscape:export-ydpi="150" />
    <path
       inkscape:export-ydpi="150"
       inkscape:export-xdpi="150"
       inkscape:export-filename="/home/waldgeist/data/pics/Homepage/mathematik/geometrie/strahlensatz-1.png"
       inkscape:connector-curvature="0"
       id="path11074"
       d="M 546.13136,838.57249 998.85533,712.84243"
       style="fill:none;stroke:#000000;stroke-width:3;stroke-linecap:round;stroke-linejoin:miter;stroke-opacity:1;marker-start:none;marker-end:none" />
    <path
       style="fill:none;stroke:#000000;stroke-width:3;stroke-linecap:round;stroke-linejoin:miter;stroke-opacity:1;marker-start:none;marker-end:none"
       d="M 625.54876,583.10153 963.72692,489.09945"
       id="path11076"
       inkscape:connector-curvature="0"
       inkscape:export-filename="/home/waldgeist/data/pics/Homepage/mathematik/geometrie/strahlensatz-1.png"
       inkscape:export-xdpi="150"
       inkscape:export-ydpi="150" />
    <path
       style="fill:none;stroke:#000000;stroke-width:3;stroke-linecap:round;stroke-linejoin:miter;stroke-opacity:1"
       d="M 881.58367,844.11642 678.02932,491.55005"
       id="path11078"
       inkscape:connector-curvature="0"
       sodipodi:nodetypes="cc"
       inkscape:export-filename="/home/waldgeist/data/pics/Homepage/mathematik/geometrie/strahlensatz-1.png"
       inkscape:export-xdpi="150"
       inkscape:export-ydpi="150" />
  </g>
</svg>
