<svg xmlns:ns0="http://www.iki.fi/pav/software/textext/" xmlns="http://www.w3.org/2000/svg" xmlns:xlink="http://www.w3.org/1999/xlink" width="1052.362" height="744.094"><title>Strahlensatz 3</title><defs><symbol id="a" overflow="visible"><path d="M2.219-3.656v-2.438c0-.343.015-.406.484-.406h1.235c.968 0 1.312.844 1.312 1.375 0 .64-.484 1.469-1.594 1.469zm2.344.094c.968-.188 1.656-.829 1.656-1.563 0-.86-.922-1.688-2.219-1.688H.36v.313h.234c.765 0 .797.11.797.469v5.25c0 .36-.032.469-.797.469H.359V0h3.907c1.328 0 2.218-.89 2.218-1.828 0-.86-.812-1.61-1.921-1.734zm-.61 3.25h-1.25c-.469 0-.484-.063-.484-.391v-2.719h1.875c.984 0 1.406.922 1.406 1.594 0 .703-.531 1.516-1.547 1.516z"/></symbol></defs><g transform="translate(0 -308.268)"><rect style="marker:none" width="1004.705" height="548.359" x="23.829" y="406.136" ry="5.976" color="#000" fill="#fff" stroke="#fff" stroke-width="2.396" stroke-linecap="round" stroke-linejoin="bevel" overflow="visible"/><path d="M292.587 772.175l119.874-33.29" fill="#59f" stroke="green" stroke-width="8" stroke-linecap="round"/><use y="134.765" x="223.432" xlink:href="#a" width="1052.362" height="744.094" transform="matrix(3.37375 0 0 3.37375 -638.202 353.664)" ns0:preamble="/home/waldgeist/data/sphinx/inkscape-preamble.tex" ns0:text="$\\rm{B}$" stroke="#000"/><path d="M193.64 669.047c-.158-.421-.263-.685-.79-.685s-.633.21-.79.685l-6.96 20.085c-.632 1.74-1.95 2.266-3.795 2.266v1.055c.791-.053 2.267-.106 3.427-.106 1.054 0 2.794.053 3.9.106v-1.055c-1.686 0-2.53-.843-2.53-1.686 0-.106.053-.475.053-.528l1.581-4.375h8.277l1.792 5.113c.053.159.105.37.105.475 0 1.001-1.897 1.001-2.793 1.001v1.055c1.212-.106 3.584-.106 4.85-.106 1.423 0 3.004.053 4.375.106v-1.055h-.58c-2.003 0-2.478-.21-2.847-1.317zm-1.792 3.743l3.796 10.965h-7.539z" stroke="none" ns0:text="$\\rm{A}$" ns0:preamble="/home/waldgeist/data/sphinx/inkscape-preamble.tex"/><g ns0:text="$\\rm{S}$" ns0:preamble="/home/waldgeist/data/sphinx/inkscape-preamble.tex" transform="matrix(3.37375 0 0 3.37375 -461.275 71.575)" stroke="#000"><defs><symbol overflow="visible" id="b"><path d="M3.484-3.875l-1.28-.297c-.626-.156-1-.687-1-1.266 0-.703.53-1.312 1.312-1.312 1.656 0 1.875 1.64 1.937 2.078.016.063.016.125.125.125.125 0 .125-.047.125-.234v-2c0-.172 0-.25-.11-.25-.062 0-.077.015-.14.14l-.36.563c-.296-.297-.702-.703-1.593-.703-1.11 0-1.938.875-1.938 1.937 0 .828.532 1.563 1.297 1.828.11.032.625.157 1.329.329.265.062.562.14.843.5.203.265.313.593.313.921 0 .704-.5 1.422-1.344 1.422-.281 0-1.047-.047-1.578-.531-.578-.547-.61-1.172-.61-1.531-.015-.11-.093-.11-.125-.11-.125 0-.125.079-.125.25v2c0 .172 0 .235.11.235.062 0 .078-.016.14-.125 0-.016.032-.047.36-.578.312.343.953.703 1.844.703 1.156 0 1.953-.969 1.953-2.078 0-.985-.657-1.813-1.485-2.016z" stroke="none"/></symbol></defs><use height="744.094" width="1052.362" xlink:href="#b" x="223.432" y="134.765"/></g><path d="M720.769 553.394l141.738-39.398" fill="none" stroke="green" stroke-width="8" stroke-linecap="round"/><g transform="matrix(3.37375 0 0 3.37375 -490.998 217.02)" ns0:preamble="/home/waldgeist/data/sphinx/inkscape-preamble.tex" ns0:text="$\\rm{C}$" stroke="#000"><defs><symbol id="c" overflow="visible"><path d="M.563-3.406C.563-1.344 2.171.219 4.03.219c1.625 0 2.594-1.39 2.594-2.547 0-.094 0-.172-.125-.172-.11 0-.11.063-.125.172C6.297-.906 5.235-.094 4.141-.094c-.61 0-2.563-.328-2.563-3.312 0-2.969 1.953-3.313 2.563-3.313 1.078 0 1.968.907 2.171 2.36.016.14.016.171.157.171.156 0 .156-.03.156-.234v-2.36c0-.171 0-.25-.11-.25-.03 0-.077 0-.156.126l-.5.734c-.359-.36-.875-.86-1.828-.86-1.875 0-3.468 1.595-3.468 3.626z" stroke="none"/></symbol></defs><use height="744.094" width="1052.362" y="134.765" x="223.432" xlink:href="#c"/></g><g ns0:text="$\\rm{D}$" ns0:preamble="/home/waldgeist/data/sphinx/inkscape-preamble.tex" transform="matrix(3.37375 0 0 3.37375 -495.462 314.619)" stroke="#000"><defs><symbol overflow="visible" id="d"><path d="M.344-6.813v.313h.25c.765 0 .781.11.781.469v5.25c0 .36-.016.469-.781.469h-.25V0H4c1.672 0 3.047-1.469 3.047-3.344C7.047-5.25 5.703-6.813 4-6.813zm2.375 6.5c-.469 0-.485-.062-.485-.39v-5.39c0-.345.016-.407.485-.407h1c.625 0 1.312.219 1.812.922.438.594.516 1.453.516 2.234 0 1.094-.188 1.703-.547 2.188a2.192 2.192 0 0 1-1.766.843z" stroke="none"/></symbol></defs><use height="744.094" width="1052.362" xlink:href="#d" x="223.432" y="134.765"/></g><path d="M75.842 927.84L302.013 536.1l163.212 282.692" fill="none" stroke="#000" stroke-width="3" stroke-linecap="round" stroke-linejoin="round"/><path d="M147.229 812.544l133.904-37.188" fill="#59f" stroke="green" stroke-width="8" stroke-linecap="round"/><path d="M53.507 838.572l452.724-125.73" fill="none" stroke="#000" stroke-width="3" stroke-linecap="round"/><path d="M711.978 796.152l116.107-32.274" fill="none" stroke="green" stroke-width="8" stroke-linecap="round"/><path d="M825.853 757.956l-47.171 13.112" fill="#00f" stroke="#00f" stroke-width="8" stroke-linecap="round"/><path d="M215.65 697.101l72.318-20.156M298.649 673.965l65.945-18.38" fill="none" stroke="#00f" stroke-width="8" stroke-linecap="round"/><path d="M119.846 723.67l338.178-94.002" fill="none" stroke="#000" stroke-width="3" stroke-linecap="round"/><use height="744.094" width="1052.362" xlink:href="#a" x="223.432" y="134.765" transform="matrix(3.37375 0 0 3.37375 -73.018 337.07)" ns0:text="$\\rm{B}$" ns0:preamble="/home/waldgeist/data/sphinx/inkscape-preamble.tex" stroke="#000"/><path d="M690.748 532.058c-.158-.422-.263-.686-.79-.686-.528 0-.633.211-.791.686l-6.959 20.084c-.632 1.74-1.95 2.267-3.795 2.267v1.054c.79-.053 2.267-.106 3.426-.106 1.055 0 2.794.053 3.901.106v-1.054c-1.687 0-2.53-.844-2.53-1.687 0-.106.053-.475.053-.527l1.581-4.376h8.276l1.793 5.114c.052.158.105.369.105.474 0 1.002-1.898 1.002-2.794 1.002v1.054c1.213-.106 3.585-.106 4.85-.106 1.423 0 3.005.053 4.375.106v-1.054h-.58c-2.003 0-2.477-.211-2.846-1.318zm-1.792 3.742l3.795 10.965h-7.538z" stroke="none" ns0:preamble="/home/waldgeist/data/sphinx/inkscape-preamble.tex" ns0:text="$\\rm{A}$"/><use y="134.765" x="223.432" xlink:href="#b" width="1052.362" height="744.094" transform="matrix(3.37375 0 0 3.37375 -6.862 223.531)" ns0:preamble="/home/waldgeist/data/sphinx/inkscape-preamble.tex" ns0:text="$\\rm{S}$" stroke="#000"/><use xlink:href="#c" x="223.432" y="134.765" width="1052.362" height="744.094" transform="matrix(3.37375 0 0 3.37375 1.833 72.545)" ns0:text="$\\rm{C}$" ns0:preamble="/home/waldgeist/data/sphinx/inkscape-preamble.tex" stroke="#000"/><use y="134.765" x="223.432" xlink:href="#d" width="1052.362" height="744.094" transform="matrix(3.37375 0 0 3.37375 -10.314 319.464)" ns0:preamble="/home/waldgeist/data/sphinx/inkscape-preamble.tex" ns0:text="$\\rm{D}$" stroke="#000"/><path d="M639.159 911.443l276.35-478.654M546.131 838.572l452.724-125.73" fill="none" stroke="#000" stroke-width="3" stroke-linecap="round"/><path d="M782.442 543.335l-59.132 16.437" fill="#00f" stroke="#00f" stroke-width="8" stroke-linecap="round"/><path d="M625.549 583.102l338.178-94.003M881.584 844.116L678.029 491.55" fill="none" stroke="#000" stroke-width="3" stroke-linecap="round"/><path d="M280.741 870.026L302.013 536.1M766.542 876.066l26.063-409.144" fill="none" stroke="#000" stroke-width="3.223" stroke-linecap="round"/><g ns0:text="$\\rm{E}$" ns0:preamble="/home/waldgeist/data/sphinx/inkscape-preamble.tex" transform="matrix(3.37375 0 0 3.37375 -384.915 189.91)" stroke="#000"><defs><symbol overflow="visible" id="e"><path d="M1.36-.781c0 .36-.032.469-.798.469H.329V0h5.75L6.5-2.578h-.25C6-1.031 5.766-.313 4.062-.313H2.734c-.468 0-.484-.062-.484-.39v-2.672h.89c.97 0 1.079.328 1.079 1.172h.25v-2.64h-.25c0 .859-.11 1.171-1.078 1.171H2.25v-2.406c0-.328.016-.39.484-.39h1.282c1.53 0 1.796.546 1.953 1.937h.25l-.282-2.25H.329v.312h.234c.766 0 .797.11.797.469z" stroke="none"/></symbol></defs><use xlink:href="#e" x="223.432" y="134.765"/></g><g transform="matrix(3.37375 0 0 3.37375 -337.515 271.596)" ns0:preamble="/home/waldgeist/data/sphinx/inkscape-preamble.tex" ns0:text="$\\rm{F}$" stroke="#000"><defs><symbol id="f" overflow="visible"><path d="M5.797-6.781H.328v.312h.234c.766 0 .797.11.797.469v5.219c0 .36-.03.469-.796.469H.328V0c.344-.031 1.125-.031 1.516-.031.406 0 1.312 0 1.672.031v-.313h-.329c-.937 0-.937-.124-.937-.468v-2.453h.844c.969 0 1.062.312 1.062 1.156h.25v-2.64h-.25c0 .843-.093 1.171-1.062 1.171H2.25v-2.531c0-.328.016-.39.484-.39h1.188c1.5 0 1.75.562 1.906 1.937h.25z" stroke="none"/></symbol></defs><use y="134.765" x="223.432" xlink:href="#f"/></g><use y="134.765" x="223.432" xlink:href="#e" width="1052.362" height="744.094" transform="matrix(3.37375 0 0 3.37375 93.778 48.76)" ns0:preamble="/home/waldgeist/data/sphinx/inkscape-preamble.tex" ns0:text="$\\rm{E}$" stroke="#000"/><use xlink:href="#f" x="223.432" y="134.765" width="1052.362" height="744.094" transform="matrix(3.37375 0 0 3.37375 79.746 294.268)" ns0:text="$\\rm{F}$" ns0:preamble="/home/waldgeist/data/sphinx/inkscape-preamble.tex" stroke="#000"/></g></svg>