<svg xmlns:ns0="http://www.iki.fi/pav/software/textext/" xmlns="http://www.w3.org/2000/svg" xmlns:xlink="http://www.w3.org/1999/xlink" width="793.701" height="1122.52" viewBox="0 0 744.09448 1052.3622"><title>Darstellung einer Strecke mittels Vektoren</title><defs><marker orient="auto" id="q" overflow="visible"><path d="M-1.926-1.21L1.352-.005l-3.278 1.206a2.05 2.05 0 0 0 0-2.411z" fill-rule="evenodd" stroke-width=".1875" stroke-linejoin="round" stroke="#8080ff" fill="#8080ff"/></marker><marker orient="auto" id="r" overflow="visible"><path d="M-1.926-1.21L1.352-.005l-3.278 1.206a2.05 2.05 0 0 0 0-2.411z" fill-rule="evenodd" stroke-width=".1875" stroke-linejoin="round" stroke="navy" fill="navy"/></marker><marker orient="auto" id="k" overflow="visible"><path d="M-1.926-1.21L1.352-.005l-3.278 1.206a2.05 2.05 0 0 0 0-2.411z" fill-rule="evenodd" stroke-width=".1875" stroke-linejoin="round" stroke="#8080ff" fill="#8080ff"/></marker><marker id="a" orient="auto" overflow="visible"><path d="M2.308 0l-3.46 2v-4z" fill-rule="evenodd" stroke="#000" stroke-width=".5332"/></marker></defs><rect ry="4.621" y="314.14" x="43.122" height="424.083" width="657.851" style="marker:none" color="#000" overflow="visible" fill="#fff" stroke="#fff" stroke-width="2.396" stroke-linecap="round" stroke-linejoin="bevel"/><g transform="translate(-575.239 128.115) scale(4.62289)" fill="green"><use height="1052.362" width="744.094" xlink:href="#textext-082fa4b4-3" x="231.736" y="134.765"/><use height="1052.362" width="744.094" xlink:href="#textext-082fa4b4-3" x="231.736" y="134.765"/><g ns0:text="$\\Delta \\vec{r} = \\vec{r}_{\\rm{2}} - \\vec{r}_{\\rm{1}} $" ns0:preamble="/home/waldgeist/data/sphinx/test.tex"><use height="1052.362" width="744.094" xlink:href="#textext-082fa4b4-0" x="223.432" y="134.765"/><use height="1052.362" width="744.094" xlink:href="#textext-082fa4b4-2" x="231.417" y="134.765"/><use height="1052.362" width="744.094" xlink:href="#textext-082fa4b4-3" x="231.736" y="134.765"/><use height="1052.362" width="744.094" xlink:href="#textext-082fa4b4-1" x="239.273" y="134.765"/><use height="1052.362" width="744.094" xlink:href="#textext-082fa4b4-2" x="249.472" y="134.765"/><use height="1052.362" width="744.094" xlink:href="#textext-082fa4b4-3" x="249.791" y="134.765"/><use height="1052.362" width="744.094" xlink:href="#textext-082fa4b4-4" x="254.284" y="136.259"/><use height="1052.362" width="744.094" xlink:href="#textext-082fa4b4-6" x="260.967" y="134.765"/><use height="1052.362" width="744.094" xlink:href="#textext-082fa4b4-2" x="270.612" y="134.765"/><use height="1052.362" width="744.094" xlink:href="#textext-082fa4b4-3" x="270.931" y="134.765"/><use height="1052.362" width="744.094" xlink:href="#textext-082fa4b4-5" x="275.425" y="136.259"/></g><g ns0:text="$\\Delta \\vec{r} = \\vec{r}_{\\rm{2}} - \\vec{r}_{\\rm{1}} $" ns0:preamble="/home/waldgeist/data/sphinx/test.tex"><use height="1052.362" width="744.094" xlink:href="#textext-082fa4b4-0" x="223.432" y="134.765"/><use height="1052.362" width="744.094" xlink:href="#textext-082fa4b4-2" x="231.417" y="134.765"/><use height="1052.362" width="744.094" xlink:href="#textext-082fa4b4-3" x="231.736" y="134.765"/><use height="1052.362" width="744.094" xlink:href="#textext-082fa4b4-1" x="239.273" y="134.765"/><use height="1052.362" width="744.094" xlink:href="#textext-082fa4b4-2" x="249.472" y="134.765"/><use height="1052.362" width="744.094" xlink:href="#textext-082fa4b4-3" x="249.791" y="134.765"/><use height="1052.362" width="744.094" xlink:href="#textext-082fa4b4-4" x="254.284" y="136.259"/><use height="1052.362" width="744.094" xlink:href="#textext-082fa4b4-6" x="260.967" y="134.765"/><use height="1052.362" width="744.094" xlink:href="#textext-082fa4b4-2" x="270.612" y="134.765"/><use height="1052.362" width="744.094" xlink:href="#textext-082fa4b4-3" x="270.931" y="134.765"/><use height="1052.362" width="744.094" xlink:href="#textext-082fa4b4-5" x="275.425" y="136.259"/></g><g ns0:text="$\\Delta \\vec{r} = \\vec{r}_{\\rm{2}} - \\vec{r}_{\\rm{1}} $" ns0:preamble="/home/waldgeist/data/sphinx/test.tex"><use height="1052.362" width="744.094" xlink:href="#textext-082fa4b4-0" x="223.432" y="134.765"/><use height="1052.362" width="744.094" xlink:href="#textext-082fa4b4-2" x="231.417" y="134.765"/><use height="1052.362" width="744.094" xlink:href="#textext-082fa4b4-3" x="231.736" y="134.765"/><use height="1052.362" width="744.094" xlink:href="#textext-082fa4b4-1" x="239.273" y="134.765"/><use height="1052.362" width="744.094" xlink:href="#textext-082fa4b4-2" x="249.472" y="134.765"/><use height="1052.362" width="744.094" xlink:href="#textext-082fa4b4-3" x="249.791" y="134.765"/><use height="1052.362" width="744.094" xlink:href="#textext-082fa4b4-4" x="254.284" y="136.259"/><use height="1052.362" width="744.094" xlink:href="#textext-082fa4b4-6" x="260.967" y="134.765"/><use height="1052.362" width="744.094" xlink:href="#textext-082fa4b4-2" x="270.612" y="134.765"/><use height="1052.362" width="744.094" xlink:href="#textext-082fa4b4-3" x="270.931" y="134.765"/><use height="1052.362" width="744.094" xlink:href="#textext-082fa4b4-5" x="275.425" y="136.259"/></g></g><path d="M215.37 378.525v298.909M275.151 378.525v298.909M334.933 378.525v298.909M394.715 378.525v298.909M454.496 378.525v298.909M215.37 438.307h298.908M215.37 498.088h298.908M215.37 557.87h298.908M215.37 617.652h298.908M215.37 677.434h298.908" fill="none" stroke="#ccc" stroke-width="1.061"/><path d="M221.347 378.525v298.909M227.326 378.525v298.909M233.304 378.525v298.909M239.282 378.525v298.909M245.26 378.525v298.909M251.238 378.525v298.909M257.217 378.525v298.909M263.195 378.525v298.909M269.173 378.525v298.909M281.13 378.525v298.909M287.107 378.525v298.909M293.086 378.525v298.909M299.064 378.525v298.909M305.042 378.525v298.909M311.02 378.525v298.909M316.998 378.525v298.909M322.976 378.525v298.909M328.955 378.525v298.909M340.911 378.525v298.909M346.89 378.525v298.909M352.867 378.525v298.909M358.845 378.525v298.909M364.824 378.525v298.909M370.802 378.525v298.909M376.78 378.525v298.909M382.758 378.525v298.909M388.736 378.525v298.909M400.693 378.525v298.909M406.67 378.525v298.909M412.649 378.525v298.909M418.627 378.525v298.909M424.605 378.525v298.909M430.584 378.525v298.909M436.562 378.525v298.909M442.54 378.525v298.909M448.518 378.525v298.909M460.474 378.525v298.909M466.453 378.525v298.909M472.43 378.525v298.909M478.409 378.525v298.909M484.387 378.525v298.909M490.365 378.525v298.909M496.343 378.525v298.909M502.322 378.525v298.909M508.3 378.525v298.909M215.37 384.503h298.908M215.37 390.481h298.908M215.37 396.46h298.908M215.37 402.438h298.908M215.37 408.416h298.908M215.37 414.394h298.908M215.37 420.372h298.908M215.37 426.35h298.908M215.37 432.329h298.908M215.37 444.285h298.908M215.37 450.263h298.908M215.37 456.241h298.908M215.37 462.22h298.908M215.37 468.198h298.908M215.37 474.176h298.908M215.37 480.154h298.908M215.37 486.132h298.908M215.37 492.11h298.908M215.37 504.067h298.908M215.37 510.045h298.908M215.37 516.023h298.908M215.37 522.001h298.908M215.37 527.98h298.908M215.37 533.957h298.908M215.37 539.936h298.908M215.37 545.914h298.908M215.37 551.892h298.908M215.37 563.848h298.908M215.37 569.827h298.908M215.37 575.805h298.908M215.37 581.783h298.908M215.37 587.761h298.908M215.37 593.74h298.908M215.37 599.717h298.908M215.37 605.696h298.908M215.37 611.674h298.908M215.37 623.63h298.908M215.37 629.608h298.908M215.37 635.586h298.908M215.37 641.565h298.908M215.37 647.543h298.908M215.37 653.52h298.908M215.37 659.5h298.908M215.37 665.477h298.908M215.37 671.455h298.908" fill="none" stroke="#ccc" stroke-width=".354"/><path fill="none" stroke="#ccc" stroke-width=".75" d="M215.369 378.525h298.909v298.909H215.369z"/><path d="M195.67 335.642c.145-.435.145-.483.145-.725 0-.531-.435-.82-.918-.82-.29 0-.773.192-1.063.627-.048.193-.338 1.111-.435 1.69-.241.774-.434 1.643-.628 2.464l-1.4 5.555c-.097.435-1.45 2.609-3.478 2.609-1.546 0-1.884-1.353-1.884-2.512 0-1.4.531-3.333 1.545-6.038.483-1.256.628-1.594.628-2.222 0-1.353-.966-2.512-2.511-2.512-2.947 0-4.058 4.492-4.058 4.734 0 .338.29.338.338.338.338 0 .338-.097.483-.58.87-2.898 2.077-3.816 3.14-3.816.241 0 .773 0 .773.966 0 .773-.338 1.594-.532 2.174-1.255 3.285-1.787 5.024-1.787 6.473 0 2.753 1.932 3.671 3.768 3.671 1.208 0 2.222-.531 3.091-1.4-.386 1.593-.772 3.14-1.98 4.781-.821 1.015-1.98 1.933-3.381 1.933-.435 0-1.836-.097-2.367-1.305.483 0 .917 0 1.304-.386.338-.242.628-.676.628-1.256 0-.966-.821-1.063-1.111-1.063-.725 0-1.74.483-1.74 1.98 0 1.547 1.353 2.706 3.286 2.706 3.14 0 6.328-2.802 7.197-6.28zm0 0" fill="gray"/><path d="M227.529 557.927h-24.32M227.529 498.145h-24.32M227.529 438.363h-24.32M227.529 378.581h-24.32" fill="none" stroke="gray" stroke-width="1.558" stroke-linecap="round"/><path d="M556.391 698.84c.194-.775.92-3.628 3.047-3.628.145 0 .92 0 1.548.386-.87.194-1.451.92-1.451 1.693 0 .484.339 1.064 1.16 1.064.678 0 1.645-.532 1.645-1.79 0-1.595-1.79-2.03-2.853-2.03-1.79 0-2.854 1.644-3.241 2.321-.774-2.031-2.418-2.322-3.337-2.322-3.193 0-4.982 3.966-4.982 4.74 0 .339.338.339.387.339.242 0 .338-.097.387-.339 1.064-3.289 3.095-4.062 4.16-4.062.58 0 1.644.29 1.644 2.08 0 .967-.532 2.998-1.645 7.351-.483 1.886-1.596 3.192-2.95 3.192-.194 0-.87 0-1.548-.387.774-.193 1.451-.822 1.451-1.692 0-.823-.677-1.065-1.112-1.065-.968 0-1.693.774-1.693 1.79 0 1.403 1.5 2.031 2.854 2.031 2.08 0 3.192-2.176 3.24-2.321a3.462 3.462 0 0 0 3.337 2.321c3.193 0 4.934-3.966 4.934-4.74 0-.338-.242-.338-.339-.338-.29 0-.338.145-.435.338-1.016 3.338-3.095 4.063-4.063 4.063-1.209 0-1.693-.967-1.693-2.031 0-.677.145-1.354.484-2.709zm0 0" fill="gray"/><path d="M215.37 677.434h339.94" id="h" fill="none" stroke="gray" stroke-width="2.112" marker-end="url(#a)"/><path id="b" d="M275.151 665.164v23.913" fill="none" stroke="gray" stroke-width="2" stroke-linecap="round"/><use xlink:href="#b" transform="translate(59.782 -.483)" width="744.094" height="1052.362" stroke="gray" stroke-linecap="round"/><use xlink:href="#b" transform="translate(119.563)" width="744.094" height="1052.362" stroke="gray" stroke-linecap="round"/><use xlink:href="#b" transform="translate(179.345)" width="744.094" height="1052.362" stroke="gray" stroke-linecap="round"/><use height="744.094" width="1052.362" transform="translate(239.127 -.667)" xlink:href="#b" stroke="gray" stroke-linecap="round"/><g transform="matrix(2.03393 0 0 2.03393 -184.517 434.158)" ns0:preamble="/home/waldgeist/data/sphinx/test.tex" ns0:text="$1$" fill="#4d4d4d" stroke="green" stroke-width="1.475"><defs><symbol id="c" overflow="visible"><path d="M2.938-6.375c0-.25 0-.266-.235-.266C2.078-6 1.203-6 .891-6v.313c.203 0 .78 0 1.296-.266v5.172c0 .36-.03.469-.921.469H.953V0c.344-.031 1.203-.031 1.61-.031.39 0 1.265 0 1.609.031v-.313h-.313c-.906 0-.921-.109-.921-.468zm0 0" stroke="none"/></symbol></defs><use height="1052.362" width="744.094" y="134.765" x="223.432" xlink:href="#c"/></g><g transform="matrix(2.03393 0 0 2.03393 -124.636 434.158)" ns0:preamble="/home/waldgeist/data/sphinx/test.tex" ns0:text="$2$" fill="#4d4d4d" stroke="green" stroke-width="1.475"><defs><symbol id="d" overflow="visible"><path d="M1.266-.766l1.062-1.03c1.547-1.376 2.14-1.907 2.14-2.907 0-1.14-.89-1.938-2.109-1.938C1.234-6.64.5-5.719.5-4.828c0 .547.5.547.531.547.172 0 .516-.11.516-.532a.513.513 0 0 0-.531-.515c-.079 0-.094 0-.125.016.218-.657.765-1.016 1.343-1.016.907 0 1.329.812 1.329 1.625 0 .797-.485 1.578-1.047 2.203L.609-.375C.5-.265.5-.235.5 0h3.703l.266-1.734h-.235C4.172-1.438 4.11-1 4-.844c-.063.078-.719.078-.938.078zm0 0" stroke="none"/></symbol></defs><use y="134.765" x="223.432" xlink:href="#d" transform="translate(-.019)" width="744.094" height="1052.362"/></g><g ns0:text="$3$" ns0:preamble="/home/waldgeist/data/sphinx/test.tex" transform="matrix(2.03393 0 0 2.03393 -65.373 433.935)" fill="#4d4d4d" stroke="green" stroke-width="1.475"><defs><symbol overflow="visible" id="e"><path d="M2.89-3.516c.813-.265 1.391-.953 1.391-1.75 0-.812-.875-1.375-1.828-1.375-1 0-1.765.594-1.765 1.36 0 .328.218.515.515.515.297 0 .5-.218.5-.515 0-.485-.469-.485-.61-.485.298-.5.954-.625 1.313-.625.422 0 .969.22.969 1.11 0 .125-.031.703-.281 1.14-.297.485-.64.516-.89.516a3.29 3.29 0 0 1-.392.031c-.078.016-.14.031-.14.125 0 .11.062.11.234.11h.438c.812 0 1.187.671 1.187 1.656 0 1.36-.687 1.64-1.125 1.64-.437 0-1.187-.171-1.531-.75.344.047.656-.171.656-.546a.537.537 0 0 0-.547-.563c-.25 0-.562.14-.562.578C.422-.437 1.344.22 2.437.22c1.22 0 2.126-.906 2.126-1.922 0-.813-.641-1.594-1.672-1.813zm0 0" stroke="none"/></symbol></defs><use height="1052.362" width="744.094" xlink:href="#e" x="223.432" y="134.765"/></g><g transform="matrix(2.03393 0 0 2.03393 -7.275 434.27)" ns0:preamble="/home/waldgeist/data/sphinx/test.tex" ns0:text="$4$" fill="#4d4d4d" stroke="green" stroke-width="1.475"><defs><symbol id="f" overflow="visible"><path d="M2.938-1.64v.859c0 .36-.032.469-.766.469h-.203V0c.406-.031.922-.031 1.343-.031.422 0 .938 0 1.36.031v-.313h-.219c-.734 0-.75-.109-.75-.468v-.86h.985v-.312h-.985v-4.531c0-.204 0-.266-.172-.266-.078 0-.11 0-.187.125L.28-1.953v.312zm.046-.313H.563l2.421-3.719zm0 0" stroke="none"/></symbol></defs><use y="134.765" x="223.432" xlink:href="#f" width="744.094" height="1052.362"/></g><g ns0:text="$5$" ns0:preamble="/home/waldgeist/data/sphinx/test.tex" transform="matrix(2.03393 0 0 2.03393 54.693 433.935)" fill="#4d4d4d" stroke="green" stroke-width="1.475"><defs><symbol overflow="visible" id="g"><path d="M4.469-2c0-1.188-.813-2.188-1.89-2.188-.47 0-.907.157-1.267.516v-1.953c.204.063.532.125.844.125 1.235 0 1.938-.906 1.938-1.031 0-.063-.032-.11-.11-.11 0 0-.03 0-.078.032a3.22 3.22 0 0 1-1.36.296c-.39 0-.858-.078-1.327-.28-.078-.032-.094-.032-.11-.032C1-6.625 1-6.547 1-6.391v2.954c0 .171 0 .25.14.25.079 0 .094-.016.141-.079.11-.156.469-.703 1.282-.703.515 0 .765.453.843.64.156.376.188.75.188 1.25 0 .36 0 .954-.25 1.376-.235.39-.61.64-1.063.64-.719 0-1.297-.53-1.469-1.109.032 0 .063.016.172.016.329 0 .5-.25.5-.485 0-.25-.171-.5-.5-.5-.14 0-.484.079-.484.532C.5-.75 1.188.219 2.297.219 3.453.219 4.469-.734 4.469-2zm0 0" stroke="none"/></symbol></defs><use height="1052.362" width="744.094" xlink:href="#g" x="223.432" y="134.765"/></g><use xlink:href="#c" x="223.432" y="134.765" width="744.094" height="1052.362" transform="matrix(2.03393 0 0 2.03393 -266.174 350.36)" ns0:text="$1$" ns0:preamble="/home/waldgeist/data/sphinx/test.tex" fill="#4d4d4d" stroke="green" stroke-width="1.475"/><use height="1052.362" width="744.094" transform="matrix(2.03393 0 0 2.03393 -266.953 290.578)" xlink:href="#d" x="223.432" y="134.765" ns0:text="$2$" ns0:preamble="/home/waldgeist/data/sphinx/test.tex" fill="#4d4d4d" stroke="green" stroke-width="1.475"/><use y="134.765" x="223.432" xlink:href="#e" width="744.094" height="1052.362" transform="matrix(2.03393 0 0 2.03393 -267.187 230.573)" ns0:preamble="/home/waldgeist/data/sphinx/test.tex" ns0:text="$3$" fill="#4d4d4d" stroke="green" stroke-width="1.475"/><use height="1052.362" width="744.094" xlink:href="#f" x="223.432" y="134.765" transform="matrix(2.03393 0 0 2.03393 -267.509 171.125)" ns0:text="$4$" ns0:preamble="/home/waldgeist/data/sphinx/test.tex" fill="#4d4d4d" stroke="green" stroke-width="1.475"/><use y="134.765" x="223.432" xlink:href="#g" width="744.094" height="1052.362" transform="matrix(2.03393 0 0 2.03393 -266.953 111.01)" ns0:preamble="/home/waldgeist/data/sphinx/test.tex" ns0:text="$5$" fill="#4d4d4d" stroke="green" stroke-width="1.475"/><use height="1052.362" width="744.094" transform="rotate(-90 215.37 677.434)" xlink:href="#h" stroke="gray"/><path d="M227.529 617.652h-24.32" fill="none" stroke="gray" stroke-width="1.558" stroke-linecap="round"/><g ns0:text="$\\vec{a}_{\\rm{}}$" transform="matrix(3.49037 0 0 3.49037 -551.086 135.602)" fill="#8080ff" stroke="green" stroke-width="1.311"><defs><symbol overflow="visible" id="i"><path d="M5.36-5.938c-.141.141-.47.422-.47.594 0 .094.094.203.188.203s.14-.078.203-.14c.11-.14.344-.422.782-.64.062-.048.171-.095.171-.204 0-.11-.078-.156-.14-.203a1.034 1.034 0 0 1-.407-.563c-.03-.093-.062-.234-.203-.234-.14 0-.203.14-.203.219 0 .047.078.36.235.578h-3.36c-.156 0-.344 0-.344.203 0 .188.188.188.344.188zm0 0" stroke="none"/></symbol><symbol overflow="visible" id="j"><path d="M3.719-3.766c-.188-.375-.469-.64-.922-.64-1.156 0-2.39 1.468-2.39 2.922C.406-.547.952.109 1.718.109c.203 0 .703-.046 1.297-.75a.91.91 0 0 0 .906.75c.36 0 .578-.234.75-.546a6.49 6.49 0 0 0 .297-.985c0-.11-.094-.11-.125-.11-.094 0-.11.048-.14.188-.173.64-.345 1.235-.75 1.235-.282 0-.298-.266-.298-.454 0-.218.016-.312.125-.75.11-.406.125-.515.219-.89l.36-1.39c.062-.282.062-.298.062-.345 0-.171-.11-.265-.281-.265-.25 0-.391.219-.422.437zm-.64 2.579c-.063.187-.063.203-.204.375-.438.546-.844.703-1.125.703-.5 0-.64-.547-.64-.938 0-.5.312-1.719.546-2.187.313-.579.75-.954 1.157-.954.64 0 .78.813.78.875a.562.562 0 0 1-.03.172zm0 0" stroke="none"/></symbol></defs><use height="1052.362" width="744.094" xlink:href="#i" x="222.808" y="134.765"/><use height="1052.362" width="744.094" xlink:href="#j" x="223.436" y="134.765"/></g><g stroke="gray" fill="none" stroke-width="2" stroke-linecap="round"><path d="M458.74 490.606l-8.488 14.965M450.252 490.606l8.488 14.965"/></g><path d="M215.38 677.423l235.941-176.94" fill="#8080ff" stroke="#8080ff" stroke-width="3.001" stroke-linecap="round" marker-end="url(#k)"/><g ns0:text="$\\mathrm{O}$" transform="matrix(3.49037 0 0 3.49037 -598.033 237.399)" fill="gray" stroke="gray" stroke-width="1.311"><defs><symbol overflow="visible" id="l"><path d="M7.188-3.375c0-2.031-1.5-3.656-3.313-3.656-1.797 0-3.313 1.593-3.313 3.656C.563-1.328 2.095.219 3.876.219c1.813 0 3.313-1.578 3.313-3.594zM3.874-.047c-.953 0-2.297-.875-2.297-3.469 0-2.578 1.469-3.265 2.297-3.265.86 0 2.281.703 2.281 3.265 0 2.641-1.36 3.47-2.281 3.47zm0 0" stroke="none"/></symbol></defs><use height="1052.362" width="744.094" xlink:href="#l" x="223.432" y="134.765" stroke-width="1.311"/></g><g transform="matrix(3.49037 0 0 3.49037 -523.696 76.416)" ns0:text="$\\mathrm{A}$" fill="gray" stroke="gray" stroke-width="1.311"><defs><symbol id="m" overflow="visible"><path d="M3.969-6.938c-.047-.125-.078-.203-.235-.203-.156 0-.187.063-.234.204L1.437-.984C1.25-.47.86-.313.313-.313V0c.235-.016.672-.031 1.016-.031.313 0 .828.015 1.156.031v-.313c-.5 0-.75-.25-.75-.5 0-.03.016-.14.016-.156l.469-1.297h2.453L5.203-.75a.58.58 0 0 1 .031.14c0 .297-.562.297-.828.297V0c.36-.031 1.063-.031 1.438-.031.422 0 .89.015 1.297.031v-.313h-.172c-.594 0-.735-.062-.844-.39zm-.531 1.11l1.124 3.25H2.329zm0 0" stroke="none"/></symbol></defs><use y="134.765" x="223.432" xlink:href="#m" width="100%" height="100%"/></g><g ns0:text="$\\vec{b}_{\\rm{}}$" ns0:preamble="/home/waldgeist/data/homepage/inkscape-preamble.tex" transform="matrix(3.49037 0 0 3.49037 -61.844 320.917)" fill="#8080ff" stroke="green" stroke-width="1.311"><defs><symbol overflow="visible" id="n"><path d="M5.36-5.938c-.141.141-.47.422-.47.594 0 .094.094.203.188.203s.14-.078.203-.14c.11-.14.344-.422.782-.64.062-.048.171-.095.171-.204 0-.11-.078-.156-.14-.203a1.034 1.034 0 0 1-.407-.563c-.03-.093-.062-.234-.203-.234-.14 0-.203.14-.203.219 0 .047.078.36.235.578h-3.36c-.156 0-.344 0-.344.203 0 .188.188.188.344.188zm0 0" stroke="none"/></symbol><symbol overflow="visible" id="o"><path d="M2.375-6.813s0-.109-.125-.109c-.219 0-.953.078-1.219.11-.078 0-.187.015-.187.187 0 .125.094.125.25.125.468 0 .484.063.484.172 0 .062-.078.406-.125.61l-.828 3.25c-.11.5-.156.671-.156 1.015C.469-.516 1 .109 1.734.109c1.172 0 2.407-1.484 2.407-2.921 0-.907-.532-1.594-1.329-1.594-.453 0-.874.297-1.171.593zm-.922 3.766c.047-.219.047-.234.14-.344.485-.64.938-.796 1.204-.796.36 0 .625.296.625.937 0 .594-.328 1.734-.516 2.11-.328.671-.781 1.03-1.172 1.03-.343 0-.671-.265-.671-1 0-.202 0-.39.156-1.015zm0 0" stroke="none"/></symbol></defs><use height="100%" width="100%" xlink:href="#n" x="117.682" y="80.774"/><use height="100%" width="100%" xlink:href="#o" x="118.801" y="83.403"/></g><g fill="gray" stroke="gray" stroke-width="2" stroke-linecap="round"><path d="M279.395 550.388l-8.488 14.964M270.907 550.388l8.488 14.964"/></g><g ns0:text="$\\mathrm{B}$" ns0:preamble="/home/waldgeist/data/homepage/inkscape-preamble.tex" transform="matrix(3.49037 0 0 3.49037 45.827 206.913)" fill="gray" stroke="gray" stroke-width="1.311"><defs><symbol overflow="visible" id="p"><path d="M2.219-3.656v-2.438c0-.343.015-.406.484-.406h1.235c.968 0 1.312.844 1.312 1.375 0 .64-.484 1.469-1.594 1.469zm2.344.094c.968-.188 1.656-.829 1.656-1.563 0-.86-.922-1.688-2.219-1.688H.36v.313h.234c.765 0 .797.11.797.469v5.25c0 .36-.032.469-.797.469H.359V0h3.907c1.328 0 2.218-.89 2.218-1.828 0-.86-.812-1.61-1.921-1.734zm-.61 3.25h-1.25c-.469 0-.484-.063-.484-.391v-2.719h1.875c.984 0 1.406.922 1.406 1.594 0 .703-.531 1.516-1.547 1.516zm0 0" stroke="none"/></symbol></defs><use height="100%" width="100%" xlink:href="#p" x="118.801" y="83.403"/></g><path d="M215.382 677.422l58.144-116.4" fill="#8080ff" stroke="#8080ff" stroke-width="3" stroke-linecap="round" marker-end="url(#q)"/><path d="M275.166 557.855l175.47-58.427" fill="navy" stroke="navy" stroke-width="3.001" stroke-linecap="round" marker-end="url(#r)"/><g transform="matrix(3.49037 0 0 3.49037 -78.407 231.18)" ns0:preamble="/home/waldgeist/data/homepage/inkscape-preamble.tex" ns0:text="$\\vec{v}_{\\rm{}}$" fill="navy" stroke="green" stroke-width="1.311"><defs><symbol id="s" overflow="visible"><path d="M5.36-5.938c-.141.141-.47.422-.47.594 0 .094.094.203.188.203s.14-.078.203-.14c.11-.14.344-.422.782-.64.062-.048.171-.095.171-.204 0-.11-.078-.156-.14-.203a1.034 1.034 0 0 1-.407-.563c-.03-.093-.062-.234-.203-.234-.14 0-.203.14-.203.219 0 .047.078.36.235.578h-3.36c-.156 0-.344 0-.344.203 0 .188.188.188.344.188zm0 0" stroke="none"/></symbol><symbol id="t" overflow="visible"><path d="M4.672-3.703c0-.547-.266-.703-.438-.703-.25 0-.5.265-.5.484 0 .125.047.188.157.297.218.203.343.453.343.813 0 .421-.609 2.703-1.765 2.703-.516 0-.75-.344-.75-.875 0-.547.281-1.282.578-2.11.078-.172.125-.312.125-.5 0-.437-.313-.812-.813-.812-.937 0-1.312 1.453-1.312 1.531 0 .11.094.11.11.11.109 0 .109-.032.156-.188.296-1 .718-1.235 1.015-1.235.078 0 .25 0 .25.313 0 .25-.11.531-.172.703-.437 1.156-.562 1.61-.562 2.047 0 1.078.875 1.234 1.328 1.234 1.672 0 2.25-3.296 2.25-3.812zm0 0" stroke="none"/></symbol></defs><use y="83.403" x="118.414" xlink:href="#s"/><use y="83.403" x="118.803" xlink:href="#t"/></g></svg>