<svg xmlns="http://www.w3.org/2000/svg" xmlns:xlink="http://www.w3.org/1999/xlink" width="1052.362" height="744.094"><title>Achsensymmetrie (mehrfach)</title><g transform="translate(0 -308.268)"><use transform="translate(-690.002 115.427) scale(3.49978)" height="1052.362" width="744.094" xlink:href="#textext-28c1ecfe-0" x="223.432" y="134.765"/><use transform="translate(-200.574 -112.91) scale(3.49978)" height="1052.362" width="744.094" xlink:href="#textext-28c1ecfe-0" x="223.432" y="134.765"/><use transform="translate(-200.574 -112.91) scale(3.49978)" height="1052.362" width="744.094" xlink:href="#textext-28c1ecfe-0" x="223.432" y="134.765"/><use transform="translate(247.109 692.116) scale(3.49978)" height="1052.362" width="744.094" xlink:href="#textext-28c1ecfe-0" x="223.432" y="134.765"/><use transform="translate(736.537 463.779) scale(3.49978)" height="1052.362" width="744.094" xlink:href="#textext-28c1ecfe-0" x="223.432" y="134.765"/><use transform="translate(736.537 463.779) scale(3.49978)" height="1052.362" width="744.094" xlink:href="#textext-28c1ecfe-0" x="223.432" y="134.765"/><path fill="#fff" stroke="#fff" stroke-width="3" stroke-linecap="square" d="M23.092 491.416h1006.179v377.797H23.092z"/><path style="marker:none" d="M636.855 710.568l-66.411 10.102 4.841 67-49.304-45.624-49.364 45.56 4.93-66.995-66.399-10.189 55.452-37.916-33.433-58.264 64.218 19.714 24.708-62.467 24.626 62.499 64.243-19.63-33.509 58.221z" color="#000" fill="#ececec" stroke="#4d4d4d" stroke-width="3.0000584199999993" stroke-linecap="round" stroke-linejoin="round" overflow="visible"/><path d="M942.245 680.315c0 60.271-48.86 109.13-109.131 109.13-60.272 0-109.131-48.859-109.131-109.13 0-60.271 48.86-109.131 109.13-109.131 60.272 0 109.132 48.86 109.132 109.13z" style="marker:none" color="#000" fill="#ececec" stroke="#4d4d4d" stroke-width="3.0000274499999997" stroke-linecap="round" stroke-linejoin="round" overflow="visible"/><path d="M526.174 828.462l.014-296.295" fill="none" stroke="#5f8dd3" stroke-width="2" stroke-linecap="round" stroke-dasharray="2,4"/><path style="marker:none" color="#000" fill="#ececec" stroke="#4d4d4d" stroke-width="3" stroke-linecap="round" stroke-linejoin="round" overflow="visible" d="M110.118 623.367H328.38v113.897H110.118z"/><path d="M219.242 828.462l.013-296.295M369.367 680.322l-300.237-.014" fill="none" stroke="#5f8dd3" stroke-width="2" stroke-linecap="round" stroke-dasharray="2,4"/><path d="M833.107 828.462l.013-296.295" fill="none" stroke="#5f8dd3" stroke-width="2" stroke-linecap="round" stroke-dasharray="3,3"/><path d="M410.374 777.79l231.29-185.192M641.663 777.79l-231.29-185.192M670.408 718.35l-288.779-66.314" fill="none" stroke="#5f8dd3" stroke-width="2" stroke-linecap="round" stroke-dasharray="2,4"/><path d="M871.45 823.416l-76.673-286.202M907.182 808.618L759.046 552.012M937.865 785.076L728.362 575.554M976.211 718.665l-286.195-76.7M981.261 680.322l-296.295-.014M961.417 606.247L704.81 754.383M937.874 575.563L728.353 785.066M961.41 754.394L704.817 606.235M976.215 641.978l-286.203 76.674M907.193 552.019L759.034 808.61M871.463 537.217l-76.7 286.196" fill="none" stroke="#5f8dd3" stroke-width="2" stroke-linecap="round" stroke-dasharray="3,3"/></g></svg>