<svg xmlns:ns0="http://www.iki.fi/pav/software/textext/" xmlns="http://www.w3.org/2000/svg" xmlns:xlink="http://www.w3.org/1999/xlink" width="793.701" height="1122.52" viewBox="0 0 744.09448 1052.3622"><title>Achsensymmetrie</title><defs><marker orient="auto" id="a" overflow="visible"><path d="M8.719 4.034L-2.207.016 8.719-4.002c-1.746 2.372-1.736 5.618 0 8.036z" transform="scale(-.6)" fill-rule="evenodd" stroke-width=".625" stroke-linejoin="round"/></marker></defs><use transform="translate(-690.002 115.427) scale(3.49978)" height="1052.362" width="744.094" xlink:href="#textext-28c1ecfe-0" x="223.432" y="134.765"/><use transform="translate(-200.574 -112.91) scale(3.49978)" height="1052.362" width="744.094" xlink:href="#textext-28c1ecfe-0" x="223.432" y="134.765"/><use transform="translate(-200.574 -112.91) scale(3.49978)" height="1052.362" width="744.094" xlink:href="#textext-28c1ecfe-0" x="223.432" y="134.765"/><use transform="translate(247.109 692.116) scale(3.49978)" height="1052.362" width="744.094" xlink:href="#textext-28c1ecfe-0" x="223.432" y="134.765"/><use transform="translate(736.537 463.779) scale(3.49978)" height="1052.362" width="744.094" xlink:href="#textext-28c1ecfe-0" x="223.432" y="134.765"/><use transform="translate(736.537 463.779) scale(3.49978)" height="1052.362" width="744.094" xlink:href="#textext-28c1ecfe-0" x="223.432" y="134.765"/><path fill="#fff" stroke="#fff" stroke-width="3" stroke-linecap="square" d="M996.333 913.971h625.649v377.797H996.333z"/><path transform="matrix(.96194 -.27325 .24505 .96951 0 0)" fill="#fff" stroke="#fff" stroke-width="3.001" stroke-linecap="square" d="M-82.256 408.562h628.24v399.031h-628.24z"/><path d="M475.658 346.727c-99.118-57.226-225.86-23.265-283.087 75.854-44.419 76.935-33.872 170.498 19.419 235.29l105.033-86.41c-18.318-22.271-21.944-54.435-6.675-80.881 19.672-34.072 63.24-45.746 97.312-26.075 34.072 19.671 45.747 63.24 26.076 97.313-15.27 26.446-44.937 39.388-73.384 34.659l-22.317 134.167c82.756 13.754 169.058-23.893 213.477-100.828 57.227-99.12 23.267-225.861-75.854-283.089z" fill="#ececec" stroke="gray" stroke-width="3" stroke-linejoin="round"/><path d="M224.099 788.031l295.896-523.7" fill="none" stroke="#5f8dd3" stroke-width="2" stroke-linecap="round" stroke-dasharray="2,4"/><g stroke="#000" stroke-width="1.322" fill="none" stroke-linecap="round"><path d="M354.486 586.316l11.732 20.321M366.218 586.316l-11.732 20.321" stroke-width="3.00103254"/></g><g stroke="#000" stroke-width="1.322" fill="none" stroke-linecap="round"><path d="M332.168 720.483l11.733 20.321M343.9 720.483l-11.732 20.321" stroke-width="3.00103254"/></g><g stroke="#000" stroke-width="1.322" fill="none" stroke-linecap="round"><path d="M206.124 647.711l11.732 20.321M217.856 647.711l-11.732 20.321" stroke-width="3.00103254"/></g><g stroke="#000" stroke-width="1.322" fill="none" stroke-linecap="round"><path d="M311.157 561.3l11.733 20.322M322.89 561.3l-11.733 20.322" stroke-width="3.00103254"/></g><path style="marker:none" d="M503.142 401.11a19.193 19.193 0 0 1 13.42 9.022 19.193 19.193 0 0 1 1.763 16.074" transform="matrix(.97865 -2.4025 -2.5255 -.8715 922.702 2289.59)" color="#000" overflow="visible" fill="none" stroke="#000" stroke-width="1.14" stroke-linecap="round" marker-end="url(#a)"/><g ns0:text="$\\alpha$" ns0:preamble="/home/waldgeist/data/sphinx/inkscape-preamble.tex" transform="matrix(3.36301 0 0 3.36301 -393.255 260.422)" stroke="#000" stroke-width="1.003"><defs><symbol overflow="visible" id="b"><path d="M4.75-2.36c0-1.562-.922-2.046-1.656-2.046-1.375 0-2.688 1.422-2.688 2.828C.406-.641 1 .109 2.031.109c.625 0 1.344-.234 2.094-.843.125.53.453.843.906.843.532 0 .844-.546.844-.703 0-.078-.063-.11-.125-.11-.063 0-.094.032-.125.11-.188.485-.547.485-.563.485-.312 0-.312-.782-.312-1.016 0-.203 0-.234.11-.344C5.796-2.656 6-3.812 6-3.812c0-.032-.016-.11-.125-.11-.094 0-.094.031-.14.219-.188.625-.516 1.375-.985 1.969zM4.094-.983c-.89.765-1.657.875-2.047.875-.594 0-.906-.454-.906-1.094 0-.484.265-1.563.578-2.063.468-.734 1.015-.921 1.36-.921.983 0 .983 1.312.983 2.078 0 .375 0 .953.032 1.125z" stroke="none"/></symbol></defs><use height="1052.362" width="744.094" xlink:href="#b" x="223.432" y="134.765"/></g><path transform="matrix(2.06735 -1.56711 1.49544 2.21389 -1460.03 491.506)" d="M503.142 401.11a19.193 19.193 0 0 1 13.42 9.022 19.193 19.193 0 0 1 1.763 16.074" style="marker:none" color="#000" overflow="visible" fill="none" stroke="#000" stroke-width="1.14" stroke-linecap="round" marker-end="url(#a)"/><g ns0:text="$\\alpha \'$" ns0:preamble="/home/waldgeist/data/sphinx/inkscape-preamble.tex" transform="matrix(3.36301 0 0 3.36301 -551.62 172.912)" stroke="#000" stroke-width="1.003"><defs><symbol overflow="visible" id="c"><path d="M4.75-2.36c0-1.562-.922-2.046-1.656-2.046-1.375 0-2.688 1.422-2.688 2.828C.406-.641 1 .109 2.031.109c.625 0 1.344-.234 2.094-.843.125.53.453.843.906.843.532 0 .844-.546.844-.703 0-.078-.063-.11-.125-.11-.063 0-.094.032-.125.11-.188.485-.547.485-.563.485-.312 0-.312-.782-.312-1.016 0-.203 0-.234.11-.344C5.796-2.656 6-3.812 6-3.812c0-.032-.016-.11-.125-.11-.094 0-.094.031-.14.219-.188.625-.516 1.375-.985 1.969zM4.094-.983c-.89.765-1.657.875-2.047.875-.594 0-.906-.454-.906-1.094 0-.484.265-1.563.578-2.063.468-.734 1.015-.921 1.36-.921.983 0 .983 1.312.983 2.078 0 .375 0 .953.032 1.125z" stroke="none"/></symbol><symbol overflow="visible" id="d"><path d="M2.016-3.297c.062-.11.062-.172.062-.219 0-.218-.187-.375-.406-.375-.266 0-.344.22-.375.329L.375-.547a.33.33 0 0 0-.047.11c0 .078.219.156.281.156.047 0 .047-.016.094-.125z" stroke="none"/></symbol></defs><use height="1052.362" width="744.094" xlink:href="#c" x="223.432" y="134.765"/><use height="1052.362" width="744.094" xlink:href="#d" x="229.842" y="131.149"/></g><g transform="matrix(4.58764 0 0 4.56905 -689.29 161.834)" ns0:preamble="/home/waldgeist/data/sphinx/inkscape-preamble.tex" ns0:text="$\\rm{P_1}$"><defs><symbol id="e" overflow="visible"><path d="M2.266-3.156h1.687c1.188 0 2.266-.797 2.266-1.797 0-.984-.985-1.86-2.344-1.86H.344v.313h.25c.765 0 .781.11.781.469v5.25c0 .36-.016.469-.781.469h-.25V0c.36-.031 1.094-.031 1.469-.031s1.125 0 1.484.031v-.313h-.25c-.766 0-.781-.109-.781-.468zm-.032-.25v-2.688c0-.343.016-.406.485-.406h.89c1.579 0 1.579 1.063 1.579 1.547 0 .469 0 1.547-1.579 1.547zm0 0"/></symbol><symbol id="f" overflow="visible"><path d="M2.328-4.438c0-.187 0-.187-.203-.187-.453.438-1.078.438-1.36.438v.25c.157 0 .626 0 1-.188v3.547c0 .234 0 .328-.687.328H.812V0c.125 0 .985-.031 1.235-.031.219 0 1.094.031 1.25.031v-.25H3.03c-.703 0-.703-.094-.703-.328zm0 0"/></symbol></defs><use height="1052.362" width="744.094" y="134.765" x="223.432" xlink:href="#e"/><use height="1052.362" width="744.094" y="136.259" x="230.212" xlink:href="#f"/></g><g ns0:text="$\\rm{P_2}$" ns0:preamble="/home/waldgeist/data/sphinx/inkscape-preamble.tex" transform="matrix(4.58764 0 0 4.56905 -658.97 25.191)"><defs><symbol overflow="visible" id="g"><path d="M2.266-3.156h1.687c1.188 0 2.266-.797 2.266-1.797 0-.984-.985-1.86-2.344-1.86H.344v.313h.25c.765 0 .781.11.781.469v5.25c0 .36-.016.469-.781.469h-.25V0c.36-.031 1.094-.031 1.469-.031s1.125 0 1.484.031v-.313h-.25c-.766 0-.781-.109-.781-.468zm-.032-.25v-2.688c0-.343.016-.406.485-.406h.89c1.579 0 1.579 1.063 1.579 1.547 0 .469 0 1.547-1.579 1.547zm0 0"/></symbol><symbol overflow="visible" id="h"><path d="M3.516-1.266H3.28c-.015.157-.094.563-.187.625-.047.047-.578.047-.688.047H1.125c.734-.64.984-.844 1.39-1.172.516-.406 1-.843 1-1.5 0-.843-.734-1.359-1.624-1.359-.86 0-1.454.61-1.454 1.25 0 .344.297.39.376.39.156 0 .359-.124.359-.374 0-.125-.047-.375-.406-.375.218-.485.687-.641 1.015-.641.703 0 1.063.547 1.063 1.11 0 .609-.438 1.078-.656 1.328L.516-.266C.437-.203.437-.187.437 0h2.876zm0 0"/></symbol></defs><use xlink:href="#g" x="223.432" y="134.765" width="100%" height="100%"/><use xlink:href="#h" x="230.212" y="136.259" width="100%" height="100%"/></g><g transform="matrix(4.58764 0 0 4.56905 -762.348 -19.339)" ns0:preamble="/home/waldgeist/data/sphinx/inkscape-preamble.tex" ns0:text="$\\rm{P_2\'}$"><defs><symbol id="i" overflow="visible"><path d="M2.266-3.156h1.687c1.188 0 2.266-.797 2.266-1.797 0-.984-.985-1.86-2.344-1.86H.344v.313h.25c.765 0 .781.11.781.469v5.25c0 .36-.016.469-.781.469h-.25V0c.36-.031 1.094-.031 1.469-.031s1.125 0 1.484.031v-.313h-.25c-.766 0-.781-.109-.781-.468zm-.032-.25v-2.688c0-.343.016-.406.485-.406h.89c1.579 0 1.579 1.063 1.579 1.547 0 .469 0 1.547-1.579 1.547zm0 0"/></symbol><symbol id="j" overflow="visible"><path d="M2.016-3.297c.062-.11.062-.172.062-.219 0-.218-.187-.375-.406-.375-.266 0-.344.22-.375.329L.375-.547a.33.33 0 0 0-.047.11c0 .078.219.156.281.156.047 0 .047-.016.094-.125zm0 0"/></symbol><symbol id="k" overflow="visible"><path d="M3.516-1.266H3.28c-.015.157-.094.563-.187.625-.047.047-.578.047-.688.047H1.125c.734-.64.984-.844 1.39-1.172.516-.406 1-.843 1-1.5 0-.843-.734-1.359-1.624-1.359-.86 0-1.454.61-1.454 1.25 0 .344.297.39.376.39.156 0 .359-.124.359-.374 0-.125-.047-.375-.406-.375.218-.485.687-.641 1.015-.641.703 0 1.063.547 1.063 1.11 0 .609-.438 1.078-.656 1.328L.516-.266C.437-.203.437-.187.437 0h2.876zm0 0"/></symbol></defs><use y="134.765" x="223.432" xlink:href="#i" width="744.094" height="1052.362"/><use y="131.149" x="230.212" xlink:href="#j" width="744.094" height="1052.362"/><use y="137.237" x="230.212" xlink:href="#k" width="744.094" height="1052.362"/></g><g ns0:text="$\\rm{P_1\'}$" ns0:preamble="/home/waldgeist/data/sphinx/inkscape-preamble.tex" transform="matrix(4.58764 0 0 4.56905 -841.828 91.723)"><defs><symbol overflow="visible" id="l"><path d="M2.266-3.156h1.687c1.188 0 2.266-.797 2.266-1.797 0-.984-.985-1.86-2.344-1.86H.344v.313h.25c.765 0 .781.11.781.469v5.25c0 .36-.016.469-.781.469h-.25V0c.36-.031 1.094-.031 1.469-.031s1.125 0 1.484.031v-.313h-.25c-.766 0-.781-.109-.781-.468zm-.032-.25v-2.688c0-.343.016-.406.485-.406h.89c1.579 0 1.579 1.063 1.579 1.547 0 .469 0 1.547-1.579 1.547zm0 0"/></symbol><symbol overflow="visible" id="m"><path d="M2.016-3.297c.062-.11.062-.172.062-.219 0-.218-.187-.375-.406-.375-.266 0-.344.22-.375.329L.375-.547a.33.33 0 0 0-.047.11c0 .078.219.156.281.156.047 0 .047-.016.094-.125zm0 0"/></symbol><symbol overflow="visible" id="n"><path d="M2.328-4.438c0-.187 0-.187-.203-.187-.453.438-1.078.438-1.36.438v.25c.157 0 .626 0 1-.188v3.547c0 .234 0 .328-.687.328H.812V0c.125 0 .985-.031 1.235-.031.219 0 1.094.031 1.25.031v-.25H3.03c-.703 0-.703-.094-.703-.328zm0 0"/></symbol></defs><use height="1052.362" width="744.094" xlink:href="#l" x="223.432" y="134.765"/><use height="1052.362" width="744.094" xlink:href="#m" x="230.212" y="131.149"/><use height="1052.362" width="744.094" xlink:href="#n" x="230.212" y="137.237"/></g><g transform="matrix(4.58764 0 0 4.56905 -543.836 -327.826)" ns0:preamble="/home/waldgeist/data/sphinx/inkscape-preamble.tex" ns0:text="$s$" fill="#5f8dd3"><defs><symbol id="o" overflow="visible"><path d="M3.89-3.734c-.265.015-.468.234-.468.453 0 .14.094.297.312.297.22 0 .454-.172.454-.563 0-.453-.422-.86-1.188-.86-1.313 0-1.688 1.016-1.688 1.454 0 .781.735.922 1.032.984.515.11 1.031.219 1.031.766 0 .25-.219 1.094-1.422 1.094-.14 0-.906 0-1.14-.532.39.047.64-.25.64-.53 0-.22-.172-.345-.375-.345-.266 0-.562.204-.562.657 0 .562.578.968 1.421.968 1.625 0 2.016-1.203 2.016-1.656a.97.97 0 0 0-.312-.719c-.266-.28-.563-.343-1-.421-.36-.079-.75-.157-.75-.61 0-.281.234-.89 1.109-.89.25 0 .75.078.89.453zm0 0"/></symbol></defs><use y="134.765" x="223.432" xlink:href="#o" width="744.094" height="1052.362"/></g></svg>