<svg xmlns:ns0="http://www.iki.fi/pav/software/textext/" xmlns="http://www.w3.org/2000/svg" xmlns:xlink="http://www.w3.org/1999/xlink" width="1052.362" height="744.094"><title>Punktsymmetrie (mehrfach)</title><defs><marker orient="auto" id="a" overflow="visible"><path d="M8.719 4.034L-2.207.016 8.719-4.002c-1.746 2.372-1.736 5.618 0 8.036z" transform="scale(-.6)" fill-rule="evenodd" stroke-width=".625" stroke-linejoin="round"/></marker></defs><g transform="translate(0 -308.268)"><use transform="translate(-690.002 115.427) scale(3.49978)" height="1052.362" width="744.094" xlink:href="#textext-28c1ecfe-0" x="223.432" y="134.765"/><use transform="translate(-200.574 -112.91) scale(3.49978)" height="1052.362" width="744.094" xlink:href="#textext-28c1ecfe-0" x="223.432" y="134.765"/><use transform="translate(-200.574 -112.91) scale(3.49978)" height="1052.362" width="744.094" xlink:href="#textext-28c1ecfe-0" x="223.432" y="134.765"/><use transform="translate(247.109 692.116) scale(3.49978)" height="1052.362" width="744.094" xlink:href="#textext-28c1ecfe-0" x="223.432" y="134.765"/><use transform="translate(736.537 463.779) scale(3.49978)" height="1052.362" width="744.094" xlink:href="#textext-28c1ecfe-0" x="223.432" y="134.765"/><use transform="translate(736.537 463.779) scale(3.49978)" height="1052.362" width="744.094" xlink:href="#textext-28c1ecfe-0" x="223.432" y="134.765"/><path fill="#fff" stroke="#fff" stroke-width="3" stroke-linecap="square" d="M23.092 489.416h1006.179v377.797H23.092z"/><path style="marker:none" d="M593.046 773.137l-66.842-35.12-66.825 35.153 12.746-74.424-54.083-52.691 74.72-10.877 33.4-67.718 33.433 67.702L634.32 646l-54.056 52.718z" color="#000" fill="#ececec" stroke="#4d4d4d" stroke-width="3.0000584199999993" stroke-linecap="round" stroke-linejoin="round" overflow="visible"/><path d="M942.245 681.87c0 60.272-48.86 109.131-109.131 109.131-60.272 0-109.131-48.86-109.131-109.13 0-60.272 48.86-109.131 109.13-109.131 60.272 0 109.132 48.86 109.132 109.13z" style="marker:none" color="#000" fill="#ececec" stroke="#4d4d4d" stroke-width="3.0000274499999997" stroke-linecap="round" stroke-linejoin="round" overflow="visible"/><path d="M332.49 747.18l-113.242-.12-113.24-.118 56.723-98.01 56.723-98.011 56.518 98.129z" style="marker:none" color="#000" fill="#ececec" stroke="#4d4d4d" stroke-width="3.0002424000000003" stroke-linecap="round" stroke-linejoin="round" overflow="visible"/><path style="marker:none" d="M264.813 273.12c49.077 0 88.863 39.785 88.863 88.862" transform="matrix(-1.41521 .3792 .37863 1.41307 457.025 67.686)" color="#000" fill="none" stroke="#5f8dd3" stroke-width="2.049" stroke-linecap="round" stroke-linejoin="round" marker-end="url(#a)" overflow="visible"/><path transform="matrix(1.036 1.036 1.03444 -1.03444 -429.48 779.712)" d="M264.813 273.12c49.077 0 88.863 39.785 88.863 88.862" style="marker:none" color="#000" fill="none" stroke="#5f8dd3" stroke-width="2.049" stroke-linecap="round" stroke-linejoin="round" marker-end="url(#a)" overflow="visible"/><path style="marker:none" d="M264.813 273.12c49.077 0 88.863 39.785 88.863 88.862" transform="matrix(.3792 -1.41521 -1.41307 -.37863 630.405 1191.435)" color="#000" fill="none" stroke="#5f8dd3" stroke-width="2.049" stroke-linecap="round" stroke-linejoin="round" marker-end="url(#a)" overflow="visible"/><g ns0:text="$120^{\\circ}$" ns0:preamble="/home/waldgeist/data/sphinx/inkscape-preamble.tex" transform="matrix(2.96021 0 0 2.94821 -555.223 252.495)"><defs><symbol overflow="visible" id="b"><path d="M2.938-6.375c0-.25 0-.266-.235-.266C2.078-6 1.203-6 .891-6v.313c.203 0 .78 0 1.296-.266v5.172c0 .36-.03.469-.921.469H.953V0c.344-.031 1.203-.031 1.61-.031.39 0 1.265 0 1.609.031v-.313h-.313c-.906 0-.921-.109-.921-.468z"/></symbol><symbol overflow="visible" id="c"><path d="M1.266-.766l1.062-1.03c1.547-1.376 2.14-1.907 2.14-2.907 0-1.14-.89-1.938-2.109-1.938C1.234-6.64.5-5.719.5-4.828c0 .547.5.547.531.547.172 0 .516-.11.516-.532a.513.513 0 0 0-.531-.515c-.079 0-.094 0-.125.016.218-.657.765-1.016 1.343-1.016.907 0 1.329.812 1.329 1.625 0 .797-.485 1.578-1.047 2.203L.609-.375C.5-.265.5-.235.5 0h3.703l.266-1.734h-.235C4.172-1.438 4.11-1 4-.844c-.063.078-.719.078-.938.078z"/></symbol><symbol overflow="visible" id="d"><path d="M4.578-3.188c0-.796-.047-1.593-.39-2.328C3.733-6.484 2.905-6.64 2.5-6.64c-.61 0-1.328.266-1.75 1.188-.313.687-.36 1.469-.36 2.266 0 .75.032 1.64.454 2.406a1.83 1.83 0 0 0 1.64 1c.532 0 1.297-.203 1.735-1.157.312-.687.36-1.468.36-2.25zM2.484 0c-.39 0-.984-.25-1.156-1.203-.11-.594-.11-1.516-.11-2.11 0-.64 0-1.296.079-1.828.187-1.187.937-1.28 1.187-1.28.329 0 .985.187 1.172 1.171.11.563.11 1.313.11 1.938 0 .75 0 1.421-.11 2.062C3.5-.297 2.937 0 2.484 0z"/></symbol><symbol overflow="visible" id="e"><path d="M3.531-1.734c0-.844-.672-1.5-1.5-1.5s-1.5.671-1.5 1.484a1.5 1.5 0 0 0 1.5 1.5c.844 0 1.5-.672 1.5-1.484zm-1.5 1.14A1.157 1.157 0 1 1 3.187-1.75c0 .656-.515 1.156-1.156 1.156z"/></symbol></defs><use height="744.094" width="1052.362" xlink:href="#b" x="223.432" y="134.765"/><use height="744.094" width="1052.362" xlink:href="#c" x="228.413" y="134.765"/><use height="744.094" width="1052.362" xlink:href="#d" x="233.395" y="134.765"/><g><use height="744.094" width="1052.362" xlink:href="#e" x="238.376" y="131.149"/></g></g><g ns0:preamble="/home/waldgeist/data/sphinx/inkscape-preamble.tex" ns0:text="$120^{\\circ}$"><g transform="matrix(2.96021 0 0 2.94821 -381.265 252.495)"><use y="134.765" x="223.432" xlink:href="#b" width="1052.362" height="744.094"/><use y="134.765" x="228.413" xlink:href="#c" width="1052.362" height="744.094"/><use y="134.765" x="233.395" xlink:href="#d" width="1052.362" height="744.094"/></g><use y="131.149" x="238.376" xlink:href="#e" width="1052.362" height="744.094" transform="matrix(2.96021 0 0 2.94821 -381.265 252.495)"/></g><g ns0:text="$120^{\\circ}$" ns0:preamble="/home/waldgeist/data/sphinx/inkscape-preamble.tex"><g transform="matrix(2.96021 0 0 2.94821 -464.82 387.79)"><use height="744.094" width="1052.362" xlink:href="#b" x="223.432" y="134.765"/><use height="744.094" width="1052.362" xlink:href="#c" x="228.413" y="134.765"/><use height="744.094" width="1052.362" xlink:href="#d" x="233.395" y="134.765"/></g><use height="744.094" width="1052.362" xlink:href="#e" x="238.376" y="131.149" transform="matrix(2.96021 0 0 2.94821 -464.82 387.79)"/></g><path transform="matrix(-1.27465 -.72242 -.72133 1.27272 1121.505 411.313)" d="M321.933 293.91a88.863 88.863 0 0 1 31.743 68.072" style="marker:none" color="#000" fill="none" stroke="#5f8dd3" stroke-width="2.049" stroke-linecap="round" stroke-linejoin="round" marker-end="url(#a)" overflow="visible"/><path style="marker:none" d="M321.933 293.91a88.863 88.863 0 0 1 31.743 68.072" transform="matrix(-1.08095 .98902 .98753 1.07931 451.636 28.11)" color="#000" fill="none" stroke="#5f8dd3" stroke-width="2.049" stroke-linecap="round" stroke-linejoin="round" marker-end="url(#a)" overflow="visible"/><path transform="matrix(.60659 1.33367 1.33165 -.60567 -119.812 546.777)" d="M321.933 293.91a88.863 88.863 0 0 1 31.743 68.072" style="marker:none" color="#000" fill="none" stroke="#5f8dd3" stroke-width="2.049" stroke-linecap="round" stroke-linejoin="round" marker-end="url(#a)" overflow="visible"/><path style="marker:none" d="M321.933 293.91a88.863 88.863 0 0 1 31.743 68.072" transform="matrix(1.45584 -.16477 -.16452 -1.45364 200.204 1249.627)" color="#000" fill="none" stroke="#5f8dd3" stroke-width="2.049" stroke-linecap="round" stroke-linejoin="round" marker-end="url(#a)" overflow="visible"/><path transform="matrix(.29317 -1.4355 -1.43333 -.29273 967.38 1165.906)" d="M321.933 293.91a88.863 88.863 0 0 1 31.743 68.072" style="marker:none" color="#000" fill="none" stroke="#5f8dd3" stroke-width="2.049" stroke-linecap="round" stroke-linejoin="round" marker-end="url(#a)" overflow="visible"/><g ns0:text="$72^{\\circ}$" ns0:preamble="/home/waldgeist/data/sphinx/inkscape-preamble.tex"><g transform="matrix(2.96021 0 0 2.94821 -244.858 323.735)"><use height="744.094" width="1052.362" xlink:href="#f" x="223.432" y="134.765"/><use height="744.094" width="1052.362" xlink:href="#g" x="228.413" y="134.765"/></g><use height="744.094" width="1052.362" xlink:href="#h" x="233.395" y="131.149" transform="matrix(2.96021 0 0 2.94821 -244.858 323.735)"/></g><g ns0:preamble="/home/waldgeist/data/sphinx/inkscape-preamble.tex" ns0:text="$72^{\\circ}$"><g transform="matrix(2.96021 0 0 2.94821 -150.515 392.605)"><use y="134.765" x="223.432" xlink:href="#f" width="1052.362" height="744.094"/><use y="134.765" x="228.413" xlink:href="#g" width="1052.362" height="744.094"/></g><use y="131.149" x="233.395" xlink:href="#h" width="1052.362" height="744.094" transform="matrix(2.96021 0 0 2.94821 -150.515 392.605)"/></g><g ns0:text="$72^{\\circ}$" ns0:preamble="/home/waldgeist/data/sphinx/inkscape-preamble.tex"><g transform="matrix(2.96021 0 0 2.94821 -59.317 322.479)"><use height="744.094" width="1052.362" xlink:href="#f" x="223.432" y="134.765"/><use height="744.094" width="1052.362" xlink:href="#g" x="228.413" y="134.765"/></g><use height="744.094" width="1052.362" xlink:href="#h" x="233.395" y="131.149" transform="matrix(2.96021 0 0 2.94821 -59.317 322.479)"/></g><g transform="matrix(2.96021 0 0 2.94821 -209.124 215.024)" ns0:preamble="/home/waldgeist/data/sphinx/inkscape-preamble.tex" ns0:text="$72^{\\circ}$"><defs><symbol id="f" overflow="visible"><path d="M4.75-6.078c.078-.11.078-.125.078-.344H2.406c-1.203 0-1.234-.125-1.265-.312H.89L.562-4.688h.25c.032-.156.11-.78.25-.906.063-.062.844-.062.97-.062h2.062c-.11.156-.89 1.25-1.11 1.578C2.078-2.734 1.75-1.344 1.75-.328c0 .094 0 .547.469.547.453 0 .453-.453.453-.547v-.516c0-.547.031-1.094.11-1.625.046-.234.171-1.094.624-1.703z"/></symbol><symbol id="g" overflow="visible"><path d="M1.266-.766l1.062-1.03c1.547-1.376 2.14-1.907 2.14-2.907 0-1.14-.89-1.938-2.109-1.938C1.234-6.64.5-5.719.5-4.828c0 .547.5.547.531.547.172 0 .516-.11.516-.532a.513.513 0 0 0-.531-.515c-.079 0-.094 0-.125.016.218-.657.765-1.016 1.343-1.016.907 0 1.329.812 1.329 1.625 0 .797-.485 1.578-1.047 2.203L.609-.375C.5-.265.5-.235.5 0h3.703l.266-1.734h-.235C4.172-1.438 4.11-1 4-.844c-.063.078-.719.078-.938.078z"/></symbol><symbol id="h" overflow="visible"><path d="M3.531-1.734c0-.844-.672-1.5-1.5-1.5s-1.5.671-1.5 1.484a1.5 1.5 0 0 0 1.5 1.5c.844 0 1.5-.672 1.5-1.484zm-1.5 1.14A1.157 1.157 0 1 1 3.187-1.75c0 .656-.515 1.156-1.156 1.156z"/></symbol></defs><use y="134.765" x="223.432" xlink:href="#f" width="1052.362" height="744.094"/><use y="134.765" x="228.413" xlink:href="#g" width="1052.362" height="744.094"/><g><use y="131.149" x="233.395" xlink:href="#h" width="1052.362" height="744.094"/></g></g><g ns0:preamble="/home/waldgeist/data/sphinx/inkscape-preamble.tex" ns0:text="$72^{\\circ}$"><g transform="matrix(2.96021 0 0 2.94821 -94.193 215.024)"><use y="134.765" x="223.432" xlink:href="#f" width="1052.362" height="744.094"/><use y="134.765" x="228.413" xlink:href="#g" width="1052.362" height="744.094"/></g><use y="131.149" x="233.395" xlink:href="#h" width="1052.362" height="744.094" transform="matrix(2.96021 0 0 2.94821 -94.193 215.024)"/></g><path style="marker:none" d="M348.317 331.59a88.863 88.863 0 0 1 5.359 30.392" transform="matrix(-1.31528 -.6455 -.64452 1.31329 1414.72 377.419)" color="#000" fill="none" stroke="#5f8dd3" stroke-width="2.049" stroke-linecap="round" stroke-linejoin="round" marker-end="url(#a)" overflow="visible"/><path transform="matrix(-.81632 -1.21666 -1.21481 .81508 1489.026 709.011)" d="M348.317 331.59a88.863 88.863 0 0 1 5.359 30.392" style="marker:none" color="#000" fill="none" stroke="#5f8dd3" stroke-width="2.049" stroke-linecap="round" stroke-linejoin="round" marker-end="url(#a)" overflow="visible"/><path style="marker:none" d="M348.317 331.59a88.863 88.863 0 0 1 5.359 30.392" transform="matrix(-.09862 -1.46181 -1.4596 .09847 1387.58 1031.775)" color="#000" fill="none" stroke="#5f8dd3" stroke-width="2.049" stroke-linecap="round" stroke-linejoin="round" marker-end="url(#a)" overflow="visible"/><path transform="matrix(-1.46181 .09862 .09847 1.4596 1184.574 127.404)" d="M348.317 331.59a88.863 88.863 0 0 1 5.359 30.392" style="marker:none" color="#000" fill="none" stroke="#5f8dd3" stroke-width="2.049" stroke-linecap="round" stroke-linejoin="round" marker-end="url(#a)" overflow="visible"/><path transform="matrix(.6455 -1.31528 -1.31329 -.64452 1137.565 1261.922)" d="M348.317 331.59a88.863 88.863 0 0 1 5.359 30.392" style="marker:none" color="#000" fill="none" stroke="#5f8dd3" stroke-width="2.049" stroke-linecap="round" stroke-linejoin="round" marker-end="url(#a)" overflow="visible"/><path style="marker:none" d="M348.317 331.59a88.863 88.863 0 0 1 5.359 30.392" transform="matrix(1.21666 -.81632 -.81508 -1.21481 805.973 1336.227)" color="#000" fill="none" stroke="#5f8dd3" stroke-width="2.049" stroke-linecap="round" stroke-linejoin="round" marker-end="url(#a)" overflow="visible"/><path style="marker:none" d="M348.317 331.59a88.863 88.863 0 0 1 5.359 30.392" transform="matrix(-1.21666 .81632 .81508 1.21481 860.254 25.958)" color="#000" fill="none" stroke="#5f8dd3" stroke-width="2.049" stroke-linecap="round" stroke-linejoin="round" marker-end="url(#a)" overflow="visible"/><path transform="matrix(1.46181 -.09862 -.09847 -1.4596 481.653 1234.781)" d="M348.317 331.59a88.863 88.863 0 0 1 5.359 30.392" style="marker:none" color="#000" fill="none" stroke="#5f8dd3" stroke-width="2.049" stroke-linecap="round" stroke-linejoin="round" marker-end="url(#a)" overflow="visible"/><path style="marker:none" d="M348.317 331.59a88.863 88.863 0 0 1 5.359 30.392" transform="matrix(1.31528 .6455 .64452 -1.31329 251.507 984.767)" color="#000" fill="none" stroke="#5f8dd3" stroke-width="2.049" stroke-linecap="round" stroke-linejoin="round" marker-end="url(#a)" overflow="visible"/><path transform="matrix(.81632 1.21666 1.21481 -.81508 177.202 653.174)" d="M348.317 331.59a88.863 88.863 0 0 1 5.359 30.392" style="marker:none" color="#000" fill="none" stroke="#5f8dd3" stroke-width="2.049" stroke-linecap="round" stroke-linejoin="round" marker-end="url(#a)" overflow="visible"/><path style="marker:none" d="M348.317 331.59a88.863 88.863 0 0 1 5.359 30.392" transform="matrix(.09862 1.46181 1.4596 -.09847 278.647 328.854)" color="#000" fill="none" stroke="#5f8dd3" stroke-width="2.049" stroke-linecap="round" stroke-linejoin="round" marker-end="url(#a)" overflow="visible"/><path transform="matrix(-.6455 1.31528 1.31329 .64452 528.662 98.708)" d="M348.317 331.59a88.863 88.863 0 0 1 5.359 30.392" style="marker:none" color="#000" fill="none" stroke="#5f8dd3" stroke-width="2.049" stroke-linecap="round" stroke-linejoin="round" marker-end="url(#a)" overflow="visible"/><path style="marker:none" d="M566.408 516.801a159.355 152.863 0 1 1-318.71 0 159.355 152.863 0 1 1 318.71 0z" transform="matrix(.03773 0 0 .03764 817.754 662.418)" color="#000" fill="#5f8dd3" stroke="#5f8dd3" stroke-width="79.603" stroke-linecap="round" stroke-linejoin="round" overflow="visible"/><path transform="matrix(.03773 0 0 .03764 510.821 658.862)" d="M566.408 516.801a159.355 152.863 0 1 1-318.71 0 159.355 152.863 0 1 1 318.71 0z" style="marker:none" color="#000" fill="#5f8dd3" stroke="#5f8dd3" stroke-width="79.603" stroke-linecap="round" stroke-linejoin="round" overflow="visible"/><path style="marker:none" d="M566.408 516.801a159.355 152.863 0 1 1-318.71 0 159.355 152.863 0 1 1 318.71 0z" transform="matrix(.03773 0 0 .03764 203.957 662.228)" color="#000" fill="#5f8dd3" stroke="#5f8dd3" stroke-width="79.603" stroke-linecap="round" stroke-linejoin="round" overflow="visible"/></g></svg>