<svg xmlns:ns0="http://www.iki.fi/pav/software/textext/" xmlns="http://www.w3.org/2000/svg" xmlns:xlink="http://www.w3.org/1999/xlink" width="793.701" height="1122.52" viewBox="0 0 744.09448 1052.3622"><title>Thaleskreis</title><use y="134.765" x="223.432" xlink:href="#textext-28c1ecfe-0" width="744.094" height="1052.362" transform="translate(-690.002 115.427) scale(3.49978)"/><use y="134.765" x="223.432" xlink:href="#textext-28c1ecfe-0" width="744.094" height="1052.362" transform="translate(-200.574 -112.91) scale(3.49978)"/><use y="134.765" x="223.432" xlink:href="#textext-28c1ecfe-0" width="744.094" height="1052.362" transform="translate(-200.574 -112.91) scale(3.49978)"/><use y="134.765" x="223.432" xlink:href="#textext-28c1ecfe-0" width="744.094" height="1052.362" transform="translate(247.109 692.116) scale(3.49978)"/><use y="134.765" x="223.432" xlink:href="#textext-28c1ecfe-0" width="744.094" height="1052.362" transform="translate(736.537 463.779) scale(3.49978)"/><use y="134.765" x="223.432" xlink:href="#textext-28c1ecfe-0" width="744.094" height="1052.362" transform="translate(736.537 463.779) scale(3.49978)"/><path fill="#fff" stroke="#fff" stroke-width="3" stroke-linecap="square" d="M59.223 410.431h625.649v231.501H59.223z"/><path d="M209.447 587.873a162.6 162.6 0 0 1 81.258-140.849 162.6 162.6 0 0 1 162.608-.044 162.6 162.6 0 0 1 81.334 140.805l-162.6.03z" fill="#f9f9f9" stroke="gray" stroke-width="3" stroke-linecap="round"/><path style="isolation:auto;mix-blend-mode:normal" d="M209.447 587.815h325.2z" color="#000" overflow="visible" fill="#ececec" fill-rule="evenodd" stroke="#999" stroke-width="2.813" stroke-linecap="round" stroke-linejoin="round"/><path d="M534.647 587.785L304.093 440.096M209.447 587.815l94.646-147.719" style="isolation:auto;mix-blend-mode:normal" color="#000" overflow="visible" fill="none" stroke="#333" stroke-width="2.813" stroke-linecap="round" stroke-linejoin="round"/><path d="M-328.664-587.849a42.183 41.926 0 0 1-21.091 36.31 42.183 41.926 0 0 1-42.183 0 42.183 41.926 0 0 1-21.092-36.31" transform="rotate(180) skewX(.112)" opacity=".5" fill="#fff" stroke="#000" stroke-width="1.5" stroke-linecap="round"/><g ns0:text="$180^{\\circ}$" ns0:preamble="/home/waldgeist/data/homepage/inkscape-preamble.tex" transform="matrix(2.904 0 0 2.89224 3.297 339.336)" fill="#666" stroke="#666" stroke-width="1.58"><defs><symbol overflow="visible" id="a"><path d="M2.938-6.375c0-.25 0-.266-.235-.266C2.078-6 1.203-6 .891-6v.313c.203 0 .78 0 1.296-.266v5.172c0 .36-.03.469-.921.469H.953V0c.344-.031 1.203-.031 1.61-.031.39 0 1.265 0 1.609.031v-.313h-.313c-.906 0-.921-.109-.921-.468zm0 0" stroke="none"/></symbol><symbol overflow="visible" id="b"><path d="M1.625-4.563c-.453-.296-.5-.625-.5-.796 0-.61.656-1.032 1.36-1.032.718 0 1.359.516 1.359 1.235 0 .578-.39 1.047-.985 1.39zm1.453.954c.719-.375 1.203-.891 1.203-1.547 0-.922-.875-1.485-1.781-1.485-1 0-1.813.735-1.813 1.672 0 .172.016.625.438 1.094.11.11.484.36.734.531C1.281-3.047.422-2.5.422-1.5.422-.453 1.438.219 2.484.219c1.125 0 2.079-.828 2.079-1.89 0-.36-.11-.813-.5-1.235-.188-.203-.344-.297-.985-.703zm-1 .421l1.235.782c.28.187.75.484.75 1.094 0 .734-.75 1.25-1.563 1.25C1.64-.063.922-.672.922-1.5c0-.578.312-1.219 1.156-1.688zm0 0" stroke="none"/></symbol><symbol overflow="visible" id="c"><path d="M4.578-3.188c0-.796-.047-1.593-.39-2.328C3.733-6.484 2.905-6.64 2.5-6.64c-.61 0-1.328.266-1.75 1.188-.313.687-.36 1.469-.36 2.266 0 .75.032 1.64.454 2.406a1.83 1.83 0 0 0 1.64 1c.532 0 1.297-.203 1.735-1.157.312-.687.36-1.468.36-2.25zM2.484 0c-.39 0-.984-.25-1.156-1.203-.11-.594-.11-1.516-.11-2.11 0-.64 0-1.296.079-1.828.187-1.187.937-1.28 1.187-1.28.329 0 .985.187 1.172 1.171.11.563.11 1.313.11 1.938 0 .75 0 1.421-.11 2.062C3.5-.297 2.937 0 2.484 0zm0 0" stroke="none"/></symbol><symbol overflow="visible" id="d"><path d="M3.531-1.734c0-.844-.672-1.5-1.5-1.5s-1.5.671-1.5 1.484a1.5 1.5 0 0 0 1.5 1.5c.844 0 1.5-.672 1.5-1.484zm-1.5 1.14A1.157 1.157 0 1 1 3.187-1.75c0 .656-.515 1.156-1.156 1.156zm0 0" stroke="none"/></symbol></defs><use height="100%" width="100%" xlink:href="#a" x="118.801" y="83.403"/><use height="100%" width="100%" xlink:href="#b" x="123.782" y="83.403"/><use height="100%" width="100%" xlink:href="#c" x="128.764" y="83.403"/><g><use height="100%" width="100%" xlink:href="#d" x="133.745" y="79.788"/></g></g><path style="isolation:auto;mix-blend-mode:normal" d="M534.647 587.785L407.64 429.159" color="#000" overflow="visible" fill="none" stroke="#333" stroke-width="2.813" stroke-linecap="round" stroke-linejoin="round"/><path d="M209.447 587.815L407.642 429.16M209.447 587.815l296.721-91.924" style="isolation:auto;mix-blend-mode:normal" color="#000" overflow="visible" fill="none" stroke="#333" stroke-width="2.812" stroke-linecap="round" stroke-linejoin="round"/><path d="M534.647 587.785l-28.48-91.896" style="isolation:auto;mix-blend-mode:normal" color="#000" overflow="visible" fill="none" stroke="#333" stroke-width="2.813" stroke-linecap="round" stroke-linejoin="round"/><path transform="rotate(32.593) skewX(-.118)" d="M545.118 206.978a51.412 51.378 0 0 1-51.412 51.378v-51.378z" opacity=".8" fill="#fff" stroke="#000" stroke-width="1.5" stroke-linecap="round"/><g ns0:text="$90^{\\circ}$" ns0:preamble="/home/waldgeist/data/homepage/inkscape-preamble.tex" transform="matrix(2.904 0 0 2.89224 -49.661 239.722)" fill="#666" stroke="#666" stroke-width="1.58"><defs><symbol overflow="visible" id="e"><path d="M3.656-3.172v.328c0 2.328-1.031 2.781-1.61 2.781-.171 0-.718-.015-.983-.359.437 0 .515-.281.515-.453 0-.313-.234-.453-.453-.453-.156 0-.453.078-.453.469 0 .671.531 1.078 1.375 1.078 1.297 0 2.515-1.36 2.515-3.5 0-2.688-1.156-3.36-2.046-3.36-.547 0-1.032.188-1.454.625-.421.454-.64.875-.64 1.625 0 1.235.875 2.22 1.984 2.22.61 0 1.016-.423 1.25-1zm-1.234.766c-.156 0-.625 0-.922-.625-.188-.375-.188-.86-.188-1.36 0-.53 0-1 .22-1.375.265-.5.64-.625.984-.625.468 0 .796.344.968.782.11.328.157.953.157 1.406 0 .828-.344 1.797-1.22 1.797zm0 0" stroke="none"/></symbol><symbol overflow="visible" id="f"><path d="M4.578-3.188c0-.796-.047-1.593-.39-2.328C3.733-6.484 2.905-6.64 2.5-6.64c-.61 0-1.328.266-1.75 1.188-.313.687-.36 1.469-.36 2.266 0 .75.032 1.64.454 2.406a1.83 1.83 0 0 0 1.64 1c.532 0 1.297-.203 1.735-1.157.312-.687.36-1.468.36-2.25zM2.484 0c-.39 0-.984-.25-1.156-1.203-.11-.594-.11-1.516-.11-2.11 0-.64 0-1.296.079-1.828.187-1.187.937-1.28 1.187-1.28.329 0 .985.187 1.172 1.171.11.563.11 1.313.11 1.938 0 .75 0 1.421-.11 2.062C3.5-.297 2.937 0 2.484 0zm0 0" stroke="none"/></symbol><symbol overflow="visible" id="g"><path d="M3.531-1.734c0-.844-.672-1.5-1.5-1.5s-1.5.671-1.5 1.484a1.5 1.5 0 0 0 1.5 1.5c.844 0 1.5-.672 1.5-1.484zm-1.5 1.14A1.157 1.157 0 1 1 3.187-1.75c0 .656-.515 1.156-1.156 1.156zm0 0" stroke="none"/></symbol></defs><g fill="#000"><use height="100%" width="100%" xlink:href="#e" x="118.801" y="83.403"/><use height="100%" width="100%" xlink:href="#f" x="123.782" y="83.403"/><g><use height="100%" width="100%" xlink:href="#g" x="128.764" y="79.788"/></g></g></g><path d="M641.198-48.828A51.412 51.378 0 0 1 589.786 2.55v-51.378z" transform="rotate(51.205) skewX(-.118)" opacity=".8" fill="#fff" stroke="#000" stroke-width="1.5" stroke-linecap="round"/><path transform="rotate(72.67) skewX(-.118)" d="M674.88-335.472a51.412 51.378 0 0 1-51.412 51.378v-51.378z" opacity=".8" fill="#fff" stroke="#000" stroke-width="1.5" stroke-linecap="round"/><g fill="#000" ns0:preamble="/home/waldgeist/data/homepage/inkscape-preamble.tex" ns0:text="$90^{\\circ}$" stroke="#666" stroke-width="1.58"><g transform="matrix(2.904 0 0 2.89224 42.433 231.203)"><use y="83.403" x="118.801" xlink:href="#e" width="100%" height="100%"/><use y="83.403" x="123.782" xlink:href="#f" width="100%" height="100%"/></g><use y="79.788" x="128.764" xlink:href="#g" width="100%" height="100%" transform="matrix(2.904 0 0 2.89224 42.433 231.203)"/></g><g fill="#000" ns0:text="$90^{\\circ}$" ns0:preamble="/home/waldgeist/data/homepage/inkscape-preamble.tex" stroke="#666" stroke-width="1.58"><g transform="matrix(2.904 0 0 2.89224 128.266 293.256)"><use height="100%" width="100%" xlink:href="#e" x="118.801" y="83.403"/><use height="100%" width="100%" xlink:href="#f" x="123.782" y="83.403"/></g><use height="100%" width="100%" xlink:href="#g" x="128.764" y="79.788" transform="matrix(2.904 0 0 2.89224 128.266 293.256)"/></g><g transform="matrix(4.58764 0 0 4.56905 -187.507 247.074)" ns0:preamble="/home/waldgeist/data/homepage/inkscape-preamble.tex" ns0:text="$d$" fill="#999"><defs><symbol id="h" overflow="visible"><path d="M5.14-6.813s0-.109-.124-.109c-.157 0-1.094.094-1.266.11-.078.015-.14.062-.14.187s.093.125.234.125c.484 0 .5.063.5.172l-.032.203-.593 2.36c-.188-.376-.469-.641-.922-.641-1.156 0-2.39 1.468-2.39 2.922C.406-.547.952.109 1.718.109c.203 0 .703-.046 1.297-.75a.91.91 0 0 0 .906.75c.36 0 .578-.234.75-.546a6.49 6.49 0 0 0 .297-.985c0-.11-.094-.11-.125-.11-.094 0-.11.048-.14.188-.173.64-.345 1.235-.75 1.235-.282 0-.298-.266-.298-.454 0-.25.016-.312.047-.484zM3.079-1.188c-.062.188-.062.204-.203.375-.438.547-.844.704-1.125.704-.5 0-.64-.547-.64-.938 0-.5.312-1.719.546-2.187.313-.579.75-.954 1.157-.954.64 0 .78.813.78.875a.562.562 0 0 1-.03.172zm0 0"/></symbol></defs><use y="83.403" x="118.801" xlink:href="#h" width="100%" height="100%"/></g></svg>