<svg xmlns:ns0="http://www.iki.fi/pav/software/textext/" xmlns="http://www.w3.org/2000/svg" xmlns:xlink="http://www.w3.org/1999/xlink" height="297mm" width="210mm" viewBox="0 0 744.09449 1052.3622"><title>Skalarprodukt</title><defs><marker id="c" orient="auto" overflow="visible"><path d="M-5.231-2.42L1.324-.01-5.23 2.401c1.047-1.423 1.041-3.37 0-4.821z" fill-rule="evenodd" stroke-width=".375" stroke-linejoin="round" stroke="navy" fill="#00f"/></marker><marker id="b" orient="auto" overflow="visible"><path d="M-5.231-2.42L1.324-.01-5.23 2.401c1.047-1.423 1.041-3.37 0-4.821z" fill-rule="evenodd" stroke-width=".375" stroke-linejoin="round" stroke="navy" fill="navy"/></marker><marker id="a" orient="auto" overflow="visible"><path d="M-5.231-2.42L1.324-.01-5.23 2.401c1.047-1.423 1.041-3.37 0-4.821z" fill-rule="evenodd" stroke-width=".375" stroke-linejoin="round" stroke="navy" fill="navy"/></marker></defs><rect ry="2.829" y="396.361" x="43.122" height="259.64" width="657.851" style="marker:none" color="#000" overflow="visible" fill="#fff" stroke="#fff" stroke-width="2.396" stroke-linecap="round" stroke-linejoin="bevel"/><path style="marker:none" d="M438.325 457.504a26.638 26.638 0 0 1-32.625-18.836" color="#000" overflow="visible" fill="#fff" stroke="#b3b3b3" stroke-width="3" stroke-linecap="round"/><path d="M101.2 632.488l269.687-74.816" stroke-width="4.029" stroke-linecap="round" stroke-dasharray="4.02904378,8.05808757" transform="matrix(0 .74137 -.74783 0 904.432 357.333)" fill="#00f" stroke="#06f"/><circle style="marker:none" transform="rotate(-165)" cx="-524.87" cy="-320.638" r="1.717" color="#000" overflow="visible" fill="gray" stroke="#b3b3b3" stroke-linecap="round"/><g stroke="navy"><path d="M227.367 476.214l5.949 22.203" fill="gray" stroke-width="3" stroke-linecap="round"/><path d="M101.2 632.488l269.687-74.816" fill="navy" stroke-width="3.001" marker-end="url(#a)" transform="translate(129.14 -145.172)"/></g><path d="M199.878 511.595a69.972 66.57 0 0 1-16.167 47.86" transform="matrix(.98564 -.16885 .18718 .98233 0 0)" fill="none" stroke="navy" stroke-width="2" stroke-linecap="round"/><path d="M229.993 486.7l257.395 145.598" fill="none" stroke="navy" stroke-width="3" marker-end="url(#b)"/><path d="M236.088 477.362l-11.493 19.906" fill="gray" stroke="navy" stroke-width="3" stroke-linecap="round"/><path d="M101.2 632.488l263.51-73.984" fill="#00f" marker-end="url(#c)" transform="matrix(.7608 0 0 .75172 153.845 11.725)" stroke="navy" stroke-width="3.967" stroke-linecap="round"/><path d="M131.051 673.735l251.068-70.591" fill="none" stroke-dasharray="8.22359514,8.22359514" transform="matrix(.73452 0 0 .72473 138.432 -2.166)" stroke="#06f" stroke-width="5.482" stroke-linecap="round"/><g ns0:text="$\\alpha$" ns0:preamble="/home/waldgeist/data/homepage/inkscape-preamble.tex" transform="matrix(3.37375 0 0 3.37375 -136.463 217.764)" fill="navy" stroke="#000"><defs><symbol overflow="visible" id="d"><path d="M4.75-2.36c0-1.562-.922-2.046-1.656-2.046-1.375 0-2.688 1.422-2.688 2.828C.406-.641 1 .109 2.031.109c.625 0 1.344-.234 2.094-.843.125.53.453.843.906.843.532 0 .844-.546.844-.703 0-.078-.063-.11-.125-.11-.063 0-.094.032-.125.11-.188.485-.547.485-.563.485-.312 0-.312-.782-.312-1.016 0-.203 0-.234.11-.344C5.796-2.656 6-3.812 6-3.812c0-.032-.016-.11-.125-.11-.094 0-.094.031-.14.219-.188.625-.516 1.375-.985 1.969zM4.094-.983c-.89.765-1.657.875-2.047.875-.594 0-.906-.454-.906-1.094 0-.484.265-1.563.578-2.063.468-.734 1.015-.921 1.36-.921.983 0 .983 1.312.983 2.078 0 .375 0 .953.032 1.125zm0 0" stroke="none"/></symbol></defs><use height="100%" width="100%" xlink:href="#d" x="118.801" y="83.403"/></g><g transform="matrix(3.37375 0 0 3.37375 48.111 376.998)" ns0:preamble="/home/waldgeist/data/homepage/inkscape-preamble.tex" ns0:text="$\\vec{b}$" fill="navy" stroke="navy"><defs><symbol id="e" overflow="visible"><path d="M5.36-5.938c-.141.141-.47.422-.47.594 0 .094.094.203.188.203s.14-.078.203-.14c.11-.14.344-.422.782-.64.062-.048.171-.095.171-.204 0-.11-.078-.156-.14-.203a1.034 1.034 0 0 1-.407-.563c-.03-.093-.062-.234-.203-.234-.14 0-.203.14-.203.219 0 .047.078.36.235.578h-3.36c-.156 0-.344 0-.344.203 0 .188.188.188.344.188zm0 0" stroke="none"/></symbol><symbol id="f" overflow="visible"><path d="M2.375-6.813s0-.109-.125-.109c-.219 0-.953.078-1.219.11-.078 0-.187.015-.187.187 0 .125.094.125.25.125.468 0 .484.063.484.172 0 .062-.078.406-.125.61l-.828 3.25c-.11.5-.156.671-.156 1.015C.469-.516 1 .109 1.734.109c1.172 0 2.407-1.484 2.407-2.921 0-.907-.532-1.594-1.329-1.594-.453 0-.874.297-1.171.593zm-.922 3.766c.047-.219.047-.234.14-.344.485-.64.938-.796 1.204-.796.36 0 .625.296.625.937 0 .594-.328 1.734-.516 2.11-.328.671-.781 1.03-1.172 1.03-.343 0-.671-.265-.671-1 0-.202 0-.39.156-1.015zm0 0" stroke="none"/></symbol></defs><use y="80.774" x="117.682" xlink:href="#e" width="100%" height="100%"/><use y="83.403" x="118.801" xlink:href="#f" width="100%" height="100%"/></g><g ns0:text="$\\vec{a}$" ns0:preamble="/home/waldgeist/data/homepage/inkscape-preamble.tex" transform="matrix(3.37375 0 0 3.37375 91.317 164.353)" fill="navy" stroke="#000"><defs><symbol overflow="visible" id="g"><path d="M5.36-5.938c-.141.141-.47.422-.47.594 0 .094.094.203.188.203s.14-.078.203-.14c.11-.14.344-.422.782-.64.062-.048.171-.095.171-.204 0-.11-.078-.156-.14-.203a1.034 1.034 0 0 1-.407-.563c-.03-.093-.062-.234-.203-.234-.14 0-.203.14-.203.219 0 .047.078.36.235.578h-3.36c-.156 0-.344 0-.344.203 0 .188.188.188.344.188zm0 0" stroke="none"/></symbol><symbol overflow="visible" id="h"><path d="M3.719-3.766c-.188-.375-.469-.64-.922-.64-1.156 0-2.39 1.468-2.39 2.922C.406-.547.952.109 1.718.109c.203 0 .703-.046 1.297-.75a.91.91 0 0 0 .906.75c.36 0 .578-.234.75-.546a6.49 6.49 0 0 0 .297-.985c0-.11-.094-.11-.125-.11-.094 0-.11.048-.14.188-.173.64-.345 1.235-.75 1.235-.282 0-.298-.266-.298-.454 0-.218.016-.312.125-.75.11-.406.125-.515.219-.89l.36-1.39c.062-.282.062-.298.062-.345 0-.171-.11-.265-.281-.265-.25 0-.391.219-.422.437zm-.64 2.579c-.063.187-.063.203-.204.375-.438.546-.844.703-1.125.703-.5 0-.64-.547-.64-.938 0-.5.312-1.719.546-2.187.313-.579.75-.954 1.157-.954.64 0 .78.813.78.875a.562.562 0 0 1-.03.172zm0 0" stroke="none"/></symbol></defs><use xlink:href="#g" x="118.177" y="83.403"/><use xlink:href="#h" x="118.805" y="83.403"/></g><g transform="rotate(-16.796 955.213 824.449) scale(3.37375)" ns0:preamble="/home/waldgeist/data/homepage/inkscape-preamble.tex" ns0:text="$\\vec{b} \\cdot \\cos{(\\alpha)}$" fill="#00f" stroke="#06f"><defs><symbol id="i" overflow="visible"><path d="M5.36-5.938c-.141.141-.47.422-.47.594 0 .094.094.203.188.203s.14-.078.203-.14c.11-.14.344-.422.782-.64.062-.048.171-.095.171-.204 0-.11-.078-.156-.14-.203a1.034 1.034 0 0 1-.407-.563c-.03-.093-.062-.234-.203-.234-.14 0-.203.14-.203.219 0 .047.078.36.235.578h-3.36c-.156 0-.344 0-.344.203 0 .188.188.188.344.188zm0 0" stroke="none"/></symbol><symbol id="j" overflow="visible"><path d="M2.375-6.813s0-.109-.125-.109c-.219 0-.953.078-1.219.11-.078 0-.187.015-.187.187 0 .125.094.125.25.125.468 0 .484.063.484.172 0 .062-.078.406-.125.61l-.828 3.25c-.11.5-.156.671-.156 1.015C.469-.516 1 .109 1.734.109c1.172 0 2.407-1.484 2.407-2.921 0-.907-.532-1.594-1.329-1.594-.453 0-.874.297-1.171.593zm-.922 3.766c.047-.219.047-.234.14-.344.485-.64.938-.796 1.204-.796.36 0 .625.296.625.937 0 .594-.328 1.734-.516 2.11-.328.671-.781 1.03-1.172 1.03-.343 0-.671-.265-.671-1 0-.202 0-.39.156-1.015zm0 0" stroke="none"/></symbol><symbol id="p" overflow="visible"><path d="M4.75-2.36c0-1.562-.922-2.046-1.656-2.046-1.375 0-2.688 1.422-2.688 2.828C.406-.641 1 .109 2.031.109c.625 0 1.344-.234 2.094-.843.125.53.453.843.906.843.532 0 .844-.546.844-.703 0-.078-.063-.11-.125-.11-.063 0-.094.032-.125.11-.188.485-.547.485-.563.485-.312 0-.312-.782-.312-1.016 0-.203 0-.234.11-.344C5.796-2.656 6-3.812 6-3.812c0-.032-.016-.11-.125-.11-.094 0-.094.031-.14.219-.188.625-.516 1.375-.985 1.969zM4.094-.983c-.89.765-1.657.875-2.047.875-.594 0-.906-.454-.906-1.094 0-.484.265-1.563.578-2.063.468-.734 1.015-.921 1.36-.921.983 0 .983 1.312.983 2.078 0 .375 0 .953.032 1.125zm0 0" stroke="none"/></symbol><symbol id="k" overflow="visible"><path d="M1.906-2.5a.524.524 0 1 0-.516.531.524.524 0 0 0 .516-.531zm0 0" stroke="none"/></symbol><symbol id="l" overflow="visible"><path d="M1.172-2.172c0-1.625.812-2.047 1.344-2.047.093 0 .718.016 1.062.375-.406.031-.469.328-.469.453 0 .266.188.454.454.454.265 0 .468-.157.468-.47 0-.671-.765-1.062-1.531-1.062C1.25-4.469.344-3.39.344-2.156c0 1.281.984 2.265 2.14 2.265 1.329 0 1.657-1.203 1.657-1.296 0-.094-.11-.094-.141-.094-.078 0-.11.031-.125.093C3.594-.265 2.937-.14 2.578-.14c-.531 0-1.406-.421-1.406-2.03zm0 0" stroke="none"/></symbol><symbol id="m" overflow="visible"><path d="M4.688-2.14c0-1.266-.985-2.329-2.188-2.329C1.25-4.469.281-3.375.281-2.14A2.22 2.22 0 0 0 2.484.11c1.204 0 2.204-.984 2.204-2.25zM2.5-.14c-.438 0-.875-.204-1.14-.672-.25-.438-.25-1.047-.25-1.407 0-.39 0-.922.234-1.36a1.347 1.347 0 0 1 1.14-.671c.438 0 .86.219 1.125.656.266.422.266 1 .266 1.375 0 .36 0 .906-.219 1.344-.234.453-.672.734-1.156.734zm0 0" stroke="none"/></symbol><symbol id="n" overflow="visible"><path d="M2.078-1.938c.219.047 1.031.204 1.031.922 0 .5-.343.907-1.125.907-.843 0-1.203-.563-1.39-1.422-.031-.125-.031-.157-.14-.157-.126 0-.126.063-.126.235v1.328c0 .172 0 .234.11.234C.483.11.5.094.688-.094.703-.109.703-.125.89-.312c.437.406.89.421 1.093.421 1.141 0 1.61-.671 1.61-1.39 0-.516-.297-.828-.422-.938-.328-.328-.719-.406-1.14-.484-.563-.11-1.22-.235-1.22-.813 0-.359.25-.765 1.11-.765 1.094 0 1.156.906 1.172 1.203 0 .094.094.094.11.094.14 0 .14-.047.14-.235v-1.015c0-.157 0-.235-.11-.235-.046 0-.078 0-.203.125-.031.032-.125.125-.172.157-.375-.282-.78-.282-.937-.282-1.219 0-1.594.672-1.594 1.235 0 .343.156.625.422.843.328.25.61.313 1.328.454zm0 0" stroke="none"/></symbol><symbol id="o" overflow="visible"><path d="M3.297 2.39c0-.03 0-.046-.172-.218C1.891.922 1.562-.968 1.562-2.5c0-1.734.375-3.469 1.61-4.703.125-.125.125-.14.125-.172 0-.078-.031-.11-.094-.11-.11 0-1 .688-1.594 1.954C1.11-4.438.984-3.328.984-2.5c0 .781.11 1.984.657 3.125C2.25 1.844 3.094 2.5 3.203 2.5c.063 0 .094-.031.094-.11zm0 0" stroke="none"/></symbol><symbol id="q" overflow="visible"><path d="M2.875-2.5c0-.766-.11-1.969-.656-3.11C1.625-6.827.766-7.483.672-7.483a.107.107 0 0 0-.11.109c0 .031 0 .047.188.234.984.985 1.547 2.563 1.547 4.641 0 1.719-.36 3.469-1.594 4.719-.14.125-.14.14-.14.172 0 .062.046.109.109.109.094 0 1-.688 1.578-1.953.516-1.094.625-2.203.625-3.047zm0 0" stroke="none"/></symbol></defs><use y="80.774" x="117.682" xlink:href="#i" width="100%" height="100%"/><use y="83.403" x="118.801" xlink:href="#j" width="100%" height="100%"/><use y="83.403" x="125.291" xlink:href="#k" width="100%" height="100%"/><use y="83.403" x="130.272" xlink:href="#l" width="100%" height="100%"/><use y="83.403" x="134.699" xlink:href="#m" width="100%" height="100%"/><use y="83.403" x="139.681" xlink:href="#n" width="100%" height="100%"/><use y="83.403" x="145.274" xlink:href="#o" width="100%" height="100%"/><g><use y="83.403" x="149.146" xlink:href="#p" width="100%" height="100%"/></g><g><use y="83.403" x="155.556" xlink:href="#q" width="100%" height="100%"/></g></g></svg>