<svg xmlns:ns0="http://www.iki.fi/pav/software/textext/" xmlns="http://www.w3.org/2000/svg" xmlns:xlink="http://www.w3.org/1999/xlink" width="1122.52" height="793.701" viewBox="0 0 1052.3622 744.09448"><title>Vektor-Subtraktion</title><defs><symbol overflow="visible" id="e"><path d="M6.844-3.266c.156 0 .343 0 .343-.187 0-.203-.187-.203-.328-.203H.891c-.141 0-.329 0-.329.203 0 .187.188.187.329.187zm.015 1.938c.141 0 .329 0 .329-.203 0-.188-.188-.188-.344-.188H.89c-.141 0-.329 0-.329.188 0 .203.188.203.329.203zm0 0"/></symbol><marker orient="auto" id="g" overflow="visible"><path d="M8.719 4.034L-2.207.016 8.719-4.002c-1.746 2.372-1.736 5.618 0 8.036z" transform="scale(-.6)" fill-rule="evenodd" stroke-width=".625" stroke-linejoin="round"/></marker><marker id="d" orient="auto" overflow="visible"><path d="M-5.231-2.42L1.324-.01-5.23 2.401c1.047-1.423 1.041-3.37 0-4.821z" fill="navy" fill-rule="evenodd" stroke="navy" stroke-width=".375" stroke-linejoin="round"/></marker><symbol overflow="visible" id="h"><path d="M5.36-5.938c-.141.141-.47.422-.47.594 0 .094.094.203.188.203s.14-.078.203-.14c.11-.14.344-.422.782-.64.062-.048.171-.095.171-.204 0-.11-.078-.156-.14-.203a1.034 1.034 0 0 1-.407-.563c-.03-.093-.062-.234-.203-.234-.14 0-.203.14-.203.219 0 .047.078.36.235.578h-3.36c-.156 0-.344 0-.344.203 0 .188.188.188.344.188zm0 0"/></symbol><symbol overflow="visible" id="i"><path d="M3.719-3.766c-.188-.375-.469-.64-.922-.64-1.156 0-2.39 1.468-2.39 2.922C.406-.547.952.109 1.718.109c.203 0 .703-.046 1.297-.75a.91.91 0 0 0 .906.75c.36 0 .578-.234.75-.546a6.49 6.49 0 0 0 .297-.985c0-.11-.094-.11-.125-.11-.094 0-.11.048-.14.188-.173.64-.345 1.235-.75 1.235-.282 0-.298-.266-.298-.454 0-.218.016-.312.125-.75.11-.406.125-.515.219-.89l.36-1.39c.062-.282.062-.298.062-.345 0-.171-.11-.265-.281-.265-.25 0-.391.219-.422.437zm-.64 2.579c-.063.187-.063.203-.204.375-.438.546-.844.703-1.125.703-.5 0-.64-.547-.64-.938 0-.5.312-1.719.546-2.187.313-.579.75-.954 1.157-.954.64 0 .78.813.78.875a.562.562 0 0 1-.03.172zm0 0"/></symbol><symbol id="b" overflow="visible"><path d="M5.36-5.938c-.141.141-.47.422-.47.594 0 .094.094.203.188.203s.14-.078.203-.14c.11-.14.344-.422.782-.64.062-.048.171-.095.171-.204 0-.11-.078-.156-.14-.203a1.034 1.034 0 0 1-.407-.563c-.03-.093-.062-.234-.203-.234-.14 0-.203.14-.203.219 0 .047.078.36.235.578h-3.36c-.156 0-.344 0-.344.203 0 .188.188.188.344.188zm0 0"/></symbol><symbol id="c" overflow="visible"><path d="M2.375-6.813s0-.109-.125-.109c-.219 0-.953.078-1.219.11-.078 0-.187.015-.187.187 0 .125.094.125.25.125.468 0 .484.063.484.172 0 .062-.078.406-.125.61l-.828 3.25c-.11.5-.156.671-.156 1.015C.469-.516 1 .109 1.734.109c1.172 0 2.407-1.484 2.407-2.921 0-.907-.532-1.594-1.329-1.594-.453 0-.874.297-1.171.593zm-.922 3.766c.047-.219.047-.234.14-.344.485-.64.938-.796 1.204-.796.36 0 .625.296.625.937 0 .594-.328 1.734-.516 2.11-.328.671-.781 1.03-1.172 1.03-.343 0-.671-.265-.671-1 0-.202 0-.39.156-1.015zm0 0"/></symbol><marker id="a" orient="auto" overflow="visible"><path d="M-5.231-2.42L1.324-.01-5.23 2.401c1.047-1.423 1.041-3.37 0-4.821z" fill="navy" fill-rule="evenodd" stroke="navy" stroke-width=".375" stroke-linejoin="round"/></marker><marker id="m" orient="auto" overflow="visible"><path d="M-5.231-2.42L1.324-.01-5.23 2.401c1.047-1.423 1.041-3.37 0-4.821z" fill="navy" fill-rule="evenodd" stroke="navy" stroke-width=".375" stroke-linejoin="round"/></marker></defs><g transform="translate(0 -308.268)"><rect ry="3.328" y="578.53" x="24.913" height="305.401" width="1002.536" style="marker:none" color="#000" overflow="visible" fill="#fff" stroke="#fff" stroke-width="2.396" stroke-linecap="round" stroke-linejoin="bevel"/><g stroke="navy" stroke-width="3"><path d="M393.027 732.436l37.11-138.494" fill="navy" marker-end="url(#a)" transform="translate(49.576 16.812)"/><path d="M431.502 746.273l22.202 5.949" fill="gray" stroke-linecap="round"/></g><g ns0:text="$\\vec{b} _{\\rm{}}$" fill="navy"><use height="100%" width="100%" y="132.136" x="222.313" xlink:href="#b" transform="matrix(3.37375 0 0 3.37375 -282.927 251.037)"/><use height="100%" width="100%" y="134.765" x="223.432" xlink:href="#c" transform="matrix(3.37375 0 0 3.37375 -282.927 251.037)"/></g><g stroke="navy" fill="navy" stroke-width="3"><path d="M50.389 770.998l269.686-74.815" marker-end="url(#d)" transform="translate(0 -58.176)"/><path d="M47.414 701.721l5.95 22.203" stroke-linecap="round"/></g><use xlink:href="#e" x="223.432" y="134.765" width="1052.362" height="744.094" fill="#000" transform="matrix(5.80762 0 0 5.80762 -723.183 -87.876)"/><g ns0:preamble="/home/waldgeist/data/sphinx/inkscape-preamble.tex" ns0:text="$-$" transform="translate(-1065.67 -159.177) scale(6.34667)"><defs><symbol id="f" overflow="visible"><path d="M6.563-2.297c.171 0 .359 0 .359-.203 0-.188-.188-.188-.36-.188h-5.39c-.172 0-.344 0-.344.188 0 .203.172.203.344.203z"/></symbol></defs><use y="134.765" x="223.432" xlink:href="#f" width="1052.362" height="744.094"/></g><g stroke="navy" stroke-width="3"><path d="M393.027 732.436l37.11-138.494" marker-end="url(#g)" transform="matrix(1 0 0 -1 299.17 1445.258)"/><path d="M681.096 715.797l22.202-5.95" fill="gray" stroke-linecap="round"/></g><path d="M961.883 638.007l37.11 138.494" stroke-width="3" stroke-linecap="round" stroke-dasharray="3,6" stroke="#b3b3b3"/><path d="M729.306 851.317L998.992 776.5" fill="none" stroke="#b3b3b3" stroke-width="3" stroke-linecap="round" stroke-dasharray="3,6"/><path d="M393.027 732.436l311.484 64.652" stroke="navy" stroke-width="3.046" marker-end="url(#g)" transform="matrix(.98495 0 0 .98495 305.086 -8.588)"/><g ns0:text="$\\vec{a} _{\\rm{}}$" fill="navy" stroke="navy"><use height="100%" width="100%" xlink:href="#h" x="222.808" y="134.765" transform="matrix(3.37375 0 0 3.37375 -569.8 251.037)"/><use height="100%" width="100%" xlink:href="#i" x="223.436" y="134.765" transform="matrix(3.37375 0 0 3.37375 -569.8 251.037)"/></g><g ns0:text="$-\\vec{b} _{\\rm{}}$" transform="matrix(3.37375 0 0 3.37375 -99.106 341.1)" fill="navy"><defs><symbol overflow="visible" id="j"><path d="M6.563-2.297c.171 0 .359 0 .359-.203 0-.188-.188-.188-.36-.188h-5.39c-.172 0-.344 0-.344.188 0 .203.172.203.344.203zm0 0"/></symbol><symbol overflow="visible" id="k"><path d="M5.36-5.938c-.141.141-.47.422-.47.594 0 .094.094.203.188.203s.14-.078.203-.14c.11-.14.344-.422.782-.64.062-.048.171-.095.171-.204 0-.11-.078-.156-.14-.203a1.034 1.034 0 0 1-.407-.563c-.03-.093-.062-.234-.203-.234-.14 0-.203.14-.203.219 0 .047.078.36.235.578h-3.36c-.156 0-.344 0-.344.203 0 .188.188.188.344.188zm0 0"/></symbol><symbol overflow="visible" id="l"><path d="M2.375-6.813s0-.109-.125-.109c-.219 0-.953.078-1.219.11-.078 0-.187.015-.187.187 0 .125.094.125.25.125.468 0 .484.063.484.172 0 .062-.078.406-.125.61l-.828 3.25c-.11.5-.156.671-.156 1.015C.469-.516 1 .109 1.734.109c1.172 0 2.407-1.484 2.407-2.921 0-.907-.532-1.594-1.329-1.594-.453 0-.874.297-1.171.593zm-.922 3.766c.047-.219.047-.234.14-.344.485-.64.938-.796 1.204-.796.36 0 .625.296.625.937 0 .594-.328 1.734-.516 2.11-.328.671-.781 1.03-1.172 1.03-.343 0-.671-.265-.671-1 0-.202 0-.39.156-1.015zm0 0"/></symbol></defs><use height="100%" width="100%" xlink:href="#j" x="223.432" y="134.765"/><use height="100%" width="100%" xlink:href="#k" x="230.062" y="132.136"/><use height="100%" width="100%" xlink:href="#l" x="231.181" y="134.765"/></g><g fill="navy" stroke="navy" stroke-width="3"><path d="M50.389 770.998l269.686-74.815" marker-end="url(#m)" transform="translate(641.808 -58.176)"/><path d="M689.222 701.721l5.95 22.203" stroke-linecap="round"/></g><g ns0:text="$\\vec{a} _{\\rm{}}$" fill="navy" stroke="navy"><use height="100%" width="100%" xlink:href="#h" x="222.808" y="134.765" transform="matrix(3.37375 0 0 3.37375 72.008 251.037)"/><use height="100%" width="100%" xlink:href="#i" x="223.436" y="134.765" transform="matrix(3.37375 0 0 3.37375 72.008 251.037)"/></g><g transform="matrix(3.37375 0 0 3.37375 145.258 294.84)" ns0:text="$\\vec{a}_{\\rm{}} - \\vec{b}_{\\rm{}}$" fill="navy"><defs><symbol id="n" overflow="visible"><path d="M5.36-5.938c-.141.141-.47.422-.47.594 0 .094.094.203.188.203s.14-.078.203-.14c.11-.14.344-.422.782-.64.062-.048.171-.095.171-.204 0-.11-.078-.156-.14-.203a1.034 1.034 0 0 1-.407-.563c-.03-.093-.062-.234-.203-.234-.14 0-.203.14-.203.219 0 .047.078.36.235.578h-3.36c-.156 0-.344 0-.344.203 0 .188.188.188.344.188zm0 0"/></symbol><symbol id="o" overflow="visible"><path d="M3.719-3.766c-.188-.375-.469-.64-.922-.64-1.156 0-2.39 1.468-2.39 2.922C.406-.547.952.109 1.718.109c.203 0 .703-.046 1.297-.75a.91.91 0 0 0 .906.75c.36 0 .578-.234.75-.546a6.49 6.49 0 0 0 .297-.985c0-.11-.094-.11-.125-.11-.094 0-.11.048-.14.188-.173.64-.345 1.235-.75 1.235-.282 0-.298-.266-.298-.454 0-.218.016-.312.125-.75.11-.406.125-.515.219-.89l.36-1.39c.062-.282.062-.298.062-.345 0-.171-.11-.265-.281-.265-.25 0-.391.219-.422.437zm-.64 2.579c-.063.187-.063.203-.204.375-.438.546-.844.703-1.125.703-.5 0-.64-.547-.64-.938 0-.5.312-1.719.546-2.187.313-.579.75-.954 1.157-.954.64 0 .78.813.78.875a.562.562 0 0 1-.03.172zm0 0"/></symbol><symbol id="q" overflow="visible"><path d="M2.375-6.813s0-.109-.125-.109c-.219 0-.953.078-1.219.11-.078 0-.187.015-.187.187 0 .125.094.125.25.125.468 0 .484.063.484.172 0 .062-.078.406-.125.61l-.828 3.25c-.11.5-.156.671-.156 1.015C.469-.516 1 .109 1.734.109c1.172 0 2.407-1.484 2.407-2.921 0-.907-.532-1.594-1.329-1.594-.453 0-.874.297-1.171.593zm-.922 3.766c.047-.219.047-.234.14-.344.485-.64.938-.796 1.204-.796.36 0 .625.296.625.937 0 .594-.328 1.734-.516 2.11-.328.671-.781 1.03-1.172 1.03-.343 0-.671-.265-.671-1 0-.202 0-.39.156-1.015zm0 0"/></symbol><symbol id="p" overflow="visible"><path d="M6.563-2.297c.171 0 .359 0 .359-.203 0-.188-.188-.188-.36-.188h-5.39c-.172 0-.344 0-.344.188 0 .203.172.203.344.203zm0 0"/></symbol></defs><use y="134.765" x="222.808" xlink:href="#n" width="100%" height="100%"/><use y="134.765" x="223.436" xlink:href="#o" width="100%" height="100%"/><use y="134.765" x="231.41" xlink:href="#p" width="100%" height="100%"/><use y="132.136" x="240.254" xlink:href="#n" width="100%" height="100%"/><use y="134.765" x="241.373" xlink:href="#q" width="100%" height="100%"/></g></g></svg>