<svg xmlns:ns0="http://www.iki.fi/pav/software/textext/" xmlns="http://www.w3.org/2000/svg" xmlns:xlink="http://www.w3.org/1999/xlink" width="210mm" height="297mm" viewBox="0 0 744.09449 1052.3622"><title>Vektor und Normvektor</title><defs><marker orient="auto" id="g" overflow="visible"><path d="M-5.231-2.42L1.324-.01-5.23 2.401c1.047-1.423 1.041-3.37 0-4.821z" fill-rule="evenodd" stroke-width=".375" stroke-linejoin="round" stroke="navy" fill="navy"/></marker><marker orient="auto" id="d" overflow="visible"><path d="M-5.231-2.42L1.324-.01-5.23 2.401c1.047-1.423 1.041-3.37 0-4.821z" fill-rule="evenodd" stroke-width=".375" stroke-linejoin="round" stroke="navy" fill="navy"/></marker></defs><rect ry="2.528" y="395.973" x="43.122" height="231.993" width="657.851" style="marker:none" color="#000" overflow="visible" fill="#fff" stroke="#fff" stroke-width="2.396" stroke-linecap="round" stroke-linejoin="bevel"/><g ns0:text="$\\vec{a} _{\\rm{0}}$" ns0:preamble="/home/waldgeist/data/sphinx/inkscape-preamble.tex" transform="matrix(3.37375 0 0 3.37375 -169.087 71.082)" fill="navy"><defs><symbol overflow="visible" id="a"><path d="M5.36-5.938c-.141.141-.47.422-.47.594 0 .094.094.203.188.203s.14-.078.203-.14c.11-.14.344-.422.782-.64.062-.048.171-.095.171-.204 0-.11-.078-.156-.14-.203a1.034 1.034 0 0 1-.407-.563c-.03-.093-.062-.234-.203-.234-.14 0-.203.14-.203.219 0 .047.078.36.235.578h-3.36c-.156 0-.344 0-.344.203 0 .188.188.188.344.188zm0 0"/></symbol><symbol overflow="visible" id="b"><path d="M3.719-3.766c-.188-.375-.469-.64-.922-.64-1.156 0-2.39 1.468-2.39 2.922C.406-.547.952.109 1.718.109c.203 0 .703-.046 1.297-.75a.91.91 0 0 0 .906.75c.36 0 .578-.234.75-.546a6.49 6.49 0 0 0 .297-.985c0-.11-.094-.11-.125-.11-.094 0-.11.048-.14.188-.173.64-.345 1.235-.75 1.235-.282 0-.298-.266-.298-.454 0-.218.016-.312.125-.75.11-.406.125-.515.219-.89l.36-1.39c.062-.282.062-.298.062-.345 0-.171-.11-.265-.281-.265-.25 0-.391.219-.422.437zm-.64 2.579c-.063.187-.063.203-.204.375-.438.546-.844.703-1.125.703-.5 0-.64-.547-.64-.938 0-.5.312-1.719.546-2.187.313-.579.75-.954 1.157-.954.64 0 .78.813.78.875a.562.562 0 0 1-.03.172zm0 0"/></symbol><symbol overflow="visible" id="c"><path d="M3.594-2.219c0-.765-.094-1.328-.406-1.812-.22-.313-.657-.594-1.204-.594C.36-4.625.36-2.719.36-2.219c0 .5 0 2.36 1.625 2.36 1.61 0 1.61-1.86 1.61-2.36zM1.984-.063c-.328 0-.75-.187-.89-.75C1-1.219 1-1.796 1-2.313c0-.515 0-1.046.094-1.421.156-.547.593-.704.89-.704.375 0 .735.235.86.641.11.375.125.875.125 1.485 0 .515 0 1.03-.094 1.468-.14.64-.61.781-.89.781zm0 0"/></symbol></defs><use height="1052.362" width="744.094" xlink:href="#a" x="222.808" y="134.765"/><use height="1052.362" width="744.094" xlink:href="#b" x="223.436" y="134.765"/><use height="1052.362" width="744.094" xlink:href="#c" x="228.698" y="136.259"/></g><path d="M237.531 594.667l269.686-74.815" fill="none" stroke="navy" stroke-width="3" marker-end="url(#d)"/><path d="M234.556 583.566l5.95 22.203" fill="gray" stroke="navy" stroke-width="3" stroke-linecap="round"/><g ns0:text="$\\vec{a}$" ns0:preamble="/home/waldgeist/data/sphinx/inkscape-preamble.tex" transform="matrix(3.37375 0 0 3.37375 -381.45 132.882)" fill="navy" stroke="#000"><defs><symbol overflow="visible" id="e"><path d="M5.36-5.938c-.141.141-.47.422-.47.594 0 .094.094.203.188.203s.14-.078.203-.14c.11-.14.344-.422.782-.64.062-.048.171-.095.171-.204 0-.11-.078-.156-.14-.203a1.034 1.034 0 0 1-.407-.563c-.03-.093-.062-.234-.203-.234-.14 0-.203.14-.203.219 0 .047.078.36.235.578h-3.36c-.156 0-.344 0-.344.203 0 .188.188.188.344.188z" stroke="none"/></symbol><symbol overflow="visible" id="f"><path d="M3.719-3.766c-.188-.375-.469-.64-.922-.64-1.156 0-2.39 1.468-2.39 2.922C.406-.547.952.109 1.718.109c.203 0 .703-.046 1.297-.75a.91.91 0 0 0 .906.75c.36 0 .578-.234.75-.546a6.49 6.49 0 0 0 .297-.985c0-.11-.094-.11-.125-.11-.094 0-.11.048-.14.188-.173.64-.345 1.235-.75 1.235-.282 0-.298-.266-.298-.454 0-.218.016-.312.125-.75.11-.406.125-.515.219-.89l.36-1.39c.062-.282.062-.298.062-.345 0-.171-.11-.265-.281-.265-.25 0-.391.219-.422.437zm-.64 2.579c-.063.187-.063.203-.204.375-.438.546-.844.703-1.125.703-.5 0-.64-.547-.64-.938 0-.5.312-1.719.546-2.187.313-.579.75-.954 1.157-.954.64 0 .78.813.78.875a.562.562 0 0 1-.03.172z" stroke="none"/></symbol></defs><use height="744.094" width="1052.362" xlink:href="#e" x="222.808" y="134.765"/><use height="744.094" width="1052.362" xlink:href="#f" x="223.436" y="134.765"/></g><g stroke="navy" stroke-width="3"><path d="M485.308 489.952l76.97-21.353" fill="none" marker-end="url(#g)" transform="translate(72.246 15.937)"/><path d="M554.58 494.787l5.948 22.202" fill="gray" stroke-linecap="round"/></g><path d="M545.443 462.218l76.873-21.325" fill="none" stroke="gray" stroke-width="1.5"/><path d="M542.469 451.117l5.949 22.203M619.34 429.792l5.95 22.202" fill="gray" stroke="gray" stroke-width="1.5" stroke-linecap="round"/><g ns0:preamble="/home/waldgeist/data/sphinx/inkscape-preamble.tex" ns0:text="$\\unit[1]{LE}$" fill="gray" stroke="gray" stroke-width=".627"><path d="M562.936 428.925c-.134-.5-.143-.532-.611-.406-.907 1.616-2.657 2.085-3.282 2.252l.168.625c.406-.109 1.562-.418 2.45-1.226l2.772 10.343c.193.719.189.954-1.592 1.432l-.625.167.167.625c.671-.247 2.39-.707 3.202-.925.781-.21 2.531-.678 3.235-.8l-.167-.625-.625.168c-1.812.485-1.902.275-2.095-.444zm0 0M583.978 431.425l-.5.134c.326 2.09.714 4.665-2.786 5.602l-1.624.436c-.938.251-1.003.134-1.178-.522l-2.847-10.624c-.184-.688-.26-.969 1.615-1.471l.656-.176-.167-.625c-.702.255-2.515.74-3.327.958-.781.21-2.344.628-3.048.75l.168.625.468-.126c1.532-.41 1.653-.208 1.845.51l2.814 10.5c.192.719.188.954-1.343 1.365l-.469.125.168.625 10.374-2.78zm0 0M588.519 434.06c.193.718.189.954-1.342 1.364l-.47.126.168.625 11.5-3.082-.538-5.382-.5.134c.329 3.228.245 4.79-3.16 5.703l-2.657.712c-.937.251-1.002.135-1.178-.521l-1.432-5.344 1.781-.477c1.938-.52 2.332.078 2.785 1.766l.5-.134-1.416-5.281-.5.134c.461 1.718.41 2.402-1.528 2.921l-1.78.477-1.29-4.812c-.176-.656-.178-.79.76-1.04l2.561-.687c3.063-.82 3.887.13 4.945 2.828l.5-.134-1.768-4.349-11.219 3.006.168.625.469-.126c1.53-.41 1.652-.208 1.844.51zm0 0" stroke="none"/></g></svg>