<?xml version="1.0" encoding="UTF-8" standalone="no"?>
<!-- Created with Inkscape (http://www.inkscape.org/) -->

<svg
   xmlns:ns0="http://www.iki.fi/pav/software/textext/"
   xmlns:dc="http://purl.org/dc/elements/1.1/"
   xmlns:cc="http://creativecommons.org/ns#"
   xmlns:rdf="http://www.w3.org/1999/02/22-rdf-syntax-ns#"
   xmlns:svg="http://www.w3.org/2000/svg"
   xmlns="http://www.w3.org/2000/svg"
   xmlns:xlink="http://www.w3.org/1999/xlink"
   xmlns:sodipodi="http://sodipodi.sourceforge.net/DTD/sodipodi-0.dtd"
   xmlns:inkscape="http://www.inkscape.org/namespaces/inkscape"
   width="1488.189"
   height="1052.3622"
   id="svg7355"
   version="1.1"
   inkscape:version="0.48.3.1 r9886"
   sodipodi:docname="vektorprodukt.svg">
  <title
     id="title15793">Vektorprodukt</title>
  <sodipodi:namedview
     id="base"
     pagecolor="#ffffff"
     bordercolor="#666666"
     borderopacity="1.0"
     inkscape:pageopacity="0.0"
     inkscape:pageshadow="2"
     inkscape:zoom="0.5"
     inkscape:cx="1105.251"
     inkscape:cy="455.63837"
     inkscape:document-units="px"
     inkscape:current-layer="layer1"
     showgrid="false"
     showguides="false"
     inkscape:guide-bbox="true"
     inkscape:snap-bbox="true"
     inkscape:object-nodes="false"
     inkscape:snap-smooth-nodes="true"
     inkscape:object-paths="true"
     inkscape:snap-global="false"
     inkscape:snap-center="true"
     inkscape:snap-nodes="true"
     inkscape:snap-intersection-paths="true"
     inkscape:window-width="1280"
     inkscape:window-height="974"
     inkscape:window-x="0"
     inkscape:window-y="0"
     inkscape:window-maximized="1">
    <sodipodi:guide
       id="guide7721"
       position="287.14316,-418.57132"
       orientation="0,1" />
    <sodipodi:guide
       id="guide7723"
       position="632.85743,-72.857044"
       orientation="0,1" />
    <sodipodi:guide
       id="guide8902"
       position="80.610173,-244.83448"
       orientation="0,1" />
  </sodipodi:namedview>
  <defs
     id="defs7357">
    <marker
       style="overflow:visible"
       id="TriangleOutM"
       refX="0"
       refY="0"
       orient="auto"
       inkscape:stockid="TriangleOutM">
      <path
         transform="scale(0.4,0.4)"
         style="fill-rule:evenodd;stroke:#000000;stroke-width:1pt;marker-start:none"
         d="m 5.77,0 -8.65,5 0,-10 8.65,5 z"
         id="path5368"
         inkscape:connector-curvature="0" />
    </marker>
    <marker
       style="overflow:visible"
       id="marker7662"
       refX="0"
       refY="0"
       orient="auto"
       inkscape:stockid="TriangleOutM">
      <path
         transform="scale(0.4,0.4)"
         style="fill-rule:evenodd;stroke:#000000;stroke-width:1pt;marker-start:none"
         d="m 5.77,0 -8.65,5 0,-10 8.65,5 z"
         id="path7664"
         inkscape:connector-curvature="0" />
    </marker>
    <marker
       style="overflow:visible"
       id="marker7666"
       refX="0"
       refY="0"
       orient="auto"
       inkscape:stockid="TriangleOutM">
      <path
         transform="scale(0.4,0.4)"
         style="fill-rule:evenodd;stroke:#000000;stroke-width:1pt;marker-start:none"
         d="m 5.77,0 -8.65,5 0,-10 8.65,5 z"
         id="path7668"
         inkscape:connector-curvature="0" />
    </marker>
  </defs>
  <metadata
     id="metadata7360">
    <rdf:RDF>
      <cc:Work
         rdf:about="">
        <dc:format>image/svg+xml</dc:format>
        <dc:type
           rdf:resource="http://purl.org/dc/dcmitype/StillImage" />
        <dc:title>Vektorprodukt</dc:title>
        <cc:license
           rdf:resource="http://creativecommons.org/licenses/by-nc-sa/3.0/" />
        <dc:date>2012-06-17</dc:date>
        <dc:creator>
          <cc:Agent>
            <dc:title>Bernhard Grotz</dc:title>
          </cc:Agent>
        </dc:creator>
        <dc:rights>
          <cc:Agent>
            <dc:title>Bernhard Grotz</dc:title>
          </cc:Agent>
        </dc:rights>
        <dc:publisher>
          <cc:Agent>
            <dc:title>Bernhard Grotz</dc:title>
          </cc:Agent>
        </dc:publisher>
        <dc:language>de-DE</dc:language>
        <dc:subject>
          <rdf:Bag>
            <rdf:li>Mathematik</rdf:li>
            <rdf:li>Vektorprodukt</rdf:li>
            <rdf:li>Rechtsschraube</rdf:li>
            <rdf:li>Rechtsschraubenregel</rdf:li>
          </rdf:Bag>
        </dc:subject>
      </cc:Work>
      <cc:License
         rdf:about="http://creativecommons.org/licenses/by-nc-sa/3.0/">
        <cc:permits
           rdf:resource="http://creativecommons.org/ns#Reproduction" />
        <cc:permits
           rdf:resource="http://creativecommons.org/ns#Distribution" />
        <cc:requires
           rdf:resource="http://creativecommons.org/ns#Notice" />
        <cc:requires
           rdf:resource="http://creativecommons.org/ns#Attribution" />
        <cc:prohibits
           rdf:resource="http://creativecommons.org/ns#CommercialUse" />
        <cc:permits
           rdf:resource="http://creativecommons.org/ns#DerivativeWorks" />
        <cc:requires
           rdf:resource="http://creativecommons.org/ns#ShareAlike" />
      </cc:License>
    </rdf:RDF>
  </metadata>
  <g
     id="layer1"
     inkscape:groupmode="layer"
     inkscape:label="Ebene 1"
     transform="translate(0,2.2302535e-5)">
    <rect
       style="fill:#ffffff;fill-opacity:1;fill-rule:nonzero;stroke:#ffffff;stroke-width:1;stroke-linecap:round;stroke-linejoin:miter;stroke-miterlimit:4;stroke-opacity:1;stroke-dasharray:none;stroke-dashoffset:0"
       id="rect15197"
       width="1004"
       height="921.99994"
       x="242.09448"
       y="65.181099"
       inkscape:export-filename="/home/waldgeist/data/pics/physik/Own/mathematik/vektorprodukt.png"
       inkscape:export-xdpi="150"
       inkscape:export-ydpi="150" />
    <rect
       transform="matrix(1,0,-0.70804249,0.70616983,0,0)"
       y="676.18353"
       x="1033.0907"
       height="337.36087"
       width="515.2395"
       id="rect7699"
       style="fill:#ffffff;fill-opacity:1;fill-rule:nonzero;stroke:#000000;stroke-width:3.5699873;stroke-linecap:square;stroke-linejoin:miter;stroke-miterlimit:4;stroke-opacity:1;stroke-dasharray:1.18999579, 2.37999158;stroke-dashoffset:0"
       inkscape:export-filename="/home/waldgeist/data/pics/physik/Own/mathematik/vektorprodukt.png"
       inkscape:export-xdpi="150"
       inkscape:export-ydpi="150" />
    <g
       transform="matrix(1.2928976,0,0,1.2928976,378.51858,-594.97975)"
       id="g4446"
       inkscape:export-filename="/home/waldgeist/data/pics/physik/Own/mathematik/vektorprodukt.png"
       inkscape:export-xdpi="150"
       inkscape:export-ydpi="150">
      <path
         style="fill:none;stroke:#000000;stroke-width:2.32036924;stroke-linecap:butt;stroke-linejoin:miter;stroke-opacity:1;marker-end:url(#TriangleOutM)"
         d="m 242.85935,921.64856 366.65388,0"
         id="path4306"
         inkscape:connector-curvature="0" />
      <path
         inkscape:transform-center-x="106.31401"
         inkscape:transform-center-y="106.31403"
         inkscape:connector-curvature="0"
         id="path4308"
         d="M 242.85936,921.64854 -16.404113,1180.9121"
         style="fill:none;stroke:#000000;stroke-width:2.32036948;stroke-linecap:butt;stroke-linejoin:miter;stroke-miterlimit:4;stroke-opacity:1;stroke-dasharray:none;marker-end:url(#TriangleOutM)" />
      <path
         inkscape:transform-center-y="-183.32698"
         inkscape:transform-center-x="4.6e-05"
         style="fill:none;stroke:#000000;stroke-width:2.32036924;stroke-linecap:butt;stroke-linejoin:miter;stroke-opacity:1;marker-end:url(#TriangleOutM)"
         d="m 242.85938,921.64858 -1.3e-4,-366.65396"
         id="path4444"
         inkscape:connector-curvature="0" />
      <path
         style="fill:none;stroke:#008000;stroke-width:4.64073896;stroke-linecap:butt;stroke-linejoin:miter;stroke-miterlimit:4;stroke-opacity:1;stroke-dasharray:none;marker-end:url(#TriangleOutM)"
         d="M 242.85934,921.64858 94.830644,1069.6773"
         id="path8914"
         inkscape:connector-curvature="0"
         inkscape:transform-center-y="61.947791"
         inkscape:transform-center-x="61.94775" />
      <path
         inkscape:connector-curvature="0"
         id="path8916"
         d="m 242.85935,921.64856 244.71666,0"
         style="fill:none;stroke:#000080;stroke-width:4.64073896;stroke-linecap:butt;stroke-linejoin:miter;stroke-opacity:1;marker-end:url(#TriangleOutM)" />
      <path
         inkscape:connector-curvature="0"
         id="path8918"
         d="m 242.85938,921.64854 -1.5e-4,-312.4676"
         style="fill:none;stroke:#aa0000;stroke-width:4.64073896;stroke-linecap:butt;stroke-linejoin:miter;stroke-opacity:1;marker-end:url(#TriangleOutM)"
         inkscape:transform-center-x="6.596631e-05"
         inkscape:transform-center-y="-156.95387" />
    </g>
    <g
       transform="matrix(-0.77886454,0,0,0.77886454,881.24148,-436.9209)"
       id="g8888"
       style="fill:#cccccc;stroke:#4d4d4d;stroke-width:3.85176092"
       inkscape:export-filename="/home/waldgeist/data/pics/physik/Own/mathematik/vektorprodukt.png"
       inkscape:export-xdpi="150"
       inkscape:export-ydpi="150">
      <path
         style="fill:#cccccc;fill-opacity:1;fill-rule:nonzero;stroke:#4d4d4d;stroke-width:3.85176092;stroke-linecap:round;stroke-linejoin:miter;stroke-miterlimit:4;stroke-opacity:1;stroke-dashoffset:0"
         d="m 234.07776,945.23773 8.75354,-26 8.75355,26 14.54769,303.32407 -49.63448,0 z"
         id="rect8274"
         inkscape:connector-curvature="0"
         sodipodi:nodetypes="cccccc" />
      <path
         style="fill:#cccccc;fill-opacity:1;fill-rule:nonzero;stroke:#4d4d4d;stroke-width:3.85176092;stroke-linecap:square;stroke-linejoin:miter;stroke-miterlimit:4;stroke-opacity:1;stroke-dasharray:none;stroke-dashoffset:0"
         d="m 206.3566,1309.4724 c 3.29182,-19.9585 6.84964,-40.9521 10.14146,-60.9106 l 49.63448,0 12.89704,60.9106 0,17.5085 -73.42857,0 z"
         id="rect8269"
         inkscape:connector-curvature="0"
         sodipodi:nodetypes="ccccccc" />
      <path
         sodipodi:nodetypes="ccccccc"
         inkscape:connector-curvature="0"
         id="path8858"
         d="m 223.68497,1188.0827 40.9551,11.0203 8.26516,9.644 -11.95961,4.202 -40.9551,-11.0203 -8.26516,-9.644 z"
         style="color:#000000;fill:#cccccc;fill-opacity:1;fill-rule:nonzero;stroke:#4d4d4d;stroke-width:3.85176092;stroke-linecap:butt;stroke-linejoin:bevel;stroke-miterlimit:4;stroke-opacity:1;stroke-dashoffset:0;marker:none;visibility:visible;display:inline;overflow:visible;enable-background:accumulate" />
      <path
         style="color:#000000;fill:#cccccc;fill-opacity:1;fill-rule:nonzero;stroke:#4d4d4d;stroke-width:3.85176092;stroke-linecap:butt;stroke-linejoin:bevel;stroke-miterlimit:4;stroke-opacity:1;stroke-dashoffset:0;marker:none;visibility:visible;display:inline;overflow:visible;enable-background:accumulate"
         d="m 226.33992,1153.039 35.11871,9.3091 7.08731,8.1465 -10.25527,3.5495 -35.11871,-9.3091 -7.08731,-8.1466 z"
         id="path8860"
         inkscape:connector-curvature="0"
         sodipodi:nodetypes="ccccccc" />
      <path
         sodipodi:nodetypes="ccccccc"
         inkscape:connector-curvature="0"
         id="path8862"
         d="m 226.98956,1118.798 33.69059,8.9858 6.79911,7.8635 -9.83823,3.426 -33.69059,-8.9856 -6.79911,-7.8635 z"
         style="color:#000000;fill:#cccccc;fill-opacity:1;fill-rule:nonzero;stroke:#4d4d4d;stroke-width:3.85176092;stroke-linecap:butt;stroke-linejoin:bevel;stroke-miterlimit:4;stroke-opacity:1;stroke-dashoffset:0;marker:none;visibility:visible;display:inline;overflow:visible;enable-background:accumulate" />
      <path
         style="color:#000000;fill:#cccccc;fill-opacity:1;fill-rule:nonzero;stroke:#4d4d4d;stroke-width:3.85176092;stroke-linecap:butt;stroke-linejoin:bevel;stroke-miterlimit:4;stroke-opacity:1;stroke-dashoffset:0;marker:none;visibility:visible;display:inline;overflow:visible;enable-background:accumulate"
         d="m 227.59743,1086.7331 32.3543,8.6931 6.52942,7.6076 -9.448,3.3144 -32.35429,-8.6931 -6.52942,-7.6076 z"
         id="path8864"
         inkscape:connector-curvature="0"
         sodipodi:nodetypes="ccccccc" />
      <path
         sodipodi:nodetypes="ccccccc"
         inkscape:connector-curvature="0"
         id="path8866"
         d="m 229.59444,1057.0318 27.96427,7.425 5.64347,6.4978 -8.16604,2.831 -27.96426,-7.425 -5.64347,-6.4978 z"
         style="color:#000000;fill:#cccccc;fill-opacity:1;fill-rule:nonzero;stroke:#4d4d4d;stroke-width:3.85176092;stroke-linecap:butt;stroke-linejoin:bevel;stroke-miterlimit:4;stroke-opacity:1;stroke-dashoffset:0;marker:none;visibility:visible;display:inline;overflow:visible;enable-background:accumulate" />
      <path
         style="color:#000000;fill:#cccccc;fill-opacity:1;fill-rule:nonzero;stroke:#4d4d4d;stroke-width:3.85176092;stroke-linecap:butt;stroke-linejoin:bevel;stroke-miterlimit:4;stroke-opacity:1;stroke-dashoffset:0;marker:none;visibility:visible;display:inline;overflow:visible;enable-background:accumulate"
         d="m 230.57678,1026.6312 25.80479,6.7768 5.20767,5.9305 -7.53544,2.5838 -25.80478,-6.7767 -5.20768,-5.9305 z"
         id="path8868"
         inkscape:connector-curvature="0"
         sodipodi:nodetypes="ccccccc" />
      <path
         sodipodi:nodetypes="ccccccc"
         inkscape:connector-curvature="0"
         id="path8870"
         d="m 231.55912,996.23053 23.64532,6.12857 4.77187,5.3633 -6.90485,2.3366 -23.64531,-6.1285 -4.77187,-5.36326 z"
         style="color:#000000;fill:#cccccc;fill-opacity:1;fill-rule:nonzero;stroke:#4d4d4d;stroke-width:3.85176092;stroke-linecap:butt;stroke-linejoin:bevel;stroke-miterlimit:4;stroke-opacity:1;stroke-dashoffset:0;marker:none;visibility:visible;display:inline;overflow:visible;enable-background:accumulate" />
      <path
         style="color:#000000;fill:#cccccc;fill-opacity:1;fill-rule:nonzero;stroke:#4d4d4d;stroke-width:3.85176092;stroke-linecap:butt;stroke-linejoin:bevel;stroke-miterlimit:4;stroke-opacity:1;stroke-dashoffset:0;marker:none;visibility:visible;display:inline;overflow:visible;enable-background:accumulate"
         d="m 232.54145,965.82989 21.48584,5.48038 4.33607,4.79602 -6.27423,2.08949 -21.48585,-5.48029 -4.33606,-4.79603 z"
         id="path8872"
         inkscape:connector-curvature="0"
         sodipodi:nodetypes="ccccccc" />
    </g>
    <path
       sodipodi:nodetypes="cc"
       inkscape:connector-curvature="0"
       id="path8920"
       d="m 630.99507,692.07568 c 73.92141,11.2766 140.15196,-1.768 178.37274,-71.5159"
       style="fill:none;stroke:#000000;stroke-width:3;stroke-linecap:butt;stroke-linejoin:miter;stroke-opacity:1;marker-end:url(#marker7666)"
       inkscape:export-filename="/home/waldgeist/data/pics/physik/Own/mathematik/vektorprodukt.png"
       inkscape:export-xdpi="150"
       inkscape:export-ydpi="150" />
    <g
       ns0:text="$\\varphi$"
       ns0:preamble="/home/waldgeist/data/sphinx/test.tex"
       transform="matrix(7.127139,0,0,7.127139,-897.09019,-307.87226)"
       id="g9249"
       inkscape:export-filename="/home/waldgeist/data/pics/physik/Own/mathematik/vektorprodukt.png"
       inkscape:export-xdpi="150"
       inkscape:export-ydpi="150">
      <defs
         id="defs9251">
        <g
           id="g9253">
          <symbol
             style="overflow:visible"
             overflow="visible"
             id="textext-79f55317-0">
            <path
               inkscape:connector-curvature="0"
               style="stroke:none"
               d="M 1.6875,1.6875 C 1.65625,1.828125 1.640625,1.84375 1.640625,1.890625 c 0,0.21875 0.1875,0.28125 0.296875,0.28125 0.046875,0 0.265625,-0.03125 0.359375,-0.265625 C 2.328125,1.828125 2.375,1.5 2.65625,0.09375 c 0.078125,0 0.15625,0.015625 0.328125,0.015625 1.65625,0 3.1875,-1.5625 3.1875,-3.140625 0,-0.78125 -0.390625,-1.375 -1.140625,-1.375 -1.4375,0 -2.046875,1.9375 -2.640625,3.875 C 1.3125,-0.734375 0.75,-1.28125 0.75,-2 c 0,-0.28125 0.234375,-1.375 0.828125,-2.0625 0.09375,-0.09375 0.09375,-0.109375 0.09375,-0.140625 0,-0.03125 -0.03125,-0.09375 -0.125,-0.09375 -0.28125,0 -1.046875,1.453125 -1.046875,2.40625 0,0.9375 0.65625,1.65625 1.71875,1.90625 z m 1.390625,-2.15625 c -0.09375,0 -0.109375,0 -0.1875,-0.015625 -0.125,0 -0.125,0 -0.125,-0.03125 0,-0.015625 0.171875,-0.9375 0.1875,-1.078125 0.3125,-1.28125 1.09375,-2.234375 1.984375,-2.234375 0.6875,0 0.953125,0.53125 0.953125,1.015625 0,1.125 -1.28125,2.34375 -2.8125,2.34375 z m 0,0"
               id="path9256" />
          </symbol>
        </g>
      </defs>
      <g
         id="textext-79f55317-1">
        <g
           style="fill:#000000;fill-opacity:1"
           id="g9259">
          <use
             height="1052.3622"
             width="744.09448"
             xlink:href="#textext-79f55317-0"
             x="223.43201"
             y="134.765"
             id="use9261" />
        </g>
      </g>
    </g>
    <g
       id="g9361"
       transform="matrix(7.127139,0,0,7.127139,-1044.7768,-268.75373)"
       ns0:preamble="/home/waldgeist/data/sphinx/test.tex"
       ns0:text="$\\vec{a}$"
       style="fill:#008000"
       inkscape:export-filename="/home/waldgeist/data/pics/physik/Own/mathematik/vektorprodukt.png"
       inkscape:export-xdpi="150"
       inkscape:export-ydpi="150">
      <defs
         id="defs9363">
        <g
           id="g9365">
          <symbol
             id="textext-5530474b-0"
             overflow="visible"
             style="overflow:visible">
            <path
               id="path9368"
               d="m 5.359375,-5.9375 c -0.140625,0.140625 -0.46875,0.421875 -0.46875,0.59375 0,0.09375 0.09375,0.203125 0.1875,0.203125 0.09375,0 0.140625,-0.078125 0.203125,-0.140625 C 5.390625,-5.421875 5.625,-5.703125 6.0625,-5.921875 6.125,-5.96875 6.234375,-6.015625 6.234375,-6.125 6.234375,-6.234375 6.15625,-6.28125 6.09375,-6.328125 5.875,-6.484375 5.765625,-6.65625 5.6875,-6.890625 5.65625,-6.984375 5.625,-7.125 5.484375,-7.125 c -0.140625,0 -0.203125,0.140625 -0.203125,0.21875 0,0.046875 0.078125,0.359375 0.234375,0.578125 l -3.359375,0 c -0.15625,0 -0.34375,0 -0.34375,0.203125 0,0.1875 0.1875,0.1875 0.34375,0.1875 z m 0,0"
               style="stroke:none"
               inkscape:connector-curvature="0" />
          </symbol>
          <symbol
             id="textext-5530474b-1"
             overflow="visible"
             style="overflow:visible">
            <path
               id="path9371"
               d="M 3.71875,-3.765625 C 3.53125,-4.140625 3.25,-4.40625 2.796875,-4.40625 c -1.15625,0 -2.390625,1.46875 -2.390625,2.921875 0,0.9375 0.546875,1.59375 1.3125,1.59375 0.203125,0 0.703125,-0.046875 1.296875,-0.75 0.078125,0.421875 0.4375,0.75 0.90625,0.75 0.359375,0 0.578125,-0.234375 0.75,-0.546875 0.15625,-0.359375 0.296875,-0.96875 0.296875,-0.984375 0,-0.109375 -0.09375,-0.109375 -0.125,-0.109375 -0.09375,0 -0.109375,0.046875 -0.140625,0.1875 -0.171875,0.640625 -0.34375,1.234375 -0.75,1.234375 -0.28125,0 -0.296875,-0.265625 -0.296875,-0.453125 0,-0.21875 0.015625,-0.3125 0.125,-0.75 C 3.890625,-1.71875 3.90625,-1.828125 4,-2.203125 L 4.359375,-3.59375 c 0.0625,-0.28125 0.0625,-0.296875 0.0625,-0.34375 0,-0.171875 -0.109375,-0.265625 -0.28125,-0.265625 -0.25,0 -0.390625,0.21875 -0.421875,0.4375 z M 3.078125,-1.1875 C 3.015625,-1 3.015625,-0.984375 2.875,-0.8125 2.4375,-0.265625 2.03125,-0.109375 1.75,-0.109375 c -0.5,0 -0.640625,-0.546875 -0.640625,-0.9375 0,-0.5 0.3125,-1.71875 0.546875,-2.1875 0.3125,-0.578125 0.75,-0.953125 1.15625,-0.953125 0.640625,0 0.78125,0.8125 0.78125,0.875 0,0.0625 -0.015625,0.125 -0.03125,0.171875 z m 0,0"
               style="stroke:none"
               inkscape:connector-curvature="0" />
          </symbol>
        </g>
      </defs>
      <g
         id="textext-5530474b-2"
         style="fill:#008000">
        <g
           id="g9374"
           style="fill:#008000;fill-opacity:1">
          <use
             id="use9376"
             y="134.765"
             x="222.808"
             xlink:href="#textext-5530474b-0"
             width="744.09448"
             height="1052.3622"
             style="fill:#008000" />
        </g>
        <g
           id="g9378"
           style="fill:#008000;fill-opacity:1">
          <use
             id="use9380"
             y="134.765"
             x="223.43564"
             xlink:href="#textext-5530474b-1"
             width="744.09448"
             height="1052.3622"
             style="fill:#008000" />
        </g>
      </g>
    </g>
    <g
       ns0:text="$\\vec{b}$"
       ns0:preamble="/home/waldgeist/data/sphinx/test.tex"
       transform="matrix(7.127139,0,0,7.127139,-736.35679,-383.88624)"
       id="g9512"
       style="fill:#000080"
       inkscape:export-filename="/home/waldgeist/data/pics/physik/Own/mathematik/vektorprodukt.png"
       inkscape:export-xdpi="150"
       inkscape:export-ydpi="150">
      <defs
         id="defs9514">
        <g
           id="g9516">
          <symbol
             overflow="visible"
             id="textext-fdff3221-0"
             style="overflow:visible">
            <path
               style="stroke:none"
               d="m 5.359375,-5.9375 c -0.140625,0.140625 -0.46875,0.421875 -0.46875,0.59375 0,0.09375 0.09375,0.203125 0.1875,0.203125 0.09375,0 0.140625,-0.078125 0.203125,-0.140625 C 5.390625,-5.421875 5.625,-5.703125 6.0625,-5.921875 6.125,-5.96875 6.234375,-6.015625 6.234375,-6.125 6.234375,-6.234375 6.15625,-6.28125 6.09375,-6.328125 5.875,-6.484375 5.765625,-6.65625 5.6875,-6.890625 5.65625,-6.984375 5.625,-7.125 5.484375,-7.125 c -0.140625,0 -0.203125,0.140625 -0.203125,0.21875 0,0.046875 0.078125,0.359375 0.234375,0.578125 l -3.359375,0 c -0.15625,0 -0.34375,0 -0.34375,0.203125 0,0.1875 0.1875,0.1875 0.34375,0.1875 z m 0,0"
               id="path9519"
               inkscape:connector-curvature="0" />
          </symbol>
          <symbol
             overflow="visible"
             id="textext-fdff3221-1"
             style="overflow:visible">
            <path
               style="stroke:none"
               d="m 2.375,-6.8125 c 0,0 0,-0.109375 -0.125,-0.109375 -0.21875,0 -0.953125,0.078125 -1.21875,0.109375 -0.078125,0 -0.1875,0.015625 -0.1875,0.1875 0,0.125 0.09375,0.125 0.25,0.125 0.46875,0 0.484375,0.0625 0.484375,0.171875 0,0.0625 -0.078125,0.40625 -0.125,0.609375 l -0.828125,3.25 c -0.109375,0.5 -0.15625,0.671875 -0.15625,1.015625 0,0.9375 0.53125,1.5625 1.265625,1.5625 1.171875,0 2.40625,-1.484375 2.40625,-2.921875 0,-0.90625 -0.53125,-1.59375 -1.328125,-1.59375 -0.453125,0 -0.875,0.296875 -1.171875,0.59375 z M 1.453125,-3.046875 C 1.5,-3.265625 1.5,-3.28125 1.59375,-3.390625 2.078125,-4.03125 2.53125,-4.1875 2.796875,-4.1875 c 0.359375,0 0.625,0.296875 0.625,0.9375 0,0.59375 -0.328125,1.734375 -0.515625,2.109375 -0.328125,0.671875 -0.78125,1.03125 -1.171875,1.03125 -0.34375,0 -0.671875,-0.265625 -0.671875,-1 0,-0.203125 0,-0.390625 0.15625,-1.015625 z m 0,0"
               id="path9522"
               inkscape:connector-curvature="0" />
          </symbol>
        </g>
      </defs>
      <g
         id="textext-fdff3221-2"
         style="fill:#000080">
        <g
           style="fill:#000080;fill-opacity:1"
           id="g9525">
          <use
             xlink:href="#textext-fdff3221-0"
             x="222.313"
             y="132.136"
             id="use9527"
             width="744.09448"
             height="1052.3622"
             style="fill:#000080" />
        </g>
        <g
           style="fill:#000080;fill-opacity:1"
           id="g9529">
          <use
             xlink:href="#textext-fdff3221-1"
             x="223.43201"
             y="134.765"
             id="use9531"
             width="744.09448"
             height="1052.3622"
             style="fill:#000080" />
        </g>
      </g>
    </g>
    <g
       id="g9687"
       transform="matrix(7.127139,0,0,7.127139,-971.23669,-541.34952)"
       ns0:preamble="/home/waldgeist/data/sphinx/test.tex"
       ns0:text="$\\vec{c}$"
       style="fill:#aa0000;fill-opacity:1"
       inkscape:export-filename="/home/waldgeist/data/pics/physik/Own/mathematik/vektorprodukt.png"
       inkscape:export-xdpi="150"
       inkscape:export-ydpi="150">
      <defs
         id="defs9689">
        <g
           id="g9691">
          <symbol
             id="textext-f56a3ee7-0"
             overflow="visible"
             style="overflow:visible">
            <path
               id="path9694"
               d="m 5.359375,-5.9375 c -0.140625,0.140625 -0.46875,0.421875 -0.46875,0.59375 0,0.09375 0.09375,0.203125 0.1875,0.203125 0.09375,0 0.140625,-0.078125 0.203125,-0.140625 C 5.390625,-5.421875 5.625,-5.703125 6.0625,-5.921875 6.125,-5.96875 6.234375,-6.015625 6.234375,-6.125 6.234375,-6.234375 6.15625,-6.28125 6.09375,-6.328125 5.875,-6.484375 5.765625,-6.65625 5.6875,-6.890625 5.65625,-6.984375 5.625,-7.125 5.484375,-7.125 c -0.140625,0 -0.203125,0.140625 -0.203125,0.21875 0,0.046875 0.078125,0.359375 0.234375,0.578125 l -3.359375,0 c -0.15625,0 -0.34375,0 -0.34375,0.203125 0,0.1875 0.1875,0.1875 0.34375,0.1875 z m 0,0"
               style="stroke:none"
               inkscape:connector-curvature="0" />
          </symbol>
          <symbol
             id="textext-f56a3ee7-1"
             overflow="visible"
             style="overflow:visible">
            <path
               id="path9697"
               d="m 3.953125,-3.78125 c -0.171875,0 -0.296875,0 -0.4375,0.125 -0.171875,0.15625 -0.1875,0.328125 -0.1875,0.390625 0,0.25 0.1875,0.359375 0.375,0.359375 0.28125,0 0.546875,-0.25 0.546875,-0.640625 0,-0.484375 -0.46875,-0.859375 -1.171875,-0.859375 -1.34375,0 -2.671875,1.421875 -2.671875,2.828125 0,0.90625 0.578125,1.6875 1.625,1.6875 1.421875,0 2.25,-1.0625 2.25,-1.171875 0,-0.0625 -0.046875,-0.140625 -0.109375,-0.140625 -0.0625,0 -0.078125,0.03125 -0.140625,0.109375 -0.78125,0.984375 -1.875,0.984375 -1.984375,0.984375 -0.625,0 -0.90625,-0.484375 -0.90625,-1.09375 0,-0.40625 0.203125,-1.375 0.546875,-1.984375 0.3125,-0.578125 0.859375,-1 1.40625,-1 0.328125,0 0.71875,0.125 0.859375,0.40625 z m 0,0"
               style="stroke:none"
               inkscape:connector-curvature="0" />
          </symbol>
        </g>
      </defs>
      <g
         id="textext-f56a3ee7-2"
         style="fill:#aa0000;fill-opacity:1">
        <g
           id="g9700"
           style="fill:#aa0000;fill-opacity:1">
          <use
             id="use9702"
             y="134.765"
             x="222.884"
             xlink:href="#textext-f56a3ee7-0"
             width="744.09448"
             height="1052.3622"
             style="fill:#aa0000;fill-opacity:1" />
        </g>
        <g
           id="g9704"
           style="fill:#aa0000;fill-opacity:1">
          <use
             id="use9706"
             y="134.765"
             x="223.43195"
             xlink:href="#textext-f56a3ee7-1"
             width="744.09448"
             height="1052.3622"
             style="fill:#aa0000;fill-opacity:1" />
        </g>
      </g>
    </g>
  </g>
</svg>
