<svg xmlns:ns0="http://www.iki.fi/pav/software/textext/" xmlns="http://www.w3.org/2000/svg" xmlns:xlink="http://www.w3.org/1999/xlink" width="1488.189" height="1052.362"><title>Vektorprodukt</title><defs><marker id="a" orient="auto" overflow="visible"><path d="M2.308 0l-3.46 2v-4l3.46 2z" fill-rule="evenodd" stroke="#000" stroke-width=".4pt"/></marker><marker id="b" orient="auto" overflow="visible"><path d="M2.308 0l-3.46 2v-4l3.46 2z" fill-rule="evenodd" stroke="#000" stroke-width=".4pt"/></marker></defs><path fill="#fff" stroke="#fff" stroke-linecap="round" d="M242.094 65.181h1004v922h-1004z"/><path transform="matrix(1 0 -.70804 .70617 0 0)" fill="#fff" stroke="#000" stroke-width="3.57" stroke-linecap="square" stroke-dasharray="1.18999579,2.37999158" d="M1033.091 676.184h515.24v337.361h-515.24z"/><g transform="matrix(1.2929 0 0 1.2929 378.519 -594.98)" fill="none" marker-end="url(#a)"><path d="M242.86 921.649h366.653M242.86 921.649l-259.264 259.263M242.86 921.649V554.995" stroke="#000" stroke-width="2.32"/><path d="M242.86 921.649L94.83 1069.677" stroke="green" stroke-width="4.641"/><path d="M242.86 921.649h244.716" stroke="navy" stroke-width="4.641"/><path d="M242.86 921.649V609.18" stroke="#a00" stroke-width="4.641"/></g><g fill="#ccc" stroke="#4d4d4d" stroke-width="3.852"><path d="M698.927 299.291l-6.818-20.25-6.818 20.25-11.33 236.249h38.658z" stroke-linecap="round" stroke-width="3.00016872"/><path d="M720.518 582.98c-2.564-15.544-5.335-31.895-7.9-47.44H673.96l-10.045 47.44v13.637h57.191z" stroke-linecap="square" stroke-width="3.00016872"/><path d="M707.021 488.435l-31.898 8.583-6.438 7.511 9.315 3.273 31.899-8.583 6.437-7.512zM704.953 461.14l-27.352 7.25-5.52 6.346 7.987 2.764 27.353-7.25 5.52-6.345zM704.447 434.471l-26.24 6.999-5.296 6.125 7.663 2.668 26.24-6.999 5.296-6.124zM703.974 409.497l-25.2 6.77-5.085 5.926 7.358 2.582 25.2-6.771 5.086-5.926zM702.419 386.364l-21.78 5.783-4.396 5.06 6.36 2.206 21.78-5.783 4.396-5.061zM701.653 362.686l-20.098 5.278-4.056 4.619 5.869 2.012 20.098-5.278 4.056-4.619zM700.888 339.008l-18.416 4.773-3.717 4.177 5.378 1.82 18.417-4.773 3.716-4.177zM700.123 315.33l-16.734 4.268-3.378 3.736 4.887 1.627 16.735-4.268 3.377-3.736z" style="marker:none" color="#000" stroke-linejoin="bevel" overflow="visible" stroke-width="3.00016872"/></g><path d="M630.995 692.076c73.921 11.276 140.152-1.768 178.373-71.516" fill="none" stroke="#000" stroke-width="3" marker-end="url(#b)"/><g ns0:text="$\\varphi$" ns0:preamble="/home/waldgeist/data/sphinx/test.tex" transform="matrix(7.12714 0 0 7.12714 -897.09 -307.872)"><defs><symbol overflow="visible" id="c"><path d="M1.688 1.688c-.032.14-.047.156-.047.203 0 .218.187.28.296.28a.413.413 0 0 0 .36-.265c.031-.078.078-.406.36-1.812.077 0 .155.015.327.015 1.657 0 3.188-1.562 3.188-3.14 0-.781-.39-1.375-1.14-1.375-1.438 0-2.048 1.937-2.641 3.875C1.312-.734.75-1.281.75-2c0-.281.234-1.375.828-2.063.094-.093.094-.109.094-.14 0-.031-.031-.094-.125-.094C1.266-4.297.5-2.844.5-1.89c0 .938.656 1.657 1.719 1.907zM3.077-.47c-.094 0-.11 0-.187-.015-.125 0-.125 0-.125-.032 0-.015.171-.937.187-1.078.313-1.281 1.094-2.234 1.985-2.234.687 0 .953.531.953 1.015 0 1.126-1.282 2.344-2.813 2.344zm0 0"/></symbol></defs><use height="1052.362" width="744.094" xlink:href="#c" x="223.432" y="134.765"/></g><g transform="matrix(7.12714 0 0 7.12714 -1044.777 -268.754)" ns0:preamble="/home/waldgeist/data/sphinx/test.tex" ns0:text="$\\vec{a}$" fill="green"><defs><symbol id="d" overflow="visible"><path d="M5.36-5.938c-.141.141-.47.422-.47.594 0 .094.094.203.188.203s.14-.078.203-.14c.11-.14.344-.422.782-.64.062-.048.171-.095.171-.204 0-.11-.078-.156-.14-.203a1.034 1.034 0 0 1-.407-.563c-.03-.093-.062-.234-.203-.234-.14 0-.203.14-.203.219 0 .047.078.36.235.578h-3.36c-.156 0-.344 0-.344.203 0 .188.188.188.344.188zm0 0"/></symbol><symbol id="e" overflow="visible"><path d="M3.719-3.766c-.188-.375-.469-.64-.922-.64-1.156 0-2.39 1.468-2.39 2.922C.406-.547.952.109 1.718.109c.203 0 .703-.046 1.297-.75a.91.91 0 0 0 .906.75c.36 0 .578-.234.75-.546a6.49 6.49 0 0 0 .297-.985c0-.11-.094-.11-.125-.11-.094 0-.11.048-.14.188-.173.64-.345 1.235-.75 1.235-.282 0-.298-.266-.298-.454 0-.218.016-.312.125-.75.11-.406.125-.515.219-.89l.36-1.39c.062-.282.062-.298.062-.345 0-.171-.11-.265-.281-.265-.25 0-.391.219-.422.437zm-.64 2.579c-.063.187-.063.203-.204.375-.438.546-.844.703-1.125.703-.5 0-.64-.547-.64-.938 0-.5.312-1.719.546-2.187.313-.579.75-.954 1.157-.954.64 0 .78.813.78.875a.562.562 0 0 1-.03.172zm0 0"/></symbol></defs><use y="134.765" x="222.808" xlink:href="#d" width="744.094" height="1052.362"/><use y="134.765" x="223.436" xlink:href="#e" width="744.094" height="1052.362"/></g><g ns0:text="$\\vec{b}$" ns0:preamble="/home/waldgeist/data/sphinx/test.tex" transform="matrix(7.12714 0 0 7.12714 -736.357 -383.886)" fill="navy"><defs><symbol overflow="visible" id="f"><path d="M5.36-5.938c-.141.141-.47.422-.47.594 0 .094.094.203.188.203s.14-.078.203-.14c.11-.14.344-.422.782-.64.062-.048.171-.095.171-.204 0-.11-.078-.156-.14-.203a1.034 1.034 0 0 1-.407-.563c-.03-.093-.062-.234-.203-.234-.14 0-.203.14-.203.219 0 .047.078.36.235.578h-3.36c-.156 0-.344 0-.344.203 0 .188.188.188.344.188zm0 0"/></symbol><symbol overflow="visible" id="g"><path d="M2.375-6.813s0-.109-.125-.109c-.219 0-.953.078-1.219.11-.078 0-.187.015-.187.187 0 .125.094.125.25.125.468 0 .484.063.484.172 0 .062-.078.406-.125.61l-.828 3.25c-.11.5-.156.671-.156 1.015C.469-.516 1 .109 1.734.109c1.172 0 2.407-1.484 2.407-2.921 0-.907-.532-1.594-1.329-1.594-.453 0-.874.297-1.171.593zm-.922 3.766c.047-.219.047-.234.14-.344.485-.64.938-.796 1.204-.796.36 0 .625.296.625.937 0 .594-.328 1.734-.516 2.11-.328.671-.781 1.03-1.172 1.03-.343 0-.671-.265-.671-1 0-.202 0-.39.156-1.015zm0 0"/></symbol></defs><use xlink:href="#f" x="222.313" y="132.136" width="744.094" height="1052.362"/><use xlink:href="#g" x="223.432" y="134.765" width="744.094" height="1052.362"/></g><g transform="matrix(7.12714 0 0 7.12714 -971.237 -541.35)" ns0:preamble="/home/waldgeist/data/sphinx/test.tex" ns0:text="$\\vec{c}$" fill="#a00"><defs><symbol id="h" overflow="visible"><path d="M5.36-5.938c-.141.141-.47.422-.47.594 0 .094.094.203.188.203s.14-.078.203-.14c.11-.14.344-.422.782-.64.062-.048.171-.095.171-.204 0-.11-.078-.156-.14-.203a1.034 1.034 0 0 1-.407-.563c-.03-.093-.062-.234-.203-.234-.14 0-.203.14-.203.219 0 .047.078.36.235.578h-3.36c-.156 0-.344 0-.344.203 0 .188.188.188.344.188zm0 0"/></symbol><symbol id="i" overflow="visible"><path d="M3.953-3.781c-.172 0-.297 0-.437.125a.53.53 0 0 0-.188.39c0 .25.188.36.375.36.281 0 .547-.25.547-.64 0-.485-.469-.86-1.172-.86-1.344 0-2.672 1.422-2.672 2.828C.406-.672.984.109 2.031.109c1.422 0 2.25-1.062 2.25-1.171 0-.063-.047-.141-.11-.141-.062 0-.077.031-.14.11-.781.984-1.875.984-1.984.984-.625 0-.906-.485-.906-1.094 0-.406.203-1.375.546-1.984.313-.579.86-1 1.407-1 .328 0 .719.125.86.406zm0 0"/></symbol></defs><use y="134.765" x="222.884" xlink:href="#h" width="744.094" height="1052.362"/><use y="134.765" x="223.432" xlink:href="#i" width="744.094" height="1052.362"/></g></svg>