<svg xmlns:ns0="http://www.iki.fi/pav/software/textext/" xmlns="http://www.w3.org/2000/svg" xmlns:xlink="http://www.w3.org/1999/xlink" width="793.701" height="1122.52" viewBox="0 0 744.09448 1052.3622"><title>Betrag eines Vektors</title><defs><marker orient="auto" id="i" overflow="visible"><path d="M-5.231-2.42L1.324-.01-5.23 2.401c1.047-1.423 1.041-3.37 0-4.821z" fill-rule="evenodd" stroke-width=".375" stroke-linejoin="round" stroke="navy" fill="navy"/></marker><marker orient="auto" id="a" overflow="visible"><path d="M2.308 0l-3.46 2v-4z" fill-rule="evenodd" stroke="#000" stroke-width=".5332"/></marker></defs><rect style="marker:none" width="657.851" height="449.675" x="43.122" y="301.344" ry="4.9" color="#000" overflow="visible" fill="#fff" stroke="#fff" stroke-width="2.396" stroke-linecap="round" stroke-linejoin="bevel"/><g transform="translate(-575.239 128.115) scale(4.62289)" fill="green"><use y="134.765" x="231.736" xlink:href="#textext-082fa4b4-3" width="744.094" height="1052.362"/><use y="134.765" x="231.736" xlink:href="#textext-082fa4b4-3" width="744.094" height="1052.362"/><g ns0:preamble="/home/waldgeist/data/sphinx/test.tex" ns0:text="$\\Delta \\vec{r} = \\vec{r}_{\\rm{2}} - \\vec{r}_{\\rm{1}} $"><use y="134.765" x="223.432" xlink:href="#textext-082fa4b4-0" width="744.094" height="1052.362"/><use y="134.765" x="231.417" xlink:href="#textext-082fa4b4-2" width="744.094" height="1052.362"/><use y="134.765" x="231.736" xlink:href="#textext-082fa4b4-3" width="744.094" height="1052.362"/><use y="134.765" x="239.273" xlink:href="#textext-082fa4b4-1" width="744.094" height="1052.362"/><use y="134.765" x="249.472" xlink:href="#textext-082fa4b4-2" width="744.094" height="1052.362"/><use y="134.765" x="249.791" xlink:href="#textext-082fa4b4-3" width="744.094" height="1052.362"/><use y="136.259" x="254.284" xlink:href="#textext-082fa4b4-4" width="744.094" height="1052.362"/><use y="134.765" x="260.967" xlink:href="#textext-082fa4b4-6" width="744.094" height="1052.362"/><use y="134.765" x="270.612" xlink:href="#textext-082fa4b4-2" width="744.094" height="1052.362"/><use y="134.765" x="270.931" xlink:href="#textext-082fa4b4-3" width="744.094" height="1052.362"/><use y="136.259" x="275.425" xlink:href="#textext-082fa4b4-5" width="744.094" height="1052.362"/></g><g ns0:preamble="/home/waldgeist/data/sphinx/test.tex" ns0:text="$\\Delta \\vec{r} = \\vec{r}_{\\rm{2}} - \\vec{r}_{\\rm{1}} $"><use y="134.765" x="223.432" xlink:href="#textext-082fa4b4-0" width="744.094" height="1052.362"/><use y="134.765" x="231.417" xlink:href="#textext-082fa4b4-2" width="744.094" height="1052.362"/><use y="134.765" x="231.736" xlink:href="#textext-082fa4b4-3" width="744.094" height="1052.362"/><use y="134.765" x="239.273" xlink:href="#textext-082fa4b4-1" width="744.094" height="1052.362"/><use y="134.765" x="249.472" xlink:href="#textext-082fa4b4-2" width="744.094" height="1052.362"/><use y="134.765" x="249.791" xlink:href="#textext-082fa4b4-3" width="744.094" height="1052.362"/><use y="136.259" x="254.284" xlink:href="#textext-082fa4b4-4" width="744.094" height="1052.362"/><use y="134.765" x="260.967" xlink:href="#textext-082fa4b4-6" width="744.094" height="1052.362"/><use y="134.765" x="270.612" xlink:href="#textext-082fa4b4-2" width="744.094" height="1052.362"/><use y="134.765" x="270.931" xlink:href="#textext-082fa4b4-3" width="744.094" height="1052.362"/><use y="136.259" x="275.425" xlink:href="#textext-082fa4b4-5" width="744.094" height="1052.362"/></g><g ns0:preamble="/home/waldgeist/data/sphinx/test.tex" ns0:text="$\\Delta \\vec{r} = \\vec{r}_{\\rm{2}} - \\vec{r}_{\\rm{1}} $"><use y="134.765" x="223.432" xlink:href="#textext-082fa4b4-0" width="744.094" height="1052.362"/><use y="134.765" x="231.417" xlink:href="#textext-082fa4b4-2" width="744.094" height="1052.362"/><use y="134.765" x="231.736" xlink:href="#textext-082fa4b4-3" width="744.094" height="1052.362"/><use y="134.765" x="239.273" xlink:href="#textext-082fa4b4-1" width="744.094" height="1052.362"/><use y="134.765" x="249.472" xlink:href="#textext-082fa4b4-2" width="744.094" height="1052.362"/><use y="134.765" x="249.791" xlink:href="#textext-082fa4b4-3" width="744.094" height="1052.362"/><use y="136.259" x="254.284" xlink:href="#textext-082fa4b4-4" width="744.094" height="1052.362"/><use y="134.765" x="260.967" xlink:href="#textext-082fa4b4-6" width="744.094" height="1052.362"/><use y="134.765" x="270.612" xlink:href="#textext-082fa4b4-2" width="744.094" height="1052.362"/><use y="134.765" x="270.931" xlink:href="#textext-082fa4b4-3" width="744.094" height="1052.362"/><use y="136.259" x="275.425" xlink:href="#textext-082fa4b4-5" width="744.094" height="1052.362"/></g></g><path d="M215.37 378.525v298.909M275.151 378.525v298.909M334.933 378.525v298.909M394.715 378.525v298.909M454.496 378.525v298.909M215.37 438.307h298.908M215.37 498.088h298.908M215.37 557.87h298.908M215.37 617.652h298.908M215.37 677.434h298.908" fill="none" stroke="#ccc" stroke-width="1.061"/><path d="M221.347 378.525v298.909M227.326 378.525v298.909M233.304 378.525v298.909M239.282 378.525v298.909M245.26 378.525v298.909M251.238 378.525v298.909M257.217 378.525v298.909M263.195 378.525v298.909M269.173 378.525v298.909M281.13 378.525v298.909M287.107 378.525v298.909M293.086 378.525v298.909M299.064 378.525v298.909M305.042 378.525v298.909M311.02 378.525v298.909M316.998 378.525v298.909M322.976 378.525v298.909M328.955 378.525v298.909M340.911 378.525v298.909M346.89 378.525v298.909M352.867 378.525v298.909M358.845 378.525v298.909M364.824 378.525v298.909M370.802 378.525v298.909M376.78 378.525v298.909M382.758 378.525v298.909M388.736 378.525v298.909M400.693 378.525v298.909M406.67 378.525v298.909M412.649 378.525v298.909M418.627 378.525v298.909M424.605 378.525v298.909M430.584 378.525v298.909M436.562 378.525v298.909M442.54 378.525v298.909M448.518 378.525v298.909M460.474 378.525v298.909M466.453 378.525v298.909M472.43 378.525v298.909M478.409 378.525v298.909M484.387 378.525v298.909M490.365 378.525v298.909M496.343 378.525v298.909M502.322 378.525v298.909M508.3 378.525v298.909M215.37 384.503h298.908M215.37 390.481h298.908M215.37 396.46h298.908M215.37 402.438h298.908M215.37 408.416h298.908M215.37 414.394h298.908M215.37 420.372h298.908M215.37 426.35h298.908M215.37 432.329h298.908M215.37 444.285h298.908M215.37 450.263h298.908M215.37 456.241h298.908M215.37 462.22h298.908M215.37 468.198h298.908M215.37 474.176h298.908M215.37 480.154h298.908M215.37 486.132h298.908M215.37 492.11h298.908M215.37 504.067h298.908M215.37 510.045h298.908M215.37 516.023h298.908M215.37 522.001h298.908M215.37 527.98h298.908M215.37 533.957h298.908M215.37 539.936h298.908M215.37 545.914h298.908M215.37 551.892h298.908M215.37 563.848h298.908M215.37 569.827h298.908M215.37 575.805h298.908M215.37 581.783h298.908M215.37 587.761h298.908M215.37 593.74h298.908M215.37 599.717h298.908M215.37 605.696h298.908M215.37 611.674h298.908M215.37 623.63h298.908M215.37 629.608h298.908M215.37 635.586h298.908M215.37 641.565h298.908M215.37 647.543h298.908M215.37 653.52h298.908M215.37 659.5h298.908M215.37 665.477h298.908M215.37 671.455h298.908" fill="none" stroke="#ccc" stroke-width=".354"/><path fill="none" stroke="#ccc" stroke-width=".75" d="M215.369 378.525h298.909v298.909H215.369z"/><path d="M195.67 335.642c.145-.435.145-.483.145-.725 0-.531-.435-.82-.918-.82-.29 0-.773.192-1.063.627-.048.193-.338 1.111-.435 1.69-.241.774-.434 1.643-.628 2.464l-1.4 5.555c-.097.435-1.45 2.609-3.478 2.609-1.546 0-1.884-1.353-1.884-2.512 0-1.4.531-3.333 1.545-6.038.483-1.256.628-1.594.628-2.222 0-1.353-.966-2.512-2.511-2.512-2.947 0-4.058 4.492-4.058 4.734 0 .338.29.338.338.338.338 0 .338-.097.483-.58.87-2.898 2.077-3.816 3.14-3.816.241 0 .773 0 .773.966 0 .773-.338 1.594-.532 2.174-1.255 3.285-1.787 5.024-1.787 6.473 0 2.753 1.932 3.671 3.768 3.671 1.208 0 2.222-.531 3.091-1.4-.386 1.593-.772 3.14-1.98 4.781-.821 1.015-1.98 1.933-3.381 1.933-.435 0-1.836-.097-2.367-1.305.483 0 .917 0 1.304-.386.338-.242.628-.676.628-1.256 0-.966-.821-1.063-1.111-1.063-.725 0-1.74.483-1.74 1.98 0 1.547 1.353 2.706 3.286 2.706 3.14 0 6.328-2.802 7.197-6.28zm0 0" fill="gray"/><path d="M227.529 557.927h-24.32M227.529 498.145h-24.32M227.529 438.363h-24.32M227.529 378.581h-24.32" fill="none" stroke="gray" stroke-width="1.558" stroke-linecap="round"/><path d="M556.391 698.84c.194-.775.92-3.628 3.047-3.628.145 0 .92 0 1.548.386-.87.194-1.451.92-1.451 1.693 0 .484.339 1.064 1.16 1.064.678 0 1.645-.532 1.645-1.79 0-1.595-1.79-2.03-2.853-2.03-1.79 0-2.854 1.644-3.241 2.321-.774-2.031-2.418-2.322-3.337-2.322-3.193 0-4.982 3.966-4.982 4.74 0 .339.338.339.387.339.242 0 .338-.097.387-.339 1.064-3.289 3.095-4.062 4.16-4.062.58 0 1.644.29 1.644 2.08 0 .967-.532 2.998-1.645 7.351-.483 1.886-1.596 3.192-2.95 3.192-.194 0-.87 0-1.548-.387.774-.193 1.451-.822 1.451-1.692 0-.823-.677-1.065-1.112-1.065-.968 0-1.693.774-1.693 1.79 0 1.403 1.5 2.031 2.854 2.031 2.08 0 3.192-2.176 3.24-2.321a3.462 3.462 0 0 0 3.337 2.321c3.193 0 4.934-3.966 4.934-4.74 0-.338-.242-.338-.339-.338-.29 0-.338.145-.435.338-1.016 3.338-3.095 4.063-4.063 4.063-1.209 0-1.693-.967-1.693-2.031 0-.677.145-1.354.484-2.709zm0 0" fill="gray"/><path id="h" d="M215.37 677.434h339.94" fill="none" stroke="gray" stroke-width="2.112" marker-end="url(#a)"/><path d="M275.151 665.164v23.913" id="b" fill="none" stroke="gray" stroke-width="2" stroke-linecap="round"/><use height="1052.362" width="744.094" transform="translate(59.782 -.483)" xlink:href="#b" stroke="gray" stroke-linecap="round"/><use height="1052.362" width="744.094" transform="translate(119.563)" xlink:href="#b" stroke="gray" stroke-linecap="round"/><use height="1052.362" width="744.094" transform="translate(179.345)" xlink:href="#b" stroke="gray" stroke-linecap="round"/><use xlink:href="#b" transform="translate(239.127 -.667)" width="1052.362" height="744.094" stroke="gray" stroke-linecap="round"/><g ns0:text="$1$" ns0:preamble="/home/waldgeist/data/sphinx/test.tex" transform="matrix(2.03393 0 0 2.03393 -184.517 434.158)" fill="#4d4d4d" stroke="green" stroke-width="1.475"><defs><symbol overflow="visible" id="c"><path d="M2.938-6.375c0-.25 0-.266-.235-.266C2.078-6 1.203-6 .891-6v.313c.203 0 .78 0 1.296-.266v5.172c0 .36-.03.469-.921.469H.953V0c.344-.031 1.203-.031 1.61-.031.39 0 1.265 0 1.609.031v-.313h-.313c-.906 0-.921-.109-.921-.468zm0 0" stroke="none"/></symbol></defs><use xlink:href="#c" x="223.432" y="134.765" width="744.094" height="1052.362"/></g><g ns0:text="$2$" ns0:preamble="/home/waldgeist/data/sphinx/test.tex" transform="matrix(2.03393 0 0 2.03393 -124.636 434.158)" fill="#4d4d4d" stroke="green" stroke-width="1.475"><defs><symbol overflow="visible" id="d"><path d="M1.266-.766l1.062-1.03c1.547-1.376 2.14-1.907 2.14-2.907 0-1.14-.89-1.938-2.109-1.938C1.234-6.64.5-5.719.5-4.828c0 .547.5.547.531.547.172 0 .516-.11.516-.532a.513.513 0 0 0-.531-.515c-.079 0-.094 0-.125.016.218-.657.765-1.016 1.343-1.016.907 0 1.329.812 1.329 1.625 0 .797-.485 1.578-1.047 2.203L.609-.375C.5-.265.5-.235.5 0h3.703l.266-1.734h-.235C4.172-1.438 4.11-1 4-.844c-.063.078-.719.078-.938.078zm0 0" stroke="none"/></symbol></defs><use height="1052.362" width="744.094" transform="translate(-.019)" xlink:href="#d" x="223.432" y="134.765"/></g><g transform="matrix(2.03393 0 0 2.03393 -65.373 433.935)" ns0:preamble="/home/waldgeist/data/sphinx/test.tex" ns0:text="$3$" fill="#4d4d4d" stroke="green" stroke-width="1.475"><defs><symbol id="e" overflow="visible"><path d="M2.89-3.516c.813-.265 1.391-.953 1.391-1.75 0-.812-.875-1.375-1.828-1.375-1 0-1.765.594-1.765 1.36 0 .328.218.515.515.515.297 0 .5-.218.5-.515 0-.485-.469-.485-.61-.485.298-.5.954-.625 1.313-.625.422 0 .969.22.969 1.11 0 .125-.031.703-.281 1.14-.297.485-.64.516-.89.516a3.29 3.29 0 0 1-.392.031c-.078.016-.14.031-.14.125 0 .11.062.11.234.11h.438c.812 0 1.187.671 1.187 1.656 0 1.36-.687 1.64-1.125 1.64-.437 0-1.187-.171-1.531-.75.344.047.656-.171.656-.546a.537.537 0 0 0-.547-.563c-.25 0-.562.14-.562.578C.422-.437 1.344.22 2.437.22c1.22 0 2.126-.906 2.126-1.922 0-.813-.641-1.594-1.672-1.813zm0 0" stroke="none"/></symbol></defs><use y="134.765" x="223.432" xlink:href="#e" width="744.094" height="1052.362"/></g><g ns0:text="$4$" ns0:preamble="/home/waldgeist/data/sphinx/test.tex" transform="matrix(2.03393 0 0 2.03393 -7.275 434.27)" fill="#4d4d4d" stroke="green" stroke-width="1.475"><defs><symbol overflow="visible" id="f"><path d="M2.938-1.64v.859c0 .36-.032.469-.766.469h-.203V0c.406-.031.922-.031 1.343-.031.422 0 .938 0 1.36.031v-.313h-.219c-.734 0-.75-.109-.75-.468v-.86h.985v-.312h-.985v-4.531c0-.204 0-.266-.172-.266-.078 0-.11 0-.187.125L.28-1.953v.312zm.046-.313H.563l2.421-3.719zm0 0" stroke="none"/></symbol></defs><use height="1052.362" width="744.094" xlink:href="#f" x="223.432" y="134.765"/></g><g transform="matrix(2.03393 0 0 2.03393 54.693 433.935)" ns0:preamble="/home/waldgeist/data/sphinx/test.tex" ns0:text="$5$" fill="#4d4d4d" stroke="green" stroke-width="1.475"><defs><symbol id="g" overflow="visible"><path d="M4.469-2c0-1.188-.813-2.188-1.89-2.188-.47 0-.907.157-1.267.516v-1.953c.204.063.532.125.844.125 1.235 0 1.938-.906 1.938-1.031 0-.063-.032-.11-.11-.11 0 0-.03 0-.078.032a3.22 3.22 0 0 1-1.36.296c-.39 0-.858-.078-1.327-.28-.078-.032-.094-.032-.11-.032C1-6.625 1-6.547 1-6.391v2.954c0 .171 0 .25.14.25.079 0 .094-.016.141-.079.11-.156.469-.703 1.282-.703.515 0 .765.453.843.64.156.376.188.75.188 1.25 0 .36 0 .954-.25 1.376-.235.39-.61.64-1.063.64-.719 0-1.297-.53-1.469-1.109.032 0 .063.016.172.016.329 0 .5-.25.5-.485 0-.25-.171-.5-.5-.5-.14 0-.484.079-.484.532C.5-.75 1.188.219 2.297.219 3.453.219 4.469-.734 4.469-2zm0 0" stroke="none"/></symbol></defs><use y="134.765" x="223.432" xlink:href="#g" width="744.094" height="1052.362"/></g><use height="1052.362" width="744.094" y="134.765" x="223.432" xlink:href="#c" transform="matrix(2.03393 0 0 2.03393 -266.174 350.36)" ns0:preamble="/home/waldgeist/data/sphinx/test.tex" ns0:text="$1$" fill="#4d4d4d" stroke="green" stroke-width="1.475"/><use y="134.765" x="223.432" xlink:href="#d" transform="matrix(2.03393 0 0 2.03393 -266.953 290.578)" width="744.094" height="1052.362" ns0:preamble="/home/waldgeist/data/sphinx/test.tex" ns0:text="$2$" fill="#4d4d4d" stroke="green" stroke-width="1.475"/><use height="1052.362" width="744.094" xlink:href="#e" x="223.432" y="134.765" transform="matrix(2.03393 0 0 2.03393 -267.187 230.573)" ns0:text="$3$" ns0:preamble="/home/waldgeist/data/sphinx/test.tex" fill="#4d4d4d" stroke="green" stroke-width="1.475"/><use y="134.765" x="223.432" xlink:href="#f" width="744.094" height="1052.362" transform="matrix(2.03393 0 0 2.03393 -267.509 171.125)" ns0:preamble="/home/waldgeist/data/sphinx/test.tex" ns0:text="$4$" fill="#4d4d4d" stroke="green" stroke-width="1.475"/><use height="1052.362" width="744.094" xlink:href="#g" x="223.432" y="134.765" transform="matrix(2.03393 0 0 2.03393 -266.953 111.01)" ns0:text="$5$" ns0:preamble="/home/waldgeist/data/sphinx/test.tex" fill="#4d4d4d" stroke="green" stroke-width="1.475"/><use xlink:href="#h" transform="rotate(-90 215.37 677.434)" width="744.094" height="1052.362" stroke="gray"/><path d="M227.529 617.652h-24.32" fill="none" stroke="gray" stroke-width="1.558" stroke-linecap="round"/><path d="M454.496 677.434V498.088" fill="green" stroke="navy" stroke-width="3" stroke-linecap="round" stroke-dasharray="2.12132025,4.2426405"/><path d="M215.36 677.443l236.906-177.68" fill="navy" stroke="navy" stroke-width="3" stroke-linecap="round" marker-end="url(#i)"/><path d="M215.37 677.434h239.126" fill="green" stroke="navy" stroke-width="3" stroke-linecap="round" stroke-dasharray="2.44948958,4.89897917"/><g transform="matrix(3.49037 0 0 3.49037 -439.702 142.769)" ns0:text="$\\vec{a}_{\\rm{}}$" fill="navy" stroke="green" stroke-width="1.311"><defs><symbol id="j" overflow="visible"><path d="M5.36-5.938c-.141.141-.47.422-.47.594 0 .094.094.203.188.203s.14-.078.203-.14c.11-.14.344-.422.782-.64.062-.048.171-.095.171-.204 0-.11-.078-.156-.14-.203a1.034 1.034 0 0 1-.407-.563c-.03-.093-.062-.234-.203-.234-.14 0-.203.14-.203.219 0 .047.078.36.235.578h-3.36c-.156 0-.344 0-.344.203 0 .188.188.188.344.188zm0 0" stroke="none"/></symbol><symbol id="k" overflow="visible"><path d="M3.719-3.766c-.188-.375-.469-.64-.922-.64-1.156 0-2.39 1.468-2.39 2.922C.406-.547.952.109 1.718.109c.203 0 .703-.046 1.297-.75a.91.91 0 0 0 .906.75c.36 0 .578-.234.75-.546a6.49 6.49 0 0 0 .297-.985c0-.11-.094-.11-.125-.11-.094 0-.11.048-.14.188-.173.64-.345 1.235-.75 1.235-.282 0-.298-.266-.298-.454 0-.218.016-.312.125-.75.11-.406.125-.515.219-.89l.36-1.39c.062-.282.062-.298.062-.345 0-.171-.11-.265-.281-.265-.25 0-.391.219-.422.437zm-.64 2.579c-.063.187-.063.203-.204.375-.438.546-.844.703-1.125.703-.5 0-.64-.547-.64-.938 0-.5.312-1.719.546-2.187.313-.579.75-.954 1.157-.954.64 0 .78.813.78.875a.562.562 0 0 1-.03.172zm0 0" stroke="none"/></symbol></defs><use y="134.765" x="222.808" xlink:href="#j" width="744.094" height="1052.362"/><use y="134.765" x="223.436" xlink:href="#k" width="744.094" height="1052.362"/></g><g ns0:text="$a_{\\rm{x}}$" transform="matrix(3.49037 0 0 3.49037 -447.808 260.359)" fill="navy" stroke="green" stroke-width="1.311"><defs><symbol overflow="visible" id="l"><path d="M3.719-3.766c-.188-.375-.469-.64-.922-.64-1.156 0-2.39 1.468-2.39 2.922C.406-.547.952.109 1.718.109c.203 0 .703-.046 1.297-.75a.91.91 0 0 0 .906.75c.36 0 .578-.234.75-.546a6.49 6.49 0 0 0 .297-.985c0-.11-.094-.11-.125-.11-.094 0-.11.048-.14.188-.173.64-.345 1.235-.75 1.235-.282 0-.298-.266-.298-.454 0-.218.016-.312.125-.75.11-.406.125-.515.219-.89l.36-1.39c.062-.282.062-.298.062-.345 0-.171-.11-.265-.281-.265-.25 0-.391.219-.422.437zm-.64 2.579c-.063.187-.063.203-.204.375-.438.546-.844.703-1.125.703-.5 0-.64-.547-.64-.938 0-.5.312-1.719.546-2.187.313-.579.75-.954 1.157-.954.64 0 .78.813.78.875a.562.562 0 0 1-.03.172zm0 0" stroke="none"/></symbol><symbol overflow="visible" id="m"><path d="M2.36-1.563l-.047-.062c0-.031.453-.516.515-.578.25-.281.485-.547 1.047-.547V-3c-.203.016-.406.031-.594.031-.203 0-.484-.015-.687-.031v.25c.11.016.14.094.14.156 0 .016 0 .125-.109.235l-.484.546-.579-.656c-.078-.078-.078-.11-.078-.14 0-.094.094-.141.188-.141V-3c-.25.016-.516.031-.781.031-.204 0-.47-.015-.672-.031v.25c.312 0 .5 0 .687.203l.86 1c.015.016.062.063.062.078 0 .016-.531.594-.594.672-.265.281-.5.531-1.046.547V0C.39-.016.546-.031.765-.031c.203 0 .484.015.687.031v-.25c-.078-.016-.14-.063-.14-.156 0-.14.078-.235.187-.344l.5-.547.594.703c.14.14.14.156.14.203 0 .125-.156.141-.187.141V0c.062 0 .562-.031.781-.031.219 0 .453.015.672.031v-.25c-.469 0-.516-.047-.688-.219zm0 0" stroke="none"/></symbol></defs><use xlink:href="#l" x="223.432" y="134.765" width="744.094" height="1052.362"/><use xlink:href="#m" x="228.698" y="136.259" width="744.094" height="1052.362"/></g><g transform="matrix(3.49037 0 0 3.49037 -316.025 124.378)" ns0:text="$a_{\\rm{y}}$" fill="navy" stroke="green" stroke-width="1.311"><defs><symbol id="n" overflow="visible"><path d="M3.719-3.766c-.188-.375-.469-.64-.922-.64-1.156 0-2.39 1.468-2.39 2.922C.406-.547.952.109 1.718.109c.203 0 .703-.046 1.297-.75a.91.91 0 0 0 .906.75c.36 0 .578-.234.75-.546a6.49 6.49 0 0 0 .297-.985c0-.11-.094-.11-.125-.11-.094 0-.11.048-.14.188-.173.64-.345 1.235-.75 1.235-.282 0-.298-.266-.298-.454 0-.218.016-.312.125-.75.11-.406.125-.515.219-.89l.36-1.39c.062-.282.062-.298.062-.345 0-.171-.11-.265-.281-.265-.25 0-.391.219-.422.437zm-.64 2.579c-.063.187-.063.203-.204.375-.438.546-.844.703-1.125.703-.5 0-.64-.547-.64-.938 0-.5.312-1.719.546-2.187.313-.579.75-.954 1.157-.954.64 0 .78.813.78.875a.562.562 0 0 1-.03.172zm0 0" stroke="none"/></symbol><symbol id="o" overflow="visible"><path d="M3.297-2.328c.187-.422.547-.422.656-.422V-3c-.187.016-.328.031-.531.031-.188 0-.438-.015-.625-.031v.25c.234.016.281.156.281.266 0 .078-.031.14-.062.218L2.25-.625l-.86-1.828a.252.252 0 0 1-.046-.14c0-.157.234-.157.36-.157V-3c-.11 0-.61.031-.798.031C.687-2.969.422-2.984.22-3v.25c.39 0 .469.016.562.234L1.953 0c-.062.14-.125.266-.187.406-.157.344-.375.813-.86.813-.172 0-.219-.032-.297-.078.016 0 .204-.063.204-.297A.287.287 0 0 0 .516.547C.328.547.203.672.203.844c0 .328.328.578.703.578.594 0 .938-.625 1.031-.828zm0 0" stroke="none"/></symbol></defs><use y="134.765" x="223.432" xlink:href="#n" width="744.094" height="1052.362"/><use y="136.259" x="228.698" xlink:href="#o" width="744.094" height="1052.362"/></g><path d="M208.223 666.564l238.143-178.618" fill="navy" stroke="navy" stroke-width="3" stroke-linecap="round" stroke-dasharray="3.00000003,6.00000008"/><path d="M202.82 660.58l10.21 13.848M441.958 481.254l10.21 13.847" fill="none" stroke="navy" stroke-width="2" stroke-linecap="round"/><g ns0:text="$| \\vec{a}_{\\rm{}} |$" transform="matrix(3.49037 0 0 3.49037 -489.547 90.563)" fill="navy" stroke="green" stroke-width="1.311"><defs><symbol overflow="visible" id="p"><path d="M1.578-7.125c0-.172 0-.36-.187-.36-.204 0-.204.188-.204.36v9.266c0 .171 0 .359.204.359.187 0 .187-.188.187-.36zm0 0" stroke="none"/></symbol><symbol overflow="visible" id="q"><path d="M5.36-5.938c-.141.141-.47.422-.47.594 0 .094.094.203.188.203s.14-.078.203-.14c.11-.14.344-.422.782-.64.062-.048.171-.095.171-.204 0-.11-.078-.156-.14-.203a1.034 1.034 0 0 1-.407-.563c-.03-.093-.062-.234-.203-.234-.14 0-.203.14-.203.219 0 .047.078.36.235.578h-3.36c-.156 0-.344 0-.344.203 0 .188.188.188.344.188zm0 0" stroke="none"/></symbol><symbol overflow="visible" id="r"><path d="M3.719-3.766c-.188-.375-.469-.64-.922-.64-1.156 0-2.39 1.468-2.39 2.922C.406-.547.952.109 1.718.109c.203 0 .703-.046 1.297-.75a.91.91 0 0 0 .906.75c.36 0 .578-.234.75-.546a6.49 6.49 0 0 0 .297-.985c0-.11-.094-.11-.125-.11-.094 0-.11.048-.14.188-.173.64-.345 1.235-.75 1.235-.282 0-.298-.266-.298-.454 0-.218.016-.312.125-.75.11-.406.125-.515.219-.89l.36-1.39c.062-.282.062-.298.062-.345 0-.171-.11-.265-.281-.265-.25 0-.391.219-.422.437zm-.64 2.579c-.063.187-.063.203-.204.375-.438.546-.844.703-1.125.703-.5 0-.64-.547-.64-.938 0-.5.312-1.719.546-2.187.313-.579.75-.954 1.157-.954.64 0 .78.813.78.875a.562.562 0 0 1-.03.172zm0 0" stroke="none"/></symbol></defs><use height="1052.362" width="744.094" xlink:href="#p" x="223.432" y="134.765"/><use height="1052.362" width="744.094" xlink:href="#q" x="225.576" y="134.765"/><use height="1052.362" width="744.094" xlink:href="#r" x="226.204" y="134.765"/><use height="1052.362" width="744.094" xlink:href="#p" x="231.964" y="134.765"/></g><path d="M433.976 677.434a20.52 20.52 0 0 1 20.52-20.521" fill="none" stroke="navy" stroke-width="2.9995865999999998" stroke-linecap="round"/><circle transform="matrix(.17391 0 0 .17391 369.953 546.859)" cx="435.344" cy="698.917" r="5.557" fill="none" stroke="navy" stroke-width="17.25" stroke-linecap="round"/><g transform="matrix(3.49037 0 0 3.49037 -598.033 237.399)" ns0:text="$\\mathrm{O}$" fill="gray" stroke="gray" stroke-width="1.311"><defs><symbol id="s" overflow="visible"><path d="M7.188-3.375c0-2.031-1.5-3.656-3.313-3.656-1.797 0-3.313 1.593-3.313 3.656C.563-1.328 2.095.219 3.876.219c1.813 0 3.313-1.578 3.313-3.594zM3.874-.047c-.953 0-2.297-.875-2.297-3.469 0-2.578 1.469-3.265 2.297-3.265.86 0 2.281.703 2.281 3.265 0 2.641-1.36 3.47-2.281 3.47zm0 0" stroke="none"/></symbol></defs><use y="134.765" x="223.432" xlink:href="#s" width="744.094" height="1052.362" stroke-width="1.311"/></g><g transform="matrix(3.49037 0 0 3.49037 -309.235 26.247)" ns0:preamble="/home/waldgeist/data/sphinx/inkscape-preamble.tex" ns0:text="$\\mathrm{A} (a_{\\rm{x}} , a _{\\rm{y}})$" fill="gray" stroke="gray" stroke-width="1.311"><defs><symbol id="t" overflow="visible"><path d="M3.969-6.938c-.047-.125-.078-.203-.235-.203-.156 0-.187.063-.234.204L1.437-.984C1.25-.47.86-.313.313-.313V0c.235-.016.672-.031 1.016-.031.313 0 .828.015 1.156.031v-.313c-.5 0-.75-.25-.75-.5 0-.03.016-.14.016-.156l.469-1.297h2.453L5.203-.75a.58.58 0 0 1 .031.14c0 .297-.562.297-.828.297V0c.36-.031 1.063-.031 1.438-.031.422 0 .89.015 1.297.031v-.313h-.172c-.594 0-.735-.062-.844-.39zm-.531 1.11l1.124 3.25H2.329z" stroke="none"/></symbol><symbol id="u" overflow="visible"><path d="M3.297 2.39c0-.03 0-.046-.172-.218C1.891.922 1.562-.968 1.562-2.5c0-1.734.375-3.469 1.61-4.703.125-.125.125-.14.125-.172 0-.078-.031-.11-.094-.11-.11 0-1 .688-1.594 1.954C1.11-4.438.984-3.328.984-2.5c0 .781.11 1.984.657 3.125C2.25 1.844 3.094 2.5 3.203 2.5c.063 0 .094-.031.094-.11z" stroke="none"/></symbol><symbol id="z" overflow="visible"><path d="M2.875-2.5c0-.766-.11-1.969-.656-3.11C1.625-6.827.766-7.483.672-7.483a.107.107 0 0 0-.11.109c0 .031 0 .047.188.234.984.985 1.547 2.563 1.547 4.641 0 1.719-.36 3.469-1.594 4.719-.14.125-.14.14-.14.172 0 .062.046.109.109.109.094 0 1-.688 1.578-1.953.516-1.094.625-2.203.625-3.047z" stroke="none"/></symbol><symbol id="v" overflow="visible"><path d="M3.719-3.766c-.188-.375-.469-.64-.922-.64-1.156 0-2.39 1.468-2.39 2.922C.406-.547.952.109 1.718.109c.203 0 .703-.046 1.297-.75a.91.91 0 0 0 .906.75c.36 0 .578-.234.75-.546a6.49 6.49 0 0 0 .297-.985c0-.11-.094-.11-.125-.11-.094 0-.11.048-.14.188-.173.64-.345 1.235-.75 1.235-.282 0-.298-.266-.298-.454 0-.218.016-.312.125-.75.11-.406.125-.515.219-.89l.36-1.39c.062-.282.062-.298.062-.345 0-.171-.11-.265-.281-.265-.25 0-.391.219-.422.437zm-.64 2.579c-.063.187-.063.203-.204.375-.438.546-.844.703-1.125.703-.5 0-.64-.547-.64-.938 0-.5.312-1.719.546-2.187.313-.579.75-.954 1.157-.954.64 0 .78.813.78.875a.562.562 0 0 1-.03.172z" stroke="none"/></symbol><symbol id="x" overflow="visible"><path d="M2.031-.016c0-.656-.25-1.046-.64-1.046a.517.517 0 0 0-.532.53c0 .266.204.532.532.532a.58.58 0 0 0 .343-.125c.032-.031.047-.031.047-.031.016 0 .016 0 .016.14 0 .75-.344 1.344-.672 1.672-.11.11-.11.125-.11.157 0 .078.048.109.094.109.11 0 .922-.766.922-1.938z" stroke="none"/></symbol><symbol id="w" overflow="visible"><path d="M2.36-1.563l-.047-.062c0-.031.453-.516.515-.578.25-.281.485-.547 1.047-.547V-3c-.203.016-.406.031-.594.031-.203 0-.484-.015-.687-.031v.25c.11.016.14.094.14.156 0 .016 0 .125-.109.235l-.484.546-.579-.656c-.078-.078-.078-.11-.078-.14 0-.094.094-.141.188-.141V-3c-.25.016-.516.031-.781.031-.204 0-.47-.015-.672-.031v.25c.312 0 .5 0 .687.203l.86 1c.015.016.062.063.062.078 0 .016-.531.594-.594.672-.265.281-.5.531-1.046.547V0C.39-.016.546-.031.765-.031c.203 0 .484.015.687.031v-.25c-.078-.016-.14-.063-.14-.156 0-.14.078-.235.187-.344l.5-.547.594.703c.14.14.14.156.14.203 0 .125-.156.141-.187.141V0c.062 0 .562-.031.781-.031.219 0 .453.015.672.031v-.25c-.469 0-.516-.047-.688-.219z" stroke="none"/></symbol><symbol id="y" overflow="visible"><path d="M3.297-2.328c.187-.422.547-.422.656-.422V-3c-.187.016-.328.031-.531.031-.188 0-.438-.015-.625-.031v.25c.234.016.281.156.281.266 0 .078-.031.14-.062.218L2.25-.625l-.86-1.828a.252.252 0 0 1-.046-.14c0-.157.234-.157.36-.157V-3c-.11 0-.61.031-.798.031C.687-2.969.422-2.984.22-3v.25c.39 0 .469.016.562.234L1.953 0c-.062.14-.125.266-.187.406-.157.344-.375.813-.86.813-.172 0-.219-.032-.297-.078.016 0 .204-.063.204-.297A.287.287 0 0 0 .516.547C.328.547.203.672.203.844c0 .328.328.578.703.578.594 0 .938-.625 1.031-.828z" stroke="none"/></symbol></defs><use y="134.765" x="223.432" xlink:href="#t" width="100%" height="100%"/><use y="134.765" x="230.904" xlink:href="#u" width="100%" height="100%"/><use y="134.765" x="234.778" xlink:href="#v" width="100%" height="100%"/><use y="136.259" x="240.045" xlink:href="#w" width="100%" height="100%"/><use y="134.765" x="244.728" xlink:href="#x" width="100%" height="100%"/><use y="134.765" x="249.159" xlink:href="#v" width="100%" height="100%"/><use y="136.259" x="254.422" xlink:href="#y" width="100%" height="100%"/><g><use y="134.765" x="259.213" xlink:href="#z" width="100%" height="100%"/></g></g></svg>