<svg xmlns:ns0="http://www.iki.fi/pav/software/textext/" xmlns="http://www.w3.org/2000/svg" xmlns:xlink="http://www.w3.org/1999/xlink" width="793.701" height="1122.52" viewBox="0 0 744.09448 1052.3622"><title>Gleichheit zweier Vektor</title><defs><marker id="a" orient="auto" overflow="visible"><path d="M-5.231-2.42L1.324-.01-5.23 2.401c1.047-1.423 1.041-3.37 0-4.821z" fill-rule="evenodd" stroke-width=".375" stroke-linejoin="round" stroke="navy" fill="navy"/></marker><marker id="b" orient="auto" overflow="visible"><path d="M-5.231-2.42L1.324-.01-5.23 2.401c1.047-1.423 1.041-3.37 0-4.821z" fill-rule="evenodd" stroke-width=".375" stroke-linejoin="round" stroke="navy" fill="navy"/></marker></defs><rect style="marker:none" width="657.851" height="316.921" x="43.122" y="367.72" ry="3.454" color="#000" overflow="visible" fill="#fff" stroke="#fff" stroke-width="2.396" stroke-linecap="round" stroke-linejoin="bevel"/><g stroke="navy" stroke-width="3"><path d="M87.923 558.689l269.686-74.815" fill="none" marker-end="url(#a)" transform="translate(66.17 87)"/><path d="M151.118 634.587l5.95 22.203" fill="gray" stroke-linecap="round"/></g><g stroke="navy"><path d="M387.139 558.689l269.686-74.815" fill="none" stroke-width="3.001" marker-end="url(#b)" transform="translate(-66.17 -87)"/><path d="M317.995 460.587l5.949 22.203" fill="gray" stroke-width="3" stroke-linecap="round"/></g><g transform="matrix(3.37375 0 0 3.37375 -464.918 183.9)" ns0:text="$\\vec{a}$" fill="navy" stroke="#000"><defs><symbol id="c" overflow="visible"><path d="M5.36-5.938c-.141.141-.47.422-.47.594 0 .094.094.203.188.203s.14-.078.203-.14c.11-.14.344-.422.782-.64.062-.048.171-.095.171-.204 0-.11-.078-.156-.14-.203a1.034 1.034 0 0 1-.407-.563c-.03-.093-.062-.234-.203-.234-.14 0-.203.14-.203.219 0 .047.078.36.235.578h-3.36c-.156 0-.344 0-.344.203 0 .188.188.188.344.188zm0 0" stroke="none"/></symbol><symbol id="d" overflow="visible"><path d="M3.719-3.766c-.188-.375-.469-.64-.922-.64-1.156 0-2.39 1.468-2.39 2.922C.406-.547.952.109 1.718.109c.203 0 .703-.046 1.297-.75a.91.91 0 0 0 .906.75c.36 0 .578-.234.75-.546a6.49 6.49 0 0 0 .297-.985c0-.11-.094-.11-.125-.11-.094 0-.11.048-.14.188-.173.64-.345 1.235-.75 1.235-.282 0-.298-.266-.298-.454 0-.218.016-.312.125-.75.11-.406.125-.515.219-.89l.36-1.39c.062-.282.062-.298.062-.345 0-.171-.11-.265-.281-.265-.25 0-.391.219-.422.437zm-.64 2.579c-.063.187-.063.203-.204.375-.438.546-.844.703-1.125.703-.5 0-.64-.547-.64-.938 0-.5.312-1.719.546-2.187.313-.579.75-.954 1.157-.954.64 0 .78.813.78.875a.562.562 0 0 1-.03.172zm0 0" stroke="none"/></symbol></defs><use height="100%" width="100%" y="134.765" x="222.808" xlink:href="#c"/><use height="100%" width="100%" y="134.765" x="223.436" xlink:href="#d"/></g><g transform="matrix(3.37375 0 0 3.37375 55.094 183.204)" ns0:preamble="/home/waldgeist/data/homepage/inkscape-preamble.tex" ns0:text="$\\vec{a}$" fill="navy" stroke="#000"><defs><symbol id="e" overflow="visible"><path d="M5.36-5.938c-.141.141-.47.422-.47.594 0 .094.094.203.188.203s.14-.078.203-.14c.11-.14.344-.422.782-.64.062-.048.171-.095.171-.204 0-.11-.078-.156-.14-.203a1.034 1.034 0 0 1-.407-.563c-.03-.093-.062-.234-.203-.234-.14 0-.203.14-.203.219 0 .047.078.36.235.578h-3.36c-.156 0-.344 0-.344.203 0 .188.188.188.344.188zm0 0" stroke="none"/></symbol><symbol id="f" overflow="visible"><path d="M3.719-3.766c-.188-.375-.469-.64-.922-.64-1.156 0-2.39 1.468-2.39 2.922C.406-.547.952.109 1.718.109c.203 0 .703-.046 1.297-.75a.91.91 0 0 0 .906.75c.36 0 .578-.234.75-.546a6.49 6.49 0 0 0 .297-.985c0-.11-.094-.11-.125-.11-.094 0-.11.048-.14.188-.173.64-.345 1.235-.75 1.235-.282 0-.298-.266-.298-.454 0-.218.016-.312.125-.75.11-.406.125-.515.219-.89l.36-1.39c.062-.282.062-.298.062-.345 0-.171-.11-.265-.281-.265-.25 0-.391.219-.422.437zm-.64 2.579c-.063.187-.063.203-.204.375-.438.546-.844.703-1.125.703-.5 0-.64-.547-.64-.938 0-.5.312-1.719.546-2.187.313-.579.75-.954 1.157-.954.64 0 .78.813.78.875a.562.562 0 0 1-.03.172zm0 0" stroke="none"/></symbol></defs><use y="83.403" x="118.177" xlink:href="#e" width="100%" height="100%"/><use y="83.403" x="118.805" xlink:href="#f" width="100%" height="100%"/></g></svg>