<?xml version="1.0" encoding="UTF-8" standalone="no"?>
<!-- Created with Inkscape (http://www.inkscape.org/) -->

<svg
   xmlns:ns0="http://www.iki.fi/pav/software/textext/"
   xmlns:dc="http://purl.org/dc/elements/1.1/"
   xmlns:cc="http://creativecommons.org/ns#"
   xmlns:rdf="http://www.w3.org/1999/02/22-rdf-syntax-ns#"
   xmlns:svg="http://www.w3.org/2000/svg"
   xmlns="http://www.w3.org/2000/svg"
   xmlns:xlink="http://www.w3.org/1999/xlink"
   xmlns:sodipodi="http://sodipodi.sourceforge.net/DTD/sodipodi-0.dtd"
   xmlns:inkscape="http://www.inkscape.org/namespaces/inkscape"
   width="210mm"
   height="297mm"
   id="svg2"
   version="1.1"
   inkscape:version="0.48.3.1 r9886"
   sodipodi:docname="vektor-produkt-mit-skalar.svg">
  <sodipodi:namedview
     id="base"
     pagecolor="#ffffff"
     bordercolor="#666666"
     borderopacity="1.0"
     inkscape:pageopacity="0.0"
     inkscape:pageshadow="2"
     inkscape:zoom="0.79572448"
     inkscape:cx="402.00283"
     inkscape:cy="590.58448"
     inkscape:document-units="px"
     inkscape:current-layer="layer1"
     showgrid="false"
     inkscape:window-width="1280"
     inkscape:window-height="974"
     inkscape:window-x="0"
     inkscape:window-y="0"
     inkscape:window-maximized="1"
     showguides="false"
     inkscape:guide-bbox="true"
     inkscape:snap-nodes="true"
     inkscape:object-paths="true"
     inkscape:object-nodes="true"
     inkscape:snap-smooth-nodes="true"
     inkscape:snap-midpoints="true">
    <sodipodi:guide
       id="guide22644"
       position="345.99383,487.78405"
       orientation="-0.26731968,0.9636079" />
    <sodipodi:guide
       id="guide8703"
       position="-154.62209,534.95688"
       orientation="-0.96360713,-0.26732247" />
    <sodipodi:guide
       id="guide8747"
       position="101.20075,336.14611"
       orientation="1,0" />
  </sodipodi:namedview>
  <title
     id="title8861">Produkt eines Vektors mit einem Skalar</title>
  <defs
     id="defs4">
    <marker
       inkscape:stockid="StopL"
       orient="auto"
       refY="0.0"
       refX="0.0"
       id="StopL"
       style="overflow:visible">
      <path
         id="path3928"
         d="M 0.0,5.65 L 0.0,-5.65"
         style="fill:none;fill-opacity:0.75000000;fill-rule:evenodd;stroke:#000000;stroke-width:1.0pt"
         transform="scale(0.8)" />
    </marker>
    <marker
       inkscape:stockid="Arrow1Lend"
       orient="auto"
       refY="0.0"
       refX="0.0"
       id="Arrow1Lend"
       style="overflow:visible;">
      <path
         id="path3762"
         d="M 0.0,0.0 L 5.0,-5.0 L -12.5,0.0 L 5.0,5.0 L 0.0,0.0 z "
         style="fill-rule:evenodd;stroke:#000000;stroke-width:1.0pt;"
         transform="scale(0.8) rotate(180) translate(12.5,0)" />
    </marker>
    <marker
       inkscape:stockid="Arrow2Mend"
       orient="auto"
       refY="0.0"
       refX="0.0"
       id="Arrow2Mend"
       style="overflow:visible;">
      <path
         id="path3786"
         style="fill-rule:evenodd;stroke-width:0.62500000;stroke-linejoin:round;"
         d="M 8.7185878,4.0337352 L -2.2072895,0.016013256 L 8.7185884,-4.0017078 C 6.9730900,-1.6296469 6.9831476,1.6157441 8.7185878,4.0337352 z "
         transform="scale(0.6) rotate(180) translate(0,0)" />
    </marker>
    <marker
       style="overflow:visible"
       id="Arrow2Mend-5"
       refX="0"
       refY="0"
       orient="auto"
       inkscape:stockid="Arrow2Mend">
      <path
         inkscape:connector-curvature="0"
         transform="scale(-0.6,-0.6)"
         d="M 8.7185878,4.0337352 -2.2072895,0.01601326 8.7185884,-4.0017078 c -1.7454984,2.3720609 -1.7354408,5.6174519 -6e-7,8.035443 z"
         style="fill-rule:evenodd;stroke-width:0.625;stroke-linejoin:round"
         id="path3786-0" />
    </marker>
  </defs>
  <metadata
     id="metadata7">
    <rdf:RDF>
      <cc:Work
         rdf:about="">
        <dc:format>image/svg+xml</dc:format>
        <dc:type
           rdf:resource="http://purl.org/dc/dcmitype/StillImage" />
        <dc:title>Produkt eines Vektors mit einem Skalar</dc:title>
        <dc:date>2013-10-22</dc:date>
        <dc:creator>
          <cc:Agent>
            <dc:title>Bernhard Grotz</dc:title>
          </cc:Agent>
        </dc:creator>
        <dc:rights>
          <cc:Agent>
            <dc:title>Bernhard Grotz</dc:title>
          </cc:Agent>
        </dc:rights>
        <dc:publisher>
          <cc:Agent>
            <dc:title>Bernhard Grotz</dc:title>
          </cc:Agent>
        </dc:publisher>
        <dc:language>de_DE</dc:language>
        <dc:subject>
          <rdf:Bag>
            <rdf:li>Mathematik</rdf:li>
            <rdf:li>Geometrie</rdf:li>
            <rdf:li>Vektor</rdf:li>
            <rdf:li>Produkt mit Skalar</rdf:li>
          </rdf:Bag>
        </dc:subject>
        <cc:license
           rdf:resource="http://creativecommons.org/licenses/by-nc-sa/3.0/" />
      </cc:Work>
      <cc:License
         rdf:about="http://creativecommons.org/licenses/by-nc-sa/3.0/">
        <cc:permits
           rdf:resource="http://creativecommons.org/ns#Reproduction" />
        <cc:permits
           rdf:resource="http://creativecommons.org/ns#Distribution" />
        <cc:requires
           rdf:resource="http://creativecommons.org/ns#Notice" />
        <cc:requires
           rdf:resource="http://creativecommons.org/ns#Attribution" />
        <cc:prohibits
           rdf:resource="http://creativecommons.org/ns#CommercialUse" />
        <cc:permits
           rdf:resource="http://creativecommons.org/ns#DerivativeWorks" />
        <cc:requires
           rdf:resource="http://creativecommons.org/ns#ShareAlike" />
      </cc:License>
    </rdf:RDF>
  </metadata>
  <g
     inkscape:label="Ebene 1"
     inkscape:groupmode="layer"
     id="layer1">
    <rect
       ry="2.8293874"
       y="396.3609"
       x="43.121826"
       height="259.64041"
       width="657.85083"
       id="rect4674-6-2"
       style="color:#000000;fill:#ffffff;fill-opacity:1;fill-rule:nonzero;stroke:#ffffff;stroke-width:2.39586616;stroke-linecap:round;stroke-linejoin:bevel;stroke-miterlimit:4;stroke-opacity:1;stroke-dasharray:none;stroke-dashoffset:0;marker:none;visibility:visible;display:inline;overflow:visible;enable-background:accumulate"
       inkscape:export-filename="/home/waldgeist/data/pics/Homepage/mathematik/geometrie/vektor-produkt-mit-skalar.png"
       inkscape:export-xdpi="150"
       inkscape:export-ydpi="150" />
    <g
       id="g4492"
       transform="matrix(3.3737494,0,0,3.3737494,-254.33287,-175.74676)"
       ns0:preamble="/home/waldgeist/data/sphinx/inkscape-preamble.tex"
       ns0:text="$\\vec{c}$">
      <defs
         id="defs4494">
        <g
           id="g4496">
          <symbol
             id="textext-23843a60-0"
             overflow="visible"
             style="overflow:visible">
            <path
               id="path4499"
               d="m 5.359375,-5.9375 c -0.140625,0.140625 -0.46875,0.421875 -0.46875,0.59375 0,0.09375 0.09375,0.203125 0.1875,0.203125 0.09375,0 0.140625,-0.078125 0.203125,-0.140625 C 5.390625,-5.421875 5.625,-5.703125 6.0625,-5.921875 6.125,-5.96875 6.234375,-6.015625 6.234375,-6.125 6.234375,-6.234375 6.15625,-6.28125 6.09375,-6.328125 5.875,-6.484375 5.765625,-6.65625 5.6875,-6.890625 5.65625,-6.984375 5.625,-7.125 5.484375,-7.125 c -0.140625,0 -0.203125,0.140625 -0.203125,0.21875 0,0.046875 0.078125,0.359375 0.234375,0.578125 l -3.359375,0 c -0.15625,0 -0.34375,0 -0.34375,0.203125 0,0.1875 0.1875,0.1875 0.34375,0.1875 z m 0,0"
               style="stroke:none"
               inkscape:connector-curvature="0" />
          </symbol>
          <symbol
             id="textext-23843a60-1"
             overflow="visible"
             style="overflow:visible">
            <path
               id="path4502"
               d="m 3.953125,-3.78125 c -0.171875,0 -0.296875,0 -0.4375,0.125 -0.171875,0.15625 -0.1875,0.328125 -0.1875,0.390625 0,0.25 0.1875,0.359375 0.375,0.359375 0.28125,0 0.546875,-0.25 0.546875,-0.640625 0,-0.484375 -0.46875,-0.859375 -1.171875,-0.859375 -1.34375,0 -2.671875,1.421875 -2.671875,2.828125 0,0.90625 0.578125,1.6875 1.625,1.6875 1.421875,0 2.25,-1.0625 2.25,-1.171875 0,-0.0625 -0.046875,-0.140625 -0.109375,-0.140625 -0.0625,0 -0.078125,0.03125 -0.140625,0.109375 -0.78125,0.984375 -1.875,0.984375 -1.984375,0.984375 -0.625,0 -0.90625,-0.484375 -0.90625,-1.09375 0,-0.40625 0.203125,-1.375 0.546875,-1.984375 0.3125,-0.578125 0.859375,-1 1.40625,-1 0.328125,0 0.71875,0.125 0.859375,0.40625 z m 0,0"
               style="stroke:none"
               inkscape:connector-curvature="0" />
          </symbol>
        </g>
      </defs>
      <g
         id="textext-23843a60-2">
        <g
           id="g4505"
           style="fill:#000000;fill-opacity:1" />
        <g
           id="g4509"
           style="fill:#000000;fill-opacity:1" />
      </g>
    </g>
    <g
       inkscape:export-ydpi="150"
       inkscape:export-xdpi="150"
       inkscape:export-filename="/home/waldgeist/data/pics/Homepage/mathematik/geometrie/vektor-produkt-mit-skalar.png"
       ns0:text="$\\vec{a}$"
       ns0:preamble="/home/waldgeist/data/sphinx/inkscape-preamble.tex"
       transform="matrix(3.3737494,0,0,3.3737494,-516.29292,80.880801)"
       style="fill:#000080;fill-opacity:1;stroke:#000000;stroke-width:1"
       id="g7369">
      <defs
         id="defs7371">
        <g
           id="g7373">
          <symbol
             style="overflow:visible"
             overflow="visible"
             id="textext-36383fa2-0">
            <path
               inkscape:connector-curvature="0"
               style="stroke:none"
               d=""
               id="path7376" />
          </symbol>
          <symbol
             style="overflow:visible"
             overflow="visible"
             id="textext-36383fa2-1">
            <path
               inkscape:connector-curvature="0"
               style="stroke:none"
               d="m 5.359375,-5.9375 c -0.140625,0.140625 -0.46875,0.421875 -0.46875,0.59375 0,0.09375 0.09375,0.203125 0.1875,0.203125 0.09375,0 0.140625,-0.078125 0.203125,-0.140625 C 5.390625,-5.421875 5.625,-5.703125 6.0625,-5.921875 6.125,-5.96875 6.234375,-6.015625 6.234375,-6.125 6.234375,-6.234375 6.15625,-6.28125 6.09375,-6.328125 5.875,-6.484375 5.765625,-6.65625 5.6875,-6.890625 5.65625,-6.984375 5.625,-7.125 5.484375,-7.125 c -0.140625,0 -0.203125,0.140625 -0.203125,0.21875 0,0.046875 0.078125,0.359375 0.234375,0.578125 l -3.359375,0 c -0.15625,0 -0.34375,0 -0.34375,0.203125 0,0.1875 0.1875,0.1875 0.34375,0.1875 z"
               id="path7379" />
          </symbol>
          <symbol
             style="overflow:visible"
             overflow="visible"
             id="textext-36383fa2-2">
            <path
               inkscape:connector-curvature="0"
               style="stroke:none"
               d="M 3.71875,-3.765625 C 3.53125,-4.140625 3.25,-4.40625 2.796875,-4.40625 c -1.15625,0 -2.390625,1.46875 -2.390625,2.921875 0,0.9375 0.546875,1.59375 1.3125,1.59375 0.203125,0 0.703125,-0.046875 1.296875,-0.75 0.078125,0.421875 0.4375,0.75 0.90625,0.75 0.359375,0 0.578125,-0.234375 0.75,-0.546875 0.15625,-0.359375 0.296875,-0.96875 0.296875,-0.984375 0,-0.109375 -0.09375,-0.109375 -0.125,-0.109375 -0.09375,0 -0.109375,0.046875 -0.140625,0.1875 -0.171875,0.640625 -0.34375,1.234375 -0.75,1.234375 -0.28125,0 -0.296875,-0.265625 -0.296875,-0.453125 0,-0.21875 0.015625,-0.3125 0.125,-0.75 C 3.890625,-1.71875 3.90625,-1.828125 4,-2.203125 L 4.359375,-3.59375 c 0.0625,-0.28125 0.0625,-0.296875 0.0625,-0.34375 0,-0.171875 -0.109375,-0.265625 -0.28125,-0.265625 -0.25,0 -0.390625,0.21875 -0.421875,0.4375 z M 3.078125,-1.1875 C 3.015625,-1 3.015625,-0.984375 2.875,-0.8125 2.4375,-0.265625 2.03125,-0.109375 1.75,-0.109375 c -0.5,0 -0.640625,-0.546875 -0.640625,-0.9375 0,-0.5 0.3125,-1.71875 0.546875,-2.1875 0.3125,-0.578125 0.75,-0.953125 1.15625,-0.953125 0.640625,0 0.78125,0.8125 0.78125,0.875 0,0.0625 -0.015625,0.125 -0.03125,0.171875 z"
               id="path7382" />
          </symbol>
        </g>
      </defs>
      <g
         style="fill:#000080;stroke-width:1"
         id="textext-36383fa2-3">
        <g
           style="fill:#000080;fill-opacity:1;stroke-width:1"
           id="g7385">
          <use
             style="fill:#000080;stroke-width:1"
             height="744.09448"
             width="1052.3622"
             xlink:href="#textext-36383fa2-1"
             x="222.808"
             y="134.765"
             id="use7387" />
        </g>
        <g
           style="fill:#000080;fill-opacity:1;stroke-width:1"
           id="g7389">
          <use
             style="fill:#000080;stroke-width:1"
             height="744.09448"
             width="1052.3622"
             xlink:href="#textext-36383fa2-2"
             x="223.43564"
             y="134.765"
             id="use7391" />
        </g>
      </g>
    </g>
    <g
       id="g8802"
       transform="translate(1.4872934,-89.820959)"
       inkscape:export-filename="/home/waldgeist/data/pics/Homepage/mathematik/geometrie/vektor-produkt-mit-skalar.png"
       inkscape:export-xdpi="150"
       inkscape:export-ydpi="150">
      <path
         inkscape:export-ydpi="150"
         inkscape:export-xdpi="150"
         inkscape:export-filename="/home/waldgeist/data/pics/Homepage/mathematik/geometrie/vektor-normvektor.png"
         inkscape:connector-curvature="0"
         id="path20418"
         d="m 98.22616,621.3862 5.94918,22.20262"
         style="fill:#808080;fill-opacity:1;stroke:#000080;stroke-width:3;stroke-linecap:round;stroke-linejoin:miter;stroke-opacity:1" />
      <path
         style="fill:none;stroke:#000080;stroke-width:3;stroke-linecap:butt;stroke-linejoin:miter;stroke-opacity:1;marker-start:none;marker-end:url(#Arrow2Mend)"
         d="M 101.20075,632.48751 370.88683,557.67243"
         id="path8417"
         inkscape:connector-curvature="0"
         inkscape:export-filename="/home/waldgeist/data/pics/Homepage/mathematik/geometrie/vektor-normvektor.png"
         inkscape:export-xdpi="150"
         inkscape:export-ydpi="150" />
    </g>
    <g
       ns0:text="$\\frac{1}{2} \\cdot \\vec{a}$"
       ns0:preamble="/home/waldgeist/data/sphinx/inkscape-preamble.tex"
       transform="matrix(3.3737494,0,0,3.3737494,-636.50038,-6.4587507)"
       style="fill:#000080;fill-opacity:1;stroke:#000000;stroke-width:1"
       id="g8536"
       inkscape:export-filename="/home/waldgeist/data/pics/Homepage/mathematik/geometrie/vektor-produkt-mit-skalar.png"
       inkscape:export-xdpi="150"
       inkscape:export-ydpi="150">
      <defs
         id="defs8538">
        <g
           id="g8540">
          <symbol
             style="overflow:visible"
             overflow="visible"
             id="textext-98270658-0">
            <path
               inkscape:connector-curvature="0"
               style="stroke:none"
               d=""
               id="path8543" />
          </symbol>
          <symbol
             style="overflow:visible"
             overflow="visible"
             id="textext-98270658-1">
            <path
               inkscape:connector-curvature="0"
               style="stroke:none"
               d="m 2.328125,-4.4375 c 0,-0.1875 0,-0.1875 -0.203125,-0.1875 -0.453125,0.4375 -1.078125,0.4375 -1.359375,0.4375 l 0,0.25 c 0.15625,0 0.625,0 1,-0.1875 l 0,3.546875 c 0,0.234375 0,0.328125 -0.6875,0.328125 l -0.265625,0 0,0.25 c 0.125,0 0.984375,-0.03125 1.234375,-0.03125 0.21875,0 1.09375,0.03125 1.25,0.03125 l 0,-0.25 -0.265625,0 c -0.703125,0 -0.703125,-0.09375 -0.703125,-0.328125 z"
               id="path8546" />
          </symbol>
          <symbol
             style="overflow:visible"
             overflow="visible"
             id="textext-98270658-2">
            <path
               inkscape:connector-curvature="0"
               style="stroke:none"
               d="m 3.515625,-1.265625 -0.234375,0 c -0.015625,0.15625 -0.09375,0.5625 -0.1875,0.625 -0.046875,0.046875 -0.578125,0.046875 -0.6875,0.046875 l -1.28125,0 c 0.734375,-0.640625 0.984375,-0.84375 1.390625,-1.171875 0.515625,-0.40625 1,-0.84375 1,-1.5 0,-0.84375 -0.734375,-1.359375 -1.625,-1.359375 -0.859375,0 -1.453125,0.609375 -1.453125,1.25 0,0.34375 0.296875,0.390625 0.375,0.390625 0.15625,0 0.359375,-0.125 0.359375,-0.375 0,-0.125 -0.046875,-0.375 -0.40625,-0.375 C 0.984375,-4.21875 1.453125,-4.375 1.78125,-4.375 c 0.703125,0 1.0625,0.546875 1.0625,1.109375 0,0.609375 -0.4375,1.078125 -0.65625,1.328125 L 0.515625,-0.265625 C 0.4375,-0.203125 0.4375,-0.1875 0.4375,0 l 2.875,0 z"
               id="path8549" />
          </symbol>
          <symbol
             style="overflow:visible"
             overflow="visible"
             id="textext-98270658-3">
            <path
               inkscape:connector-curvature="0"
               style="stroke:none"
               d=""
               id="path8552" />
          </symbol>
          <symbol
             style="overflow:visible"
             overflow="visible"
             id="textext-98270658-4">
            <path
               inkscape:connector-curvature="0"
               style="stroke:none"
               d="m 1.90625,-2.5 c 0,-0.28125 -0.234375,-0.515625 -0.515625,-0.515625 -0.296875,0 -0.53125,0.234375 -0.53125,0.515625 0,0.296875 0.234375,0.53125 0.53125,0.53125 0.28125,0 0.515625,-0.234375 0.515625,-0.53125 z"
               id="path8555" />
          </symbol>
          <symbol
             style="overflow:visible"
             overflow="visible"
             id="textext-98270658-5">
            <path
               inkscape:connector-curvature="0"
               style="stroke:none"
               d=""
               id="path8558" />
          </symbol>
          <symbol
             style="overflow:visible"
             overflow="visible"
             id="textext-98270658-6">
            <path
               inkscape:connector-curvature="0"
               style="stroke:none"
               d="m 5.359375,-5.9375 c -0.140625,0.140625 -0.46875,0.421875 -0.46875,0.59375 0,0.09375 0.09375,0.203125 0.1875,0.203125 0.09375,0 0.140625,-0.078125 0.203125,-0.140625 C 5.390625,-5.421875 5.625,-5.703125 6.0625,-5.921875 6.125,-5.96875 6.234375,-6.015625 6.234375,-6.125 6.234375,-6.234375 6.15625,-6.28125 6.09375,-6.328125 5.875,-6.484375 5.765625,-6.65625 5.6875,-6.890625 5.65625,-6.984375 5.625,-7.125 5.484375,-7.125 c -0.140625,0 -0.203125,0.140625 -0.203125,0.21875 0,0.046875 0.078125,0.359375 0.234375,0.578125 l -3.359375,0 c -0.15625,0 -0.34375,0 -0.34375,0.203125 0,0.1875 0.1875,0.1875 0.34375,0.1875 z"
               id="path8561" />
          </symbol>
          <symbol
             style="overflow:visible"
             overflow="visible"
             id="textext-98270658-7">
            <path
               inkscape:connector-curvature="0"
               style="stroke:none"
               d="M 3.71875,-3.765625 C 3.53125,-4.140625 3.25,-4.40625 2.796875,-4.40625 c -1.15625,0 -2.390625,1.46875 -2.390625,2.921875 0,0.9375 0.546875,1.59375 1.3125,1.59375 0.203125,0 0.703125,-0.046875 1.296875,-0.75 0.078125,0.421875 0.4375,0.75 0.90625,0.75 0.359375,0 0.578125,-0.234375 0.75,-0.546875 0.15625,-0.359375 0.296875,-0.96875 0.296875,-0.984375 0,-0.109375 -0.09375,-0.109375 -0.125,-0.109375 -0.09375,0 -0.109375,0.046875 -0.140625,0.1875 -0.171875,0.640625 -0.34375,1.234375 -0.75,1.234375 -0.28125,0 -0.296875,-0.265625 -0.296875,-0.453125 0,-0.21875 0.015625,-0.3125 0.125,-0.75 C 3.890625,-1.71875 3.90625,-1.828125 4,-2.203125 L 4.359375,-3.59375 c 0.0625,-0.28125 0.0625,-0.296875 0.0625,-0.34375 0,-0.171875 -0.109375,-0.265625 -0.28125,-0.265625 -0.25,0 -0.390625,0.21875 -0.421875,0.4375 z M 3.078125,-1.1875 C 3.015625,-1 3.015625,-0.984375 2.875,-0.8125 2.4375,-0.265625 2.03125,-0.109375 1.75,-0.109375 c -0.5,0 -0.640625,-0.546875 -0.640625,-0.9375 0,-0.5 0.3125,-1.71875 0.546875,-2.1875 0.3125,-0.578125 0.75,-0.953125 1.15625,-0.953125 0.640625,0 0.78125,0.8125 0.78125,0.875 0,0.0625 -0.015625,0.125 -0.03125,0.171875 z"
               id="path8564" />
          </symbol>
        </g>
      </defs>
      <g
         style="fill:#000080;stroke-width:1"
         id="textext-98270658-8">
        <g
           style="fill:#000080;fill-opacity:1;stroke-width:1"
           id="g8567">
          <use
             height="1052.3622"
             width="744.09448"
             style="fill:#000080;stroke-width:1"
             xlink:href="#textext-98270658-1"
             x="224.62801"
             y="130.842"
             id="use8569" />
        </g>
        <path
           inkscape:connector-curvature="0"
           style="fill:#000080;stroke:#000080;stroke-width:0.59281224;stroke-linecap:butt;stroke-linejoin:miter;stroke-miterlimit:10;stroke-opacity:1"
           d="m -0.128,-0.226 4,0"
           transform="matrix(1,0,0,-1,224.628,132.274)"
           id="path8571" />
        <g
           style="fill:#000080;fill-opacity:1;stroke-width:1"
           id="g8573">
          <use
             height="1052.3622"
             width="744.09448"
             style="fill:#000080;stroke-width:1"
             xlink:href="#textext-98270658-2"
             x="224.62801"
             y="138.2"
             id="use8575" />
        </g>
        <g
           style="fill:#000080;fill-opacity:1;stroke-width:1"
           id="g8577">
          <use
             height="1052.3622"
             width="744.09448"
             style="fill:#000080;stroke-width:1"
             xlink:href="#textext-98270658-4"
             x="232.008"
             y="134.765"
             id="use8579" />
        </g>
        <g
           style="fill:#000080;fill-opacity:1;stroke-width:1"
           id="g8581">
          <use
             height="1052.3622"
             width="744.09448"
             style="fill:#000080;stroke-width:1"
             xlink:href="#textext-98270658-6"
             x="236.366"
             y="134.765"
             id="use8583" />
        </g>
        <g
           style="fill:#000080;fill-opacity:1;stroke-width:1"
           id="g8585">
          <use
             height="1052.3622"
             width="744.09448"
             style="fill:#000080;stroke-width:1"
             xlink:href="#textext-98270658-7"
             x="236.99364"
             y="134.765"
             id="use8587" />
        </g>
      </g>
    </g>
    <g
       id="g8843"
       transform="translate(1.4872934,-91.820959)"
       inkscape:export-filename="/home/waldgeist/data/pics/Homepage/mathematik/geometrie/vektor-produkt-mit-skalar.png"
       inkscape:export-xdpi="150"
       inkscape:export-ydpi="150">
      <path
         style="fill:#808080;fill-opacity:1;stroke:#000080;stroke-width:3;stroke-linecap:round;stroke-linejoin:miter;stroke-opacity:1"
         d="m 98.22616,556.39888 5.94918,22.20262"
         id="path8419"
         inkscape:connector-curvature="0"
         inkscape:export-filename="/home/waldgeist/data/pics/Homepage/mathematik/geometrie/vektor-normvektor.png"
         inkscape:export-xdpi="150"
         inkscape:export-ydpi="150" />
      <path
         inkscape:export-ydpi="150"
         inkscape:export-xdpi="150"
         inkscape:export-filename="/home/waldgeist/data/pics/Homepage/mathematik/geometrie/vektor-normvektor.png"
         inkscape:connector-curvature="0"
         id="path8421"
         d="M 101.20075,567.50019 236.04379,530.09265"
         style="fill:none;stroke:#000080;stroke-width:3;stroke-linecap:butt;stroke-linejoin:miter;stroke-opacity:1;marker-start:none;marker-end:url(#Arrow2Mend)" />
    </g>
    <g
       transform="translate(1.4872934,-95.820959)"
       id="g8806"
       inkscape:export-filename="/home/waldgeist/data/pics/Homepage/mathematik/geometrie/vektor-produkt-mit-skalar.png"
       inkscape:export-xdpi="150"
       inkscape:export-ydpi="150">
      <path
         inkscape:export-ydpi="150"
         inkscape:export-xdpi="150"
         inkscape:export-filename="/home/waldgeist/data/pics/Homepage/mathematik/geometrie/vektor-normvektor.png"
         inkscape:connector-curvature="0"
         id="path8745"
         d="M 101.20075,716.21607 640.57291,566.58591"
         style="fill:none;stroke:#000080;stroke-width:3;stroke-linecap:butt;stroke-linejoin:miter;stroke-opacity:1;marker-start:none;marker-end:url(#Arrow2Mend)" />
      <path
         inkscape:export-ydpi="150"
         inkscape:export-xdpi="150"
         inkscape:export-filename="/home/waldgeist/data/pics/Homepage/mathematik/geometrie/vektor-normvektor.png"
         inkscape:connector-curvature="0"
         id="path20418-5"
         d="m 98.22616,705.11476 5.94918,22.20262"
         style="fill:#808080;fill-opacity:1;stroke:#000080;stroke-width:3;stroke-linecap:round;stroke-linejoin:miter;stroke-opacity:1" />
    </g>
    <g
       id="g8945"
       style="fill:#000080;fill-opacity:1;stroke:#000080;stroke-width:1"
       transform="matrix(3.3737494,0,0,3.3737494,-416.80078,132.55116)"
       ns0:preamble="/home/waldgeist/data/sphinx/inkscape-preamble.tex"
       ns0:text="$2 \\cdot \\vec{a}$"
       inkscape:export-filename="/home/waldgeist/data/pics/Homepage/mathematik/geometrie/vektor-produkt-mit-skalar.png"
       inkscape:export-xdpi="150"
       inkscape:export-ydpi="150">
      <defs
         id="defs8947">
        <g
           id="g8949">
          <symbol
             id="textext-add85ccc-0"
             overflow="visible"
             style="overflow:visible">
            <path
               id="path8952"
               d=""
               style="stroke:none"
               inkscape:connector-curvature="0" />
          </symbol>
          <symbol
             id="textext-add85ccc-1"
             overflow="visible"
             style="overflow:visible">
            <path
               id="path8955"
               d="m 1.265625,-0.765625 1.0625,-1.03125 c 1.546875,-1.375 2.140625,-1.90625 2.140625,-2.90625 0,-1.140625 -0.890625,-1.9375 -2.109375,-1.9375 -1.125,0 -1.859375,0.921875 -1.859375,1.8125 0,0.546875 0.5,0.546875 0.53125,0.546875 0.171875,0 0.515625,-0.109375 0.515625,-0.53125 0,-0.25 -0.1875,-0.515625 -0.53125,-0.515625 -0.078125,0 -0.09375,0 -0.125,0.015625 0.21875,-0.65625 0.765625,-1.015625 1.34375,-1.015625 0.90625,0 1.328125,0.8125 1.328125,1.625 C 3.5625,-3.90625 3.078125,-3.125 2.515625,-2.5 l -1.90625,2.125 C 0.5,-0.265625 0.5,-0.234375 0.5,0 l 3.703125,0 0.265625,-1.734375 -0.234375,0 C 4.171875,-1.4375 4.109375,-1 4,-0.84375 3.9375,-0.765625 3.28125,-0.765625 3.0625,-0.765625 z"
               style="stroke:none"
               inkscape:connector-curvature="0" />
          </symbol>
          <symbol
             id="textext-add85ccc-2"
             overflow="visible"
             style="overflow:visible">
            <path
               id="path8958"
               d=""
               style="stroke:none"
               inkscape:connector-curvature="0" />
          </symbol>
          <symbol
             id="textext-add85ccc-3"
             overflow="visible"
             style="overflow:visible">
            <path
               id="path8961"
               d="m 1.90625,-2.5 c 0,-0.28125 -0.234375,-0.515625 -0.515625,-0.515625 -0.296875,0 -0.53125,0.234375 -0.53125,0.515625 0,0.296875 0.234375,0.53125 0.53125,0.53125 0.28125,0 0.515625,-0.234375 0.515625,-0.53125 z"
               style="stroke:none"
               inkscape:connector-curvature="0" />
          </symbol>
          <symbol
             id="textext-add85ccc-4"
             overflow="visible"
             style="overflow:visible">
            <path
               id="path8964"
               d=""
               style="stroke:none"
               inkscape:connector-curvature="0" />
          </symbol>
          <symbol
             id="textext-add85ccc-5"
             overflow="visible"
             style="overflow:visible">
            <path
               id="path8967"
               d="m 5.359375,-5.9375 c -0.140625,0.140625 -0.46875,0.421875 -0.46875,0.59375 0,0.09375 0.09375,0.203125 0.1875,0.203125 0.09375,0 0.140625,-0.078125 0.203125,-0.140625 C 5.390625,-5.421875 5.625,-5.703125 6.0625,-5.921875 6.125,-5.96875 6.234375,-6.015625 6.234375,-6.125 6.234375,-6.234375 6.15625,-6.28125 6.09375,-6.328125 5.875,-6.484375 5.765625,-6.65625 5.6875,-6.890625 5.65625,-6.984375 5.625,-7.125 5.484375,-7.125 c -0.140625,0 -0.203125,0.140625 -0.203125,0.21875 0,0.046875 0.078125,0.359375 0.234375,0.578125 l -3.359375,0 c -0.15625,0 -0.34375,0 -0.34375,0.203125 0,0.1875 0.1875,0.1875 0.34375,0.1875 z"
               style="stroke:none"
               inkscape:connector-curvature="0" />
          </symbol>
          <symbol
             id="textext-add85ccc-6"
             overflow="visible"
             style="overflow:visible">
            <path
               id="path8970"
               d="M 3.71875,-3.765625 C 3.53125,-4.140625 3.25,-4.40625 2.796875,-4.40625 c -1.15625,0 -2.390625,1.46875 -2.390625,2.921875 0,0.9375 0.546875,1.59375 1.3125,1.59375 0.203125,0 0.703125,-0.046875 1.296875,-0.75 0.078125,0.421875 0.4375,0.75 0.90625,0.75 0.359375,0 0.578125,-0.234375 0.75,-0.546875 0.15625,-0.359375 0.296875,-0.96875 0.296875,-0.984375 0,-0.109375 -0.09375,-0.109375 -0.125,-0.109375 -0.09375,0 -0.109375,0.046875 -0.140625,0.1875 -0.171875,0.640625 -0.34375,1.234375 -0.75,1.234375 -0.28125,0 -0.296875,-0.265625 -0.296875,-0.453125 0,-0.21875 0.015625,-0.3125 0.125,-0.75 C 3.890625,-1.71875 3.90625,-1.828125 4,-2.203125 L 4.359375,-3.59375 c 0.0625,-0.28125 0.0625,-0.296875 0.0625,-0.34375 0,-0.171875 -0.109375,-0.265625 -0.28125,-0.265625 -0.25,0 -0.390625,0.21875 -0.421875,0.4375 z M 3.078125,-1.1875 C 3.015625,-1 3.015625,-0.984375 2.875,-0.8125 2.4375,-0.265625 2.03125,-0.109375 1.75,-0.109375 c -0.5,0 -0.640625,-0.546875 -0.640625,-0.9375 0,-0.5 0.3125,-1.71875 0.546875,-2.1875 0.3125,-0.578125 0.75,-0.953125 1.15625,-0.953125 0.640625,0 0.78125,0.8125 0.78125,0.875 0,0.0625 -0.015625,0.125 -0.03125,0.171875 z"
               style="stroke:none"
               inkscape:connector-curvature="0" />
          </symbol>
        </g>
      </defs>
      <g
         id="textext-add85ccc-7"
         style="fill:#000080;stroke:#000080;stroke-width:1">
        <g
           id="g8973"
           style="fill:#000080;fill-opacity:1;stroke:#000080;stroke-width:1">
          <use
             id="use8975"
             y="134.765"
             x="223.43201"
             xlink:href="#textext-add85ccc-1"
             style="fill:#000080;stroke:#000080;stroke-width:1"
             width="744.09448"
             height="1052.3622" />
        </g>
        <g
           id="g8977"
           style="fill:#000080;fill-opacity:1;stroke:#000080;stroke-width:1">
          <use
             id="use8979"
             y="134.765"
             x="230.627"
             xlink:href="#textext-add85ccc-3"
             style="fill:#000080;stroke:#000080;stroke-width:1"
             width="744.09448"
             height="1052.3622" />
        </g>
        <g
           id="g8981"
           style="fill:#000080;fill-opacity:1;stroke:#000080;stroke-width:1">
          <use
             id="use8983"
             y="134.765"
             x="234.985"
             xlink:href="#textext-add85ccc-5"
             style="fill:#000080;stroke:#000080;stroke-width:1"
             width="744.09448"
             height="1052.3622" />
        </g>
        <g
           id="g8985"
           style="fill:#000080;fill-opacity:1;stroke:#000080;stroke-width:1">
          <use
             id="use8987"
             y="134.765"
             x="235.61264"
             xlink:href="#textext-add85ccc-6"
             style="fill:#000080;stroke:#000080;stroke-width:1"
             width="744.09448"
             height="1052.3622" />
        </g>
      </g>
    </g>
  </g>
</svg>
