<svg xmlns:ns0="http://www.iki.fi/pav/software/textext/" xmlns="http://www.w3.org/2000/svg" xmlns:xlink="http://www.w3.org/1999/xlink" width="793.701" height="1122.52" viewBox="0 0 744.09448 1052.3622"><title>Regelmaessiges Vieleck</title><use y="134.765" x="223.432" xlink:href="#textext-28c1ecfe-0" width="744.094" height="1052.362" transform="translate(-690.002 115.427) scale(3.49978)"/><use y="134.765" x="223.432" xlink:href="#textext-28c1ecfe-0" width="744.094" height="1052.362" transform="translate(-200.574 -112.91) scale(3.49978)"/><use y="134.765" x="223.432" xlink:href="#textext-28c1ecfe-0" width="744.094" height="1052.362" transform="translate(-200.574 -112.91) scale(3.49978)"/><path fill="#fff" stroke="#fff" stroke-width="3" stroke-linecap="square" d="M59.223 267.07h625.649v466.134H59.223z"/><g ns0:text="$\\rm{D}$" transform="matrix(4.5985 0 0 4.5985 -671.805 -303.487)"><defs><symbol overflow="visible" id="a"><path d="M.344-6.813v.313h.25c.765 0 .781.11.781.469v5.25c0 .36-.016.469-.781.469h-.25V0H4c1.672 0 3.047-1.469 3.047-3.344C7.047-5.25 5.703-6.813 4-6.813zm2.375 6.5c-.469 0-.485-.062-.485-.39v-5.39c0-.345.016-.407.485-.407h1c.625 0 1.312.219 1.812.922.438.594.516 1.453.516 2.234 0 1.094-.188 1.703-.547 2.188a2.192 2.192 0 0 1-1.766.843z"/></symbol></defs><use xlink:href="#a" x="223.432" y="134.765" width="744.094" height="1052.362"/></g><g transform="matrix(4.5985 0 0 4.5985 -808.932 85.975)" ns0:text="$\\rm{A}$"><defs><symbol id="b" overflow="visible"><path d="M3.969-6.938c-.047-.125-.078-.203-.235-.203-.156 0-.187.063-.234.204L1.437-.984C1.25-.47.86-.313.313-.313V0c.235-.016.672-.031 1.016-.031.313 0 .828.015 1.156.031v-.313c-.5 0-.75-.25-.75-.5 0-.03.016-.14.016-.156l.469-1.297h2.453L5.203-.75a.58.58 0 0 1 .031.14c0 .297-.562.297-.828.297V0c.36-.031 1.063-.031 1.438-.031.422 0 .89.015 1.297.031v-.313h-.172c-.594 0-.735-.062-.844-.39zm-.531 1.11l1.124 3.25H2.329z"/></symbol></defs><use y="134.765" x="223.432" xlink:href="#b" width="744.094" height="1052.362"/></g><g ns0:text="$\\rm{B}$" transform="matrix(4.5985 0 0 4.5985 -532.02 85.22)"><defs><symbol overflow="visible" id="c"><path d="M2.219-3.656v-2.438c0-.343.015-.406.484-.406h1.235c.968 0 1.312.844 1.312 1.375 0 .64-.484 1.469-1.594 1.469zm2.344.094c.968-.188 1.656-.829 1.656-1.563 0-.86-.922-1.688-2.219-1.688H.36v.313h.234c.765 0 .797.11.797.469v5.25c0 .36-.032.469-.797.469H.359V0h3.907c1.328 0 2.218-.89 2.218-1.828 0-.86-.812-1.61-1.921-1.734zm-.61 3.25h-1.25c-.469 0-.484-.063-.484-.391v-2.719h1.875c.984 0 1.406.922 1.406 1.594 0 .703-.531 1.516-1.547 1.516z"/></symbol></defs><use xlink:href="#c" x="223.432" y="134.765" width="744.094" height="1052.362"/></g><g transform="matrix(4.5985 0 0 4.5985 -464.217 -156.073)" ns0:text="$\\rm{C}$"><defs><symbol id="d" overflow="visible"><path d="M.563-3.406C.563-1.344 2.171.219 4.03.219c1.625 0 2.594-1.39 2.594-2.547 0-.094 0-.172-.125-.172-.11 0-.11.063-.125.172C6.297-.906 5.235-.094 4.141-.094c-.61 0-2.563-.328-2.563-3.312 0-2.969 1.953-3.313 2.563-3.313 1.078 0 1.968.907 2.171 2.36.016.14.016.171.157.171.156 0 .156-.03.156-.234v-2.36c0-.171 0-.25-.11-.25-.03 0-.077 0-.156.126l-.5.734c-.359-.36-.875-.86-1.828-.86-1.875 0-3.468 1.595-3.468 3.626z"/></symbol></defs><use y="134.765" x="223.432" xlink:href="#d" width="744.094" height="1052.362"/></g><circle cx="371.986" cy="520.811" r="191.329" fill="#fff" stroke="gray" stroke-width="1.875" stroke-linecap="round" stroke-linejoin="round"/><path d="M483.906 673.938l-223.83.006-69.172-212.873 181.078-131.569 181.086 131.559z" fill="#f9f9f9" stroke="#000" stroke-width="3.0008206800000004" stroke-linecap="round" stroke-linejoin="round"/><g ns0:text="$\\rm{E}$" ns0:preamble="/home/waldgeist/data/homepage/inkscape-preamble.tex" transform="matrix(4.5985 0 0 4.5985 -398.363 80.043)"><defs><symbol overflow="visible" id="e"><path d="M1.36-.781c0 .36-.032.469-.798.469H.329V0h5.75L6.5-2.578h-.25C6-1.031 5.766-.313 4.062-.313H2.734c-.468 0-.484-.062-.484-.39v-2.672h.89c.97 0 1.079.328 1.079 1.172h.25v-2.64h-.25c0 .859-.11 1.171-1.078 1.171H2.25v-2.406c0-.328.016-.39.484-.39h1.282c1.53 0 1.796.546 1.953 1.937h.25l-.282-2.25H.329v.312h.234c.766 0 .797.11.797.469zm0 0"/></symbol></defs><use height="100%" width="100%" xlink:href="#e" x="118.801" y="83.403"/></g><g transform="matrix(4.5985 0 0 4.5985 -207.975 182.363)" ns0:preamble="/home/waldgeist/data/homepage/inkscape-preamble.tex" ns0:text="$\\rm{M}$"><defs><symbol id="f" overflow="visible"><path d="M2.406-6.594c-.094-.218-.125-.218-.36-.218H.376v.312h.234c.766 0 .782.11.782.469v4.984c0 .266 0 .734-1.016.734V0c.344-.016.828-.031 1.156-.031.328 0 .828.015 1.172.031v-.313c-1.031 0-1.031-.468-1.031-.734v-5.375h.016L4.094-.219c.047.125.093.219.187.219.11 0 .14-.078.188-.188L6.922-6.5v5.719c0 .36-.016.469-.781.469h-.235V0c.36-.031 1.047-.031 1.438-.031.375 0 1.047 0 1.422.031v-.313h-.25c-.766 0-.782-.109-.782-.468v-5.25c0-.36.016-.469.782-.469h.25v-.313H7.078c-.266 0-.266.016-.328.188L4.562-1zm0 0"/></symbol></defs><use y="83.403" x="118.801" xlink:href="#f" width="100%" height="100%"/></g><path style="isolation:auto;mix-blend-mode:normal" d="M483.906 673.938L371.986 520.81l181.082-59.75z" color="#000" overflow="visible" fill="#e6e6e6" fill-rule="evenodd" stroke="#000" stroke-width=".938" stroke-linecap="round" stroke-linejoin="round"/><g stroke-width="4.062" stroke="#333" stroke-linecap="round"><path d="M366.24 510.858l11.492 19.906" fill="#666" transform="matrix(.72653 0 0 .75069 101.726 129.843)"/><path d="M377.732 510.858l-11.493 19.906" fill="gray" transform="matrix(.72653 0 0 .75069 101.726 129.843)"/></g><circle r="153.73" cy="520.811" cx="371.986" fill="none" stroke="gray" stroke-width="1.406" stroke-linecap="round" stroke-linejoin="round"/><path d="M-687.893 39.429a33.447 33.41 0 0 1-13.787 27.029 33.447 33.41 0 0 1-29.996 4.745l10.336-31.774z" transform="rotate(-107.973) skewX(.047)" fill="#fff" stroke="#000" stroke-width="3" stroke-linecap="square"/><g ns0:text="$\\alpha$" ns0:preamble="/home/waldgeist/data/sphinx/test.tex" transform="matrix(3.63165 0 0 3.63165 -551.355 178.3)" stroke-width="1.277"><defs><symbol overflow="visible" id="g"><path d="M4.75-2.36c0-1.562-.922-2.046-1.656-2.046-1.375 0-2.688 1.422-2.688 2.828C.406-.641 1 .109 2.031.109c.625 0 1.344-.234 2.094-.843.125.53.453.843.906.843.532 0 .844-.546.844-.703 0-.078-.063-.11-.125-.11-.063 0-.094.032-.125.11-.188.485-.547.485-.563.485-.312 0-.312-.782-.312-1.016 0-.203 0-.234.11-.344C5.796-2.656 6-3.812 6-3.812c0-.032-.016-.11-.125-.11-.094 0-.094.031-.14.219-.188.625-.516 1.375-.985 1.969zM4.094-.983c-.89.765-1.657.875-2.047.875-.594 0-.906-.454-.906-1.094 0-.484.265-1.563.578-2.063.468-.734 1.015-.921 1.36-.921.983 0 .983 1.312.983 2.078 0 .375 0 .953.032 1.125zm0 0"/></symbol></defs><use height="1052.362" width="744.094" xlink:href="#g" x="223.432" y="134.765"/></g></svg>