<svg xmlns:ns0="http://www.iki.fi/pav/software/textext/" xmlns="http://www.w3.org/2000/svg" xmlns:xlink="http://www.w3.org/1999/xlink" width="793.701" height="1122.52" viewBox="0 0 744.09448 1052.3622"><title>Unregelmaessiges Vieleck</title><path fill="#fff" stroke="#fff" stroke-width="3" stroke-linecap="square" d="M28.755 222.329H715.34v607.704H28.755z"/><path style="isolation:auto;mix-blend-mode:normal" d="M78.513 651.567l308.46 114.103L637.41 554.993l-97.876-240.246-380.784 37.36z" color="#000" overflow="visible" fill="#f9f9f9" fill-rule="evenodd" stroke="#000" stroke-width=".938" stroke-linecap="round" stroke-linejoin="round"/><use y="134.765" x="223.432" xlink:href="#textext-28c1ecfe-0" width="744.094" height="1052.362" transform="translate(-690.002 115.427) scale(3.49978)"/><use y="134.765" x="223.432" xlink:href="#textext-28c1ecfe-0" width="744.094" height="1052.362" transform="translate(-200.574 -112.91) scale(3.49978)"/><use y="134.765" x="223.432" xlink:href="#textext-28c1ecfe-0" width="744.094" height="1052.362" transform="translate(-200.574 -112.91) scale(3.49978)"/><g ns0:text="$\\rm{D}$" transform="matrix(4.5985 0 0 4.5985 -900.203 -289.546)"><defs><symbol overflow="visible" id="a"><path d="M.344-6.813v.313h.25c.765 0 .781.11.781.469v5.25c0 .36-.016.469-.781.469h-.25V0H4c1.672 0 3.047-1.469 3.047-3.344C7.047-5.25 5.703-6.813 4-6.813zm2.375 6.5c-.469 0-.485-.062-.485-.39v-5.39c0-.345.016-.407.485-.407h1c.625 0 1.312.219 1.812.922.438.594.516 1.453.516 2.234 0 1.094-.188 1.703-.547 2.188a2.192 2.192 0 0 1-1.766.843z"/></symbol></defs><use xlink:href="#a" x="223.432" y="134.765" width="744.094" height="1052.362"/></g><g transform="matrix(4.5985 0 0 4.5985 -669.007 194.962)" ns0:text="$\\rm{A}$"><defs><symbol id="b" overflow="visible"><path d="M3.969-6.938c-.047-.125-.078-.203-.235-.203-.156 0-.187.063-.234.204L1.437-.984C1.25-.47.86-.313.313-.313V0c.235-.016.672-.031 1.016-.031.313 0 .828.015 1.156.031v-.313c-.5 0-.75-.25-.75-.5 0-.03.016-.14.016-.156l.469-1.297h2.453L5.203-.75a.58.58 0 0 1 .031.14c0 .297-.562.297-.828.297V0c.36-.031 1.063-.031 1.438-.031.422 0 .89.015 1.297.031v-.313h-.172c-.594 0-.735-.062-.844-.39zm-.531 1.11l1.124 3.25H2.329z"/></symbol></defs><use y="134.765" x="223.432" xlink:href="#b" width="744.094" height="1052.362"/></g><g ns0:text="$\\rm{B}$" transform="matrix(4.5985 0 0 4.5985 -383.69 -28.17)"><defs><symbol overflow="visible" id="c"><path d="M2.219-3.656v-2.438c0-.343.015-.406.484-.406h1.235c.968 0 1.312.844 1.312 1.375 0 .64-.484 1.469-1.594 1.469zm2.344.094c.968-.188 1.656-.829 1.656-1.563 0-.86-.922-1.688-2.219-1.688H.36v.313h.234c.765 0 .797.11.797.469v5.25c0 .36-.032.469-.797.469H.359V0h3.907c1.328 0 2.218-.89 2.218-1.828 0-.86-.812-1.61-1.921-1.734zm-.61 3.25h-1.25c-.469 0-.484-.063-.484-.391v-2.719h1.875c.984 0 1.406.922 1.406 1.594 0 .703-.531 1.516-1.547 1.516z"/></symbol></defs><use xlink:href="#c" x="223.432" y="134.765" width="744.094" height="1052.362"/></g><g transform="matrix(4.5985 0 0 4.5985 -479.823 -303.268)" ns0:text="$\\rm{C}$"><defs><symbol id="d" overflow="visible"><path d="M.563-3.406C.563-1.344 2.171.219 4.03.219c1.625 0 2.594-1.39 2.594-2.547 0-.094 0-.172-.125-.172-.11 0-.11.063-.125.172C6.297-.906 5.235-.094 4.141-.094c-.61 0-2.563-.328-2.563-3.312 0-2.969 1.953-3.313 2.563-3.313 1.078 0 1.968.907 2.171 2.36.016.14.016.171.157.171.156 0 .156-.03.156-.234v-2.36c0-.171 0-.25-.11-.25-.03 0-.077 0-.156.126l-.5.734c-.359-.36-.875-.86-1.828-.86-1.875 0-3.468 1.595-3.468 3.626z"/></symbol></defs><use y="134.765" x="223.432" xlink:href="#d" width="744.094" height="1052.362"/></g><g ns0:text="$\\rm{E}$" ns0:preamble="/home/waldgeist/data/homepage/inkscape-preamble.tex" transform="matrix(4.5985 0 0 4.5985 -524.092 300.956)"><defs><symbol overflow="visible" id="e"><path d="M1.36-.781c0 .36-.032.469-.798.469H.329V0h5.75L6.5-2.578h-.25C6-1.031 5.766-.313 4.062-.313H2.734c-.468 0-.484-.062-.484-.39v-2.672h.89c.97 0 1.079.328 1.079 1.172h.25v-2.64h-.25c0 .859-.11 1.171-1.078 1.171H2.25v-2.406c0-.328.016-.39.484-.39h1.282c1.53 0 1.796.546 1.953 1.937h.25l-.282-2.25H.329v.312h.234c.766 0 .797.11.797.469zm0 0"/></symbol></defs><use height="100%" width="100%" xlink:href="#e" x="118.801" y="83.403"/></g><path style="isolation:auto;mix-blend-mode:normal" d="M158.751 352.107L58.175 727.187M78.513 651.567L461.38 794.143M385.117 765.646l311.84-257.88M637.61 555.486L510.37 239.03" color="#000" overflow="visible" fill="none" stroke="#000" stroke-width="2.657" stroke-linecap="round" stroke-linejoin="round"/><path transform="matrix(-.97768 -.2101 .20587 -.97858 0 0)" d="M-570.274-622.298a56.121 56.502 0 0 1-21.521-53.51l55.479 8.525z" fill="#fff" stroke="#000" stroke-width="3" stroke-linecap="square"/><g ns0:text="$\\alpha^{*}$" transform="matrix(3.63165 0 0 3.63165 -363.87 274.493)" stroke-width="1.277"><defs><symbol overflow="visible" id="f"><path d="M4.75-2.36c0-1.562-.922-2.046-1.656-2.046-1.375 0-2.688 1.422-2.688 2.828C.406-.641 1 .109 2.031.109c.625 0 1.344-.234 2.094-.843.125.53.453.843.906.843.532 0 .844-.546.844-.703 0-.078-.063-.11-.125-.11-.063 0-.094.032-.125.11-.188.485-.547.485-.563.485-.312 0-.312-.782-.312-1.016 0-.203 0-.234.11-.344C5.796-2.656 6-3.812 6-3.812c0-.032-.016-.11-.125-.11-.094 0-.094.031-.14.219-.188.625-.516 1.375-.985 1.969zM4.094-.983c-.89.765-1.657.875-2.047.875-.594 0-.906-.454-.906-1.094 0-.484.265-1.563.578-2.063.468-.734 1.015-.921 1.36-.921.983 0 .983 1.312.983 2.078 0 .375 0 .953.032 1.125zm0 0"/></symbol><symbol overflow="visible" id="g"><path d="M2.25-1.734c.578-.25.828-.344 1-.438.14-.047.203-.078.203-.219a.223.223 0 0 0-.219-.218c-.046 0-.062 0-.14.062l-.953.64.109-1.03c.016-.126 0-.297-.219-.297-.078 0-.219.046-.219.203 0 .062.032.265.047.344.016.109.063.624.079.78l-.954-.64c-.062-.031-.078-.062-.14-.062-.14 0-.219.109-.219.218 0 .141.078.188.14.204l1.047.453c-.562.25-.828.343-1 .421-.125.063-.187.094-.187.22 0 .124.078.218.219.218.047 0 .062 0 .14-.063l.954-.625-.125 1.11c0 .156.14.219.218.219.094 0 .219-.063.219-.22 0-.062-.031-.265-.031-.327-.016-.125-.063-.625-.078-.781l.828.546c.187.141.203.141.265.141a.214.214 0 0 0 .22-.219c0-.14-.095-.172-.157-.203zm0 0"/></symbol></defs><use height="100%" width="100%" xlink:href="#f" x="223.432" y="134.765"/><use height="100%" width="100%" xlink:href="#g" x="229.842" y="131.15"/></g><g ns0:text="$\\beta^{*}$" ns0:preamble="/home/waldgeist/data/homepage/inkscape-preamble.tex" transform="matrix(3.63165 0 0 3.63165 224.456 185.691)" stroke-width="1.277"><defs><symbol overflow="visible" id="h"><path d="M5.734-5.672c0-.75-.546-1.36-1.359-1.36-.578 0-.86.157-1.203.407C2.625-6.219 2.078-5.25 1.89-4.5L.297 1.828c0 .047.047.11.125.11s.11-.032.11-.047l.702-2.766c.188.61.625.969 1.36.969.719 0 1.469-.344 1.922-.781a2.486 2.486 0 0 0 .796-1.829c0-.718-.375-1.25-.734-1.484.578-.344 1.156-.953 1.156-1.672zM3.938-4.016c-.126.047-.235.063-.485.063-.14 0-.328.015-.437-.031.03-.11.39-.079.5-.079.203 0 .296 0 .421.047zm1.234-1.89c0 .703-.375 1.422-.89 1.734-.282-.11-.47-.125-.766-.125-.22 0-.782-.016-.782.313 0 .28.516.25.688.25.375 0 .531 0 .828-.125.375.359.422.671.438 1.125.015.578-.22 1.328-.5 1.718-.391.532-1.063.891-1.625.891-.766 0-1.141-.578-1.141-1.281 0-.094 0-.25.047-.438l.64-2.515c.22-.86.938-2.454 2.141-2.454.578 0 .922.313.922.907zm0 0"/></symbol><symbol overflow="visible" id="i"><path d="M2.25-1.734c.578-.25.828-.344 1-.438.14-.047.203-.078.203-.219a.223.223 0 0 0-.219-.218c-.046 0-.062 0-.14.062l-.953.64.109-1.03c.016-.126 0-.297-.219-.297-.078 0-.219.046-.219.203 0 .062.032.265.047.344.016.109.063.624.079.78l-.954-.64c-.062-.031-.078-.062-.14-.062-.14 0-.219.109-.219.218 0 .141.078.188.14.204l1.047.453c-.562.25-.828.343-1 .421-.125.063-.187.094-.187.22 0 .124.078.218.219.218.047 0 .062 0 .14-.063l.954-.625-.125 1.11c0 .156.14.219.218.219.094 0 .219-.063.219-.22 0-.062-.031-.265-.031-.327-.016-.125-.063-.625-.078-.781l.828.546c.187.141.203.141.265.141a.214.214 0 0 0 .22-.219c0-.14-.095-.172-.157-.203zm0 0"/></symbol></defs><use height="100%" width="100%" xlink:href="#h" x="118.801" y="83.403"/><use height="100%" width="100%" xlink:href="#i" x="124.962" y="79.788"/></g><path transform="matrix(-.95176 .30686 -.31103 -.9504 0 0)" d="M-359.833-453.146a55.966 56.353 0 0 1-51.544 49.044" fill="#fff" stroke="#000" stroke-width="3" stroke-linecap="square"/><g transform="matrix(3.63165 0 0 3.63165 23.06 -17.555)" ns0:preamble="/home/waldgeist/data/homepage/inkscape-preamble.tex" ns0:text="$\\gamma^{*}$" stroke-width="1.277"><defs><symbol id="j" overflow="visible"><path d="M.406-2.531C.796-3.671 1.891-3.687 2-3.687c1.5 0 1.61 1.75 1.61 2.53 0 .61-.047.782-.126.985-.218.719-.515 1.875-.515 2.14 0 .11.047.173.125.173.14 0 .219-.22.328-.594.234-.844.328-1.406.36-1.719.03-.125.046-.25.093-.39.313-.985.953-2.47 1.344-3.25.078-.126.187-.344.187-.391 0-.094-.093-.094-.11-.094-.03 0-.093 0-.124.063-.516.953-.922 1.953-1.313 2.953-.015-.297-.015-1.063-.406-2.032-.25-.609-.64-1.093-1.328-1.093-1.25 0-1.953 1.515-1.953 1.828 0 .094.094.094.203.094zm0 0"/></symbol><symbol id="k" overflow="visible"><path d="M2.25-1.734c.578-.25.828-.344 1-.438.14-.047.203-.078.203-.219a.223.223 0 0 0-.219-.218c-.046 0-.062 0-.14.062l-.953.64.109-1.03c.016-.126 0-.297-.219-.297-.078 0-.219.046-.219.203 0 .062.032.265.047.344.016.109.063.624.079.78l-.954-.64c-.062-.031-.078-.062-.14-.062-.14 0-.219.109-.219.218 0 .141.078.188.14.204l1.047.453c-.562.25-.828.343-1 .421-.125.063-.187.094-.187.22 0 .124.078.218.219.218.047 0 .062 0 .14-.063l.954-.625-.125 1.11c0 .156.14.219.218.219.094 0 .219-.063.219-.22 0-.062-.031-.265-.031-.327-.016-.125-.063-.625-.078-.781l.828.546c.187.141.203.141.265.141a.214.214 0 0 0 .22-.219c0-.14-.095-.172-.157-.203zm0 0"/></symbol></defs><use y="83.403" x="118.801" xlink:href="#j" width="100%" height="100%"/><use y="79.788" x="124.513" xlink:href="#k" width="100%" height="100%"/></g><path d="M-123.657-413.41a55.966 56.353 0 0 1 39.05 50.592" transform="matrix(-.99875 .05007 -.05445 -.99852 0 0)" fill="#fff" stroke="#000" stroke-width="3" stroke-linecap="square"/><g ns0:text="$\\delta^{*}$" ns0:preamble="/home/waldgeist/data/homepage/inkscape-preamble.tex" transform="matrix(3.63165 0 0 3.63165 -343.642 116.939)" stroke-width="1.277"><defs><symbol overflow="visible" id="l"><path d="M2.625-4.36C1.391-4.061.422-2.765.422-1.561.422-.595 1.062.125 2 .125c1.156 0 1.984-1.578 1.984-2.953 0-.906-.39-1.406-.734-1.844-.36-.453-.953-1.203-.953-1.64 0-.22.203-.454.547-.454.312 0 .5.125.719.266.203.125.39.25.546.25.25 0 .391-.234.391-.406 0-.219-.156-.235-.516-.328-.515-.11-.656-.11-.812-.11-.781 0-1.14.438-1.14 1.032 0 .546.296 1.093.593 1.703zm.125.22c.25.468.547 1 .547 1.718 0 .656-.375 2.328-1.297 2.328-.547 0-.969-.422-.969-1.187 0-.625.375-2.5 1.719-2.86zm0 0"/></symbol><symbol overflow="visible" id="m"><path d="M2.25-1.734c.578-.25.828-.344 1-.438.14-.047.203-.078.203-.219a.223.223 0 0 0-.219-.218c-.046 0-.062 0-.14.062l-.953.64.109-1.03c.016-.126 0-.297-.219-.297-.078 0-.219.046-.219.203 0 .062.032.265.047.344.016.109.063.624.079.78l-.954-.64c-.062-.031-.078-.062-.14-.062-.14 0-.219.109-.219.218 0 .141.078.188.14.204l1.047.453c-.562.25-.828.343-1 .421-.125.063-.187.094-.187.22 0 .124.078.218.219.218.047 0 .062 0 .14-.063l.954-.625-.125 1.11c0 .156.14.219.218.219.094 0 .219-.063.219-.22 0-.062-.031-.265-.031-.327-.016-.125-.063-.625-.078-.781l.828.546c.187.141.203.141.265.141a.214.214 0 0 0 .22-.219c0-.14-.095-.172-.157-.203zm0 0"/></symbol></defs><use height="100%" width="100%" xlink:href="#l" x="118.801" y="83.403"/><use height="100%" width="100%" xlink:href="#m" x="123.606" y="79.788"/></g><path transform="matrix(-.95176 .30686 -.31103 -.9504 0 0)" d="M83.766-678.718a55.966 56.353 0 0 1 74.883-12.692" fill="#fff" stroke="#000" stroke-width="3" stroke-linecap="square"/><g transform="matrix(3.63165 0 0 3.63165 -331.514 423.263)" ns0:preamble="/home/waldgeist/data/homepage/inkscape-preamble.tex" ns0:text="$\\varepsilon^{*}$" stroke-width="1.277"><defs><symbol id="n" overflow="visible"><path d="M1.406-2.266c.328.141.625.141.86.141.25 0 .812 0 .812-.313 0-.234-.36-.265-.734-.265-.203 0-.563.015-.922.187-.234-.109-.406-.312-.406-.578 0-.61.984-.969 1.875-.969.156 0 .515 0 .921.282.11.078.126.11.188.11.14 0 .281-.142.281-.282 0-.188-.61-.563-1.297-.563-1.14 0-2.218.672-2.218 1.422 0 .438.359.688.406.719-.594.328-.906.875-.906 1.344 0 .64.562 1.25 1.625 1.25 1.312 0 1.875-.875 1.875-1.032 0-.062-.063-.093-.11-.093-.062 0-.094.031-.11.062-.14.235-.374.61-1.577.61-.61 0-1.453-.157-1.453-.86 0-.343.28-.875.89-1.172zm.328-.125a1.87 1.87 0 0 1 .61-.093c.25 0 .281.015.469.062-.157.063-.172.078-.547.078-.22 0-.344 0-.532-.047zm0 0"/></symbol><symbol id="o" overflow="visible"><path d="M2.25-1.734c.578-.25.828-.344 1-.438.14-.047.203-.078.203-.219a.223.223 0 0 0-.219-.218c-.046 0-.062 0-.14.062l-.953.64.109-1.03c.016-.126 0-.297-.219-.297-.078 0-.219.046-.219.203 0 .062.032.265.047.344.016.109.063.624.079.78l-.954-.64c-.062-.031-.078-.062-.14-.062-.14 0-.219.109-.219.218 0 .141.078.188.14.204l1.047.453c-.562.25-.828.343-1 .421-.125.063-.187.094-.187.22 0 .124.078.218.219.218.047 0 .062 0 .14-.063l.954-.625-.125 1.11c0 .156.14.219.218.219.094 0 .219-.063.219-.22 0-.062-.031-.265-.031-.327-.016-.125-.063-.625-.078-.781l.828.546c.187.141.203.141.265.141a.214.214 0 0 0 .22-.219c0-.14-.095-.172-.157-.203zm0 0"/></symbol></defs><use y="83.403" x="118.801" xlink:href="#n" width="100%" height="100%"/><use y="79.788" x="123.447" xlink:href="#o" width="100%" height="100%"/></g><path style="isolation:auto;mix-blend-mode:normal" d="M387.172 765.67l-228.42-413.563M638.018 556.506l-479.266-204.4" color="#000" overflow="visible" fill="none" stroke="gray" stroke-width="2.658" stroke-linecap="round" stroke-linejoin="round" stroke-dasharray="2.65781249,7.97343746"/><path style="isolation:auto;mix-blend-mode:normal" d="M387.172 765.67l152.363-450.923" color="#000" overflow="visible" fill="none" stroke="gray" stroke-width="2.658" stroke-linecap="round" stroke-linejoin="round" stroke-dasharray="2.65781256,7.97343764"/><path style="isolation:auto;mix-blend-mode:normal" d="M78.513 651.567l561.94-97.1" color="#000" overflow="visible" fill="none" stroke="gray" stroke-width="2.658" stroke-linecap="round" stroke-linejoin="round" stroke-dasharray="2.65781249,7.97343746"/><path style="isolation:auto;mix-blend-mode:normal" d="M539.535 314.747L85.037 359.339" color="#000" overflow="visible" fill="none" stroke="#000" stroke-width="2.657" stroke-linecap="round" stroke-linejoin="round"/><path style="isolation:auto;mix-blend-mode:normal" d="M539.535 314.747L78.513 651.567" color="#000" overflow="visible" fill="none" stroke="gray" stroke-width="2.658" stroke-linecap="round" stroke-linejoin="round" stroke-dasharray="2.65781252,7.97343756"/><path transform="matrix(-.21013 .97767 -.97859 -.20584 0 0)" d="M243.088-625.531a55.966 56.353 0 0 1 6.792 50.21 55.966 56.353 0 0 1-36.004 35.403l-16.924-53.715z" opacity=".7" fill="#fff" stroke="#000" stroke-width="3" stroke-linecap="square"/><g ns0:text="$\\gamma$" ns0:preamble="/home/waldgeist/data/homepage/inkscape-preamble.tex" transform="matrix(3.63165 0 0 3.63165 77.902 44.735)" stroke-width="1.277"><defs><symbol overflow="visible" id="p"><path d="M.406-2.531C.796-3.671 1.891-3.687 2-3.687c1.5 0 1.61 1.75 1.61 2.53 0 .61-.047.782-.126.985-.218.719-.515 1.875-.515 2.14 0 .11.047.173.125.173.14 0 .219-.22.328-.594.234-.844.328-1.406.36-1.719.03-.125.046-.25.093-.39.313-.985.953-2.47 1.344-3.25.078-.126.187-.344.187-.391 0-.094-.093-.094-.11-.094-.03 0-.093 0-.124.063-.516.953-.922 1.953-1.313 2.953-.015-.297-.015-1.063-.406-2.032-.25-.609-.64-1.093-1.328-1.093-1.25 0-1.953 1.515-1.953 1.828 0 .094.094.094.203.094zm0 0"/></symbol></defs><use height="100%" width="100%" xlink:href="#p" x="118.801" y="83.403"/></g><path transform="matrix(-.21013 .97767 -.97859 -.20584 0 0)" d="M295.451-283.065a55.966 56.353 0 0 1 50.516 9.163 55.966 56.353 0 0 1 21.853 46.766l-55.928-2.062z" opacity=".8" fill="#fff" stroke="#000" stroke-width="3" stroke-linecap="square"/><g transform="matrix(3.63165 0 0 3.63165 -260.034 84.731)" ns0:preamble="/home/waldgeist/data/homepage/inkscape-preamble.tex" ns0:text="$\\delta$" stroke-width="1.277"><defs><symbol id="q" overflow="visible"><path d="M2.625-4.36C1.391-4.061.422-2.765.422-1.561.422-.595 1.062.125 2 .125c1.156 0 1.984-1.578 1.984-2.953 0-.906-.39-1.406-.734-1.844-.36-.453-.953-1.203-.953-1.64 0-.22.203-.454.547-.454.312 0 .5.125.719.266.203.125.39.25.546.25.25 0 .391-.234.391-.406 0-.219-.156-.235-.516-.328-.515-.11-.656-.11-.812-.11-.781 0-1.14.438-1.14 1.032 0 .546.296 1.093.593 1.703zm.125.22c.25.468.547 1 .547 1.718 0 .656-.375 2.328-1.297 2.328-.547 0-.969-.422-.969-1.187 0-.625.375-2.5 1.719-2.86zm0 0"/></symbol></defs><use y="83.403" x="118.801" xlink:href="#q" width="100%" height="100%"/></g><path transform="matrix(-.21013 .97767 -.97859 -.20584 0 0)" d="M456.868-706.02a55.966 56.353 0 0 1-46.05 21.267 55.966 56.353 0 0 1-44.23-24.875l46.45-31.434z" opacity=".8" fill="#fff" stroke="#000" stroke-width="3" stroke-linecap="square"/><g transform="matrix(3.63165 0 0 3.63165 -216.856 71.648)" ns0:text="$\\beta$" stroke-width="1.277"><defs><symbol id="r" overflow="visible"><path d="M5.734-5.672c0-.75-.546-1.36-1.359-1.36-.578 0-.86.157-1.203.407C2.625-6.219 2.078-5.25 1.89-4.5L.297 1.828c0 .047.047.11.125.11s.11-.032.11-.047l.702-2.766c.188.61.625.969 1.36.969.719 0 1.469-.344 1.922-.781a2.486 2.486 0 0 0 .796-1.829c0-.718-.375-1.25-.734-1.484.578-.344 1.156-.953 1.156-1.672zM3.938-4.016c-.126.047-.235.063-.485.063-.14 0-.328.015-.437-.031.03-.11.39-.079.5-.079.203 0 .296 0 .421.047zm1.234-1.89c0 .703-.375 1.422-.89 1.734-.282-.11-.47-.125-.766-.125-.22 0-.782-.016-.782.313 0 .28.516.25.688.25.375 0 .531 0 .828-.125.375.359.422.671.438 1.125.015.578-.22 1.328-.5 1.718-.391.532-1.063.891-1.625.891-.766 0-1.141-.578-1.141-1.281 0-.094 0-.25.047-.438l.64-2.515c.22-.86.938-2.454 2.141-2.454.578 0 .922.313.922.907zm0 0"/></symbol></defs><use y="134.765" x="223.432" xlink:href="#r" width="100%" height="100%"/></g><path d="M366.587-709.628a55.966 56.353 0 0 1 2.59-65.805M565.552-216.21a55.966 56.353 0 0 1 20.227-40.892 55.966 56.353 0 0 1 43.677-12.36l-7.995 55.775z" transform="matrix(-.21013 .97767 -.97859 -.20584 0 0)" opacity=".8" fill="#fff" stroke="#000" stroke-width="3" stroke-linecap="square"/><g transform="matrix(3.63165 0 0 3.63165 -330.233 342.895)" ns0:preamble="/home/waldgeist/data/homepage/inkscape-preamble.tex" ns0:text="$\\varepsilon$" stroke-width="1.277"><defs><symbol id="s" overflow="visible"><path d="M1.406-2.266c.328.141.625.141.86.141.25 0 .812 0 .812-.313 0-.234-.36-.265-.734-.265-.203 0-.563.015-.922.187-.234-.109-.406-.312-.406-.578 0-.61.984-.969 1.875-.969.156 0 .515 0 .921.282.11.078.126.11.188.11.14 0 .281-.142.281-.282 0-.188-.61-.563-1.297-.563-1.14 0-2.218.672-2.218 1.422 0 .438.359.688.406.719-.594.328-.906.875-.906 1.344 0 .64.562 1.25 1.625 1.25 1.312 0 1.875-.875 1.875-1.032 0-.062-.063-.093-.11-.093-.062 0-.094.031-.11.062-.14.235-.374.61-1.577.61-.61 0-1.453-.157-1.453-.86 0-.343.28-.875.89-1.172zm.328-.125a1.87 1.87 0 0 1 .61-.093c.25 0 .281.015.469.062-.157.063-.172.078-.547.078-.22 0-.344 0-.532-.047zm0 0"/></symbol></defs><use height="100%" width="100%" y="83.403" x="118.801" xlink:href="#s"/></g><path d="M-481.176-658.65a55.966 56.353 0 0 1-34.572 43.766 55.966 56.353 0 0 1-54.998-7.777l34.256-44.563z" transform="matrix(-.97767 -.21013 .20584 -.97859 0 0)" opacity=".8" fill="#fff" stroke="#000" stroke-width="3" stroke-linecap="square"/><g ns0:text="$\\alpha$" ns0:preamble="/home/waldgeist/data/sphinx/test.tex" transform="matrix(3.63165 0 0 3.63165 -578.73 -85.054)" stroke-width="1.277"><defs><symbol overflow="visible" id="t"><path d="M4.75-2.36c0-1.562-.922-2.046-1.656-2.046-1.375 0-2.688 1.422-2.688 2.828C.406-.641 1 .109 2.031.109c.625 0 1.344-.234 2.094-.843.125.53.453.843.906.843.532 0 .844-.546.844-.703 0-.078-.063-.11-.125-.11-.063 0-.094.032-.125.11-.188.485-.547.485-.563.485-.312 0-.312-.782-.312-1.016 0-.203 0-.234.11-.344C5.796-2.656 6-3.812 6-3.812c0-.032-.016-.11-.125-.11-.094 0-.094.031-.14.219-.188.625-.516 1.375-.985 1.969zM4.094-.983c-.89.765-1.657.875-2.047.875-.594 0-.906-.454-.906-1.094 0-.484.265-1.563.578-2.063.468-.734 1.015-.921 1.36-.921.983 0 .983 1.312.983 2.078 0 .375 0 .953.032 1.125zm0 0"/></symbol></defs><use height="1052.362" width="744.094" xlink:href="#t" x="223.432" y="134.765" transform="translate(38.962 92.962)"/></g></svg>