<svg xmlns:ns0="http://www.iki.fi/pav/software/textext/" xmlns="http://www.w3.org/2000/svg" xmlns:xlink="http://www.w3.org/1999/xlink" width="744.094" height="1052.362"><title>Einteilung der Vierecke</title><rect style="marker:none" width="706.129" height="460.342" x="18.982" y="296.01" rx="3.724" ry="2.594" color="#000" fill="#fff" stroke="#fff" stroke-width=".657" stroke-linecap="round" stroke-linejoin="round" overflow="visible"/><path d="M278.731 697.898l124.92-54.475" fill="none" stroke="#000" stroke-linecap="round"/><rect style="marker:none" width="255.115" height="46.092" x="150.744" y="314.671" rx="3.886" ry="3.886" color="#000" fill="#fff" stroke="gray" stroke-linecap="round" overflow="visible"/><g transform="matrix(2.4 0 0 2.4 -363.155 20.394)" ns0:text="Allgemeines Viereck" ns0:preamble="/home/waldgeist/data/sphinx/inkscape-preamble.tex"><defs><symbol overflow="visible" id="a"><path d="M3.969-6.938c-.047-.125-.078-.203-.235-.203-.156 0-.187.063-.234.204L1.437-.984C1.25-.47.86-.313.313-.313V0c.235-.016.672-.031 1.016-.031.313 0 .828.015 1.156.031v-.313c-.5 0-.75-.25-.75-.5 0-.03.016-.14.016-.156l.469-1.297h2.453L5.203-.75a.58.58 0 0 1 .031.14c0 .297-.562.297-.828.297V0c.36-.031 1.063-.031 1.438-.031.422 0 .89.015 1.297.031v-.313h-.172c-.594 0-.735-.062-.844-.39zm-.531 1.11l1.124 3.25H2.329z"/></symbol><symbol overflow="visible" id="b"><path d="M1.766-6.922l-1.438.11v.312c.703 0 .781.063.781.563V-.75c0 .438-.109.438-.78.438V0c.327-.016.859-.031 1.109-.031s.734.015 1.109.031v-.313c-.672 0-.781 0-.781-.437z"/></symbol><symbol overflow="visible" id="c"><path d="M2.219-1.719c-.875 0-.875-1-.875-1.218 0-.266.015-.594.156-.844.078-.11.313-.39.719-.39.86 0 .86.984.86 1.218 0 .265 0 .594-.157.844-.078.109-.313.39-.703.39zm-1.156.39c0-.03 0-.265.156-.468.39.281.812.313 1 .313.922 0 1.61-.688 1.61-1.454 0-.374-.157-.734-.407-.968.36-.344.719-.39.89-.39.032 0 .079 0 .11.015-.11.031-.172.14-.172.265 0 .172.14.282.297.282a.28.28 0 0 0 .281-.297c0-.172-.11-.485-.5-.485-.203 0-.64.063-1.062.47a1.652 1.652 0 0 0-1.047-.36c-.938 0-1.625.687-1.625 1.453 0 .437.219.812.469 1.031-.125.14-.313.469-.313.828 0 .313.14.688.453.89-.61.157-.922.595-.922.985 0 .719.985 1.266 2.203 1.266 1.172 0 2.204-.5 2.204-1.281 0-.344-.125-.86-.641-1.141-.531-.266-1.11-.266-1.719-.266-.25 0-.672 0-.75-.015-.312-.047-.516-.344-.516-.672zM2.5 1.829C1.484 1.828.797 1.312.797.781c0-.453.375-.828.812-.844h.594c.86 0 1.969 0 1.969.844 0 .547-.703 1.047-1.672 1.047z"/></symbol><symbol overflow="visible" id="d"><path d="M1.11-2.516C1.171-4 2.015-4.25 2.36-4.25c1.015 0 1.124 1.344 1.124 1.734zm0 .22h2.78c.22 0 .25 0 .25-.22 0-.984-.546-1.953-1.78-1.953C1.202-4.469.28-3.437.28-2.187.281-.86 1.328.108 2.47.108 3.688.11 4.14-1 4.14-1.187c0-.094-.079-.125-.141-.125-.078 0-.11.062-.125.14C3.531-.14 2.625-.14 2.531-.14c-.5 0-.89-.296-1.125-.671-.297-.47-.297-1.125-.297-1.485z"/></symbol><symbol overflow="visible" id="e"><path d="M1.094-3.422V-.75c0 .438-.11.438-.782.438V0c.36-.016.86-.031 1.141-.031.25 0 .766.015 1.11.031v-.313c-.672 0-.782 0-.782-.437v-1.844c0-1.031.719-1.594 1.344-1.594.64 0 .75.532.75 1.11V-.75c0 .438-.11.438-.781.438V0c.344-.016.86-.031 1.125-.031.25 0 .781.015 1.11.031v-.313c-.657 0-.766 0-.766-.437v-1.844c0-1.031.703-1.594 1.343-1.594.625 0 .735.532.735 1.11V-.75c0 .438-.11.438-.782.438V0c.344-.016.86-.031 1.125-.031.266 0 .782.015 1.125.031v-.313c-.515 0-.765 0-.78-.296v-1.907c0-.859 0-1.156-.313-1.515-.141-.172-.47-.375-1.047-.375-.828 0-1.282.593-1.438.984-.14-.875-.875-.984-1.328-.984-.734 0-1.203.422-1.484 1.047v-1.047l-1.407.11v.312c.704 0 .782.062.782.562z"/></symbol><symbol overflow="visible" id="f"><path d="M1.766-4.406l-1.391.11v.312c.64 0 .734.062.734.546V-.75c0 .438-.109.438-.78.438V0c.312-.016.859-.031 1.093-.031.36 0 .703.015 1.047.031v-.313c-.672 0-.703-.046-.703-.437zm.03-1.735a.514.514 0 0 0-.515-.53.537.537 0 0 0-.531.53c0 .266.219.532.531.532a.514.514 0 0 0 .516-.532z"/></symbol><symbol overflow="visible" id="g"><path d="M1.094-3.422V-.75c0 .438-.11.438-.782.438V0c.36-.016.86-.031 1.141-.031.25 0 .766.015 1.11.031v-.313c-.672 0-.782 0-.782-.437v-1.844c0-1.031.719-1.594 1.344-1.594.64 0 .75.532.75 1.11V-.75c0 .438-.11.438-.781.438V0c.344-.016.86-.031 1.125-.031.25 0 .781.015 1.11.031v-.313c-.516 0-.766 0-.766-.296v-1.907c0-.859 0-1.156-.313-1.515-.14-.172-.469-.375-1.047-.375-.734 0-1.203.422-1.484 1.047v-1.047l-1.407.11v.312c.704 0 .782.062.782.562z"/></symbol><symbol overflow="visible" id="h"><path d="M2.078-1.938c.219.047 1.031.204 1.031.922 0 .5-.343.907-1.125.907-.843 0-1.203-.563-1.39-1.422-.031-.125-.031-.157-.14-.157-.126 0-.126.063-.126.235v1.328c0 .172 0 .234.11.234C.483.11.5.094.688-.094.703-.109.703-.125.89-.312c.437.406.89.421 1.093.421 1.141 0 1.61-.671 1.61-1.39 0-.516-.297-.828-.422-.938-.328-.328-.719-.406-1.14-.484-.563-.11-1.22-.235-1.22-.813 0-.359.25-.765 1.11-.765 1.094 0 1.156.906 1.172 1.203 0 .094.094.094.11.094.14 0 .14-.047.14-.235v-1.015c0-.157 0-.235-.11-.235-.046 0-.078 0-.203.125-.031.032-.125.125-.172.157-.375-.282-.78-.282-.937-.282-1.219 0-1.594.672-1.594 1.235 0 .343.156.625.422.843.328.25.61.313 1.328.454z"/></symbol><symbol overflow="visible" id="i"><path d="M6.188-5.828c.14-.375.406-.656 1.093-.672v-.313c-.312.032-.718.032-.968.032-.297 0-.875-.016-1.141-.032v.313c.516.016.734.266.734.5 0 .078-.031.14-.047.203L4.031-1 2.125-6.031c-.063-.14-.063-.157-.063-.172 0-.297.563-.297.813-.297v-.313c-.36.032-1.047.032-1.422.032-.469 0-.906-.016-1.266-.032v.313c.657 0 .844 0 .985.375L3.484 0c.063.188.11.219.25.219.157 0 .188-.047.235-.188z"/></symbol><symbol overflow="visible" id="j"><path d="M1.672-3.313v-1.093l-1.39.11v.312c.702 0 .78.062.78.562V-.75c0 .438-.109.438-.78.438V0c.39-.016.859-.031 1.14-.031.39 0 .86 0 1.266.031v-.313h-.22c-.734 0-.75-.109-.75-.468v-1.531c0-.985.423-1.876 1.173-1.876.062 0 .093 0 .109.016-.031 0-.234.125-.234.39 0 .266.218.423.437.423a.421.421 0 0 0 .422-.438c0-.312-.313-.61-.734-.61-.735 0-1.094.673-1.22 1.095z"/></symbol><symbol overflow="visible" id="k"><path d="M1.172-2.172c0-1.625.812-2.047 1.344-2.047.093 0 .718.016 1.062.375-.406.031-.469.328-.469.453 0 .266.188.454.454.454.265 0 .468-.157.468-.47 0-.671-.765-1.062-1.531-1.062C1.25-4.469.344-3.39.344-2.156c0 1.281.984 2.265 2.14 2.265 1.329 0 1.657-1.203 1.657-1.296 0-.094-.11-.094-.141-.094-.078 0-.11.031-.125.093C3.594-.265 2.937-.14 2.578-.14c-.531 0-1.406-.421-1.406-2.03z"/></symbol><symbol overflow="visible" id="l"><path d="M1.063-.75c0 .438-.11.438-.782.438V0c.328-.016.797-.031 1.078-.031.313 0 .704.015 1.11.031v-.313c-.672 0-.781 0-.781-.437v-1.031l.64-.547c.766 1.047 1.188 1.61 1.188 1.797 0 .187-.172.219-.36.219V0c.266-.016.86-.031 1.078-.031.282 0 .579.015.86.031v-.313c-.375 0-.594 0-.969-.53L2.859-2.626c-.015-.016-.062-.078-.062-.11 0-.03.719-.64.812-.718.625-.5 1.047-.531 1.25-.531v-.313c-.28.031-.406.031-.687.031-.36 0-.984-.015-1.125-.03v.312c.187 0 .297.109.297.25 0 .203-.14.312-.219.39L1.719-2.14v-4.78L.28-6.813v.312c.703 0 .781.063.781.563z"/></symbol></defs><use height="1052.362" width="744.094" xlink:href="#a" x="223.432" y="134.765"/><use height="1052.362" width="744.094" xlink:href="#b" x="230.904" y="134.765"/><use height="1052.362" width="744.094" xlink:href="#b" x="233.672" y="134.765"/><use height="1052.362" width="744.094" xlink:href="#c" x="236.439" y="134.765"/><use height="1052.362" width="744.094" xlink:href="#d" x="241.42" y="134.765"/><use height="1052.362" width="744.094" xlink:href="#e" x="245.848" y="134.765"/><use height="1052.362" width="744.094" xlink:href="#d" x="254.15" y="134.765"/><use height="1052.362" width="744.094" xlink:href="#f" x="258.577" y="134.765"/><use height="1052.362" width="744.094" xlink:href="#g" x="261.345" y="134.765"/><use height="1052.362" width="744.094" xlink:href="#d" x="266.88" y="134.765"/><use height="1052.362" width="744.094" xlink:href="#h" x="271.307" y="134.765"/><g><use height="1052.362" width="744.094" xlink:href="#i" x="278.554" y="134.765"/><use height="1052.362" width="744.094" xlink:href="#f" x="286.026" y="134.765"/><use height="1052.362" width="744.094" xlink:href="#d" x="288.794" y="134.765"/><use height="1052.362" width="744.094" xlink:href="#j" x="293.221" y="134.765"/><use height="1052.362" width="744.094" xlink:href="#d" x="297.123" y="134.765"/></g><g><use height="1052.362" width="744.094" xlink:href="#k" x="301.561" y="134.765"/></g><g><use height="1052.362" width="744.094" xlink:href="#l" x="305.709" y="134.765"/></g></g><path d="M153.812 643.423l124.919 54.475" fill="none" stroke="#000" stroke-linecap="round"/><rect style="marker:none" width="220.249" height="39.793" x="294.034" y="415.611" rx="3.355" ry="3.355" color="#000" fill="#fff" stroke="gray" stroke-linecap="round" overflow="visible"/><g transform="matrix(2.4 0 0 2.4 -233.992 118.184)" ns0:preamble="/home/waldgeist/data/sphinx/inkscape-preamble.tex" ns0:text="Allgemeines Trapez"><defs><symbol id="m" overflow="visible"><path d="M3.969-6.938c-.047-.125-.078-.203-.235-.203-.156 0-.187.063-.234.204L1.437-.984C1.25-.47.86-.313.313-.313V0c.235-.016.672-.031 1.016-.031.313 0 .828.015 1.156.031v-.313c-.5 0-.75-.25-.75-.5 0-.03.016-.14.016-.156l.469-1.297h2.453L5.203-.75a.58.58 0 0 1 .031.14c0 .297-.562.297-.828.297V0c.36-.031 1.063-.031 1.438-.031.422 0 .89.015 1.297.031v-.313h-.172c-.594 0-.735-.062-.844-.39zm-.531 1.11l1.124 3.25H2.329z"/></symbol><symbol id="n" overflow="visible"><path d="M1.766-6.922l-1.438.11v.312c.703 0 .781.063.781.563V-.75c0 .438-.109.438-.78.438V0c.327-.016.859-.031 1.109-.031s.734.015 1.109.031v-.313c-.672 0-.781 0-.781-.437z"/></symbol><symbol id="o" overflow="visible"><path d="M2.219-1.719c-.875 0-.875-1-.875-1.218 0-.266.015-.594.156-.844.078-.11.313-.39.719-.39.86 0 .86.984.86 1.218 0 .265 0 .594-.157.844-.078.109-.313.39-.703.39zm-1.156.39c0-.03 0-.265.156-.468.39.281.812.313 1 .313.922 0 1.61-.688 1.61-1.454 0-.374-.157-.734-.407-.968.36-.344.719-.39.89-.39.032 0 .079 0 .11.015-.11.031-.172.14-.172.265 0 .172.14.282.297.282a.28.28 0 0 0 .281-.297c0-.172-.11-.485-.5-.485-.203 0-.64.063-1.062.47a1.652 1.652 0 0 0-1.047-.36c-.938 0-1.625.687-1.625 1.453 0 .437.219.812.469 1.031-.125.14-.313.469-.313.828 0 .313.14.688.453.89-.61.157-.922.595-.922.985 0 .719.985 1.266 2.203 1.266 1.172 0 2.204-.5 2.204-1.281 0-.344-.125-.86-.641-1.141-.531-.266-1.11-.266-1.719-.266-.25 0-.672 0-.75-.015-.312-.047-.516-.344-.516-.672zM2.5 1.829C1.484 1.828.797 1.312.797.781c0-.453.375-.828.812-.844h.594c.86 0 1.969 0 1.969.844 0 .547-.703 1.047-1.672 1.047z"/></symbol><symbol id="p" overflow="visible"><path d="M1.11-2.516C1.171-4 2.015-4.25 2.36-4.25c1.015 0 1.124 1.344 1.124 1.734zm0 .22h2.78c.22 0 .25 0 .25-.22 0-.984-.546-1.953-1.78-1.953C1.202-4.469.28-3.437.28-2.187.281-.86 1.328.108 2.47.108 3.688.11 4.14-1 4.14-1.187c0-.094-.079-.125-.141-.125-.078 0-.11.062-.125.14C3.531-.14 2.625-.14 2.531-.14c-.5 0-.89-.296-1.125-.671-.297-.47-.297-1.125-.297-1.485z"/></symbol><symbol id="q" overflow="visible"><path d="M1.094-3.422V-.75c0 .438-.11.438-.782.438V0c.36-.016.86-.031 1.141-.031.25 0 .766.015 1.11.031v-.313c-.672 0-.782 0-.782-.437v-1.844c0-1.031.719-1.594 1.344-1.594.64 0 .75.532.75 1.11V-.75c0 .438-.11.438-.781.438V0c.344-.016.86-.031 1.125-.031.25 0 .781.015 1.11.031v-.313c-.657 0-.766 0-.766-.437v-1.844c0-1.031.703-1.594 1.343-1.594.625 0 .735.532.735 1.11V-.75c0 .438-.11.438-.782.438V0c.344-.016.86-.031 1.125-.031.266 0 .782.015 1.125.031v-.313c-.515 0-.765 0-.78-.296v-1.907c0-.859 0-1.156-.313-1.515-.141-.172-.47-.375-1.047-.375-.828 0-1.282.593-1.438.984-.14-.875-.875-.984-1.328-.984-.734 0-1.203.422-1.484 1.047v-1.047l-1.407.11v.312c.704 0 .782.062.782.562z"/></symbol><symbol id="r" overflow="visible"><path d="M1.766-4.406l-1.391.11v.312c.64 0 .734.062.734.546V-.75c0 .438-.109.438-.78.438V0c.312-.016.859-.031 1.093-.031.36 0 .703.015 1.047.031v-.313c-.672 0-.703-.046-.703-.437zm.03-1.735a.514.514 0 0 0-.515-.53.537.537 0 0 0-.531.53c0 .266.219.532.531.532a.514.514 0 0 0 .516-.532z"/></symbol><symbol id="s" overflow="visible"><path d="M1.094-3.422V-.75c0 .438-.11.438-.782.438V0c.36-.016.86-.031 1.141-.031.25 0 .766.015 1.11.031v-.313c-.672 0-.782 0-.782-.437v-1.844c0-1.031.719-1.594 1.344-1.594.64 0 .75.532.75 1.11V-.75c0 .438-.11.438-.781.438V0c.344-.016.86-.031 1.125-.031.25 0 .781.015 1.11.031v-.313c-.516 0-.766 0-.766-.296v-1.907c0-.859 0-1.156-.313-1.515-.14-.172-.469-.375-1.047-.375-.734 0-1.203.422-1.484 1.047v-1.047l-1.407.11v.312c.704 0 .782.062.782.562z"/></symbol><symbol id="t" overflow="visible"><path d="M2.078-1.938c.219.047 1.031.204 1.031.922 0 .5-.343.907-1.125.907-.843 0-1.203-.563-1.39-1.422-.031-.125-.031-.157-.14-.157-.126 0-.126.063-.126.235v1.328c0 .172 0 .234.11.234C.483.11.5.094.688-.094.703-.109.703-.125.89-.312c.437.406.89.421 1.093.421 1.141 0 1.61-.671 1.61-1.39 0-.516-.297-.828-.422-.938-.328-.328-.719-.406-1.14-.484-.563-.11-1.22-.235-1.22-.813 0-.359.25-.765 1.11-.765 1.094 0 1.156.906 1.172 1.203 0 .094.094.094.11.094.14 0 .14-.047.14-.235v-1.015c0-.157 0-.235-.11-.235-.046 0-.078 0-.203.125-.031.032-.125.125-.172.157-.375-.282-.78-.282-.937-.282-1.219 0-1.594.672-1.594 1.235 0 .343.156.625.422.843.328.25.61.313 1.328.454z"/></symbol><symbol id="u" overflow="visible"><path d="M6.64-6.75H.548L.359-4.5h.25C.75-6.11.891-6.438 2.406-6.438c.172 0 .438 0 .531.016.22.047.22.156.22.375V-.78c0 .328 0 .469-1.048.469h-.406V0c.406-.031 1.422-.031 1.89-.031.454 0 1.485 0 1.891.031v-.313h-.406c-1.047 0-1.047-.14-1.047-.468v-5.266c0-.187 0-.328.188-.375.11-.016.375-.016.562-.016 1.516 0 1.657.329 1.797 1.938h.25z"/></symbol><symbol id="v" overflow="visible"><path d="M1.672-3.313v-1.093l-1.39.11v.312c.702 0 .78.062.78.562V-.75c0 .438-.109.438-.78.438V0c.39-.016.859-.031 1.14-.031.39 0 .86 0 1.266.031v-.313h-.22c-.734 0-.75-.109-.75-.468v-1.531c0-.985.423-1.876 1.173-1.876.062 0 .093 0 .109.016-.031 0-.234.125-.234.39 0 .266.218.423.437.423a.421.421 0 0 0 .422-.438c0-.312-.313-.61-.734-.61-.735 0-1.094.673-1.22 1.095z"/></symbol><symbol id="w" overflow="visible"><path d="M3.313-.75c.046.39.312.813.78.813.22 0 .829-.141.829-.954v-.562h-.25v.562c0 .579-.25.641-.36.641-.328 0-.375-.453-.375-.5v-1.984c0-.422 0-.813-.359-1.188-.39-.39-.89-.547-1.36-.547-.827 0-1.515.469-1.515 1.125 0 .297.203.469.469.469a.435.435 0 0 0 .453-.453c0-.125-.047-.453-.516-.453.282-.36.766-.469 1.079-.469.5 0 1.062.39 1.062 1.281v.36c-.516.03-1.203.062-1.828.359-.75.344-1 .86-1 1.297 0 .812.969 1.062 1.594 1.062.656 0 1.109-.406 1.296-.859zM3.25-2.39v1c0 .937-.719 1.28-1.172 1.28-.484 0-.89-.343-.89-.843 0-.547.421-1.375 2.062-1.438z"/></symbol><symbol id="x" overflow="visible"><path d="M1.719-3.75v-.656l-1.438.11v.312c.703 0 .781.062.781.5v4.656c0 .453-.109.453-.78.453v.313c.343-.016.859-.032 1.109-.032.28 0 .78.016 1.125.032v-.313c-.657 0-.766 0-.766-.453V-.594c.047.172.469.703 1.219.703 1.187 0 2.219-.984 2.219-2.265 0-1.266-.954-2.25-2.079-2.25-.78 0-1.203.437-1.39.656zm.031 2.61v-2.22c.281-.515.766-.796 1.281-.796.735 0 1.328.875 1.328 2C4.36-.953 3.672-.11 2.938-.11c-.407 0-.782-.204-1.047-.61-.141-.203-.141-.219-.141-.422z"/></symbol><symbol id="y" overflow="visible"><path d="M3.89-4c.094-.11.094-.125.094-.172 0-.125-.093-.125-.265-.125H.53l-.11 1.61h.25c.063-1.016.25-1.391 1.345-1.391h1.14L.375-.312c-.094.109-.094.124-.094.171C.281 0 .344 0 .531 0h3.297L4-1.86h-.25C3.656-.686 3.453-.25 2.297-.25H1.109z"/></symbol></defs><use height="1052.362" width="744.094" y="134.765" x="223.432" xlink:href="#m"/><use height="1052.362" width="744.094" y="134.765" x="230.904" xlink:href="#n"/><use height="1052.362" width="744.094" y="134.765" x="233.672" xlink:href="#n"/><use height="1052.362" width="744.094" y="134.765" x="236.439" xlink:href="#o"/><use height="1052.362" width="744.094" y="134.765" x="241.42" xlink:href="#p"/><use height="1052.362" width="744.094" y="134.765" x="245.848" xlink:href="#q"/><use height="1052.362" width="744.094" y="134.765" x="254.15" xlink:href="#p"/><use height="1052.362" width="744.094" y="134.765" x="258.577" xlink:href="#r"/><use height="1052.362" width="744.094" y="134.765" x="261.345" xlink:href="#s"/><use height="1052.362" width="744.094" y="134.765" x="266.88" xlink:href="#p"/><use height="1052.362" width="744.094" y="134.765" x="271.307" xlink:href="#t"/><g><use height="1052.362" width="744.094" y="134.765" x="278.554" xlink:href="#u"/></g><g><use height="1052.362" width="744.094" y="134.765" x="284.922" xlink:href="#v"/><use height="1052.362" width="744.094" y="134.765" x="288.825" xlink:href="#w"/><use height="1052.362" width="744.094" y="134.765" x="293.806" xlink:href="#x"/></g><g><use height="1052.362" width="744.094" y="134.765" x="299.62" xlink:href="#p"/><use height="1052.362" width="744.094" y="134.765" x="304.047" xlink:href="#y"/></g></g><path d="M153.812 603.63l124.919-54.475" fill="none" stroke="#000" stroke-linecap="round"/><rect ry="3.355" rx="3.355" y="415.093" x="43.687" height="39.793" width="220.249" style="marker:none" color="#000" fill="#fff" stroke="gray" stroke-linecap="round" overflow="visible"/><g ns0:text="Drachenviereck" ns0:preamble="/home/waldgeist/data/sphinx/inkscape-preamble.tex" transform="matrix(2.4 0 0 2.4 -461.913 119.729)"><defs><symbol overflow="visible" id="z"><path d="M.344-6.813v.313h.25c.765 0 .781.11.781.469v5.25c0 .36-.016.469-.781.469h-.25V0H4c1.672 0 3.047-1.469 3.047-3.344C7.047-5.25 5.703-6.813 4-6.813zm2.375 6.5c-.469 0-.485-.062-.485-.39v-5.39c0-.345.016-.407.485-.407h1c.625 0 1.312.219 1.812.922.438.594.516 1.453.516 2.234 0 1.094-.188 1.703-.547 2.188a2.192 2.192 0 0 1-1.766.843z"/></symbol><symbol overflow="visible" id="A"><path d="M1.672-3.313v-1.093l-1.39.11v.312c.702 0 .78.062.78.562V-.75c0 .438-.109.438-.78.438V0c.39-.016.859-.031 1.14-.031.39 0 .86 0 1.266.031v-.313h-.22c-.734 0-.75-.109-.75-.468v-1.531c0-.985.423-1.876 1.173-1.876.062 0 .093 0 .109.016-.031 0-.234.125-.234.39 0 .266.218.423.437.423a.421.421 0 0 0 .422-.438c0-.312-.313-.61-.734-.61-.735 0-1.094.673-1.22 1.095z"/></symbol><symbol overflow="visible" id="B"><path d="M3.313-.75c.046.39.312.813.78.813.22 0 .829-.141.829-.954v-.562h-.25v.562c0 .579-.25.641-.36.641-.328 0-.375-.453-.375-.5v-1.984c0-.422 0-.813-.359-1.188-.39-.39-.89-.547-1.36-.547-.827 0-1.515.469-1.515 1.125 0 .297.203.469.469.469a.435.435 0 0 0 .453-.453c0-.125-.047-.453-.516-.453.282-.36.766-.469 1.079-.469.5 0 1.062.39 1.062 1.281v.36c-.516.03-1.203.062-1.828.359-.75.344-1 .86-1 1.297 0 .812.969 1.062 1.594 1.062.656 0 1.109-.406 1.296-.859zM3.25-2.39v1c0 .937-.719 1.28-1.172 1.28-.484 0-.89-.343-.89-.843 0-.547.421-1.375 2.062-1.438z"/></symbol><symbol overflow="visible" id="C"><path d="M1.172-2.172c0-1.625.812-2.047 1.344-2.047.093 0 .718.016 1.062.375-.406.031-.469.328-.469.453 0 .266.188.454.454.454.265 0 .468-.157.468-.47 0-.671-.765-1.062-1.531-1.062C1.25-4.469.344-3.39.344-2.156c0 1.281.984 2.265 2.14 2.265 1.329 0 1.657-1.203 1.657-1.296 0-.094-.11-.094-.141-.094-.078 0-.11.031-.125.093C3.594-.265 2.937-.14 2.578-.14c-.531 0-1.406-.421-1.406-2.03z"/></symbol><symbol overflow="visible" id="D"><path d="M1.094-.75c0 .438-.11.438-.782.438V0c.36-.016.86-.031 1.141-.031.25 0 .766.015 1.11.031v-.313c-.672 0-.782 0-.782-.437v-1.844c0-1.031.719-1.594 1.344-1.594.64 0 .75.532.75 1.11V-.75c0 .438-.11.438-.781.438V0c.344-.016.86-.031 1.125-.031.25 0 .781.015 1.11.031v-.313c-.516 0-.766 0-.766-.296v-1.907c0-.859 0-1.156-.313-1.515-.14-.172-.469-.375-1.047-.375-.844 0-1.281.593-1.453.984v-3.5l-1.438.11v.312c.704 0 .782.063.782.563z"/></symbol><symbol overflow="visible" id="E"><path d="M1.11-2.516C1.171-4 2.015-4.25 2.36-4.25c1.015 0 1.124 1.344 1.124 1.734zm0 .22h2.78c.22 0 .25 0 .25-.22 0-.984-.546-1.953-1.78-1.953C1.202-4.469.28-3.437.28-2.187.281-.86 1.328.108 2.47.108 3.688.11 4.14-1 4.14-1.187c0-.094-.079-.125-.141-.125-.078 0-.11.062-.125.14C3.531-.14 2.625-.14 2.531-.14c-.5 0-.89-.296-1.125-.671-.297-.47-.297-1.125-.297-1.485z"/></symbol><symbol overflow="visible" id="F"><path d="M1.094-3.422V-.75c0 .438-.11.438-.782.438V0c.36-.016.86-.031 1.141-.031.25 0 .766.015 1.11.031v-.313c-.672 0-.782 0-.782-.437v-1.844c0-1.031.719-1.594 1.344-1.594.64 0 .75.532.75 1.11V-.75c0 .438-.11.438-.781.438V0c.344-.016.86-.031 1.125-.031.25 0 .781.015 1.11.031v-.313c-.516 0-.766 0-.766-.296v-1.907c0-.859 0-1.156-.313-1.515-.14-.172-.469-.375-1.047-.375-.734 0-1.203.422-1.484 1.047v-1.047l-1.407.11v.312c.704 0 .782.062.782.562z"/></symbol><symbol overflow="visible" id="G"><path d="M4.14-3.313c.094-.234.266-.671.923-.671v-.313c-.235.016-.516.031-.75.031-.235 0-.688-.015-.86-.03v.312c.36 0 .469.234.469.421 0 .094-.016.141-.047.25L2.844-.78l-1.11-2.781c-.062-.126-.062-.141-.062-.172 0-.25.39-.25.578-.25v-.313c-.313.016-.86.031-1.094.031-.265 0-.672-.015-.968-.03v.312c.625 0 .671.062.796.359L2.422-.078c.062.14.078.187.203.187.14 0 .172-.093.219-.187z"/></symbol><symbol overflow="visible" id="H"><path d="M1.766-4.406l-1.391.11v.312c.64 0 .734.062.734.546V-.75c0 .438-.109.438-.78.438V0c.312-.016.859-.031 1.093-.031.36 0 .703.015 1.047.031v-.313c-.672 0-.703-.046-.703-.437zm.03-1.735a.514.514 0 0 0-.515-.53.537.537 0 0 0-.531.53c0 .266.219.532.531.532a.514.514 0 0 0 .516-.532z"/></symbol><symbol overflow="visible" id="I"><path d="M1.063-.75c0 .438-.11.438-.782.438V0c.328-.016.797-.031 1.078-.031.313 0 .704.015 1.11.031v-.313c-.672 0-.781 0-.781-.437v-1.031l.64-.547c.766 1.047 1.188 1.61 1.188 1.797 0 .187-.172.219-.36.219V0c.266-.016.86-.031 1.078-.031.282 0 .579.015.86.031v-.313c-.375 0-.594 0-.969-.53L2.859-2.626c-.015-.016-.062-.078-.062-.11 0-.03.719-.64.812-.718.625-.5 1.047-.531 1.25-.531v-.313c-.28.031-.406.031-.687.031-.36 0-.984-.015-1.125-.03v.312c.187 0 .297.109.297.25 0 .203-.14.312-.219.39L1.719-2.14v-4.78L.28-6.813v.312c.703 0 .781.063.781.563z"/></symbol></defs><use xlink:href="#z" x="223.432" y="134.765" width="744.094" height="1052.362"/><use xlink:href="#A" x="231.042" y="134.765" width="744.094" height="1052.362"/><use xlink:href="#B" x="234.945" y="134.765" width="744.094" height="1052.362"/><use xlink:href="#C" x="239.926" y="134.765" width="744.094" height="1052.362"/><g><use xlink:href="#D" x="244.075" y="134.765" width="744.094" height="1052.362"/><use xlink:href="#E" x="249.61" y="134.765" width="744.094" height="1052.362"/><use xlink:href="#F" x="254.037" y="134.765" width="744.094" height="1052.362"/></g><g><use xlink:href="#G" x="259.293" y="134.765" width="744.094" height="1052.362"/><use xlink:href="#H" x="264.552" y="134.765" width="744.094" height="1052.362"/><use xlink:href="#E" x="267.319" y="134.765" width="744.094" height="1052.362"/><use xlink:href="#A" x="271.747" y="134.765" width="744.094" height="1052.362"/><use xlink:href="#E" x="275.649" y="134.765" width="744.094" height="1052.362"/><use xlink:href="#C" x="280.076" y="134.765" width="744.094" height="1052.362"/></g><g><use xlink:href="#I" x="284.235" y="134.765" width="744.094" height="1052.362"/></g></g><path d="M403.65 603.63l124.92-54.475" fill="none" stroke="#000" stroke-linecap="round"/><rect style="marker:none" width="220.249" height="39.793" x="168.606" y="509.362" rx="3.355" ry="3.355" color="#000" fill="#fff" stroke="gray" stroke-linecap="round" overflow="visible"/><g transform="matrix(2.4 0 0 2.4 -339.943 211.672)" ns0:preamble="/home/waldgeist/data/sphinx/inkscape-preamble.tex" ns0:text="Parallelogramm"><defs><symbol id="J" overflow="visible"><path d="M2.266-3.156h1.687c1.188 0 2.266-.797 2.266-1.797 0-.984-.985-1.86-2.344-1.86H.344v.313h.25c.765 0 .781.11.781.469v5.25c0 .36-.016.469-.781.469h-.25V0c.36-.031 1.094-.031 1.469-.031s1.125 0 1.484.031v-.313h-.25c-.766 0-.781-.109-.781-.468zm-.032-.25v-2.688c0-.343.016-.406.485-.406h.89c1.579 0 1.579 1.063 1.579 1.547 0 .469 0 1.547-1.579 1.547z"/></symbol><symbol id="K" overflow="visible"><path d="M3.313-.75c.046.39.312.813.78.813.22 0 .829-.141.829-.954v-.562h-.25v.562c0 .579-.25.641-.36.641-.328 0-.375-.453-.375-.5v-1.984c0-.422 0-.813-.359-1.188-.39-.39-.89-.547-1.36-.547-.827 0-1.515.469-1.515 1.125 0 .297.203.469.469.469a.435.435 0 0 0 .453-.453c0-.125-.047-.453-.516-.453.282-.36.766-.469 1.079-.469.5 0 1.062.39 1.062 1.281v.36c-.516.03-1.203.062-1.828.359-.75.344-1 .86-1 1.297 0 .812.969 1.062 1.594 1.062.656 0 1.109-.406 1.296-.859zM3.25-2.39v1c0 .937-.719 1.28-1.172 1.28-.484 0-.89-.343-.89-.843 0-.547.421-1.375 2.062-1.438z"/></symbol><symbol id="L" overflow="visible"><path d="M1.672-3.313v-1.093l-1.39.11v.312c.702 0 .78.062.78.562V-.75c0 .438-.109.438-.78.438V0c.39-.016.859-.031 1.14-.031.39 0 .86 0 1.266.031v-.313h-.22c-.734 0-.75-.109-.75-.468v-1.531c0-.985.423-1.876 1.173-1.876.062 0 .093 0 .109.016-.031 0-.234.125-.234.39 0 .266.218.423.437.423a.421.421 0 0 0 .422-.438c0-.312-.313-.61-.734-.61-.735 0-1.094.673-1.22 1.095z"/></symbol><symbol id="M" overflow="visible"><path d="M1.766-6.922l-1.438.11v.312c.703 0 .781.063.781.563V-.75c0 .438-.109.438-.78.438V0c.327-.016.859-.031 1.109-.031s.734.015 1.109.031v-.313c-.672 0-.781 0-.781-.437z"/></symbol><symbol id="N" overflow="visible"><path d="M1.11-2.516C1.171-4 2.015-4.25 2.36-4.25c1.015 0 1.124 1.344 1.124 1.734zm0 .22h2.78c.22 0 .25 0 .25-.22 0-.984-.546-1.953-1.78-1.953C1.202-4.469.28-3.437.28-2.187.281-.86 1.328.108 2.47.108 3.688.11 4.14-1 4.14-1.187c0-.094-.079-.125-.141-.125-.078 0-.11.062-.125.14C3.531-.14 2.625-.14 2.531-.14c-.5 0-.89-.296-1.125-.671-.297-.47-.297-1.125-.297-1.485z"/></symbol><symbol id="O" overflow="visible"><path d="M4.688-2.14c0-1.266-.985-2.329-2.188-2.329C1.25-4.469.281-3.375.281-2.14A2.22 2.22 0 0 0 2.484.11c1.204 0 2.204-.984 2.204-2.25zM2.5-.14c-.438 0-.875-.204-1.14-.672-.25-.438-.25-1.047-.25-1.407 0-.39 0-.922.234-1.36a1.347 1.347 0 0 1 1.14-.671c.438 0 .86.219 1.125.656.266.422.266 1 .266 1.375 0 .36 0 .906-.219 1.344-.234.453-.672.734-1.156.734z"/></symbol><symbol id="P" overflow="visible"><path d="M2.219-1.719c-.875 0-.875-1-.875-1.218 0-.266.015-.594.156-.844.078-.11.313-.39.719-.39.86 0 .86.984.86 1.218 0 .265 0 .594-.157.844-.078.109-.313.39-.703.39zm-1.156.39c0-.03 0-.265.156-.468.39.281.812.313 1 .313.922 0 1.61-.688 1.61-1.454 0-.374-.157-.734-.407-.968.36-.344.719-.39.89-.39.032 0 .079 0 .11.015-.11.031-.172.14-.172.265 0 .172.14.282.297.282a.28.28 0 0 0 .281-.297c0-.172-.11-.485-.5-.485-.203 0-.64.063-1.062.47a1.652 1.652 0 0 0-1.047-.36c-.938 0-1.625.687-1.625 1.453 0 .437.219.812.469 1.031-.125.14-.313.469-.313.828 0 .313.14.688.453.89-.61.157-.922.595-.922.985 0 .719.985 1.266 2.203 1.266 1.172 0 2.204-.5 2.204-1.281 0-.344-.125-.86-.641-1.141-.531-.266-1.11-.266-1.719-.266-.25 0-.672 0-.75-.015-.312-.047-.516-.344-.516-.672zM2.5 1.829C1.484 1.828.797 1.312.797.781c0-.453.375-.828.812-.844h.594c.86 0 1.969 0 1.969.844 0 .547-.703 1.047-1.672 1.047z"/></symbol><symbol id="Q" overflow="visible"><path d="M1.094-3.422V-.75c0 .438-.11.438-.782.438V0c.36-.016.86-.031 1.141-.031.25 0 .766.015 1.11.031v-.313c-.672 0-.782 0-.782-.437v-1.844c0-1.031.719-1.594 1.344-1.594.64 0 .75.532.75 1.11V-.75c0 .438-.11.438-.781.438V0c.344-.016.86-.031 1.125-.031.25 0 .781.015 1.11.031v-.313c-.657 0-.766 0-.766-.437v-1.844c0-1.031.703-1.594 1.343-1.594.625 0 .735.532.735 1.11V-.75c0 .438-.11.438-.782.438V0c.344-.016.86-.031 1.125-.031.266 0 .782.015 1.125.031v-.313c-.515 0-.765 0-.78-.296v-1.907c0-.859 0-1.156-.313-1.515-.141-.172-.47-.375-1.047-.375-.828 0-1.282.593-1.438.984-.14-.875-.875-.984-1.328-.984-.734 0-1.203.422-1.484 1.047v-1.047l-1.407.11v.312c.704 0 .782.062.782.562z"/></symbol></defs><use y="134.765" x="223.432" xlink:href="#J" width="744.094" height="1052.362"/><use y="134.765" x="229.934" xlink:href="#K" width="744.094" height="1052.362"/><use y="134.765" x="234.915" xlink:href="#L" width="744.094" height="1052.362"/><use y="134.765" x="238.817" xlink:href="#K" width="744.094" height="1052.362"/><use y="134.765" x="243.799" xlink:href="#M" width="744.094" height="1052.362"/><use y="134.765" x="246.566" xlink:href="#M" width="744.094" height="1052.362"/><use y="134.765" x="249.334" xlink:href="#N" width="744.094" height="1052.362"/><use y="134.765" x="253.761" xlink:href="#M" width="744.094" height="1052.362"/><use y="134.765" x="256.529" xlink:href="#O" width="744.094" height="1052.362"/><use y="134.765" x="261.51" xlink:href="#P" width="744.094" height="1052.362"/><use y="134.765" x="266.491" xlink:href="#L" width="744.094" height="1052.362"/><use y="134.765" x="270.394" xlink:href="#K" width="744.094" height="1052.362"/><use y="134.765" x="275.375" xlink:href="#Q" width="744.094" height="1052.362"/><use y="134.765" x="283.677" xlink:href="#Q" width="744.094" height="1052.362"/></g><path d="M403.65 603.63l-124.919-54.475" fill="none" stroke="#000" stroke-linecap="round"/><rect style="marker:none" width="277.578" height="39.793" x="422.781" y="509.362" rx="4.228" ry="3.355" color="#000" fill="#fff" stroke="gray" stroke-width="1.123" stroke-linecap="round" overflow="visible"/><path d="M278.731 509.362l124.92-54.476" fill="none" stroke="#000" stroke-linecap="round"/><g transform="matrix(2.4 0 0 2.4 -104.92 211.803)" ns0:preamble="/home/waldgeist/data/sphinx/inkscape-preamble.tex" ns0:text="Gleichschenkliges Trapez"><defs><symbol id="R" overflow="visible"><path d="M5.906-.625c.14.219.532.61.64.61.095 0 .095-.079.095-.22v-1.734c0-.39.03-.437.687-.437v-.313c-.375 0-.922.031-1.219.031-.39 0-1.25 0-1.609-.03v.312h.328c.89 0 .922.11.922.469v.64c0 1.125-1.266 1.203-1.547 1.203-.64 0-2.625-.344-2.625-3.312 0-2.985 1.969-3.313 2.563-3.313 1.078 0 1.984.89 2.171 2.36.032.14.032.171.172.171.157 0 .157-.03.157-.234v-2.36c0-.171 0-.25-.11-.25-.047 0-.078 0-.156.126l-.5.734c-.328-.312-.86-.86-1.844-.86-1.86 0-3.468 1.579-3.468 3.626C.563-1.36 2.155.219 4.046.219c.734 0 1.531-.266 1.86-.844z"/></symbol><symbol id="S" overflow="visible"><path d="M1.766-6.922l-1.438.11v.312c.703 0 .781.063.781.563V-.75c0 .438-.109.438-.78.438V0c.327-.016.859-.031 1.109-.031s.734.015 1.109.031v-.313c-.672 0-.781 0-.781-.437z"/></symbol><symbol id="T" overflow="visible"><path d="M1.11-2.516C1.171-4 2.015-4.25 2.36-4.25c1.015 0 1.124 1.344 1.124 1.734zm0 .22h2.78c.22 0 .25 0 .25-.22 0-.984-.546-1.953-1.78-1.953C1.202-4.469.28-3.437.28-2.187.281-.86 1.328.108 2.47.108 3.688.11 4.14-1 4.14-1.187c0-.094-.079-.125-.141-.125-.078 0-.11.062-.125.14C3.531-.14 2.625-.14 2.531-.14c-.5 0-.89-.296-1.125-.671-.297-.47-.297-1.125-.297-1.485z"/></symbol><symbol id="U" overflow="visible"><path d="M1.766-4.406l-1.391.11v.312c.64 0 .734.062.734.546V-.75c0 .438-.109.438-.78.438V0c.312-.016.859-.031 1.093-.031.36 0 .703.015 1.047.031v-.313c-.672 0-.703-.046-.703-.437zm.03-1.735a.514.514 0 0 0-.515-.53.537.537 0 0 0-.531.53c0 .266.219.532.531.532a.514.514 0 0 0 .516-.532z"/></symbol><symbol id="V" overflow="visible"><path d="M1.172-2.172c0-1.625.812-2.047 1.344-2.047.093 0 .718.016 1.062.375-.406.031-.469.328-.469.453 0 .266.188.454.454.454.265 0 .468-.157.468-.47 0-.671-.765-1.062-1.531-1.062C1.25-4.469.344-3.39.344-2.156c0 1.281.984 2.265 2.14 2.265 1.329 0 1.657-1.203 1.657-1.296 0-.094-.11-.094-.141-.094-.078 0-.11.031-.125.093C3.594-.265 2.937-.14 2.578-.14c-.531 0-1.406-.421-1.406-2.03z"/></symbol><symbol id="W" overflow="visible"><path d="M1.094-.75c0 .438-.11.438-.782.438V0c.36-.016.86-.031 1.141-.031.25 0 .766.015 1.11.031v-.313c-.672 0-.782 0-.782-.437v-1.844c0-1.031.719-1.594 1.344-1.594.64 0 .75.532.75 1.11V-.75c0 .438-.11.438-.781.438V0c.344-.016.86-.031 1.125-.031.25 0 .781.015 1.11.031v-.313c-.516 0-.766 0-.766-.296v-1.907c0-.859 0-1.156-.313-1.515-.14-.172-.469-.375-1.047-.375-.844 0-1.281.593-1.453.984v-3.5l-1.438.11v.312c.704 0 .782.063.782.563z"/></symbol><symbol id="X" overflow="visible"><path d="M2.078-1.938c.219.047 1.031.204 1.031.922 0 .5-.343.907-1.125.907-.843 0-1.203-.563-1.39-1.422-.031-.125-.031-.157-.14-.157-.126 0-.126.063-.126.235v1.328c0 .172 0 .234.11.234C.483.11.5.094.688-.094.703-.109.703-.125.89-.312c.437.406.89.421 1.093.421 1.141 0 1.61-.671 1.61-1.39 0-.516-.297-.828-.422-.938-.328-.328-.719-.406-1.14-.484-.563-.11-1.22-.235-1.22-.813 0-.359.25-.765 1.11-.765 1.094 0 1.156.906 1.172 1.203 0 .094.094.094.11.094.14 0 .14-.047.14-.235v-1.015c0-.157 0-.235-.11-.235-.046 0-.078 0-.203.125-.031.032-.125.125-.172.157-.375-.282-.78-.282-.937-.282-1.219 0-1.594.672-1.594 1.235 0 .343.156.625.422.843.328.25.61.313 1.328.454z"/></symbol><symbol id="Y" overflow="visible"><path d="M1.094-3.422V-.75c0 .438-.11.438-.782.438V0c.36-.016.86-.031 1.141-.031.25 0 .766.015 1.11.031v-.313c-.672 0-.782 0-.782-.437v-1.844c0-1.031.719-1.594 1.344-1.594.64 0 .75.532.75 1.11V-.75c0 .438-.11.438-.781.438V0c.344-.016.86-.031 1.125-.031.25 0 .781.015 1.11.031v-.313c-.516 0-.766 0-.766-.296v-1.907c0-.859 0-1.156-.313-1.515-.14-.172-.469-.375-1.047-.375-.734 0-1.203.422-1.484 1.047v-1.047l-1.407.11v.312c.704 0 .782.062.782.562z"/></symbol><symbol id="Z" overflow="visible"><path d="M1.063-.75c0 .438-.11.438-.782.438V0c.328-.016.797-.031 1.078-.031.313 0 .704.015 1.11.031v-.313c-.672 0-.781 0-.781-.437v-1.031l.64-.547c.766 1.047 1.188 1.61 1.188 1.797 0 .187-.172.219-.36.219V0c.266-.016.86-.031 1.078-.031.282 0 .579.015.86.031v-.313c-.375 0-.594 0-.969-.53L2.859-2.626c-.015-.016-.062-.078-.062-.11 0-.03.719-.64.812-.718.625-.5 1.047-.531 1.25-.531v-.313c-.28.031-.406.031-.687.031-.36 0-.984-.015-1.125-.03v.312c.187 0 .297.109.297.25 0 .203-.14.312-.219.39L1.719-2.14v-4.78L.28-6.813v.312c.703 0 .781.063.781.563z"/></symbol><symbol id="aa" overflow="visible"><path d="M2.219-1.719c-.875 0-.875-1-.875-1.218 0-.266.015-.594.156-.844.078-.11.313-.39.719-.39.86 0 .86.984.86 1.218 0 .265 0 .594-.157.844-.078.109-.313.39-.703.39zm-1.156.39c0-.03 0-.265.156-.468.39.281.812.313 1 .313.922 0 1.61-.688 1.61-1.454 0-.374-.157-.734-.407-.968.36-.344.719-.39.89-.39.032 0 .079 0 .11.015-.11.031-.172.14-.172.265 0 .172.14.282.297.282a.28.28 0 0 0 .281-.297c0-.172-.11-.485-.5-.485-.203 0-.64.063-1.062.47a1.652 1.652 0 0 0-1.047-.36c-.938 0-1.625.687-1.625 1.453 0 .437.219.812.469 1.031-.125.14-.313.469-.313.828 0 .313.14.688.453.89-.61.157-.922.595-.922.985 0 .719.985 1.266 2.203 1.266 1.172 0 2.204-.5 2.204-1.281 0-.344-.125-.86-.641-1.141-.531-.266-1.11-.266-1.719-.266-.25 0-.672 0-.75-.015-.312-.047-.516-.344-.516-.672zM2.5 1.829C1.484 1.828.797 1.312.797.781c0-.453.375-.828.812-.844h.594c.86 0 1.969 0 1.969.844 0 .547-.703 1.047-1.672 1.047z"/></symbol><symbol id="ab" overflow="visible"><path d="M6.64-6.75H.548L.359-4.5h.25C.75-6.11.891-6.438 2.406-6.438c.172 0 .438 0 .531.016.22.047.22.156.22.375V-.78c0 .328 0 .469-1.048.469h-.406V0c.406-.031 1.422-.031 1.89-.031.454 0 1.485 0 1.891.031v-.313h-.406c-1.047 0-1.047-.14-1.047-.468v-5.266c0-.187 0-.328.188-.375.11-.016.375-.016.562-.016 1.516 0 1.657.329 1.797 1.938h.25z"/></symbol><symbol id="ac" overflow="visible"><path d="M1.672-3.313v-1.093l-1.39.11v.312c.702 0 .78.062.78.562V-.75c0 .438-.109.438-.78.438V0c.39-.016.859-.031 1.14-.031.39 0 .86 0 1.266.031v-.313h-.22c-.734 0-.75-.109-.75-.468v-1.531c0-.985.423-1.876 1.173-1.876.062 0 .093 0 .109.016-.031 0-.234.125-.234.39 0 .266.218.423.437.423a.421.421 0 0 0 .422-.438c0-.312-.313-.61-.734-.61-.735 0-1.094.673-1.22 1.095z"/></symbol><symbol id="ad" overflow="visible"><path d="M3.313-.75c.046.39.312.813.78.813.22 0 .829-.141.829-.954v-.562h-.25v.562c0 .579-.25.641-.36.641-.328 0-.375-.453-.375-.5v-1.984c0-.422 0-.813-.359-1.188-.39-.39-.89-.547-1.36-.547-.827 0-1.515.469-1.515 1.125 0 .297.203.469.469.469a.435.435 0 0 0 .453-.453c0-.125-.047-.453-.516-.453.282-.36.766-.469 1.079-.469.5 0 1.062.39 1.062 1.281v.36c-.516.03-1.203.062-1.828.359-.75.344-1 .86-1 1.297 0 .812.969 1.062 1.594 1.062.656 0 1.109-.406 1.296-.859zM3.25-2.39v1c0 .937-.719 1.28-1.172 1.28-.484 0-.89-.343-.89-.843 0-.547.421-1.375 2.062-1.438z"/></symbol><symbol id="ae" overflow="visible"><path d="M1.719-3.75v-.656l-1.438.11v.312c.703 0 .781.062.781.5v4.656c0 .453-.109.453-.78.453v.313c.343-.016.859-.032 1.109-.032.28 0 .78.016 1.125.032v-.313c-.657 0-.766 0-.766-.453V-.594c.047.172.469.703 1.219.703 1.187 0 2.219-.984 2.219-2.265 0-1.266-.954-2.25-2.079-2.25-.78 0-1.203.437-1.39.656zm.031 2.61v-2.22c.281-.515.766-.796 1.281-.796.735 0 1.328.875 1.328 2C4.36-.953 3.672-.11 2.938-.11c-.407 0-.782-.204-1.047-.61-.141-.203-.141-.219-.141-.422z"/></symbol><symbol id="af" overflow="visible"><path d="M3.89-4c.094-.11.094-.125.094-.172 0-.125-.093-.125-.265-.125H.53l-.11 1.61h.25c.063-1.016.25-1.391 1.345-1.391h1.14L.375-.312c-.094.109-.094.124-.094.171C.281 0 .344 0 .531 0h3.297L4-1.86h-.25C3.656-.686 3.453-.25 2.297-.25H1.109z"/></symbol></defs><use y="134.765" x="223.432" xlink:href="#R" width="744.094" height="1052.362"/><use y="134.765" x="231.25" xlink:href="#S" width="744.094" height="1052.362"/><use y="134.765" x="234.017" xlink:href="#T" width="744.094" height="1052.362"/><use y="134.765" x="238.445" xlink:href="#U" width="744.094" height="1052.362"/><use y="134.765" x="241.212" xlink:href="#V" width="744.094" height="1052.362"/><use y="134.765" x="245.361" xlink:href="#W" width="744.094" height="1052.362"/><use y="134.765" x="250.896" xlink:href="#X" width="744.094" height="1052.362"/><use y="134.765" x="254.825" xlink:href="#V" width="744.094" height="1052.362"/><g><use y="134.765" x="258.984" xlink:href="#W" width="744.094" height="1052.362"/><use y="134.765" x="264.519" xlink:href="#T" width="744.094" height="1052.362"/><use y="134.765" x="268.946" xlink:href="#Y" width="744.094" height="1052.362"/><use y="134.765" x="274.481" xlink:href="#Z" width="744.094" height="1052.362"/><use y="134.765" x="279.74" xlink:href="#S" width="744.094" height="1052.362"/><use y="134.765" x="282.507" xlink:href="#U" width="744.094" height="1052.362"/></g><g><use y="134.765" x="285.265" xlink:href="#aa" width="744.094" height="1052.362"/><use y="134.765" x="290.246" xlink:href="#T" width="744.094" height="1052.362"/></g><g><use y="134.765" x="294.684" xlink:href="#X" width="744.094" height="1052.362"/></g><g><use y="134.765" x="301.93" xlink:href="#ab" width="744.094" height="1052.362"/></g><g><use y="134.765" x="308.298" xlink:href="#ac" width="744.094" height="1052.362"/><use y="134.765" x="312.201" xlink:href="#ad" width="744.094" height="1052.362"/><use y="134.765" x="317.182" xlink:href="#ae" width="744.094" height="1052.362"/></g><g><use y="134.765" x="322.986" xlink:href="#T" width="744.094" height="1052.362"/><use y="134.765" x="327.414" xlink:href="#af" width="744.094" height="1052.362"/></g></g><path d="M528.57 509.362l-124.92-54.476" fill="none" stroke="#000" stroke-linecap="round"/><rect ry="3.355" rx="3.355" y="603.63" x="43.687" height="39.793" width="220.249" style="marker:none" color="#000" fill="#fff" stroke="gray" stroke-linecap="round" overflow="visible"/><g ns0:text="Rhombus\n" ns0:preamble="/home/waldgeist/data/sphinx/inkscape-preamble.tex" transform="matrix(2.4 0 0 2.4 -431.482 308.134)"><defs><symbol overflow="visible" id="ag"><path d="M2.234-3.516v-2.578c0-.234 0-.36.22-.39.093-.016.39-.016.593-.016.89 0 2 .047 2 1.484 0 .688-.234 1.5-1.703 1.5zm2.11.125c.953-.234 1.734-.843 1.734-1.625 0-.953-1.14-1.796-2.594-1.796H.344v.312h.25c.765 0 .781.11.781.469v5.25c0 .36-.016.469-.781.469h-.25V0c.36-.031 1.078-.031 1.453-.031.39 0 1.11 0 1.469.031v-.313h-.25c-.766 0-.782-.109-.782-.468v-2.516h1.141c.156 0 .578 0 .938.344.375.344.375.656.375 1.328 0 .64 0 1.047.406 1.422.406.36.953.422 1.25.422.781 0 .953-.813.953-1.094 0-.063 0-.172-.125-.172-.11 0-.11.094-.125.156C6.984-.17 6.64 0 6.39 0c-.485 0-.563-.516-.704-1.438l-.14-.796c-.172-.641-.656-.97-1.203-1.157z"/></symbol><symbol overflow="visible" id="ah"><path d="M1.094-.75c0 .438-.11.438-.782.438V0c.36-.016.86-.031 1.141-.031.25 0 .766.015 1.11.031v-.313c-.672 0-.782 0-.782-.437v-1.844c0-1.031.719-1.594 1.344-1.594.64 0 .75.532.75 1.11V-.75c0 .438-.11.438-.781.438V0c.344-.016.86-.031 1.125-.031.25 0 .781.015 1.11.031v-.313c-.516 0-.766 0-.766-.296v-1.907c0-.859 0-1.156-.313-1.515-.14-.172-.469-.375-1.047-.375-.844 0-1.281.593-1.453.984v-3.5l-1.438.11v.312c.704 0 .782.063.782.563z"/></symbol><symbol overflow="visible" id="ai"><path d="M4.688-2.14c0-1.266-.985-2.329-2.188-2.329C1.25-4.469.281-3.375.281-2.14A2.22 2.22 0 0 0 2.484.11c1.204 0 2.204-.984 2.204-2.25zM2.5-.14c-.438 0-.875-.204-1.14-.672-.25-.438-.25-1.047-.25-1.407 0-.39 0-.922.234-1.36a1.347 1.347 0 0 1 1.14-.671c.438 0 .86.219 1.125.656.266.422.266 1 .266 1.375 0 .36 0 .906-.219 1.344-.234.453-.672.734-1.156.734z"/></symbol><symbol overflow="visible" id="aj"><path d="M1.094-3.422V-.75c0 .438-.11.438-.782.438V0c.36-.016.86-.031 1.141-.031.25 0 .766.015 1.11.031v-.313c-.672 0-.782 0-.782-.437v-1.844c0-1.031.719-1.594 1.344-1.594.64 0 .75.532.75 1.11V-.75c0 .438-.11.438-.781.438V0c.344-.016.86-.031 1.125-.031.25 0 .781.015 1.11.031v-.313c-.657 0-.766 0-.766-.437v-1.844c0-1.031.703-1.594 1.343-1.594.625 0 .735.532.735 1.11V-.75c0 .438-.11.438-.782.438V0c.344-.016.86-.031 1.125-.031.266 0 .782.015 1.125.031v-.313c-.515 0-.765 0-.78-.296v-1.907c0-.859 0-1.156-.313-1.515-.141-.172-.47-.375-1.047-.375-.828 0-1.282.593-1.438.984-.14-.875-.875-.984-1.328-.984-.734 0-1.203.422-1.484 1.047v-1.047l-1.407.11v.312c.704 0 .782.062.782.562z"/></symbol><symbol overflow="visible" id="ak"><path d="M1.719-3.766v-3.156l-1.438.11v.312c.703 0 .781.063.781.563V0h.25c0-.016.079-.156.36-.625.14.234.562.734 1.297.734 1.187 0 2.219-.984 2.219-2.265 0-1.266-.97-2.25-2.11-2.25-.781 0-1.203.468-1.36.64zM1.75-1.14v-2.046c0-.188 0-.204.11-.36.39-.562.937-.64 1.171-.64.453 0 .813.265 1.047.64.266.406.281.969.281 1.39 0 .36-.015.954-.296 1.407-.22.313-.594.64-1.125.64-.454 0-.813-.234-1.047-.609-.141-.203-.141-.234-.141-.422z"/></symbol><symbol overflow="visible" id="al"><path d="M3.89-.781v.89L5.329 0v-.313c-.687 0-.766-.062-.766-.562v-3.531l-1.468.11v.312c.687 0 .781.062.781.562v1.766c0 .875-.484 1.547-1.219 1.547-.828 0-.875-.47-.875-.985v-3.312l-1.468.11v.312c.78 0 .78.03.78.906v1.5c0 .781 0 1.687 1.516 1.687.563 0 1-.28 1.282-.89z"/></symbol><symbol overflow="visible" id="am"><path d="M2.078-1.938c.219.047 1.031.204 1.031.922 0 .5-.343.907-1.125.907-.843 0-1.203-.563-1.39-1.422-.031-.125-.031-.157-.14-.157-.126 0-.126.063-.126.235v1.328c0 .172 0 .234.11.234C.483.11.5.094.688-.094.703-.109.703-.125.89-.312c.437.406.89.421 1.093.421 1.141 0 1.61-.671 1.61-1.39 0-.516-.297-.828-.422-.938-.328-.328-.719-.406-1.14-.484-.563-.11-1.22-.235-1.22-.813 0-.359.25-.765 1.11-.765 1.094 0 1.156.906 1.172 1.203 0 .094.094.094.11.094.14 0 .14-.047.14-.235v-1.015c0-.157 0-.235-.11-.235-.046 0-.078 0-.203.125-.031.032-.125.125-.172.157-.375-.282-.78-.282-.937-.282-1.219 0-1.594.672-1.594 1.235 0 .343.156.625.422.843.328.25.61.313 1.328.454z"/></symbol></defs><use xlink:href="#ag" x="223.432" y="134.765" width="744.094" height="1052.362"/><use xlink:href="#ah" x="230.765" y="134.765" width="744.094" height="1052.362"/><use xlink:href="#ai" x="236.301" y="134.765" width="744.094" height="1052.362"/><use xlink:href="#aj" x="241.282" y="134.765" width="744.094" height="1052.362"/><g><use xlink:href="#ak" x="249.305" y="134.765" width="744.094" height="1052.362"/><use xlink:href="#al" x="254.84" y="134.765" width="744.094" height="1052.362"/><use xlink:href="#am" x="260.375" y="134.765" width="744.094" height="1052.362"/></g></g><path d="M403.317 415.239l-124.919-54.476" fill="none" stroke="#000" stroke-linecap="round"/><rect ry="3.355" rx="3.355" y="603.63" x="294.034" height="39.793" width="220.249" style="marker:none" color="#000" fill="#fff" stroke="gray" stroke-linecap="round" overflow="visible"/><g ns0:text="Rechteck" ns0:preamble="/home/waldgeist/data/sphinx/inkscape-preamble.tex" transform="matrix(2.4 0 0 2.4 -178.954 308.134)"><defs><symbol overflow="visible" id="an"><path d="M2.234-3.516v-2.578c0-.234 0-.36.22-.39.093-.016.39-.016.593-.016.89 0 2 .047 2 1.484 0 .688-.234 1.5-1.703 1.5zm2.11.125c.953-.234 1.734-.843 1.734-1.625 0-.953-1.14-1.796-2.594-1.796H.344v.312h.25c.765 0 .781.11.781.469v5.25c0 .36-.016.469-.781.469h-.25V0c.36-.031 1.078-.031 1.453-.031.39 0 1.11 0 1.469.031v-.313h-.25c-.766 0-.782-.109-.782-.468v-2.516h1.141c.156 0 .578 0 .938.344.375.344.375.656.375 1.328 0 .64 0 1.047.406 1.422.406.36.953.422 1.25.422.781 0 .953-.813.953-1.094 0-.063 0-.172-.125-.172-.11 0-.11.094-.125.156C6.984-.17 6.64 0 6.39 0c-.485 0-.563-.516-.704-1.438l-.14-.796c-.172-.641-.656-.97-1.203-1.157z"/></symbol><symbol overflow="visible" id="ao"><path d="M1.11-2.516C1.171-4 2.015-4.25 2.36-4.25c1.015 0 1.124 1.344 1.124 1.734zm0 .22h2.78c.22 0 .25 0 .25-.22 0-.984-.546-1.953-1.78-1.953C1.202-4.469.28-3.437.28-2.187.281-.86 1.328.108 2.47.108 3.688.11 4.14-1 4.14-1.187c0-.094-.079-.125-.141-.125-.078 0-.11.062-.125.14C3.531-.14 2.625-.14 2.531-.14c-.5 0-.89-.296-1.125-.671-.297-.47-.297-1.125-.297-1.485z"/></symbol><symbol overflow="visible" id="ap"><path d="M1.172-2.172c0-1.625.812-2.047 1.344-2.047.093 0 .718.016 1.062.375-.406.031-.469.328-.469.453 0 .266.188.454.454.454.265 0 .468-.157.468-.47 0-.671-.765-1.062-1.531-1.062C1.25-4.469.344-3.39.344-2.156c0 1.281.984 2.265 2.14 2.265 1.329 0 1.657-1.203 1.657-1.296 0-.094-.11-.094-.141-.094-.078 0-.11.031-.125.093C3.594-.265 2.937-.14 2.578-.14c-.531 0-1.406-.421-1.406-2.03z"/></symbol><symbol overflow="visible" id="aq"><path d="M1.094-.75c0 .438-.11.438-.782.438V0c.36-.016.86-.031 1.141-.031.25 0 .766.015 1.11.031v-.313c-.672 0-.782 0-.782-.437v-1.844c0-1.031.719-1.594 1.344-1.594.64 0 .75.532.75 1.11V-.75c0 .438-.11.438-.781.438V0c.344-.016.86-.031 1.125-.031.25 0 .781.015 1.11.031v-.313c-.516 0-.766 0-.766-.296v-1.907c0-.859 0-1.156-.313-1.515-.14-.172-.469-.375-1.047-.375-.844 0-1.281.593-1.453.984v-3.5l-1.438.11v.312c.704 0 .782.063.782.563z"/></symbol><symbol overflow="visible" id="ar"><path d="M1.719-3.984h1.437v-.313H1.72v-1.828h-.25c0 .813-.297 1.875-1.282 1.922v.219h.844v2.75c0 1.218.938 1.343 1.297 1.343.703 0 .985-.703.985-1.343v-.563h-.25v.547c0 .734-.297 1.11-.672 1.11-.672 0-.672-.907-.672-1.079z"/></symbol><symbol overflow="visible" id="as"><path d="M1.063-.75c0 .438-.11.438-.782.438V0c.328-.016.797-.031 1.078-.031.313 0 .704.015 1.11.031v-.313c-.672 0-.781 0-.781-.437v-1.031l.64-.547c.766 1.047 1.188 1.61 1.188 1.797 0 .187-.172.219-.36.219V0c.266-.016.86-.031 1.078-.031.282 0 .579.015.86.031v-.313c-.375 0-.594 0-.969-.53L2.859-2.626c-.015-.016-.062-.078-.062-.11 0-.03.719-.64.812-.718.625-.5 1.047-.531 1.25-.531v-.313c-.28.031-.406.031-.687.031-.36 0-.984-.015-1.125-.03v.312c.187 0 .297.109.297.25 0 .203-.14.312-.219.39L1.719-2.14v-4.78L.28-6.813v.312c.703 0 .781.063.781.563z"/></symbol></defs><use xlink:href="#an" x="223.432" y="134.765" width="744.094" height="1052.362"/><use xlink:href="#ao" x="230.765" y="134.765" width="744.094" height="1052.362"/><use xlink:href="#ap" x="235.193" y="134.765" width="744.094" height="1052.362"/><use xlink:href="#aq" x="239.341" y="134.765" width="744.094" height="1052.362"/><g><use xlink:href="#ar" x="244.608" y="134.765" width="744.094" height="1052.362"/><use xlink:href="#ao" x="248.482" y="134.765" width="744.094" height="1052.362"/><use xlink:href="#ap" x="252.909" y="134.765" width="744.094" height="1052.362"/></g><g><use xlink:href="#as" x="257.058" y="134.765" width="744.094" height="1052.362"/></g></g><path d="M153.812 415.093l124.919-54.475" fill="none" stroke="#000" stroke-linecap="round"/><rect style="marker:none" width="220.249" height="39.793" x="168.606" y="697.898" rx="3.355" ry="3.355" color="#000" fill="#fff" stroke="gray" stroke-linecap="round" overflow="visible"/><g transform="matrix(2.4 0 0 2.4 -301.377 400.471)" ns0:preamble="/home/waldgeist/data/sphinx/inkscape-preamble.tex" ns0:text="Quadrat"><defs><symbol id="at" overflow="visible"><path d="M3.203-.156c-.531-.203-1.64-.938-1.64-3.219 0-2.594 1.39-3.406 2.312-3.406.953 0 2.313.86 2.313 3.406 0 .766-.11 2.172-1.172 2.953-.22-.562-.547-1.047-1.125-1.047-.516 0-.813.422-.813.828 0 .266.125.47.125.485zm1.547-.11a1.634 1.634 0 0 1-.875.235c-.5 0-.578-.453-.578-.61 0-.28.203-.609.594-.609.53 0 .75.406.859.984zm.406.204c1.188-.532 2.032-1.813 2.032-3.313 0-2.031-1.5-3.656-3.313-3.656-1.797 0-3.313 1.593-3.313 3.656 0 2.016 1.5 3.594 3.313 3.594.313 0 .656-.063.953-.157.14.954.281 1.875 1.219 1.875C7.063 1.938 7.25.61 7.25.095c0-.094 0-.203-.11-.203-.093 0-.109.078-.109.171-.062.547-.484.844-.906.844-.469 0-.719-.344-.969-.969z"/></symbol><symbol id="au" overflow="visible"><path d="M3.89-.781v.89L5.329 0v-.313c-.687 0-.766-.062-.766-.562v-3.531l-1.468.11v.312c.687 0 .781.062.781.562v1.766c0 .875-.484 1.547-1.219 1.547-.828 0-.875-.47-.875-.985v-3.312l-1.468.11v.312c.78 0 .78.03.78.906v1.5c0 .781 0 1.687 1.516 1.687.563 0 1-.28 1.282-.89z"/></symbol><symbol id="av" overflow="visible"><path d="M3.313-.75c.046.39.312.813.78.813.22 0 .829-.141.829-.954v-.562h-.25v.562c0 .579-.25.641-.36.641-.328 0-.375-.453-.375-.5v-1.984c0-.422 0-.813-.359-1.188-.39-.39-.89-.547-1.36-.547-.827 0-1.515.469-1.515 1.125 0 .297.203.469.469.469a.435.435 0 0 0 .453-.453c0-.125-.047-.453-.516-.453.282-.36.766-.469 1.079-.469.5 0 1.062.39 1.062 1.281v.36c-.516.03-1.203.062-1.828.359-.75.344-1 .86-1 1.297 0 .812.969 1.062 1.594 1.062.656 0 1.109-.406 1.296-.859zM3.25-2.39v1c0 .937-.719 1.28-1.172 1.28-.484 0-.89-.343-.89-.843 0-.547.421-1.375 2.062-1.438z"/></symbol><symbol id="aw" overflow="visible"><path d="M3.781-.547V.11L5.25 0v-.313c-.688 0-.781-.062-.781-.562v-6.047l-1.422.11v.312c.687 0 .765.063.765.563v2.156a1.582 1.582 0 0 0-1.25-.625c-1.171 0-2.218.984-2.218 2.265 0 1.266.969 2.25 2.11 2.25.64 0 1.077-.343 1.327-.656zm0-2.672v2.047c0 .172 0 .188-.11.36-.296.484-.733.703-1.171.703-.453 0-.813-.266-1.047-.641-.25-.406-.281-.969-.281-1.39 0-.36.016-.954.297-1.407.218-.312.593-.64 1.14-.64.344 0 .766.156 1.063.593.11.172.11.188.11.375z"/></symbol><symbol id="ax" overflow="visible"><path d="M1.672-3.313v-1.093l-1.39.11v.312c.702 0 .78.062.78.562V-.75c0 .438-.109.438-.78.438V0c.39-.016.859-.031 1.14-.031.39 0 .86 0 1.266.031v-.313h-.22c-.734 0-.75-.109-.75-.468v-1.531c0-.985.423-1.876 1.173-1.876.062 0 .093 0 .109.016-.031 0-.234.125-.234.39 0 .266.218.423.437.423a.421.421 0 0 0 .422-.438c0-.312-.313-.61-.734-.61-.735 0-1.094.673-1.22 1.095z"/></symbol><symbol id="ay" overflow="visible"><path d="M1.719-3.984h1.437v-.313H1.72v-1.828h-.25c0 .813-.297 1.875-1.282 1.922v.219h.844v2.75c0 1.218.938 1.343 1.297 1.343.703 0 .985-.703.985-1.343v-.563h-.25v.547c0 .734-.297 1.11-.672 1.11-.672 0-.672-.907-.672-1.079z"/></symbol></defs><use y="134.765" x="223.432" xlink:href="#at" width="744.094" height="1052.362"/><use y="134.765" x="231.181" xlink:href="#au" width="744.094" height="1052.362"/><use y="134.765" x="236.716" xlink:href="#av" width="744.094" height="1052.362"/><use y="134.765" x="241.697" xlink:href="#aw" width="744.094" height="1052.362"/><use y="134.765" x="247.233" xlink:href="#ax" width="744.094" height="1052.362"/><use y="134.765" x="251.135" xlink:href="#av" width="744.094" height="1052.362"/><use y="134.765" x="256.116" xlink:href="#ay" width="744.094" height="1052.362"/></g><path d="M153.812 454.886v148.475" fill="none" stroke="#000" stroke-linecap="round"/></svg>