<svg xmlns:ns0="http://www.iki.fi/pav/software/textext/" xmlns="http://www.w3.org/2000/svg" xmlns:xlink="http://www.w3.org/1999/xlink" height="1052.362" width="744.094"><title>Zueinander senkrechte Winkel</title><defs><marker orient="auto" id="a" overflow="visible"><path d="M8.719 4.034L-2.207.016 8.719-4.002c-1.746 2.372-1.736 5.618 0 8.036z" transform="scale(-.6)" fill-rule="evenodd" stroke-width=".625" stroke-linejoin="round"/></marker></defs><use transform="translate(-690.002 115.427) scale(3.49978)" height="1052.362" width="744.094" xlink:href="#textext-28c1ecfe-0" x="223.432" y="134.765"/><use transform="translate(-200.574 -112.91) scale(3.49978)" height="1052.362" width="744.094" xlink:href="#textext-28c1ecfe-0" x="223.432" y="134.765"/><use transform="translate(-200.574 -112.91) scale(3.49978)" height="1052.362" width="744.094" xlink:href="#textext-28c1ecfe-0" x="223.432" y="134.765"/><path fill="#fff" stroke="#fff" stroke-width="3" stroke-linecap="square" d="M43.816 799.188h656.463V253.174H43.816z"/><path style="marker:none" d="M418.936 584.294a89.574 89.574 0 1 1-89.574 155.147 89.574 89.574 0 1 1 89.574-155.147z" color="#000" fill="none" stroke="#f9f9f9" stroke-width="2.99994604" stroke-linecap="square" stroke-dasharray="2.36604673,4.7320935" overflow="visible"/><path transform="matrix(1.26794 0 0 -1.26794 -350.537 1449.687)" d="M445 626.442a70.646 70.646 0 0 1-8.858 34.25" style="marker:none" color="#000" fill="none" stroke="#000" stroke-width="2.366" marker-end="url(#a)" overflow="visible"/><g fill="none" stroke="#000" stroke-width="2.6" stroke-linecap="round"><path d="M118.681 655.397L509.667 429.66M118.681 655.397h506.733" stroke-width="3.0000360000000006"/></g><path d="M323.65 301.634v450.481" fill="none" stroke-width="3.0000360000000006" stroke-linecap="round" stroke="#00f"/><g stroke="#000" stroke-width="2.6" fill="none" stroke-linecap="round"><path d="M323.65 300.247L577.015 739.09M323.65 300.247v451.868" stroke-width="3.0000360000000006"/></g><g ns0:text="$\\alpha _{\\rm{}}$" ns0:preamble="/home/waldgeist/data/sphinx/inkscape-preamble.tex" transform="matrix(3.36301 0 0 3.36301 -581.48 192.977)" stroke="#000" stroke-width="1.003"><defs><symbol overflow="visible" id="b"><path d="M4.75-2.36c0-1.562-.922-2.046-1.656-2.046-1.375 0-2.688 1.422-2.688 2.828C.406-.641 1 .109 2.031.109c.625 0 1.344-.234 2.094-.843.125.53.453.843.906.843.532 0 .844-.546.844-.703 0-.078-.063-.11-.125-.11-.063 0-.094.032-.125.11-.188.485-.547.485-.563.485-.312 0-.312-.782-.312-1.016 0-.203 0-.234.11-.344C5.796-2.656 6-3.812 6-3.812c0-.032-.016-.11-.125-.11-.094 0-.094.031-.14.219-.188.625-.516 1.375-.985 1.969zM4.094-.983c-.89.765-1.657.875-2.047.875-.594 0-.906-.454-.906-1.094 0-.484.265-1.563.578-2.063.468-.734 1.015-.921 1.36-.921.983 0 .983 1.312.983 2.078 0 .375 0 .953.032 1.125z" stroke="none"/></symbol></defs><use height="1052.362" width="744.094" xlink:href="#b" x="223.432" y="134.765"/></g><path style="marker:none" d="M445 626.442a70.646 70.646 0 0 1-70.646 70.646" transform="matrix(.00894 -.45233 -.42136 .00894 581.953 816.82)" color="#000" fill="none" stroke="#000" stroke-width="6.873" overflow="visible"/><path d="M312.85 642.272a2.325 2.325 0 1 1-4.65 0 2.325 2.325 0 1 1 4.65 0z" style="marker:none" color="#000" overflow="visible"/><path transform="matrix(-.21842 -.3962 -.36044 .21842 733.468 489.51)" d="M445 626.442a70.646 70.646 0 0 1-70.646 70.646" style="marker:none" color="#000" fill="none" stroke="#000" stroke-width="6.873" overflow="visible"/><path style="marker:none" d="M413.143 472.898a2.325 2.325 0 1 1-4.026 2.325 2.325 2.325 0 1 1 4.026-2.325z" color="#000" overflow="visible"/><path style="marker:none" d="M445 626.442a70.646 70.646 0 0 1-8.858 34.25" transform="scale(1.26794 -1.26794) rotate(-75 -262.17 280.249)" color="#000" fill="none" stroke="#000" stroke-width="2.366" marker-end="url(#a)" overflow="visible"/><use y="134.765" x="223.432" xlink:href="#b" width="744.094" height="1052.362" transform="matrix(3.36301 0 0 3.36301 -423.091 -85.478)" ns0:preamble="/home/waldgeist/data/sphinx/inkscape-preamble.tex" ns0:text="$\\alpha _{\\rm{}}$" stroke="#000" stroke-width="1.003"/><path style="marker:none" d="M445 626.442a70.646 70.646 0 0 1-16.528 45.41" transform="scale(1.26794 -1.26794) rotate(30 2286.282 -166.618)" color="#000" fill="none" stroke="#000" stroke-width="2.366" marker-end="url(#a)" overflow="visible"/><g transform="matrix(3.36301 0 0 3.36301 -420.797 60.408)" ns0:preamble="/home/waldgeist/data/sphinx/inkscape-preamble.tex" ns0:text="$\\beta _{\\rm{}}$" stroke="#000" stroke-width="1.003"><defs><symbol id="c" overflow="visible"><path d="M5.734-5.672c0-.75-.546-1.36-1.359-1.36-.578 0-.86.157-1.203.407C2.625-6.219 2.078-5.25 1.89-4.5L.297 1.828c0 .047.047.11.125.11s.11-.032.11-.047l.702-2.766c.188.61.625.969 1.36.969.719 0 1.469-.344 1.922-.781a2.486 2.486 0 0 0 .796-1.829c0-.718-.375-1.25-.734-1.484.578-.344 1.156-.953 1.156-1.672zM3.938-4.016c-.126.047-.235.063-.485.063-.14 0-.328.015-.437-.031.03-.11.39-.079.5-.079.203 0 .296 0 .421.047zm1.234-1.89c0 .703-.375 1.422-.89 1.734-.282-.11-.47-.125-.766-.125-.22 0-.782-.016-.782.313 0 .28.516.25.688.25.375 0 .531 0 .828-.125.375.359.422.671.438 1.125.015.578-.22 1.328-.5 1.718-.391.532-1.063.891-1.625.891-.766 0-1.141-.578-1.141-1.281 0-.094 0-.25.047-.438l.64-2.515c.22-.86.938-2.454 2.141-2.454.578 0 .922.313.922.907z" stroke="none"/></symbol></defs><use y="134.765" x="223.432" xlink:href="#c" width="744.094" height="1052.362"/></g><path transform="scale(-1.26794 1.26794) rotate(30 450.304 -695.467)" d="M445 626.442a70.646 70.646 0 0 1-16.528 45.41" style="marker:none" color="#000" fill="none" stroke="#000" stroke-width="2.366" marker-end="url(#a)" overflow="visible"/><use height="1052.362" width="744.094" xlink:href="#c" x="223.432" y="134.765" transform="matrix(3.36301 0 0 3.36301 -455.47 125.002)" ns0:text="$\\beta _{\\rm{}}$" ns0:preamble="/home/waldgeist/data/sphinx/inkscape-preamble.tex" stroke="#000" stroke-width="1.003"/></svg>