<svg xmlns:ns0="http://www.iki.fi/pav/software/textext/" xmlns="http://www.w3.org/2000/svg" xmlns:xlink="http://www.w3.org/1999/xlink" width="744.094" height="1052.362"><title>Winkel zwischen zwei Strahlen</title><defs><marker orient="auto" id="e" overflow="visible"><path d="M8.719 4.034L-2.207.016 8.719-4.002c-1.746 2.372-1.736 5.618 0 8.036z" transform="scale(-.6)" fill-rule="evenodd" stroke-width=".625" stroke-linejoin="round"/></marker></defs><use transform="translate(-690.002 115.427) scale(3.49978)" height="1052.362" width="744.094" xlink:href="#textext-28c1ecfe-0" x="223.432" y="134.765"/><use transform="translate(-200.574 -112.91) scale(3.49978)" height="1052.362" width="744.094" xlink:href="#textext-28c1ecfe-0" x="223.432" y="134.765"/><use transform="translate(-200.574 -112.91) scale(3.49978)" height="1052.362" width="744.094" xlink:href="#textext-28c1ecfe-0" x="223.432" y="134.765"/><path fill="#fff" stroke="#fff" stroke-width="3" stroke-linecap="square" d="M60.318 328.421h623.459V708.79H60.318z"/><path d="M177.474 671.689l422.849-113.302" fill="none" stroke="#000" stroke-width="3" stroke-linecap="round"/><g stroke="#000" stroke-width="1.625" stroke-linecap="round"><path d="M248.028 289.417l5.169 8.951M253.197 289.417l-5.169 8.951" transform="matrix(1.8277 0 0 1.86515 -280.57 123.535)"/></g><g transform="matrix(3.36301 0 0 3.36301 -343.815 183.252)" ns0:preamble="/home/waldgeist/data/sphinx/inkscape-preamble.tex" ns0:text="$g _{\\rm{1}}$" stroke="#000" stroke-width="1.003"><defs><symbol id="a" overflow="visible"><path d="M4.688-3.766a.562.562 0 0 0 .03-.171c0-.172-.109-.266-.28-.266-.094 0-.375.062-.407.422-.187-.36-.531-.625-.937-.625-1.125 0-2.36 1.39-2.36 2.828C.734-.594 1.328 0 2.047 0c.594 0 1.062-.469 1.156-.578l.016.015C3.016.313 2.89.734 2.89.75c-.047.094-.375 1.078-1.438 1.078a2.68 2.68 0 0 1-.797-.11.542.542 0 0 0 .406-.515C1.063 1.047.954.86.688.86a.546.546 0 0 0-.53.579c0 .406.359.609 1.312.609 1.25 0 1.968-.781 2.125-1.375zM3.405-1.28c-.062.265-.297.515-.515.703-.204.172-.516.36-.813.36-.5 0-.64-.516-.64-.923 0-.468.28-1.656.562-2.156.266-.484.688-.89 1.11-.89.656 0 .796.812.796.859 0 .047-.015.11-.031.14z" stroke="none"/></symbol><symbol id="b" overflow="visible"><path d="M2.328-4.438c0-.187 0-.187-.203-.187-.453.438-1.078.438-1.36.438v.25c.157 0 .626 0 1-.188v3.547c0 .234 0 .328-.687.328H.812V0c.125 0 .985-.031 1.235-.031.219 0 1.094.031 1.25.031v-.25H3.03c-.703 0-.703-.094-.703-.328z" stroke="none"/></symbol></defs><use y="134.765" x="223.432" xlink:href="#a" width="744.094" height="1052.362"/><use y="136.259" x="228.184" xlink:href="#b" width="744.094" height="1052.362"/></g><g ns0:text="$g _{\\rm{2}}$" ns0:preamble="/home/waldgeist/data/sphinx/inkscape-preamble.tex" transform="matrix(3.36301 0 0 3.36301 -421.427 14.012)" stroke="#000" stroke-width="1.003"><defs><symbol overflow="visible" id="c"><path d="M4.688-3.766a.562.562 0 0 0 .03-.171c0-.172-.109-.266-.28-.266-.094 0-.375.062-.407.422-.187-.36-.531-.625-.937-.625-1.125 0-2.36 1.39-2.36 2.828C.734-.594 1.328 0 2.047 0c.594 0 1.062-.469 1.156-.578l.016.015C3.016.313 2.89.734 2.89.75c-.047.094-.375 1.078-1.438 1.078a2.68 2.68 0 0 1-.797-.11.542.542 0 0 0 .406-.515C1.063 1.047.954.86.688.86a.546.546 0 0 0-.53.579c0 .406.359.609 1.312.609 1.25 0 1.968-.781 2.125-1.375zM3.405-1.28c-.062.265-.297.515-.515.703-.204.172-.516.36-.813.36-.5 0-.64-.516-.64-.923 0-.468.28-1.656.562-2.156.266-.484.688-.89 1.11-.89.656 0 .796.812.796.859 0 .047-.015.11-.031.14z" stroke="none"/></symbol><symbol overflow="visible" id="d"><path d="M3.516-1.266H3.28c-.015.157-.094.563-.187.625-.047.047-.578.047-.688.047H1.125c.734-.64.984-.844 1.39-1.172.516-.406 1-.843 1-1.5 0-.843-.734-1.359-1.624-1.359-.86 0-1.454.61-1.454 1.25 0 .344.297.39.376.39.156 0 .359-.124.359-.374 0-.125-.047-.375-.406-.375.218-.485.687-.641 1.015-.641.703 0 1.063.547 1.063 1.11 0 .609-.438 1.078-.656 1.328L.516-.266C.437-.203.437-.187.437 0h2.876z" stroke="none"/></symbol></defs><use height="1052.362" width="744.094" xlink:href="#c" x="223.432" y="134.765"/><use height="1052.362" width="744.094" xlink:href="#d" x="228.184" y="136.259"/></g><path style="marker:none" d="M503.142 401.11a19.193 19.193 0 0 1 16.19 18.957" transform="matrix(.97865 -2.4025 -2.5255 -.8715 823.094 2196.56)" color="#000" fill="#fff" stroke="#000" stroke-width="1.14" stroke-linecap="round" marker-end="url(#e)" overflow="visible"/><g ns0:text="$\\alpha$" ns0:preamble="/home/waldgeist/data/sphinx/inkscape-preamble.tex" transform="matrix(3.36301 0 0 3.36301 -498.893 174.092)" stroke="#000" stroke-width="1.003"><defs><symbol overflow="visible" id="f"><path d="M4.75-2.36c0-1.562-.922-2.046-1.656-2.046-1.375 0-2.688 1.422-2.688 2.828C.406-.641 1 .109 2.031.109c.625 0 1.344-.234 2.094-.843.125.53.453.843.906.843.532 0 .844-.546.844-.703 0-.078-.063-.11-.125-.11-.063 0-.094.032-.125.11-.188.485-.547.485-.563.485-.312 0-.312-.782-.312-1.016 0-.203 0-.234.11-.344C5.796-2.656 6-3.812 6-3.812c0-.032-.016-.11-.125-.11-.094 0-.094.031-.14.219-.188.625-.516 1.375-.985 1.969zM4.094-.983c-.89.765-1.657.875-2.047.875-.594 0-.906-.454-.906-1.094 0-.484.265-1.563.578-2.063.468-.734 1.015-.921 1.36-.921.983 0 .983 1.312.983 2.078 0 .375 0 .953.032 1.125z" stroke="none"/></symbol></defs><use height="1052.362" width="744.094" xlink:href="#f" x="223.432" y="134.765"/></g><g transform="matrix(3.36301 0 0 3.36301 -606.297 239.046)" ns0:preamble="/home/waldgeist/data/sphinx/inkscape-preamble.tex" ns0:text="$\\rm{S}$" stroke="#000" stroke-width="1.003"><defs><symbol id="g" overflow="visible"><path d="M3.484-3.875l-1.28-.297c-.626-.156-1-.687-1-1.266 0-.703.53-1.312 1.312-1.312 1.656 0 1.875 1.64 1.937 2.078.016.063.016.125.125.125.125 0 .125-.047.125-.234v-2c0-.172 0-.25-.11-.25-.062 0-.077.015-.14.14l-.36.563c-.296-.297-.702-.703-1.593-.703-1.11 0-1.938.875-1.938 1.937 0 .828.532 1.563 1.297 1.828.11.032.625.157 1.329.329.265.062.562.14.843.5.203.265.313.593.313.921 0 .704-.5 1.422-1.344 1.422-.281 0-1.047-.047-1.578-.531-.578-.547-.61-1.172-.61-1.531-.015-.11-.093-.11-.125-.11-.125 0-.125.079-.125.25v2c0 .172 0 .235.11.235.062 0 .078-.016.14-.125 0-.016.032-.047.36-.578.312.343.953.703 1.844.703 1.156 0 1.953-.969 1.953-2.078 0-.985-.657-1.813-1.485-2.016z" stroke="none"/></symbol></defs><use y="134.765" x="223.432" xlink:href="#g" width="744.094" height="1052.362"/></g><path d="M176.526 671.141l309.547-309.546" fill="none" stroke="#000" stroke-width="3" stroke-linecap="round"/><g stroke="gray" stroke-width="1.625" stroke-linecap="round"><path d="M248.028 289.417l5.169 8.951M253.197 289.417l-5.169 8.951" transform="matrix(1.8277 0 0 1.86515 -9.84 -148.691)"/></g><g ns0:text="$\\rm{A}$" ns0:preamble="/home/waldgeist/data/sphinx/inkscape-preamble.tex" transform="matrix(3.36301 0 0 3.36301 -204.256 154.194)" fill="gray" stroke="#000" stroke-width="1.003"><defs><symbol overflow="visible" id="h"><path d="M3.969-6.938c-.047-.125-.078-.203-.235-.203-.156 0-.187.063-.234.204L1.437-.984C1.25-.47.86-.313.313-.313V0c.235-.016.672-.031 1.016-.031.313 0 .828.015 1.156.031v-.313c-.5 0-.75-.25-.75-.5 0-.03.016-.14.016-.156l.469-1.297h2.453L5.203-.75a.58.58 0 0 1 .031.14c0 .297-.562.297-.828.297V0c.36-.031 1.063-.031 1.438-.031.422 0 .89.015 1.297.031v-.313h-.172c-.594 0-.735-.062-.844-.39zm-.531 1.11l1.124 3.25H2.329z" stroke="none"/></symbol></defs><use height="1052.362" width="744.094" xlink:href="#h" x="223.432" y="134.765"/></g><g stroke="gray" stroke-width="1.625" stroke-linecap="round"><path d="M248.028 289.417l5.169 8.951M253.197 289.417l-5.169 8.951" transform="matrix(1.8277 0 0 1.86515 90.15 24.497)"/></g><g transform="matrix(3.36301 0 0 3.36301 -333.303 -61.98)" ns0:preamble="/home/waldgeist/data/sphinx/inkscape-preamble.tex" ns0:text="$\\rm{B}$" fill="gray" stroke="gray" stroke-width="1.003"><defs><symbol id="i" overflow="visible"><path d="M2.219-3.656v-2.438c0-.343.015-.406.484-.406h1.235c.968 0 1.312.844 1.312 1.375 0 .64-.484 1.469-1.594 1.469zm2.344.094c.968-.188 1.656-.829 1.656-1.563 0-.86-.922-1.688-2.219-1.688H.36v.313h.234c.765 0 .797.11.797.469v5.25c0 .36-.032.469-.797.469H.359V0h3.907c1.328 0 2.218-.89 2.218-1.828 0-.86-.812-1.61-1.921-1.734zm-.61 3.25h-1.25c-.469 0-.484-.063-.484-.391v-2.719h1.875c.984 0 1.406.922 1.406 1.594 0 .703-.531 1.516-1.547 1.516z" stroke="none"/></symbol></defs><use y="134.765" x="223.432" xlink:href="#i" width="744.094" height="1052.362"/></g></svg>