<svg xmlns="http://www.w3.org/2000/svg" xmlns:xlink="http://www.w3.org/1999/xlink" width="210mm" height="297mm"><title>Wuerfel</title><rect style="marker:none" width="718.96" height="284.43" x="12.567" y="383.966" ry="3.1" color="#000" fill="#fff" stroke="#fff" stroke-width="2.396" stroke-linecap="round" stroke-linejoin="bevel" overflow="visible"/><path d="M280.368 634.67V496.92l45.608-79.229h137.75v137.75h-137.49l-45.868 79.23" fill="#f9f9f9"/><path d="M280.368 634.67l45.85-79.198h137.75l-45.85 79.199z" fill="#b3b3b3"/><path d="M280.368 634.67l45.867-79.228" fill="none" stroke="gray" stroke-width="3" stroke-linecap="round" stroke-linejoin="round" stroke-dasharray="3,6"/><path d="M280.368 634.67h137.75" fill="none" stroke="#000" stroke-width="3" stroke-linecap="round" stroke-linejoin="round"/><path d="M463.676 555.528l-137.7-.087" fill="none" stroke="gray" stroke-width="3" stroke-linecap="round" stroke-linejoin="round" stroke-dasharray="3.00000024,6.00000048"/><path d="M325.976 417.691h137.75M280.368 634.67V496.92" fill="none" stroke="#000" stroke-width="3" stroke-linecap="round" stroke-linejoin="round"/><path id="a" d="M418.118 634.67l45.608-79.228" fill="none" stroke="#000" stroke-width="3" stroke-linecap="round" stroke-linejoin="round"/><path d="M418.118 634.67V496.92M463.726 555.442v-137.75" fill="none" stroke="#000" stroke-width="3" stroke-linecap="round" stroke-linejoin="round"/><use xlink:href="#a" transform="translate(0 -137.75)" width="744.094" height="1052.362"/><path d="M325.976 555.442v-137.75" fill="none" stroke="gray" stroke-width="3" stroke-linecap="round" stroke-linejoin="round" stroke-dasharray="3.00000024,6.00000048"/><use xlink:href="#a" transform="translate(-137.75 -137.75)" width="744.094" height="1052.362"/><path d="M280.368 496.92h137.75" fill="none" stroke="#000" stroke-width="3" stroke-linecap="round" stroke-linejoin="round"/></svg>