<?xml version="1.0" encoding="UTF-8" standalone="no"?>
<!-- Created with Inkscape (http://www.inkscape.org/) -->

<svg
   xmlns:ns0="http://www.iki.fi/pav/software/textext/"
   xmlns:dc="http://purl.org/dc/elements/1.1/"
   xmlns:cc="http://creativecommons.org/ns#"
   xmlns:rdf="http://www.w3.org/1999/02/22-rdf-syntax-ns#"
   xmlns:svg="http://www.w3.org/2000/svg"
   xmlns="http://www.w3.org/2000/svg"
   xmlns:xlink="http://www.w3.org/1999/xlink"
   xmlns:sodipodi="http://sodipodi.sourceforge.net/DTD/sodipodi-0.dtd"
   xmlns:inkscape="http://www.inkscape.org/namespaces/inkscape"
   width="210mm"
   height="297mm"
   id="svg2"
   version="1.1"
   inkscape:version="0.48.3.1 r9886"
   sodipodi:docname="beispiel-subtraktion.svg">
  <sodipodi:namedview
     id="base"
     pagecolor="#ffffff"
     bordercolor="#666666"
     borderopacity="1.0"
     inkscape:pageopacity="0.0"
     inkscape:pageshadow="2"
     inkscape:zoom="0.71458288"
     inkscape:cx="372.04724"
     inkscape:cy="526.18109"
     inkscape:document-units="px"
     inkscape:current-layer="layer1"
     showgrid="false"
     inkscape:window-width="1280"
     inkscape:window-height="974"
     inkscape:window-x="0"
     inkscape:window-y="0"
     inkscape:window-maximized="1"
     showguides="true"
     inkscape:guide-bbox="true"
     inkscape:object-paths="true"
     inkscape:snap-midpoints="true"
     inkscape:snap-smooth-nodes="true"
     inkscape:object-nodes="true"
     inkscape:snap-bbox="true"
     inkscape:snap-bbox-edge-midpoints="true"
     inkscape:bbox-paths="true" />
  <title
     id="title13178">Schriftliche Subtraktion (Beispiel)</title>
  <defs
     id="defs4" />
  <metadata
     id="metadata7">
    <rdf:RDF>
      <cc:Work
         rdf:about="">
        <dc:format>image/svg+xml</dc:format>
        <dc:type
           rdf:resource="http://purl.org/dc/dcmitype/StillImage" />
        <dc:title>Schriftliche Subtraktion (Beispiel)</dc:title>
        <dc:date>2013-04-05</dc:date>
        <dc:creator>
          <cc:Agent>
            <dc:title>Bernhard Grotz</dc:title>
          </cc:Agent>
        </dc:creator>
        <dc:rights>
          <cc:Agent>
            <dc:title>Bernhard Grotz</dc:title>
          </cc:Agent>
        </dc:rights>
        <dc:publisher>
          <cc:Agent>
            <dc:title>Bernhard Grotz</dc:title>
          </cc:Agent>
        </dc:publisher>
        <dc:subject>
          <rdf:Bag>
            <rdf:li>Mathematik</rdf:li>
            <rdf:li>Arithmetik</rdf:li>
            <rdf:li>Grundrechenarten</rdf:li>
            <rdf:li>Subtraktion</rdf:li>
            <rdf:li>Schriftliche Subtraktion</rdf:li>
          </rdf:Bag>
        </dc:subject>
        <cc:license
           rdf:resource="http://creativecommons.org/licenses/by-nc-sa/3.0/" />
      </cc:Work>
      <cc:License
         rdf:about="http://creativecommons.org/licenses/by-nc-sa/3.0/">
        <cc:permits
           rdf:resource="http://creativecommons.org/ns#Reproduction" />
        <cc:permits
           rdf:resource="http://creativecommons.org/ns#Distribution" />
        <cc:requires
           rdf:resource="http://creativecommons.org/ns#Notice" />
        <cc:requires
           rdf:resource="http://creativecommons.org/ns#Attribution" />
        <cc:prohibits
           rdf:resource="http://creativecommons.org/ns#CommercialUse" />
        <cc:permits
           rdf:resource="http://creativecommons.org/ns#DerivativeWorks" />
        <cc:requires
           rdf:resource="http://creativecommons.org/ns#ShareAlike" />
      </cc:License>
    </rdf:RDF>
  </metadata>
  <g
     id="layer1"
     inkscape:groupmode="layer"
     inkscape:label="Ebene 1">
    <rect
       style="color:#000000;fill:#ffffff;fill-opacity:1;fill-rule:nonzero;stroke:#ffffff;stroke-width:1;stroke-linecap:round;stroke-linejoin:bevel;stroke-miterlimit:4;stroke-opacity:1;stroke-dasharray:none;stroke-dashoffset:0;marker:none;visibility:visible;display:inline;overflow:visible;enable-background:accumulate"
       id="rect9692"
       width="616.19305"
       height="163.82312"
       x="63.950714"
       y="444.26953"
       ry="1.8122836"
       inkscape:export-filename="/home/waldgeist/data/pics/physik/Own/mathematik/beispiel-subtraktion.png"
       inkscape:export-xdpi="150"
       inkscape:export-ydpi="150" />
    <path
       inkscape:export-ydpi="150"
       inkscape:export-xdpi="150"
       inkscape:export-filename="/home/waldgeist/data/pics/physik/Own/mathematik/beispiel-subtraktion.png"
       style="fill:none;stroke:#000000;stroke-width:1.5;stroke-linecap:round;stroke-linejoin:miter;stroke-opacity:1"
       d="m 329.98446,556.05036 97.69412,0"
       id="path10742"
       inkscape:connector-curvature="0" />
    <g
       inkscape:export-ydpi="150"
       inkscape:export-xdpi="150"
       inkscape:export-filename="/home/waldgeist/data/pics/physik/Own/mathematik/beispiel-subtraktion.png"
       style="fill:#008000"
       ns0:text="1"
       ns0:preamble="/home/waldgeist/data/sphinx/inkscape-preamble.tex"
       transform="matrix(3,0,0,3,-284.43455,81.577256)"
       id="g11978">
      <defs
         id="defs11980">
        <g
           id="g11982">
          <symbol
             style="overflow:visible"
             overflow="visible"
             id="textext-0260a356-0">
            <path
               inkscape:connector-curvature="0"
               style="stroke:none"
               d="m 2.9375,-6.375 c 0,-0.25 0,-0.265625 -0.234375,-0.265625 C 2.078125,-6 1.203125,-6 0.890625,-6 l 0,0.3125 c 0.203125,0 0.78125,0 1.296875,-0.265625 l 0,5.171875 c 0,0.359375 -0.03125,0.46875 -0.921875,0.46875 l -0.3125,0 0,0.3125 c 0.34375,-0.03125 1.203125,-0.03125 1.609375,-0.03125 0.390625,0 1.265625,0 1.609375,0.03125 l 0,-0.3125 -0.3125,0 c -0.90625,0 -0.921875,-0.109375 -0.921875,-0.46875 z m 0,0"
               id="path11985" />
          </symbol>
        </g>
      </defs>
      <g
         style="fill:#008000"
         id="textext-0260a356-1">
        <g
           style="fill:#008000;fill-opacity:1"
           id="g11988">
          <use
             style="fill:#ff0000"
             height="1052.3622"
             width="744.09448"
             xlink:href="#textext-0260a356-0"
             x="223.43201"
             y="134.765"
             id="use11990"
             transform="translate(2.7596438,0)" />
        </g>
      </g>
    </g>
    <g
       id="g3063"
       transform="matrix(3,0,0,3,-298.00598,81.577256)"
       ns0:preamble="/home/waldgeist/data/sphinx/inkscape-preamble.tex"
       ns0:text="1"
       style="fill:#008000"
       inkscape:export-filename="/home/waldgeist/data/pics/physik/Own/mathematik/beispiel-addition.png"
       inkscape:export-xdpi="100.03"
       inkscape:export-ydpi="100.03">
      <defs
         id="defs3065">
        <g
           id="g3067">
          <symbol
             id="symbol3069"
             overflow="visible"
             style="overflow:visible">
            <path
               id="path3071"
               d="m 2.9375,-6.375 c 0,-0.25 0,-0.265625 -0.234375,-0.265625 C 2.078125,-6 1.203125,-6 0.890625,-6 l 0,0.3125 c 0.203125,0 0.78125,0 1.296875,-0.265625 l 0,5.171875 c 0,0.359375 -0.03125,0.46875 -0.921875,0.46875 l -0.3125,0 0,0.3125 c 0.34375,-0.03125 1.203125,-0.03125 1.609375,-0.03125 0.390625,0 1.265625,0 1.609375,0.03125 l 0,-0.3125 -0.3125,0 c -0.90625,0 -0.921875,-0.109375 -0.921875,-0.46875 z m 0,0"
               style="stroke:none"
               inkscape:connector-curvature="0" />
          </symbol>
        </g>
      </defs>
      <g
         id="g3073"
         style="fill:#008000">
        <g
           id="g3075"
           style="fill:#008000;fill-opacity:1" />
      </g>
    </g>
    <g
       inkscape:export-ydpi="150"
       inkscape:export-xdpi="150"
       inkscape:export-filename="/home/waldgeist/data/pics/physik/Own/mathematik/beispiel-subtraktion.png"
       style="fill:#008000"
       ns0:text="1"
       ns0:preamble="/home/waldgeist/data/sphinx/inkscape-preamble.tex"
       transform="matrix(3,0,0,3,-319.19639,81.577256)"
       id="g3079">
      <defs
         id="defs3081">
        <g
           id="g3083">
          <symbol
             style="overflow:visible"
             overflow="visible"
             id="symbol3085">
            <path
               inkscape:connector-curvature="0"
               style="stroke:none"
               d="m 2.9375,-6.375 c 0,-0.25 0,-0.265625 -0.234375,-0.265625 C 2.078125,-6 1.203125,-6 0.890625,-6 l 0,0.3125 c 0.203125,0 0.78125,0 1.296875,-0.265625 l 0,5.171875 c 0,0.359375 -0.03125,0.46875 -0.921875,0.46875 l -0.3125,0 0,0.3125 c 0.34375,-0.03125 1.203125,-0.03125 1.609375,-0.03125 0.390625,0 1.265625,0 1.609375,0.03125 l 0,-0.3125 -0.3125,0 c -0.90625,0 -0.921875,-0.109375 -0.921875,-0.46875 z m 0,0"
               id="path3087" />
          </symbol>
        </g>
      </defs>
      <g
         style="fill:#008000"
         id="g3089">
        <g
           style="fill:#008000;fill-opacity:1"
           id="g3091">
          <use
             style="fill:#ff0000"
             height="1052.3622"
             width="744.09448"
             xlink:href="#textext-0260a356-0"
             x="223.43201"
             y="134.765"
             id="use3093" />
        </g>
      </g>
    </g>
    <g
       id="g3375"
       transform="matrix(3,0,0,3,-319.19639,110.20434)"
       ns0:preamble="/home/waldgeist/data/sphinx/inkscape-preamble.tex"
       ns0:text="1\\;6\\,8\\,3"
       inkscape:export-filename="/home/waldgeist/data/pics/physik/Own/mathematik/beispiel-subtraktion.png"
       inkscape:export-xdpi="150"
       inkscape:export-ydpi="150">
      <defs
         id="defs3377">
        <g
           id="g3379">
          <symbol
             id="textext-96ef4a50-0"
             overflow="visible">
            <path
               id="path3382"
               d="M 2.9375 -6.375 C 2.9375 -6.625 2.9375 -6.640625 2.703125 -6.640625 C 2.078125 -6 1.203125 -6 0.890625 -6 L 0.890625 -5.6875 C 1.09375 -5.6875 1.671875 -5.6875 2.1875 -5.953125 L 2.1875 -0.78125 C 2.1875 -0.421875 2.15625 -0.3125 1.265625 -0.3125 L 0.953125 -0.3125 L 0.953125 0 C 1.296875 -0.03125 2.15625 -0.03125 2.5625 -0.03125 C 2.953125 -0.03125 3.828125 -0.03125 4.171875 0 L 4.171875 -0.3125 L 3.859375 -0.3125 C 2.953125 -0.3125 2.9375 -0.421875 2.9375 -0.78125 Z M 2.9375 -6.375 "
               style="stroke:none;" />
          </symbol>
          <symbol
             id="textext-96ef4a50-1"
             overflow="visible">
            <path
               id="path3385"
               d="M 1.3125 -3.265625 L 1.3125 -3.515625 C 1.3125 -6.03125 2.546875 -6.390625 3.0625 -6.390625 C 3.296875 -6.390625 3.71875 -6.328125 3.9375 -5.984375 C 3.78125 -5.984375 3.390625 -5.984375 3.390625 -5.546875 C 3.390625 -5.234375 3.625 -5.078125 3.84375 -5.078125 C 4 -5.078125 4.3125 -5.171875 4.3125 -5.5625 C 4.3125 -6.15625 3.875 -6.640625 3.046875 -6.640625 C 1.765625 -6.640625 0.421875 -5.359375 0.421875 -3.15625 C 0.421875 -0.484375 1.578125 0.21875 2.5 0.21875 C 3.609375 0.21875 4.5625 -0.71875 4.5625 -2.03125 C 4.5625 -3.296875 3.671875 -4.25 2.5625 -4.25 C 1.890625 -4.25 1.515625 -3.75 1.3125 -3.265625 Z M 2.5 -0.0625 C 1.875 -0.0625 1.578125 -0.65625 1.515625 -0.8125 C 1.328125 -1.28125 1.328125 -2.078125 1.328125 -2.25 C 1.328125 -3.03125 1.65625 -4.03125 2.546875 -4.03125 C 2.71875 -4.03125 3.171875 -4.03125 3.484375 -3.40625 C 3.65625 -3.046875 3.65625 -2.53125 3.65625 -2.046875 C 3.65625 -1.5625 3.65625 -1.0625 3.484375 -0.703125 C 3.1875 -0.109375 2.734375 -0.0625 2.5 -0.0625 Z M 2.5 -0.0625 "
               style="stroke:none;" />
          </symbol>
          <symbol
             id="textext-96ef4a50-2"
             overflow="visible">
            <path
               id="path3388"
               d="M 1.625 -4.5625 C 1.171875 -4.859375 1.125 -5.1875 1.125 -5.359375 C 1.125 -5.96875 1.78125 -6.390625 2.484375 -6.390625 C 3.203125 -6.390625 3.84375 -5.875 3.84375 -5.15625 C 3.84375 -4.578125 3.453125 -4.109375 2.859375 -3.765625 Z M 3.078125 -3.609375 C 3.796875 -3.984375 4.28125 -4.5 4.28125 -5.15625 C 4.28125 -6.078125 3.40625 -6.640625 2.5 -6.640625 C 1.5 -6.640625 0.6875 -5.90625 0.6875 -4.96875 C 0.6875 -4.796875 0.703125 -4.34375 1.125 -3.875 C 1.234375 -3.765625 1.609375 -3.515625 1.859375 -3.34375 C 1.28125 -3.046875 0.421875 -2.5 0.421875 -1.5 C 0.421875 -0.453125 1.4375 0.21875 2.484375 0.21875 C 3.609375 0.21875 4.5625 -0.609375 4.5625 -1.671875 C 4.5625 -2.03125 4.453125 -2.484375 4.0625 -2.90625 C 3.875 -3.109375 3.71875 -3.203125 3.078125 -3.609375 Z M 2.078125 -3.1875 L 3.3125 -2.40625 C 3.59375 -2.21875 4.0625 -1.921875 4.0625 -1.3125 C 4.0625 -0.578125 3.3125 -0.0625 2.5 -0.0625 C 1.640625 -0.0625 0.921875 -0.671875 0.921875 -1.5 C 0.921875 -2.078125 1.234375 -2.71875 2.078125 -3.1875 Z M 2.078125 -3.1875 "
               style="stroke:none;" />
          </symbol>
          <symbol
             id="textext-96ef4a50-3"
             overflow="visible">
            <path
               id="path3391"
               d="M 2.890625 -3.515625 C 3.703125 -3.78125 4.28125 -4.46875 4.28125 -5.265625 C 4.28125 -6.078125 3.40625 -6.640625 2.453125 -6.640625 C 1.453125 -6.640625 0.6875 -6.046875 0.6875 -5.28125 C 0.6875 -4.953125 0.90625 -4.765625 1.203125 -4.765625 C 1.5 -4.765625 1.703125 -4.984375 1.703125 -5.28125 C 1.703125 -5.765625 1.234375 -5.765625 1.09375 -5.765625 C 1.390625 -6.265625 2.046875 -6.390625 2.40625 -6.390625 C 2.828125 -6.390625 3.375 -6.171875 3.375 -5.28125 C 3.375 -5.15625 3.34375 -4.578125 3.09375 -4.140625 C 2.796875 -3.65625 2.453125 -3.625 2.203125 -3.625 C 2.125 -3.609375 1.890625 -3.59375 1.8125 -3.59375 C 1.734375 -3.578125 1.671875 -3.5625 1.671875 -3.46875 C 1.671875 -3.359375 1.734375 -3.359375 1.90625 -3.359375 L 2.34375 -3.359375 C 3.15625 -3.359375 3.53125 -2.6875 3.53125 -1.703125 C 3.53125 -0.34375 2.84375 -0.0625 2.40625 -0.0625 C 1.96875 -0.0625 1.21875 -0.234375 0.875 -0.8125 C 1.21875 -0.765625 1.53125 -0.984375 1.53125 -1.359375 C 1.53125 -1.71875 1.265625 -1.921875 0.984375 -1.921875 C 0.734375 -1.921875 0.421875 -1.78125 0.421875 -1.34375 C 0.421875 -0.4375 1.34375 0.21875 2.4375 0.21875 C 3.65625 0.21875 4.5625 -0.6875 4.5625 -1.703125 C 4.5625 -2.515625 3.921875 -3.296875 2.890625 -3.515625 Z M 2.890625 -3.515625 "
               style="stroke:none;" />
          </symbol>
        </g>
      </defs>
      <g
         id="textext-96ef4a50-4">
        <g
           id="g3394"
           style="fill:rgb(0%,0%,0%);fill-opacity:1;">
          <use
             id="use3396"
             y="134.765"
             x="223.432"
             xlink:href="#textext-96ef4a50-0" />
        </g>
        <g
           id="g3398"
           style="fill:rgb(0%,0%,0%);fill-opacity:1;">
          <use
             id="use3400"
             y="134.765"
             x="231.182903"
             xlink:href="#textext-96ef4a50-1" />
        </g>
        <g
           id="g3402"
           style="fill:rgb(0%,0%,0%);fill-opacity:1;">
          <use
             id="use3404"
             y="134.765"
             x="237.817994"
             xlink:href="#textext-96ef4a50-2" />
        </g>
        <g
           id="g3406"
           style="fill:rgb(0%,0%,0%);fill-opacity:1;">
          <use
             id="use3408"
             y="134.765"
             x="244.463049"
             xlink:href="#textext-96ef4a50-3" />
        </g>
      </g>
    </g>
    <g
       ns0:text="$\\phantom{0}\\;9\\,3\\,5$"
       ns0:preamble="/home/waldgeist/data/sphinx/inkscape-preamble.tex"
       transform="matrix(3,0,0,3,-318.90946,181.46056)"
       id="g3977"
       inkscape:export-filename="/home/waldgeist/data/pics/physik/Own/mathematik/beispiel-subtraktion.png"
       inkscape:export-xdpi="150"
       inkscape:export-ydpi="150">
      <defs
         id="defs3979">
        <g
           id="g3981">
          <symbol
             overflow="visible"
             id="textext-a05c2f02-0"
             style="overflow:visible">
            <path
               style="stroke:none"
               d="m 3.65625,-3.171875 0,0.328125 c 0,2.328125 -1.03125,2.78125 -1.609375,2.78125 -0.171875,0 -0.71875,-0.015625 -0.984375,-0.359375 0.4375,0 0.515625,-0.28125 0.515625,-0.453125 0,-0.3125 -0.234375,-0.453125 -0.453125,-0.453125 -0.15625,0 -0.453125,0.078125 -0.453125,0.46875 0,0.671875 0.53125,1.078125 1.375,1.078125 1.296875,0 2.515625,-1.359375 2.515625,-3.5 0,-2.6875 -1.15625,-3.359375 -2.046875,-3.359375 -0.546875,0 -1.03125,0.1875 -1.453125,0.625 -0.421875,0.453125 -0.640625,0.875 -0.640625,1.625 0,1.234375 0.875,2.21875 1.984375,2.21875 0.609375,0 1.015625,-0.421875 1.25,-1 z M 2.421875,-2.40625 c -0.15625,0 -0.625,0 -0.921875,-0.625 -0.1875,-0.375 -0.1875,-0.859375 -0.1875,-1.359375 0,-0.53125 0,-1 0.21875,-1.375 0.265625,-0.5 0.640625,-0.625 0.984375,-0.625 0.46875,0 0.796875,0.34375 0.96875,0.78125 0.109375,0.328125 0.15625,0.953125 0.15625,1.40625 0,0.828125 -0.34375,1.796875 -1.21875,1.796875 z m 0,0"
               id="path3984"
               inkscape:connector-curvature="0" />
          </symbol>
          <symbol
             overflow="visible"
             id="textext-a05c2f02-1"
             style="overflow:visible">
            <path
               style="stroke:none"
               d="m 2.890625,-3.515625 c 0.8125,-0.265625 1.390625,-0.953125 1.390625,-1.75 0,-0.8125 -0.875,-1.375 -1.828125,-1.375 -1,0 -1.765625,0.59375 -1.765625,1.359375 0,0.328125 0.21875,0.515625 0.515625,0.515625 0.296875,0 0.5,-0.21875 0.5,-0.515625 0,-0.484375 -0.46875,-0.484375 -0.609375,-0.484375 0.296875,-0.5 0.953125,-0.625 1.3125,-0.625 0.421875,0 0.96875,0.21875 0.96875,1.109375 0,0.125 -0.03125,0.703125 -0.28125,1.140625 C 2.796875,-3.65625 2.453125,-3.625 2.203125,-3.625 2.125,-3.609375 1.890625,-3.59375 1.8125,-3.59375 c -0.078125,0.015625 -0.140625,0.03125 -0.140625,0.125 0,0.109375 0.0625,0.109375 0.234375,0.109375 l 0.4375,0 c 0.8125,0 1.1875,0.671875 1.1875,1.65625 0,1.359375 -0.6875,1.640625 -1.125,1.640625 -0.4375,0 -1.1875,-0.171875 -1.53125,-0.75 0.34375,0.046875 0.65625,-0.171875 0.65625,-0.546875 0,-0.359375 -0.265625,-0.5625 -0.546875,-0.5625 -0.25,0 -0.5625,0.140625 -0.5625,0.578125 0,0.90625 0.921875,1.5625 2.015625,1.5625 1.21875,0 2.125,-0.90625 2.125,-1.921875 0,-0.8125 -0.640625,-1.59375 -1.671875,-1.8125 z m 0,0"
               id="path3987"
               inkscape:connector-curvature="0" />
          </symbol>
          <symbol
             overflow="visible"
             id="textext-a05c2f02-2"
             style="overflow:visible">
            <path
               style="stroke:none"
               d="m 4.46875,-2 c 0,-1.1875 -0.8125,-2.1875 -1.890625,-2.1875 -0.46875,0 -0.90625,0.15625 -1.265625,0.515625 l 0,-1.953125 c 0.203125,0.0625 0.53125,0.125 0.84375,0.125 1.234375,0 1.9375,-0.90625 1.9375,-1.03125 0,-0.0625 -0.03125,-0.109375 -0.109375,-0.109375 0,0 -0.03125,0 -0.078125,0.03125 C 3.703125,-6.515625 3.21875,-6.3125 2.546875,-6.3125 2.15625,-6.3125 1.6875,-6.390625 1.21875,-6.59375 1.140625,-6.625 1.125,-6.625 1.109375,-6.625 1,-6.625 1,-6.546875 1,-6.390625 L 1,-3.4375 c 0,0.171875 0,0.25 0.140625,0.25 0.078125,0 0.09375,-0.015625 0.140625,-0.078125 C 1.390625,-3.421875 1.75,-3.96875 2.5625,-3.96875 c 0.515625,0 0.765625,0.453125 0.84375,0.640625 0.15625,0.375 0.1875,0.75 0.1875,1.25 0,0.359375 0,0.953125 -0.25,1.375 C 3.109375,-0.3125 2.734375,-0.0625 2.28125,-0.0625 c -0.71875,0 -1.296875,-0.53125 -1.46875,-1.109375 0.03125,0 0.0625,0.015625 0.171875,0.015625 0.328125,0 0.5,-0.25 0.5,-0.484375 0,-0.25 -0.171875,-0.5 -0.5,-0.5 C 0.84375,-2.140625 0.5,-2.0625 0.5,-1.609375 0.5,-0.75 1.1875,0.21875 2.296875,0.21875 3.453125,0.21875 4.46875,-0.734375 4.46875,-2 z m 0,0"
               id="path3990"
               inkscape:connector-curvature="0" />
          </symbol>
        </g>
      </defs>
      <g
         id="textext-a05c2f02-3">
        <g
           style="fill:#000000;fill-opacity:1"
           id="g3993">
          <use
             xlink:href="#textext-a05c2f02-0"
             x="231.181"
             y="134.765"
             id="use3995"
             width="744.09448"
             height="1052.3622" />
        </g>
        <g
           style="fill:#000000;fill-opacity:1"
           id="g3997">
          <use
             xlink:href="#textext-a05c2f02-1"
             x="237.82605"
             y="134.765"
             id="use3999"
             width="744.09448"
             height="1052.3622" />
        </g>
        <g
           style="fill:#000000;fill-opacity:1"
           id="g4001">
          <use
             xlink:href="#textext-a05c2f02-2"
             x="244.46115"
             y="134.765"
             id="use4003"
             width="744.09448"
             height="1052.3622" />
        </g>
      </g>
    </g>
    <g
       id="g4158"
       transform="matrix(3,0,0,3,-342.43769,139.81579)"
       ns0:preamble="/home/waldgeist/data/sphinx/inkscape-preamble.tex"
       ns0:text="$-\\phantom{1}\\;7\\,4\\,8$"
       inkscape:export-filename="/home/waldgeist/data/pics/physik/Own/mathematik/beispiel-subtraktion.png"
       inkscape:export-xdpi="150"
       inkscape:export-ydpi="150">
      <defs
         id="defs4160">
        <g
           id="g4162">
          <symbol
             id="textext-ca85dadb-0"
             overflow="visible"
             style="overflow:visible">
            <path
               id="path4165"
               d="m 6.5625,-2.296875 c 0.171875,0 0.359375,0 0.359375,-0.203125 0,-0.1875 -0.1875,-0.1875 -0.359375,-0.1875 l -5.390625,0 c -0.171875,0 -0.34375,0 -0.34375,0.1875 0,0.203125 0.171875,0.203125 0.34375,0.203125 z m 0,0"
               style="stroke:none"
               inkscape:connector-curvature="0" />
          </symbol>
          <symbol
             id="textext-ca85dadb-1"
             overflow="visible"
             style="overflow:visible">
            <path
               id="path4168"
               d="m 4.75,-6.078125 c 0.078125,-0.109375 0.078125,-0.125 0.078125,-0.34375 l -2.421875,0 c -1.203125,0 -1.234375,-0.125 -1.265625,-0.3125 l -0.25,0 -0.328125,2.046875 0.25,0 c 0.03125,-0.15625 0.109375,-0.78125 0.25,-0.90625 0.0625,-0.0625 0.84375,-0.0625 0.96875,-0.0625 l 2.0625,0 C 3.984375,-5.5 3.203125,-4.40625 2.984375,-4.078125 2.078125,-2.734375 1.75,-1.34375 1.75,-0.328125 c 0,0.09375 0,0.546875 0.46875,0.546875 0.453125,0 0.453125,-0.453125 0.453125,-0.546875 l 0,-0.515625 c 0,-0.546875 0.03125,-1.09375 0.109375,-1.625 0.046875,-0.234375 0.171875,-1.09375 0.625,-1.703125 z m 0,0"
               style="stroke:none"
               inkscape:connector-curvature="0" />
          </symbol>
          <symbol
             id="textext-ca85dadb-2"
             overflow="visible"
             style="overflow:visible">
            <path
               id="path4171"
               d="m 2.9375,-1.640625 0,0.859375 c 0,0.359375 -0.03125,0.46875 -0.765625,0.46875 l -0.203125,0 0,0.3125 C 2.375,-0.03125 2.890625,-0.03125 3.3125,-0.03125 c 0.421875,0 0.9375,0 1.359375,0.03125 l 0,-0.3125 -0.21875,0 c -0.734375,0 -0.75,-0.109375 -0.75,-0.46875 l 0,-0.859375 0.984375,0 0,-0.3125 -0.984375,0 0,-4.53125 c 0,-0.203125 0,-0.265625 -0.171875,-0.265625 -0.078125,0 -0.109375,0 -0.1875,0.125 l -3.0625,4.671875 0,0.3125 z m 0.046875,-0.3125 -2.421875,0 2.421875,-3.71875 z m 0,0"
               style="stroke:none"
               inkscape:connector-curvature="0" />
          </symbol>
          <symbol
             id="textext-ca85dadb-3"
             overflow="visible"
             style="overflow:visible">
            <path
               id="path4174"
               d="m 1.625,-4.5625 c -0.453125,-0.296875 -0.5,-0.625 -0.5,-0.796875 0,-0.609375 0.65625,-1.03125 1.359375,-1.03125 0.71875,0 1.359375,0.515625 1.359375,1.234375 0,0.578125 -0.390625,1.046875 -0.984375,1.390625 z m 1.453125,0.953125 C 3.796875,-3.984375 4.28125,-4.5 4.28125,-5.15625 c 0,-0.921875 -0.875,-1.484375 -1.78125,-1.484375 -1,0 -1.8125,0.734375 -1.8125,1.671875 0,0.171875 0.015625,0.625 0.4375,1.09375 0.109375,0.109375 0.484375,0.359375 0.734375,0.53125 C 1.28125,-3.046875 0.421875,-2.5 0.421875,-1.5 c 0,1.046875 1.015625,1.71875 2.0625,1.71875 1.125,0 2.078125,-0.828125 2.078125,-1.890625 0,-0.359375 -0.109375,-0.8125 -0.5,-1.234375 C 3.875,-3.109375 3.71875,-3.203125 3.078125,-3.609375 z m -1,0.421875 1.234375,0.78125 c 0.28125,0.1875 0.75,0.484375 0.75,1.09375 0,0.734375 -0.75,1.25 -1.5625,1.25 -0.859375,0 -1.578125,-0.609375 -1.578125,-1.4375 0,-0.578125 0.3125,-1.21875 1.15625,-1.6875 z m 0,0"
               style="stroke:none"
               inkscape:connector-curvature="0" />
          </symbol>
        </g>
      </defs>
      <g
         id="textext-ca85dadb-4">
        <g
           id="g4177"
           style="fill:#000000;fill-opacity:1">
          <use
             id="use4179"
             y="134.765"
             x="223.43201"
             xlink:href="#textext-ca85dadb-0"
             width="744.09448"
             height="1052.3622" />
        </g>
        <g
           id="g4181"
           style="fill:#000000;fill-opacity:1">
          <use
             id="use4183"
             y="134.765"
             x="238.92999"
             xlink:href="#textext-ca85dadb-1"
             width="744.09448"
             height="1052.3622" />
        </g>
        <g
           id="g4185"
           style="fill:#000000;fill-opacity:1">
          <use
             id="use4187"
             y="134.765"
             x="245.57506"
             xlink:href="#textext-ca85dadb-2"
             width="744.09448"
             height="1052.3622" />
        </g>
        <g
           id="g4189"
           style="fill:#000000;fill-opacity:1">
          <use
             id="use4191"
             y="134.765"
             x="252.21014"
             xlink:href="#textext-ca85dadb-3"
             width="744.09448"
             height="1052.3622" />
        </g>
      </g>
    </g>
  </g>
</svg>
