<svg xmlns:ns0="http://www.iki.fi/pav/software/textext/" xmlns="http://www.w3.org/2000/svg" xmlns:xlink="http://www.w3.org/1999/xlink" width="744.094" height="1052.362"><title>Die Gauss&apos;sche Zahlenebene</title><defs><marker id="a" orient="auto" overflow="visible"><path transform="matrix(.3 0 0 .3 -.69 0)" d="M8.719 4.034L-2.207.016 8.719-4.002c-1.746 2.372-1.736 5.618 0 8.036z" fill-rule="evenodd" stroke-width=".625" stroke-linejoin="round"/></marker><marker orient="auto" id="b" overflow="visible"><path d="M8.719 4.034L-2.207.016 8.719-4.002c-1.746 2.372-1.736 5.618 0 8.036z" transform="matrix(-.3 0 0 -.3 .69 0)" fill-rule="evenodd" stroke-width=".625" stroke-linejoin="round"/></marker><marker orient="auto" id="an" overflow="visible"><path d="M8.719 4.034L-2.207.016 8.719-4.002c-1.746 2.372-1.736 5.618 0 8.036z" transform="rotate(180) scale(.6)" fill-rule="evenodd" stroke-width=".625" stroke-linejoin="round"/></marker><marker orient="auto" id="e" overflow="visible"><path d="M2.308 0l-3.46 2v-4l3.46 2z" fill-rule="evenodd" stroke="#000" stroke-width=".4pt"/></marker></defs><g transform="translate(-575.239 128.115) scale(4.62289)" fill="green"><use y="134.765" x="231.736" xlink:href="#textext-082fa4b4-3" width="744.094" height="1052.362"/><use y="134.765" x="231.736" xlink:href="#textext-082fa4b4-3" width="744.094" height="1052.362"/><g ns0:preamble="/home/waldgeist/data/sphinx/test.tex" ns0:text="$\\Delta \\vec{r} = \\vec{r}_{\\rm{2}} - \\vec{r}_{\\rm{1}} $"><use y="134.765" x="223.432" xlink:href="#textext-082fa4b4-0" width="744.094" height="1052.362"/><use y="134.765" x="231.417" xlink:href="#textext-082fa4b4-2" width="744.094" height="1052.362"/><use y="134.765" x="231.736" xlink:href="#textext-082fa4b4-3" width="744.094" height="1052.362"/><use y="134.765" x="239.273" xlink:href="#textext-082fa4b4-1" width="744.094" height="1052.362"/><use y="134.765" x="249.472" xlink:href="#textext-082fa4b4-2" width="744.094" height="1052.362"/><use y="134.765" x="249.791" xlink:href="#textext-082fa4b4-3" width="744.094" height="1052.362"/><use y="136.259" x="254.284" xlink:href="#textext-082fa4b4-4" width="744.094" height="1052.362"/><use y="134.765" x="260.967" xlink:href="#textext-082fa4b4-6" width="744.094" height="1052.362"/><use y="134.765" x="270.612" xlink:href="#textext-082fa4b4-2" width="744.094" height="1052.362"/><use y="134.765" x="270.931" xlink:href="#textext-082fa4b4-3" width="744.094" height="1052.362"/><use y="136.259" x="275.425" xlink:href="#textext-082fa4b4-5" width="744.094" height="1052.362"/></g><g ns0:preamble="/home/waldgeist/data/sphinx/test.tex" ns0:text="$\\Delta \\vec{r} = \\vec{r}_{\\rm{2}} - \\vec{r}_{\\rm{1}} $"><use y="134.765" x="223.432" xlink:href="#textext-082fa4b4-0" width="744.094" height="1052.362"/><use y="134.765" x="231.417" xlink:href="#textext-082fa4b4-2" width="744.094" height="1052.362"/><use y="134.765" x="231.736" xlink:href="#textext-082fa4b4-3" width="744.094" height="1052.362"/><use y="134.765" x="239.273" xlink:href="#textext-082fa4b4-1" width="744.094" height="1052.362"/><use y="134.765" x="249.472" xlink:href="#textext-082fa4b4-2" width="744.094" height="1052.362"/><use y="134.765" x="249.791" xlink:href="#textext-082fa4b4-3" width="744.094" height="1052.362"/><use y="136.259" x="254.284" xlink:href="#textext-082fa4b4-4" width="744.094" height="1052.362"/><use y="134.765" x="260.967" xlink:href="#textext-082fa4b4-6" width="744.094" height="1052.362"/><use y="134.765" x="270.612" xlink:href="#textext-082fa4b4-2" width="744.094" height="1052.362"/><use y="134.765" x="270.931" xlink:href="#textext-082fa4b4-3" width="744.094" height="1052.362"/><use y="136.259" x="275.425" xlink:href="#textext-082fa4b4-5" width="744.094" height="1052.362"/></g><g ns0:preamble="/home/waldgeist/data/sphinx/test.tex" ns0:text="$\\Delta \\vec{r} = \\vec{r}_{\\rm{2}} - \\vec{r}_{\\rm{1}} $"><use y="134.765" x="223.432" xlink:href="#textext-082fa4b4-0" width="744.094" height="1052.362"/><use y="134.765" x="231.417" xlink:href="#textext-082fa4b4-2" width="744.094" height="1052.362"/><use y="134.765" x="231.736" xlink:href="#textext-082fa4b4-3" width="744.094" height="1052.362"/><use y="134.765" x="239.273" xlink:href="#textext-082fa4b4-1" width="744.094" height="1052.362"/><use y="134.765" x="249.472" xlink:href="#textext-082fa4b4-2" width="744.094" height="1052.362"/><use y="134.765" x="249.791" xlink:href="#textext-082fa4b4-3" width="744.094" height="1052.362"/><use y="136.259" x="254.284" xlink:href="#textext-082fa4b4-4" width="744.094" height="1052.362"/><use y="134.765" x="260.967" xlink:href="#textext-082fa4b4-6" width="744.094" height="1052.362"/><use y="134.765" x="270.612" xlink:href="#textext-082fa4b4-2" width="744.094" height="1052.362"/><use y="134.765" x="270.931" xlink:href="#textext-082fa4b4-3" width="744.094" height="1052.362"/><use y="136.259" x="275.425" xlink:href="#textext-082fa4b4-5" width="744.094" height="1052.362"/></g></g><path fill="#fff" stroke="#fff" stroke-width="3" stroke-linecap="round" d="M3.865 140.605h736.364v771.152H3.865z"/><path fill="#fff" stroke="#fff" stroke-width="2" stroke-linecap="round" d="M3.865 140.605h736.364v771.152H3.865z"/><path d="M365.392 520.118l236.123-177.086" fill="none" stroke="navy" stroke-width="2" stroke-linecap="round" stroke-dasharray="1.9999999,3.99999978" marker-start="url(#a)" marker-end="url(#b)"/><path style="marker:none" color="#000" fill="#fff" stroke="#fff" stroke-linecap="round" overflow="visible" d="M451.07 418.97l25.886-14.945 14.945 25.887-25.886 14.945z"/><g stroke="#ccc" stroke-width="1.019" fill="none"><g stroke-width="2.509"><path d="M132.012 227.272V825.09M191.794 227.272V825.09M251.575 227.272V825.09M311.357 227.272V825.09M371.139 227.272V825.09M430.92 227.272V825.09M490.702 227.272V825.09M550.484 227.272V825.09M610.266 227.272V825.09" stroke-width="1.49993038"/></g><g stroke-width="2.509"><path d="M72.23 287.054h597.817M72.23 346.836h597.817M72.23 406.618h597.817M72.23 466.4h597.817M72.23 526.181h597.817M72.23 585.963h597.817M72.23 645.745h597.817M72.23 705.526h597.817M72.23 765.308h597.817" stroke-width="1.49993038"/></g><g stroke-width=".836"><path d="M78.208 227.272V825.09M84.186 227.272V825.09M90.165 227.272V825.09M96.143 227.272V825.09M102.121 227.272V825.09M108.1 227.272V825.09M114.077 227.272V825.09M120.055 227.272V825.09M126.034 227.272V825.09M137.99 227.272V825.09M143.968 227.272V825.09M149.946 227.272V825.09M155.925 227.272V825.09M161.903 227.272V825.09M167.88 227.272V825.09M173.859 227.272V825.09M179.837 227.272V825.09M185.815 227.272V825.09M197.772 227.272V825.09M203.75 227.272V825.09M209.728 227.272V825.09M215.706 227.272V825.09M221.684 227.272V825.09M227.663 227.272V825.09M233.64 227.272V825.09M239.619 227.272V825.09M245.597 227.272V825.09M257.553 227.272V825.09M263.532 227.272V825.09M269.51 227.272V825.09M275.488 227.272V825.09M281.466 227.272V825.09M287.444 227.272V825.09M293.422 227.272V825.09M299.4 227.272V825.09M305.379 227.272V825.09M317.335 227.272V825.09M323.313 227.272V825.09M329.292 227.272V825.09M335.27 227.272V825.09M341.248 227.272V825.09M347.226 227.272V825.09M353.204 227.272V825.09M359.182 227.272V825.09M365.16 227.272V825.09M377.117 227.272V825.09M383.095 227.272V825.09M389.073 227.272V825.09M395.051 227.272V825.09M401.03 227.272V825.09M407.008 227.272V825.09M412.986 227.272V825.09M418.964 227.272V825.09M424.942 227.272V825.09M436.899 227.272V825.09M442.877 227.272V825.09M448.855 227.272V825.09M454.833 227.272V825.09M460.811 227.272V825.09M466.79 227.272V825.09M472.768 227.272V825.09M478.746 227.272V825.09M484.724 227.272V825.09M496.68 227.272V825.09M502.659 227.272V825.09M508.637 227.272V825.09M514.615 227.272V825.09M520.593 227.272V825.09M526.571 227.272V825.09M532.55 227.272V825.09M538.528 227.272V825.09M544.506 227.272V825.09M556.462 227.272V825.09M562.44 227.272V825.09M568.418 227.272V825.09M574.397 227.272V825.09M580.375 227.272V825.09M586.353 227.272V825.09M592.331 227.272V825.09M598.31 227.272V825.09M604.287 227.272V825.09M616.244 227.272V825.09M622.222 227.272V825.09M628.2 227.272V825.09M634.178 227.272V825.09M640.157 227.272V825.09M646.135 227.272V825.09M652.113 227.272V825.09M658.091 227.272V825.09M664.07 227.272V825.09" stroke-width=".49977752"/></g><g stroke-width=".836"><path d="M72.23 233.25h597.817M72.23 239.229h597.817M72.23 245.207h597.817M72.23 251.185h597.817M72.23 257.163h597.817M72.23 263.141h597.817M72.23 269.12h597.817M72.23 275.098h597.817M72.23 281.076h597.817M72.23 293.032h597.817M72.23 299.01h597.817M72.23 304.989h597.817M72.23 310.967h597.817M72.23 316.945h597.817M72.23 322.923h597.817M72.23 328.901h597.817M72.23 334.88h597.817M72.23 340.858h597.817M72.23 352.814h597.817M72.23 358.792h597.817M72.23 364.77h597.817M72.23 370.749h597.817M72.23 376.727h597.817M72.23 382.705h597.817M72.23 388.683h597.817M72.23 394.661h597.817M72.23 400.64h597.817M72.23 412.596h597.817M72.23 418.574h597.817M72.23 424.552h597.817M72.23 430.53h597.817M72.23 436.508h597.817M72.23 442.487h597.817M72.23 448.465h597.817M72.23 454.443h597.817M72.23 460.421h597.817M72.23 472.378h597.817M72.23 478.356h597.817M72.23 484.334h597.817M72.23 490.312h597.817M72.23 496.29h597.817M72.23 502.268h597.817M72.23 508.247h597.817M72.23 514.225h597.817M72.23 520.203h597.817M72.23 532.16h597.817M72.23 538.137h597.817M72.23 544.116h597.817M72.23 550.094h597.817M72.23 556.072h597.817M72.23 562.05h597.817M72.23 568.028h597.817M72.23 574.006h597.817M72.23 579.985h597.817M72.23 591.941h597.817M72.23 597.92h597.817M72.23 603.897h597.817M72.23 609.876h597.817M72.23 615.854h597.817M72.23 621.832h597.817M72.23 627.81h597.817M72.23 633.788h597.817M72.23 639.766h597.817M72.23 651.723h597.817M72.23 657.7h597.817M72.23 663.68h597.817M72.23 669.657h597.817M72.23 675.635h597.817M72.23 681.614h597.817M72.23 687.592h597.817M72.23 693.57h597.817M72.23 699.548h597.817M72.23 711.504h597.817M72.23 717.483h597.817M72.23 723.46h597.817M72.23 729.439h597.817M72.23 735.417h597.817M72.23 741.395h597.817M72.23 747.373h597.817M72.23 753.352h597.817M72.23 759.33h597.817M72.23 771.286h597.817M72.23 777.264h597.817M72.23 783.243h597.817M72.23 789.22h597.817M72.23 795.199h597.817M72.23 801.177h597.817M72.23 807.155h597.817M72.23 813.133h597.817M72.23 819.112h597.817" stroke-width=".49977752"/></g><path stroke-width="1.49993038" d="M72.23 227.272h597.817V825.09H72.23z"/></g><g ns0:text="$|z|$" ns0:preamble="/home/waldgeist/data/sphinx/inkscape-preamble.tex" transform="rotate(-32.496 682.865 566.4) scale(2.54241)" fill="navy" stroke="green" stroke-width="1.18"><defs><symbol overflow="visible" id="c"><path d="M1.578-7.125c0-.172 0-.36-.187-.36-.204 0-.204.188-.204.36v9.266c0 .171 0 .359.204.359.187 0 .187-.188.187-.36z" stroke="none"/></symbol><symbol overflow="visible" id="d"><path d="M1.328-.828c.531-.578.828-.828 1.188-1.14 0 0 .609-.532.968-.891.954-.922 1.172-1.407 1.172-1.454 0-.093-.093-.093-.11-.093-.077 0-.093.015-.155.11-.297.484-.5.64-.735.64-.25 0-.36-.156-.515-.328-.188-.22-.36-.422-.688-.422-.75 0-1.203.922-1.203 1.14 0 .047.031.11.11.11.093 0 .109-.047.14-.11.188-.468.766-.468.844-.468.203 0 .39.062.625.14.406.156.515.156.765.156-.359.422-1.187 1.141-1.375 1.297l-.906.844C.781-.625.422-.063.422.016c0 .093.11.093.125.093C.625.11.64.094.703-.016c.235-.359.531-.625.86-.625.218 0 .328.094.578.375.156.22.343.375.625.375 1 0 1.578-1.265 1.578-1.53 0-.048-.047-.11-.125-.11-.094 0-.11.062-.14.14-.235.641-.876.829-1.204.829-.188 0-.375-.063-.578-.125-.344-.125-.5-.172-.703-.172-.016 0-.172 0-.266.03z" stroke="none"/></symbol></defs><use height="1052.362" width="744.094" xlink:href="#c" x="223.432" y="134.765"/><use height="1052.362" width="744.094" xlink:href="#d" x="226.2" y="134.765"/><use height="1052.362" width="744.094" xlink:href="#c" x="231.271" y="134.765"/></g><g fill="none" stroke="#000" stroke-width=".948"><path d="M383.298 406.674H358.98M383.298 346.892H358.98M383.298 287.11H358.98M383.298 227.329H358.98M383.298 586.02H358.98M383.298 645.8H358.98M383.298 705.583H358.98M383.298 765.364H358.98M383.298 825.146H358.98" stroke-width="1.55896704"/></g><path d="M381.019 466.456h-23.913" fill="none" stroke="#000" stroke-width="2"/><path id="v" d="M25.024 526.181H711.08" fill="none" stroke="#000" stroke-width="3" marker-end="url(#e)"/><path d="M430.92 513.912v23.912" id="f" fill="none" stroke="#000" stroke-width="2"/><use height="1052.362" width="744.094" transform="translate(59.782 -.483)" xlink:href="#f"/><use height="1052.362" width="744.094" transform="translate(119.563)" xlink:href="#f"/><use height="1052.362" width="744.094" transform="translate(179.345)" xlink:href="#f"/><use height="1052.362" width="744.094" transform="translate(-239.127 -.604)" xlink:href="#f"/><use height="1052.362" width="744.094" transform="translate(-298.909 -.483)" xlink:href="#f"/><use height="1052.362" width="744.094" transform="translate(-358.69)" xlink:href="#f"/><use xlink:href="#f" transform="translate(-179.345 -.248)" width="744.094" height="1052.362"/><use xlink:href="#f" transform="translate(-119.563 -.063)" width="1052.362" height="744.094"/><use xlink:href="#f" transform="translate(239.127 -.667)" width="1052.362" height="744.094"/><g fill="#4d4d4d" stroke="green" stroke-width="1.18"><g transform="matrix(2.5424 0 0 2.5424 -143.646 216.068)" ns0:preamble="/home/waldgeist/data/sphinx/test.tex" ns0:text="$1$"><defs><symbol id="g" overflow="visible"><path d="M2.938-6.375c0-.25 0-.266-.235-.266C2.078-6 1.203-6 .891-6v.313c.203 0 .78 0 1.296-.266v5.172c0 .36-.03.469-.921.469H.953V0c.344-.031 1.203-.031 1.61-.031.39 0 1.265 0 1.609.031v-.313h-.313c-.906 0-.921-.109-.921-.468zm0 0" stroke="none"/></symbol></defs><use height="1052.362" width="744.094" y="134.765" x="223.432" xlink:href="#g"/></g><g ns0:text="$-1$" ns0:preamble="/home/waldgeist/data/sphinx/test.tex" transform="matrix(2.5424 0 0 2.5424 -283.164 216.068)"><defs><symbol overflow="visible" id="h"><path d="M6.563-2.297c.171 0 .359 0 .359-.203 0-.188-.188-.188-.36-.188h-5.39c-.172 0-.344 0-.344.188 0 .203.172.203.344.203zm0 0" stroke="none"/></symbol><symbol overflow="visible" id="i"><path d="M2.938-6.375c0-.25 0-.266-.235-.266C2.078-6 1.203-6 .891-6v.313c.203 0 .78 0 1.296-.266v5.172c0 .36-.03.469-.921.469H.953V0c.344-.031 1.203-.031 1.61-.031.39 0 1.265 0 1.609.031v-.313h-.313c-.906 0-.921-.109-.921-.468zm0 0" stroke="none"/></symbol></defs><use height="1052.362" width="744.094" xlink:href="#h" x="223.432" y="134.765"/><use height="1052.362" width="744.094" xlink:href="#i" x="231.181" y="134.765"/></g><g transform="matrix(2.5424 0 0 2.5424 -342.957 216.068)" ns0:preamble="/home/waldgeist/data/sphinx/test.tex" ns0:text="$-2$"><defs><symbol id="j" overflow="visible"><path d="M6.563-2.297c.171 0 .359 0 .359-.203 0-.188-.188-.188-.36-.188h-5.39c-.172 0-.344 0-.344.188 0 .203.172.203.344.203zm0 0" stroke="none"/></symbol><symbol id="k" overflow="visible"><path d="M1.266-.766l1.062-1.03c1.547-1.376 2.14-1.907 2.14-2.907 0-1.14-.89-1.938-2.109-1.938C1.234-6.64.5-5.719.5-4.828c0 .547.5.547.531.547.172 0 .516-.11.516-.532a.513.513 0 0 0-.531-.515c-.079 0-.094 0-.125.016.218-.657.765-1.016 1.343-1.016.907 0 1.329.812 1.329 1.625 0 .797-.485 1.578-1.047 2.203L.609-.375C.5-.265.5-.235.5 0h3.703l.266-1.734h-.235C4.172-1.438 4.11-1 4-.844c-.063.078-.719.078-.938.078zm0 0" stroke="none"/></symbol></defs><use y="134.765" x="223.432" xlink:href="#j" width="744.094" height="1052.362"/><use y="134.765" x="231.181" xlink:href="#k" width="744.094" height="1052.362"/></g><g ns0:text="$-3$" ns0:preamble="/home/waldgeist/data/sphinx/test.tex" transform="matrix(2.5424 0 0 2.5424 -402.267 215.79)"><defs><symbol overflow="visible" id="l"><path d="M6.563-2.297c.171 0 .359 0 .359-.203 0-.188-.188-.188-.36-.188h-5.39c-.172 0-.344 0-.344.188 0 .203.172.203.344.203zm0 0" stroke="none"/></symbol><symbol overflow="visible" id="m"><path d="M2.89-3.516c.813-.265 1.391-.953 1.391-1.75 0-.812-.875-1.375-1.828-1.375-1 0-1.765.594-1.765 1.36 0 .328.218.515.515.515.297 0 .5-.218.5-.515 0-.485-.469-.485-.61-.485.298-.5.954-.625 1.313-.625.422 0 .969.22.969 1.11 0 .125-.031.703-.281 1.14-.297.485-.64.516-.89.516a3.29 3.29 0 0 1-.392.031c-.078.016-.14.031-.14.125 0 .11.062.11.234.11h.438c.812 0 1.187.671 1.187 1.656 0 1.36-.687 1.64-1.125 1.64-.437 0-1.187-.171-1.531-.75.344.047.656-.171.656-.546a.537.537 0 0 0-.547-.563c-.25 0-.562.14-.562.578C.422-.437 1.344.22 2.437.22c1.22 0 2.126-.906 2.126-1.922 0-.813-.641-1.594-1.672-1.813zm0 0" stroke="none"/></symbol></defs><use height="1052.362" width="744.094" xlink:href="#l" x="223.432" y="134.765"/><use height="1052.362" width="744.094" xlink:href="#m" x="231.181" y="134.765"/></g><g transform="matrix(2.5424 0 0 2.5424 -464.355 216.207)" ns0:preamble="/home/waldgeist/data/sphinx/test.tex" ns0:text="$-4$"><defs><symbol id="n" overflow="visible"><path d="M6.563-2.297c.171 0 .359 0 .359-.203 0-.188-.188-.188-.36-.188h-5.39c-.172 0-.344 0-.344.188 0 .203.172.203.344.203zm0 0" stroke="none"/></symbol><symbol id="o" overflow="visible"><path d="M2.938-1.64v.859c0 .36-.032.469-.766.469h-.203V0c.406-.031.922-.031 1.343-.031.422 0 .938 0 1.36.031v-.313h-.219c-.734 0-.75-.109-.75-.468v-.86h.985v-.312h-.985v-4.531c0-.204 0-.266-.172-.266-.078 0-.11 0-.187.125L.28-1.953v.312zm.046-.313H.563l2.421-3.719zm0 0" stroke="none"/></symbol></defs><use height="1052.362" width="744.094" y="134.765" x="223.432" xlink:href="#n"/><use height="1052.362" width="744.094" y="134.765" x="231.181" xlink:href="#o"/></g><g ns0:text="$-5$" ns0:preamble="/home/waldgeist/data/sphinx/test.tex" transform="matrix(2.5424 0 0 2.5424 -521.854 215.79)"><defs><symbol overflow="visible" id="p"><path d="M6.563-2.297c.171 0 .359 0 .359-.203 0-.188-.188-.188-.36-.188h-5.39c-.172 0-.344 0-.344.188 0 .203.172.203.344.203zm0 0" stroke="none"/></symbol><symbol overflow="visible" id="q"><path d="M4.469-2c0-1.188-.813-2.188-1.89-2.188-.47 0-.907.157-1.267.516v-1.953c.204.063.532.125.844.125 1.235 0 1.938-.906 1.938-1.031 0-.063-.032-.11-.11-.11 0 0-.03 0-.078.032a3.22 3.22 0 0 1-1.36.296c-.39 0-.858-.078-1.327-.28-.078-.032-.094-.032-.11-.032C1-6.625 1-6.547 1-6.391v2.954c0 .171 0 .25.14.25.079 0 .094-.016.141-.079.11-.156.469-.703 1.282-.703.515 0 .765.453.843.64.156.376.188.75.188 1.25 0 .36 0 .954-.25 1.376-.235.39-.61.64-1.063.64-.719 0-1.297-.53-1.469-1.109.032 0 .063.016.172.016.329 0 .5-.25.5-.485 0-.25-.171-.5-.5-.5-.14 0-.484.079-.484.532C.5-.75 1.188.219 2.297.219 3.453.219 4.469-.734 4.469-2zm0 0" stroke="none"/></symbol></defs><use height="1052.362" width="744.094" xlink:href="#p" x="223.432" y="134.765"/><use height="1052.362" width="744.094" xlink:href="#q" x="231.181" y="134.765"/></g><g transform="matrix(2.5424 0 0 2.5424 -83.732 216.068)" ns0:preamble="/home/waldgeist/data/sphinx/test.tex" ns0:text="$2$"><defs><symbol id="r" overflow="visible"><path d="M1.266-.766l1.062-1.03c1.547-1.376 2.14-1.907 2.14-2.907 0-1.14-.89-1.938-2.109-1.938C1.234-6.64.5-5.719.5-4.828c0 .547.5.547.531.547.172 0 .516-.11.516-.532a.513.513 0 0 0-.531-.515c-.079 0-.094 0-.125.016.218-.657.765-1.016 1.343-1.016.907 0 1.329.812 1.329 1.625 0 .797-.485 1.578-1.047 2.203L.609-.375C.5-.265.5-.235.5 0h3.703l.266-1.734h-.235C4.172-1.438 4.11-1 4-.844c-.063.078-.719.078-.938.078zm0 0" stroke="none"/></symbol></defs><use y="134.765" x="223.432" xlink:href="#r" transform="translate(-.019)" width="744.094" height="1052.362"/></g><g ns0:text="$3$" ns0:preamble="/home/waldgeist/data/sphinx/test.tex" transform="matrix(2.5424 0 0 2.5424 -24.482 215.79)"><defs><symbol overflow="visible" id="s"><path d="M2.89-3.516c.813-.265 1.391-.953 1.391-1.75 0-.812-.875-1.375-1.828-1.375-1 0-1.765.594-1.765 1.36 0 .328.218.515.515.515.297 0 .5-.218.5-.515 0-.485-.469-.485-.61-.485.298-.5.954-.625 1.313-.625.422 0 .969.22.969 1.11 0 .125-.031.703-.281 1.14-.297.485-.64.516-.89.516a3.29 3.29 0 0 1-.392.031c-.078.016-.14.031-.14.125 0 .11.062.11.234.11h.438c.812 0 1.187.671 1.187 1.656 0 1.36-.687 1.64-1.125 1.64-.437 0-1.187-.171-1.531-.75.344.047.656-.171.656-.546a.537.537 0 0 0-.547-.563c-.25 0-.562.14-.562.578C.422-.437 1.344.22 2.437.22c1.22 0 2.126-.906 2.126-1.922 0-.813-.641-1.594-1.672-1.813zm0 0" stroke="none"/></symbol></defs><use height="1052.362" width="744.094" xlink:href="#s" x="223.432" y="134.765"/></g><g transform="matrix(2.5424 0 0 2.5424 33.62 216.207)" ns0:preamble="/home/waldgeist/data/sphinx/test.tex" ns0:text="$4$"><defs><symbol id="t" overflow="visible"><path d="M2.938-1.64v.859c0 .36-.032.469-.766.469h-.203V0c.406-.031.922-.031 1.343-.031.422 0 .938 0 1.36.031v-.313h-.219c-.734 0-.75-.109-.75-.468v-.86h.985v-.312h-.985v-4.531c0-.204 0-.266-.172-.266-.078 0-.11 0-.187.125L.28-1.953v.312zm.046-.313H.563l2.421-3.719zm0 0" stroke="none"/></symbol></defs><use y="134.765" x="223.432" xlink:href="#t" width="744.094" height="1052.362"/></g><g ns0:text="$5$" ns0:preamble="/home/waldgeist/data/sphinx/test.tex" transform="matrix(2.5424 0 0 2.5424 95.588 215.79)"><defs><symbol overflow="visible" id="u"><path d="M4.469-2c0-1.188-.813-2.188-1.89-2.188-.47 0-.907.157-1.267.516v-1.953c.204.063.532.125.844.125 1.235 0 1.938-.906 1.938-1.031 0-.063-.032-.11-.11-.11 0 0-.03 0-.078.032a3.22 3.22 0 0 1-1.36.296c-.39 0-.858-.078-1.327-.28-.078-.032-.094-.032-.11-.032C1-6.625 1-6.547 1-6.391v2.954c0 .171 0 .25.14.25.079 0 .094-.016.141-.079.11-.156.469-.703 1.282-.703.515 0 .765.453.843.64.156.376.188.75.188 1.25 0 .36 0 .954-.25 1.376-.235.39-.61.64-1.063.64-.719 0-1.297-.53-1.469-1.109.032 0 .063.016.172.016.329 0 .5-.25.5-.485 0-.25-.171-.5-.5-.5-.14 0-.484.079-.484.532C.5-.75 1.188.219 2.297.219 3.453.219 4.469-.734 4.469-2zm0 0" stroke="none"/></symbol></defs><use height="1052.362" width="744.094" xlink:href="#u" x="223.432" y="134.765"/></g></g><use xlink:href="#v" transform="rotate(-90 371.139 526.181)" width="744.094" height="1052.362"/><g ns0:text="$5 \\cdot i$" transform="matrix(2.5424 0 0 2.5424 -253.084 -107.135)" fill="#4d4d4d" stroke="green" stroke-width="1.18"><defs><symbol overflow="visible" id="w"><path d="M4.469-2c0-1.188-.813-2.188-1.89-2.188-.47 0-.907.157-1.267.516v-1.953c.204.063.532.125.844.125 1.235 0 1.938-.906 1.938-1.031 0-.063-.032-.11-.11-.11 0 0-.03 0-.078.032a3.22 3.22 0 0 1-1.36.296c-.39 0-.858-.078-1.327-.28-.078-.032-.094-.032-.11-.032C1-6.625 1-6.547 1-6.391v2.954c0 .171 0 .25.14.25.079 0 .094-.016.141-.079.11-.156.469-.703 1.282-.703.515 0 .765.453.843.64.156.376.188.75.188 1.25 0 .36 0 .954-.25 1.376-.235.39-.61.64-1.063.64-.719 0-1.297-.53-1.469-1.109.032 0 .063.016.172.016.329 0 .5-.25.5-.485 0-.25-.171-.5-.5-.5-.14 0-.484.079-.484.532C.5-.75 1.188.219 2.297.219 3.453.219 4.469-.734 4.469-2z" stroke="none"/></symbol><symbol overflow="visible" id="x"><path d="M1.906-2.5a.524.524 0 1 0-.516.531.524.524 0 0 0 .516-.531z" stroke="none"/></symbol><symbol overflow="visible" id="y"><path d="M2.828-6.234c0-.204-.14-.36-.36-.36-.28 0-.546.266-.546.532 0 .187.14.359.375.359.234 0 .531-.234.531-.531zm-.75 3.75c.11-.282.11-.313.219-.579.078-.203.125-.343.125-.53 0-.438-.313-.813-.813-.813-.937 0-1.312 1.453-1.312 1.531 0 .11.094.11.11.11.109 0 .109-.032.156-.188.28-.938.671-1.235 1.015-1.235.078 0 .25 0 .25.313 0 .219-.078.422-.11.531-.077.25-.53 1.406-.687 1.844-.11.25-.234.578-.234.797 0 .469.344.812.812.812.938 0 1.313-1.437 1.313-1.53 0-.11-.094-.11-.125-.11-.094 0-.094.031-.14.187C2.468-.719 2.14-.109 1.64-.109c-.172 0-.25-.094-.25-.329 0-.25.062-.39.296-1z" stroke="none"/></symbol></defs><use height="1052.362" width="744.094" xlink:href="#w" x="223.432" y="134.765"/><use height="1052.362" width="744.094" xlink:href="#x" x="230.627" y="134.765"/><use height="1052.362" width="744.094" xlink:href="#y" x="235.609" y="134.765"/></g><g transform="matrix(2.5424 0 0 2.5424 -253.084 -46.937)" ns0:text="$4 \\cdot i$" fill="#4d4d4d" stroke="green" stroke-width="1.18"><defs><symbol id="z" overflow="visible"><path d="M2.938-1.64v.859c0 .36-.032.469-.766.469h-.203V0c.406-.031.922-.031 1.343-.031.422 0 .938 0 1.36.031v-.313h-.219c-.734 0-.75-.109-.75-.468v-.86h.985v-.312h-.985v-4.531c0-.204 0-.266-.172-.266-.078 0-.11 0-.187.125L.28-1.953v.312zm.046-.313H.563l2.421-3.719z" stroke="none"/></symbol><symbol id="A" overflow="visible"><path d="M1.906-2.5a.524.524 0 1 0-.516.531.524.524 0 0 0 .516-.531z" stroke="none"/></symbol><symbol id="B" overflow="visible"><path d="M2.828-6.234c0-.204-.14-.36-.36-.36-.28 0-.546.266-.546.532 0 .187.14.359.375.359.234 0 .531-.234.531-.531zm-.75 3.75c.11-.282.11-.313.219-.579.078-.203.125-.343.125-.53 0-.438-.313-.813-.813-.813-.937 0-1.312 1.453-1.312 1.531 0 .11.094.11.11.11.109 0 .109-.032.156-.188.28-.938.671-1.235 1.015-1.235.078 0 .25 0 .25.313 0 .219-.078.422-.11.531-.077.25-.53 1.406-.687 1.844-.11.25-.234.578-.234.797 0 .469.344.812.812.812.938 0 1.313-1.437 1.313-1.53 0-.11-.094-.11-.125-.11-.094 0-.094.031-.14.187C2.468-.719 2.14-.109 1.64-.109c-.172 0-.25-.094-.25-.329 0-.25.062-.39.296-1z" stroke="none"/></symbol></defs><use y="134.765" x="223.432" xlink:href="#z" width="744.094" height="1052.362"/><use y="134.765" x="230.627" xlink:href="#A" width="744.094" height="1052.362"/><use y="134.765" x="235.609" xlink:href="#B" width="744.094" height="1052.362"/></g><g ns0:text="$3 \\cdot i$" transform="matrix(2.5424 0 0 2.5424 -253.084 12.428)" fill="#4d4d4d" stroke="green" stroke-width="1.18"><defs><symbol overflow="visible" id="C"><path d="M2.89-3.516c.813-.265 1.391-.953 1.391-1.75 0-.812-.875-1.375-1.828-1.375-1 0-1.765.594-1.765 1.36 0 .328.218.515.515.515.297 0 .5-.218.5-.515 0-.485-.469-.485-.61-.485.298-.5.954-.625 1.313-.625.422 0 .969.22.969 1.11 0 .125-.031.703-.281 1.14-.297.485-.64.516-.89.516a3.29 3.29 0 0 1-.392.031c-.078.016-.14.031-.14.125 0 .11.062.11.234.11h.438c.812 0 1.187.671 1.187 1.656 0 1.36-.687 1.64-1.125 1.64-.437 0-1.187-.171-1.531-.75.344.047.656-.171.656-.546a.537.537 0 0 0-.547-.563c-.25 0-.562.14-.562.578C.422-.437 1.344.22 2.437.22c1.22 0 2.126-.906 2.126-1.922 0-.813-.641-1.594-1.672-1.813z" stroke="none"/></symbol><symbol overflow="visible" id="D"><path d="M1.906-2.5a.524.524 0 1 0-.516.531.524.524 0 0 0 .516-.531z" stroke="none"/></symbol><symbol overflow="visible" id="E"><path d="M2.828-6.234c0-.204-.14-.36-.36-.36-.28 0-.546.266-.546.532 0 .187.14.359.375.359.234 0 .531-.234.531-.531zm-.75 3.75c.11-.282.11-.313.219-.579.078-.203.125-.343.125-.53 0-.438-.313-.813-.813-.813-.937 0-1.312 1.453-1.312 1.531 0 .11.094.11.11.11.109 0 .109-.032.156-.188.28-.938.671-1.235 1.015-1.235.078 0 .25 0 .25.313 0 .219-.078.422-.11.531-.077.25-.53 1.406-.687 1.844-.11.25-.234.578-.234.797 0 .469.344.812.812.812.938 0 1.313-1.437 1.313-1.53 0-.11-.094-.11-.125-.11-.094 0-.094.031-.14.187C2.468-.719 2.14-.109 1.64-.109c-.172 0-.25-.094-.25-.329 0-.25.062-.39.296-1z" stroke="none"/></symbol></defs><use xlink:href="#C" x="223.432" y="134.765" width="744.094" height="1052.362"/><use xlink:href="#D" x="230.627" y="134.765" width="744.094" height="1052.362"/><use xlink:href="#E" x="235.609" y="134.765" width="744.094" height="1052.362"/></g><g transform="matrix(2.5424 0 0 2.5424 -253.084 72.081)" ns0:text="$2 \\cdot i$" fill="#4d4d4d" stroke="green" stroke-width="1.18"><defs><symbol id="F" overflow="visible"><path d="M1.266-.766l1.062-1.03c1.547-1.376 2.14-1.907 2.14-2.907 0-1.14-.89-1.938-2.109-1.938C1.234-6.64.5-5.719.5-4.828c0 .547.5.547.531.547.172 0 .516-.11.516-.532a.513.513 0 0 0-.531-.515c-.079 0-.094 0-.125.016.218-.657.765-1.016 1.343-1.016.907 0 1.329.812 1.329 1.625 0 .797-.485 1.578-1.047 2.203L.609-.375C.5-.265.5-.235.5 0h3.703l.266-1.734h-.235C4.172-1.438 4.11-1 4-.844c-.063.078-.719.078-.938.078z" stroke="none"/></symbol><symbol id="G" overflow="visible"><path d="M1.906-2.5a.524.524 0 1 0-.516.531.524.524 0 0 0 .516-.531z" stroke="none"/></symbol><symbol id="H" overflow="visible"><path d="M2.828-6.234c0-.204-.14-.36-.36-.36-.28 0-.546.266-.546.532 0 .187.14.359.375.359.234 0 .531-.234.531-.531zm-.75 3.75c.11-.282.11-.313.219-.579.078-.203.125-.343.125-.53 0-.438-.313-.813-.813-.813-.937 0-1.312 1.453-1.312 1.531 0 .11.094.11.11.11.109 0 .109-.032.156-.188.28-.938.671-1.235 1.015-1.235.078 0 .25 0 .25.313 0 .219-.078.422-.11.531-.077.25-.53 1.406-.687 1.844-.11.25-.234.578-.234.797 0 .469.344.812.812.812.938 0 1.313-1.437 1.313-1.53 0-.11-.094-.11-.125-.11-.094 0-.094.031-.14.187C2.468-.719 2.14-.109 1.64-.109c-.172 0-.25-.094-.25-.329 0-.25.062-.39.296-1z" stroke="none"/></symbol></defs><use y="134.765" x="223.432" xlink:href="#F" width="744.094" height="1052.362"/><use y="134.765" x="230.627" xlink:href="#G" width="744.094" height="1052.362"/><use y="134.765" x="235.609" xlink:href="#H" width="744.094" height="1052.362"/></g><g ns0:text="$1 \\cdot i$" transform="matrix(2.5424 0 0 2.5424 -253.084 132.27)" fill="#4d4d4d" stroke="green" stroke-width="1.18"><defs><symbol overflow="visible" id="I"><path d="M2.938-6.375c0-.25 0-.266-.235-.266C2.078-6 1.203-6 .891-6v.313c.203 0 .78 0 1.296-.266v5.172c0 .36-.03.469-.921.469H.953V0c.344-.031 1.203-.031 1.61-.031.39 0 1.265 0 1.609.031v-.313h-.313c-.906 0-.921-.109-.921-.468z" stroke="none"/></symbol><symbol overflow="visible" id="J"><path d="M1.906-2.5a.524.524 0 1 0-.516.531.524.524 0 0 0 .516-.531z" stroke="none"/></symbol><symbol overflow="visible" id="K"><path d="M2.828-6.234c0-.204-.14-.36-.36-.36-.28 0-.546.266-.546.532 0 .187.14.359.375.359.234 0 .531-.234.531-.531zm-.75 3.75c.11-.282.11-.313.219-.579.078-.203.125-.343.125-.53 0-.438-.313-.813-.813-.813-.937 0-1.312 1.453-1.312 1.531 0 .11.094.11.11.11.109 0 .109-.032.156-.188.28-.938.671-1.235 1.015-1.235.078 0 .25 0 .25.313 0 .219-.078.422-.11.531-.077.25-.53 1.406-.687 1.844-.11.25-.234.578-.234.797 0 .469.344.812.812.812.938 0 1.313-1.437 1.313-1.53 0-.11-.094-.11-.125-.11-.094 0-.094.031-.14.187C2.468-.719 2.14-.109 1.64-.109c-.172 0-.25-.094-.25-.329 0-.25.062-.39.296-1z" stroke="none"/></symbol></defs><use xlink:href="#I" x="223.432" y="134.765" width="744.094" height="1052.362"/><use xlink:href="#J" x="230.627" y="134.765" width="744.094" height="1052.362"/><use xlink:href="#K" x="235.609" y="134.765" width="744.094" height="1052.362"/></g><g transform="matrix(2.5424 0 0 2.5424 -272.783 251.833)" ns0:text="$-1 \\cdot i$" fill="#4d4d4d" stroke="green" stroke-width="1.18"><defs><symbol id="L" overflow="visible"><path d="M6.563-2.297c.171 0 .359 0 .359-.203 0-.188-.188-.188-.36-.188h-5.39c-.172 0-.344 0-.344.188 0 .203.172.203.344.203z" stroke="none"/></symbol><symbol id="N" overflow="visible"><path d="M1.906-2.5a.524.524 0 1 0-.516.531.524.524 0 0 0 .516-.531z" stroke="none"/></symbol><symbol id="M" overflow="visible"><path d="M2.938-6.375c0-.25 0-.266-.235-.266C2.078-6 1.203-6 .891-6v.313c.203 0 .78 0 1.296-.266v5.172c0 .36-.03.469-.921.469H.953V0c.344-.031 1.203-.031 1.61-.031.39 0 1.265 0 1.609.031v-.313h-.313c-.906 0-.921-.109-.921-.468z" stroke="none"/></symbol><symbol id="O" overflow="visible"><path d="M2.828-6.234c0-.204-.14-.36-.36-.36-.28 0-.546.266-.546.532 0 .187.14.359.375.359.234 0 .531-.234.531-.531zm-.75 3.75c.11-.282.11-.313.219-.579.078-.203.125-.343.125-.53 0-.438-.313-.813-.813-.813-.937 0-1.312 1.453-1.312 1.531 0 .11.094.11.11.11.109 0 .109-.032.156-.188.28-.938.671-1.235 1.015-1.235.078 0 .25 0 .25.313 0 .219-.078.422-.11.531-.077.25-.53 1.406-.687 1.844-.11.25-.234.578-.234.797 0 .469.344.812.812.812.938 0 1.313-1.437 1.313-1.53 0-.11-.094-.11-.125-.11-.094 0-.094.031-.14.187C2.468-.719 2.14-.109 1.64-.109c-.172 0-.25-.094-.25-.329 0-.25.062-.39.296-1z" stroke="none"/></symbol></defs><use y="134.765" x="223.432" xlink:href="#L" width="744.094" height="1052.362"/><use y="134.765" x="231.181" xlink:href="#M" width="744.094" height="1052.362"/><use y="134.765" x="238.376" xlink:href="#N" width="744.094" height="1052.362"/><use y="134.765" x="243.357" xlink:href="#O" width="744.094" height="1052.362"/></g><g ns0:text="$-2 \\cdot i$" transform="matrix(2.5424 0 0 2.5424 -272.783 311.615)" fill="#4d4d4d" stroke="green" stroke-width="1.18"><defs><symbol overflow="visible" id="P"><path d="M6.563-2.297c.171 0 .359 0 .359-.203 0-.188-.188-.188-.36-.188h-5.39c-.172 0-.344 0-.344.188 0 .203.172.203.344.203z" stroke="none"/></symbol><symbol overflow="visible" id="R"><path d="M1.906-2.5a.524.524 0 1 0-.516.531.524.524 0 0 0 .516-.531z" stroke="none"/></symbol><symbol overflow="visible" id="Q"><path d="M1.266-.766l1.062-1.03c1.547-1.376 2.14-1.907 2.14-2.907 0-1.14-.89-1.938-2.109-1.938C1.234-6.64.5-5.719.5-4.828c0 .547.5.547.531.547.172 0 .516-.11.516-.532a.513.513 0 0 0-.531-.515c-.079 0-.094 0-.125.016.218-.657.765-1.016 1.343-1.016.907 0 1.329.812 1.329 1.625 0 .797-.485 1.578-1.047 2.203L.609-.375C.5-.265.5-.235.5 0h3.703l.266-1.734h-.235C4.172-1.438 4.11-1 4-.844c-.063.078-.719.078-.938.078z" stroke="none"/></symbol><symbol overflow="visible" id="S"><path d="M2.828-6.234c0-.204-.14-.36-.36-.36-.28 0-.546.266-.546.532 0 .187.14.359.375.359.234 0 .531-.234.531-.531zm-.75 3.75c.11-.282.11-.313.219-.579.078-.203.125-.343.125-.53 0-.438-.313-.813-.813-.813-.937 0-1.312 1.453-1.312 1.531 0 .11.094.11.11.11.109 0 .109-.032.156-.188.28-.938.671-1.235 1.015-1.235.078 0 .25 0 .25.313 0 .219-.078.422-.11.531-.077.25-.53 1.406-.687 1.844-.11.25-.234.578-.234.797 0 .469.344.812.812.812.938 0 1.313-1.437 1.313-1.53 0-.11-.094-.11-.125-.11-.094 0-.094.031-.14.187C2.468-.719 2.14-.109 1.64-.109c-.172 0-.25-.094-.25-.329 0-.25.062-.39.296-1z" stroke="none"/></symbol></defs><use xlink:href="#P" x="223.432" y="134.765" width="744.094" height="1052.362"/><use xlink:href="#Q" x="231.181" y="134.765" width="744.094" height="1052.362"/><use xlink:href="#R" x="238.376" y="134.765" width="744.094" height="1052.362"/><use xlink:href="#S" x="243.357" y="134.765" width="744.094" height="1052.362"/></g><g transform="matrix(2.5424 0 0 2.5424 -272.783 371.118)" ns0:text="$-3 \\cdot i$" fill="#4d4d4d" stroke="green" stroke-width="1.18"><defs><symbol id="T" overflow="visible"><path d="M6.563-2.297c.171 0 .359 0 .359-.203 0-.188-.188-.188-.36-.188h-5.39c-.172 0-.344 0-.344.188 0 .203.172.203.344.203z" stroke="none"/></symbol><symbol id="V" overflow="visible"><path d="M1.906-2.5a.524.524 0 1 0-.516.531.524.524 0 0 0 .516-.531z" stroke="none"/></symbol><symbol id="U" overflow="visible"><path d="M2.89-3.516c.813-.265 1.391-.953 1.391-1.75 0-.812-.875-1.375-1.828-1.375-1 0-1.765.594-1.765 1.36 0 .328.218.515.515.515.297 0 .5-.218.5-.515 0-.485-.469-.485-.61-.485.298-.5.954-.625 1.313-.625.422 0 .969.22.969 1.11 0 .125-.031.703-.281 1.14-.297.485-.64.516-.89.516a3.29 3.29 0 0 1-.392.031c-.078.016-.14.031-.14.125 0 .11.062.11.234.11h.438c.812 0 1.187.671 1.187 1.656 0 1.36-.687 1.64-1.125 1.64-.437 0-1.187-.171-1.531-.75.344.047.656-.171.656-.546a.537.537 0 0 0-.547-.563c-.25 0-.562.14-.562.578C.422-.437 1.344.22 2.437.22c1.22 0 2.126-.906 2.126-1.922 0-.813-.641-1.594-1.672-1.813z" stroke="none"/></symbol><symbol id="W" overflow="visible"><path d="M2.828-6.234c0-.204-.14-.36-.36-.36-.28 0-.546.266-.546.532 0 .187.14.359.375.359.234 0 .531-.234.531-.531zm-.75 3.75c.11-.282.11-.313.219-.579.078-.203.125-.343.125-.53 0-.438-.313-.813-.813-.813-.937 0-1.312 1.453-1.312 1.531 0 .11.094.11.11.11.109 0 .109-.032.156-.188.28-.938.671-1.235 1.015-1.235.078 0 .25 0 .25.313 0 .219-.078.422-.11.531-.077.25-.53 1.406-.687 1.844-.11.25-.234.578-.234.797 0 .469.344.812.812.812.938 0 1.313-1.437 1.313-1.53 0-.11-.094-.11-.125-.11-.094 0-.094.031-.14.187C2.468-.719 2.14-.109 1.64-.109c-.172 0-.25-.094-.25-.329 0-.25.062-.39.296-1z" stroke="none"/></symbol></defs><use y="134.765" x="223.432" xlink:href="#T" width="744.094" height="1052.362"/><use y="134.765" x="231.181" xlink:href="#U" width="744.094" height="1052.362"/><use y="134.765" x="238.376" xlink:href="#V" width="744.094" height="1052.362"/><use y="134.765" x="243.357" xlink:href="#W" width="744.094" height="1052.362"/></g><g ns0:text="$-4 \\cdot i$" transform="matrix(2.5424 0 0 2.5424 -272.783 431.317)" fill="#4d4d4d" stroke="green" stroke-width="1.18"><defs><symbol overflow="visible" id="X"><path d="M6.563-2.297c.171 0 .359 0 .359-.203 0-.188-.188-.188-.36-.188h-5.39c-.172 0-.344 0-.344.188 0 .203.172.203.344.203z" stroke="none"/></symbol><symbol overflow="visible" id="Z"><path d="M1.906-2.5a.524.524 0 1 0-.516.531.524.524 0 0 0 .516-.531z" stroke="none"/></symbol><symbol overflow="visible" id="Y"><path d="M2.938-1.64v.859c0 .36-.032.469-.766.469h-.203V0c.406-.031.922-.031 1.343-.031.422 0 .938 0 1.36.031v-.313h-.219c-.734 0-.75-.109-.75-.468v-.86h.985v-.312h-.985v-4.531c0-.204 0-.266-.172-.266-.078 0-.11 0-.187.125L.28-1.953v.312zm.046-.313H.563l2.421-3.719z" stroke="none"/></symbol><symbol overflow="visible" id="aa"><path d="M2.828-6.234c0-.204-.14-.36-.36-.36-.28 0-.546.266-.546.532 0 .187.14.359.375.359.234 0 .531-.234.531-.531zm-.75 3.75c.11-.282.11-.313.219-.579.078-.203.125-.343.125-.53 0-.438-.313-.813-.813-.813-.937 0-1.312 1.453-1.312 1.531 0 .11.094.11.11.11.109 0 .109-.032.156-.188.28-.938.671-1.235 1.015-1.235.078 0 .25 0 .25.313 0 .219-.078.422-.11.531-.077.25-.53 1.406-.687 1.844-.11.25-.234.578-.234.797 0 .469.344.812.812.812.938 0 1.313-1.437 1.313-1.53 0-.11-.094-.11-.125-.11-.094 0-.094.031-.14.187C2.468-.719 2.14-.109 1.64-.109c-.172 0-.25-.094-.25-.329 0-.25.062-.39.296-1z" stroke="none"/></symbol></defs><use xlink:href="#X" x="223.432" y="134.765" width="744.094" height="1052.362"/><use xlink:href="#Y" x="231.181" y="134.765" width="744.094" height="1052.362"/><use xlink:href="#Z" x="238.376" y="134.765" width="744.094" height="1052.362"/><use xlink:href="#aa" x="243.357" y="134.765" width="744.094" height="1052.362"/></g><g transform="matrix(2.5424 0 0 2.5424 -272.783 490.682)" ns0:text="$-5 \\cdot i$" fill="#4d4d4d" stroke="green" stroke-width="1.18"><defs><symbol id="ab" overflow="visible"><path d="M6.563-2.297c.171 0 .359 0 .359-.203 0-.188-.188-.188-.36-.188h-5.39c-.172 0-.344 0-.344.188 0 .203.172.203.344.203z" stroke="none"/></symbol><symbol id="ad" overflow="visible"><path d="M1.906-2.5a.524.524 0 1 0-.516.531.524.524 0 0 0 .516-.531z" stroke="none"/></symbol><symbol id="ac" overflow="visible"><path d="M4.469-2c0-1.188-.813-2.188-1.89-2.188-.47 0-.907.157-1.267.516v-1.953c.204.063.532.125.844.125 1.235 0 1.938-.906 1.938-1.031 0-.063-.032-.11-.11-.11 0 0-.03 0-.078.032a3.22 3.22 0 0 1-1.36.296c-.39 0-.858-.078-1.327-.28-.078-.032-.094-.032-.11-.032C1-6.625 1-6.547 1-6.391v2.954c0 .171 0 .25.14.25.079 0 .094-.016.141-.079.11-.156.469-.703 1.282-.703.515 0 .765.453.843.64.156.376.188.75.188 1.25 0 .36 0 .954-.25 1.376-.235.39-.61.64-1.063.64-.719 0-1.297-.53-1.469-1.109.032 0 .063.016.172.016.329 0 .5-.25.5-.485 0-.25-.171-.5-.5-.5-.14 0-.484.079-.484.532C.5-.75 1.188.219 2.297.219 3.453.219 4.469-.734 4.469-2z" stroke="none"/></symbol><symbol id="ae" overflow="visible"><path d="M2.828-6.234c0-.204-.14-.36-.36-.36-.28 0-.546.266-.546.532 0 .187.14.359.375.359.234 0 .531-.234.531-.531zm-.75 3.75c.11-.282.11-.313.219-.579.078-.203.125-.343.125-.53 0-.438-.313-.813-.813-.813-.937 0-1.312 1.453-1.312 1.531 0 .11.094.11.11.11.109 0 .109-.032.156-.188.28-.938.671-1.235 1.015-1.235.078 0 .25 0 .25.313 0 .219-.078.422-.11.531-.077.25-.53 1.406-.687 1.844-.11.25-.234.578-.234.797 0 .469.344.812.812.812.938 0 1.313-1.437 1.313-1.53 0-.11-.094-.11-.125-.11-.094 0-.094.031-.14.187C2.468-.719 2.14-.109 1.64-.109c-.172 0-.25-.094-.25-.329 0-.25.062-.39.296-1z" stroke="none"/></symbol></defs><use y="134.765" x="223.432" xlink:href="#ab" width="744.094" height="1052.362"/><use y="134.765" x="231.181" xlink:href="#ac" width="744.094" height="1052.362"/><use y="134.765" x="238.376" xlink:href="#ad" width="744.094" height="1052.362"/><use y="134.765" x="243.357" xlink:href="#ae" width="744.094" height="1052.362"/></g><path d="M610.266 346.836V526.18" fill="none" stroke="green" stroke-width="2" stroke-linecap="round" stroke-dasharray="2,4"/><path d="M371.139 346.836h239.127" fill="none" stroke="green" stroke-width="2" stroke-linecap="round" stroke-dasharray="1.99999998,3.99999995"/><path d="M371.139 526.181l236.193-177.136" fill="green" stroke="green" stroke-width="3" stroke-linecap="round" marker-end="url(#b)"/><g transform="matrix(2.5424 0 0 2.5424 -37.97 -8.8)" ns0:preamble="/home/waldgeist/data/sphinx/inkscape-preamble.tex" ns0:text="$z = 4 + 3 \\cdot i$" fill="green" stroke="green" stroke-width="1.18"><defs><symbol id="af" overflow="visible"><path d="M1.328-.828c.531-.578.828-.828 1.188-1.14 0 0 .609-.532.968-.891.954-.922 1.172-1.407 1.172-1.454 0-.093-.093-.093-.11-.093-.077 0-.093.015-.155.11-.297.484-.5.64-.735.64-.25 0-.36-.156-.515-.328-.188-.22-.36-.422-.688-.422-.75 0-1.203.922-1.203 1.14 0 .047.031.11.11.11.093 0 .109-.047.14-.11.188-.468.766-.468.844-.468.203 0 .39.062.625.14.406.156.515.156.765.156-.359.422-1.187 1.141-1.375 1.297l-.906.844C.781-.625.422-.063.422.016c0 .093.11.093.125.093C.625.11.64.094.703-.016c.235-.359.531-.625.86-.625.218 0 .328.094.578.375.156.22.343.375.625.375 1 0 1.578-1.265 1.578-1.53 0-.048-.047-.11-.125-.11-.094 0-.11.062-.14.14-.235.641-.876.829-1.204.829-.188 0-.375-.063-.578-.125-.344-.125-.5-.172-.703-.172-.016 0-.172 0-.266.03z" stroke="none"/></symbol><symbol id="al" overflow="visible"><path d="M2.828-6.234c0-.204-.14-.36-.36-.36-.28 0-.546.266-.546.532 0 .187.14.359.375.359.234 0 .531-.234.531-.531zm-.75 3.75c.11-.282.11-.313.219-.579.078-.203.125-.343.125-.53 0-.438-.313-.813-.813-.813-.937 0-1.312 1.453-1.312 1.531 0 .11.094.11.11.11.109 0 .109-.032.156-.188.28-.938.671-1.235 1.015-1.235.078 0 .25 0 .25.313 0 .219-.078.422-.11.531-.077.25-.53 1.406-.687 1.844-.11.25-.234.578-.234.797 0 .469.344.812.812.812.938 0 1.313-1.437 1.313-1.53 0-.11-.094-.11-.125-.11-.094 0-.094.031-.14.187C2.468-.719 2.14-.109 1.64-.109c-.172 0-.25-.094-.25-.329 0-.25.062-.39.296-1z" stroke="none"/></symbol><symbol id="ag" overflow="visible"><path d="M6.844-3.266c.156 0 .343 0 .343-.187 0-.203-.187-.203-.328-.203H.891c-.141 0-.329 0-.329.203 0 .187.188.187.329.187zm.015 1.938c.141 0 .329 0 .329-.203 0-.188-.188-.188-.344-.188H.89c-.141 0-.329 0-.329.188 0 .203.188.203.329.203z" stroke="none"/></symbol><symbol id="ah" overflow="visible"><path d="M2.938-1.64v.859c0 .36-.032.469-.766.469h-.203V0c.406-.031.922-.031 1.343-.031.422 0 .938 0 1.36.031v-.313h-.219c-.734 0-.75-.109-.75-.468v-.86h.985v-.312h-.985v-4.531c0-.204 0-.266-.172-.266-.078 0-.11 0-.187.125L.28-1.953v.312zm.046-.313H.563l2.421-3.719z" stroke="none"/></symbol><symbol id="ai" overflow="visible"><path d="M4.078-2.297H6.86c.141 0 .329 0 .329-.203 0-.188-.188-.188-.329-.188H4.08v-2.796c0-.141 0-.329-.204-.329-.203 0-.203.188-.203.329v2.796H.89c-.141 0-.329 0-.329.188 0 .203.188.203.329.203h2.78V.5c0 .14 0 .328.204.328.203 0 .203-.187.203-.328z" stroke="none"/></symbol><symbol id="aj" overflow="visible"><path d="M2.89-3.516c.813-.265 1.391-.953 1.391-1.75 0-.812-.875-1.375-1.828-1.375-1 0-1.765.594-1.765 1.36 0 .328.218.515.515.515.297 0 .5-.218.5-.515 0-.485-.469-.485-.61-.485.298-.5.954-.625 1.313-.625.422 0 .969.22.969 1.11 0 .125-.031.703-.281 1.14-.297.485-.64.516-.89.516a3.29 3.29 0 0 1-.392.031c-.078.016-.14.031-.14.125 0 .11.062.11.234.11h.438c.812 0 1.187.671 1.187 1.656 0 1.36-.687 1.64-1.125 1.64-.437 0-1.187-.171-1.531-.75.344.047.656-.171.656-.546a.537.537 0 0 0-.547-.563c-.25 0-.562.14-.562.578C.422-.437 1.344.22 2.437.22c1.22 0 2.126-.906 2.126-1.922 0-.813-.641-1.594-1.672-1.813z" stroke="none"/></symbol><symbol id="ak" overflow="visible"><path d="M1.906-2.5a.524.524 0 1 0-.516.531.524.524 0 0 0 .516-.531z" stroke="none"/></symbol></defs><use y="134.765" x="223.432" xlink:href="#af" width="744.094" height="1052.362"/><use y="134.765" x="231.271" xlink:href="#ag" width="744.094" height="1052.362"/><use y="134.765" x="241.79" xlink:href="#ah" width="744.094" height="1052.362"/><use y="134.765" x="248.983" xlink:href="#ai" width="744.094" height="1052.362"/><use y="134.765" x="258.943" xlink:href="#aj" width="744.094" height="1052.362"/><use y="134.765" x="266.14" xlink:href="#ak" width="744.094" height="1052.362"/><use y="134.765" x="271.121" xlink:href="#al" width="744.094" height="1052.362"/></g><g transform="matrix(2.5424 0 0 2.5424 -157.438 170.016)" ns0:preamble="/home/waldgeist/data/sphinx/inkscape-preamble.tex" ns0:text="$\\varphi$" fill="navy" stroke="green" stroke-width="1.18"><defs><symbol id="am" overflow="visible"><path d="M1.688 1.688c-.032.14-.047.156-.047.203 0 .218.187.28.296.28a.413.413 0 0 0 .36-.265c.031-.078.078-.406.36-1.812.077 0 .155.015.327.015 1.657 0 3.188-1.562 3.188-3.14 0-.781-.39-1.375-1.14-1.375-1.438 0-2.048 1.937-2.641 3.875C1.312-.734.75-1.281.75-2c0-.281.234-1.375.828-2.063.094-.093.094-.109.094-.14 0-.031-.031-.094-.125-.094C1.266-4.297.5-2.844.5-1.89c0 .938.656 1.657 1.719 1.907zM3.077-.47c-.094 0-.11 0-.187-.015-.125 0-.125 0-.125-.032 0-.015.171-.937.187-1.078.313-1.281 1.094-2.234 1.985-2.234.687 0 .953.531.953 1.015 0 1.126-1.282 2.344-2.813 2.344z" stroke="none"/></symbol></defs><use y="134.765" x="223.432" xlink:href="#am" width="744.094" height="1052.362"/></g><path style="marker:none" d="M437.668 450.54a41.847 41.847 0 0 1 17.165 33.794" transform="matrix(.78251 -.7923 -.86914 -.88002 491.977 1270.924)" color="#000" fill="none" stroke="navy" stroke-width=".852" stroke-linecap="round" marker-end="url(#an)" overflow="visible"/><path d="M371.139 526.181l236.193 177.136" fill="green" stroke="green" stroke-width="3" stroke-linecap="round" marker-end="url(#b)"/></svg>