<svg xmlns:ns0="http://www.iki.fi/pav/software/textext/" xmlns="http://www.w3.org/2000/svg" xmlns:xlink="http://www.w3.org/1999/xlink" width="1052.362" height="744.094"><title>Irrationale Zahlen (Beispiele)</title><path fill="#fff" stroke="#fff" stroke-dasharray="2.02405364999999993,8.09621457999999983" d="M56.258 143.22h939.847v457.655H56.258z"/><use y="134.765" x="223.432" xlink:href="#textext-56eb8c7f-0" width="1052.362" height="744.094" transform="translate(-604.654 -268.973) scale(4.83796)" ns0:preamble="/home/waldgeist/data/sphinx/inkscape-preamble.tex" ns0:text="$1$" stroke="#000" stroke-width="1.18"/><g ns0:text="$l=1$" ns0:preamble="/home/waldgeist/data/sphinx/inkscape-preamble.tex" stroke="#000" stroke-width="1.638"><use height="744.094" width="1052.362" xlink:href="#textext-3e75af0b-0" x="223.432" y="134.765" transform="matrix(3.48377 0 0 3.48377 -352.281 -162.132)"/><use height="744.094" width="1052.362" xlink:href="#textext-3e75af0b-1" x="229.368" y="134.765" transform="matrix(3.48377 0 0 3.48377 -352.281 -162.132)"/><use height="744.094" width="1052.362" xlink:href="#textext-3e75af0b-2" x="239.887" y="134.765" transform="matrix(3.48377 0 0 3.48377 -352.281 -162.132)"/></g><path style="marker:none" color="#000" fill="none" stroke="#4d4d4d" stroke-width="3" stroke-linecap="round" stroke-linejoin="bevel" overflow="visible" d="M121.029 170.716H394.82v273.79H121.029z"/><path d="M258.213 307.612a.289.289 0 1 1-.578 0 .289.289 0 0 1 .578 0z" style="marker:none" color="#000" fill="#4d4d4d" stroke="#000" stroke-width=".99995755" stroke-linecap="round" stroke-linejoin="bevel" overflow="visible"/><path style="marker:none" d="M931.334 307.612c0 75.605-61.29 136.895-136.896 136.895-75.605 0-136.895-61.29-136.895-136.895 0-75.606 61.29-136.896 136.895-136.896 75.605 0 136.896 61.29 136.896 136.896z" color="#000" fill="none" stroke="#4d4d4d" stroke-width="2.9999194" stroke-linecap="round" stroke-linejoin="bevel" overflow="visible"/><path d="M891.238 210.812l-193.6 193.6M121.029 444.507l273.79-273.79" fill="none" stroke="#000" stroke-width="3" stroke-linecap="round"/><g ns0:text="$d$" ns0:preamble="/home/waldgeist/data/sphinx/inkscape-preamble.tex" transform="matrix(3.48377 0 0 3.48377 -542.123 -174.012)" stroke="#000" stroke-width="1.638"><defs><symbol overflow="visible" id="a"><path d="M5.14-6.813s0-.109-.124-.109c-.157 0-1.094.094-1.266.11-.078.015-.14.062-.14.187s.093.125.234.125c.484 0 .5.063.5.172l-.032.203-.593 2.36c-.188-.376-.469-.641-.922-.641-1.156 0-2.39 1.468-2.39 2.922C.406-.547.952.109 1.718.109c.203 0 .703-.046 1.297-.75a.91.91 0 0 0 .906.75c.36 0 .578-.234.75-.546a6.49 6.49 0 0 0 .297-.985c0-.11-.094-.11-.125-.11-.094 0-.11.048-.14.188-.173.64-.345 1.235-.75 1.235-.282 0-.298-.266-.298-.454 0-.25.016-.312.047-.484zM3.079-1.188c-.062.188-.062.204-.203.375-.438.547-.844.704-1.125.704-.5 0-.64-.547-.64-.938 0-.5.312-1.719.546-2.187.313-.579.75-.954 1.157-.954.64 0 .78.813.78.875a.562.562 0 0 1-.03.172zm0 0" stroke="none"/></symbol></defs><use height="744.094" width="1052.362" xlink:href="#a" x="223.432" y="134.765"/></g><use y="134.765" x="223.432" xlink:href="#a" width="1052.362" height="744.094" transform="matrix(3.48377 0 0 3.48377 -2.123 -174.012)" ns0:preamble="/home/waldgeist/data/sphinx/inkscape-preamble.tex" ns0:text="$d$" stroke="#000" stroke-width="1.638"/><g ns0:text="$u$" ns0:preamble="/home/waldgeist/data/sphinx/inkscape-preamble.tex" transform="matrix(3.48377 0 0 3.48377 123.02 -51.726)" stroke="#000" stroke-width="1.638"><defs><symbol overflow="visible" id="b"><path d="M3.484-.563c.11.407.47.672.891.672.344 0 .578-.234.734-.546.172-.36.297-.97.297-.985 0-.11-.078-.11-.11-.11-.109 0-.109.048-.14.188-.14.563-.328 1.235-.75 1.235-.203 0-.312-.125-.312-.454 0-.218.125-.687.203-1.046l.281-1.079c.031-.14.125-.515.172-.671.047-.235.14-.61.14-.672 0-.172-.14-.266-.28-.266-.048 0-.313.016-.391.344a419.28 419.28 0 0 0-.75 3c-.016.047-.406.844-1.14.844-.517 0-.61-.454-.61-.813 0-.562.281-1.344.531-2.031.125-.313.172-.453.172-.64 0-.438-.313-.813-.813-.813-.953 0-1.312 1.453-1.312 1.531 0 .11.094.11.11.11.109 0 .109-.032.156-.188.25-.86.64-1.235 1.015-1.235.094 0 .25.016.25.329 0 .234-.11.53-.172.671-.375 1-.578 1.61-.578 2.094C1.078-.14 1.766.11 2.297.11c.656 0 1.015-.453 1.187-.671zm0 0" stroke="none"/></symbol></defs><use height="744.094" width="1052.362" xlink:href="#b" x="223.432" y="134.765"/></g><g transform="matrix(4.53122 0 0 4.7557 -855.766 -72.305)" ns0:preamble="/home/waldgeist/data/sphinx/inkscape-preamble.tex" ns0:text="$d =\\; \\sqrt{2} \\cdot l$" stroke="#000" stroke-width="1.23"><defs><symbol id="c" overflow="visible"><path d="M5.14-6.813s0-.109-.124-.109c-.157 0-1.094.094-1.266.11-.078.015-.14.062-.14.187s.093.125.234.125c.484 0 .5.063.5.172l-.032.203-.593 2.36c-.188-.376-.469-.641-.922-.641-1.156 0-2.39 1.468-2.39 2.922C.406-.547.952.109 1.718.109c.203 0 .703-.046 1.297-.75a.91.91 0 0 0 .906.75c.36 0 .578-.234.75-.546a6.49 6.49 0 0 0 .297-.985c0-.11-.094-.11-.125-.11-.094 0-.11.048-.14.188-.173.64-.345 1.235-.75 1.235-.282 0-.298-.266-.298-.454 0-.25.016-.312.047-.484zM3.079-1.188c-.062.188-.062.204-.203.375-.438.547-.844.704-1.125.704-.5 0-.64-.547-.64-.938 0-.5.312-1.719.546-2.187.313-.579.75-.954 1.157-.954.64 0 .78.813.78.875a.562.562 0 0 1-.03.172zm0 0" stroke="none"/></symbol><symbol id="h" overflow="visible"><path d="M2.578-6.813s0-.109-.14-.109c-.22 0-.954.078-1.22.11-.077 0-.187.015-.187.203 0 .109.11.109.25.109.485 0 .5.094.5.172l-.031.203L.484-1.141a.973.973 0 0 0-.046.329.89.89 0 0 0 .906.921c.328 0 .578-.203.75-.562.172-.375.297-.953.297-.969 0-.11-.094-.11-.125-.11-.094 0-.11.048-.125.188-.172.64-.36 1.235-.766 1.235-.297 0-.297-.313-.297-.454 0-.25.016-.296.063-.484zm0 0" stroke="none"/></symbol><symbol id="d" overflow="visible"><path d="M6.844-3.266c.156 0 .343 0 .343-.187 0-.203-.187-.203-.328-.203H.891c-.141 0-.329 0-.329.203 0 .187.188.187.329.187zm.015 1.938c.141 0 .329 0 .329-.203 0-.188-.188-.188-.344-.188H.89c-.141 0-.329 0-.329.188 0 .203.188.203.329.203zm0 0" stroke="none"/></symbol><symbol id="f" overflow="visible"><path d="M1.266-.766l1.062-1.03c1.547-1.376 2.14-1.907 2.14-2.907 0-1.14-.89-1.938-2.109-1.938C1.234-6.64.5-5.719.5-4.828c0 .547.5.547.531.547.172 0 .516-.11.516-.532a.513.513 0 0 0-.531-.515c-.079 0-.094 0-.125.016.218-.657.765-1.016 1.343-1.016.907 0 1.329.812 1.329 1.625 0 .797-.485 1.578-1.047 2.203L.609-.375C.5-.265.5-.235.5 0h3.703l.266-1.734h-.235C4.172-1.438 4.11-1 4-.844c-.063.078-.719.078-.938.078zm0 0" stroke="none"/></symbol><symbol id="e" overflow="visible"><path d="M3.875 8.516L2.125 4.64c-.078-.157-.125-.157-.156-.157 0 0-.063 0-.172.079l-.938.718c-.125.11-.125.125-.125.157 0 .062.016.109.094.109.063 0 .235-.14.344-.219.047-.047.203-.156.312-.234l1.97 4.312c.062.156.108.156.202.156.156 0 .188-.046.25-.187L8.437 0C8.5-.14 8.5-.172 8.5-.203a.206.206 0 0 0-.203-.203c-.078 0-.14.062-.219.219zm0 0" stroke="none"/></symbol><symbol id="g" overflow="visible"><path d="M1.906-2.5a.524.524 0 1 0-.516.531.524.524 0 0 0 .516-.531zm0 0" stroke="none"/></symbol></defs><use y="134.765" x="223.432" xlink:href="#c" width="1052.362" height="744.094"/><use y="134.765" x="231.385" xlink:href="#d" width="1052.362" height="744.094"/><use y="126.523" x="244.668" xlink:href="#e" width="1052.362" height="744.094"/><path d="M252.5 126.5h5" fill="none" stroke-width="1" stroke-miterlimit="10"/><use y="134.765" x="252.971" xlink:href="#f" width="1052.362" height="744.094"/><use y="134.765" x="260.166" xlink:href="#g" width="1052.362" height="744.094"/><use y="134.765" x="265.147" xlink:href="#h" width="1052.362" height="744.094"/></g><g ns0:text="$u =\\; \\pi \\cdot d$" ns0:preamble="/home/waldgeist/data/sphinx/inkscape-preamble.tex" transform="matrix(4.53122 0 0 4.7557 -309.564 -72.305)" stroke="#000" stroke-width="1.23"><defs><symbol overflow="visible" id="i"><path d="M3.484-.563c.11.407.47.672.891.672.344 0 .578-.234.734-.546.172-.36.297-.97.297-.985 0-.11-.078-.11-.11-.11-.109 0-.109.048-.14.188-.14.563-.328 1.235-.75 1.235-.203 0-.312-.125-.312-.454 0-.218.125-.687.203-1.046l.281-1.079c.031-.14.125-.515.172-.671.047-.235.14-.61.14-.672 0-.172-.14-.266-.28-.266-.048 0-.313.016-.391.344a419.28 419.28 0 0 0-.75 3c-.016.047-.406.844-1.14.844-.517 0-.61-.454-.61-.813 0-.562.281-1.344.531-2.031.125-.313.172-.453.172-.64 0-.438-.313-.813-.813-.813-.953 0-1.312 1.453-1.312 1.531 0 .11.094.11.11.11.109 0 .109-.032.156-.188.25-.86.64-1.235 1.015-1.235.094 0 .25.016.25.329 0 .234-.11.53-.172.671-.375 1-.578 1.61-.578 2.094C1.078-.14 1.766.11 2.297.11c.656 0 1.015-.453 1.187-.671zm0 0" stroke="none"/></symbol><symbol overflow="visible" id="k"><path d="M2.64-3.719h1.126c-.329 1.469-.422 1.906-.422 2.578 0 .141 0 .407.078.75.11.438.219.5.36.5.202 0 .421-.171.421-.375 0-.062 0-.078-.062-.218-.297-.72-.297-1.375-.297-1.657 0-.515.078-1.062.187-1.578h1.125c.14 0 .5 0 .5-.344 0-.234-.218-.234-.406-.234H1.906c-.218 0-.593 0-1.031.469-.344.39-.61.844-.61.89 0 .016 0 .11.126.11.078 0 .093-.047.156-.125.484-.766 1.062-.766 1.265-.766h.563c-.313 1.203-.844 2.406-1.266 3.313-.078.156-.078.172-.078.25 0 .187.157.265.282.265.296 0 .375-.28.5-.64.14-.469.14-.485.265-.985zm0 0" stroke="none"/></symbol><symbol overflow="visible" id="m"><path d="M5.14-6.813s0-.109-.124-.109c-.157 0-1.094.094-1.266.11-.078.015-.14.062-.14.187s.093.125.234.125c.484 0 .5.063.5.172l-.032.203-.593 2.36c-.188-.376-.469-.641-.922-.641-1.156 0-2.39 1.468-2.39 2.922C.406-.547.952.109 1.718.109c.203 0 .703-.046 1.297-.75a.91.91 0 0 0 .906.75c.36 0 .578-.234.75-.546a6.49 6.49 0 0 0 .297-.985c0-.11-.094-.11-.125-.11-.094 0-.11.048-.14.188-.173.64-.345 1.235-.75 1.235-.282 0-.298-.266-.298-.454 0-.25.016-.312.047-.484zM3.079-1.188c-.062.188-.062.204-.203.375-.438.547-.844.704-1.125.704-.5 0-.64-.547-.64-.938 0-.5.312-1.719.546-2.187.313-.579.75-.954 1.157-.954.64 0 .78.813.78.875a.562.562 0 0 1-.03.172zm0 0" stroke="none"/></symbol><symbol overflow="visible" id="j"><path d="M6.844-3.266c.156 0 .343 0 .343-.187 0-.203-.187-.203-.328-.203H.891c-.141 0-.329 0-.329.203 0 .187.188.187.329.187zm.015 1.938c.141 0 .329 0 .329-.203 0-.188-.188-.188-.344-.188H.89c-.141 0-.329 0-.329.188 0 .203.188.203.329.203zm0 0" stroke="none"/></symbol><symbol overflow="visible" id="l"><path d="M1.906-2.5a.524.524 0 1 0-.516.531.524.524 0 0 0 .516-.531zm0 0" stroke="none"/></symbol></defs><use height="744.094" width="1052.362" xlink:href="#i" x="223.432" y="134.765"/><use height="744.094" width="1052.362" xlink:href="#j" x="231.903" y="134.765"/><use height="744.094" width="1052.362" xlink:href="#k" x="245.186" y="134.765"/><use height="744.094" width="1052.362" xlink:href="#l" x="253.436" y="134.765"/><use height="744.094" width="1052.362" xlink:href="#m" x="258.418" y="134.765"/></g><g transform="matrix(3.48377 0 0 3.48377 -525.714 18.992)" ns0:preamble="/home/waldgeist/data/sphinx/inkscape-preamble.tex" ns0:text="$l$" stroke="#000" stroke-width="1.638"><defs><symbol id="n" overflow="visible"><path d="M2.578-6.813s0-.109-.14-.109c-.22 0-.954.078-1.22.11-.077 0-.187.015-.187.203 0 .109.11.109.25.109.485 0 .5.094.5.172l-.031.203L.484-1.141a.973.973 0 0 0-.046.329.89.89 0 0 0 .906.921c.328 0 .578-.203.75-.562.172-.375.297-.953.297-.969 0-.11-.094-.11-.125-.11-.094 0-.11.048-.125.188-.172.64-.36 1.235-.766 1.235-.297 0-.297-.313-.297-.454 0-.25.016-.296.063-.484zm0 0" stroke="none"/></symbol></defs><use y="134.765" x="223.432" xlink:href="#n" width="1052.362" height="744.094"/></g><use height="744.094" width="1052.362" xlink:href="#n" x="223.432" y="134.765" transform="matrix(3.48377 0 0 3.48377 -365.1 -150.012)" ns0:text="$l$" ns0:preamble="/home/waldgeist/data/sphinx/inkscape-preamble.tex" stroke="#000" stroke-width="1.638"/></svg>