<?xml version="1.0" encoding="UTF-8" standalone="no"?>
<!-- Created with Inkscape (http://www.inkscape.org/) -->

<svg
   xmlns:ns0="http://www.iki.fi/pav/software/textext/"
   xmlns:dc="http://purl.org/dc/elements/1.1/"
   xmlns:cc="http://creativecommons.org/ns#"
   xmlns:rdf="http://www.w3.org/1999/02/22-rdf-syntax-ns#"
   xmlns:svg="http://www.w3.org/2000/svg"
   xmlns="http://www.w3.org/2000/svg"
   xmlns:xlink="http://www.w3.org/1999/xlink"
   xmlns:sodipodi="http://sodipodi.sourceforge.net/DTD/sodipodi-0.dtd"
   xmlns:inkscape="http://www.inkscape.org/namespaces/inkscape"
   width="1052.3622"
   height="744.09448"
   id="svg2"
   version="1.1"
   inkscape:version="0.48.4 r9939"
   sodipodi:docname="irrationale-zahlen-beispiele.svg">
  <sodipodi:namedview
     id="base"
     pagecolor="#ffffff"
     bordercolor="#666666"
     borderopacity="1.0"
     inkscape:pageopacity="0.0"
     inkscape:pageshadow="2"
     inkscape:zoom="0.47273956"
     inkscape:cx="262.04199"
     inkscape:cy="223.68206"
     inkscape:document-units="px"
     inkscape:current-layer="layer1"
     showgrid="false"
     inkscape:window-width="1600"
     inkscape:window-height="1150"
     inkscape:window-x="0"
     inkscape:window-y="0"
     inkscape:window-maximized="1"
     inkscape:object-nodes="true"
     inkscape:snap-smooth-nodes="true"
     showguides="false"
     inkscape:guide-bbox="true"
     inkscape:object-paths="true"
     inkscape:snap-intersection-paths="true"
     inkscape:snap-global="true"
     inkscape:snap-object-midpoints="true"
     inkscape:snap-midpoints="true"
     inkscape:snap-nodes="true">
    <sodipodi:guide
       orientation="1,0"
       position="487.29664,460.52105"
       id="guide7367" />
    <sodipodi:guide
       id="guide7768"
       position="347.92378,460.52105"
       orientation="1,0" />
    <sodipodi:guide
       id="guide8584"
       position="713.07407,454.66768"
       orientation="1,0" />
    <sodipodi:guide
       orientation="1,0"
       position="580.29871,454.6677"
       id="guide9005" />
    <sodipodi:guide
       orientation="1,0"
       position="886.6864,454.66768"
       id="guide10059" />
    <sodipodi:guide
       orientation="1,0"
       position="191.71474,429.02775"
       id="guide11167" />
    <sodipodi:guide
       orientation="1,0"
       position="464.00552,237.03477"
       id="guide16531" />
    <sodipodi:guide
       id="guide20541"
       position="237.85714,174.64286"
       orientation="1,0" />
    <sodipodi:guide
       orientation="1,0"
       position="770.71429,174.64286"
       id="guide20990" />
  </sodipodi:namedview>
  <title
     id="title16643">Irrationale Zahlen (Beispiele)</title>
  <defs
     id="defs4">
    <marker
       style="overflow:visible"
       id="DistanceEnd"
       refX="0.0"
       refY="0.0"
       orient="auto"
       inkscape:stockid="DistanceEnd">
      <g
         id="g2301">
        <path
           style="fill:none;stroke:#ffffff;stroke-width:1.15;stroke-linecap:square"
           d="M 0,0 L -2,0"
           id="path2316" />
        <path
           style="fill:#000000;fill-rule:evenodd;stroke:none"
           d="M 0,0 L -13,4 L -9,0 -13,-4 L 0,0 z "
           id="path2312" />
        <path
           style="fill:none;stroke:#000000;stroke-width:1;stroke-linecap:square"
           d="M 0,-4 L 0,40"
           id="path2314" />
      </g>
    </marker>
    <marker
       style="overflow:visible"
       id="DistanceStart"
       refX="0.0"
       refY="0.0"
       orient="auto"
       inkscape:stockid="DistanceStart">
      <g
         id="g2300">
        <path
           style="fill:none;stroke:#ffffff;stroke-width:1.15;stroke-linecap:square"
           d="M 0,0 L 2,0"
           id="path2306" />
        <path
           style="fill:#000000;fill-rule:evenodd;stroke:none"
           d="M 0,0 L 13,4 L 9,0 13,-4 L 0,0 z "
           id="path2302" />
        <path
           style="fill:none;stroke:#000000;stroke-width:1;stroke-linecap:square"
           d="M 0,-4 L 0,40"
           id="path2304" />
      </g>
    </marker>
    <inkscape:perspective
       id="perspective12895"
       inkscape:persp3d-origin="526.18109 : 248.03149 : 1"
       inkscape:vp_z="1052.3622 : 372.04724 : 1"
       inkscape:vp_y="0 : 1000 : 0"
       inkscape:vp_x="0 : 372.04724 : 1"
       sodipodi:type="inkscape:persp3d" />
    <marker
       style="overflow:visible"
       id="TriangleOutM"
       refX="0"
       refY="0"
       orient="auto"
       inkscape:stockid="TriangleOutM">
      <path
         inkscape:connector-curvature="0"
         transform="scale(0.4,0.4)"
         style="fill-rule:evenodd;stroke:#000000;stroke-width:1pt"
         d="m 5.77,0 -8.65,5 0,-10 8.65,5 z"
         id="path3904" />
    </marker>
    <marker
       inkscape:stockid="TriangleOutM"
       orient="auto"
       refY="0"
       refX="0"
       id="TriangleOutM-1"
       style="overflow:visible">
      <path
         id="path3904-5"
         d="m 5.77,0 -8.65,5 0,-10 8.65,5 z"
         style="fill-rule:evenodd;stroke:#000000;stroke-width:1pt"
         transform="scale(0.4,0.4)"
         inkscape:connector-curvature="0" />
    </marker>
  </defs>
  <metadata
     id="metadata7">
    <rdf:RDF>
      <cc:Work
         rdf:about="">
        <dc:format>image/svg+xml</dc:format>
        <dc:type
           rdf:resource="http://purl.org/dc/dcmitype/StillImage" />
        <dc:title>Irrationale Zahlen (Beispiele)</dc:title>
        <dc:date>2013-03-03</dc:date>
        <dc:creator>
          <cc:Agent>
            <dc:title>Bernhard Grotz</dc:title>
          </cc:Agent>
        </dc:creator>
        <dc:rights>
          <cc:Agent>
            <dc:title>Bernhard Grotz</dc:title>
          </cc:Agent>
        </dc:rights>
        <dc:publisher>
          <cc:Agent>
            <dc:title>Bernhard Grotz</dc:title>
          </cc:Agent>
        </dc:publisher>
        <dc:language>de-DE</dc:language>
        <dc:subject>
          <rdf:Bag>
            <rdf:li>Mathematik</rdf:li>
            <rdf:li>Arithmetik</rdf:li>
            <rdf:li>Irrationale Zahlen</rdf:li>
          </rdf:Bag>
        </dc:subject>
        <cc:license
           rdf:resource="http://creativecommons.org/licenses/by-nc-sa/3.0/" />
      </cc:Work>
      <cc:License
         rdf:about="http://creativecommons.org/licenses/by-nc-sa/3.0/">
        <cc:permits
           rdf:resource="http://creativecommons.org/ns#Reproduction" />
        <cc:permits
           rdf:resource="http://creativecommons.org/ns#Distribution" />
        <cc:requires
           rdf:resource="http://creativecommons.org/ns#Notice" />
        <cc:requires
           rdf:resource="http://creativecommons.org/ns#Attribution" />
        <cc:prohibits
           rdf:resource="http://creativecommons.org/ns#CommercialUse" />
        <cc:permits
           rdf:resource="http://creativecommons.org/ns#DerivativeWorks" />
        <cc:requires
           rdf:resource="http://creativecommons.org/ns#ShareAlike" />
      </cc:License>
    </rdf:RDF>
  </metadata>
  <g
     transform="translate(0,-308.2677)"
     id="layer1"
     inkscape:groupmode="layer"
     inkscape:label="Layer 1">
    <rect
       y="451.48688"
       x="56.257599"
       height="457.65613"
       width="939.84698"
       id="rect5422-5"
       style="fill:#ffffff;fill-opacity:1;fill-rule:nonzero;stroke:#ffffff;stroke-width:1;stroke-linecap:butt;stroke-linejoin:miter;stroke-miterlimit:4;stroke-opacity:1;stroke-dasharray:2.02405364999999993, 8.09621457999999983;stroke-dashoffset:0"
       inkscape:export-filename="/home/waldgeist/data/homepage/pics/mathematik/arithmetik/irrationale-zahlen-beispiele.png"
       inkscape:export-xdpi="150"
       inkscape:export-ydpi="150" />
    <g
       id="g16733"
       style="fill:#000000;stroke:#000000;stroke-width:1.17977619"
       transform="matrix(4.8379621,0,0,4.8379621,-604.65432,39.294732)"
       ns0:preamble="/home/waldgeist/data/sphinx/inkscape-preamble.tex"
       ns0:text="$1$">
      <defs
         id="defs16735">
        <g
           id="g16737">
          <symbol
             id="symbol16739"
             overflow="visible"
             style="overflow:visible">
            <path
               id="path16741"
               d="m 2.9375,-6.375 c 0,-0.25 0,-0.265625 -0.234375,-0.265625 C 2.078125,-6 1.203125,-6 0.890625,-6 l 0,0.3125 c 0.203125,0 0.78125,0 1.296875,-0.265625 l 0,5.171875 c 0,0.359375 -0.03125,0.46875 -0.921875,0.46875 l -0.3125,0 0,0.3125 c 0.34375,-0.03125 1.203125,-0.03125 1.609375,-0.03125 0.390625,0 1.265625,0 1.609375,0.03125 l 0,-0.3125 -0.3125,0 c -0.90625,0 -0.921875,-0.109375 -0.921875,-0.46875 z m 0,0"
               style="stroke:none"
               inkscape:connector-curvature="0" />
          </symbol>
        </g>
      </defs>
      <g
         id="g16743">
        <g
           id="g16745"
           style="fill:#000000;fill-opacity:1">
          <use
             id="use16747"
             y="134.765"
             x="223.43201"
             xlink:href="#textext-56eb8c7f-0"
             width="1052.3622"
             height="744.09448" />
        </g>
      </g>
    </g>
    <g
       ns0:text="$l=1$"
       ns0:preamble="/home/waldgeist/data/sphinx/inkscape-preamble.tex"
       transform="matrix(3.4837677,0,0,3.4837677,-352.28147,146.13574)"
       style="fill:#000000;stroke:#000000;stroke-width:1.63837337"
       id="g16875"
       inkscape:export-filename="/home/waldgeist/data/pics/physik/Own/mathematik/irrationale-zahlen-beispiele.png"
       inkscape:export-xdpi="100"
       inkscape:export-ydpi="100">
      <defs
         id="defs16877">
        <g
           id="g16879">
          <symbol
             style="overflow:visible"
             overflow="visible"
             id="symbol16881">
            <path
               inkscape:connector-curvature="0"
               style="stroke:none"
               d="m 2.578125,-6.8125 c 0,0 0,-0.109375 -0.140625,-0.109375 -0.21875,0 -0.953125,0.078125 -1.21875,0.109375 -0.078125,0 -0.1875,0.015625 -0.1875,0.203125 0,0.109375 0.109375,0.109375 0.25,0.109375 0.484375,0 0.5,0.09375 0.5,0.171875 L 1.75,-6.125 0.484375,-1.140625 C 0.453125,-1.03125 0.4375,-0.96875 0.4375,-0.8125 c 0,0.578125 0.4375,0.921875 0.90625,0.921875 0.328125,0 0.578125,-0.203125 0.75,-0.5625 0.171875,-0.375 0.296875,-0.953125 0.296875,-0.96875 0,-0.109375 -0.09375,-0.109375 -0.125,-0.109375 -0.09375,0 -0.109375,0.046875 -0.125,0.1875 C 1.96875,-0.703125 1.78125,-0.109375 1.375,-0.109375 c -0.296875,0 -0.296875,-0.3125 -0.296875,-0.453125 0,-0.25 0.015625,-0.296875 0.0625,-0.484375 z m 0,0"
               id="path16883" />
          </symbol>
          <symbol
             style="overflow:visible"
             overflow="visible"
             id="symbol16885">
            <path
               inkscape:connector-curvature="0"
               style="stroke:none"
               d="m 6.84375,-3.265625 c 0.15625,0 0.34375,0 0.34375,-0.1875 C 7.1875,-3.65625 7,-3.65625 6.859375,-3.65625 l -5.96875,0 c -0.140625,0 -0.328125,0 -0.328125,0.203125 0,0.1875 0.1875,0.1875 0.328125,0.1875 z m 0.015625,1.9375 c 0.140625,0 0.328125,0 0.328125,-0.203125 0,-0.1875 -0.1875,-0.1875 -0.34375,-0.1875 l -5.953125,0 c -0.140625,0 -0.328125,0 -0.328125,0.1875 0,0.203125 0.1875,0.203125 0.328125,0.203125 z m 0,0"
               id="path16887" />
          </symbol>
          <symbol
             style="overflow:visible"
             overflow="visible"
             id="symbol16889">
            <path
               inkscape:connector-curvature="0"
               style="stroke:none"
               d="m 2.9375,-6.375 c 0,-0.25 0,-0.265625 -0.234375,-0.265625 C 2.078125,-6 1.203125,-6 0.890625,-6 l 0,0.3125 c 0.203125,0 0.78125,0 1.296875,-0.265625 l 0,5.171875 c 0,0.359375 -0.03125,0.46875 -0.921875,0.46875 l -0.3125,0 0,0.3125 c 0.34375,-0.03125 1.203125,-0.03125 1.609375,-0.03125 0.390625,0 1.265625,0 1.609375,0.03125 l 0,-0.3125 -0.3125,0 c -0.90625,0 -0.921875,-0.109375 -0.921875,-0.46875 z m 0,0"
               id="path16891" />
          </symbol>
        </g>
      </defs>
      <g
         id="g16893"
         style="stroke-width:1.63837337">
        <g
           style="fill:#000000;fill-opacity:1;stroke-width:1.63837337"
           id="g16895">
          <use
             height="744.09448"
             width="1052.3622"
             xlink:href="#textext-3e75af0b-0"
             x="223.43201"
             y="134.765"
             id="use16897"
             style="stroke-width:1.63837337" />
        </g>
        <g
           style="fill:#000000;fill-opacity:1;stroke-width:1.63837337"
           id="g16899">
          <use
             height="744.09448"
             width="1052.3622"
             xlink:href="#textext-3e75af0b-1"
             x="229.368"
             y="134.765"
             id="use16901"
             style="stroke-width:1.63837337" />
        </g>
        <g
           style="fill:#000000;fill-opacity:1;stroke-width:1.63837337"
           id="g16903">
          <use
             height="744.09448"
             width="1052.3622"
             xlink:href="#textext-3e75af0b-2"
             x="239.88652"
             y="134.765"
             id="use16905"
             style="stroke-width:1.63837337" />
        </g>
      </g>
    </g>
    <rect
       style="color:#000000;fill:none;stroke:#4d4d4d;stroke-width:2.99999952;stroke-linecap:round;stroke-linejoin:bevel;stroke-miterlimit:4;stroke-opacity:1;stroke-dasharray:none;stroke-dashoffset:0;marker:none;visibility:visible;display:inline;overflow:visible;enable-background:accumulate"
       id="rect15338"
       width="273.79071"
       height="273.7901"
       x="121.02863"
       y="478.98422"
       inkscape:export-filename="/home/waldgeist/data/homepage/pics/mathematik/arithmetik/irrationale-zahlen-beispiele.png"
       inkscape:export-xdpi="150"
       inkscape:export-ydpi="150" />
    <path
       transform="matrix(0.08087289,0,0,0.08087289,240.18972,605.32359)"
       d="m 222.85715,130.52306 c 0,1.97244 -1.59898,3.57142 -3.57143,3.57142 -1.97244,0 -3.57143,-1.59898 -3.57143,-3.57142 0,-1.97245 1.59899,-3.57143 3.57143,-3.57143 1.97245,0 3.57143,1.59898 3.57143,3.57143 z"
       sodipodi:ry="3.5714285"
       sodipodi:rx="3.5714285"
       sodipodi:cy="130.52306"
       sodipodi:cx="219.28572"
       id="path14081"
       style="color:#000000;fill:#4d4d4d;stroke:#000000;stroke-width:12.36508274;stroke-linecap:round;stroke-linejoin:bevel;stroke-miterlimit:4;stroke-opacity:1;stroke-dasharray:none;stroke-dashoffset:0;marker:none;visibility:visible;display:inline;overflow:visible;enable-background:accumulate"
       sodipodi:type="arc"
       inkscape:export-filename="/home/waldgeist/data/homepage/pics/mathematik/arithmetik/irrationale-zahlen-beispiele.png"
       inkscape:export-xdpi="150"
       inkscape:export-ydpi="150" />
    <path
       inkscape:export-ydpi="150"
       inkscape:export-xdpi="150"
       inkscape:export-filename="/home/waldgeist/data/homepage/pics/mathematik/arithmetik/irrationale-zahlen-beispiele.png"
       sodipodi:type="arc"
       style="color:#000000;fill:none;stroke:#4d4d4d;stroke-width:4.91512012;stroke-linecap:round;stroke-linejoin:bevel;stroke-miterlimit:4;stroke-opacity:1;stroke-dasharray:none;stroke-dashoffset:0;marker:none;visibility:visible;display:inline;overflow:visible;enable-background:accumulate"
       id="path11493-9"
       sodipodi:cx="565.71429"
       sodipodi:cy="466.95163"
       sodipodi:rx="224.28572"
       sodipodi:ry="224.28572"
       d="m 790.00002,466.95163 c 0,123.86958 -100.41614,224.28572 -224.28573,224.28572 -123.86958,0 -224.28572,-100.41614 -224.28572,-224.28572 0,-123.86958 100.41614,-224.28572 224.28572,-224.28572 123.86959,0 224.28573,100.41614 224.28573,224.28572 z"
       transform="matrix(0.61036146,0,0,0.61036146,449.148,330.87008)" />
    <path
       inkscape:transform-center-y="-96.799628"
       style="fill:none;stroke:#000000;stroke-width:3;stroke-linecap:round;stroke-linejoin:miter;stroke-opacity:1"
       d="M 891.23783,519.07973 697.63855,712.67899"
       id="path14075"
       inkscape:connector-curvature="0"
       inkscape:transform-center-x="-96.799627"
       inkscape:export-filename="/home/waldgeist/data/homepage/pics/mathematik/arithmetik/irrationale-zahlen-beispiele.png"
       inkscape:export-xdpi="150"
       inkscape:export-ydpi="150" />
    <path
       style="fill:none;stroke:#000000;stroke-width:3;stroke-linecap:round;stroke-linejoin:miter;stroke-opacity:1"
       d="M 121.02863,752.77427 394.81869,478.98421"
       id="path15352"
       inkscape:connector-curvature="0"
       inkscape:export-filename="/home/waldgeist/data/homepage/pics/mathematik/arithmetik/irrationale-zahlen-beispiele.png"
       inkscape:export-xdpi="150"
       inkscape:export-ydpi="150" />
    <g
       ns0:text="$d$"
       ns0:preamble="/home/waldgeist/data/sphinx/inkscape-preamble.tex"
       transform="matrix(3.4837677,0,0,3.4837677,-542.12324,134.25591)"
       style="fill:#000000;stroke:#000000;stroke-width:1.63837337"
       id="g17013"
       inkscape:export-filename="/home/waldgeist/data/homepage/pics/mathematik/arithmetik/irrationale-zahlen-beispiele.png"
       inkscape:export-xdpi="150"
       inkscape:export-ydpi="150">
      <defs
         id="defs17015">
        <g
           id="g17017">
          <symbol
             style="overflow:visible"
             overflow="visible"
             id="textext-4bfa578b-0">
            <path
               inkscape:connector-curvature="0"
               style="stroke:none"
               d="m 5.140625,-6.8125 c 0,0 0,-0.109375 -0.125,-0.109375 -0.15625,0 -1.09375,0.09375 -1.265625,0.109375 -0.078125,0.015625 -0.140625,0.0625 -0.140625,0.1875 0,0.125 0.09375,0.125 0.234375,0.125 0.484375,0 0.5,0.0625 0.5,0.171875 L 4.3125,-6.125 3.71875,-3.765625 C 3.53125,-4.140625 3.25,-4.40625 2.796875,-4.40625 c -1.15625,0 -2.390625,1.46875 -2.390625,2.921875 0,0.9375 0.546875,1.59375 1.3125,1.59375 0.203125,0 0.703125,-0.046875 1.296875,-0.75 0.078125,0.421875 0.4375,0.75 0.90625,0.75 0.359375,0 0.578125,-0.234375 0.75,-0.546875 0.15625,-0.359375 0.296875,-0.96875 0.296875,-0.984375 0,-0.109375 -0.09375,-0.109375 -0.125,-0.109375 -0.09375,0 -0.109375,0.046875 -0.140625,0.1875 -0.171875,0.640625 -0.34375,1.234375 -0.75,1.234375 -0.28125,0 -0.296875,-0.265625 -0.296875,-0.453125 0,-0.25 0.015625,-0.3125 0.046875,-0.484375 z m -2.0625,5.625 C 3.015625,-1 3.015625,-0.984375 2.875,-0.8125 2.4375,-0.265625 2.03125,-0.109375 1.75,-0.109375 c -0.5,0 -0.640625,-0.546875 -0.640625,-0.9375 0,-0.5 0.3125,-1.71875 0.546875,-2.1875 0.3125,-0.578125 0.75,-0.953125 1.15625,-0.953125 0.640625,0 0.78125,0.8125 0.78125,0.875 0,0.0625 -0.015625,0.125 -0.03125,0.171875 z m 0,0"
               id="path17020" />
          </symbol>
        </g>
      </defs>
      <g
         style="stroke-width:1.63837337"
         id="textext-4bfa578b-1">
        <g
           style="fill:#000000;fill-opacity:1;stroke-width:1.63837337"
           id="g17023">
          <use
             style="stroke-width:1.63837337"
             height="744.09448"
             width="1052.3622"
             xlink:href="#textext-4bfa578b-0"
             x="223.43201"
             y="134.765"
             id="use17025" />
        </g>
      </g>
    </g>
    <g
       id="g17364"
       style="fill:#000000;stroke:#000000;stroke-width:1.63837337"
       transform="matrix(3.4837677,0,0,3.4837677,-2.1232435,134.25591)"
       ns0:preamble="/home/waldgeist/data/sphinx/inkscape-preamble.tex"
       ns0:text="$d$"
       inkscape:export-filename="/home/waldgeist/data/homepage/pics/mathematik/arithmetik/irrationale-zahlen-beispiele.png"
       inkscape:export-xdpi="150"
       inkscape:export-ydpi="150">
      <defs
         id="defs17366">
        <g
           id="g17368">
          <symbol
             id="symbol17370"
             overflow="visible"
             style="overflow:visible">
            <path
               id="path17372"
               d="m 5.140625,-6.8125 c 0,0 0,-0.109375 -0.125,-0.109375 -0.15625,0 -1.09375,0.09375 -1.265625,0.109375 -0.078125,0.015625 -0.140625,0.0625 -0.140625,0.1875 0,0.125 0.09375,0.125 0.234375,0.125 0.484375,0 0.5,0.0625 0.5,0.171875 L 4.3125,-6.125 3.71875,-3.765625 C 3.53125,-4.140625 3.25,-4.40625 2.796875,-4.40625 c -1.15625,0 -2.390625,1.46875 -2.390625,2.921875 0,0.9375 0.546875,1.59375 1.3125,1.59375 0.203125,0 0.703125,-0.046875 1.296875,-0.75 0.078125,0.421875 0.4375,0.75 0.90625,0.75 0.359375,0 0.578125,-0.234375 0.75,-0.546875 0.15625,-0.359375 0.296875,-0.96875 0.296875,-0.984375 0,-0.109375 -0.09375,-0.109375 -0.125,-0.109375 -0.09375,0 -0.109375,0.046875 -0.140625,0.1875 -0.171875,0.640625 -0.34375,1.234375 -0.75,1.234375 -0.28125,0 -0.296875,-0.265625 -0.296875,-0.453125 0,-0.25 0.015625,-0.3125 0.046875,-0.484375 z m -2.0625,5.625 C 3.015625,-1 3.015625,-0.984375 2.875,-0.8125 2.4375,-0.265625 2.03125,-0.109375 1.75,-0.109375 c -0.5,0 -0.640625,-0.546875 -0.640625,-0.9375 0,-0.5 0.3125,-1.71875 0.546875,-2.1875 0.3125,-0.578125 0.75,-0.953125 1.15625,-0.953125 0.640625,0 0.78125,0.8125 0.78125,0.875 0,0.0625 -0.015625,0.125 -0.03125,0.171875 z m 0,0"
               style="stroke:none"
               inkscape:connector-curvature="0" />
          </symbol>
        </g>
      </defs>
      <g
         id="g17374"
         style="stroke-width:1.63837337">
        <g
           id="g17376"
           style="fill:#000000;fill-opacity:1;stroke-width:1.63837337">
          <use
             id="use17378"
             y="134.765"
             x="223.43201"
             xlink:href="#textext-4bfa578b-0"
             width="1052.3622"
             height="744.09448"
             style="stroke-width:1.63837337" />
        </g>
      </g>
    </g>
    <g
       ns0:text="$u$"
       ns0:preamble="/home/waldgeist/data/sphinx/inkscape-preamble.tex"
       transform="matrix(3.4837677,0,0,3.4837677,123.01962,256.54162)"
       style="fill:#000000;stroke:#000000;stroke-width:1.63837337"
       id="g17509"
       inkscape:export-filename="/home/waldgeist/data/homepage/pics/mathematik/arithmetik/irrationale-zahlen-beispiele.png"
       inkscape:export-xdpi="150"
       inkscape:export-ydpi="150">
      <defs
         id="defs17511">
        <g
           id="g17513">
          <symbol
             style="overflow:visible"
             overflow="visible"
             id="textext-2fd2acb3-0">
            <path
               inkscape:connector-curvature="0"
               style="stroke:none"
               d="M 3.484375,-0.5625 C 3.59375,-0.15625 3.953125,0.109375 4.375,0.109375 4.71875,0.109375 4.953125,-0.125 5.109375,-0.4375 5.28125,-0.796875 5.40625,-1.40625 5.40625,-1.421875 c 0,-0.109375 -0.078125,-0.109375 -0.109375,-0.109375 -0.109375,0 -0.109375,0.046875 -0.140625,0.1875 -0.140625,0.5625 -0.328125,1.234375 -0.75,1.234375 -0.203125,0 -0.3125,-0.125 -0.3125,-0.453125 0,-0.21875 0.125,-0.6875 0.203125,-1.046875 L 4.578125,-2.6875 C 4.609375,-2.828125 4.703125,-3.203125 4.75,-3.359375 4.796875,-3.59375 4.890625,-3.96875 4.890625,-4.03125 c 0,-0.171875 -0.140625,-0.265625 -0.28125,-0.265625 -0.046875,0 -0.3125,0.015625 -0.390625,0.34375 -0.1875,0.734375 -0.625,2.484375 -0.75,3 -0.015625,0.046875 -0.40625,0.84375 -1.140625,0.84375 -0.515625,0 -0.609375,-0.453125 -0.609375,-0.8125 0,-0.5625 0.28125,-1.34375 0.53125,-2.03125 0.125,-0.3125 0.171875,-0.453125 0.171875,-0.640625 0,-0.4375 -0.3125,-0.8125 -0.8125,-0.8125 -0.953125,0 -1.3125,1.453125 -1.3125,1.53125 0,0.109375 0.09375,0.109375 0.109375,0.109375 0.109375,0 0.109375,-0.03125 0.15625,-0.1875 0.25,-0.859375 0.640625,-1.234375 1.015625,-1.234375 0.09375,0 0.25,0.015625 0.25,0.328125 0,0.234375 -0.109375,0.53125 -0.171875,0.671875 -0.375,1 -0.578125,1.609375 -0.578125,2.09375 0,0.953125 0.6875,1.203125 1.21875,1.203125 0.65625,0 1.015625,-0.453125 1.1875,-0.671875 z m 0,0"
               id="path17516" />
          </symbol>
        </g>
      </defs>
      <g
         style="stroke-width:1.63837337"
         id="textext-2fd2acb3-1">
        <g
           style="fill:#000000;fill-opacity:1;stroke-width:1.63837337"
           id="g17519">
          <use
             style="stroke-width:1.63837337"
             height="744.09448"
             width="1052.3622"
             xlink:href="#textext-2fd2acb3-0"
             x="223.43201"
             y="134.765"
             id="use17521" />
        </g>
      </g>
    </g>
    <g
       id="g23127"
       style="fill:#000000;stroke:#000000;stroke-width:1.22955251"
       transform="matrix(4.5312166,0,0,4.7557076,-855.76643,235.96303)"
       ns0:preamble="/home/waldgeist/data/sphinx/inkscape-preamble.tex"
       ns0:text="$d =\\; \\sqrt{2} \\cdot l$"
       inkscape:export-filename="/home/waldgeist/data/homepage/pics/mathematik/arithmetik/irrationale-zahlen-beispiele.png"
       inkscape:export-xdpi="150"
       inkscape:export-ydpi="150">
      <defs
         id="defs23129">
        <g
           id="g23131">
          <symbol
             id="textext-37494b01-0"
             overflow="visible"
             style="overflow:visible">
            <path
               id="path23134"
               d="m 5.140625,-6.8125 c 0,0 0,-0.109375 -0.125,-0.109375 -0.15625,0 -1.09375,0.09375 -1.265625,0.109375 -0.078125,0.015625 -0.140625,0.0625 -0.140625,0.1875 0,0.125 0.09375,0.125 0.234375,0.125 0.484375,0 0.5,0.0625 0.5,0.171875 L 4.3125,-6.125 3.71875,-3.765625 C 3.53125,-4.140625 3.25,-4.40625 2.796875,-4.40625 c -1.15625,0 -2.390625,1.46875 -2.390625,2.921875 0,0.9375 0.546875,1.59375 1.3125,1.59375 0.203125,0 0.703125,-0.046875 1.296875,-0.75 0.078125,0.421875 0.4375,0.75 0.90625,0.75 0.359375,0 0.578125,-0.234375 0.75,-0.546875 0.15625,-0.359375 0.296875,-0.96875 0.296875,-0.984375 0,-0.109375 -0.09375,-0.109375 -0.125,-0.109375 -0.09375,0 -0.109375,0.046875 -0.140625,0.1875 -0.171875,0.640625 -0.34375,1.234375 -0.75,1.234375 -0.28125,0 -0.296875,-0.265625 -0.296875,-0.453125 0,-0.25 0.015625,-0.3125 0.046875,-0.484375 z m -2.0625,5.625 C 3.015625,-1 3.015625,-0.984375 2.875,-0.8125 2.4375,-0.265625 2.03125,-0.109375 1.75,-0.109375 c -0.5,0 -0.640625,-0.546875 -0.640625,-0.9375 0,-0.5 0.3125,-1.71875 0.546875,-2.1875 0.3125,-0.578125 0.75,-0.953125 1.15625,-0.953125 0.640625,0 0.78125,0.8125 0.78125,0.875 0,0.0625 -0.015625,0.125 -0.03125,0.171875 z m 0,0"
               style="stroke:none"
               inkscape:connector-curvature="0" />
          </symbol>
          <symbol
             id="textext-37494b01-1"
             overflow="visible"
             style="overflow:visible">
            <path
               id="path23137"
               d="m 2.578125,-6.8125 c 0,0 0,-0.109375 -0.140625,-0.109375 -0.21875,0 -0.953125,0.078125 -1.21875,0.109375 -0.078125,0 -0.1875,0.015625 -0.1875,0.203125 0,0.109375 0.109375,0.109375 0.25,0.109375 0.484375,0 0.5,0.09375 0.5,0.171875 L 1.75,-6.125 0.484375,-1.140625 C 0.453125,-1.03125 0.4375,-0.96875 0.4375,-0.8125 c 0,0.578125 0.4375,0.921875 0.90625,0.921875 0.328125,0 0.578125,-0.203125 0.75,-0.5625 0.171875,-0.375 0.296875,-0.953125 0.296875,-0.96875 0,-0.109375 -0.09375,-0.109375 -0.125,-0.109375 -0.09375,0 -0.109375,0.046875 -0.125,0.1875 C 1.96875,-0.703125 1.78125,-0.109375 1.375,-0.109375 c -0.296875,0 -0.296875,-0.3125 -0.296875,-0.453125 0,-0.25 0.015625,-0.296875 0.0625,-0.484375 z m 0,0"
               style="stroke:none"
               inkscape:connector-curvature="0" />
          </symbol>
          <symbol
             id="textext-37494b01-2"
             overflow="visible"
             style="overflow:visible">
            <path
               id="path23140"
               d="m 6.84375,-3.265625 c 0.15625,0 0.34375,0 0.34375,-0.1875 C 7.1875,-3.65625 7,-3.65625 6.859375,-3.65625 l -5.96875,0 c -0.140625,0 -0.328125,0 -0.328125,0.203125 0,0.1875 0.1875,0.1875 0.328125,0.1875 z m 0.015625,1.9375 c 0.140625,0 0.328125,0 0.328125,-0.203125 0,-0.1875 -0.1875,-0.1875 -0.34375,-0.1875 l -5.953125,0 c -0.140625,0 -0.328125,0 -0.328125,0.1875 0,0.203125 0.1875,0.203125 0.328125,0.203125 z m 0,0"
               style="stroke:none"
               inkscape:connector-curvature="0" />
          </symbol>
          <symbol
             id="textext-37494b01-3"
             overflow="visible"
             style="overflow:visible">
            <path
               id="path23143"
               d="m 1.265625,-0.765625 1.0625,-1.03125 c 1.546875,-1.375 2.140625,-1.90625 2.140625,-2.90625 0,-1.140625 -0.890625,-1.9375 -2.109375,-1.9375 -1.125,0 -1.859375,0.921875 -1.859375,1.8125 0,0.546875 0.5,0.546875 0.53125,0.546875 0.171875,0 0.515625,-0.109375 0.515625,-0.53125 0,-0.25 -0.1875,-0.515625 -0.53125,-0.515625 -0.078125,0 -0.09375,0 -0.125,0.015625 0.21875,-0.65625 0.765625,-1.015625 1.34375,-1.015625 0.90625,0 1.328125,0.8125 1.328125,1.625 C 3.5625,-3.90625 3.078125,-3.125 2.515625,-2.5 l -1.90625,2.125 C 0.5,-0.265625 0.5,-0.234375 0.5,0 l 3.703125,0 0.265625,-1.734375 -0.234375,0 C 4.171875,-1.4375 4.109375,-1 4,-0.84375 3.9375,-0.765625 3.28125,-0.765625 3.0625,-0.765625 z m 0,0"
               style="stroke:none"
               inkscape:connector-curvature="0" />
          </symbol>
          <symbol
             id="textext-37494b01-4"
             overflow="visible"
             style="overflow:visible">
            <path
               id="path23146"
               d="m 3.875,8.515625 -1.75,-3.875 C 2.046875,4.484375 2,4.484375 1.96875,4.484375 c 0,0 -0.0625,0 -0.171875,0.078125 l -0.9375,0.71875 c -0.125,0.109375 -0.125,0.125 -0.125,0.15625 0,0.0625 0.015625,0.109375 0.09375,0.109375 0.0625,0 0.234375,-0.140625 0.34375,-0.21875 C 1.21875,5.28125 1.375,5.171875 1.484375,5.09375 l 1.96875,4.3125 C 3.515625,9.5625 3.5625,9.5625 3.65625,9.5625 c 0.15625,0 0.1875,-0.046875 0.25,-0.1875 L 8.4375,0 C 8.5,-0.140625 8.5,-0.171875 8.5,-0.203125 8.5,-0.296875 8.421875,-0.40625 8.296875,-0.40625 c -0.078125,0 -0.140625,0.0625 -0.21875,0.21875 z m 0,0"
               style="stroke:none"
               inkscape:connector-curvature="0" />
          </symbol>
          <symbol
             id="textext-37494b01-5"
             overflow="visible"
             style="overflow:visible">
            <path
               id="path23149"
               d="m 1.90625,-2.5 c 0,-0.28125 -0.234375,-0.515625 -0.515625,-0.515625 -0.296875,0 -0.53125,0.234375 -0.53125,0.515625 0,0.296875 0.234375,0.53125 0.53125,0.53125 0.28125,0 0.515625,-0.234375 0.515625,-0.53125 z m 0,0"
               style="stroke:none"
               inkscape:connector-curvature="0" />
          </symbol>
        </g>
      </defs>
      <g
         id="textext-37494b01-6">
        <g
           id="g23152"
           style="fill:#000000;fill-opacity:1">
          <use
             id="use23154"
             y="134.765"
             x="223.43201"
             xlink:href="#textext-37494b01-0"
             width="1052.3622"
             height="744.09448" />
        </g>
        <g
           id="g23156"
           style="fill:#000000;fill-opacity:1">
          <use
             id="use23158"
             y="134.765"
             x="231.38499"
             xlink:href="#textext-37494b01-2"
             width="1052.3622"
             height="744.09448" />
        </g>
        <g
           id="g23160"
           style="fill:#000000;fill-opacity:1">
          <use
             id="use23162"
             y="126.523"
             x="244.668"
             xlink:href="#textext-37494b01-4"
             width="1052.3622"
             height="744.09448" />
        </g>
        <path
           id="path23164"
           transform="matrix(1,0,0,-1,252.971,126.324)"
           d="m -0.471,-0.176 5,0"
           style="fill:none;stroke:#000000;stroke-width:1;stroke-linecap:butt;stroke-linejoin:miter;stroke-miterlimit:10;stroke-opacity:1"
           inkscape:connector-curvature="0" />
        <g
           id="g23166"
           style="fill:#000000;fill-opacity:1">
          <use
             id="use23168"
             y="134.765"
             x="252.97099"
             xlink:href="#textext-37494b01-3"
             width="1052.3622"
             height="744.09448" />
        </g>
        <g
           id="g23170"
           style="fill:#000000;fill-opacity:1">
          <use
             id="use23172"
             y="134.765"
             x="260.16599"
             xlink:href="#textext-37494b01-5"
             width="1052.3622"
             height="744.09448" />
        </g>
        <g
           id="g23174"
           style="fill:#000000;fill-opacity:1">
          <use
             id="use23176"
             y="134.765"
             x="265.147"
             xlink:href="#textext-37494b01-1"
             width="1052.3622"
             height="744.09448" />
        </g>
      </g>
    </g>
    <g
       ns0:text="$u =\\; \\pi \\cdot d$"
       ns0:preamble="/home/waldgeist/data/sphinx/inkscape-preamble.tex"
       transform="matrix(4.5312166,0,0,4.7557076,-309.56442,235.96303)"
       style="fill:#000000;stroke:#000000;stroke-width:1.22955251"
       id="g23534"
       inkscape:export-filename="/home/waldgeist/data/homepage/pics/mathematik/arithmetik/irrationale-zahlen-beispiele.png"
       inkscape:export-xdpi="150"
       inkscape:export-ydpi="150">
      <defs
         id="defs23536">
        <g
           id="g23538">
          <symbol
             style="overflow:visible"
             overflow="visible"
             id="textext-8e443761-0">
            <path
               inkscape:connector-curvature="0"
               style="stroke:none"
               d="M 3.484375,-0.5625 C 3.59375,-0.15625 3.953125,0.109375 4.375,0.109375 4.71875,0.109375 4.953125,-0.125 5.109375,-0.4375 5.28125,-0.796875 5.40625,-1.40625 5.40625,-1.421875 c 0,-0.109375 -0.078125,-0.109375 -0.109375,-0.109375 -0.109375,0 -0.109375,0.046875 -0.140625,0.1875 -0.140625,0.5625 -0.328125,1.234375 -0.75,1.234375 -0.203125,0 -0.3125,-0.125 -0.3125,-0.453125 0,-0.21875 0.125,-0.6875 0.203125,-1.046875 L 4.578125,-2.6875 C 4.609375,-2.828125 4.703125,-3.203125 4.75,-3.359375 4.796875,-3.59375 4.890625,-3.96875 4.890625,-4.03125 c 0,-0.171875 -0.140625,-0.265625 -0.28125,-0.265625 -0.046875,0 -0.3125,0.015625 -0.390625,0.34375 -0.1875,0.734375 -0.625,2.484375 -0.75,3 -0.015625,0.046875 -0.40625,0.84375 -1.140625,0.84375 -0.515625,0 -0.609375,-0.453125 -0.609375,-0.8125 0,-0.5625 0.28125,-1.34375 0.53125,-2.03125 0.125,-0.3125 0.171875,-0.453125 0.171875,-0.640625 0,-0.4375 -0.3125,-0.8125 -0.8125,-0.8125 -0.953125,0 -1.3125,1.453125 -1.3125,1.53125 0,0.109375 0.09375,0.109375 0.109375,0.109375 0.109375,0 0.109375,-0.03125 0.15625,-0.1875 0.25,-0.859375 0.640625,-1.234375 1.015625,-1.234375 0.09375,0 0.25,0.015625 0.25,0.328125 0,0.234375 -0.109375,0.53125 -0.171875,0.671875 -0.375,1 -0.578125,1.609375 -0.578125,2.09375 0,0.953125 0.6875,1.203125 1.21875,1.203125 0.65625,0 1.015625,-0.453125 1.1875,-0.671875 z m 0,0"
               id="path23541" />
          </symbol>
          <symbol
             style="overflow:visible"
             overflow="visible"
             id="textext-8e443761-1">
            <path
               inkscape:connector-curvature="0"
               style="stroke:none"
               d="m 2.640625,-3.71875 1.125,0 C 3.4375,-2.25 3.34375,-1.8125 3.34375,-1.140625 c 0,0.140625 0,0.40625 0.078125,0.75 0.109375,0.4375 0.21875,0.5 0.359375,0.5 0.203125,0 0.421875,-0.171875 0.421875,-0.375 0,-0.0625 0,-0.078125 -0.0625,-0.21875 -0.296875,-0.71875 -0.296875,-1.375 -0.296875,-1.65625 0,-0.515625 0.078125,-1.0625 0.1875,-1.578125 l 1.125,0 c 0.140625,0 0.5,0 0.5,-0.34375 0,-0.234375 -0.21875,-0.234375 -0.40625,-0.234375 l -3.34375,0 c -0.21875,0 -0.59375,0 -1.03125,0.46875 -0.34375,0.390625 -0.609375,0.84375 -0.609375,0.890625 0,0.015625 0,0.109375 0.125,0.109375 0.078125,0 0.09375,-0.046875 0.15625,-0.125 C 1.03125,-3.71875 1.609375,-3.71875 1.8125,-3.71875 l 0.5625,0 C 2.0625,-2.515625 1.53125,-1.3125 1.109375,-0.40625 1.03125,-0.25 1.03125,-0.234375 1.03125,-0.15625 c 0,0.1875 0.15625,0.265625 0.28125,0.265625 0.296875,0 0.375,-0.28125 0.5,-0.640625 C 1.953125,-1 1.953125,-1.015625 2.078125,-1.515625 z m 0,0"
               id="path23544" />
          </symbol>
          <symbol
             style="overflow:visible"
             overflow="visible"
             id="textext-8e443761-2">
            <path
               inkscape:connector-curvature="0"
               style="stroke:none"
               d="m 5.140625,-6.8125 c 0,0 0,-0.109375 -0.125,-0.109375 -0.15625,0 -1.09375,0.09375 -1.265625,0.109375 -0.078125,0.015625 -0.140625,0.0625 -0.140625,0.1875 0,0.125 0.09375,0.125 0.234375,0.125 0.484375,0 0.5,0.0625 0.5,0.171875 L 4.3125,-6.125 3.71875,-3.765625 C 3.53125,-4.140625 3.25,-4.40625 2.796875,-4.40625 c -1.15625,0 -2.390625,1.46875 -2.390625,2.921875 0,0.9375 0.546875,1.59375 1.3125,1.59375 0.203125,0 0.703125,-0.046875 1.296875,-0.75 0.078125,0.421875 0.4375,0.75 0.90625,0.75 0.359375,0 0.578125,-0.234375 0.75,-0.546875 0.15625,-0.359375 0.296875,-0.96875 0.296875,-0.984375 0,-0.109375 -0.09375,-0.109375 -0.125,-0.109375 -0.09375,0 -0.109375,0.046875 -0.140625,0.1875 -0.171875,0.640625 -0.34375,1.234375 -0.75,1.234375 -0.28125,0 -0.296875,-0.265625 -0.296875,-0.453125 0,-0.25 0.015625,-0.3125 0.046875,-0.484375 z m -2.0625,5.625 C 3.015625,-1 3.015625,-0.984375 2.875,-0.8125 2.4375,-0.265625 2.03125,-0.109375 1.75,-0.109375 c -0.5,0 -0.640625,-0.546875 -0.640625,-0.9375 0,-0.5 0.3125,-1.71875 0.546875,-2.1875 0.3125,-0.578125 0.75,-0.953125 1.15625,-0.953125 0.640625,0 0.78125,0.8125 0.78125,0.875 0,0.0625 -0.015625,0.125 -0.03125,0.171875 z m 0,0"
               id="path23547" />
          </symbol>
          <symbol
             style="overflow:visible"
             overflow="visible"
             id="textext-8e443761-3">
            <path
               inkscape:connector-curvature="0"
               style="stroke:none"
               d="m 6.84375,-3.265625 c 0.15625,0 0.34375,0 0.34375,-0.1875 C 7.1875,-3.65625 7,-3.65625 6.859375,-3.65625 l -5.96875,0 c -0.140625,0 -0.328125,0 -0.328125,0.203125 0,0.1875 0.1875,0.1875 0.328125,0.1875 z m 0.015625,1.9375 c 0.140625,0 0.328125,0 0.328125,-0.203125 0,-0.1875 -0.1875,-0.1875 -0.34375,-0.1875 l -5.953125,0 c -0.140625,0 -0.328125,0 -0.328125,0.1875 0,0.203125 0.1875,0.203125 0.328125,0.203125 z m 0,0"
               id="path23550" />
          </symbol>
          <symbol
             style="overflow:visible"
             overflow="visible"
             id="textext-8e443761-4">
            <path
               inkscape:connector-curvature="0"
               style="stroke:none"
               d="m 1.90625,-2.5 c 0,-0.28125 -0.234375,-0.515625 -0.515625,-0.515625 -0.296875,0 -0.53125,0.234375 -0.53125,0.515625 0,0.296875 0.234375,0.53125 0.53125,0.53125 0.28125,0 0.515625,-0.234375 0.515625,-0.53125 z m 0,0"
               id="path23553" />
          </symbol>
        </g>
      </defs>
      <g
         id="textext-8e443761-5">
        <g
           style="fill:#000000;fill-opacity:1"
           id="g23556">
          <use
             height="744.09448"
             width="1052.3622"
             xlink:href="#textext-8e443761-0"
             x="223.43201"
             y="134.765"
             id="use23558" />
        </g>
        <g
           style="fill:#000000;fill-opacity:1"
           id="g23560">
          <use
             height="744.09448"
             width="1052.3622"
             xlink:href="#textext-8e443761-3"
             x="231.903"
             y="134.765"
             id="use23562" />
        </g>
        <g
           style="fill:#000000;fill-opacity:1"
           id="g23564">
          <use
             height="744.09448"
             width="1052.3622"
             xlink:href="#textext-8e443761-1"
             x="245.186"
             y="134.765"
             id="use23566" />
        </g>
        <g
           style="fill:#000000;fill-opacity:1"
           id="g23568">
          <use
             height="744.09448"
             width="1052.3622"
             xlink:href="#textext-8e443761-4"
             x="253.436"
             y="134.765"
             id="use23570" />
        </g>
        <g
           style="fill:#000000;fill-opacity:1"
           id="g23572">
          <use
             height="744.09448"
             width="1052.3622"
             xlink:href="#textext-8e443761-2"
             x="258.418"
             y="134.765"
             id="use23574" />
        </g>
      </g>
    </g>
    <g
       id="g23897"
       style="fill:#000000;stroke:#000000;stroke-width:1.63837337"
       transform="matrix(3.4837677,0,0,3.4837677,-525.71409,327.25962)"
       ns0:preamble="/home/waldgeist/data/sphinx/inkscape-preamble.tex"
       ns0:text="$l$"
       inkscape:export-filename="/home/waldgeist/data/homepage/pics/mathematik/arithmetik/irrationale-zahlen-beispiele.png"
       inkscape:export-xdpi="150"
       inkscape:export-ydpi="150">
      <defs
         id="defs23899">
        <g
           id="g23901">
          <symbol
             id="textext-77a77e9e-0"
             overflow="visible"
             style="overflow:visible">
            <path
               id="path23904"
               d="m 2.578125,-6.8125 c 0,0 0,-0.109375 -0.140625,-0.109375 -0.21875,0 -0.953125,0.078125 -1.21875,0.109375 -0.078125,0 -0.1875,0.015625 -0.1875,0.203125 0,0.109375 0.109375,0.109375 0.25,0.109375 0.484375,0 0.5,0.09375 0.5,0.171875 L 1.75,-6.125 0.484375,-1.140625 C 0.453125,-1.03125 0.4375,-0.96875 0.4375,-0.8125 c 0,0.578125 0.4375,0.921875 0.90625,0.921875 0.328125,0 0.578125,-0.203125 0.75,-0.5625 0.171875,-0.375 0.296875,-0.953125 0.296875,-0.96875 0,-0.109375 -0.09375,-0.109375 -0.125,-0.109375 -0.09375,0 -0.109375,0.046875 -0.125,0.1875 C 1.96875,-0.703125 1.78125,-0.109375 1.375,-0.109375 c -0.296875,0 -0.296875,-0.3125 -0.296875,-0.453125 0,-0.25 0.015625,-0.296875 0.0625,-0.484375 z m 0,0"
               style="stroke:none"
               inkscape:connector-curvature="0" />
          </symbol>
        </g>
      </defs>
      <g
         id="textext-77a77e9e-1"
         style="stroke-width:1.63837337">
        <g
           id="g23907"
           style="fill:#000000;fill-opacity:1;stroke-width:1.63837337">
          <use
             id="use23909"
             y="134.765"
             x="223.43201"
             xlink:href="#textext-77a77e9e-0"
             width="1052.3622"
             height="744.09448"
             style="stroke-width:1.63837337" />
        </g>
      </g>
    </g>
    <g
       ns0:text="$l$"
       ns0:preamble="/home/waldgeist/data/sphinx/inkscape-preamble.tex"
       transform="matrix(3.4837677,0,0,3.4837677,-365.09984,158.25591)"
       style="fill:#000000;stroke:#000000;stroke-width:1.63837337"
       id="g24056"
       inkscape:export-filename="/home/waldgeist/data/homepage/pics/mathematik/arithmetik/irrationale-zahlen-beispiele.png"
       inkscape:export-xdpi="150"
       inkscape:export-ydpi="150">
      <defs
         id="defs24058">
        <g
           id="g24060">
          <symbol
             style="overflow:visible"
             overflow="visible"
             id="symbol24062">
            <path
               inkscape:connector-curvature="0"
               style="stroke:none"
               d="m 2.578125,-6.8125 c 0,0 0,-0.109375 -0.140625,-0.109375 -0.21875,0 -0.953125,0.078125 -1.21875,0.109375 -0.078125,0 -0.1875,0.015625 -0.1875,0.203125 0,0.109375 0.109375,0.109375 0.25,0.109375 0.484375,0 0.5,0.09375 0.5,0.171875 L 1.75,-6.125 0.484375,-1.140625 C 0.453125,-1.03125 0.4375,-0.96875 0.4375,-0.8125 c 0,0.578125 0.4375,0.921875 0.90625,0.921875 0.328125,0 0.578125,-0.203125 0.75,-0.5625 0.171875,-0.375 0.296875,-0.953125 0.296875,-0.96875 0,-0.109375 -0.09375,-0.109375 -0.125,-0.109375 -0.09375,0 -0.109375,0.046875 -0.125,0.1875 C 1.96875,-0.703125 1.78125,-0.109375 1.375,-0.109375 c -0.296875,0 -0.296875,-0.3125 -0.296875,-0.453125 0,-0.25 0.015625,-0.296875 0.0625,-0.484375 z m 0,0"
               id="path24064" />
          </symbol>
        </g>
      </defs>
      <g
         style="stroke-width:1.63837337"
         id="g24066">
        <g
           style="fill:#000000;fill-opacity:1;stroke-width:1.63837337"
           id="g24068">
          <use
             style="stroke-width:1.63837337"
             height="744.09448"
             width="1052.3622"
             xlink:href="#textext-77a77e9e-0"
             x="223.43201"
             y="134.765"
             id="use24070" />
        </g>
      </g>
    </g>
  </g>
</svg>
