<svg xmlns:ns0="http://www.iki.fi/pav/software/textext/" xmlns="http://www.w3.org/2000/svg" xmlns:xlink="http://www.w3.org/1999/xlink" width="1052.362" height="744.094"><title>Multiplikation</title><defs><radialGradient cx="-81.082" cy="44.942" r="44.556" fx="-81.082" fy="44.942" id="e" xlink:href="#b" gradientUnits="userSpaceOnUse" gradientTransform="matrix(-.0146 -.9602 1.93539 -.02813 127.596 52.018)"/><clipPath id="aa"><path d="M172.547 119.654s20.116 15.239 54.078 11.761c34.148-3.52 40.784-10.055 40.784-10.055 28.523-31.581-136.198-25.141-94.862-1.706z" fill="url(#e) #000" fill-rule="evenodd"/></clipPath><filter color-interpolation-filters="sRGB" id="ac"><feGaussianBlur stdDeviation=".577"/></filter><clipPath id="ad"><path d="M214.703 131.117l6.077.246c-2.534 1.72 4.834-35.35 16.015-42.74 4.832-3.194-1.203-12.315-3.82-10.933 0 0-6.471 4.67-7.231 8.094-.76 3.423-6.719 17.603-8.131 27.845-1.412 10.243-2.563 14.888-2.91 17.488z" fill="#372a07" fill-rule="evenodd"/></clipPath><pattern id="k" patternTransform="translate(163.814 -152.846)" height="46.659" width="55.733" patternUnits="userSpaceOnUse"><path style="marker:none" d="M-278.719-209.706a2.886 7.834 0 1 1-5.772 0 2.886 7.834 0 1 1 5.772 0z" transform="matrix(.74092 0 0 .45974 262.242 100.965)" overflow="visible" color="#000" fill="#d7eb90" fill-rule="evenodd" stroke-width="1.584"/><path style="marker:none" d="M-278.719-209.706a2.886 7.834 0 1 1-5.772 0 2.886 7.834 0 1 1 5.772 0z" transform="matrix(.74092 0 0 .45974 253.164 126.803)" overflow="visible" color="#000" fill="#d7eb90" fill-rule="evenodd" stroke-width="1.584"/><path transform="matrix(.74092 0 0 .45974 241.636 111.216)" d="M-278.719-209.706a2.886 7.834 0 1 1-5.772 0 2.886 7.834 0 1 1 5.772 0z" style="marker:none" overflow="visible" color="#000" fill="#d7eb90" fill-rule="evenodd" stroke-width="1.584"/><path style="marker:none" d="M-278.719-209.706a2.886 7.834 0 1 1-5.772 0 2.886 7.834 0 1 1 5.772 0z" transform="matrix(.74092 0 0 .45974 219.229 100.012)" overflow="visible" color="#000" fill="#d7eb90" fill-rule="evenodd" stroke-width="1.584"/><path transform="matrix(.74092 0 0 .45974 236.44 139.468)" d="M-278.719-209.706a2.886 7.834 0 1 1-5.772 0 2.886 7.834 0 1 1 5.772 0z" style="marker:none" overflow="visible" color="#000" fill="#d7eb90" fill-rule="evenodd" stroke-width="1.584"/><path style="marker:none" d="M-278.719-209.706a2.886 7.834 0 1 1-5.772 0 2.886 7.834 0 1 1 5.772 0z" transform="matrix(.74092 0 0 .45974 210.786 125.504)" overflow="visible" color="#000" fill="#d7eb90" fill-rule="evenodd" stroke-width="1.584"/><path transform="matrix(.74092 0 0 .45974 210.786 125.504)" d="M-278.719-209.706a2.886 7.834 0 1 1-5.772 0 2.886 7.834 0 1 1 5.772 0z" style="marker:none" overflow="visible" color="#000" fill="#d7eb90" fill-rule="evenodd" stroke-width="1.584"/></pattern><filter color-interpolation-filters="sRGB" id="ae"><feGaussianBlur stdDeviation=".215"/></filter><filter color-interpolation-filters="sRGB" id="Y" height="1.267" y="-.134" width="1.051" x="-.025"><feGaussianBlur stdDeviation=".992"/></filter><clipPath id="M"><path d="M100.843 272.892C79.363 377.495 35.883 391.59-4.981 389.885c-7.885-.329-7.532 1.232-16.45.102-7.776-.986-21.326-6.02-29.172-5.438-46.975 3.483-91.992-58.48-91.992-117.48 0-66.546 44.033-110.227 113.132-111.821 95.305-2.182 130.306 51.098 130.306 117.644z" style="marker:none" fill="#6ea827" overflow="visible"/></clipPath><clipPath id="P"><path d="M97.162 268.957C76.144 373.56 33.602 387.655-6.382 385.95c-7.714-.33-7.37 1.232-16.095.101-7.608-.985-20.867-6.02-28.544-5.438-45.962 3.484-90.01-58.48-90.01-117.48 0-66.546 43.085-110.226 110.695-111.82C62.916 149.13 97.162 202.41 97.162 268.957z" style="marker:none" fill="#6ea827" overflow="visible"/></clipPath><clipPath id="R"><path d="M95.242 274.246C74.748 373.187 33.265 386.52-5.723 384.906c-7.523-.31-7.186 1.166-15.695.097-7.418-.932-20.347-5.694-27.832-5.144-44.818 3.295-87.769-55.315-87.769-111.122 0-62.944 42.012-104.26 107.939-105.768 90.928-2.064 124.322 48.333 124.322 111.277z" style="marker:none" fill="#6ea827" overflow="visible"/></clipPath><clipPath id="U"><path d="M100.843 272.892C79.363 377.495 35.883 391.59-4.981 389.885c-7.885-.329-7.532 1.232-16.45.102-7.776-.986-21.326-6.02-29.172-5.438-46.975 3.483-91.992-58.48-91.992-117.48 0-66.546 44.033-110.227 113.132-111.821 95.305-2.182 130.306 51.098 130.306 117.644z" style="marker:none" fill="#6ea827" overflow="visible"/></clipPath><filter color-interpolation-filters="sRGB" id="T"><feGaussianBlur stdDeviation="5.807"/></filter><filter color-interpolation-filters="sRGB" id="W"><feGaussianBlur stdDeviation="2.94"/></filter><filter color-interpolation-filters="sRGB" id="Q" height="1.238" y="-.119" width="1.184" x="-.092"><feGaussianBlur stdDeviation="10.988"/></filter><linearGradient id="j"><stop offset="0" stop-color="#da0b1c"/><stop offset="1" stop-color="#7b2c27" stop-opacity="0"/></linearGradient><linearGradient id="i"><stop offset="0" stop-color="#ffc74b"/><stop offset=".738" stop-color="#d68565"/><stop offset="1" stop-color="#c0161b"/></linearGradient><linearGradient id="a"><stop offset="0" stop-color="#fff"/><stop offset="1" stop-color="#fff" stop-opacity="0"/></linearGradient><linearGradient id="b"><stop offset="0" stop-color="#1d3300"/><stop offset=".496" stop-color="#68a02c" stop-opacity=".237"/><stop offset="1" stop-color="#61a334" stop-opacity="0"/></linearGradient><linearGradient id="h"><stop offset="0" stop-color="#fff"/><stop offset="1" stop-color="#fff" stop-opacity="0"/></linearGradient><linearGradient id="g"><stop offset="0" stop-color="#fff"/><stop offset="1" stop-color="#fff" stop-opacity="0"/></linearGradient><linearGradient id="f"><stop offset="0"/><stop offset="1" stop-opacity="0"/></linearGradient><pattern patternTransform="matrix(.59 0 0 .41356 162.616 -160.559)" id="l" xlink:href="#k"/><pattern patternTransform="matrix(.59 0 0 .41356 1.724 5.44)" id="d" xlink:href="#l"/><linearGradient id="c"><stop offset="0" stop-color="#f8f8f8"/><stop offset="1" stop-color="#f8f8f8" stop-opacity="0"/></linearGradient><radialGradient xlink:href="#b" id="al" gradientUnits="userSpaceOnUse" gradientTransform="matrix(-.0179 -1.17689 2.37216 -.03448 134.989 46.135)" cx="-81.082" cy="44.942" fx="-81.082" fy="44.942" r="44.556"/><radialGradient xlink:href="#h" id="am" gradientUnits="userSpaceOnUse" gradientTransform="matrix(-1.33662 -.1035 .02705 -.2176 472.637 188.555)" cx="203.995" cy="148.681" fx="203.995" fy="148.681" r="41.193"/><linearGradient xlink:href="#g" id="ao" gradientUnits="userSpaceOnUse" x1="220.901" y1="99.834" x2="225.372" y2="101.953"/><radialGradient xlink:href="#b" id="at" gradientUnits="userSpaceOnUse" gradientTransform="matrix(-.0179 -1.17689 2.37216 -.03448 134.989 46.135)" cx="-81.082" cy="44.942" fx="-81.082" fy="44.942" r="44.556"/><radialGradient xlink:href="#h" id="au" gradientUnits="userSpaceOnUse" gradientTransform="matrix(-1.33662 -.1035 .02705 -.2176 472.637 188.555)" cx="203.995" cy="148.681" fx="203.995" fy="148.681" r="41.193"/><linearGradient xlink:href="#g" id="aw" gradientUnits="userSpaceOnUse" x1="220.901" y1="99.834" x2="225.372" y2="101.953"/><radialGradient xlink:href="#b" id="aD" gradientUnits="userSpaceOnUse" gradientTransform="matrix(-.0179 -1.17689 2.37216 -.03448 134.989 46.135)" cx="-81.082" cy="44.942" fx="-81.082" fy="44.942" r="44.556"/><radialGradient xlink:href="#h" id="aE" gradientUnits="userSpaceOnUse" gradientTransform="matrix(-1.33662 -.1035 .02705 -.2176 472.637 188.555)" cx="203.995" cy="148.681" fx="203.995" fy="148.681" r="41.193"/><linearGradient xlink:href="#g" id="aG" gradientUnits="userSpaceOnUse" x1="220.901" y1="99.834" x2="225.372" y2="101.953"/><linearGradient id="s"><stop offset="0" stop-color="#f8f8f8"/><stop offset="1" stop-color="#f8f8f8" stop-opacity="0"/></linearGradient><pattern patternTransform="matrix(.59 0 0 .41356 1.724 5.44)" id="x" xlink:href="#u"/><pattern patternTransform="matrix(.59 0 0 .41356 162.616 -160.559)" id="u" xlink:href="#v"/><linearGradient id="n"><stop offset="0"/><stop offset="1" stop-opacity="0"/></linearGradient><linearGradient id="m"><stop offset="0" stop-color="#fff"/><stop offset="1" stop-color="#fff" stop-opacity="0"/></linearGradient><linearGradient id="o"><stop offset="0" stop-color="#fff"/><stop offset="1" stop-color="#fff" stop-opacity="0"/></linearGradient><linearGradient id="p"><stop offset="0" stop-color="#1d3300"/><stop offset=".496" stop-color="#68a02c" stop-opacity=".237"/><stop offset="1" stop-color="#61a334" stop-opacity="0"/></linearGradient><linearGradient id="q"><stop offset="0" stop-color="#fff"/><stop offset="1" stop-color="#fff" stop-opacity="0"/></linearGradient><linearGradient id="t"><stop offset="0" stop-color="#ffc74b"/><stop offset=".738" stop-color="#d68565"/><stop offset="1" stop-color="#c0161b"/></linearGradient><linearGradient id="r"><stop offset="0" stop-color="#da0b1c"/><stop offset="1" stop-color="#7b2c27" stop-opacity="0"/></linearGradient><pattern id="v" patternTransform="translate(163.814 -152.846)" height="46.659" width="55.733" patternUnits="userSpaceOnUse"><path style="marker:none" d="M-278.719-209.706a2.886 7.834 0 1 1-5.772 0 2.886 7.834 0 1 1 5.772 0z" transform="matrix(.74092 0 0 .45974 262.242 100.965)" overflow="visible" color="#000" fill="#d7eb90" fill-rule="evenodd" stroke-width="1.584"/><path style="marker:none" d="M-278.719-209.706a2.886 7.834 0 1 1-5.772 0 2.886 7.834 0 1 1 5.772 0z" transform="matrix(.74092 0 0 .45974 253.164 126.803)" overflow="visible" color="#000" fill="#d7eb90" fill-rule="evenodd" stroke-width="1.584"/><path transform="matrix(.74092 0 0 .45974 241.636 111.216)" d="M-278.719-209.706a2.886 7.834 0 1 1-5.772 0 2.886 7.834 0 1 1 5.772 0z" style="marker:none" overflow="visible" color="#000" fill="#d7eb90" fill-rule="evenodd" stroke-width="1.584"/><path style="marker:none" d="M-278.719-209.706a2.886 7.834 0 1 1-5.772 0 2.886 7.834 0 1 1 5.772 0z" transform="matrix(.74092 0 0 .45974 219.229 100.012)" overflow="visible" color="#000" fill="#d7eb90" fill-rule="evenodd" stroke-width="1.584"/><path transform="matrix(.74092 0 0 .45974 236.44 139.468)" d="M-278.719-209.706a2.886 7.834 0 1 1-5.772 0 2.886 7.834 0 1 1 5.772 0z" style="marker:none" overflow="visible" color="#000" fill="#d7eb90" fill-rule="evenodd" stroke-width="1.584"/><path style="marker:none" d="M-278.719-209.706a2.886 7.834 0 1 1-5.772 0 2.886 7.834 0 1 1 5.772 0z" transform="matrix(.74092 0 0 .45974 210.786 125.504)" overflow="visible" color="#000" fill="#d7eb90" fill-rule="evenodd" stroke-width="1.584"/><path transform="matrix(.74092 0 0 .45974 210.786 125.504)" d="M-278.719-209.706a2.886 7.834 0 1 1-5.772 0 2.886 7.834 0 1 1 5.772 0z" style="marker:none" overflow="visible" color="#000" fill="#d7eb90" fill-rule="evenodd" stroke-width="1.584"/></pattern><radialGradient cx="-81.082" cy="44.942" r="44.556" fx="-81.082" fy="44.942" id="w" xlink:href="#p" gradientUnits="userSpaceOnUse" gradientTransform="matrix(-.0146 -.9602 1.93539 -.02813 127.596 52.018)"/><radialGradient xlink:href="#i" id="az" gradientUnits="userSpaceOnUse" gradientTransform="matrix(.18752 .97812 -.90903 .17428 237.704 251.613)" cx="-44.642" cy="283.906" fx="-44.642" fy="283.906" r="121.719"/><linearGradient xlink:href="#c" id="aA" gradientUnits="userSpaceOnUse" x1="-134.763" y1="343.28" x2="-66.758" y2="311.953"/><linearGradient xlink:href="#j" id="aB" gradientUnits="userSpaceOnUse" x1="-24.924" y1="174.783" x2="-28.859" y2="272.923"/><linearGradient xlink:href="#a" id="aC" gradientUnits="userSpaceOnUse" x1="-47.224" y1="206.266" x2="-51.159" y2="295.467"/><linearGradient xlink:href="#f" id="aF" gradientUnits="userSpaceOnUse" gradientTransform="translate(-.135 -.809)" x1="211.025" y1="147.261" x2="243.95" y2="109.285"/><radialGradient xlink:href="#i" id="ah" gradientUnits="userSpaceOnUse" gradientTransform="matrix(.18752 .97812 -.90903 .17428 237.704 251.613)" cx="-44.642" cy="283.906" fx="-44.642" fy="283.906" r="121.719"/><linearGradient xlink:href="#c" id="ai" gradientUnits="userSpaceOnUse" x1="-134.763" y1="343.28" x2="-66.758" y2="311.953"/><linearGradient xlink:href="#j" id="aj" gradientUnits="userSpaceOnUse" x1="-24.924" y1="174.783" x2="-28.859" y2="272.923"/><linearGradient xlink:href="#a" id="ak" gradientUnits="userSpaceOnUse" x1="-47.224" y1="206.266" x2="-51.159" y2="295.467"/><linearGradient xlink:href="#f" id="an" gradientUnits="userSpaceOnUse" gradientTransform="translate(-.135 -.809)" x1="211.025" y1="147.261" x2="243.95" y2="109.285"/><radialGradient xlink:href="#i" id="ap" gradientUnits="userSpaceOnUse" gradientTransform="matrix(.18752 .97812 -.90903 .17428 237.704 251.613)" cx="-44.642" cy="283.906" fx="-44.642" fy="283.906" r="121.719"/><linearGradient xlink:href="#c" id="aq" gradientUnits="userSpaceOnUse" x1="-134.763" y1="343.28" x2="-66.758" y2="311.953"/><linearGradient xlink:href="#j" id="ar" gradientUnits="userSpaceOnUse" x1="-24.924" y1="174.783" x2="-28.859" y2="272.923"/><linearGradient xlink:href="#a" id="as" gradientUnits="userSpaceOnUse" x1="-47.224" y1="206.266" x2="-51.159" y2="295.467"/><linearGradient xlink:href="#f" id="av" gradientUnits="userSpaceOnUse" gradientTransform="translate(-.135 -.809)" x1="211.025" y1="147.261" x2="243.95" y2="109.285"/><radialGradient xlink:href="#i" id="N" gradientUnits="userSpaceOnUse" gradientTransform="matrix(.18752 .97812 -.90903 .17428 237.704 251.613)" cx="-44.642" cy="283.906" fx="-44.642" fy="283.906" r="121.719"/><linearGradient xlink:href="#c" id="O" gradientUnits="userSpaceOnUse" x1="-134.763" y1="343.28" x2="-66.758" y2="311.953"/><linearGradient xlink:href="#j" id="S" gradientUnits="userSpaceOnUse" x1="-24.924" y1="174.783" x2="-28.859" y2="272.923"/><linearGradient xlink:href="#a" id="V" gradientUnits="userSpaceOnUse" x1="-47.224" y1="206.266" x2="-51.159" y2="295.467"/><radialGradient xlink:href="#b" id="X" gradientUnits="userSpaceOnUse" gradientTransform="matrix(-.0179 -1.17689 2.37216 -.03448 134.989 46.135)" cx="-81.082" cy="44.942" fx="-81.082" fy="44.942" r="44.556"/><radialGradient xlink:href="#h" id="Z" gradientUnits="userSpaceOnUse" gradientTransform="matrix(-1.33662 -.1035 .02705 -.2176 472.637 188.555)" cx="203.995" cy="148.681" fx="203.995" fy="148.681" r="41.193"/><linearGradient xlink:href="#f" id="ab" gradientUnits="userSpaceOnUse" gradientTransform="translate(-.135 -.809)" x1="211.025" y1="147.261" x2="243.95" y2="109.285"/><linearGradient xlink:href="#g" id="af" gradientUnits="userSpaceOnUse" x1="220.901" y1="99.834" x2="225.372" y2="101.953"/><linearGradient id="E"><stop offset="0" stop-color="#f8f8f8"/><stop offset="1" stop-color="#f8f8f8" stop-opacity="0"/></linearGradient><pattern patternTransform="matrix(.59 0 0 .41356 1.724 5.44)" id="J" xlink:href="#G"/><pattern patternTransform="matrix(.59 0 0 .41356 162.616 -160.559)" id="G" xlink:href="#H"/><linearGradient id="z"><stop offset="0"/><stop offset="1" stop-opacity="0"/></linearGradient><linearGradient id="y"><stop offset="0" stop-color="#fff"/><stop offset="1" stop-color="#fff" stop-opacity="0"/></linearGradient><linearGradient id="A"><stop offset="0" stop-color="#fff"/><stop offset="1" stop-color="#fff" stop-opacity="0"/></linearGradient><linearGradient id="B"><stop offset="0" stop-color="#1d3300"/><stop offset=".496" stop-color="#68a02c" stop-opacity=".237"/><stop offset="1" stop-color="#61a334" stop-opacity="0"/></linearGradient><linearGradient id="C"><stop offset="0" stop-color="#fff"/><stop offset="1" stop-color="#fff" stop-opacity="0"/></linearGradient><linearGradient id="F"><stop offset="0" stop-color="#ffc74b"/><stop offset=".738" stop-color="#d68565"/><stop offset="1" stop-color="#c0161b"/></linearGradient><linearGradient id="D"><stop offset="0" stop-color="#da0b1c"/><stop offset="1" stop-color="#7b2c27" stop-opacity="0"/></linearGradient><pattern id="H" patternTransform="translate(163.814 -152.846)" height="46.659" width="55.733" patternUnits="userSpaceOnUse"><path style="marker:none" d="M-278.719-209.706a2.886 7.834 0 1 1-5.772 0 2.886 7.834 0 1 1 5.772 0z" transform="matrix(.74092 0 0 .45974 262.242 100.965)" overflow="visible" color="#000" fill="#d7eb90" fill-rule="evenodd" stroke-width="1.584"/><path style="marker:none" d="M-278.719-209.706a2.886 7.834 0 1 1-5.772 0 2.886 7.834 0 1 1 5.772 0z" transform="matrix(.74092 0 0 .45974 253.164 126.803)" overflow="visible" color="#000" fill="#d7eb90" fill-rule="evenodd" stroke-width="1.584"/><path transform="matrix(.74092 0 0 .45974 241.636 111.216)" d="M-278.719-209.706a2.886 7.834 0 1 1-5.772 0 2.886 7.834 0 1 1 5.772 0z" style="marker:none" overflow="visible" color="#000" fill="#d7eb90" fill-rule="evenodd" stroke-width="1.584"/><path style="marker:none" d="M-278.719-209.706a2.886 7.834 0 1 1-5.772 0 2.886 7.834 0 1 1 5.772 0z" transform="matrix(.74092 0 0 .45974 219.229 100.012)" overflow="visible" color="#000" fill="#d7eb90" fill-rule="evenodd" stroke-width="1.584"/><path transform="matrix(.74092 0 0 .45974 236.44 139.468)" d="M-278.719-209.706a2.886 7.834 0 1 1-5.772 0 2.886 7.834 0 1 1 5.772 0z" style="marker:none" overflow="visible" color="#000" fill="#d7eb90" fill-rule="evenodd" stroke-width="1.584"/><path style="marker:none" d="M-278.719-209.706a2.886 7.834 0 1 1-5.772 0 2.886 7.834 0 1 1 5.772 0z" transform="matrix(.74092 0 0 .45974 210.786 125.504)" overflow="visible" color="#000" fill="#d7eb90" fill-rule="evenodd" stroke-width="1.584"/><path transform="matrix(.74092 0 0 .45974 210.786 125.504)" d="M-278.719-209.706a2.886 7.834 0 1 1-5.772 0 2.886 7.834 0 1 1 5.772 0z" style="marker:none" overflow="visible" color="#000" fill="#d7eb90" fill-rule="evenodd" stroke-width="1.584"/></pattern><radialGradient cx="-81.082" cy="44.942" r="44.556" fx="-81.082" fy="44.942" id="I" xlink:href="#B" gradientUnits="userSpaceOnUse" gradientTransform="matrix(-.0146 -.9602 1.93539 -.02813 127.596 52.018)"/></defs><path fill="#fff" stroke="#fff" stroke-width=".156" d="M20.768 166.65h1010.827v410.794H20.768z"/><g ns0:preamble="/home/waldgeist/data/sphinx/test.tex" ns0:text="+" transform="matrix(9.71979 0 0 9.71979 -2105.367 -917.537)"><defs><symbol id="K" overflow="visible"><path d="M4.078-2.297H6.86c.141 0 .329 0 .329-.203 0-.188-.188-.188-.329-.188H4.08v-2.796c0-.141 0-.329-.204-.329-.203 0-.203.188-.203.329v2.796H.89c-.141 0-.329 0-.329.188 0 .203.188.203.329.203h2.78V.5c0 .14 0 .328.204.328.203 0 .203-.187.203-.328zm0 0"/></symbol></defs><use y="134.765" x="223.432" xlink:href="#K" width="1052.362" height="744.094"/></g><g ns0:text="=" ns0:preamble="/home/waldgeist/data/sphinx/test.tex" transform="matrix(9.71979 0 0 9.71979 -1705.668 -917.537)"><defs><symbol overflow="visible" id="L"><path d="M6.844-3.266c.156 0 .343 0 .343-.187 0-.203-.187-.203-.328-.203H.891c-.141 0-.329 0-.329.203 0 .187.188.187.329.187zm.015 1.938c.141 0 .329 0 .329-.203 0-.188-.188-.188-.344-.188H.89c-.141 0-.329 0-.329.188 0 .203.188.203.329.203zm0 0"/></symbol></defs><use height="744.094" width="1052.362" xlink:href="#L" x="223.432" y="134.765"/></g><g transform="translate(123.313 -436.927)"><g id="ag"><path d="M100.843 272.892C87.545 378.846 35.883 391.59-4.981 389.885c-7.885-.329-7.532 1.232-16.45.102-7.776-.986-21.326-6.02-29.172-5.438-46.975 3.483-91.992-58.48-91.992-117.48 0-66.546 44.033-110.227 113.132-111.821 95.305-2.182 138.593 51.616 130.306 117.644z" transform="matrix(.15327 0 0 .15327 103.775 648.843)" clip-path="url(#M)" style="marker:none" fill="url(#N)" stroke="url(#O)" stroke-width="3.203" stroke-opacity=".301" overflow="visible"/><path d="M92.378 214.65c3.1 12.07 4.53 25.046 4.53 38.563-21.48 104.602-64.947 118.705-105.812 117-7.884-.33-7.55 1.224-16.468.094-7.776-.986-21.31-6.02-29.157-5.438-29.224 2.167-57.69-21.01-75.03-53.031 49.884 176.383 257.542 8.182 221.937-97.188z" transform="matrix(.15664 0 0 .15327 104.01 649.446)" clip-path="url(#P)" style="marker:none" opacity=".477" fill="#241f1c" overflow="visible" filter="url(#Q)"/><path d="M-86.577 173.472c-6.701-.913-11.022 5.774-15.742 10.494-5.626 5.627-12.1 9.77-15.74 17.053-3.483 6.965-6.974 8.7-10.495 15.741-2.556 5.111-1.312 13.59-1.312 19.677v19.677c0 8.2-.672 12.446 3.935 17.053 6.87 6.869 5.248-8.807 5.248-14.43 0-8.495.481-12.288 5.247-17.053 5.787-5.788 14.35-8.868 11.806 1.312-1.893 7.57-1.574 12.595 1.311 18.365 3.071 6.141 6.14 8.29 11.806 2.623 5.334-5.334-1.396-10.579 6.56-2.623 5.255 5.255 8.413 11.014 15.74 9.182 6.968-1.742 5.097-9.182 17.054-9.182 8.965 0 8.05 3.935 15.741 3.935 11.333 0 10.82.652 14.43 7.87 3.952 7.905 7.301 8.614 11.806 13.118 5.663 5.664 8.708 2.751 11.806 10.495 1.837 4.593 8.281-6.07 10.494-10.495 3.541-7.083 11.39-11.494 17.053-15.74 3.635-2.728 7.665 2.828 14.43-3.936 6.522-6.522 13.335-1.094 17.053 2.623 1.96 1.96 16.56 0 19.676 0 5.103 0 6.56-9.146 6.56-14.43 0-5.683-2.995-12.547-5.248-17.052-2.815-5.63-3.962-13.171-6.559-18.365l-7.87-15.742c-3.378-6.755-8.219-9.53-11.807-13.117-3.752-3.752-5.893-8.517-9.182-11.806-5.401-5.402-7.408-6.56-15.741-6.56-6.267 0-14.084-.24-18.365-1.311-7.168-1.792-9.535-2.144-15.742-5.247-5.728-2.864-5.673-5.247-14.43-5.247h-39.352c-7.808 0-10.69 5.442-14.43 9.182-3.346 3.346-11.33 3.936-15.741 3.936z" transform="matrix(.16064 0 0 .16204 103.93 646.23)" clip-path="url(#R)" style="marker:none" fill="url(#S)" stroke-width=".998" overflow="visible" filter="url(#T)"/><path d="M-97.072 237.749c-2.436 2.89-5.36 11.352-3.935 17.053 2.488 9.95 1.563 10.026 9.183 15.741 4.888 3.666 4.65 8.884 10.494 11.806 2.431 1.216 2.623-14.62 2.623-17.053 0-4.128 5.247-6.538 5.247-14.43 0-8.835.196-11.61-3.935-15.74-2.875-2.876-17.745 1.85-19.677 2.623zm52.472-3.936c-3.651-3.65-4.706 15.284-3.936 18.365 2.476 9.904 7.87 6.733 7.87 18.365 0 9.44.89 10.072 5.248 14.43 4.41 4.41 10.106 3.51 17.053 5.247 7.33 1.832 12.21 5.247 19.677 5.247 8.534 0 13.327-4.04 20.988-7.87 2.259-1.13 6.374-14.245 7.87-15.742 3.34-3.339-2.623-15.132-2.623-18.365 0-7.51 1.312-10.866 1.312-18.365 0-4.647-10.873-9.277-15.741-10.494-5.623-1.406-15.607 1.312-22.3 1.312-7.075 0-12.452 2.623-19.677 2.623-8.658 0-8.434 1.594-15.741 5.247z" transform="matrix(.09113 0 0 .09113 100.677 664.99)" clip-path="url(#U)" opacity=".358" fill="url(#V)" fill-rule="evenodd" filter="url(#W)"/><path d="M190.084 129.034s24.656 18.678 66.282 14.416c41.854-4.314 49.988-12.324 49.988-12.324 34.96-38.709-166.934-30.815-116.27-2.092z" fill="url(#X)" fill-rule="evenodd" transform="matrix(.12505 0 0 .12505 70.06 660.697)"/><path d="M207.502 98.429s-30.549 10.951-18.444 9.798c22.788-7.791 52.043-6.13 74.93 1.73-17.05-14.484-33.606-12.765-56.486-11.528z" transform="matrix(.17994 .021 -.01669 .22638 63.68 646.544)" style="marker:none" opacity=".185" fill="#fff" fill-rule="evenodd" stroke-width="1.584" overflow="visible" filter="url(#Y)"/><path d="M186.031 121.656c-6.706-1.044-15.379 6.991-7.406 12.063 10.904 5.912 23.63 7.127 35.906 6.702 14.628.43 30.155-1.115 42.625-9.077 2.815-6.069-4.015-2.731-7.594-1.531-12.974 3.438-26.759 3.777-40.183 3.534-7.024-.74-15.233-1.984-21.098-5.19 1.274-2.356.96-6.48-2.25-6.5z" transform="matrix(.21567 0 0 .27327 53.593 642.835)" opacity=".465" fill="url(#Z)" fill-rule="evenodd" filter="url(#Y)"/><path d="M223.087 127.663l6.605-11.188s2.965-7.818 10.11-11.053c7.144-3.235 12.805-2.292 12.805-2.292l7.414 6.336s-10.784-2.696-22.51 9.3c-11.728 11.998-19.007 16.176-19.007 16.176-1.857-2.817-3.509 4.88 4.583-7.279z" transform="rotate(-3.744 10160.713 -671.86) scale(.15327)" clip-path="url(#aa)" fill="url(#ab)" fill-rule="evenodd" filter="url(#ac)"/><g transform="matrix(.15327 0 0 .15327 67.053 658.576)" clip-path="url(#ad)" fill-rule="evenodd"><path d="M214.703 131.117l6.077.246c-2.534 1.72 4.834-35.35 16.015-42.74 4.832-3.194-1.203-12.315-3.82-10.933 0 0-6.471 4.67-7.231 8.094-.76 3.423-6.719 17.603-8.131 27.845-1.412 10.243-2.563 14.888-2.91 17.488z" fill="#372a07"/><path d="M233.13 78.205c-.129.094-1.515 1.101-3.09 2.577-1.648 1.544-3.284 3.574-3.544 4.745-.442 1.994-2.094 6.279-3.85 11.51-1.757 5.23-3.61 11.288-4.298 16.269-1.318 9.563-2.492 14.888-2.902 17.479l2.641.139c-.008-.98.784-3.487 1.03-5.117.518-3.416 1.543-8.168 3.015-13.2 1.472-5.033 3.381-10.35 5.645-14.923 2.265-4.573 4.873-8.407 7.989-10.467.905-.599 1.246-1.355 1.305-2.376.058-1.021-.006-2.832-.558-3.958-.552-1.125-1.593-1.589-2.285-2.163-.347-.288-.678-.461-.875-.522-.197-.06-.21 0-.224.007z" fill="#db9b1e" fill-opacity=".411" filter="url(#ae)"/><path d="M233.009 80.086c-1.934 1.568-4.246 3.001-5.287 5.35-4.085 10.784-3.952 12.262-6.11 18.326-1.222 4.928-2.08 9.942-3.068 14.922-.734 3.877-1.447 7.757-2.151 11.639 1.237.796.817-3.063 1.543-4.41 1.84-14.181 5.33-27.656 10.86-39.627 1.29-2.31 3.606-3.78 5.555-5.454-.138-.508-1.008-.385-1.342-.746z" opacity=".262" fill="url(#af)"/></g></g><use xlink:href="#ag" transform="translate(39.231)" width="744.094" height="1052.362"/><use xlink:href="#ag" transform="translate(79.97)" width="744.094" height="1052.362"/><use xlink:href="#ag" transform="translate(120.352)" width="744.094" height="1052.362"/><use xlink:href="#ag" transform="translate(159.957)" width="744.094" height="1052.362"/><g fill="#a05a2c" stroke="#784421"><path stroke-width="1.314" d="M97.48 231.095h339.411v48.813H97.48z" transform="matrix(.61549 0 0 .40666 16.096 600.207)"/><path stroke-width="1.943" d="M91.314 281.616h351.743v10.102H91.314z" transform="matrix(.61549 0 0 .40666 16.096 600.207)"/></g></g><g transform="translate(123.313 -326.766)"><path style="marker:none" clip-path="url(#M)" transform="matrix(.15327 0 0 .15327 103.775 648.843)" d="M100.843 272.892C87.545 378.846 35.883 391.59-4.981 389.885c-7.885-.329-7.532 1.232-16.45.102-7.776-.986-21.326-6.02-29.172-5.438-46.975 3.483-91.992-58.48-91.992-117.48 0-66.546 44.033-110.227 113.132-111.821 95.305-2.182 138.593 51.616 130.306 117.644z" fill="url(#ah)" stroke="url(#ai)" stroke-width="3.203" stroke-opacity=".301" overflow="visible"/><path style="marker:none" clip-path="url(#P)" transform="matrix(.15664 0 0 .15327 104.01 649.446)" d="M92.378 214.65c3.1 12.07 4.53 25.046 4.53 38.563-21.48 104.602-64.947 118.705-105.812 117-7.884-.33-7.55 1.224-16.468.094-7.776-.986-21.31-6.02-29.157-5.438-29.224 2.167-57.69-21.01-75.03-53.031 49.884 176.383 257.542 8.182 221.937-97.188z" opacity=".477" fill="#241f1c" overflow="visible" filter="url(#Q)"/><path style="marker:none" clip-path="url(#R)" transform="matrix(.16064 0 0 .16204 103.93 646.23)" d="M-86.577 173.472c-6.701-.913-11.022 5.774-15.742 10.494-5.626 5.627-12.1 9.77-15.74 17.053-3.483 6.965-6.974 8.7-10.495 15.741-2.556 5.111-1.312 13.59-1.312 19.677v19.677c0 8.2-.672 12.446 3.935 17.053 6.87 6.869 5.248-8.807 5.248-14.43 0-8.495.481-12.288 5.247-17.053 5.787-5.788 14.35-8.868 11.806 1.312-1.893 7.57-1.574 12.595 1.311 18.365 3.071 6.141 6.14 8.29 11.806 2.623 5.334-5.334-1.396-10.579 6.56-2.623 5.255 5.255 8.413 11.014 15.74 9.182 6.968-1.742 5.097-9.182 17.054-9.182 8.965 0 8.05 3.935 15.741 3.935 11.333 0 10.82.652 14.43 7.87 3.952 7.905 7.301 8.614 11.806 13.118 5.663 5.664 8.708 2.751 11.806 10.495 1.837 4.593 8.281-6.07 10.494-10.495 3.541-7.083 11.39-11.494 17.053-15.74 3.635-2.728 7.665 2.828 14.43-3.936 6.522-6.522 13.335-1.094 17.053 2.623 1.96 1.96 16.56 0 19.676 0 5.103 0 6.56-9.146 6.56-14.43 0-5.683-2.995-12.547-5.248-17.052-2.815-5.63-3.962-13.171-6.559-18.365l-7.87-15.742c-3.378-6.755-8.219-9.53-11.807-13.117-3.752-3.752-5.893-8.517-9.182-11.806-5.401-5.402-7.408-6.56-15.741-6.56-6.267 0-14.084-.24-18.365-1.311-7.168-1.792-9.535-2.144-15.742-5.247-5.728-2.864-5.673-5.247-14.43-5.247h-39.352c-7.808 0-10.69 5.442-14.43 9.182-3.346 3.346-11.33 3.936-15.741 3.936z" fill="url(#aj)" overflow="visible" filter="url(#T)"/><path clip-path="url(#U)" transform="matrix(.09113 0 0 .09113 100.677 664.99)" d="M-97.072 237.749c-2.436 2.89-5.36 11.352-3.935 17.053 2.488 9.95 1.563 10.026 9.183 15.741 4.888 3.666 4.65 8.884 10.494 11.806 2.431 1.216 2.623-14.62 2.623-17.053 0-4.128 5.247-6.538 5.247-14.43 0-8.835.196-11.61-3.935-15.74-2.875-2.876-17.745 1.85-19.677 2.623zm52.472-3.936c-3.651-3.65-4.706 15.284-3.936 18.365 2.476 9.904 7.87 6.733 7.87 18.365 0 9.44.89 10.072 5.248 14.43 4.41 4.41 10.106 3.51 17.053 5.247 7.33 1.832 12.21 5.247 19.677 5.247 8.534 0 13.327-4.04 20.988-7.87 2.259-1.13 6.374-14.245 7.87-15.742 3.34-3.339-2.623-15.132-2.623-18.365 0-7.51 1.312-10.866 1.312-18.365 0-4.647-10.873-9.277-15.741-10.494-5.623-1.406-15.607 1.312-22.3 1.312-7.075 0-12.452 2.623-19.677 2.623-8.658 0-8.434 1.594-15.741 5.247z" opacity=".358" fill="url(#ak)" fill-rule="evenodd" filter="url(#W)"/><path d="M190.084 129.034s24.656 18.678 66.282 14.416c41.854-4.314 49.988-12.324 49.988-12.324 34.96-38.709-166.934-30.815-116.27-2.092z" fill="url(#al)" fill-rule="evenodd" transform="matrix(.12505 0 0 .12505 70.06 660.697)"/><path style="marker:none" transform="matrix(.17994 .021 -.01669 .22638 63.68 646.544)" d="M207.502 98.429s-30.549 10.951-18.444 9.798c22.788-7.791 52.043-6.13 74.93 1.73-17.05-14.484-33.606-12.765-56.486-11.528z" opacity=".185" fill="#fff" fill-rule="evenodd" overflow="visible" filter="url(#Y)"/><path transform="matrix(.21567 0 0 .27327 53.593 642.835)" d="M186.031 121.656c-6.706-1.044-15.379 6.991-7.406 12.063 10.904 5.912 23.63 7.127 35.906 6.702 14.628.43 30.155-1.115 42.625-9.077 2.815-6.069-4.015-2.731-7.594-1.531-12.974 3.438-26.759 3.777-40.183 3.534-7.024-.74-15.233-1.984-21.098-5.19 1.274-2.356.96-6.48-2.25-6.5z" opacity=".465" fill="url(#am)" fill-rule="evenodd" filter="url(#Y)"/><path clip-path="url(#aa)" transform="rotate(-3.744 10160.713 -671.86) scale(.15327)" d="M223.087 127.663l6.605-11.188s2.965-7.818 10.11-11.053c7.144-3.235 12.805-2.292 12.805-2.292l7.414 6.336s-10.784-2.696-22.51 9.3c-11.728 11.998-19.007 16.176-19.007 16.176-1.857-2.817-3.509 4.88 4.583-7.279z" fill="url(#an)" fill-rule="evenodd" filter="url(#ac)"/><g clip-path="url(#ad)" transform="matrix(.15327 0 0 .15327 67.053 658.576)" fill-rule="evenodd"><path d="M214.703 131.117l6.077.246c-2.534 1.72 4.834-35.35 16.015-42.74 4.832-3.194-1.203-12.315-3.82-10.933 0 0-6.471 4.67-7.231 8.094-.76 3.423-6.719 17.603-8.131 27.845-1.412 10.243-2.563 14.888-2.91 17.488z" fill="#372a07"/><path d="M233.13 78.205c-.129.094-1.515 1.101-3.09 2.577-1.648 1.544-3.284 3.574-3.544 4.745-.442 1.994-2.094 6.279-3.85 11.51-1.757 5.23-3.61 11.288-4.298 16.269-1.318 9.563-2.492 14.888-2.902 17.479l2.641.139c-.008-.98.784-3.487 1.03-5.117.518-3.416 1.543-8.168 3.015-13.2 1.472-5.033 3.381-10.35 5.645-14.923 2.265-4.573 4.873-8.407 7.989-10.467.905-.599 1.246-1.355 1.305-2.376.058-1.021-.006-2.832-.558-3.958-.552-1.125-1.593-1.589-2.285-2.163-.347-.288-.678-.461-.875-.522-.197-.06-.21 0-.224.007z" fill="#db9b1e" fill-opacity=".411" filter="url(#ae)"/><path d="M233.009 80.086c-1.934 1.568-4.246 3.001-5.287 5.35-4.085 10.784-3.952 12.262-6.11 18.326-1.222 4.928-2.08 9.942-3.068 14.922-.734 3.877-1.447 7.757-2.151 11.639 1.237.796.817-3.063 1.543-4.41 1.84-14.181 5.33-27.656 10.86-39.627 1.29-2.31 3.606-3.78 5.555-5.454-.138-.508-1.008-.385-1.342-.746z" opacity=".262" fill="url(#ao)"/></g><use height="1052.362" width="744.094" transform="translate(39.231)" xlink:href="#ag"/><use height="1052.362" width="744.094" transform="translate(79.97)" xlink:href="#ag"/><use height="1052.362" width="744.094" transform="translate(120.352)" xlink:href="#ag"/><use height="1052.362" width="744.094" transform="translate(159.957)" xlink:href="#ag"/><g fill="#a05a2c" stroke="#784421"><path stroke-width="1.314" d="M97.48 231.095h339.411v48.813H97.48z" transform="matrix(.61549 0 0 .40666 16.096 600.207)"/><path stroke-width="1.943" d="M91.314 281.616h351.743v10.102H91.314z" transform="matrix(.61549 0 0 .40666 16.096 600.207)"/></g></g><g transform="translate(123.313 -216.605)"><path d="M100.843 272.892C87.545 378.846 35.883 391.59-4.981 389.885c-7.885-.329-7.532 1.232-16.45.102-7.776-.986-21.326-6.02-29.172-5.438-46.975 3.483-91.992-58.48-91.992-117.48 0-66.546 44.033-110.227 113.132-111.821 95.305-2.182 138.593 51.616 130.306 117.644z" transform="matrix(.15327 0 0 .15327 103.775 648.843)" clip-path="url(#M)" style="marker:none" fill="url(#ap)" stroke="url(#aq)" stroke-width="3.203" stroke-opacity=".301" overflow="visible"/><path d="M92.378 214.65c3.1 12.07 4.53 25.046 4.53 38.563-21.48 104.602-64.947 118.705-105.812 117-7.884-.33-7.55 1.224-16.468.094-7.776-.986-21.31-6.02-29.157-5.438-29.224 2.167-57.69-21.01-75.03-53.031 49.884 176.383 257.542 8.182 221.937-97.188z" transform="matrix(.15664 0 0 .15327 104.01 649.446)" clip-path="url(#P)" style="marker:none" opacity=".477" fill="#241f1c" overflow="visible" filter="url(#Q)"/><path d="M-86.577 173.472c-6.701-.913-11.022 5.774-15.742 10.494-5.626 5.627-12.1 9.77-15.74 17.053-3.483 6.965-6.974 8.7-10.495 15.741-2.556 5.111-1.312 13.59-1.312 19.677v19.677c0 8.2-.672 12.446 3.935 17.053 6.87 6.869 5.248-8.807 5.248-14.43 0-8.495.481-12.288 5.247-17.053 5.787-5.788 14.35-8.868 11.806 1.312-1.893 7.57-1.574 12.595 1.311 18.365 3.071 6.141 6.14 8.29 11.806 2.623 5.334-5.334-1.396-10.579 6.56-2.623 5.255 5.255 8.413 11.014 15.74 9.182 6.968-1.742 5.097-9.182 17.054-9.182 8.965 0 8.05 3.935 15.741 3.935 11.333 0 10.82.652 14.43 7.87 3.952 7.905 7.301 8.614 11.806 13.118 5.663 5.664 8.708 2.751 11.806 10.495 1.837 4.593 8.281-6.07 10.494-10.495 3.541-7.083 11.39-11.494 17.053-15.74 3.635-2.728 7.665 2.828 14.43-3.936 6.522-6.522 13.335-1.094 17.053 2.623 1.96 1.96 16.56 0 19.676 0 5.103 0 6.56-9.146 6.56-14.43 0-5.683-2.995-12.547-5.248-17.052-2.815-5.63-3.962-13.171-6.559-18.365l-7.87-15.742c-3.378-6.755-8.219-9.53-11.807-13.117-3.752-3.752-5.893-8.517-9.182-11.806-5.401-5.402-7.408-6.56-15.741-6.56-6.267 0-14.084-.24-18.365-1.311-7.168-1.792-9.535-2.144-15.742-5.247-5.728-2.864-5.673-5.247-14.43-5.247h-39.352c-7.808 0-10.69 5.442-14.43 9.182-3.346 3.346-11.33 3.936-15.741 3.936z" transform="matrix(.16064 0 0 .16204 103.93 646.23)" clip-path="url(#R)" style="marker:none" fill="url(#ar)" overflow="visible" filter="url(#T)"/><path d="M-97.072 237.749c-2.436 2.89-5.36 11.352-3.935 17.053 2.488 9.95 1.563 10.026 9.183 15.741 4.888 3.666 4.65 8.884 10.494 11.806 2.431 1.216 2.623-14.62 2.623-17.053 0-4.128 5.247-6.538 5.247-14.43 0-8.835.196-11.61-3.935-15.74-2.875-2.876-17.745 1.85-19.677 2.623zm52.472-3.936c-3.651-3.65-4.706 15.284-3.936 18.365 2.476 9.904 7.87 6.733 7.87 18.365 0 9.44.89 10.072 5.248 14.43 4.41 4.41 10.106 3.51 17.053 5.247 7.33 1.832 12.21 5.247 19.677 5.247 8.534 0 13.327-4.04 20.988-7.87 2.259-1.13 6.374-14.245 7.87-15.742 3.34-3.339-2.623-15.132-2.623-18.365 0-7.51 1.312-10.866 1.312-18.365 0-4.647-10.873-9.277-15.741-10.494-5.623-1.406-15.607 1.312-22.3 1.312-7.075 0-12.452 2.623-19.677 2.623-8.658 0-8.434 1.594-15.741 5.247z" transform="matrix(.09113 0 0 .09113 100.677 664.99)" clip-path="url(#U)" opacity=".358" fill="url(#as)" fill-rule="evenodd" filter="url(#W)"/><path d="M190.084 129.034s24.656 18.678 66.282 14.416c41.854-4.314 49.988-12.324 49.988-12.324 34.96-38.709-166.934-30.815-116.27-2.092z" fill="url(#at)" fill-rule="evenodd" transform="matrix(.12505 0 0 .12505 70.06 660.697)"/><path d="M207.502 98.429s-30.549 10.951-18.444 9.798c22.788-7.791 52.043-6.13 74.93 1.73-17.05-14.484-33.606-12.765-56.486-11.528z" transform="matrix(.17994 .021 -.01669 .22638 63.68 646.544)" style="marker:none" opacity=".185" fill="#fff" fill-rule="evenodd" overflow="visible" filter="url(#Y)"/><path d="M186.031 121.656c-6.706-1.044-15.379 6.991-7.406 12.063 10.904 5.912 23.63 7.127 35.906 6.702 14.628.43 30.155-1.115 42.625-9.077 2.815-6.069-4.015-2.731-7.594-1.531-12.974 3.438-26.759 3.777-40.183 3.534-7.024-.74-15.233-1.984-21.098-5.19 1.274-2.356.96-6.48-2.25-6.5z" transform="matrix(.21567 0 0 .27327 53.593 642.835)" opacity=".465" fill="url(#au)" fill-rule="evenodd" filter="url(#Y)"/><path d="M223.087 127.663l6.605-11.188s2.965-7.818 10.11-11.053c7.144-3.235 12.805-2.292 12.805-2.292l7.414 6.336s-10.784-2.696-22.51 9.3c-11.728 11.998-19.007 16.176-19.007 16.176-1.857-2.817-3.509 4.88 4.583-7.279z" transform="rotate(-3.744 10160.713 -671.86) scale(.15327)" clip-path="url(#aa)" fill="url(#av)" fill-rule="evenodd" filter="url(#ac)"/><g transform="matrix(.15327 0 0 .15327 67.053 658.576)" clip-path="url(#ad)" fill-rule="evenodd"><path d="M214.703 131.117l6.077.246c-2.534 1.72 4.834-35.35 16.015-42.74 4.832-3.194-1.203-12.315-3.82-10.933 0 0-6.471 4.67-7.231 8.094-.76 3.423-6.719 17.603-8.131 27.845-1.412 10.243-2.563 14.888-2.91 17.488z" fill="#372a07"/><path d="M233.13 78.205c-.129.094-1.515 1.101-3.09 2.577-1.648 1.544-3.284 3.574-3.544 4.745-.442 1.994-2.094 6.279-3.85 11.51-1.757 5.23-3.61 11.288-4.298 16.269-1.318 9.563-2.492 14.888-2.902 17.479l2.641.139c-.008-.98.784-3.487 1.03-5.117.518-3.416 1.543-8.168 3.015-13.2 1.472-5.033 3.381-10.35 5.645-14.923 2.265-4.573 4.873-8.407 7.989-10.467.905-.599 1.246-1.355 1.305-2.376.058-1.021-.006-2.832-.558-3.958-.552-1.125-1.593-1.589-2.285-2.163-.347-.288-.678-.461-.875-.522-.197-.06-.21 0-.224.007z" fill="#db9b1e" fill-opacity=".411" filter="url(#ae)"/><path d="M233.009 80.086c-1.934 1.568-4.246 3.001-5.287 5.35-4.085 10.784-3.952 12.262-6.11 18.326-1.222 4.928-2.08 9.942-3.068 14.922-.734 3.877-1.447 7.757-2.151 11.639 1.237.796.817-3.063 1.543-4.41 1.84-14.181 5.33-27.656 10.86-39.627 1.29-2.31 3.606-3.78 5.555-5.454-.138-.508-1.008-.385-1.342-.746z" opacity=".262" fill="url(#aw)"/></g><use xlink:href="#ag" transform="translate(39.231)" width="744.094" height="1052.362"/><use xlink:href="#ag" transform="translate(79.97)" width="744.094" height="1052.362"/><use xlink:href="#ag" transform="translate(120.352)" width="744.094" height="1052.362"/><use xlink:href="#ag" transform="translate(159.957)" width="744.094" height="1052.362"/><g fill="#a05a2c" stroke="#784421"><path stroke-width="1.314" d="M97.48 231.095h339.411v48.813H97.48z" transform="matrix(.61549 0 0 .40666 16.096 600.207)"/><path stroke-width="1.943" d="M91.314 281.616h351.743v10.102H91.314z" transform="matrix(.61549 0 0 .40666 16.096 600.207)"/></g></g><g ns0:text="3" ns0:preamble="/home/waldgeist/data/sphinx/inkscape-preamble.tex" transform="matrix(9.71979 0 0 9.71979 -1580.988 -910.551)"><defs><symbol overflow="visible" id="ax"><path d="M2.89-3.516c.813-.265 1.391-.953 1.391-1.75 0-.812-.875-1.375-1.828-1.375-1 0-1.765.594-1.765 1.36 0 .328.218.515.515.515.297 0 .5-.218.5-.515 0-.485-.469-.485-.61-.485.298-.5.954-.625 1.313-.625.422 0 .969.22.969 1.11 0 .125-.031.703-.281 1.14-.297.485-.64.516-.89.516a3.29 3.29 0 0 1-.392.031c-.078.016-.14.031-.14.125 0 .11.062.11.234.11h.438c.812 0 1.187.671 1.187 1.656 0 1.36-.687 1.64-1.125 1.64-.437 0-1.187-.171-1.531-.75.344.047.656-.171.656-.546a.537.537 0 0 0-.547-.563c-.25 0-.562.14-.562.578C.422-.437 1.344.22 2.437.22c1.22 0 2.126-.906 2.126-1.922 0-.813-.641-1.594-1.672-1.813zm0 0"/></symbol></defs><use xlink:href="#ax" x="223.432" y="134.765" width="1052.362" height="744.094"/></g><g transform="matrix(9.71979 0 0 9.71979 -1486.075 -917.537)" ns0:preamble="/home/waldgeist/data/sphinx/inkscape-preamble.tex" ns0:text="$\\cdot$"><defs><symbol id="ay" overflow="visible"><path d="M1.906-2.5a.524.524 0 1 0-.516.531.524.524 0 0 0 .516-.531zm0 0"/></symbol></defs><use y="134.765" x="223.432" xlink:href="#ay" width="1052.362" height="744.094"/></g><use height="744.094" width="1052.362" xlink:href="#K" x="223.432" y="134.765" transform="matrix(9.71979 0 0 9.71979 -2105.367 -807.377)" ns0:text="+" ns0:preamble="/home/waldgeist/data/sphinx/test.tex"/><g transform="translate(691.271 -326.766)"><path d="M100.843 272.892C87.545 378.846 35.883 391.59-4.981 389.885c-7.885-.329-7.532 1.232-16.45.102-7.776-.986-21.326-6.02-29.172-5.438-46.975 3.483-91.992-58.48-91.992-117.48 0-66.546 44.033-110.227 113.132-111.821 95.305-2.182 138.593 51.616 130.306 117.644z" transform="matrix(.15327 0 0 .15327 103.775 648.843)" clip-path="url(#M)" style="marker:none" fill="url(#az)" stroke="url(#aA)" stroke-width="3.203" stroke-opacity=".301" overflow="visible"/><path d="M92.378 214.65c3.1 12.07 4.53 25.046 4.53 38.563-21.48 104.602-64.947 118.705-105.812 117-7.884-.33-7.55 1.224-16.468.094-7.776-.986-21.31-6.02-29.157-5.438-29.224 2.167-57.69-21.01-75.03-53.031 49.884 176.383 257.542 8.182 221.937-97.188z" transform="matrix(.15664 0 0 .15327 104.01 649.446)" clip-path="url(#P)" style="marker:none" opacity=".477" fill="#241f1c" overflow="visible" filter="url(#Q)"/><path d="M-86.577 173.472c-6.701-.913-11.022 5.774-15.742 10.494-5.626 5.627-12.1 9.77-15.74 17.053-3.483 6.965-6.974 8.7-10.495 15.741-2.556 5.111-1.312 13.59-1.312 19.677v19.677c0 8.2-.672 12.446 3.935 17.053 6.87 6.869 5.248-8.807 5.248-14.43 0-8.495.481-12.288 5.247-17.053 5.787-5.788 14.35-8.868 11.806 1.312-1.893 7.57-1.574 12.595 1.311 18.365 3.071 6.141 6.14 8.29 11.806 2.623 5.334-5.334-1.396-10.579 6.56-2.623 5.255 5.255 8.413 11.014 15.74 9.182 6.968-1.742 5.097-9.182 17.054-9.182 8.965 0 8.05 3.935 15.741 3.935 11.333 0 10.82.652 14.43 7.87 3.952 7.905 7.301 8.614 11.806 13.118 5.663 5.664 8.708 2.751 11.806 10.495 1.837 4.593 8.281-6.07 10.494-10.495 3.541-7.083 11.39-11.494 17.053-15.74 3.635-2.728 7.665 2.828 14.43-3.936 6.522-6.522 13.335-1.094 17.053 2.623 1.96 1.96 16.56 0 19.676 0 5.103 0 6.56-9.146 6.56-14.43 0-5.683-2.995-12.547-5.248-17.052-2.815-5.63-3.962-13.171-6.559-18.365l-7.87-15.742c-3.378-6.755-8.219-9.53-11.807-13.117-3.752-3.752-5.893-8.517-9.182-11.806-5.401-5.402-7.408-6.56-15.741-6.56-6.267 0-14.084-.24-18.365-1.311-7.168-1.792-9.535-2.144-15.742-5.247-5.728-2.864-5.673-5.247-14.43-5.247h-39.352c-7.808 0-10.69 5.442-14.43 9.182-3.346 3.346-11.33 3.936-15.741 3.936z" transform="matrix(.16064 0 0 .16204 103.93 646.23)" clip-path="url(#R)" style="marker:none" fill="url(#aB)" overflow="visible" filter="url(#T)"/><path d="M-97.072 237.749c-2.436 2.89-5.36 11.352-3.935 17.053 2.488 9.95 1.563 10.026 9.183 15.741 4.888 3.666 4.65 8.884 10.494 11.806 2.431 1.216 2.623-14.62 2.623-17.053 0-4.128 5.247-6.538 5.247-14.43 0-8.835.196-11.61-3.935-15.74-2.875-2.876-17.745 1.85-19.677 2.623zm52.472-3.936c-3.651-3.65-4.706 15.284-3.936 18.365 2.476 9.904 7.87 6.733 7.87 18.365 0 9.44.89 10.072 5.248 14.43 4.41 4.41 10.106 3.51 17.053 5.247 7.33 1.832 12.21 5.247 19.677 5.247 8.534 0 13.327-4.04 20.988-7.87 2.259-1.13 6.374-14.245 7.87-15.742 3.34-3.339-2.623-15.132-2.623-18.365 0-7.51 1.312-10.866 1.312-18.365 0-4.647-10.873-9.277-15.741-10.494-5.623-1.406-15.607 1.312-22.3 1.312-7.075 0-12.452 2.623-19.677 2.623-8.658 0-8.434 1.594-15.741 5.247z" transform="matrix(.09113 0 0 .09113 100.677 664.99)" clip-path="url(#U)" opacity=".358" fill="url(#aC)" fill-rule="evenodd" filter="url(#W)"/><path d="M190.084 129.034s24.656 18.678 66.282 14.416c41.854-4.314 49.988-12.324 49.988-12.324 34.96-38.709-166.934-30.815-116.27-2.092z" fill="url(#aD)" fill-rule="evenodd" transform="matrix(.12505 0 0 .12505 70.06 660.697)"/><path d="M207.502 98.429s-30.549 10.951-18.444 9.798c22.788-7.791 52.043-6.13 74.93 1.73-17.05-14.484-33.606-12.765-56.486-11.528z" transform="matrix(.17994 .021 -.01669 .22638 63.68 646.544)" style="marker:none" opacity=".185" fill="#fff" fill-rule="evenodd" overflow="visible" filter="url(#Y)"/><path d="M186.031 121.656c-6.706-1.044-15.379 6.991-7.406 12.063 10.904 5.912 23.63 7.127 35.906 6.702 14.628.43 30.155-1.115 42.625-9.077 2.815-6.069-4.015-2.731-7.594-1.531-12.974 3.438-26.759 3.777-40.183 3.534-7.024-.74-15.233-1.984-21.098-5.19 1.274-2.356.96-6.48-2.25-6.5z" transform="matrix(.21567 0 0 .27327 53.593 642.835)" opacity=".465" fill="url(#aE)" fill-rule="evenodd" filter="url(#Y)"/><path d="M223.087 127.663l6.605-11.188s2.965-7.818 10.11-11.053c7.144-3.235 12.805-2.292 12.805-2.292l7.414 6.336s-10.784-2.696-22.51 9.3c-11.728 11.998-19.007 16.176-19.007 16.176-1.857-2.817-3.509 4.88 4.583-7.279z" transform="rotate(-3.744 10160.713 -671.86) scale(.15327)" clip-path="url(#aa)" fill="url(#aF)" fill-rule="evenodd" filter="url(#ac)"/><g transform="matrix(.15327 0 0 .15327 67.053 658.576)" clip-path="url(#ad)" fill-rule="evenodd"><path d="M214.703 131.117l6.077.246c-2.534 1.72 4.834-35.35 16.015-42.74 4.832-3.194-1.203-12.315-3.82-10.933 0 0-6.471 4.67-7.231 8.094-.76 3.423-6.719 17.603-8.131 27.845-1.412 10.243-2.563 14.888-2.91 17.488z" fill="#372a07"/><path d="M233.13 78.205c-.129.094-1.515 1.101-3.09 2.577-1.648 1.544-3.284 3.574-3.544 4.745-.442 1.994-2.094 6.279-3.85 11.51-1.757 5.23-3.61 11.288-4.298 16.269-1.318 9.563-2.492 14.888-2.902 17.479l2.641.139c-.008-.98.784-3.487 1.03-5.117.518-3.416 1.543-8.168 3.015-13.2 1.472-5.033 3.381-10.35 5.645-14.923 2.265-4.573 4.873-8.407 7.989-10.467.905-.599 1.246-1.355 1.305-2.376.058-1.021-.006-2.832-.558-3.958-.552-1.125-1.593-1.589-2.285-2.163-.347-.288-.678-.461-.875-.522-.197-.06-.21 0-.224.007z" fill="#db9b1e" fill-opacity=".411" filter="url(#ae)"/><path d="M233.009 80.086c-1.934 1.568-4.246 3.001-5.287 5.35-4.085 10.784-3.952 12.262-6.11 18.326-1.222 4.928-2.08 9.942-3.068 14.922-.734 3.877-1.447 7.757-2.151 11.639 1.237.796.817-3.063 1.543-4.41 1.84-14.181 5.33-27.656 10.86-39.627 1.29-2.31 3.606-3.78 5.555-5.454-.138-.508-1.008-.385-1.342-.746z" opacity=".262" fill="url(#aG)"/></g><use xlink:href="#ag" transform="translate(39.231)" width="744.094" height="1052.362"/><use xlink:href="#ag" transform="translate(79.97)" width="744.094" height="1052.362"/><use xlink:href="#ag" transform="translate(120.352)" width="744.094" height="1052.362"/><use xlink:href="#ag" transform="translate(159.957)" width="744.094" height="1052.362"/><g fill="#a05a2c" stroke="#784421"><path stroke-width="1.314" d="M97.48 231.095h339.411v48.813H97.48z" transform="matrix(.61549 0 0 .40666 16.096 600.207)"/><path stroke-width="1.943" d="M91.314 281.616h351.743v10.102H91.314z" transform="matrix(.61549 0 0 .40666 16.096 600.207)"/></g></g></svg>