<svg xmlns:ns0="http://www.iki.fi/pav/software/textext/" xmlns="http://www.w3.org/2000/svg" xmlns:xlink="http://www.w3.org/1999/xlink" width="1052.362" height="744.094"><title>Subtraktion (Beispiel)</title><defs><radialGradient cx="-81.082" cy="44.942" r="44.556" fx="-81.082" fy="44.942" id="e" xlink:href="#b" gradientUnits="userSpaceOnUse" gradientTransform="matrix(-.0146 -.9602 1.93539 -.02813 127.596 52.018)"/><pattern id="k" patternTransform="translate(163.814 -152.846)" height="46.659" width="55.733" patternUnits="userSpaceOnUse"><path style="marker:none" d="M-278.719-209.706a2.886 7.834 0 1 1-5.772 0 2.886 7.834 0 1 1 5.772 0z" transform="matrix(.74092 0 0 .45974 262.242 100.965)" overflow="visible" color="#000" fill="#d7eb90" fill-rule="evenodd" stroke-width="1.584"/><path style="marker:none" d="M-278.719-209.706a2.886 7.834 0 1 1-5.772 0 2.886 7.834 0 1 1 5.772 0z" transform="matrix(.74092 0 0 .45974 253.164 126.803)" overflow="visible" color="#000" fill="#d7eb90" fill-rule="evenodd" stroke-width="1.584"/><path transform="matrix(.74092 0 0 .45974 241.636 111.216)" d="M-278.719-209.706a2.886 7.834 0 1 1-5.772 0 2.886 7.834 0 1 1 5.772 0z" style="marker:none" overflow="visible" color="#000" fill="#d7eb90" fill-rule="evenodd" stroke-width="1.584"/><path style="marker:none" d="M-278.719-209.706a2.886 7.834 0 1 1-5.772 0 2.886 7.834 0 1 1 5.772 0z" transform="matrix(.74092 0 0 .45974 219.229 100.012)" overflow="visible" color="#000" fill="#d7eb90" fill-rule="evenodd" stroke-width="1.584"/><path transform="matrix(.74092 0 0 .45974 236.44 139.468)" d="M-278.719-209.706a2.886 7.834 0 1 1-5.772 0 2.886 7.834 0 1 1 5.772 0z" style="marker:none" overflow="visible" color="#000" fill="#d7eb90" fill-rule="evenodd" stroke-width="1.584"/><path style="marker:none" d="M-278.719-209.706a2.886 7.834 0 1 1-5.772 0 2.886 7.834 0 1 1 5.772 0z" transform="matrix(.74092 0 0 .45974 210.786 125.504)" overflow="visible" color="#000" fill="#d7eb90" fill-rule="evenodd" stroke-width="1.584"/><path transform="matrix(.74092 0 0 .45974 210.786 125.504)" d="M-278.719-209.706a2.886 7.834 0 1 1-5.772 0 2.886 7.834 0 1 1 5.772 0z" style="marker:none" overflow="visible" color="#000" fill="#d7eb90" fill-rule="evenodd" stroke-width="1.584"/></pattern><linearGradient id="j"><stop offset="0" stop-color="#da0b1c"/><stop offset="1" stop-color="#7b2c27" stop-opacity="0"/></linearGradient><linearGradient id="i"><stop offset="0" stop-color="#ffc74b"/><stop offset=".738" stop-color="#d68565"/><stop offset="1" stop-color="#c0161b"/></linearGradient><linearGradient id="a"><stop offset="0" stop-color="#fff"/><stop offset="1" stop-color="#fff" stop-opacity="0"/></linearGradient><linearGradient id="b"><stop offset="0" stop-color="#1d3300"/><stop offset=".496" stop-color="#68a02c" stop-opacity=".237"/><stop offset="1" stop-color="#61a334" stop-opacity="0"/></linearGradient><linearGradient id="h"><stop offset="0" stop-color="#fff"/><stop offset="1" stop-color="#fff" stop-opacity="0"/></linearGradient><linearGradient id="g"><stop offset="0" stop-color="#fff"/><stop offset="1" stop-color="#fff" stop-opacity="0"/></linearGradient><linearGradient id="f"><stop offset="0"/><stop offset="1" stop-opacity="0"/></linearGradient><pattern patternTransform="matrix(.59 0 0 .41356 162.616 -160.559)" id="l" xlink:href="#k"/><pattern patternTransform="matrix(.59 0 0 .41356 1.724 5.44)" id="d" xlink:href="#l"/><linearGradient id="c"><stop offset="0" stop-color="#f8f8f8"/><stop offset="1" stop-color="#f8f8f8" stop-opacity="0"/></linearGradient><linearGradient id="t"><stop offset="0" stop-color="#f8f8f8"/><stop offset="1" stop-color="#f8f8f8" stop-opacity="0"/></linearGradient><pattern patternTransform="matrix(.59 0 0 .41356 1.724 5.44)" id="x" xlink:href="#u"/><pattern patternTransform="matrix(.59 0 0 .41356 162.616 -160.559)" id="u" xlink:href="#v"/><linearGradient id="o"><stop offset="0"/><stop offset="1" stop-opacity="0"/></linearGradient><linearGradient id="n"><stop offset="0" stop-color="#fff"/><stop offset="1" stop-color="#fff" stop-opacity="0"/></linearGradient><linearGradient id="p"><stop offset="0" stop-color="#fff"/><stop offset="1" stop-color="#fff" stop-opacity="0"/></linearGradient><linearGradient id="q"><stop offset="0" stop-color="#1d3300"/><stop offset=".496" stop-color="#68a02c" stop-opacity=".237"/><stop offset="1" stop-color="#61a334" stop-opacity="0"/></linearGradient><linearGradient id="r"><stop offset="0" stop-color="#fff"/><stop offset="1" stop-color="#fff" stop-opacity="0"/></linearGradient><linearGradient id="m"><stop offset="0" stop-color="#ffc74b"/><stop offset=".738" stop-color="#d68565"/><stop offset="1" stop-color="#c0161b"/></linearGradient><linearGradient id="s"><stop offset="0" stop-color="#da0b1c"/><stop offset="1" stop-color="#7b2c27" stop-opacity="0"/></linearGradient><pattern id="v" patternTransform="translate(163.814 -152.846)" height="46.659" width="55.733" patternUnits="userSpaceOnUse"><path style="marker:none" d="M-278.719-209.706a2.886 7.834 0 1 1-5.772 0 2.886 7.834 0 1 1 5.772 0z" transform="matrix(.74092 0 0 .45974 262.242 100.965)" overflow="visible" color="#000" fill="#d7eb90" fill-rule="evenodd" stroke-width="1.584"/><path style="marker:none" d="M-278.719-209.706a2.886 7.834 0 1 1-5.772 0 2.886 7.834 0 1 1 5.772 0z" transform="matrix(.74092 0 0 .45974 253.164 126.803)" overflow="visible" color="#000" fill="#d7eb90" fill-rule="evenodd" stroke-width="1.584"/><path transform="matrix(.74092 0 0 .45974 241.636 111.216)" d="M-278.719-209.706a2.886 7.834 0 1 1-5.772 0 2.886 7.834 0 1 1 5.772 0z" style="marker:none" overflow="visible" color="#000" fill="#d7eb90" fill-rule="evenodd" stroke-width="1.584"/><path style="marker:none" d="M-278.719-209.706a2.886 7.834 0 1 1-5.772 0 2.886 7.834 0 1 1 5.772 0z" transform="matrix(.74092 0 0 .45974 219.229 100.012)" overflow="visible" color="#000" fill="#d7eb90" fill-rule="evenodd" stroke-width="1.584"/><path transform="matrix(.74092 0 0 .45974 236.44 139.468)" d="M-278.719-209.706a2.886 7.834 0 1 1-5.772 0 2.886 7.834 0 1 1 5.772 0z" style="marker:none" overflow="visible" color="#000" fill="#d7eb90" fill-rule="evenodd" stroke-width="1.584"/><path style="marker:none" d="M-278.719-209.706a2.886 7.834 0 1 1-5.772 0 2.886 7.834 0 1 1 5.772 0z" transform="matrix(.74092 0 0 .45974 210.786 125.504)" overflow="visible" color="#000" fill="#d7eb90" fill-rule="evenodd" stroke-width="1.584"/><path transform="matrix(.74092 0 0 .45974 210.786 125.504)" d="M-278.719-209.706a2.886 7.834 0 1 1-5.772 0 2.886 7.834 0 1 1 5.772 0z" style="marker:none" overflow="visible" color="#000" fill="#d7eb90" fill-rule="evenodd" stroke-width="1.584"/></pattern><radialGradient cx="-81.082" cy="44.942" r="44.556" fx="-81.082" fy="44.942" id="w" xlink:href="#q" gradientUnits="userSpaceOnUse" gradientTransform="matrix(-.0146 -.9602 1.93539 -.02813 127.596 52.018)"/><linearGradient id="E"><stop offset="0" stop-color="#f8f8f8"/><stop offset="1" stop-color="#f8f8f8" stop-opacity="0"/></linearGradient><pattern patternTransform="matrix(.59 0 0 .41356 1.724 5.44)" id="J" xlink:href="#G"/><pattern patternTransform="matrix(.59 0 0 .41356 162.616 -160.559)" id="G" xlink:href="#H"/><linearGradient id="z"><stop offset="0"/><stop offset="1" stop-opacity="0"/></linearGradient><linearGradient id="y"><stop offset="0" stop-color="#fff"/><stop offset="1" stop-color="#fff" stop-opacity="0"/></linearGradient><linearGradient id="A"><stop offset="0" stop-color="#fff"/><stop offset="1" stop-color="#fff" stop-opacity="0"/></linearGradient><linearGradient id="B"><stop offset="0" stop-color="#1d3300"/><stop offset=".496" stop-color="#68a02c" stop-opacity=".237"/><stop offset="1" stop-color="#61a334" stop-opacity="0"/></linearGradient><linearGradient id="C"><stop offset="0" stop-color="#fff"/><stop offset="1" stop-color="#fff" stop-opacity="0"/></linearGradient><linearGradient id="F"><stop offset="0" stop-color="#ffc74b"/><stop offset=".738" stop-color="#d68565"/><stop offset="1" stop-color="#c0161b"/></linearGradient><linearGradient id="D"><stop offset="0" stop-color="#da0b1c"/><stop offset="1" stop-color="#7b2c27" stop-opacity="0"/></linearGradient><pattern id="H" patternTransform="translate(163.814 -152.846)" height="46.659" width="55.733" patternUnits="userSpaceOnUse"><path style="marker:none" d="M-278.719-209.706a2.886 7.834 0 1 1-5.772 0 2.886 7.834 0 1 1 5.772 0z" transform="matrix(.74092 0 0 .45974 262.242 100.965)" overflow="visible" color="#000" fill="#d7eb90" fill-rule="evenodd" stroke-width="1.584"/><path style="marker:none" d="M-278.719-209.706a2.886 7.834 0 1 1-5.772 0 2.886 7.834 0 1 1 5.772 0z" transform="matrix(.74092 0 0 .45974 253.164 126.803)" overflow="visible" color="#000" fill="#d7eb90" fill-rule="evenodd" stroke-width="1.584"/><path transform="matrix(.74092 0 0 .45974 241.636 111.216)" d="M-278.719-209.706a2.886 7.834 0 1 1-5.772 0 2.886 7.834 0 1 1 5.772 0z" style="marker:none" overflow="visible" color="#000" fill="#d7eb90" fill-rule="evenodd" stroke-width="1.584"/><path style="marker:none" d="M-278.719-209.706a2.886 7.834 0 1 1-5.772 0 2.886 7.834 0 1 1 5.772 0z" transform="matrix(.74092 0 0 .45974 219.229 100.012)" overflow="visible" color="#000" fill="#d7eb90" fill-rule="evenodd" stroke-width="1.584"/><path transform="matrix(.74092 0 0 .45974 236.44 139.468)" d="M-278.719-209.706a2.886 7.834 0 1 1-5.772 0 2.886 7.834 0 1 1 5.772 0z" style="marker:none" overflow="visible" color="#000" fill="#d7eb90" fill-rule="evenodd" stroke-width="1.584"/><path style="marker:none" d="M-278.719-209.706a2.886 7.834 0 1 1-5.772 0 2.886 7.834 0 1 1 5.772 0z" transform="matrix(.74092 0 0 .45974 210.786 125.504)" overflow="visible" color="#000" fill="#d7eb90" fill-rule="evenodd" stroke-width="1.584"/><path transform="matrix(.74092 0 0 .45974 210.786 125.504)" d="M-278.719-209.706a2.886 7.834 0 1 1-5.772 0 2.886 7.834 0 1 1 5.772 0z" style="marker:none" overflow="visible" color="#000" fill="#d7eb90" fill-rule="evenodd" stroke-width="1.584"/></pattern><radialGradient cx="-81.082" cy="44.942" r="44.556" fx="-81.082" fy="44.942" id="I" xlink:href="#B" gradientUnits="userSpaceOnUse" gradientTransform="matrix(-.0146 -.9602 1.93539 -.02813 127.596 52.018)"/></defs><path style="marker:none" color="#000" fill="#fff" stroke="#fff" stroke-width="3" stroke-linecap="round" stroke-linejoin="bevel" stroke-dasharray="3.0000000400000002,6.0000000800000004" overflow="visible" d="M51.307 194.114h949.748V549.98H51.307z"/><path style="marker:none" opacity=".3" color="#000" fill="#59f" overflow="visible" d="M119.665 223.488h808.131V373.38H119.665z"/><path style="marker:none" opacity=".3" color="#000" fill="#784421" overflow="visible" d="M120.665 370.715h808.131v149.891H120.665z"/><path d="M154.905 371.047c115.942 149.119 231.884 149.29 347.825 0" fill="#00f" stroke="#000"/><path d="M544.73 373.047c115.942-149.118 231.883-149.29 347.825 0" fill="#d40000" stroke="#000"/><g transform="matrix(9.34326 0 0 9.33096 -1405.145 -917.137)" ns0:text="$+$" ns0:preamble="/home/waldgeist/data/sphinx/inkscape-preamble.tex" stroke="#fff" stroke-width="1.125"><defs><symbol overflow="visible" id="K"><path d="M4.078-2.297H6.86c.141 0 .329 0 .329-.203 0-.188-.188-.188-.329-.188H4.08v-2.796c0-.141 0-.329-.204-.329-.203 0-.203.188-.203.329v2.796H.89c-.141 0-.329 0-.329.188 0 .203.188.203.329.203h2.78V.5c0 .14 0 .328.204.328.203 0 .203-.187.203-.328zm0 0" stroke="none"/></symbol></defs><use height="744.094" width="1052.362" xlink:href="#K" x="223.432" y="134.765"/></g><g transform="matrix(9.34326 0 0 9.33096 -1794.97 -807.234)" ns0:preamble="/home/waldgeist/data/sphinx/inkscape-preamble.tex" ns0:text="$-$" stroke="#fff" stroke-width="1.125"><defs><symbol id="L" overflow="visible"><path d="M6.563-2.297c.171 0 .359 0 .359-.203 0-.188-.188-.188-.36-.188h-5.39c-.172 0-.344 0-.344.188 0 .203.172.203.344.203zm0 0" stroke="none"/></symbol></defs><use y="134.765" x="223.432" xlink:href="#L" width="1052.362" height="744.094"/></g><path d="M120.665 372.047h811.032" fill="none" stroke="#000" stroke-width="3" stroke-linecap="round" stroke-dasharray="3.00000004,6.00000011"/></svg>