<svg xmlns:ns0="http://www.iki.fi/pav/software/textext/" xmlns="http://www.w3.org/2000/svg" xmlns:xlink="http://www.w3.org/1999/xlink" width="1052.362" height="744.094"><title>Tortendiagramm -- Kuerzen und Erweitern</title><path fill="#fff" stroke="#fff" stroke-dasharray="2.02405363000000005,8.09621454000000007" d="M36.269 143.943h979.824V600.15H36.269z"/><g ns0:text="$\\Leftrightarrow$" ns0:preamble="/home/waldgeist/data/sphinx/inkscape-preamble.tex" transform="translate(-578.889 -267.884) scale(4.83796)" stroke="#000" stroke-width="1.18"><defs><symbol overflow="visible" id="a"><path d="M2.531-3.656c.563-.656.875-1.375.875-1.453 0-.125-.11-.125-.203-.125-.156 0-.156.015-.25.203-.406.922-1.14 1.843-2.437 2.406-.141.047-.172.063-.172.125v.063c.031.03.031.03.234.124C1.672-1.859 2.5-1 3 .158c.047.077.078.093.203.093.094 0 .203 0 .203-.125 0-.078-.312-.797-.875-1.453h4.89C6.86-.672 6.563.047 6.563.125c0 .125.11.125.204.125.14 0 .14-.016.234-.203.406-.922 1.14-1.844 2.453-2.406.14-.047.172-.063.172-.141 0-.016 0-.031-.016-.047-.015-.031-.03-.031-.234-.125-1.094-.453-1.906-1.312-2.422-2.469-.031-.078-.078-.093-.187-.093-.094 0-.204 0-.204.125 0 .078.297.796.86 1.453zm-.39 1.937C1.844-2.016 1.5-2.25 1.094-2.5c.547-.313.843-.563 1.047-.766h5.671c.297.297.641.532 1.047.766-.546.328-.843.578-1.046.781zm0 0" stroke="none"/></symbol></defs><use xlink:href="#a" x="223.432" y="134.765" width="1052.362" height="744.094"/></g><path d="M439.148 372.047c0 104.994-85.114 190.109-190.108 190.109S58.93 477.04 58.93 372.047c0-104.994 85.115-190.108 190.109-190.108 104.994 0 190.108 85.114 190.108 190.108z" style="marker:none" color="#000" fill="none" stroke="#4d4d4d" stroke-width="2.9997271800000003" stroke-linecap="round" stroke-linejoin="bevel" overflow="visible"/><path d="M249.44 372.047a.401.401 0 1 1-.801 0 .401.401 0 0 1 .802 0z" style="marker:none" color="#000" fill="#4d4d4d" stroke="#000" stroke-width="1.0000082399999999" stroke-linecap="round" stroke-linejoin="bevel" overflow="visible"/><path d="M249.04 181.939v190.108M439.148 372.047H249.04" fill="none" stroke="#000"/><g transform="translate(-770.627 -348.34) scale(4.83796)" ns0:preamble="/home/waldgeist/data/sphinx/inkscape-preamble.tex" ns0:text="$\\frac{1}{4}$" stroke="#000" stroke-width="1.18"><defs><symbol id="b" overflow="visible"><path d="M2.328-4.438c0-.187 0-.187-.203-.187-.453.438-1.078.438-1.36.438v.25c.157 0 .626 0 1-.188v3.547c0 .234 0 .328-.687.328H.812V0c.125 0 .985-.031 1.235-.031.219 0 1.094.031 1.25.031v-.25H3.03c-.703 0-.703-.094-.703-.328zm0 0" stroke="none"/></symbol><symbol id="c" overflow="visible"><path d="M3.688-1.14v-.25h-.782V-4.5c0-.14 0-.203-.14-.203-.094 0-.125 0-.188.11L.266-1.392v.25h2.062v.563c0 .25 0 .328-.578.328h-.188V0c.36-.016.797-.031 1.047-.031.266 0 .704.015 1.063.031v-.25h-.188c-.578 0-.578-.078-.578-.328v-.563zM2.375-3.939v2.547H.531zm0 0" stroke="none"/></symbol></defs><use y="130.842" x="224.628" xlink:href="#b" width="1052.362" height="744.094"/><path d="M224.5 132.5h4" fill="none" stroke-miterlimit="10"/><use y="138.2" x="224.628" xlink:href="#c" width="1052.362" height="744.094"/></g><path style="marker:none" d="M993.431 372.047c0 104.994-85.114 190.109-190.109 190.109-104.994 0-190.108-85.115-190.108-190.109 0-104.994 85.114-190.108 190.108-190.108 104.995 0 190.11 85.114 190.11 190.108z" color="#000" fill="none" stroke="#4d4d4d" stroke-width="2.9997271800000003" stroke-linecap="round" stroke-linejoin="bevel" overflow="visible"/><path style="marker:none" d="M803.724 372.047a.401.401 0 1 1-.803 0 .401.401 0 0 1 .803 0z" color="#000" fill="#4d4d4d" stroke="#000" stroke-width="1.0000082399999999" stroke-linecap="round" stroke-linejoin="bevel" overflow="visible"/><path d="M803.322 181.939v190.108M993.431 372.047H803.322" fill="none" stroke="#000"/><g ns0:text="$\\frac{1}{8}$" ns0:preamble="/home/waldgeist/data/sphinx/inkscape-preamble.tex" transform="translate(-176.837 -317.932) scale(4.83796)" stroke="#000" stroke-width="1.18"><defs><symbol overflow="visible" id="d"><path d="M2.328-4.438c0-.187 0-.187-.203-.187-.453.438-1.078.438-1.36.438v.25c.157 0 .626 0 1-.188v3.547c0 .234 0 .328-.687.328H.812V0c.125 0 .985-.031 1.235-.031.219 0 1.094.031 1.25.031v-.25H3.03c-.703 0-.703-.094-.703-.328zm0 0" stroke="none"/></symbol><symbol overflow="visible" id="e"><path d="M2.469-2.516c.547-.265.89-.593.89-1.078 0-.672-.703-1.031-1.375-1.031-.765 0-1.39.5-1.39 1.156 0 .328.156.563.281.703.125.157.172.188.578.422-.39.172-1.078.547-1.078 1.281 0 .766.797 1.204 1.594 1.204.89 0 1.61-.563 1.61-1.313 0-.469-.267-.86-.673-1.094-.094-.062-.328-.187-.437-.25zm-1.125-.656c-.188-.11-.375-.297-.375-.562 0-.438.5-.688 1-.688.547 0 1.031.344 1.031.828 0 .625-.734.938-.734.938-.016 0-.032 0-.079-.031zm.328.969l.969.547c.171.11.515.312.515.718 0 .532-.578.86-1.172.86-.64 0-1.187-.422-1.187-.985 0-.515.375-.921.875-1.14zm0 0" stroke="none"/></symbol></defs><use height="744.094" width="1052.362" xlink:href="#d" x="224.628" y="130.842"/><path d="M224.5 132.5h4" stroke-miterlimit="10"/><use height="744.094" width="1052.362" xlink:href="#e" x="224.628" y="138.2"/></g><path d="M937.75 237.62L803.322 372.047" fill="none" stroke="#000"/><g ns0:preamble="/home/waldgeist/data/sphinx/inkscape-preamble.tex" ns0:text="$\\frac{1}{8}$" stroke="#000" stroke-width="1.18"><use y="130.842" x="224.628" xlink:href="#d" width="1052.362" height="744.094" transform="translate(-247.964 -386.118) scale(4.83796)"/><path d="M838.159 254.912h19.351" stroke-miterlimit="10" stroke-width="5.7087927999999994"/><use y="138.2" x="224.628" xlink:href="#e" width="1052.362" height="744.094" transform="translate(-247.964 -386.118) scale(4.83796)"/></g></svg>