<svg xmlns:ns0="http://www.iki.fi/pav/software/textext/" xmlns="http://www.w3.org/2000/svg" xmlns:xlink="http://www.w3.org/1999/xlink" width="1052.362" height="744.094"><title>Tortendiagramm (Stammbrueche)</title><path fill="#fff" stroke="#fff" stroke-width="2.024" stroke-dasharray="2.02405361000000017,8.09621448000000044" d="M230.218 121.72h591.925v500.654H230.218z"/><path style="marker:none" d="M411.6 438.192c-36.54-63.291-14.855-144.221 48.436-180.762 63.291-36.542 144.222-14.856 180.763 48.435 36.54 63.291 14.856 144.221-48.435 180.762-63.292 36.542-144.222 14.856-180.763-48.435z" color="#000" fill="none" stroke="#fff" stroke-width="1.76997" stroke-linecap="round" stroke-linejoin="bevel" overflow="visible"/><path style="marker:none" d="M750.486 372.029c0 123.87-100.417 224.285-224.286 224.285-123.87 0-224.286-100.416-224.286-224.285 0-123.87 100.416-224.286 224.286-224.286s224.286 100.416 224.286 224.286z" color="#000" fill="none" stroke="#4d4d4d" stroke-width="3" stroke-linecap="round" stroke-linejoin="bevel" overflow="visible"/><path style="marker:none" d="M526.673 372.029a.473.473 0 1 1-.946 0 .473.473 0 0 1 .946 0z" color="#000" fill="#4d4d4d" stroke="#000" stroke-width=".9999775" stroke-linecap="round" stroke-linejoin="bevel" overflow="visible"/><path d="M526.2 147.743v224.286" fill="none" stroke="#000"/><g ns0:text="$\\frac{1}{3}$" ns0:preamble="/home/waldgeist/data/sphinx/inkscape-preamble.tex" transform="translate(-867.901 -468.338) scale(5.70771)" stroke="#000"><defs><symbol overflow="visible" id="a"><path d="M2.328-4.438c0-.187 0-.187-.203-.187-.453.438-1.078.438-1.36.438v.25c.157 0 .626 0 1-.188v3.547c0 .234 0 .328-.687.328H.812V0c.125 0 .985-.031 1.235-.031.219 0 1.094.031 1.25.031v-.25H3.03c-.703 0-.703-.094-.703-.328zm0 0" stroke="none"/></symbol><symbol overflow="visible" id="b"><path d="M1.906-2.328c.547 0 .938.375.938 1.125 0 .86-.516 1.125-.906 1.125-.282 0-.907-.078-1.188-.5.328 0 .406-.235.406-.39 0-.22-.172-.376-.39-.376a.38.38 0 0 0-.391.407C.375-.281 1.094.14 1.938.14c.968 0 1.64-.657 1.64-1.344 0-.547-.437-1.094-1.203-1.25.719-.266.984-.781.984-1.219 0-.547-.625-.953-1.406-.953-.766 0-1.36.375-1.36.938 0 .234.157.359.36.359.219 0 .36-.156.36-.344 0-.203-.141-.36-.36-.375.25-.297.719-.375.985-.375.312 0 .75.156.75.75 0 .297-.094.625-.282.828-.219.266-.422.281-.765.313-.172.015-.188.015-.22.015-.015 0-.077.016-.077.094 0 .094.062.094.187.094zm0 0" stroke="none"/></symbol></defs><use height="744.094" width="1052.362" xlink:href="#a" x="224.628" y="130.842"/><path d="M224.5 132.5h4" stroke-miterlimit="10"/><use height="744.094" width="1052.362" xlink:href="#b" x="224.628" y="138.2"/></g><g transform="translate(-795.216 -254.704) scale(5.70771)" ns0:preamble="/home/waldgeist/data/sphinx/inkscape-preamble.tex" ns0:text="$\\frac{1}{4}$" stroke="#000"><defs><symbol id="c" overflow="visible"><path d="M2.328-4.438c0-.187 0-.187-.203-.187-.453.438-1.078.438-1.36.438v.25c.157 0 .626 0 1-.188v3.547c0 .234 0 .328-.687.328H.812V0c.125 0 .985-.031 1.235-.031.219 0 1.094.031 1.25.031v-.25H3.03c-.703 0-.703-.094-.703-.328zm0 0" stroke="none"/></symbol><symbol id="d" overflow="visible"><path d="M3.688-1.14v-.25h-.782V-4.5c0-.14 0-.203-.14-.203-.094 0-.125 0-.188.11L.266-1.392v.25h2.062v.563c0 .25 0 .328-.578.328h-.188V0c.36-.016.797-.031 1.047-.031.266 0 .704.015 1.063.031v-.25h-.188c-.578 0-.578-.078-.578-.328v-.563zM2.375-3.939v2.547H.531zm0 0" stroke="none"/></symbol></defs><use y="130.842" x="224.628" xlink:href="#c" width="1052.362" height="744.094"/><path d="M224.5 132.5h4" stroke-miterlimit="10"/><use y="138.2" x="224.628" xlink:href="#d" width="1052.362" height="744.094"/></g><path d="M331.963 484.171L526.2 372.028M638.343 566.266L526.2 372.029" fill="none" stroke="#000"/><g transform="translate(-640.168 -307.29) scale(5.70771)" ns0:preamble="/home/waldgeist/data/sphinx/inkscape-preamble.tex" ns0:text="$\\frac{1}{6}$" stroke="#000"><defs><symbol id="e" overflow="visible"><path d="M2.328-4.438c0-.187 0-.187-.203-.187-.453.438-1.078.438-1.36.438v.25c.157 0 .626 0 1-.188v3.547c0 .234 0 .328-.687.328H.812V0c.125 0 .985-.031 1.235-.031.219 0 1.094.031 1.25.031v-.25H3.03c-.703 0-.703-.094-.703-.328zm0 0" stroke="none"/></symbol><symbol id="f" overflow="visible"><path d="M1.047-2.281c0-.563.047-1.078.312-1.516.235-.375.61-.625 1.063-.625.203 0 .484.047.625.234-.172.016-.328.141-.328.344a.32.32 0 0 0 .328.328c.219 0 .344-.14.344-.343 0-.407-.297-.766-.985-.766-1 0-2.031.922-2.031 2.422C.375-.406 1.219.14 2 .14c.844 0 1.578-.657 1.578-1.563 0-.89-.703-1.547-1.515-1.547-.563 0-.86.375-1.016.688zM2-.078c-.36 0-.625-.203-.781-.516-.094-.203-.157-.562-.157-.969 0-.687.407-1.203.97-1.203.312 0 .53.125.702.375.172.266.172.563.172.97 0 .39 0 .687-.187.968A.815.815 0 0 1 2-.078zm0 0" stroke="none"/></symbol></defs><use y="130.842" x="224.628" xlink:href="#e" width="1052.362" height="744.094" transform="translate(-1.877 -2.002)"/><path d="M222.623 130.498h4" stroke-miterlimit="10"/><use y="138.2" x="224.628" xlink:href="#f" width="1052.362" height="744.094" transform="translate(-1.877 -2.002)"/></g><path d="M750.485 372.029H526.2" fill="none" stroke="#000"/><path d="M331.963 484.171c-61.935-107.274-25.18-244.445 82.094-306.38A224.286 224.286 0 0 1 526.2 147.743v224.286z" style="marker:none" color="#000" fill="none" stroke="#999" stroke-linecap="round" stroke-linejoin="bevel" overflow="visible"/><path style="marker:none" d="M638.343 566.266c-107.275 61.934-244.446 25.18-306.38-82.095L526.2 372.03zM750.486 372.029c0 80.13-42.75 154.172-112.143 194.237L526.2 372.029z" color="#000" fill="none" stroke="#999" stroke-linecap="round" stroke-linejoin="bevel" overflow="visible"/><path d="M684.794 213.435L526.2 372.029" fill="none" stroke="#000"/><path style="marker:none" d="M684.794 213.435a224.286 224.286 0 0 1 65.692 158.594H526.2z" color="#000" fill="none" stroke="#999" stroke-linecap="round" stroke-linejoin="bevel" overflow="visible"/><g ns0:text="$\\frac{1}{8}$" ns0:preamble="/home/waldgeist/data/sphinx/inkscape-preamble.tex" transform="translate(-644.454 -433.42) scale(5.70771)" stroke="#000"><defs><symbol overflow="visible" id="g"><path d="M2.328-4.438c0-.187 0-.187-.203-.187-.453.438-1.078.438-1.36.438v.25c.157 0 .626 0 1-.188v3.547c0 .234 0 .328-.687.328H.812V0c.125 0 .985-.031 1.235-.031.219 0 1.094.031 1.25.031v-.25H3.03c-.703 0-.703-.094-.703-.328zm0 0" stroke="none"/></symbol><symbol overflow="visible" id="h"><path d="M2.469-2.516c.547-.265.89-.593.89-1.078 0-.672-.703-1.031-1.375-1.031-.765 0-1.39.5-1.39 1.156 0 .328.156.563.281.703.125.157.172.188.578.422-.39.172-1.078.547-1.078 1.281 0 .766.797 1.204 1.594 1.204.89 0 1.61-.563 1.61-1.313 0-.469-.267-.86-.673-1.094-.094-.062-.328-.187-.437-.25zm-1.125-.656c-.188-.11-.375-.297-.375-.562 0-.438.5-.688 1-.688.547 0 1.031.344 1.031.828 0 .625-.734.938-.734.938-.016 0-.032 0-.079-.031zm.328.969l.969.547c.171.11.515.312.515.718 0 .532-.578.86-1.172.86-.64 0-1.187-.422-1.187-.985 0-.515.375-.921.875-1.14zm0 0" stroke="none"/></symbol></defs><use height="744.094" width="1052.362" xlink:href="#g" x="224.628" y="130.842"/><path d="M224.5 132.5h4" stroke-miterlimit="10"/><use height="744.094" width="1052.362" xlink:href="#h" x="224.628" y="138.2"/></g><path d="M584.25 155.385a224.286 224.286 0 0 1 100.544 58.05L526.2 372.029z" style="marker:none" color="#000" fill="none" stroke="#999" stroke-linecap="round" stroke-linejoin="bevel" overflow="visible"/><path style="marker:none" d="M526.2 147.743c19.6 0 39.116 2.57 58.05 7.642L526.2 372.03z" color="#000" fill="none" stroke="#999" stroke-linecap="round" stroke-linejoin="bevel" overflow="visible"/><g transform="translate(-715.883 -502.706) scale(5.70771)" ns0:preamble="/home/waldgeist/data/sphinx/inkscape-preamble.tex" ns0:text="$\\frac{1}{12}$" stroke="#000"><defs><symbol id="i" overflow="visible"><path d="M2.328-4.438c0-.187 0-.187-.203-.187-.453.438-1.078.438-1.36.438v.25c.157 0 .626 0 1-.188v3.547c0 .234 0 .328-.687.328H.812V0c.125 0 .985-.031 1.235-.031.219 0 1.094.031 1.25.031v-.25H3.03c-.703 0-.703-.094-.703-.328zm0 0" stroke="none"/></symbol><symbol id="j" overflow="visible"><path d="M3.516-1.266H3.28c-.015.157-.094.563-.187.625-.047.047-.578.047-.688.047H1.125c.734-.64.984-.844 1.39-1.172.516-.406 1-.843 1-1.5 0-.843-.734-1.359-1.624-1.359-.86 0-1.454.61-1.454 1.25 0 .344.297.39.376.39.156 0 .359-.124.359-.374 0-.125-.047-.375-.406-.375.218-.485.687-.641 1.015-.641.703 0 1.063.547 1.063 1.11 0 .609-.438 1.078-.656 1.328L.516-.266C.437-.203.437-.187.437 0h2.876zm0 0" stroke="none"/></symbol></defs><use height="744.094" width="1052.362" y="130.842" x="226.613" xlink:href="#i"/><path d="M224.5 132.5h8" stroke-miterlimit="10"/><use height="744.094" width="1052.362" y="138.2" x="224.628" xlink:href="#i"/><use height="744.094" width="1052.362" y="138.2" x="228.6" xlink:href="#j"/></g><g transform="matrix(2.10007 0 0 2.10007 60.423 -37.01)" ns0:preamble="/home/waldgeist/data/sphinx/inkscape-preamble.tex" ns0:text="$\\ldots$" fill="purple" stroke="purple"><defs><symbol id="k" overflow="visible"><path d="M1.906-.531a.534.534 0 0 0-.515-.531.537.537 0 0 0-.532.53.524.524 0 1 0 1.047 0zm0 0" stroke="none"/></symbol></defs><use y="134.765" x="223.432" xlink:href="#k" width="1052.362" height="744.094"/><use y="134.765" x="227.863" xlink:href="#k" width="1052.362" height="744.094"/><use y="134.765" x="232.285" xlink:href="#k" width="1052.362" height="744.094"/></g></svg>