<?xml version="1.0" encoding="UTF-8" standalone="no"?>
<!-- Created with Inkscape (http://www.inkscape.org/) -->

<svg
   xmlns:ns0="http://www.iki.fi/pav/software/textext/"
   xmlns:dc="http://purl.org/dc/elements/1.1/"
   xmlns:cc="http://creativecommons.org/ns#"
   xmlns:rdf="http://www.w3.org/1999/02/22-rdf-syntax-ns#"
   xmlns:svg="http://www.w3.org/2000/svg"
   xmlns="http://www.w3.org/2000/svg"
   xmlns:xlink="http://www.w3.org/1999/xlink"
   xmlns:sodipodi="http://sodipodi.sourceforge.net/DTD/sodipodi-0.dtd"
   xmlns:inkscape="http://www.inkscape.org/namespaces/inkscape"
   width="1052.3622"
   height="744.09448"
   id="svg2"
   version="1.1"
   inkscape:version="0.48.4 r9939"
   sodipodi:docname="tortendiagramm-stammbrueche.svg">
  <sodipodi:namedview
     id="base"
     pagecolor="#ffffff"
     bordercolor="#666666"
     borderopacity="1.0"
     inkscape:pageopacity="0.0"
     inkscape:pageshadow="2"
     inkscape:zoom="0.94547911"
     inkscape:cx="431.7873"
     inkscape:cy="386.25489"
     inkscape:document-units="px"
     inkscape:current-layer="layer1"
     showgrid="false"
     inkscape:window-width="1600"
     inkscape:window-height="1150"
     inkscape:window-x="0"
     inkscape:window-y="0"
     inkscape:window-maximized="1"
     inkscape:object-nodes="false"
     inkscape:snap-smooth-nodes="false"
     showguides="false"
     inkscape:guide-bbox="true"
     inkscape:object-paths="false"
     inkscape:snap-intersection-paths="true"
     inkscape:snap-global="false"
     inkscape:snap-object-midpoints="true"
     inkscape:snap-midpoints="false"
     inkscape:snap-nodes="true">
    <sodipodi:guide
       orientation="1,0"
       position="487.29664,460.52105"
       id="guide7367" />
    <sodipodi:guide
       id="guide7768"
       position="347.92378,460.52105"
       orientation="1,0" />
    <sodipodi:guide
       id="guide8584"
       position="713.07407,454.66768"
       orientation="1,0" />
    <sodipodi:guide
       orientation="1,0"
       position="580.29871,454.6677"
       id="guide9005" />
    <sodipodi:guide
       orientation="1,0"
       position="886.6864,454.66768"
       id="guide10059" />
    <sodipodi:guide
       orientation="1,0"
       position="191.71474,429.02775"
       id="guide11167" />
  </sodipodi:namedview>
  <title
     id="title13516">Tortendiagramm (Stammbrueche)</title>
  <defs
     id="defs4">
    <inkscape:perspective
       id="perspective12895"
       inkscape:persp3d-origin="526.18109 : 248.03149 : 1"
       inkscape:vp_z="1052.3622 : 372.04724 : 1"
       inkscape:vp_y="0 : 1000 : 0"
       inkscape:vp_x="0 : 372.04724 : 1"
       sodipodi:type="inkscape:persp3d" />
    <marker
       style="overflow:visible"
       id="TriangleOutM"
       refX="0"
       refY="0"
       orient="auto"
       inkscape:stockid="TriangleOutM">
      <path
         inkscape:connector-curvature="0"
         transform="scale(0.4,0.4)"
         style="fill-rule:evenodd;stroke:#000000;stroke-width:1pt"
         d="m 5.77,0 -8.65,5 0,-10 8.65,5 z"
         id="path3904" />
    </marker>
  </defs>
  <metadata
     id="metadata7">
    <rdf:RDF>
      <cc:Work
         rdf:about="">
        <dc:format>image/svg+xml</dc:format>
        <dc:type
           rdf:resource="http://purl.org/dc/dcmitype/StillImage" />
        <dc:title>Tortendiagramm (Stammbrueche)</dc:title>
        <dc:date>2012-07-12</dc:date>
        <dc:creator>
          <cc:Agent>
            <dc:title>Bernhard Grotz</dc:title>
          </cc:Agent>
        </dc:creator>
        <dc:rights>
          <cc:Agent>
            <dc:title>Bernhard Grotz</dc:title>
          </cc:Agent>
        </dc:rights>
        <dc:publisher>
          <cc:Agent>
            <dc:title>Bernhard Grotz</dc:title>
          </cc:Agent>
        </dc:publisher>
        <dc:language>de-DE</dc:language>
        <dc:subject>
          <rdf:Bag>
            <rdf:li>Mathematik</rdf:li>
            <rdf:li>Arithmetik</rdf:li>
            <rdf:li>Rationale Zahlen</rdf:li>
            <rdf:li>Tortendiagramm</rdf:li>
            <rdf:li>Stammbrueche</rdf:li>
          </rdf:Bag>
        </dc:subject>
        <cc:license
           rdf:resource="http://creativecommons.org/licenses/by-nc-sa/3.0/" />
      </cc:Work>
      <cc:License
         rdf:about="http://creativecommons.org/licenses/by-nc-sa/3.0/">
        <cc:permits
           rdf:resource="http://creativecommons.org/ns#Reproduction" />
        <cc:permits
           rdf:resource="http://creativecommons.org/ns#Distribution" />
        <cc:requires
           rdf:resource="http://creativecommons.org/ns#Notice" />
        <cc:requires
           rdf:resource="http://creativecommons.org/ns#Attribution" />
        <cc:prohibits
           rdf:resource="http://creativecommons.org/ns#CommercialUse" />
        <cc:permits
           rdf:resource="http://creativecommons.org/ns#DerivativeWorks" />
        <cc:requires
           rdf:resource="http://creativecommons.org/ns#ShareAlike" />
      </cc:License>
    </rdf:RDF>
  </metadata>
  <g
     transform="translate(0,-308.2677)"
     id="layer1"
     inkscape:groupmode="layer"
     inkscape:label="Layer 1">
    <rect
       y="429.98788"
       x="230.21843"
       height="500.65411"
       width="591.92529"
       id="rect5422"
       style="fill:#ffffff;fill-opacity:1;fill-rule:nonzero;stroke:#ffffff;stroke-width:2.02405356999999997;stroke-linecap:butt;stroke-linejoin:miter;stroke-miterlimit:4;stroke-opacity:1;stroke-dasharray:2.02405361000000017, 8.09621448000000044;stroke-dashoffset:0"
       inkscape:export-filename="/home/waldgeist/data/homepage/pics/mathematik/arithmetik/tortendiagramm-stammbrueche.png"
       inkscape:export-xdpi="150"
       inkscape:export-ydpi="150" />
    <path
       inkscape:export-ydpi="150"
       inkscape:export-xdpi="150"
       inkscape:export-filename="/home/waldgeist/data/homepage/pics/mathematik/arithmetik/tortendiagramm-stammbrueche.png"
       sodipodi:type="arc"
       style="color:#000000;fill:none;stroke:#ffffff;stroke-width:3;stroke-linecap:round;stroke-linejoin:bevel;stroke-miterlimit:4;stroke-opacity:1;stroke-dasharray:none;stroke-dashoffset:0;marker:none;visibility:visible;display:inline;overflow:visible;enable-background:accumulate"
       id="path13514"
       sodipodi:cx="565.71429"
       sodipodi:cy="466.95163"
       sodipodi:rx="224.28572"
       sodipodi:ry="224.28572"
       d="m 790.00002,466.95163 c 0,123.86958 -100.41614,224.28572 -224.28573,224.28572 -123.86958,0 -224.28572,-100.41614 -224.28572,-224.28572 0,-123.86958 100.41614,-224.28572 224.28572,-224.28572 123.86959,0 224.28573,100.41614 224.28573,224.28572 z"
       transform="matrix(-0.51095049,0.29499741,-0.29499741,-0.51095049,953.00136,752.00113)" />
    <path
       inkscape:export-ydpi="150"
       inkscape:export-xdpi="150"
       inkscape:export-filename="/home/waldgeist/data/homepage/pics/mathematik/arithmetik/tortendiagramm-stammbrueche.png"
       sodipodi:type="arc"
       style="color:#000000;fill:none;stroke:#4d4d4d;stroke-width:3;stroke-linecap:round;stroke-linejoin:bevel;stroke-miterlimit:4;stroke-opacity:1;stroke-dasharray:none;stroke-dashoffset:0;marker:none;visibility:visible;display:inline;overflow:visible;enable-background:accumulate"
       id="path11493"
       sodipodi:cx="565.71429"
       sodipodi:cy="466.95163"
       sodipodi:rx="224.28572"
       sodipodi:ry="224.28572"
       d="m 790.00002,466.95163 c 0,123.86958 -100.41614,224.28572 -224.28573,224.28572 -123.86958,0 -224.28572,-100.41614 -224.28572,-224.28572 0,-123.86958 100.41614,-224.28572 224.28572,-224.28572 123.86959,0 224.28573,100.41614 224.28573,224.28572 z"
       transform="translate(-39.514512,213.34459)" />
    <path
       inkscape:export-ydpi="150"
       inkscape:export-xdpi="150"
       inkscape:export-filename="/home/waldgeist/data/homepage/pics/mathematik/arithmetik/tortendiagramm-stammbrueche.png"
       sodipodi:type="arc"
       style="color:#000000;fill:#4d4d4d;stroke:#000000;stroke-width:7.54717016;stroke-linecap:round;stroke-linejoin:bevel;stroke-miterlimit:4;stroke-opacity:1;stroke-dasharray:none;stroke-dashoffset:0;marker:none;visibility:visible;display:inline;overflow:visible;enable-background:accumulate"
       id="path12009"
       sodipodi:cx="219.28572"
       sodipodi:cy="130.52306"
       sodipodi:rx="3.5714285"
       sodipodi:ry="3.5714285"
       d="m 222.85715,130.52306 c 0,1.97244 -1.59898,3.57142 -3.57143,3.57142 -1.97244,0 -3.57143,-1.59898 -3.57143,-3.57142 0,-1.97245 1.59899,-3.57143 3.57143,-3.57143 1.97245,0 3.57143,1.59898 3.57143,3.57143 z"
       transform="matrix(0.13249999,0,0,0.13249999,497.14443,663.00192)" />
    <path
       inkscape:export-ydpi="150"
       inkscape:export-xdpi="150"
       inkscape:export-filename="/home/waldgeist/data/homepage/pics/mathematik/arithmetik/tortendiagramm-stammbrueche.png"
       inkscape:transform-center-y="-112.14286"
       style="fill:none;stroke:#000000;stroke-width:1px;stroke-linecap:butt;stroke-linejoin:miter;stroke-opacity:1"
       d="m 526.19978,456.0105 0,224.28572"
       id="path12011"
       inkscape:connector-curvature="0" />
    <g
       inkscape:export-ydpi="150"
       inkscape:export-xdpi="150"
       inkscape:export-filename="/home/waldgeist/data/homepage/pics/mathematik/arithmetik/tortendiagramm-stammbrueche.png"
       ns0:text="$\\frac{1}{3}$"
       ns0:preamble="/home/waldgeist/data/sphinx/inkscape-preamble.tex"
       transform="matrix(5.7077124,0,0,5.7077124,-867.90149,-160.07032)"
       style="fill:#000000;stroke:#000000;stroke-width:1"
       id="g12064">
      <defs
         id="defs12066">
        <g
           id="g12068">
          <symbol
             style="overflow:visible"
             overflow="visible"
             id="textext-aecf5761-0">
            <path
               inkscape:connector-curvature="0"
               style="stroke:none"
               d="m 2.328125,-4.4375 c 0,-0.1875 0,-0.1875 -0.203125,-0.1875 -0.453125,0.4375 -1.078125,0.4375 -1.359375,0.4375 l 0,0.25 c 0.15625,0 0.625,0 1,-0.1875 l 0,3.546875 c 0,0.234375 0,0.328125 -0.6875,0.328125 l -0.265625,0 0,0.25 c 0.125,0 0.984375,-0.03125 1.234375,-0.03125 0.21875,0 1.09375,0.03125 1.25,0.03125 l 0,-0.25 -0.265625,0 c -0.703125,0 -0.703125,-0.09375 -0.703125,-0.328125 z m 0,0"
               id="path12071" />
          </symbol>
          <symbol
             style="overflow:visible"
             overflow="visible"
             id="textext-aecf5761-1">
            <path
               inkscape:connector-curvature="0"
               style="stroke:none"
               d="m 1.90625,-2.328125 c 0.546875,0 0.9375,0.375 0.9375,1.125 0,0.859375 -0.515625,1.125 -0.90625,1.125 -0.28125,0 -0.90625,-0.078125 -1.1875,-0.5 0.328125,0 0.40625,-0.234375 0.40625,-0.390625 0,-0.21875 -0.171875,-0.375 -0.390625,-0.375 -0.1875,0 -0.390625,0.125 -0.390625,0.40625 0,0.65625 0.71875,1.078125 1.5625,1.078125 0.96875,0 1.640625,-0.65625 1.640625,-1.34375 0,-0.546875 -0.4375,-1.09375 -1.203125,-1.25 0.71875,-0.265625 0.984375,-0.78125 0.984375,-1.21875 0,-0.546875 -0.625,-0.953125 -1.40625,-0.953125 -0.765625,0 -1.359375,0.375 -1.359375,0.9375 0,0.234375 0.15625,0.359375 0.359375,0.359375 0.21875,0 0.359375,-0.15625 0.359375,-0.34375 0,-0.203125 -0.140625,-0.359375 -0.359375,-0.375 0.25,-0.296875 0.71875,-0.375 0.984375,-0.375 0.3125,0 0.75,0.15625 0.75,0.75 0,0.296875 -0.09375,0.625 -0.28125,0.828125 -0.21875,0.265625 -0.421875,0.28125 -0.765625,0.3125 -0.171875,0.015625 -0.1875,0.015625 -0.21875,0.015625 -0.015625,0 -0.078125,0.015625 -0.078125,0.09375 0,0.09375 0.0625,0.09375 0.1875,0.09375 z m 0,0"
               id="path12074" />
          </symbol>
        </g>
      </defs>
      <g
         style="fill:#000000;stroke:#000000;stroke-width:1"
         id="textext-aecf5761-2">
        <g
           style="fill:#000000;fill-opacity:1;stroke:#000000;stroke-width:1"
           id="g12077">
          <use
             style="fill:#000000;stroke:#000000;stroke-width:1"
             height="744.09448"
             width="1052.3622"
             xlink:href="#textext-aecf5761-0"
             x="224.62801"
             y="130.842"
             id="use12079" />
        </g>
        <path
           inkscape:connector-curvature="0"
           style="fill:#000000;stroke:#000000;stroke-width:1;stroke-linecap:butt;stroke-linejoin:miter;stroke-miterlimit:10;stroke-opacity:1"
           d="m -0.128,-0.226 4,0"
           transform="matrix(1,0,0,-1,224.628,132.274)"
           id="path12081" />
        <g
           style="fill:#000000;fill-opacity:1;stroke:#000000;stroke-width:1"
           id="g12083">
          <use
             style="fill:#000000;stroke:#000000;stroke-width:1"
             height="744.09448"
             width="1052.3622"
             xlink:href="#textext-aecf5761-1"
             x="224.62801"
             y="138.2"
             id="use12085" />
        </g>
      </g>
    </g>
    <g
       inkscape:export-ydpi="150"
       inkscape:export-xdpi="150"
       inkscape:export-filename="/home/waldgeist/data/homepage/pics/mathematik/arithmetik/tortendiagramm-stammbrueche.png"
       id="g12223"
       style="fill:#000000;stroke:#000000;stroke-width:1"
       transform="matrix(5.7077124,0,0,5.7077124,-795.21563,53.564018)"
       ns0:preamble="/home/waldgeist/data/sphinx/inkscape-preamble.tex"
       ns0:text="$\\frac{1}{4}$">
      <defs
         id="defs12225">
        <g
           id="g12227">
          <symbol
             id="textext-c6a575a0-0"
             overflow="visible"
             style="overflow:visible">
            <path
               id="path12230"
               d="m 2.328125,-4.4375 c 0,-0.1875 0,-0.1875 -0.203125,-0.1875 -0.453125,0.4375 -1.078125,0.4375 -1.359375,0.4375 l 0,0.25 c 0.15625,0 0.625,0 1,-0.1875 l 0,3.546875 c 0,0.234375 0,0.328125 -0.6875,0.328125 l -0.265625,0 0,0.25 c 0.125,0 0.984375,-0.03125 1.234375,-0.03125 0.21875,0 1.09375,0.03125 1.25,0.03125 l 0,-0.25 -0.265625,0 c -0.703125,0 -0.703125,-0.09375 -0.703125,-0.328125 z m 0,0"
               style="stroke:none"
               inkscape:connector-curvature="0" />
          </symbol>
          <symbol
             id="textext-c6a575a0-1"
             overflow="visible"
             style="overflow:visible">
            <path
               id="path12233"
               d="m 3.6875,-1.140625 0,-0.25 -0.78125,0 0,-3.109375 c 0,-0.140625 0,-0.203125 -0.140625,-0.203125 -0.09375,0 -0.125,0 -0.1875,0.109375 l -2.3125,3.203125 0,0.25 2.0625,0 0,0.5625 c 0,0.25 0,0.328125 -0.578125,0.328125 l -0.1875,0 0,0.25 C 1.921875,-0.015625 2.359375,-0.03125 2.609375,-0.03125 2.875,-0.03125 3.3125,-0.015625 3.671875,0 l 0,-0.25 -0.1875,0 C 2.90625,-0.25 2.90625,-0.328125 2.90625,-0.578125 l 0,-0.5625 z M 2.375,-3.9375 l 0,2.546875 -1.84375,0 z m 0,0"
               style="stroke:none"
               inkscape:connector-curvature="0" />
          </symbol>
        </g>
      </defs>
      <g
         id="textext-c6a575a0-2"
         style="fill:#000000;stroke:#000000;stroke-width:1">
        <g
           id="g12236"
           style="fill:#000000;fill-opacity:1;stroke:#000000;stroke-width:1">
          <use
             id="use12238"
             y="130.842"
             x="224.62801"
             xlink:href="#textext-c6a575a0-0"
             width="1052.3622"
             height="744.09448"
             style="fill:#000000;stroke:#000000;stroke-width:1" />
        </g>
        <path
           id="path12240"
           transform="matrix(1,0,0,-1,224.628,132.274)"
           d="m -0.128,-0.226 4,0"
           style="fill:#000000;stroke:#000000;stroke-width:1;stroke-linecap:butt;stroke-linejoin:miter;stroke-miterlimit:10;stroke-opacity:1"
           inkscape:connector-curvature="0" />
        <g
           id="g12242"
           style="fill:#000000;fill-opacity:1;stroke:#000000;stroke-width:1">
          <use
             id="use12244"
             y="138.2"
             x="224.62801"
             xlink:href="#textext-c6a575a0-1"
             width="1052.3622"
             height="744.09448"
             style="fill:#000000;stroke:#000000;stroke-width:1" />
        </g>
      </g>
    </g>
    <path
       inkscape:export-ydpi="150"
       inkscape:export-xdpi="150"
       inkscape:export-filename="/home/waldgeist/data/homepage/pics/mathematik/arithmetik/tortendiagramm-stammbrueche.png"
       inkscape:transform-center-x="97.118565"
       inkscape:connector-curvature="0"
       id="path12513"
       d="M 331.96265,792.43905 526.19978,680.29619"
       style="fill:none;stroke:#000000;stroke-width:1px;stroke-linecap:butt;stroke-linejoin:miter;stroke-opacity:1"
       inkscape:transform-center-y="56.0714" />
    <path
       inkscape:export-ydpi="150"
       inkscape:export-xdpi="150"
       inkscape:export-filename="/home/waldgeist/data/homepage/pics/mathematik/arithmetik/tortendiagramm-stammbrueche.png"
       inkscape:transform-center-y="97.118565"
       style="fill:none;stroke:#000000;stroke-width:1px;stroke-linecap:butt;stroke-linejoin:miter;stroke-opacity:1"
       d="M 638.34261,874.53335 526.19975,680.29622"
       id="path12515"
       inkscape:connector-curvature="0"
       inkscape:transform-center-x="-56.0714" />
    <g
       inkscape:export-ydpi="150"
       inkscape:export-xdpi="150"
       inkscape:export-filename="/home/waldgeist/data/homepage/pics/mathematik/arithmetik/tortendiagramm-stammbrueche.png"
       id="g12584"
       style="fill:#000000;stroke:#000000;stroke-width:1"
       transform="matrix(5.7077124,0,0,5.7077124,-640.1685,0.976819)"
       ns0:preamble="/home/waldgeist/data/sphinx/inkscape-preamble.tex"
       ns0:text="$\\frac{1}{6}$">
      <defs
         id="defs12586">
        <g
           id="g12588">
          <symbol
             id="textext-d824f5dd-0"
             overflow="visible"
             style="overflow:visible">
            <path
               id="path12591"
               d="m 2.328125,-4.4375 c 0,-0.1875 0,-0.1875 -0.203125,-0.1875 -0.453125,0.4375 -1.078125,0.4375 -1.359375,0.4375 l 0,0.25 c 0.15625,0 0.625,0 1,-0.1875 l 0,3.546875 c 0,0.234375 0,0.328125 -0.6875,0.328125 l -0.265625,0 0,0.25 c 0.125,0 0.984375,-0.03125 1.234375,-0.03125 0.21875,0 1.09375,0.03125 1.25,0.03125 l 0,-0.25 -0.265625,0 c -0.703125,0 -0.703125,-0.09375 -0.703125,-0.328125 z m 0,0"
               style="stroke:none"
               inkscape:connector-curvature="0" />
          </symbol>
          <symbol
             id="textext-d824f5dd-1"
             overflow="visible"
             style="overflow:visible">
            <path
               id="path12594"
               d="m 1.046875,-2.28125 c 0,-0.5625 0.046875,-1.078125 0.3125,-1.515625 0.234375,-0.375 0.609375,-0.625 1.0625,-0.625 0.203125,0 0.484375,0.046875 0.625,0.234375 C 2.875,-4.171875 2.71875,-4.046875 2.71875,-3.84375 c 0,0.171875 0.125,0.328125 0.328125,0.328125 0.21875,0 0.34375,-0.140625 0.34375,-0.34375 0,-0.40625 -0.296875,-0.765625 -0.984375,-0.765625 -1,0 -2.03125,0.921875 -2.03125,2.421875 0,1.796875 0.84375,2.34375 1.625,2.34375 0.84375,0 1.578125,-0.65625 1.578125,-1.5625 0,-0.890625 -0.703125,-1.546875 -1.515625,-1.546875 -0.5625,0 -0.859375,0.375 -1.015625,0.6875 z M 2,-0.078125 c -0.359375,0 -0.625,-0.203125 -0.78125,-0.515625 C 1.125,-0.796875 1.0625,-1.15625 1.0625,-1.5625 c 0,-0.6875 0.40625,-1.203125 0.96875,-1.203125 0.3125,0 0.53125,0.125 0.703125,0.375 0.171875,0.265625 0.171875,0.5625 0.171875,0.96875 0,0.390625 0,0.6875 -0.1875,0.96875 -0.15625,0.234375 -0.390625,0.375 -0.71875,0.375 z m 0,0"
               style="stroke:none"
               inkscape:connector-curvature="0" />
          </symbol>
        </g>
      </defs>
      <g
         transform="translate(-1.8771593,-2.0023033)"
         id="textext-d824f5dd-2"
         style="fill:#000000;stroke:#000000;stroke-width:1">
        <g
           id="g12597"
           style="fill:#000000;fill-opacity:1;stroke:#000000;stroke-width:1">
          <use
             id="use12599"
             y="130.842"
             x="224.62801"
             xlink:href="#textext-d824f5dd-0"
             width="1052.3622"
             height="744.09448"
             style="fill:#000000;stroke:#000000;stroke-width:1" />
        </g>
        <path
           id="path12601"
           transform="matrix(1,0,0,-1,224.628,132.274)"
           d="m -0.128,-0.226 4,0"
           style="fill:#000000;stroke:#000000;stroke-width:1;stroke-linecap:butt;stroke-linejoin:miter;stroke-miterlimit:10;stroke-opacity:1"
           inkscape:connector-curvature="0" />
        <g
           id="g12603"
           style="fill:#000000;fill-opacity:1;stroke:#000000;stroke-width:1">
          <use
             id="use12605"
             y="138.2"
             x="224.62801"
             xlink:href="#textext-d824f5dd-1"
             width="1052.3622"
             height="744.09448"
             style="fill:#000000;stroke:#000000;stroke-width:1" />
        </g>
      </g>
    </g>
    <path
       inkscape:export-ydpi="150"
       inkscape:export-xdpi="150"
       inkscape:export-filename="/home/waldgeist/data/homepage/pics/mathematik/arithmetik/tortendiagramm-stammbrueche.png"
       inkscape:transform-center-x="-112.14285"
       inkscape:connector-curvature="0"
       id="path12685"
       d="m 750.48548,680.29625 -224.28571,0"
       style="fill:none;stroke:#000000;stroke-width:1px;stroke-linecap:butt;stroke-linejoin:miter;stroke-opacity:1"
       inkscape:transform-center-y="3e-05" />
    <path
       inkscape:export-ydpi="150"
       inkscape:export-xdpi="150"
       inkscape:export-filename="/home/waldgeist/data/homepage/pics/mathematik/arithmetik/tortendiagramm-stammbrueche.png"
       transform="matrix(-0.86602541,0.50000001,-0.50000001,-0.86602541,1249.5986,801.83104)"
       d="m 790.00002,466.95163 c 0,123.86958 -100.41614,224.28572 -224.28573,224.28572 -39.37036,0 -78.04712,-10.3634 -112.14286,-30.04859 L 565.71429,466.95163 z"
       sodipodi:ry="224.28572"
       sodipodi:rx="224.28572"
       sodipodi:cy="466.95163"
       sodipodi:cx="565.71429"
       id="path12687"
       style="color:#000000;fill:none;stroke:#999999;stroke-width:0.99999998999999995;stroke-linecap:round;stroke-linejoin:bevel;stroke-miterlimit:4;stroke-opacity:1;stroke-dasharray:none;stroke-dashoffset:0;marker:none;visibility:visible;display:inline;overflow:visible;enable-background:accumulate"
       sodipodi:type="arc"
       sodipodi:start="0"
       sodipodi:end="2.0943951" />
    <path
       inkscape:export-ydpi="150"
       inkscape:export-xdpi="150"
       inkscape:export-filename="/home/waldgeist/data/homepage/pics/mathematik/arithmetik/tortendiagramm-stammbrueche.png"
       sodipodi:end="1.5707963"
       sodipodi:start="0"
       sodipodi:type="arc"
       style="color:#000000;fill:none;stroke:#999999;stroke-width:0.99999998999999995;stroke-linecap:round;stroke-linejoin:bevel;stroke-miterlimit:4;stroke-opacity:1;stroke-dasharray:none;stroke-dashoffset:0;marker:none;visibility:visible;display:inline;overflow:visible;enable-background:accumulate"
       id="path12689"
       sodipodi:cx="565.71429"
       sodipodi:cy="466.95163"
       sodipodi:rx="224.28572"
       sodipodi:ry="224.28572"
       d="m 790.00002,466.95163 c 0,123.86958 -100.41614,224.28572 -224.28572,224.28572 l -10e-6,-224.28572 z"
       transform="matrix(0.5,0.86602541,-0.86602541,0.5,647.73461,-43.10255)" />
    <path
       inkscape:export-ydpi="150"
       inkscape:export-xdpi="150"
       inkscape:export-filename="/home/waldgeist/data/homepage/pics/mathematik/arithmetik/tortendiagramm-stammbrueche.png"
       transform="translate(-39.514516,213.34459)"
       d="m 790.00002,466.95163 c 0,80.12957 -42.74863,154.17235 -112.14287,194.23714 L 565.71429,466.95163 z"
       sodipodi:ry="224.28572"
       sodipodi:rx="224.28572"
       sodipodi:cy="466.95163"
       sodipodi:cx="565.71429"
       id="path12691"
       style="color:#000000;fill:none;stroke:#999999;stroke-width:1;stroke-linecap:round;stroke-linejoin:bevel;stroke-miterlimit:4;stroke-opacity:1;stroke-dasharray:none;stroke-dashoffset:0;marker:none;visibility:visible;display:inline;overflow:visible;enable-background:accumulate"
       sodipodi:type="arc"
       sodipodi:start="0"
       sodipodi:end="1.0471976" />
    <path
       inkscape:export-ydpi="150"
       inkscape:export-xdpi="150"
       inkscape:export-filename="/home/waldgeist/data/homepage/pics/mathematik/arithmetik/tortendiagramm-stammbrueche.png"
       inkscape:transform-center-y="-79.29695"
       style="fill:none;stroke:#000000;stroke-width:1px;stroke-linecap:butt;stroke-linejoin:miter;stroke-opacity:1"
       d="M 684.79374,521.7023 526.19979,680.29624"
       id="path12693"
       inkscape:connector-curvature="0"
       inkscape:transform-center-x="-79.29699" />
    <path
       inkscape:export-ydpi="150"
       inkscape:export-xdpi="150"
       inkscape:export-filename="/home/waldgeist/data/homepage/pics/mathematik/arithmetik/tortendiagramm-stammbrueche.png"
       sodipodi:end="0.78539816"
       sodipodi:start="0"
       sodipodi:type="arc"
       style="color:#000000;fill:none;stroke:#999999;stroke-width:0.99999998999999995;stroke-linecap:round;stroke-linejoin:bevel;stroke-miterlimit:4;stroke-opacity:1;stroke-dasharray:none;stroke-dashoffset:0;marker:none;visibility:visible;display:inline;overflow:visible;enable-background:accumulate"
       id="path12695"
       sodipodi:cx="565.71429"
       sodipodi:cy="466.95163"
       sodipodi:rx="224.28572"
       sodipodi:ry="224.28572"
       d="m 790.00002,466.95163 c 0,59.48427 -23.63004,116.53222 -65.69177,158.59395 L 565.71429,466.95163 z"
       transform="matrix(0.70710678,-0.70710679,0.70710679,0.70710678,-204.00526,750.13197)" />
    <g
       inkscape:export-ydpi="150"
       inkscape:export-xdpi="150"
       inkscape:export-filename="/home/waldgeist/data/homepage/pics/mathematik/arithmetik/tortendiagramm-stammbrueche.png"
       ns0:text="$\\frac{1}{8}$"
       ns0:preamble="/home/waldgeist/data/sphinx/inkscape-preamble.tex"
       transform="matrix(5.7077124,0,0,5.7077124,-644.45418,-125.15301)"
       style="fill:#000000;stroke:#000000;stroke-width:1"
       id="g12809">
      <defs
         id="defs12811">
        <g
           id="g12813">
          <symbol
             style="overflow:visible"
             overflow="visible"
             id="textext-e3fd27fb-0">
            <path
               inkscape:connector-curvature="0"
               style="stroke:none"
               d="m 2.328125,-4.4375 c 0,-0.1875 0,-0.1875 -0.203125,-0.1875 -0.453125,0.4375 -1.078125,0.4375 -1.359375,0.4375 l 0,0.25 c 0.15625,0 0.625,0 1,-0.1875 l 0,3.546875 c 0,0.234375 0,0.328125 -0.6875,0.328125 l -0.265625,0 0,0.25 c 0.125,0 0.984375,-0.03125 1.234375,-0.03125 0.21875,0 1.09375,0.03125 1.25,0.03125 l 0,-0.25 -0.265625,0 c -0.703125,0 -0.703125,-0.09375 -0.703125,-0.328125 z m 0,0"
               id="path12816" />
          </symbol>
          <symbol
             style="overflow:visible"
             overflow="visible"
             id="textext-e3fd27fb-1">
            <path
               inkscape:connector-curvature="0"
               style="stroke:none"
               d="m 2.46875,-2.515625 c 0.546875,-0.265625 0.890625,-0.59375 0.890625,-1.078125 0,-0.671875 -0.703125,-1.03125 -1.375,-1.03125 -0.765625,0 -1.390625,0.5 -1.390625,1.15625 0,0.328125 0.15625,0.5625 0.28125,0.703125 0.125,0.15625 0.171875,0.1875 0.578125,0.421875 C 1.0625,-2.171875 0.375,-1.796875 0.375,-1.0625 c 0,0.765625 0.796875,1.203125 1.59375,1.203125 0.890625,0 1.609375,-0.5625 1.609375,-1.3125 0,-0.46875 -0.265625,-0.859375 -0.671875,-1.09375 -0.09375,-0.0625 -0.328125,-0.1875 -0.4375,-0.25 z m -1.125,-0.65625 c -0.1875,-0.109375 -0.375,-0.296875 -0.375,-0.5625 0,-0.4375 0.5,-0.6875 1,-0.6875 0.546875,0 1.03125,0.34375 1.03125,0.828125 0,0.625 -0.734375,0.9375 -0.734375,0.9375 -0.015625,0 -0.03125,0 -0.078125,-0.03125 z m 0.328125,0.96875 0.96875,0.546875 c 0.171875,0.109375 0.515625,0.3125 0.515625,0.71875 0,0.53125 -0.578125,0.859375 -1.171875,0.859375 -0.640625,0 -1.1875,-0.421875 -1.1875,-0.984375 0,-0.515625 0.375,-0.921875 0.875,-1.140625 z m 0,0"
               id="path12819" />
          </symbol>
        </g>
      </defs>
      <g
         style="fill:#000000;stroke:#000000;stroke-width:1"
         id="textext-e3fd27fb-2">
        <g
           style="fill:#000000;fill-opacity:1;stroke:#000000;stroke-width:1"
           id="g12822">
          <use
             style="fill:#000000;stroke:#000000;stroke-width:1"
             height="744.09448"
             width="1052.3622"
             xlink:href="#textext-e3fd27fb-0"
             x="224.62801"
             y="130.842"
             id="use12824" />
        </g>
        <path
           inkscape:connector-curvature="0"
           style="fill:#000000;stroke:#000000;stroke-width:1;stroke-linecap:butt;stroke-linejoin:miter;stroke-miterlimit:10;stroke-opacity:1"
           d="m -0.128,-0.226 4,0"
           transform="matrix(1,0,0,-1,224.628,132.274)"
           id="path12826" />
        <g
           style="fill:#000000;fill-opacity:1;stroke:#000000;stroke-width:1"
           id="g12828">
          <use
             style="fill:#000000;stroke:#000000;stroke-width:1"
             height="744.09448"
             width="1052.3622"
             xlink:href="#textext-e3fd27fb-1"
             x="224.62801"
             y="138.2"
             id="use12830" />
        </g>
      </g>
    </g>
    <path
       inkscape:export-ydpi="150"
       inkscape:export-xdpi="150"
       inkscape:export-filename="/home/waldgeist/data/homepage/pics/mathematik/arithmetik/tortendiagramm-stammbrueche.png"
       transform="matrix(0.25881904,-0.96592583,0.96592583,0.25881904,-71.258487,1105.8783)"
       d="m 790.00002,466.95163 c 0,39.37037 -10.36341,78.04712 -30.04859,112.14286 L 565.71429,466.95163 z"
       sodipodi:ry="224.28572"
       sodipodi:rx="224.28572"
       sodipodi:cy="466.95163"
       sodipodi:cx="565.71429"
       id="path12929"
       style="color:#000000;fill:none;stroke:#999999;stroke-width:1;stroke-linecap:round;stroke-linejoin:bevel;stroke-miterlimit:4;stroke-opacity:1;stroke-dasharray:none;stroke-dashoffset:0;marker:none;visibility:visible;display:inline;overflow:visible;enable-background:accumulate"
       sodipodi:type="arc"
       sodipodi:start="0"
       sodipodi:end="0.52359878" />
    <path
       inkscape:export-ydpi="150"
       inkscape:export-xdpi="150"
       inkscape:export-filename="/home/waldgeist/data/homepage/pics/mathematik/arithmetik/tortendiagramm-stammbrueche.png"
       sodipodi:end="0.26179939"
       sodipodi:start="0"
       sodipodi:type="arc"
       style="color:#000000;fill:none;stroke:#999999;stroke-width:1;stroke-linecap:round;stroke-linejoin:bevel;stroke-miterlimit:4;stroke-opacity:1;stroke-dasharray:none;stroke-dashoffset:0;marker:none;visibility:visible;display:inline;overflow:visible;enable-background:accumulate"
       id="path12931"
       sodipodi:cx="565.71429"
       sodipodi:cy="466.95163"
       sodipodi:rx="224.28572"
       sodipodi:ry="224.28572"
       d="m 790.00002,466.95163 c 0,19.60062 -2.56934,39.11667 -7.64236,58.04942 L 565.71429,466.95163 z"
       transform="matrix(0,-1,1,0,59.248189,1246.0105)" />
    <g
       inkscape:export-ydpi="150"
       inkscape:export-xdpi="150"
       inkscape:export-filename="/home/waldgeist/data/homepage/pics/mathematik/arithmetik/tortendiagramm-stammbrueche.png"
       id="g13060"
       style="fill:#000000;stroke:#000000;stroke-width:1"
       transform="matrix(5.7077124,0,0,5.7077124,-715.88275,-194.43872)"
       ns0:preamble="/home/waldgeist/data/sphinx/inkscape-preamble.tex"
       ns0:text="$\\frac{1}{12}$">
      <defs
         id="defs13062">
        <g
           id="g13064">
          <symbol
             style="overflow:visible"
             id="textext-c9f634f4-0"
             overflow="visible">
            <path
               inkscape:connector-curvature="0"
               id="path13067"
               d="m 2.328125,-4.4375 c 0,-0.1875 0,-0.1875 -0.203125,-0.1875 -0.453125,0.4375 -1.078125,0.4375 -1.359375,0.4375 l 0,0.25 c 0.15625,0 0.625,0 1,-0.1875 l 0,3.546875 c 0,0.234375 0,0.328125 -0.6875,0.328125 l -0.265625,0 0,0.25 c 0.125,0 0.984375,-0.03125 1.234375,-0.03125 0.21875,0 1.09375,0.03125 1.25,0.03125 l 0,-0.25 -0.265625,0 c -0.703125,0 -0.703125,-0.09375 -0.703125,-0.328125 z m 0,0"
               style="stroke:none" />
          </symbol>
          <symbol
             style="overflow:visible"
             id="textext-c9f634f4-1"
             overflow="visible">
            <path
               inkscape:connector-curvature="0"
               id="path13070"
               d="m 3.515625,-1.265625 -0.234375,0 c -0.015625,0.15625 -0.09375,0.5625 -0.1875,0.625 -0.046875,0.046875 -0.578125,0.046875 -0.6875,0.046875 l -1.28125,0 c 0.734375,-0.640625 0.984375,-0.84375 1.390625,-1.171875 0.515625,-0.40625 1,-0.84375 1,-1.5 0,-0.84375 -0.734375,-1.359375 -1.625,-1.359375 -0.859375,0 -1.453125,0.609375 -1.453125,1.25 0,0.34375 0.296875,0.390625 0.375,0.390625 0.15625,0 0.359375,-0.125 0.359375,-0.375 0,-0.125 -0.046875,-0.375 -0.40625,-0.375 C 0.984375,-4.21875 1.453125,-4.375 1.78125,-4.375 c 0.703125,0 1.0625,0.546875 1.0625,1.109375 0,0.609375 -0.4375,1.078125 -0.65625,1.328125 L 0.515625,-0.265625 C 0.4375,-0.203125 0.4375,-0.1875 0.4375,0 l 2.875,0 z m 0,0"
               style="stroke:none" />
          </symbol>
        </g>
      </defs>
      <g
         style="fill:#000000;stroke:#000000;stroke-width:1"
         id="textext-c9f634f4-2">
        <g
           id="g13073"
           style="fill:#000000;fill-opacity:1;stroke:#000000;stroke-width:1">
          <use
             style="fill:#000000;stroke:#000000;stroke-width:1"
             height="744.09448"
             width="1052.3622"
             id="use13075"
             y="130.842"
             x="226.61301"
             xlink:href="#textext-c9f634f4-0" />
        </g>
        <path
           inkscape:connector-curvature="0"
           id="path13077"
           transform="matrix(1,0,0,-1,224.628,132.274)"
           d="m -0.128,-0.226 8,0"
           style="fill:#000000;stroke:#000000;stroke-width:1;stroke-linecap:butt;stroke-linejoin:miter;stroke-miterlimit:10;stroke-opacity:1" />
        <g
           id="g13079"
           style="fill:#000000;fill-opacity:1;stroke:#000000;stroke-width:1">
          <use
             style="fill:#000000;stroke:#000000;stroke-width:1"
             height="744.09448"
             width="1052.3622"
             id="use13081"
             y="138.2"
             x="224.62801"
             xlink:href="#textext-c9f634f4-0" />
          <use
             style="fill:#000000;stroke:#000000;stroke-width:1"
             height="744.09448"
             width="1052.3622"
             id="use13083"
             y="138.2"
             x="228.59958"
             xlink:href="#textext-c9f634f4-1" />
        </g>
      </g>
    </g>
    <g
       id="g13852"
       style="fill:#800080;stroke:#800080;stroke-width:1"
       transform="matrix(2.1000732,0,0,2.1000732,60.422507,271.25679)"
       ns0:preamble="/home/waldgeist/data/sphinx/inkscape-preamble.tex"
       ns0:text="$\\ldots$"
       inkscape:export-filename="/home/waldgeist/data/homepage/pics/mathematik/arithmetik/tortendiagramm-stammbrueche.png"
       inkscape:export-xdpi="150"
       inkscape:export-ydpi="150">
      <defs
         id="defs13854">
        <g
           id="g13856">
          <symbol
             id="textext-96198783-0"
             overflow="visible"
             style="overflow:visible">
            <path
               id="path13859"
               d="m 1.90625,-0.53125 c 0,-0.28125 -0.234375,-0.53125 -0.515625,-0.53125 -0.296875,0 -0.53125,0.25 -0.53125,0.53125 C 0.859375,-0.234375 1.09375,0 1.390625,0 1.671875,0 1.90625,-0.234375 1.90625,-0.53125 z m 0,0"
               style="stroke:none"
               inkscape:connector-curvature="0" />
          </symbol>
        </g>
      </defs>
      <g
         id="textext-96198783-1"
         style="fill:#800080;stroke:#800080">
        <g
           id="g13862"
           style="fill:#800080;fill-opacity:1;stroke:#800080">
          <use
             id="use13864"
             y="134.765"
             x="223.43201"
             xlink:href="#textext-96198783-0"
             style="fill:#800080;stroke:#800080"
             width="1052.3622"
             height="744.09448" />
        </g>
        <g
           id="g13866"
           style="fill:#800080;fill-opacity:1;stroke:#800080">
          <use
             id="use13868"
             y="134.765"
             x="227.86336"
             xlink:href="#textext-96198783-0"
             style="fill:#800080;stroke:#800080"
             width="1052.3622"
             height="744.09448" />
        </g>
        <g
           id="g13870"
           style="fill:#800080;fill-opacity:1;stroke:#800080">
          <use
             id="use13872"
             y="134.765"
             x="232.28476"
             xlink:href="#textext-96198783-0"
             style="fill:#800080;stroke:#800080"
             width="1052.3622"
             height="744.09448" />
        </g>
      </g>
    </g>
  </g>
</svg>
