<svg xmlns:ns0="http://www.iki.fi/pav/software/textext/" xmlns="http://www.w3.org/2000/svg" xmlns:xlink="http://www.w3.org/1999/xlink" width="1052.362" height="744.094"><title>Zahlenstrang (Subtraktion ganzer Zahlen)</title><defs><marker orient="auto" id="g" overflow="visible"><path d="M2.308 0l-3.46 2v-4l3.46 2z" fill-rule="evenodd" stroke="#000" stroke-width=".4pt"/></marker></defs><path fill="#fff" stroke="#fff" stroke-width="2" stroke-dasharray="2.00000001999999988,8.00000007000000046" d="M18.494 224.984h1024.295v400.02H18.494z"/><path d="M606.686 283.752v62.63" fill="none" stroke="#000" stroke-width="3" stroke-linecap="round"/><path d="M926.686 283.752v62.63M846.686 283.752v62.63M766.686 283.752v62.63M686.686 283.752v62.63" fill="none" stroke="maroon" stroke-width="3" stroke-linecap="round"/><g ns0:preamble="/home/waldgeist/data/sphinx/test.tex" ns0:text="1" transform="translate(-683.047 -346.856) scale(5.70771)"><defs><symbol id="a" overflow="visible"><path d="M2.938-6.375c0-.25 0-.266-.235-.266C2.078-6 1.203-6 .891-6v.313c.203 0 .78 0 1.296-.266v5.172c0 .36-.03.469-.921.469H.953V0c.344-.031 1.203-.031 1.61-.031.39 0 1.265 0 1.609.031v-.313h-.313c-.906 0-.921-.109-.921-.468zm0 0"/></symbol></defs><use y="134.765" x="223.432" xlink:href="#a" width="744.094" height="1052.362"/></g><g ns0:text="2" ns0:preamble="/home/waldgeist/data/sphinx/test.tex" transform="translate(-602.333 -346.856) scale(5.70771)"><defs><symbol overflow="visible" id="b"><path d="M1.266-.766l1.062-1.03c1.547-1.376 2.14-1.907 2.14-2.907 0-1.14-.89-1.938-2.109-1.938C1.234-6.64.5-5.719.5-4.828c0 .547.5.547.531.547.172 0 .516-.11.516-.532a.513.513 0 0 0-.531-.515c-.079 0-.094 0-.125.016.218-.657.765-1.016 1.343-1.016.907 0 1.329.812 1.329 1.625 0 .797-.485 1.578-1.047 2.203L.609-.375C.5-.265.5-.235.5 0h3.703l.266-1.734h-.235C4.172-1.438 4.11-1 4-.844c-.063.078-.719.078-.938.078zm0 0"/></symbol></defs><use xlink:href="#b" x="223.432" y="134.765" transform="translate(-.078)" width="744.094" height="1052.362"/></g><g transform="translate(-522.824 -346.856) scale(5.70771)" ns0:preamble="/home/waldgeist/data/sphinx/test.tex" ns0:text="3"><defs><symbol id="c" overflow="visible"><path d="M2.89-3.516c.813-.265 1.391-.953 1.391-1.75 0-.812-.875-1.375-1.828-1.375-1 0-1.765.594-1.765 1.36 0 .328.218.515.515.515.297 0 .5-.218.5-.515 0-.485-.469-.485-.61-.485.298-.5.954-.625 1.313-.625.422 0 .969.22.969 1.11 0 .125-.031.703-.281 1.14-.297.485-.64.516-.89.516a3.29 3.29 0 0 1-.392.031c-.078.016-.14.031-.14.125 0 .11.062.11.234.11h.438c.812 0 1.187.671 1.187 1.656 0 1.36-.687 1.64-1.125 1.64-.437 0-1.187-.171-1.531-.75.344.047.656-.171.656-.546a.537.537 0 0 0-.547-.563c-.25 0-.562.14-.562.578C.422-.437 1.344.22 2.437.22c1.22 0 2.126-.906 2.126-1.922 0-.813-.641-1.594-1.672-1.813zm0 0"/></symbol></defs><use y="134.765" x="223.432" xlink:href="#c" width="744.094" height="1052.362"/></g><g ns0:text="4" ns0:preamble="/home/waldgeist/data/sphinx/test.tex" transform="translate(-442.78 -346.856) scale(5.70771)"><defs><symbol overflow="visible" id="d"><path d="M2.938-1.64v.859c0 .36-.032.469-.766.469h-.203V0c.406-.031.922-.031 1.343-.031.422 0 .938 0 1.36.031v-.313h-.219c-.734 0-.75-.109-.75-.468v-.86h.985v-.312h-.985v-4.531c0-.204 0-.266-.172-.266-.078 0-.11 0-.187.125L.28-1.953v.312zm.046-.313H.563l2.421-3.719zm0 0"/></symbol></defs><use xlink:href="#d" x="223.432" y="134.765" width="744.094" height="1052.362"/></g><g transform="translate(-362.78 -346.856) scale(5.70771)" ns0:preamble="/home/waldgeist/data/sphinx/test.tex" ns0:text="5"><defs><symbol id="e" overflow="visible"><path d="M4.469-2c0-1.188-.813-2.188-1.89-2.188-.47 0-.907.157-1.267.516v-1.953c.204.063.532.125.844.125 1.235 0 1.938-.906 1.938-1.031 0-.063-.032-.11-.11-.11 0 0-.03 0-.078.032a3.22 3.22 0 0 1-1.36.296c-.39 0-.858-.078-1.327-.28-.078-.032-.094-.032-.11-.032C1-6.625 1-6.547 1-6.391v2.954c0 .171 0 .25.14.25.079 0 .094-.016.141-.079.11-.156.469-.703 1.282-.703.515 0 .765.453.843.64.156.376.188.75.188 1.25 0 .36 0 .954-.25 1.376-.235.39-.61.64-1.063.64-.719 0-1.297-.53-1.469-1.109.032 0 .063.016.172.016.329 0 .5-.25.5-.485 0-.25-.171-.5-.5-.5-.14 0-.484.079-.484.532C.5-.75 1.188.219 2.297.219 3.453.219 4.469-.734 4.469-2zm0 0"/></symbol></defs><use y="134.765" x="223.432" xlink:href="#e" width="744.094" height="1052.362"/></g><path d="M527.523 276.156v77.822" fill="none" stroke="#000" stroke-width="4" stroke-linecap="round"/><g ns0:text="0" transform="translate(-761.943 -346.856) scale(5.70771)"><defs><symbol overflow="visible" id="f"><path d="M4.578-3.188c0-.796-.047-1.593-.39-2.328C3.733-6.484 2.905-6.64 2.5-6.64c-.61 0-1.328.266-1.75 1.188-.313.687-.36 1.469-.36 2.266 0 .75.032 1.64.454 2.406a1.83 1.83 0 0 0 1.64 1c.532 0 1.297-.203 1.735-1.157.312-.687.36-1.468.36-2.25zM2.484 0c-.39 0-.984-.25-1.156-1.203-.11-.594-.11-1.516-.11-2.11 0-.64 0-1.296.079-1.828.187-1.187.937-1.28 1.187-1.28.329 0 .985.187 1.172 1.171.11.563.11 1.313.11 1.938 0 .75 0 1.421-.11 2.062C3.5-.297 2.937 0 2.484 0zm0 0"/></symbol></defs><use height="744.094" width="1052.362" xlink:href="#f" x="223.432" y="134.765"/></g><path d="M527.715 623.334h491.983" fill="none" stroke="#500" stroke-width="3" stroke-linecap="round" stroke-dasharray="2.99999976,8.99999929" marker-end="url(#g)" transform="translate(0 -308.268)"/><path d="M527.33 623.334H35.347" fill="none" stroke="navy" stroke-width="3" stroke-linecap="round" stroke-dasharray="2.99999976,8.99999929" marker-end="url(#g)" transform="translate(0 -308.268)"/><path d="M527.715 797.08H758.59" fill="none" stroke="maroon" stroke-width="3" stroke-linecap="round" marker-end="url(#g)" transform="translate(0 -308.268)"/><path d="M606.686 283.573v62.63" fill="none" stroke="maroon" stroke-width="3" stroke-linecap="round"/><path d="M447.715 283.573v62.63M367.715 283.573v62.63M287.715 283.573v62.63M207.715 283.573v62.63M127.715 283.573v62.63" fill="none" stroke="navy" stroke-width="3" stroke-linecap="round"/><g transform="translate(-860.971 -346.856) scale(5.70771)" ns0:text="-1"><defs><symbol id="h" overflow="visible"><path d="M2.75-1.86v-.577H.11v.578zm0 0"/></symbol><symbol id="i" overflow="visible"><path d="M2.938-6.375c0-.25 0-.266-.235-.266C2.078-6 1.203-6 .891-6v.313c.203 0 .78 0 1.296-.266v5.172c0 .36-.03.469-.921.469H.953V0c.344-.031 1.203-.031 1.61-.031.39 0 1.265 0 1.609.031v-.313h-.313c-.906 0-.921-.109-.921-.468zm0 0"/></symbol></defs><use y="134.765" x="223.432" xlink:href="#h" width="1052.362" height="744.094"/><use y="134.765" x="226.753" xlink:href="#i" width="1052.362" height="744.094"/></g><g ns0:text="-2" ns0:preamble="/home/waldgeist/data/sphinx/inkscape-preamble.tex" transform="translate(-940.704 -346.856) scale(5.70771)"><defs><symbol overflow="visible" id="j"><path d="M2.75-1.86v-.577H.11v.578zm0 0"/></symbol><symbol overflow="visible" id="k"><path d="M1.266-.766l1.062-1.03c1.547-1.376 2.14-1.907 2.14-2.907 0-1.14-.89-1.938-2.109-1.938C1.234-6.64.5-5.719.5-4.828c0 .547.5.547.531.547.172 0 .516-.11.516-.532a.513.513 0 0 0-.531-.515c-.079 0-.094 0-.125.016.218-.657.765-1.016 1.343-1.016.907 0 1.329.812 1.329 1.625 0 .797-.485 1.578-1.047 2.203L.609-.375C.5-.265.5-.235.5 0h3.703l.266-1.734h-.235C4.172-1.438 4.11-1 4-.844c-.063.078-.719.078-.938.078zm0 0"/></symbol></defs><use height="744.094" width="1052.362" xlink:href="#j" x="223.432" y="134.765"/><use height="744.094" width="1052.362" xlink:href="#k" x="226.753" y="134.765"/></g><g transform="translate(-1020.748 -346.856) scale(5.70771)" ns0:preamble="/home/waldgeist/data/sphinx/inkscape-preamble.tex" ns0:text="-3"><defs><symbol id="l" overflow="visible"><path d="M2.75-1.86v-.577H.11v.578zm0 0"/></symbol><symbol id="m" overflow="visible"><path d="M2.89-3.516c.813-.265 1.391-.953 1.391-1.75 0-.812-.875-1.375-1.828-1.375-1 0-1.765.594-1.765 1.36 0 .328.218.515.515.515.297 0 .5-.218.5-.515 0-.485-.469-.485-.61-.485.298-.5.954-.625 1.313-.625.422 0 .969.22.969 1.11 0 .125-.031.703-.281 1.14-.297.485-.64.516-.89.516a3.29 3.29 0 0 1-.392.031c-.078.016-.14.031-.14.125 0 .11.062.11.234.11h.438c.812 0 1.187.671 1.187 1.656 0 1.36-.687 1.64-1.125 1.64-.437 0-1.187-.171-1.531-.75.344.047.656-.171.656-.546a.537.537 0 0 0-.547-.563c-.25 0-.562.14-.562.578C.422-.437 1.344.22 2.437.22c1.22 0 2.126-.906 2.126-1.922 0-.813-.641-1.594-1.672-1.813zm0 0"/></symbol></defs><use y="134.765" x="223.432" xlink:href="#l" width="1052.362" height="744.094"/><use y="134.765" x="226.753" xlink:href="#m" width="1052.362" height="744.094"/></g><g ns0:text="-4" ns0:preamble="/home/waldgeist/data/sphinx/inkscape-preamble.tex" transform="translate(-1100.704 -346.856) scale(5.70771)"><defs><symbol overflow="visible" id="n"><path d="M2.75-1.86v-.577H.11v.578zm0 0"/></symbol><symbol overflow="visible" id="o"><path d="M2.938-1.64v.859c0 .36-.032.469-.766.469h-.203V0c.406-.031.922-.031 1.343-.031.422 0 .938 0 1.36.031v-.313h-.219c-.734 0-.75-.109-.75-.468v-.86h.985v-.312h-.985v-4.531c0-.204 0-.266-.172-.266-.078 0-.11 0-.187.125L.28-1.953v.312zm.046-.313H.563l2.421-3.719zm0 0"/></symbol></defs><use height="744.094" width="1052.362" xlink:href="#n" x="223.432" y="134.765"/><use height="744.094" width="1052.362" xlink:href="#o" x="226.753" y="134.765"/></g><g transform="translate(-1180.704 -346.856) scale(5.70771)" ns0:preamble="/home/waldgeist/data/sphinx/inkscape-preamble.tex" ns0:text="-5"><defs><symbol id="p" overflow="visible"><path d="M2.75-1.86v-.577H.11v.578zm0 0"/></symbol><symbol id="q" overflow="visible"><path d="M4.469-2c0-1.188-.813-2.188-1.89-2.188-.47 0-.907.157-1.267.516v-1.953c.204.063.532.125.844.125 1.235 0 1.938-.906 1.938-1.031 0-.063-.032-.11-.11-.11 0 0-.03 0-.078.032a3.22 3.22 0 0 1-1.36.296c-.39 0-.858-.078-1.327-.28-.078-.032-.094-.032-.11-.032C1-6.625 1-6.547 1-6.391v2.954c0 .171 0 .25.14.25.079 0 .094-.016.141-.079.11-.156.469-.703 1.282-.703.515 0 .765.453.843.64.156.376.188.75.188 1.25 0 .36 0 .954-.25 1.376-.235.39-.61.64-1.063.64-.719 0-1.297-.53-1.469-1.109.032 0 .063.016.172.016.329 0 .5-.25.5-.485 0-.25-.171-.5-.5-.5-.14 0-.484.079-.484.532C.5-.75 1.188.219 2.297.219 3.453.219 4.469-.734 4.469-2zm0 0"/></symbol></defs><use y="134.765" x="223.432" xlink:href="#p" width="1052.362" height="744.094"/><use y="134.765" x="226.753" xlink:href="#q" width="1052.362" height="744.094"/></g><path d="M368.429 837.025v-79.56" fill="none" stroke="gray" stroke-width="3" stroke-linecap="round" stroke-dasharray="2.99999952,8.99999857" marker-end="url(#g)" transform="translate(0 -308.268)"/><path d="M764.765 837.08H376.271" fill="none" stroke="navy" stroke-width="3" stroke-linecap="round" marker-end="url(#g)" transform="translate(0 -308.268)"/><g transform="translate(-845.015 -169.069) scale(5.70771)" ns0:preamble="/home/waldgeist/data/sphinx/inkscape-preamble.tex" ns0:text="$3-5 = -2$"><defs><symbol id="r" overflow="visible"><path d="M2.89-3.516c.813-.265 1.391-.953 1.391-1.75 0-.812-.875-1.375-1.828-1.375-1 0-1.765.594-1.765 1.36 0 .328.218.515.515.515.297 0 .5-.218.5-.515 0-.485-.469-.485-.61-.485.298-.5.954-.625 1.313-.625.422 0 .969.22.969 1.11 0 .125-.031.703-.281 1.14-.297.485-.64.516-.89.516a3.29 3.29 0 0 1-.392.031c-.078.016-.14.031-.14.125 0 .11.062.11.234.11h.438c.812 0 1.187.671 1.187 1.656 0 1.36-.687 1.64-1.125 1.64-.437 0-1.187-.171-1.531-.75.344.047.656-.171.656-.546a.537.537 0 0 0-.547-.563c-.25 0-.562.14-.562.578C.422-.437 1.344.22 2.437.22c1.22 0 2.126-.906 2.126-1.922 0-.813-.641-1.594-1.672-1.813zm0 0"/></symbol><symbol id="t" overflow="visible"><path d="M4.469-2c0-1.188-.813-2.188-1.89-2.188-.47 0-.907.157-1.267.516v-1.953c.204.063.532.125.844.125 1.235 0 1.938-.906 1.938-1.031 0-.063-.032-.11-.11-.11 0 0-.03 0-.078.032a3.22 3.22 0 0 1-1.36.296c-.39 0-.858-.078-1.327-.28-.078-.032-.094-.032-.11-.032C1-6.625 1-6.547 1-6.391v2.954c0 .171 0 .25.14.25.079 0 .094-.016.141-.079.11-.156.469-.703 1.282-.703.515 0 .765.453.843.64.156.376.188.75.188 1.25 0 .36 0 .954-.25 1.376-.235.39-.61.64-1.063.64-.719 0-1.297-.53-1.469-1.109.032 0 .063.016.172.016.329 0 .5-.25.5-.485 0-.25-.171-.5-.5-.5-.14 0-.484.079-.484.532C.5-.75 1.188.219 2.297.219 3.453.219 4.469-.734 4.469-2zm0 0"/></symbol><symbol id="u" overflow="visible"><path d="M6.844-3.266c.156 0 .343 0 .343-.187 0-.203-.187-.203-.328-.203H.891c-.141 0-.329 0-.329.203 0 .187.188.187.329.187zm.015 1.938c.141 0 .329 0 .329-.203 0-.188-.188-.188-.344-.188H.89c-.141 0-.329 0-.329.188 0 .203.188.203.329.203zm0 0"/></symbol><symbol id="v" overflow="visible"><path d="M1.266-.766l1.062-1.03c1.547-1.376 2.14-1.907 2.14-2.907 0-1.14-.89-1.938-2.109-1.938C1.234-6.64.5-5.719.5-4.828c0 .547.5.547.531.547.172 0 .516-.11.516-.532a.513.513 0 0 0-.531-.515c-.079 0-.094 0-.125.016.218-.657.765-1.016 1.343-1.016.907 0 1.329.812 1.329 1.625 0 .797-.485 1.578-1.047 2.203L.609-.375C.5-.265.5-.235.5 0h3.703l.266-1.734h-.235C4.172-1.438 4.11-1 4-.844c-.063.078-.719.078-.938.078zm0 0"/></symbol><symbol id="s" overflow="visible"><path d="M6.563-2.297c.171 0 .359 0 .359-.203 0-.188-.188-.188-.36-.188h-5.39c-.172 0-.344 0-.344.188 0 .203.172.203.344.203zm0 0"/></symbol></defs><use y="134.765" x="223.432" xlink:href="#r" width="1052.362" height="744.094"/><use y="134.765" x="230.627" xlink:href="#s" width="1052.362" height="744.094"/><use y="134.765" x="240.59" xlink:href="#t" width="1052.362" height="744.094"/><use y="134.765" x="248.341" xlink:href="#u" width="1052.362" height="744.094"/><use y="134.765" x="258.855" xlink:href="#s" width="1052.362" height="744.094"/><use y="134.765" x="266.603" xlink:href="#v" width="1052.362" height="744.094"/></g></svg>