<?xml version="1.0" encoding="UTF-8" standalone="no"?>
<!-- Created with Inkscape (http://www.inkscape.org/) -->

<svg
   xmlns:ns0="http://www.iki.fi/pav/software/textext/"
   xmlns:dc="http://purl.org/dc/elements/1.1/"
   xmlns:cc="http://creativecommons.org/ns#"
   xmlns:rdf="http://www.w3.org/1999/02/22-rdf-syntax-ns#"
   xmlns:svg="http://www.w3.org/2000/svg"
   xmlns="http://www.w3.org/2000/svg"
   xmlns:xlink="http://www.w3.org/1999/xlink"
   xmlns:sodipodi="http://sodipodi.sourceforge.net/DTD/sodipodi-0.dtd"
   xmlns:inkscape="http://www.inkscape.org/namespaces/inkscape"
   width="1052.3622"
   height="744.09448"
   id="svg2"
   version="1.1"
   inkscape:version="0.48.4 r9939"
   sodipodi:docname="zahlenstrahl-ganze-zahlen-subtraktion.svg">
  <sodipodi:namedview
     id="base"
     pagecolor="#ffffff"
     bordercolor="#666666"
     borderopacity="1.0"
     inkscape:pageopacity="0.0"
     inkscape:pageshadow="2"
     inkscape:zoom="0.95858476"
     inkscape:cx="576.47198"
     inkscape:cy="345.17602"
     inkscape:document-units="px"
     inkscape:current-layer="layer1"
     showgrid="false"
     inkscape:window-width="1600"
     inkscape:window-height="1150"
     inkscape:window-x="0"
     inkscape:window-y="0"
     inkscape:window-maximized="1"
     inkscape:object-nodes="true"
     inkscape:snap-smooth-nodes="true"
     showguides="false"
     inkscape:guide-bbox="true"
     inkscape:object-paths="true"
     inkscape:snap-intersection-paths="true"
     inkscape:snap-global="true"
     inkscape:snap-object-midpoints="true"
     inkscape:snap-midpoints="true">
    <sodipodi:guide
       orientation="1,0"
       position="766.6864,460.34246"
       id="guide5496" />
    <sodipodi:guide
       orientation="1,0"
       position="367.71474,460.52105"
       id="guide5500" />
    <sodipodi:guide
       orientation="1,0"
       position="527.52256,467.93855"
       id="guide5504" />
  </sodipodi:namedview>
  <title
     id="title5514">Zahlenstrang (Subtraktion ganzer Zahlen)</title>
  <defs
     id="defs4">
    <inkscape:perspective
       sodipodi:type="inkscape:persp3d"
       inkscape:vp_x="0 : 372.04724 : 1"
       inkscape:vp_y="0 : 1000 : 0"
       inkscape:vp_z="1052.3622 : 372.04724 : 1"
       inkscape:persp3d-origin="526.18109 : 248.03149 : 1"
       id="perspective12895" />
    <marker
       inkscape:stockid="TriangleOutM"
       orient="auto"
       refY="0"
       refX="0"
       id="TriangleOutM"
       style="overflow:visible">
      <path
         id="path3904"
         d="m 5.77,0 -8.65,5 0,-10 8.65,5 z"
         style="fill-rule:evenodd;stroke:#000000;stroke-width:1pt"
         transform="scale(0.4,0.4)"
         inkscape:connector-curvature="0" />
    </marker>
  </defs>
  <metadata
     id="metadata7">
    <rdf:RDF>
      <cc:Work
         rdf:about="">
        <dc:format>image/svg+xml</dc:format>
        <dc:type
           rdf:resource="http://purl.org/dc/dcmitype/StillImage" />
        <dc:title>Zahlenstrang (Subtraktion ganzer Zahlen)</dc:title>
        <dc:date>2012-07-12</dc:date>
        <dc:creator>
          <cc:Agent>
            <dc:title>Bernhard Grotz</dc:title>
          </cc:Agent>
        </dc:creator>
        <dc:rights>
          <cc:Agent>
            <dc:title>Bernhard Grotz</dc:title>
          </cc:Agent>
        </dc:rights>
        <dc:publisher>
          <cc:Agent>
            <dc:title>Bernhard Grotz</dc:title>
          </cc:Agent>
        </dc:publisher>
        <dc:language>de-DE</dc:language>
        <dc:subject>
          <rdf:Bag>
            <rdf:li>Mathematik</rdf:li>
            <rdf:li>Arithmetik</rdf:li>
            <rdf:li>Ganze Zahlen</rdf:li>
            <rdf:li>Zahlenstrang</rdf:li>
            <rdf:li>Subtraktion</rdf:li>
          </rdf:Bag>
        </dc:subject>
        <cc:license
           rdf:resource="http://creativecommons.org/licenses/by-nc-sa/3.0/" />
      </cc:Work>
      <cc:License
         rdf:about="http://creativecommons.org/licenses/by-nc-sa/3.0/">
        <cc:permits
           rdf:resource="http://creativecommons.org/ns#Reproduction" />
        <cc:permits
           rdf:resource="http://creativecommons.org/ns#Distribution" />
        <cc:requires
           rdf:resource="http://creativecommons.org/ns#Notice" />
        <cc:requires
           rdf:resource="http://creativecommons.org/ns#Attribution" />
        <cc:prohibits
           rdf:resource="http://creativecommons.org/ns#CommercialUse" />
        <cc:permits
           rdf:resource="http://creativecommons.org/ns#DerivativeWorks" />
        <cc:requires
           rdf:resource="http://creativecommons.org/ns#ShareAlike" />
      </cc:License>
    </rdf:RDF>
  </metadata>
  <g
     inkscape:label="Layer 1"
     inkscape:groupmode="layer"
     id="layer1"
     transform="translate(0,-308.2677)">
    <rect
       inkscape:export-ydpi="150"
       inkscape:export-xdpi="150"
       inkscape:export-filename="/home/waldgeist/data/homepage/pics/mathematik/arithmetik/zahlenstrahl-ganze-zahlen-subtraktion.png"
       style="fill:#ffffff;fill-opacity:1;fill-rule:nonzero;stroke:#ffffff;stroke-width:1.99999988000000006;stroke-linecap:butt;stroke-linejoin:miter;stroke-miterlimit:4;stroke-opacity:1;stroke-dasharray:2.00000001999999988, 8.00000007000000046;stroke-dashoffset:0"
       id="rect5422"
       width="1024.2947"
       height="400.02042"
       x="18.493853"
       y="533.25214" />
    <path
       inkscape:export-ydpi="150"
       inkscape:export-xdpi="150"
       inkscape:export-filename="/home/waldgeist/data/homepage/pics/mathematik/arithmetik/zahlenstrahl-ganze-zahlen-subtraktion.png"
       style="fill:none;stroke:#000000;stroke-width:3;stroke-linecap:round;stroke-linejoin:miter;stroke-opacity:1"
       d="m 606.6864,592.01972 0,62.62945"
       id="path4199"
       inkscape:connector-curvature="0" />
    <path
       inkscape:export-ydpi="150"
       inkscape:export-xdpi="150"
       inkscape:export-filename="/home/waldgeist/data/homepage/pics/mathematik/arithmetik/zahlenstrahl-ganze-zahlen-subtraktion.png"
       id="path4217"
       d="m 926.6864,592.01972 c 0,0 0,62.62945 0,62.62945"
       style="fill:none;stroke:#800000;stroke-width:3;stroke-linecap:round;stroke-linejoin:miter;stroke-opacity:1"
       inkscape:connector-curvature="0" />
    <path
       inkscape:export-ydpi="150"
       inkscape:export-xdpi="150"
       inkscape:export-filename="/home/waldgeist/data/homepage/pics/mathematik/arithmetik/zahlenstrahl-ganze-zahlen-subtraktion.png"
       id="path4219"
       d="m 846.6864,592.01972 c 0,0 0,62.62946 0,62.62946"
       style="fill:none;stroke:#800000;stroke-width:3;stroke-linecap:round;stroke-linejoin:miter;stroke-opacity:1"
       inkscape:connector-curvature="0" />
    <path
       inkscape:export-ydpi="150"
       inkscape:export-xdpi="150"
       inkscape:export-filename="/home/waldgeist/data/homepage/pics/mathematik/arithmetik/zahlenstrahl-ganze-zahlen-subtraktion.png"
       id="path4221"
       d="m 766.6864,592.01972 c 0,0 0,62.62945 0,62.62945"
       style="fill:none;stroke:#800000;stroke-width:3;stroke-linecap:round;stroke-linejoin:miter;stroke-opacity:1"
       inkscape:connector-curvature="0" />
    <path
       inkscape:export-ydpi="150"
       inkscape:export-xdpi="150"
       inkscape:export-filename="/home/waldgeist/data/homepage/pics/mathematik/arithmetik/zahlenstrahl-ganze-zahlen-subtraktion.png"
       id="path4223"
       d="m 686.6864,592.01972 c 0,0 0,62.62946 0,62.62946"
       style="fill:none;stroke:#800000;stroke-width:3;stroke-linecap:round;stroke-linejoin:miter;stroke-opacity:1"
       inkscape:connector-curvature="0" />
    <g
       inkscape:export-ydpi="150"
       inkscape:export-xdpi="150"
       inkscape:export-filename="/home/waldgeist/data/homepage/pics/mathematik/arithmetik/zahlenstrahl-ganze-zahlen-subtraktion.png"
       id="g4307"
       ns0:preamble="/home/waldgeist/data/sphinx/test.tex"
       ns0:text="1"
       transform="matrix(5.7077124,0,0,5.7077124,-683.04691,-38.588149)">
      <defs
         id="defs4309">
        <g
           id="g4311">
          <symbol
             id="textext-456cb45f-0"
             overflow="visible"
             style="overflow:visible">
            <path
               id="path4314"
               d="m 2.9375,-6.375 c 0,-0.25 0,-0.265625 -0.234375,-0.265625 C 2.078125,-6 1.203125,-6 0.890625,-6 l 0,0.3125 c 0.203125,0 0.78125,0 1.296875,-0.265625 l 0,5.171875 c 0,0.359375 -0.03125,0.46875 -0.921875,0.46875 l -0.3125,0 0,0.3125 c 0.34375,-0.03125 1.203125,-0.03125 1.609375,-0.03125 0.390625,0 1.265625,0 1.609375,0.03125 l 0,-0.3125 -0.3125,0 c -0.90625,0 -0.921875,-0.109375 -0.921875,-0.46875 z m 0,0"
               style="stroke:none"
               inkscape:connector-curvature="0" />
          </symbol>
        </g>
      </defs>
      <g
         id="textext-456cb45f-1">
        <g
           id="g4317"
           style="fill:#000000;fill-opacity:1">
          <use
             id="use4319"
             y="134.765"
             x="223.43201"
             xlink:href="#textext-456cb45f-0"
             width="744.09448"
             height="1052.3622" />
        </g>
      </g>
    </g>
    <g
       inkscape:export-ydpi="150"
       inkscape:export-xdpi="150"
       inkscape:export-filename="/home/waldgeist/data/homepage/pics/mathematik/arithmetik/zahlenstrahl-ganze-zahlen-subtraktion.png"
       ns0:text="2"
       ns0:preamble="/home/waldgeist/data/sphinx/test.tex"
       transform="matrix(5.7077124,0,0,5.7077124,-602.33264,-38.588149)"
       id="g4507">
      <defs
         id="defs4509">
        <g
           id="g4511">
          <symbol
             style="overflow:visible"
             overflow="visible"
             id="textext-c9dfcfeb-0">
            <path
               inkscape:connector-curvature="0"
               style="stroke:none"
               d="m 1.265625,-0.765625 1.0625,-1.03125 c 1.546875,-1.375 2.140625,-1.90625 2.140625,-2.90625 0,-1.140625 -0.890625,-1.9375 -2.109375,-1.9375 -1.125,0 -1.859375,0.921875 -1.859375,1.8125 0,0.546875 0.5,0.546875 0.53125,0.546875 0.171875,0 0.515625,-0.109375 0.515625,-0.53125 0,-0.25 -0.1875,-0.515625 -0.53125,-0.515625 -0.078125,0 -0.09375,0 -0.125,0.015625 0.21875,-0.65625 0.765625,-1.015625 1.34375,-1.015625 0.90625,0 1.328125,0.8125 1.328125,1.625 C 3.5625,-3.90625 3.078125,-3.125 2.515625,-2.5 l -1.90625,2.125 C 0.5,-0.265625 0.5,-0.234375 0.5,0 l 3.703125,0 0.265625,-1.734375 -0.234375,0 C 4.171875,-1.4375 4.109375,-1 4,-0.84375 3.9375,-0.765625 3.28125,-0.765625 3.0625,-0.765625 z m 0,0"
               id="path4514" />
          </symbol>
        </g>
      </defs>
      <g
         id="textext-c9dfcfeb-1">
        <g
           style="fill:#000000;fill-opacity:1"
           id="g4517">
          <use
             xlink:href="#textext-c9dfcfeb-0"
             x="223.43201"
             y="134.765"
             id="use4519"
             transform="translate(-0.07826322,0)"
             width="744.09448"
             height="1052.3622" />
        </g>
      </g>
    </g>
    <g
       inkscape:export-ydpi="150"
       inkscape:export-xdpi="150"
       inkscape:export-filename="/home/waldgeist/data/homepage/pics/mathematik/arithmetik/zahlenstrahl-ganze-zahlen-subtraktion.png"
       id="g4659"
       transform="matrix(5.7077124,0,0,5.7077124,-522.82394,-38.588149)"
       ns0:preamble="/home/waldgeist/data/sphinx/test.tex"
       ns0:text="3">
      <defs
         id="defs4661">
        <g
           id="g4663">
          <symbol
             id="textext-4bb68c9a-0"
             overflow="visible"
             style="overflow:visible">
            <path
               id="path4666"
               d="m 2.890625,-3.515625 c 0.8125,-0.265625 1.390625,-0.953125 1.390625,-1.75 0,-0.8125 -0.875,-1.375 -1.828125,-1.375 -1,0 -1.765625,0.59375 -1.765625,1.359375 0,0.328125 0.21875,0.515625 0.515625,0.515625 0.296875,0 0.5,-0.21875 0.5,-0.515625 0,-0.484375 -0.46875,-0.484375 -0.609375,-0.484375 0.296875,-0.5 0.953125,-0.625 1.3125,-0.625 0.421875,0 0.96875,0.21875 0.96875,1.109375 0,0.125 -0.03125,0.703125 -0.28125,1.140625 C 2.796875,-3.65625 2.453125,-3.625 2.203125,-3.625 2.125,-3.609375 1.890625,-3.59375 1.8125,-3.59375 c -0.078125,0.015625 -0.140625,0.03125 -0.140625,0.125 0,0.109375 0.0625,0.109375 0.234375,0.109375 l 0.4375,0 c 0.8125,0 1.1875,0.671875 1.1875,1.65625 0,1.359375 -0.6875,1.640625 -1.125,1.640625 -0.4375,0 -1.1875,-0.171875 -1.53125,-0.75 0.34375,0.046875 0.65625,-0.171875 0.65625,-0.546875 0,-0.359375 -0.265625,-0.5625 -0.546875,-0.5625 -0.25,0 -0.5625,0.140625 -0.5625,0.578125 0,0.90625 0.921875,1.5625 2.015625,1.5625 1.21875,0 2.125,-0.90625 2.125,-1.921875 0,-0.8125 -0.640625,-1.59375 -1.671875,-1.8125 z m 0,0"
               style="stroke:none"
               inkscape:connector-curvature="0" />
          </symbol>
        </g>
      </defs>
      <g
         id="textext-4bb68c9a-1">
        <g
           id="g4669"
           style="fill:#000000;fill-opacity:1">
          <use
             id="use4671"
             y="134.765"
             x="223.43201"
             xlink:href="#textext-4bb68c9a-0"
             width="744.09448"
             height="1052.3622" />
        </g>
      </g>
    </g>
    <g
       inkscape:export-ydpi="150"
       inkscape:export-xdpi="150"
       inkscape:export-filename="/home/waldgeist/data/homepage/pics/mathematik/arithmetik/zahlenstrahl-ganze-zahlen-subtraktion.png"
       ns0:text="4"
       ns0:preamble="/home/waldgeist/data/sphinx/test.tex"
       transform="matrix(5.7077124,0,0,5.7077124,-442.77934,-38.588149)"
       id="g4811">
      <defs
         id="defs4813">
        <g
           id="g4815">
          <symbol
             overflow="visible"
             id="textext-8d2d3a96-0"
             style="overflow:visible">
            <path
               style="stroke:none"
               d="m 2.9375,-1.640625 0,0.859375 c 0,0.359375 -0.03125,0.46875 -0.765625,0.46875 l -0.203125,0 0,0.3125 C 2.375,-0.03125 2.890625,-0.03125 3.3125,-0.03125 c 0.421875,0 0.9375,0 1.359375,0.03125 l 0,-0.3125 -0.21875,0 c -0.734375,0 -0.75,-0.109375 -0.75,-0.46875 l 0,-0.859375 0.984375,0 0,-0.3125 -0.984375,0 0,-4.53125 c 0,-0.203125 0,-0.265625 -0.171875,-0.265625 -0.078125,0 -0.109375,0 -0.1875,0.125 l -3.0625,4.671875 0,0.3125 z m 0.046875,-0.3125 -2.421875,0 2.421875,-3.71875 z m 0,0"
               id="path4818"
               inkscape:connector-curvature="0" />
          </symbol>
        </g>
      </defs>
      <g
         id="textext-8d2d3a96-1">
        <g
           style="fill:#000000;fill-opacity:1"
           id="g4821">
          <use
             xlink:href="#textext-8d2d3a96-0"
             x="223.43201"
             y="134.765"
             id="use4823"
             width="744.09448"
             height="1052.3622" />
        </g>
      </g>
    </g>
    <g
       inkscape:export-ydpi="150"
       inkscape:export-xdpi="150"
       inkscape:export-filename="/home/waldgeist/data/homepage/pics/mathematik/arithmetik/zahlenstrahl-ganze-zahlen-subtraktion.png"
       id="g4963"
       transform="matrix(5.7077124,0,0,5.7077124,-362.77934,-38.588149)"
       ns0:preamble="/home/waldgeist/data/sphinx/test.tex"
       ns0:text="5">
      <defs
         id="defs4965">
        <g
           id="g4967">
          <symbol
             id="textext-33358824-0"
             overflow="visible"
             style="overflow:visible">
            <path
               id="path4970"
               d="m 4.46875,-2 c 0,-1.1875 -0.8125,-2.1875 -1.890625,-2.1875 -0.46875,0 -0.90625,0.15625 -1.265625,0.515625 l 0,-1.953125 c 0.203125,0.0625 0.53125,0.125 0.84375,0.125 1.234375,0 1.9375,-0.90625 1.9375,-1.03125 0,-0.0625 -0.03125,-0.109375 -0.109375,-0.109375 0,0 -0.03125,0 -0.078125,0.03125 C 3.703125,-6.515625 3.21875,-6.3125 2.546875,-6.3125 2.15625,-6.3125 1.6875,-6.390625 1.21875,-6.59375 1.140625,-6.625 1.125,-6.625 1.109375,-6.625 1,-6.625 1,-6.546875 1,-6.390625 L 1,-3.4375 c 0,0.171875 0,0.25 0.140625,0.25 0.078125,0 0.09375,-0.015625 0.140625,-0.078125 C 1.390625,-3.421875 1.75,-3.96875 2.5625,-3.96875 c 0.515625,0 0.765625,0.453125 0.84375,0.640625 0.15625,0.375 0.1875,0.75 0.1875,1.25 0,0.359375 0,0.953125 -0.25,1.375 C 3.109375,-0.3125 2.734375,-0.0625 2.28125,-0.0625 c -0.71875,0 -1.296875,-0.53125 -1.46875,-1.109375 0.03125,0 0.0625,0.015625 0.171875,0.015625 0.328125,0 0.5,-0.25 0.5,-0.484375 0,-0.25 -0.171875,-0.5 -0.5,-0.5 C 0.84375,-2.140625 0.5,-2.0625 0.5,-1.609375 0.5,-0.75 1.1875,0.21875 2.296875,0.21875 3.453125,0.21875 4.46875,-0.734375 4.46875,-2 z m 0,0"
               style="stroke:none"
               inkscape:connector-curvature="0" />
          </symbol>
        </g>
      </defs>
      <g
         id="textext-33358824-1">
        <g
           id="g4973"
           style="fill:#000000;fill-opacity:1">
          <use
             id="use4975"
             y="134.765"
             x="223.43201"
             xlink:href="#textext-33358824-0"
             width="744.09448"
             height="1052.3622" />
        </g>
      </g>
    </g>
    <path
       inkscape:export-ydpi="150"
       inkscape:export-xdpi="150"
       inkscape:export-filename="/home/waldgeist/data/homepage/pics/mathematik/arithmetik/zahlenstrahl-ganze-zahlen-subtraktion.png"
       inkscape:connector-curvature="0"
       id="path10281"
       d="m 527.52256,584.42363 0,77.8216"
       style="fill:none;stroke:#000000;stroke-width:4;stroke-linecap:round;stroke-linejoin:miter;stroke-opacity:1" />
    <g
       inkscape:export-ydpi="150"
       inkscape:export-xdpi="150"
       inkscape:export-filename="/home/waldgeist/data/homepage/pics/mathematik/arithmetik/zahlenstrahl-ganze-zahlen-subtraktion.png"
       ns0:text="0"
       ns0:preamble=""
       transform="matrix(5.7077124,0,0,5.7077124,-761.94317,-38.588149)"
       id="g10373">
      <defs
         id="defs10375">
        <g
           id="g10377">
          <symbol
             style="overflow:visible"
             overflow="visible"
             id="textext-cd9a0d60-0">
            <path
               inkscape:connector-curvature="0"
               style="stroke:none"
               d="m 4.578125,-3.1875 c 0,-0.796875 -0.046875,-1.59375 -0.390625,-2.328125 -0.453125,-0.96875 -1.28125,-1.125 -1.6875,-1.125 -0.609375,0 -1.328125,0.265625 -1.75,1.1875 -0.3125,0.6875 -0.359375,1.46875 -0.359375,2.265625 0,0.75 0.03125,1.640625 0.453125,2.40625 0.421875,0.796875 1.15625,1 1.640625,1 0.53125,0 1.296875,-0.203125 1.734375,-1.15625 0.3125,-0.6875 0.359375,-1.46875 0.359375,-2.25 z M 2.484375,0 C 2.09375,0 1.5,-0.25 1.328125,-1.203125 1.21875,-1.796875 1.21875,-2.71875 1.21875,-3.3125 c 0,-0.640625 0,-1.296875 0.078125,-1.828125 0.1875,-1.1875 0.9375,-1.28125 1.1875,-1.28125 0.328125,0 0.984375,0.1875 1.171875,1.171875 0.109375,0.5625 0.109375,1.3125 0.109375,1.9375 0,0.75 0,1.421875 -0.109375,2.0625 C 3.5,-0.296875 2.9375,0 2.484375,0 z m 0,0"
               id="path10380" />
          </symbol>
        </g>
      </defs>
      <g
         id="textext-cd9a0d60-1">
        <g
           style="fill:#000000;fill-opacity:1"
           id="g10383">
          <use
             height="744.09448"
             width="1052.3622"
             xlink:href="#textext-cd9a0d60-0"
             x="223.43201"
             y="134.765"
             id="use10385" />
        </g>
      </g>
    </g>
    <path
       inkscape:export-ydpi="150"
       inkscape:export-xdpi="150"
       inkscape:export-filename="/home/waldgeist/data/homepage/pics/mathematik/arithmetik/zahlenstrahl-ganze-zahlen-subtraktion.png"
       style="fill:none;stroke:#550000;stroke-width:2.99999976;stroke-linecap:round;stroke-linejoin:miter;stroke-miterlimit:4;stroke-opacity:1;stroke-dasharray:2.99999976, 8.99999929;stroke-dashoffset:0;marker-end:url(#TriangleOutM)"
       d="m 527.71474,623.33445 491.98316,0"
       id="path2985"
       inkscape:connector-curvature="0" />
    <path
       inkscape:connector-curvature="0"
       id="path11260"
       d="m 527.33038,623.33443 -491.983159,0"
       style="fill:none;stroke:#000080;stroke-width:2.99999976;stroke-linecap:round;stroke-linejoin:miter;stroke-miterlimit:4;stroke-opacity:1;stroke-dasharray:2.99999976, 8.99999929;stroke-dashoffset:0;marker-end:url(#TriangleOutM)"
       inkscape:export-filename="/home/waldgeist/data/homepage/pics/mathematik/arithmetik/zahlenstrahl-ganze-zahlen-subtraktion.png"
       inkscape:export-xdpi="150"
       inkscape:export-ydpi="150" />
    <path
       inkscape:connector-curvature="0"
       id="path4698"
       d="m 527.71474,797.08069 230.8765,0"
       style="fill:none;stroke:#800000;stroke-width:2.99999952;stroke-linecap:round;stroke-linejoin:miter;stroke-miterlimit:4;stroke-opacity:1;stroke-dasharray:none;stroke-dashoffset:0;marker-end:url(#TriangleOutM)"
       inkscape:export-filename="/home/waldgeist/data/homepage/pics/mathematik/arithmetik/zahlenstrahl-ganze-zahlen-subtraktion.png"
       inkscape:export-xdpi="150"
       inkscape:export-ydpi="150" />
    <path
       inkscape:connector-curvature="0"
       style="fill:none;stroke:#800000;stroke-width:3;stroke-linecap:round;stroke-linejoin:miter;stroke-opacity:1"
       d="m 606.6864,591.84113 c 0,0 0,62.62946 0,62.62946"
       id="path11268"
       inkscape:export-filename="/home/waldgeist/data/homepage/pics/mathematik/arithmetik/zahlenstrahl-ganze-zahlen-subtraktion.png"
       inkscape:export-xdpi="150"
       inkscape:export-ydpi="150" />
    <path
       inkscape:connector-curvature="0"
       style="fill:none;stroke:#000080;stroke-width:3;stroke-linecap:round;stroke-linejoin:miter;stroke-opacity:1"
       d="m 447.71474,591.84113 c 0,0 0,62.62946 0,62.62946"
       id="path11280"
       inkscape:export-filename="/home/waldgeist/data/homepage/pics/mathematik/arithmetik/zahlenstrahl-ganze-zahlen-subtraktion.png"
       inkscape:export-xdpi="150"
       inkscape:export-ydpi="150" />
    <path
       inkscape:connector-curvature="0"
       style="fill:none;stroke:#000080;stroke-width:3;stroke-linecap:round;stroke-linejoin:miter;stroke-opacity:1"
       d="m 367.71474,591.84113 c 0,0 0,62.62946 0,62.62946"
       id="path11282"
       inkscape:export-filename="/home/waldgeist/data/homepage/pics/mathematik/arithmetik/zahlenstrahl-ganze-zahlen-subtraktion.png"
       inkscape:export-xdpi="150"
       inkscape:export-ydpi="150" />
    <path
       inkscape:connector-curvature="0"
       style="fill:none;stroke:#000080;stroke-width:3;stroke-linecap:round;stroke-linejoin:miter;stroke-opacity:1"
       d="m 287.71474,591.84113 c 0,0 0,62.62946 0,62.62946"
       id="path11284"
       inkscape:export-filename="/home/waldgeist/data/homepage/pics/mathematik/arithmetik/zahlenstrahl-ganze-zahlen-subtraktion.png"
       inkscape:export-xdpi="150"
       inkscape:export-ydpi="150" />
    <path
       inkscape:export-ydpi="150"
       inkscape:export-xdpi="150"
       inkscape:export-filename="/home/waldgeist/data/homepage/pics/mathematik/arithmetik/zahlenstrahl-ganze-zahlen-subtraktion.png"
       id="path11286"
       d="m 207.71474,591.84113 c 0,0 0,62.62946 0,62.62946"
       style="fill:none;stroke:#000080;stroke-width:3;stroke-linecap:round;stroke-linejoin:miter;stroke-opacity:1"
       inkscape:connector-curvature="0" />
    <path
       inkscape:connector-curvature="0"
       style="fill:none;stroke:#000080;stroke-width:3;stroke-linecap:round;stroke-linejoin:miter;stroke-opacity:1"
       d="m 127.71474,591.84113 c 0,0 0,62.62946 0,62.62946"
       id="path11290"
       inkscape:export-filename="/home/waldgeist/data/homepage/pics/mathematik/arithmetik/zahlenstrahl-ganze-zahlen-subtraktion.png"
       inkscape:export-xdpi="150"
       inkscape:export-ydpi="150" />
    <g
       id="g11399"
       transform="matrix(5.7077124,0,0,5.7077124,-860.97115,-38.588149)"
       ns0:preamble=""
       ns0:text="-1"
       inkscape:export-filename="/home/waldgeist/data/homepage/pics/mathematik/arithmetik/zahlenstrahl-ganze-zahlen-subtraktion.png"
       inkscape:export-xdpi="150"
       inkscape:export-ydpi="150">
      <defs
         id="defs11401">
        <g
           id="g11403">
          <symbol
             id="textext-cff3bdd9-0"
             overflow="visible"
             style="overflow:visible">
            <path
               id="path11406"
               d="m 2.75,-1.859375 0,-0.578125 -2.640625,0 0,0.578125 z m 0,0"
               style="stroke:none"
               inkscape:connector-curvature="0" />
          </symbol>
          <symbol
             id="textext-cff3bdd9-1"
             overflow="visible"
             style="overflow:visible">
            <path
               id="path11409"
               d="m 2.9375,-6.375 c 0,-0.25 0,-0.265625 -0.234375,-0.265625 C 2.078125,-6 1.203125,-6 0.890625,-6 l 0,0.3125 c 0.203125,0 0.78125,0 1.296875,-0.265625 l 0,5.171875 c 0,0.359375 -0.03125,0.46875 -0.921875,0.46875 l -0.3125,0 0,0.3125 c 0.34375,-0.03125 1.203125,-0.03125 1.609375,-0.03125 0.390625,0 1.265625,0 1.609375,0.03125 l 0,-0.3125 -0.3125,0 c -0.90625,0 -0.921875,-0.109375 -0.921875,-0.46875 z m 0,0"
               style="stroke:none"
               inkscape:connector-curvature="0" />
          </symbol>
        </g>
      </defs>
      <g
         id="textext-cff3bdd9-2">
        <g
           id="g11412"
           style="fill:#000000;fill-opacity:1">
          <use
             id="use11414"
             y="134.765"
             x="223.43201"
             xlink:href="#textext-cff3bdd9-0"
             width="1052.3622"
             height="744.09448" />
          <use
             id="use11416"
             y="134.765"
             x="226.75253"
             xlink:href="#textext-cff3bdd9-1"
             width="1052.3622"
             height="744.09448" />
        </g>
      </g>
    </g>
    <g
       ns0:text="-2"
       ns0:preamble="/home/waldgeist/data/sphinx/inkscape-preamble.tex"
       transform="matrix(5.7077124,0,0,5.7077124,-940.7036,-38.588149)"
       id="g11724"
       inkscape:export-filename="/home/waldgeist/data/homepage/pics/mathematik/arithmetik/zahlenstrahl-ganze-zahlen-subtraktion.png"
       inkscape:export-xdpi="150"
       inkscape:export-ydpi="150">
      <defs
         id="defs11726">
        <g
           id="g11728">
          <symbol
             style="overflow:visible"
             overflow="visible"
             id="textext-d708332b-0">
            <path
               inkscape:connector-curvature="0"
               style="stroke:none"
               d="m 2.75,-1.859375 0,-0.578125 -2.640625,0 0,0.578125 z m 0,0"
               id="path11731" />
          </symbol>
          <symbol
             style="overflow:visible"
             overflow="visible"
             id="textext-d708332b-1">
            <path
               inkscape:connector-curvature="0"
               style="stroke:none"
               d="m 1.265625,-0.765625 1.0625,-1.03125 c 1.546875,-1.375 2.140625,-1.90625 2.140625,-2.90625 0,-1.140625 -0.890625,-1.9375 -2.109375,-1.9375 -1.125,0 -1.859375,0.921875 -1.859375,1.8125 0,0.546875 0.5,0.546875 0.53125,0.546875 0.171875,0 0.515625,-0.109375 0.515625,-0.53125 0,-0.25 -0.1875,-0.515625 -0.53125,-0.515625 -0.078125,0 -0.09375,0 -0.125,0.015625 0.21875,-0.65625 0.765625,-1.015625 1.34375,-1.015625 0.90625,0 1.328125,0.8125 1.328125,1.625 C 3.5625,-3.90625 3.078125,-3.125 2.515625,-2.5 l -1.90625,2.125 C 0.5,-0.265625 0.5,-0.234375 0.5,0 l 3.703125,0 0.265625,-1.734375 -0.234375,0 C 4.171875,-1.4375 4.109375,-1 4,-0.84375 3.9375,-0.765625 3.28125,-0.765625 3.0625,-0.765625 z m 0,0"
               id="path11734" />
          </symbol>
        </g>
      </defs>
      <g
         id="textext-d708332b-2">
        <g
           style="fill:#000000;fill-opacity:1"
           id="g11737">
          <use
             height="744.09448"
             width="1052.3622"
             xlink:href="#textext-d708332b-0"
             x="223.43201"
             y="134.765"
             id="use11739" />
          <use
             height="744.09448"
             width="1052.3622"
             xlink:href="#textext-d708332b-1"
             x="226.75253"
             y="134.765"
             id="use11741" />
        </g>
      </g>
    </g>
    <g
       id="g12031"
       transform="matrix(5.7077124,0,0,5.7077124,-1020.7482,-38.588149)"
       ns0:preamble="/home/waldgeist/data/sphinx/inkscape-preamble.tex"
       ns0:text="-3"
       inkscape:export-filename="/home/waldgeist/data/homepage/pics/mathematik/arithmetik/zahlenstrahl-ganze-zahlen-subtraktion.png"
       inkscape:export-xdpi="150"
       inkscape:export-ydpi="150">
      <defs
         id="defs12033">
        <g
           id="g12035">
          <symbol
             id="textext-904021cd-0"
             overflow="visible"
             style="overflow:visible">
            <path
               id="path12038"
               d="m 2.75,-1.859375 0,-0.578125 -2.640625,0 0,0.578125 z m 0,0"
               style="stroke:none"
               inkscape:connector-curvature="0" />
          </symbol>
          <symbol
             id="textext-904021cd-1"
             overflow="visible"
             style="overflow:visible">
            <path
               id="path12041"
               d="m 2.890625,-3.515625 c 0.8125,-0.265625 1.390625,-0.953125 1.390625,-1.75 0,-0.8125 -0.875,-1.375 -1.828125,-1.375 -1,0 -1.765625,0.59375 -1.765625,1.359375 0,0.328125 0.21875,0.515625 0.515625,0.515625 0.296875,0 0.5,-0.21875 0.5,-0.515625 0,-0.484375 -0.46875,-0.484375 -0.609375,-0.484375 0.296875,-0.5 0.953125,-0.625 1.3125,-0.625 0.421875,0 0.96875,0.21875 0.96875,1.109375 0,0.125 -0.03125,0.703125 -0.28125,1.140625 C 2.796875,-3.65625 2.453125,-3.625 2.203125,-3.625 2.125,-3.609375 1.890625,-3.59375 1.8125,-3.59375 c -0.078125,0.015625 -0.140625,0.03125 -0.140625,0.125 0,0.109375 0.0625,0.109375 0.234375,0.109375 l 0.4375,0 c 0.8125,0 1.1875,0.671875 1.1875,1.65625 0,1.359375 -0.6875,1.640625 -1.125,1.640625 -0.4375,0 -1.1875,-0.171875 -1.53125,-0.75 0.34375,0.046875 0.65625,-0.171875 0.65625,-0.546875 0,-0.359375 -0.265625,-0.5625 -0.546875,-0.5625 -0.25,0 -0.5625,0.140625 -0.5625,0.578125 0,0.90625 0.921875,1.5625 2.015625,1.5625 1.21875,0 2.125,-0.90625 2.125,-1.921875 0,-0.8125 -0.640625,-1.59375 -1.671875,-1.8125 z m 0,0"
               style="stroke:none"
               inkscape:connector-curvature="0" />
          </symbol>
        </g>
      </defs>
      <g
         id="textext-904021cd-2">
        <g
           id="g12044"
           style="fill:#000000;fill-opacity:1">
          <use
             id="use12046"
             y="134.765"
             x="223.43201"
             xlink:href="#textext-904021cd-0"
             width="1052.3622"
             height="744.09448" />
          <use
             id="use12048"
             y="134.765"
             x="226.75253"
             xlink:href="#textext-904021cd-1"
             width="1052.3622"
             height="744.09448" />
        </g>
      </g>
    </g>
    <g
       ns0:text="-4"
       ns0:preamble="/home/waldgeist/data/sphinx/inkscape-preamble.tex"
       transform="matrix(5.7077124,0,0,5.7077124,-1100.7036,-38.588149)"
       id="g12360"
       inkscape:export-filename="/home/waldgeist/data/homepage/pics/mathematik/arithmetik/zahlenstrahl-ganze-zahlen-subtraktion.png"
       inkscape:export-xdpi="150"
       inkscape:export-ydpi="150">
      <defs
         id="defs12362">
        <g
           id="g12364">
          <symbol
             style="overflow:visible"
             overflow="visible"
             id="textext-6bf59d7c-0">
            <path
               inkscape:connector-curvature="0"
               style="stroke:none"
               d="m 2.75,-1.859375 0,-0.578125 -2.640625,0 0,0.578125 z m 0,0"
               id="path12367" />
          </symbol>
          <symbol
             style="overflow:visible"
             overflow="visible"
             id="textext-6bf59d7c-1">
            <path
               inkscape:connector-curvature="0"
               style="stroke:none"
               d="m 2.9375,-1.640625 0,0.859375 c 0,0.359375 -0.03125,0.46875 -0.765625,0.46875 l -0.203125,0 0,0.3125 C 2.375,-0.03125 2.890625,-0.03125 3.3125,-0.03125 c 0.421875,0 0.9375,0 1.359375,0.03125 l 0,-0.3125 -0.21875,0 c -0.734375,0 -0.75,-0.109375 -0.75,-0.46875 l 0,-0.859375 0.984375,0 0,-0.3125 -0.984375,0 0,-4.53125 c 0,-0.203125 0,-0.265625 -0.171875,-0.265625 -0.078125,0 -0.109375,0 -0.1875,0.125 l -3.0625,4.671875 0,0.3125 z m 0.046875,-0.3125 -2.421875,0 2.421875,-3.71875 z m 0,0"
               id="path12370" />
          </symbol>
        </g>
      </defs>
      <g
         id="textext-6bf59d7c-2">
        <g
           style="fill:#000000;fill-opacity:1"
           id="g12373">
          <use
             height="744.09448"
             width="1052.3622"
             xlink:href="#textext-6bf59d7c-0"
             x="223.43201"
             y="134.765"
             id="use12375" />
          <use
             height="744.09448"
             width="1052.3622"
             xlink:href="#textext-6bf59d7c-1"
             x="226.75253"
             y="134.765"
             id="use12377" />
        </g>
      </g>
    </g>
    <g
       id="g12711"
       transform="matrix(5.7077124,0,0,5.7077124,-1180.7036,-38.588149)"
       ns0:preamble="/home/waldgeist/data/sphinx/inkscape-preamble.tex"
       ns0:text="-5"
       inkscape:export-filename="/home/waldgeist/data/homepage/pics/mathematik/arithmetik/zahlenstrahl-ganze-zahlen-subtraktion.png"
       inkscape:export-xdpi="150"
       inkscape:export-ydpi="150">
      <defs
         id="defs12713">
        <g
           id="g12715">
          <symbol
             id="textext-e7f14f77-0"
             overflow="visible"
             style="overflow:visible">
            <path
               id="path12718"
               d="m 2.75,-1.859375 0,-0.578125 -2.640625,0 0,0.578125 z m 0,0"
               style="stroke:none"
               inkscape:connector-curvature="0" />
          </symbol>
          <symbol
             id="textext-e7f14f77-1"
             overflow="visible"
             style="overflow:visible">
            <path
               id="path12721"
               d="m 4.46875,-2 c 0,-1.1875 -0.8125,-2.1875 -1.890625,-2.1875 -0.46875,0 -0.90625,0.15625 -1.265625,0.515625 l 0,-1.953125 c 0.203125,0.0625 0.53125,0.125 0.84375,0.125 1.234375,0 1.9375,-0.90625 1.9375,-1.03125 0,-0.0625 -0.03125,-0.109375 -0.109375,-0.109375 0,0 -0.03125,0 -0.078125,0.03125 C 3.703125,-6.515625 3.21875,-6.3125 2.546875,-6.3125 2.15625,-6.3125 1.6875,-6.390625 1.21875,-6.59375 1.140625,-6.625 1.125,-6.625 1.109375,-6.625 1,-6.625 1,-6.546875 1,-6.390625 L 1,-3.4375 c 0,0.171875 0,0.25 0.140625,0.25 0.078125,0 0.09375,-0.015625 0.140625,-0.078125 C 1.390625,-3.421875 1.75,-3.96875 2.5625,-3.96875 c 0.515625,0 0.765625,0.453125 0.84375,0.640625 0.15625,0.375 0.1875,0.75 0.1875,1.25 0,0.359375 0,0.953125 -0.25,1.375 C 3.109375,-0.3125 2.734375,-0.0625 2.28125,-0.0625 c -0.71875,0 -1.296875,-0.53125 -1.46875,-1.109375 0.03125,0 0.0625,0.015625 0.171875,0.015625 0.328125,0 0.5,-0.25 0.5,-0.484375 0,-0.25 -0.171875,-0.5 -0.5,-0.5 C 0.84375,-2.140625 0.5,-2.0625 0.5,-1.609375 0.5,-0.75 1.1875,0.21875 2.296875,0.21875 3.453125,0.21875 4.46875,-0.734375 4.46875,-2 z m 0,0"
               style="stroke:none"
               inkscape:connector-curvature="0" />
          </symbol>
        </g>
      </defs>
      <g
         id="textext-e7f14f77-2">
        <g
           id="g12724"
           style="fill:#000000;fill-opacity:1">
          <use
             id="use12726"
             y="134.765"
             x="223.43201"
             xlink:href="#textext-e7f14f77-0"
             width="1052.3622"
             height="744.09448" />
          <use
             id="use12728"
             y="134.765"
             x="226.75253"
             xlink:href="#textext-e7f14f77-1"
             width="1052.3622"
             height="744.09448" />
        </g>
      </g>
    </g>
    <path
       inkscape:connector-curvature="0"
       id="path5506"
       d="m 368.42903,837.02508 0,-79.55969"
       style="fill:none;stroke:#808080;stroke-width:2.99999952;stroke-linecap:round;stroke-linejoin:miter;stroke-miterlimit:4;stroke-opacity:1;stroke-dasharray:2.99999952, 8.99999857;stroke-dashoffset:0;marker-end:url(#TriangleOutM)"
       inkscape:export-filename="/home/waldgeist/data/homepage/pics/mathematik/arithmetik/zahlenstrahl-ganze-zahlen-subtraktion.png"
       inkscape:export-xdpi="150"
       inkscape:export-ydpi="150" />
    <path
       inkscape:export-ydpi="150"
       inkscape:export-xdpi="150"
       inkscape:export-filename="/home/waldgeist/data/homepage/pics/mathematik/arithmetik/zahlenstrahl-ganze-zahlen-subtraktion.png"
       style="fill:none;stroke:#000080;stroke-width:2.99999952;stroke-linecap:round;stroke-linejoin:miter;stroke-miterlimit:4;stroke-opacity:1;stroke-dasharray:none;stroke-dashoffset:0;marker-end:url(#TriangleOutM)"
       d="m 764.76524,837.08069 -388.49379,0"
       id="path5498"
       inkscape:connector-curvature="0" />
    <g
       id="g5984"
       transform="matrix(5.7077124,0,0,5.7077124,-845.01523,139.1987)"
       ns0:preamble="/home/waldgeist/data/sphinx/inkscape-preamble.tex"
       ns0:text="$3-5 = -2$"
       inkscape:export-filename="/home/waldgeist/data/homepage/pics/mathematik/arithmetik/zahlenstrahl-ganze-zahlen-subtraktion.png"
       inkscape:export-xdpi="150"
       inkscape:export-ydpi="150">
      <defs
         id="defs5986">
        <g
           id="g5988">
          <symbol
             id="textext-0afc77f0-0"
             overflow="visible"
             style="overflow:visible">
            <path
               id="path5991"
               d="m 2.890625,-3.515625 c 0.8125,-0.265625 1.390625,-0.953125 1.390625,-1.75 0,-0.8125 -0.875,-1.375 -1.828125,-1.375 -1,0 -1.765625,0.59375 -1.765625,1.359375 0,0.328125 0.21875,0.515625 0.515625,0.515625 0.296875,0 0.5,-0.21875 0.5,-0.515625 0,-0.484375 -0.46875,-0.484375 -0.609375,-0.484375 0.296875,-0.5 0.953125,-0.625 1.3125,-0.625 0.421875,0 0.96875,0.21875 0.96875,1.109375 0,0.125 -0.03125,0.703125 -0.28125,1.140625 C 2.796875,-3.65625 2.453125,-3.625 2.203125,-3.625 2.125,-3.609375 1.890625,-3.59375 1.8125,-3.59375 c -0.078125,0.015625 -0.140625,0.03125 -0.140625,0.125 0,0.109375 0.0625,0.109375 0.234375,0.109375 l 0.4375,0 c 0.8125,0 1.1875,0.671875 1.1875,1.65625 0,1.359375 -0.6875,1.640625 -1.125,1.640625 -0.4375,0 -1.1875,-0.171875 -1.53125,-0.75 0.34375,0.046875 0.65625,-0.171875 0.65625,-0.546875 0,-0.359375 -0.265625,-0.5625 -0.546875,-0.5625 -0.25,0 -0.5625,0.140625 -0.5625,0.578125 0,0.90625 0.921875,1.5625 2.015625,1.5625 1.21875,0 2.125,-0.90625 2.125,-1.921875 0,-0.8125 -0.640625,-1.59375 -1.671875,-1.8125 z m 0,0"
               style="stroke:none"
               inkscape:connector-curvature="0" />
          </symbol>
          <symbol
             id="textext-0afc77f0-1"
             overflow="visible"
             style="overflow:visible">
            <path
               id="path5994"
               d="m 4.46875,-2 c 0,-1.1875 -0.8125,-2.1875 -1.890625,-2.1875 -0.46875,0 -0.90625,0.15625 -1.265625,0.515625 l 0,-1.953125 c 0.203125,0.0625 0.53125,0.125 0.84375,0.125 1.234375,0 1.9375,-0.90625 1.9375,-1.03125 0,-0.0625 -0.03125,-0.109375 -0.109375,-0.109375 0,0 -0.03125,0 -0.078125,0.03125 C 3.703125,-6.515625 3.21875,-6.3125 2.546875,-6.3125 2.15625,-6.3125 1.6875,-6.390625 1.21875,-6.59375 1.140625,-6.625 1.125,-6.625 1.109375,-6.625 1,-6.625 1,-6.546875 1,-6.390625 L 1,-3.4375 c 0,0.171875 0,0.25 0.140625,0.25 0.078125,0 0.09375,-0.015625 0.140625,-0.078125 C 1.390625,-3.421875 1.75,-3.96875 2.5625,-3.96875 c 0.515625,0 0.765625,0.453125 0.84375,0.640625 0.15625,0.375 0.1875,0.75 0.1875,1.25 0,0.359375 0,0.953125 -0.25,1.375 C 3.109375,-0.3125 2.734375,-0.0625 2.28125,-0.0625 c -0.71875,0 -1.296875,-0.53125 -1.46875,-1.109375 0.03125,0 0.0625,0.015625 0.171875,0.015625 0.328125,0 0.5,-0.25 0.5,-0.484375 0,-0.25 -0.171875,-0.5 -0.5,-0.5 C 0.84375,-2.140625 0.5,-2.0625 0.5,-1.609375 0.5,-0.75 1.1875,0.21875 2.296875,0.21875 3.453125,0.21875 4.46875,-0.734375 4.46875,-2 z m 0,0"
               style="stroke:none"
               inkscape:connector-curvature="0" />
          </symbol>
          <symbol
             id="textext-0afc77f0-2"
             overflow="visible"
             style="overflow:visible">
            <path
               id="path5997"
               d="m 6.84375,-3.265625 c 0.15625,0 0.34375,0 0.34375,-0.1875 C 7.1875,-3.65625 7,-3.65625 6.859375,-3.65625 l -5.96875,0 c -0.140625,0 -0.328125,0 -0.328125,0.203125 0,0.1875 0.1875,0.1875 0.328125,0.1875 z m 0.015625,1.9375 c 0.140625,0 0.328125,0 0.328125,-0.203125 0,-0.1875 -0.1875,-0.1875 -0.34375,-0.1875 l -5.953125,0 c -0.140625,0 -0.328125,0 -0.328125,0.1875 0,0.203125 0.1875,0.203125 0.328125,0.203125 z m 0,0"
               style="stroke:none"
               inkscape:connector-curvature="0" />
          </symbol>
          <symbol
             id="textext-0afc77f0-3"
             overflow="visible"
             style="overflow:visible">
            <path
               id="path6000"
               d="m 1.265625,-0.765625 1.0625,-1.03125 c 1.546875,-1.375 2.140625,-1.90625 2.140625,-2.90625 0,-1.140625 -0.890625,-1.9375 -2.109375,-1.9375 -1.125,0 -1.859375,0.921875 -1.859375,1.8125 0,0.546875 0.5,0.546875 0.53125,0.546875 0.171875,0 0.515625,-0.109375 0.515625,-0.53125 0,-0.25 -0.1875,-0.515625 -0.53125,-0.515625 -0.078125,0 -0.09375,0 -0.125,0.015625 0.21875,-0.65625 0.765625,-1.015625 1.34375,-1.015625 0.90625,0 1.328125,0.8125 1.328125,1.625 C 3.5625,-3.90625 3.078125,-3.125 2.515625,-2.5 l -1.90625,2.125 C 0.5,-0.265625 0.5,-0.234375 0.5,0 l 3.703125,0 0.265625,-1.734375 -0.234375,0 C 4.171875,-1.4375 4.109375,-1 4,-0.84375 3.9375,-0.765625 3.28125,-0.765625 3.0625,-0.765625 z m 0,0"
               style="stroke:none"
               inkscape:connector-curvature="0" />
          </symbol>
          <symbol
             id="textext-0afc77f0-4"
             overflow="visible"
             style="overflow:visible">
            <path
               id="path6003"
               d="m 6.5625,-2.296875 c 0.171875,0 0.359375,0 0.359375,-0.203125 0,-0.1875 -0.1875,-0.1875 -0.359375,-0.1875 l -5.390625,0 c -0.171875,0 -0.34375,0 -0.34375,0.1875 0,0.203125 0.171875,0.203125 0.34375,0.203125 z m 0,0"
               style="stroke:none"
               inkscape:connector-curvature="0" />
          </symbol>
        </g>
      </defs>
      <g
         id="textext-0afc77f0-5">
        <g
           id="g6006"
           style="fill:#000000;fill-opacity:1">
          <use
             id="use6008"
             y="134.765"
             x="223.43201"
             xlink:href="#textext-0afc77f0-0"
             width="1052.3622"
             height="744.09448" />
        </g>
        <g
           id="g6010"
           style="fill:#000000;fill-opacity:1">
          <use
             id="use6012"
             y="134.765"
             x="230.627"
             xlink:href="#textext-0afc77f0-4"
             width="1052.3622"
             height="744.09448" />
        </g>
        <g
           id="g6014"
           style="fill:#000000;fill-opacity:1">
          <use
             id="use6016"
             y="134.765"
             x="240.59"
             xlink:href="#textext-0afc77f0-1"
             width="1052.3622"
             height="744.09448" />
        </g>
        <g
           id="g6018"
           style="fill:#000000;fill-opacity:1">
          <use
             id="use6020"
             y="134.765"
             x="248.3409"
             xlink:href="#textext-0afc77f0-2"
             width="1052.3622"
             height="744.09448" />
        </g>
        <g
           id="g6022"
           style="fill:#000000;fill-opacity:1">
          <use
             id="use6024"
             y="134.765"
             x="258.85501"
             xlink:href="#textext-0afc77f0-4"
             width="1052.3622"
             height="744.09448" />
        </g>
        <g
           id="g6026"
           style="fill:#000000;fill-opacity:1">
          <use
             id="use6028"
             y="134.765"
             x="266.603"
             xlink:href="#textext-0afc77f0-3"
             width="1052.3622"
             height="744.09448" />
        </g>
      </g>
    </g>
  </g>
</svg>
