<?xml version="1.0" encoding="UTF-8" standalone="no"?>
<!-- Created with Inkscape (http://www.inkscape.org/) -->

<svg
   xmlns:ns0="http://www.iki.fi/pav/software/textext/"
   xmlns:dc="http://purl.org/dc/elements/1.1/"
   xmlns:cc="http://creativecommons.org/ns#"
   xmlns:rdf="http://www.w3.org/1999/02/22-rdf-syntax-ns#"
   xmlns:svg="http://www.w3.org/2000/svg"
   xmlns="http://www.w3.org/2000/svg"
   xmlns:xlink="http://www.w3.org/1999/xlink"
   xmlns:sodipodi="http://sodipodi.sourceforge.net/DTD/sodipodi-0.dtd"
   xmlns:inkscape="http://www.inkscape.org/namespaces/inkscape"
   width="1052.3622"
   height="744.09448"
   id="svg2"
   version="1.1"
   inkscape:version="0.48.3.1 r9886"
   sodipodi:docname="zahlenstrahl.svg">
  <sodipodi:namedview
     id="base"
     pagecolor="#ffffff"
     bordercolor="#666666"
     borderopacity="1.0"
     inkscape:pageopacity="0.0"
     inkscape:pageshadow="2"
     inkscape:zoom="0.39786225"
     inkscape:cx="-78.136246"
     inkscape:cy="166.64597"
     inkscape:document-units="px"
     inkscape:current-layer="layer1"
     showgrid="false"
     inkscape:window-width="1280"
     inkscape:window-height="974"
     inkscape:window-x="0"
     inkscape:window-y="0"
     inkscape:window-maximized="1"
     inkscape:object-nodes="true"
     inkscape:snap-smooth-nodes="true"
     showguides="true"
     inkscape:guide-bbox="true"
     inkscape:object-paths="true"
     inkscape:snap-intersection-paths="true"
     inkscape:snap-global="false" />
  <title
     id="title5514">Zahlenstrahl</title>
  <defs
     id="defs4">
    <marker
       style="overflow:visible"
       id="TriangleOutM"
       refX="0"
       refY="0"
       orient="auto"
       inkscape:stockid="TriangleOutM">
      <path
         inkscape:connector-curvature="0"
         transform="scale(0.4,0.4)"
         style="fill-rule:evenodd;stroke:#000000;stroke-width:1pt"
         d="m 5.77,0 -8.65,5 0,-10 8.65,5 z"
         id="path3904" />
    </marker>
  </defs>
  <metadata
     id="metadata7">
    <rdf:RDF>
      <cc:Work
         rdf:about="">
        <dc:format>image/svg+xml</dc:format>
        <dc:type
           rdf:resource="http://purl.org/dc/dcmitype/StillImage" />
        <dc:title>Zahlenstrahl</dc:title>
        <dc:date>2012-07-12</dc:date>
        <dc:creator>
          <cc:Agent>
            <dc:title>Bernhard Grotz</dc:title>
          </cc:Agent>
        </dc:creator>
        <dc:rights>
          <cc:Agent>
            <dc:title>Bernhard Grotz</dc:title>
          </cc:Agent>
        </dc:rights>
        <dc:publisher>
          <cc:Agent>
            <dc:title>Bernhard Grotz</dc:title>
          </cc:Agent>
        </dc:publisher>
        <dc:language>de-DE</dc:language>
        <dc:subject>
          <rdf:Bag>
            <rdf:li>Mathematik</rdf:li>
            <rdf:li>Natuerliche Zahlen</rdf:li>
            <rdf:li>Zahlenstrahl</rdf:li>
          </rdf:Bag>
        </dc:subject>
        <cc:license
           rdf:resource="http://creativecommons.org/licenses/by-nc-sa/3.0/" />
      </cc:Work>
      <cc:License
         rdf:about="http://creativecommons.org/licenses/by-nc-sa/3.0/">
        <cc:permits
           rdf:resource="http://creativecommons.org/ns#Reproduction" />
        <cc:permits
           rdf:resource="http://creativecommons.org/ns#Distribution" />
        <cc:requires
           rdf:resource="http://creativecommons.org/ns#Notice" />
        <cc:requires
           rdf:resource="http://creativecommons.org/ns#Attribution" />
        <cc:prohibits
           rdf:resource="http://creativecommons.org/ns#CommercialUse" />
        <cc:permits
           rdf:resource="http://creativecommons.org/ns#DerivativeWorks" />
        <cc:requires
           rdf:resource="http://creativecommons.org/ns#ShareAlike" />
      </cc:License>
    </rdf:RDF>
  </metadata>
  <g
     transform="translate(0,-308.2677)"
     id="layer1"
     inkscape:groupmode="layer"
     inkscape:label="Layer 1">
    <rect
       y="541.33337"
       x="159.91521"
       height="220.21326"
       width="699.02557"
       id="rect5422"
       style="fill:#ffffff;fill-opacity:1;fill-rule:nonzero;stroke:#ffffff;stroke-width:2;stroke-linecap:butt;stroke-linejoin:miter;stroke-miterlimit:4;stroke-opacity:1;stroke-dasharray:none;stroke-dashoffset:0"
       inkscape:export-filename="/home/waldgeist/data/pics/Homepage/mathematik/arithmetik/zahlenstrahl.png"
       inkscape:export-xdpi="150"
       inkscape:export-ydpi="150" />
    <path
       inkscape:connector-curvature="0"
       id="path2985"
       d="m 186.341,623.33445 639.99998,0"
       style="fill:none;stroke:#000000;stroke-width:2.99999976;stroke-linecap:butt;stroke-linejoin:miter;stroke-opacity:1;marker-end:url(#TriangleOutM)"
       inkscape:export-filename="/home/waldgeist/data/pics/Homepage/mathematik/arithmetik/zahlenstrahl.png"
       inkscape:export-xdpi="150"
       inkscape:export-ydpi="150" />
    <path
       inkscape:connector-curvature="0"
       id="path4199"
       d="m 266.341,592.01973 0,62.62945"
       style="fill:none;stroke:#000000;stroke-width:2;stroke-linecap:round;stroke-linejoin:miter;stroke-opacity:1"
       inkscape:export-filename="/home/waldgeist/data/pics/Homepage/mathematik/arithmetik/zahlenstrahl.png"
       inkscape:export-xdpi="150"
       inkscape:export-ydpi="150" />
    <path
       style="fill:none;stroke:#000000;stroke-width:2;stroke-linecap:round;stroke-linejoin:miter;stroke-opacity:1"
       d="m 746.341,596.30544 0,62.62945"
       id="path4201"
       inkscape:connector-curvature="0"
       inkscape:export-filename="/home/waldgeist/data/pics/Homepage/mathematik/arithmetik/zahlenstrahl.png"
       inkscape:export-xdpi="150"
       inkscape:export-ydpi="150" />
    <path
       inkscape:connector-curvature="0"
       style="fill:none;stroke:#000000;stroke-width:2;stroke-linecap:round;stroke-linejoin:miter;stroke-opacity:1"
       d="m 666.341,595.59115 c 0,0 0,62.62945 0,62.62945"
       id="path4215"
       inkscape:export-filename="/home/waldgeist/data/pics/Homepage/mathematik/arithmetik/zahlenstrahl.png"
       inkscape:export-xdpi="150"
       inkscape:export-ydpi="150" />
    <path
       inkscape:connector-curvature="0"
       style="fill:none;stroke:#000000;stroke-width:2;stroke-linecap:round;stroke-linejoin:miter;stroke-opacity:1"
       d="m 586.341,594.87687 c 0,0 0,62.62945 0,62.62945"
       id="path4217"
       inkscape:export-filename="/home/waldgeist/data/pics/Homepage/mathematik/arithmetik/zahlenstrahl.png"
       inkscape:export-xdpi="150"
       inkscape:export-ydpi="150" />
    <path
       inkscape:connector-curvature="0"
       style="fill:none;stroke:#000000;stroke-width:2;stroke-linecap:round;stroke-linejoin:miter;stroke-opacity:1"
       d="m 506.341,594.16259 c 0,0 0,62.62945 0,62.62945"
       id="path4219"
       inkscape:export-filename="/home/waldgeist/data/pics/Homepage/mathematik/arithmetik/zahlenstrahl.png"
       inkscape:export-xdpi="150"
       inkscape:export-ydpi="150" />
    <path
       inkscape:connector-curvature="0"
       style="fill:none;stroke:#000000;stroke-width:2;stroke-linecap:round;stroke-linejoin:miter;stroke-opacity:1"
       d="m 426.341,593.4483 c 0,0 0,62.62945 0,62.62945"
       id="path4221"
       inkscape:export-filename="/home/waldgeist/data/pics/Homepage/mathematik/arithmetik/zahlenstrahl.png"
       inkscape:export-xdpi="150"
       inkscape:export-ydpi="150" />
    <path
       inkscape:connector-curvature="0"
       style="fill:none;stroke:#000000;stroke-width:2;stroke-linecap:round;stroke-linejoin:miter;stroke-opacity:1"
       d="m 346.341,592.73401 c 0,0 0,62.62945 0,62.62945"
       id="path4223"
       inkscape:export-filename="/home/waldgeist/data/pics/Homepage/mathematik/arithmetik/zahlenstrahl.png"
       inkscape:export-xdpi="150"
       inkscape:export-ydpi="150" />
    <g
       transform="matrix(5.7077124,0,0,5.7077124,-1023.3923,-58.588149)"
       ns0:text="1"
       ns0:preamble="/home/waldgeist/data/sphinx/test.tex"
       id="g4307"
       inkscape:export-filename="/home/waldgeist/data/pics/Homepage/mathematik/arithmetik/zahlenstrahl.png"
       inkscape:export-xdpi="150"
       inkscape:export-ydpi="150">
      <defs
         id="defs4309">
        <g
           id="g4311">
          <symbol
             style="overflow:visible"
             overflow="visible"
             id="textext-456cb45f-0">
            <path
               inkscape:connector-curvature="0"
               style="stroke:none"
               d="m 2.9375,-6.375 c 0,-0.25 0,-0.265625 -0.234375,-0.265625 C 2.078125,-6 1.203125,-6 0.890625,-6 l 0,0.3125 c 0.203125,0 0.78125,0 1.296875,-0.265625 l 0,5.171875 c 0,0.359375 -0.03125,0.46875 -0.921875,0.46875 l -0.3125,0 0,0.3125 c 0.34375,-0.03125 1.203125,-0.03125 1.609375,-0.03125 0.390625,0 1.265625,0 1.609375,0.03125 l 0,-0.3125 -0.3125,0 c -0.90625,0 -0.921875,-0.109375 -0.921875,-0.46875 z m 0,0"
               id="path4314" />
          </symbol>
        </g>
      </defs>
      <g
         id="textext-456cb45f-1">
        <g
           style="fill:#000000;fill-opacity:1"
           id="g4317">
          <use
             height="1052.3622"
             width="744.09448"
             xlink:href="#textext-456cb45f-0"
             x="223.43201"
             y="134.765"
             id="use4319" />
        </g>
      </g>
    </g>
    <g
       id="g4507"
       transform="matrix(5.7077124,0,0,5.7077124,-942.67803,-58.588149)"
       ns0:preamble="/home/waldgeist/data/sphinx/test.tex"
       ns0:text="2"
       inkscape:export-filename="/home/waldgeist/data/pics/Homepage/mathematik/arithmetik/zahlenstrahl.png"
       inkscape:export-xdpi="150"
       inkscape:export-ydpi="150">
      <defs
         id="defs4509">
        <g
           id="g4511">
          <symbol
             id="textext-c9dfcfeb-0"
             overflow="visible"
             style="overflow:visible">
            <path
               id="path4514"
               d="m 1.265625,-0.765625 1.0625,-1.03125 c 1.546875,-1.375 2.140625,-1.90625 2.140625,-2.90625 0,-1.140625 -0.890625,-1.9375 -2.109375,-1.9375 -1.125,0 -1.859375,0.921875 -1.859375,1.8125 0,0.546875 0.5,0.546875 0.53125,0.546875 0.171875,0 0.515625,-0.109375 0.515625,-0.53125 0,-0.25 -0.1875,-0.515625 -0.53125,-0.515625 -0.078125,0 -0.09375,0 -0.125,0.015625 0.21875,-0.65625 0.765625,-1.015625 1.34375,-1.015625 0.90625,0 1.328125,0.8125 1.328125,1.625 C 3.5625,-3.90625 3.078125,-3.125 2.515625,-2.5 l -1.90625,2.125 C 0.5,-0.265625 0.5,-0.234375 0.5,0 l 3.703125,0 0.265625,-1.734375 -0.234375,0 C 4.171875,-1.4375 4.109375,-1 4,-0.84375 3.9375,-0.765625 3.28125,-0.765625 3.0625,-0.765625 z m 0,0"
               style="stroke:none"
               inkscape:connector-curvature="0" />
          </symbol>
        </g>
      </defs>
      <g
         id="textext-c9dfcfeb-1">
        <g
           id="g4517"
           style="fill:#000000;fill-opacity:1">
          <use
             height="1052.3622"
             width="744.09448"
             transform="translate(-0.07826322,0)"
             id="use4519"
             y="134.765"
             x="223.43201"
             xlink:href="#textext-c9dfcfeb-0" />
        </g>
      </g>
    </g>
    <g
       ns0:text="3"
       ns0:preamble="/home/waldgeist/data/sphinx/test.tex"
       transform="matrix(5.7077124,0,0,5.7077124,-863.16933,-58.588149)"
       id="g4659"
       inkscape:export-filename="/home/waldgeist/data/pics/Homepage/mathematik/arithmetik/zahlenstrahl.png"
       inkscape:export-xdpi="150"
       inkscape:export-ydpi="150">
      <defs
         id="defs4661">
        <g
           id="g4663">
          <symbol
             style="overflow:visible"
             overflow="visible"
             id="textext-4bb68c9a-0">
            <path
               inkscape:connector-curvature="0"
               style="stroke:none"
               d="m 2.890625,-3.515625 c 0.8125,-0.265625 1.390625,-0.953125 1.390625,-1.75 0,-0.8125 -0.875,-1.375 -1.828125,-1.375 -1,0 -1.765625,0.59375 -1.765625,1.359375 0,0.328125 0.21875,0.515625 0.515625,0.515625 0.296875,0 0.5,-0.21875 0.5,-0.515625 0,-0.484375 -0.46875,-0.484375 -0.609375,-0.484375 0.296875,-0.5 0.953125,-0.625 1.3125,-0.625 0.421875,0 0.96875,0.21875 0.96875,1.109375 0,0.125 -0.03125,0.703125 -0.28125,1.140625 C 2.796875,-3.65625 2.453125,-3.625 2.203125,-3.625 2.125,-3.609375 1.890625,-3.59375 1.8125,-3.59375 c -0.078125,0.015625 -0.140625,0.03125 -0.140625,0.125 0,0.109375 0.0625,0.109375 0.234375,0.109375 l 0.4375,0 c 0.8125,0 1.1875,0.671875 1.1875,1.65625 0,1.359375 -0.6875,1.640625 -1.125,1.640625 -0.4375,0 -1.1875,-0.171875 -1.53125,-0.75 0.34375,0.046875 0.65625,-0.171875 0.65625,-0.546875 0,-0.359375 -0.265625,-0.5625 -0.546875,-0.5625 -0.25,0 -0.5625,0.140625 -0.5625,0.578125 0,0.90625 0.921875,1.5625 2.015625,1.5625 1.21875,0 2.125,-0.90625 2.125,-1.921875 0,-0.8125 -0.640625,-1.59375 -1.671875,-1.8125 z m 0,0"
               id="path4666" />
          </symbol>
        </g>
      </defs>
      <g
         id="textext-4bb68c9a-1">
        <g
           style="fill:#000000;fill-opacity:1"
           id="g4669">
          <use
             height="1052.3622"
             width="744.09448"
             xlink:href="#textext-4bb68c9a-0"
             x="223.43201"
             y="134.765"
             id="use4671" />
        </g>
      </g>
    </g>
    <g
       id="g4811"
       transform="matrix(5.7077124,0,0,5.7077124,-783.12473,-58.588149)"
       ns0:preamble="/home/waldgeist/data/sphinx/test.tex"
       ns0:text="4"
       inkscape:export-filename="/home/waldgeist/data/pics/Homepage/mathematik/arithmetik/zahlenstrahl.png"
       inkscape:export-xdpi="150"
       inkscape:export-ydpi="150">
      <defs
         id="defs4813">
        <g
           id="g4815">
          <symbol
             style="overflow:visible"
             id="textext-8d2d3a96-0"
             overflow="visible">
            <path
               inkscape:connector-curvature="0"
               id="path4818"
               d="m 2.9375,-1.640625 0,0.859375 c 0,0.359375 -0.03125,0.46875 -0.765625,0.46875 l -0.203125,0 0,0.3125 C 2.375,-0.03125 2.890625,-0.03125 3.3125,-0.03125 c 0.421875,0 0.9375,0 1.359375,0.03125 l 0,-0.3125 -0.21875,0 c -0.734375,0 -0.75,-0.109375 -0.75,-0.46875 l 0,-0.859375 0.984375,0 0,-0.3125 -0.984375,0 0,-4.53125 c 0,-0.203125 0,-0.265625 -0.171875,-0.265625 -0.078125,0 -0.109375,0 -0.1875,0.125 l -3.0625,4.671875 0,0.3125 z m 0.046875,-0.3125 -2.421875,0 2.421875,-3.71875 z m 0,0"
               style="stroke:none" />
          </symbol>
        </g>
      </defs>
      <g
         id="textext-8d2d3a96-1">
        <g
           id="g4821"
           style="fill:#000000;fill-opacity:1">
          <use
             height="1052.3622"
             width="744.09448"
             id="use4823"
             y="134.765"
             x="223.43201"
             xlink:href="#textext-8d2d3a96-0" />
        </g>
      </g>
    </g>
    <g
       ns0:text="5"
       ns0:preamble="/home/waldgeist/data/sphinx/test.tex"
       transform="matrix(5.7077124,0,0,5.7077124,-703.12473,-58.588149)"
       id="g4963"
       inkscape:export-filename="/home/waldgeist/data/pics/Homepage/mathematik/arithmetik/zahlenstrahl.png"
       inkscape:export-xdpi="150"
       inkscape:export-ydpi="150">
      <defs
         id="defs4965">
        <g
           id="g4967">
          <symbol
             style="overflow:visible"
             overflow="visible"
             id="textext-33358824-0">
            <path
               inkscape:connector-curvature="0"
               style="stroke:none"
               d="m 4.46875,-2 c 0,-1.1875 -0.8125,-2.1875 -1.890625,-2.1875 -0.46875,0 -0.90625,0.15625 -1.265625,0.515625 l 0,-1.953125 c 0.203125,0.0625 0.53125,0.125 0.84375,0.125 1.234375,0 1.9375,-0.90625 1.9375,-1.03125 0,-0.0625 -0.03125,-0.109375 -0.109375,-0.109375 0,0 -0.03125,0 -0.078125,0.03125 C 3.703125,-6.515625 3.21875,-6.3125 2.546875,-6.3125 2.15625,-6.3125 1.6875,-6.390625 1.21875,-6.59375 1.140625,-6.625 1.125,-6.625 1.109375,-6.625 1,-6.625 1,-6.546875 1,-6.390625 L 1,-3.4375 c 0,0.171875 0,0.25 0.140625,0.25 0.078125,0 0.09375,-0.015625 0.140625,-0.078125 C 1.390625,-3.421875 1.75,-3.96875 2.5625,-3.96875 c 0.515625,0 0.765625,0.453125 0.84375,0.640625 0.15625,0.375 0.1875,0.75 0.1875,1.25 0,0.359375 0,0.953125 -0.25,1.375 C 3.109375,-0.3125 2.734375,-0.0625 2.28125,-0.0625 c -0.71875,0 -1.296875,-0.53125 -1.46875,-1.109375 0.03125,0 0.0625,0.015625 0.171875,0.015625 0.328125,0 0.5,-0.25 0.5,-0.484375 0,-0.25 -0.171875,-0.5 -0.5,-0.5 C 0.84375,-2.140625 0.5,-2.0625 0.5,-1.609375 0.5,-0.75 1.1875,0.21875 2.296875,0.21875 3.453125,0.21875 4.46875,-0.734375 4.46875,-2 z m 0,0"
               id="path4970" />
          </symbol>
        </g>
      </defs>
      <g
         id="textext-33358824-1">
        <g
           style="fill:#000000;fill-opacity:1"
           id="g4973">
          <use
             height="1052.3622"
             width="744.09448"
             xlink:href="#textext-33358824-0"
             x="223.43201"
             y="134.765"
             id="use4975" />
        </g>
      </g>
    </g>
    <g
       id="g5115"
       transform="matrix(5.7077124,0,0,5.7077124,-623.16933,-58.588149)"
       ns0:preamble="/home/waldgeist/data/sphinx/test.tex"
       ns0:text="6"
       inkscape:export-filename="/home/waldgeist/data/pics/Homepage/mathematik/arithmetik/zahlenstrahl.png"
       inkscape:export-xdpi="150"
       inkscape:export-ydpi="150">
      <defs
         id="defs5117">
        <g
           id="g5119">
          <symbol
             style="overflow:visible"
             id="textext-7613498f-0"
             overflow="visible">
            <path
               inkscape:connector-curvature="0"
               id="path5122"
               d="m 1.3125,-3.265625 0,-0.25 c 0,-2.515625 1.234375,-2.875 1.75,-2.875 0.234375,0 0.65625,0.0625 0.875,0.40625 -0.15625,0 -0.546875,0 -0.546875,0.4375 0,0.3125 0.234375,0.46875 0.453125,0.46875 0.15625,0 0.46875,-0.09375 0.46875,-0.484375 0,-0.59375 -0.4375,-1.078125 -1.265625,-1.078125 -1.28125,0 -2.625,1.28125 -2.625,3.484375 0,2.671875 1.15625,3.375 2.078125,3.375 1.109375,0 2.0625,-0.9375 2.0625,-2.25 0,-1.265625 -0.890625,-2.21875 -2,-2.21875 -0.671875,0 -1.046875,0.5 -1.25,0.984375 z M 2.5,-0.0625 c -0.625,0 -0.921875,-0.59375 -0.984375,-0.75 -0.1875,-0.46875 -0.1875,-1.265625 -0.1875,-1.4375 0,-0.78125 0.328125,-1.78125 1.21875,-1.78125 0.171875,0 0.625,0 0.9375,0.625 0.171875,0.359375 0.171875,0.875 0.171875,1.359375 0,0.484375 0,0.984375 -0.171875,1.34375 C 3.1875,-0.109375 2.734375,-0.0625 2.5,-0.0625 z m 0,0"
               style="stroke:none" />
          </symbol>
        </g>
      </defs>
      <g
         id="textext-7613498f-1">
        <g
           id="g5125"
           style="fill:#000000;fill-opacity:1">
          <use
             height="1052.3622"
             width="744.09448"
             id="use5127"
             y="134.765"
             x="223.43201"
             xlink:href="#textext-7613498f-0" />
        </g>
      </g>
    </g>
    <g
       ns0:text="7"
       ns0:preamble="/home/waldgeist/data/sphinx/test.tex"
       transform="matrix(5.7077124,0,0,5.7077124,-544.3287,-58.588149)"
       id="g5267"
       inkscape:export-filename="/home/waldgeist/data/pics/Homepage/mathematik/arithmetik/zahlenstrahl.png"
       inkscape:export-xdpi="150"
       inkscape:export-ydpi="150">
      <defs
         id="defs5269">
        <g
           id="g5271">
          <symbol
             style="overflow:visible"
             overflow="visible"
             id="textext-f3bd5276-0">
            <path
               inkscape:connector-curvature="0"
               style="stroke:none"
               d="m 4.75,-6.078125 c 0.078125,-0.109375 0.078125,-0.125 0.078125,-0.34375 l -2.421875,0 c -1.203125,0 -1.234375,-0.125 -1.265625,-0.3125 l -0.25,0 -0.328125,2.046875 0.25,0 c 0.03125,-0.15625 0.109375,-0.78125 0.25,-0.90625 0.0625,-0.0625 0.84375,-0.0625 0.96875,-0.0625 l 2.0625,0 C 3.984375,-5.5 3.203125,-4.40625 2.984375,-4.078125 2.078125,-2.734375 1.75,-1.34375 1.75,-0.328125 c 0,0.09375 0,0.546875 0.46875,0.546875 0.453125,0 0.453125,-0.453125 0.453125,-0.546875 l 0,-0.515625 c 0,-0.546875 0.03125,-1.09375 0.109375,-1.625 0.046875,-0.234375 0.171875,-1.09375 0.625,-1.703125 z m 0,0"
               id="path5274" />
          </symbol>
        </g>
      </defs>
      <g
         id="textext-f3bd5276-1">
        <g
           style="fill:#000000;fill-opacity:1"
           id="g5277">
          <use
             height="1052.3622"
             width="744.09448"
             xlink:href="#textext-f3bd5276-0"
             x="223.43201"
             y="134.765"
             id="use5279" />
        </g>
      </g>
    </g>
    <path
       style="fill:none;stroke:#000000;stroke-width:3;stroke-linecap:round;stroke-linejoin:miter;stroke-opacity:1"
       d="m 185.841,592.01973 0,62.62945"
       id="path10281"
       inkscape:connector-curvature="0"
       inkscape:export-filename="/home/waldgeist/data/pics/Homepage/mathematik/arithmetik/zahlenstrahl.png"
       inkscape:export-xdpi="150"
       inkscape:export-ydpi="150" />
    <g
       id="g10373"
       transform="matrix(5.7077124,0,0,5.7077124,-1103.6247,-58.588149)"
       ns0:preamble=""
       ns0:text="0"
       inkscape:export-filename="/home/waldgeist/data/pics/Homepage/mathematik/arithmetik/zahlenstrahl.png"
       inkscape:export-xdpi="150"
       inkscape:export-ydpi="150">
      <defs
         id="defs10375">
        <g
           id="g10377">
          <symbol
             id="textext-cd9a0d60-0"
             overflow="visible"
             style="overflow:visible">
            <path
               id="path10380"
               d="m 4.578125,-3.1875 c 0,-0.796875 -0.046875,-1.59375 -0.390625,-2.328125 -0.453125,-0.96875 -1.28125,-1.125 -1.6875,-1.125 -0.609375,0 -1.328125,0.265625 -1.75,1.1875 -0.3125,0.6875 -0.359375,1.46875 -0.359375,2.265625 0,0.75 0.03125,1.640625 0.453125,2.40625 0.421875,0.796875 1.15625,1 1.640625,1 0.53125,0 1.296875,-0.203125 1.734375,-1.15625 0.3125,-0.6875 0.359375,-1.46875 0.359375,-2.25 z M 2.484375,0 C 2.09375,0 1.5,-0.25 1.328125,-1.203125 1.21875,-1.796875 1.21875,-2.71875 1.21875,-3.3125 c 0,-0.640625 0,-1.296875 0.078125,-1.828125 0.1875,-1.1875 0.9375,-1.28125 1.1875,-1.28125 0.328125,0 0.984375,0.1875 1.171875,1.171875 0.109375,0.5625 0.109375,1.3125 0.109375,1.9375 0,0.75 0,1.421875 -0.109375,2.0625 C 3.5,-0.296875 2.9375,0 2.484375,0 z m 0,0"
               style="stroke:none"
               inkscape:connector-curvature="0" />
          </symbol>
        </g>
      </defs>
      <g
         id="textext-cd9a0d60-1">
        <g
           id="g10383"
           style="fill:#000000;fill-opacity:1">
          <use
             id="use10385"
             y="134.765"
             x="223.43201"
             xlink:href="#textext-cd9a0d60-0"
             width="1052.3622"
             height="744.09448" />
        </g>
      </g>
    </g>
  </g>
</svg>
