<svg xmlns:ns0="http://www.iki.fi/pav/software/textext/" xmlns="http://www.w3.org/2000/svg" xmlns:xlink="http://www.w3.org/1999/xlink" width="1052.362" height="744.094"><title>Zahlenstrahl (Rationale Zahlen)</title><defs><marker id="g" orient="auto" overflow="visible"><path d="M2.308 0l-3.46 2v-4l3.46 2z" fill-rule="evenodd" stroke="#000" stroke-width=".4pt"/></marker></defs><path fill="#fff" stroke="#fff" stroke-width="2" stroke-dasharray="1.99999992000000004,7.99999969000000011" d="M18.494 162.712h1024.295v282.485H18.494z"/><path d="M606.686 283.752v62.63M926.686 283.752v62.63M846.686 283.752v62.63M766.686 283.752v62.63M686.686 283.752v62.63" fill="#4d4d4d" stroke="#4d4d4d" stroke-width="3" stroke-linecap="round"/><g transform="translate(-683.047 -346.856) scale(5.70771)" ns0:text="1" ns0:preamble="/home/waldgeist/data/sphinx/test.tex" stroke="#4d4d4d" fill="#4d4d4d"><defs><symbol overflow="visible" id="a"><path d="M2.938-6.375c0-.25 0-.266-.235-.266C2.078-6 1.203-6 .891-6v.313c.203 0 .78 0 1.296-.266v5.172c0 .36-.03.469-.921.469H.953V0c.344-.031 1.203-.031 1.61-.031.39 0 1.265 0 1.609.031v-.313h-.313c-.906 0-.921-.109-.921-.468zm0 0" stroke="none"/></symbol></defs><use height="1052.362" width="744.094" xlink:href="#a" x="223.432" y="134.765"/></g><g transform="translate(-602.333 -346.856) scale(5.70771)" ns0:preamble="/home/waldgeist/data/sphinx/test.tex" ns0:text="2" stroke="#4d4d4d" fill="#4d4d4d"><defs><symbol id="b" overflow="visible"><path d="M1.266-.766l1.062-1.03c1.547-1.376 2.14-1.907 2.14-2.907 0-1.14-.89-1.938-2.109-1.938C1.234-6.64.5-5.719.5-4.828c0 .547.5.547.531.547.172 0 .516-.11.516-.532a.513.513 0 0 0-.531-.515c-.079 0-.094 0-.125.016.218-.657.765-1.016 1.343-1.016.907 0 1.329.812 1.329 1.625 0 .797-.485 1.578-1.047 2.203L.609-.375C.5-.265.5-.235.5 0h3.703l.266-1.734h-.235C4.172-1.438 4.11-1 4-.844c-.063.078-.719.078-.938.078zm0 0" stroke="none"/></symbol></defs><use height="1052.362" width="744.094" transform="translate(-.078)" y="134.765" x="223.432" xlink:href="#b"/></g><g ns0:text="3" ns0:preamble="/home/waldgeist/data/sphinx/test.tex" transform="translate(-522.824 -346.856) scale(5.70771)" stroke="#4d4d4d" fill="#4d4d4d"><defs><symbol overflow="visible" id="c"><path d="M2.89-3.516c.813-.265 1.391-.953 1.391-1.75 0-.812-.875-1.375-1.828-1.375-1 0-1.765.594-1.765 1.36 0 .328.218.515.515.515.297 0 .5-.218.5-.515 0-.485-.469-.485-.61-.485.298-.5.954-.625 1.313-.625.422 0 .969.22.969 1.11 0 .125-.031.703-.281 1.14-.297.485-.64.516-.89.516a3.29 3.29 0 0 1-.392.031c-.078.016-.14.031-.14.125 0 .11.062.11.234.11h.438c.812 0 1.187.671 1.187 1.656 0 1.36-.687 1.64-1.125 1.64-.437 0-1.187-.171-1.531-.75.344.047.656-.171.656-.546a.537.537 0 0 0-.547-.563c-.25 0-.562.14-.562.578C.422-.437 1.344.22 2.437.22c1.22 0 2.126-.906 2.126-1.922 0-.813-.641-1.594-1.672-1.813zm0 0" stroke="none"/></symbol></defs><use height="1052.362" width="744.094" xlink:href="#c" x="223.432" y="134.765"/></g><g transform="translate(-442.78 -346.856) scale(5.70771)" ns0:preamble="/home/waldgeist/data/sphinx/test.tex" ns0:text="4" stroke="#4d4d4d" fill="#4d4d4d"><defs><symbol id="d" overflow="visible"><path d="M2.938-1.64v.859c0 .36-.032.469-.766.469h-.203V0c.406-.031.922-.031 1.343-.031.422 0 .938 0 1.36.031v-.313h-.219c-.734 0-.75-.109-.75-.468v-.86h.985v-.312h-.985v-4.531c0-.204 0-.266-.172-.266-.078 0-.11 0-.187.125L.28-1.953v.312zm.046-.313H.563l2.421-3.719zm0 0" stroke="none"/></symbol></defs><use height="1052.362" width="744.094" y="134.765" x="223.432" xlink:href="#d"/></g><g ns0:text="5" ns0:preamble="/home/waldgeist/data/sphinx/test.tex" transform="translate(-362.78 -346.856) scale(5.70771)" stroke="#4d4d4d" fill="#4d4d4d"><defs><symbol overflow="visible" id="e"><path d="M4.469-2c0-1.188-.813-2.188-1.89-2.188-.47 0-.907.157-1.267.516v-1.953c.204.063.532.125.844.125 1.235 0 1.938-.906 1.938-1.031 0-.063-.032-.11-.11-.11 0 0-.03 0-.078.032a3.22 3.22 0 0 1-1.36.296c-.39 0-.858-.078-1.327-.28-.078-.032-.094-.032-.11-.032C1-6.625 1-6.547 1-6.391v2.954c0 .171 0 .25.14.25.079 0 .094-.016.141-.079.11-.156.469-.703 1.282-.703.515 0 .765.453.843.64.156.376.188.75.188 1.25 0 .36 0 .954-.25 1.376-.235.39-.61.64-1.063.64-.719 0-1.297-.53-1.469-1.109.032 0 .063.016.172.016.329 0 .5-.25.5-.485 0-.25-.171-.5-.5-.5-.14 0-.484.079-.484.532C.5-.75 1.188.219 2.297.219 3.453.219 4.469-.734 4.469-2zm0 0" stroke="none"/></symbol></defs><use height="1052.362" width="744.094" xlink:href="#e" x="223.432" y="134.765"/></g><path d="M527.523 276.156v77.822" fill="#4d4d4d" stroke="#4d4d4d" stroke-width="4" stroke-linecap="round"/><g transform="translate(-761.943 -346.856) scale(5.70771)" ns0:text="0" stroke="#4d4d4d" fill="#4d4d4d"><defs><symbol id="f" overflow="visible"><path d="M4.578-3.188c0-.796-.047-1.593-.39-2.328C3.733-6.484 2.905-6.64 2.5-6.64c-.61 0-1.328.266-1.75 1.188-.313.687-.36 1.469-.36 2.266 0 .75.032 1.64.454 2.406a1.83 1.83 0 0 0 1.64 1c.532 0 1.297-.203 1.735-1.157.312-.687.36-1.468.36-2.25zM2.484 0c-.39 0-.984-.25-1.156-1.203-.11-.594-.11-1.516-.11-2.11 0-.64 0-1.296.079-1.828.187-1.187.937-1.28 1.187-1.28.329 0 .985.187 1.172 1.171.11.563.11 1.313.11 1.938 0 .75 0 1.421-.11 2.062C3.5-.297 2.937 0 2.484 0zm0 0" stroke="none"/></symbol></defs><use y="134.765" x="223.432" xlink:href="#f" width="1052.362" height="744.094"/></g><g stroke="#000" stroke-width="4" fill="none" stroke-linecap="round" marker-end="url(#g)" transform="translate(0 -308.268)"><path d="M527.715 623.334h491.983" stroke-width="3"/><path d="M527.33 623.334H35.347"/></g><path d="M606.686 283.573v62.63M447.715 283.573v62.63M367.715 283.573v62.63M287.715 283.573v62.63M207.715 283.573v62.63M127.715 283.573v62.63" fill="#4d4d4d" stroke="#4d4d4d" stroke-width="3" stroke-linecap="round"/><g ns0:text="-1" transform="translate(-860.971 -346.856) scale(5.70771)" stroke="#4d4d4d" fill="#4d4d4d"><defs><symbol overflow="visible" id="h"><path d="M2.75-1.86v-.577H.11v.578zm0 0" stroke="none"/></symbol><symbol overflow="visible" id="i"><path d="M2.938-6.375c0-.25 0-.266-.235-.266C2.078-6 1.203-6 .891-6v.313c.203 0 .78 0 1.296-.266v5.172c0 .36-.03.469-.921.469H.953V0c.344-.031 1.203-.031 1.61-.031.39 0 1.265 0 1.609.031v-.313h-.313c-.906 0-.921-.109-.921-.468zm0 0" stroke="none"/></symbol></defs><use height="744.094" width="1052.362" xlink:href="#h" x="223.432" y="134.765"/><use height="744.094" width="1052.362" xlink:href="#i" x="226.753" y="134.765"/></g><g transform="translate(-940.704 -346.856) scale(5.70771)" ns0:preamble="/home/waldgeist/data/sphinx/inkscape-preamble.tex" ns0:text="-2" stroke="#4d4d4d" fill="#4d4d4d"><defs><symbol id="j" overflow="visible"><path d="M2.75-1.86v-.577H.11v.578zm0 0" stroke="none"/></symbol><symbol id="k" overflow="visible"><path d="M1.266-.766l1.062-1.03c1.547-1.376 2.14-1.907 2.14-2.907 0-1.14-.89-1.938-2.109-1.938C1.234-6.64.5-5.719.5-4.828c0 .547.5.547.531.547.172 0 .516-.11.516-.532a.513.513 0 0 0-.531-.515c-.079 0-.094 0-.125.016.218-.657.765-1.016 1.343-1.016.907 0 1.329.812 1.329 1.625 0 .797-.485 1.578-1.047 2.203L.609-.375C.5-.265.5-.235.5 0h3.703l.266-1.734h-.235C4.172-1.438 4.11-1 4-.844c-.063.078-.719.078-.938.078zm0 0" stroke="none"/></symbol></defs><use y="134.765" x="223.432" xlink:href="#j" width="1052.362" height="744.094"/><use y="134.765" x="226.753" xlink:href="#k" width="1052.362" height="744.094"/></g><g ns0:text="-3" ns0:preamble="/home/waldgeist/data/sphinx/inkscape-preamble.tex" transform="translate(-1020.748 -346.856) scale(5.70771)" stroke="#4d4d4d" fill="#4d4d4d"><defs><symbol overflow="visible" id="l"><path d="M2.75-1.86v-.577H.11v.578zm0 0" stroke="none"/></symbol><symbol overflow="visible" id="m"><path d="M2.89-3.516c.813-.265 1.391-.953 1.391-1.75 0-.812-.875-1.375-1.828-1.375-1 0-1.765.594-1.765 1.36 0 .328.218.515.515.515.297 0 .5-.218.5-.515 0-.485-.469-.485-.61-.485.298-.5.954-.625 1.313-.625.422 0 .969.22.969 1.11 0 .125-.031.703-.281 1.14-.297.485-.64.516-.89.516a3.29 3.29 0 0 1-.392.031c-.078.016-.14.031-.14.125 0 .11.062.11.234.11h.438c.812 0 1.187.671 1.187 1.656 0 1.36-.687 1.64-1.125 1.64-.437 0-1.187-.171-1.531-.75.344.047.656-.171.656-.546a.537.537 0 0 0-.547-.563c-.25 0-.562.14-.562.578C.422-.437 1.344.22 2.437.22c1.22 0 2.126-.906 2.126-1.922 0-.813-.641-1.594-1.672-1.813zm0 0" stroke="none"/></symbol></defs><use height="744.094" width="1052.362" xlink:href="#l" x="223.432" y="134.765"/><use height="744.094" width="1052.362" xlink:href="#m" x="226.753" y="134.765"/></g><g transform="translate(-1100.704 -346.856) scale(5.70771)" ns0:preamble="/home/waldgeist/data/sphinx/inkscape-preamble.tex" ns0:text="-4" stroke="#4d4d4d" fill="#4d4d4d"><defs><symbol id="n" overflow="visible"><path d="M2.75-1.86v-.577H.11v.578zm0 0" stroke="none"/></symbol><symbol id="o" overflow="visible"><path d="M2.938-1.64v.859c0 .36-.032.469-.766.469h-.203V0c.406-.031.922-.031 1.343-.031.422 0 .938 0 1.36.031v-.313h-.219c-.734 0-.75-.109-.75-.468v-.86h.985v-.312h-.985v-4.531c0-.204 0-.266-.172-.266-.078 0-.11 0-.187.125L.28-1.953v.312zm.046-.313H.563l2.421-3.719zm0 0" stroke="none"/></symbol></defs><use y="134.765" x="223.432" xlink:href="#n" width="1052.362" height="744.094"/><use y="134.765" x="226.753" xlink:href="#o" width="1052.362" height="744.094"/></g><g ns0:text="-5" ns0:preamble="/home/waldgeist/data/sphinx/inkscape-preamble.tex" transform="translate(-1180.704 -346.856) scale(5.70771)" stroke="#4d4d4d" fill="#4d4d4d"><defs><symbol overflow="visible" id="p"><path d="M2.75-1.86v-.577H.11v.578zm0 0" stroke="none"/></symbol><symbol overflow="visible" id="q"><path d="M4.469-2c0-1.188-.813-2.188-1.89-2.188-.47 0-.907.157-1.267.516v-1.953c.204.063.532.125.844.125 1.235 0 1.938-.906 1.938-1.031 0-.063-.032-.11-.11-.11 0 0-.03 0-.078.032a3.22 3.22 0 0 1-1.36.296c-.39 0-.858-.078-1.327-.28-.078-.032-.094-.032-.11-.032C1-6.625 1-6.547 1-6.391v2.954c0 .171 0 .25.14.25.079 0 .094-.016.141-.079.11-.156.469-.703 1.282-.703.515 0 .765.453.843.64.156.376.188.75.188 1.25 0 .36 0 .954-.25 1.376-.235.39-.61.64-1.063.64-.719 0-1.297-.53-1.469-1.109.032 0 .063.016.172.016.329 0 .5-.25.5-.485 0-.25-.171-.5-.5-.5-.14 0-.484.079-.484.532C.5-.75 1.188.219 2.297.219 3.453.219 4.469-.734 4.469-2zm0 0" stroke="none"/></symbol></defs><use height="744.094" width="1052.362" xlink:href="#p" x="223.432" y="134.765"/><use height="744.094" width="1052.362" xlink:href="#q" x="226.753" y="134.765"/></g><path d="M580.299 289.427v51.247M487.297 289.28v51.248" fill="purple" stroke="purple" stroke-width="3" stroke-linecap="round"/><g ns0:text="$-\\frac{1}{2}$" ns0:preamble="/home/waldgeist/data/sphinx/inkscape-preamble.tex" transform="translate(-851.162 -530.805) scale(5.70771)" fill="purple" stroke="purple"><defs><symbol overflow="visible" id="r"><path d="M6.563-2.297c.171 0 .359 0 .359-.203 0-.188-.188-.188-.36-.188h-5.39c-.172 0-.344 0-.344.188 0 .203.172.203.344.203zm0 0" stroke="none"/></symbol><symbol overflow="visible" id="s"><path d="M2.328-4.438c0-.187 0-.187-.203-.187-.453.438-1.078.438-1.36.438v.25c.157 0 .626 0 1-.188v3.547c0 .234 0 .328-.687.328H.812V0c.125 0 .985-.031 1.235-.031.219 0 1.094.031 1.25.031v-.25H3.03c-.703 0-.703-.094-.703-.328zm0 0" stroke="none"/></symbol><symbol overflow="visible" id="t"><path d="M3.516-1.266H3.28c-.015.157-.094.563-.187.625-.047.047-.578.047-.688.047H1.125c.734-.64.984-.844 1.39-1.172.516-.406 1-.843 1-1.5 0-.843-.734-1.359-1.624-1.359-.86 0-1.454.61-1.454 1.25 0 .344.297.39.376.39.156 0 .359-.124.359-.374 0-.125-.047-.375-.406-.375.218-.485.687-.641 1.015-.641.703 0 1.063.547 1.063 1.11 0 .609-.438 1.078-.656 1.328L.516-.266C.437-.203.437-.187.437 0h2.876zm0 0" stroke="none"/></symbol></defs><use height="744.094" width="1052.362" xlink:href="#r" x="223.432" y="134.765"/><use height="744.094" width="1052.362" xlink:href="#s" x="232.376" y="130.842"/><path d="M232.5 132.5h4" stroke-miterlimit="10"/><use height="744.094" width="1052.362" xlink:href="#t" x="232.376" y="138.2"/></g><path d="M347.924 289.28v51.248" fill="purple" stroke="purple" stroke-width="3" stroke-linecap="round"/><g transform="translate(-990.535 -530.805) scale(5.70771)" ns0:preamble="/home/waldgeist/data/sphinx/inkscape-preamble.tex" ns0:text="$-\\frac{9}{4}$" fill="purple" stroke="purple"><defs><symbol id="u" overflow="visible"><path d="M6.563-2.297c.171 0 .359 0 .359-.203 0-.188-.188-.188-.36-.188h-5.39c-.172 0-.344 0-.344.188 0 .203.172.203.344.203zm0 0" stroke="none"/></symbol><symbol id="v" overflow="visible"><path d="M2.906-2.078c0 1.734-.844 2-1.265 2-.157 0-.532-.016-.72-.234a.315.315 0 0 0 .313-.329.32.32 0 0 0-.328-.328c-.203 0-.328.14-.328.344 0 .469.39.766 1.063.766 1 0 1.937-.938 1.937-2.438 0-1.719-.765-2.328-1.578-2.328a1.55 1.55 0 0 0-1.11.422c-.234.234-.515.5-.515 1.125 0 .89.703 1.547 1.516 1.547.562 0 .859-.375 1.015-.688zm-.969.344c-.28 0-.53-.079-.734-.407-.156-.25-.156-.546-.156-.937 0-.406 0-.672.203-.953.172-.25.39-.39.75-.39s.578.218.688.405c.187.282.203.782.203 1.016 0 .906-.516 1.266-.954 1.266zm0 0" stroke="none"/></symbol><symbol id="w" overflow="visible"><path d="M3.688-1.14v-.25h-.782V-4.5c0-.14 0-.203-.14-.203-.094 0-.125 0-.188.11L.266-1.392v.25h2.062v.563c0 .25 0 .328-.578.328h-.188V0c.36-.016.797-.031 1.047-.031.266 0 .704.015 1.063.031v-.25h-.188c-.578 0-.578-.078-.578-.328v-.563zM2.375-3.939v2.547H.531zm0 0" stroke="none"/></symbol></defs><use y="134.765" x="223.432" xlink:href="#u" width="1052.362" height="744.094"/><use y="130.842" x="232.376" xlink:href="#v" width="1052.362" height="744.094"/><path d="M232.5 132.5h4" stroke-miterlimit="10"/><use y="138.2" x="232.376" xlink:href="#w" width="1052.362" height="744.094"/></g><path d="M713.074 289.427v51.247" fill="purple" stroke="purple" stroke-width="3" stroke-linecap="round"/><g ns0:text="$+\\frac{7}{6}$" ns0:preamble="/home/waldgeist/data/sphinx/inkscape-preamble.tex" transform="translate(-625.384 -530.805) scale(5.70771)" fill="purple" stroke="purple"><defs><symbol overflow="visible" id="x"><path d="M4.078-2.297H6.86c.141 0 .329 0 .329-.203 0-.188-.188-.188-.329-.188H4.08v-2.796c0-.141 0-.329-.204-.329-.203 0-.203.188-.203.329v2.796H.89c-.141 0-.329 0-.329.188 0 .203.188.203.329.203h2.78V.5c0 .14 0 .328.204.328.203 0 .203-.187.203-.328zm0 0" stroke="none"/></symbol><symbol overflow="visible" id="y"><path d="M3.734-4.203c.063-.094.063-.11.063-.281H1.969c-.282 0-.36-.016-.61-.032C1-4.546.984-4.594.97-4.703H.734L.484-3.22H.72c.015-.11.094-.562.203-.64.047-.032.625-.032.719-.032h1.515c-.219.282-.578.72-.719.922-.906 1.188-1 2.297-1 2.703 0 .079 0 .407.329.407.343 0 .343-.313.343-.407v-.28c0-1.345.282-1.97.579-2.345zm0 0" stroke="none"/></symbol><symbol overflow="visible" id="z"><path d="M1.047-2.281c0-.563.047-1.078.312-1.516.235-.375.61-.625 1.063-.625.203 0 .484.047.625.234-.172.016-.328.141-.328.344a.32.32 0 0 0 .328.328c.219 0 .344-.14.344-.343 0-.407-.297-.766-.985-.766-1 0-2.031.922-2.031 2.422C.375-.406 1.219.14 2 .14c.844 0 1.578-.657 1.578-1.563 0-.89-.703-1.547-1.515-1.547-.563 0-.86.375-1.016.688zM2-.078c-.36 0-.625-.203-.781-.516-.094-.203-.157-.562-.157-.969 0-.687.407-1.203.97-1.203.312 0 .53.125.702.375.172.266.172.563.172.97 0 .39 0 .687-.187.968A.815.815 0 0 1 2-.078zm0 0" stroke="none"/></symbol></defs><use height="744.094" width="1052.362" xlink:href="#x" x="223.432" y="134.765"/><use height="744.094" width="1052.362" xlink:href="#y" x="232.376" y="130.842"/><path d="M232.5 132.5h4" stroke-miterlimit="10"/><use height="744.094" width="1052.362" xlink:href="#z" x="232.376" y="138.2"/></g><g transform="translate(-758.16 -530.805) scale(5.70771)" ns0:preamble="/home/waldgeist/data/sphinx/inkscape-preamble.tex" ns0:text="$+\\frac{2}{3}$" fill="purple" stroke="purple"><defs><symbol id="A" overflow="visible"><path d="M4.078-2.297H6.86c.141 0 .329 0 .329-.203 0-.188-.188-.188-.329-.188H4.08v-2.796c0-.141 0-.329-.204-.329-.203 0-.203.188-.203.329v2.796H.89c-.141 0-.329 0-.329.188 0 .203.188.203.329.203h2.78V.5c0 .14 0 .328.204.328.203 0 .203-.187.203-.328zm0 0" stroke="none"/></symbol><symbol id="B" overflow="visible"><path d="M3.516-1.266H3.28c-.015.157-.094.563-.187.625-.047.047-.578.047-.688.047H1.125c.734-.64.984-.844 1.39-1.172.516-.406 1-.843 1-1.5 0-.843-.734-1.359-1.624-1.359-.86 0-1.454.61-1.454 1.25 0 .344.297.39.376.39.156 0 .359-.124.359-.374 0-.125-.047-.375-.406-.375.218-.485.687-.641 1.015-.641.703 0 1.063.547 1.063 1.11 0 .609-.438 1.078-.656 1.328L.516-.266C.437-.203.437-.187.437 0h2.876zm0 0" stroke="none"/></symbol><symbol id="C" overflow="visible"><path d="M1.906-2.328c.547 0 .938.375.938 1.125 0 .86-.516 1.125-.906 1.125-.282 0-.907-.078-1.188-.5.328 0 .406-.235.406-.39 0-.22-.172-.376-.39-.376a.38.38 0 0 0-.391.407C.375-.281 1.094.14 1.938.14c.968 0 1.64-.657 1.64-1.344 0-.547-.437-1.094-1.203-1.25.719-.266.984-.781.984-1.219 0-.547-.625-.953-1.406-.953-.766 0-1.36.375-1.36.938 0 .234.157.359.36.359.219 0 .36-.156.36-.344 0-.203-.141-.36-.36-.375.25-.297.719-.375.985-.375.312 0 .75.156.75.75 0 .297-.094.625-.282.828-.219.266-.422.281-.765.313-.172.015-.188.015-.22.015-.015 0-.077.016-.077.094 0 .094.062.094.187.094zm0 0" stroke="none"/></symbol></defs><use y="134.765" x="223.432" xlink:href="#A" width="1052.362" height="744.094"/><use y="130.842" x="232.376" xlink:href="#B" width="1052.362" height="744.094"/><path d="M232.5 132.5h4" stroke-miterlimit="10"/><use y="138.2" x="232.376" xlink:href="#C" width="1052.362" height="744.094"/></g><path d="M886.686 289.427v51.247" fill="purple" stroke="purple" stroke-width="3" stroke-linecap="round"/><g ns0:text="$+\\frac{18}{4}$" ns0:preamble="/home/waldgeist/data/sphinx/inkscape-preamble.tex" transform="translate(-463.188 -530.805) scale(5.70771)" fill="purple" stroke="purple"><defs><symbol overflow="visible" id="D"><path d="M4.078-2.297H6.86c.141 0 .329 0 .329-.203 0-.188-.188-.188-.329-.188H4.08v-2.796c0-.141 0-.329-.204-.329-.203 0-.203.188-.203.329v2.796H.89c-.141 0-.329 0-.329.188 0 .203.188.203.329.203h2.78V.5c0 .14 0 .328.204.328.203 0 .203-.187.203-.328zm0 0" stroke="none"/></symbol><symbol overflow="visible" id="E"><path d="M2.328-4.438c0-.187 0-.187-.203-.187-.453.438-1.078.438-1.36.438v.25c.157 0 .626 0 1-.188v3.547c0 .234 0 .328-.687.328H.812V0c.125 0 .985-.031 1.235-.031.219 0 1.094.031 1.25.031v-.25H3.03c-.703 0-.703-.094-.703-.328zm0 0" stroke="none"/></symbol><symbol overflow="visible" id="F"><path d="M2.469-2.516c.547-.265.89-.593.89-1.078 0-.672-.703-1.031-1.375-1.031-.765 0-1.39.5-1.39 1.156 0 .328.156.563.281.703.125.157.172.188.578.422-.39.172-1.078.547-1.078 1.281 0 .766.797 1.204 1.594 1.204.89 0 1.61-.563 1.61-1.313 0-.469-.267-.86-.673-1.094-.094-.062-.328-.187-.437-.25zm-1.125-.656c-.188-.11-.375-.297-.375-.562 0-.438.5-.688 1-.688.547 0 1.031.344 1.031.828 0 .625-.734.938-.734.938-.016 0-.032 0-.079-.031zm.328.969l.969.547c.171.11.515.312.515.718 0 .532-.578.86-1.172.86-.64 0-1.187-.422-1.187-.985 0-.515.375-.921.875-1.14zm0 0" stroke="none"/></symbol><symbol overflow="visible" id="G"><path d="M3.688-1.14v-.25h-.782V-4.5c0-.14 0-.203-.14-.203-.094 0-.125 0-.188.11L.266-1.392v.25h2.062v.563c0 .25 0 .328-.578.328h-.188V0c.36-.016.797-.031 1.047-.031.266 0 .704.015 1.063.031v-.25h-.188c-.578 0-.578-.078-.578-.328v-.563zM2.375-3.939v2.547H.531zm0 0" stroke="none"/></symbol></defs><use height="744.094" width="1052.362" xlink:href="#D" x="223.432" y="134.765"/><use height="744.094" width="1052.362" xlink:href="#E" x="232.376" y="130.842"/><use height="744.094" width="1052.362" xlink:href="#F" x="236.348" y="130.842"/><path d="M232.5 132.5h8" stroke-miterlimit="10"/><g><use height="744.094" width="1052.362" xlink:href="#G" x="234.362" y="138.2"/></g></g><path d="M191.715 289.443v51.247" fill="purple" stroke="purple" stroke-width="3" stroke-linecap="round"/><g transform="translate(-1158.16 -530.805) scale(5.70771)" ns0:preamble="/home/waldgeist/data/sphinx/inkscape-preamble.tex" ns0:text="$-\\frac{21}{5}$" fill="purple" stroke="purple"><defs><symbol id="H" overflow="visible"><path d="M6.563-2.297c.171 0 .359 0 .359-.203 0-.188-.188-.188-.36-.188h-5.39c-.172 0-.344 0-.344.188 0 .203.172.203.344.203zm0 0" stroke="none"/></symbol><symbol id="I" overflow="visible"><path d="M3.516-1.266H3.28c-.015.157-.094.563-.187.625-.047.047-.578.047-.688.047H1.125c.734-.64.984-.844 1.39-1.172.516-.406 1-.843 1-1.5 0-.843-.734-1.359-1.624-1.359-.86 0-1.454.61-1.454 1.25 0 .344.297.39.376.39.156 0 .359-.124.359-.374 0-.125-.047-.375-.406-.375.218-.485.687-.641 1.015-.641.703 0 1.063.547 1.063 1.11 0 .609-.438 1.078-.656 1.328L.516-.266C.437-.203.437-.187.437 0h2.876zm0 0" stroke="none"/></symbol><symbol id="J" overflow="visible"><path d="M2.328-4.438c0-.187 0-.187-.203-.187-.453.438-1.078.438-1.36.438v.25c.157 0 .626 0 1-.188v3.547c0 .234 0 .328-.687.328H.812V0c.125 0 .985-.031 1.235-.031.219 0 1.094.031 1.25.031v-.25H3.03c-.703 0-.703-.094-.703-.328zm0 0" stroke="none"/></symbol><symbol id="K" overflow="visible"><path d="M1.078-3.89c.36.093.563.093.672.093.922 0 1.469-.625 1.469-.734 0-.078-.047-.094-.078-.094-.016 0-.032 0-.063.016-.172.062-.531.203-1.047.203-.203 0-.562-.016-1.015-.188-.079-.031-.094-.031-.094-.031-.094 0-.094.078-.094.188v2.046c0 .125 0 .204.11.204.062 0 .078 0 .14-.094.297-.375.734-.438.969-.438.422 0 .61.328.64.39.126.235.172.5.172.907 0 .203 0 .61-.218.922a.984.984 0 0 1-.813.422c-.453 0-.922-.25-1.094-.719.266.016.407-.156.407-.344 0-.296-.266-.343-.36-.343 0 0-.344 0-.344.375 0 .625.579 1.25 1.407 1.25.89 0 1.672-.657 1.672-1.547 0-.782-.594-1.5-1.454-1.5-.312 0-.671.062-.984.328zm0 0" stroke="none"/></symbol></defs><use y="134.765" x="223.432" xlink:href="#H" width="1052.362" height="744.094"/><use y="130.842" x="232.376" xlink:href="#I" width="1052.362" height="744.094"/><use y="130.842" x="236.348" xlink:href="#J" width="1052.362" height="744.094"/><path d="M232.5 132.5h8" stroke-miterlimit="10"/><g><use y="138.2" x="234.362" xlink:href="#K" width="1052.362" height="744.094"/></g></g></svg>