<svg xmlns:ns0="http://www.iki.fi/pav/software/textext/" xmlns="http://www.w3.org/2000/svg" xmlns:xlink="http://www.w3.org/1999/xlink" height="297mm" width="210mm"><title>Ziffern und Zahlen</title><rect ry="2.95" y="392.841" x="63.951" height="266.68" width="616.193" style="marker:none" color="#000" fill="#fff" stroke="#fff" stroke-linecap="round" stroke-linejoin="bevel" overflow="visible"/><g transform="matrix(3 0 0 3 -576.575 219.794)" ns0:preamble="/home/waldgeist/data/sphinx/inkscape-preamble.tex" ns0:text="Die Ziffer $4$ hat den Wert\\; $ 4 \\cdot 1\\,000 = 4\\,000$"><defs><symbol id="a" overflow="visible"><path d="M.344-6.813v.313h.25c.765 0 .781.11.781.469v5.25c0 .36-.016.469-.781.469h-.25V0H4c1.672 0 3.047-1.469 3.047-3.344C7.047-5.25 5.703-6.813 4-6.813zm2.375 6.5c-.469 0-.485-.062-.485-.39v-5.39c0-.345.016-.407.485-.407h1c.625 0 1.312.219 1.812.922.438.594.516 1.453.516 2.234 0 1.094-.188 1.703-.547 2.188a2.192 2.192 0 0 1-1.766.843zm0 0"/></symbol><symbol id="b" overflow="visible"><path d="M1.766-4.406l-1.391.11v.312c.64 0 .734.062.734.546V-.75c0 .438-.109.438-.78.438V0c.312-.016.859-.031 1.093-.031.36 0 .703.015 1.047.031v-.313c-.672 0-.703-.046-.703-.437zm.03-1.735a.514.514 0 0 0-.515-.53.537.537 0 0 0-.531.53c0 .266.219.532.531.532a.514.514 0 0 0 .516-.532zm0 0"/></symbol><symbol id="c" overflow="visible"><path d="M1.11-2.516C1.171-4 2.015-4.25 2.36-4.25c1.015 0 1.124 1.344 1.124 1.734zm0 .22h2.78c.22 0 .25 0 .25-.22 0-.984-.546-1.953-1.78-1.953C1.202-4.469.28-3.437.28-2.187.281-.86 1.328.108 2.47.108 3.688.11 4.14-1 4.14-1.187c0-.094-.079-.125-.141-.125-.078 0-.11.062-.125.14C3.531-.14 2.625-.14 2.531-.14c-.5 0-.89-.296-1.125-.671-.297-.47-.297-1.125-.297-1.485zm0 0"/></symbol><symbol id="d" overflow="visible"><path d="M5.453-6.453c.063-.11.063-.125.063-.203 0-.157-.047-.157-.25-.157H.796l-.109 2.25h.25C1-5.688 1.313-6.5 2.938-6.5H4.5L.625-.375c-.063.11-.063.125-.063.203C.563 0 .61 0 .813 0h4.594l.172-2.656h-.25C5.25-1.281 5.062-.344 3.218-.344h-1.64zm0 0"/></symbol><symbol id="e" overflow="visible"><path d="M4.469-3.984h1.14v-.313H4.438v-1.156c0-.89.484-1.36.921-1.36.032 0 .188 0 .329.079a.443.443 0 0 0-.297.421c0 .22.156.422.437.422s.438-.203.438-.437c0-.36-.36-.703-.907-.703-.593 0-1.03.375-1.078.422-.297-.375-.86-.422-1.125-.422-.937 0-2.094.515-2.094 1.593v1.141H.266v.313h.796V-.75c0 .438-.109.438-.78.438V0c.327-.016.859-.031 1.109-.031S2.125-.016 2.5 0v-.313c-.672 0-.781 0-.781-.437v-3.234h2.093V-.75c0 .438-.109.438-.78.438V0c.39-.016.859-.031 1.14-.031.39 0 .86 0 1.266.031v-.313h-.22c-.734 0-.75-.109-.75-.468zm-2.782-.313v-1.125c0-.969.813-1.39 1.47-1.39.484 0 .765.187.765.187v.016a.413.413 0 0 0-.36.421c0 .063 0 .313.282.407-.031.125-.031.218-.031.343v1.141zm0 0"/></symbol><symbol id="f" overflow="visible"><path d="M1.672-3.313v-1.093l-1.39.11v.312c.702 0 .78.062.78.562V-.75c0 .438-.109.438-.78.438V0c.39-.016.859-.031 1.14-.031.39 0 .86 0 1.266.031v-.313h-.22c-.734 0-.75-.109-.75-.468v-1.531c0-.985.423-1.876 1.173-1.876.062 0 .093 0 .109.016-.031 0-.234.125-.234.39 0 .266.218.423.437.423a.421.421 0 0 0 .422-.438c0-.312-.313-.61-.734-.61-.735 0-1.094.673-1.22 1.095zm0 0"/></symbol><symbol id="g" overflow="visible"><path d="M2.938-1.64v.859c0 .36-.032.469-.766.469h-.203V0c.406-.031.922-.031 1.343-.031.422 0 .938 0 1.36.031v-.313h-.219c-.734 0-.75-.109-.75-.468v-.86h.985v-.312h-.985v-4.531c0-.204 0-.266-.172-.266-.078 0-.11 0-.187.125L.28-1.953v.312zm.046-.313H.563l2.421-3.719zm0 0"/></symbol><symbol id="h" overflow="visible"><path d="M1.094-.75c0 .438-.11.438-.782.438V0c.36-.016.86-.031 1.141-.031.25 0 .766.015 1.11.031v-.313c-.672 0-.782 0-.782-.437v-1.844c0-1.031.719-1.594 1.344-1.594.64 0 .75.532.75 1.11V-.75c0 .438-.11.438-.781.438V0c.344-.016.86-.031 1.125-.031.25 0 .781.015 1.11.031v-.313c-.516 0-.766 0-.766-.296v-1.907c0-.859 0-1.156-.313-1.515-.14-.172-.469-.375-1.047-.375-.844 0-1.281.593-1.453.984v-3.5l-1.438.11v.312c.704 0 .782.063.782.563zm0 0"/></symbol><symbol id="i" overflow="visible"><path d="M3.313-.75c.046.39.312.813.78.813.22 0 .829-.141.829-.954v-.562h-.25v.562c0 .579-.25.641-.36.641-.328 0-.375-.453-.375-.5v-1.984c0-.422 0-.813-.359-1.188-.39-.39-.89-.547-1.36-.547-.827 0-1.515.469-1.515 1.125 0 .297.203.469.469.469a.435.435 0 0 0 .453-.453c0-.125-.047-.453-.516-.453.282-.36.766-.469 1.079-.469.5 0 1.062.39 1.062 1.281v.36c-.516.03-1.203.062-1.828.359-.75.344-1 .86-1 1.297 0 .812.969 1.062 1.594 1.062.656 0 1.109-.406 1.296-.859zM3.25-2.39v1c0 .937-.719 1.28-1.172 1.28-.484 0-.89-.343-.89-.843 0-.547.421-1.375 2.062-1.438zm0 0"/></symbol><symbol id="j" overflow="visible"><path d="M1.719-3.984h1.437v-.313H1.72v-1.828h-.25c0 .813-.297 1.875-1.282 1.922v.219h.844v2.75c0 1.218.938 1.343 1.297 1.343.703 0 .985-.703.985-1.343v-.563h-.25v.547c0 .734-.297 1.11-.672 1.11-.672 0-.672-.907-.672-1.079zm0 0"/></symbol><symbol id="k" overflow="visible"><path d="M3.781-.547V.11L5.25 0v-.313c-.688 0-.781-.062-.781-.562v-6.047l-1.422.11v.312c.687 0 .765.063.765.563v2.156a1.582 1.582 0 0 0-1.25-.625c-1.171 0-2.218.984-2.218 2.265 0 1.266.969 2.25 2.11 2.25.64 0 1.077-.343 1.327-.656zm0-2.672v2.047c0 .172 0 .188-.11.36-.296.484-.733.703-1.171.703-.453 0-.813-.266-1.047-.641-.25-.406-.281-.969-.281-1.39 0-.36.016-.954.297-1.407.218-.312.593-.64 1.14-.64.344 0 .766.156 1.063.593.11.172.11.188.11.375zm0 0"/></symbol><symbol id="l" overflow="visible"><path d="M1.094-3.422V-.75c0 .438-.11.438-.782.438V0c.36-.016.86-.031 1.141-.031.25 0 .766.015 1.11.031v-.313c-.672 0-.782 0-.782-.437v-1.844c0-1.031.719-1.594 1.344-1.594.64 0 .75.532.75 1.11V-.75c0 .438-.11.438-.781.438V0c.344-.016.86-.031 1.125-.031.25 0 .781.015 1.11.031v-.313c-.516 0-.766 0-.766-.296v-1.907c0-.859 0-1.156-.313-1.515-.14-.172-.469-.375-1.047-.375-.734 0-1.203.422-1.484 1.047v-1.047l-1.407.11v.312c.704 0 .782.062.782.562zm0 0"/></symbol><symbol id="m" overflow="visible"><path d="M9.063-5.828c.171-.578.609-.672 1-.672v-.313c-.297.032-.61.032-.907.032-.297 0-.937-.016-1.187-.032v.313c.672.016.86.344.86.531 0 .063-.032.14-.048.203l-1.5 4.594-1.593-4.875c0-.047-.032-.11-.032-.156 0-.297.578-.297.844-.297v-.313c-.36.032-1.031.032-1.422.032-.375 0-.797-.016-1.203-.032v.313c.563 0 .766 0 .89.36l.22.702-1.391 4.266L2-6.078c-.016-.016-.031-.094-.031-.125 0-.297.578-.297.843-.297v-.313c-.359.032-1.03.032-1.421.032-.375 0-.797-.016-1.22-.032v.313c.75 0 .798.047.923.422L3.078.032c.031.093.063.187.188.187.14 0 .156-.063.203-.203l1.64-5.063L6.766.031c.03.094.062.188.187.188.14 0 .172-.063.203-.203zm0 0"/></symbol><symbol id="o" overflow="visible"><path d="M2.938-6.375c0-.25 0-.266-.235-.266C2.078-6 1.203-6 .891-6v.313c.203 0 .78 0 1.296-.266v5.172c0 .36-.03.469-.921.469H.953V0c.344-.031 1.203-.031 1.61-.031.39 0 1.265 0 1.609.031v-.313h-.313c-.906 0-.921-.109-.921-.468zm0 0"/></symbol><symbol id="p" overflow="visible"><path d="M4.578-3.188c0-.796-.047-1.593-.39-2.328C3.733-6.484 2.905-6.64 2.5-6.64c-.61 0-1.328.266-1.75 1.188-.313.687-.36 1.469-.36 2.266 0 .75.032 1.64.454 2.406a1.83 1.83 0 0 0 1.64 1c.532 0 1.297-.203 1.735-1.157.312-.687.36-1.468.36-2.25zM2.484 0c-.39 0-.984-.25-1.156-1.203-.11-.594-.11-1.516-.11-2.11 0-.64 0-1.296.079-1.828.187-1.187.937-1.28 1.187-1.28.329 0 .985.187 1.172 1.171.11.563.11 1.313.11 1.938 0 .75 0 1.421-.11 2.062C3.5-.297 2.937 0 2.484 0zm0 0"/></symbol><symbol id="q" overflow="visible"><path d="M6.844-3.266c.156 0 .343 0 .343-.187 0-.203-.187-.203-.328-.203H.891c-.141 0-.329 0-.329.203 0 .187.188.187.329.187zm.015 1.938c.141 0 .329 0 .329-.203 0-.188-.188-.188-.344-.188H.89c-.141 0-.329 0-.329.188 0 .203.188.203.329.203zm0 0"/></symbol><symbol id="n" overflow="visible"><path d="M1.906-2.5a.524.524 0 1 0-.516.531.524.524 0 0 0 .516-.531zm0 0"/></symbol></defs><use y="134.765" x="223.432" xlink:href="#a" width="744.094" height="1052.362"/><use y="134.765" x="231.042" xlink:href="#b" width="744.094" height="1052.362"/><use y="134.765" x="233.81" xlink:href="#c" width="744.094" height="1052.362"/><use y="134.765" x="241.555" xlink:href="#d" width="744.094" height="1052.362"/><use y="134.765" x="247.643" xlink:href="#b" width="744.094" height="1052.362"/><use y="134.765" x="250.411" xlink:href="#e" width="744.094" height="1052.362"/><use y="134.765" x="256.222" xlink:href="#c" width="744.094" height="1052.362"/><use y="134.765" x="260.649" xlink:href="#f" width="744.094" height="1052.362"/><use y="134.765" x="267.879" xlink:href="#g" width="744.094" height="1052.362"/><use y="134.765" x="276.178" xlink:href="#h" width="744.094" height="1052.362"/><use y="134.765" x="281.713" xlink:href="#i" width="744.094" height="1052.362"/><use y="134.765" x="286.695" xlink:href="#j" width="744.094" height="1052.362"/><use y="134.765" x="293.887" xlink:href="#k" width="744.094" height="1052.362"/><use y="134.765" x="299.422" xlink:href="#c" width="744.094" height="1052.362"/><use y="134.765" x="303.849" xlink:href="#l" width="744.094" height="1052.362"/><g><use y="134.765" x="312.712" xlink:href="#m" width="744.094" height="1052.362"/></g><g><use y="134.765" x="322.115" xlink:href="#c" width="744.094" height="1052.362"/><use y="134.765" x="326.542" xlink:href="#f" width="744.094" height="1052.362"/><use y="134.765" x="330.444" xlink:href="#j" width="744.094" height="1052.362"/></g><g><use y="134.765" x="340.406" xlink:href="#g" width="744.094" height="1052.362"/></g><g><use y="134.765" x="347.605" xlink:href="#n" width="744.094" height="1052.362"/></g><g><use y="134.765" x="352.586" xlink:href="#o" width="744.094" height="1052.362"/></g><g><use y="134.765" x="359.231" xlink:href="#p" width="744.094" height="1052.362"/><use y="134.765" x="364.212" xlink:href="#p" width="744.094" height="1052.362"/><use y="134.765" x="369.194" xlink:href="#p" width="744.094" height="1052.362"/></g><g><use y="134.765" x="376.935" xlink:href="#q" width="744.094" height="1052.362"/></g><g><use y="134.765" x="387.453" xlink:href="#g" width="744.094" height="1052.362"/></g><g><use y="134.765" x="394.098" xlink:href="#p" width="744.094" height="1052.362"/><use y="134.765" x="399.079" xlink:href="#p" width="744.094" height="1052.362"/><use y="134.765" x="404.061" xlink:href="#p" width="744.094" height="1052.362"/></g></g><g ns0:text="Die Ziffer $5$ hat den Wert\\; $ 5 \\cdot \\phantom{0}\\,100 = \\phantom{0}\\,500$" ns0:preamble="/home/waldgeist/data/sphinx/inkscape-preamble.tex" transform="matrix(3 0 0 3 -576.57 178.656)"><defs><symbol overflow="visible" id="r"><path d="M.344-6.813v.313h.25c.765 0 .781.11.781.469v5.25c0 .36-.016.469-.781.469h-.25V0H4c1.672 0 3.047-1.469 3.047-3.344C7.047-5.25 5.703-6.813 4-6.813zm2.375 6.5c-.469 0-.485-.062-.485-.39v-5.39c0-.345.016-.407.485-.407h1c.625 0 1.312.219 1.812.922.438.594.516 1.453.516 2.234 0 1.094-.188 1.703-.547 2.188a2.192 2.192 0 0 1-1.766.843zm0 0"/></symbol><symbol overflow="visible" id="s"><path d="M1.766-4.406l-1.391.11v.312c.64 0 .734.062.734.546V-.75c0 .438-.109.438-.78.438V0c.312-.016.859-.031 1.093-.031.36 0 .703.015 1.047.031v-.313c-.672 0-.703-.046-.703-.437zm.03-1.735a.514.514 0 0 0-.515-.53.537.537 0 0 0-.531.53c0 .266.219.532.531.532a.514.514 0 0 0 .516-.532zm0 0"/></symbol><symbol overflow="visible" id="t"><path d="M1.11-2.516C1.171-4 2.015-4.25 2.36-4.25c1.015 0 1.124 1.344 1.124 1.734zm0 .22h2.78c.22 0 .25 0 .25-.22 0-.984-.546-1.953-1.78-1.953C1.202-4.469.28-3.437.28-2.187.281-.86 1.328.108 2.47.108 3.688.11 4.14-1 4.14-1.187c0-.094-.079-.125-.141-.125-.078 0-.11.062-.125.14C3.531-.14 2.625-.14 2.531-.14c-.5 0-.89-.296-1.125-.671-.297-.47-.297-1.125-.297-1.485zm0 0"/></symbol><symbol overflow="visible" id="u"><path d="M5.453-6.453c.063-.11.063-.125.063-.203 0-.157-.047-.157-.25-.157H.796l-.109 2.25h.25C1-5.688 1.313-6.5 2.938-6.5H4.5L.625-.375c-.063.11-.063.125-.063.203C.563 0 .61 0 .813 0h4.594l.172-2.656h-.25C5.25-1.281 5.062-.344 3.218-.344h-1.64zm0 0"/></symbol><symbol overflow="visible" id="v"><path d="M4.469-3.984h1.14v-.313H4.438v-1.156c0-.89.484-1.36.921-1.36.032 0 .188 0 .329.079a.443.443 0 0 0-.297.421c0 .22.156.422.437.422s.438-.203.438-.437c0-.36-.36-.703-.907-.703-.593 0-1.03.375-1.078.422-.297-.375-.86-.422-1.125-.422-.937 0-2.094.515-2.094 1.593v1.141H.266v.313h.796V-.75c0 .438-.109.438-.78.438V0c.327-.016.859-.031 1.109-.031S2.125-.016 2.5 0v-.313c-.672 0-.781 0-.781-.437v-3.234h2.093V-.75c0 .438-.109.438-.78.438V0c.39-.016.859-.031 1.14-.031.39 0 .86 0 1.266.031v-.313h-.22c-.734 0-.75-.109-.75-.468zm-2.782-.313v-1.125c0-.969.813-1.39 1.47-1.39.484 0 .765.187.765.187v.016a.413.413 0 0 0-.36.421c0 .063 0 .313.282.407-.031.125-.031.218-.031.343v1.141zm0 0"/></symbol><symbol overflow="visible" id="w"><path d="M1.672-3.313v-1.093l-1.39.11v.312c.702 0 .78.062.78.562V-.75c0 .438-.109.438-.78.438V0c.39-.016.859-.031 1.14-.031.39 0 .86 0 1.266.031v-.313h-.22c-.734 0-.75-.109-.75-.468v-1.531c0-.985.423-1.876 1.173-1.876.062 0 .093 0 .109.016-.031 0-.234.125-.234.39 0 .266.218.423.437.423a.421.421 0 0 0 .422-.438c0-.312-.313-.61-.734-.61-.735 0-1.094.673-1.22 1.095zm0 0"/></symbol><symbol overflow="visible" id="x"><path d="M4.469-2c0-1.188-.813-2.188-1.89-2.188-.47 0-.907.157-1.267.516v-1.953c.204.063.532.125.844.125 1.235 0 1.938-.906 1.938-1.031 0-.063-.032-.11-.11-.11 0 0-.03 0-.078.032a3.22 3.22 0 0 1-1.36.296c-.39 0-.858-.078-1.327-.28-.078-.032-.094-.032-.11-.032C1-6.625 1-6.547 1-6.391v2.954c0 .171 0 .25.14.25.079 0 .094-.016.141-.079.11-.156.469-.703 1.282-.703.515 0 .765.453.843.64.156.376.188.75.188 1.25 0 .36 0 .954-.25 1.376-.235.39-.61.64-1.063.64-.719 0-1.297-.53-1.469-1.109.032 0 .063.016.172.016.329 0 .5-.25.5-.485 0-.25-.171-.5-.5-.5-.14 0-.484.079-.484.532C.5-.75 1.188.219 2.297.219 3.453.219 4.469-.734 4.469-2zm0 0"/></symbol><symbol overflow="visible" id="y"><path d="M1.094-.75c0 .438-.11.438-.782.438V0c.36-.016.86-.031 1.141-.031.25 0 .766.015 1.11.031v-.313c-.672 0-.782 0-.782-.437v-1.844c0-1.031.719-1.594 1.344-1.594.64 0 .75.532.75 1.11V-.75c0 .438-.11.438-.781.438V0c.344-.016.86-.031 1.125-.031.25 0 .781.015 1.11.031v-.313c-.516 0-.766 0-.766-.296v-1.907c0-.859 0-1.156-.313-1.515-.14-.172-.469-.375-1.047-.375-.844 0-1.281.593-1.453.984v-3.5l-1.438.11v.312c.704 0 .782.063.782.563zm0 0"/></symbol><symbol overflow="visible" id="z"><path d="M3.313-.75c.046.39.312.813.78.813.22 0 .829-.141.829-.954v-.562h-.25v.562c0 .579-.25.641-.36.641-.328 0-.375-.453-.375-.5v-1.984c0-.422 0-.813-.359-1.188-.39-.39-.89-.547-1.36-.547-.827 0-1.515.469-1.515 1.125 0 .297.203.469.469.469a.435.435 0 0 0 .453-.453c0-.125-.047-.453-.516-.453.282-.36.766-.469 1.079-.469.5 0 1.062.39 1.062 1.281v.36c-.516.03-1.203.062-1.828.359-.75.344-1 .86-1 1.297 0 .812.969 1.062 1.594 1.062.656 0 1.109-.406 1.296-.859zM3.25-2.39v1c0 .937-.719 1.28-1.172 1.28-.484 0-.89-.343-.89-.843 0-.547.421-1.375 2.062-1.438zm0 0"/></symbol><symbol overflow="visible" id="A"><path d="M1.719-3.984h1.437v-.313H1.72v-1.828h-.25c0 .813-.297 1.875-1.282 1.922v.219h.844v2.75c0 1.218.938 1.343 1.297 1.343.703 0 .985-.703.985-1.343v-.563h-.25v.547c0 .734-.297 1.11-.672 1.11-.672 0-.672-.907-.672-1.079zm0 0"/></symbol><symbol overflow="visible" id="B"><path d="M3.781-.547V.11L5.25 0v-.313c-.688 0-.781-.062-.781-.562v-6.047l-1.422.11v.312c.687 0 .765.063.765.563v2.156a1.582 1.582 0 0 0-1.25-.625c-1.171 0-2.218.984-2.218 2.265 0 1.266.969 2.25 2.11 2.25.64 0 1.077-.343 1.327-.656zm0-2.672v2.047c0 .172 0 .188-.11.36-.296.484-.733.703-1.171.703-.453 0-.813-.266-1.047-.641-.25-.406-.281-.969-.281-1.39 0-.36.016-.954.297-1.407.218-.312.593-.64 1.14-.64.344 0 .766.156 1.063.593.11.172.11.188.11.375zm0 0"/></symbol><symbol overflow="visible" id="C"><path d="M1.094-3.422V-.75c0 .438-.11.438-.782.438V0c.36-.016.86-.031 1.141-.031.25 0 .766.015 1.11.031v-.313c-.672 0-.782 0-.782-.437v-1.844c0-1.031.719-1.594 1.344-1.594.64 0 .75.532.75 1.11V-.75c0 .438-.11.438-.781.438V0c.344-.016.86-.031 1.125-.031.25 0 .781.015 1.11.031v-.313c-.516 0-.766 0-.766-.296v-1.907c0-.859 0-1.156-.313-1.515-.14-.172-.469-.375-1.047-.375-.734 0-1.203.422-1.484 1.047v-1.047l-1.407.11v.312c.704 0 .782.062.782.562zm0 0"/></symbol><symbol overflow="visible" id="D"><path d="M9.063-5.828c.171-.578.609-.672 1-.672v-.313c-.297.032-.61.032-.907.032-.297 0-.937-.016-1.187-.032v.313c.672.016.86.344.86.531 0 .063-.032.14-.048.203l-1.5 4.594-1.593-4.875c0-.047-.032-.11-.032-.156 0-.297.578-.297.844-.297v-.313c-.36.032-1.031.032-1.422.032-.375 0-.797-.016-1.203-.032v.313c.563 0 .766 0 .89.36l.22.702-1.391 4.266L2-6.078c-.016-.016-.031-.094-.031-.125 0-.297.578-.297.843-.297v-.313c-.359.032-1.03.032-1.421.032-.375 0-.797-.016-1.22-.032v.313c.75 0 .798.047.923.422L3.078.032c.031.093.063.187.188.187.14 0 .156-.063.203-.203l1.64-5.063L6.766.031c.03.094.062.188.187.188.14 0 .172-.063.203-.203zm0 0"/></symbol><symbol overflow="visible" id="F"><path d="M2.938-6.375c0-.25 0-.266-.235-.266C2.078-6 1.203-6 .891-6v.313c.203 0 .78 0 1.296-.266v5.172c0 .36-.03.469-.921.469H.953V0c.344-.031 1.203-.031 1.61-.031.39 0 1.265 0 1.609.031v-.313h-.313c-.906 0-.921-.109-.921-.468zm0 0"/></symbol><symbol overflow="visible" id="G"><path d="M4.578-3.188c0-.796-.047-1.593-.39-2.328C3.733-6.484 2.905-6.64 2.5-6.64c-.61 0-1.328.266-1.75 1.188-.313.687-.36 1.469-.36 2.266 0 .75.032 1.64.454 2.406a1.83 1.83 0 0 0 1.64 1c.532 0 1.297-.203 1.735-1.157.312-.687.36-1.468.36-2.25zM2.484 0c-.39 0-.984-.25-1.156-1.203-.11-.594-.11-1.516-.11-2.11 0-.64 0-1.296.079-1.828.187-1.187.937-1.28 1.187-1.28.329 0 .985.187 1.172 1.171.11.563.11 1.313.11 1.938 0 .75 0 1.421-.11 2.062C3.5-.297 2.937 0 2.484 0zm0 0"/></symbol><symbol overflow="visible" id="H"><path d="M6.844-3.266c.156 0 .343 0 .343-.187 0-.203-.187-.203-.328-.203H.891c-.141 0-.329 0-.329.203 0 .187.188.187.329.187zm.015 1.938c.141 0 .329 0 .329-.203 0-.188-.188-.188-.344-.188H.89c-.141 0-.329 0-.329.188 0 .203.188.203.329.203zm0 0"/></symbol><symbol overflow="visible" id="E"><path d="M1.906-2.5a.524.524 0 1 0-.516.531.524.524 0 0 0 .516-.531zm0 0"/></symbol></defs><use xlink:href="#r" x="223.432" y="134.765" width="744.094" height="1052.362"/><use xlink:href="#s" x="231.042" y="134.765" width="744.094" height="1052.362"/><use xlink:href="#t" x="233.81" y="134.765" width="744.094" height="1052.362"/><use xlink:href="#u" x="241.555" y="134.765" width="744.094" height="1052.362"/><use xlink:href="#s" x="247.643" y="134.765" width="744.094" height="1052.362"/><use xlink:href="#v" x="250.411" y="134.765" width="744.094" height="1052.362"/><use xlink:href="#t" x="256.222" y="134.765" width="744.094" height="1052.362"/><use xlink:href="#w" x="260.649" y="134.765" width="744.094" height="1052.362"/><use xlink:href="#x" x="267.879" y="134.765" width="744.094" height="1052.362"/><use xlink:href="#y" x="276.178" y="134.765" width="744.094" height="1052.362"/><use xlink:href="#z" x="281.713" y="134.765" width="744.094" height="1052.362"/><use xlink:href="#A" x="286.695" y="134.765" width="744.094" height="1052.362"/><g><use xlink:href="#B" x="293.887" y="134.765" width="744.094" height="1052.362"/><use xlink:href="#t" x="299.422" y="134.765" width="744.094" height="1052.362"/><use xlink:href="#C" x="303.849" y="134.765" width="744.094" height="1052.362"/></g><g><use xlink:href="#D" x="312.712" y="134.765" width="744.094" height="1052.362"/></g><g><use xlink:href="#t" x="322.115" y="134.765" width="744.094" height="1052.362"/><use xlink:href="#w" x="326.542" y="134.765" width="744.094" height="1052.362"/><use xlink:href="#A" x="330.444" y="134.765" width="744.094" height="1052.362"/></g><g><use xlink:href="#x" x="340.406" y="134.765" width="744.094" height="1052.362"/></g><g><use xlink:href="#E" x="347.605" y="134.765" width="744.094" height="1052.362"/></g><g><use xlink:href="#F" x="359.228" y="134.765" width="744.094" height="1052.362"/><use xlink:href="#G" x="364.209" y="134.765" width="744.094" height="1052.362"/><use xlink:href="#G" x="369.191" y="134.765" width="744.094" height="1052.362"/></g><g><use xlink:href="#H" x="376.942" y="134.765" width="744.094" height="1052.362"/></g><g><use xlink:href="#x" x="394.095" y="134.765" width="744.094" height="1052.362"/><use xlink:href="#G" x="399.076" y="134.765" width="744.094" height="1052.362"/><use xlink:href="#G" x="404.058" y="134.765" width="744.094" height="1052.362"/></g></g><g transform="matrix(3 0 0 3 -576.546 96.382)" ns0:preamble="/home/waldgeist/data/sphinx/inkscape-preamble.tex" ns0:text="Die Ziffer $8$ hat den Wert\\; $ 8 \\cdot \\phantom{000}\\,1 = \\phantom{000}\\,8$"><defs><symbol id="I" overflow="visible"><path d="M.344-6.813v.313h.25c.765 0 .781.11.781.469v5.25c0 .36-.016.469-.781.469h-.25V0H4c1.672 0 3.047-1.469 3.047-3.344C7.047-5.25 5.703-6.813 4-6.813zm2.375 6.5c-.469 0-.485-.062-.485-.39v-5.39c0-.345.016-.407.485-.407h1c.625 0 1.312.219 1.812.922.438.594.516 1.453.516 2.234 0 1.094-.188 1.703-.547 2.188a2.192 2.192 0 0 1-1.766.843zm0 0"/></symbol><symbol id="J" overflow="visible"><path d="M1.766-4.406l-1.391.11v.312c.64 0 .734.062.734.546V-.75c0 .438-.109.438-.78.438V0c.312-.016.859-.031 1.093-.031.36 0 .703.015 1.047.031v-.313c-.672 0-.703-.046-.703-.437zm.03-1.735a.514.514 0 0 0-.515-.53.537.537 0 0 0-.531.53c0 .266.219.532.531.532a.514.514 0 0 0 .516-.532zm0 0"/></symbol><symbol id="K" overflow="visible"><path d="M1.11-2.516C1.171-4 2.015-4.25 2.36-4.25c1.015 0 1.124 1.344 1.124 1.734zm0 .22h2.78c.22 0 .25 0 .25-.22 0-.984-.546-1.953-1.78-1.953C1.202-4.469.28-3.437.28-2.187.281-.86 1.328.108 2.47.108 3.688.11 4.14-1 4.14-1.187c0-.094-.079-.125-.141-.125-.078 0-.11.062-.125.14C3.531-.14 2.625-.14 2.531-.14c-.5 0-.89-.296-1.125-.671-.297-.47-.297-1.125-.297-1.485zm0 0"/></symbol><symbol id="L" overflow="visible"><path d="M5.453-6.453c.063-.11.063-.125.063-.203 0-.157-.047-.157-.25-.157H.796l-.109 2.25h.25C1-5.688 1.313-6.5 2.938-6.5H4.5L.625-.375c-.063.11-.063.125-.063.203C.563 0 .61 0 .813 0h4.594l.172-2.656h-.25C5.25-1.281 5.062-.344 3.218-.344h-1.64zm0 0"/></symbol><symbol id="M" overflow="visible"><path d="M4.469-3.984h1.14v-.313H4.438v-1.156c0-.89.484-1.36.921-1.36.032 0 .188 0 .329.079a.443.443 0 0 0-.297.421c0 .22.156.422.437.422s.438-.203.438-.437c0-.36-.36-.703-.907-.703-.593 0-1.03.375-1.078.422-.297-.375-.86-.422-1.125-.422-.937 0-2.094.515-2.094 1.593v1.141H.266v.313h.796V-.75c0 .438-.109.438-.78.438V0c.327-.016.859-.031 1.109-.031S2.125-.016 2.5 0v-.313c-.672 0-.781 0-.781-.437v-3.234h2.093V-.75c0 .438-.109.438-.78.438V0c.39-.016.859-.031 1.14-.031.39 0 .86 0 1.266.031v-.313h-.22c-.734 0-.75-.109-.75-.468zm-2.782-.313v-1.125c0-.969.813-1.39 1.47-1.39.484 0 .765.187.765.187v.016a.413.413 0 0 0-.36.421c0 .063 0 .313.282.407-.031.125-.031.218-.031.343v1.141zm0 0"/></symbol><symbol id="N" overflow="visible"><path d="M1.672-3.313v-1.093l-1.39.11v.312c.702 0 .78.062.78.562V-.75c0 .438-.109.438-.78.438V0c.39-.016.859-.031 1.14-.031.39 0 .86 0 1.266.031v-.313h-.22c-.734 0-.75-.109-.75-.468v-1.531c0-.985.423-1.876 1.173-1.876.062 0 .093 0 .109.016-.031 0-.234.125-.234.39 0 .266.218.423.437.423a.421.421 0 0 0 .422-.438c0-.312-.313-.61-.734-.61-.735 0-1.094.673-1.22 1.095zm0 0"/></symbol><symbol id="O" overflow="visible"><path d="M1.625-4.563c-.453-.296-.5-.625-.5-.796 0-.61.656-1.032 1.36-1.032.718 0 1.359.516 1.359 1.235 0 .578-.39 1.047-.985 1.39zm1.453.954c.719-.375 1.203-.891 1.203-1.547 0-.922-.875-1.485-1.781-1.485-1 0-1.813.735-1.813 1.672 0 .172.016.625.438 1.094.11.11.484.36.734.531C1.281-3.047.422-2.5.422-1.5.422-.453 1.438.219 2.484.219c1.125 0 2.079-.828 2.079-1.89 0-.36-.11-.813-.5-1.235-.188-.203-.344-.297-.985-.703zm-1 .421l1.235.782c.28.187.75.484.75 1.094 0 .734-.75 1.25-1.563 1.25C1.64-.063.922-.672.922-1.5c0-.578.312-1.219 1.156-1.688zm0 0"/></symbol><symbol id="P" overflow="visible"><path d="M1.094-.75c0 .438-.11.438-.782.438V0c.36-.016.86-.031 1.141-.031.25 0 .766.015 1.11.031v-.313c-.672 0-.782 0-.782-.437v-1.844c0-1.031.719-1.594 1.344-1.594.64 0 .75.532.75 1.11V-.75c0 .438-.11.438-.781.438V0c.344-.016.86-.031 1.125-.031.25 0 .781.015 1.11.031v-.313c-.516 0-.766 0-.766-.296v-1.907c0-.859 0-1.156-.313-1.515-.14-.172-.469-.375-1.047-.375-.844 0-1.281.593-1.453.984v-3.5l-1.438.11v.312c.704 0 .782.063.782.563zm0 0"/></symbol><symbol id="Q" overflow="visible"><path d="M3.313-.75c.046.39.312.813.78.813.22 0 .829-.141.829-.954v-.562h-.25v.562c0 .579-.25.641-.36.641-.328 0-.375-.453-.375-.5v-1.984c0-.422 0-.813-.359-1.188-.39-.39-.89-.547-1.36-.547-.827 0-1.515.469-1.515 1.125 0 .297.203.469.469.469a.435.435 0 0 0 .453-.453c0-.125-.047-.453-.516-.453.282-.36.766-.469 1.079-.469.5 0 1.062.39 1.062 1.281v.36c-.516.03-1.203.062-1.828.359-.75.344-1 .86-1 1.297 0 .812.969 1.062 1.594 1.062.656 0 1.109-.406 1.296-.859zM3.25-2.39v1c0 .937-.719 1.28-1.172 1.28-.484 0-.89-.343-.89-.843 0-.547.421-1.375 2.062-1.438zm0 0"/></symbol><symbol id="R" overflow="visible"><path d="M1.719-3.984h1.437v-.313H1.72v-1.828h-.25c0 .813-.297 1.875-1.282 1.922v.219h.844v2.75c0 1.218.938 1.343 1.297 1.343.703 0 .985-.703.985-1.343v-.563h-.25v.547c0 .734-.297 1.11-.672 1.11-.672 0-.672-.907-.672-1.079zm0 0"/></symbol><symbol id="S" overflow="visible"><path d="M3.781-.547V.11L5.25 0v-.313c-.688 0-.781-.062-.781-.562v-6.047l-1.422.11v.312c.687 0 .765.063.765.563v2.156a1.582 1.582 0 0 0-1.25-.625c-1.171 0-2.218.984-2.218 2.265 0 1.266.969 2.25 2.11 2.25.64 0 1.077-.343 1.327-.656zm0-2.672v2.047c0 .172 0 .188-.11.36-.296.484-.733.703-1.171.703-.453 0-.813-.266-1.047-.641-.25-.406-.281-.969-.281-1.39 0-.36.016-.954.297-1.407.218-.312.593-.64 1.14-.64.344 0 .766.156 1.063.593.11.172.11.188.11.375zm0 0"/></symbol><symbol id="T" overflow="visible"><path d="M1.094-3.422V-.75c0 .438-.11.438-.782.438V0c.36-.016.86-.031 1.141-.031.25 0 .766.015 1.11.031v-.313c-.672 0-.782 0-.782-.437v-1.844c0-1.031.719-1.594 1.344-1.594.64 0 .75.532.75 1.11V-.75c0 .438-.11.438-.781.438V0c.344-.016.86-.031 1.125-.031.25 0 .781.015 1.11.031v-.313c-.516 0-.766 0-.766-.296v-1.907c0-.859 0-1.156-.313-1.515-.14-.172-.469-.375-1.047-.375-.734 0-1.203.422-1.484 1.047v-1.047l-1.407.11v.312c.704 0 .782.062.782.562zm0 0"/></symbol><symbol id="U" overflow="visible"><path d="M9.063-5.828c.171-.578.609-.672 1-.672v-.313c-.297.032-.61.032-.907.032-.297 0-.937-.016-1.187-.032v.313c.672.016.86.344.86.531 0 .063-.032.14-.048.203l-1.5 4.594-1.593-4.875c0-.047-.032-.11-.032-.156 0-.297.578-.297.844-.297v-.313c-.36.032-1.031.032-1.422.032-.375 0-.797-.016-1.203-.032v.313c.563 0 .766 0 .89.36l.22.702-1.391 4.266L2-6.078c-.016-.016-.031-.094-.031-.125 0-.297.578-.297.843-.297v-.313c-.359.032-1.03.032-1.421.032-.375 0-.797-.016-1.22-.032v.313c.75 0 .798.047.923.422L3.078.032c.031.093.063.187.188.187.14 0 .156-.063.203-.203l1.64-5.063L6.766.031c.03.094.062.188.187.188.14 0 .172-.063.203-.203zm0 0"/></symbol><symbol id="W" overflow="visible"><path d="M2.938-6.375c0-.25 0-.266-.235-.266C2.078-6 1.203-6 .891-6v.313c.203 0 .78 0 1.296-.266v5.172c0 .36-.03.469-.921.469H.953V0c.344-.031 1.203-.031 1.61-.031.39 0 1.265 0 1.609.031v-.313h-.313c-.906 0-.921-.109-.921-.468zm0 0"/></symbol><symbol id="X" overflow="visible"><path d="M6.844-3.266c.156 0 .343 0 .343-.187 0-.203-.187-.203-.328-.203H.891c-.141 0-.329 0-.329.203 0 .187.188.187.329.187zm.015 1.938c.141 0 .329 0 .329-.203 0-.188-.188-.188-.344-.188H.89c-.141 0-.329 0-.329.188 0 .203.188.203.329.203zm0 0"/></symbol><symbol id="V" overflow="visible"><path d="M1.906-2.5a.524.524 0 1 0-.516.531.524.524 0 0 0 .516-.531zm0 0"/></symbol></defs><use y="134.765" x="223.432" xlink:href="#I" width="744.094" height="1052.362"/><use y="134.765" x="231.042" xlink:href="#J" width="744.094" height="1052.362"/><use y="134.765" x="233.81" xlink:href="#K" width="744.094" height="1052.362"/><use y="134.765" x="241.555" xlink:href="#L" width="744.094" height="1052.362"/><use y="134.765" x="247.643" xlink:href="#J" width="744.094" height="1052.362"/><use y="134.765" x="250.411" xlink:href="#M" width="744.094" height="1052.362"/><use y="134.765" x="256.222" xlink:href="#K" width="744.094" height="1052.362"/><use y="134.765" x="260.649" xlink:href="#N" width="744.094" height="1052.362"/><use y="134.765" x="267.879" xlink:href="#O" width="744.094" height="1052.362"/><use y="134.765" x="276.178" xlink:href="#P" width="744.094" height="1052.362"/><use y="134.765" x="281.713" xlink:href="#Q" width="744.094" height="1052.362"/><use y="134.765" x="286.695" xlink:href="#R" width="744.094" height="1052.362"/><g><use y="134.765" x="293.887" xlink:href="#S" width="744.094" height="1052.362"/><use y="134.765" x="299.422" xlink:href="#K" width="744.094" height="1052.362"/><use y="134.765" x="303.849" xlink:href="#T" width="744.094" height="1052.362"/></g><g><use y="134.765" x="312.712" xlink:href="#U" width="744.094" height="1052.362"/></g><g><use y="134.765" x="322.115" xlink:href="#K" width="744.094" height="1052.362"/><use y="134.765" x="326.542" xlink:href="#N" width="744.094" height="1052.362"/><use y="134.765" x="330.444" xlink:href="#R" width="744.094" height="1052.362"/></g><g><use y="134.765" x="340.406" xlink:href="#O" width="744.094" height="1052.362"/></g><g><use y="134.765" x="347.605" xlink:href="#V" width="744.094" height="1052.362"/></g><g><use y="134.765" x="369.19" xlink:href="#W" width="744.094" height="1052.362"/></g><g><use y="134.765" x="376.941" xlink:href="#X" width="744.094" height="1052.362"/></g><g><use y="134.765" x="404.057" xlink:href="#O" width="744.094" height="1052.362"/></g></g><g ns0:text="Die Ziffer $3$ hat den Wert\\; $ 3 \\cdot \\phantom{00}\\,10 = \\phantom{00}\\,30$" ns0:preamble="/home/waldgeist/data/sphinx/inkscape-preamble.tex" transform="matrix(3 0 0 3 -576.57 137.519)"><defs><symbol overflow="visible" id="Y"><path d="M.344-6.813v.313h.25c.765 0 .781.11.781.469v5.25c0 .36-.016.469-.781.469h-.25V0H4c1.672 0 3.047-1.469 3.047-3.344C7.047-5.25 5.703-6.813 4-6.813zm2.375 6.5c-.469 0-.485-.062-.485-.39v-5.39c0-.345.016-.407.485-.407h1c.625 0 1.312.219 1.812.922.438.594.516 1.453.516 2.234 0 1.094-.188 1.703-.547 2.188a2.192 2.192 0 0 1-1.766.843zm0 0"/></symbol><symbol overflow="visible" id="Z"><path d="M1.766-4.406l-1.391.11v.312c.64 0 .734.062.734.546V-.75c0 .438-.109.438-.78.438V0c.312-.016.859-.031 1.093-.031.36 0 .703.015 1.047.031v-.313c-.672 0-.703-.046-.703-.437zm.03-1.735a.514.514 0 0 0-.515-.53.537.537 0 0 0-.531.53c0 .266.219.532.531.532a.514.514 0 0 0 .516-.532zm0 0"/></symbol><symbol overflow="visible" id="aa"><path d="M1.11-2.516C1.171-4 2.015-4.25 2.36-4.25c1.015 0 1.124 1.344 1.124 1.734zm0 .22h2.78c.22 0 .25 0 .25-.22 0-.984-.546-1.953-1.78-1.953C1.202-4.469.28-3.437.28-2.187.281-.86 1.328.108 2.47.108 3.688.11 4.14-1 4.14-1.187c0-.094-.079-.125-.141-.125-.078 0-.11.062-.125.14C3.531-.14 2.625-.14 2.531-.14c-.5 0-.89-.296-1.125-.671-.297-.47-.297-1.125-.297-1.485zm0 0"/></symbol><symbol overflow="visible" id="ab"><path d="M5.453-6.453c.063-.11.063-.125.063-.203 0-.157-.047-.157-.25-.157H.796l-.109 2.25h.25C1-5.688 1.313-6.5 2.938-6.5H4.5L.625-.375c-.063.11-.063.125-.063.203C.563 0 .61 0 .813 0h4.594l.172-2.656h-.25C5.25-1.281 5.062-.344 3.218-.344h-1.64zm0 0"/></symbol><symbol overflow="visible" id="ac"><path d="M4.469-3.984h1.14v-.313H4.438v-1.156c0-.89.484-1.36.921-1.36.032 0 .188 0 .329.079a.443.443 0 0 0-.297.421c0 .22.156.422.437.422s.438-.203.438-.437c0-.36-.36-.703-.907-.703-.593 0-1.03.375-1.078.422-.297-.375-.86-.422-1.125-.422-.937 0-2.094.515-2.094 1.593v1.141H.266v.313h.796V-.75c0 .438-.109.438-.78.438V0c.327-.016.859-.031 1.109-.031S2.125-.016 2.5 0v-.313c-.672 0-.781 0-.781-.437v-3.234h2.093V-.75c0 .438-.109.438-.78.438V0c.39-.016.859-.031 1.14-.031.39 0 .86 0 1.266.031v-.313h-.22c-.734 0-.75-.109-.75-.468zm-2.782-.313v-1.125c0-.969.813-1.39 1.47-1.39.484 0 .765.187.765.187v.016a.413.413 0 0 0-.36.421c0 .063 0 .313.282.407-.031.125-.031.218-.031.343v1.141zm0 0"/></symbol><symbol overflow="visible" id="ad"><path d="M1.672-3.313v-1.093l-1.39.11v.312c.702 0 .78.062.78.562V-.75c0 .438-.109.438-.78.438V0c.39-.016.859-.031 1.14-.031.39 0 .86 0 1.266.031v-.313h-.22c-.734 0-.75-.109-.75-.468v-1.531c0-.985.423-1.876 1.173-1.876.062 0 .093 0 .109.016-.031 0-.234.125-.234.39 0 .266.218.423.437.423a.421.421 0 0 0 .422-.438c0-.312-.313-.61-.734-.61-.735 0-1.094.673-1.22 1.095zm0 0"/></symbol><symbol overflow="visible" id="ae"><path d="M2.89-3.516c.813-.265 1.391-.953 1.391-1.75 0-.812-.875-1.375-1.828-1.375-1 0-1.765.594-1.765 1.36 0 .328.218.515.515.515.297 0 .5-.218.5-.515 0-.485-.469-.485-.61-.485.298-.5.954-.625 1.313-.625.422 0 .969.22.969 1.11 0 .125-.031.703-.281 1.14-.297.485-.64.516-.89.516a3.29 3.29 0 0 1-.392.031c-.078.016-.14.031-.14.125 0 .11.062.11.234.11h.438c.812 0 1.187.671 1.187 1.656 0 1.36-.687 1.64-1.125 1.64-.437 0-1.187-.171-1.531-.75.344.047.656-.171.656-.546a.537.537 0 0 0-.547-.563c-.25 0-.562.14-.562.578C.422-.437 1.344.22 2.437.22c1.22 0 2.126-.906 2.126-1.922 0-.813-.641-1.594-1.672-1.813zm0 0"/></symbol><symbol overflow="visible" id="af"><path d="M1.094-.75c0 .438-.11.438-.782.438V0c.36-.016.86-.031 1.141-.031.25 0 .766.015 1.11.031v-.313c-.672 0-.782 0-.782-.437v-1.844c0-1.031.719-1.594 1.344-1.594.64 0 .75.532.75 1.11V-.75c0 .438-.11.438-.781.438V0c.344-.016.86-.031 1.125-.031.25 0 .781.015 1.11.031v-.313c-.516 0-.766 0-.766-.296v-1.907c0-.859 0-1.156-.313-1.515-.14-.172-.469-.375-1.047-.375-.844 0-1.281.593-1.453.984v-3.5l-1.438.11v.312c.704 0 .782.063.782.563zm0 0"/></symbol><symbol overflow="visible" id="ag"><path d="M3.313-.75c.046.39.312.813.78.813.22 0 .829-.141.829-.954v-.562h-.25v.562c0 .579-.25.641-.36.641-.328 0-.375-.453-.375-.5v-1.984c0-.422 0-.813-.359-1.188-.39-.39-.89-.547-1.36-.547-.827 0-1.515.469-1.515 1.125 0 .297.203.469.469.469a.435.435 0 0 0 .453-.453c0-.125-.047-.453-.516-.453.282-.36.766-.469 1.079-.469.5 0 1.062.39 1.062 1.281v.36c-.516.03-1.203.062-1.828.359-.75.344-1 .86-1 1.297 0 .812.969 1.062 1.594 1.062.656 0 1.109-.406 1.296-.859zM3.25-2.39v1c0 .937-.719 1.28-1.172 1.28-.484 0-.89-.343-.89-.843 0-.547.421-1.375 2.062-1.438zm0 0"/></symbol><symbol overflow="visible" id="ah"><path d="M1.719-3.984h1.437v-.313H1.72v-1.828h-.25c0 .813-.297 1.875-1.282 1.922v.219h.844v2.75c0 1.218.938 1.343 1.297 1.343.703 0 .985-.703.985-1.343v-.563h-.25v.547c0 .734-.297 1.11-.672 1.11-.672 0-.672-.907-.672-1.079zm0 0"/></symbol><symbol overflow="visible" id="ai"><path d="M3.781-.547V.11L5.25 0v-.313c-.688 0-.781-.062-.781-.562v-6.047l-1.422.11v.312c.687 0 .765.063.765.563v2.156a1.582 1.582 0 0 0-1.25-.625c-1.171 0-2.218.984-2.218 2.265 0 1.266.969 2.25 2.11 2.25.64 0 1.077-.343 1.327-.656zm0-2.672v2.047c0 .172 0 .188-.11.36-.296.484-.733.703-1.171.703-.453 0-.813-.266-1.047-.641-.25-.406-.281-.969-.281-1.39 0-.36.016-.954.297-1.407.218-.312.593-.64 1.14-.64.344 0 .766.156 1.063.593.11.172.11.188.11.375zm0 0"/></symbol><symbol overflow="visible" id="aj"><path d="M1.094-3.422V-.75c0 .438-.11.438-.782.438V0c.36-.016.86-.031 1.141-.031.25 0 .766.015 1.11.031v-.313c-.672 0-.782 0-.782-.437v-1.844c0-1.031.719-1.594 1.344-1.594.64 0 .75.532.75 1.11V-.75c0 .438-.11.438-.781.438V0c.344-.016.86-.031 1.125-.031.25 0 .781.015 1.11.031v-.313c-.516 0-.766 0-.766-.296v-1.907c0-.859 0-1.156-.313-1.515-.14-.172-.469-.375-1.047-.375-.734 0-1.203.422-1.484 1.047v-1.047l-1.407.11v.312c.704 0 .782.062.782.562zm0 0"/></symbol><symbol overflow="visible" id="ak"><path d="M9.063-5.828c.171-.578.609-.672 1-.672v-.313c-.297.032-.61.032-.907.032-.297 0-.937-.016-1.187-.032v.313c.672.016.86.344.86.531 0 .063-.032.14-.048.203l-1.5 4.594-1.593-4.875c0-.047-.032-.11-.032-.156 0-.297.578-.297.844-.297v-.313c-.36.032-1.031.032-1.422.032-.375 0-.797-.016-1.203-.032v.313c.563 0 .766 0 .89.36l.22.702-1.391 4.266L2-6.078c-.016-.016-.031-.094-.031-.125 0-.297.578-.297.843-.297v-.313c-.359.032-1.03.032-1.421.032-.375 0-.797-.016-1.22-.032v.313c.75 0 .798.047.923.422L3.078.032c.031.093.063.187.188.187.14 0 .156-.063.203-.203l1.64-5.063L6.766.031c.03.094.062.188.187.188.14 0 .172-.063.203-.203zm0 0"/></symbol><symbol overflow="visible" id="am"><path d="M2.938-6.375c0-.25 0-.266-.235-.266C2.078-6 1.203-6 .891-6v.313c.203 0 .78 0 1.296-.266v5.172c0 .36-.03.469-.921.469H.953V0c.344-.031 1.203-.031 1.61-.031.39 0 1.265 0 1.609.031v-.313h-.313c-.906 0-.921-.109-.921-.468zm0 0"/></symbol><symbol overflow="visible" id="an"><path d="M4.578-3.188c0-.796-.047-1.593-.39-2.328C3.733-6.484 2.905-6.64 2.5-6.64c-.61 0-1.328.266-1.75 1.188-.313.687-.36 1.469-.36 2.266 0 .75.032 1.64.454 2.406a1.83 1.83 0 0 0 1.64 1c.532 0 1.297-.203 1.735-1.157.312-.687.36-1.468.36-2.25zM2.484 0c-.39 0-.984-.25-1.156-1.203-.11-.594-.11-1.516-.11-2.11 0-.64 0-1.296.079-1.828.187-1.187.937-1.28 1.187-1.28.329 0 .985.187 1.172 1.171.11.563.11 1.313.11 1.938 0 .75 0 1.421-.11 2.062C3.5-.297 2.937 0 2.484 0zm0 0"/></symbol><symbol overflow="visible" id="ao"><path d="M6.844-3.266c.156 0 .343 0 .343-.187 0-.203-.187-.203-.328-.203H.891c-.141 0-.329 0-.329.203 0 .187.188.187.329.187zm.015 1.938c.141 0 .329 0 .329-.203 0-.188-.188-.188-.344-.188H.89c-.141 0-.329 0-.329.188 0 .203.188.203.329.203zm0 0"/></symbol><symbol overflow="visible" id="al"><path d="M1.906-2.5a.524.524 0 1 0-.516.531.524.524 0 0 0 .516-.531zm0 0"/></symbol></defs><use xlink:href="#Y" x="223.432" y="134.765" width="744.094" height="1052.362"/><use xlink:href="#Z" x="231.042" y="134.765" width="744.094" height="1052.362"/><use xlink:href="#aa" x="233.81" y="134.765" width="744.094" height="1052.362"/><use xlink:href="#ab" x="241.555" y="134.765" width="744.094" height="1052.362"/><use xlink:href="#Z" x="247.643" y="134.765" width="744.094" height="1052.362"/><use xlink:href="#ac" x="250.411" y="134.765" width="744.094" height="1052.362"/><use xlink:href="#aa" x="256.222" y="134.765" width="744.094" height="1052.362"/><use xlink:href="#ad" x="260.649" y="134.765" width="744.094" height="1052.362"/><use xlink:href="#ae" x="267.879" y="134.765" width="744.094" height="1052.362"/><use xlink:href="#af" x="276.178" y="134.765" width="744.094" height="1052.362"/><use xlink:href="#ag" x="281.713" y="134.765" width="744.094" height="1052.362"/><use xlink:href="#ah" x="286.695" y="134.765" width="744.094" height="1052.362"/><g><use xlink:href="#ai" x="293.887" y="134.765" width="744.094" height="1052.362"/><use xlink:href="#aa" x="299.422" y="134.765" width="744.094" height="1052.362"/><use xlink:href="#aj" x="303.849" y="134.765" width="744.094" height="1052.362"/></g><g><use xlink:href="#ak" x="312.712" y="134.765" width="744.094" height="1052.362"/></g><g><use xlink:href="#aa" x="322.115" y="134.765" width="744.094" height="1052.362"/><use xlink:href="#ad" x="326.542" y="134.765" width="744.094" height="1052.362"/><use xlink:href="#ah" x="330.444" y="134.765" width="744.094" height="1052.362"/></g><g><use xlink:href="#ae" x="340.406" y="134.765" width="744.094" height="1052.362"/></g><g><use xlink:href="#al" x="347.605" y="134.765" width="744.094" height="1052.362"/></g><g><use xlink:href="#am" x="364.209" y="134.765" width="744.094" height="1052.362"/><use xlink:href="#an" x="369.19" y="134.765" width="744.094" height="1052.362"/></g><g><use xlink:href="#ao" x="376.941" y="134.765" width="744.094" height="1052.362"/></g><g><use xlink:href="#ae" x="399.076" y="134.765" width="744.094" height="1052.362"/><use xlink:href="#an" x="404.057" y="134.765" width="744.094" height="1052.362"/></g></g><g transform="matrix(3 0 0 3 -431.377 44.088)" ns0:preamble="/home/waldgeist/data/sphinx/inkscape-preamble.tex" ns0:text="$\\text{Zahlenbeispiel:} \\; 4\\,538$"><defs><symbol id="ap" overflow="visible"><path d="M5.453-6.453c.063-.11.063-.125.063-.203 0-.157-.047-.157-.25-.157H.796l-.109 2.25h.25C1-5.688 1.313-6.5 2.938-6.5H4.5L.625-.375c-.063.11-.063.125-.063.203C.563 0 .61 0 .813 0h4.594l.172-2.656h-.25C5.25-1.281 5.062-.344 3.218-.344h-1.64zm0 0"/></symbol><symbol id="aq" overflow="visible"><path d="M3.313-.75c.046.39.312.813.78.813.22 0 .829-.141.829-.954v-.562h-.25v.562c0 .579-.25.641-.36.641-.328 0-.375-.453-.375-.5v-1.984c0-.422 0-.813-.359-1.188-.39-.39-.89-.547-1.36-.547-.827 0-1.515.469-1.515 1.125 0 .297.203.469.469.469a.435.435 0 0 0 .453-.453c0-.125-.047-.453-.516-.453.282-.36.766-.469 1.079-.469.5 0 1.062.39 1.062 1.281v.36c-.516.03-1.203.062-1.828.359-.75.344-1 .86-1 1.297 0 .812.969 1.062 1.594 1.062.656 0 1.109-.406 1.296-.859zM3.25-2.39v1c0 .937-.719 1.28-1.172 1.28-.484 0-.89-.343-.89-.843 0-.547.421-1.375 2.062-1.438zm0 0"/></symbol><symbol id="ar" overflow="visible"><path d="M1.094-.75c0 .438-.11.438-.782.438V0c.36-.016.86-.031 1.141-.031.25 0 .766.015 1.11.031v-.313c-.672 0-.782 0-.782-.437v-1.844c0-1.031.719-1.594 1.344-1.594.64 0 .75.532.75 1.11V-.75c0 .438-.11.438-.781.438V0c.344-.016.86-.031 1.125-.031.25 0 .781.015 1.11.031v-.313c-.516 0-.766 0-.766-.296v-1.907c0-.859 0-1.156-.313-1.515-.14-.172-.469-.375-1.047-.375-.844 0-1.281.593-1.453.984v-3.5l-1.438.11v.312c.704 0 .782.063.782.563zm0 0"/></symbol><symbol id="as" overflow="visible"><path d="M1.766-6.922l-1.438.11v.312c.703 0 .781.063.781.563V-.75c0 .438-.109.438-.78.438V0c.327-.016.859-.031 1.109-.031s.734.015 1.109.031v-.313c-.672 0-.781 0-.781-.437zm0 0"/></symbol><symbol id="at" overflow="visible"><path d="M1.11-2.516C1.171-4 2.015-4.25 2.36-4.25c1.015 0 1.124 1.344 1.124 1.734zm0 .22h2.78c.22 0 .25 0 .25-.22 0-.984-.546-1.953-1.78-1.953C1.202-4.469.28-3.437.28-2.187.281-.86 1.328.108 2.47.108 3.688.11 4.14-1 4.14-1.187c0-.094-.079-.125-.141-.125-.078 0-.11.062-.125.14C3.531-.14 2.625-.14 2.531-.14c-.5 0-.89-.296-1.125-.671-.297-.47-.297-1.125-.297-1.485zm0 0"/></symbol><symbol id="au" overflow="visible"><path d="M1.094-3.422V-.75c0 .438-.11.438-.782.438V0c.36-.016.86-.031 1.141-.031.25 0 .766.015 1.11.031v-.313c-.672 0-.782 0-.782-.437v-1.844c0-1.031.719-1.594 1.344-1.594.64 0 .75.532.75 1.11V-.75c0 .438-.11.438-.781.438V0c.344-.016.86-.031 1.125-.031.25 0 .781.015 1.11.031v-.313c-.516 0-.766 0-.766-.296v-1.907c0-.859 0-1.156-.313-1.515-.14-.172-.469-.375-1.047-.375-.734 0-1.203.422-1.484 1.047v-1.047l-1.407.11v.312c.704 0 .782.062.782.562zm0 0"/></symbol><symbol id="av" overflow="visible"><path d="M1.719-3.766v-3.156l-1.438.11v.312c.703 0 .781.063.781.563V0h.25c0-.016.079-.156.36-.625.14.234.562.734 1.297.734 1.187 0 2.219-.984 2.219-2.265 0-1.266-.97-2.25-2.11-2.25-.781 0-1.203.468-1.36.64zM1.75-1.14v-2.046c0-.188 0-.204.11-.36.39-.562.937-.64 1.171-.64.453 0 .813.265 1.047.64.266.406.281.969.281 1.39 0 .36-.015.954-.296 1.407-.22.313-.594.64-1.125.64-.454 0-.813-.234-1.047-.609-.141-.203-.141-.234-.141-.422zm0 0"/></symbol><symbol id="aw" overflow="visible"><path d="M1.766-4.406l-1.391.11v.312c.64 0 .734.062.734.546V-.75c0 .438-.109.438-.78.438V0c.312-.016.859-.031 1.093-.031.36 0 .703.015 1.047.031v-.313c-.672 0-.703-.046-.703-.437zm.03-1.735a.514.514 0 0 0-.515-.53.537.537 0 0 0-.531.53c0 .266.219.532.531.532a.514.514 0 0 0 .516-.532zm0 0"/></symbol><symbol id="ax" overflow="visible"><path d="M2.078-1.938c.219.047 1.031.204 1.031.922 0 .5-.343.907-1.125.907-.843 0-1.203-.563-1.39-1.422-.031-.125-.031-.157-.14-.157-.126 0-.126.063-.126.235v1.328c0 .172 0 .234.11.234C.483.11.5.094.688-.094.703-.109.703-.125.89-.312c.437.406.89.421 1.093.421 1.141 0 1.61-.671 1.61-1.39 0-.516-.297-.828-.422-.938-.328-.328-.719-.406-1.14-.484-.563-.11-1.22-.235-1.22-.813 0-.359.25-.765 1.11-.765 1.094 0 1.156.906 1.172 1.203 0 .094.094.094.11.094.14 0 .14-.047.14-.235v-1.015c0-.157 0-.235-.11-.235-.046 0-.078 0-.203.125-.031.032-.125.125-.172.157-.375-.282-.78-.282-.937-.282-1.219 0-1.594.672-1.594 1.235 0 .343.156.625.422.843.328.25.61.313 1.328.454zm0 0"/></symbol><symbol id="ay" overflow="visible"><path d="M1.719-3.75v-.656l-1.438.11v.312c.703 0 .781.062.781.5v4.656c0 .453-.109.453-.78.453v.313c.343-.016.859-.032 1.109-.032.28 0 .78.016 1.125.032v-.313c-.657 0-.766 0-.766-.453V-.594c.047.172.469.703 1.219.703 1.187 0 2.219-.984 2.219-2.265 0-1.266-.954-2.25-2.079-2.25-.78 0-1.203.437-1.39.656zm.031 2.61v-2.22c.281-.515.766-.796 1.281-.796.735 0 1.328.875 1.328 2C4.36-.953 3.672-.11 2.938-.11c-.407 0-.782-.204-1.047-.61-.141-.203-.141-.219-.141-.422zm0 0"/></symbol><symbol id="az" overflow="visible"><path d="M1.906-3.766a.524.524 0 1 0-1.047 0c0 .282.235.532.532.532.28 0 .515-.25.515-.532zm0 3.235a.534.534 0 0 0-.515-.531.537.537 0 0 0-.532.53.524.524 0 1 0 1.047 0zm0 0"/></symbol><symbol id="aA" overflow="visible"><path d="M2.938-1.64v.859c0 .36-.032.469-.766.469h-.203V0c.406-.031.922-.031 1.343-.031.422 0 .938 0 1.36.031v-.313h-.219c-.734 0-.75-.109-.75-.468v-.86h.985v-.312h-.985v-4.531c0-.204 0-.266-.172-.266-.078 0-.11 0-.187.125L.28-1.953v.312zm.046-.313H.563l2.421-3.719zm0 0"/></symbol><symbol id="aB" overflow="visible"><path d="M4.469-2c0-1.188-.813-2.188-1.89-2.188-.47 0-.907.157-1.267.516v-1.953c.204.063.532.125.844.125 1.235 0 1.938-.906 1.938-1.031 0-.063-.032-.11-.11-.11 0 0-.03 0-.078.032a3.22 3.22 0 0 1-1.36.296c-.39 0-.858-.078-1.327-.28-.078-.032-.094-.032-.11-.032C1-6.625 1-6.547 1-6.391v2.954c0 .171 0 .25.14.25.079 0 .094-.016.141-.079.11-.156.469-.703 1.282-.703.515 0 .765.453.843.64.156.376.188.75.188 1.25 0 .36 0 .954-.25 1.376-.235.39-.61.64-1.063.64-.719 0-1.297-.53-1.469-1.109.032 0 .063.016.172.016.329 0 .5-.25.5-.485 0-.25-.171-.5-.5-.5-.14 0-.484.079-.484.532C.5-.75 1.188.219 2.297.219 3.453.219 4.469-.734 4.469-2zm0 0"/></symbol><symbol id="aC" overflow="visible"><path d="M2.89-3.516c.813-.265 1.391-.953 1.391-1.75 0-.812-.875-1.375-1.828-1.375-1 0-1.765.594-1.765 1.36 0 .328.218.515.515.515.297 0 .5-.218.5-.515 0-.485-.469-.485-.61-.485.298-.5.954-.625 1.313-.625.422 0 .969.22.969 1.11 0 .125-.031.703-.281 1.14-.297.485-.64.516-.89.516a3.29 3.29 0 0 1-.392.031c-.078.016-.14.031-.14.125 0 .11.062.11.234.11h.438c.812 0 1.187.671 1.187 1.656 0 1.36-.687 1.64-1.125 1.64-.437 0-1.187-.171-1.531-.75.344.047.656-.171.656-.546a.537.537 0 0 0-.547-.563c-.25 0-.562.14-.562.578C.422-.437 1.344.22 2.437.22c1.22 0 2.126-.906 2.126-1.922 0-.813-.641-1.594-1.672-1.813zm0 0"/></symbol><symbol id="aD" overflow="visible"><path d="M1.625-4.563c-.453-.296-.5-.625-.5-.796 0-.61.656-1.032 1.36-1.032.718 0 1.359.516 1.359 1.235 0 .578-.39 1.047-.985 1.39zm1.453.954c.719-.375 1.203-.891 1.203-1.547 0-.922-.875-1.485-1.781-1.485-1 0-1.813.735-1.813 1.672 0 .172.016.625.438 1.094.11.11.484.36.734.531C1.281-3.047.422-2.5.422-1.5.422-.453 1.438.219 2.484.219c1.125 0 2.079-.828 2.079-1.89 0-.36-.11-.813-.5-1.235-.188-.203-.344-.297-.985-.703zm-1 .421l1.235.782c.28.187.75.484.75 1.094 0 .734-.75 1.25-1.563 1.25C1.64-.063.922-.672.922-1.5c0-.578.312-1.219 1.156-1.688zm0 0"/></symbol></defs><use y="134.765" x="223.432" xlink:href="#ap" width="744.094" height="1052.362"/><use y="134.765" x="229.52" xlink:href="#aq" width="744.094" height="1052.362"/><use y="134.765" x="234.501" xlink:href="#ar" width="744.094" height="1052.362"/><use y="134.765" x="240.037" xlink:href="#as" width="744.094" height="1052.362"/><use y="134.765" x="242.804" xlink:href="#at" width="744.094" height="1052.362"/><use y="134.765" x="247.232" xlink:href="#au" width="744.094" height="1052.362"/><g><use y="134.765" x="252.488" xlink:href="#av" width="744.094" height="1052.362"/></g><g><use y="134.765" x="258.302" xlink:href="#at" width="744.094" height="1052.362"/><use y="134.765" x="262.729" xlink:href="#aw" width="744.094" height="1052.362"/><use y="134.765" x="265.497" xlink:href="#ax" width="744.094" height="1052.362"/><use y="134.765" x="269.426" xlink:href="#ay" width="744.094" height="1052.362"/><use y="134.765" x="274.962" xlink:href="#aw" width="744.094" height="1052.362"/><use y="134.765" x="277.729" xlink:href="#at" width="744.094" height="1052.362"/><use y="134.765" x="282.157" xlink:href="#as" width="744.094" height="1052.362"/><use y="134.765" x="284.924" xlink:href="#az" width="744.094" height="1052.362"/></g><g><use y="134.765" x="290.461" xlink:href="#aA" width="744.094" height="1052.362"/></g><g><use y="134.765" x="297.096" xlink:href="#aB" width="744.094" height="1052.362"/><use y="134.765" x="302.078" xlink:href="#aC" width="744.094" height="1052.362"/><use y="134.765" x="307.059" xlink:href="#aD" width="744.094" height="1052.362"/></g></g></svg>