<svg xmlns:ns0="http://www.iki.fi/pav/software/textext/" xmlns="http://www.w3.org/2000/svg" xmlns:xlink="http://www.w3.org/1999/xlink" height="744.094" width="1052.362"><title>Darstellung einer Funktion als Diagramm</title><defs><marker orient="auto" id="z" overflow="visible"><path d="M2.308 0l-3.46 2v-4l3.46 2z" fill-rule="evenodd" stroke="#000" stroke-width=".4pt"/></marker></defs><g transform="translate(-575.239 -180.152) scale(4.62289)" fill="green"><use y="134.765" x="231.736" xlink:href="#textext-082fa4b4-3" width="744.094" height="1052.362"/><use y="134.765" x="231.736" xlink:href="#textext-082fa4b4-3" width="744.094" height="1052.362"/><g ns0:preamble="/home/waldgeist/data/sphinx/test.tex" ns0:text="$\\Delta \\vec{r} = \\vec{r}_{\\rm{2}} - \\vec{r}_{\\rm{1}} $"><use y="134.765" x="223.432" xlink:href="#textext-082fa4b4-0" width="744.094" height="1052.362"/><use y="134.765" x="231.417" xlink:href="#textext-082fa4b4-2" width="744.094" height="1052.362"/><use y="134.765" x="231.736" xlink:href="#textext-082fa4b4-3" width="744.094" height="1052.362"/><use y="134.765" x="239.273" xlink:href="#textext-082fa4b4-1" width="744.094" height="1052.362"/><use y="134.765" x="249.472" xlink:href="#textext-082fa4b4-2" width="744.094" height="1052.362"/><use y="134.765" x="249.791" xlink:href="#textext-082fa4b4-3" width="744.094" height="1052.362"/><use y="136.259" x="254.284" xlink:href="#textext-082fa4b4-4" width="744.094" height="1052.362"/><use y="134.765" x="260.967" xlink:href="#textext-082fa4b4-6" width="744.094" height="1052.362"/><use y="134.765" x="270.612" xlink:href="#textext-082fa4b4-2" width="744.094" height="1052.362"/><use y="134.765" x="270.931" xlink:href="#textext-082fa4b4-3" width="744.094" height="1052.362"/><use y="136.259" x="275.425" xlink:href="#textext-082fa4b4-5" width="744.094" height="1052.362"/></g><g ns0:preamble="/home/waldgeist/data/sphinx/test.tex" ns0:text="$\\Delta \\vec{r} = \\vec{r}_{\\rm{2}} - \\vec{r}_{\\rm{1}} $"><use y="134.765" x="223.432" xlink:href="#textext-082fa4b4-0" width="744.094" height="1052.362"/><use y="134.765" x="231.417" xlink:href="#textext-082fa4b4-2" width="744.094" height="1052.362"/><use y="134.765" x="231.736" xlink:href="#textext-082fa4b4-3" width="744.094" height="1052.362"/><use y="134.765" x="239.273" xlink:href="#textext-082fa4b4-1" width="744.094" height="1052.362"/><use y="134.765" x="249.472" xlink:href="#textext-082fa4b4-2" width="744.094" height="1052.362"/><use y="134.765" x="249.791" xlink:href="#textext-082fa4b4-3" width="744.094" height="1052.362"/><use y="136.259" x="254.284" xlink:href="#textext-082fa4b4-4" width="744.094" height="1052.362"/><use y="134.765" x="260.967" xlink:href="#textext-082fa4b4-6" width="744.094" height="1052.362"/><use y="134.765" x="270.612" xlink:href="#textext-082fa4b4-2" width="744.094" height="1052.362"/><use y="134.765" x="270.931" xlink:href="#textext-082fa4b4-3" width="744.094" height="1052.362"/><use y="136.259" x="275.425" xlink:href="#textext-082fa4b4-5" width="744.094" height="1052.362"/></g><g ns0:preamble="/home/waldgeist/data/sphinx/test.tex" ns0:text="$\\Delta \\vec{r} = \\vec{r}_{\\rm{2}} - \\vec{r}_{\\rm{1}} $"><use y="134.765" x="223.432" xlink:href="#textext-082fa4b4-0" width="744.094" height="1052.362"/><use y="134.765" x="231.417" xlink:href="#textext-082fa4b4-2" width="744.094" height="1052.362"/><use y="134.765" x="231.736" xlink:href="#textext-082fa4b4-3" width="744.094" height="1052.362"/><use y="134.765" x="239.273" xlink:href="#textext-082fa4b4-1" width="744.094" height="1052.362"/><use y="134.765" x="249.472" xlink:href="#textext-082fa4b4-2" width="744.094" height="1052.362"/><use y="134.765" x="249.791" xlink:href="#textext-082fa4b4-3" width="744.094" height="1052.362"/><use y="136.259" x="254.284" xlink:href="#textext-082fa4b4-4" width="744.094" height="1052.362"/><use y="134.765" x="260.967" xlink:href="#textext-082fa4b4-6" width="744.094" height="1052.362"/><use y="134.765" x="270.612" xlink:href="#textext-082fa4b4-2" width="744.094" height="1052.362"/><use y="134.765" x="270.931" xlink:href="#textext-082fa4b4-3" width="744.094" height="1052.362"/><use y="136.259" x="275.425" xlink:href="#textext-082fa4b4-5" width="744.094" height="1052.362"/></g></g><path fill="#fff" stroke="#fff" stroke-width="2.893" stroke-linecap="round" d="M13.067 10.72h1026.228v722.654H13.067z"/><g fill="none" stroke="#ccc"><path d="M886.67 668.969V71.152M767.107 609.187h179.477m-179.477-59.781h179.477m-179.477-59.782h179.345m-179.345-59.782h179.477M767.107 370.06h179.345m-179.345-59.781h179.477m-179.477-59.782h179.477m-179.477-59.782h179.477m-179.477-59.782h179.477M826.889 668.969V71.152" stroke-width="1.5"/><path d="M767.107 662.99h179.477m-179.477-5.977h179.477m-179.477-5.979h179.477m-179.477-5.978h179.477m-179.477-5.978h179.477M767.107 633.1h179.477m-179.477-5.978h179.477m-179.477-5.978h179.477m-179.477-5.979h179.477M767.107 603.21h179.477m-179.477-5.98h179.477m-179.477-5.977h179.477m-179.477-5.978h179.477m-179.477-5.979h179.477m-179.477-5.978h179.477m-179.477-5.978h179.477m-179.477-5.978h179.477m-179.477-5.978h179.477m-179.477-11.957h179.345m-179.345-5.977h179.345m-179.345-5.979h179.345m-179.345-5.978h179.345m-179.345-5.978h179.345m-179.345-5.978h179.345m-179.345-5.979h179.345m-179.345-5.978h179.345m-179.345-5.978h179.345m-179.345-11.956h179.477m-179.477-5.979h179.477m-179.477-5.977h179.477m-179.477-5.979h179.477m-179.477-5.978h179.477m-179.477-5.978h179.477m-179.477-5.978h179.477m-179.477-5.979h179.477m-179.477-5.978h179.477m-179.477-11.956h179.477m-179.477-5.978h179.477m-179.477-5.978h179.477m-179.477-5.978h179.477m-179.477-5.979h179.477m-179.477-5.978h179.477m-179.477-5.978h179.477m-179.477-5.978h179.477m-179.477-5.978h179.477m-179.477-11.957h179.477m-179.477-5.978h179.477m-179.477-5.978h179.477m-179.477-5.978h179.477m-179.477-5.978h179.477m-179.477-5.979h179.477m-179.477-5.978h179.477m-179.477-5.978h179.477m-179.477-5.978h179.477M767.107 304.3h179.477m-179.477-5.978h179.477m-179.477-5.978h179.477m-179.477-5.978h179.477m-179.477-5.978h179.477m-179.477-5.978h179.477m-179.477-5.979h179.477m-179.477-5.978h179.477m-179.477-5.978h179.477m-179.477-11.956h179.477m-179.477-5.979h179.477m-179.477-5.978h179.477m-179.477-5.978h179.477m-179.477-5.978h179.477m-179.477-5.978h179.477m-179.477-5.978h179.477m-179.477-5.978h179.477m-179.477-5.979h179.477m-179.477-11.956h179.477m-179.477-5.978h179.477m-179.477-5.979h179.477m-179.477-5.977h179.477m-179.477-5.979h179.477m-179.477-5.978h179.477m-179.477-5.978h179.477m-179.477-5.978h179.477m-179.477-5.978h179.477m-179.477-11.957h179.477m-179.477-5.978h179.477m-179.477-5.978h179.477m-179.477-5.979h179.477m-179.477-5.977h179.477m-179.477-5.979h179.477m-179.477-5.978h179.477m-179.477-5.978h179.477M767.107 77.13h179.477M773.085 668.969V71.152m5.978 597.817V71.152m5.978 597.817V71.152m5.979 597.817V71.152m5.978 597.817V71.152m5.978 597.817V71.152m5.978 597.817V71.152m5.978 597.817V71.152m5.978 597.817V71.152m11.957 597.817V71.152m5.978 597.817V71.152m5.978 597.817V71.152m5.978 597.817V71.152m5.979 597.817V71.152m5.978 597.817V71.152m5.978 597.817V71.152m5.978 597.817V71.152m5.978 597.817V71.152m11.956 597.817V71.152m5.979 597.817V71.152m5.978 597.817V71.152m5.978 597.817V71.152m5.978 597.817V71.152m5.979 597.817V71.152m5.978 597.817V71.152m5.978 597.817V71.152m5.978 597.817V71.152" stroke-width=".5"/><path d="M946.452 668.969V71.152" stroke-width="1.5" stroke-linecap="round" stroke-linejoin="round"/><path d="M767.107 71.152h179.477" stroke-width="1.5"/><g stroke-width="1.019"><path d="M229.071 71.152v597.817m59.782-597.817v597.817m59.782-597.817v597.817m59.781-597.817v597.817m59.782-597.817v597.817M527.98 71.152v597.817m59.782-597.817v597.817m59.781-597.817v597.817m59.782-597.817v597.817M169.29 130.933h597.817M169.29 190.715h597.817M169.29 250.497h597.817M169.29 310.279h597.817M169.29 370.06h597.817M169.29 429.842h597.817M169.29 489.624h597.817M169.29 549.406h597.817M169.29 609.187h597.817" stroke-width="1.5"/><path d="M175.268 71.152v597.817m5.978-597.817v597.817m5.978-597.817v597.817m5.978-597.817v597.817m5.978-597.817v597.817m5.979-597.817v597.817m5.978-597.817v597.817m5.978-597.817v597.817m5.978-597.817v597.817M235.05 71.152v597.817m5.978-597.817v597.817m5.978-597.817v597.817m5.978-597.817v597.817m5.978-597.817v597.817m5.978-597.817v597.817m5.979-597.817v597.817m5.978-597.817v597.817m5.978-597.817v597.817m11.956-597.817v597.817m5.979-597.817v597.817m5.978-597.817v597.817m5.978-597.817v597.817m5.978-597.817v597.817m5.978-597.817v597.817M330.7 71.152v597.817m5.978-597.817v597.817m5.979-597.817v597.817m11.956-597.817v597.817m5.978-597.817v597.817m5.979-597.817v597.817m5.977-597.817v597.817m5.979-597.817v597.817m5.978-597.817v597.817m5.978-597.817v597.817m5.978-597.817v597.817m5.978-597.817v597.817m11.957-597.817v597.817m5.978-597.817v597.817m5.978-597.817v597.817m5.979-597.817v597.817m5.977-597.817v597.817m5.979-597.817v597.817m5.978-597.817v597.817m5.978-597.817v597.817m5.978-597.817v597.817m11.956-597.817v597.817m5.979-597.817v597.817m5.978-597.817v597.817m5.977-597.817v597.817m5.98-597.817v597.817m5.977-597.817v597.817m5.978-597.817v597.817m5.979-597.817v597.817m5.978-597.817v597.817m11.956-597.817v597.817m5.978-597.817v597.817m5.978-597.817v597.817m5.979-597.817v597.817m5.977-597.817v597.817m5.979-597.817v597.817m5.978-597.817v597.817m5.978-597.817v597.817m5.979-597.817v597.817M593.74 71.152v597.817m5.978-597.817v597.817m5.978-597.817v597.817m5.978-597.817v597.817m5.979-597.817v597.817m5.977-597.817v597.817m5.979-597.817v597.817m5.978-597.817v597.817m5.978-597.817v597.817m11.957-597.817v597.817M659.5 71.152v597.817m5.978-597.817v597.817m5.978-597.817v597.817m5.978-597.817v597.817m5.978-597.817v597.817m5.978-597.817v597.817m5.979-597.817v597.817m5.978-597.817v597.817m11.956-597.817v597.817m5.978-597.817v597.817m5.979-597.817v597.817m5.978-597.817v597.817m5.978-597.817v597.817m5.978-597.817v597.817m5.978-597.817v597.817m5.978-597.817v597.817m5.979-597.817v597.817M169.29 77.13h597.817M169.29 83.108h597.817M169.29 89.086h597.817M169.29 95.064h597.817m-597.817 5.979h597.817M169.29 107.02h597.817m-597.817 5.979h597.817m-597.817 5.978h597.817m-597.817 5.978h597.817M169.29 136.912h597.817M169.29 142.89h597.817m-597.817 5.978h597.817m-597.817 5.978h597.817m-597.817 5.978h597.817m-597.817 5.979h597.817M169.29 172.78h597.817m-597.817 5.979h597.817m-597.817 5.978h597.817M169.29 196.693h597.817m-597.817 5.979h597.817M169.29 208.65h597.817m-597.817 5.978h597.817m-597.817 5.978h597.817m-597.817 5.978h597.817m-597.817 5.978h597.817M169.29 238.54h597.817m-597.817 5.979h597.817M169.29 256.475h597.817m-597.817 5.978h597.817m-597.817 5.978h597.817M169.29 274.41h597.817m-597.817 5.978h597.817m-597.817 5.978h597.817m-597.817 5.978h597.817m-597.817 5.978h597.817M169.29 304.3h597.817M169.29 316.257h597.817m-597.817 5.978h597.817m-597.817 5.978h597.817m-597.817 5.978h597.817M169.29 340.17h597.817m-597.817 5.978h597.817m-597.817 5.978h597.817m-597.817 5.978h597.817m-597.817 5.978h597.817M169.29 376.039h597.817m-597.817 5.978h597.817m-597.817 5.978h597.817m-597.817 5.978h597.817m-597.817 5.978h597.817M169.29 405.93h597.817m-597.817 5.978h597.817m-597.817 5.978h597.817m-597.817 5.978h597.817M169.29 435.82h597.817m-597.817 5.978h597.817m-597.817 5.979h597.817m-597.817 5.978h597.817m-597.817 5.978h597.817m-597.817 5.978h597.817M169.29 471.69h597.817m-597.817 5.977h597.817m-597.817 5.979h597.817M169.29 495.602h597.817M169.29 501.58h597.817m-597.817 5.978h597.817m-597.817 5.979h597.817m-597.817 5.978h597.817m-597.817 5.978h597.817m-597.817 5.978h597.817M169.29 537.45h597.817m-597.817 5.977h597.817M169.29 555.384h597.817m-597.817 5.978h597.817M169.29 567.34h597.817m-597.817 5.978h597.817m-597.817 5.978h597.817m-597.817 5.979h597.817m-597.817 5.978h597.817M169.29 597.23h597.817m-597.817 5.98h597.817M169.29 615.165h597.817m-597.817 5.979h597.817m-597.817 5.978h597.817M169.29 633.1h597.817m-597.817 5.978h597.817m-597.817 5.978h597.817m-597.817 5.978h597.817m-597.817 5.979h597.817M169.29 662.99h597.817" stroke-width=".5"/><path stroke-width="1.5" d="M169.29 71.152h597.817v597.817H169.29z"/></g></g><g transform="translate(185.767 372.964) scale(2.5424)" ns0:preamble="/home/waldgeist/data/sphinx/inkscape-preamble.tex" ns0:text="$10$" fill="#4d4d4d" stroke="green" stroke-width="1.18"><defs><symbol id="a" overflow="visible"><path d="M2.938-6.375c0-.25 0-.266-.235-.266C2.078-6 1.203-6 .891-6v.313c.203 0 .78 0 1.296-.266v5.172c0 .36-.03.469-.921.469H.953V0c.344-.031 1.203-.031 1.61-.031.39 0 1.265 0 1.609.031v-.313h-.313c-.906 0-.921-.109-.921-.468z" stroke="none"/></symbol><symbol id="b" overflow="visible"><path d="M4.578-3.188c0-.796-.047-1.593-.39-2.328C3.733-6.484 2.905-6.64 2.5-6.64c-.61 0-1.328.266-1.75 1.188-.313.687-.36 1.469-.36 2.266 0 .75.032 1.64.454 2.406a1.83 1.83 0 0 0 1.64 1c.532 0 1.297-.203 1.735-1.157.312-.687.36-1.468.36-2.25zM2.484 0c-.39 0-.984-.25-1.156-1.203-.11-.594-.11-1.516-.11-2.11 0-.64 0-1.296.079-1.828.187-1.187.937-1.28 1.187-1.28.329 0 .985.187 1.172 1.171.11.563.11 1.313.11 1.938 0 .75 0 1.421-.11 2.062C3.5-.297 2.937 0 2.484 0z" stroke="none"/></symbol></defs><use y="134.765" x="223.432" xlink:href="#a" width="1052.362" height="744.094"/><use y="134.765" x="228.413" xlink:href="#b" width="1052.362" height="744.094"/></g><path d="M180.89 250.553h-24.319m24.319-59.781h-24.319m24.319-59.782h-24.319m24.319-59.782h-24.319m24.319 358.69h-24.319m24.319 59.782h-24.319m24.319 59.782h-24.319m24.319 59.782h-24.319m24.319 59.781h-24.319" stroke-width="1.559" fill="none" stroke="#000"/><path d="M178.61 310.335h-23.912" fill="none" stroke="#000" stroke-width="2"/><g ns0:text="$1$" ns0:preamble="/home/waldgeist/data/sphinx/test.tex" transform="translate(-345.287 373.242) scale(2.5424)" fill="#4d4d4d" stroke="green" stroke-width="1.18"><defs><symbol overflow="visible" id="c"><path d="M2.938-6.375c0-.25 0-.266-.235-.266C2.078-6 1.203-6 .891-6v.313c.203 0 .78 0 1.296-.266v5.172c0 .36-.03.469-.921.469H.953V0c.344-.031 1.203-.031 1.61-.031.39 0 1.265 0 1.609.031v-.313h-.313c-.906 0-.921-.109-.921-.468zm0 0" stroke="none"/></symbol></defs><use xlink:href="#c" x="223.432" y="134.765" width="744.094" height="1052.362"/></g><g ns0:text="$2$" ns0:preamble="/home/waldgeist/data/sphinx/test.tex" transform="translate(-285.339 373.242) scale(2.5424)" fill="#4d4d4d" stroke="green" stroke-width="1.18"><defs><symbol overflow="visible" id="d"><path d="M1.266-.766l1.062-1.03c1.547-1.376 2.14-1.907 2.14-2.907 0-1.14-.89-1.938-2.109-1.938A1.843 1.843 0 0 0 .5-4.828c0 .547.5.547.531.547.172 0 .516-.11.516-.532a.513.513 0 0 0-.531-.515c-.079 0-.094 0-.125.016.218-.657.765-1.016 1.343-1.016.907 0 1.329.812 1.329 1.625 0 .797-.485 1.578-1.047 2.203L.609-.375C.5-.265.5-.235.5 0h3.703l.266-1.734h-.235C4.172-1.438 4.11-1 4-.844c-.063.078-.719.078-.938.078zm0 0" stroke="none"/></symbol></defs><use height="1052.362" width="744.094" transform="translate(-.019)" xlink:href="#d" x="223.432" y="134.765"/></g><g transform="translate(-225.625 372.964) scale(2.5424)" ns0:preamble="/home/waldgeist/data/sphinx/test.tex" ns0:text="$3$" fill="#4d4d4d" stroke="green" stroke-width="1.18"><defs><symbol id="e" overflow="visible"><path d="M2.89-3.516c.813-.265 1.391-.953 1.391-1.75 0-.812-.875-1.375-1.828-1.375-1 0-1.765.594-1.765 1.36 0 .328.218.515.515.515.297 0 .5-.218.5-.515 0-.485-.469-.485-.61-.485.298-.5.954-.625 1.313-.625.422 0 .969.22.969 1.11 0 .125-.031.703-.281 1.14-.297.485-.64.516-.89.516a3.29 3.29 0 0 1-.392.031c-.078.016-.14.031-.14.125 0 .11.062.11.234.11h.438c.812 0 1.187.671 1.187 1.656 0 1.36-.687 1.64-1.125 1.64-.437 0-1.187-.171-1.531-.75.344.047.656-.171.656-.546a.537.537 0 0 0-.547-.563c-.25 0-.562.14-.562.578C.422-.437 1.344.22 2.437.22c1.22 0 2.126-.906 2.126-1.922 0-.813-.641-1.594-1.672-1.813zm0 0" stroke="none"/></symbol></defs><use y="134.765" x="223.432" xlink:href="#e" width="744.094" height="1052.362"/></g><g ns0:text="$4$" ns0:preamble="/home/waldgeist/data/sphinx/test.tex" transform="translate(-165.823 373.381) scale(2.5424)" fill="#4d4d4d" stroke="green" stroke-width="1.18"><defs><symbol overflow="visible" id="f"><path d="M2.938-1.64v.859c0 .36-.032.469-.766.469h-.203V0c.406-.031.922-.031 1.343-.031.422 0 .938 0 1.36.031v-.313h-.219c-.734 0-.75-.109-.75-.468v-.86h.985v-.312h-.985v-4.531c0-.204 0-.266-.172-.266-.078 0-.11 0-.187.125L.28-1.953v.312zm.046-.313H.563l2.421-3.719zm0 0" stroke="none"/></symbol></defs><use height="1052.362" width="744.094" xlink:href="#f" x="223.432" y="134.765"/></g><g transform="translate(-106.174 372.964) scale(2.5424)" ns0:preamble="/home/waldgeist/data/sphinx/test.tex" ns0:text="$5$" fill="#4d4d4d" stroke="green" stroke-width="1.18"><defs><symbol id="g" overflow="visible"><path d="M4.469-2c0-1.188-.813-2.188-1.89-2.188-.47 0-.907.157-1.267.516v-1.953c.204.063.532.125.844.125 1.235 0 1.938-.906 1.938-1.031 0-.063-.032-.11-.11-.11 0 0-.03 0-.078.032a3.22 3.22 0 0 1-1.36.296 3.4 3.4 0 0 1-1.327-.28c-.078-.032-.094-.032-.11-.032C1-6.625 1-6.547 1-6.391v2.954c0 .171 0 .25.14.25.079 0 .094-.016.141-.079.11-.156.469-.703 1.282-.703.515 0 .765.453.843.64.156.376.188.75.188 1.25 0 .36 0 .954-.25 1.376-.235.39-.61.64-1.063.64-.719 0-1.297-.53-1.469-1.109.032 0 .063.016.172.016.329 0 .5-.25.5-.485 0-.25-.171-.5-.5-.5-.14 0-.484.079-.484.532C.5-.75 1.188.219 2.297.219 3.453.219 4.469-.734 4.469-2zm0 0" stroke="none"/></symbol></defs><use y="134.765" x="223.432" xlink:href="#g" width="744.094" height="1052.362"/></g><use xlink:href="#h" transform="matrix(0 -.80535 .97921 0 -202.21 798.393)" width="744.094" height="1052.362"/><g ns0:text="$10$" transform="translate(-441.408 35.596) scale(2.5424)" fill="#4d4d4d" stroke="#4d4d4d" stroke-width="1.18"><defs><symbol overflow="visible" id="i"><path d="M2.938-6.375c0-.25 0-.266-.235-.266C2.078-6 1.203-6 .891-6v.313c.203 0 .78 0 1.296-.266v5.172c0 .36-.03.469-.921.469H.953V0c.344-.031 1.203-.031 1.61-.031.39 0 1.265 0 1.609.031v-.313h-.313c-.906 0-.921-.109-.921-.468z" stroke="none"/></symbol><symbol overflow="visible" id="j"><path d="M4.578-3.188c0-.796-.047-1.593-.39-2.328C3.733-6.484 2.905-6.64 2.5-6.64c-.61 0-1.328.266-1.75 1.188-.313.687-.36 1.469-.36 2.266 0 .75.032 1.64.454 2.406a1.83 1.83 0 0 0 1.64 1c.532 0 1.297-.203 1.735-1.157.312-.687.36-1.468.36-2.25zM2.484 0c-.39 0-.984-.25-1.156-1.203-.11-.594-.11-1.516-.11-2.11 0-.64 0-1.296.079-1.828.187-1.187.937-1.28 1.187-1.28.329 0 .985.187 1.172 1.171.11.563.11 1.313.11 1.938 0 .75 0 1.421-.11 2.062C3.5-.297 2.937 0 2.484 0z" stroke="none"/></symbol></defs><use height="1052.362" width="744.094" xlink:href="#i" x="223.432" y="134.765"/><use height="1052.362" width="744.094" xlink:href="#j" x="228.413" y="134.765"/></g><g ns0:text="$20$" transform="translate(-441.408 -263.256) scale(2.5424)" fill="#4d4d4d" stroke="#4d4d4d" stroke-width="1.18"><defs><symbol overflow="visible" id="k"><path d="M1.266-.766l1.062-1.03c1.547-1.376 2.14-1.907 2.14-2.907 0-1.14-.89-1.938-2.109-1.938A1.843 1.843 0 0 0 .5-4.828c0 .547.5.547.531.547.172 0 .516-.11.516-.532a.513.513 0 0 0-.531-.515c-.079 0-.094 0-.125.016.218-.657.765-1.016 1.343-1.016.907 0 1.329.812 1.329 1.625 0 .797-.485 1.578-1.047 2.203L.609-.375C.5-.265.5-.235.5 0h3.703l.266-1.734h-.235C4.172-1.438 4.11-1 4-.844c-.063.078-.719.078-.938.078z" stroke="none"/></symbol><symbol overflow="visible" id="l"><path d="M4.578-3.188c0-.796-.047-1.593-.39-2.328C3.733-6.484 2.905-6.64 2.5-6.64c-.61 0-1.328.266-1.75 1.188-.313.687-.36 1.469-.36 2.266 0 .75.032 1.64.454 2.406a1.83 1.83 0 0 0 1.64 1c.532 0 1.297-.203 1.735-1.157.312-.687.36-1.468.36-2.25zM2.484 0c-.39 0-.984-.25-1.156-1.203-.11-.594-.11-1.516-.11-2.11 0-.64 0-1.296.079-1.828.187-1.187.937-1.28 1.187-1.28.329 0 .985.187 1.172 1.171.11.563.11 1.313.11 1.938 0 .75 0 1.421-.11 2.062C3.5-.297 2.937 0 2.484 0z" stroke="none"/></symbol></defs><use xlink:href="#k" x="223.432" y="134.765" width="744.094" height="1052.362"/><use xlink:href="#l" x="228.413" y="134.765" width="744.094" height="1052.362"/></g><g ns0:text="Monat" ns0:preamble="/home/waldgeist/data/sphinx/inkscape-preamble.tex" transform="matrix(3 0 0 3 282.8 317.29)"><defs><symbol overflow="visible" id="m"><path d="M2.406-6.594c-.094-.218-.125-.218-.36-.218H.376v.312H.61c.766 0 .782.11.782.469v4.984c0 .266 0 .734-1.016.734V0c.344-.016.828-.031 1.156-.031.328 0 .828.015 1.172.031v-.313c-1.031 0-1.031-.468-1.031-.734v-5.375h.016L4.094-.219c.047.125.093.219.187.219.11 0 .14-.078.188-.188L6.922-6.5v5.719c0 .36-.016.469-.781.469h-.235V0c.36-.031 1.047-.031 1.438-.031.375 0 1.047 0 1.422.031v-.313h-.25c-.766 0-.782-.109-.782-.468v-5.25c0-.36.016-.469.782-.469h.25v-.313H7.078c-.266 0-.266.016-.328.188L4.562-1z"/></symbol><symbol overflow="visible" id="n"><path d="M4.688-2.14c0-1.266-.985-2.329-2.188-2.329C1.25-4.469.281-3.375.281-2.14A2.22 2.22 0 0 0 2.484.11c1.204 0 2.204-.984 2.204-2.25zM2.5-.14c-.438 0-.875-.204-1.14-.672-.25-.438-.25-1.047-.25-1.407 0-.39 0-.922.234-1.36a1.347 1.347 0 0 1 1.14-.671c.438 0 .86.219 1.125.656.266.422.266 1 .266 1.375 0 .36 0 .906-.219 1.344-.234.453-.672.734-1.156.734z"/></symbol><symbol overflow="visible" id="o"><path d="M1.094-3.422V-.75c0 .438-.11.438-.782.438V0c.36-.016.86-.031 1.141-.031.25 0 .766.015 1.11.031v-.313c-.672 0-.782 0-.782-.437v-1.844c0-1.031.719-1.594 1.344-1.594.64 0 .75.532.75 1.11V-.75c0 .438-.11.438-.781.438V0c.344-.016.86-.031 1.125-.031.25 0 .781.015 1.11.031v-.313c-.516 0-.766 0-.766-.296v-1.907c0-.859 0-1.156-.313-1.515-.14-.172-.469-.375-1.047-.375-.734 0-1.203.422-1.484 1.047v-1.047l-1.407.11v.312c.704 0 .782.062.782.562z"/></symbol><symbol overflow="visible" id="p"><path d="M3.313-.75c.046.39.312.813.78.813.22 0 .829-.141.829-.954v-.562h-.25v.562c0 .579-.25.641-.36.641-.328 0-.375-.453-.375-.5v-1.984c0-.422 0-.813-.359-1.188a1.9 1.9 0 0 0-1.36-.547C1.391-4.469.703-4 .703-3.344c0 .297.203.469.469.469a.435.435 0 0 0 .453-.453c0-.125-.047-.453-.516-.453.282-.36.766-.469 1.079-.469.5 0 1.062.39 1.062 1.281v.36c-.516.03-1.203.062-1.828.359-.75.344-1 .86-1 1.297 0 .812.969 1.062 1.594 1.062A1.38 1.38 0 0 0 3.312-.75zM3.25-2.39v1c0 .937-.719 1.28-1.172 1.28-.484 0-.89-.343-.89-.843 0-.547.421-1.375 2.062-1.438z"/></symbol><symbol overflow="visible" id="q"><path d="M1.719-3.984h1.437v-.313H1.72v-1.828h-.25c0 .813-.297 1.875-1.282 1.922v.219h.844v2.75c0 1.218.938 1.343 1.297 1.343.703 0 .985-.703.985-1.343v-.563h-.25v.547c0 .734-.297 1.11-.672 1.11-.672 0-.672-.907-.672-1.079z"/></symbol></defs><use height="744.094" width="1052.362" xlink:href="#m" x="223.432" y="134.765"/><use height="744.094" width="1052.362" xlink:href="#n" x="232.565" y="134.765"/><use height="744.094" width="1052.362" xlink:href="#o" x="237.546" y="134.765"/><use height="744.094" width="1052.362" xlink:href="#p" x="243.081" y="134.765"/><use height="744.094" width="1052.362" xlink:href="#q" x="248.063" y="134.765"/></g><g transform="translate(-46.383 372.964) scale(2.5424)" ns0:text="$6$" fill="#4d4d4d" stroke="#4d4d4d" stroke-width="1.18"><defs><symbol id="r" overflow="visible"><path d="M1.313-3.266v-.25c0-2.515 1.234-2.875 1.75-2.875.234 0 .656.063.874.407-.156 0-.546 0-.546.437 0 .313.234.469.453.469.156 0 .469-.094.469-.484 0-.594-.438-1.079-1.266-1.079C1.766-6.64.422-5.359.422-3.156.422-.484 1.578.219 2.5.219c1.11 0 2.063-.938 2.063-2.25 0-1.266-.891-2.219-2-2.219-.672 0-1.047.5-1.25.984zM2.5-.062c-.625 0-.922-.594-.984-.75-.188-.47-.188-1.266-.188-1.438 0-.781.328-1.781 1.219-1.781.172 0 .625 0 .937.625.172.36.172.875.172 1.36 0 .483 0 .983-.172 1.343-.296.594-.75.64-.984.64z" stroke="none"/></symbol></defs><use y="134.765" x="223.432" xlink:href="#r" width="1052.362" height="744.094"/></g><g ns0:text="$7$" ns0:preamble="/home/waldgeist/data/sphinx/inkscape-preamble.tex" transform="translate(12.853 372.964) scale(2.5424)" fill="#4d4d4d" stroke="#4d4d4d" stroke-width="1.18"><defs><symbol overflow="visible" id="s"><path d="M4.75-6.078c.078-.11.078-.125.078-.344H2.406c-1.203 0-1.234-.125-1.265-.312H.89L.562-4.688h.25c.032-.156.11-.78.25-.906.063-.062.844-.062.97-.062h2.062c-.11.156-.89 1.25-1.11 1.578C2.078-2.734 1.75-1.344 1.75-.328c0 .094 0 .547.469.547.453 0 .453-.453.453-.547v-.516c0-.547.031-1.094.11-1.625.046-.234.171-1.094.624-1.703z" stroke="none"/></symbol></defs><use xlink:href="#s" x="223.432" y="134.765" width="1052.362" height="744.094"/></g><g transform="translate(73.152 372.964) scale(2.5424)" ns0:preamble="/home/waldgeist/data/sphinx/inkscape-preamble.tex" ns0:text="$8$" fill="#4d4d4d" stroke="#4d4d4d" stroke-width="1.18"><defs><symbol id="t" overflow="visible"><path d="M1.625-4.563c-.453-.296-.5-.625-.5-.796 0-.61.656-1.032 1.36-1.032.718 0 1.359.516 1.359 1.235 0 .578-.39 1.047-.985 1.39zm1.453.954c.719-.375 1.203-.891 1.203-1.547 0-.922-.875-1.485-1.781-1.485-1 0-1.813.735-1.813 1.672 0 .172.016.625.438 1.094.11.11.484.36.734.531C1.281-3.047.422-2.5.422-1.5.422-.453 1.438.219 2.484.219c1.125 0 2.079-.828 2.079-1.89 0-.36-.11-.813-.5-1.235-.188-.203-.344-.297-.985-.703zm-1 .421l1.235.782c.28.187.75.484.75 1.094 0 .734-.75 1.25-1.563 1.25C1.64-.063.922-.672.922-1.5c0-.578.312-1.219 1.156-1.688z" stroke="none"/></symbol></defs><use y="134.765" x="223.432" xlink:href="#t" width="1052.362" height="744.094"/></g><g ns0:text="$9$" ns0:preamble="/home/waldgeist/data/sphinx/inkscape-preamble.tex" transform="translate(132.933 372.964) scale(2.5424)" fill="#4d4d4d" stroke="#4d4d4d" stroke-width="1.18"><defs><symbol overflow="visible" id="u"><path d="M3.656-3.172v.328c0 2.328-1.031 2.781-1.61 2.781-.171 0-.718-.015-.983-.359.437 0 .515-.281.515-.453 0-.313-.234-.453-.453-.453-.156 0-.453.078-.453.469 0 .671.531 1.078 1.375 1.078 1.297 0 2.515-1.36 2.515-3.5 0-2.688-1.156-3.36-2.046-3.36-.547 0-1.032.188-1.454.625-.421.454-.64.875-.64 1.625 0 1.235.875 2.22 1.984 2.22.61 0 1.016-.423 1.25-1zm-1.234.766c-.156 0-.625 0-.922-.625-.188-.375-.188-.86-.188-1.36 0-.53 0-1 .22-1.375.265-.5.64-.625.984-.625.468 0 .796.344.968.782.11.328.157.953.157 1.406 0 .828-.344 1.797-1.22 1.797z" stroke="none"/></symbol></defs><use xlink:href="#u" x="223.432" y="134.765" width="1052.362" height="744.094"/></g><g ns0:text="$11$" ns0:preamble="/home/waldgeist/data/sphinx/inkscape-preamble.tex" transform="translate(246.065 372.964) scale(2.5424)" fill="#4d4d4d" stroke="#4d4d4d" stroke-width="1.18"><defs><symbol overflow="visible" id="v"><path d="M2.938-6.375c0-.25 0-.266-.235-.266C2.078-6 1.203-6 .891-6v.313c.203 0 .78 0 1.296-.266v5.172c0 .36-.03.469-.921.469H.953V0c.344-.031 1.203-.031 1.61-.031.39 0 1.265 0 1.609.031v-.313h-.313c-.906 0-.921-.109-.921-.468z" stroke="none"/></symbol></defs><use xlink:href="#v" x="223.432" y="134.765" width="1052.362" height="744.094"/><use xlink:href="#v" x="228.413" y="134.765" width="1052.362" height="744.094"/></g><g transform="translate(305.602 372.964) scale(2.5424)" ns0:preamble="/home/waldgeist/data/sphinx/inkscape-preamble.tex" ns0:text="$12$" fill="#4d4d4d" stroke="#4d4d4d" stroke-width="1.18"><defs><symbol id="w" overflow="visible"><path d="M2.938-6.375c0-.25 0-.266-.235-.266C2.078-6 1.203-6 .891-6v.313c.203 0 .78 0 1.296-.266v5.172c0 .36-.03.469-.921.469H.953V0c.344-.031 1.203-.031 1.61-.031.39 0 1.265 0 1.609.031v-.313h-.313c-.906 0-.921-.109-.921-.468z" stroke="none"/></symbol><symbol id="x" overflow="visible"><path d="M1.266-.766l1.062-1.03c1.547-1.376 2.14-1.907 2.14-2.907 0-1.14-.89-1.938-2.109-1.938A1.843 1.843 0 0 0 .5-4.828c0 .547.5.547.531.547.172 0 .516-.11.516-.532a.513.513 0 0 0-.531-.515c-.079 0-.094 0-.125.016.218-.657.765-1.016 1.343-1.016.907 0 1.329.812 1.329 1.625 0 .797-.485 1.578-1.047 2.203L.609-.375C.5-.265.5-.235.5 0h3.703l.266-1.734h-.235C4.172-1.438 4.11-1 4-.844c-.063.078-.719.078-.938.078z" stroke="none"/></symbol></defs><use y="134.765" x="223.432" xlink:href="#w" width="1052.362" height="744.094"/><use y="134.765" x="228.413" xlink:href="#x" width="1052.362" height="744.094"/></g><g transform="translate(8.097 290.21)"><use xlink:href="#y" transform="translate(179.345)" width="744.094" height="1052.362"/><path id="y" d="M579.106 366.86v23.912" fill="none" stroke="#000" stroke-width="2"/><use xlink:href="#y" transform="translate(59.782)" width="744.094" height="1052.362"/><use xlink:href="#y" transform="translate(119.563)" width="744.094" height="1052.362"/><use xlink:href="#y" transform="translate(-238.995 -.917)" width="744.094" height="1052.362"/><use xlink:href="#y" transform="translate(-298.776 -.796)" width="744.094" height="1052.362"/><use xlink:href="#y" transform="translate(-358.558 -.313)" width="744.094" height="1052.362"/><use height="1052.362" width="744.094" transform="translate(-179.213 -.56)" xlink:href="#y"/><use xlink:href="#y" transform="translate(-119.563)" width="744.094" height="1052.362"/><use height="1052.362" width="744.094" transform="translate(-59.782)" xlink:href="#y"/><use height="744.094" width="1052.362" transform="translate(239.127)" xlink:href="#y"/><use xlink:href="#y" transform="translate(299.041)" width="1052.362" height="744.094"/><path d="M160.634 378.816h793.322" id="h" fill="none" stroke="#000" stroke-width="3.226" marker-end="url(#z)"/></g><path d="M225.39 427.412l7.362 12.751m0-12.751l-7.362 12.751M285.172 397.322l7.362 12.752m0-12.752l-7.362 12.752M344.865 341.078l7.362 12.751m0-12.751l-7.362 12.751M404.735 276.289l7.363 12.751m0-12.751l-7.363 12.751M464.296 218.84l7.362 12.751m0-12.751l-7.362 12.751M882.99 424.822l7.361 12.751m0-12.751l-7.362 12.751M823.208 390.513l7.362 12.752m0-12.752l-7.362 12.752M703.644 266.276l7.362 12.752m0-12.752l-7.362 12.752M583.862 181.231l7.362 12.752m0-12.752l-7.362 12.752M524.08 183.92l7.363 12.751m0-12.751l-7.362 12.751M643.862 211.786l7.362 12.751m0-12.751l-7.362 12.751M763.426 331.925l7.362 12.751m0-12.751l-7.362 12.751" stroke-width="2" stroke="green" fill="none" stroke-linecap="round"/><g ns0:text="$0$" transform="translate(-427.99 372.964) scale(2.5424)" fill="#4d4d4d" stroke="green" stroke-width="1.18"><defs><symbol overflow="visible" id="A"><path d="M4.578-3.188c0-.796-.047-1.593-.39-2.328C3.733-6.484 2.905-6.64 2.5-6.64c-.61 0-1.328.266-1.75 1.188-.313.687-.36 1.469-.36 2.266 0 .75.032 1.64.454 2.406a1.83 1.83 0 0 0 1.64 1c.532 0 1.297-.203 1.735-1.157.312-.687.36-1.468.36-2.25zM2.484 0c-.39 0-.984-.25-1.156-1.203-.11-.594-.11-1.516-.11-2.11 0-.64 0-1.296.079-1.828.187-1.187.937-1.28 1.187-1.28.329 0 .985.187 1.172 1.171.11.563.11 1.313.11 1.938 0 .75 0 1.421-.11 2.062C3.5-.297 2.937 0 2.484 0z" stroke="none"/></symbol></defs><use height="744.094" width="1052.362" xlink:href="#A" x="223.432" y="134.765"/></g><use xlink:href="#y" transform="translate(-410.375 290.21)" width="744.094" height="1052.362"/><g transform="translate(-428.466 275.196) scale(2.5424)" ns0:preamble="/home/waldgeist/data/sphinx/inkscape-preamble.tex" ns0:text="$2$" fill="#4d4d4d" stroke="#4d4d4d" stroke-width="1.18"><defs><symbol id="B" overflow="visible"><path d="M1.266-.766l1.062-1.03c1.547-1.376 2.14-1.907 2.14-2.907 0-1.14-.89-1.938-2.109-1.938A1.843 1.843 0 0 0 .5-4.828c0 .547.5.547.531.547.172 0 .516-.11.516-.532a.513.513 0 0 0-.531-.515c-.079 0-.094 0-.125.016.218-.657.765-1.016 1.343-1.016.907 0 1.329.812 1.329 1.625 0 .797-.485 1.578-1.047 2.203L.609-.375C.5-.265.5-.235.5 0h3.703l.266-1.734h-.235C4.172-1.438 4.11-1 4-.844c-.063.078-.719.078-.938.078z" stroke="none"/></symbol></defs><use height="744.094" width="1052.362" y="134.765" x="223.432" xlink:href="#B"/></g><g ns0:text="$4$" ns0:preamble="/home/waldgeist/data/sphinx/inkscape-preamble.tex" transform="translate(-429.022 214.998) scale(2.5424)" fill="#4d4d4d" stroke="#4d4d4d" stroke-width="1.18"><defs><symbol overflow="visible" id="C"><path d="M2.938-1.64v.859c0 .36-.032.469-.766.469h-.203V0c.406-.031.922-.031 1.343-.031.422 0 .938 0 1.36.031v-.313h-.219c-.734 0-.75-.109-.75-.468v-.86h.985v-.312h-.985v-4.531c0-.204 0-.266-.172-.266-.078 0-.11 0-.187.125L.28-1.953v.312zm.046-.313H.563l2.421-3.719z" stroke="none"/></symbol></defs><use height="744.094" width="1052.362" xlink:href="#C" x="223.432" y="134.765"/></g><g transform="translate(-428.704 155.494) scale(2.5424)" ns0:preamble="/home/waldgeist/data/sphinx/inkscape-preamble.tex" ns0:text="$6$" fill="#4d4d4d" stroke="#4d4d4d" stroke-width="1.18"><defs><symbol id="D" overflow="visible"><path d="M1.313-3.266v-.25c0-2.515 1.234-2.875 1.75-2.875.234 0 .656.063.874.407-.156 0-.546 0-.546.437 0 .313.234.469.453.469.156 0 .469-.094.469-.484 0-.594-.438-1.079-1.266-1.079C1.766-6.64.422-5.359.422-3.156.422-.484 1.578.219 2.5.219c1.11 0 2.063-.938 2.063-2.25 0-1.266-.891-2.219-2-2.219-.672 0-1.047.5-1.25.984zM2.5-.062c-.625 0-.922-.594-.984-.75-.188-.47-.188-1.266-.188-1.438 0-.781.328-1.781 1.219-1.781.172 0 .625 0 .937.625.172.36.172.875.172 1.36 0 .483 0 .983-.172 1.343-.296.594-.75.64-.984.64z" stroke="none"/></symbol></defs><use height="744.094" width="1052.362" y="134.765" x="223.432" xlink:href="#D"/></g><use height="744.094" width="1052.362" xlink:href="#t" x="223.432" y="134.765" transform="translate(-428.704 95.712) scale(2.5424)" ns0:text="$8$" ns0:preamble="/home/waldgeist/data/sphinx/inkscape-preamble.tex" fill="#4d4d4d" stroke="#4d4d4d" stroke-width="1.18"/><path d="M181.246 370.06h-24.32" fill="none" stroke="#000" stroke-width="1.558"/><g transform="translate(-441.13 -24.13) scale(2.5424)" ns0:text="$12$" fill="#4d4d4d" stroke="green" stroke-width="1.18"><defs><symbol id="E" overflow="visible"><path d="M2.938-6.375c0-.25 0-.266-.235-.266C2.078-6 1.203-6 .891-6v.313c.203 0 .78 0 1.296-.266v5.172c0 .36-.03.469-.921.469H.953V0c.344-.031 1.203-.031 1.61-.031.39 0 1.265 0 1.609.031v-.313h-.313c-.906 0-.921-.109-.921-.468z" stroke="none"/></symbol><symbol id="F" overflow="visible"><path d="M1.266-.766l1.062-1.03c1.547-1.376 2.14-1.907 2.14-2.907 0-1.14-.89-1.938-2.109-1.938A1.843 1.843 0 0 0 .5-4.828c0 .547.5.547.531.547.172 0 .516-.11.516-.532a.513.513 0 0 0-.531-.515c-.079 0-.094 0-.125.016.218-.657.765-1.016 1.343-1.016.907 0 1.329.812 1.329 1.625 0 .797-.485 1.578-1.047 2.203L.609-.375C.5-.265.5-.235.5 0h3.703l.266-1.734h-.235C4.172-1.438 4.11-1 4-.844c-.063.078-.719.078-.938.078z" stroke="none"/></symbol></defs><use height="744.094" width="1052.362" y="134.765" x="223.432" xlink:href="#E"/><use height="744.094" width="1052.362" y="134.765" x="228.413" xlink:href="#F"/></g><g ns0:text="$14$" ns0:preamble="/home/waldgeist/data/sphinx/inkscape-preamble.tex" transform="translate(-441.687 -83.633) scale(2.5424)" fill="#4d4d4d" stroke="green" stroke-width="1.18"><defs><symbol overflow="visible" id="G"><path d="M2.938-6.375c0-.25 0-.266-.235-.266C2.078-6 1.203-6 .891-6v.313c.203 0 .78 0 1.296-.266v5.172c0 .36-.03.469-.921.469H.953V0c.344-.031 1.203-.031 1.61-.031.39 0 1.265 0 1.609.031v-.313h-.313c-.906 0-.921-.109-.921-.468z" stroke="none"/></symbol><symbol overflow="visible" id="H"><path d="M2.938-1.64v.859c0 .36-.032.469-.766.469h-.203V0c.406-.031.922-.031 1.343-.031.422 0 .938 0 1.36.031v-.313h-.219c-.734 0-.75-.109-.75-.468v-.86h.985v-.312h-.985v-4.531c0-.204 0-.266-.172-.266-.078 0-.11 0-.187.125L.28-1.953v.312zm.046-.313H.563l2.421-3.719z" stroke="none"/></symbol></defs><use height="744.094" width="1052.362" xlink:href="#G" x="223.432" y="134.765"/><use height="744.094" width="1052.362" xlink:href="#H" x="228.413" y="134.765"/></g><g transform="translate(-441.369 -143.693) scale(2.5424)" ns0:preamble="/home/waldgeist/data/sphinx/inkscape-preamble.tex" ns0:text="$16$" fill="#4d4d4d" stroke="#4d4d4d" stroke-width="1.18"><defs><symbol id="I" overflow="visible"><path d="M2.938-6.375c0-.25 0-.266-.235-.266C2.078-6 1.203-6 .891-6v.313c.203 0 .78 0 1.296-.266v5.172c0 .36-.03.469-.921.469H.953V0c.344-.031 1.203-.031 1.61-.031.39 0 1.265 0 1.609.031v-.313h-.313c-.906 0-.921-.109-.921-.468z" stroke="none"/></symbol><symbol id="J" overflow="visible"><path d="M1.313-3.266v-.25c0-2.515 1.234-2.875 1.75-2.875.234 0 .656.063.874.407-.156 0-.546 0-.546.437 0 .313.234.469.453.469.156 0 .469-.094.469-.484 0-.594-.438-1.079-1.266-1.079C1.766-6.64.422-5.359.422-3.156.422-.484 1.578.219 2.5.219c1.11 0 2.063-.938 2.063-2.25 0-1.266-.891-2.219-2-2.219-.672 0-1.047.5-1.25.984zM2.5-.062c-.625 0-.922-.594-.984-.75-.188-.47-.188-1.266-.188-1.438 0-.781.328-1.781 1.219-1.781.172 0 .625 0 .937.625.172.36.172.875.172 1.36 0 .483 0 .983-.172 1.343-.296.594-.75.64-.984.64z" stroke="none"/></symbol></defs><use height="744.094" width="1052.362" y="134.765" x="223.432" xlink:href="#I"/><use height="744.094" width="1052.362" y="134.765" x="228.413" xlink:href="#J"/></g><g ns0:text="$18$" ns0:preamble="/home/waldgeist/data/sphinx/inkscape-preamble.tex" transform="translate(-441.369 -203.474) scale(2.5424)" fill="#4d4d4d" stroke="#4d4d4d" stroke-width="1.18"><defs><symbol overflow="visible" id="K"><path d="M2.938-6.375c0-.25 0-.266-.235-.266C2.078-6 1.203-6 .891-6v.313c.203 0 .78 0 1.296-.266v5.172c0 .36-.03.469-.921.469H.953V0c.344-.031 1.203-.031 1.61-.031.39 0 1.265 0 1.609.031v-.313h-.313c-.906 0-.921-.109-.921-.468z" stroke="none"/></symbol><symbol overflow="visible" id="L"><path d="M1.625-4.563c-.453-.296-.5-.625-.5-.796 0-.61.656-1.032 1.36-1.032.718 0 1.359.516 1.359 1.235 0 .578-.39 1.047-.985 1.39zm1.453.954c.719-.375 1.203-.891 1.203-1.547 0-.922-.875-1.485-1.781-1.485-1 0-1.813.735-1.813 1.672 0 .172.016.625.438 1.094.11.11.484.36.734.531C1.281-3.047.422-2.5.422-1.5.422-.453 1.438.219 2.484.219c1.125 0 2.079-.828 2.079-1.89 0-.36-.11-.813-.5-1.235-.188-.203-.344-.297-.985-.703zm-1 .421l1.235.782c.28.187.75.484.75 1.094 0 .734-.75 1.25-1.563 1.25C1.64-.063.922-.672.922-1.5c0-.578.312-1.219 1.156-1.688z" stroke="none"/></symbol></defs><use height="744.094" width="1052.362" xlink:href="#K" x="223.432" y="134.765"/><use height="744.094" width="1052.362" xlink:href="#L" x="228.413" y="134.765"/></g><path d="M173.29 427.842c138.385 60.015 246.474-243.105 388.58-243.105 142.108 0 249.027 297.134 384.654 244.718" opacity=".5" fill="none" stroke="green" stroke-width="3" stroke-linecap="round" stroke-linejoin="round" stroke-dasharray="3,9"/><g transform="matrix(3 0 0 3 -655.937 -361.347)" ns0:preamble="/home/waldgeist/data/sphinx/inkscape-preamble.tex" ns0:text="Tagesl\xc3\xa4nge"><defs><symbol id="M" overflow="visible"><path d="M6.64-6.75H.548L.359-4.5h.25C.75-6.11.891-6.438 2.406-6.438c.172 0 .438 0 .531.016.22.047.22.156.22.375V-.78c0 .328 0 .469-1.048.469h-.406V0c.406-.031 1.422-.031 1.89-.031.454 0 1.485 0 1.891.031v-.313h-.406c-1.047 0-1.047-.14-1.047-.468v-5.266c0-.187 0-.328.188-.375.11-.016.375-.016.562-.016 1.516 0 1.657.329 1.797 1.938h.25z"/></symbol><symbol id="N" overflow="visible"><path d="M3.313-.75c.046.39.312.813.78.813.22 0 .829-.141.829-.954v-.562h-.25v.562c0 .579-.25.641-.36.641-.328 0-.375-.453-.375-.5v-1.984c0-.422 0-.813-.359-1.188a1.9 1.9 0 0 0-1.36-.547C1.391-4.469.703-4 .703-3.344c0 .297.203.469.469.469a.435.435 0 0 0 .453-.453c0-.125-.047-.453-.516-.453.282-.36.766-.469 1.079-.469.5 0 1.062.39 1.062 1.281v.36c-.516.03-1.203.062-1.828.359-.75.344-1 .86-1 1.297 0 .812.969 1.062 1.594 1.062A1.38 1.38 0 0 0 3.312-.75zM3.25-2.39v1c0 .937-.719 1.28-1.172 1.28-.484 0-.89-.343-.89-.843 0-.547.421-1.375 2.062-1.438z"/></symbol><symbol id="O" overflow="visible"><path d="M2.219-1.719c-.875 0-.875-1-.875-1.218 0-.266.015-.594.156-.844.078-.11.313-.39.719-.39.86 0 .86.984.86 1.218 0 .265 0 .594-.157.844-.078.109-.313.39-.703.39zm-1.156.39a.8.8 0 0 1 .156-.468c.39.281.812.313 1 .313.922 0 1.61-.688 1.61-1.454 0-.374-.157-.734-.407-.968.36-.344.719-.39.89-.39.032 0 .079 0 .11.015-.11.031-.172.14-.172.265 0 .172.14.282.297.282a.28.28 0 0 0 .281-.297c0-.172-.11-.485-.5-.485-.203 0-.64.063-1.062.47a1.652 1.652 0 0 0-1.047-.36c-.938 0-1.625.687-1.625 1.453 0 .437.219.812.469 1.031-.125.14-.313.469-.313.828 0 .313.14.688.453.89-.61.157-.922.595-.922.985 0 .719.985 1.266 2.203 1.266 1.172 0 2.204-.5 2.204-1.281 0-.344-.125-.86-.641-1.141-.531-.266-1.11-.266-1.719-.266-.25 0-.672 0-.75-.015-.312-.047-.516-.344-.516-.672zM2.5 1.829C1.484 1.828.797 1.312.797.781c0-.453.375-.828.812-.844h.594c.86 0 1.969 0 1.969.844 0 .547-.703 1.047-1.672 1.047z"/></symbol><symbol id="P" overflow="visible"><path d="M1.11-2.516C1.171-4 2.015-4.25 2.36-4.25c1.015 0 1.124 1.344 1.124 1.734zm0 .22h2.78c.22 0 .25 0 .25-.22 0-.984-.546-1.953-1.78-1.953-1.158 0-2.08 1.032-2.08 2.282C.281-.86 1.328.108 2.47.108 3.688.11 4.14-1 4.14-1.187c0-.094-.079-.125-.141-.125-.078 0-.11.062-.125.14C3.531-.14 2.625-.14 2.531-.14c-.5 0-.89-.296-1.125-.671-.297-.47-.297-1.125-.297-1.485z"/></symbol><symbol id="Q" overflow="visible"><path d="M2.078-1.938c.219.047 1.031.204 1.031.922 0 .5-.343.907-1.125.907-.843 0-1.203-.563-1.39-1.422-.031-.125-.031-.157-.14-.157-.126 0-.126.063-.126.235v1.328c0 .172 0 .234.11.234C.483.11.5.094.688-.094.703-.109.703-.125.89-.312c.437.406.89.421 1.093.421 1.141 0 1.61-.671 1.61-1.39 0-.516-.297-.828-.422-.938-.328-.328-.719-.406-1.14-.484-.563-.11-1.22-.235-1.22-.813 0-.359.25-.765 1.11-.765 1.094 0 1.156.906 1.172 1.203 0 .094.094.094.11.094.14 0 .14-.047.14-.235v-1.015c0-.157 0-.235-.11-.235-.046 0-.078 0-.203.125a1.676 1.676 0 0 1-.172.157c-.375-.282-.78-.282-.937-.282-1.219 0-1.594.672-1.594 1.235 0 .343.156.625.422.843.328.25.61.313 1.328.454z"/></symbol><symbol id="R" overflow="visible"><path d="M1.766-6.922l-1.438.11v.312c.703 0 .781.063.781.563V-.75c0 .438-.109.438-.78.438V0c.327-.016.859-.031 1.109-.031s.734.015 1.109.031v-.313c-.672 0-.781 0-.781-.437z"/></symbol><symbol id="S" overflow="visible"><path d="M2.031-6.172c0-.234-.203-.5-.5-.5-.281 0-.5.219-.5.5s.219.5.5.5c.297 0 .5-.266.5-.5zm1.922 0c0-.281-.219-.5-.5-.5-.297 0-.5.266-.5.5 0 .234.203.5.5.5.281 0 .5-.219.5-.5z"/></symbol><symbol id="T" overflow="visible"><path d="M1.094-3.422V-.75c0 .438-.11.438-.782.438V0c.36-.016.86-.031 1.141-.031.25 0 .766.015 1.11.031v-.313c-.672 0-.782 0-.782-.437v-1.844c0-1.031.719-1.594 1.344-1.594.64 0 .75.532.75 1.11V-.75c0 .438-.11.438-.781.438V0c.344-.016.86-.031 1.125-.031.25 0 .781.015 1.11.031v-.313c-.516 0-.766 0-.766-.296v-1.907c0-.859 0-1.156-.313-1.515-.14-.172-.469-.375-1.047-.375-.734 0-1.203.422-1.484 1.047v-1.047l-1.407.11v.312c.704 0 .782.062.782.562z"/></symbol></defs><use y="134.765" x="223.432" xlink:href="#M" width="1052.362" height="744.094"/><use y="134.765" x="229.8" xlink:href="#N" width="1052.362" height="744.094"/><use y="134.765" x="234.781" xlink:href="#O" width="1052.362" height="744.094"/><use y="134.765" x="239.763" xlink:href="#P" width="1052.362" height="744.094"/><use y="134.765" x="244.19" xlink:href="#Q" width="1052.362" height="744.094"/><use y="134.765" x="248.119" xlink:href="#R" width="1052.362" height="744.094"/><use y="135.199" x="250.885" xlink:href="#S" width="1052.362" height="744.094"/><use y="134.765" x="250.885" xlink:href="#N" width="1052.362" height="744.094"/><use y="134.765" x="255.866" xlink:href="#T" width="1052.362" height="744.094"/><use y="134.765" x="261.402" xlink:href="#O" width="1052.362" height="744.094"/><use y="134.765" x="266.383" xlink:href="#P" width="1052.362" height="744.094"/></g></svg>