<svg xmlns:ns0="http://www.iki.fi/pav/software/textext/" xmlns="http://www.w3.org/2000/svg" xmlns:xlink="http://www.w3.org/1999/xlink" width="744.094" height="1052.362"><title>Darstellung eines funktionalen Zusammenhangs durch eine Wertetabelle</title><use transform="translate(128.102)" xlink:href="#a" width="744.094" height="1052.362" stroke="#000"/><path fill="#fff" stroke="#fff" stroke-width="2.243" stroke-linejoin="round" d="M9.469 626.514h721.82V425.848H9.469z"/><path style="marker:none" color="#000" fill="#fff" stroke="#000" stroke-linecap="round" stroke-linejoin="round" overflow="visible" d="M117.472 526.181h124.805v73.815H117.472z"/><use transform="translate(256.204 73.815)" xlink:href="#a" width="744.094" height="1052.362" stroke="#000"/><use transform="translate(192.153)" xlink:href="#a" width="744.094" height="1052.362" stroke="#000"/><use transform="translate(64.05)" xlink:href="#a" width="744.094" height="1052.362" stroke="#000"/><use xlink:href="#a" width="744.094" height="1052.362" stroke="#000"/><path id="a" style="marker:none" color="#000" fill="#fff" stroke="#000" stroke-linecap="round" stroke-linejoin="round" overflow="visible" d="M242.277 452.366h64.051v73.815h-64.051z"/><g transform="translate(-201.693 212.132) scale(2.10696)" ns0:preamble="/home/waldgeist/data/sphinx/inkscape-preamble.tex" ns0:text="0" fill="green" stroke="green" stroke-width="4"><defs><symbol id="b" overflow="visible"><path d="M4.578-3.188c0-.796-.047-1.593-.39-2.328C3.733-6.484 2.905-6.64 2.5-6.64c-.61 0-1.328.266-1.75 1.188-.313.687-.36 1.469-.36 2.266 0 .75.032 1.64.454 2.406a1.83 1.83 0 0 0 1.64 1c.532 0 1.297-.203 1.735-1.157.312-.687.36-1.468.36-2.25zM2.484 0c-.39 0-.984-.25-1.156-1.203-.11-.594-.11-1.516-.11-2.11 0-.64 0-1.296.079-1.828.187-1.187.937-1.28 1.187-1.28.329 0 .985.187 1.172 1.171.11.563.11 1.313.11 1.938 0 .75 0 1.421-.11 2.062C3.5-.297 2.937 0 2.484 0z" stroke="none"/></symbol></defs><use y="134.765" x="223.432" xlink:href="#b" width="1052.362" height="744.094" fill="#000"/></g><use transform="translate(0 73.815)" xlink:href="#a" width="744.094" height="1052.362" stroke="#000"/><use transform="translate(256.204)" xlink:href="#a" width="744.094" height="1052.362" stroke="#000"/><use transform="translate(64.05 73.815)" xlink:href="#a" width="744.094" height="1052.362" stroke="#000"/><use transform="translate(128.102 73.815)" xlink:href="#a" width="744.094" height="1052.362" stroke="#000"/><use transform="translate(192.153 73.815)" xlink:href="#a" width="744.094" height="1052.362" stroke="#000"/><use height="1052.362" width="744.094" xlink:href="#a" transform="translate(256.204 73.815)" stroke="#000"/><path d="M562.479 526.181H117.525" fill="none" stroke="#000"/><path id="c" d="M242.277 452.366v73.89" fill="none" stroke="#000" stroke-width=".92"/><use height="1052.362" width="744.094" transform="matrix(1 0 0 -1 0 1052.437)" xlink:href="#c"/><path style="marker:none" color="#000" fill="#fff" stroke="#000" stroke-linecap="round" stroke-linejoin="round" overflow="visible" d="M117.472 452.366h124.805v73.815H117.472z"/><use height="1052.362" width="744.094" xlink:href="#a" transform="translate(320.255)" stroke="#000"/><use transform="translate(320.255 73.815)" xlink:href="#a" width="744.094" height="1052.362" stroke="#000"/><g ns0:text="1" transform="translate(-137.741 212.132) scale(2.10696)" fill="green" stroke="green" stroke-width="4"><defs><symbol overflow="visible" id="d"><path d="M2.938-6.375c0-.25 0-.266-.235-.266C2.078-6 1.203-6 .891-6v.313c.203 0 .78 0 1.296-.266v5.172c0 .36-.03.469-.921.469H.953V0c.344-.031 1.203-.031 1.61-.031.39 0 1.265 0 1.609.031v-.313h-.313c-.906 0-.921-.109-.921-.468zm0 0" stroke="none"/></symbol></defs><use height="1052.362" width="744.094" xlink:href="#d" x="223.432" y="134.765" fill="#000"/></g><use height="1052.362" width="744.094" xlink:href="#a" transform="translate(128.102)" stroke="#000"/><g transform="translate(-73.592 212.095) scale(2.10696)" ns0:text="2" fill="green" stroke="green" stroke-width="4"><defs><symbol id="e" overflow="visible"><path d="M1.266-.766l1.062-1.03c1.547-1.376 2.14-1.907 2.14-2.907 0-1.14-.89-1.938-2.109-1.938A1.843 1.843 0 0 0 .5-4.828c0 .547.5.547.531.547.172 0 .516-.11.516-.532a.513.513 0 0 0-.531-.515c-.079 0-.094 0-.125.016.218-.657.765-1.016 1.343-1.016.907 0 1.329.812 1.329 1.625 0 .797-.485 1.578-1.047 2.203L.609-.375C.5-.265.5-.235.5 0h3.703l.266-1.734h-.235C4.172-1.438 4.11-1 4-.844c-.063.078-.719.078-.938.078zm0 0" stroke="none"/></symbol></defs><use y="134.765" x="223.432" xlink:href="#e" width="744.094" height="1052.362" fill="#000"/></g><g ns0:text="3" transform="translate(-9.969 212.095) scale(2.10696)" fill="green" stroke="green" stroke-width="4"><defs><symbol overflow="visible" id="f"><path d="M2.89-3.516c.813-.265 1.391-.953 1.391-1.75 0-.812-.875-1.375-1.828-1.375-1 0-1.765.594-1.765 1.36 0 .328.218.515.515.515.297 0 .5-.218.5-.515 0-.485-.469-.485-.61-.485.298-.5.954-.625 1.313-.625.422 0 .969.22.969 1.11 0 .125-.031.703-.281 1.14-.297.485-.64.516-.89.516a3.29 3.29 0 0 1-.392.031c-.078.016-.14.031-.14.125 0 .11.062.11.234.11h.438c.812 0 1.187.671 1.187 1.656 0 1.36-.687 1.64-1.125 1.64-.437 0-1.187-.171-1.531-.75.344.047.656-.171.656-.546a.537.537 0 0 0-.547-.563c-.25 0-.562.14-.562.578C.422-.437 1.344.22 2.437.22c1.22 0 2.126-.906 2.126-1.922 0-.813-.641-1.594-1.672-1.813zm0 0" stroke="none"/></symbol></defs><use height="1052.362" width="744.094" xlink:href="#f" x="223.432" y="134.765" fill="#000"/></g><g transform="translate(54.51 212.095) scale(2.10696)" ns0:text="4" fill="green" stroke="green" stroke-width="4"><defs><symbol id="g" overflow="visible"><path d="M2.938-1.64v.859c0 .36-.032.469-.766.469h-.203V0c.406-.031.922-.031 1.343-.031.422 0 .938 0 1.36.031v-.313h-.219c-.734 0-.75-.109-.75-.468v-.86h.985v-.312h-.985v-4.531c0-.204 0-.266-.172-.266-.078 0-.11 0-.187.125L.28-1.953v.312zm.046-.313H.563l2.421-3.719zm0 0" stroke="none"/></symbol></defs><use y="134.765" x="223.432" xlink:href="#g" width="744.094" height="1052.362" fill="#000"/></g><g ns0:text="5" ns0:preamble="/home/waldgeist/sandbox/homepage/inkscape-preamble.tex" transform="translate(118.561 212.095) scale(2.10696)" fill="green" stroke="green" stroke-width="4"><defs><symbol overflow="visible" id="h"><path d="M4.469-2c0-1.188-.813-2.188-1.89-2.188-.47 0-.907.157-1.267.516v-1.953c.204.063.532.125.844.125 1.235 0 1.938-.906 1.938-1.031 0-.063-.032-.11-.11-.11 0 0-.03 0-.078.032a3.22 3.22 0 0 1-1.36.296 3.4 3.4 0 0 1-1.327-.28c-.078-.032-.094-.032-.11-.032C1-6.625 1-6.547 1-6.391v2.954c0 .171 0 .25.14.25.079 0 .094-.016.141-.079.11-.156.469-.703 1.282-.703.515 0 .765.453.843.64.156.376.188.75.188 1.25 0 .36 0 .954-.25 1.376-.235.39-.61.64-1.063.64-.719 0-1.297-.53-1.469-1.109.032 0 .063.016.172.016.329 0 .5-.25.5-.485 0-.25-.171-.5-.5-.5-.14 0-.484.079-.484.532C.5-.75 1.188.219 2.297.219 3.453.219 4.469-.734 4.469-2zm0 0" stroke="none"/></symbol></defs><use height="1052.362" width="744.094" xlink:href="#h" x="223.432" y="134.765" fill="#000"/></g><g transform="translate(-314.1 298.795) scale(2.10696)" ns0:preamble="/home/waldgeist/sandbox/homepage/inkscape-preamble.tex" ns0:text="in kg" fill="green" stroke="green" stroke-width="4"><defs><symbol id="i" overflow="visible"><path d="M1.766-4.406l-1.391.11v.312c.64 0 .734.062.734.546V-.75c0 .438-.109.438-.78.438V0c.312-.016.859-.031 1.093-.031.36 0 .703.015 1.047.031v-.313c-.672 0-.703-.046-.703-.437zm.03-1.735a.514.514 0 0 0-.515-.53.537.537 0 0 0-.531.53c0 .266.219.532.531.532a.514.514 0 0 0 .516-.532z" stroke="none"/></symbol><symbol id="j" overflow="visible"><path d="M1.094-3.422V-.75c0 .438-.11.438-.782.438V0c.36-.016.86-.031 1.141-.031.25 0 .766.015 1.11.031v-.313c-.672 0-.782 0-.782-.437v-1.844c0-1.031.719-1.594 1.344-1.594.64 0 .75.532.75 1.11V-.75c0 .438-.11.438-.781.438V0c.344-.016.86-.031 1.125-.031.25 0 .781.015 1.11.031v-.313c-.516 0-.766 0-.766-.296v-1.907c0-.859 0-1.156-.313-1.515-.14-.172-.469-.375-1.047-.375-.734 0-1.203.422-1.484 1.047v-1.047l-1.407.11v.312c.704 0 .782.062.782.562z" stroke="none"/></symbol><symbol id="k" overflow="visible"><path d="M1.063-.75c0 .438-.11.438-.782.438V0a26.45 26.45 0 0 1 1.078-.031c.313 0 .704.015 1.11.031v-.313c-.672 0-.781 0-.781-.437v-1.031l.64-.547c.766 1.047 1.188 1.61 1.188 1.797 0 .187-.172.219-.36.219V0c.266-.016.86-.031 1.078-.031.282 0 .579.015.86.031v-.313c-.375 0-.594 0-.969-.53L2.859-2.626c-.015-.016-.062-.078-.062-.11 0-.03.719-.64.812-.718.625-.5 1.047-.531 1.25-.531v-.313c-.28.031-.406.031-.687.031-.36 0-.984-.015-1.125-.03v.312c.187 0 .297.109.297.25 0 .203-.14.312-.219.39L1.719-2.14v-4.78L.28-6.813v.312c.703 0 .781.063.781.563z" stroke="none"/></symbol><symbol id="l" overflow="visible"><path d="M2.219-1.719c-.875 0-.875-1-.875-1.218 0-.266.015-.594.156-.844.078-.11.313-.39.719-.39.86 0 .86.984.86 1.218 0 .265 0 .594-.157.844-.078.109-.313.39-.703.39zm-1.156.39a.8.8 0 0 1 .156-.468c.39.281.812.313 1 .313.922 0 1.61-.688 1.61-1.454 0-.374-.157-.734-.407-.968.36-.344.719-.39.89-.39.032 0 .079 0 .11.015-.11.031-.172.14-.172.265 0 .172.14.282.297.282a.28.28 0 0 0 .281-.297c0-.172-.11-.485-.5-.485-.203 0-.64.063-1.062.47a1.652 1.652 0 0 0-1.047-.36c-.938 0-1.625.687-1.625 1.453 0 .437.219.812.469 1.031-.125.14-.313.469-.313.828 0 .313.14.688.453.89-.61.157-.922.595-.922.985 0 .719.985 1.266 2.203 1.266 1.172 0 2.204-.5 2.204-1.281 0-.344-.125-.86-.641-1.141-.531-.266-1.11-.266-1.719-.266-.25 0-.672 0-.75-.015-.312-.047-.516-.344-.516-.672zM2.5 1.829C1.484 1.828.797 1.312.797.781c0-.453.375-.828.812-.844h.594c.86 0 1.969 0 1.969.844 0 .547-.703 1.047-1.672 1.047z" stroke="none"/></symbol></defs><g fill="#000"><use y="134.765" x="223.432" xlink:href="#i" width="744.094" height="1052.362"/><use y="134.765" x="226.2" xlink:href="#j" width="744.094" height="1052.362"/><use y="134.765" x="235.052" xlink:href="#k" width="744.094" height="1052.362"/><use y="134.765" x="240.311" xlink:href="#l" width="744.094" height="1052.362"/></g></g><g ns0:text="0" ns0:preamble="/home/waldgeist/sandbox/homepage/inkscape-preamble.tex" transform="translate(-201.693 285.91) scale(2.10696)" fill="green" stroke="green" stroke-width="4"><defs><symbol overflow="visible" id="m"><path d="M4.578-3.188c0-.796-.047-1.593-.39-2.328C3.733-6.484 2.905-6.64 2.5-6.64c-.61 0-1.328.266-1.75 1.188-.313.687-.36 1.469-.36 2.266 0 .75.032 1.64.454 2.406a1.83 1.83 0 0 0 1.64 1c.532 0 1.297-.203 1.735-1.157.312-.687.36-1.468.36-2.25zM2.484 0c-.39 0-.984-.25-1.156-1.203-.11-.594-.11-1.516-.11-2.11 0-.64 0-1.296.079-1.828.187-1.187.937-1.28 1.187-1.28.329 0 .985.187 1.172 1.171.11.563.11 1.313.11 1.938 0 .75 0 1.421-.11 2.062C3.5-.297 2.937 0 2.484 0z" stroke="none"/></symbol></defs><use xlink:href="#m" x="223.432" y="134.765" width="744.094" height="1052.362" fill="#000"/></g><g transform="translate(-137.659 285.91) scale(2.10696)" ns0:preamble="/home/waldgeist/sandbox/homepage/inkscape-preamble.tex" ns0:text="3" fill="green" stroke="green" stroke-width="4"><defs><symbol id="n" overflow="visible"><path d="M2.89-3.516c.813-.265 1.391-.953 1.391-1.75 0-.812-.875-1.375-1.828-1.375-1 0-1.765.594-1.765 1.36 0 .328.218.515.515.515.297 0 .5-.218.5-.515 0-.485-.469-.485-.61-.485.298-.5.954-.625 1.313-.625.422 0 .969.22.969 1.11 0 .125-.031.703-.281 1.14-.297.485-.64.516-.89.516a3.29 3.29 0 0 1-.392.031c-.078.016-.14.031-.14.125 0 .11.062.11.234.11h.438c.812 0 1.187.671 1.187 1.656 0 1.36-.687 1.64-1.125 1.64-.437 0-1.187-.171-1.531-.75.344.047.656-.171.656-.546a.537.537 0 0 0-.547-.563c-.25 0-.562.14-.562.578C.422-.437 1.344.22 2.437.22c1.22 0 2.126-.906 2.126-1.922 0-.813-.641-1.594-1.672-1.813z" stroke="none"/></symbol></defs><use y="134.765" x="223.432" xlink:href="#n" width="744.094" height="1052.362" fill="#000"/></g><g ns0:text="6" ns0:preamble="/home/waldgeist/sandbox/homepage/inkscape-preamble.tex" transform="translate(-73.608 285.91) scale(2.10696)" fill="green" stroke="green" stroke-width="4"><defs><symbol overflow="visible" id="o"><path d="M1.313-3.266v-.25c0-2.515 1.234-2.875 1.75-2.875.234 0 .656.063.874.407-.156 0-.546 0-.546.437 0 .313.234.469.453.469.156 0 .469-.094.469-.484 0-.594-.438-1.079-1.266-1.079C1.766-6.64.422-5.359.422-3.156.422-.484 1.578.219 2.5.219c1.11 0 2.063-.938 2.063-2.25 0-1.266-.891-2.219-2-2.219-.672 0-1.047.5-1.25.984zM2.5-.062c-.625 0-.922-.594-.984-.75-.188-.47-.188-1.266-.188-1.438 0-.781.328-1.781 1.219-1.781.172 0 .625 0 .937.625.172.36.172.875.172 1.36 0 .483 0 .983-.172 1.343-.296.594-.75.64-.984.64z" stroke="none"/></symbol></defs><use xlink:href="#o" x="223.432" y="134.765" width="744.094" height="1052.362" fill="#000"/></g><g transform="translate(-9.557 285.91) scale(2.10696)" ns0:preamble="/home/waldgeist/sandbox/homepage/inkscape-preamble.tex" ns0:text="9" fill="green" stroke="green" stroke-width="4"><defs><symbol id="p" overflow="visible"><path d="M3.656-3.172v.328c0 2.328-1.031 2.781-1.61 2.781-.171 0-.718-.015-.983-.359.437 0 .515-.281.515-.453 0-.313-.234-.453-.453-.453-.156 0-.453.078-.453.469 0 .671.531 1.078 1.375 1.078 1.297 0 2.515-1.36 2.515-3.5 0-2.688-1.156-3.36-2.046-3.36-.547 0-1.032.188-1.454.625-.421.454-.64.875-.64 1.625 0 1.235.875 2.22 1.984 2.22.61 0 1.016-.423 1.25-1zm-1.234.766c-.156 0-.625 0-.922-.625-.188-.375-.188-.86-.188-1.36 0-.53 0-1 .22-1.375.265-.5.64-.625.984-.625.468 0 .796.344.968.782.11.328.157.953.157 1.406 0 .828-.344 1.797-1.22 1.797z" stroke="none"/></symbol></defs><use y="134.765" x="223.432" xlink:href="#p" width="744.094" height="1052.362" fill="#000"/></g><g ns0:text="12" ns0:preamble="/home/waldgeist/sandbox/homepage/inkscape-preamble.tex" transform="translate(48.851 286.14) scale(2.10696)" fill="green" stroke="green" stroke-width="4"><defs><symbol overflow="visible" id="q"><path d="M2.938-6.375c0-.25 0-.266-.235-.266C2.078-6 1.203-6 .891-6v.313c.203 0 .78 0 1.296-.266v5.172c0 .36-.03.469-.921.469H.953V0c.344-.031 1.203-.031 1.61-.031.39 0 1.265 0 1.609.031v-.313h-.313c-.906 0-.921-.109-.921-.468z" stroke="none"/></symbol><symbol overflow="visible" id="r"><path d="M1.266-.766l1.062-1.03c1.547-1.376 2.14-1.907 2.14-2.907 0-1.14-.89-1.938-2.109-1.938A1.843 1.843 0 0 0 .5-4.828c0 .547.5.547.531.547.172 0 .516-.11.516-.532a.513.513 0 0 0-.531-.515c-.079 0-.094 0-.125.016.218-.657.765-1.016 1.343-1.016.907 0 1.329.812 1.329 1.625 0 .797-.485 1.578-1.047 2.203L.609-.375C.5-.265.5-.235.5 0h3.703l.266-1.734h-.235C4.172-1.438 4.11-1 4-.844c-.063.078-.719.078-.938.078z" stroke="none"/></symbol></defs><g fill="#000"><use xlink:href="#q" x="223.432" y="134.765" width="744.094" height="1052.362"/><use xlink:href="#r" x="228.413" y="134.765" width="744.094" height="1052.362"/></g></g><g transform="translate(112.902 285.91) scale(2.10696)" ns0:preamble="/home/waldgeist/sandbox/homepage/inkscape-preamble.tex" ns0:text="15" fill="green" stroke="green" stroke-width="4"><defs><symbol id="s" overflow="visible"><path d="M2.938-6.375c0-.25 0-.266-.235-.266C2.078-6 1.203-6 .891-6v.313c.203 0 .78 0 1.296-.266v5.172c0 .36-.03.469-.921.469H.953V0c.344-.031 1.203-.031 1.61-.031.39 0 1.265 0 1.609.031v-.313h-.313c-.906 0-.921-.109-.921-.468z" stroke="none"/></symbol><symbol id="t" overflow="visible"><path d="M4.469-2c0-1.188-.813-2.188-1.89-2.188-.47 0-.907.157-1.267.516v-1.953c.204.063.532.125.844.125 1.235 0 1.938-.906 1.938-1.031 0-.063-.032-.11-.11-.11 0 0-.03 0-.078.032a3.22 3.22 0 0 1-1.36.296 3.4 3.4 0 0 1-1.327-.28c-.078-.032-.094-.032-.11-.032C1-6.625 1-6.547 1-6.391v2.954c0 .171 0 .25.14.25.079 0 .094-.016.141-.079.11-.156.469-.703 1.282-.703.515 0 .765.453.843.64.156.376.188.75.188 1.25 0 .36 0 .954-.25 1.376-.235.39-.61.64-1.063.64-.719 0-1.297-.53-1.469-1.109.032 0 .063.016.172.016.329 0 .5-.25.5-.485 0-.25-.171-.5-.5-.5-.14 0-.484.079-.484.532C.5-.75 1.188.219 2.297.219 3.453.219 4.469-.734 4.469-2z" stroke="none"/></symbol></defs><g fill="#000"><use y="134.765" x="223.432" xlink:href="#s" width="744.094" height="1052.362"/><use y="134.765" x="228.413" xlink:href="#t" width="744.094" height="1052.362"/></g></g><g ns0:text="Masse $m$" ns0:preamble="/home/waldgeist/sandbox/homepage/inkscape-preamble.tex" transform="translate(-331.499 273.856) scale(2.10696)" fill="green" stroke="green" stroke-width="4"><defs><symbol overflow="visible" id="u"><path d="M2.406-6.594c-.094-.218-.125-.218-.36-.218H.376v.312H.61c.766 0 .782.11.782.469v4.984c0 .266 0 .734-1.016.734V0c.344-.016.828-.031 1.156-.031.328 0 .828.015 1.172.031v-.313c-1.031 0-1.031-.468-1.031-.734v-5.375h.016L4.094-.219c.047.125.093.219.187.219.11 0 .14-.078.188-.188L6.922-6.5v5.719c0 .36-.016.469-.781.469h-.235V0c.36-.031 1.047-.031 1.438-.031.375 0 1.047 0 1.422.031v-.313h-.25c-.766 0-.782-.109-.782-.468v-5.25c0-.36.016-.469.782-.469h.25v-.313H7.078c-.266 0-.266.016-.328.188L4.562-1z" stroke="none"/></symbol><symbol overflow="visible" id="v"><path d="M3.313-.75c.046.39.312.813.78.813.22 0 .829-.141.829-.954v-.562h-.25v.562c0 .579-.25.641-.36.641-.328 0-.375-.453-.375-.5v-1.984c0-.422 0-.813-.359-1.188a1.9 1.9 0 0 0-1.36-.547C1.391-4.469.703-4 .703-3.344c0 .297.203.469.469.469a.435.435 0 0 0 .453-.453c0-.125-.047-.453-.516-.453.282-.36.766-.469 1.079-.469.5 0 1.062.39 1.062 1.281v.36c-.516.03-1.203.062-1.828.359-.75.344-1 .86-1 1.297 0 .812.969 1.062 1.594 1.062A1.38 1.38 0 0 0 3.312-.75zM3.25-2.39v1c0 .937-.719 1.28-1.172 1.28-.484 0-.89-.343-.89-.843 0-.547.421-1.375 2.062-1.438z" stroke="none"/></symbol><symbol overflow="visible" id="w"><path d="M2.078-1.938c.219.047 1.031.204 1.031.922 0 .5-.343.907-1.125.907-.843 0-1.203-.563-1.39-1.422-.031-.125-.031-.157-.14-.157-.126 0-.126.063-.126.235v1.328c0 .172 0 .234.11.234C.483.11.5.094.688-.094.703-.109.703-.125.89-.312c.437.406.89.421 1.093.421 1.141 0 1.61-.671 1.61-1.39 0-.516-.297-.828-.422-.938-.328-.328-.719-.406-1.14-.484-.563-.11-1.22-.235-1.22-.813 0-.359.25-.765 1.11-.765 1.094 0 1.156.906 1.172 1.203 0 .094.094.094.11.094.14 0 .14-.047.14-.235v-1.015c0-.157 0-.235-.11-.235-.046 0-.078 0-.203.125a1.676 1.676 0 0 1-.172.157c-.375-.282-.78-.282-.937-.282-1.219 0-1.594.672-1.594 1.235 0 .343.156.625.422.843.328.25.61.313 1.328.454z" stroke="none"/></symbol><symbol overflow="visible" id="x"><path d="M1.11-2.516C1.171-4 2.015-4.25 2.36-4.25c1.015 0 1.124 1.344 1.124 1.734zm0 .22h2.78c.22 0 .25 0 .25-.22 0-.984-.546-1.953-1.78-1.953-1.158 0-2.08 1.032-2.08 2.282C.281-.86 1.328.108 2.47.108 3.688.11 4.14-1 4.14-1.187c0-.094-.079-.125-.141-.125-.078 0-.11.062-.125.14C3.531-.14 2.625-.14 2.531-.14c-.5 0-.89-.296-1.125-.671-.297-.47-.297-1.125-.297-1.485z" stroke="none"/></symbol><symbol overflow="visible" id="y"><path d="M.875-.594c-.031.156-.094.39-.094.438 0 .172.14.265.297.265a.414.414 0 0 0 .375-.28c0-.016.125-.485.188-.735l.218-.89c.047-.235.11-.454.172-.673.031-.172.11-.469.125-.5.14-.312.672-1.219 1.625-1.219.453 0 .531.375.531.704 0 .25-.062.53-.14.828L3.89-1.5l-.204.75c-.03.203-.124.547-.124.594 0 .172.14.265.28.265.313 0 .376-.25.454-.562.14-.563.516-2.016.594-2.406.03-.125.562-1.329 1.656-1.329.422 0 .531.344.531.704 0 .562-.422 1.703-.625 2.234-.078.234-.125.344-.125.547 0 .469.344.812.813.812.937 0 1.312-1.453 1.312-1.53 0-.11-.094-.11-.125-.11-.094 0-.094.031-.14.187-.157.532-.47 1.235-1.016 1.235-.172 0-.25-.094-.25-.329 0-.25.094-.484.187-.703.188-.53.61-1.625.61-2.203 0-.64-.407-1.062-1.157-1.062-.734 0-1.25.437-1.625.968 0-.124-.03-.468-.312-.703-.25-.218-.563-.265-.813-.265-.906 0-1.39.64-1.562.875-.047-.578-.469-.875-.922-.875-.453 0-.64.39-.734.562a4.68 4.68 0 0 0-.297.969c0 .11.094.11.11.11.109 0 .109-.016.171-.235.172-.703.375-1.188.735-1.188.156 0 .296.079.296.454 0 .218-.03.328-.156.843z" stroke="none"/></symbol></defs><g fill="#000"><use height="1052.362" width="744.094" xlink:href="#u" x="223.432" y="134.765"/><use height="1052.362" width="744.094" xlink:href="#v" x="232.565" y="134.765"/><use height="1052.362" width="744.094" xlink:href="#w" x="237.546" y="134.765"/><use height="1052.362" width="744.094" xlink:href="#w" x="241.475" y="134.765"/><use height="1052.362" width="744.094" xlink:href="#x" x="245.405" y="134.765"/><use height="1052.362" width="744.094" xlink:href="#y" x="253.154" y="134.765"/></g></g><g ns0:text="Anzahl $n$" ns0:preamble="/home/waldgeist/sandbox/homepage/inkscape-preamble.tex" stroke="#d40000" stroke-width="4"><path d="M146.056 467.9c-.099-.264-.164-.429-.494-.429-.329 0-.395.132-.493.428l-4.346 12.543c-.395 1.087-1.218 1.416-2.37 1.416v.658a37.963 37.963 0 0 1 2.14-.066c.658 0 1.744.033 2.436.066v-.658c-1.054 0-1.58-.527-1.58-1.054 0-.065.032-.296.032-.329l.988-2.732h5.169l1.119 3.193c.033.099.066.23.066.296 0 .626-1.185.626-1.745.626v.658c.757-.066 2.239-.066 3.029-.066.889 0 1.876.033 2.732.066v-.658h-.362c-1.25 0-1.547-.132-1.778-.823zm-1.12 2.337l2.371 6.847H142.6zm10.806 5.07v5.63c0 .92-.23.92-1.646.92v.66c.757-.034 1.81-.067 2.403-.067.527 0 1.613.033 2.337.066v-.658c-1.415 0-1.646 0-1.646-.922v-3.885c0-2.172 1.515-3.358 2.832-3.358 1.35 0 1.58 1.12 1.58 2.338v4.905c0 .922-.23.922-1.646.922v.658c.724-.033 1.81-.066 2.37-.066.527 0 1.646.033 2.337.066v-.658c-1.086 0-1.613 0-1.613-.626v-4.016c0-1.81 0-2.436-.658-3.193-.296-.362-.988-.79-2.206-.79-1.547 0-2.535.888-3.127 2.205v-2.205l-2.963.23v.658c1.481 0 1.646.132 1.646 1.186zm17.555-1.219c.198-.23.198-.263.198-.362 0-.263-.198-.263-.56-.263h-6.716l-.23 3.39h.526c.132-2.139.527-2.93 2.832-2.93h2.403l-5.86 7.935c-.198.23-.198.263-.198.362 0 .296.132.296.527.296h6.946l.363-3.917H173c-.198 2.469-.626 3.39-3.062 3.39h-2.502zm8.11 6.848c.1.823.659 1.712 1.646 1.712.461 0 1.745-.296 1.745-2.008v-1.185h-.527v1.185c0 1.218-.526 1.35-.757 1.35-.691 0-.79-.955-.79-1.054v-4.18c0-.89 0-1.713-.757-2.503-.823-.823-1.877-1.152-2.864-1.152-1.745 0-3.194.987-3.194 2.37 0 .626.428.988.988.988.593 0 .955-.428.955-.955 0-.263-.099-.955-1.087-.955.593-.757 1.614-.987 2.272-.987 1.053 0 2.239.823 2.239 2.7v.756c-1.087.066-2.535.132-3.852.758-1.58.724-2.107 1.81-2.107 2.732 0 1.712 2.041 2.239 3.358 2.239a2.911 2.911 0 0 0 2.732-1.81zm-.131-3.457v2.107c0 1.976-1.515 2.7-2.47 2.7-1.02 0-1.876-.724-1.876-1.778 0-1.152.889-2.897 4.346-3.029zm5.952 3.457c0 .922-.23.922-1.646.922v.658a67.45 67.45 0 0 1 2.403-.066c.527 0 1.613.033 2.337.066v-.658c-1.415 0-1.646 0-1.646-.922v-3.885c0-2.172 1.515-3.358 2.832-3.358 1.35 0 1.58 1.12 1.58 2.338v4.905c0 .922-.23.922-1.646.922v.658c.724-.033 1.81-.066 2.37-.066.527 0 1.646.033 2.338.066v-.658c-1.087 0-1.614 0-1.614-.626v-4.016c0-1.81 0-2.436-.658-3.193-.296-.362-.988-.79-2.206-.79-1.777 0-2.7 1.25-3.061 2.074v-7.375l-3.03.23v.66c1.482 0 1.647.13 1.647 1.184zm13.078-13.004l-3.029.23v.66c1.482 0 1.646.13 1.646 1.184v10.93c0 .922-.23.922-1.646.922v.658c.692-.033 1.81-.066 2.338-.066.526 0 1.547.033 2.337.066v-.658c-1.416 0-1.646 0-1.646-.922zM211.256 481.265c-.065.33-.197.823-.197.922 0 .362.296.56.625.56.264 0 .626-.165.79-.593 0-.033.264-1.02.396-1.547l.46-1.877c.1-.493.231-.954.363-1.415.066-.362.23-.988.263-1.054.296-.658 1.416-2.568 3.424-2.568.955 0 1.12.79 1.12 1.482 0 1.284-1.021 3.983-1.35 4.872-.198.494-.231.757-.231.988 0 .987.757 1.712 1.745 1.712 1.975 0 2.732-3.062 2.732-3.227 0-.23-.164-.23-.23-.23-.23 0-.23.066-.33.395-.427 1.416-1.119 2.6-2.14 2.6-.361 0-.493-.197-.493-.69 0-.527.164-1.021.362-1.482.395-1.12 1.284-3.424 1.284-4.642 0-1.383-.889-2.238-2.403-2.238-1.91 0-2.93 1.35-3.292 1.843-.1-1.185-.955-1.843-1.943-1.843-.955 0-1.35.823-1.547 1.185-.362.724-.626 1.975-.626 2.04 0 .231.198.231.23.231.231 0 .231-.033.363-.494.362-1.481.79-2.502 1.547-2.502.395 0 .626.264.626.955 0 .461-.066.691-.33 1.778z" stroke="none"/></g><g transform="translate(-339.506 222.359) scale(2.10696)" ns0:preamble="/home/waldgeist/sandbox/homepage/inkscape-preamble.tex" ns0:text="an Steinen" fill="#d40000" stroke="#d40000" stroke-width="4"><defs><symbol id="z" overflow="visible"><path d="M3.313-.75c.046.39.312.813.78.813.22 0 .829-.141.829-.954v-.562h-.25v.562c0 .579-.25.641-.36.641-.328 0-.375-.453-.375-.5v-1.984c0-.422 0-.813-.359-1.188a1.9 1.9 0 0 0-1.36-.547C1.391-4.469.703-4 .703-3.344c0 .297.203.469.469.469a.435.435 0 0 0 .453-.453c0-.125-.047-.453-.516-.453.282-.36.766-.469 1.079-.469.5 0 1.062.39 1.062 1.281v.36c-.516.03-1.203.062-1.828.359-.75.344-1 .86-1 1.297 0 .812.969 1.062 1.594 1.062A1.38 1.38 0 0 0 3.312-.75zM3.25-2.39v1c0 .937-.719 1.28-1.172 1.28-.484 0-.89-.343-.89-.843 0-.547.421-1.375 2.062-1.438z" stroke="none"/></symbol><symbol id="A" overflow="visible"><path d="M1.094-3.422V-.75c0 .438-.11.438-.782.438V0c.36-.016.86-.031 1.141-.031.25 0 .766.015 1.11.031v-.313c-.672 0-.782 0-.782-.437v-1.844c0-1.031.719-1.594 1.344-1.594.64 0 .75.532.75 1.11V-.75c0 .438-.11.438-.781.438V0c.344-.016.86-.031 1.125-.031.25 0 .781.015 1.11.031v-.313c-.516 0-.766 0-.766-.296v-1.907c0-.859 0-1.156-.313-1.515-.14-.172-.469-.375-1.047-.375-.734 0-1.203.422-1.484 1.047v-1.047l-1.407.11v.312c.704 0 .782.062.782.562z" stroke="none"/></symbol><symbol id="B" overflow="visible"><path d="M3.484-3.875l-1.28-.297c-.626-.156-1-.687-1-1.266 0-.703.53-1.312 1.312-1.312 1.656 0 1.875 1.64 1.937 2.078.016.063.016.125.125.125.125 0 .125-.047.125-.234v-2c0-.172 0-.25-.11-.25-.062 0-.077.015-.14.14l-.36.563c-.296-.297-.702-.703-1.593-.703-1.11 0-1.938.875-1.938 1.937 0 .828.532 1.563 1.297 1.828.11.032.625.157 1.329.329.265.062.562.14.843.5.203.265.313.593.313.921 0 .704-.5 1.422-1.344 1.422-.281 0-1.047-.047-1.578-.531-.578-.547-.61-1.172-.61-1.531-.015-.11-.093-.11-.125-.11-.125 0-.125.079-.125.25v2c0 .172 0 .235.11.235.062 0 .078-.016.14-.125 0-.016.032-.047.36-.578.312.343.953.703 1.844.703 1.156 0 1.953-.969 1.953-2.078 0-.985-.657-1.813-1.485-2.016z" stroke="none"/></symbol><symbol id="C" overflow="visible"><path d="M1.719-3.984h1.437v-.313H1.72v-1.828h-.25c0 .813-.297 1.875-1.282 1.922v.219h.844v2.75c0 1.218.938 1.343 1.297 1.343.703 0 .985-.703.985-1.343v-.563h-.25v.547c0 .734-.297 1.11-.672 1.11-.672 0-.672-.907-.672-1.079z" stroke="none"/></symbol><symbol id="D" overflow="visible"><path d="M1.11-2.516C1.171-4 2.015-4.25 2.36-4.25c1.015 0 1.124 1.344 1.124 1.734zm0 .22h2.78c.22 0 .25 0 .25-.22 0-.984-.546-1.953-1.78-1.953-1.158 0-2.08 1.032-2.08 2.282C.281-.86 1.328.108 2.47.108 3.688.11 4.14-1 4.14-1.187c0-.094-.079-.125-.141-.125-.078 0-.11.062-.125.14C3.531-.14 2.625-.14 2.531-.14c-.5 0-.89-.296-1.125-.671-.297-.47-.297-1.125-.297-1.485z" stroke="none"/></symbol><symbol id="E" overflow="visible"><path d="M1.766-4.406l-1.391.11v.312c.64 0 .734.062.734.546V-.75c0 .438-.109.438-.78.438V0c.312-.016.859-.031 1.093-.031.36 0 .703.015 1.047.031v-.313c-.672 0-.703-.046-.703-.437zm.03-1.735a.514.514 0 0 0-.515-.53.537.537 0 0 0-.531.53c0 .266.219.532.531.532a.514.514 0 0 0 .516-.532z" stroke="none"/></symbol></defs><g fill="#000"><use y="134.765" x="223.432" xlink:href="#z" width="744.094" height="1052.362"/><use y="134.765" x="228.413" xlink:href="#A" width="744.094" height="1052.362"/><use y="134.765" x="237.266" xlink:href="#B" width="744.094" height="1052.362"/><use y="134.765" x="242.801" xlink:href="#C" width="744.094" height="1052.362"/><use y="134.765" x="246.676" xlink:href="#D" width="744.094" height="1052.362"/><use y="134.765" x="251.103" xlink:href="#E" width="744.094" height="1052.362"/><use y="134.765" x="253.871" xlink:href="#A" width="744.094" height="1052.362"/><use y="134.765" x="259.406" xlink:href="#D" width="744.094" height="1052.362"/><use y="134.765" x="263.833" xlink:href="#A" width="744.094" height="1052.362"/></g></g></svg>