<svg xmlns:ns0="http://www.iki.fi/pav/software/textext/" xmlns="http://www.w3.org/2000/svg" xmlns:xlink="http://www.w3.org/1999/xlink" width="744.094" height="1052.362"><title>Definitionsmenge -- Wertemenge</title><defs><marker orient="auto" id="b" overflow="visible"><path d="M-1.2 0l-1 1 3.5-1-3.5-1 1 1z" fill-rule="evenodd" stroke="#000" stroke-width=".2pt"/></marker></defs><path fill="#fff" d="M50.622 345.231h642.851v361.901H50.622z"/><path transform="matrix(.76192 0 0 .77243 30.073 238.603)" d="M365.714 386.648a142.857 142.857 0 1 1-285.714 0 142.857 142.857 0 1 1 285.714 0z" fill="#e6e6e6" stroke="#333" stroke-width="1.955"/><path transform="matrix(.7744 0 0 .59953 126.87 277.099)" d="M665.714 389.505a97.143 228.571 0 1 1-194.285 0 97.143 228.571 0 1 1 194.285 0z" fill="#e6e6e6" stroke="#333" stroke-width="2.201"/><path id="a" d="M228.286 566.457a6.02 6.02 0 1 1-12.04 0 6.02 6.02 0 1 1 12.04 0z" stroke="#333" stroke-width="1.757" stroke-linecap="round"/><use xlink:href="#a" transform="translate(353.093 -49.57)" width="744.094" height="1052.362"/><path d="M234.867 562.386c90.437-42.434 203.538-53.462 316.493-48.597" fill="none" stroke="#000" stroke-width="4" marker-end="url(#b)"/><g transform="translate(-50.428 203.404) scale(2.58547)" ns0:text="$y = f (x)$"><defs><symbol overflow="visible" id="c"><path d="M4.844-3.797c.047-.14.047-.156.047-.234 0-.172-.141-.266-.297-.266a.455.455 0 0 0-.344.203c-.016.063-.11.36-.14.547-.079.25-.141.531-.204.797L3.453-.953c-.031.14-.469.844-1.125.844-.5 0-.61-.438-.61-.813 0-.453.173-1.078.5-1.953.157-.406.204-.516.204-.719 0-.437-.313-.812-.813-.812-.953 0-1.312 1.453-1.312 1.531 0 .11.094.11.11.11.109 0 .109-.032.156-.188.28-.938.671-1.235 1.015-1.235.078 0 .25 0 .25.313 0 .25-.11.516-.172.703-.406 1.063-.578 1.625-.578 2.094 0 .89.625 1.187 1.219 1.187.39 0 .719-.171 1-.453-.125.516-.25 1.016-.64 1.547-.266.328-.641.625-1.095.625-.14 0-.593-.031-.765-.422.156 0 .297 0 .422-.125a.493.493 0 0 0 .203-.406c0-.313-.266-.344-.36-.344C.829.531.5.687.5 1.171c0 .5.438.876 1.063.876 1.015 0 2.046-.906 2.328-2.031zm0 0"/></symbol><symbol overflow="visible" id="e"><path d="M3.656-3.984h.86c.203 0 .296 0 .296-.204 0-.109-.093-.109-.265-.109h-.828l.203-1.14c.047-.204.187-.907.25-1.032.078-.187.25-.343.469-.343.03 0 .296 0 .484.187a.557.557 0 0 0-.547.531c0 .235.188.36.375.36.266 0 .547-.235.547-.61 0-.453-.453-.687-.86-.687-.343 0-.968.187-1.265 1.172-.063.203-.094.312-.328 1.562h-.688c-.203 0-.312 0-.312.188 0 .125.094.125.281.125h.656L2.25-.047c-.188.969-.36 1.875-.875 1.875-.047 0-.281 0-.484-.187.468-.032.562-.391.562-.532 0-.234-.187-.359-.375-.359-.266 0-.547.234-.547.61 0 .437.438.687.844.687.547 0 .953-.594 1.125-.969.328-.625.547-1.828.563-1.906zm0 0"/></symbol><symbol overflow="visible" id="g"><path d="M3.328-3.016c.063-.25.297-1.171.985-1.171.046 0 .296 0 .5.125a.578.578 0 0 0-.47.546c0 .157.11.344.376.344a.546.546 0 0 0 .531-.578c0-.516-.578-.656-.922-.656-.578 0-.922.531-1.047.75-.25-.656-.781-.75-1.078-.75-1.031 0-1.61 1.281-1.61 1.531 0 .11.11.11.126.11.078 0 .11-.032.125-.11.344-1.063 1-1.313 1.344-1.313.187 0 .53.094.53.672 0 .313-.171.97-.53 2.375-.157.61-.516 1.032-.954 1.032-.062 0-.28 0-.5-.125.25-.063.47-.266.47-.547 0-.266-.22-.344-.36-.344-.313 0-.547.25-.547.578 0 .453.484.656.922.656.672 0 1.031-.703 1.047-.75.125.36.484.75 1.078.75 1.031 0 1.594-1.28 1.594-1.53 0-.11-.079-.11-.11-.11-.094 0-.11.047-.14.11-.329 1.077-1 1.312-1.313 1.312-.39 0-.547-.313-.547-.657 0-.218.047-.437.156-.875zm0 0"/></symbol><symbol overflow="visible" id="d"><path d="M6.844-3.266c.156 0 .343 0 .343-.187 0-.203-.187-.203-.328-.203H.891c-.141 0-.329 0-.329.203 0 .187.188.187.329.187zm.015 1.938c.141 0 .329 0 .329-.203 0-.188-.188-.188-.344-.188H.89c-.141 0-.329 0-.329.188 0 .203.188.203.329.203zm0 0"/></symbol><symbol overflow="visible" id="f"><path d="M3.297 2.39c0-.03 0-.046-.172-.218C1.891.922 1.562-.968 1.562-2.5c0-1.734.375-3.469 1.61-4.703.125-.125.125-.14.125-.172 0-.078-.031-.11-.094-.11-.11 0-1 .688-1.594 1.954C1.11-4.438.984-3.328.984-2.5c0 .781.11 1.984.657 3.125C2.25 1.844 3.094 2.5 3.203 2.5c.063 0 .094-.031.094-.11zm0 0"/></symbol><symbol overflow="visible" id="h"><path d="M2.875-2.5c0-.766-.11-1.969-.656-3.11C1.625-6.827.766-7.483.672-7.483a.107.107 0 0 0-.11.109c0 .031 0 .047.188.234.984.985 1.547 2.563 1.547 4.641C2.297-.78 1.937.97.703 2.22c-.14.125-.14.14-.14.172 0 .062.046.109.109.109.094 0 1-.688 1.578-1.953.516-1.094.625-2.203.625-3.047zm0 0"/></symbol></defs><use xlink:href="#c" x="223.432" y="134.765" width="744.094" height="1052.362"/><use xlink:href="#d" x="231.441" y="134.765" width="744.094" height="1052.362"/><use xlink:href="#e" x="241.957" y="134.765" width="744.094" height="1052.362"/><use xlink:href="#f" x="247.907" y="134.765" width="744.094" height="1052.362"/><use xlink:href="#g" x="251.782" y="134.765" width="744.094" height="1052.362"/><use xlink:href="#h" x="257.476" y="134.765" width="744.094" height="1052.362"/></g><g transform="translate(-227.038 203.564) scale(2.58547)" ns0:text="Funktion $f$"><defs><symbol overflow="visible" id="i"><path d="M5.797-6.781H.328v.312h.234c.766 0 .797.11.797.469v5.219c0 .36-.03.469-.796.469H.328V0c.344-.031 1.125-.031 1.516-.031.406 0 1.312 0 1.672.031v-.313h-.329c-.937 0-.937-.124-.937-.468v-2.453h.844c.969 0 1.062.312 1.062 1.156h.25v-2.64h-.25c0 .843-.093 1.171-1.062 1.171H2.25v-2.531c0-.328.016-.39.484-.39h1.188c1.5 0 1.75.562 1.906 1.937h.25zm0 0"/></symbol><symbol overflow="visible" id="j"><path d="M3.89-.781v.89L5.329 0v-.313c-.687 0-.766-.062-.766-.562v-3.531l-1.468.11v.312c.687 0 .781.062.781.562v1.766c0 .875-.484 1.547-1.219 1.547-.828 0-.875-.47-.875-.985v-3.312l-1.468.11v.312c.78 0 .78.03.78.906v1.5c0 .781 0 1.687 1.516 1.687.563 0 1-.28 1.282-.89zm0 0"/></symbol><symbol overflow="visible" id="k"><path d="M1.094-3.422V-.75c0 .438-.11.438-.782.438V0c.36-.016.86-.031 1.141-.031.25 0 .766.015 1.11.031v-.313c-.672 0-.782 0-.782-.437v-1.844c0-1.031.719-1.594 1.344-1.594.64 0 .75.532.75 1.11V-.75c0 .438-.11.438-.781.438V0c.344-.016.86-.031 1.125-.031.25 0 .781.015 1.11.031v-.313c-.516 0-.766 0-.766-.296v-1.907c0-.859 0-1.156-.313-1.515-.14-.172-.469-.375-1.047-.375-.734 0-1.203.422-1.484 1.047v-1.047l-1.407.11v.312c.704 0 .782.062.782.562zm0 0"/></symbol><symbol overflow="visible" id="l"><path d="M1.063-.75c0 .438-.11.438-.782.438V0a26.45 26.45 0 0 1 1.078-.031c.313 0 .704.015 1.11.031v-.313c-.672 0-.781 0-.781-.437v-1.031l.64-.547c.766 1.047 1.188 1.61 1.188 1.797 0 .187-.172.219-.36.219V0c.266-.016.86-.031 1.078-.031.282 0 .579.015.86.031v-.313c-.375 0-.594 0-.969-.53L2.859-2.626c-.015-.016-.062-.078-.062-.11 0-.03.719-.64.812-.718.625-.5 1.047-.531 1.25-.531v-.313c-.28.031-.406.031-.687.031-.36 0-.984-.015-1.125-.03v.312c.187 0 .297.109.297.25 0 .203-.14.312-.219.39L1.719-2.14v-4.78L.28-6.813v.312c.703 0 .781.063.781.563zm0 0"/></symbol><symbol overflow="visible" id="m"><path d="M1.719-3.984h1.437v-.313H1.72v-1.828h-.25c0 .813-.297 1.875-1.282 1.922v.219h.844v2.75c0 1.218.938 1.343 1.297 1.343.703 0 .985-.703.985-1.343v-.563h-.25v.547c0 .734-.297 1.11-.672 1.11-.672 0-.672-.907-.672-1.079zm0 0"/></symbol><symbol overflow="visible" id="n"><path d="M1.766-4.406l-1.391.11v.312c.64 0 .734.062.734.546V-.75c0 .438-.109.438-.78.438V0c.312-.016.859-.031 1.093-.031.36 0 .703.015 1.047.031v-.313c-.672 0-.703-.046-.703-.437zm.03-1.735a.514.514 0 0 0-.515-.53.537.537 0 0 0-.531.53c0 .266.219.532.531.532a.514.514 0 0 0 .516-.532zm0 0"/></symbol><symbol overflow="visible" id="o"><path d="M4.688-2.14c0-1.266-.985-2.329-2.188-2.329C1.25-4.469.281-3.375.281-2.14A2.22 2.22 0 0 0 2.484.11c1.204 0 2.204-.984 2.204-2.25zM2.5-.14c-.438 0-.875-.204-1.14-.672-.25-.438-.25-1.047-.25-1.407 0-.39 0-.922.234-1.36a1.347 1.347 0 0 1 1.14-.671c.438 0 .86.219 1.125.656.266.422.266 1 .266 1.375 0 .36 0 .906-.219 1.344-.234.453-.672.734-1.156.734zm0 0"/></symbol><symbol overflow="visible" id="p"><path d="M3.656-3.984h.86c.203 0 .296 0 .296-.204 0-.109-.093-.109-.265-.109h-.828l.203-1.14c.047-.204.187-.907.25-1.032.078-.187.25-.343.469-.343.03 0 .296 0 .484.187a.557.557 0 0 0-.547.531c0 .235.188.36.375.36.266 0 .547-.235.547-.61 0-.453-.453-.687-.86-.687-.343 0-.968.187-1.265 1.172-.063.203-.094.312-.328 1.562h-.688c-.203 0-.312 0-.312.188 0 .125.094.125.281.125h.656L2.25-.047c-.188.969-.36 1.875-.875 1.875-.047 0-.281 0-.484-.187.468-.032.562-.391.562-.532 0-.234-.187-.359-.375-.359-.266 0-.547.234-.547.61 0 .437.438.687.844.687.547 0 .953-.594 1.125-.969.328-.625.547-1.828.563-1.906zm0 0"/></symbol></defs><use height="1052.362" width="744.094" xlink:href="#i" x="223.432" y="134.765"/><use height="1052.362" width="744.094" xlink:href="#j" x="229.109" y="134.765"/><use height="1052.362" width="744.094" xlink:href="#k" x="234.644" y="134.765"/><use height="1052.362" width="744.094" xlink:href="#l" x="240.179" y="134.765"/><use height="1052.362" width="744.094" xlink:href="#m" x="245.437" y="134.765"/><use height="1052.362" width="744.094" xlink:href="#n" x="249.312" y="134.765"/><use height="1052.362" width="744.094" xlink:href="#o" x="252.079" y="134.765"/><use height="1052.362" width="744.094" xlink:href="#k" x="257.061" y="134.765"/><use height="1052.362" width="744.094" xlink:href="#p" x="265.912" y="134.765"/></g><g ns0:preamble="/home/waldgeist/data/sphinx/test.tex" ns0:text="\nDefinitionsmenge $\\mathbb{D}$" transform="translate(-526.573 325.396) scale(2.58547)"><defs><symbol id="q" overflow="visible"><path d="M.344-6.813v.313h.25c.765 0 .781.11.781.469v5.25c0 .36-.016.469-.781.469h-.25V0H4c1.672 0 3.047-1.469 3.047-3.344C7.047-5.25 5.703-6.813 4-6.813zm2.375 6.5c-.469 0-.485-.062-.485-.39v-5.39c0-.345.016-.407.485-.407h1c.625 0 1.312.219 1.812.922.438.594.516 1.453.516 2.234 0 1.094-.188 1.703-.547 2.188a2.192 2.192 0 0 1-1.766.843zm0 0"/></symbol><symbol id="r" overflow="visible"><path d="M1.11-2.516C1.171-4 2.015-4.25 2.36-4.25c1.015 0 1.124 1.344 1.124 1.734zm0 .22h2.78c.22 0 .25 0 .25-.22 0-.984-.546-1.953-1.78-1.953-1.158 0-2.08 1.032-2.08 2.282C.281-.86 1.328.108 2.47.108 3.688.11 4.14-1 4.14-1.187c0-.094-.079-.125-.141-.125-.078 0-.11.062-.125.14C3.531-.14 2.625-.14 2.531-.14c-.5 0-.89-.296-1.125-.671-.297-.47-.297-1.125-.297-1.485zm0 0"/></symbol><symbol id="s" overflow="visible"><path d="M3.297-3.984c.453 0 .515.125.515.53V-.75c0 .438-.109.438-.765.438V0c.328-.016.844-.031 1.094-.031.25 0 .75.015 1.109.031v-.313c-.672 0-.781 0-.781-.437v-3.672l-1.25.094c-.156.016-.172.016-.172.016-.031.015-.047.015-.188.015H1.688v-1.125c0-.984.859-1.39 1.468-1.39.297 0 .656.109.86.328-.407.03-.47.296-.47.468 0 .329.267.454.454.454.234 0 .453-.157.453-.454 0-.593-.547-1.015-1.281-1.015-.922 0-2.11.515-2.11 1.593v1.141H.266v.313h.796V-.75c0 .438-.109.438-.78.438V0c.327-.016.859-.031 1.109-.031S2.125-.016 2.5 0v-.313c-.672 0-.781 0-.781-.437v-3.234zm0 0"/></symbol><symbol id="t" overflow="visible"><path d="M1.094-3.422V-.75c0 .438-.11.438-.782.438V0c.36-.016.86-.031 1.141-.031.25 0 .766.015 1.11.031v-.313c-.672 0-.782 0-.782-.437v-1.844c0-1.031.719-1.594 1.344-1.594.64 0 .75.532.75 1.11V-.75c0 .438-.11.438-.781.438V0c.344-.016.86-.031 1.125-.031.25 0 .781.015 1.11.031v-.313c-.516 0-.766 0-.766-.296v-1.907c0-.859 0-1.156-.313-1.515-.14-.172-.469-.375-1.047-.375-.734 0-1.203.422-1.484 1.047v-1.047l-1.407.11v.312c.704 0 .782.062.782.562zm0 0"/></symbol><symbol id="u" overflow="visible"><path d="M1.766-4.406l-1.391.11v.312c.64 0 .734.062.734.546V-.75c0 .438-.109.438-.78.438V0c.312-.016.859-.031 1.093-.031.36 0 .703.015 1.047.031v-.313c-.672 0-.703-.046-.703-.437zm.03-1.735a.514.514 0 0 0-.515-.53.537.537 0 0 0-.531.53c0 .266.219.532.531.532a.514.514 0 0 0 .516-.532zm0 0"/></symbol><symbol id="v" overflow="visible"><path d="M1.719-3.984h1.437v-.313H1.72v-1.828h-.25c0 .813-.297 1.875-1.282 1.922v.219h.844v2.75c0 1.218.938 1.343 1.297 1.343.703 0 .985-.703.985-1.343v-.563h-.25v.547c0 .734-.297 1.11-.672 1.11-.672 0-.672-.907-.672-1.079zm0 0"/></symbol><symbol id="w" overflow="visible"><path d="M4.688-2.14c0-1.266-.985-2.329-2.188-2.329C1.25-4.469.281-3.375.281-2.14A2.22 2.22 0 0 0 2.484.11c1.204 0 2.204-.984 2.204-2.25zM2.5-.14c-.438 0-.875-.204-1.14-.672-.25-.438-.25-1.047-.25-1.407 0-.39 0-.922.234-1.36a1.347 1.347 0 0 1 1.14-.671c.438 0 .86.219 1.125.656.266.422.266 1 .266 1.375 0 .36 0 .906-.219 1.344-.234.453-.672.734-1.156.734zm0 0"/></symbol><symbol id="x" overflow="visible"><path d="M2.078-1.938c.219.047 1.031.204 1.031.922 0 .5-.343.907-1.125.907-.843 0-1.203-.563-1.39-1.422-.031-.125-.031-.157-.14-.157-.126 0-.126.063-.126.235v1.328c0 .172 0 .234.11.234C.483.11.5.094.688-.094.703-.109.703-.125.89-.312c.437.406.89.421 1.093.421 1.141 0 1.61-.671 1.61-1.39 0-.516-.297-.828-.422-.938-.328-.328-.719-.406-1.14-.484-.563-.11-1.22-.235-1.22-.813 0-.359.25-.765 1.11-.765 1.094 0 1.156.906 1.172 1.203 0 .094.094.094.11.094.14 0 .14-.047.14-.235v-1.015c0-.157 0-.235-.11-.235-.046 0-.078 0-.203.125a1.676 1.676 0 0 1-.172.157c-.375-.282-.78-.282-.937-.282-1.219 0-1.594.672-1.594 1.235 0 .343.156.625.422.843.328.25.61.313 1.328.454zm0 0"/></symbol><symbol id="y" overflow="visible"><path d="M1.094-3.422V-.75c0 .438-.11.438-.782.438V0c.36-.016.86-.031 1.141-.031.25 0 .766.015 1.11.031v-.313c-.672 0-.782 0-.782-.437v-1.844c0-1.031.719-1.594 1.344-1.594.64 0 .75.532.75 1.11V-.75c0 .438-.11.438-.781.438V0c.344-.016.86-.031 1.125-.031.25 0 .781.015 1.11.031v-.313c-.657 0-.766 0-.766-.437v-1.844c0-1.031.703-1.594 1.343-1.594.625 0 .735.532.735 1.11V-.75c0 .438-.11.438-.782.438V0c.344-.016.86-.031 1.125-.031.266 0 .782.015 1.125.031v-.313c-.515 0-.765 0-.78-.296v-1.907c0-.859 0-1.156-.313-1.515-.141-.172-.47-.375-1.047-.375-.828 0-1.282.593-1.438.984-.14-.875-.875-.984-1.328-.984-.734 0-1.203.422-1.484 1.047v-1.047l-1.407.11v.312c.704 0 .782.062.782.562zm0 0"/></symbol><symbol id="z" overflow="visible"><path d="M2.219-1.719c-.875 0-.875-1-.875-1.218 0-.266.015-.594.156-.844.078-.11.313-.39.719-.39.86 0 .86.984.86 1.218 0 .265 0 .594-.157.844-.078.109-.313.39-.703.39zm-1.156.39a.8.8 0 0 1 .156-.468c.39.281.812.313 1 .313.922 0 1.61-.688 1.61-1.454 0-.374-.157-.734-.407-.968.36-.344.719-.39.89-.39.032 0 .079 0 .11.015-.11.031-.172.14-.172.265 0 .172.14.282.297.282a.28.28 0 0 0 .281-.297c0-.172-.11-.485-.5-.485-.203 0-.64.063-1.062.47a1.652 1.652 0 0 0-1.047-.36c-.938 0-1.625.687-1.625 1.453 0 .437.219.812.469 1.031-.125.14-.313.469-.313.828 0 .313.14.688.453.89-.61.157-.922.595-.922.985 0 .719.985 1.266 2.203 1.266 1.172 0 2.204-.5 2.204-1.281 0-.344-.125-.86-.641-1.141-.531-.266-1.11-.266-1.719-.266-.25 0-.672 0-.75-.015-.312-.047-.516-.344-.516-.672zM2.5 1.829C1.484 1.828.797 1.312.797.781c0-.453.375-.828.812-.844h.594c.86 0 1.969 0 1.969.844 0 .547-.703 1.047-1.672 1.047zm0 0"/></symbol><symbol id="A" overflow="visible"><path d="M.5-6.828c-.188 0-.344 0-.344.172s.188.172.266.172c.531 0 .562.078.562.578v4.984c0 .5-.03.578-.546.578-.094 0-.282 0-.282.172S.313 0 .5 0h2.875c1.734 0 3.516-1.094 3.516-3.531 0-2.39-1.891-3.297-3.516-3.297zm4.094.547c1.422.453 1.953 1.562 1.953 2.75 0 1.687-.922 2.61-1.906 2.953.64-.672.843-1.781.843-2.938 0-1.437-.39-2.218-.906-2.765zM1.25-.344c.078-.187.078-.422.078-.547v-5.046c0-.125 0-.36-.078-.547h1.14c-.124.156-.124.375-.124.515v5.11c0 .156 0 .343.125.515zm1.36-5.593c0-.22 0-.313.187-.422.078-.079.265-.125.469-.125.843 0 1.875.75 1.875 2.968 0 1.266-.266 3.172-1.938 3.172-.594 0-.594-.36-.594-.547zm0 0"/></symbol></defs><use y="134.765" x="238.376" xlink:href="#q" width="744.094" height="1052.362"/><use y="134.765" x="245.986" xlink:href="#r" width="744.094" height="1052.362"/><use y="134.765" x="250.414" xlink:href="#s" width="744.094" height="1052.362"/><use y="134.765" x="255.949" xlink:href="#t" width="744.094" height="1052.362"/><use y="134.765" x="261.484" xlink:href="#u" width="744.094" height="1052.362"/><use y="134.765" x="264.252" xlink:href="#v" width="744.094" height="1052.362"/><use y="134.765" x="268.126" xlink:href="#u" width="744.094" height="1052.362"/><use y="134.765" x="270.894" xlink:href="#w" width="744.094" height="1052.362"/><use y="134.765" x="275.875" xlink:href="#t" width="744.094" height="1052.362"/><use y="134.765" x="281.41" xlink:href="#x" width="744.094" height="1052.362"/><use y="134.765" x="285.34" xlink:href="#y" width="744.094" height="1052.362"/><use y="134.765" x="293.642" xlink:href="#r" width="744.094" height="1052.362"/><use y="134.765" x="298.069" xlink:href="#t" width="744.094" height="1052.362"/><use y="134.765" x="303.604" xlink:href="#z" width="744.094" height="1052.362"/><use y="134.765" x="308.585" xlink:href="#r" width="744.094" height="1052.362"/><use y="134.765" x="316.334" xlink:href="#A" width="744.094" height="1052.362"/></g><g ns0:text="\nWertemenge $\\mathbb{W}$" ns0:preamble="/home/waldgeist/data/sphinx/test.tex" transform="translate(-135.887 325.396) scale(2.58547)"><defs><symbol overflow="visible" id="B"><path d="M9.063-5.828c.171-.578.609-.672 1-.672v-.313c-.297.032-.61.032-.907.032-.297 0-.937-.016-1.187-.032v.313c.672.016.86.344.86.531 0 .063-.032.14-.048.203l-1.5 4.594-1.593-4.875c0-.047-.032-.11-.032-.156 0-.297.578-.297.844-.297v-.313c-.36.032-1.031.032-1.422.032-.375 0-.797-.016-1.203-.032v.313c.563 0 .766 0 .89.36l.22.702-1.391 4.266L2-6.078c-.016-.016-.031-.094-.031-.125 0-.297.578-.297.843-.297v-.313c-.359.032-1.03.032-1.421.032-.375 0-.797-.016-1.22-.032v.313c.75 0 .798.047.923.422L3.078.032c.031.093.063.187.188.187.14 0 .156-.063.203-.203l1.64-5.063L6.766.031c.03.094.062.188.187.188.14 0 .172-.063.203-.203zm0 0"/></symbol><symbol overflow="visible" id="C"><path d="M1.11-2.516C1.171-4 2.015-4.25 2.36-4.25c1.015 0 1.124 1.344 1.124 1.734zm0 .22h2.78c.22 0 .25 0 .25-.22 0-.984-.546-1.953-1.78-1.953-1.158 0-2.08 1.032-2.08 2.282C.281-.86 1.328.108 2.47.108 3.688.11 4.14-1 4.14-1.187c0-.094-.079-.125-.141-.125-.078 0-.11.062-.125.14C3.531-.14 2.625-.14 2.531-.14c-.5 0-.89-.296-1.125-.671-.297-.47-.297-1.125-.297-1.485zm0 0"/></symbol><symbol overflow="visible" id="D"><path d="M1.672-3.313v-1.093l-1.39.11v.312c.702 0 .78.062.78.562V-.75c0 .438-.109.438-.78.438V0c.39-.016.859-.031 1.14-.031.39 0 .86 0 1.266.031v-.313h-.22c-.734 0-.75-.109-.75-.468v-1.531c0-.985.423-1.876 1.173-1.876.062 0 .093 0 .109.016-.031 0-.234.125-.234.39 0 .266.218.423.437.423a.421.421 0 0 0 .422-.438c0-.312-.313-.61-.734-.61-.735 0-1.094.673-1.22 1.095zm0 0"/></symbol><symbol overflow="visible" id="E"><path d="M1.719-3.984h1.437v-.313H1.72v-1.828h-.25c0 .813-.297 1.875-1.282 1.922v.219h.844v2.75c0 1.218.938 1.343 1.297 1.343.703 0 .985-.703.985-1.343v-.563h-.25v.547c0 .734-.297 1.11-.672 1.11-.672 0-.672-.907-.672-1.079zm0 0"/></symbol><symbol overflow="visible" id="F"><path d="M1.094-3.422V-.75c0 .438-.11.438-.782.438V0c.36-.016.86-.031 1.141-.031.25 0 .766.015 1.11.031v-.313c-.672 0-.782 0-.782-.437v-1.844c0-1.031.719-1.594 1.344-1.594.64 0 .75.532.75 1.11V-.75c0 .438-.11.438-.781.438V0c.344-.016.86-.031 1.125-.031.25 0 .781.015 1.11.031v-.313c-.657 0-.766 0-.766-.437v-1.844c0-1.031.703-1.594 1.343-1.594.625 0 .735.532.735 1.11V-.75c0 .438-.11.438-.782.438V0c.344-.016.86-.031 1.125-.031.266 0 .782.015 1.125.031v-.313c-.515 0-.765 0-.78-.296v-1.907c0-.859 0-1.156-.313-1.515-.141-.172-.47-.375-1.047-.375-.828 0-1.282.593-1.438.984-.14-.875-.875-.984-1.328-.984-.734 0-1.203.422-1.484 1.047v-1.047l-1.407.11v.312c.704 0 .782.062.782.562zm0 0"/></symbol><symbol overflow="visible" id="G"><path d="M1.094-3.422V-.75c0 .438-.11.438-.782.438V0c.36-.016.86-.031 1.141-.031.25 0 .766.015 1.11.031v-.313c-.672 0-.782 0-.782-.437v-1.844c0-1.031.719-1.594 1.344-1.594.64 0 .75.532.75 1.11V-.75c0 .438-.11.438-.781.438V0c.344-.016.86-.031 1.125-.031.25 0 .781.015 1.11.031v-.313c-.516 0-.766 0-.766-.296v-1.907c0-.859 0-1.156-.313-1.515-.14-.172-.469-.375-1.047-.375-.734 0-1.203.422-1.484 1.047v-1.047l-1.407.11v.312c.704 0 .782.062.782.562zm0 0"/></symbol><symbol overflow="visible" id="H"><path d="M2.219-1.719c-.875 0-.875-1-.875-1.218 0-.266.015-.594.156-.844.078-.11.313-.39.719-.39.86 0 .86.984.86 1.218 0 .265 0 .594-.157.844-.078.109-.313.39-.703.39zm-1.156.39a.8.8 0 0 1 .156-.468c.39.281.812.313 1 .313.922 0 1.61-.688 1.61-1.454 0-.374-.157-.734-.407-.968.36-.344.719-.39.89-.39.032 0 .079 0 .11.015-.11.031-.172.14-.172.265 0 .172.14.282.297.282a.28.28 0 0 0 .281-.297c0-.172-.11-.485-.5-.485-.203 0-.64.063-1.062.47a1.652 1.652 0 0 0-1.047-.36c-.938 0-1.625.687-1.625 1.453 0 .437.219.812.469 1.031-.125.14-.313.469-.313.828 0 .313.14.688.453.89-.61.157-.922.595-.922.985 0 .719.985 1.266 2.203 1.266 1.172 0 2.204-.5 2.204-1.281 0-.344-.125-.86-.641-1.141-.531-.266-1.11-.266-1.719-.266-.25 0-.672 0-.75-.015-.312-.047-.516-.344-.516-.672zM2.5 1.829C1.484 1.828.797 1.312.797.781c0-.453.375-.828.812-.844h.594c.86 0 1.969 0 1.969.844 0 .547-.703 1.047-1.672 1.047zm0 0"/></symbol><symbol overflow="visible" id="I"><path d="M9.313-6.016c.124-.328.218-.437.406-.468.125-.016.172-.094.172-.172 0-.172-.157-.172-.329-.172h-1.42c-.172 0-.329 0-.329.172 0 .093.079.172.157.172.234.03.468.046.468.718 0 .86-.437 2.141-.937 3.61-.078-.188-1.266-3.235-1.297-4.078.031-.063.234-.22.469-.25.062 0 .219-.016.219-.172 0-.172-.157-.172-.329-.172H4.156c-.172 0-.343 0-.343.172 0 .031.03.14.171.172.172.03.36.046.563.578.125.297.266.656.375 1L3.625-1.922l-.703-2.031c-.235-.688-.625-1.922-.625-2.266 0-.11.203-.234.375-.265.031 0 .187-.016.187-.172 0-.172-.156-.172-.343-.172H.406c-.172 0-.328 0-.328.172 0 .14.14.172.188.172.234.03.359.343.39.453l2.14 5.984c.048.156.079.234.188.234.11 0 .141-.062.204-.203l1.921-4.406L6.766-.047c.062.172.093.234.218.234.11 0 .141-.078.188-.234zm-.172-.468c-.094.171-.235.578-.344.859 0-.36 0-.594-.156-.86zm-4.25.5a2.139 2.139 0 0 0-.25-.5h1.312c-.094.078-.094.25-.094.296 0 .782 1.329 4.204 1.5 4.625-.156.438-.296.813-.375 1.079zm-3.86-.032a2.644 2.644 0 0 0-.203-.468h1.188c-.032.046-.063.093-.063.25 0 .734 1.203 4.062 1.469 4.796l-.406.97zm0 0"/></symbol></defs><use height="1052.362" width="744.094" xlink:href="#B" x="238.376" y="134.765"/><use height="1052.362" width="744.094" xlink:href="#C" x="247.789" y="134.765"/><use height="1052.362" width="744.094" xlink:href="#D" x="252.216" y="134.765"/><use height="1052.362" width="744.094" xlink:href="#E" x="256.118" y="134.765"/><use height="1052.362" width="744.094" xlink:href="#C" x="259.993" y="134.765"/><use height="1052.362" width="744.094" xlink:href="#F" x="264.42" y="134.765"/><use height="1052.362" width="744.094" xlink:href="#C" x="272.722" y="134.765"/><use height="1052.362" width="744.094" xlink:href="#G" x="277.149" y="134.765"/><use height="1052.362" width="744.094" xlink:href="#H" x="282.685" y="134.765"/><use height="1052.362" width="744.094" xlink:href="#C" x="287.666" y="134.765"/><use height="1052.362" width="744.094" xlink:href="#I" x="295.412" y="134.765"/></g><g transform="translate(-362.218 242.868) scale(2.58547)" ns0:preamble="/home/waldgeist/data/sphinx/inkscape-preamble.tex" ns0:text="$x$"><defs><symbol id="J" overflow="visible"><path d="M3.328-3.016c.063-.25.297-1.171.985-1.171.046 0 .296 0 .5.125a.578.578 0 0 0-.47.546c0 .157.11.344.376.344a.546.546 0 0 0 .531-.578c0-.516-.578-.656-.922-.656-.578 0-.922.531-1.047.75-.25-.656-.781-.75-1.078-.75-1.031 0-1.61 1.281-1.61 1.531 0 .11.11.11.126.11.078 0 .11-.032.125-.11.344-1.063 1-1.313 1.344-1.313.187 0 .53.094.53.672 0 .313-.171.97-.53 2.375-.157.61-.516 1.032-.954 1.032-.062 0-.28 0-.5-.125.25-.063.47-.266.47-.547 0-.266-.22-.344-.36-.344-.313 0-.547.25-.547.578 0 .453.484.656.922.656.672 0 1.031-.703 1.047-.75.125.36.484.75 1.078.75 1.031 0 1.594-1.28 1.594-1.53 0-.11-.079-.11-.11-.11-.094 0-.11.047-.14.11-.329 1.077-1 1.312-1.313 1.312-.39 0-.547-.313-.547-.657 0-.218.047-.437.156-.875z"/></symbol></defs><use y="134.765" x="223.432" xlink:href="#J" width="1052.362" height="744.094"/></g></svg>