<svg xmlns:ns0="http://www.iki.fi/pav/software/textext/" xmlns="http://www.w3.org/2000/svg" xmlns:xlink="http://www.w3.org/1999/xlink" width="1052.362" height="744.094"><title>Ankathete, Gegenkathete, Hypothenuse</title><defs><marker orient="auto" id="a" overflow="visible"><path d="M2.308 0l-3.46 2v-4l3.46 2z" fill-rule="evenodd" stroke="#000" stroke-width=".4pt"/></marker></defs><g transform="translate(0 -308.268)"><g transform="translate(-342.71 220.752) scale(4.62289)" fill="green"><use height="1052.362" width="744.094" xlink:href="#textext-082fa4b4-3" x="231.736" y="134.765"/><use height="1052.362" width="744.094" xlink:href="#textext-082fa4b4-3" x="231.736" y="134.765"/><g ns0:text="$\\Delta \\vec{r} = \\vec{r}_{\\rm{2}} - \\vec{r}_{\\rm{1}} $" ns0:preamble="/home/waldgeist/data/sphinx/test.tex"><use height="1052.362" width="744.094" xlink:href="#textext-082fa4b4-0" x="223.432" y="134.765"/><use height="1052.362" width="744.094" xlink:href="#textext-082fa4b4-2" x="231.417" y="134.765"/><use height="1052.362" width="744.094" xlink:href="#textext-082fa4b4-3" x="231.736" y="134.765"/><use height="1052.362" width="744.094" xlink:href="#textext-082fa4b4-1" x="239.273" y="134.765"/><use height="1052.362" width="744.094" xlink:href="#textext-082fa4b4-2" x="249.472" y="134.765"/><use height="1052.362" width="744.094" xlink:href="#textext-082fa4b4-3" x="249.791" y="134.765"/><use height="1052.362" width="744.094" xlink:href="#textext-082fa4b4-4" x="254.284" y="136.259"/><use height="1052.362" width="744.094" xlink:href="#textext-082fa4b4-6" x="260.967" y="134.765"/><use height="1052.362" width="744.094" xlink:href="#textext-082fa4b4-2" x="270.612" y="134.765"/><use height="1052.362" width="744.094" xlink:href="#textext-082fa4b4-3" x="270.931" y="134.765"/><use height="1052.362" width="744.094" xlink:href="#textext-082fa4b4-5" x="275.425" y="136.259"/></g><g ns0:text="$\\Delta \\vec{r} = \\vec{r}_{\\rm{2}} - \\vec{r}_{\\rm{1}} $" ns0:preamble="/home/waldgeist/data/sphinx/test.tex"><use height="1052.362" width="744.094" xlink:href="#textext-082fa4b4-0" x="223.432" y="134.765"/><use height="1052.362" width="744.094" xlink:href="#textext-082fa4b4-2" x="231.417" y="134.765"/><use height="1052.362" width="744.094" xlink:href="#textext-082fa4b4-3" x="231.736" y="134.765"/><use height="1052.362" width="744.094" xlink:href="#textext-082fa4b4-1" x="239.273" y="134.765"/><use height="1052.362" width="744.094" xlink:href="#textext-082fa4b4-2" x="249.472" y="134.765"/><use height="1052.362" width="744.094" xlink:href="#textext-082fa4b4-3" x="249.791" y="134.765"/><use height="1052.362" width="744.094" xlink:href="#textext-082fa4b4-4" x="254.284" y="136.259"/><use height="1052.362" width="744.094" xlink:href="#textext-082fa4b4-6" x="260.967" y="134.765"/><use height="1052.362" width="744.094" xlink:href="#textext-082fa4b4-2" x="270.612" y="134.765"/><use height="1052.362" width="744.094" xlink:href="#textext-082fa4b4-3" x="270.931" y="134.765"/><use height="1052.362" width="744.094" xlink:href="#textext-082fa4b4-5" x="275.425" y="136.259"/></g><g ns0:text="$\\Delta \\vec{r} = \\vec{r}_{\\rm{2}} - \\vec{r}_{\\rm{1}} $" ns0:preamble="/home/waldgeist/data/sphinx/test.tex"><use height="1052.362" width="744.094" xlink:href="#textext-082fa4b4-0" x="223.432" y="134.765"/><use height="1052.362" width="744.094" xlink:href="#textext-082fa4b4-2" x="231.417" y="134.765"/><use height="1052.362" width="744.094" xlink:href="#textext-082fa4b4-3" x="231.736" y="134.765"/><use height="1052.362" width="744.094" xlink:href="#textext-082fa4b4-1" x="239.273" y="134.765"/><use height="1052.362" width="744.094" xlink:href="#textext-082fa4b4-2" x="249.472" y="134.765"/><use height="1052.362" width="744.094" xlink:href="#textext-082fa4b4-3" x="249.791" y="134.765"/><use height="1052.362" width="744.094" xlink:href="#textext-082fa4b4-4" x="254.284" y="136.259"/><use height="1052.362" width="744.094" xlink:href="#textext-082fa4b4-6" x="260.967" y="134.765"/><use height="1052.362" width="744.094" xlink:href="#textext-082fa4b4-2" x="270.612" y="134.765"/><use height="1052.362" width="744.094" xlink:href="#textext-082fa4b4-3" x="270.931" y="134.765"/><use height="1052.362" width="744.094" xlink:href="#textext-082fa4b4-5" x="275.425" y="136.259"/></g></g><path fill="#fff" stroke="#fff" stroke-miterlimit="3.9" d="M115.049 316.66h822.264v727.31H115.049z"/><g stroke="#e6e6e6" stroke-width="1.019" fill="none"><path d="M287.054 381.406v597.818m59.782-597.818v597.818m59.782-597.818v597.818M466.4 381.406v597.818m59.781-597.818v597.818m59.782-597.818v597.818m59.782-597.818v597.818m59.781-597.818v597.818m59.782-597.818v597.818M227.272 441.188H825.09M227.272 500.97H825.09m-597.818 59.782H825.09m-597.818 59.781H825.09m-597.818 59.782H825.09m-597.818 59.782H825.09m-597.818 59.781H825.09M227.272 859.66H825.09m-597.818 59.782H825.09" stroke-width="1.5"/><path d="M233.25 381.406v597.818m5.979-597.818v597.818m5.978-597.818v597.818m5.978-597.818v597.818m5.978-597.818v597.818m5.979-597.818v597.818m5.978-597.818v597.818m5.978-597.818v597.818m5.978-597.818v597.818m11.956-597.818v597.818m5.978-597.818v597.818m5.979-597.818v597.818m5.978-597.818v597.818m5.978-597.818v597.818m5.978-597.818v597.818m5.978-597.818v597.818m5.979-597.818v597.818m5.978-597.818v597.818m11.956-597.818v597.818m5.978-597.818v597.818m5.978-597.818v597.818m5.979-597.818v597.818m5.978-597.818v597.818m5.978-597.818v597.818m5.978-597.818v597.818m5.978-597.818v597.818m5.979-597.818v597.818m11.956-597.818v597.818m5.978-597.818v597.818m5.978-597.818v597.818m5.978-597.818v597.818m5.979-597.818v597.818m5.978-597.818v597.818m5.978-597.818v597.818m5.978-597.818v597.818m5.978-597.818v597.818m11.957-597.818v597.818m5.978-597.818v597.818m5.978-597.818v597.818m5.978-597.818v597.818m5.978-597.818v597.818m5.978-597.818v597.818m5.979-597.818v597.818m5.978-597.818v597.818m5.978-597.818v597.818m11.957-597.818v597.818m5.977-597.818v597.818m5.979-597.818v597.818m5.978-597.818v597.818m5.978-597.818v597.818m5.978-597.818v597.818m5.978-597.818v597.818m5.978-597.818v597.818m5.979-597.818v597.818m11.956-597.818v597.818m5.979-597.818v597.818m5.977-597.818v597.818m5.979-597.818v597.818m5.978-597.818v597.818m5.978-597.818v597.818m5.978-597.818v597.818m5.978-597.818v597.818m5.978-597.818v597.818m11.957-597.818v597.818m5.977-597.818v597.818m5.98-597.818v597.818m5.977-597.818v597.818m5.978-597.818v597.818m5.979-597.818v597.818m5.978-597.818v597.818m5.978-597.818v597.818m5.978-597.818v597.818m11.956-597.818v597.818m5.979-597.818v597.818m5.977-597.818v597.818m5.979-597.818v597.818m5.978-597.818v597.818m5.978-597.818v597.818m5.978-597.818v597.818m5.979-597.818v597.818m5.978-597.818v597.818m11.956-597.818v597.818m5.978-597.818v597.818m5.979-597.818v597.818m5.977-597.818v597.818m5.979-597.818v597.818m5.978-597.818v597.818m5.978-597.818v597.818m5.978-597.818v597.818m5.979-597.818v597.818M227.272 387.384H825.09m-597.818 5.979H825.09m-597.818 5.977H825.09m-597.818 5.979H825.09m-597.818 5.978H825.09m-597.818 5.978H825.09m-597.818 5.979H825.09m-597.818 5.978H825.09m-597.818 5.978H825.09m-597.818 11.956H825.09m-597.818 5.978H825.09m-597.818 5.979H825.09M227.272 465.1H825.09m-597.818 5.979H825.09m-597.818 5.978H825.09m-597.818 5.978H825.09m-597.818 5.978H825.09m-597.818 5.979H825.09m-597.818 11.956H825.09m-597.818 5.978H825.09m-597.818 5.978H825.09m-597.818 5.978H825.09m-597.818 5.978H825.09m-597.818 5.979H825.09m-597.818 5.978H825.09m-597.818 5.978H825.09m-597.818 5.978H825.09M227.272 566.73H825.09m-597.818 5.978H825.09m-597.818 5.978H825.09m-597.818 5.978H825.09m-597.818 5.978H825.09m-597.818 5.978H825.09m-597.818 5.979H825.09m-597.818 5.978H825.09m-597.818 5.978H825.09m-597.818 11.956H825.09m-597.818 5.979H825.09m-597.818 5.978H825.09m-597.818 5.978H825.09m-597.818 5.978H825.09m-597.818 5.978H825.09m-597.818 5.978H825.09m-597.818 5.979H825.09m-597.818 5.978H825.09m-597.818 11.956H825.09m-597.818 5.978H825.09m-597.818 5.979H825.09m-597.818 5.978H825.09m-597.818 5.978H825.09m-597.818 5.978H825.09m-597.818 5.978H825.09m-597.818 5.978H825.09m-597.818 5.979H825.09m-597.818 11.956H825.09m-597.818 5.978H825.09m-597.818 5.978H825.09m-597.818 5.979H825.09m-597.818 5.978H825.09m-597.818 5.978H825.09m-597.818 5.978H825.09m-597.818 5.978H825.09M227.272 793.9H825.09m-597.818 11.957H825.09m-597.818 5.978H825.09m-597.818 5.978H825.09m-597.818 5.978H825.09m-597.818 5.979H825.09m-597.818 5.977H825.09m-597.818 5.979H825.09m-597.818 5.978H825.09m-597.818 5.978H825.09m-597.818 11.956H825.09m-597.818 5.978H825.09m-597.818 5.979H825.09m-597.818 5.978H825.09m-597.818 5.978H825.09m-597.818 5.979H825.09m-597.818 5.977H825.09m-597.818 5.979H825.09m-597.818 5.978H825.09M227.272 925.42H825.09m-597.818 5.978H825.09m-597.818 5.978H825.09m-597.818 5.979H825.09m-597.818 5.978H825.09m-597.818 5.977H825.09m-597.818 5.98H825.09m-597.818 5.977H825.09m-597.818 5.978H825.09" stroke-width=".5"/><path stroke-width="1.5" d="M227.272 381.406H825.09v597.818H227.272z"/></g><g stroke="#000" stroke-linecap="round"><path d="M697.78 680.315c0-12.26 9.938-22.197 22.197-22.197v22.197z" fill="none"/><path d="M711.866 670.548a.77.77 0 1 1-1.54 0 .77.77 0 0 1 1.54 0z"/></g><path d="M630.942 680.315c0-22.205-7.064-43.833-20.17-61.758" fill="none" stroke="#000" stroke-width="1.5" stroke-linecap="round"/><defs transform="translate(-352.418 637.197) scale(5.5131)" ns0:text="$\\alpha$" ns0:preamble="/home/waldgeist/data/sphinx/test.tex"><symbol overflow="visible" id="f"><path d="M4.75-2.36c0-1.562-.922-2.046-1.656-2.046-1.375 0-2.688 1.422-2.688 2.828C.406-.641 1 .109 2.031.109c.625 0 1.344-.234 2.094-.843.125.53.453.843.906.843.532 0 .844-.546.844-.703 0-.078-.063-.11-.125-.11-.063 0-.094.032-.125.11-.188.485-.547.485-.563.485-.312 0-.312-.782-.312-1.016 0-.203 0-.234.11-.344C5.796-2.656 6-3.812 6-3.812c0-.032-.016-.11-.125-.11-.094 0-.094.031-.14.219-.188.625-.516 1.375-.985 1.969zM4.094-.983c-.89.765-1.657.875-2.047.875-.594 0-.906-.454-.906-1.094 0-.484.265-1.563.578-2.063.468-.734 1.015-.921 1.36-.921.983 0 .983 1.312.983 2.078 0 .375 0 .953.032 1.125zm0 0"/></symbol></defs><path d="M180.067 680.315h686.055" id="b" fill="none" stroke="#000" stroke-width="3" marker-end="url(#a)"/><use height="1052.362" width="744.094" transform="rotate(-90 526.181 680.315)" xlink:href="#b"/><path d="M765.308 667.99v23.912m-478.254-24.396v23.913" fill="none" stroke="#000" stroke-width="2"/><g transform="translate(190.817 370.146) scale(2.5424)" ns0:preamble="/home/waldgeist/data/sphinx/test.tex" ns0:text="$1$" fill="#4d4d4d" stroke="green" stroke-width="1.18"><defs><symbol id="c" overflow="visible"><path d="M2.938-6.375c0-.25 0-.266-.235-.266C2.078-6 1.203-6 .891-6v.313c.203 0 .78 0 1.296-.266v5.172c0 .36-.03.469-.921.469H.953V0c.344-.031 1.203-.031 1.61-.031.39 0 1.265 0 1.609.031v-.313h-.313c-.906 0-.921-.109-.921-.468zm0 0" stroke="none"/></symbol></defs><use height="1052.362" width="744.094" y="134.765" x="223.432" xlink:href="#c"/></g><g ns0:text="$-1$" ns0:preamble="/home/waldgeist/data/sphinx/test.tex" transform="translate(-307.31 370.146) scale(2.5424)" fill="#4d4d4d" stroke="green" stroke-width="1.18"><defs><symbol overflow="visible" id="d"><path d="M6.563-2.297c.171 0 .359 0 .359-.203 0-.188-.188-.188-.36-.188h-5.39c-.172 0-.344 0-.344.188 0 .203.172.203.344.203zm0 0" stroke="none"/></symbol><symbol overflow="visible" id="e"><path d="M2.938-6.375c0-.25 0-.266-.235-.266C2.078-6 1.203-6 .891-6v.313c.203 0 .78 0 1.296-.266v5.172c0 .36-.03.469-.921.469H.953V0c.344-.031 1.203-.031 1.61-.031.39 0 1.265 0 1.609.031v-.313h-.313c-.906 0-.921-.109-.921-.468zm0 0" stroke="none"/></symbol></defs><use height="1052.362" width="744.094" xlink:href="#d" x="223.432" y="134.765"/><use height="1052.362" width="744.094" xlink:href="#e" x="231.181" y="134.765"/></g><g ns0:preamble="/home/waldgeist/data/sphinx/test.tex" ns0:text="$-1$" fill="#4d4d4d" stroke="green" stroke-width="1.18" transform="translate(-89.962 585.256) scale(2.5424)"><use y="134.765" x="223.432" xlink:href="#d" width="744.094" height="1052.362"/><use y="134.765" x="231.181" xlink:href="#e" width="744.094" height="1052.362"/></g><use xlink:href="#c" x="223.432" y="134.765" width="744.094" height="1052.362" transform="translate(-70.26 107.002) scale(2.5424)" ns0:text="$1$" ns0:preamble="/home/waldgeist/data/sphinx/test.tex" fill="#4d4d4d" stroke="green" stroke-width="1.18"/><path d="M538.34 441.188h-24.318m24.318 478.254h-24.318" stroke-width="1.559" fill="none" stroke="#000"/><path d="M766.216 680.315c0 132.066-107.06 239.127-239.126 239.127-132.067 0-239.127-107.06-239.127-239.127 0-132.066 107.06-239.127 239.127-239.127 132.066 0 239.126 107.06 239.126 239.127z" opacity=".5" fill="none" stroke="gray" stroke-width="1.5" stroke-linecap="round"/><path d="M526.307 680.315l193.67-141.364" fill="none" stroke="#4d4d4d" stroke-width="2" stroke-linecap="round"/><path d="M719.977 680.315V538.951m0 0l-193.796.757" fill="none" stroke="#999" stroke-width="2" stroke-linecap="round" stroke-dasharray="2,4"/><path d="M719.977 680.315h-193.67V539.708" fill="none" stroke="#4a0" stroke-width="4"/><path d="M538.34 539.66h-24.318" fill="navy" stroke="navy" stroke-width="2" stroke-linecap="round" stroke-miterlimit="3.9"/><use y="134.765" x="223.432" xlink:href="#f" width="744.094" height="1052.362" transform="translate(-200.574 195.358) scale(3.49978)"/><g ns0:text="$\\sin{\\alpha}$" ns0:preamble="/home/waldgeist/data/sphinx/test.tex" transform="matrix(3.62687 0 0 3.6496 -367.345 124.527)" fill="navy" stroke="navy" stroke-width=".825"><defs><symbol overflow="visible" id="g"><path d="M2.078-1.938c.219.047 1.031.204 1.031.922 0 .5-.343.907-1.125.907-.843 0-1.203-.563-1.39-1.422-.031-.125-.031-.157-.14-.157-.126 0-.126.063-.126.235v1.328c0 .172 0 .234.11.234C.483.11.5.094.688-.094.703-.109.703-.125.89-.312c.437.406.89.421 1.093.421 1.141 0 1.61-.671 1.61-1.39 0-.516-.297-.828-.422-.938-.328-.328-.719-.406-1.14-.484-.563-.11-1.22-.235-1.22-.813 0-.359.25-.765 1.11-.765 1.094 0 1.156.906 1.172 1.203 0 .094.094.094.11.094.14 0 .14-.047.14-.235v-1.015c0-.157 0-.235-.11-.235-.046 0-.078 0-.203.125a1.676 1.676 0 0 1-.172.157c-.375-.282-.78-.282-.937-.282-1.219 0-1.594.672-1.594 1.235 0 .343.156.625.422.843.328.25.61.313 1.328.454zm0 0" stroke="none"/></symbol><symbol overflow="visible" id="h"><path d="M1.766-4.406l-1.391.11v.312c.64 0 .734.062.734.546V-.75c0 .438-.109.438-.78.438V0c.312-.016.859-.031 1.093-.031.36 0 .703.015 1.047.031v-.313c-.672 0-.703-.046-.703-.437zm.03-1.735a.514.514 0 0 0-.515-.53.537.537 0 0 0-.531.53c0 .266.219.532.531.532a.514.514 0 0 0 .516-.532zm0 0" stroke="none"/></symbol><symbol overflow="visible" id="i"><path d="M1.094-3.422V-.75c0 .438-.11.438-.782.438V0c.36-.016.86-.031 1.141-.031.25 0 .766.015 1.11.031v-.313c-.672 0-.782 0-.782-.437v-1.844c0-1.031.719-1.594 1.344-1.594.64 0 .75.532.75 1.11V-.75c0 .438-.11.438-.781.438V0c.344-.016.86-.031 1.125-.031.25 0 .781.015 1.11.031v-.313c-.516 0-.766 0-.766-.296v-1.907c0-.859 0-1.156-.313-1.515-.14-.172-.469-.375-1.047-.375-.734 0-1.203.422-1.484 1.047v-1.047l-1.407.11v.312c.704 0 .782.062.782.562zm0 0" stroke="none"/></symbol><symbol overflow="visible" id="j"><path d="M4.75-2.36c0-1.562-.922-2.046-1.656-2.046-1.375 0-2.688 1.422-2.688 2.828C.406-.641 1 .109 2.031.109c.625 0 1.344-.234 2.094-.843.125.53.453.843.906.843.532 0 .844-.546.844-.703 0-.078-.063-.11-.125-.11-.063 0-.094.032-.125.11-.188.485-.547.485-.563.485-.312 0-.312-.782-.312-1.016 0-.203 0-.234.11-.344C5.796-2.656 6-3.812 6-3.812c0-.032-.016-.11-.125-.11-.094 0-.094.031-.14.219-.188.625-.516 1.375-.985 1.969zM4.094-.983c-.89.765-1.657.875-2.047.875-.594 0-.906-.454-.906-1.094 0-.484.265-1.563.578-2.063.468-.734 1.015-.921 1.36-.921.983 0 .983 1.312.983 2.078 0 .375 0 .953.032 1.125zm0 0" stroke="none"/></symbol></defs><use height="744.094" width="1052.362" xlink:href="#g" x="223.432" y="134.765"/><use height="744.094" width="1052.362" xlink:href="#h" x="227.361" y="134.765"/><use height="744.094" width="1052.362" xlink:href="#i" x="230.129" y="134.765"/><use height="744.094" width="1052.362" xlink:href="#j" x="237.324" y="134.765"/></g><g transform="matrix(3.62687 0 0 3.6496 -211.921 220.842)" ns0:preamble="/home/waldgeist/data/sphinx/test.tex" ns0:text="$\\cos{\\alpha}$" fill="#4a0" stroke="green" stroke-width=".825"><defs><symbol id="k" overflow="visible"><path d="M1.172-2.172c0-1.625.812-2.047 1.344-2.047.093 0 .718.016 1.062.375-.406.031-.469.328-.469.453 0 .266.188.454.454.454.265 0 .468-.157.468-.47 0-.671-.765-1.062-1.531-1.062C1.25-4.469.344-3.39.344-2.156c0 1.281.984 2.265 2.14 2.265 1.329 0 1.657-1.203 1.657-1.296 0-.094-.11-.094-.141-.094-.078 0-.11.031-.125.093C3.594-.265 2.937-.14 2.578-.14c-.531 0-1.406-.421-1.406-2.03zm0 0" stroke="none"/></symbol><symbol id="l" overflow="visible"><path d="M4.688-2.14c0-1.266-.985-2.329-2.188-2.329C1.25-4.469.281-3.375.281-2.14A2.22 2.22 0 0 0 2.484.11c1.204 0 2.204-.984 2.204-2.25zM2.5-.14c-.438 0-.875-.204-1.14-.672-.25-.438-.25-1.047-.25-1.407 0-.39 0-.922.234-1.36a1.347 1.347 0 0 1 1.14-.671c.438 0 .86.219 1.125.656.266.422.266 1 .266 1.375 0 .36 0 .906-.219 1.344-.234.453-.672.734-1.156.734zm0 0" stroke="none"/></symbol><symbol id="m" overflow="visible"><path d="M2.078-1.938c.219.047 1.031.204 1.031.922 0 .5-.343.907-1.125.907-.843 0-1.203-.563-1.39-1.422-.031-.125-.031-.157-.14-.157-.126 0-.126.063-.126.235v1.328c0 .172 0 .234.11.234C.483.11.5.094.688-.094.703-.109.703-.125.89-.312c.437.406.89.421 1.093.421 1.141 0 1.61-.671 1.61-1.39 0-.516-.297-.828-.422-.938-.328-.328-.719-.406-1.14-.484-.563-.11-1.22-.235-1.22-.813 0-.359.25-.765 1.11-.765 1.094 0 1.156.906 1.172 1.203 0 .094.094.094.11.094.14 0 .14-.047.14-.235v-1.015c0-.157 0-.235-.11-.235-.046 0-.078 0-.203.125a1.676 1.676 0 0 1-.172.157c-.375-.282-.78-.282-.937-.282-1.219 0-1.594.672-1.594 1.235 0 .343.156.625.422.843.328.25.61.313 1.328.454zm0 0" stroke="none"/></symbol><symbol id="n" overflow="visible"><path d="M4.75-2.36c0-1.562-.922-2.046-1.656-2.046-1.375 0-2.688 1.422-2.688 2.828C.406-.641 1 .109 2.031.109c.625 0 1.344-.234 2.094-.843.125.53.453.843.906.843.532 0 .844-.546.844-.703 0-.078-.063-.11-.125-.11-.063 0-.094.032-.125.11-.188.485-.547.485-.563.485-.312 0-.312-.782-.312-1.016 0-.203 0-.234.11-.344C5.796-2.656 6-3.812 6-3.812c0-.032-.016-.11-.125-.11-.094 0-.094.031-.14.219-.188.625-.516 1.375-.985 1.969zM4.094-.983c-.89.765-1.657.875-2.047.875-.594 0-.906-.454-.906-1.094 0-.484.265-1.563.578-2.063.468-.734 1.015-.921 1.36-.921.983 0 .983 1.312.983 2.078 0 .375 0 .953.032 1.125zm0 0" stroke="none"/></symbol></defs><use y="134.765" x="223.432" xlink:href="#k" width="1052.362" height="744.094"/><use y="134.765" x="227.859" xlink:href="#l" width="1052.362" height="744.094"/><use y="134.765" x="232.841" xlink:href="#m" width="1052.362" height="744.094"/><use y="134.765" x="238.431" xlink:href="#n" width="1052.362" height="744.094"/></g><path d="M719.977 668.155v24.32" fill="none" stroke="#4a0" stroke-width="2" stroke-linecap="round" stroke-miterlimit="3.9"/><path d="M526.307 539.708v141.364" fill="navy" stroke="navy" stroke-width="4" stroke-linecap="round"/><g ns0:text="$\\rm{P}$" transform="translate(154.2 192.473) scale(2.5424)" fill="green" stroke="green" stroke-width="1.18"><defs><symbol overflow="visible" id="o"><path d="M2.266-3.156h1.687c1.188 0 2.266-.797 2.266-1.797 0-.984-.985-1.86-2.344-1.86H.344v.313h.25c.765 0 .781.11.781.469v5.25c0 .36-.016.469-.781.469h-.25V0c.36-.031 1.094-.031 1.469-.031s1.125 0 1.484.031v-.313h-.25c-.766 0-.781-.109-.781-.468zm-.032-.25v-2.688c0-.343.016-.406.485-.406h.89c1.579 0 1.579 1.063 1.579 1.547 0 .469 0 1.547-1.579 1.547z" stroke="none"/></symbol></defs><use height="744.094" width="1052.362" xlink:href="#o" x="223.432" y="134.765" fill="#000"/></g><g transform="translate(-68.135 362.3) scale(2.5424)" ns0:text="$\\rm{O}$" fill="green" stroke="green" stroke-width="1.18"><defs><symbol id="p" overflow="visible"><path d="M7.188-3.375c0-2.031-1.5-3.656-3.313-3.656-1.797 0-3.313 1.593-3.313 3.656C.563-1.328 2.095.219 3.876.219c1.813 0 3.313-1.578 3.313-3.594zM3.874-.047c-.953 0-2.297-.875-2.297-3.469 0-2.578 1.469-3.265 2.297-3.265.86 0 2.281.703 2.281 3.265 0 2.641-1.36 3.47-2.281 3.47z" stroke="none"/></symbol></defs><use y="134.765" x="223.432" xlink:href="#p" fill="#000"/></g></g></svg>