<svg xmlns:ns0="http://www.iki.fi/pav/software/textext/" xmlns="http://www.w3.org/2000/svg" xmlns:xlink="http://www.w3.org/1999/xlink" width="2979.921" height="2104.724"><title>Sinus und Cosinus am Einheitskreis 2</title><defs><marker orient="auto" id="o" overflow="visible"><path d="M-2.308 0l3.46-2v4l-3.46-2z" fill-rule="evenodd" stroke="#000" stroke-width=".4pt"/></marker><marker orient="auto" id="a" overflow="visible"><path d="M2.308 0l-3.46 2v-4l3.46 2z" fill-rule="evenodd" stroke="#000" stroke-width=".4pt"/></marker></defs><g transform="translate(0 1052.362)"><g transform="translate(-342.71 220.752) scale(4.62289)" fill="green"><use height="1052.362" width="744.094" xlink:href="#textext-082fa4b4-3" x="231.736" y="134.765"/><use height="1052.362" width="744.094" xlink:href="#textext-082fa4b4-3" x="231.736" y="134.765"/><g ns0:text="$\\Delta \\vec{r} = \\vec{r}_{\\rm{2}} - \\vec{r}_{\\rm{1}} $" ns0:preamble="/home/waldgeist/data/sphinx/test.tex"><use height="1052.362" width="744.094" xlink:href="#textext-082fa4b4-0" x="223.432" y="134.765"/><use height="1052.362" width="744.094" xlink:href="#textext-082fa4b4-2" x="231.417" y="134.765"/><use height="1052.362" width="744.094" xlink:href="#textext-082fa4b4-3" x="231.736" y="134.765"/><use height="1052.362" width="744.094" xlink:href="#textext-082fa4b4-1" x="239.273" y="134.765"/><use height="1052.362" width="744.094" xlink:href="#textext-082fa4b4-2" x="249.472" y="134.765"/><use height="1052.362" width="744.094" xlink:href="#textext-082fa4b4-3" x="249.791" y="134.765"/><use height="1052.362" width="744.094" xlink:href="#textext-082fa4b4-4" x="254.284" y="136.259"/><use height="1052.362" width="744.094" xlink:href="#textext-082fa4b4-6" x="260.967" y="134.765"/><use height="1052.362" width="744.094" xlink:href="#textext-082fa4b4-2" x="270.612" y="134.765"/><use height="1052.362" width="744.094" xlink:href="#textext-082fa4b4-3" x="270.931" y="134.765"/><use height="1052.362" width="744.094" xlink:href="#textext-082fa4b4-5" x="275.425" y="136.259"/></g><g ns0:text="$\\Delta \\vec{r} = \\vec{r}_{\\rm{2}} - \\vec{r}_{\\rm{1}} $" ns0:preamble="/home/waldgeist/data/sphinx/test.tex"><use height="1052.362" width="744.094" xlink:href="#textext-082fa4b4-0" x="223.432" y="134.765"/><use height="1052.362" width="744.094" xlink:href="#textext-082fa4b4-2" x="231.417" y="134.765"/><use height="1052.362" width="744.094" xlink:href="#textext-082fa4b4-3" x="231.736" y="134.765"/><use height="1052.362" width="744.094" xlink:href="#textext-082fa4b4-1" x="239.273" y="134.765"/><use height="1052.362" width="744.094" xlink:href="#textext-082fa4b4-2" x="249.472" y="134.765"/><use height="1052.362" width="744.094" xlink:href="#textext-082fa4b4-3" x="249.791" y="134.765"/><use height="1052.362" width="744.094" xlink:href="#textext-082fa4b4-4" x="254.284" y="136.259"/><use height="1052.362" width="744.094" xlink:href="#textext-082fa4b4-6" x="260.967" y="134.765"/><use height="1052.362" width="744.094" xlink:href="#textext-082fa4b4-2" x="270.612" y="134.765"/><use height="1052.362" width="744.094" xlink:href="#textext-082fa4b4-3" x="270.931" y="134.765"/><use height="1052.362" width="744.094" xlink:href="#textext-082fa4b4-5" x="275.425" y="136.259"/></g><g ns0:text="$\\Delta \\vec{r} = \\vec{r}_{\\rm{2}} - \\vec{r}_{\\rm{1}} $" ns0:preamble="/home/waldgeist/data/sphinx/test.tex"><use height="1052.362" width="744.094" xlink:href="#textext-082fa4b4-0" x="223.432" y="134.765"/><use height="1052.362" width="744.094" xlink:href="#textext-082fa4b4-2" x="231.417" y="134.765"/><use height="1052.362" width="744.094" xlink:href="#textext-082fa4b4-3" x="231.736" y="134.765"/><use height="1052.362" width="744.094" xlink:href="#textext-082fa4b4-1" x="239.273" y="134.765"/><use height="1052.362" width="744.094" xlink:href="#textext-082fa4b4-2" x="249.472" y="134.765"/><use height="1052.362" width="744.094" xlink:href="#textext-082fa4b4-3" x="249.791" y="134.765"/><use height="1052.362" width="744.094" xlink:href="#textext-082fa4b4-4" x="254.284" y="136.259"/><use height="1052.362" width="744.094" xlink:href="#textext-082fa4b4-6" x="260.967" y="134.765"/><use height="1052.362" width="744.094" xlink:href="#textext-082fa4b4-2" x="270.612" y="134.765"/><use height="1052.362" width="744.094" xlink:href="#textext-082fa4b4-3" x="270.931" y="134.765"/><use height="1052.362" width="744.094" xlink:href="#textext-082fa4b4-5" x="275.425" y="136.259"/></g></g><defs transform="translate(-489.515 -82.032) scale(5.5131)" ns0:text="$\\alpha$" ns0:preamble="/home/waldgeist/data/sphinx/test.tex"><symbol overflow="visible" id="f"><path d="M4.75-2.36c0-1.562-.922-2.046-1.656-2.046-1.375 0-2.688 1.422-2.688 2.828C.406-.641 1 .109 2.031.109c.625 0 1.344-.234 2.094-.843.125.53.453.843.906.843.532 0 .844-.546.844-.703 0-.078-.063-.11-.125-.11-.063 0-.094.032-.125.11-.188.485-.547.485-.563.485-.312 0-.312-.782-.312-1.016 0-.203 0-.234.11-.344C5.796-2.656 6-3.812 6-3.812c0-.032-.016-.11-.125-.11-.094 0-.094.031-.14.219-.188.625-.516 1.375-.985 1.969zM4.094-.983c-.89.765-1.657.875-2.047.875-.594 0-.906-.454-.906-1.094 0-.484.265-1.563.578-2.063.468-.734 1.015-.921 1.36-.921.983 0 .983 1.312.983 2.078 0 .375 0 .953.032 1.125zm0 0"/></symbol></defs><path fill="#fff" stroke="#fff" stroke-miterlimit="3.9" d="M22.031-392.226H2957.89v784.453H22.031z"/><g stroke="#e6e6e6" stroke-width="1.019" fill="none"><path d="M145.869-298.909V298.91m59.781-597.819V298.91m59.782-597.819V298.91m59.782-597.819V298.91m59.782-597.819V298.91m59.781-597.819V298.91m59.783-597.819V298.91m59.78-597.819V298.91m59.783-597.819V298.91M86.087-239.127h597.817M86.087-179.345h597.817M86.087-119.563h597.817M86.087-59.782h597.817M86.087 0h597.817M86.087 59.782h597.817M86.087 119.563h597.817M86.087 179.345h597.817M86.087 239.127h597.817" stroke-width="1.5"/><path d="M92.065-298.909V298.91m5.978-597.819V298.91m5.979-597.819V298.91M110-298.909V298.91m5.978-597.819V298.91m5.978-597.819V298.91m5.978-597.819V298.91m5.978-597.819V298.91m5.978-597.819V298.91m11.957-597.819V298.91m5.978-597.819V298.91m5.978-597.819V298.91m5.978-597.819V298.91m5.979-597.819V298.91m5.978-597.819V298.91m5.978-597.819V298.91m5.978-597.819V298.91m5.978-597.819V298.91m11.957-597.819V298.91m5.978-597.819V298.91m5.978-597.819V298.91m5.978-597.819V298.91m5.978-597.819V298.91m5.979-597.819V298.91m5.978-597.819V298.91m5.978-597.819V298.91m5.978-597.819V298.91m11.956-597.819V298.91m5.979-597.819V298.91m5.978-597.819V298.91m5.978-597.819V298.91m5.978-597.819V298.91m5.978-597.819V298.91m5.979-597.819V298.91m5.978-597.819V298.91m5.978-597.819V298.91m11.956-597.819V298.91m5.978-597.819V298.91m5.978-597.819V298.91m5.979-597.819V298.91m5.978-597.819V298.91m5.978-597.819V298.91m5.978-597.819V298.91m5.979-597.819V298.91m5.978-597.819V298.91m11.956-597.819V298.91m5.978-597.819V298.91m5.978-597.819V298.91m5.978-597.819V298.91m5.979-597.819V298.91m5.978-597.819V298.91m5.978-597.819V298.91m5.978-597.819V298.91m5.979-597.819V298.91m11.956-597.819V298.91m5.978-597.819V298.91m5.978-597.819V298.91m5.978-597.819V298.91m5.978-597.819V298.91m5.978-597.819V298.91m5.979-597.819V298.91m5.978-597.819V298.91m5.978-597.819V298.91m11.956-597.819V298.91m5.978-597.819V298.91m5.979-597.819V298.91m5.978-597.819V298.91m5.978-597.819V298.91m5.978-597.819V298.91m5.978-597.819V298.91m5.979-597.819V298.91m5.978-597.819V298.91m11.957-597.819V298.91m5.977-597.819V298.91m5.978-597.819V298.91m5.979-597.819V298.91m5.978-597.819V298.91m5.978-597.819V298.91m5.978-597.819V298.91m5.978-597.819V298.91m5.978-597.819V298.91M630.1-298.909V298.91m5.979-597.819V298.91m5.978-597.819V298.91m5.978-597.819V298.91m5.978-597.819V298.91m5.979-597.819V298.91m5.978-597.819V298.91m5.978-597.819V298.91m5.978-597.819V298.91M86.087-292.93h597.817m-597.817 5.978h597.817m-597.817 5.978h597.817m-597.817 5.978h597.817m-597.817 5.978h597.817M86.087-263.04h597.817m-597.817 5.979h597.817m-597.817 5.978h597.817m-597.817 5.978h597.817M86.087-233.149h597.817M86.087-227.17h597.817m-597.817 5.978h597.817m-597.817 5.978h597.817m-597.817 5.978h597.817m-597.817 5.978h597.817M86.087-197.28h597.817m-597.817 5.979h597.817m-597.817 5.978h597.817M86.087-173.367h597.817m-597.817 5.978h597.817M86.087-161.41h597.817m-597.817 5.978h597.817m-597.817 5.978h597.817m-597.817 5.978h597.817m-597.817 5.978h597.817M86.087-131.52h597.817m-597.817 5.978h597.817M86.087-113.585h597.817m-597.817 5.978h597.817m-597.817 5.978h597.817M86.087-95.65h597.817M86.087-89.673h597.817M86.087-83.694h597.817M86.087-77.716h597.817M86.087-71.738h597.817M86.087-65.76h597.817M86.087-53.804h597.817M86.087-47.825h597.817M86.087-41.847h597.817M86.087-35.869h597.817M86.087-29.89h597.817M86.087-23.913h597.817M86.087-17.934h597.817M86.087-11.956h597.817M86.087-5.978h597.817M86.087 5.978h597.817M86.087 11.956h597.817M86.087 17.935h597.817M86.087 23.913h597.817M86.087 29.89h597.817M86.087 35.87h597.817M86.087 41.847h597.817M86.087 47.825h597.817M86.087 53.804h597.817M86.087 65.76h597.817M86.087 71.738h597.817M86.087 77.716h597.817M86.087 83.694h597.817M86.087 89.673h597.817M86.087 95.65h597.817m-597.817 5.979h597.817m-597.817 5.978h597.817m-597.817 5.978h597.817M86.087 125.542h597.817M86.087 131.52h597.817m-597.817 5.978h597.817m-597.817 5.978h597.817m-597.817 5.978h597.817m-597.817 5.979h597.817M86.087 161.41h597.817m-597.817 5.979h597.817m-597.817 5.978h597.817M86.087 185.323h597.817m-597.817 5.979h597.817M86.087 197.28h597.817m-597.817 5.978h597.817m-597.817 5.978h597.817m-597.817 5.978h597.817m-597.817 5.978h597.817M86.087 227.17h597.817m-597.817 5.979h597.817M86.087 245.105h597.817m-597.817 5.978h597.817m-597.817 5.978h597.817M86.087 263.04h597.817m-597.817 5.978h597.817m-597.817 5.978h597.817m-597.817 5.978h597.817m-597.817 5.978h597.817M86.087 292.93h597.817" stroke-width=".5"/><path stroke-width="1.5" d="M86.087-298.909h597.817V298.91H86.087z"/></g><path d="M38.881 0h686.055" id="b" fill="none" stroke="#000" stroke-width="3" marker-end="url(#a)"/><use height="1052.362" width="744.094" transform="rotate(-90 384.996 0)" xlink:href="#b"/><path d="M624.123-12.326v23.913M145.869-12.809v23.913" fill="none" stroke="#000" stroke-width="2"/><g transform="translate(49.631 -310.17) scale(2.5424)" ns0:preamble="/home/waldgeist/data/sphinx/test.tex" ns0:text="$1$" fill="#4d4d4d" stroke="green" stroke-width="1.18"><defs><symbol id="c" overflow="visible"><path d="M2.938-6.375c0-.25 0-.266-.235-.266C2.078-6 1.203-6 .891-6v.313c.203 0 .78 0 1.296-.266v5.172c0 .36-.03.469-.921.469H.953V0c.344-.031 1.203-.031 1.61-.031.39 0 1.265 0 1.609.031v-.313h-.313c-.906 0-.921-.109-.921-.468zm0 0" stroke="none"/></symbol></defs><use height="1052.362" width="744.094" y="134.765" x="223.432" xlink:href="#c"/></g><g ns0:text="$-1$" ns0:preamble="/home/waldgeist/data/sphinx/test.tex" transform="translate(-448.495 -310.17) scale(2.5424)" fill="#4d4d4d" stroke="green" stroke-width="1.18"><defs><symbol overflow="visible" id="d"><path d="M6.563-2.297c.171 0 .359 0 .359-.203 0-.188-.188-.188-.36-.188h-5.39c-.172 0-.344 0-.344.188 0 .203.172.203.344.203zm0 0" stroke="none"/></symbol><symbol overflow="visible" id="e"><path d="M2.938-6.375c0-.25 0-.266-.235-.266C2.078-6 1.203-6 .891-6v.313c.203 0 .78 0 1.296-.266v5.172c0 .36-.03.469-.921.469H.953V0c.344-.031 1.203-.031 1.61-.031.39 0 1.265 0 1.609.031v-.313h-.313c-.906 0-.921-.109-.921-.468zm0 0" stroke="none"/></symbol></defs><use height="1052.362" width="744.094" xlink:href="#d" x="223.432" y="134.765"/><use height="1052.362" width="744.094" xlink:href="#e" x="231.181" y="134.765"/></g><g ns0:preamble="/home/waldgeist/data/sphinx/test.tex" ns0:text="$-1$" fill="#4d4d4d" stroke="green" stroke-width="1.18" transform="translate(-231.147 -95.06) scale(2.5424)"><use y="134.765" x="223.432" xlink:href="#d" width="744.094" height="1052.362"/><use y="134.765" x="231.181" xlink:href="#e" width="744.094" height="1052.362"/></g><use xlink:href="#c" x="223.432" y="134.765" width="744.094" height="1052.362" transform="translate(-211.446 -573.313) scale(2.5424)" ns0:text="$1$" ns0:preamble="/home/waldgeist/data/sphinx/test.tex" fill="#4d4d4d" stroke="green" stroke-width="1.18"/><path d="M397.155-239.127h-24.319m24.319 478.254h-24.319" stroke-width="1.559" fill="none" stroke="#000"/><path d="M625.031 0c0 132.066-107.06 239.127-239.127 239.127-132.066 0-239.127-107.06-239.127-239.127 0-132.066 107.061-239.127 239.127-239.127S625.031-132.067 625.031 0z" opacity=".3" fill="none" stroke="gray" stroke-width="1.5" stroke-linecap="round"/><path d="M385.122 0h193.67" fill="none" stroke="#4a0" stroke-width="4" stroke-linecap="round"/><path d="M385.122 0l193.67-141.364" fill="none" stroke="#4d4d4d" stroke-width="3" stroke-linecap="round"/><use y="134.765" x="223.432" xlink:href="#f" width="744.094" height="1052.362" transform="translate(-355.144 -482.314) scale(3.49978)"/><g ns0:text="$\\sin{\\alpha}$" ns0:preamble="/home/waldgeist/data/sphinx/test.tex" transform="matrix(3.62687 0 0 3.6496 -219.298 -550.167)" fill="navy" stroke="navy" stroke-width=".825"><defs><symbol overflow="visible" id="g"><path d="M2.078-1.938c.219.047 1.031.204 1.031.922 0 .5-.343.907-1.125.907-.843 0-1.203-.563-1.39-1.422-.031-.125-.031-.157-.14-.157-.126 0-.126.063-.126.235v1.328c0 .172 0 .234.11.234C.483.11.5.094.688-.094.703-.109.703-.125.89-.312c.437.406.89.421 1.093.421 1.141 0 1.61-.671 1.61-1.39 0-.516-.297-.828-.422-.938-.328-.328-.719-.406-1.14-.484-.563-.11-1.22-.235-1.22-.813 0-.359.25-.765 1.11-.765 1.094 0 1.156.906 1.172 1.203 0 .094.094.094.11.094.14 0 .14-.047.14-.235v-1.015c0-.157 0-.235-.11-.235-.046 0-.078 0-.203.125a1.676 1.676 0 0 1-.172.157c-.375-.282-.78-.282-.937-.282-1.219 0-1.594.672-1.594 1.235 0 .343.156.625.422.843.328.25.61.313 1.328.454zm0 0" stroke="none"/></symbol><symbol overflow="visible" id="h"><path d="M1.766-4.406l-1.391.11v.312c.64 0 .734.062.734.546V-.75c0 .438-.109.438-.78.438V0c.312-.016.859-.031 1.093-.031.36 0 .703.015 1.047.031v-.313c-.672 0-.703-.046-.703-.437zm.03-1.735a.514.514 0 0 0-.515-.53.537.537 0 0 0-.531.53c0 .266.219.532.531.532a.514.514 0 0 0 .516-.532zm0 0" stroke="none"/></symbol><symbol overflow="visible" id="i"><path d="M1.094-3.422V-.75c0 .438-.11.438-.782.438V0c.36-.016.86-.031 1.141-.031.25 0 .766.015 1.11.031v-.313c-.672 0-.782 0-.782-.437v-1.844c0-1.031.719-1.594 1.344-1.594.64 0 .75.532.75 1.11V-.75c0 .438-.11.438-.781.438V0c.344-.016.86-.031 1.125-.031.25 0 .781.015 1.11.031v-.313c-.516 0-.766 0-.766-.296v-1.907c0-.859 0-1.156-.313-1.515-.14-.172-.469-.375-1.047-.375-.734 0-1.203.422-1.484 1.047v-1.047l-1.407.11v.312c.704 0 .782.062.782.562zm0 0" stroke="none"/></symbol><symbol overflow="visible" id="j"><path d="M4.75-2.36c0-1.562-.922-2.046-1.656-2.046-1.375 0-2.688 1.422-2.688 2.828C.406-.641 1 .109 2.031.109c.625 0 1.344-.234 2.094-.843.125.53.453.843.906.843.532 0 .844-.546.844-.703 0-.078-.063-.11-.125-.11-.063 0-.094.032-.125.11-.188.485-.547.485-.563.485-.312 0-.312-.782-.312-1.016 0-.203 0-.234.11-.344C5.796-2.656 6-3.812 6-3.812c0-.032-.016-.11-.125-.11-.094 0-.094.031-.14.219-.188.625-.516 1.375-.985 1.969zM4.094-.983c-.89.765-1.657.875-2.047.875-.594 0-.906-.454-.906-1.094 0-.484.265-1.563.578-2.063.468-.734 1.015-.921 1.36-.921.983 0 .983 1.312.983 2.078 0 .375 0 .953.032 1.125zm0 0" stroke="none"/></symbol></defs><use height="744.094" width="1052.362" xlink:href="#g" x="223.432" y="134.765"/><use height="744.094" width="1052.362" xlink:href="#h" x="227.361" y="134.765"/><use height="744.094" width="1052.362" xlink:href="#i" x="230.129" y="134.765"/><use height="744.094" width="1052.362" xlink:href="#j" x="237.324" y="134.765"/></g><g transform="matrix(3.62687 0 0 3.6496 -348.242 -460.304)" ns0:preamble="/home/waldgeist/data/sphinx/test.tex" ns0:text="$\\cos{\\alpha}$" fill="#4a0" stroke="green" stroke-width=".825"><defs><symbol id="k" overflow="visible"><path d="M1.172-2.172c0-1.625.812-2.047 1.344-2.047.093 0 .718.016 1.062.375-.406.031-.469.328-.469.453 0 .266.188.454.454.454.265 0 .468-.157.468-.47 0-.671-.765-1.062-1.531-1.062C1.25-4.469.344-3.39.344-2.156c0 1.281.984 2.265 2.14 2.265 1.329 0 1.657-1.203 1.657-1.296 0-.094-.11-.094-.141-.094-.078 0-.11.031-.125.093C3.594-.265 2.937-.14 2.578-.14c-.531 0-1.406-.421-1.406-2.03zm0 0" stroke="none"/></symbol><symbol id="l" overflow="visible"><path d="M4.688-2.14c0-1.266-.985-2.329-2.188-2.329C1.25-4.469.281-3.375.281-2.14A2.22 2.22 0 0 0 2.484.11c1.204 0 2.204-.984 2.204-2.25zM2.5-.14c-.438 0-.875-.204-1.14-.672-.25-.438-.25-1.047-.25-1.407 0-.39 0-.922.234-1.36a1.347 1.347 0 0 1 1.14-.671c.438 0 .86.219 1.125.656.266.422.266 1 .266 1.375 0 .36 0 .906-.219 1.344-.234.453-.672.734-1.156.734zm0 0" stroke="none"/></symbol><symbol id="m" overflow="visible"><path d="M2.078-1.938c.219.047 1.031.204 1.031.922 0 .5-.343.907-1.125.907-.843 0-1.203-.563-1.39-1.422-.031-.125-.031-.157-.14-.157-.126 0-.126.063-.126.235v1.328c0 .172 0 .234.11.234C.483.11.5.094.688-.094.703-.109.703-.125.89-.312c.437.406.89.421 1.093.421 1.141 0 1.61-.671 1.61-1.39 0-.516-.297-.828-.422-.938-.328-.328-.719-.406-1.14-.484-.563-.11-1.22-.235-1.22-.813 0-.359.25-.765 1.11-.765 1.094 0 1.156.906 1.172 1.203 0 .094.094.094.11.094.14 0 .14-.047.14-.235v-1.015c0-.157 0-.235-.11-.235-.046 0-.078 0-.203.125a1.676 1.676 0 0 1-.172.157c-.375-.282-.78-.282-.937-.282-1.219 0-1.594.672-1.594 1.235 0 .343.156.625.422.843.328.25.61.313 1.328.454zm0 0" stroke="none"/></symbol><symbol id="n" overflow="visible"><path d="M4.75-2.36c0-1.562-.922-2.046-1.656-2.046-1.375 0-2.688 1.422-2.688 2.828C.406-.641 1 .109 2.031.109c.625 0 1.344-.234 2.094-.843.125.53.453.843.906.843.532 0 .844-.546.844-.703 0-.078-.063-.11-.125-.11-.063 0-.094.032-.125.11-.188.485-.547.485-.563.485-.312 0-.312-.782-.312-1.016 0-.203 0-.234.11-.344C5.796-2.656 6-3.812 6-3.812c0-.032-.016-.11-.125-.11-.094 0-.094.031-.14.219-.188.625-.516 1.375-.985 1.969zM4.094-.983c-.89.765-1.657.875-2.047.875-.594 0-.906-.454-.906-1.094 0-.484.265-1.563.578-2.063.468-.734 1.015-.921 1.36-.921.983 0 .983 1.312.983 2.078 0 .375 0 .953.032 1.125zm0 0" stroke="none"/></symbol></defs><use y="134.765" x="223.432" xlink:href="#k" width="1052.362" height="744.094"/><use y="134.765" x="227.859" xlink:href="#l" width="1052.362" height="744.094"/><use y="134.765" x="232.841" xlink:href="#m" width="1052.362" height="744.094"/><use y="134.765" x="238.431" xlink:href="#n" width="1052.362" height="744.094"/></g><path transform="matrix(1.29366 0 0 1.24063 -1159.399 -1243.736)" d="M1249.31 964.963a82.685 82.685 0 0 1 9.013 37.538" fill="none" stroke="#000" stroke-width="1.184" stroke-linecap="round" stroke-miterlimit="3.9" marker-start="url(#o)"/><g stroke="#e6e6e6" stroke-width="1.019" fill="none"><path d="M882.512-298.909V298.91m59.782-597.819V298.91m59.782-597.819V298.91m59.781-597.819V298.91m59.782-597.819V298.91m59.781-597.819V298.91m59.782-597.819V298.91m59.782-597.819V298.91m59.782-597.819V298.91M822.73-239.127h597.818M822.73-179.345h597.818M822.73-119.563h597.818M822.73-59.782h597.818M822.73 0h597.818M822.73 59.782h597.818M822.73 119.563h597.818M822.73 179.345h597.818M822.73 239.127h597.818" stroke-width="1.5"/><path d="M828.709-298.909V298.91m5.978-597.819V298.91m5.978-597.819V298.91m5.978-597.819V298.91m5.978-597.819V298.91m5.979-597.819V298.91m5.978-597.819V298.91m5.978-597.819V298.91m5.978-597.819V298.91m11.956-597.819V298.91m5.978-597.819V298.91m5.979-597.819V298.91m5.978-597.819V298.91m5.978-597.819V298.91m5.978-597.819V298.91m5.979-597.819V298.91m5.977-597.819V298.91m5.979-597.819V298.91m11.956-597.819V298.91m5.978-597.819V298.91m5.978-597.819V298.91m5.979-597.819V298.91m5.978-597.819V298.91m5.978-597.819V298.91m5.978-597.819V298.91m5.979-597.819V298.91m5.977-597.819V298.91m11.957-597.819V298.91m5.978-597.819V298.91m5.978-597.819V298.91m5.978-597.819V298.91m5.978-597.819V298.91m5.979-597.819V298.91m5.978-597.819V298.91m5.977-597.819V298.91m5.98-597.819V298.91m11.955-597.819V298.91m5.979-597.819V298.91m5.978-597.819V298.91m5.978-597.819V298.91m5.978-597.819V298.91m5.978-597.819V298.91m5.978-597.819V298.91m5.979-597.819V298.91m5.977-597.819V298.91m11.957-597.819V298.91m5.978-597.819V298.91m5.979-597.819V298.91m5.978-597.819V298.91m5.978-597.819V298.91m5.978-597.819V298.91m5.978-597.819V298.91m5.978-597.819V298.91m5.979-597.819V298.91m11.956-597.819V298.91m5.978-597.819V298.91m5.978-597.819V298.91m5.978-597.819V298.91m5.979-597.819V298.91m5.978-597.819V298.91m5.978-597.819V298.91m5.978-597.819V298.91m5.978-597.819V298.91m11.956-597.819V298.91m5.979-597.819V298.91m5.978-597.819V298.91m5.978-597.819V298.91m5.978-597.819V298.91m5.978-597.819V298.91m5.979-597.819V298.91m5.978-597.819V298.91m5.978-597.819V298.91m11.956-597.819V298.91m5.978-597.819V298.91m5.979-597.819V298.91m5.978-597.819V298.91m5.978-597.819V298.91m5.978-597.819V298.91m5.978-597.819V298.91m5.979-597.819V298.91m5.978-597.819V298.91m11.956-597.819V298.91m5.978-597.819V298.91m5.978-597.819V298.91m5.979-597.819V298.91m5.978-597.819V298.91m5.978-597.819V298.91m5.978-597.819V298.91m5.978-597.819V298.91m5.979-597.819V298.91M822.73-292.93h597.818m-597.818 5.978h597.818m-597.818 5.978h597.818m-597.818 5.978h597.818m-597.818 5.978h597.818M822.73-263.04h597.818m-597.818 5.979h597.818m-597.818 5.978h597.818m-597.818 5.978h597.818M822.73-233.149h597.818M822.73-227.17h597.818m-597.818 5.978h597.818m-597.818 5.978h597.818m-597.818 5.978h597.818m-597.818 5.978h597.818M822.73-197.28h597.818m-597.818 5.979h597.818m-597.818 5.978h597.818M822.73-173.367h597.818m-597.818 5.978h597.818M822.73-161.41h597.818m-597.818 5.978h597.818m-597.818 5.978h597.818m-597.818 5.978h597.818m-597.818 5.978h597.818M822.73-131.52h597.818m-597.818 5.978h597.818M822.73-113.585h597.818m-597.818 5.978h597.818m-597.818 5.978h597.818M822.73-95.65h597.818M822.73-89.673h597.818M822.73-83.694h597.818M822.73-77.716h597.818M822.73-71.738h597.818M822.73-65.76h597.818M822.73-53.804h597.818M822.73-47.825h597.818M822.73-41.847h597.818M822.73-35.869h597.818M822.73-29.89h597.818M822.73-23.913h597.818M822.73-17.934h597.818M822.73-11.956h597.818M822.73-5.978h597.818M822.73 5.978h597.818M822.73 11.956h597.818M822.73 17.935h597.818M822.73 23.913h597.818M822.73 29.89h597.818M822.73 35.87h597.818M822.73 41.847h597.818M822.73 47.825h597.818M822.73 53.804h597.818M822.73 65.76h597.818M822.73 71.738h597.818M822.73 77.716h597.818M822.73 83.694h597.818M822.73 89.673h597.818M822.73 95.65h597.818m-597.818 5.979h597.818m-597.818 5.978h597.818m-597.818 5.978h597.818M822.73 125.542h597.818M822.73 131.52h597.818m-597.818 5.978h597.818m-597.818 5.978h597.818m-597.818 5.978h597.818m-597.818 5.979h597.818M822.73 161.41h597.818m-597.818 5.979h597.818m-597.818 5.978h597.818M822.73 185.323h597.818m-597.818 5.979h597.818M822.73 197.28h597.818m-597.818 5.978h597.818m-597.818 5.978h597.818m-597.818 5.978h597.818m-597.818 5.978h597.818M822.73 227.17h597.818m-597.818 5.979h597.818M822.73 245.105h597.818m-597.818 5.978h597.818m-597.818 5.978h597.818M822.73 263.04h597.818m-597.818 5.978h597.818m-597.818 5.978h597.818m-597.818 5.978h597.818m-597.818 5.978h597.818M822.73 292.93h597.818" stroke-width=".5"/><path stroke-width="1.5" d="M822.73-298.909h597.818V298.91H822.73z"/></g><path d="M775.524 0h686.055" fill="none" stroke="#000" stroke-width="3" marker-end="url(#a)"/><use xlink:href="#b" transform="rotate(-90 755.362 -366.277)" width="744.094" height="1052.362"/><path d="M1360.766-12.326v23.913M882.512-12.809v23.913" fill="none" stroke="#000" stroke-width="2"/><use xlink:href="#c" x="223.432" y="134.765" width="744.094" height="1052.362" transform="translate(786.275 -310.17) scale(2.5424)" ns0:text="$1$" ns0:preamble="/home/waldgeist/data/sphinx/test.tex" fill="#4d4d4d" stroke="green" stroke-width="1.18"/><g ns0:preamble="/home/waldgeist/data/sphinx/test.tex" ns0:text="$-1$" fill="#4d4d4d" stroke="green" stroke-width="1.18" transform="translate(288.148 -310.17) scale(2.5424)"><use y="134.765" x="223.432" xlink:href="#d" width="744.094" height="1052.362"/><use y="134.765" x="231.181" xlink:href="#e" width="744.094" height="1052.362"/></g><g ns0:text="$-1$" ns0:preamble="/home/waldgeist/data/sphinx/test.tex" fill="#4d4d4d" stroke="green" stroke-width="1.18" transform="translate(505.496 -95.06) scale(2.5424)"><use height="1052.362" width="744.094" xlink:href="#d" x="223.432" y="134.765"/><use height="1052.362" width="744.094" xlink:href="#e" x="231.181" y="134.765"/></g><use transform="translate(525.197 -573.313) scale(2.5424)" height="1052.362" width="744.094" y="134.765" x="223.432" xlink:href="#c" ns0:preamble="/home/waldgeist/data/sphinx/test.tex" ns0:text="$1$" fill="#4d4d4d" stroke="green" stroke-width="1.18"/><path d="M1133.799-239.127h-24.32m24.32 478.254h-24.32" stroke-width="1.559" fill="none" stroke="#000"/><path d="M1361.674 0c0 132.066-107.06 239.127-239.127 239.127-132.066 0-239.126-107.06-239.126-239.127 0-132.066 107.06-239.127 239.126-239.127 132.067 0 239.127 107.06 239.127 239.127z" opacity=".5" fill="none" stroke="gray" stroke-width="1.5" stroke-linecap="round"/><path d="M1121.765 0H928.758" fill="none" stroke="#4a0" stroke-width="4" stroke-linecap="round"/><use transform="translate(349.313 -486.314) scale(3.49978)" height="1052.362" width="744.094" xlink:href="#f" x="223.432" y="134.765"/><g ns0:preamble="/home/waldgeist/data/sphinx/test.tex" ns0:text="$\\sin{\\alpha}$" fill="navy" stroke="navy" stroke-width=".825" transform="matrix(3.62687 0 0 3.6496 34.488 -550.167)"><use y="134.765" x="223.432" xlink:href="#g" width="1052.362" height="744.094"/><use y="134.765" x="227.361" xlink:href="#h" width="1052.362" height="744.094"/><use y="134.765" x="230.129" xlink:href="#i" width="1052.362" height="744.094"/><use y="134.765" x="237.324" xlink:href="#j" width="1052.362" height="744.094"/></g><g ns0:text="$\\cos{\\alpha}$" ns0:preamble="/home/waldgeist/data/sphinx/test.tex" fill="#4a0" stroke="green" stroke-width=".825" transform="matrix(3.62687 0 0 3.6496 166.544 -460.304)"><use height="744.094" width="1052.362" xlink:href="#k" x="223.432" y="134.765"/><use height="744.094" width="1052.362" xlink:href="#l" x="227.859" y="134.765"/><use height="744.094" width="1052.362" xlink:href="#m" x="232.841" y="134.765"/><use height="744.094" width="1052.362" xlink:href="#n" x="238.431" y="134.765"/></g><path d="M1223.268 31.366c0 17.323-22.722 31.366-50.751 31.366-28.03 0-50.752-14.043-50.752-31.366S1144.487 0 1172.517 0c28.029 0 50.75 14.043 50.75 31.366z" opacity=".2" fill="#fff" stroke="#fff" stroke-linecap="round" stroke-miterlimit="3.9"/><path d="M1114.19 947.174c30.556-33.937 82.838-36.677 116.775-6.12a82.686 82.686 0 0 1 27.358 61.447" transform="translate(356.651 -652.328) scale(.6507)" fill="none" stroke="#000" stroke-width="2.305" stroke-linecap="round" stroke-miterlimit="3.9" marker-start="url(#o)"/><path d="M1121.765 0L928.888-140.785" fill="none" stroke="#4d4d4d" stroke-width="3" stroke-linecap="round"/><g stroke="#e6e6e6" stroke-width="1.019" fill="none"><path d="M1619.155-298.909V298.91m59.782-597.819V298.91m59.782-597.819V298.91m59.781-597.819V298.91m59.782-597.819V298.91m59.782-597.819V298.91m59.782-597.819V298.91m59.781-597.819V298.91m59.783-597.819V298.91M1559.374-239.127h597.817m-597.817 59.782h597.817m-597.817 59.782h597.817m-597.817 59.781h597.817M1559.374 0h597.817m-597.817 59.782h597.817m-597.817 59.781h597.817m-597.817 59.782h597.817m-597.817 59.782h597.817" stroke-width="1.5"/><path d="M1565.352-298.909V298.91m5.978-597.819V298.91m5.978-597.819V298.91m5.978-597.819V298.91m5.978-597.819V298.91m5.979-597.819V298.91m5.977-597.819V298.91m5.979-597.819V298.91m5.978-597.819V298.91m11.956-597.819V298.91m5.979-597.819V298.91m5.978-597.819V298.91m5.978-597.819V298.91m5.978-597.819V298.91m5.978-597.819V298.91m5.979-597.819V298.91m5.977-597.819V298.91m5.979-597.819V298.91m11.956-597.819V298.91m5.978-597.819V298.91m5.979-597.819V298.91m5.978-597.819V298.91m5.978-597.819V298.91m5.978-597.819V298.91m5.978-597.819V298.91m5.978-597.819V298.91m5.978-597.819V298.91m11.957-597.819V298.91m5.978-597.819V298.91m5.978-597.819V298.91m5.978-597.819V298.91m5.979-597.819V298.91m5.978-597.819V298.91m5.978-597.819V298.91m5.978-597.819V298.91m5.978-597.819V298.91m11.957-597.819V298.91m5.978-597.819V298.91m5.978-597.819V298.91m5.978-597.819V298.91m5.978-597.819V298.91m5.979-597.819V298.91m5.978-597.819V298.91m5.978-597.819V298.91m5.978-597.819V298.91m11.956-597.819V298.91m5.979-597.819V298.91m5.978-597.819V298.91m5.978-597.819V298.91m5.978-597.819V298.91m5.978-597.819V298.91m5.979-597.819V298.91m5.978-597.819V298.91m5.978-597.819V298.91m11.956-597.819V298.91m5.978-597.819V298.91m5.978-597.819V298.91m5.979-597.819V298.91m5.978-597.819V298.91m5.978-597.819V298.91m5.978-597.819V298.91m5.979-597.819V298.91m5.978-597.819V298.91m11.956-597.819V298.91m5.978-597.819V298.91m5.978-597.819V298.91m5.978-597.819V298.91m5.979-597.819V298.91m5.978-597.819V298.91m5.978-597.819V298.91m5.978-597.819V298.91m5.979-597.819V298.91m11.956-597.819V298.91m5.978-597.819V298.91m5.978-597.819V298.91m5.978-597.819V298.91m5.978-597.819V298.91m5.978-597.819V298.91m5.979-597.819V298.91m5.978-597.819V298.91m5.978-597.819V298.91m11.956-597.819V298.91m5.978-597.819V298.91m5.979-597.819V298.91m5.978-597.819V298.91m5.978-597.819V298.91m5.978-597.819V298.91m5.978-597.819V298.91m5.979-597.819V298.91m5.978-597.819V298.91M1559.374-292.93h597.817m-597.817 5.978h597.817m-597.817 5.978h597.817m-597.817 5.978h597.817m-597.817 5.978h597.817m-597.817 5.978h597.817m-597.817 5.979h597.817m-597.817 5.978h597.817m-597.817 5.978h597.817m-597.817 11.956h597.817m-597.817 5.979h597.817m-597.817 5.978h597.817m-597.817 5.978h597.817m-597.817 5.978h597.817m-597.817 5.978h597.817m-597.817 5.978h597.817m-597.817 5.979h597.817m-597.817 5.978h597.817m-597.817 11.956h597.817m-597.817 5.978h597.817m-597.817 5.979h597.817m-597.817 5.978h597.817m-597.817 5.978h597.817m-597.817 5.978h597.817m-597.817 5.978h597.817m-597.817 5.978h597.817m-597.817 5.978h597.817m-597.817 11.957h597.817m-597.817 5.978h597.817m-597.817 5.978h597.817m-597.817 5.979h597.817m-597.817 5.977h597.817m-597.817 5.979h597.817m-597.817 5.978h597.817m-597.817 5.978h597.817m-597.817 5.978h597.817m-597.817 11.956h597.817m-597.817 5.979h597.817m-597.817 5.978h597.817m-597.817 5.978h597.817m-597.817 5.979h597.817m-597.817 5.977h597.817m-597.817 5.979h597.817m-597.817 5.978h597.817m-597.817 5.978h597.817M1559.374 5.978h597.817m-597.817 5.978h597.817m-597.817 5.979h597.817m-597.817 5.978h597.817m-597.817 5.977h597.817m-597.817 5.98h597.817m-597.817 5.977h597.817m-597.817 5.978h597.817m-597.817 5.979h597.817M1559.374 65.76h597.817m-597.817 5.978h597.817m-597.817 5.978h597.817m-597.817 5.978h597.817m-597.817 5.979h597.817m-597.817 5.977h597.817m-597.817 5.979h597.817m-597.817 5.978h597.817m-597.817 5.978h597.817m-597.817 11.957h597.817m-597.817 5.978h597.817m-597.817 5.978h597.817m-597.817 5.978h597.817m-597.817 5.978h597.817m-597.817 5.979h597.817m-597.817 5.977h597.817m-597.817 5.979h597.817m-597.817 5.978h597.817m-597.817 11.956h597.817m-597.817 5.979h597.817m-597.817 5.978h597.817m-597.817 5.978h597.817m-597.817 5.978h597.817m-597.817 5.978h597.817m-597.817 5.978h597.817m-597.817 5.978h597.817m-597.817 5.979h597.817m-597.817 11.956h597.817m-597.817 5.978h597.817m-597.817 5.978h597.817m-597.817 5.979h597.817m-597.817 5.978h597.817m-597.817 5.978h597.817m-597.817 5.978h597.817m-597.817 5.978h597.817m-597.817 5.978h597.817" stroke-width=".5"/><path stroke-width="1.5" d="M1559.374-298.909h597.817V298.91h-597.817z"/></g><path d="M2097.41-12.326v23.913m-478.255-24.396v23.913" fill="none" stroke="#000" stroke-width="2"/><use height="1052.362" width="744.094" y="134.765" x="223.432" xlink:href="#c" transform="translate(1522.918 -310.17) scale(2.5424)" ns0:preamble="/home/waldgeist/data/sphinx/test.tex" ns0:text="$1$" fill="#4d4d4d" stroke="green" stroke-width="1.18"/><g ns0:text="$-1$" ns0:preamble="/home/waldgeist/data/sphinx/test.tex" fill="#4d4d4d" stroke="green" stroke-width="1.18" transform="translate(1024.792 -310.17) scale(2.5424)"><use height="1052.362" width="744.094" xlink:href="#d" x="223.432" y="134.765"/><use height="1052.362" width="744.094" xlink:href="#e" x="231.181" y="134.765"/></g><g ns0:preamble="/home/waldgeist/data/sphinx/test.tex" ns0:text="$-1$" fill="#4d4d4d" stroke="green" stroke-width="1.18" transform="translate(1242.14 -95.06) scale(2.5424)"><use y="134.765" x="223.432" xlink:href="#d" width="744.094" height="1052.362"/><use y="134.765" x="231.181" xlink:href="#e" width="744.094" height="1052.362"/></g><use xlink:href="#c" x="223.432" y="134.765" width="744.094" height="1052.362" transform="translate(1261.84 -573.313) scale(2.5424)" ns0:text="$1$" ns0:preamble="/home/waldgeist/data/sphinx/test.tex" fill="#4d4d4d" stroke="green" stroke-width="1.18"/><path d="M1870.442-239.127h-24.32m24.32 478.254h-24.32" stroke-width="1.559" fill="none" stroke="#000"/><path d="M1959.911 31.366c0 17.323-22.722 31.366-50.751 31.366-28.03 0-50.752-14.043-50.752-31.366S1881.131 0 1909.16 0c28.029 0 50.751 14.043 50.751 31.366z" opacity=".2" fill="#fff" stroke="#fff" stroke-linecap="round" stroke-miterlimit="3.9"/><g stroke="#e6e6e6" stroke-width="1.019" fill="none"><path d="M1619.155-298.909V298.91m59.782-597.819V298.91m59.782-597.819V298.91m59.781-597.819V298.91m59.782-597.819V298.91m59.782-597.819V298.91m59.782-597.819V298.91m59.781-597.819V298.91m59.783-597.819V298.91M1559.374 0h597.817m-597.817-239.127h597.817m-597.817 59.782h597.817m-597.817 59.782h597.817m-597.817 59.781h597.817M1559.374 59.782h597.817m-597.817 59.781h597.817m-597.817 59.782h597.817m-597.817 59.782h597.817" stroke-width="1.5"/><path d="M1565.352-298.909V298.91m5.978-597.819V298.91m5.978-597.819V298.91m5.978-597.819V298.91m5.978-597.819V298.91m5.979-597.819V298.91m5.977-597.819V298.91m5.979-597.819V298.91m5.978-597.819V298.91m11.956-597.819V298.91m5.979-597.819V298.91m5.978-597.819V298.91m5.978-597.819V298.91m5.978-597.819V298.91m5.978-597.819V298.91m5.979-597.819V298.91m5.977-597.819V298.91m5.979-597.819V298.91m11.956-597.819V298.91m5.978-597.819V298.91m5.979-597.819V298.91m5.978-597.819V298.91m5.978-597.819V298.91m5.978-597.819V298.91m5.978-597.819V298.91m5.978-597.819V298.91m5.978-597.819V298.91m11.957-597.819V298.91m5.978-597.819V298.91m5.978-597.819V298.91m5.978-597.819V298.91m5.979-597.819V298.91m5.978-597.819V298.91m5.978-597.819V298.91m5.978-597.819V298.91m5.978-597.819V298.91m11.957-597.819V298.91m5.978-597.819V298.91m5.978-597.819V298.91m5.978-597.819V298.91m5.978-597.819V298.91m5.979-597.819V298.91m5.978-597.819V298.91m5.978-597.819V298.91m5.978-597.819V298.91m11.956-597.819V298.91m5.979-597.819V298.91m5.978-597.819V298.91m5.978-597.819V298.91m5.978-597.819V298.91m5.978-597.819V298.91m5.979-597.819V298.91m5.978-597.819V298.91m5.978-597.819V298.91m11.956-597.819V298.91m5.978-597.819V298.91m5.978-597.819V298.91m5.979-597.819V298.91m5.978-597.819V298.91m5.978-597.819V298.91m5.978-597.819V298.91m5.979-597.819V298.91m5.978-597.819V298.91m11.956-597.819V298.91m5.978-597.819V298.91m5.978-597.819V298.91m5.978-597.819V298.91m5.979-597.819V298.91m5.978-597.819V298.91m5.978-597.819V298.91m5.978-597.819V298.91m5.979-597.819V298.91m11.956-597.819V298.91m5.978-597.819V298.91m5.978-597.819V298.91m5.978-597.819V298.91m5.978-597.819V298.91m5.978-597.819V298.91m5.979-597.819V298.91m5.978-597.819V298.91m5.978-597.819V298.91m11.956-597.819V298.91m5.978-597.819V298.91m5.979-597.819V298.91m5.978-597.819V298.91m5.978-597.819V298.91m5.978-597.819V298.91m5.978-597.819V298.91m5.979-597.819V298.91m5.978-597.819V298.91M1559.374-292.93h597.817m-597.817 5.978h597.817m-597.817 5.978h597.817m-597.817 5.978h597.817m-597.817 5.978h597.817m-597.817 5.978h597.817m-597.817 5.979h597.817m-597.817 5.978h597.817m-597.817 5.978h597.817m-597.817 11.956h597.817m-597.817 5.979h597.817m-597.817 5.978h597.817m-597.817 5.978h597.817m-597.817 5.978h597.817m-597.817 5.978h597.817m-597.817 5.978h597.817m-597.817 5.979h597.817m-597.817 5.978h597.817m-597.817 11.956h597.817m-597.817 5.978h597.817m-597.817 5.979h597.817m-597.817 5.978h597.817m-597.817 5.978h597.817m-597.817 5.978h597.817m-597.817 5.978h597.817m-597.817 5.978h597.817m-597.817 5.978h597.817m-597.817 11.957h597.817m-597.817 5.978h597.817m-597.817 5.978h597.817m-597.817 5.979h597.817m-597.817 5.977h597.817m-597.817 5.979h597.817m-597.817 5.978h597.817m-597.817 5.978h597.817m-597.817 5.978h597.817m-597.817 11.956h597.817m-597.817 5.979h597.817m-597.817 5.978h597.817m-597.817 5.978h597.817m-597.817 5.979h597.817m-597.817 5.977h597.817m-597.817 5.979h597.817m-597.817 5.978h597.817m-597.817 5.978h597.817M1559.374 5.978h597.817m-597.817 5.978h597.817m-597.817 5.979h597.817m-597.817 5.978h597.817m-597.817 5.977h597.817m-597.817 5.98h597.817m-597.817 5.977h597.817m-597.817 5.978h597.817m-597.817 5.979h597.817M1559.374 65.76h597.817m-597.817 5.978h597.817m-597.817 5.978h597.817m-597.817 5.978h597.817m-597.817 5.979h597.817m-597.817 5.977h597.817m-597.817 5.979h597.817m-597.817 5.978h597.817m-597.817 5.978h597.817m-597.817 11.957h597.817m-597.817 5.978h597.817m-597.817 5.978h597.817m-597.817 5.978h597.817m-597.817 5.978h597.817m-597.817 5.979h597.817m-597.817 5.977h597.817m-597.817 5.979h597.817m-597.817 5.978h597.817m-597.817 11.956h597.817m-597.817 5.979h597.817m-597.817 5.978h597.817m-597.817 5.978h597.817m-597.817 5.978h597.817m-597.817 5.978h597.817m-597.817 5.978h597.817m-597.817 5.978h597.817m-597.817 5.979h597.817m-597.817 11.956h597.817m-597.817 5.978h597.817m-597.817 5.978h597.817m-597.817 5.979h597.817m-597.817 5.978h597.817m-597.817 5.978h597.817m-597.817 5.978h597.817m-597.817 5.978h597.817m-597.817 5.978h597.817" stroke-width=".5"/><path stroke-width="1.5" d="M1559.374-298.909h597.817V298.91h-597.817z"/></g><path d="M2097.41-12.326v23.913m-478.255-24.396v23.913" fill="none" stroke="#000" stroke-width="2"/><use xlink:href="#c" x="223.432" y="134.765" width="744.094" height="1052.362" transform="translate(1522.918 -310.17) scale(2.5424)" ns0:text="$1$" ns0:preamble="/home/waldgeist/data/sphinx/test.tex" fill="#4d4d4d" stroke="green" stroke-width="1.18"/><g ns0:preamble="/home/waldgeist/data/sphinx/test.tex" ns0:text="$-1$" fill="#4d4d4d" stroke="green" stroke-width="1.18" transform="translate(1024.792 -310.17) scale(2.5424)"><use y="134.765" x="223.432" xlink:href="#d" width="744.094" height="1052.362"/><use y="134.765" x="231.181" xlink:href="#e" width="744.094" height="1052.362"/></g><g ns0:text="$-1$" ns0:preamble="/home/waldgeist/data/sphinx/test.tex" fill="#4d4d4d" stroke="green" stroke-width="1.18" transform="translate(1242.14 -95.06) scale(2.5424)"><use height="1052.362" width="744.094" xlink:href="#d" x="223.432" y="134.765"/><use height="1052.362" width="744.094" xlink:href="#e" x="231.181" y="134.765"/></g><use transform="translate(1261.84 -573.313) scale(2.5424)" height="1052.362" width="744.094" y="134.765" x="223.432" xlink:href="#c" ns0:preamble="/home/waldgeist/data/sphinx/test.tex" ns0:text="$1$" fill="#4d4d4d" stroke="green" stroke-width="1.18"/><path d="M1870.442-239.127h-24.32m24.32 478.254h-24.32" stroke-width="1.559" fill="none" stroke="#000"/><path d="M1959.911 31.366c0 17.323-22.722 31.366-50.751 31.366-28.03 0-50.752-14.043-50.752-31.366S1881.131 0 1909.16 0c28.029 0 50.751 14.043 50.751 31.366z" opacity=".2" fill="#fff" stroke="#fff" stroke-linecap="round" stroke-miterlimit="3.9"/><path d="M1512.168 0h686.055" fill="none" stroke="#000" stroke-width="3" marker-end="url(#a)"/><path d="M1859.125 0l-192.877 140.786" fill="none" stroke="#4d4d4d" stroke-width="3" stroke-linecap="round"/><path d="M1859.19 0h-193.007" fill="none" stroke="#4a0" stroke-width="4" stroke-linecap="round"/><g ns0:text="$\\sin{\\alpha}$" ns0:preamble="/home/waldgeist/data/sphinx/test.tex" fill="navy" stroke="navy" stroke-width=".825" transform="matrix(3.62687 0 0 3.6496 771.131 -409.47)"><use height="744.094" width="1052.362" xlink:href="#g" x="223.432" y="134.765"/><use height="744.094" width="1052.362" xlink:href="#h" x="227.361" y="134.765"/><use height="744.094" width="1052.362" xlink:href="#i" x="230.129" y="134.765"/><use height="744.094" width="1052.362" xlink:href="#j" x="237.324" y="134.765"/></g><g ns0:preamble="/home/waldgeist/data/sphinx/test.tex" ns0:text="$\\cos{\\alpha}$" fill="#4a0" stroke="green" stroke-width=".825" transform="matrix(3.62687 0 0 3.6496 895.188 -460.304)"><use y="134.765" x="223.432" xlink:href="#k" width="1052.362" height="744.094"/><use y="134.765" x="227.859" xlink:href="#l" width="1052.362" height="744.094"/><use y="134.765" x="232.841" xlink:href="#m" width="1052.362" height="744.094"/><use y="134.765" x="238.431" xlink:href="#n" width="1052.362" height="744.094"/></g><use y="134.765" x="223.432" xlink:href="#f" width="744.094" height="1052.362" transform="translate(1085.956 -486.314) scale(3.49978)"/><path transform="translate(1093.294 -652.328) scale(.6507)" d="M1104.836 1045.21c-23.588-39.101-11.01-89.922 28.091-113.51 39.103-23.588 89.923-11.011 113.511 28.091a82.685 82.685 0 0 1 11.885 42.71" fill="none" stroke="#000" stroke-width="2.305" stroke-linecap="round" stroke-miterlimit="3.9" marker-start="url(#o)"/><use height="1052.362" width="744.094" transform="rotate(-90 1123.683 -734.599)" xlink:href="#b"/><path d="M2097.41 0c0 132.066-107.062 239.127-239.128 239.127-132.066 0-239.127-107.06-239.127-239.127 0-132.066 107.061-239.127 239.127-239.127S2097.41-132.067 2097.41 0z" opacity=".5" fill="none" stroke="gray" stroke-width="1.5" stroke-linecap="round"/><g stroke="#e6e6e6" stroke-width="1.019" fill="none"><path d="M2355.799-298.909V298.91m59.781-597.819V298.91m59.782-597.819V298.91m59.782-597.819V298.91m59.782-597.819V298.91m59.781-597.819V298.91m59.782-597.819V298.91m59.781-597.819V298.91m59.782-597.819V298.91M2296.017-239.127h597.817m-597.817 59.782h597.817m-597.817 59.782h597.817m-597.817 59.781h597.817M2296.017 0h597.817m-597.817 59.782h597.817m-597.817 59.781h597.817m-597.817 59.782h597.817m-597.817 59.782h597.817" stroke-width="1.5"/><path d="M2301.995-298.909V298.91m5.978-597.819V298.91m5.978-597.819V298.91m5.979-597.819V298.91m5.978-597.819V298.91m5.978-597.819V298.91m5.978-597.819V298.91m5.978-597.819V298.91m5.978-597.819V298.91m11.957-597.819V298.91m5.978-597.819V298.91m5.978-597.819V298.91m5.978-597.819V298.91m5.979-597.819V298.91m5.978-597.819V298.91m5.978-597.819V298.91m5.978-597.819V298.91m5.978-597.819V298.91m11.957-597.819V298.91m5.978-597.819V298.91m5.978-597.819V298.91m5.978-597.819V298.91m5.978-597.819V298.91m5.979-597.819V298.91m5.978-597.819V298.91m5.978-597.819V298.91m5.978-597.819V298.91m11.956-597.819V298.91m5.978-597.819V298.91m5.979-597.819V298.91m5.978-597.819V298.91m5.978-597.819V298.91m5.978-597.819V298.91m5.979-597.819V298.91m5.977-597.819V298.91m5.979-597.819V298.91m11.956-597.819V298.91m5.978-597.819V298.91m5.978-597.819V298.91m5.978-597.819V298.91m5.979-597.819V298.91m5.978-597.819V298.91m5.978-597.819V298.91m5.979-597.819V298.91m5.977-597.819V298.91m11.957-597.819V298.91m5.978-597.819V298.91m5.978-597.819V298.91m5.978-597.819V298.91m5.978-597.819V298.91m5.979-597.819V298.91m5.978-597.819V298.91m5.977-597.819V298.91m5.98-597.819V298.91m11.955-597.819V298.91m5.979-597.819V298.91m5.978-597.819V298.91m5.978-597.819V298.91m5.978-597.819V298.91m5.978-597.819V298.91m5.978-597.819V298.91m5.979-597.819V298.91m5.977-597.819V298.91m11.957-597.819V298.91m5.978-597.819V298.91m5.979-597.819V298.91m5.978-597.819V298.91m5.978-597.819V298.91m5.978-597.819V298.91m5.978-597.819V298.91m5.978-597.819V298.91m5.979-597.819V298.91m11.956-597.819V298.91m5.978-597.819V298.91m5.978-597.819V298.91m5.978-597.819V298.91m5.979-597.819V298.91m5.978-597.819V298.91m5.978-597.819V298.91m5.978-597.819V298.91m5.978-597.819V298.91m11.956-597.819V298.91m5.979-597.819V298.91m5.978-597.819V298.91m5.978-597.819V298.91m5.978-597.819V298.91m5.978-597.819V298.91m5.979-597.819V298.91m5.978-597.819V298.91m5.978-597.819V298.91M2296.017-292.93h597.817m-597.817 5.978h597.817m-597.817 5.978h597.817m-597.817 5.978h597.817m-597.817 5.978h597.817m-597.817 5.978h597.817m-597.817 5.979h597.817m-597.817 5.978h597.817m-597.817 5.978h597.817m-597.817 11.956h597.817m-597.817 5.979h597.817m-597.817 5.978h597.817m-597.817 5.978h597.817m-597.817 5.978h597.817m-597.817 5.978h597.817m-597.817 5.978h597.817m-597.817 5.978h597.817m-597.817 5.979h597.817m-597.817 11.956h597.817m-597.817 5.978h597.817m-597.817 5.979h597.817m-597.817 5.978h597.817m-597.817 5.978h597.817m-597.817 5.978h597.817m-597.817 5.978h597.817m-597.817 5.978h597.817m-597.817 5.978h597.817m-597.817 11.957h597.817m-597.817 5.978h597.817m-597.817 5.978h597.817m-597.817 5.979h597.817m-597.817 5.977h597.817m-597.817 5.979h597.817m-597.817 5.978h597.817m-597.817 5.978h597.817m-597.817 5.978h597.817m-597.817 11.956h597.817m-597.817 5.979h597.817m-597.817 5.978h597.817m-597.817 5.978h597.817m-597.817 5.979h597.817m-597.817 5.977h597.817m-597.817 5.978h597.817m-597.817 5.979h597.817m-597.817 5.978h597.817M2296.017 5.978h597.817m-597.817 5.978h597.817m-597.817 5.979h597.817m-597.817 5.978h597.817m-597.817 5.977h597.817m-597.817 5.979h597.817m-597.817 5.978h597.817m-597.817 5.978h597.817m-597.817 5.979h597.817M2296.017 65.76h597.817m-597.817 5.978h597.817m-597.817 5.978h597.817m-597.817 5.978h597.817m-597.817 5.979h597.817m-597.817 5.977h597.817m-597.817 5.979h597.817m-597.817 5.978h597.817m-597.817 5.978h597.817m-597.817 11.957h597.817m-597.817 5.978h597.817m-597.817 5.978h597.817m-597.817 5.978h597.817m-597.817 5.978h597.817m-597.817 5.978h597.817m-597.817 5.978h597.817m-597.817 5.979h597.817m-597.817 5.978h597.817m-597.817 11.956h597.817m-597.817 5.979h597.817m-597.817 5.978h597.817m-597.817 5.978h597.817m-597.817 5.978h597.817m-597.817 5.978h597.817m-597.817 5.978h597.817m-597.817 5.978h597.817m-597.817 5.979h597.817m-597.817 11.956h597.817m-597.817 5.978h597.817m-597.817 5.978h597.817m-597.817 5.979h597.817m-597.817 5.978h597.817m-597.817 5.978h597.817m-597.817 5.978h597.817m-597.817 5.978h597.817m-597.817 5.978h597.817" stroke-width=".5"/><path stroke-width="1.5" d="M2296.017-298.909h597.817V298.91h-597.817z"/></g><path d="M2834.052-12.326v23.913" fill="none" stroke="#000" stroke-width="2"/><use xlink:href="#c" x="223.432" y="134.765" width="744.094" height="1052.362" transform="translate(2259.561 -310.17) scale(2.5424)" ns0:text="$1$" ns0:preamble="/home/waldgeist/data/sphinx/test.tex" fill="#4d4d4d" stroke="green" stroke-width="1.18"/><g ns0:text="$-1$" ns0:preamble="/home/waldgeist/data/sphinx/test.tex" fill="#4d4d4d" stroke="green" stroke-width="1.18" transform="translate(1978.783 -95.06) scale(2.5424)"><use height="1052.362" width="744.094" xlink:href="#d" x="223.432" y="134.765"/><use height="1052.362" width="744.094" xlink:href="#e" x="231.181" y="134.765"/></g><use transform="translate(1998.484 -573.313) scale(2.5424)" height="1052.362" width="744.094" y="134.765" x="223.432" xlink:href="#c" ns0:preamble="/home/waldgeist/data/sphinx/test.tex" ns0:text="$1$" fill="#4d4d4d" stroke="green" stroke-width="1.18"/><path d="M2607.085-239.127h-24.32m24.32 478.254h-24.32" stroke-width="1.559" fill="none" stroke="#000"/><path d="M2696.554 31.366c0 17.323-22.722 31.366-50.751 31.366-28.03 0-50.751-14.043-50.751-31.366S2617.774 0 2645.803 0c28.03 0 50.751 14.043 50.751 31.366z" opacity=".2" fill="#fff" stroke="#fff" stroke-linecap="round" stroke-miterlimit="3.9"/><g stroke="#e6e6e6" stroke-width="1.019" fill="none"><path d="M2355.799-298.909V298.91m59.781-597.819V298.91m59.782-597.819V298.91m59.782-597.819V298.91m59.782-597.819V298.91m59.781-597.819V298.91m59.782-597.819V298.91m59.781-597.819V298.91m59.782-597.819V298.91M2296.017-239.127h597.817m-597.817 59.782h597.817m-597.817 59.782h597.817m-597.817 59.781h597.817M2296.017 0h597.817m-597.817 59.782h597.817m-597.817 59.781h597.817m-597.817 59.782h597.817m-597.817 59.782h597.817" stroke-width="1.5"/><path d="M2301.995-298.909V298.91m5.978-597.819V298.91m5.978-597.819V298.91m5.979-597.819V298.91m5.978-597.819V298.91m5.978-597.819V298.91m5.978-597.819V298.91m5.978-597.819V298.91m5.978-597.819V298.91m11.957-597.819V298.91m5.978-597.819V298.91m5.978-597.819V298.91m5.978-597.819V298.91m5.979-597.819V298.91m5.978-597.819V298.91m5.978-597.819V298.91m5.978-597.819V298.91m5.978-597.819V298.91m11.957-597.819V298.91m5.978-597.819V298.91m5.978-597.819V298.91m5.978-597.819V298.91m5.978-597.819V298.91m5.979-597.819V298.91m5.978-597.819V298.91m5.978-597.819V298.91m5.978-597.819V298.91m11.956-597.819V298.91m5.978-597.819V298.91m5.979-597.819V298.91m5.978-597.819V298.91m5.978-597.819V298.91m5.978-597.819V298.91m5.979-597.819V298.91m5.977-597.819V298.91m5.979-597.819V298.91m11.956-597.819V298.91m5.978-597.819V298.91m5.978-597.819V298.91m5.978-597.819V298.91m5.979-597.819V298.91m5.978-597.819V298.91m5.978-597.819V298.91m5.979-597.819V298.91m5.977-597.819V298.91m11.957-597.819V298.91m5.978-597.819V298.91m5.978-597.819V298.91m5.978-597.819V298.91m5.978-597.819V298.91m5.979-597.819V298.91m5.978-597.819V298.91m5.977-597.819V298.91m5.98-597.819V298.91m11.955-597.819V298.91m5.979-597.819V298.91m5.978-597.819V298.91m5.978-597.819V298.91m5.978-597.819V298.91m5.978-597.819V298.91m5.978-597.819V298.91m5.979-597.819V298.91m5.977-597.819V298.91m11.957-597.819V298.91m5.978-597.819V298.91m5.979-597.819V298.91m5.978-597.819V298.91m5.978-597.819V298.91m5.978-597.819V298.91m5.978-597.819V298.91m5.978-597.819V298.91m5.979-597.819V298.91m11.956-597.819V298.91m5.978-597.819V298.91m5.978-597.819V298.91m5.978-597.819V298.91m5.979-597.819V298.91m5.978-597.819V298.91m5.978-597.819V298.91m5.978-597.819V298.91m5.978-597.819V298.91m11.956-597.819V298.91m5.979-597.819V298.91m5.978-597.819V298.91m5.978-597.819V298.91m5.978-597.819V298.91m5.978-597.819V298.91m5.979-597.819V298.91m5.978-597.819V298.91m5.978-597.819V298.91M2296.017-292.93h597.817m-597.817 5.978h597.817m-597.817 5.978h597.817m-597.817 5.978h597.817m-597.817 5.978h597.817m-597.817 5.978h597.817m-597.817 5.979h597.817m-597.817 5.978h597.817m-597.817 5.978h597.817m-597.817 11.956h597.817m-597.817 5.979h597.817m-597.817 5.978h597.817m-597.817 5.978h597.817m-597.817 5.978h597.817m-597.817 5.978h597.817m-597.817 5.978h597.817m-597.817 5.978h597.817m-597.817 5.979h597.817m-597.817 11.956h597.817m-597.817 5.978h597.817m-597.817 5.979h597.817m-597.817 5.978h597.817m-597.817 5.978h597.817m-597.817 5.978h597.817m-597.817 5.978h597.817m-597.817 5.978h597.817m-597.817 5.978h597.817m-597.817 11.957h597.817m-597.817 5.978h597.817m-597.817 5.978h597.817m-597.817 5.979h597.817m-597.817 5.977h597.817m-597.817 5.979h597.817m-597.817 5.978h597.817m-597.817 5.978h597.817m-597.817 5.978h597.817m-597.817 11.956h597.817m-597.817 5.979h597.817m-597.817 5.978h597.817m-597.817 5.978h597.817m-597.817 5.979h597.817m-597.817 5.977h597.817m-597.817 5.978h597.817m-597.817 5.979h597.817m-597.817 5.978h597.817M2296.017 5.978h597.817m-597.817 5.978h597.817m-597.817 5.979h597.817m-597.817 5.978h597.817m-597.817 5.977h597.817m-597.817 5.979h597.817m-597.817 5.978h597.817m-597.817 5.978h597.817m-597.817 5.979h597.817M2296.017 65.76h597.817m-597.817 5.978h597.817m-597.817 5.978h597.817m-597.817 5.978h597.817m-597.817 5.979h597.817m-597.817 5.977h597.817m-597.817 5.979h597.817m-597.817 5.978h597.817m-597.817 5.978h597.817m-597.817 11.957h597.817m-597.817 5.978h597.817m-597.817 5.978h597.817m-597.817 5.978h597.817m-597.817 5.978h597.817m-597.817 5.978h597.817m-597.817 5.978h597.817m-597.817 5.979h597.817m-597.817 5.978h597.817m-597.817 11.956h597.817m-597.817 5.979h597.817m-597.817 5.978h597.817m-597.817 5.978h597.817m-597.817 5.978h597.817m-597.817 5.978h597.817m-597.817 5.978h597.817m-597.817 5.978h597.817m-597.817 5.979h597.817m-597.817 11.956h597.817m-597.817 5.978h597.817m-597.817 5.978h597.817m-597.817 5.979h597.817m-597.817 5.978h597.817m-597.817 5.978h597.817m-597.817 5.978h597.817m-597.817 5.978h597.817m-597.817 5.978h597.817" stroke-width=".5"/><path stroke-width="1.5" d="M2296.017-298.909h597.817V298.91h-597.817z"/></g><use height="1052.362" width="744.094" transform="rotate(-90 1492.005 -1102.92)" xlink:href="#b"/><path d="M2834.052-12.326v23.913" fill="none" stroke="#000" stroke-width="2"/><use height="1052.362" width="744.094" y="134.765" x="223.432" xlink:href="#c" transform="translate(2259.561 -310.17) scale(2.5424)" ns0:preamble="/home/waldgeist/data/sphinx/test.tex" ns0:text="$1$" fill="#4d4d4d" stroke="green" stroke-width="1.18"/><g ns0:preamble="/home/waldgeist/data/sphinx/test.tex" ns0:text="$-1$" fill="#4d4d4d" stroke="green" stroke-width="1.18" transform="translate(1978.783 -95.06) scale(2.5424)"><use y="134.765" x="223.432" xlink:href="#d" width="744.094" height="1052.362"/><use y="134.765" x="231.181" xlink:href="#e" width="744.094" height="1052.362"/></g><use xlink:href="#c" x="223.432" y="134.765" width="744.094" height="1052.362" transform="translate(1998.484 -573.313) scale(2.5424)" ns0:text="$1$" ns0:preamble="/home/waldgeist/data/sphinx/test.tex" fill="#4d4d4d" stroke="green" stroke-width="1.18"/><path d="M2607.085-239.127h-24.32m24.32 478.254h-24.32M2355.799-12.845v24.32" stroke-width="1.559" fill="none" stroke="#000"/><g ns0:text="$\\sin{\\alpha}$" ns0:preamble="/home/waldgeist/data/sphinx/test.tex" fill="navy" stroke="navy" stroke-width=".825" transform="matrix(3.62687 0 0 3.6496 1992.06 -409.47)"><use height="744.094" width="1052.362" xlink:href="#g" x="223.432" y="134.765"/><use height="744.094" width="1052.362" xlink:href="#h" x="227.361" y="134.765"/><use height="744.094" width="1052.362" xlink:href="#i" x="230.129" y="134.765"/><use height="744.094" width="1052.362" xlink:href="#j" x="237.324" y="134.765"/></g><g ns0:preamble="/home/waldgeist/data/sphinx/test.tex" ns0:text="$\\cos{\\alpha}$" fill="#4a0" stroke="green" stroke-width=".825" transform="matrix(3.62687 0 0 3.6496 1864.688 -460.304)"><use y="134.765" x="223.432" xlink:href="#k" width="1052.362" height="744.094"/><use y="134.765" x="227.859" xlink:href="#l" width="1052.362" height="744.094"/><use y="134.765" x="232.841" xlink:href="#m" width="1052.362" height="744.094"/><use y="134.765" x="238.431" xlink:href="#n" width="1052.362" height="744.094"/></g><path d="M2696.554 31.366c0 17.323-22.722 31.366-50.751 31.366-28.03 0-50.751-14.043-50.751-31.366S2617.774 0 2645.803 0c28.03 0 50.751 14.043 50.751 31.366z" opacity=".2" fill="#fff" stroke="#fff" stroke-linecap="round" stroke-miterlimit="3.9"/><path transform="translate(1829.938 -652.328) scale(.6507)" d="M1237.373 1057.506c-30.378 34.096-82.645 37.11-116.74 6.731-34.097-30.378-37.11-82.645-6.732-116.741 30.378-34.096 82.645-37.11 116.741-6.731a82.686 82.686 0 0 1 27.68 61.736" fill="none" stroke="#000" stroke-width="2.305" stroke-linecap="round" stroke-miterlimit="3.9" marker-start="url(#o)"/><path d="M2248.811 0h686.055" fill="none" stroke="#000" stroke-width="3" marker-end="url(#a)"/><path d="M2594.86 0l192.942-.579" fill="none" stroke="#4a0" stroke-width="4" stroke-linecap="round"/><use transform="translate(1822.6 -486.314) scale(3.49978)" height="1052.362" width="744.094" xlink:href="#f" x="223.432" y="134.765"/><path d="M2787.802 140.785L2594.925 0" fill="none" stroke="#4d4d4d" stroke-width="3" stroke-linecap="round"/><g ns0:text="$-1$" ns0:preamble="/home/waldgeist/data/sphinx/test.tex" fill="#4d4d4d" stroke="green" stroke-width="1.18" transform="translate(1761.59 -310.17) scale(2.5424)"><use height="1052.362" width="744.094" xlink:href="#d" x="223.432" y="134.765"/><use height="1052.362" width="744.094" xlink:href="#e" x="231.181" y="134.765"/></g><path d="M2834.96 0c0 132.066-107.06 239.127-239.126 239.127S2356.707 132.067 2356.707 0c0-132.066 107.06-239.127 239.127-239.127 132.066 0 239.127 107.06 239.127 239.127z" opacity=".5" fill="none" stroke="gray" stroke-width="1.5" stroke-linecap="round"/><path d="M578.792-141.364V0m350.096-140.785V.579m737.36-1.158v141.365M2787.802-.579v141.364" fill="navy" stroke="navy" stroke-width="3" stroke-linecap="round"/></g></svg>