<svg xmlns="http://www.w3.org/2000/svg" xmlns:xlink="http://www.w3.org/1999/xlink" width="1052.362" height="744.094"><title>Graphen von Funktionen (Aufgabe)</title><defs><marker id="a" orient="auto" overflow="visible"><path d="M2.308 0l-3.46 2v-4l3.46 2z" fill-rule="evenodd" stroke="#000" stroke-width=".4pt"/></marker></defs><g transform="translate(321.59 2.83)"><path d="M203.755 78.5c.077-.23.077-.255.077-.383 0-.281-.23-.434-.485-.434-.154 0-.41.102-.563.332-.025.102-.179.588-.23.894-.128.41-.23.87-.332 1.304l-.741 2.939c-.051.23-.767 1.38-1.84 1.38-.818 0-.997-.716-.997-1.33 0-.74.281-1.763.818-3.194.256-.664.332-.843.332-1.175 0-.716-.51-1.33-1.329-1.33-1.559 0-2.146 2.378-2.146 2.505 0 .18.153.18.178.18.18 0 .18-.052.256-.307.46-1.534 1.099-2.02 1.661-2.02.128 0 .409 0 .409.512 0 .409-.179.843-.281 1.15-.665 1.738-.946 2.658-.946 3.424 0 1.457 1.023 1.943 1.994 1.943.639 0 1.175-.282 1.635-.742-.204.844-.409 1.662-1.047 2.53-.435.537-1.048 1.023-1.79 1.023-.23 0-.97-.051-1.252-.69.256 0 .486 0 .69-.205a.807.807 0 0 0 .333-.664c0-.511-.435-.562-.588-.562-.384 0-.92.255-.92 1.047 0 .818.715 1.432 1.738 1.432 1.66 0 3.347-1.483 3.807-3.323zm143.818 147.035c.102-.41.486-1.917 1.61-1.917.077 0 .486 0 .818.204-.46.103-.767.486-.767.895 0 .255.18.562.614.562.357 0 .869-.281.869-.945 0-.844-.946-1.074-1.508-1.074-.946 0-1.508.87-1.713 1.227-.408-1.073-1.277-1.227-1.763-1.227-1.687 0-2.632 2.096-2.632 2.505 0 .179.179.179.204.179.128 0 .18-.051.205-.18.562-1.737 1.635-2.146 2.197-2.146.307 0 .87.153.87 1.099 0 .511-.282 1.584-.87 3.884-.255.997-.843 1.687-1.558 1.687-.103 0-.46 0-.818-.204.409-.102.766-.435.766-.895 0-.434-.357-.562-.587-.562-.512 0-.895.409-.895.946 0 .74.792 1.073 1.508 1.073 1.099 0 1.687-1.15 1.712-1.227a1.83 1.83 0 0 0 1.764 1.227c1.686 0 2.606-2.096 2.606-2.505 0-.178-.127-.178-.178-.178-.154 0-.18.076-.23.178-.537 1.764-1.636 2.147-2.147 2.147-.64 0-.895-.51-.895-1.073 0-.358.077-.716.256-1.431zm0 0"/><path d="M72.498 215.972H346.92" id="b" fill="none" stroke="#000" stroke-width="1.5" marker-end="url(#a)"/><use height="1052.362" width="744.094" transform="rotate(-90 210.944 215.972)" xlink:href="#b" stroke="#000" stroke-width="1.5"/></g><path d="M532.818 204.525c-28.669-.534-55.292-40.027-80.407-108.232m80.454 108.232c28.67-.534 55.292-40.027 80.408-108.232" stroke="green" fill="none" stroke-width="3" stroke-linecap="round"/><g transform="translate(0 2.83)"><path d="M203.755 78.5c.077-.23.077-.255.077-.383 0-.281-.23-.434-.485-.434-.154 0-.41.102-.563.332-.025.102-.179.588-.23.894-.128.41-.23.87-.332 1.304l-.741 2.939c-.051.23-.767 1.38-1.84 1.38-.818 0-.997-.716-.997-1.33 0-.74.281-1.763.818-3.194.256-.664.332-.843.332-1.175 0-.716-.51-1.33-1.329-1.33-1.559 0-2.146 2.378-2.146 2.505 0 .18.153.18.178.18.18 0 .18-.052.256-.307.46-1.534 1.099-2.02 1.661-2.02.128 0 .409 0 .409.512 0 .409-.179.843-.281 1.15-.665 1.738-.946 2.658-.946 3.424 0 1.457 1.023 1.943 1.994 1.943.639 0 1.175-.282 1.635-.742-.204.844-.409 1.662-1.047 2.53-.435.537-1.048 1.023-1.79 1.023-.23 0-.97-.051-1.252-.69.256 0 .486 0 .69-.205a.807.807 0 0 0 .333-.664c0-.511-.435-.562-.588-.562-.384 0-.92.255-.92 1.047 0 .818.715 1.432 1.738 1.432 1.66 0 3.347-1.483 3.807-3.323zm143.818 147.035c.102-.41.486-1.917 1.61-1.917.077 0 .486 0 .818.204-.46.103-.767.486-.767.895 0 .255.18.562.614.562.357 0 .869-.281.869-.945 0-.844-.946-1.074-1.508-1.074-.946 0-1.508.87-1.713 1.227-.408-1.073-1.277-1.227-1.763-1.227-1.687 0-2.632 2.096-2.632 2.505 0 .179.179.179.204.179.128 0 .18-.051.205-.18.562-1.737 1.635-2.146 2.197-2.146.307 0 .87.153.87 1.099 0 .511-.282 1.584-.87 3.884-.255.997-.843 1.687-1.558 1.687-.103 0-.46 0-.818-.204.409-.102.766-.435.766-.895 0-.434-.357-.562-.587-.562-.512 0-.895.409-.895.946 0 .74.792 1.073 1.508 1.073 1.099 0 1.687-1.15 1.712-1.227a1.83 1.83 0 0 0 1.764 1.227c1.686 0 2.606-2.096 2.606-2.505 0-.178-.127-.178-.178-.178-.154 0-.18.076-.23.178-.537 1.764-1.636 2.147-2.147 2.147-.64 0-.895-.51-.895-1.073 0-.358.077-.716.256-1.431zm0 0"/><path d="M72.498 215.972H346.92" fill="none" stroke="#000" stroke-width="1.5" marker-end="url(#a)"/><use height="1052.362" width="744.094" transform="rotate(-90 210.944 215.972)" xlink:href="#b" stroke="#000" stroke-width="1.5"/></g><g transform="translate(0 315.218)"><path d="M203.755 78.5c.077-.23.077-.255.077-.383 0-.281-.23-.434-.485-.434-.154 0-.41.102-.563.332-.025.102-.179.588-.23.894-.128.41-.23.87-.332 1.304l-.741 2.939c-.051.23-.767 1.38-1.84 1.38-.818 0-.997-.716-.997-1.33 0-.74.281-1.763.818-3.194.256-.664.332-.843.332-1.175 0-.716-.51-1.33-1.329-1.33-1.559 0-2.146 2.378-2.146 2.505 0 .18.153.18.178.18.18 0 .18-.052.256-.307.46-1.534 1.099-2.02 1.661-2.02.128 0 .409 0 .409.512 0 .409-.179.843-.281 1.15-.665 1.738-.946 2.658-.946 3.424 0 1.457 1.023 1.943 1.994 1.943.639 0 1.175-.282 1.635-.742-.204.844-.409 1.662-1.047 2.53-.435.537-1.048 1.023-1.79 1.023-.23 0-.97-.051-1.252-.69.256 0 .486 0 .69-.205a.807.807 0 0 0 .333-.664c0-.511-.435-.562-.588-.562-.384 0-.92.255-.92 1.047 0 .818.715 1.432 1.738 1.432 1.66 0 3.347-1.483 3.807-3.323zm143.818 147.035c.102-.41.486-1.917 1.61-1.917.077 0 .486 0 .818.204-.46.103-.767.486-.767.895 0 .255.18.562.614.562.357 0 .869-.281.869-.945 0-.844-.946-1.074-1.508-1.074-.946 0-1.508.87-1.713 1.227-.408-1.073-1.277-1.227-1.763-1.227-1.687 0-2.632 2.096-2.632 2.505 0 .179.179.179.204.179.128 0 .18-.051.205-.18.562-1.737 1.635-2.146 2.197-2.146.307 0 .87.153.87 1.099 0 .511-.282 1.584-.87 3.884-.255.997-.843 1.687-1.558 1.687-.103 0-.46 0-.818-.204.409-.102.766-.435.766-.895 0-.434-.357-.562-.587-.562-.512 0-.895.409-.895.946 0 .74.792 1.073 1.508 1.073 1.099 0 1.687-1.15 1.712-1.227a1.83 1.83 0 0 0 1.764 1.227c1.686 0 2.606-2.096 2.606-2.505 0-.178-.127-.178-.178-.178-.154 0-.18.076-.23.178-.537 1.764-1.636 2.147-2.147 2.147-.64 0-.895-.51-.895-1.073 0-.358.077-.716.256-1.431zm0 0"/><path d="M72.498 215.972H346.92" fill="none" stroke="#000" stroke-width="1.5" marker-end="url(#a)"/><use xlink:href="#b" transform="rotate(-90 210.944 215.972)" width="744.094" height="1052.362" stroke="#000" stroke-width="1.5"/></g><g transform="translate(321.59 315.218)"><path d="M203.755 78.5c.077-.23.077-.255.077-.383 0-.281-.23-.434-.485-.434-.154 0-.41.102-.563.332-.025.102-.179.588-.23.894-.128.41-.23.87-.332 1.304l-.741 2.939c-.051.23-.767 1.38-1.84 1.38-.818 0-.997-.716-.997-1.33 0-.74.281-1.763.818-3.194.256-.664.332-.843.332-1.175 0-.716-.51-1.33-1.329-1.33-1.559 0-2.146 2.378-2.146 2.505 0 .18.153.18.178.18.18 0 .18-.052.256-.307.46-1.534 1.099-2.02 1.661-2.02.128 0 .409 0 .409.512 0 .409-.179.843-.281 1.15-.665 1.738-.946 2.658-.946 3.424 0 1.457 1.023 1.943 1.994 1.943.639 0 1.175-.282 1.635-.742-.204.844-.409 1.662-1.047 2.53-.435.537-1.048 1.023-1.79 1.023-.23 0-.97-.051-1.252-.69.256 0 .486 0 .69-.205a.807.807 0 0 0 .333-.664c0-.511-.435-.562-.588-.562-.384 0-.92.255-.92 1.047 0 .818.715 1.432 1.738 1.432 1.66 0 3.347-1.483 3.807-3.323zm143.818 147.035c.102-.41.486-1.917 1.61-1.917.077 0 .486 0 .818.204-.46.103-.767.486-.767.895 0 .255.18.562.614.562.357 0 .869-.281.869-.945 0-.844-.946-1.074-1.508-1.074-.946 0-1.508.87-1.713 1.227-.408-1.073-1.277-1.227-1.763-1.227-1.687 0-2.632 2.096-2.632 2.505 0 .179.179.179.204.179.128 0 .18-.051.205-.18.562-1.737 1.635-2.146 2.197-2.146.307 0 .87.153.87 1.099 0 .511-.282 1.584-.87 3.884-.255.997-.843 1.687-1.558 1.687-.103 0-.46 0-.818-.204.409-.102.766-.435.766-.895 0-.434-.357-.562-.587-.562-.512 0-.895.409-.895.946 0 .74.792 1.073 1.508 1.073 1.099 0 1.687-1.15 1.712-1.227a1.83 1.83 0 0 0 1.764 1.227c1.686 0 2.606-2.096 2.606-2.505 0-.178-.127-.178-.178-.178-.154 0-.18.076-.23.178-.537 1.764-1.636 2.147-2.147 2.147-.64 0-.895-.51-.895-1.073 0-.358.077-.716.256-1.431zm0 0"/><path d="M72.498 215.972H346.92" fill="none" stroke="#000" stroke-width="1.5" marker-end="url(#a)"/><use height="1052.362" width="744.094" transform="rotate(-90 210.944 215.972)" xlink:href="#b" stroke="#000" stroke-width="1.5"/></g><g transform="translate(323.133 -.91)"><path d="M525.345 82.24c.076-.23.076-.256.076-.383 0-.282-.23-.435-.485-.435-.154 0-.41.102-.562.332-.026.103-.18.588-.23.895-.128.409-.23.869-.333 1.303l-.74 2.94c-.052.23-.768 1.38-1.84 1.38-.819 0-.998-.716-.998-1.33 0-.74.282-1.763.818-3.194.256-.665.332-.844.332-1.176 0-.715-.51-1.329-1.328-1.329-1.56 0-2.147 2.377-2.147 2.505 0 .179.153.179.179.179.179 0 .179-.052.255-.307.46-1.533 1.1-2.019 1.661-2.019.128 0 .41 0 .41.511 0 .409-.18.843-.282 1.15-.664 1.738-.945 2.658-.945 3.425 0 1.456 1.022 1.942 1.993 1.942.639 0 1.176-.281 1.636-.741-.205.843-.41 1.661-1.048 2.53-.435.537-1.048 1.022-1.79 1.022-.23 0-.97-.05-1.251-.69.255 0 .485 0 .69-.204a.807.807 0 0 0 .332-.665c0-.51-.435-.562-.588-.562-.383 0-.92.256-.92 1.048 0 .818.716 1.431 1.738 1.431 1.661 0 3.348-1.482 3.808-3.322zm143.817 147.034c.103-.409.486-1.917 1.61-1.917.077 0 .486 0 .818.205-.46.102-.766.485-.766.894 0 .256.178.563.613.563.358 0 .869-.282.869-.946 0-.843-.946-1.073-1.508-1.073-.946 0-1.508.869-1.712 1.226-.41-1.073-1.278-1.226-1.764-1.226-1.686 0-2.632 2.095-2.632 2.504 0 .179.179.179.204.179.128 0 .18-.051.205-.179.562-1.738 1.635-2.147 2.198-2.147.306 0 .869.154.869 1.1 0 .51-.281 1.584-.87 3.884-.255.997-.843 1.687-1.558 1.687-.102 0-.46 0-.818-.205.409-.102.767-.434.767-.894 0-.435-.358-.563-.588-.563-.511 0-.895.41-.895.946 0 .741.793 1.073 1.508 1.073 1.1 0 1.687-1.15 1.713-1.226a1.83 1.83 0 0 0 1.763 1.226c1.687 0 2.607-2.095 2.607-2.504 0-.179-.128-.179-.18-.179-.153 0-.178.077-.23.179-.536 1.763-1.635 2.147-2.146 2.147-.639 0-.894-.511-.894-1.074 0-.358.076-.715.255-1.43zm0 0"/><path d="M394.087 219.71H668.51" fill="none" stroke="#000" stroke-width="1.5" marker-end="url(#a)"/><use xlink:href="#b" transform="rotate(-90 373.608 57.047)" width="744.094" height="1052.362" stroke="#000" stroke-width="1.5"/></g><path d="M871.605 218.47c.534-28.67 40.027-55.293 108.232-80.408m-108.232 80.454c.534 28.67 40.027 55.292 108.232 80.408M227.438 218.801c.533-28.669 40.026-55.292 108.231-80.407m-140.601 80.407c-.534 28.67-40.027 55.293-108.232 80.408" stroke="green" fill="none" stroke-width="3" stroke-linecap="round"/><path style="marker:none" d="M196.207 218.801a1.14 1.14 0 1 1-2.279 0 1.14 1.14 0 0 1 2.279 0zm32.37 0a1.14 1.14 0 1 1-2.279 0 1.14 1.14 0 0 1 2.279 0z" color="#000" fill="#800033" stroke="#800033" stroke-width="1.5" stroke-linecap="round" stroke-linejoin="round" overflow="visible"/><path d="M533.46 532.424c.533-28.669 40.026-55.292 108.231-80.407M532.224 531.19c-.432-23.246-26.478-45.147-72.675-65.989v65.988h-36.23" fill="none" stroke="green" stroke-width="3" stroke-linecap="round"/><g transform="translate(644.722 315.218)"><path d="M203.755 78.5c.077-.23.077-.255.077-.383 0-.281-.23-.434-.485-.434-.154 0-.41.102-.563.332-.025.102-.179.588-.23.894-.128.41-.23.87-.332 1.304l-.741 2.939c-.051.23-.767 1.38-1.84 1.38-.818 0-.997-.716-.997-1.33 0-.74.281-1.763.818-3.194.256-.664.332-.843.332-1.175 0-.716-.51-1.33-1.329-1.33-1.559 0-2.146 2.378-2.146 2.505 0 .18.153.18.178.18.18 0 .18-.052.256-.307.46-1.534 1.099-2.02 1.661-2.02.128 0 .409 0 .409.512 0 .409-.179.843-.281 1.15-.665 1.738-.946 2.658-.946 3.424 0 1.457 1.023 1.943 1.994 1.943.639 0 1.175-.282 1.635-.742-.204.844-.409 1.662-1.047 2.53-.435.537-1.048 1.023-1.79 1.023-.23 0-.97-.051-1.252-.69.256 0 .486 0 .69-.205a.807.807 0 0 0 .333-.664c0-.511-.435-.562-.588-.562-.384 0-.92.255-.92 1.047 0 .818.715 1.432 1.738 1.432 1.66 0 3.347-1.483 3.807-3.323zm143.818 147.035c.102-.41.486-1.917 1.61-1.917.077 0 .486 0 .818.204-.46.103-.767.486-.767.895 0 .255.18.562.614.562.357 0 .869-.281.869-.945 0-.844-.946-1.074-1.508-1.074-.946 0-1.508.87-1.713 1.227-.408-1.073-1.277-1.227-1.763-1.227-1.687 0-2.632 2.096-2.632 2.505 0 .179.179.179.204.179.128 0 .18-.051.205-.18.562-1.737 1.635-2.146 2.197-2.146.307 0 .87.153.87 1.099 0 .511-.282 1.584-.87 3.884-.255.997-.843 1.687-1.558 1.687-.103 0-.46 0-.818-.204.409-.102.766-.435.766-.895 0-.434-.357-.562-.587-.562-.512 0-.895.409-.895.946 0 .74.792 1.073 1.508 1.073 1.099 0 1.687-1.15 1.712-1.227a1.83 1.83 0 0 0 1.764 1.227c1.686 0 2.606-2.096 2.606-2.505 0-.178-.127-.178-.178-.178-.154 0-.18.076-.23.178-.537 1.764-1.636 2.147-2.147 2.147-.64 0-.895-.51-.895-1.073 0-.358.077-.716.256-1.431zm0 0"/><path d="M72.498 215.972H346.92" fill="none" stroke="#000" stroke-width="1.5" marker-end="url(#a)"/><use xlink:href="#b" transform="rotate(-90 210.944 215.972)" width="744.094" height="1052.362" stroke="#000" stroke-width="1.5"/></g><path style="marker:none" d="M921.073 530.88a65.407 65.407 0 1 1-130.814 0 65.407 65.407 0 1 1 130.814 0z" color="#000" fill="none" stroke="green" stroke-width="3" stroke-linecap="round" stroke-linejoin="round" overflow="visible"/></svg>