<svg xmlns:ns0="http://www.iki.fi/pav/software/textext/" xmlns="http://www.w3.org/2000/svg" xmlns:xlink="http://www.w3.org/1999/xlink" width="744.094" height="1052.362"><title>Bijektive Funktion</title><defs><marker id="x" orient="auto" overflow="visible"><path d="M2.308 0l-3.46 2v-4l3.46 2z" fill-rule="evenodd" stroke="#000" stroke-width=".4pt"/></marker></defs><path fill="#fff" stroke="#fff" stroke-miterlimit="3.9" d="M17.484 162.526h709.127v727.31H17.484z"/><g stroke="#e6e6e6" fill="none"><path d="M132.92 227.272V825.09m59.782-597.818V825.09m59.782-597.818V825.09m59.782-597.818V825.09m59.781-597.818V825.09m59.782-597.818V825.09m59.781-597.818V825.09m59.782-597.818V825.09m59.782-597.818V825.09M73.139 287.054h597.817M73.139 346.836h597.817M73.139 406.618h597.817M73.139 466.4h597.817M73.139 526.181h597.817M73.139 585.963h597.817M73.139 645.745h597.817M73.139 705.526h597.817M73.139 765.308h597.817" stroke-width="1.5"/><path d="M79.117 227.272V825.09m5.978-597.818V825.09m5.978-597.818V825.09m5.978-597.818V825.09m5.979-597.818V825.09m5.978-597.818V825.09m5.978-597.818V825.09m5.978-597.818V825.09m5.978-597.818V825.09m11.957-597.818V825.09m5.978-597.818V825.09m5.978-597.818V825.09m5.978-597.818V825.09m5.978-597.818V825.09m5.979-597.818V825.09m5.978-597.818V825.09m5.978-597.818V825.09m5.978-597.818V825.09m11.956-597.818V825.09m5.978-597.818V825.09m5.979-597.818V825.09m5.978-597.818V825.09m5.978-597.818V825.09m5.978-597.818V825.09m5.979-597.818V825.09m5.977-597.818V825.09m5.979-597.818V825.09m11.956-597.818V825.09m5.978-597.818V825.09m5.978-597.818V825.09m5.978-597.818V825.09m5.979-597.818V825.09m5.978-597.818V825.09m5.978-597.818V825.09m5.979-597.818V825.09m5.977-597.818V825.09m11.957-597.818V825.09m5.978-597.818V825.09m5.978-597.818V825.09m5.978-597.818V825.09m5.978-597.818V825.09m5.979-597.818V825.09m5.978-597.818V825.09m5.977-597.818V825.09m5.98-597.818V825.09m11.955-597.818V825.09m5.979-597.818V825.09m5.978-597.818V825.09m5.978-597.818V825.09m5.978-597.818V825.09m5.978-597.818V825.09m5.978-597.818V825.09m5.979-597.818V825.09m5.977-597.818V825.09m11.957-597.818V825.09m5.978-597.818V825.09m5.978-597.818V825.09m5.979-597.818V825.09m5.978-597.818V825.09m5.978-597.818V825.09m5.978-597.818V825.09m5.978-597.818V825.09m5.979-597.818V825.09m11.956-597.818V825.09m5.978-597.818V825.09m5.978-597.818V825.09m5.978-597.818V825.09m5.979-597.818V825.09m5.978-597.818V825.09m5.978-597.818V825.09m5.978-597.818V825.09m5.978-597.818V825.09m11.956-597.818V825.09m5.979-597.818V825.09m5.978-597.818V825.09m5.978-597.818V825.09m5.978-597.818V825.09m5.978-597.818V825.09m5.979-597.818V825.09m5.978-597.818V825.09m5.978-597.818V825.09m11.956-597.818V825.09m5.978-597.818V825.09m5.979-597.818V825.09m5.978-597.818V825.09m5.978-597.818V825.09m5.978-597.818V825.09m5.978-597.818V825.09M659 227.272V825.09m5.978-597.818V825.09M73.139 233.25h597.817m-597.817 5.979h597.817m-597.817 5.978h597.817m-597.817 5.978h597.817m-597.817 5.978h597.817m-597.817 5.978h597.817M73.139 269.12h597.817m-597.817 5.978h597.817m-597.817 5.978h597.817M73.139 293.032h597.817M73.139 299.01h597.817m-597.817 5.979h597.817m-597.817 5.978h597.817m-597.817 5.978h597.817m-597.817 5.978h597.817m-597.817 5.978h597.817M73.139 334.88h597.817m-597.817 5.978h597.817M73.139 352.814h597.817m-597.817 5.978h597.817M73.139 364.77h597.817m-597.817 5.979h597.817m-597.817 5.978h597.817m-597.817 5.978h597.817m-597.817 5.978h597.817m-597.817 5.978h597.817M73.139 400.64h597.817M73.139 412.596h597.817m-597.817 5.978h597.817m-597.817 5.978h597.817M73.139 430.53h597.817m-597.817 5.979h597.817m-597.817 5.978h597.817m-597.817 5.978h597.817m-597.817 5.978h597.817m-597.817 5.978h597.817M73.139 472.378h597.817m-597.817 5.978h597.817m-597.817 5.978h597.817m-597.817 5.978h597.817M73.139 496.29h597.817m-597.817 5.978h597.817m-597.817 5.979h597.817m-597.817 5.978h597.817m-597.817 5.978h597.817M73.139 532.16h597.817m-597.817 5.977h597.817m-597.817 5.979h597.817m-597.817 5.978h597.817m-597.817 5.978h597.817M73.139 562.05h597.817m-597.817 5.978h597.817m-597.817 5.978h597.817m-597.817 5.979h597.817M73.139 591.941h597.817M73.139 597.92h597.817m-597.817 5.977h597.817m-597.817 5.979h597.817m-597.817 5.978h597.817m-597.817 5.978h597.817M73.139 627.81h597.817m-597.817 5.978h597.817m-597.817 5.978h597.817M73.139 651.723h597.817M73.139 657.7h597.817m-597.817 5.98h597.817m-597.817 5.977h597.817m-597.817 5.978h597.817m-597.817 5.979h597.817m-597.817 5.978h597.817M73.139 693.57h597.817m-597.817 5.978h597.817M73.139 711.504h597.817m-597.817 5.979h597.817M73.139 723.46h597.817m-597.817 5.979h597.817m-597.817 5.978h597.817m-597.817 5.978h597.817m-597.817 5.978h597.817m-597.817 5.979h597.817M73.139 759.33h597.817M73.139 771.286h597.817m-597.817 5.978h597.817m-597.817 5.979h597.817M73.139 789.22h597.817m-597.817 5.979h597.817m-597.817 5.978h597.817m-597.817 5.978h597.817m-597.817 5.978h597.817m-597.817 5.979h597.817" stroke-width=".5"/><path stroke-width="1.5" d="M73.138 227.272h597.817V825.09H73.138z"/></g><g ns0:text="1" ns0:preamble="/home/waldgeist/data/sphinx/inkscape-preamble.tex" transform="translate(-121.858 228.53) scale(2.45111)" fill="#4d4d4d" stroke="#4d4d4d"><defs><symbol overflow="visible" id="a"><path d="M2.938-6.375c0-.25 0-.266-.235-.266C2.078-6 1.203-6 .891-6v.313c.203 0 .78 0 1.296-.266v5.172c0 .36-.03.469-.921.469H.953V0c.344-.031 1.203-.031 1.61-.031.39 0 1.265 0 1.609.031v-.313h-.313c-.906 0-.921-.109-.921-.468z" stroke="none"/></symbol></defs><use height="1052.362" width="744.094" xlink:href="#a" x="223.432" y="134.765"/></g><g transform="translate(-62.742 228.53) scale(2.45111)" ns0:preamble="/home/waldgeist/data/sphinx/inkscape-preamble.tex" ns0:text="2" fill="#4d4d4d" stroke="#4d4d4d"><defs><symbol id="b" overflow="visible"><path d="M1.266-.766l1.062-1.03c1.547-1.376 2.14-1.907 2.14-2.907 0-1.14-.89-1.938-2.109-1.938A1.843 1.843 0 0 0 .5-4.828c0 .547.5.547.531.547.172 0 .516-.11.516-.532a.513.513 0 0 0-.531-.515c-.079 0-.094 0-.125.016.218-.657.765-1.016 1.343-1.016.907 0 1.329.812 1.329 1.625 0 .797-.485 1.578-1.047 2.203L.609-.375C.5-.265.5-.235.5 0h3.703l.266-1.734h-.235C4.172-1.438 4.11-1 4-.844c-.063.078-.719.078-.938.078z" stroke="none"/></symbol></defs><use y="134.765" x="223.432" xlink:href="#b" width="744.094" height="1052.362"/></g><g ns0:text="4" ns0:preamble="/home/waldgeist/data/sphinx/inkscape-preamble.tex" transform="translate(57.17 228.484) scale(2.45111)" fill="#4d4d4d" stroke="#4d4d4d"><defs><symbol overflow="visible" id="c"><path d="M2.938-1.64v.859c0 .36-.032.469-.766.469h-.203V0c.406-.031.922-.031 1.343-.031.422 0 .938 0 1.36.031v-.313h-.219c-.734 0-.75-.109-.75-.468v-.86h.985v-.312h-.985v-4.531c0-.204 0-.266-.172-.266-.078 0-.11 0-.187.125L.28-1.953v.312zm.046-.313H.563l2.421-3.719z" stroke="none"/></symbol></defs><use xlink:href="#c" x="223.432" y="134.765" width="744.094" height="1052.362"/></g><g transform="translate(116.67 227.904) scale(2.45111)" ns0:preamble="/home/waldgeist/data/sphinx/inkscape-preamble.tex" ns0:text="5" fill="#4d4d4d" stroke="#4d4d4d"><defs><symbol id="d" overflow="visible"><path d="M4.469-2c0-1.188-.813-2.188-1.89-2.188-.47 0-.907.157-1.267.516v-1.953c.204.063.532.125.844.125 1.235 0 1.938-.906 1.938-1.031 0-.063-.032-.11-.11-.11 0 0-.03 0-.078.032a3.22 3.22 0 0 1-1.36.296 3.4 3.4 0 0 1-1.327-.28c-.078-.032-.094-.032-.11-.032C1-6.625 1-6.547 1-6.391v2.954c0 .171 0 .25.14.25.079 0 .094-.016.141-.079.11-.156.469-.703 1.282-.703.515 0 .765.453.843.64.156.376.188.75.188 1.25 0 .36 0 .954-.25 1.376-.235.39-.61.64-1.063.64-.719 0-1.297-.53-1.469-1.109.032 0 .063.016.172.016.329 0 .5-.25.5-.485 0-.25-.171-.5-.5-.5-.14 0-.484.079-.484.532C.5-.75 1.188.219 2.297.219 3.453.219 4.469-.734 4.469-2z" stroke="none"/></symbol></defs><use y="134.765" x="223.432" xlink:href="#d" width="744.094" height="1052.362"/></g><g ns0:text="3" ns0:preamble="/home/waldgeist/data/sphinx/inkscape-preamble.tex" transform="translate(-2.324 227.904) scale(2.45111)" fill="#4d4d4d" stroke="#4d4d4d"><defs><symbol overflow="visible" id="e"><path d="M2.89-3.516c.813-.265 1.391-.953 1.391-1.75 0-.812-.875-1.375-1.828-1.375-1 0-1.765.594-1.765 1.36 0 .328.218.515.515.515.297 0 .5-.218.5-.515 0-.485-.469-.485-.61-.485.298-.5.954-.625 1.313-.625.422 0 .969.22.969 1.11 0 .125-.031.703-.281 1.14-.297.485-.64.516-.89.516a3.29 3.29 0 0 1-.392.031c-.078.016-.14.031-.14.125 0 .11.062.11.234.11h.438c.812 0 1.187.671 1.187 1.656 0 1.36-.687 1.64-1.125 1.64-.437 0-1.187-.171-1.531-.75.344.047.656-.171.656-.546a.537.537 0 0 0-.547-.563c-.25 0-.562.14-.562.578C.422-.437 1.344.22 2.437.22c1.22 0 2.126-.906 2.126-1.922 0-.813-.641-1.594-1.672-1.813z" stroke="none"/></symbol></defs><use xlink:href="#e" x="223.432" y="134.765" width="744.094" height="1052.362"/></g><path d="M372.389 526.286H32.854" fill="none" stroke="#000" stroke-width="3" stroke-linecap="round"/><g transform="translate(-34.537 111.712) scale(3.26815)" ns0:preamble="/home/waldgeist/data/sphinx/inkscape-preamble.tex" ns0:text="$x _{\\rm{}}$"><defs><symbol id="f" overflow="visible"><path d="M3.328-3.016c.063-.25.297-1.171.985-1.171.046 0 .296 0 .5.125a.578.578 0 0 0-.47.546c0 .157.11.344.376.344a.546.546 0 0 0 .531-.578c0-.516-.578-.656-.922-.656-.578 0-.922.531-1.047.75-.25-.656-.781-.75-1.078-.75-1.031 0-1.61 1.281-1.61 1.531 0 .11.11.11.126.11.078 0 .11-.032.125-.11.344-1.063 1-1.313 1.344-1.313.187 0 .53.094.53.672 0 .313-.171.97-.53 2.375-.157.61-.516 1.032-.954 1.032-.062 0-.28 0-.5-.125.25-.063.47-.266.47-.547 0-.266-.22-.344-.36-.344-.313 0-.547.25-.547.578 0 .453.484.656.922.656.672 0 1.031-.703 1.047-.75.125.36.484.75 1.078.75 1.031 0 1.594-1.28 1.594-1.53 0-.11-.079-.11-.11-.11-.094 0-.11.047-.14.11-.329 1.077-1 1.312-1.313 1.312-.39 0-.547-.313-.547-.657 0-.218.047-.437.156-.875z"/></symbol></defs><use y="134.765" x="223.432" xlink:href="#f"/></g><g ns0:text="$y _{\\rm{}}$" ns0:preamble="/home/waldgeist/data/sphinx/inkscape-preamble.tex" transform="translate(-389.162 -239.256) scale(3.26815)"><defs><symbol overflow="visible" id="g"><path d="M4.844-3.797c.047-.14.047-.156.047-.234 0-.172-.141-.266-.297-.266a.455.455 0 0 0-.344.203c-.016.063-.11.36-.14.547-.079.25-.141.531-.204.797L3.453-.953c-.031.14-.469.844-1.125.844-.5 0-.61-.438-.61-.813 0-.453.173-1.078.5-1.953.157-.406.204-.516.204-.719 0-.437-.313-.812-.813-.812-.953 0-1.312 1.453-1.312 1.531 0 .11.094.11.11.11.109 0 .109-.032.156-.188.28-.938.671-1.235 1.015-1.235.078 0 .25 0 .25.313 0 .25-.11.516-.172.703-.406 1.063-.578 1.625-.578 2.094 0 .89.625 1.187 1.219 1.187.39 0 .719-.171 1-.453-.125.516-.25 1.016-.64 1.547-.266.328-.641.625-1.095.625-.14 0-.593-.031-.765-.422.156 0 .297 0 .422-.125a.493.493 0 0 0 .203-.406c0-.313-.266-.344-.36-.344C.829.531.5.687.5 1.171c0 .5.438.876 1.063.876 1.015 0 2.046-.906 2.328-2.031z"/></symbol></defs><use height="1052.362" width="744.094" xlink:href="#g" x="223.432" y="134.765"/></g><path id="h" d="M670.956 514.022v24.319" fill="navy" stroke="#000" stroke-width="2" stroke-linecap="round" stroke-miterlimit="3.9"/><use height="1052.362" width="744.094" transform="translate(-59.782 .203)" xlink:href="#h"/><use height="1052.362" width="744.094" transform="translate(-119.563 .203)" xlink:href="#h"/><use height="1052.362" width="744.094" transform="translate(-179.345 .203)" xlink:href="#h"/><use height="1052.362" width="744.094" transform="translate(-239.127)" xlink:href="#h"/><use height="1052.362" width="744.094" transform="translate(-358.69 .104)" xlink:href="#h"/><use height="1052.362" width="744.094" transform="translate(-597.817 .104)" xlink:href="#h"/><use height="1052.362" width="744.094" transform="translate(-538.036 .104)" xlink:href="#h"/><use height="1052.362" width="744.094" transform="translate(-478.254)" xlink:href="#h"/><use height="1052.362" width="744.094" transform="translate(-418.472 .104)" xlink:href="#h"/><path d="M360.23 227.272h24.318" id="i" fill="navy" stroke="#000" stroke-width="2" stroke-linecap="round" stroke-miterlimit="3.9"/><use height="1052.362" width="744.094" transform="translate(-.342 59.782)" xlink:href="#i"/><use height="1052.362" width="744.094" transform="translate(-.138 119.563)" xlink:href="#i"/><use height="1052.362" width="744.094" transform="translate(-.138 179.345)" xlink:href="#i"/><g transform="translate(-259.39 228.53) scale(2.45111)" ns0:preamble="/home/waldgeist/data/sphinx/inkscape-preamble.tex" ns0:text="$-1$" stroke="#4d4d4d" fill="#4d4d4d"><defs><symbol id="j" overflow="visible"><path d="M6.563-2.297c.171 0 .359 0 .359-.203 0-.188-.188-.188-.36-.188h-5.39c-.172 0-.344 0-.344.188 0 .203.172.203.344.203z" stroke="none"/></symbol><symbol id="k" overflow="visible"><path d="M2.938-6.375c0-.25 0-.266-.235-.266C2.078-6 1.203-6 .891-6v.313c.203 0 .78 0 1.296-.266v5.172c0 .36-.03.469-.921.469H.953V0c.344-.031 1.203-.031 1.61-.031.39 0 1.265 0 1.609.031v-.313h-.313c-.906 0-.921-.109-.921-.468z" stroke="none"/></symbol></defs><use y="134.765" x="223.432" xlink:href="#j" width="744.094" height="1052.362"/><use y="134.765" x="231.181" xlink:href="#k" width="744.094" height="1052.362"/></g><use xlink:href="#i" transform="translate(0 239.127)" width="744.094" height="1052.362"/><use xlink:href="#i" transform="translate(-.138 597.817)" width="744.094" height="1052.362"/><use xlink:href="#i" transform="translate(-.138 538.036)" width="744.094" height="1052.362"/><use xlink:href="#i" transform="translate(-.138 358.69)" width="744.094" height="1052.362"/><use xlink:href="#i" transform="translate(-.342 418.472)" width="744.094" height="1052.362"/><use xlink:href="#i" transform="translate(-.342 478.254)" width="744.094" height="1052.362"/><g ns0:text="$-5$" ns0:preamble="/home/waldgeist/data/sphinx/inkscape-preamble.tex" transform="translate(-498.857 228.619) scale(2.45111)" stroke="#4d4d4d" fill="#4d4d4d"><defs><symbol overflow="visible" id="l"><path d="M6.563-2.297c.171 0 .359 0 .359-.203 0-.188-.188-.188-.36-.188h-5.39c-.172 0-.344 0-.344.188 0 .203.172.203.344.203z" stroke="none"/></symbol><symbol overflow="visible" id="m"><path d="M4.469-2c0-1.188-.813-2.188-1.89-2.188-.47 0-.907.157-1.267.516v-1.953c.204.063.532.125.844.125 1.235 0 1.938-.906 1.938-1.031 0-.063-.032-.11-.11-.11 0 0-.03 0-.078.032a3.22 3.22 0 0 1-1.36.296 3.4 3.4 0 0 1-1.327-.28c-.078-.032-.094-.032-.11-.032C1-6.625 1-6.547 1-6.391v2.954c0 .171 0 .25.14.25.079 0 .094-.016.141-.079.11-.156.469-.703 1.282-.703.515 0 .765.453.843.64.156.376.188.75.188 1.25 0 .36 0 .954-.25 1.376-.235.39-.61.64-1.063.64-.719 0-1.297-.53-1.469-1.109.032 0 .063.016.172.016.329 0 .5-.25.5-.485 0-.25-.171-.5-.5-.5-.14 0-.484.079-.484.532C.5-.75 1.188.219 2.297.219 3.453.219 4.469-.734 4.469-2z" stroke="none"/></symbol></defs><use xlink:href="#l" x="223.432" y="134.765" width="744.094" height="1052.362"/><use xlink:href="#m" x="231.181" y="134.765" width="744.094" height="1052.362"/></g><g transform="translate(-441.371 228.484) scale(2.45111)" ns0:preamble="/home/waldgeist/data/sphinx/inkscape-preamble.tex" ns0:text="$-4$" fill="#4d4d4d" stroke="#4d4d4d"><defs><symbol id="n" overflow="visible"><path d="M6.563-2.297c.171 0 .359 0 .359-.203 0-.188-.188-.188-.36-.188h-5.39c-.172 0-.344 0-.344.188 0 .203.172.203.344.203z" stroke="none"/></symbol><symbol id="o" overflow="visible"><path d="M2.938-1.64v.859c0 .36-.032.469-.766.469h-.203V0c.406-.031.922-.031 1.343-.031.422 0 .938 0 1.36.031v-.313h-.219c-.734 0-.75-.109-.75-.468v-.86h.985v-.312h-.985v-4.531c0-.204 0-.266-.172-.266-.078 0-.11 0-.187.125L.28-1.953v.312zm.046-.313H.563l2.421-3.719z" stroke="none"/></symbol></defs><use y="134.765" x="223.432" xlink:href="#n" width="744.094" height="1052.362"/><use y="134.765" x="231.181" xlink:href="#o" width="744.094" height="1052.362"/></g><g ns0:text="$-3$" ns0:preamble="/home/waldgeist/data/sphinx/inkscape-preamble.tex" transform="translate(-380.61 228.619) scale(2.45111)" fill="#4d4d4d" stroke="#4d4d4d"><defs><symbol overflow="visible" id="p"><path d="M6.563-2.297c.171 0 .359 0 .359-.203 0-.188-.188-.188-.36-.188h-5.39c-.172 0-.344 0-.344.188 0 .203.172.203.344.203z" stroke="none"/></symbol><symbol overflow="visible" id="q"><path d="M2.89-3.516c.813-.265 1.391-.953 1.391-1.75 0-.812-.875-1.375-1.828-1.375-1 0-1.765.594-1.765 1.36 0 .328.218.515.515.515.297 0 .5-.218.5-.515 0-.485-.469-.485-.61-.485.298-.5.954-.625 1.313-.625.422 0 .969.22.969 1.11 0 .125-.031.703-.281 1.14-.297.485-.64.516-.89.516a3.29 3.29 0 0 1-.392.031c-.078.016-.14.031-.14.125 0 .11.062.11.234.11h.438c.812 0 1.187.671 1.187 1.656 0 1.36-.687 1.64-1.125 1.64-.437 0-1.187-.171-1.531-.75.344.047.656-.171.656-.546a.537.537 0 0 0-.547-.563c-.25 0-.562.14-.562.578C.422-.437 1.344.22 2.437.22c1.22 0 2.126-.906 2.126-1.922 0-.813-.641-1.594-1.672-1.813z" stroke="none"/></symbol></defs><use xlink:href="#p" x="223.432" y="134.765" width="744.094" height="1052.362"/><use xlink:href="#q" x="231.181" y="134.765" width="744.094" height="1052.362"/></g><g transform="translate(-319.838 228.53) scale(2.45111)" ns0:preamble="/home/waldgeist/data/sphinx/inkscape-preamble.tex" ns0:text="$-2$" stroke="#4d4d4d" fill="#4d4d4d"><defs><symbol id="r" overflow="visible"><path d="M6.563-2.297c.171 0 .359 0 .359-.203 0-.188-.188-.188-.36-.188h-5.39c-.172 0-.344 0-.344.188 0 .203.172.203.344.203z" stroke="none"/></symbol><symbol id="s" overflow="visible"><path d="M1.266-.766l1.062-1.03c1.547-1.376 2.14-1.907 2.14-2.907 0-1.14-.89-1.938-2.109-1.938A1.843 1.843 0 0 0 .5-4.828c0 .547.5.547.531.547.172 0 .516-.11.516-.532a.513.513 0 0 0-.531-.515c-.079 0-.094 0-.125.016.218-.657.765-1.016 1.343-1.016.907 0 1.329.812 1.329 1.625 0 .797-.485 1.578-1.047 2.203L.609-.375C.5-.265.5-.235.5 0h3.703l.266-1.734h-.235C4.172-1.438 4.11-1 4-.844c-.063.078-.719.078-.938.078z" stroke="none"/></symbol></defs><use y="134.765" x="223.432" xlink:href="#r" width="744.094" height="1052.362"/><use y="134.765" x="231.181" xlink:href="#s" width="744.094" height="1052.362"/></g><use y="134.765" x="223.432" xlink:href="#a" width="744.094" height="1052.362" transform="translate(-206.247 144.213) scale(2.45111)" ns0:preamble="/home/waldgeist/data/sphinx/inkscape-preamble.tex" ns0:text="1" fill="#4d4d4d" stroke="#4d4d4d"/><use height="1052.362" width="744.094" xlink:href="#b" x="223.432" y="134.765" transform="translate(-207.255 84.432) scale(2.45111)" ns0:text="2" ns0:preamble="/home/waldgeist/data/sphinx/inkscape-preamble.tex" fill="#4d4d4d" stroke="#4d4d4d"/><use height="1052.362" width="744.094" y="134.765" x="223.432" xlink:href="#e" transform="translate(-207.555 24.382) scale(2.45111)" ns0:preamble="/home/waldgeist/data/sphinx/inkscape-preamble.tex" ns0:text="3" fill="#4d4d4d" stroke="#4d4d4d"/><use height="1052.362" width="744.094" y="134.765" x="223.432" xlink:href="#c" transform="translate(-207.97 -34.998) scale(2.45111)" ns0:preamble="/home/waldgeist/data/sphinx/inkscape-preamble.tex" ns0:text="4" fill="#4d4d4d" stroke="#4d4d4d"/><use height="1052.362" width="744.094" xlink:href="#d" x="223.432" y="134.765" transform="translate(-207.255 -95.182) scale(2.45111)" ns0:text="5" ns0:preamble="/home/waldgeist/data/sphinx/inkscape-preamble.tex" fill="#4d4d4d" stroke="#4d4d4d"/><g ns0:text="$-1$" ns0:preamble="/home/waldgeist/data/sphinx/inkscape-preamble.tex" fill="#4d4d4d" stroke="#4d4d4d" transform="translate(-228.431 261.53) scale(2.45111)"><use height="1052.362" width="744.094" xlink:href="#j" x="223.432" y="134.765"/><use height="1052.362" width="744.094" xlink:href="#k" x="231.181" y="134.765"/></g><g ns0:text="$-2$" ns0:preamble="/home/waldgeist/data/sphinx/inkscape-preamble.tex" fill="#4d4d4d" stroke="#4d4d4d" transform="translate(-229.28 321.192) scale(2.45111)"><use xlink:href="#r" x="223.432" y="134.765" width="744.094" height="1052.362"/><use xlink:href="#s" x="231.181" y="134.765" width="744.094" height="1052.362"/></g><g ns0:preamble="/home/waldgeist/data/sphinx/inkscape-preamble.tex" ns0:text="$-3$" fill="#4d4d4d" stroke="#4d4d4d" transform="translate(-229.548 380.619) scale(2.45111)"><use y="134.765" x="223.432" xlink:href="#p" width="744.094" height="1052.362"/><use y="134.765" x="231.181" xlink:href="#q" width="744.094" height="1052.362"/></g><g ns0:text="$-4$" ns0:preamble="/home/waldgeist/data/sphinx/inkscape-preamble.tex" fill="#4d4d4d" stroke="#4d4d4d" transform="translate(-229.906 440.484) scale(2.45111)"><use xlink:href="#n" x="223.432" y="134.765" width="744.094" height="1052.362"/><use xlink:href="#o" x="231.181" y="134.765" width="744.094" height="1052.362"/></g><g ns0:preamble="/home/waldgeist/data/sphinx/inkscape-preamble.tex" ns0:text="$-5$" fill="#4d4d4d" stroke="#4d4d4d" transform="translate(-229.28 500.619) scale(2.45111)"><use y="134.765" x="223.432" xlink:href="#l" width="744.094" height="1052.362"/><use y="134.765" x="231.181" xlink:href="#m" width="744.094" height="1052.362"/></g><g transform="translate(-83.92 -86.562) scale(2.5424)" ns0:preamble="/home/waldgeist/data/sphinx/test.tex" ns0:text="$y = x^3$" fill="green" stroke="green" stroke-width="1.18"><defs><symbol id="t" overflow="visible"><path d="M4.844-3.797c.047-.14.047-.156.047-.234 0-.172-.141-.266-.297-.266a.455.455 0 0 0-.344.203c-.016.063-.11.36-.14.547-.079.25-.141.531-.204.797L3.453-.953c-.031.14-.469.844-1.125.844-.5 0-.61-.438-.61-.813 0-.453.173-1.078.5-1.953.157-.406.204-.516.204-.719 0-.437-.313-.812-.813-.812-.953 0-1.312 1.453-1.312 1.531 0 .11.094.11.11.11.109 0 .109-.032.156-.188.28-.938.671-1.235 1.015-1.235.078 0 .25 0 .25.313 0 .25-.11.516-.172.703-.406 1.063-.578 1.625-.578 2.094 0 .89.625 1.187 1.219 1.187.39 0 .719-.171 1-.453-.125.516-.25 1.016-.64 1.547-.266.328-.641.625-1.095.625-.14 0-.593-.031-.765-.422.156 0 .297 0 .422-.125a.493.493 0 0 0 .203-.406c0-.313-.266-.344-.36-.344C.829.531.5.687.5 1.171c0 .5.438.876 1.063.876 1.015 0 2.046-.906 2.328-2.031zm0 0" stroke="none"/></symbol><symbol id="v" overflow="visible"><path d="M3.328-3.016c.063-.25.297-1.171.985-1.171.046 0 .296 0 .5.125a.578.578 0 0 0-.47.546c0 .157.11.344.376.344a.546.546 0 0 0 .531-.578c0-.516-.578-.656-.922-.656-.578 0-.922.531-1.047.75-.25-.656-.781-.75-1.078-.75-1.031 0-1.61 1.281-1.61 1.531 0 .11.11.11.126.11.078 0 .11-.032.125-.11.344-1.063 1-1.313 1.344-1.313.187 0 .53.094.53.672 0 .313-.171.97-.53 2.375-.157.61-.516 1.032-.954 1.032-.062 0-.28 0-.5-.125.25-.063.47-.266.47-.547 0-.266-.22-.344-.36-.344-.313 0-.547.25-.547.578 0 .453.484.656.922.656.672 0 1.031-.703 1.047-.75.125.36.484.75 1.078.75 1.031 0 1.594-1.28 1.594-1.53 0-.11-.079-.11-.11-.11-.094 0-.11.047-.14.11-.329 1.077-1 1.312-1.313 1.312-.39 0-.547-.313-.547-.657 0-.218.047-.437.156-.875zm0 0" stroke="none"/></symbol><symbol id="u" overflow="visible"><path d="M6.844-3.266c.156 0 .343 0 .343-.187 0-.203-.187-.203-.328-.203H.891c-.141 0-.329 0-.329.203 0 .187.188.187.329.187zm.015 1.938c.141 0 .329 0 .329-.203 0-.188-.188-.188-.344-.188H.89c-.141 0-.329 0-.329.188 0 .203.188.203.329.203zm0 0" stroke="none"/></symbol><symbol id="w" overflow="visible"><path d="M1.906-2.328c.547 0 .938.375.938 1.125 0 .86-.516 1.125-.906 1.125-.282 0-.907-.078-1.188-.5.328 0 .406-.235.406-.39 0-.22-.172-.376-.39-.376a.38.38 0 0 0-.391.407C.375-.281 1.094.14 1.938.14c.968 0 1.64-.657 1.64-1.344 0-.547-.437-1.094-1.203-1.25.719-.266.984-.781.984-1.219 0-.547-.625-.953-1.406-.953-.766 0-1.36.375-1.36.938 0 .234.157.359.36.359.219 0 .36-.156.36-.344 0-.203-.141-.36-.36-.375.25-.297.719-.375.985-.375.312 0 .75.156.75.75 0 .297-.094.625-.282.828-.219.266-.422.281-.765.313-.172.015-.188.015-.22.015-.015 0-.077.016-.077.094 0 .094.062.094.187.094zm0 0" stroke="none"/></symbol></defs><use y="134.765" x="223.432" xlink:href="#t" width="1488.189" height="1052.362"/><use y="134.765" x="231.441" xlink:href="#u" width="1488.189" height="1052.362"/><use y="134.765" x="241.957" xlink:href="#v" width="1488.189" height="1052.362"/><use y="131.15" x="247.651" xlink:href="#w" width="1488.189" height="1052.362"/></g><path d="M26.166 526.257H712.38M372.389 872.45V186.238" fill="none" stroke="#000" stroke-width="3" marker-end="url(#x)"/><path d="M73.139 627.81h597.817" fill="none" stroke="#666" stroke-width="3" stroke-linecap="round" stroke-dasharray="3,6"/><path d="M372.653 526.257c53.23 0 74.352-62.985 97.283-298.424m-97.869 298.424c-53.23 0-74.351 62.985-97.283 298.424" fill="none" stroke-width="3" stroke-linecap="round" stroke="green"/><path d="M73.139 789.22h597.817M73.139 436.509h597.817M73.139 310.967h597.817" fill="none" stroke="#666" stroke-width="3" stroke-linecap="round" stroke-dasharray="3,6"/></svg>