<?xml version="1.0" encoding="UTF-8" standalone="no"?>
<!-- Created with Inkscape (http://www.inkscape.org/) -->

<svg
   xmlns:dc="http://purl.org/dc/elements/1.1/"
   xmlns:cc="http://creativecommons.org/ns#"
   xmlns:rdf="http://www.w3.org/1999/02/22-rdf-syntax-ns#"
   xmlns:svg="http://www.w3.org/2000/svg"
   xmlns="http://www.w3.org/2000/svg"
   xmlns:xlink="http://www.w3.org/1999/xlink"
   xmlns:sodipodi="http://sodipodi.sourceforge.net/DTD/sodipodi-0.dtd"
   xmlns:inkscape="http://www.inkscape.org/namespaces/inkscape"
   width="1052.3622"
   height="744.09448"
   id="svg2"
   version="1.1"
   inkscape:version="0.48.4 r9939"
   sodipodi:docname="funktionsgraphen-aufgabe.svg">
  <title
     id="title4629">Graphen von Funktionen (Aufgabe)</title>
  <defs
     id="defs4">
    <marker
       style="overflow:visible"
       id="TriangleOutM"
       refX="0"
       refY="0"
       orient="auto"
       inkscape:stockid="TriangleOutM">
      <path
         transform="scale(0.4,0.4)"
         style="fill-rule:evenodd;stroke:#000000;stroke-width:1pt;marker-start:none"
         d="m 5.77,0 -8.65,5 0,-10 8.65,5 z"
         id="path5368"
         inkscape:connector-curvature="0" />
    </marker>
    <marker
       style="overflow:visible"
       id="marker4394"
       refX="0"
       refY="0"
       orient="auto"
       inkscape:stockid="TriangleOutM">
      <path
         transform="scale(0.4,0.4)"
         style="fill-rule:evenodd;stroke:#000000;stroke-width:1pt;marker-start:none"
         d="m 5.77,0 -8.65,5 0,-10 8.65,5 z"
         id="path4396"
         inkscape:connector-curvature="0" />
    </marker>
  </defs>
  <sodipodi:namedview
     id="base"
     pagecolor="#ffffff"
     bordercolor="#666666"
     borderopacity="1.0"
     inkscape:pageopacity="0.0"
     inkscape:pageshadow="2"
     inkscape:zoom="0.47273955"
     inkscape:cx="534.03754"
     inkscape:cy="616.7612"
     inkscape:document-units="px"
     inkscape:current-layer="layer1"
     showgrid="false"
     inkscape:window-width="1600"
     inkscape:window-height="1150"
     inkscape:window-x="0"
     inkscape:window-y="0"
     inkscape:window-maximized="1"
     inkscape:object-paths="true"
     inkscape:object-nodes="true"
     inkscape:snap-smooth-nodes="true"
     inkscape:snap-midpoints="true"
     inkscape:snap-object-midpoints="true"
     showguides="true"
     inkscape:guide-bbox="true" />
  <metadata
     id="metadata7">
    <rdf:RDF>
      <cc:Work
         rdf:about="">
        <dc:format>image/svg+xml</dc:format>
        <dc:type
           rdf:resource="http://purl.org/dc/dcmitype/StillImage" />
        <dc:title>Graphen von Funktionen (Aufgabe)</dc:title>
        <dc:creator>
          <cc:Agent>
            <dc:title>Bernhard Grotz</dc:title>
          </cc:Agent>
        </dc:creator>
        <dc:rights>
          <cc:Agent>
            <dc:title>Bernhard Grotz</dc:title>
          </cc:Agent>
        </dc:rights>
        <dc:publisher>
          <cc:Agent>
            <dc:title>Bernhard Grotz</dc:title>
          </cc:Agent>
        </dc:publisher>
        <dc:language>de-DE</dc:language>
        <dc:subject>
          <rdf:Bag>
            <rdf:li>Mathematik</rdf:li>
            <rdf:li>Analysis</rdf:li>
            <rdf:li>Funktionsgraph</rdf:li>
            <rdf:li></rdf:li>
          </rdf:Bag>
        </dc:subject>
        <dc:date>2014-10-03</dc:date>
        <cc:license
           rdf:resource="http://creativecommons.org/licenses/by-nc-sa/3.0/" />
      </cc:Work>
      <cc:License
         rdf:about="http://creativecommons.org/licenses/by-nc-sa/3.0/">
        <cc:permits
           rdf:resource="http://creativecommons.org/ns#Reproduction" />
        <cc:permits
           rdf:resource="http://creativecommons.org/ns#Distribution" />
        <cc:requires
           rdf:resource="http://creativecommons.org/ns#Notice" />
        <cc:requires
           rdf:resource="http://creativecommons.org/ns#Attribution" />
        <cc:prohibits
           rdf:resource="http://creativecommons.org/ns#CommercialUse" />
        <cc:permits
           rdf:resource="http://creativecommons.org/ns#DerivativeWorks" />
        <cc:requires
           rdf:resource="http://creativecommons.org/ns#ShareAlike" />
      </cc:License>
    </rdf:RDF>
  </metadata>
  <g
     inkscape:label="Ebene 1"
     inkscape:groupmode="layer"
     id="layer1"
     transform="translate(0,-308.2677)">
    <g
       inkscape:export-ydpi="150"
       inkscape:export-xdpi="150"
       inkscape:export-filename="/home/waldgeist/data/pics/physik/Own/mathematik/parabel-b.png"
       style="stroke:#800033"
       id="g207991"
       transform="translate(657.25542,171.76479)">
      <g
         id="g8111" />
    </g>
    <g
       id="g8536"
       transform="translate(321.58925,311.0976)">
      <g
         id="g8230">
        <g
           transform="matrix(1.6356102,0,0,1.6356102,-169.89915,-135.71234)"
           id="g7181"
           style="fill:#000000;fill-opacity:1"
           inkscape:export-filename="/home/waldgeist/data/pics/physik/Own/mathematik/betragsfunktion.png"
           inkscape:export-xdpi="150"
           inkscape:export-ydpi="150">
          <g
             id="use7183"
             transform="translate(223.43201,134.765)">
            <path
               inkscape:connector-curvature="0"
               style="stroke:none"
               d="m 5.0176399,-3.796875 c 0.046875,-0.140625 0.046875,-0.15625 0.046875,-0.234375 0,-0.171875 -0.140625,-0.265625 -0.296875,-0.265625 -0.09375,0 -0.25,0.0625 -0.34375,0.203125 -0.015625,0.0625 -0.109375,0.359375 -0.140625,0.546875 -0.078125,0.25 -0.140625,0.53125 -0.203125,0.796875 l -0.453125,1.796875 c -0.03125,0.140625 -0.46875,0.84375 -1.125,0.84375 -0.5,0 -0.609375,-0.4375 -0.609375,-0.8125 0,-0.453125 0.171875,-1.078125 0.5,-1.953125 0.15625,-0.40625 0.203125,-0.515625 0.203125,-0.71875 0,-0.4375 -0.3125,-0.8125 -0.8125,-0.8125 -0.95312499,0 -1.31249999,1.453125 -1.31249999,1.53125 0,0.109375 0.09375,0.109375 0.109375,0.109375 0.109375,0 0.109375,-0.03125 0.15625,-0.1875 C 1.0176399,-3.890625 1.4082649,-4.1875 1.7520149,-4.1875 c 0.078125,0 0.25,0 0.25,0.3125 0,0.25 -0.109375,0.515625 -0.171875,0.703125 -0.40625,1.0625 -0.578125,1.625 -0.578125,2.09375 0,0.890625 0.625,1.1875 1.21875,1.1875 0.390625,0 0.71875,-0.171875 1,-0.453125 -0.125,0.515625 -0.25,1.015625 -0.640625,1.546875 -0.265625,0.328125 -0.640625,0.625 -1.09375,0.625 -0.140625,0 -0.59375,-0.03125 -0.76562499,-0.421875 0.15624999,0 0.29687499,0 0.42187499,-0.125 0.109375,-0.078125 0.203125,-0.21875 0.203125,-0.40625 0,-0.3125 -0.265625,-0.34375 -0.359375,-0.34375 -0.234375,0 -0.56249999,0.15625 -0.56249999,0.640625 0,0.5 0.43749999,0.875 1.06249999,0.875 1.015625,0 2.046875,-0.90625 2.328125,-2.03125 z m 0,0"
               id="path4441" />
          </g>
        </g>
        <g
           transform="matrix(1.6356102,0,0,1.6356102,-23.318094,10.044109)"
           id="g7163"
           inkscape:export-filename="/home/waldgeist/data/pics/physik/Own/mathematik/betragsfunktion.png"
           inkscape:export-xdpi="150"
           inkscape:export-ydpi="150">
          <g
             id="g7165"
             style="fill:#000000;fill-opacity:1">
            <g
               transform="translate(223.43201,134.765)"
               id="use7167">
              <path
                 inkscape:connector-curvature="0"
                 style="stroke:none"
                 d="M 3.328125,-3.015625 C 3.390625,-3.265625 3.625,-4.1875 4.3125,-4.1875 c 0.046875,0 0.296875,0 0.5,0.125 C 4.53125,-4 4.34375,-3.765625 4.34375,-3.515625 c 0,0.15625 0.109375,0.34375 0.375,0.34375 0.21875,0 0.53125,-0.171875 0.53125,-0.578125 0,-0.515625 -0.578125,-0.65625 -0.921875,-0.65625 -0.578125,0 -0.921875,0.53125 -1.046875,0.75 -0.25,-0.65625 -0.78125,-0.75 -1.078125,-0.75 -1.03125,0 -1.609375,1.28125 -1.609375,1.53125 0,0.109375 0.109375,0.109375 0.125,0.109375 0.078125,0 0.109375,-0.03125 0.125,-0.109375 0.34375,-1.0625 1,-1.3125 1.34375,-1.3125 0.1875,0 0.53125,0.09375 0.53125,0.671875 0,0.3125 -0.171875,0.96875 -0.53125,2.375 -0.15625,0.609375 -0.515625,1.03125 -0.953125,1.03125 -0.0625,0 -0.28125,0 -0.5,-0.125 0.25,-0.0625 0.46875,-0.265625 0.46875,-0.546875 0,-0.265625 -0.21875,-0.34375 -0.359375,-0.34375 -0.3125,0 -0.546875,0.25 -0.546875,0.578125 0,0.453125 0.484375,0.65625 0.921875,0.65625 0.671875,0 1.03125,-0.703125 1.046875,-0.75 0.125,0.359375 0.484375,0.75 1.078125,0.75 1.03125,0 1.59375,-1.28125 1.59375,-1.53125 0,-0.109375 -0.078125,-0.109375 -0.109375,-0.109375 -0.09375,0 -0.109375,0.046875 -0.140625,0.109375 -0.328125,1.078125 -1,1.3125 -1.3125,1.3125 -0.390625,0 -0.546875,-0.3125 -0.546875,-0.65625 0,-0.21875 0.046875,-0.4375 0.15625,-0.875 z m 0,0"
                 id="path4449" />
            </g>
          </g>
        </g>
        <path
           style="fill:none;stroke:#000000;stroke-width:1.5;stroke-linecap:butt;stroke-linejoin:miter;stroke-opacity:1;marker-end:url(#TriangleOutM)"
           d="m 72.498109,215.97152 274.422011,0"
           id="path7147"
           inkscape:connector-curvature="0"
           sodipodi:nodetypes="cc"
           inkscape:export-filename="/home/waldgeist/data/pics/physik/Own/mathematik/betragsfunktion.png"
           inkscape:export-xdpi="150"
           inkscape:export-ydpi="150" />
        <use
           height="1052.3622"
           width="744.09448"
           transform="matrix(0,-1,1,0,-5.0276053,426.91543)"
           id="use125072"
           xlink:href="#path7147"
           y="0"
           x="0"
           inkscape:export-filename="/home/waldgeist/data/pics/physik/Own/mathematik/betragsfunktion.png"
           inkscape:export-xdpi="150"
           inkscape:export-ydpi="150"
           style="stroke:#000000;stroke-width:1.5" />
      </g>
      <g
         style="stroke:#008000"
         transform="translate(305.38478,225.86036)"
         id="g8376">
        <path
           id="path207995"
           d="m -94.1557,-24.165582 c -28.66899,-0.53334 -55.29207,-40.0264 -80.40736,-108.231878"
           style="fill:none;stroke:#008000;stroke-width:3;stroke-linecap:round;stroke-linejoin:miter;stroke-opacity:1"
           inkscape:connector-curvature="0" />
        <path
           id="path207997"
           d="m -94.10865,-24.165582 c 28.669,-0.53334 55.29208,-40.0264 80.40737,-108.231878"
           style="fill:none;stroke:#008000;stroke-width:3;stroke-linecap:round;stroke-linejoin:miter;stroke-opacity:1"
           inkscape:connector-curvature="0" />
      </g>
    </g>
    <g
       id="g8296"
       transform="translate(0,311.0976)">
      <g
         transform="matrix(1.6356102,0,0,1.6356102,-169.89915,-135.71234)"
         id="g8298"
         style="fill:#000000;fill-opacity:1"
         inkscape:export-filename="/home/waldgeist/data/pics/physik/Own/mathematik/betragsfunktion.png"
         inkscape:export-xdpi="150"
         inkscape:export-ydpi="150">
        <g
           id="g8300"
           transform="translate(223.43201,134.765)">
          <path
             inkscape:connector-curvature="0"
             style="stroke:none"
             d="m 5.0176399,-3.796875 c 0.046875,-0.140625 0.046875,-0.15625 0.046875,-0.234375 0,-0.171875 -0.140625,-0.265625 -0.296875,-0.265625 -0.09375,0 -0.25,0.0625 -0.34375,0.203125 -0.015625,0.0625 -0.109375,0.359375 -0.140625,0.546875 -0.078125,0.25 -0.140625,0.53125 -0.203125,0.796875 l -0.453125,1.796875 c -0.03125,0.140625 -0.46875,0.84375 -1.125,0.84375 -0.5,0 -0.609375,-0.4375 -0.609375,-0.8125 0,-0.453125 0.171875,-1.078125 0.5,-1.953125 0.15625,-0.40625 0.203125,-0.515625 0.203125,-0.71875 0,-0.4375 -0.3125,-0.8125 -0.8125,-0.8125 -0.95312499,0 -1.31249999,1.453125 -1.31249999,1.53125 0,0.109375 0.09375,0.109375 0.109375,0.109375 0.109375,0 0.109375,-0.03125 0.15625,-0.1875 C 1.0176399,-3.890625 1.4082649,-4.1875 1.7520149,-4.1875 c 0.078125,0 0.25,0 0.25,0.3125 0,0.25 -0.109375,0.515625 -0.171875,0.703125 -0.40625,1.0625 -0.578125,1.625 -0.578125,2.09375 0,0.890625 0.625,1.1875 1.21875,1.1875 0.390625,0 0.71875,-0.171875 1,-0.453125 -0.125,0.515625 -0.25,1.015625 -0.640625,1.546875 -0.265625,0.328125 -0.640625,0.625 -1.09375,0.625 -0.140625,0 -0.59375,-0.03125 -0.76562499,-0.421875 0.15624999,0 0.29687499,0 0.42187499,-0.125 0.109375,-0.078125 0.203125,-0.21875 0.203125,-0.40625 0,-0.3125 -0.265625,-0.34375 -0.359375,-0.34375 -0.234375,0 -0.56249999,0.15625 -0.56249999,0.640625 0,0.5 0.43749999,0.875 1.06249999,0.875 1.015625,0 2.046875,-0.90625 2.328125,-2.03125 z m 0,0"
             id="path8302" />
        </g>
      </g>
      <g
         transform="matrix(1.6356102,0,0,1.6356102,-23.318094,10.044109)"
         id="g8304"
         inkscape:export-filename="/home/waldgeist/data/pics/physik/Own/mathematik/betragsfunktion.png"
         inkscape:export-xdpi="150"
         inkscape:export-ydpi="150">
        <g
           id="g8306"
           style="fill:#000000;fill-opacity:1">
          <g
             transform="translate(223.43201,134.765)"
             id="g8308">
            <path
               inkscape:connector-curvature="0"
               style="stroke:none"
               d="M 3.328125,-3.015625 C 3.390625,-3.265625 3.625,-4.1875 4.3125,-4.1875 c 0.046875,0 0.296875,0 0.5,0.125 C 4.53125,-4 4.34375,-3.765625 4.34375,-3.515625 c 0,0.15625 0.109375,0.34375 0.375,0.34375 0.21875,0 0.53125,-0.171875 0.53125,-0.578125 0,-0.515625 -0.578125,-0.65625 -0.921875,-0.65625 -0.578125,0 -0.921875,0.53125 -1.046875,0.75 -0.25,-0.65625 -0.78125,-0.75 -1.078125,-0.75 -1.03125,0 -1.609375,1.28125 -1.609375,1.53125 0,0.109375 0.109375,0.109375 0.125,0.109375 0.078125,0 0.109375,-0.03125 0.125,-0.109375 0.34375,-1.0625 1,-1.3125 1.34375,-1.3125 0.1875,0 0.53125,0.09375 0.53125,0.671875 0,0.3125 -0.171875,0.96875 -0.53125,2.375 -0.15625,0.609375 -0.515625,1.03125 -0.953125,1.03125 -0.0625,0 -0.28125,0 -0.5,-0.125 0.25,-0.0625 0.46875,-0.265625 0.46875,-0.546875 0,-0.265625 -0.21875,-0.34375 -0.359375,-0.34375 -0.3125,0 -0.546875,0.25 -0.546875,0.578125 0,0.453125 0.484375,0.65625 0.921875,0.65625 0.671875,0 1.03125,-0.703125 1.046875,-0.75 0.125,0.359375 0.484375,0.75 1.078125,0.75 1.03125,0 1.59375,-1.28125 1.59375,-1.53125 0,-0.109375 -0.078125,-0.109375 -0.109375,-0.109375 -0.09375,0 -0.109375,0.046875 -0.140625,0.109375 -0.328125,1.078125 -1,1.3125 -1.3125,1.3125 -0.390625,0 -0.546875,-0.3125 -0.546875,-0.65625 0,-0.21875 0.046875,-0.4375 0.15625,-0.875 z m 0,0"
               id="path8310" />
          </g>
        </g>
      </g>
      <path
         style="fill:none;stroke:#000000;stroke-width:1.5;stroke-linecap:butt;stroke-linejoin:miter;stroke-opacity:1;marker-end:url(#TriangleOutM)"
         d="m 72.498109,215.97152 274.422011,0"
         id="path8312"
         inkscape:connector-curvature="0"
         sodipodi:nodetypes="cc"
         inkscape:export-filename="/home/waldgeist/data/pics/physik/Own/mathematik/betragsfunktion.png"
         inkscape:export-xdpi="150"
         inkscape:export-ydpi="150" />
      <use
         height="1052.3622"
         width="744.09448"
         transform="matrix(0,-1,1,0,-5.0276053,426.91543)"
         id="use8314"
         xlink:href="#path7147"
         y="0"
         x="0"
         inkscape:export-filename="/home/waldgeist/data/pics/physik/Own/mathematik/betragsfunktion.png"
         inkscape:export-xdpi="150"
         inkscape:export-ydpi="150"
         style="stroke:#000000;stroke-width:1.5" />
    </g>
    <g
       transform="translate(0,623.48557)"
       id="g8336">
      <g
         inkscape:export-ydpi="150"
         inkscape:export-xdpi="150"
         inkscape:export-filename="/home/waldgeist/data/pics/physik/Own/mathematik/betragsfunktion.png"
         style="fill:#000000;fill-opacity:1"
         id="g8338"
         transform="matrix(1.6356102,0,0,1.6356102,-169.89915,-135.71234)">
        <g
           transform="translate(223.43201,134.765)"
           id="g8340">
          <path
             id="path8342"
             d="m 5.0176399,-3.796875 c 0.046875,-0.140625 0.046875,-0.15625 0.046875,-0.234375 0,-0.171875 -0.140625,-0.265625 -0.296875,-0.265625 -0.09375,0 -0.25,0.0625 -0.34375,0.203125 -0.015625,0.0625 -0.109375,0.359375 -0.140625,0.546875 -0.078125,0.25 -0.140625,0.53125 -0.203125,0.796875 l -0.453125,1.796875 c -0.03125,0.140625 -0.46875,0.84375 -1.125,0.84375 -0.5,0 -0.609375,-0.4375 -0.609375,-0.8125 0,-0.453125 0.171875,-1.078125 0.5,-1.953125 0.15625,-0.40625 0.203125,-0.515625 0.203125,-0.71875 0,-0.4375 -0.3125,-0.8125 -0.8125,-0.8125 -0.95312499,0 -1.31249999,1.453125 -1.31249999,1.53125 0,0.109375 0.09375,0.109375 0.109375,0.109375 0.109375,0 0.109375,-0.03125 0.15625,-0.1875 C 1.0176399,-3.890625 1.4082649,-4.1875 1.7520149,-4.1875 c 0.078125,0 0.25,0 0.25,0.3125 0,0.25 -0.109375,0.515625 -0.171875,0.703125 -0.40625,1.0625 -0.578125,1.625 -0.578125,2.09375 0,0.890625 0.625,1.1875 1.21875,1.1875 0.390625,0 0.71875,-0.171875 1,-0.453125 -0.125,0.515625 -0.25,1.015625 -0.640625,1.546875 -0.265625,0.328125 -0.640625,0.625 -1.09375,0.625 -0.140625,0 -0.59375,-0.03125 -0.76562499,-0.421875 0.15624999,0 0.29687499,0 0.42187499,-0.125 0.109375,-0.078125 0.203125,-0.21875 0.203125,-0.40625 0,-0.3125 -0.265625,-0.34375 -0.359375,-0.34375 -0.234375,0 -0.56249999,0.15625 -0.56249999,0.640625 0,0.5 0.43749999,0.875 1.06249999,0.875 1.015625,0 2.046875,-0.90625 2.328125,-2.03125 z m 0,0"
             style="stroke:none"
             inkscape:connector-curvature="0" />
        </g>
      </g>
      <g
         inkscape:export-ydpi="150"
         inkscape:export-xdpi="150"
         inkscape:export-filename="/home/waldgeist/data/pics/physik/Own/mathematik/betragsfunktion.png"
         id="g8344"
         transform="matrix(1.6356102,0,0,1.6356102,-23.318094,10.044109)">
        <g
           style="fill:#000000;fill-opacity:1"
           id="g8346">
          <g
             id="g8348"
             transform="translate(223.43201,134.765)">
            <path
               id="path8350"
               d="M 3.328125,-3.015625 C 3.390625,-3.265625 3.625,-4.1875 4.3125,-4.1875 c 0.046875,0 0.296875,0 0.5,0.125 C 4.53125,-4 4.34375,-3.765625 4.34375,-3.515625 c 0,0.15625 0.109375,0.34375 0.375,0.34375 0.21875,0 0.53125,-0.171875 0.53125,-0.578125 0,-0.515625 -0.578125,-0.65625 -0.921875,-0.65625 -0.578125,0 -0.921875,0.53125 -1.046875,0.75 -0.25,-0.65625 -0.78125,-0.75 -1.078125,-0.75 -1.03125,0 -1.609375,1.28125 -1.609375,1.53125 0,0.109375 0.109375,0.109375 0.125,0.109375 0.078125,0 0.109375,-0.03125 0.125,-0.109375 0.34375,-1.0625 1,-1.3125 1.34375,-1.3125 0.1875,0 0.53125,0.09375 0.53125,0.671875 0,0.3125 -0.171875,0.96875 -0.53125,2.375 -0.15625,0.609375 -0.515625,1.03125 -0.953125,1.03125 -0.0625,0 -0.28125,0 -0.5,-0.125 0.25,-0.0625 0.46875,-0.265625 0.46875,-0.546875 0,-0.265625 -0.21875,-0.34375 -0.359375,-0.34375 -0.3125,0 -0.546875,0.25 -0.546875,0.578125 0,0.453125 0.484375,0.65625 0.921875,0.65625 0.671875,0 1.03125,-0.703125 1.046875,-0.75 0.125,0.359375 0.484375,0.75 1.078125,0.75 1.03125,0 1.59375,-1.28125 1.59375,-1.53125 0,-0.109375 -0.078125,-0.109375 -0.109375,-0.109375 -0.09375,0 -0.109375,0.046875 -0.140625,0.109375 -0.328125,1.078125 -1,1.3125 -1.3125,1.3125 -0.390625,0 -0.546875,-0.3125 -0.546875,-0.65625 0,-0.21875 0.046875,-0.4375 0.15625,-0.875 z m 0,0"
               style="stroke:none"
               inkscape:connector-curvature="0" />
          </g>
        </g>
      </g>
      <path
         inkscape:export-ydpi="150"
         inkscape:export-xdpi="150"
         inkscape:export-filename="/home/waldgeist/data/pics/physik/Own/mathematik/betragsfunktion.png"
         sodipodi:nodetypes="cc"
         inkscape:connector-curvature="0"
         id="path8352"
         d="m 72.498109,215.97152 274.422011,0"
         style="fill:none;stroke:#000000;stroke-width:1.5;stroke-linecap:butt;stroke-linejoin:miter;stroke-opacity:1;marker-end:url(#TriangleOutM)" />
      <use
         style="stroke:#000000;stroke-width:1.5"
         inkscape:export-ydpi="150"
         inkscape:export-xdpi="150"
         inkscape:export-filename="/home/waldgeist/data/pics/physik/Own/mathematik/betragsfunktion.png"
         x="0"
         y="0"
         xlink:href="#path7147"
         id="use8354"
         transform="matrix(0,-1,1,0,-5.0276053,426.91543)"
         width="744.09448"
         height="1052.3622" />
    </g>
    <g
       id="g8356"
       transform="translate(321.58925,623.48557)">
      <g
         transform="matrix(1.6356102,0,0,1.6356102,-169.89915,-135.71234)"
         id="g8358"
         style="fill:#000000;fill-opacity:1"
         inkscape:export-filename="/home/waldgeist/data/pics/physik/Own/mathematik/betragsfunktion.png"
         inkscape:export-xdpi="150"
         inkscape:export-ydpi="150">
        <g
           id="g8360"
           transform="translate(223.43201,134.765)">
          <path
             inkscape:connector-curvature="0"
             style="stroke:none"
             d="m 5.0176399,-3.796875 c 0.046875,-0.140625 0.046875,-0.15625 0.046875,-0.234375 0,-0.171875 -0.140625,-0.265625 -0.296875,-0.265625 -0.09375,0 -0.25,0.0625 -0.34375,0.203125 -0.015625,0.0625 -0.109375,0.359375 -0.140625,0.546875 -0.078125,0.25 -0.140625,0.53125 -0.203125,0.796875 l -0.453125,1.796875 c -0.03125,0.140625 -0.46875,0.84375 -1.125,0.84375 -0.5,0 -0.609375,-0.4375 -0.609375,-0.8125 0,-0.453125 0.171875,-1.078125 0.5,-1.953125 0.15625,-0.40625 0.203125,-0.515625 0.203125,-0.71875 0,-0.4375 -0.3125,-0.8125 -0.8125,-0.8125 -0.95312499,0 -1.31249999,1.453125 -1.31249999,1.53125 0,0.109375 0.09375,0.109375 0.109375,0.109375 0.109375,0 0.109375,-0.03125 0.15625,-0.1875 C 1.0176399,-3.890625 1.4082649,-4.1875 1.7520149,-4.1875 c 0.078125,0 0.25,0 0.25,0.3125 0,0.25 -0.109375,0.515625 -0.171875,0.703125 -0.40625,1.0625 -0.578125,1.625 -0.578125,2.09375 0,0.890625 0.625,1.1875 1.21875,1.1875 0.390625,0 0.71875,-0.171875 1,-0.453125 -0.125,0.515625 -0.25,1.015625 -0.640625,1.546875 -0.265625,0.328125 -0.640625,0.625 -1.09375,0.625 -0.140625,0 -0.59375,-0.03125 -0.76562499,-0.421875 0.15624999,0 0.29687499,0 0.42187499,-0.125 0.109375,-0.078125 0.203125,-0.21875 0.203125,-0.40625 0,-0.3125 -0.265625,-0.34375 -0.359375,-0.34375 -0.234375,0 -0.56249999,0.15625 -0.56249999,0.640625 0,0.5 0.43749999,0.875 1.06249999,0.875 1.015625,0 2.046875,-0.90625 2.328125,-2.03125 z m 0,0"
             id="path8362" />
        </g>
      </g>
      <g
         transform="matrix(1.6356102,0,0,1.6356102,-23.318094,10.044109)"
         id="g8364"
         inkscape:export-filename="/home/waldgeist/data/pics/physik/Own/mathematik/betragsfunktion.png"
         inkscape:export-xdpi="150"
         inkscape:export-ydpi="150">
        <g
           id="g8366"
           style="fill:#000000;fill-opacity:1">
          <g
             transform="translate(223.43201,134.765)"
             id="g8368">
            <path
               inkscape:connector-curvature="0"
               style="stroke:none"
               d="M 3.328125,-3.015625 C 3.390625,-3.265625 3.625,-4.1875 4.3125,-4.1875 c 0.046875,0 0.296875,0 0.5,0.125 C 4.53125,-4 4.34375,-3.765625 4.34375,-3.515625 c 0,0.15625 0.109375,0.34375 0.375,0.34375 0.21875,0 0.53125,-0.171875 0.53125,-0.578125 0,-0.515625 -0.578125,-0.65625 -0.921875,-0.65625 -0.578125,0 -0.921875,0.53125 -1.046875,0.75 -0.25,-0.65625 -0.78125,-0.75 -1.078125,-0.75 -1.03125,0 -1.609375,1.28125 -1.609375,1.53125 0,0.109375 0.109375,0.109375 0.125,0.109375 0.078125,0 0.109375,-0.03125 0.125,-0.109375 0.34375,-1.0625 1,-1.3125 1.34375,-1.3125 0.1875,0 0.53125,0.09375 0.53125,0.671875 0,0.3125 -0.171875,0.96875 -0.53125,2.375 -0.15625,0.609375 -0.515625,1.03125 -0.953125,1.03125 -0.0625,0 -0.28125,0 -0.5,-0.125 0.25,-0.0625 0.46875,-0.265625 0.46875,-0.546875 0,-0.265625 -0.21875,-0.34375 -0.359375,-0.34375 -0.3125,0 -0.546875,0.25 -0.546875,0.578125 0,0.453125 0.484375,0.65625 0.921875,0.65625 0.671875,0 1.03125,-0.703125 1.046875,-0.75 0.125,0.359375 0.484375,0.75 1.078125,0.75 1.03125,0 1.59375,-1.28125 1.59375,-1.53125 0,-0.109375 -0.078125,-0.109375 -0.109375,-0.109375 -0.09375,0 -0.109375,0.046875 -0.140625,0.109375 -0.328125,1.078125 -1,1.3125 -1.3125,1.3125 -0.390625,0 -0.546875,-0.3125 -0.546875,-0.65625 0,-0.21875 0.046875,-0.4375 0.15625,-0.875 z m 0,0"
               id="path8370" />
          </g>
        </g>
      </g>
      <path
         style="fill:none;stroke:#000000;stroke-width:1.5;stroke-linecap:butt;stroke-linejoin:miter;stroke-opacity:1;marker-end:url(#TriangleOutM)"
         d="m 72.498109,215.97152 274.422011,0"
         id="path8372"
         inkscape:connector-curvature="0"
         sodipodi:nodetypes="cc"
         inkscape:export-filename="/home/waldgeist/data/pics/physik/Own/mathematik/betragsfunktion.png"
         inkscape:export-xdpi="150"
         inkscape:export-ydpi="150" />
      <use
         height="1052.3622"
         width="744.09448"
         transform="matrix(0,-1,1,0,-5.0276053,426.91543)"
         id="use8374"
         xlink:href="#path7147"
         y="0"
         x="0"
         inkscape:export-filename="/home/waldgeist/data/pics/physik/Own/mathematik/betragsfunktion.png"
         inkscape:export-xdpi="150"
         inkscape:export-ydpi="150"
         style="stroke:#000000;stroke-width:1.5" />
    </g>
    <g
       id="g8521"
       transform="translate(323.13275,307.35819)">
      <g
         id="g8241">
        <g
           inkscape:export-ydpi="150"
           inkscape:export-xdpi="150"
           inkscape:export-filename="/home/waldgeist/data/pics/physik/Own/mathematik/betragsfunktion.png"
           style="fill:#000000;fill-opacity:1"
           id="g4438"
           transform="matrix(1.6356102,0,0,1.6356102,151.6901,-131.97293)">
          <g
             transform="translate(223.43201,134.765)"
             id="g4440">
            <path
               id="path4442"
               d="m 5.0176399,-3.796875 c 0.046875,-0.140625 0.046875,-0.15625 0.046875,-0.234375 0,-0.171875 -0.140625,-0.265625 -0.296875,-0.265625 -0.09375,0 -0.25,0.0625 -0.34375,0.203125 -0.015625,0.0625 -0.109375,0.359375 -0.140625,0.546875 -0.078125,0.25 -0.140625,0.53125 -0.203125,0.796875 l -0.453125,1.796875 c -0.03125,0.140625 -0.46875,0.84375 -1.125,0.84375 -0.5,0 -0.609375,-0.4375 -0.609375,-0.8125 0,-0.453125 0.171875,-1.078125 0.5,-1.953125 0.15625,-0.40625 0.203125,-0.515625 0.203125,-0.71875 0,-0.4375 -0.3125,-0.8125 -0.8125,-0.8125 -0.95312499,0 -1.31249999,1.453125 -1.31249999,1.53125 0,0.109375 0.09375,0.109375 0.109375,0.109375 0.109375,0 0.109375,-0.03125 0.15625,-0.1875 C 1.0176399,-3.890625 1.4082649,-4.1875 1.7520149,-4.1875 c 0.078125,0 0.25,0 0.25,0.3125 0,0.25 -0.109375,0.515625 -0.171875,0.703125 -0.40625,1.0625 -0.578125,1.625 -0.578125,2.09375 0,0.890625 0.625,1.1875 1.21875,1.1875 0.390625,0 0.71875,-0.171875 1,-0.453125 -0.125,0.515625 -0.25,1.015625 -0.640625,1.546875 -0.265625,0.328125 -0.640625,0.625 -1.09375,0.625 -0.140625,0 -0.59375,-0.03125 -0.76562499,-0.421875 0.15624999,0 0.29687499,0 0.42187499,-0.125 0.109375,-0.078125 0.203125,-0.21875 0.203125,-0.40625 0,-0.3125 -0.265625,-0.34375 -0.359375,-0.34375 -0.234375,0 -0.56249999,0.15625 -0.56249999,0.640625 0,0.5 0.43749999,0.875 1.06249999,0.875 1.015625,0 2.046875,-0.90625 2.328125,-2.03125 z m 0,0"
               style="stroke:none"
               inkscape:connector-curvature="0" />
          </g>
        </g>
        <g
           inkscape:export-ydpi="150"
           inkscape:export-xdpi="150"
           inkscape:export-filename="/home/waldgeist/data/pics/physik/Own/mathematik/betragsfunktion.png"
           id="g4444"
           transform="matrix(1.6356102,0,0,1.6356102,298.27115,13.783519)">
          <g
             style="fill:#000000;fill-opacity:1"
             id="g4446">
            <g
               id="g4448"
               transform="translate(223.43201,134.765)">
              <path
                 id="path4450"
                 d="M 3.328125,-3.015625 C 3.390625,-3.265625 3.625,-4.1875 4.3125,-4.1875 c 0.046875,0 0.296875,0 0.5,0.125 C 4.53125,-4 4.34375,-3.765625 4.34375,-3.515625 c 0,0.15625 0.109375,0.34375 0.375,0.34375 0.21875,0 0.53125,-0.171875 0.53125,-0.578125 0,-0.515625 -0.578125,-0.65625 -0.921875,-0.65625 -0.578125,0 -0.921875,0.53125 -1.046875,0.75 -0.25,-0.65625 -0.78125,-0.75 -1.078125,-0.75 -1.03125,0 -1.609375,1.28125 -1.609375,1.53125 0,0.109375 0.109375,0.109375 0.125,0.109375 0.078125,0 0.109375,-0.03125 0.125,-0.109375 0.34375,-1.0625 1,-1.3125 1.34375,-1.3125 0.1875,0 0.53125,0.09375 0.53125,0.671875 0,0.3125 -0.171875,0.96875 -0.53125,2.375 -0.15625,0.609375 -0.515625,1.03125 -0.953125,1.03125 -0.0625,0 -0.28125,0 -0.5,-0.125 0.25,-0.0625 0.46875,-0.265625 0.46875,-0.546875 0,-0.265625 -0.21875,-0.34375 -0.359375,-0.34375 -0.3125,0 -0.546875,0.25 -0.546875,0.578125 0,0.453125 0.484375,0.65625 0.921875,0.65625 0.671875,0 1.03125,-0.703125 1.046875,-0.75 0.125,0.359375 0.484375,0.75 1.078125,0.75 1.03125,0 1.59375,-1.28125 1.59375,-1.53125 0,-0.109375 -0.078125,-0.109375 -0.109375,-0.109375 -0.09375,0 -0.109375,0.046875 -0.140625,0.109375 -0.328125,1.078125 -1,1.3125 -1.3125,1.3125 -0.390625,0 -0.546875,-0.3125 -0.546875,-0.65625 0,-0.21875 0.046875,-0.4375 0.15625,-0.875 z m 0,0"
                 style="stroke:none"
                 inkscape:connector-curvature="0" />
            </g>
          </g>
        </g>
        <path
           inkscape:export-ydpi="150"
           inkscape:export-xdpi="150"
           inkscape:export-filename="/home/waldgeist/data/pics/physik/Own/mathematik/betragsfunktion.png"
           sodipodi:nodetypes="cc"
           inkscape:connector-curvature="0"
           id="path4452"
           d="m 394.08735,219.71093 274.42202,0"
           style="fill:none;stroke:#000000;stroke-width:1.5;stroke-linecap:butt;stroke-linejoin:miter;stroke-opacity:1;marker-end:url(#TriangleOutM)" />
        <use
           inkscape:export-ydpi="150"
           inkscape:export-xdpi="150"
           inkscape:export-filename="/home/waldgeist/data/pics/physik/Own/mathematik/betragsfunktion.png"
           x="0"
           y="0"
           xlink:href="#path7147"
           id="use4454"
           transform="matrix(0,-1,1,0,316.56164,430.65484)"
           width="744.09448"
           height="1052.3622"
           style="stroke:#000000;stroke-width:1.5" />
      </g>
      <g
         style="stroke:#008000"
         id="g8380"
         transform="matrix(0,1,-1,0,524.30708,313.5344)">
        <path
           inkscape:connector-curvature="0"
           style="fill:none;stroke:#008000;stroke-width:3;stroke-linecap:round;stroke-linejoin:miter;stroke-opacity:1"
           d="m -94.1557,-24.165582 c -28.66899,-0.53334 -55.29207,-40.0264 -80.40736,-108.231878"
           id="path8382" />
        <path
           inkscape:connector-curvature="0"
           style="fill:none;stroke:#008000;stroke-width:3;stroke-linecap:round;stroke-linejoin:miter;stroke-opacity:1"
           d="m -94.10865,-24.165582 c 28.669,-0.53334 55.29208,-40.0264 80.40737,-108.231878"
           id="path8384" />
      </g>
    </g>
    <g
       id="g8398"
       transform="translate(0.441882,0)"
       style="stroke:#008000">
      <path
         inkscape:connector-curvature="0"
         style="fill:none;stroke:#008000;stroke-width:3;stroke-linecap:round;stroke-linejoin:miter;stroke-opacity:1"
         d="m 226.9957,527.06912 c 0.53334,-28.66899 40.0264,-55.29207 108.23188,-80.40736"
         id="path8388" />
      <path
         inkscape:connector-curvature="0"
         style="fill:none;stroke:#008000;stroke-width:3;stroke-linecap:round;stroke-linejoin:miter;stroke-opacity:1"
         d="m 194.62576,527.06912 c -0.53334,28.669 -40.0264,55.29208 -108.231875,80.40737"
         id="path8390" />
    </g>
    <path
       sodipodi:type="arc"
       style="color:#000000;fill:#800033;fill-opacity:1;fill-rule:nonzero;stroke:#800033;stroke-width:2.43696499;stroke-linecap:round;stroke-linejoin:round;stroke-miterlimit:4;stroke-opacity:1;stroke-dasharray:none;stroke-dashoffset:0;marker:none;visibility:visible;display:inline;overflow:visible;enable-background:accumulate"
       id="path8402"
       sodipodi:cx="190.37967"
       sodipodi:cy="517.84479"
       sodipodi:rx="1.8509134"
       sodipodi:ry="1.8509134"
       d="m 192.23058,517.84479 c 0,1.02223 -0.82868,1.85091 -1.85091,1.85091 -1.02223,0 -1.85091,-0.82868 -1.85091,-1.85091 0,-1.02223 0.82868,-1.85092 1.85091,-1.85092 1.02223,0 1.85091,0.82869 1.85091,1.85092 z"
       transform="matrix(0.61551969,0,0,0.61551969,77.885208,208.32546)" />
    <path
       transform="matrix(0.61551969,0,0,0.61551969,110.25515,208.32546)"
       d="m 192.23058,517.84479 c 0,1.02223 -0.82868,1.85091 -1.85091,1.85091 -1.02223,0 -1.85091,-0.82868 -1.85091,-1.85091 0,-1.02223 0.82868,-1.85092 1.85091,-1.85092 1.02223,0 1.85091,0.82869 1.85091,1.85092 z"
       sodipodi:ry="1.8509134"
       sodipodi:rx="1.8509134"
       sodipodi:cy="517.84479"
       sodipodi:cx="190.37967"
       id="path8404"
       style="color:#000000;fill:#800033;fill-opacity:1;fill-rule:nonzero;stroke:#800033;stroke-width:2.43696499;stroke-linecap:round;stroke-linejoin:round;stroke-miterlimit:4;stroke-opacity:1;stroke-dasharray:none;stroke-dashoffset:0;marker:none;visibility:visible;display:inline;overflow:visible;enable-background:accumulate"
       sodipodi:type="arc" />
    <g
       id="g8414"
       transform="translate(0.9260995,0)">
      <path
         id="path8408"
         d="m 532.53316,840.69189 c 0.53334,-28.66899 40.0264,-55.29207 108.23188,-80.40736"
         style="fill:none;stroke:#008000;stroke-width:3;stroke-linecap:round;stroke-linejoin:miter;stroke-opacity:1"
         inkscape:connector-curvature="0" />
      <path
         style="fill:none;stroke:#008000;stroke-width:3;stroke-linecap:round;stroke-linejoin:miter;stroke-opacity:1"
         d="m 532.22446,839.45709 c -0.43245,-23.24556 -26.47849,-45.14605 -72.67562,-65.98833 l 0,65.98833 -36.2307,0"
         id="path8410"
         transform="translate(-0.9260995,0)"
         inkscape:connector-curvature="0"
         sodipodi:nodetypes="cccc" />
    </g>
    <g
       transform="translate(644.722,623.48557)"
       id="g8447">
      <g
         inkscape:export-ydpi="150"
         inkscape:export-xdpi="150"
         inkscape:export-filename="/home/waldgeist/data/pics/physik/Own/mathematik/betragsfunktion.png"
         style="fill:#000000;fill-opacity:1"
         id="g8449"
         transform="matrix(1.6356102,0,0,1.6356102,-169.89915,-135.71234)">
        <g
           transform="translate(223.43201,134.765)"
           id="g8451">
          <path
             id="path8453"
             d="m 5.0176399,-3.796875 c 0.046875,-0.140625 0.046875,-0.15625 0.046875,-0.234375 0,-0.171875 -0.140625,-0.265625 -0.296875,-0.265625 -0.09375,0 -0.25,0.0625 -0.34375,0.203125 -0.015625,0.0625 -0.109375,0.359375 -0.140625,0.546875 -0.078125,0.25 -0.140625,0.53125 -0.203125,0.796875 l -0.453125,1.796875 c -0.03125,0.140625 -0.46875,0.84375 -1.125,0.84375 -0.5,0 -0.609375,-0.4375 -0.609375,-0.8125 0,-0.453125 0.171875,-1.078125 0.5,-1.953125 0.15625,-0.40625 0.203125,-0.515625 0.203125,-0.71875 0,-0.4375 -0.3125,-0.8125 -0.8125,-0.8125 -0.95312499,0 -1.31249999,1.453125 -1.31249999,1.53125 0,0.109375 0.09375,0.109375 0.109375,0.109375 0.109375,0 0.109375,-0.03125 0.15625,-0.1875 C 1.0176399,-3.890625 1.4082649,-4.1875 1.7520149,-4.1875 c 0.078125,0 0.25,0 0.25,0.3125 0,0.25 -0.109375,0.515625 -0.171875,0.703125 -0.40625,1.0625 -0.578125,1.625 -0.578125,2.09375 0,0.890625 0.625,1.1875 1.21875,1.1875 0.390625,0 0.71875,-0.171875 1,-0.453125 -0.125,0.515625 -0.25,1.015625 -0.640625,1.546875 -0.265625,0.328125 -0.640625,0.625 -1.09375,0.625 -0.140625,0 -0.59375,-0.03125 -0.76562499,-0.421875 0.15624999,0 0.29687499,0 0.42187499,-0.125 0.109375,-0.078125 0.203125,-0.21875 0.203125,-0.40625 0,-0.3125 -0.265625,-0.34375 -0.359375,-0.34375 -0.234375,0 -0.56249999,0.15625 -0.56249999,0.640625 0,0.5 0.43749999,0.875 1.06249999,0.875 1.015625,0 2.046875,-0.90625 2.328125,-2.03125 z m 0,0"
             style="stroke:none"
             inkscape:connector-curvature="0" />
        </g>
      </g>
      <g
         inkscape:export-ydpi="150"
         inkscape:export-xdpi="150"
         inkscape:export-filename="/home/waldgeist/data/pics/physik/Own/mathematik/betragsfunktion.png"
         id="g8455"
         transform="matrix(1.6356102,0,0,1.6356102,-23.318094,10.044109)">
        <g
           style="fill:#000000;fill-opacity:1"
           id="g8457">
          <g
             id="g8459"
             transform="translate(223.43201,134.765)">
            <path
               id="path8461"
               d="M 3.328125,-3.015625 C 3.390625,-3.265625 3.625,-4.1875 4.3125,-4.1875 c 0.046875,0 0.296875,0 0.5,0.125 C 4.53125,-4 4.34375,-3.765625 4.34375,-3.515625 c 0,0.15625 0.109375,0.34375 0.375,0.34375 0.21875,0 0.53125,-0.171875 0.53125,-0.578125 0,-0.515625 -0.578125,-0.65625 -0.921875,-0.65625 -0.578125,0 -0.921875,0.53125 -1.046875,0.75 -0.25,-0.65625 -0.78125,-0.75 -1.078125,-0.75 -1.03125,0 -1.609375,1.28125 -1.609375,1.53125 0,0.109375 0.109375,0.109375 0.125,0.109375 0.078125,0 0.109375,-0.03125 0.125,-0.109375 0.34375,-1.0625 1,-1.3125 1.34375,-1.3125 0.1875,0 0.53125,0.09375 0.53125,0.671875 0,0.3125 -0.171875,0.96875 -0.53125,2.375 -0.15625,0.609375 -0.515625,1.03125 -0.953125,1.03125 -0.0625,0 -0.28125,0 -0.5,-0.125 0.25,-0.0625 0.46875,-0.265625 0.46875,-0.546875 0,-0.265625 -0.21875,-0.34375 -0.359375,-0.34375 -0.3125,0 -0.546875,0.25 -0.546875,0.578125 0,0.453125 0.484375,0.65625 0.921875,0.65625 0.671875,0 1.03125,-0.703125 1.046875,-0.75 0.125,0.359375 0.484375,0.75 1.078125,0.75 1.03125,0 1.59375,-1.28125 1.59375,-1.53125 0,-0.109375 -0.078125,-0.109375 -0.109375,-0.109375 -0.09375,0 -0.109375,0.046875 -0.140625,0.109375 -0.328125,1.078125 -1,1.3125 -1.3125,1.3125 -0.390625,0 -0.546875,-0.3125 -0.546875,-0.65625 0,-0.21875 0.046875,-0.4375 0.15625,-0.875 z m 0,0"
               style="stroke:none"
               inkscape:connector-curvature="0" />
          </g>
        </g>
      </g>
      <path
         inkscape:export-ydpi="150"
         inkscape:export-xdpi="150"
         inkscape:export-filename="/home/waldgeist/data/pics/physik/Own/mathematik/betragsfunktion.png"
         sodipodi:nodetypes="cc"
         inkscape:connector-curvature="0"
         id="path8463"
         d="m 72.498109,215.97152 274.422011,0"
         style="fill:none;stroke:#000000;stroke-width:1.5;stroke-linecap:butt;stroke-linejoin:miter;stroke-opacity:1;marker-end:url(#TriangleOutM)" />
      <use
         style="stroke:#000000;stroke-width:1.5"
         inkscape:export-ydpi="150"
         inkscape:export-xdpi="150"
         inkscape:export-filename="/home/waldgeist/data/pics/physik/Own/mathematik/betragsfunktion.png"
         x="0"
         y="0"
         xlink:href="#path7147"
         id="use8465"
         transform="matrix(0,-1,1,0,-5.0276053,426.91543)"
         width="744.09448"
         height="1052.3622" />
    </g>
    <path
       sodipodi:type="arc"
       style="color:#000000;fill:none;stroke:#008000;stroke-width:2.12678766;stroke-linecap:round;stroke-linejoin:round;stroke-miterlimit:4;stroke-opacity:1;stroke-dasharray:none;stroke-dashoffset:0;marker:none;visibility:visible;display:inline;overflow:visible;enable-background:accumulate"
       id="path8551"
       sodipodi:cx="860.06427"
       sodipodi:cy="527.9566"
       sodipodi:rx="46.368683"
       sodipodi:ry="46.368683"
       d="m 906.43295,527.9566 a 46.368683,46.368683 0 1 1 -92.73736,0 46.368683,46.368683 0 1 1 92.73736,0 z"
       transform="matrix(1.4105781,0,0,1.4105781,-357.52193,94.424346)" />
  </g>
</svg>
