<svg xmlns:ns0="http://www.iki.fi/pav/software/textext/" xmlns="http://www.w3.org/2000/svg" xmlns:xlink="http://www.w3.org/1999/xlink" width="744.094" height="1052.362"><title>Surjektive Funktion (Sinus)</title><defs><marker id="a" orient="auto" overflow="visible"><path d="M2.308 0l-3.46 2v-4l3.46 2z" fill-rule="evenodd" stroke="#000" stroke-width=".4pt"/></marker></defs><g transform="translate(-575.239 128.115) scale(4.62289)" fill="green"><use height="1052.362" width="744.094" xlink:href="#textext-082fa4b4-3" x="231.736" y="134.765"/><use height="1052.362" width="744.094" xlink:href="#textext-082fa4b4-3" x="231.736" y="134.765"/><g ns0:text="$\\Delta \\vec{r} = \\vec{r}_{\\rm{2}} - \\vec{r}_{\\rm{1}} $" ns0:preamble="/home/waldgeist/data/sphinx/test.tex"><use height="1052.362" width="744.094" xlink:href="#textext-082fa4b4-0" x="223.432" y="134.765"/><use height="1052.362" width="744.094" xlink:href="#textext-082fa4b4-2" x="231.417" y="134.765"/><use height="1052.362" width="744.094" xlink:href="#textext-082fa4b4-3" x="231.736" y="134.765"/><use height="1052.362" width="744.094" xlink:href="#textext-082fa4b4-1" x="239.273" y="134.765"/><use height="1052.362" width="744.094" xlink:href="#textext-082fa4b4-2" x="249.472" y="134.765"/><use height="1052.362" width="744.094" xlink:href="#textext-082fa4b4-3" x="249.791" y="134.765"/><use height="1052.362" width="744.094" xlink:href="#textext-082fa4b4-4" x="254.284" y="136.259"/><use height="1052.362" width="744.094" xlink:href="#textext-082fa4b4-6" x="260.967" y="134.765"/><use height="1052.362" width="744.094" xlink:href="#textext-082fa4b4-2" x="270.612" y="134.765"/><use height="1052.362" width="744.094" xlink:href="#textext-082fa4b4-3" x="270.931" y="134.765"/><use height="1052.362" width="744.094" xlink:href="#textext-082fa4b4-5" x="275.425" y="136.259"/></g><g ns0:text="$\\Delta \\vec{r} = \\vec{r}_{\\rm{2}} - \\vec{r}_{\\rm{1}} $" ns0:preamble="/home/waldgeist/data/sphinx/test.tex"><use height="1052.362" width="744.094" xlink:href="#textext-082fa4b4-0" x="223.432" y="134.765"/><use height="1052.362" width="744.094" xlink:href="#textext-082fa4b4-2" x="231.417" y="134.765"/><use height="1052.362" width="744.094" xlink:href="#textext-082fa4b4-3" x="231.736" y="134.765"/><use height="1052.362" width="744.094" xlink:href="#textext-082fa4b4-1" x="239.273" y="134.765"/><use height="1052.362" width="744.094" xlink:href="#textext-082fa4b4-2" x="249.472" y="134.765"/><use height="1052.362" width="744.094" xlink:href="#textext-082fa4b4-3" x="249.791" y="134.765"/><use height="1052.362" width="744.094" xlink:href="#textext-082fa4b4-4" x="254.284" y="136.259"/><use height="1052.362" width="744.094" xlink:href="#textext-082fa4b4-6" x="260.967" y="134.765"/><use height="1052.362" width="744.094" xlink:href="#textext-082fa4b4-2" x="270.612" y="134.765"/><use height="1052.362" width="744.094" xlink:href="#textext-082fa4b4-3" x="270.931" y="134.765"/><use height="1052.362" width="744.094" xlink:href="#textext-082fa4b4-5" x="275.425" y="136.259"/></g><g ns0:text="$\\Delta \\vec{r} = \\vec{r}_{\\rm{2}} - \\vec{r}_{\\rm{1}} $" ns0:preamble="/home/waldgeist/data/sphinx/test.tex"><use height="1052.362" width="744.094" xlink:href="#textext-082fa4b4-0" x="223.432" y="134.765"/><use height="1052.362" width="744.094" xlink:href="#textext-082fa4b4-2" x="231.417" y="134.765"/><use height="1052.362" width="744.094" xlink:href="#textext-082fa4b4-3" x="231.736" y="134.765"/><use height="1052.362" width="744.094" xlink:href="#textext-082fa4b4-1" x="239.273" y="134.765"/><use height="1052.362" width="744.094" xlink:href="#textext-082fa4b4-2" x="249.472" y="134.765"/><use height="1052.362" width="744.094" xlink:href="#textext-082fa4b4-3" x="249.791" y="134.765"/><use height="1052.362" width="744.094" xlink:href="#textext-082fa4b4-4" x="254.284" y="136.259"/><use height="1052.362" width="744.094" xlink:href="#textext-082fa4b4-6" x="260.967" y="134.765"/><use height="1052.362" width="744.094" xlink:href="#textext-082fa4b4-2" x="270.612" y="134.765"/><use height="1052.362" width="744.094" xlink:href="#textext-082fa4b4-3" x="270.931" y="134.765"/><use height="1052.362" width="744.094" xlink:href="#textext-082fa4b4-5" x="275.425" y="136.259"/></g></g><path fill="#fff" stroke="#fff" stroke-width="2" stroke-linecap="round" d="M3.865 282.263h736.364v471.522H3.865z"/><path d="M372.047 347.344v358.69" fill="none" stroke="#ccc" stroke-width=".5"/><path d="M132.92 347.344v358.69m59.782-358.69v358.69m59.782-358.69v358.69m59.782-358.69v358.69m119.563-358.69v358.69m59.781-358.69v358.69m59.782-358.69v358.69m59.782-358.69v358.69M73.139 347.344h597.817M73.139 407.126h597.817M73.139 466.907h597.817M73.139 526.69h597.817M73.139 586.47h597.817M73.139 646.253h597.817M73.139 706.034h597.817" fill="none" stroke="#ccc" stroke-width="1.5"/><path d="M79.117 347.344v358.69m5.978-358.69v358.69m5.978-358.69v358.69m5.978-358.69v358.69m5.979-358.69v358.69m5.978-358.69v358.69m5.978-358.69v358.69m5.978-358.69v358.69m5.978-358.69v358.69m11.957-358.69v358.69m5.978-358.69v358.69m5.978-358.69v358.69m5.978-358.69v358.69m5.978-358.69v358.69m5.979-358.69v358.69m5.978-358.69v358.69m5.978-358.69v358.69m5.978-358.69v358.69m11.956-358.69v358.69m5.978-358.69v358.69m5.979-358.69v358.69m5.978-358.69v358.69m5.978-358.69v358.69m5.978-358.69v358.69m5.979-358.69v358.69m5.977-358.69v358.69m5.979-358.69v358.69m11.956-358.69v358.69m5.978-358.69v358.69m5.978-358.69v358.69m5.978-358.69v358.69m5.979-358.69v358.69m5.978-358.69v358.69m5.978-358.69v358.69m5.979-358.69v358.69m5.977-358.69v358.69m11.957-358.69v358.69m5.978-358.69v358.69m5.978-358.69v358.69m5.978-358.69v358.69m5.978-358.69v358.69m5.979-358.69v358.69m5.978-358.69v358.69m5.977-358.69v358.69m5.98-358.69v358.69m11.955-358.69v358.69m5.979-358.69v358.69m5.978-358.69v358.69m5.978-358.69v358.69m5.978-358.69v358.69m5.978-358.69v358.69m5.978-358.69v358.69m5.979-358.69v358.69m5.977-358.69v358.69m11.957-358.69v358.69m5.978-358.69v358.69m5.978-358.69v358.69m5.979-358.69v358.69m5.978-358.69v358.69m5.978-358.69v358.69m5.978-358.69v358.69m5.978-358.69v358.69m5.979-358.69v358.69m11.956-358.69v358.69m5.978-358.69v358.69m5.978-358.69v358.69m5.978-358.69v358.69m5.979-358.69v358.69m5.978-358.69v358.69m5.978-358.69v358.69m5.978-358.69v358.69m5.978-358.69v358.69m11.956-358.69v358.69m5.979-358.69v358.69m5.978-358.69v358.69m5.978-358.69v358.69m5.978-358.69v358.69m5.978-358.69v358.69m5.979-358.69v358.69m5.978-358.69v358.69m5.978-358.69v358.69m11.956-358.69v358.69m5.978-358.69v358.69m5.979-358.69v358.69m5.978-358.69v358.69m5.978-358.69v358.69m5.978-358.69v358.69m5.978-358.69v358.69M659 347.344v358.69m5.978-358.69v358.69M73.139 353.322h597.817M73.139 359.3h597.817m-597.817 5.979h597.817m-597.817 5.978h597.817m-597.817 5.978h597.817m-597.817 5.978h597.817m-597.817 5.978h597.817M73.139 395.17h597.817m-597.817 5.978h597.817M73.139 413.104h597.817m-597.817 5.978h597.817M73.139 425.06h597.817m-597.817 5.978h597.817m-597.817 5.979h597.817m-597.817 5.978h597.817m-597.817 5.978h597.817m-597.817 5.978h597.817M73.139 460.93h597.817M73.139 472.886h597.817m-597.817 5.978h597.817m-597.817 5.978h597.817M73.139 490.82h597.817m-597.817 5.978h597.817m-597.817 5.978h597.817m-597.817 5.979h597.817m-597.817 5.978h597.817m-597.817 5.978h597.817M73.139 532.667h597.817m-597.817 5.979h597.817m-597.817 5.978h597.817m-597.817 5.978h597.817M73.139 556.58h597.817m-597.817 5.978h597.817m-597.817 5.978h597.817m-597.817 5.979h597.817m-597.817 5.978h597.817M73.139 592.45h597.817m-597.817 5.977h597.817m-597.817 5.978h597.817m-597.817 5.979h597.817m-597.817 5.978h597.817M73.139 622.34h597.817m-597.817 5.978h597.817m-597.817 5.978h597.817m-597.817 5.978h597.817M73.139 652.23h597.817m-597.817 5.979h597.817m-597.817 5.978h597.817m-597.817 5.978h597.817m-597.817 5.978h597.817m-597.817 5.979h597.817M73.139 688.1h597.817m-597.817 5.978h597.817m-597.817 5.978h597.817" fill="none" stroke="#ccc" stroke-width=".5"/><path fill="none" stroke="#ccc" stroke-width="1.5" d="M73.139 347.344h597.817v358.69H73.139z"/><path d="M356.22 311.212c.147-.444.147-.493.147-.74 0-.541-.443-.837-.936-.837-.295 0-.788.197-1.083.64-.05.198-.345 1.134-.444 1.725-.246.788-.443 1.675-.64 2.512l-1.429 5.665c-.098.443-1.477 2.66-3.546 2.66-1.577 0-1.921-1.38-1.921-2.562 0-1.428.541-3.399 1.576-6.157.492-1.28.64-1.626.64-2.266 0-1.38-.985-2.562-2.561-2.562-3.005 0-4.138 4.582-4.138 4.828 0 .345.296.345.345.345.345 0 .345-.099.492-.591.887-2.956 2.119-3.892 3.202-3.892.247 0 .788 0 .788.985 0 .788-.344 1.626-.541 2.217-1.281 3.35-1.823 5.123-1.823 6.6 0 2.808 1.97 3.744 3.842 3.744 1.232 0 2.266-.542 3.153-1.428-.394 1.625-.788 3.202-2.02 4.876-.837 1.035-2.02 1.97-3.448 1.97-.443 0-1.872-.098-2.414-1.33.493 0 .936 0 1.33-.393.345-.247.64-.69.64-1.281 0-.985-.837-1.084-1.132-1.084-.74 0-1.774.493-1.774 2.02 0 1.576 1.38 2.758 3.35 2.758 3.202 0 6.453-2.857 7.34-6.403zm0 0"/><path d="M384.207 407.182h-24.32m24.32-59.782h-24.32m24.32 239.127h-24.32m24.32 59.782h-24.32m24.32 59.781h-24.32M381.927 466.964h-23.913" stroke-width="1.5" fill="none" stroke="#000" stroke-linecap="round"/><path d="M712.877 547.928c.197-.788.936-3.694 3.103-3.694.148 0 .936 0 1.577.394-.887.197-1.478.936-1.478 1.724 0 .493.345 1.084 1.182 1.084.69 0 1.675-.542 1.675-1.823 0-1.625-1.823-2.069-2.906-2.069-1.823 0-2.907 1.675-3.3 2.365-.789-2.07-2.464-2.365-3.4-2.365-3.25 0-5.073 4.04-5.073 4.828 0 .344.345.344.394.344.246 0 .345-.098.394-.344 1.084-3.35 3.152-4.138 4.236-4.138.591 0 1.675.295 1.675 2.118 0 .985-.542 3.054-1.675 7.487-.492 1.921-1.625 3.251-3.005 3.251-.197 0-.886 0-1.576-.394.788-.197 1.478-.837 1.478-1.724 0-.837-.69-1.083-1.133-1.083-.985 0-1.724.788-1.724 1.822 0 1.429 1.527 2.07 2.906 2.07 2.118 0 3.251-2.218 3.3-2.365a3.526 3.526 0 0 0 3.4 2.364c3.25 0 5.024-4.04 5.024-4.827 0-.345-.247-.345-.345-.345-.296 0-.345.148-.443.345-1.035 3.399-3.153 4.137-4.138 4.137-1.232 0-1.724-.985-1.724-2.068 0-.69.148-1.38.492-2.759zm0 0"/><path d="M25.933 526.69h686.055" fill="none" stroke="#000" stroke-width="3" marker-end="url(#a)"/><path id="b" d="M431.829 514.42v23.912" fill="none" stroke="#000" stroke-width="1.5" stroke-linecap="round"/><use xlink:href="#b" transform="translate(59.782 -.483)" width="744.094" height="1052.362" stroke="#000" stroke-width="1.5" stroke-linecap="round"/><use xlink:href="#b" transform="translate(119.563)" width="744.094" height="1052.362" stroke="#000" stroke-width="1.5" stroke-linecap="round"/><use xlink:href="#b" transform="translate(179.345)" width="744.094" height="1052.362" stroke="#000" stroke-width="1.5" stroke-linecap="round"/><use xlink:href="#b" transform="translate(-239.127 -.604)" width="744.094" height="1052.362" stroke="#000" stroke-width="1.5" stroke-linecap="round"/><use xlink:href="#b" transform="translate(-298.909 -.483)" width="744.094" height="1052.362" stroke="#000" stroke-width="1.5" stroke-linecap="round"/><use xlink:href="#b" transform="translate(-358.69)" width="744.094" height="1052.362" stroke="#000" stroke-width="1.5" stroke-linecap="round"/><use height="1052.362" width="744.094" transform="translate(-179.345 -.248)" xlink:href="#b" stroke="#000" stroke-width="1.5" stroke-linecap="round"/><use height="744.094" width="1052.362" transform="translate(-119.563 -.063)" xlink:href="#b" stroke="#000" stroke-width="1.5" stroke-linecap="round"/><use height="744.094" width="1052.362" transform="translate(239.127 -.667)" xlink:href="#b" stroke="#000" stroke-width="1.5" stroke-linecap="round"/><g fill="#4d4d4d" stroke="green" stroke-width="1.18"><g ns0:text="$1$" ns0:preamble="/home/waldgeist/data/sphinx/test.tex" transform="translate(-142.737 216.576) scale(2.5424)"><defs><symbol overflow="visible" id="c"><path d="M2.938-6.375c0-.25 0-.266-.235-.266C2.078-6 1.203-6 .891-6v.313c.203 0 .78 0 1.296-.266v5.172c0 .36-.03.469-.921.469H.953V0c.344-.031 1.203-.031 1.61-.031.39 0 1.265 0 1.609.031v-.313h-.313c-.906 0-.921-.109-.921-.468zm0 0" stroke="none"/></symbol></defs><use xlink:href="#c" x="223.432" y="134.765" width="744.094" height="1052.362"/></g><g transform="translate(-282.255 216.576) scale(2.5424)" ns0:preamble="/home/waldgeist/data/sphinx/test.tex" ns0:text="$-1$"><defs><symbol id="d" overflow="visible"><path d="M6.563-2.297c.171 0 .359 0 .359-.203 0-.188-.188-.188-.36-.188h-5.39c-.172 0-.344 0-.344.188 0 .203.172.203.344.203zm0 0" stroke="none"/></symbol><symbol id="e" overflow="visible"><path d="M2.938-6.375c0-.25 0-.266-.235-.266C2.078-6 1.203-6 .891-6v.313c.203 0 .78 0 1.296-.266v5.172c0 .36-.03.469-.921.469H.953V0c.344-.031 1.203-.031 1.61-.031.39 0 1.265 0 1.609.031v-.313h-.313c-.906 0-.921-.109-.921-.468zm0 0" stroke="none"/></symbol></defs><use y="134.765" x="223.432" xlink:href="#d" width="744.094" height="1052.362"/><use y="134.765" x="231.181" xlink:href="#e" width="744.094" height="1052.362"/></g><g ns0:text="$-2$" ns0:preamble="/home/waldgeist/data/sphinx/test.tex" transform="translate(-342.048 216.576) scale(2.5424)"><defs><symbol overflow="visible" id="f"><path d="M6.563-2.297c.171 0 .359 0 .359-.203 0-.188-.188-.188-.36-.188h-5.39c-.172 0-.344 0-.344.188 0 .203.172.203.344.203zm0 0" stroke="none"/></symbol><symbol overflow="visible" id="g"><path d="M1.266-.766l1.062-1.03c1.547-1.376 2.14-1.907 2.14-2.907 0-1.14-.89-1.938-2.109-1.938A1.843 1.843 0 0 0 .5-4.828c0 .547.5.547.531.547.172 0 .516-.11.516-.532a.513.513 0 0 0-.531-.515c-.079 0-.094 0-.125.016.218-.657.765-1.016 1.343-1.016.907 0 1.329.812 1.329 1.625 0 .797-.485 1.578-1.047 2.203L.609-.375C.5-.265.5-.235.5 0h3.703l.266-1.734h-.235C4.172-1.438 4.11-1 4-.844c-.063.078-.719.078-.938.078zm0 0" stroke="none"/></symbol></defs><use height="1052.362" width="744.094" xlink:href="#f" x="223.432" y="134.765"/><use height="1052.362" width="744.094" xlink:href="#g" x="231.181" y="134.765"/></g><g transform="translate(-401.359 216.298) scale(2.5424)" ns0:preamble="/home/waldgeist/data/sphinx/test.tex" ns0:text="$-3$"><defs><symbol id="h" overflow="visible"><path d="M6.563-2.297c.171 0 .359 0 .359-.203 0-.188-.188-.188-.36-.188h-5.39c-.172 0-.344 0-.344.188 0 .203.172.203.344.203zm0 0" stroke="none"/></symbol><symbol id="i" overflow="visible"><path d="M2.89-3.516c.813-.265 1.391-.953 1.391-1.75 0-.812-.875-1.375-1.828-1.375-1 0-1.765.594-1.765 1.36 0 .328.218.515.515.515.297 0 .5-.218.5-.515 0-.485-.469-.485-.61-.485.298-.5.954-.625 1.313-.625.422 0 .969.22.969 1.11 0 .125-.031.703-.281 1.14-.297.485-.64.516-.89.516a3.29 3.29 0 0 1-.392.031c-.078.016-.14.031-.14.125 0 .11.062.11.234.11h.438c.812 0 1.187.671 1.187 1.656 0 1.36-.687 1.64-1.125 1.64-.437 0-1.187-.171-1.531-.75.344.047.656-.171.656-.546a.537.537 0 0 0-.547-.563c-.25 0-.562.14-.562.578C.422-.437 1.344.22 2.437.22c1.22 0 2.126-.906 2.126-1.922 0-.813-.641-1.594-1.672-1.813zm0 0" stroke="none"/></symbol></defs><use y="134.765" x="223.432" xlink:href="#h" width="744.094" height="1052.362"/><use y="134.765" x="231.181" xlink:href="#i" width="744.094" height="1052.362"/></g><g ns0:text="$-4$" ns0:preamble="/home/waldgeist/data/sphinx/test.tex" transform="translate(-463.447 216.715) scale(2.5424)"><defs><symbol overflow="visible" id="j"><path d="M6.563-2.297c.171 0 .359 0 .359-.203 0-.188-.188-.188-.36-.188h-5.39c-.172 0-.344 0-.344.188 0 .203.172.203.344.203zm0 0" stroke="none"/></symbol><symbol overflow="visible" id="k"><path d="M2.938-1.64v.859c0 .36-.032.469-.766.469h-.203V0c.406-.031.922-.031 1.343-.031.422 0 .938 0 1.36.031v-.313h-.219c-.734 0-.75-.109-.75-.468v-.86h.985v-.312h-.985v-4.531c0-.204 0-.266-.172-.266-.078 0-.11 0-.187.125L.28-1.953v.312zm.046-.313H.563l2.421-3.719zm0 0" stroke="none"/></symbol></defs><use xlink:href="#j" x="223.432" y="134.765" width="744.094" height="1052.362"/><use xlink:href="#k" x="231.181" y="134.765" width="744.094" height="1052.362"/></g><g transform="translate(-520.945 216.298) scale(2.5424)" ns0:preamble="/home/waldgeist/data/sphinx/test.tex" ns0:text="$-5$"><defs><symbol id="l" overflow="visible"><path d="M6.563-2.297c.171 0 .359 0 .359-.203 0-.188-.188-.188-.36-.188h-5.39c-.172 0-.344 0-.344.188 0 .203.172.203.344.203zm0 0" stroke="none"/></symbol><symbol id="m" overflow="visible"><path d="M4.469-2c0-1.188-.813-2.188-1.89-2.188-.47 0-.907.157-1.267.516v-1.953c.204.063.532.125.844.125 1.235 0 1.938-.906 1.938-1.031 0-.063-.032-.11-.11-.11 0 0-.03 0-.078.032a3.22 3.22 0 0 1-1.36.296 3.4 3.4 0 0 1-1.327-.28c-.078-.032-.094-.032-.11-.032C1-6.625 1-6.547 1-6.391v2.954c0 .171 0 .25.14.25.079 0 .094-.016.141-.079.11-.156.469-.703 1.282-.703.515 0 .765.453.843.64.156.376.188.75.188 1.25 0 .36 0 .954-.25 1.376-.235.39-.61.64-1.063.64-.719 0-1.297-.53-1.469-1.109.032 0 .063.016.172.016.329 0 .5-.25.5-.485 0-.25-.171-.5-.5-.5-.14 0-.484.079-.484.532C.5-.75 1.188.219 2.297.219 3.453.219 4.469-.734 4.469-2zm0 0" stroke="none"/></symbol></defs><use y="134.765" x="223.432" xlink:href="#l" width="744.094" height="1052.362"/><use y="134.765" x="231.181" xlink:href="#m" width="744.094" height="1052.362"/></g><g ns0:text="$2$" ns0:preamble="/home/waldgeist/data/sphinx/test.tex" transform="translate(-82.823 216.576) scale(2.5424)"><defs><symbol overflow="visible" id="n"><path d="M1.266-.766l1.062-1.03c1.547-1.376 2.14-1.907 2.14-2.907 0-1.14-.89-1.938-2.109-1.938A1.843 1.843 0 0 0 .5-4.828c0 .547.5.547.531.547.172 0 .516-.11.516-.532a.513.513 0 0 0-.531-.515c-.079 0-.094 0-.125.016.218-.657.765-1.016 1.343-1.016.907 0 1.329.812 1.329 1.625 0 .797-.485 1.578-1.047 2.203L.609-.375C.5-.265.5-.235.5 0h3.703l.266-1.734h-.235C4.172-1.438 4.11-1 4-.844c-.063.078-.719.078-.938.078zm0 0" stroke="none"/></symbol></defs><use height="1052.362" width="744.094" transform="translate(-.019)" xlink:href="#n" x="223.432" y="134.765"/></g><g transform="translate(-23.574 216.298) scale(2.5424)" ns0:preamble="/home/waldgeist/data/sphinx/test.tex" ns0:text="$3$"><defs><symbol id="o" overflow="visible"><path d="M2.89-3.516c.813-.265 1.391-.953 1.391-1.75 0-.812-.875-1.375-1.828-1.375-1 0-1.765.594-1.765 1.36 0 .328.218.515.515.515.297 0 .5-.218.5-.515 0-.485-.469-.485-.61-.485.298-.5.954-.625 1.313-.625.422 0 .969.22.969 1.11 0 .125-.031.703-.281 1.14-.297.485-.64.516-.89.516a3.29 3.29 0 0 1-.392.031c-.078.016-.14.031-.14.125 0 .11.062.11.234.11h.438c.812 0 1.187.671 1.187 1.656 0 1.36-.687 1.64-1.125 1.64-.437 0-1.187-.171-1.531-.75.344.047.656-.171.656-.546a.537.537 0 0 0-.547-.563c-.25 0-.562.14-.562.578C.422-.437 1.344.22 2.437.22c1.22 0 2.126-.906 2.126-1.922 0-.813-.641-1.594-1.672-1.813zm0 0" stroke="none"/></symbol></defs><use y="134.765" x="223.432" xlink:href="#o" width="744.094" height="1052.362"/></g><g ns0:text="$4$" ns0:preamble="/home/waldgeist/data/sphinx/test.tex" transform="translate(34.529 216.715) scale(2.5424)"><defs><symbol overflow="visible" id="p"><path d="M2.938-1.64v.859c0 .36-.032.469-.766.469h-.203V0c.406-.031.922-.031 1.343-.031.422 0 .938 0 1.36.031v-.313h-.219c-.734 0-.75-.109-.75-.468v-.86h.985v-.312h-.985v-4.531c0-.204 0-.266-.172-.266-.078 0-.11 0-.187.125L.28-1.953v.312zm.046-.313H.563l2.421-3.719zm0 0" stroke="none"/></symbol></defs><use height="1052.362" width="744.094" xlink:href="#p" x="223.432" y="134.765"/></g><g transform="translate(96.496 216.298) scale(2.5424)" ns0:preamble="/home/waldgeist/data/sphinx/test.tex" ns0:text="$5$"><defs><symbol id="q" overflow="visible"><path d="M4.469-2c0-1.188-.813-2.188-1.89-2.188-.47 0-.907.157-1.267.516v-1.953c.204.063.532.125.844.125 1.235 0 1.938-.906 1.938-1.031 0-.063-.032-.11-.11-.11 0 0-.03 0-.078.032a3.22 3.22 0 0 1-1.36.296 3.4 3.4 0 0 1-1.327-.28c-.078-.032-.094-.032-.11-.032C1-6.625 1-6.547 1-6.391v2.954c0 .171 0 .25.14.25.079 0 .094-.016.141-.079.11-.156.469-.703 1.282-.703.515 0 .765.453.843.64.156.376.188.75.188 1.25 0 .36 0 .954-.25 1.376-.235.39-.61.64-1.063.64-.719 0-1.297-.53-1.469-1.109.032 0 .063.016.172.016.329 0 .5-.25.5-.485 0-.25-.171-.5-.5-.5-.14 0-.484.079-.484.532C.5-.75 1.188.219 2.297.219 3.453.219 4.469-.734 4.469-2zm0 0" stroke="none"/></symbol></defs><use y="134.765" x="223.432" xlink:href="#q" width="744.094" height="1052.362"/></g></g><g fill="#4d4d4d" stroke="green" stroke-width="1.18"><g ns0:text="$-1$" ns0:preamble="/home/waldgeist/data/sphinx/test.tex" transform="translate(-244.096 252.341) scale(2.5424)"><use height="1052.362" width="744.094" xlink:href="#d" x="223.432" y="134.765"/><use height="1052.362" width="744.094" xlink:href="#e" x="231.181" y="134.765"/></g><g ns0:preamble="/home/waldgeist/data/sphinx/test.tex" ns0:text="$-2$" transform="translate(-244.85 312.123) scale(2.5424)"><use y="134.765" x="223.432" xlink:href="#f" width="744.094" height="1052.362"/><use y="134.765" x="231.181" xlink:href="#g" width="744.094" height="1052.362"/></g><g ns0:text="$-3$" ns0:preamble="/home/waldgeist/data/sphinx/test.tex" transform="translate(-245.089 371.626) scale(2.5424)"><use height="1052.362" width="744.094" xlink:href="#h" x="223.432" y="134.765"/><use height="1052.362" width="744.094" xlink:href="#i" x="231.181" y="134.765"/></g><use height="1052.362" width="744.094" y="134.765" x="223.432" xlink:href="#c" transform="translate(-224.395 132.778) scale(2.5424)" ns0:preamble="/home/waldgeist/data/sphinx/test.tex" ns0:text="$1$"/><use y="134.765" x="223.432" xlink:href="#n" transform="translate(-225.15 72.996) scale(2.5424)" width="744.094" height="1052.362" ns0:preamble="/home/waldgeist/data/sphinx/test.tex" ns0:text="$2$"/><use height="1052.362" width="744.094" xlink:href="#o" x="223.432" y="134.765" transform="translate(-225.388 12.936) scale(2.5424)" ns0:text="$3$" ns0:preamble="/home/waldgeist/data/sphinx/test.tex"/></g><g transform="translate(-104.365 108.208) scale(2.5424)" ns0:text="$y = \\sin{x}$" fill="green" stroke="green" stroke-width="1.18"><defs><symbol id="r" overflow="visible"><path d="M4.844-3.797c.047-.14.047-.156.047-.234 0-.172-.141-.266-.297-.266a.455.455 0 0 0-.344.203c-.016.063-.11.36-.14.547-.079.25-.141.531-.204.797L3.453-.953c-.031.14-.469.844-1.125.844-.5 0-.61-.438-.61-.813 0-.453.173-1.078.5-1.953.157-.406.204-.516.204-.719 0-.437-.313-.812-.813-.812-.953 0-1.312 1.453-1.312 1.531 0 .11.094.11.11.11.109 0 .109-.032.156-.188.28-.938.671-1.235 1.015-1.235.078 0 .25 0 .25.313 0 .25-.11.516-.172.703-.406 1.063-.578 1.625-.578 2.094 0 .89.625 1.187 1.219 1.187.39 0 .719-.171 1-.453-.125.516-.25 1.016-.64 1.547-.266.328-.641.625-1.095.625-.14 0-.593-.031-.765-.422.156 0 .297 0 .422-.125a.493.493 0 0 0 .203-.406c0-.313-.266-.344-.36-.344C.829.531.5.687.5 1.171c0 .5.438.876 1.063.876 1.015 0 2.046-.906 2.328-2.031z" stroke="none"/></symbol><symbol id="w" overflow="visible"><path d="M3.328-3.016c.063-.25.297-1.171.985-1.171.046 0 .296 0 .5.125a.578.578 0 0 0-.47.546c0 .157.11.344.376.344a.546.546 0 0 0 .531-.578c0-.516-.578-.656-.922-.656-.578 0-.922.531-1.047.75-.25-.656-.781-.75-1.078-.75-1.031 0-1.61 1.281-1.61 1.531 0 .11.11.11.126.11.078 0 .11-.032.125-.11.344-1.063 1-1.313 1.344-1.313.187 0 .53.094.53.672 0 .313-.171.97-.53 2.375-.157.61-.516 1.032-.954 1.032-.062 0-.28 0-.5-.125.25-.063.47-.266.47-.547 0-.266-.22-.344-.36-.344-.313 0-.547.25-.547.578 0 .453.484.656.922.656.672 0 1.031-.703 1.047-.75.125.36.484.75 1.078.75 1.031 0 1.594-1.28 1.594-1.53 0-.11-.079-.11-.11-.11-.094 0-.11.047-.14.11-.329 1.077-1 1.312-1.313 1.312-.39 0-.547-.313-.547-.657 0-.218.047-.437.156-.875z" stroke="none"/></symbol><symbol id="s" overflow="visible"><path d="M6.844-3.266c.156 0 .343 0 .343-.187 0-.203-.187-.203-.328-.203H.891c-.141 0-.329 0-.329.203 0 .187.188.187.329.187zm.015 1.938c.141 0 .329 0 .329-.203 0-.188-.188-.188-.344-.188H.89c-.141 0-.329 0-.329.188 0 .203.188.203.329.203z" stroke="none"/></symbol><symbol id="t" overflow="visible"><path d="M2.078-1.938c.219.047 1.031.204 1.031.922 0 .5-.343.907-1.125.907-.843 0-1.203-.563-1.39-1.422-.031-.125-.031-.157-.14-.157-.126 0-.126.063-.126.235v1.328c0 .172 0 .234.11.234C.483.11.5.094.688-.094.703-.109.703-.125.89-.312c.437.406.89.421 1.093.421 1.141 0 1.61-.671 1.61-1.39 0-.516-.297-.828-.422-.938-.328-.328-.719-.406-1.14-.484-.563-.11-1.22-.235-1.22-.813 0-.359.25-.765 1.11-.765 1.094 0 1.156.906 1.172 1.203 0 .094.094.094.11.094.14 0 .14-.047.14-.235v-1.015c0-.157 0-.235-.11-.235-.046 0-.078 0-.203.125a1.676 1.676 0 0 1-.172.157c-.375-.282-.78-.282-.937-.282-1.219 0-1.594.672-1.594 1.235 0 .343.156.625.422.843.328.25.61.313 1.328.454z" stroke="none"/></symbol><symbol id="u" overflow="visible"><path d="M1.766-4.406l-1.391.11v.312c.64 0 .734.062.734.546V-.75c0 .438-.109.438-.78.438V0c.312-.016.859-.031 1.093-.031.36 0 .703.015 1.047.031v-.313c-.672 0-.703-.046-.703-.437zm.03-1.735a.514.514 0 0 0-.515-.53.537.537 0 0 0-.531.53c0 .266.219.532.531.532a.514.514 0 0 0 .516-.532z" stroke="none"/></symbol><symbol id="v" overflow="visible"><path d="M1.094-3.422V-.75c0 .438-.11.438-.782.438V0c.36-.016.86-.031 1.141-.031.25 0 .766.015 1.11.031v-.313c-.672 0-.782 0-.782-.437v-1.844c0-1.031.719-1.594 1.344-1.594.64 0 .75.532.75 1.11V-.75c0 .438-.11.438-.781.438V0c.344-.016.86-.031 1.125-.031.25 0 .781.015 1.11.031v-.313c-.516 0-.766 0-.766-.296v-1.907c0-.859 0-1.156-.313-1.515-.14-.172-.469-.375-1.047-.375-.734 0-1.203.422-1.484 1.047v-1.047l-1.407.11v.312c.704 0 .782.062.782.562z" stroke="none"/></symbol></defs><use y="134.765" x="223.432" xlink:href="#r" width="744.094" height="1052.362"/><use y="134.765" x="231.441" xlink:href="#s" width="744.094" height="1052.362"/><use y="134.765" x="241.96" xlink:href="#t" width="744.094" height="1052.362"/><use y="134.765" x="245.889" xlink:href="#u" width="744.094" height="1052.362"/><use y="134.765" x="248.656" xlink:href="#v" width="744.094" height="1052.362"/><use y="134.765" x="255.85" xlink:href="#w" width="744.094" height="1052.362"/></g><path d="M73.139 568.536h597.817" fill="none" stroke="#666" stroke-width="3" stroke-linecap="round" stroke-dasharray="3,6"/><path d="M-318.366 446.16c21.283 20.78 42.566 41.098 63.85 50.842 21.283 9.743 42.566 8.44 63.85-3.213 21.283-11.652 42.566-33.192 63.85-53.85 21.283-20.66 42.566-39.535 63.85-47.237 21.283-7.702 42.566-3.845 63.85 9.6 17.013 10.746 34.026 27.273 51.04 43.839M-425.2 390.335c18.598-4.209 37.196.219 55.794 11.966 17.013 10.747 34.027 27.274 51.04 43.84m370.289.019c21.284 20.78 42.567 41.098 63.85 50.842 14.432 6.606 28.863 8.134 43.295 4.8" transform="matrix(1.02711 0 0 1.00333 508.88 79.062)" stroke="green" fill="none" stroke-width="2.955" stroke-linecap="round"/><path d="M73.139 508.755h597.817M73.139 472.886h597.817" fill="none" stroke="#666" stroke-width="3" stroke-linecap="round" stroke-dasharray="3,6"/><path d="M372.047 744.804V314.749" fill="none" stroke="#000" stroke-width="3" marker-end="url(#a)"/></svg>