<svg xmlns:ns0="http://www.iki.fi/pav/software/textext/" xmlns="http://www.w3.org/2000/svg" xmlns:xlink="http://www.w3.org/1999/xlink" width="744.094" height="1052.362"><title>Injektive Funktion (2^x)</title><defs><marker orient="auto" id="a" overflow="visible"><path d="M2.308 0l-3.46 2v-4l3.46 2z" fill-rule="evenodd" stroke="#000" stroke-width=".4pt"/></marker></defs><g transform="translate(-575.239 128.115) scale(4.62289)" fill="green"><use y="134.765" x="231.736" xlink:href="#textext-082fa4b4-3" width="744.094" height="1052.362"/><use y="134.765" x="231.736" xlink:href="#textext-082fa4b4-3" width="744.094" height="1052.362"/><g ns0:preamble="/home/waldgeist/data/sphinx/test.tex" ns0:text="$\\Delta \\vec{r} = \\vec{r}_{\\rm{2}} - \\vec{r}_{\\rm{1}} $"><use y="134.765" x="223.432" xlink:href="#textext-082fa4b4-0" width="744.094" height="1052.362"/><use y="134.765" x="231.417" xlink:href="#textext-082fa4b4-2" width="744.094" height="1052.362"/><use y="134.765" x="231.736" xlink:href="#textext-082fa4b4-3" width="744.094" height="1052.362"/><use y="134.765" x="239.273" xlink:href="#textext-082fa4b4-1" width="744.094" height="1052.362"/><use y="134.765" x="249.472" xlink:href="#textext-082fa4b4-2" width="744.094" height="1052.362"/><use y="134.765" x="249.791" xlink:href="#textext-082fa4b4-3" width="744.094" height="1052.362"/><use y="136.259" x="254.284" xlink:href="#textext-082fa4b4-4" width="744.094" height="1052.362"/><use y="134.765" x="260.967" xlink:href="#textext-082fa4b4-6" width="744.094" height="1052.362"/><use y="134.765" x="270.612" xlink:href="#textext-082fa4b4-2" width="744.094" height="1052.362"/><use y="134.765" x="270.931" xlink:href="#textext-082fa4b4-3" width="744.094" height="1052.362"/><use y="136.259" x="275.425" xlink:href="#textext-082fa4b4-5" width="744.094" height="1052.362"/></g><g ns0:preamble="/home/waldgeist/data/sphinx/test.tex" ns0:text="$\\Delta \\vec{r} = \\vec{r}_{\\rm{2}} - \\vec{r}_{\\rm{1}} $"><use y="134.765" x="223.432" xlink:href="#textext-082fa4b4-0" width="744.094" height="1052.362"/><use y="134.765" x="231.417" xlink:href="#textext-082fa4b4-2" width="744.094" height="1052.362"/><use y="134.765" x="231.736" xlink:href="#textext-082fa4b4-3" width="744.094" height="1052.362"/><use y="134.765" x="239.273" xlink:href="#textext-082fa4b4-1" width="744.094" height="1052.362"/><use y="134.765" x="249.472" xlink:href="#textext-082fa4b4-2" width="744.094" height="1052.362"/><use y="134.765" x="249.791" xlink:href="#textext-082fa4b4-3" width="744.094" height="1052.362"/><use y="136.259" x="254.284" xlink:href="#textext-082fa4b4-4" width="744.094" height="1052.362"/><use y="134.765" x="260.967" xlink:href="#textext-082fa4b4-6" width="744.094" height="1052.362"/><use y="134.765" x="270.612" xlink:href="#textext-082fa4b4-2" width="744.094" height="1052.362"/><use y="134.765" x="270.931" xlink:href="#textext-082fa4b4-3" width="744.094" height="1052.362"/><use y="136.259" x="275.425" xlink:href="#textext-082fa4b4-5" width="744.094" height="1052.362"/></g><g ns0:preamble="/home/waldgeist/data/sphinx/test.tex" ns0:text="$\\Delta \\vec{r} = \\vec{r}_{\\rm{2}} - \\vec{r}_{\\rm{1}} $"><use y="134.765" x="223.432" xlink:href="#textext-082fa4b4-0" width="744.094" height="1052.362"/><use y="134.765" x="231.417" xlink:href="#textext-082fa4b4-2" width="744.094" height="1052.362"/><use y="134.765" x="231.736" xlink:href="#textext-082fa4b4-3" width="744.094" height="1052.362"/><use y="134.765" x="239.273" xlink:href="#textext-082fa4b4-1" width="744.094" height="1052.362"/><use y="134.765" x="249.472" xlink:href="#textext-082fa4b4-2" width="744.094" height="1052.362"/><use y="134.765" x="249.791" xlink:href="#textext-082fa4b4-3" width="744.094" height="1052.362"/><use y="136.259" x="254.284" xlink:href="#textext-082fa4b4-4" width="744.094" height="1052.362"/><use y="134.765" x="260.967" xlink:href="#textext-082fa4b4-6" width="744.094" height="1052.362"/><use y="134.765" x="270.612" xlink:href="#textext-082fa4b4-2" width="744.094" height="1052.362"/><use y="134.765" x="270.931" xlink:href="#textext-082fa4b4-3" width="744.094" height="1052.362"/><use y="136.259" x="275.425" xlink:href="#textext-082fa4b4-5" width="744.094" height="1052.362"/></g></g><path fill="#fff" stroke="#fff" stroke-width="2" stroke-linecap="round" d="M3.865 148.955h736.364v738.137H3.865z"/><path d="M356.22 180.126c.147-.443.147-.492.147-.739 0-.541-.443-.837-.936-.837-.295 0-.788.197-1.083.64-.05.197-.345 1.133-.444 1.725-.246.788-.443 1.674-.64 2.512l-1.429 5.664c-.098.444-1.477 2.66-3.546 2.66-1.577 0-1.921-1.379-1.921-2.561 0-1.428.541-3.399 1.576-6.157.492-1.281.64-1.626.64-2.266 0-1.38-.985-2.562-2.561-2.562-3.005 0-4.138 4.581-4.138 4.828 0 .344.296.344.345.344.345 0 .345-.098.492-.59.887-2.956 2.119-3.892 3.202-3.892.247 0 .788 0 .788.985 0 .788-.344 1.626-.541 2.217-1.281 3.35-1.823 5.123-1.823 6.6 0 2.808 1.97 3.744 3.842 3.744 1.232 0 2.266-.542 3.153-1.428-.394 1.625-.788 3.201-2.02 4.876-.837 1.035-2.02 1.97-3.448 1.97-.443 0-1.872-.098-2.414-1.33.493 0 .936 0 1.33-.393.345-.247.64-.69.64-1.281 0-.985-.837-1.084-1.132-1.084-.74 0-1.774.493-1.774 2.02 0 1.576 1.38 2.758 3.35 2.758 3.202 0 6.453-2.857 7.34-6.403zm356.937 367.802c.197-.788.936-3.694 3.103-3.694.148 0 .936 0 1.576.394-.886.197-1.477.936-1.477 1.724 0 .493.344 1.084 1.182 1.084.69 0 1.675-.542 1.675-1.823 0-1.625-1.823-2.069-2.907-2.069-1.822 0-2.906 1.675-3.3 2.365-.788-2.07-2.463-2.365-3.399-2.365-3.25 0-5.074 4.04-5.074 4.828 0 .344.345.344.395.344.246 0 .344-.098.394-.344 1.083-3.35 3.152-4.138 4.236-4.138.591 0 1.675.295 1.675 2.118 0 .985-.542 3.054-1.675 7.487-.493 1.921-1.626 3.251-3.005 3.251-.197 0-.887 0-1.576-.394.788-.197 1.478-.837 1.478-1.724 0-.837-.69-1.083-1.133-1.083-.986 0-1.724.788-1.724 1.822 0 1.429 1.527 2.07 2.906 2.07 2.118 0 3.25-2.218 3.3-2.365a3.526 3.526 0 0 0 3.4 2.364c3.25 0 5.023-4.04 5.023-4.827 0-.345-.246-.345-.344-.345-.296 0-.345.148-.444.345-1.034 3.399-3.152 4.137-4.137 4.137-1.232 0-1.724-.985-1.724-2.068 0-.69.147-1.38.492-2.759zm0 0"/><path d="M131.99 227.259v597.956m59.797-597.956v597.956m59.795-597.956v597.956m59.796-597.956v597.956m59.795-597.956v597.956m59.796-597.956v597.956m59.795-597.956v597.956m59.796-597.956v597.956m59.796-597.956v597.956M72.195 287.054h597.956M72.195 346.85h597.956M72.195 406.646h597.956M72.195 466.441h597.956M72.195 526.237h597.956M72.195 586.032h597.956M72.195 645.828h597.956M72.195 705.623h597.956M72.195 765.42h597.956" stroke-width="1.5" stroke="#ccc" fill="none"/><path d="M78.175 227.259v597.956m5.979-597.956v597.956m5.98-597.956v597.956m5.98-597.956v597.956m5.979-597.956v597.956m5.98-597.956v597.956m5.979-597.956v597.956m5.98-597.956v597.956m5.979-597.956v597.956m11.959-597.956v597.956m5.98-597.956v597.956m5.98-597.956v597.956m5.98-597.956v597.956m5.979-597.956v597.956m5.979-597.956v597.956m5.98-597.956v597.956m5.979-597.956v597.956m5.98-597.956v597.956m11.959-597.956v597.956m5.98-597.956v597.956m5.979-597.956v597.956m5.98-597.956v597.956m5.979-597.956v597.956m5.98-597.956v597.956m5.979-597.956v597.956m5.98-597.956v597.956m5.98-597.956v597.956m11.959-597.956v597.956m5.979-597.956v597.956m5.979-597.956v597.956m5.98-597.956v597.956m5.98-597.956v597.956m5.98-597.956v597.956m5.979-597.956v597.956m5.98-597.956v597.956m5.979-597.956v597.956m11.959-597.956v597.956m5.98-597.956v597.956m5.979-597.956v597.956m5.98-597.956v597.956m5.979-597.956v597.956m5.98-597.956v597.956m5.98-597.956v597.956m5.979-597.956v597.956m5.98-597.956v597.956m11.959-597.956v597.956m5.979-597.956v597.956m5.98-597.956v597.956m5.979-597.956v597.956m5.98-597.956v597.956m5.979-597.956v597.956m5.98-597.956v597.956m5.98-597.956v597.956m5.98-597.956v597.956m11.958-597.956v597.956m5.98-597.956v597.956m5.98-597.956v597.956m5.979-597.956v597.956m5.98-597.956v597.956m5.979-597.956v597.956m5.98-597.956v597.956m5.979-597.956v597.956m5.98-597.956v597.956m11.959-597.956v597.956m5.98-597.956v597.956m5.979-597.956v597.956m5.98-597.956v597.956m5.979-597.956v597.956m5.98-597.956v597.956m5.979-597.956v597.956m5.979-597.956v597.956m5.98-597.956v597.956m11.96-597.956v597.956m5.98-597.956v597.956m5.979-597.956v597.956m5.979-597.956v597.956m5.98-597.956v597.956m5.979-597.956v597.956m5.98-597.956v597.956m5.979-597.956v597.956m5.98-597.956v597.956m11.959-597.956v597.956m5.98-597.956v597.956m5.979-597.956v597.956m5.98-597.956v597.956m5.979-597.956v597.956m5.98-597.956v597.956m5.979-597.956v597.956m5.98-597.956v597.956m5.98-597.956v597.956M72.195 233.238h597.956m-597.956 5.98h597.956m-597.956 5.98h597.956m-597.956 5.979h597.956m-597.956 5.98h597.956m-597.956 5.979h597.956m-597.956 5.98h597.956m-597.956 5.979h597.956m-597.956 5.98h597.956M72.195 293.034h597.956m-597.956 5.98h597.956m-597.956 5.979h597.956m-597.956 5.98h597.956m-597.956 5.979h597.956m-597.956 5.98h597.956m-597.956 5.979h597.956M72.195 334.89h597.956m-597.956 5.98h597.956M72.195 352.83h597.956m-597.956 5.98h597.956m-597.956 5.979h597.956m-597.956 5.979h597.956m-597.956 5.98h597.956m-597.956 5.979h597.956m-597.956 5.98h597.956m-597.956 5.979h597.956m-597.956 5.98h597.956M72.195 412.625h597.956m-597.956 5.98h597.956m-597.956 5.979h597.956m-597.956 5.98h597.956m-597.956 5.979h597.956m-597.956 5.98h597.956m-597.956 5.979h597.956m-597.956 5.98h597.956m-597.956 5.98h597.956M72.195 472.42h597.956M72.195 478.4h597.956m-597.956 5.98h597.956m-597.956 5.98h597.956m-597.956 5.979h597.956m-597.956 5.98h597.956m-597.956 5.979h597.956m-597.956 5.98h597.956m-597.956 5.979h597.956M72.195 532.216h597.956m-597.956 5.98h597.956m-597.956 5.979h597.956m-597.956 5.98h597.956m-597.956 5.98h597.956m-597.956 5.979h597.956m-597.956 5.98h597.956m-597.956 5.979h597.956m-597.956 5.98h597.956M72.195 592.012h597.956m-597.956 5.979h597.956m-597.956 5.98h597.956M72.195 609.95h597.956m-597.956 5.98h597.956m-597.956 5.98h597.956m-597.956 5.98h597.956m-597.956 5.979h597.956m-597.956 5.979h597.956M72.195 651.807h597.956m-597.956 5.98h597.956m-597.956 5.98h597.956m-597.956 5.979h597.956m-597.956 5.98h597.956m-597.956 5.979h597.956m-597.956 5.98h597.956m-597.956 5.979h597.956m-597.956 5.98h597.956M72.195 711.603h597.956m-597.956 5.98h597.956m-597.956 5.979h597.956m-597.956 5.98h597.956m-597.956 5.979h597.956M72.195 741.5h597.956m-597.956 5.98h597.956m-597.956 5.98h597.956m-597.956 5.98h597.956M72.195 771.399h597.956m-597.956 5.979h597.956m-597.956 5.98h597.956m-597.956 5.979h597.956m-597.956 5.98h597.956m-597.956 5.979h597.956m-597.956 5.98h597.956m-597.956 5.98h597.956m-597.956 5.979h597.956" stroke-width=".5" stroke="#ccc" fill="none"/><path fill="none" stroke="#ccc" stroke-width="1.5" d="M72.195 227.259h597.956v597.956H72.195z"/><path d="M384.908 466.441h-24.324m24.324-59.795h-24.324m24.324-59.796h-24.324m24.324-59.796h-24.324m24.324 298.978h-24.324m24.324 59.796h-24.324m24.324 59.796h-24.324m24.324 59.796h-24.324m24.324 59.795h-24.324m24.121-597.956h-23.918" fill="none" stroke="#000" stroke-width="1.5" stroke-linecap="round"/><path d="M25.035 525.683h686.214" fill="none" stroke="#000" stroke-width="3" marker-end="url(#a)"/><path d="M430.969 514.278v23.918" id="b" fill="none" stroke="#000" stroke-width="1.5" stroke-linecap="round"/><use height="1052.362" width="744.094" transform="translate(59.796)" xlink:href="#b" stroke="#000" stroke-width=".912" stroke-linecap="round"/><use height="1052.362" width="744.094" transform="translate(119.591)" xlink:href="#b" stroke="#000" stroke-width=".912" stroke-linecap="round"/><use height="1052.362" width="744.094" transform="translate(179.387)" xlink:href="#b" stroke="#000" stroke-width=".912" stroke-linecap="round"/><use height="1052.362" width="744.094" transform="translate(-239.182)" xlink:href="#b" stroke="#333" stroke-width=".912" stroke-linecap="round"/><use height="1052.362" width="744.094" transform="translate(-299.389 -.611)" xlink:href="#b" stroke="#333" stroke-width=".912" stroke-linecap="round"/><use height="1052.362" width="744.094" transform="translate(-359.184 -.611)" xlink:href="#b" stroke="#333" stroke-width=".912" stroke-linecap="round"/><use xlink:href="#b" transform="translate(-179.387)" width="744.094" height="1052.362" stroke="#333" stroke-width=".912" stroke-linecap="round"/><use xlink:href="#b" transform="translate(-119.591 -.554)" width="1052.362" height="744.094" stroke="#333" stroke-width=".912" stroke-linecap="round"/><use xlink:href="#b" transform="translate(239.182 -.554)" width="1052.362" height="744.094" stroke="#000" stroke-width=".912" stroke-linecap="round"/><g fill="#4d4d4d" stroke="green" stroke-width="1.18"><g transform="translate(-143.77 216.764) scale(2.5424)" ns0:preamble="/home/waldgeist/data/sphinx/test.tex" ns0:text="$1$"><defs><symbol id="c" overflow="visible"><path d="M2.938-6.375c0-.25 0-.266-.235-.266C2.078-6 1.203-6 .891-6v.313c.203 0 .78 0 1.296-.266v5.172c0 .36-.03.469-.921.469H.953V0c.344-.031 1.203-.031 1.61-.031.39 0 1.265 0 1.609.031v-.313h-.313c-.906 0-.921-.109-.921-.468zm0 0" stroke="none"/></symbol></defs><use height="1052.362" width="744.094" y="134.765" x="223.432" xlink:href="#c"/></g><g ns0:text="$-1$" ns0:preamble="/home/waldgeist/data/sphinx/test.tex" transform="translate(-283.288 216.764) scale(2.5424)"><defs><symbol overflow="visible" id="d"><path d="M6.563-2.297c.171 0 .359 0 .359-.203 0-.188-.188-.188-.36-.188h-5.39c-.172 0-.344 0-.344.188 0 .203.172.203.344.203zm0 0" stroke="none"/></symbol><symbol overflow="visible" id="e"><path d="M2.938-6.375c0-.25 0-.266-.235-.266C2.078-6 1.203-6 .891-6v.313c.203 0 .78 0 1.296-.266v5.172c0 .36-.03.469-.921.469H.953V0c.344-.031 1.203-.031 1.61-.031.39 0 1.265 0 1.609.031v-.313h-.313c-.906 0-.921-.109-.921-.468zm0 0" stroke="none"/></symbol></defs><use height="1052.362" width="744.094" xlink:href="#d" x="223.432" y="134.765"/><use height="1052.362" width="744.094" xlink:href="#e" x="231.181" y="134.765"/></g><g transform="translate(-343.081 216.764) scale(2.5424)" ns0:preamble="/home/waldgeist/data/sphinx/test.tex" ns0:text="$-2$"><defs><symbol id="f" overflow="visible"><path d="M6.563-2.297c.171 0 .359 0 .359-.203 0-.188-.188-.188-.36-.188h-5.39c-.172 0-.344 0-.344.188 0 .203.172.203.344.203zm0 0" stroke="none"/></symbol><symbol id="g" overflow="visible"><path d="M1.266-.766l1.062-1.03c1.547-1.376 2.14-1.907 2.14-2.907 0-1.14-.89-1.938-2.109-1.938A1.843 1.843 0 0 0 .5-4.828c0 .547.5.547.531.547.172 0 .516-.11.516-.532a.513.513 0 0 0-.531-.515c-.079 0-.094 0-.125.016.218-.657.765-1.016 1.343-1.016.907 0 1.329.812 1.329 1.625 0 .797-.485 1.578-1.047 2.203L.609-.375C.5-.265.5-.235.5 0h3.703l.266-1.734h-.235C4.172-1.438 4.11-1 4-.844c-.063.078-.719.078-.938.078zm0 0" stroke="none"/></symbol></defs><use y="134.765" x="223.432" xlink:href="#f" width="744.094" height="1052.362"/><use y="134.765" x="231.181" xlink:href="#g" width="744.094" height="1052.362"/></g><g ns0:text="$-3$" ns0:preamble="/home/waldgeist/data/sphinx/test.tex" transform="translate(-402.391 216.486) scale(2.5424)"><defs><symbol overflow="visible" id="h"><path d="M6.563-2.297c.171 0 .359 0 .359-.203 0-.188-.188-.188-.36-.188h-5.39c-.172 0-.344 0-.344.188 0 .203.172.203.344.203zm0 0" stroke="none"/></symbol><symbol overflow="visible" id="i"><path d="M2.89-3.516c.813-.265 1.391-.953 1.391-1.75 0-.812-.875-1.375-1.828-1.375-1 0-1.765.594-1.765 1.36 0 .328.218.515.515.515.297 0 .5-.218.5-.515 0-.485-.469-.485-.61-.485.298-.5.954-.625 1.313-.625.422 0 .969.22.969 1.11 0 .125-.031.703-.281 1.14-.297.485-.64.516-.89.516a3.29 3.29 0 0 1-.392.031c-.078.016-.14.031-.14.125 0 .11.062.11.234.11h.438c.812 0 1.187.671 1.187 1.656 0 1.36-.687 1.64-1.125 1.64-.437 0-1.187-.171-1.531-.75.344.047.656-.171.656-.546a.537.537 0 0 0-.547-.563c-.25 0-.562.14-.562.578C.422-.437 1.344.22 2.437.22c1.22 0 2.126-.906 2.126-1.922 0-.813-.641-1.594-1.672-1.813zm0 0" stroke="none"/></symbol></defs><use height="1052.362" width="744.094" xlink:href="#h" x="223.432" y="134.765"/><use height="1052.362" width="744.094" xlink:href="#i" x="231.181" y="134.765"/></g><g transform="translate(-464.48 216.903) scale(2.5424)" ns0:preamble="/home/waldgeist/data/sphinx/test.tex" ns0:text="$-4$"><defs><symbol id="j" overflow="visible"><path d="M6.563-2.297c.171 0 .359 0 .359-.203 0-.188-.188-.188-.36-.188h-5.39c-.172 0-.344 0-.344.188 0 .203.172.203.344.203zm0 0" stroke="none"/></symbol><symbol id="k" overflow="visible"><path d="M2.938-1.64v.859c0 .36-.032.469-.766.469h-.203V0c.406-.031.922-.031 1.343-.031.422 0 .938 0 1.36.031v-.313h-.219c-.734 0-.75-.109-.75-.468v-.86h.985v-.312h-.985v-4.531c0-.204 0-.266-.172-.266-.078 0-.11 0-.187.125L.28-1.953v.312zm.046-.313H.563l2.421-3.719zm0 0" stroke="none"/></symbol></defs><use height="1052.362" width="744.094" y="134.765" x="223.432" xlink:href="#j"/><use height="1052.362" width="744.094" y="134.765" x="231.181" xlink:href="#k"/></g><g ns0:text="$-5$" ns0:preamble="/home/waldgeist/data/sphinx/test.tex" transform="translate(-521.978 216.486) scale(2.5424)"><defs><symbol overflow="visible" id="l"><path d="M6.563-2.297c.171 0 .359 0 .359-.203 0-.188-.188-.188-.36-.188h-5.39c-.172 0-.344 0-.344.188 0 .203.172.203.344.203zm0 0" stroke="none"/></symbol><symbol overflow="visible" id="m"><path d="M4.469-2c0-1.188-.813-2.188-1.89-2.188-.47 0-.907.157-1.267.516v-1.953c.204.063.532.125.844.125 1.235 0 1.938-.906 1.938-1.031 0-.063-.032-.11-.11-.11 0 0-.03 0-.078.032a3.22 3.22 0 0 1-1.36.296 3.4 3.4 0 0 1-1.327-.28c-.078-.032-.094-.032-.11-.032C1-6.625 1-6.547 1-6.391v2.954c0 .171 0 .25.14.25.079 0 .094-.016.141-.079.11-.156.469-.703 1.282-.703.515 0 .765.453.843.64.156.376.188.75.188 1.25 0 .36 0 .954-.25 1.376-.235.39-.61.64-1.063.64-.719 0-1.297-.53-1.469-1.109.032 0 .063.016.172.016.329 0 .5-.25.5-.485 0-.25-.171-.5-.5-.5-.14 0-.484.079-.484.532C.5-.75 1.188.219 2.297.219 3.453.219 4.469-.734 4.469-2zm0 0" stroke="none"/></symbol></defs><use height="1052.362" width="744.094" xlink:href="#l" x="223.432" y="134.765"/><use height="1052.362" width="744.094" xlink:href="#m" x="231.181" y="134.765"/></g><g transform="translate(-83.856 216.764) scale(2.5424)" ns0:preamble="/home/waldgeist/data/sphinx/test.tex" ns0:text="$2$"><defs><symbol id="n" overflow="visible"><path d="M1.266-.766l1.062-1.03c1.547-1.376 2.14-1.907 2.14-2.907 0-1.14-.89-1.938-2.109-1.938A1.843 1.843 0 0 0 .5-4.828c0 .547.5.547.531.547.172 0 .516-.11.516-.532a.513.513 0 0 0-.531-.515c-.079 0-.094 0-.125.016.218-.657.765-1.016 1.343-1.016.907 0 1.329.812 1.329 1.625 0 .797-.485 1.578-1.047 2.203L.609-.375C.5-.265.5-.235.5 0h3.703l.266-1.734h-.235C4.172-1.438 4.11-1 4-.844c-.063.078-.719.078-.938.078zm0 0" stroke="none"/></symbol></defs><use y="134.765" x="223.432" xlink:href="#n" transform="translate(-.019)" width="744.094" height="1052.362"/></g><g ns0:text="$3$" ns0:preamble="/home/waldgeist/data/sphinx/test.tex" transform="translate(-24.606 216.486) scale(2.5424)"><defs><symbol overflow="visible" id="o"><path d="M2.89-3.516c.813-.265 1.391-.953 1.391-1.75 0-.812-.875-1.375-1.828-1.375-1 0-1.765.594-1.765 1.36 0 .328.218.515.515.515.297 0 .5-.218.5-.515 0-.485-.469-.485-.61-.485.298-.5.954-.625 1.313-.625.422 0 .969.22.969 1.11 0 .125-.031.703-.281 1.14-.297.485-.64.516-.89.516a3.29 3.29 0 0 1-.392.031c-.078.016-.14.031-.14.125 0 .11.062.11.234.11h.438c.812 0 1.187.671 1.187 1.656 0 1.36-.687 1.64-1.125 1.64-.437 0-1.187-.171-1.531-.75.344.047.656-.171.656-.546a.537.537 0 0 0-.547-.563c-.25 0-.562.14-.562.578C.422-.437 1.344.22 2.437.22c1.22 0 2.126-.906 2.126-1.922 0-.813-.641-1.594-1.672-1.813zm0 0" stroke="none"/></symbol></defs><use height="1052.362" width="744.094" xlink:href="#o" x="223.432" y="134.765"/></g><g transform="translate(33.496 216.903) scale(2.5424)" ns0:preamble="/home/waldgeist/data/sphinx/test.tex" ns0:text="$4$"><defs><symbol id="p" overflow="visible"><path d="M2.938-1.64v.859c0 .36-.032.469-.766.469h-.203V0c.406-.031.922-.031 1.343-.031.422 0 .938 0 1.36.031v-.313h-.219c-.734 0-.75-.109-.75-.468v-.86h.985v-.312h-.985v-4.531c0-.204 0-.266-.172-.266-.078 0-.11 0-.187.125L.28-1.953v.312zm.046-.313H.563l2.421-3.719zm0 0" stroke="none"/></symbol></defs><use y="134.765" x="223.432" xlink:href="#p" width="744.094" height="1052.362"/></g><g ns0:text="$5$" ns0:preamble="/home/waldgeist/data/sphinx/test.tex" transform="translate(95.463 216.486) scale(2.5424)"><defs><symbol overflow="visible" id="q"><path d="M4.469-2c0-1.188-.813-2.188-1.89-2.188-.47 0-.907.157-1.267.516v-1.953c.204.063.532.125.844.125 1.235 0 1.938-.906 1.938-1.031 0-.063-.032-.11-.11-.11 0 0-.03 0-.078.032a3.22 3.22 0 0 1-1.36.296 3.4 3.4 0 0 1-1.327-.28c-.078-.032-.094-.032-.11-.032C1-6.625 1-6.547 1-6.391v2.954c0 .171 0 .25.14.25.079 0 .094-.016.141-.079.11-.156.469-.703 1.282-.703.515 0 .765.453.843.64.156.376.188.75.188 1.25 0 .36 0 .954-.25 1.376-.235.39-.61.64-1.063.64-.719 0-1.297-.53-1.469-1.109.032 0 .063.016.172.016.329 0 .5-.25.5-.485 0-.25-.171-.5-.5-.5-.14 0-.484.079-.484.532C.5-.75 1.188.219 2.297.219 3.453.219 4.469-.734 4.469-2zm0 0" stroke="none"/></symbol></defs><use height="1052.362" width="744.094" xlink:href="#q" x="223.432" y="134.765"/></g></g><g fill="#4d4d4d" stroke="#4d4d4d" stroke-width="1.18"><g ns0:preamble="/home/waldgeist/data/sphinx/test.tex" ns0:text="$-1$" transform="translate(-244.747 252.076) scale(2.5424)"><use y="134.765" x="223.432" xlink:href="#d" width="744.094" height="1052.362"/><use y="134.765" x="231.181" xlink:href="#e" width="744.094" height="1052.362"/></g><g ns0:text="$-2$" ns0:preamble="/home/waldgeist/data/sphinx/test.tex" transform="translate(-245.502 311.858) scale(2.5424)"><use height="1052.362" width="744.094" xlink:href="#f" x="223.432" y="134.765"/><use height="1052.362" width="744.094" xlink:href="#g" x="231.181" y="134.765"/></g><g ns0:preamble="/home/waldgeist/data/sphinx/test.tex" ns0:text="$-3$" transform="translate(-245.74 371.361) scale(2.5424)"><use y="134.765" x="223.432" xlink:href="#h" width="744.094" height="1052.362"/><use y="134.765" x="231.181" xlink:href="#i" width="744.094" height="1052.362"/></g><g ns0:text="$-4$" ns0:preamble="/home/waldgeist/data/sphinx/test.tex" transform="translate(-246.058 431.56) scale(2.5424)"><use xlink:href="#j" x="223.432" y="134.765" width="744.094" height="1052.362"/><use xlink:href="#k" x="231.181" y="134.765" width="744.094" height="1052.362"/></g><g ns0:preamble="/home/waldgeist/data/sphinx/test.tex" ns0:text="$-5$" transform="translate(-245.502 490.925) scale(2.5424)"><use y="134.765" x="223.432" xlink:href="#l" width="744.094" height="1052.362"/><use y="134.765" x="231.181" xlink:href="#m" width="744.094" height="1052.362"/></g><use xlink:href="#c" x="223.432" y="134.765" width="744.094" height="1052.362" transform="translate(-225.046 132.513) scale(2.5424)" ns0:text="$1$" ns0:preamble="/home/waldgeist/data/sphinx/test.tex"/><use height="1052.362" width="744.094" transform="translate(-225.8 72.73) scale(2.5424)" xlink:href="#n" x="223.432" y="134.765" ns0:text="$2$" ns0:preamble="/home/waldgeist/data/sphinx/test.tex"/><use y="134.765" x="223.432" xlink:href="#o" width="744.094" height="1052.362" transform="translate(-226.039 12.671) scale(2.5424)" ns0:preamble="/home/waldgeist/data/sphinx/test.tex" ns0:text="$3$"/><use height="1052.362" width="744.094" xlink:href="#p" x="223.432" y="134.765" transform="translate(-226.357 -46.693) scale(2.5424)" ns0:text="$4$" ns0:preamble="/home/waldgeist/data/sphinx/test.tex"/><use y="134.765" x="223.432" xlink:href="#q" width="744.094" height="1052.362" transform="translate(-225.8 -106.892) scale(2.5424)" ns0:preamble="/home/waldgeist/data/sphinx/test.tex" ns0:text="$5$"/></g><path d="M371.229 871.877V185.663" fill="none" stroke="#000" stroke-width="3" marker-end="url(#a)"/><path d="M72.195 615.93h597.818M72.195 747.48h597.818M72.195 436.543h597.818M72.195 328.911h597.818" fill="none" stroke="#666" stroke-width="3" stroke-linecap="round" stroke-dasharray="3,6"/><path d="M371.173 466.441c35.878-31.828 95.673-71.755 137.53-239.182m-137.53 239.182c-42.87 36.278-128.986 55.178-299.388 56.031" fill="none" stroke-width="3" stroke-linecap="round" stroke="green"/><g transform="translate(-56.516 -64.753) scale(2.5424)" ns0:text="$y = 2^x$" fill="green" stroke="green" stroke-width="1.18"><defs><symbol id="r" overflow="visible"><path d="M4.844-3.797c.047-.14.047-.156.047-.234 0-.172-.141-.266-.297-.266a.455.455 0 0 0-.344.203c-.016.063-.11.36-.14.547-.079.25-.141.531-.204.797L3.453-.953c-.031.14-.469.844-1.125.844-.5 0-.61-.438-.61-.813 0-.453.173-1.078.5-1.953.157-.406.204-.516.204-.719 0-.437-.313-.812-.813-.812-.953 0-1.312 1.453-1.312 1.531 0 .11.094.11.11.11.109 0 .109-.032.156-.188.28-.938.671-1.235 1.015-1.235.078 0 .25 0 .25.313 0 .25-.11.516-.172.703-.406 1.063-.578 1.625-.578 2.094 0 .89.625 1.187 1.219 1.187.39 0 .719-.171 1-.453-.125.516-.25 1.016-.64 1.547-.266.328-.641.625-1.095.625-.14 0-.593-.031-.765-.422.156 0 .297 0 .422-.125a.493.493 0 0 0 .203-.406c0-.313-.266-.344-.36-.344C.829.531.5.687.5 1.171c0 .5.438.876 1.063.876 1.015 0 2.046-.906 2.328-2.031z" stroke="none"/></symbol><symbol id="s" overflow="visible"><path d="M6.844-3.266c.156 0 .343 0 .343-.187 0-.203-.187-.203-.328-.203H.891c-.141 0-.329 0-.329.203 0 .187.188.187.329.187zm.015 1.938c.141 0 .329 0 .329-.203 0-.188-.188-.188-.344-.188H.89c-.141 0-.329 0-.329.188 0 .203.188.203.329.203z" stroke="none"/></symbol><symbol id="t" overflow="visible"><path d="M1.266-.766l1.062-1.03c1.547-1.376 2.14-1.907 2.14-2.907 0-1.14-.89-1.938-2.109-1.938A1.843 1.843 0 0 0 .5-4.828c0 .547.5.547.531.547.172 0 .516-.11.516-.532a.513.513 0 0 0-.531-.515c-.079 0-.094 0-.125.016.218-.657.765-1.016 1.343-1.016.907 0 1.329.812 1.329 1.625 0 .797-.485 1.578-1.047 2.203L.609-.375C.5-.265.5-.235.5 0h3.703l.266-1.734h-.235C4.172-1.438 4.11-1 4-.844c-.063.078-.719.078-.938.078z" stroke="none"/></symbol><symbol id="u" overflow="visible"><path d="M1.734-.734c-.062.234-.296.609-.656.609-.016 0-.234 0-.375-.094a.437.437 0 0 0 .313-.39c0-.157-.125-.25-.282-.25a.407.407 0 0 0-.406.421c0 .344.39.5.734.5.329 0 .61-.187.782-.484.172.36.547.484.828.484.812 0 1.234-.859 1.234-1.062 0-.094-.094-.094-.11-.094-.108 0-.108.047-.14.125-.14.485-.562.844-.953.844-.281 0-.422-.188-.422-.453 0-.188.172-.813.36-1.594.14-.531.453-.703.687-.703.016 0 .219 0 .375.094a.431.431 0 0 0-.312.39c0 .141.125.25.28.25a.403.403 0 0 0 .392-.421c0-.391-.454-.516-.72-.516-.359 0-.64.234-.78.5-.126-.281-.454-.5-.844-.5C.937-3.078.5-2.218.5-2c0 .078.094.078.11.078.093 0 .093-.016.14-.11.172-.546.61-.843.953-.843.234 0 .422.125.422.453 0 .14-.094.485-.156.735z" stroke="none"/></symbol></defs><use y="134.765" x="223.432" xlink:href="#r"/><use y="134.765" x="231.441" xlink:href="#s"/><use y="134.765" x="241.96" xlink:href="#t"/><use y="131.15" x="246.939" xlink:href="#u"/></g></svg>