<svg xmlns:ns0="http://www.iki.fi/pav/software/textext/" xmlns="http://www.w3.org/2000/svg" xmlns:xlink="http://www.w3.org/1999/xlink" width="744.094" height="1052.362"><title>Polstellen einer gebrochenrationalen Funktion</title><defs><marker id="a" orient="auto" overflow="visible"><path d="M2.308 0l-3.46 2v-4l3.46 2z" fill-rule="evenodd" stroke="#000" stroke-width=".4pt"/></marker></defs><g transform="translate(-575.239 128.115) scale(4.62289)" fill="green"><use height="1052.362" width="744.094" xlink:href="#textext-082fa4b4-3" x="231.736" y="134.765"/><use height="1052.362" width="744.094" xlink:href="#textext-082fa4b4-3" x="231.736" y="134.765"/><g ns0:text="$\\Delta \\vec{r} = \\vec{r}_{\\rm{2}} - \\vec{r}_{\\rm{1}} $" ns0:preamble="/home/waldgeist/data/sphinx/test.tex"><use height="1052.362" width="744.094" xlink:href="#textext-082fa4b4-0" x="223.432" y="134.765"/><use height="1052.362" width="744.094" xlink:href="#textext-082fa4b4-2" x="231.417" y="134.765"/><use height="1052.362" width="744.094" xlink:href="#textext-082fa4b4-3" x="231.736" y="134.765"/><use height="1052.362" width="744.094" xlink:href="#textext-082fa4b4-1" x="239.273" y="134.765"/><use height="1052.362" width="744.094" xlink:href="#textext-082fa4b4-2" x="249.472" y="134.765"/><use height="1052.362" width="744.094" xlink:href="#textext-082fa4b4-3" x="249.791" y="134.765"/><use height="1052.362" width="744.094" xlink:href="#textext-082fa4b4-4" x="254.284" y="136.259"/><use height="1052.362" width="744.094" xlink:href="#textext-082fa4b4-6" x="260.967" y="134.765"/><use height="1052.362" width="744.094" xlink:href="#textext-082fa4b4-2" x="270.612" y="134.765"/><use height="1052.362" width="744.094" xlink:href="#textext-082fa4b4-3" x="270.931" y="134.765"/><use height="1052.362" width="744.094" xlink:href="#textext-082fa4b4-5" x="275.425" y="136.259"/></g><g ns0:text="$\\Delta \\vec{r} = \\vec{r}_{\\rm{2}} - \\vec{r}_{\\rm{1}} $" ns0:preamble="/home/waldgeist/data/sphinx/test.tex"><use height="1052.362" width="744.094" xlink:href="#textext-082fa4b4-0" x="223.432" y="134.765"/><use height="1052.362" width="744.094" xlink:href="#textext-082fa4b4-2" x="231.417" y="134.765"/><use height="1052.362" width="744.094" xlink:href="#textext-082fa4b4-3" x="231.736" y="134.765"/><use height="1052.362" width="744.094" xlink:href="#textext-082fa4b4-1" x="239.273" y="134.765"/><use height="1052.362" width="744.094" xlink:href="#textext-082fa4b4-2" x="249.472" y="134.765"/><use height="1052.362" width="744.094" xlink:href="#textext-082fa4b4-3" x="249.791" y="134.765"/><use height="1052.362" width="744.094" xlink:href="#textext-082fa4b4-4" x="254.284" y="136.259"/><use height="1052.362" width="744.094" xlink:href="#textext-082fa4b4-6" x="260.967" y="134.765"/><use height="1052.362" width="744.094" xlink:href="#textext-082fa4b4-2" x="270.612" y="134.765"/><use height="1052.362" width="744.094" xlink:href="#textext-082fa4b4-3" x="270.931" y="134.765"/><use height="1052.362" width="744.094" xlink:href="#textext-082fa4b4-5" x="275.425" y="136.259"/></g><g ns0:text="$\\Delta \\vec{r} = \\vec{r}_{\\rm{2}} - \\vec{r}_{\\rm{1}} $" ns0:preamble="/home/waldgeist/data/sphinx/test.tex"><use height="1052.362" width="744.094" xlink:href="#textext-082fa4b4-0" x="223.432" y="134.765"/><use height="1052.362" width="744.094" xlink:href="#textext-082fa4b4-2" x="231.417" y="134.765"/><use height="1052.362" width="744.094" xlink:href="#textext-082fa4b4-3" x="231.736" y="134.765"/><use height="1052.362" width="744.094" xlink:href="#textext-082fa4b4-1" x="239.273" y="134.765"/><use height="1052.362" width="744.094" xlink:href="#textext-082fa4b4-2" x="249.472" y="134.765"/><use height="1052.362" width="744.094" xlink:href="#textext-082fa4b4-3" x="249.791" y="134.765"/><use height="1052.362" width="744.094" xlink:href="#textext-082fa4b4-4" x="254.284" y="136.259"/><use height="1052.362" width="744.094" xlink:href="#textext-082fa4b4-6" x="260.967" y="134.765"/><use height="1052.362" width="744.094" xlink:href="#textext-082fa4b4-2" x="270.612" y="134.765"/><use height="1052.362" width="744.094" xlink:href="#textext-082fa4b4-3" x="270.931" y="134.765"/><use height="1052.362" width="744.094" xlink:href="#textext-082fa4b4-5" x="275.425" y="136.259"/></g></g><path fill="#fff" stroke="#fff" stroke-width="3" stroke-linecap="round" d="M3.865 140.605h736.364v771.152H3.865z"/><path fill="#fff" stroke="#fff" stroke-width="2" stroke-linecap="round" d="M3.865 140.605h736.364v771.152H3.865z"/><g stroke="#ccc" stroke-width="1.019" fill="none"><path d="M132.92 227.272V825.09m59.782-597.818V825.09m59.782-597.818V825.09m59.782-597.818V825.09m59.781-597.818V825.09m59.782-597.818V825.09m59.781-597.818V825.09m59.782-597.818V825.09m59.782-597.818V825.09M73.139 287.054h597.817M73.139 346.836h597.817M73.139 406.618h597.817M73.139 466.4h597.817M73.139 526.181h597.817M73.139 585.963h597.817M73.139 645.745h597.817M73.139 705.526h597.817M73.139 765.308h597.817" stroke-width="1.5"/><path d="M79.117 227.272V825.09m5.978-597.818V825.09m5.978-597.818V825.09m5.978-597.818V825.09m5.979-597.818V825.09m5.978-597.818V825.09m5.978-597.818V825.09m5.978-597.818V825.09m5.978-597.818V825.09m11.957-597.818V825.09m5.978-597.818V825.09m5.978-597.818V825.09m5.978-597.818V825.09m5.978-597.818V825.09m5.979-597.818V825.09m5.978-597.818V825.09m5.978-597.818V825.09m5.978-597.818V825.09m11.956-597.818V825.09m5.978-597.818V825.09m5.979-597.818V825.09m5.978-597.818V825.09m5.978-597.818V825.09m5.978-597.818V825.09m5.979-597.818V825.09m5.977-597.818V825.09m5.979-597.818V825.09m11.956-597.818V825.09m5.978-597.818V825.09m5.978-597.818V825.09m5.978-597.818V825.09m5.979-597.818V825.09m5.978-597.818V825.09m5.978-597.818V825.09m5.979-597.818V825.09m5.977-597.818V825.09m11.957-597.818V825.09m5.978-597.818V825.09m5.978-597.818V825.09m5.978-597.818V825.09m5.978-597.818V825.09m5.979-597.818V825.09m5.978-597.818V825.09m5.977-597.818V825.09m5.98-597.818V825.09m11.955-597.818V825.09m5.979-597.818V825.09m5.978-597.818V825.09m5.978-597.818V825.09m5.978-597.818V825.09m5.978-597.818V825.09m5.978-597.818V825.09m5.979-597.818V825.09m5.977-597.818V825.09m11.957-597.818V825.09m5.978-597.818V825.09m5.978-597.818V825.09m5.979-597.818V825.09m5.978-597.818V825.09m5.978-597.818V825.09m5.978-597.818V825.09m5.978-597.818V825.09m5.979-597.818V825.09m11.956-597.818V825.09m5.978-597.818V825.09m5.978-597.818V825.09m5.978-597.818V825.09m5.979-597.818V825.09m5.978-597.818V825.09m5.978-597.818V825.09m5.978-597.818V825.09m5.978-597.818V825.09m11.956-597.818V825.09m5.979-597.818V825.09m5.978-597.818V825.09m5.978-597.818V825.09m5.978-597.818V825.09m5.978-597.818V825.09m5.979-597.818V825.09m5.978-597.818V825.09m5.978-597.818V825.09m11.956-597.818V825.09m5.978-597.818V825.09m5.979-597.818V825.09m5.978-597.818V825.09m5.978-597.818V825.09m5.978-597.818V825.09m5.978-597.818V825.09M659 227.272V825.09m5.978-597.818V825.09M73.139 233.25h597.817m-597.817 5.979h597.817m-597.817 5.978h597.817m-597.817 5.978h597.817m-597.817 5.978h597.817m-597.817 5.978h597.817M73.139 269.12h597.817m-597.817 5.978h597.817m-597.817 5.978h597.817M73.139 293.032h597.817M73.139 299.01h597.817m-597.817 5.979h597.817m-597.817 5.978h597.817m-597.817 5.978h597.817m-597.817 5.978h597.817m-597.817 5.978h597.817M73.139 334.88h597.817m-597.817 5.978h597.817M73.139 352.814h597.817m-597.817 5.978h597.817M73.139 364.77h597.817m-597.817 5.979h597.817m-597.817 5.978h597.817m-597.817 5.978h597.817m-597.817 5.978h597.817m-597.817 5.978h597.817M73.139 400.64h597.817M73.139 412.596h597.817m-597.817 5.978h597.817m-597.817 5.978h597.817M73.139 430.53h597.817m-597.817 5.979h597.817m-597.817 5.978h597.817m-597.817 5.978h597.817m-597.817 5.978h597.817m-597.817 5.978h597.817M73.139 472.378h597.817m-597.817 5.978h597.817m-597.817 5.978h597.817m-597.817 5.978h597.817M73.139 496.29h597.817m-597.817 5.978h597.817m-597.817 5.979h597.817m-597.817 5.978h597.817m-597.817 5.978h597.817M73.139 532.16h597.817m-597.817 5.977h597.817m-597.817 5.979h597.817m-597.817 5.978h597.817m-597.817 5.978h597.817M73.139 562.05h597.817m-597.817 5.978h597.817m-597.817 5.978h597.817m-597.817 5.979h597.817M73.139 591.941h597.817M73.139 597.92h597.817m-597.817 5.977h597.817m-597.817 5.979h597.817m-597.817 5.978h597.817m-597.817 5.978h597.817M73.139 627.81h597.817m-597.817 5.978h597.817m-597.817 5.978h597.817M73.139 651.723h597.817M73.139 657.7h597.817m-597.817 5.98h597.817m-597.817 5.977h597.817m-597.817 5.978h597.817m-597.817 5.979h597.817m-597.817 5.978h597.817M73.139 693.57h597.817m-597.817 5.978h597.817M73.139 711.504h597.817m-597.817 5.979h597.817M73.139 723.46h597.817m-597.817 5.979h597.817m-597.817 5.978h597.817m-597.817 5.978h597.817m-597.817 5.978h597.817m-597.817 5.979h597.817M73.139 759.33h597.817M73.139 771.286h597.817m-597.817 5.978h597.817m-597.817 5.979h597.817M73.139 789.22h597.817m-597.817 5.979h597.817m-597.817 5.978h597.817m-597.817 5.978h597.817m-597.817 5.978h597.817m-597.817 5.979h597.817" stroke-width=".5"/><path stroke-width="1.5" d="M73.139 227.272h597.817V825.09H73.139z"/></g><path d="M354.076 182.503c.192-.575.192-.638.192-.958 0-.703-.575-1.086-1.214-1.086-.384 0-1.022.255-1.406.83-.064.256-.447 1.47-.575 2.237-.32 1.022-.575 2.172-.83 3.258l-1.853 7.348c-.128.575-1.917 3.45-4.6 3.45-2.045 0-2.492-1.79-2.492-3.323 0-1.852.703-4.408 2.044-7.986.64-1.661.83-2.108.83-2.939 0-1.789-1.277-3.322-3.321-3.322-3.898 0-5.367 5.942-5.367 6.261 0 .447.383.447.447.447.447 0 .447-.128.639-.766 1.15-3.834 2.747-5.048 4.153-5.048.32 0 1.022 0 1.022 1.278 0 1.022-.447 2.108-.703 2.875-1.66 4.345-2.364 6.645-2.364 8.561 0 3.642 2.556 4.856 4.984 4.856 1.597 0 2.939-.703 4.089-1.853-.511 2.109-1.022 4.153-2.62 6.326-1.086 1.341-2.62 2.555-4.472 2.555-.575 0-2.428-.128-3.13-1.725.638 0 1.213 0 1.724-.511.448-.32.83-.894.83-1.661 0-1.278-1.085-1.406-1.469-1.406-.958 0-2.3.64-2.3 2.62 0 2.044 1.79 3.578 4.345 3.578 4.153 0 8.37-3.706 9.52-8.306zm0 0"/><path d="M384.207 406.674h-24.32m24.32-59.782h-24.32m24.32-59.782h-24.32m24.32-59.781h-24.32m24.32 358.691h-24.32m24.32 59.78h-24.32m24.32 59.783h-24.32m24.32 59.781h-24.32m24.32 59.782h-24.32" stroke-width="1.559" fill="none" stroke="#000"/><path d="M381.927 466.456h-23.913" fill="none" stroke="#000" stroke-width="2"/><path d="M713.62 550.09c.256-1.023 1.214-4.793 4.025-4.793.192 0 1.214 0 2.045.511-1.15.256-1.917 1.214-1.917 2.237 0 .638.447 1.405 1.533 1.405.895 0 2.173-.703 2.173-2.364 0-2.108-2.364-2.683-3.77-2.683-2.364 0-3.77 2.172-4.28 3.067-1.023-2.684-3.195-3.067-4.409-3.067-4.217 0-6.58 5.239-6.58 6.261 0 .447.446.447.51.447.32 0 .448-.127.511-.447 1.406-4.344 4.09-5.367 5.495-5.367.767 0 2.172.384 2.172 2.748 0 1.277-.702 3.96-2.172 9.711-.639 2.492-2.108 4.217-3.897 4.217-.256 0-1.15 0-2.045-.511 1.023-.256 1.917-1.086 1.917-2.236 0-1.087-.894-1.406-1.47-1.406-1.277 0-2.236 1.022-2.236 2.364 0 1.853 1.98 2.683 3.77 2.683 2.747 0 4.217-2.875 4.28-3.066.512 1.469 1.981 3.066 4.41 3.066 4.216 0 6.516-5.239 6.516-6.261 0-.447-.32-.447-.447-.447-.384 0-.448.191-.575.447-1.342 4.408-4.09 5.367-5.367 5.367-1.597 0-2.236-1.278-2.236-2.684 0-.894.191-1.789.639-3.577zm0 0"/><path d="M25.933 526.181h686.055" id="r" fill="none" stroke="#000" stroke-width="3" marker-end="url(#a)"/><path id="b" d="M431.829 513.912v23.912" fill="none" stroke="#000" stroke-width="2"/><use xlink:href="#b" transform="translate(59.782 -.483)" width="744.094" height="1052.362"/><use xlink:href="#b" transform="translate(119.563)" width="744.094" height="1052.362"/><use xlink:href="#b" transform="translate(179.345)" width="744.094" height="1052.362"/><use xlink:href="#b" transform="translate(-239.127 -.604)" width="744.094" height="1052.362"/><use xlink:href="#b" transform="translate(-298.909 -.483)" width="744.094" height="1052.362"/><use xlink:href="#b" transform="translate(-358.69)" width="744.094" height="1052.362"/><use height="1052.362" width="744.094" transform="translate(-179.345 -.248)" xlink:href="#b"/><use height="744.094" width="1052.362" transform="translate(-119.563 -.063)" xlink:href="#b"/><use height="744.094" width="1052.362" transform="translate(239.127 -.667)" xlink:href="#b"/><g fill="#4d4d4d" stroke="green" stroke-width="1.18"><g ns0:text="$1$" ns0:preamble="/home/waldgeist/data/sphinx/test.tex" transform="translate(-142.737 216.068) scale(2.5424)"><defs><symbol overflow="visible" id="c"><path d="M2.938-6.375c0-.25 0-.266-.235-.266C2.078-6 1.203-6 .891-6v.313c.203 0 .78 0 1.296-.266v5.172c0 .36-.03.469-.921.469H.953V0c.344-.031 1.203-.031 1.61-.031.39 0 1.265 0 1.609.031v-.313h-.313c-.906 0-.921-.109-.921-.468zm0 0" stroke="none"/></symbol></defs><use xlink:href="#c" x="223.432" y="134.765" width="744.094" height="1052.362"/></g><g transform="translate(-282.255 216.068) scale(2.5424)" ns0:preamble="/home/waldgeist/data/sphinx/test.tex" ns0:text="$-1$"><defs><symbol id="d" overflow="visible"><path d="M6.563-2.297c.171 0 .359 0 .359-.203 0-.188-.188-.188-.36-.188h-5.39c-.172 0-.344 0-.344.188 0 .203.172.203.344.203zm0 0" stroke="none"/></symbol><symbol id="e" overflow="visible"><path d="M2.938-6.375c0-.25 0-.266-.235-.266C2.078-6 1.203-6 .891-6v.313c.203 0 .78 0 1.296-.266v5.172c0 .36-.03.469-.921.469H.953V0c.344-.031 1.203-.031 1.61-.031.39 0 1.265 0 1.609.031v-.313h-.313c-.906 0-.921-.109-.921-.468zm0 0" stroke="none"/></symbol></defs><use y="134.765" x="223.432" xlink:href="#d" width="744.094" height="1052.362"/><use y="134.765" x="231.181" xlink:href="#e" width="744.094" height="1052.362"/></g><g ns0:text="$-2$" ns0:preamble="/home/waldgeist/data/sphinx/test.tex" transform="translate(-342.048 216.068) scale(2.5424)"><defs><symbol overflow="visible" id="f"><path d="M6.563-2.297c.171 0 .359 0 .359-.203 0-.188-.188-.188-.36-.188h-5.39c-.172 0-.344 0-.344.188 0 .203.172.203.344.203zm0 0" stroke="none"/></symbol><symbol overflow="visible" id="g"><path d="M1.266-.766l1.062-1.03c1.547-1.376 2.14-1.907 2.14-2.907 0-1.14-.89-1.938-2.109-1.938A1.843 1.843 0 0 0 .5-4.828c0 .547.5.547.531.547.172 0 .516-.11.516-.532a.513.513 0 0 0-.531-.515c-.079 0-.094 0-.125.016.218-.657.765-1.016 1.343-1.016.907 0 1.329.812 1.329 1.625 0 .797-.485 1.578-1.047 2.203L.609-.375C.5-.265.5-.235.5 0h3.703l.266-1.734h-.235C4.172-1.438 4.11-1 4-.844c-.063.078-.719.078-.938.078zm0 0" stroke="none"/></symbol></defs><use height="1052.362" width="744.094" xlink:href="#f" x="223.432" y="134.765"/><use height="1052.362" width="744.094" xlink:href="#g" x="231.181" y="134.765"/></g><g transform="translate(-401.359 215.79) scale(2.5424)" ns0:preamble="/home/waldgeist/data/sphinx/test.tex" ns0:text="$-3$"><defs><symbol id="h" overflow="visible"><path d="M6.563-2.297c.171 0 .359 0 .359-.203 0-.188-.188-.188-.36-.188h-5.39c-.172 0-.344 0-.344.188 0 .203.172.203.344.203zm0 0" stroke="none"/></symbol><symbol id="i" overflow="visible"><path d="M2.89-3.516c.813-.265 1.391-.953 1.391-1.75 0-.812-.875-1.375-1.828-1.375-1 0-1.765.594-1.765 1.36 0 .328.218.515.515.515.297 0 .5-.218.5-.515 0-.485-.469-.485-.61-.485.298-.5.954-.625 1.313-.625.422 0 .969.22.969 1.11 0 .125-.031.703-.281 1.14-.297.485-.64.516-.89.516a3.29 3.29 0 0 1-.392.031c-.078.016-.14.031-.14.125 0 .11.062.11.234.11h.438c.812 0 1.187.671 1.187 1.656 0 1.36-.687 1.64-1.125 1.64-.437 0-1.187-.171-1.531-.75.344.047.656-.171.656-.546a.537.537 0 0 0-.547-.563c-.25 0-.562.14-.562.578C.422-.437 1.344.22 2.437.22c1.22 0 2.126-.906 2.126-1.922 0-.813-.641-1.594-1.672-1.813zm0 0" stroke="none"/></symbol></defs><use y="134.765" x="223.432" xlink:href="#h" width="744.094" height="1052.362"/><use y="134.765" x="231.181" xlink:href="#i" width="744.094" height="1052.362"/></g><g ns0:text="$-4$" ns0:preamble="/home/waldgeist/data/sphinx/test.tex" transform="translate(-463.447 216.207) scale(2.5424)"><defs><symbol overflow="visible" id="j"><path d="M6.563-2.297c.171 0 .359 0 .359-.203 0-.188-.188-.188-.36-.188h-5.39c-.172 0-.344 0-.344.188 0 .203.172.203.344.203zm0 0" stroke="none"/></symbol><symbol overflow="visible" id="k"><path d="M2.938-1.64v.859c0 .36-.032.469-.766.469h-.203V0c.406-.031.922-.031 1.343-.031.422 0 .938 0 1.36.031v-.313h-.219c-.734 0-.75-.109-.75-.468v-.86h.985v-.312h-.985v-4.531c0-.204 0-.266-.172-.266-.078 0-.11 0-.187.125L.28-1.953v.312zm.046-.313H.563l2.421-3.719zm0 0" stroke="none"/></symbol></defs><use xlink:href="#j" x="223.432" y="134.765" width="744.094" height="1052.362"/><use xlink:href="#k" x="231.181" y="134.765" width="744.094" height="1052.362"/></g><g transform="translate(-520.945 215.79) scale(2.5424)" ns0:preamble="/home/waldgeist/data/sphinx/test.tex" ns0:text="$-5$"><defs><symbol id="l" overflow="visible"><path d="M6.563-2.297c.171 0 .359 0 .359-.203 0-.188-.188-.188-.36-.188h-5.39c-.172 0-.344 0-.344.188 0 .203.172.203.344.203zm0 0" stroke="none"/></symbol><symbol id="m" overflow="visible"><path d="M4.469-2c0-1.188-.813-2.188-1.89-2.188-.47 0-.907.157-1.267.516v-1.953c.204.063.532.125.844.125 1.235 0 1.938-.906 1.938-1.031 0-.063-.032-.11-.11-.11 0 0-.03 0-.078.032a3.22 3.22 0 0 1-1.36.296 3.4 3.4 0 0 1-1.327-.28c-.078-.032-.094-.032-.11-.032C1-6.625 1-6.547 1-6.391v2.954c0 .171 0 .25.14.25.079 0 .094-.016.141-.079.11-.156.469-.703 1.282-.703.515 0 .765.453.843.64.156.376.188.75.188 1.25 0 .36 0 .954-.25 1.376-.235.39-.61.64-1.063.64-.719 0-1.297-.53-1.469-1.109.032 0 .063.016.172.016.329 0 .5-.25.5-.485 0-.25-.171-.5-.5-.5-.14 0-.484.079-.484.532C.5-.75 1.188.219 2.297.219 3.453.219 4.469-.734 4.469-2zm0 0" stroke="none"/></symbol></defs><use y="134.765" x="223.432" xlink:href="#l" width="744.094" height="1052.362"/><use y="134.765" x="231.181" xlink:href="#m" width="744.094" height="1052.362"/></g><g ns0:text="$2$" ns0:preamble="/home/waldgeist/data/sphinx/test.tex" transform="translate(-82.823 216.068) scale(2.5424)"><defs><symbol overflow="visible" id="n"><path d="M1.266-.766l1.062-1.03c1.547-1.376 2.14-1.907 2.14-2.907 0-1.14-.89-1.938-2.109-1.938A1.843 1.843 0 0 0 .5-4.828c0 .547.5.547.531.547.172 0 .516-.11.516-.532a.513.513 0 0 0-.531-.515c-.079 0-.094 0-.125.016.218-.657.765-1.016 1.343-1.016.907 0 1.329.812 1.329 1.625 0 .797-.485 1.578-1.047 2.203L.609-.375C.5-.265.5-.235.5 0h3.703l.266-1.734h-.235C4.172-1.438 4.11-1 4-.844c-.063.078-.719.078-.938.078zm0 0" stroke="none"/></symbol></defs><use height="1052.362" width="744.094" transform="translate(-.019)" xlink:href="#n" x="223.432" y="134.765"/></g><g transform="translate(-23.574 215.79) scale(2.5424)" ns0:preamble="/home/waldgeist/data/sphinx/test.tex" ns0:text="$3$"><defs><symbol id="o" overflow="visible"><path d="M2.89-3.516c.813-.265 1.391-.953 1.391-1.75 0-.812-.875-1.375-1.828-1.375-1 0-1.765.594-1.765 1.36 0 .328.218.515.515.515.297 0 .5-.218.5-.515 0-.485-.469-.485-.61-.485.298-.5.954-.625 1.313-.625.422 0 .969.22.969 1.11 0 .125-.031.703-.281 1.14-.297.485-.64.516-.89.516a3.29 3.29 0 0 1-.392.031c-.078.016-.14.031-.14.125 0 .11.062.11.234.11h.438c.812 0 1.187.671 1.187 1.656 0 1.36-.687 1.64-1.125 1.64-.437 0-1.187-.171-1.531-.75.344.047.656-.171.656-.546a.537.537 0 0 0-.547-.563c-.25 0-.562.14-.562.578C.422-.437 1.344.22 2.437.22c1.22 0 2.126-.906 2.126-1.922 0-.813-.641-1.594-1.672-1.813zm0 0" stroke="none"/></symbol></defs><use y="134.765" x="223.432" xlink:href="#o" width="744.094" height="1052.362"/></g><g ns0:text="$4$" ns0:preamble="/home/waldgeist/data/sphinx/test.tex" transform="translate(34.529 216.207) scale(2.5424)"><defs><symbol overflow="visible" id="p"><path d="M2.938-1.64v.859c0 .36-.032.469-.766.469h-.203V0c.406-.031.922-.031 1.343-.031.422 0 .938 0 1.36.031v-.313h-.219c-.734 0-.75-.109-.75-.468v-.86h.985v-.312h-.985v-4.531c0-.204 0-.266-.172-.266-.078 0-.11 0-.187.125L.28-1.953v.312zm.046-.313H.563l2.421-3.719zm0 0" stroke="none"/></symbol></defs><use height="1052.362" width="744.094" xlink:href="#p" x="223.432" y="134.765"/></g><g transform="translate(96.496 215.79) scale(2.5424)" ns0:preamble="/home/waldgeist/data/sphinx/test.tex" ns0:text="$5$"><defs><symbol id="q" overflow="visible"><path d="M4.469-2c0-1.188-.813-2.188-1.89-2.188-.47 0-.907.157-1.267.516v-1.953c.204.063.532.125.844.125 1.235 0 1.938-.906 1.938-1.031 0-.063-.032-.11-.11-.11 0 0-.03 0-.078.032a3.22 3.22 0 0 1-1.36.296 3.4 3.4 0 0 1-1.327-.28c-.078-.032-.094-.032-.11-.032C1-6.625 1-6.547 1-6.391v2.954c0 .171 0 .25.14.25.079 0 .094-.016.141-.079.11-.156.469-.703 1.282-.703.515 0 .765.453.843.64.156.376.188.75.188 1.25 0 .36 0 .954-.25 1.376-.235.39-.61.64-1.063.64-.719 0-1.297-.53-1.469-1.109.032 0 .063.016.172.016.329 0 .5-.25.5-.485 0-.25-.171-.5-.5-.5-.14 0-.484.079-.484.532C.5-.75 1.188.219 2.297.219 3.453.219 4.469-.734 4.469-2zm0 0" stroke="none"/></symbol></defs><use y="134.765" x="223.432" xlink:href="#q" width="744.094" height="1052.362"/></g></g><g fill="#4d4d4d" stroke="green" stroke-width="1.18"><g ns0:text="$-1$" ns0:preamble="/home/waldgeist/data/sphinx/test.tex" transform="translate(-244.096 251.833) scale(2.5424)"><use height="1052.362" width="744.094" xlink:href="#d" x="223.432" y="134.765"/><use height="1052.362" width="744.094" xlink:href="#e" x="231.181" y="134.765"/></g><g ns0:preamble="/home/waldgeist/data/sphinx/test.tex" ns0:text="$-2$" transform="translate(-244.85 311.615) scale(2.5424)"><use y="134.765" x="223.432" xlink:href="#f" width="744.094" height="1052.362"/><use y="134.765" x="231.181" xlink:href="#g" width="744.094" height="1052.362"/></g><g ns0:text="$-3$" ns0:preamble="/home/waldgeist/data/sphinx/test.tex" transform="translate(-245.089 371.118) scale(2.5424)"><use height="1052.362" width="744.094" xlink:href="#h" x="223.432" y="134.765"/><use height="1052.362" width="744.094" xlink:href="#i" x="231.181" y="134.765"/></g><g ns0:preamble="/home/waldgeist/data/sphinx/test.tex" ns0:text="$-4$" transform="translate(-245.407 431.317) scale(2.5424)"><use height="1052.362" width="744.094" y="134.765" x="223.432" xlink:href="#j"/><use height="1052.362" width="744.094" y="134.765" x="231.181" xlink:href="#k"/></g><g ns0:text="$-5$" ns0:preamble="/home/waldgeist/data/sphinx/test.tex" transform="translate(-244.85 490.682) scale(2.5424)"><use height="1052.362" width="744.094" xlink:href="#l" x="223.432" y="134.765"/><use height="1052.362" width="744.094" xlink:href="#m" x="231.181" y="134.765"/></g><use height="1052.362" width="744.094" y="134.765" x="223.432" xlink:href="#c" transform="translate(-224.395 132.27) scale(2.5424)" ns0:preamble="/home/waldgeist/data/sphinx/test.tex" ns0:text="$1$"/><use y="134.765" x="223.432" xlink:href="#n" transform="translate(-225.15 72.488) scale(2.5424)" width="744.094" height="1052.362" ns0:preamble="/home/waldgeist/data/sphinx/test.tex" ns0:text="$2$"/><use height="1052.362" width="744.094" xlink:href="#o" x="223.432" y="134.765" transform="translate(-225.388 12.428) scale(2.5424)" ns0:text="$3$" ns0:preamble="/home/waldgeist/data/sphinx/test.tex"/><use y="134.765" x="223.432" xlink:href="#p" width="744.094" height="1052.362" transform="translate(-225.706 -46.937) scale(2.5424)" ns0:preamble="/home/waldgeist/data/sphinx/test.tex" ns0:text="$4$"/><use height="1052.362" width="744.094" xlink:href="#q" x="223.432" y="134.765" transform="translate(-225.15 -107.135) scale(2.5424)" ns0:text="$5$" ns0:preamble="/home/waldgeist/data/sphinx/test.tex"/></g><use height="1052.362" width="744.094" transform="rotate(-90 372.047 526.181)" xlink:href="#r"/><path d="M670.956 521.468c-186.936-3.426-169.608-8.24-175.078-293.82M316.287 824.84c2.28-220.732 1.195-272.707 86.015-272.707 88.633 0 81.723 66.054 84.807 270.425M73.18 523.544c257.769-2.514 227.977 3.312 234.055-295.036" fill="none" stroke="green" stroke-width="3" stroke-linecap="round"/><g transform="matrix(2.5422 0 0 2.5424 -63.595 -89.784)" ns0:preamble="/home/waldgeist/data/sphinx/inkscape-preamble.tex" ns0:text="$y = \\frac{1}{(x+1)(x-2)}$" fill="green" stroke="green" stroke-width="1.18"><defs><symbol id="s" overflow="visible"><path d="M4.844-3.797c.047-.14.047-.156.047-.234 0-.172-.141-.266-.297-.266a.455.455 0 0 0-.344.203c-.016.063-.11.36-.14.547-.079.25-.141.531-.204.797L3.453-.953c-.031.14-.469.844-1.125.844-.5 0-.61-.438-.61-.813 0-.453.173-1.078.5-1.953.157-.406.204-.516.204-.719 0-.437-.313-.812-.813-.812-.953 0-1.312 1.453-1.312 1.531 0 .11.094.11.11.11.109 0 .109-.032.156-.188.28-.938.671-1.235 1.015-1.235.078 0 .25 0 .25.313 0 .25-.11.516-.172.703-.406 1.063-.578 1.625-.578 2.094 0 .89.625 1.187 1.219 1.187.39 0 .719-.171 1-.453-.125.516-.25 1.016-.64 1.547-.266.328-.641.625-1.095.625-.14 0-.593-.031-.765-.422.156 0 .297 0 .422-.125a.493.493 0 0 0 .203-.406c0-.313-.266-.344-.36-.344C.829.531.5.687.5 1.171c0 .5.438.876 1.063.876 1.015 0 2.046-.906 2.328-2.031zm0 0" stroke="none"/></symbol><symbol id="t" overflow="visible"><path d="M6.844-3.266c.156 0 .343 0 .343-.187 0-.203-.187-.203-.328-.203H.891c-.141 0-.329 0-.329.203 0 .187.188.187.329.187zm.015 1.938c.141 0 .329 0 .329-.203 0-.188-.188-.188-.344-.188H.89c-.141 0-.329 0-.329.188 0 .203.188.203.329.203zm0 0" stroke="none"/></symbol><symbol id="u" overflow="visible"><path d="M2.328-4.438c0-.187 0-.187-.203-.187-.453.438-1.078.438-1.36.438v.25c.157 0 .626 0 1-.188v3.547c0 .234 0 .328-.687.328H.812V0c.125 0 .985-.031 1.235-.031.219 0 1.094.031 1.25.031v-.25H3.03c-.703 0-.703-.094-.703-.328zm0 0" stroke="none"/></symbol><symbol id="v" overflow="visible"><path d="M2.469-5.219C1.156-4.297.797-2.812.797-1.75c0 .984.297 2.516 1.672 3.484.062 0 .14 0 .14-.078 0-.047-.015-.062-.062-.11C1.609.704 1.28-.468 1.28-1.733c0-1.891.719-2.813 1.282-3.329.03-.03.046-.046.046-.078 0-.078-.078-.078-.14-.078zm0 0" stroke="none"/></symbol><symbol id="x" overflow="visible"><path d="M3.219-1.578h2.14c.094 0 .25 0 .25-.156 0-.188-.156-.188-.25-.188H3.22v-2.14c0-.079 0-.25-.156-.25-.172 0-.172.156-.172.25v2.14H.75c-.094 0-.266 0-.266.172s.157.172.266.172h2.14v2.14c0 .094 0 .266.157.266.172 0 .172-.172.172-.265zm0 0" stroke="none"/></symbol><symbol id="y" overflow="visible"><path d="M.625-5.219c-.047 0-.125 0-.125.078 0 .032.016.047.063.11.593.547 1.265 1.484 1.265 3.281 0 1.453-.453 2.563-1.203 3.234C.5 1.61.5 1.61.5 1.656c0 .032.016.078.078.078.094 0 .75-.453 1.219-1.328.297-.578.5-1.328.5-2.14C2.297-2.72 2-4.25.625-5.22zm0 0" stroke="none"/></symbol><symbol id="A" overflow="visible"><path d="M3.516-1.266H3.28c-.015.157-.094.563-.187.625-.047.047-.578.047-.688.047h-1.28c.734-.64.984-.844 1.39-1.172.516-.406 1-.843 1-1.5 0-.843-.734-1.359-1.624-1.359-.86 0-1.454.61-1.454 1.25 0 .344.297.39.376.39a.365.365 0 0 0 .359-.374c0-.125-.047-.375-.406-.375.218-.485.687-.641 1.015-.641.703 0 1.063.547 1.063 1.11 0 .609-.438 1.078-.656 1.328L.516-.266C.437-.203.437-.187.437 0h2.876zm0 0" stroke="none"/></symbol><symbol id="w" overflow="visible"><path d="M1.734-.734c-.062.234-.296.609-.656.609-.016 0-.234 0-.375-.094a.437.437 0 0 0 .313-.39c0-.157-.125-.25-.282-.25a.407.407 0 0 0-.406.421c0 .344.39.5.734.5.329 0 .61-.187.782-.484.172.36.547.484.828.484.812 0 1.234-.859 1.234-1.062 0-.094-.094-.094-.11-.094-.108 0-.108.047-.14.125-.14.485-.562.844-.953.844-.281 0-.422-.188-.422-.453 0-.188.172-.813.36-1.594.14-.531.453-.703.687-.703.016 0 .219 0 .375.094a.431.431 0 0 0-.312.39c0 .141.125.25.28.25a.403.403 0 0 0 .392-.421c0-.391-.454-.516-.72-.516-.359 0-.64.234-.78.5-.126-.281-.454-.5-.844-.5C.937-3.078.5-2.218.5-2c0 .078.094.078.11.078.093 0 .093-.016.14-.11.172-.546.61-.843.953-.843.234 0 .422.125.422.453 0 .14-.094.485-.156.735zm0 0" stroke="none"/></symbol><symbol id="z" overflow="visible"><path d="M5.188-1.578c.109 0 .28 0 .28-.156 0-.188-.171-.188-.28-.188H1.03c-.11 0-.281 0-.281.172s.156.172.281.172zm0 0" stroke="none"/></symbol></defs><use y="134.765" x="223.432" xlink:href="#s" width="744.094" height="1052.362"/><use y="134.765" x="231.441" xlink:href="#t" width="744.094" height="1052.362"/><use y="130.842" x="262.054" xlink:href="#u" width="744.094" height="1052.362"/><path d="M243.152 132.273h41.774" stroke-width=".398" stroke-miterlimit="10"/><use y="138.2" x="243.153" xlink:href="#v" width="744.094" height="1052.362"/><use y="138.2" x="246.266" xlink:href="#w" width="744.094" height="1052.362"/><use y="138.2" x="250.784" xlink:href="#x" width="744.094" height="1052.362"/><use y="138.2" x="256.9" xlink:href="#u" width="744.094" height="1052.362"/><use y="138.2" x="260.872" xlink:href="#y" width="744.094" height="1052.362"/><use y="138.2" x="263.985" xlink:href="#v" width="744.094" height="1052.362"/><use y="138.2" x="267.098" xlink:href="#w" width="744.094" height="1052.362"/><use y="138.2" x="271.616" xlink:href="#z" width="744.094" height="1052.362"/><use y="138.2" x="277.842" xlink:href="#A" width="744.094" height="1052.362"/><use y="138.2" x="281.814" xlink:href="#y" width="744.094" height="1052.362"/></g></svg>