<svg xmlns:ns0="http://www.iki.fi/pav/software/textext/" xmlns="http://www.w3.org/2000/svg" xmlns:xlink="http://www.w3.org/1999/xlink" width="1052.362" height="744.094"><title>Gerade und ungerade Potenzfunktionen</title><defs><marker id="a" orient="auto" overflow="visible"><path d="M2.308 0l-3.46 2v-4l3.46 2z" fill-rule="evenodd" stroke="#000" stroke-width=".4pt"/></marker></defs><g transform="translate(-575.239 -180.152) scale(4.62289)" fill="green"><use height="1052.362" width="744.094" xlink:href="#textext-082fa4b4-3" x="231.736" y="134.765"/><use height="1052.362" width="744.094" xlink:href="#textext-082fa4b4-3" x="231.736" y="134.765"/><g ns0:text="$\\Delta \\vec{r} = \\vec{r}_{\\rm{2}} - \\vec{r}_{\\rm{1}} $" ns0:preamble="/home/waldgeist/data/sphinx/test.tex"><use height="1052.362" width="744.094" xlink:href="#textext-082fa4b4-0" x="223.432" y="134.765"/><use height="1052.362" width="744.094" xlink:href="#textext-082fa4b4-2" x="231.417" y="134.765"/><use height="1052.362" width="744.094" xlink:href="#textext-082fa4b4-3" x="231.736" y="134.765"/><use height="1052.362" width="744.094" xlink:href="#textext-082fa4b4-1" x="239.273" y="134.765"/><use height="1052.362" width="744.094" xlink:href="#textext-082fa4b4-2" x="249.472" y="134.765"/><use height="1052.362" width="744.094" xlink:href="#textext-082fa4b4-3" x="249.791" y="134.765"/><use height="1052.362" width="744.094" xlink:href="#textext-082fa4b4-4" x="254.284" y="136.259"/><use height="1052.362" width="744.094" xlink:href="#textext-082fa4b4-6" x="260.967" y="134.765"/><use height="1052.362" width="744.094" xlink:href="#textext-082fa4b4-2" x="270.612" y="134.765"/><use height="1052.362" width="744.094" xlink:href="#textext-082fa4b4-3" x="270.931" y="134.765"/><use height="1052.362" width="744.094" xlink:href="#textext-082fa4b4-5" x="275.425" y="136.259"/></g><g ns0:text="$\\Delta \\vec{r} = \\vec{r}_{\\rm{2}} - \\vec{r}_{\\rm{1}} $" ns0:preamble="/home/waldgeist/data/sphinx/test.tex"><use height="1052.362" width="744.094" xlink:href="#textext-082fa4b4-0" x="223.432" y="134.765"/><use height="1052.362" width="744.094" xlink:href="#textext-082fa4b4-2" x="231.417" y="134.765"/><use height="1052.362" width="744.094" xlink:href="#textext-082fa4b4-3" x="231.736" y="134.765"/><use height="1052.362" width="744.094" xlink:href="#textext-082fa4b4-1" x="239.273" y="134.765"/><use height="1052.362" width="744.094" xlink:href="#textext-082fa4b4-2" x="249.472" y="134.765"/><use height="1052.362" width="744.094" xlink:href="#textext-082fa4b4-3" x="249.791" y="134.765"/><use height="1052.362" width="744.094" xlink:href="#textext-082fa4b4-4" x="254.284" y="136.259"/><use height="1052.362" width="744.094" xlink:href="#textext-082fa4b4-6" x="260.967" y="134.765"/><use height="1052.362" width="744.094" xlink:href="#textext-082fa4b4-2" x="270.612" y="134.765"/><use height="1052.362" width="744.094" xlink:href="#textext-082fa4b4-3" x="270.931" y="134.765"/><use height="1052.362" width="744.094" xlink:href="#textext-082fa4b4-5" x="275.425" y="136.259"/></g><g ns0:text="$\\Delta \\vec{r} = \\vec{r}_{\\rm{2}} - \\vec{r}_{\\rm{1}} $" ns0:preamble="/home/waldgeist/data/sphinx/test.tex"><use height="1052.362" width="744.094" xlink:href="#textext-082fa4b4-0" x="223.432" y="134.765"/><use height="1052.362" width="744.094" xlink:href="#textext-082fa4b4-2" x="231.417" y="134.765"/><use height="1052.362" width="744.094" xlink:href="#textext-082fa4b4-3" x="231.736" y="134.765"/><use height="1052.362" width="744.094" xlink:href="#textext-082fa4b4-1" x="239.273" y="134.765"/><use height="1052.362" width="744.094" xlink:href="#textext-082fa4b4-2" x="249.472" y="134.765"/><use height="1052.362" width="744.094" xlink:href="#textext-082fa4b4-3" x="249.791" y="134.765"/><use height="1052.362" width="744.094" xlink:href="#textext-082fa4b4-4" x="254.284" y="136.259"/><use height="1052.362" width="744.094" xlink:href="#textext-082fa4b4-6" x="260.967" y="134.765"/><use height="1052.362" width="744.094" xlink:href="#textext-082fa4b4-2" x="270.612" y="134.765"/><use height="1052.362" width="744.094" xlink:href="#textext-082fa4b4-3" x="270.931" y="134.765"/><use height="1052.362" width="744.094" xlink:href="#textext-082fa4b4-5" x="275.425" y="136.259"/></g></g><path fill="#fff" stroke="#fff" stroke-width="3" stroke-linecap="round" d="M10.578 813.103V143.521h1031.207v669.582z"/><g stroke="#ccc" stroke-width="1.453" fill="none"><path d="M94.487 162.446v419.203m41.92-419.203v419.203m41.921-419.203v419.203m41.92-419.203v419.203m41.92-419.203v419.203m41.921-419.203v419.203m41.92-419.203v419.203m41.921-419.203v419.203m41.92-419.203v419.203M52.567 204.366H471.77m-419.203 41.92H471.77M52.567 288.207H471.77m-419.203 41.92H471.77m-419.203 41.92H471.77M52.567 413.968H471.77m-419.203 41.92H471.77m-419.203 41.92H471.77M52.567 539.729H471.77" stroke-width="1.5"/><path d="M56.759 162.446v419.203m4.191-419.203v419.203m4.193-419.203v419.203m4.192-419.203v419.203m4.192-419.203v419.203m4.192-419.203v419.203m4.191-419.203v419.203m4.193-419.203v419.203m4.192-419.203v419.203m8.384-419.203v419.203m4.192-419.203v419.203m4.192-419.203v419.203m4.192-419.203v419.203m4.192-419.203v419.203m4.193-419.203v419.203m4.191-419.203v419.203m4.192-419.203v419.203m4.192-419.203v419.203m8.385-419.203v419.203m4.191-419.203v419.203m4.192-419.203v419.203m4.192-419.203v419.203m4.192-419.203v419.203m4.193-419.203v419.203m4.191-419.203v419.203m4.193-419.203v419.203m4.192-419.203v419.203m8.384-419.203v419.203m4.192-419.203v419.203m4.192-419.203v419.203m4.192-419.203v419.203m4.192-419.203v419.203m4.192-419.203v419.203m4.192-419.203v419.203m4.192-419.203v419.203m4.192-419.203v419.203m8.384-419.203v419.203m4.192-419.203v419.203m4.192-419.203v419.203m4.192-419.203v419.203m4.192-419.203v419.203m4.192-419.203v419.203m4.192-419.203v419.203m4.192-419.203v419.203m4.192-419.203v419.203m8.384-419.203v419.203m4.192-419.203v419.203m4.192-419.203v419.203m4.192-419.203v419.203m4.192-419.203v419.203m4.192-419.203v419.203m4.192-419.203v419.203m4.192-419.203v419.203m4.193-419.203v419.203m8.383-419.203v419.203m4.193-419.203v419.203m4.192-419.203v419.203m4.192-419.203v419.203m4.192-419.203v419.203m4.191-419.203v419.203m4.193-419.203v419.203m4.192-419.203v419.203m4.192-419.203v419.203m8.383-419.203v419.203m4.193-419.203v419.203m4.192-419.203v419.203m4.192-419.203v419.203m4.192-419.203v419.203m4.192-419.203v419.203m4.192-419.203v419.203m4.192-419.203v419.203m4.192-419.203v419.203m8.384-419.203v419.203m4.192-419.203v419.203m4.192-419.203v419.203m4.192-419.203v419.203m4.193-419.203v419.203m4.191-419.203v419.203m4.192-419.203v419.203m4.192-419.203v419.203m4.192-419.203v419.203m8.385-419.203v419.203m4.192-419.203v419.203m4.192-419.203v419.203m4.192-419.203v419.203m4.192-419.203v419.203m4.192-419.203v419.203m4.192-419.203v419.203m4.192-419.203v419.203m4.192-419.203v419.203M52.567 166.638H471.77M52.567 170.83H471.77m-419.203 4.192H471.77m-419.203 4.192H471.77m-419.203 4.192H471.77m-419.203 4.192H471.77M52.567 191.79H471.77m-419.203 4.192H471.77m-419.203 4.192H471.77m-419.203 8.384H471.77M52.567 212.75H471.77m-419.203 4.192H471.77m-419.203 4.192H471.77m-419.203 4.192H471.77m-419.203 4.192H471.77M52.567 233.71H471.77m-419.203 4.192H471.77m-419.203 4.192H471.77m-419.203 8.384H471.77M52.567 254.67H471.77m-419.203 4.192H471.77m-419.203 4.192H471.77m-419.203 4.192H471.77m-419.203 4.192H471.77M52.567 275.63H471.77m-419.203 4.193H471.77m-419.203 4.192H471.77m-419.203 8.384H471.77M52.567 296.59H471.77m-419.203 4.193H471.77m-419.203 4.192H471.77m-419.203 4.192H471.77m-419.203 4.192H471.77M52.567 317.55H471.77m-419.203 4.193H471.77m-419.203 4.192H471.77m-419.203 8.384H471.77m-419.203 4.192H471.77m-419.203 4.192H471.77m-419.203 4.192H471.77m-419.203 4.192H471.77M52.567 355.28H471.77m-419.203 4.191H471.77m-419.203 4.192H471.77m-419.203 4.192H471.77M52.567 376.24H471.77m-419.203 4.191H471.77m-419.203 4.192H471.77m-419.203 4.192H471.77m-419.203 4.192H471.77M52.567 397.2H471.77m-419.203 4.191H471.77m-419.203 4.193H471.77m-419.203 4.192H471.77M52.567 418.16H471.77m-419.203 4.192H471.77m-419.203 4.192H471.77m-419.203 4.192H471.77m-419.203 4.192H471.77M52.567 439.12H471.77m-419.203 4.192H471.77m-419.203 4.192H471.77m-419.203 4.192H471.77M52.567 460.08H471.77m-419.203 4.192H471.77m-419.203 4.192H471.77m-419.203 4.192H471.77m-419.203 4.192H471.77M52.567 481.04H471.77m-419.203 4.192H471.77m-419.203 4.192H471.77m-419.203 4.192H471.77M52.567 502H471.77m-419.203 4.192H471.77m-419.203 4.192H471.77m-419.203 4.192H471.77m-419.203 4.192H471.77M52.567 522.96H471.77m-419.203 4.192H471.77m-419.203 4.192H471.77m-419.203 4.193H471.77M52.567 543.92H471.77m-419.203 4.193H471.77m-419.203 4.192H471.77m-419.203 4.192H471.77m-419.203 4.192H471.77M52.567 564.88H471.77m-419.203 4.193H471.77m-419.203 4.192H471.77m-419.203 4.192H471.77" stroke-width=".5"/><path stroke-width="1.5" d="M52.567 162.446H471.77v419.203H52.567z"/></g><path d="M249.566 131.053c.135-.404.135-.448.135-.672 0-.493-.403-.762-.851-.762-.27 0-.717.18-.986.582-.045.18-.314 1.03-.403 1.568-.224.717-.404 1.524-.583 2.285l-1.299 5.153c-.09.403-1.344 2.419-3.226 2.419-1.433 0-1.747-1.255-1.747-2.33 0-1.3.493-3.091 1.434-5.6.448-1.165.582-1.479.582-2.061 0-1.254-.896-2.33-2.33-2.33-2.732 0-3.763 4.167-3.763 4.39 0 .315.269.315.314.315.313 0 .313-.09.448-.538.806-2.688 1.926-3.54 2.912-3.54.224 0 .717 0 .717.897 0 .716-.314 1.478-.493 2.016-1.165 3.046-1.658 4.66-1.658 6.003 0 2.554 1.792 3.405 3.495 3.405 1.12 0 2.06-.493 2.867-1.3-.358 1.48-.717 2.913-1.837 4.436-.761.941-1.837 1.792-3.136 1.792-.403 0-1.702-.09-2.195-1.21.448 0 .851 0 1.21-.358.313-.224.582-.627.582-1.165 0-.896-.762-.985-1.03-.985-.673 0-1.614.448-1.614 1.837 0 1.433 1.255 2.508 3.047 2.508 2.912 0 5.87-2.598 6.675-5.824zm0 0"/><path d="M270.695 288.246h-17.053m17.053-41.92h-17.053m17.053-41.92h-17.053m17.053-41.921h-17.053m17.053 251.522h-17.053m17.053 41.92h-17.053m17.053 41.921h-17.053m17.053 41.92h-17.053m17.053 41.92h-17.053" stroke-width="1.558" fill="none" stroke="#000"/><path d="M269.096 330.166h-16.768" fill="none" stroke="#000" stroke-width="2"/><path d="M501.687 388.812c.18-.717.851-3.36 2.823-3.36.134 0 .85 0 1.433.358-.806.18-1.344.852-1.344 1.568 0 .448.314.986 1.075.986.628 0 1.524-.493 1.524-1.658 0-1.478-1.658-1.881-2.644-1.881-1.657 0-2.643 1.523-3.001 2.15-.717-1.881-2.24-2.15-3.092-2.15-2.957 0-4.614 3.674-4.614 4.39 0 .314.313.314.358.314.224 0 .314-.09.359-.314.985-3.046 2.867-3.763 3.852-3.763.538 0 1.524.269 1.524 1.926 0 .896-.493 2.778-1.524 6.81-.448 1.748-1.478 2.957-2.732 2.957-.18 0-.807 0-1.434-.358.717-.18 1.344-.762 1.344-1.568 0-.762-.627-.986-1.03-.986-.897 0-1.569.717-1.569 1.658 0 1.3 1.39 1.881 2.644 1.881 1.926 0 2.957-2.016 3.001-2.15a3.207 3.207 0 0 0 3.092 2.15c2.957 0 4.57-3.673 4.57-4.39 0-.314-.224-.314-.314-.314-.269 0-.314.135-.403.314-.941 3.091-2.868 3.763-3.764 3.763-1.12 0-1.568-.896-1.568-1.881 0-.628.135-1.255.448-2.51zm0 0"/><path d="M19.465 372.047h481.077" id="r" fill="none" stroke="#000" stroke-width="2" marker-end="url(#a)"/><path id="b" d="M304.089 363.444v16.768" fill="none" stroke="#000" stroke-width="2"/><use xlink:href="#b" transform="translate(41.92 -.339)" width="744.094" height="1052.362"/><use xlink:href="#b" transform="translate(83.84)" width="744.094" height="1052.362"/><use xlink:href="#b" transform="translate(125.761)" width="744.094" height="1052.362"/><use xlink:href="#b" transform="translate(-167.681 -.424)" width="744.094" height="1052.362"/><use xlink:href="#b" transform="translate(-209.602 -.339)" width="744.094" height="1052.362"/><use xlink:href="#b" transform="translate(-251.522)" width="744.094" height="1052.362"/><use height="1052.362" width="744.094" transform="translate(-125.761 -.174)" xlink:href="#b"/><use height="744.094" width="1052.362" transform="translate(-83.84 -.045)" xlink:href="#b"/><use height="744.094" width="1052.362" transform="translate(167.681 -.468)" xlink:href="#b"/><g fill="#4d4d4d" stroke="green" stroke-width="1.683"><g ns0:text="$1$" ns0:preamble="/home/waldgeist/data/sphinx/test.tex" transform="translate(-98.81 154.589) scale(1.7828)"><defs><symbol overflow="visible" id="c"><path d="M2.938-6.375c0-.25 0-.266-.235-.266C2.078-6 1.203-6 .891-6v.313c.203 0 .78 0 1.296-.266v5.172c0 .36-.03.469-.921.469H.953V0c.344-.031 1.203-.031 1.61-.031.39 0 1.265 0 1.609.031v-.313h-.313c-.906 0-.921-.109-.921-.468zm0 0" stroke="none"/></symbol></defs><use xlink:href="#c" x="223.432" y="134.765" width="744.094" height="1052.362"/></g><g transform="translate(-196.644 154.589) scale(1.7828)" ns0:preamble="/home/waldgeist/data/sphinx/test.tex" ns0:text="$-1$"><defs><symbol id="d" overflow="visible"><path d="M6.563-2.297c.171 0 .359 0 .359-.203 0-.188-.188-.188-.36-.188h-5.39c-.172 0-.344 0-.344.188 0 .203.172.203.344.203zm0 0" stroke="none"/></symbol><symbol id="e" overflow="visible"><path d="M2.938-6.375c0-.25 0-.266-.235-.266C2.078-6 1.203-6 .891-6v.313c.203 0 .78 0 1.296-.266v5.172c0 .36-.03.469-.921.469H.953V0c.344-.031 1.203-.031 1.61-.031.39 0 1.265 0 1.609.031v-.313h-.313c-.906 0-.921-.109-.921-.468zm0 0" stroke="none"/></symbol></defs><use y="134.765" x="223.432" xlink:href="#d" width="744.094" height="1052.362"/><use y="134.765" x="231.181" xlink:href="#e" width="744.094" height="1052.362"/></g><g ns0:text="$-2$" ns0:preamble="/home/waldgeist/data/sphinx/test.tex" transform="translate(-238.572 154.589) scale(1.7828)"><defs><symbol overflow="visible" id="f"><path d="M6.563-2.297c.171 0 .359 0 .359-.203 0-.188-.188-.188-.36-.188h-5.39c-.172 0-.344 0-.344.188 0 .203.172.203.344.203zm0 0" stroke="none"/></symbol><symbol overflow="visible" id="g"><path d="M1.266-.766l1.062-1.03c1.547-1.376 2.14-1.907 2.14-2.907 0-1.14-.89-1.938-2.109-1.938A1.843 1.843 0 0 0 .5-4.828c0 .547.5.547.531.547.172 0 .516-.11.516-.532a.513.513 0 0 0-.531-.515c-.079 0-.094 0-.125.016.218-.657.765-1.016 1.343-1.016.907 0 1.329.812 1.329 1.625 0 .797-.485 1.578-1.047 2.203L.609-.375C.5-.265.5-.235.5 0h3.703l.266-1.734h-.235C4.172-1.438 4.11-1 4-.844c-.063.078-.719.078-.938.078zm0 0" stroke="none"/></symbol></defs><use height="1052.362" width="744.094" xlink:href="#f" x="223.432" y="134.765"/><use height="1052.362" width="744.094" xlink:href="#g" x="231.181" y="134.765"/></g><g transform="translate(-280.162 154.394) scale(1.7828)" ns0:preamble="/home/waldgeist/data/sphinx/test.tex" ns0:text="$-3$"><defs><symbol id="h" overflow="visible"><path d="M6.563-2.297c.171 0 .359 0 .359-.203 0-.188-.188-.188-.36-.188h-5.39c-.172 0-.344 0-.344.188 0 .203.172.203.344.203zm0 0" stroke="none"/></symbol><symbol id="i" overflow="visible"><path d="M2.89-3.516c.813-.265 1.391-.953 1.391-1.75 0-.812-.875-1.375-1.828-1.375-1 0-1.765.594-1.765 1.36 0 .328.218.515.515.515.297 0 .5-.218.5-.515 0-.485-.469-.485-.61-.485.298-.5.954-.625 1.313-.625.422 0 .969.22.969 1.11 0 .125-.031.703-.281 1.14-.297.485-.64.516-.89.516a3.29 3.29 0 0 1-.392.031c-.078.016-.14.031-.14.125 0 .11.062.11.234.11h.438c.812 0 1.187.671 1.187 1.656 0 1.36-.687 1.64-1.125 1.64-.437 0-1.187-.171-1.531-.75.344.047.656-.171.656-.546a.537.537 0 0 0-.547-.563c-.25 0-.562.14-.562.578C.422-.437 1.344.22 2.437.22c1.22 0 2.126-.906 2.126-1.922 0-.813-.641-1.594-1.672-1.813zm0 0" stroke="none"/></symbol></defs><use y="134.765" x="223.432" xlink:href="#h" width="744.094" height="1052.362"/><use y="134.765" x="231.181" xlink:href="#i" width="744.094" height="1052.362"/></g><g ns0:text="$-4$" ns0:preamble="/home/waldgeist/data/sphinx/test.tex" transform="translate(-323.7 154.686) scale(1.7828)"><defs><symbol overflow="visible" id="j"><path d="M6.563-2.297c.171 0 .359 0 .359-.203 0-.188-.188-.188-.36-.188h-5.39c-.172 0-.344 0-.344.188 0 .203.172.203.344.203zm0 0" stroke="none"/></symbol><symbol overflow="visible" id="k"><path d="M2.938-1.64v.859c0 .36-.032.469-.766.469h-.203V0c.406-.031.922-.031 1.343-.031.422 0 .938 0 1.36.031v-.313h-.219c-.734 0-.75-.109-.75-.468v-.86h.985v-.312h-.985v-4.531c0-.204 0-.266-.172-.266-.078 0-.11 0-.187.125L.28-1.953v.312zm.046-.313H.563l2.421-3.719zm0 0" stroke="none"/></symbol></defs><use xlink:href="#j" x="223.432" y="134.765" width="744.094" height="1052.362"/><use xlink:href="#k" x="231.181" y="134.765" width="744.094" height="1052.362"/></g><g transform="translate(-364.019 154.394) scale(1.7828)" ns0:preamble="/home/waldgeist/data/sphinx/test.tex" ns0:text="$-5$"><defs><symbol id="l" overflow="visible"><path d="M6.563-2.297c.171 0 .359 0 .359-.203 0-.188-.188-.188-.36-.188h-5.39c-.172 0-.344 0-.344.188 0 .203.172.203.344.203zm0 0" stroke="none"/></symbol><symbol id="m" overflow="visible"><path d="M4.469-2c0-1.188-.813-2.188-1.89-2.188-.47 0-.907.157-1.267.516v-1.953c.204.063.532.125.844.125 1.235 0 1.938-.906 1.938-1.031 0-.063-.032-.11-.11-.11 0 0-.03 0-.078.032a3.22 3.22 0 0 1-1.36.296 3.4 3.4 0 0 1-1.327-.28c-.078-.032-.094-.032-.11-.032C1-6.625 1-6.547 1-6.391v2.954c0 .171 0 .25.14.25.079 0 .094-.016.141-.079.11-.156.469-.703 1.282-.703.515 0 .765.453.843.64.156.376.188.75.188 1.25 0 .36 0 .954-.25 1.376-.235.39-.61.64-1.063.64-.719 0-1.297-.53-1.469-1.109.032 0 .063.016.172.016.329 0 .5-.25.5-.485 0-.25-.171-.5-.5-.5-.14 0-.484.079-.484.532C.5-.75 1.188.219 2.297.219 3.453.219 4.469-.734 4.469-2zm0 0" stroke="none"/></symbol></defs><use y="134.765" x="223.432" xlink:href="#l" width="744.094" height="1052.362"/><use y="134.765" x="231.181" xlink:href="#m" width="744.094" height="1052.362"/></g><g ns0:text="$2$" ns0:preamble="/home/waldgeist/data/sphinx/test.tex" transform="translate(-56.797 154.589) scale(1.7828)"><defs><symbol overflow="visible" id="n"><path d="M1.266-.766l1.062-1.03c1.547-1.376 2.14-1.907 2.14-2.907 0-1.14-.89-1.938-2.109-1.938A1.843 1.843 0 0 0 .5-4.828c0 .547.5.547.531.547.172 0 .516-.11.516-.532a.513.513 0 0 0-.531-.515c-.079 0-.094 0-.125.016.218-.657.765-1.016 1.343-1.016.907 0 1.329.812 1.329 1.625 0 .797-.485 1.578-1.047 2.203L.609-.375C.5-.265.5-.235.5 0h3.703l.266-1.734h-.235C4.172-1.438 4.11-1 4-.844c-.063.078-.719.078-.938.078zm0 0" stroke="none"/></symbol></defs><use height="1052.362" width="744.094" transform="translate(-.019)" xlink:href="#n" x="223.432" y="134.765"/></g><g transform="translate(-15.25 154.394) scale(1.7828)" ns0:preamble="/home/waldgeist/data/sphinx/test.tex" ns0:text="$3$"><defs><symbol id="o" overflow="visible"><path d="M2.89-3.516c.813-.265 1.391-.953 1.391-1.75 0-.812-.875-1.375-1.828-1.375-1 0-1.765.594-1.765 1.36 0 .328.218.515.515.515.297 0 .5-.218.5-.515 0-.485-.469-.485-.61-.485.298-.5.954-.625 1.313-.625.422 0 .969.22.969 1.11 0 .125-.031.703-.281 1.14-.297.485-.64.516-.89.516a3.29 3.29 0 0 1-.392.031c-.078.016-.14.031-.14.125 0 .11.062.11.234.11h.438c.812 0 1.187.671 1.187 1.656 0 1.36-.687 1.64-1.125 1.64-.437 0-1.187-.171-1.531-.75.344.047.656-.171.656-.546a.537.537 0 0 0-.547-.563c-.25 0-.562.14-.562.578C.422-.437 1.344.22 2.437.22c1.22 0 2.126-.906 2.126-1.922 0-.813-.641-1.594-1.672-1.813zm0 0" stroke="none"/></symbol></defs><use y="134.765" x="223.432" xlink:href="#o" width="744.094" height="1052.362"/></g><g ns0:text="$4$" ns0:preamble="/home/waldgeist/data/sphinx/test.tex" transform="translate(25.492 154.686) scale(1.7828)"><defs><symbol overflow="visible" id="p"><path d="M2.938-1.64v.859c0 .36-.032.469-.766.469h-.203V0c.406-.031.922-.031 1.343-.031.422 0 .938 0 1.36.031v-.313h-.219c-.734 0-.75-.109-.75-.468v-.86h.985v-.312h-.985v-4.531c0-.204 0-.266-.172-.266-.078 0-.11 0-.187.125L.28-1.953v.312zm.046-.313H.563l2.421-3.719zm0 0" stroke="none"/></symbol></defs><use height="1052.362" width="744.094" xlink:href="#p" x="223.432" y="134.765"/></g><g transform="translate(68.946 154.394) scale(1.7828)" ns0:preamble="/home/waldgeist/data/sphinx/test.tex" ns0:text="$5$"><defs><symbol id="q" overflow="visible"><path d="M4.469-2c0-1.188-.813-2.188-1.89-2.188-.47 0-.907.157-1.267.516v-1.953c.204.063.532.125.844.125 1.235 0 1.938-.906 1.938-1.031 0-.063-.032-.11-.11-.11 0 0-.03 0-.078.032a3.22 3.22 0 0 1-1.36.296 3.4 3.4 0 0 1-1.327-.28c-.078-.032-.094-.032-.11-.032C1-6.625 1-6.547 1-6.391v2.954c0 .171 0 .25.14.25.079 0 .094-.016.141-.079.11-.156.469-.703 1.282-.703.515 0 .765.453.843.64.156.376.188.75.188 1.25 0 .36 0 .954-.25 1.376-.235.39-.61.64-1.063.64-.719 0-1.297-.53-1.469-1.109.032 0 .063.016.172.016.329 0 .5-.25.5-.485 0-.25-.171-.5-.5-.5-.14 0-.484.079-.484.532C.5-.75 1.188.219 2.297.219 3.453.219 4.469-.734 4.469-2zm0 0" stroke="none"/></symbol></defs><use y="134.765" x="223.432" xlink:href="#q" width="744.094" height="1052.362"/></g></g><g fill="#4d4d4d" stroke="green" stroke-width="1.683"><g ns0:text="$-1$" ns0:preamble="/home/waldgeist/data/sphinx/test.tex" transform="translate(-169.885 179.668) scale(1.7828)"><use height="1052.362" width="744.094" xlink:href="#d" x="223.432" y="134.765"/><use height="1052.362" width="744.094" xlink:href="#e" x="231.181" y="134.765"/></g><g ns0:preamble="/home/waldgeist/data/sphinx/test.tex" ns0:text="$-2$" transform="translate(-170.415 221.588) scale(1.7828)"><use y="134.765" x="223.432" xlink:href="#f" width="744.094" height="1052.362"/><use y="134.765" x="231.181" xlink:href="#g" width="744.094" height="1052.362"/></g><g ns0:text="$-3$" ns0:preamble="/home/waldgeist/data/sphinx/test.tex" transform="translate(-170.582 263.314) scale(1.7828)"><use height="1052.362" width="744.094" xlink:href="#h" x="223.432" y="134.765"/><use height="1052.362" width="744.094" xlink:href="#i" x="231.181" y="134.765"/></g><g ns0:preamble="/home/waldgeist/data/sphinx/test.tex" ns0:text="$-4$" transform="translate(-170.805 305.527) scale(1.7828)"><use height="1052.362" width="744.094" y="134.765" x="223.432" xlink:href="#j"/><use height="1052.362" width="744.094" y="134.765" x="231.181" xlink:href="#k"/></g><g ns0:text="$-5$" ns0:preamble="/home/waldgeist/data/sphinx/test.tex" transform="translate(-170.415 347.154) scale(1.7828)"><use height="1052.362" width="744.094" xlink:href="#l" x="223.432" y="134.765"/><use height="1052.362" width="744.094" xlink:href="#m" x="231.181" y="134.765"/></g><use height="1052.362" width="744.094" y="134.765" x="223.432" xlink:href="#c" transform="translate(-156.07 95.827) scale(1.7828)" ns0:preamble="/home/waldgeist/data/sphinx/test.tex" ns0:text="$1$"/><use y="134.765" x="223.432" xlink:href="#n" transform="translate(-156.6 53.907) scale(1.7828)" width="744.094" height="1052.362" ns0:preamble="/home/waldgeist/data/sphinx/test.tex" ns0:text="$2$"/><use height="1052.362" width="744.094" xlink:href="#o" x="223.432" y="134.765" transform="translate(-156.767 11.792) scale(1.7828)" ns0:text="$3$" ns0:preamble="/home/waldgeist/data/sphinx/test.tex"/><use y="134.765" x="223.432" xlink:href="#p" width="744.094" height="1052.362" transform="translate(-156.99 -29.836) scale(1.7828)" ns0:preamble="/home/waldgeist/data/sphinx/test.tex" ns0:text="$4$"/><use height="1052.362" width="744.094" xlink:href="#q" x="223.432" y="134.765" transform="translate(-156.6 -72.049) scale(1.7828)" ns0:text="$5$" ns0:preamble="/home/waldgeist/data/sphinx/test.tex"/></g><use height="1052.362" width="744.094" transform="rotate(-90 262.168 372.047)" xlink:href="#r" stroke="#000" stroke-width="2"/><path d="M263.466 330.166a1.298 1.298 0 1 1-2.596 0 1.298 1.298 0 1 1 2.596 0z" style="marker:none" color="#000" fill="none" stroke="green" stroke-width=".5" stroke-linecap="round" stroke-linejoin="round" overflow="visible"/><g transform="translate(-32.078 -12.248)"><g stroke="#ccc" stroke-width="1.453" fill="none"><path d="M653.005 174.587v419.204m41.921-419.204v419.204m41.92-419.204v419.204m41.92-419.204v419.204m41.921-419.204v419.204m41.92-419.204v419.204m41.92-419.204v419.204m41.921-419.204v419.204m41.92-419.204v419.204M611.085 216.508h419.203m-419.203 41.92h419.203m-419.203 41.92h419.203m-419.203 41.921h419.203m-419.203 41.92h419.203M611.085 426.11h419.203m-419.203 41.92h419.203m-419.203 41.92h419.203m-419.203 41.92h419.203" stroke-width="1.5"/><path d="M615.277 174.587v419.204m4.193-419.204v419.204m4.191-419.204v419.204m4.192-419.204v419.204m4.192-419.204v419.204m4.192-419.204v419.204m4.193-419.204v419.204m4.191-419.204v419.204m4.192-419.204v419.204m8.384-419.204v419.204m4.193-419.204v419.204m4.191-419.204v419.204m4.193-419.204v419.204m4.192-419.204v419.204m4.192-419.204v419.204m4.192-419.204v419.204m4.192-419.204v419.204m4.192-419.204v419.204m8.384-419.204v419.204m4.192-419.204v419.204m4.192-419.204v419.204m4.192-419.204v419.204m4.192-419.204v419.204m4.192-419.204v419.204m4.192-419.204v419.204m4.192-419.204v419.204m4.192-419.204v419.204m8.384-419.204v419.204m4.192-419.204v419.204m4.192-419.204v419.204m4.192-419.204v419.204m4.192-419.204v419.204m4.192-419.204v419.204m4.192-419.204v419.204m4.192-419.204v419.204m4.192-419.204v419.204m8.384-419.204v419.204m4.192-419.204v419.204m4.192-419.204v419.204m4.192-419.204v419.204m4.193-419.204v419.204m4.192-419.204v419.204m4.191-419.204v419.204m4.193-419.204v419.204m4.192-419.204v419.204m8.384-419.204v419.204m4.191-419.204v419.204m4.193-419.204v419.204m4.192-419.204v419.204m4.192-419.204v419.204m4.192-419.204v419.204m4.191-419.204v419.204m4.193-419.204v419.204m4.192-419.204v419.204m8.384-419.204v419.204m4.192-419.204v419.204m4.192-419.204v419.204m4.192-419.204v419.204m4.192-419.204v419.204m4.193-419.204v419.204m4.191-419.204v419.204m4.192-419.204v419.204m4.192-419.204v419.204m8.385-419.204v419.204m4.191-419.204v419.204m4.192-419.204v419.204m4.192-419.204v419.204m4.192-419.204v419.204m4.193-419.204v419.204m4.192-419.204v419.204m4.192-419.204v419.204m4.192-419.204v419.204m8.384-419.204v419.204m4.192-419.204v419.204m4.192-419.204v419.204m4.192-419.204v419.204m4.192-419.204v419.204m4.192-419.204v419.204m4.192-419.204v419.204m4.192-419.204v419.204m4.192-419.204v419.204m8.384-419.204v419.204m4.192-419.204v419.204m4.192-419.204v419.204m4.192-419.204v419.204m4.192-419.204v419.204m4.192-419.204v419.204m4.192-419.204v419.204m4.192-419.204v419.204m4.192-419.204v419.204M611.085 178.78h419.203m-419.203 4.191h419.203m-419.203 4.192h419.203m-419.203 4.192h419.203m-419.203 4.193h419.203m-419.203 4.192h419.203m-419.203 4.192h419.203m-419.203 4.192h419.203m-419.203 4.192h419.203M611.085 220.7h419.203m-419.203 4.192h419.203m-419.203 4.192h419.203m-419.203 4.192h419.203m-419.203 4.192h419.203m-419.203 4.192h419.203m-419.203 4.192h419.203m-419.203 4.192h419.203m-419.203 4.192h419.203m-419.203 8.384h419.203m-419.203 4.192h419.203m-419.203 4.192h419.203m-419.203 4.192h419.203m-419.203 4.192h419.203m-419.203 4.192h419.203m-419.203 4.192h419.203m-419.203 4.192h419.203m-419.203 4.192h419.203m-419.203 8.384h419.203m-419.203 4.192h419.203m-419.203 4.192h419.203m-419.203 4.192h419.203m-419.203 4.192h419.203M611.085 325.5h419.203m-419.203 4.193h419.203m-419.203 4.192h419.203m-419.203 4.192h419.203m-419.203 8.383h419.203m-419.203 4.193h419.203m-419.203 4.192h419.203m-419.203 4.192h419.203m-419.203 4.192h419.203m-419.203 4.191h419.203m-419.203 4.193h419.203m-419.203 4.192h419.203m-419.203 4.192h419.203m-419.203 8.384h419.203m-419.203 4.192h419.203m-419.203 4.192h419.203m-419.203 4.192h419.203m-419.203 4.193h419.203m-419.203 4.191h419.203m-419.203 4.192h419.203m-419.203 4.192h419.203m-419.203 4.192h419.203m-419.203 8.384h419.203m-419.203 4.192h419.203m-419.203 4.192h419.203m-419.203 4.192h419.203m-419.203 4.193h419.203m-419.203 4.191h419.203m-419.203 4.193h419.203m-419.203 4.192h419.203m-419.203 4.192h419.203m-419.203 8.384h419.203m-419.203 4.192h419.203m-419.203 4.192h419.203m-419.203 4.192h419.203m-419.203 4.192h419.203m-419.203 4.192h419.203m-419.203 4.192h419.203m-419.203 4.192h419.203m-419.203 4.192h419.203m-419.203 8.384h419.203m-419.203 4.192h419.203m-419.203 4.192h419.203m-419.203 4.192h419.203m-419.203 4.192h419.203m-419.203 4.192h419.203m-419.203 4.192h419.203m-419.203 4.192h419.203m-419.203 4.192h419.203m-419.203 8.384h419.203m-419.203 4.192h419.203m-419.203 4.192h419.203m-419.203 4.192h419.203m-419.203 4.192h419.203m-419.203 4.192h419.203m-419.203 4.192h419.203m-419.203 4.193h419.203m-419.203 4.192h419.203" stroke-width=".5"/><path stroke-width="1.5" d="M611.085 174.587h419.203v419.204H611.085z"/></g><path d="M808.085 143.194c.134-.403.134-.448.134-.672 0-.493-.403-.761-.851-.761-.269 0-.717.179-.986.582-.044.18-.313 1.03-.403 1.568-.224.717-.403 1.523-.582 2.285l-1.3 5.152c-.09.403-1.344 2.42-3.225 2.42-1.434 0-1.748-1.255-1.748-2.33 0-1.3.493-3.091 1.434-5.6.448-1.165.583-1.479.583-2.061 0-1.255-.896-2.33-2.33-2.33-2.733 0-3.763 4.167-3.763 4.39 0 .314.268.314.313.314.314 0 .314-.09.448-.537.807-2.689 1.927-3.54 2.912-3.54.224 0 .717 0 .717.896 0 .717-.314 1.479-.493 2.016-1.165 3.047-1.657 4.66-1.657 6.004 0 2.554 1.792 3.405 3.494 3.405 1.12 0 2.061-.493 2.867-1.3-.358 1.479-.716 2.913-1.836 4.436-.762.94-1.837 1.792-3.137 1.792-.403 0-1.702-.09-2.195-1.21.448 0 .851 0 1.21-.358.313-.224.582-.627.582-1.165 0-.896-.761-.986-1.03-.986-.672 0-1.613.448-1.613 1.837 0 1.434 1.254 2.51 3.046 2.51 2.913 0 5.87-2.6 6.676-5.825zm0 0"/><path d="M829.213 300.388H812.16m17.053-41.92H812.16m17.053-41.921H812.16m17.053-41.92H812.16m17.053 251.522H812.16m17.053 41.921H812.16m17.053 41.92H812.16m17.053 41.92H812.16m17.053 41.92H812.16" stroke-width="1.558" fill="none" stroke="#000"/><path d="M827.615 342.308h-16.769" fill="none" stroke="#000" stroke-width="2"/><path d="M1060.205 400.954c.18-.717.852-3.36 2.823-3.36.134 0 .851 0 1.434.358-.807.18-1.344.851-1.344 1.568 0 .448.313.986 1.075.986.627 0 1.523-.493 1.523-1.658 0-1.478-1.658-1.882-2.643-1.882-1.658 0-2.644 1.524-3.002 2.151-.717-1.882-2.24-2.15-3.091-2.15-2.957 0-4.615 3.673-4.615 4.39 0 .314.314.314.359.314.224 0 .313-.09.358-.314.986-3.046 2.867-3.763 3.853-3.763.538 0 1.523.268 1.523 1.926 0 .896-.493 2.778-1.523 6.81-.448 1.747-1.479 2.957-2.733 2.957-.18 0-.806 0-1.434-.358.717-.18 1.344-.762 1.344-1.569 0-.761-.627-.985-1.03-.985-.896 0-1.568.717-1.568 1.658 0 1.299 1.389 1.881 2.643 1.881 1.927 0 2.957-2.016 3.002-2.15a3.207 3.207 0 0 0 3.091 2.15c2.957 0 4.57-3.674 4.57-4.39 0-.314-.224-.314-.314-.314-.268 0-.313.134-.403.314-.94 3.09-2.867 3.763-3.763 3.763-1.12 0-1.568-.896-1.568-1.882 0-.627.134-1.254.448-2.509zm0 0"/><path d="M577.983 384.189h481.078" fill="none" stroke="#000" stroke-width="2" marker-end="url(#a)"/><path d="M862.607 375.585v16.769" fill="none" stroke="#000" stroke-width="2"/><use xlink:href="#b" transform="translate(600.439 11.803)" width="744.094" height="1052.362"/><use xlink:href="#b" transform="translate(642.36 12.142)" width="744.094" height="1052.362"/><use xlink:href="#b" transform="translate(684.28 12.142)" width="744.094" height="1052.362"/><use xlink:href="#b" transform="translate(390.837 11.718)" width="744.094" height="1052.362"/><use xlink:href="#b" transform="translate(348.917 11.803)" width="744.094" height="1052.362"/><use xlink:href="#b" transform="translate(306.997 12.142)" width="744.094" height="1052.362"/><use height="1052.362" width="744.094" transform="translate(432.757 11.968)" xlink:href="#b"/><use height="744.094" width="1052.362" transform="translate(474.678 12.097)" xlink:href="#b"/><use height="744.094" width="1052.362" transform="translate(726.2 11.674)" xlink:href="#b"/><g fill="#4d4d4d" stroke="green" stroke-width="1.683"><use xlink:href="#c" x="223.432" y="134.765" width="744.094" height="1052.362" transform="translate(459.708 166.73) scale(1.7828)" ns0:text="$1$" ns0:preamble="/home/waldgeist/data/sphinx/test.tex"/><g ns0:preamble="/home/waldgeist/data/sphinx/test.tex" ns0:text="$-1$" transform="translate(361.875 166.73) scale(1.7828)"><use y="134.765" x="223.432" xlink:href="#d" width="744.094" height="1052.362"/><use y="134.765" x="231.181" xlink:href="#e" width="744.094" height="1052.362"/></g><g ns0:text="$-2$" ns0:preamble="/home/waldgeist/data/sphinx/test.tex" transform="translate(319.946 166.73) scale(1.7828)"><use height="1052.362" width="744.094" xlink:href="#f" x="223.432" y="134.765"/><use height="1052.362" width="744.094" xlink:href="#g" x="231.181" y="134.765"/></g><g ns0:preamble="/home/waldgeist/data/sphinx/test.tex" ns0:text="$-3$" transform="translate(278.357 166.536) scale(1.7828)"><use y="134.765" x="223.432" xlink:href="#h" width="744.094" height="1052.362"/><use y="134.765" x="231.181" xlink:href="#i" width="744.094" height="1052.362"/></g><g ns0:text="$-4$" ns0:preamble="/home/waldgeist/data/sphinx/test.tex" transform="translate(234.819 166.828) scale(1.7828)"><use xlink:href="#j" x="223.432" y="134.765" width="744.094" height="1052.362"/><use xlink:href="#k" x="231.181" y="134.765" width="744.094" height="1052.362"/></g><g ns0:preamble="/home/waldgeist/data/sphinx/test.tex" ns0:text="$-5$" transform="translate(194.5 166.536) scale(1.7828)"><use y="134.765" x="223.432" xlink:href="#l" width="744.094" height="1052.362"/><use y="134.765" x="231.181" xlink:href="#m" width="744.094" height="1052.362"/></g><use height="1052.362" width="744.094" transform="translate(501.688 166.73) scale(1.7828)" xlink:href="#n" x="223.432" y="134.765" ns0:text="$2$" ns0:preamble="/home/waldgeist/data/sphinx/test.tex"/><use y="134.765" x="223.432" xlink:href="#o" width="744.094" height="1052.362" transform="translate(543.268 166.536) scale(1.7828)" ns0:preamble="/home/waldgeist/data/sphinx/test.tex" ns0:text="$3$"/><use height="1052.362" width="744.094" xlink:href="#p" x="223.432" y="134.765" transform="translate(584.01 166.828) scale(1.7828)" ns0:text="$4$" ns0:preamble="/home/waldgeist/data/sphinx/test.tex"/><use y="134.765" x="223.432" xlink:href="#q" width="744.094" height="1052.362" transform="translate(627.464 166.536) scale(1.7828)" ns0:preamble="/home/waldgeist/data/sphinx/test.tex" ns0:text="$5$"/></g><g fill="#4d4d4d" stroke="green" stroke-width="1.683"><g ns0:text="$-1$" ns0:preamble="/home/waldgeist/data/sphinx/test.tex" transform="translate(388.633 191.81) scale(1.7828)"><use height="1052.362" width="744.094" xlink:href="#d" x="223.432" y="134.765"/><use height="1052.362" width="744.094" xlink:href="#e" x="231.181" y="134.765"/></g><g ns0:preamble="/home/waldgeist/data/sphinx/test.tex" ns0:text="$-2$" transform="translate(388.104 233.73) scale(1.7828)"><use y="134.765" x="223.432" xlink:href="#f" width="744.094" height="1052.362"/><use y="134.765" x="231.181" xlink:href="#g" width="744.094" height="1052.362"/></g><g ns0:text="$-3$" ns0:preamble="/home/waldgeist/data/sphinx/test.tex" transform="translate(387.937 275.455) scale(1.7828)"><use height="1052.362" width="744.094" xlink:href="#h" x="223.432" y="134.765"/><use height="1052.362" width="744.094" xlink:href="#i" x="231.181" y="134.765"/></g><g ns0:preamble="/home/waldgeist/data/sphinx/test.tex" ns0:text="$-4$" transform="translate(387.714 317.668) scale(1.7828)"><use height="1052.362" width="744.094" y="134.765" x="223.432" xlink:href="#j"/><use height="1052.362" width="744.094" y="134.765" x="231.181" xlink:href="#k"/></g><g ns0:text="$-5$" ns0:preamble="/home/waldgeist/data/sphinx/test.tex" transform="translate(388.104 359.296) scale(1.7828)"><use height="1052.362" width="744.094" xlink:href="#l" x="223.432" y="134.765"/><use height="1052.362" width="744.094" xlink:href="#m" x="231.181" y="134.765"/></g><use height="1052.362" width="744.094" y="134.765" x="223.432" xlink:href="#c" transform="translate(402.448 107.97) scale(1.7828)" ns0:preamble="/home/waldgeist/data/sphinx/test.tex" ns0:text="$1$"/><use y="134.765" x="223.432" xlink:href="#n" transform="translate(401.919 66.049) scale(1.7828)" width="744.094" height="1052.362" ns0:preamble="/home/waldgeist/data/sphinx/test.tex" ns0:text="$2$"/><use height="1052.362" width="744.094" xlink:href="#o" x="223.432" y="134.765" transform="translate(401.752 23.933) scale(1.7828)" ns0:text="$3$" ns0:preamble="/home/waldgeist/data/sphinx/test.tex"/><use y="134.765" x="223.432" xlink:href="#p" width="744.094" height="1052.362" transform="translate(401.529 -17.694) scale(1.7828)" ns0:preamble="/home/waldgeist/data/sphinx/test.tex" ns0:text="$4$"/><use height="1052.362" width="744.094" xlink:href="#q" x="223.432" y="134.765" transform="translate(401.919 -59.907) scale(1.7828)" ns0:text="$5$" ns0:preamble="/home/waldgeist/data/sphinx/test.tex"/></g><use height="1052.362" width="744.094" transform="rotate(-90 547.498 98.859)" xlink:href="#r" stroke="#000" stroke-width="2"/><path d="M821.985 342.308a1.298 1.298 0 1 1-2.596 0 1.298 1.298 0 0 1 2.596 0z" style="marker:none" color="#000" fill="none" stroke="green" stroke-width=".5" stroke-linecap="round" stroke-linejoin="round" overflow="visible"/><path d="M820.687 384.189c-67.073-125.761-138.048-287.485-205.41 212.769m205.41-212.769c67.072 125.76 138.047 287.485 205.41-212.769" fill="none" stroke="green" stroke-width="3" stroke-linecap="round"/><g ns0:preamble="/home/waldgeist/data/sphinx/inkscape-preamble.tex" ns0:text="$y = \\frac{1}{8}\\cdot x^3 - 2\\cdot x$" fill="green" stroke="green" stroke-width="1.683"><use y="134.765" x="223.432" xlink:href="#textext-e565cae3-1" width="744.094" height="1052.362" transform="translate(502.587 -73.55) scale(1.7828)"/><use y="134.765" x="231.441" xlink:href="#textext-e565cae3-4" width="744.094" height="1052.362" transform="translate(502.587 -73.55) scale(1.7828)"/><use y="130.842" x="243.153" xlink:href="#textext-e565cae3-7" width="744.094" height="1052.362" transform="translate(502.587 -73.55) scale(1.7828)"/><path d="M936.078 162.266h7.082" stroke-width="1.013" stroke-miterlimit="10"/><use y="138.2" x="243.153" xlink:href="#textext-e565cae3-8" width="744.094" height="1052.362" transform="translate(502.587 -73.55) scale(1.7828)"/><use y="134.765" x="250.534" xlink:href="#textext-e565cae3-11" width="744.094" height="1052.362" transform="translate(502.587 -73.55) scale(1.7828)"/><use y="134.765" x="255.515" xlink:href="#textext-e565cae3-2" width="744.094" height="1052.362" transform="translate(502.587 -73.55) scale(1.7828)"/><use y="131.149" x="261.209" xlink:href="#textext-e565cae3-9" width="744.094" height="1052.362" transform="translate(502.587 -73.55) scale(1.7828)"/><use y="134.765" x="267.892" xlink:href="#textext-e565cae3-12" width="744.094" height="1052.362" transform="translate(502.587 -73.55) scale(1.7828)"/><use y="134.765" x="277.855" xlink:href="#textext-e565cae3-5" width="744.094" height="1052.362" transform="translate(502.587 -73.55) scale(1.7828)"/><use y="134.765" x="285.05" xlink:href="#textext-e565cae3-11" width="744.094" height="1052.362" transform="translate(502.587 -73.55) scale(1.7828)"/><use y="134.765" x="290.031" xlink:href="#textext-e565cae3-2" width="744.094" height="1052.362" transform="translate(502.587 -73.55) scale(1.7828)"/></g><path d="M749.083 510.761l24.652 42.699m0-42.699l-24.652 42.699" transform="matrix(.3401 0 0 .21616 729.414 269.167)" fill="#37c837" stroke="#37c837" stroke-width="11.064"/><path d="M749.083 510.761l24.652 42.699m0-42.699l-24.652 42.699" transform="matrix(.3401 0 0 .21616 561.733 269.167)" fill="#37c837" stroke="#37c837" stroke-width="11.064"/><path d="M749.083 510.761l24.652 42.699m0-42.699l-24.652 42.699" transform="matrix(.3401 0 0 .21616 393.709 269.167)" fill="#37c837" stroke="#37c837" stroke-width="11.064"/></g><path d="M52.567 581.649L471.77 162.446" fill="none" stroke="green" stroke-width="3" stroke-linecap="round"/><path d="M262.168 372.047c-51.403-.715-54.339 93.138-70.903 209.192m70.903-209.192c51.404.716 54.34-93.138 70.904-209.191" fill="none" stroke="#55d400" stroke-width="3" stroke-linecap="round"/><g transform="translate(-64.517 -83.546) scale(1.7828)" ns0:preamble="/home/waldgeist/data/sphinx/inkscape-preamble.tex" ns0:text="$y = x^3$" fill="#55d400" stroke="green" stroke-width="1.683"><defs><symbol id="s" overflow="visible"><path d="M4.844-3.797c.047-.14.047-.156.047-.234 0-.172-.141-.266-.297-.266a.455.455 0 0 0-.344.203c-.016.063-.11.36-.14.547-.079.25-.141.531-.204.797L3.453-.953c-.031.14-.469.844-1.125.844-.5 0-.61-.438-.61-.813 0-.453.173-1.078.5-1.953.157-.406.204-.516.204-.719 0-.437-.313-.812-.813-.812-.953 0-1.312 1.453-1.312 1.531 0 .11.094.11.11.11.109 0 .109-.032.156-.188.28-.938.671-1.235 1.015-1.235.078 0 .25 0 .25.313 0 .25-.11.516-.172.703-.406 1.063-.578 1.625-.578 2.094 0 .89.625 1.187 1.219 1.187.39 0 .719-.171 1-.453-.125.516-.25 1.016-.64 1.547-.266.328-.641.625-1.095.625-.14 0-.593-.031-.765-.422.156 0 .297 0 .422-.125a.493.493 0 0 0 .203-.406c0-.313-.266-.344-.36-.344C.829.531.5.687.5 1.171c0 .5.438.876 1.063.876 1.015 0 2.046-.906 2.328-2.031zm0 0" stroke="none"/></symbol><symbol id="u" overflow="visible"><path d="M3.328-3.016c.063-.25.297-1.171.985-1.171.046 0 .296 0 .5.125a.578.578 0 0 0-.47.546c0 .157.11.344.376.344a.546.546 0 0 0 .531-.578c0-.516-.578-.656-.922-.656-.578 0-.922.531-1.047.75-.25-.656-.781-.75-1.078-.75-1.031 0-1.61 1.281-1.61 1.531 0 .11.11.11.126.11.078 0 .11-.032.125-.11.344-1.063 1-1.313 1.344-1.313.187 0 .53.094.53.672 0 .313-.171.97-.53 2.375-.157.61-.516 1.032-.954 1.032-.062 0-.28 0-.5-.125.25-.063.47-.266.47-.547 0-.266-.22-.344-.36-.344-.313 0-.547.25-.547.578 0 .453.484.656.922.656.672 0 1.031-.703 1.047-.75.125.36.484.75 1.078.75 1.031 0 1.594-1.28 1.594-1.53 0-.11-.079-.11-.11-.11-.094 0-.11.047-.14.11-.329 1.077-1 1.312-1.313 1.312-.39 0-.547-.313-.547-.657 0-.218.047-.437.156-.875zm0 0" stroke="none"/></symbol><symbol id="t" overflow="visible"><path d="M6.844-3.266c.156 0 .343 0 .343-.187 0-.203-.187-.203-.328-.203H.891c-.141 0-.329 0-.329.203 0 .187.188.187.329.187zm.015 1.938c.141 0 .329 0 .329-.203 0-.188-.188-.188-.344-.188H.89c-.141 0-.329 0-.329.188 0 .203.188.203.329.203zm0 0" stroke="none"/></symbol><symbol id="v" overflow="visible"><path d="M1.906-2.328c.547 0 .938.375.938 1.125 0 .86-.516 1.125-.906 1.125-.282 0-.907-.078-1.188-.5.328 0 .406-.235.406-.39 0-.22-.172-.376-.39-.376a.38.38 0 0 0-.391.407C.375-.281 1.094.14 1.938.14c.968 0 1.64-.657 1.64-1.344 0-.547-.437-1.094-1.203-1.25.719-.266.984-.781.984-1.219 0-.547-.625-.953-1.406-.953-.766 0-1.36.375-1.36.938 0 .234.157.359.36.359.219 0 .36-.156.36-.344 0-.203-.141-.36-.36-.375.25-.297.719-.375.985-.375.312 0 .75.156.75.75 0 .297-.094.625-.282.828-.219.266-.422.281-.765.313-.172.015-.188.015-.22.015-.015 0-.077.016-.077.094 0 .094.062.094.187.094zm0 0" stroke="none"/></symbol></defs><use y="134.765" x="223.432" xlink:href="#s" width="1052.362" height="744.094"/><use y="134.765" x="231.441" xlink:href="#t" width="1052.362" height="744.094"/><use y="134.765" x="241.957" xlink:href="#u" width="1052.362" height="744.094"/><use y="131.149" x="247.651" xlink:href="#v" width="1052.362" height="744.094"/></g><g ns0:text="$y = x^1$" ns0:preamble="/home/waldgeist/data/sphinx/inkscape-preamble.tex" transform="translate(32.785 -83.546) scale(1.7828)" fill="green" stroke="green" stroke-width="1.683"><defs><symbol overflow="visible" id="w"><path d="M4.844-3.797c.047-.14.047-.156.047-.234 0-.172-.141-.266-.297-.266a.455.455 0 0 0-.344.203c-.016.063-.11.36-.14.547-.079.25-.141.531-.204.797L3.453-.953c-.031.14-.469.844-1.125.844-.5 0-.61-.438-.61-.813 0-.453.173-1.078.5-1.953.157-.406.204-.516.204-.719 0-.437-.313-.812-.813-.812-.953 0-1.312 1.453-1.312 1.531 0 .11.094.11.11.11.109 0 .109-.032.156-.188.28-.938.671-1.235 1.015-1.235.078 0 .25 0 .25.313 0 .25-.11.516-.172.703-.406 1.063-.578 1.625-.578 2.094 0 .89.625 1.187 1.219 1.187.39 0 .719-.171 1-.453-.125.516-.25 1.016-.64 1.547-.266.328-.641.625-1.095.625-.14 0-.593-.031-.765-.422.156 0 .297 0 .422-.125a.493.493 0 0 0 .203-.406c0-.313-.266-.344-.36-.344C.829.531.5.687.5 1.171c0 .5.438.876 1.063.876 1.015 0 2.046-.906 2.328-2.031zm0 0" stroke="none"/></symbol><symbol overflow="visible" id="y"><path d="M3.328-3.016c.063-.25.297-1.171.985-1.171.046 0 .296 0 .5.125a.578.578 0 0 0-.47.546c0 .157.11.344.376.344a.546.546 0 0 0 .531-.578c0-.516-.578-.656-.922-.656-.578 0-.922.531-1.047.75-.25-.656-.781-.75-1.078-.75-1.031 0-1.61 1.281-1.61 1.531 0 .11.11.11.126.11.078 0 .11-.032.125-.11.344-1.063 1-1.313 1.344-1.313.187 0 .53.094.53.672 0 .313-.171.97-.53 2.375-.157.61-.516 1.032-.954 1.032-.062 0-.28 0-.5-.125.25-.063.47-.266.47-.547 0-.266-.22-.344-.36-.344-.313 0-.547.25-.547.578 0 .453.484.656.922.656.672 0 1.031-.703 1.047-.75.125.36.484.75 1.078.75 1.031 0 1.594-1.28 1.594-1.53 0-.11-.079-.11-.11-.11-.094 0-.11.047-.14.11-.329 1.077-1 1.312-1.313 1.312-.39 0-.547-.313-.547-.657 0-.218.047-.437.156-.875zm0 0" stroke="none"/></symbol><symbol overflow="visible" id="x"><path d="M6.844-3.266c.156 0 .343 0 .343-.187 0-.203-.187-.203-.328-.203H.891c-.141 0-.329 0-.329.203 0 .187.188.187.329.187zm.015 1.938c.141 0 .329 0 .329-.203 0-.188-.188-.188-.344-.188H.89c-.141 0-.329 0-.329.188 0 .203.188.203.329.203zm0 0" stroke="none"/></symbol><symbol overflow="visible" id="z"><path d="M2.328-4.438c0-.187 0-.187-.203-.187-.453.438-1.078.438-1.36.438v.25c.157 0 .626 0 1-.188v3.547c0 .234 0 .328-.687.328H.812V0c.125 0 .985-.031 1.235-.031.219 0 1.094.031 1.25.031v-.25H3.03c-.703 0-.703-.094-.703-.328zm0 0" stroke="none"/></symbol></defs><use height="744.094" width="1052.362" xlink:href="#w" x="223.432" y="134.765"/><use height="744.094" width="1052.362" xlink:href="#x" x="231.441" y="134.765"/><use height="744.094" width="1052.362" xlink:href="#y" x="241.957" y="134.765"/><use height="744.094" width="1052.362" xlink:href="#z" x="247.651" y="131.149"/></g><path d="M262.168 372.047c-46.112 0-41.92-8.384-54.496 209.602m54.496-209.602c46.113 0 41.92 8.384 54.497-209.601" fill="none" stroke="#0f0" stroke-width="3" stroke-linecap="round"/><g transform="translate(-122.443 -83.407) scale(1.7828)" ns0:preamble="/home/waldgeist/data/sphinx/inkscape-preamble.tex" ns0:text="$y = x^7$" fill="#0f0" stroke="green" stroke-width="1.683"><defs><symbol id="A" overflow="visible"><path d="M4.844-3.797c.047-.14.047-.156.047-.234 0-.172-.141-.266-.297-.266a.455.455 0 0 0-.344.203c-.016.063-.11.36-.14.547-.079.25-.141.531-.204.797L3.453-.953c-.031.14-.469.844-1.125.844-.5 0-.61-.438-.61-.813 0-.453.173-1.078.5-1.953.157-.406.204-.516.204-.719 0-.437-.313-.812-.813-.812-.953 0-1.312 1.453-1.312 1.531 0 .11.094.11.11.11.109 0 .109-.032.156-.188.28-.938.671-1.235 1.015-1.235.078 0 .25 0 .25.313 0 .25-.11.516-.172.703-.406 1.063-.578 1.625-.578 2.094 0 .89.625 1.187 1.219 1.187.39 0 .719-.171 1-.453-.125.516-.25 1.016-.64 1.547-.266.328-.641.625-1.095.625-.14 0-.593-.031-.765-.422.156 0 .297 0 .422-.125a.493.493 0 0 0 .203-.406c0-.313-.266-.344-.36-.344C.829.531.5.687.5 1.171c0 .5.438.876 1.063.876 1.015 0 2.046-.906 2.328-2.031zm0 0" stroke="none"/></symbol><symbol id="C" overflow="visible"><path d="M3.328-3.016c.063-.25.297-1.171.985-1.171.046 0 .296 0 .5.125a.578.578 0 0 0-.47.546c0 .157.11.344.376.344a.546.546 0 0 0 .531-.578c0-.516-.578-.656-.922-.656-.578 0-.922.531-1.047.75-.25-.656-.781-.75-1.078-.75-1.031 0-1.61 1.281-1.61 1.531 0 .11.11.11.126.11.078 0 .11-.032.125-.11.344-1.063 1-1.313 1.344-1.313.187 0 .53.094.53.672 0 .313-.171.97-.53 2.375-.157.61-.516 1.032-.954 1.032-.062 0-.28 0-.5-.125.25-.063.47-.266.47-.547 0-.266-.22-.344-.36-.344-.313 0-.547.25-.547.578 0 .453.484.656.922.656.672 0 1.031-.703 1.047-.75.125.36.484.75 1.078.75 1.031 0 1.594-1.28 1.594-1.53 0-.11-.079-.11-.11-.11-.094 0-.11.047-.14.11-.329 1.077-1 1.312-1.313 1.312-.39 0-.547-.313-.547-.657 0-.218.047-.437.156-.875zm0 0" stroke="none"/></symbol><symbol id="B" overflow="visible"><path d="M6.844-3.266c.156 0 .343 0 .343-.187 0-.203-.187-.203-.328-.203H.891c-.141 0-.329 0-.329.203 0 .187.188.187.329.187zm.015 1.938c.141 0 .329 0 .329-.203 0-.188-.188-.188-.344-.188H.89c-.141 0-.329 0-.329.188 0 .203.188.203.329.203zm0 0" stroke="none"/></symbol><symbol id="D" overflow="visible"><path d="M3.734-4.203c.063-.094.063-.11.063-.281H1.969c-.282 0-.36-.016-.61-.032C1-4.546.984-4.594.97-4.703H.734L.484-3.22H.72c.015-.11.094-.562.203-.64.047-.032.625-.032.719-.032h1.515c-.219.282-.578.72-.719.922-.906 1.188-1 2.297-1 2.703 0 .079 0 .407.329.407.343 0 .343-.313.343-.407v-.28c0-1.345.282-1.97.579-2.345zm0 0" stroke="none"/></symbol></defs><use y="134.765" x="223.432" xlink:href="#A" width="1052.362" height="744.094"/><use y="134.765" x="231.441" xlink:href="#B" width="1052.362" height="744.094"/><use y="134.765" x="241.957" xlink:href="#C" width="1052.362" height="744.094"/><use y="131.149" x="247.651" xlink:href="#D" width="1052.362" height="744.094"/></g></svg>