<svg xmlns:ns0="http://www.iki.fi/pav/software/textext/" xmlns="http://www.w3.org/2000/svg" xmlns:xlink="http://www.w3.org/1999/xlink" width="1052.362" height="744.094"><title>Hochpunkt Tiefpunkt Terassenpunkt</title><defs><marker id="a" orient="auto" overflow="visible"><path d="M2.308 0l-3.46 2v-4l3.46 2z" fill-rule="evenodd" stroke="#000" stroke-width=".4pt"/></marker></defs><path style="marker:none" color="#000" fill="#fff" stroke="#fff" stroke-linecap="round" stroke-linejoin="round" stroke-dasharray=".99999999,2.99999991" overflow="visible" d="M1.998 189.711h1048.366v364.673H1.998z"/><path d="M756.577 495.668H1013.4m-256.823 0V238.846" fill="none" stroke="#000" stroke-width="2" marker-end="url(#a)"/><path d="M856.38 396.007v97.548" fill="none" stroke="#000" stroke-linecap="round" stroke-dasharray=".99999997,2.99999993"/><g ns0:preamble="/home/waldgeist/data/sphinx/inkscape-preamble.tex" ns0:text="$x_0$\n" transform="translate(557.652 329.98) scale(1.31361)"><use y="134.765" x="223.432" xlink:href="#b" width="744.094" height="1052.362"/><use y="136.259" x="229.126" xlink:href="#c" width="744.094" height="1052.362"/></g><use height="1052.362" width="744.094" xlink:href="#d" x="223.432" y="134.765" transform="translate(651.14 294.61) scale(1.59572)" ns0:text="$x$ \n" ns0:preamble="/home/waldgeist/data/sphinx/inkscape-preamble.tex"/><use y="134.765" x="223.432" xlink:href="#e" width="744.094" height="1052.362" transform="translate(418.392 47.21) scale(1.4497)" ns0:preamble="/home/waldgeist/data/sphinx/inkscape-preamble.tex" ns0:text="$y$ \n"/><path d="M726.717 394.046h1.129c.267 0 .39 0 .39-.266 0-.144-.123-.144-.349-.144H726.8l.267-1.498c.062-.267.246-1.19.328-1.355.103-.246.329-.452.616-.452.041 0 .39 0 .636.247a.732.732 0 0 0-.718.697c0 .308.246.473.493.473.349 0 .718-.308.718-.8 0-.596-.595-.904-1.129-.904-.451 0-1.272.246-1.662 1.54-.082.266-.123.41-.431 2.052h-.903c-.267 0-.411 0-.411.246 0 .164.123.164.37.164h.862l-.965 5.173c-.246 1.272-.472 2.463-1.15 2.463-.061 0-.369 0-.636-.247.616-.04.74-.513.74-.697 0-.308-.247-.472-.494-.472-.348 0-.718.307-.718.8 0 .575.575.903 1.108.903.719 0 1.252-.78 1.478-1.272.431-.821.719-2.402.74-2.505zm7.344 8.374c0-.04 0-.06-.226-.287-1.621-1.642-2.052-4.125-2.052-6.137 0-2.278.492-4.556 2.114-6.178.164-.164.164-.185.164-.226 0-.102-.041-.143-.123-.143-.144 0-1.314.903-2.094 2.565-.656 1.437-.82 2.894-.82 3.982 0 1.027.143 2.607.861 4.105.8 1.601 1.91 2.463 2.053 2.463.082 0 .123-.04.123-.143zm5.13-7.101c.082-.328.39-1.54 1.293-1.54.062 0 .39 0 .657.165-.37.082-.616.39-.616.718 0 .205.144.452.493.452.287 0 .698-.226.698-.76 0-.677-.76-.862-1.211-.862-.76 0-1.211.698-1.376.985-.328-.862-1.026-.985-1.416-.985-1.354 0-2.114 1.683-2.114 2.012 0 .143.144.143.164.143.103 0 .144-.04.165-.143.451-1.396 1.313-1.724 1.765-1.724.246 0 .698.123.698.882 0 .41-.226 1.273-.698 3.12-.206.8-.678 1.355-1.252 1.355-.082 0-.37 0-.657-.165.328-.082.616-.348.616-.718 0-.349-.288-.451-.472-.451-.411 0-.719.328-.719.759 0 .595.636.862 1.211.862.883 0 1.355-.924 1.375-.985a1.47 1.47 0 0 0 1.417.985c1.354 0 2.093-1.683 2.093-2.011 0-.144-.103-.144-.144-.144-.123 0-.143.061-.184.144-.431 1.416-1.314 1.724-1.724 1.724-.514 0-.719-.41-.719-.862 0-.288.062-.575.205-1.15zm7.829 3.009c0-1.005-.123-1.744-.534-2.38-.287-.411-.862-.78-1.58-.78-2.135 0-2.135 2.503-2.135 3.16s0 3.1 2.135 3.1c2.114 0 2.114-2.443 2.114-3.1zm-2.114 2.833c-.431 0-.986-.247-1.17-.985-.124-.534-.124-1.294-.124-1.97 0-.678 0-1.376.124-1.869.205-.718.78-.923 1.17-.923.492 0 .964.308 1.128.841.144.493.165 1.15.165 1.95 0 .677 0 1.355-.123 1.93-.185.841-.801 1.026-1.17 1.026zm7.041-5.165c0-1.005-.143-2.586-.862-4.084-.78-1.601-1.909-2.463-2.032-2.463a.14.14 0 0 0-.143.143c0 .041 0 .062.246.308 1.293 1.293 2.032 3.366 2.032 6.096 0 2.258-.472 4.557-2.094 6.199-.184.164-.184.185-.184.226a.14.14 0 0 0 .143.143c.123 0 1.314-.903 2.073-2.565.678-1.437.821-2.894.821-4.003zm0 0" ns0:preamble="/home/waldgeist/data/sphinx/inkscape-preamble.tex" ns0:text="$f(x_0)$\n"/><g ns0:preamble="/home/waldgeist/data/sphinx/inkscape-preamble.tex" ns0:text="$y=f(x)$\n" fill="green" transform="translate(652.616 189.485) scale(1.31361)"><use y="134.765" x="223.432" xlink:href="#f" width="744.094" height="1052.362"/><use y="134.765" x="231.441" xlink:href="#g" width="744.094" height="1052.362"/><use y="134.765" x="241.957" xlink:href="#h" width="744.094" height="1052.362"/><use y="134.765" x="247.907" xlink:href="#i" width="744.094" height="1052.362"/><use y="134.765" x="251.782" xlink:href="#j" width="744.094" height="1052.362"/><use y="134.765" x="257.476" xlink:href="#k" width="744.094" height="1052.362"/></g><path d="M856.38 396.007c-51.736 0-73.911 24.595-99.803 65.354m99.803-65.354c63.556 0 82.501-37.119 118.529-95.723 4.692-7.633 9.336-15.636 13.936-23.976" fill="none" stroke="green" stroke-width="3.362" stroke-linecap="round"/><path d="M856.38 396.007h-99.803" fill="none" stroke="#000" stroke-linecap="round" stroke-dasharray=".99999996,2.9999999"/><path d="M399.457 504.04H673.65m-274.193 0V229.85" fill="none" stroke="#000" stroke-width="2.146" marker-end="url(#a)" transform="translate(36.104 25.246) scale(.93211)"/><path d="M517.663 437.727v56.618" fill="none" stroke="#000" stroke-linecap="round" stroke-dasharray="1.07283521,3.21850567"/><g ns0:text="$x_0$\n" ns0:preamble="/home/waldgeist/data/sphinx/inkscape-preamble.tex" transform="translate(220.402 329.493) scale(1.30724)" fill="#4d4d4d"><defs><symbol overflow="visible" id="l"><path d="M3.328-3.016c.063-.25.297-1.171.985-1.171.046 0 .296 0 .5.125a.578.578 0 0 0-.47.546c0 .157.11.344.376.344a.546.546 0 0 0 .531-.578c0-.516-.578-.656-.922-.656-.578 0-.922.531-1.047.75-.25-.656-.781-.75-1.078-.75-1.031 0-1.61 1.281-1.61 1.531 0 .11.11.11.126.11.078 0 .11-.032.125-.11.344-1.063 1-1.313 1.344-1.313.187 0 .53.094.53.672 0 .313-.171.97-.53 2.375-.157.61-.516 1.032-.954 1.032-.062 0-.28 0-.5-.125.25-.063.47-.266.47-.547 0-.266-.22-.344-.36-.344-.313 0-.547.25-.547.578 0 .453.484.656.922.656.672 0 1.031-.703 1.047-.75.125.36.484.75 1.078.75 1.031 0 1.594-1.28 1.594-1.53 0-.11-.079-.11-.11-.11-.094 0-.11.047-.14.11-.329 1.077-1 1.312-1.313 1.312-.39 0-.547-.313-.547-.657 0-.218.047-.437.156-.875zm0 0"/></symbol><symbol overflow="visible" id="m"><path d="M3.594-2.219c0-.765-.094-1.328-.406-1.812-.22-.313-.657-.594-1.204-.594C.36-4.625.36-2.719.36-2.219c0 .5 0 2.36 1.625 2.36 1.61 0 1.61-1.86 1.61-2.36zM1.984-.063c-.328 0-.75-.187-.89-.75C1-1.219 1-1.796 1-2.313c0-.515 0-1.046.094-1.421.156-.547.593-.704.89-.704.375 0 .735.235.86.641.11.375.125.875.125 1.485 0 .515 0 1.03-.094 1.468-.14.64-.61.781-.89.781zm0 0"/></symbol></defs><g fill="#000"><use height="1052.362" width="744.094" xlink:href="#l" x="223.432" y="134.765"/><use height="1052.362" width="744.094" xlink:href="#m" x="229.126" y="136.259"/></g></g><g transform="translate(303.517 294.984) scale(1.58798)" ns0:preamble="/home/waldgeist/data/sphinx/inkscape-preamble.tex" ns0:text="$x$ \n" fill="#4d4d4d"><defs><symbol id="n" overflow="visible"><path d="M3.328-3.016c.063-.25.297-1.171.985-1.171.046 0 .296 0 .5.125a.578.578 0 0 0-.47.546c0 .157.11.344.376.344a.546.546 0 0 0 .531-.578c0-.516-.578-.656-.922-.656-.578 0-.922.531-1.047.75-.25-.656-.781-.75-1.078-.75-1.031 0-1.61 1.281-1.61 1.531 0 .11.11.11.126.11.078 0 .11-.032.125-.11.344-1.063 1-1.313 1.344-1.313.187 0 .53.094.53.672 0 .313-.171.97-.53 2.375-.157.61-.516 1.032-.954 1.032-.062 0-.28 0-.5-.125.25-.063.47-.266.47-.547 0-.266-.22-.344-.36-.344-.313 0-.547.25-.547.578 0 .453.484.656.922.656.672 0 1.031-.703 1.047-.75.125.36.484.75 1.078.75 1.031 0 1.594-1.28 1.594-1.53 0-.11-.079-.11-.11-.11-.094 0-.11.047-.14.11-.329 1.077-1 1.312-1.313 1.312-.39 0-.547-.313-.547-.657 0-.218.047-.437.156-.875zm0 0"/></symbol></defs><use y="134.765" x="223.432" xlink:href="#n" width="744.094" height="1052.362" fill="#000"/></g><g ns0:text="$y$ \n" ns0:preamble="/home/waldgeist/data/sphinx/inkscape-preamble.tex" transform="translate(71.898 48.785) scale(1.44267)" fill="#4d4d4d"><defs><symbol overflow="visible" id="o"><path d="M4.844-3.797c.047-.14.047-.156.047-.234 0-.172-.141-.266-.297-.266a.455.455 0 0 0-.344.203c-.016.063-.11.36-.14.547-.079.25-.141.531-.204.797L3.453-.953c-.031.14-.469.844-1.125.844-.5 0-.61-.438-.61-.813 0-.453.173-1.078.5-1.953.157-.406.204-.516.204-.719 0-.437-.313-.812-.813-.812-.953 0-1.312 1.453-1.312 1.531 0 .11.094.11.11.11.109 0 .109-.032.156-.188.28-.938.671-1.235 1.015-1.235.078 0 .25 0 .25.313 0 .25-.11.516-.172.703-.406 1.063-.578 1.625-.578 2.094 0 .89.625 1.187 1.219 1.187.39 0 .719-.171 1-.453-.125.516-.25 1.016-.64 1.547-.266.328-.641.625-1.095.625-.14 0-.593-.031-.765-.422.156 0 .297 0 .422-.125a.493.493 0 0 0 .203-.406c0-.313-.266-.344-.36-.344C.829.531.5.687.5 1.171c0 .5.438.876 1.063.876 1.015 0 2.046-.906 2.328-2.031zm0 0"/></symbol></defs><use height="1052.362" width="744.094" xlink:href="#o" x="223.432" y="134.765" fill="#000"/></g><g ns0:text="$y=f(x)$\n" ns0:preamble="/home/waldgeist/data/sphinx/inkscape-preamble.tex" transform="translate(314.207 213.984) scale(1.30724)" fill="green"><defs><symbol overflow="visible" id="p"><path d="M4.844-3.797c.047-.14.047-.156.047-.234 0-.172-.141-.266-.297-.266a.455.455 0 0 0-.344.203c-.016.063-.11.36-.14.547-.079.25-.141.531-.204.797L3.453-.953c-.031.14-.469.844-1.125.844-.5 0-.61-.438-.61-.813 0-.453.173-1.078.5-1.953.157-.406.204-.516.204-.719 0-.437-.313-.812-.813-.812-.953 0-1.312 1.453-1.312 1.531 0 .11.094.11.11.11.109 0 .109-.032.156-.188.28-.938.671-1.235 1.015-1.235.078 0 .25 0 .25.313 0 .25-.11.516-.172.703-.406 1.063-.578 1.625-.578 2.094 0 .89.625 1.187 1.219 1.187.39 0 .719-.171 1-.453-.125.516-.25 1.016-.64 1.547-.266.328-.641.625-1.095.625-.14 0-.593-.031-.765-.422.156 0 .297 0 .422-.125a.493.493 0 0 0 .203-.406c0-.313-.266-.344-.36-.344C.829.531.5.687.5 1.171c0 .5.438.876 1.063.876 1.015 0 2.046-.906 2.328-2.031zm0 0"/></symbol><symbol overflow="visible" id="r"><path d="M3.656-3.984h.86c.203 0 .296 0 .296-.204 0-.109-.093-.109-.265-.109h-.828l.203-1.14c.047-.204.187-.907.25-1.032.078-.187.25-.343.469-.343.03 0 .296 0 .484.187a.557.557 0 0 0-.547.531c0 .235.188.36.375.36.266 0 .547-.235.547-.61 0-.453-.453-.687-.86-.687-.343 0-.968.187-1.265 1.172-.063.203-.094.312-.328 1.562h-.688c-.203 0-.312 0-.312.188 0 .125.094.125.281.125h.656L2.25-.047c-.188.969-.36 1.875-.875 1.875-.047 0-.281 0-.484-.187.468-.032.562-.391.562-.532 0-.234-.187-.359-.375-.359-.266 0-.547.234-.547.61 0 .437.438.687.844.687.547 0 .953-.594 1.125-.969.328-.625.547-1.828.563-1.906zm0 0"/></symbol><symbol overflow="visible" id="t"><path d="M3.328-3.016c.063-.25.297-1.171.985-1.171.046 0 .296 0 .5.125a.578.578 0 0 0-.47.546c0 .157.11.344.376.344a.546.546 0 0 0 .531-.578c0-.516-.578-.656-.922-.656-.578 0-.922.531-1.047.75-.25-.656-.781-.75-1.078-.75-1.031 0-1.61 1.281-1.61 1.531 0 .11.11.11.126.11.078 0 .11-.032.125-.11.344-1.063 1-1.313 1.344-1.313.187 0 .53.094.53.672 0 .313-.171.97-.53 2.375-.157.61-.516 1.032-.954 1.032-.062 0-.28 0-.5-.125.25-.063.47-.266.47-.547 0-.266-.22-.344-.36-.344-.313 0-.547.25-.547.578 0 .453.484.656.922.656.672 0 1.031-.703 1.047-.75.125.36.484.75 1.078.75 1.031 0 1.594-1.28 1.594-1.53 0-.11-.079-.11-.11-.11-.094 0-.11.047-.14.11-.329 1.077-1 1.312-1.313 1.312-.39 0-.547-.313-.547-.657 0-.218.047-.437.156-.875zm0 0"/></symbol><symbol overflow="visible" id="q"><path d="M6.844-3.266c.156 0 .343 0 .343-.187 0-.203-.187-.203-.328-.203H.891c-.141 0-.329 0-.329.203 0 .187.188.187.329.187zm.015 1.938c.141 0 .329 0 .329-.203 0-.188-.188-.188-.344-.188H.89c-.141 0-.329 0-.329.188 0 .203.188.203.329.203zm0 0"/></symbol><symbol overflow="visible" id="s"><path d="M3.297 2.39c0-.03 0-.046-.172-.218C1.891.922 1.562-.968 1.562-2.5c0-1.734.375-3.469 1.61-4.703.125-.125.125-.14.125-.172 0-.078-.031-.11-.094-.11-.11 0-1 .688-1.594 1.954C1.11-4.438.984-3.328.984-2.5c0 .781.11 1.984.657 3.125C2.25 1.844 3.094 2.5 3.203 2.5c.063 0 .094-.031.094-.11zm0 0"/></symbol><symbol overflow="visible" id="u"><path d="M2.875-2.5c0-.766-.11-1.969-.656-3.11C1.625-6.827.766-7.483.672-7.483a.107.107 0 0 0-.11.109c0 .031 0 .047.188.234.984.985 1.547 2.563 1.547 4.641C2.297-.78 1.937.97.703 2.22c-.14.125-.14.14-.14.172 0 .062.046.109.109.109.094 0 1-.688 1.578-1.953.516-1.094.625-2.203.625-3.047zm0 0"/></symbol></defs><use height="1052.362" width="744.094" xlink:href="#p" x="223.432" y="134.765"/><use height="1052.362" width="744.094" xlink:href="#q" x="231.441" y="134.765"/><use height="1052.362" width="744.094" xlink:href="#r" x="241.957" y="134.765"/><use height="1052.362" width="744.094" xlink:href="#s" x="247.907" y="134.765"/><use height="1052.362" width="744.094" xlink:href="#t" x="251.782" y="134.765"/><use height="1052.362" width="744.094" xlink:href="#u" x="257.476" y="134.765"/></g><path d="M517.663 437.727c40.203-.371 76.023-42.14 109.221-108.675 4.324-8.665 8.604-17.751 12.842-27.22M517.663 437.727c-40.203-.371-76.023-42.14-109.22-108.675" stroke-width="3.362" fill="none" stroke="green" stroke-linecap="round"/><path d="M517.663 437.727h-109.22" fill="none" stroke="#000" stroke-linecap="round" stroke-dasharray="1.0728352,3.21850565"/><path d="M364.85 440.431h1.206c.284 0 .416 0 .416-.285 0-.153-.132-.153-.373-.153h-1.161l.285-1.6c.066-.285.263-1.27.35-1.446.11-.263.351-.482.658-.482.044 0 .416 0 .68.263a.781.781 0 0 0-.768.745c0 .329.263.504.526.504.373 0 .767-.329.767-.855 0-.635-.635-.964-1.205-.964-.482 0-1.359.263-1.775 1.644-.088.284-.132.438-.46 2.19h-.965c-.284 0-.438 0-.438.264 0 .175.132.175.395.175h.92l-1.03 5.522c-.263 1.359-.504 2.63-1.227 2.63-.066 0-.394 0-.68-.263.658-.044.79-.548.79-.745 0-.329-.263-.504-.526-.504-.373 0-.767.329-.767.855 0 .613.613.964 1.183.964.767 0 1.337-.833 1.578-1.359.46-.876.767-2.564.789-2.673zm7.84 8.941c0-.044 0-.066-.24-.307-1.731-1.753-2.191-4.405-2.191-6.552 0-2.432.525-4.865 2.257-6.596.175-.175.175-.197.175-.241 0-.11-.044-.153-.132-.153-.153 0-1.402.964-2.235 2.739-.701 1.534-.876 3.09-.876 4.251 0 1.096.153 2.783.92 4.383.855 1.709 2.038 2.63 2.191 2.63.088 0 .132-.045.132-.154zm5.478-7.582c.087-.35.416-1.644 1.38-1.644.066 0 .417 0 .702.176-.395.087-.658.416-.658.767 0 .219.154.482.526.482.307 0 .745-.241.745-.811 0-.723-.81-.92-1.293-.92-.81 0-1.293.745-1.468 1.051-.35-.92-1.096-1.051-1.512-1.051-1.446 0-2.257 1.796-2.257 2.147 0 .153.153.153.175.153.11 0 .154-.043.176-.153.482-1.49 1.402-1.84 1.884-1.84.263 0 .745.13.745.942 0 .438-.24 1.358-.745 3.33-.219.855-.723 1.447-1.337 1.447-.087 0-.394 0-.7-.176.35-.087.657-.372.657-.767 0-.372-.307-.482-.504-.482-.439 0-.767.35-.767.811 0 .636.679.92 1.293.92.942 0 1.446-.986 1.468-1.051a1.567 1.567 0 0 0 1.512 1.051c1.446 0 2.235-1.796 2.235-2.147 0-.153-.11-.153-.153-.153-.132 0-.154.065-.198.153-.46 1.512-1.402 1.84-1.84 1.84-.548 0-.767-.438-.767-.92 0-.306.065-.613.219-1.227zm8.358 3.213c0-1.074-.132-1.863-.57-2.542-.307-.439-.92-.833-1.687-.833-2.28 0-2.28 2.673-2.28 3.375 0 .7 0 3.309 2.28 3.309 2.257 0 2.257-2.608 2.257-3.31zm-2.257 3.024c-.46 0-1.052-.263-1.25-1.052-.13-.57-.13-1.38-.13-2.104 0-.723 0-1.468.13-1.994.22-.767.834-.986 1.25-.986.526 0 1.03.329 1.205.898.153.526.175 1.228.175 2.082 0 .723 0 1.446-.131 2.06-.197.898-.855 1.096-1.25 1.096zm7.518-5.514c0-1.074-.154-2.761-.92-4.36-.833-1.71-2.038-2.63-2.17-2.63a.15.15 0 0 0-.153.153c0 .044 0 .066.263.329 1.38 1.38 2.17 3.593 2.17 6.508 0 2.41-.505 4.865-2.236 6.618-.197.175-.197.197-.197.24a.15.15 0 0 0 .153.154c.132 0 1.403-.964 2.213-2.739.723-1.534.877-3.09.877-4.273zm0 0" fill="#000" ns0:text="$f(x_0)$\n" ns0:preamble="/home/waldgeist/data/sphinx/inkscape-preamble.tex"/><path d="M60.443 504.04h274.191m-274.191 0V229.85" fill="none" stroke="#000" stroke-width="2.134" marker-end="url(#a)" transform="translate(11.347 23.355) scale(.9372)"/><path d="M177.81 301.45c40.423.373 76.438 42.37 109.818 109.268 4.347 8.713 8.65 17.848 12.912 27.369" fill="none" stroke="green" stroke-width="3.362" stroke-linecap="round"/><path d="M177.81 301.45v192.837" fill="none" stroke="#000" stroke-linecap="round" stroke-dasharray="1.06701324,3.20103977"/><g ns0:text="$x_0$\n" ns0:preamble="/home/waldgeist/data/sphinx/inkscape-preamble.tex" transform="translate(-121.675 329.262) scale(1.31437)" fill="#4d4d4d"><defs><symbol overflow="visible" id="b"><path d="M3.328-3.016c.063-.25.297-1.171.985-1.171.046 0 .296 0 .5.125a.578.578 0 0 0-.47.546c0 .157.11.344.376.344a.546.546 0 0 0 .531-.578c0-.516-.578-.656-.922-.656-.578 0-.922.531-1.047.75-.25-.656-.781-.75-1.078-.75-1.031 0-1.61 1.281-1.61 1.531 0 .11.11.11.126.11.078 0 .11-.032.125-.11.344-1.063 1-1.313 1.344-1.313.187 0 .53.094.53.672 0 .313-.171.97-.53 2.375-.157.61-.516 1.032-.954 1.032-.062 0-.28 0-.5-.125.25-.063.47-.266.47-.547 0-.266-.22-.344-.36-.344-.313 0-.547.25-.547.578 0 .453.484.656.922.656.672 0 1.031-.703 1.047-.75.125.36.484.75 1.078.75 1.031 0 1.594-1.28 1.594-1.53 0-.11-.079-.11-.11-.11-.094 0-.11.047-.14.11-.329 1.077-1 1.312-1.313 1.312-.39 0-.547-.313-.547-.657 0-.218.047-.437.156-.875zm0 0"/></symbol><symbol overflow="visible" id="c"><path d="M3.594-2.219c0-.765-.094-1.328-.406-1.812-.22-.313-.657-.594-1.204-.594C.36-4.625.36-2.719.36-2.219c0 .5 0 2.36 1.625 2.36 1.61 0 1.61-1.86 1.61-2.36zM1.984-.063c-.328 0-.75-.187-.89-.75C1-1.219 1-1.796 1-2.313c0-.515 0-1.046.094-1.421.156-.547.593-.704.89-.704.375 0 .735.235.86.641.11.375.125.875.125 1.485 0 .515 0 1.03-.094 1.468-.14.64-.61.781-.89.781zm0 0"/></symbol></defs><g fill="#000"><use height="1052.362" width="744.094" xlink:href="#b" x="223.432" y="134.765"/><use height="1052.362" width="744.094" xlink:href="#c" x="229.126" y="136.259"/></g></g><g transform="translate(-37.504 294.565) scale(1.59664)" ns0:preamble="/home/waldgeist/data/sphinx/inkscape-preamble.tex" ns0:text="$x$ \n" fill="#4d4d4d"><defs><symbol id="d" overflow="visible"><path d="M3.328-3.016c.063-.25.297-1.171.985-1.171.046 0 .296 0 .5.125a.578.578 0 0 0-.47.546c0 .157.11.344.376.344a.546.546 0 0 0 .531-.578c0-.516-.578-.656-.922-.656-.578 0-.922.531-1.047.75-.25-.656-.781-.75-1.078-.75-1.031 0-1.61 1.281-1.61 1.531 0 .11.11.11.126.11.078 0 .11-.032.125-.11.344-1.063 1-1.313 1.344-1.313.187 0 .53.094.53.672 0 .313-.171.97-.53 2.375-.157.61-.516 1.032-.954 1.032-.062 0-.28 0-.5-.125.25-.063.47-.266.47-.547 0-.266-.22-.344-.36-.344-.313 0-.547.25-.547.578 0 .453.484.656.922.656.672 0 1.031-.703 1.047-.75.125.36.484.75 1.078.75 1.031 0 1.594-1.28 1.594-1.53 0-.11-.079-.11-.11-.11-.094 0-.11.047-.14.11-.329 1.077-1 1.312-1.313 1.312-.39 0-.547-.313-.547-.657 0-.218.047-.437.156-.875zm0 0"/></symbol></defs><use y="134.765" x="223.432" xlink:href="#d" width="744.094" height="1052.362" fill="#000"/></g><g ns0:text="$y$ \n" ns0:preamble="/home/waldgeist/data/sphinx/inkscape-preamble.tex" transform="translate(-270.387 47.023) scale(1.45054)" fill="#4d4d4d"><defs><symbol overflow="visible" id="e"><path d="M4.844-3.797c.047-.14.047-.156.047-.234 0-.172-.141-.266-.297-.266a.455.455 0 0 0-.344.203c-.016.063-.11.36-.14.547-.079.25-.141.531-.204.797L3.453-.953c-.031.14-.469.844-1.125.844-.5 0-.61-.438-.61-.813 0-.453.173-1.078.5-1.953.157-.406.204-.516.204-.719 0-.437-.313-.812-.813-.812-.953 0-1.312 1.453-1.312 1.531 0 .11.094.11.11.11.109 0 .109-.032.156-.188.28-.938.671-1.235 1.015-1.235.078 0 .25 0 .25.313 0 .25-.11.516-.172.703-.406 1.063-.578 1.625-.578 2.094 0 .89.625 1.187 1.219 1.187.39 0 .719-.171 1-.453-.125.516-.25 1.016-.64 1.547-.266.328-.641.625-1.095.625-.14 0-.593-.031-.765-.422.156 0 .297 0 .422-.125a.493.493 0 0 0 .203-.406c0-.313-.266-.344-.36-.344C.829.531.5.687.5 1.171c0 .5.438.876 1.063.876 1.015 0 2.046-.906 2.328-2.031zm0 0"/></symbol></defs><use height="1052.362" width="744.094" xlink:href="#e" x="223.432" y="134.765" fill="#000"/></g><g ns0:text="$y=f(x)$\n" ns0:preamble="/home/waldgeist/data/sphinx/inkscape-preamble.tex" transform="translate(-26.755 183.685) scale(1.31437)" fill="green"><defs><symbol overflow="visible" id="f"><path d="M4.844-3.797c.047-.14.047-.156.047-.234 0-.172-.141-.266-.297-.266a.455.455 0 0 0-.344.203c-.016.063-.11.36-.14.547-.079.25-.141.531-.204.797L3.453-.953c-.031.14-.469.844-1.125.844-.5 0-.61-.438-.61-.813 0-.453.173-1.078.5-1.953.157-.406.204-.516.204-.719 0-.437-.313-.812-.813-.812-.953 0-1.312 1.453-1.312 1.531 0 .11.094.11.11.11.109 0 .109-.032.156-.188.28-.938.671-1.235 1.015-1.235.078 0 .25 0 .25.313 0 .25-.11.516-.172.703-.406 1.063-.578 1.625-.578 2.094 0 .89.625 1.187 1.219 1.187.39 0 .719-.171 1-.453-.125.516-.25 1.016-.64 1.547-.266.328-.641.625-1.095.625-.14 0-.593-.031-.765-.422.156 0 .297 0 .422-.125a.493.493 0 0 0 .203-.406c0-.313-.266-.344-.36-.344C.829.531.5.687.5 1.171c0 .5.438.876 1.063.876 1.015 0 2.046-.906 2.328-2.031zm0 0"/></symbol><symbol overflow="visible" id="h"><path d="M3.656-3.984h.86c.203 0 .296 0 .296-.204 0-.109-.093-.109-.265-.109h-.828l.203-1.14c.047-.204.187-.907.25-1.032.078-.187.25-.343.469-.343.03 0 .296 0 .484.187a.557.557 0 0 0-.547.531c0 .235.188.36.375.36.266 0 .547-.235.547-.61 0-.453-.453-.687-.86-.687-.343 0-.968.187-1.265 1.172-.063.203-.094.312-.328 1.562h-.688c-.203 0-.312 0-.312.188 0 .125.094.125.281.125h.656L2.25-.047c-.188.969-.36 1.875-.875 1.875-.047 0-.281 0-.484-.187.468-.032.562-.391.562-.532 0-.234-.187-.359-.375-.359-.266 0-.547.234-.547.61 0 .437.438.687.844.687.547 0 .953-.594 1.125-.969.328-.625.547-1.828.563-1.906zm0 0"/></symbol><symbol overflow="visible" id="j"><path d="M3.328-3.016c.063-.25.297-1.171.985-1.171.046 0 .296 0 .5.125a.578.578 0 0 0-.47.546c0 .157.11.344.376.344a.546.546 0 0 0 .531-.578c0-.516-.578-.656-.922-.656-.578 0-.922.531-1.047.75-.25-.656-.781-.75-1.078-.75-1.031 0-1.61 1.281-1.61 1.531 0 .11.11.11.126.11.078 0 .11-.032.125-.11.344-1.063 1-1.313 1.344-1.313.187 0 .53.094.53.672 0 .313-.171.97-.53 2.375-.157.61-.516 1.032-.954 1.032-.062 0-.28 0-.5-.125.25-.063.47-.266.47-.547 0-.266-.22-.344-.36-.344-.313 0-.547.25-.547.578 0 .453.484.656.922.656.672 0 1.031-.703 1.047-.75.125.36.484.75 1.078.75 1.031 0 1.594-1.28 1.594-1.53 0-.11-.079-.11-.11-.11-.094 0-.11.047-.14.11-.329 1.077-1 1.312-1.313 1.312-.39 0-.547-.313-.547-.657 0-.218.047-.437.156-.875zm0 0"/></symbol><symbol overflow="visible" id="g"><path d="M6.844-3.266c.156 0 .343 0 .343-.187 0-.203-.187-.203-.328-.203H.891c-.141 0-.329 0-.329.203 0 .187.188.187.329.187zm.015 1.938c.141 0 .329 0 .329-.203 0-.188-.188-.188-.344-.188H.89c-.141 0-.329 0-.329.188 0 .203.188.203.329.203zm0 0"/></symbol><symbol overflow="visible" id="i"><path d="M3.297 2.39c0-.03 0-.046-.172-.218C1.891.922 1.562-.968 1.562-2.5c0-1.734.375-3.469 1.61-4.703.125-.125.125-.14.125-.172 0-.078-.031-.11-.094-.11-.11 0-1 .688-1.594 1.954C1.11-4.438.984-3.328.984-2.5c0 .781.11 1.984.657 3.125C2.25 1.844 3.094 2.5 3.203 2.5c.063 0 .094-.031.094-.11zm0 0"/></symbol><symbol overflow="visible" id="k"><path d="M2.875-2.5c0-.766-.11-1.969-.656-3.11C1.625-6.827.766-7.483.672-7.483a.107.107 0 0 0-.11.109c0 .031 0 .047.188.234.984.985 1.547 2.563 1.547 4.641C2.297-.78 1.937.97.703 2.22c-.14.125-.14.14-.14.172 0 .062.046.109.109.109.094 0 1-.688 1.578-1.953.516-1.094.625-2.203.625-3.047zm0 0"/></symbol></defs><use height="1052.362" width="744.094" xlink:href="#f" x="223.432" y="134.765"/><use height="1052.362" width="744.094" xlink:href="#g" x="231.441" y="134.765"/><use height="1052.362" width="744.094" xlink:href="#h" x="241.957" y="134.765"/><use height="1052.362" width="744.094" xlink:href="#i" x="247.907" y="134.765"/><use height="1052.362" width="744.094" xlink:href="#j" x="251.782" y="134.765"/><use height="1052.362" width="744.094" xlink:href="#k" x="257.476" y="134.765"/></g><path d="M177.81 301.45c-40.422.373-76.437 42.37-109.816 109.268" fill="none" stroke="green" stroke-width="3.362" stroke-linecap="round"/><path d="M177.81 301.45H67.995" fill="none" stroke="#000" stroke-linecap="round" stroke-dasharray="1.06701331,3.20103996"/><path d="M35.56 299.489h1.13c.267 0 .39 0 .39-.267 0-.144-.123-.144-.35-.144h-1.088l.267-1.5c.062-.266.247-1.19.329-1.355.103-.246.329-.452.616-.452.041 0 .39 0 .637.247a.732.732 0 0 0-.72.698c0 .308.247.473.494.473.349 0 .719-.309.719-.801 0-.596-.596-.904-1.13-.904-.452 0-1.273.246-1.663 1.54-.083.267-.124.411-.432 2.054h-.903c-.267 0-.411 0-.411.246 0 .165.123.165.37.165h.862l-.965 5.175c-.247 1.273-.472 2.464-1.15 2.464-.062 0-.37 0-.637-.246.616-.041.74-.513.74-.698 0-.308-.247-.473-.493-.473-.35 0-.72.308-.72.801 0 .575.576.904 1.11.904.719 0 1.253-.78 1.478-1.273.432-.822.72-2.403.74-2.506zm7.348 8.379c0-.041 0-.062-.226-.288-1.622-1.643-2.053-4.128-2.053-6.14 0-2.28.493-4.56 2.115-6.182.164-.164.164-.185.164-.226 0-.103-.04-.144-.123-.144-.144 0-1.314.904-2.095 2.568-.657 1.437-.821 2.895-.821 3.984 0 1.027.144 2.608.862 4.107.801 1.602 1.91 2.465 2.054 2.465.082 0 .123-.042.123-.144zm5.133-7.106c.082-.329.39-1.54 1.294-1.54.062 0 .39 0 .657.164-.37.082-.616.39-.616.719 0 .205.144.452.493.452.288 0 .698-.226.698-.76 0-.678-.76-.863-1.211-.863-.76 0-1.212.698-1.376.986-.329-.863-1.027-.986-1.417-.986-1.356 0-2.116 1.684-2.116 2.013 0 .144.144.144.165.144.102 0 .143-.042.164-.144.452-1.397 1.314-1.725 1.766-1.725.247 0 .698.123.698.883 0 .41-.226 1.273-.698 3.121-.205.801-.678 1.356-1.253 1.356-.082 0-.37 0-.657-.164.329-.083.616-.35.616-.72 0-.348-.287-.451-.472-.451-.41 0-.719.329-.719.76 0 .595.637.862 1.212.862.883 0 1.355-.924 1.376-.985a1.47 1.47 0 0 0 1.417.985c1.355 0 2.095-1.684 2.095-2.012 0-.144-.103-.144-.144-.144-.123 0-.144.062-.185.144-.431 1.417-1.314 1.725-1.725 1.725-.513 0-.719-.41-.719-.863 0-.287.062-.575.206-1.15zm7.834 3.011c0-1.006-.124-1.746-.534-2.382-.288-.411-.863-.78-1.582-.78-2.136 0-2.136 2.505-2.136 3.162s0 3.101 2.136 3.101c2.116 0 2.116-2.444 2.116-3.101zm-2.116 2.834c-.431 0-.986-.246-1.17-.986-.124-.534-.124-1.293-.124-1.971 0-.678 0-1.376.124-1.87.205-.718.78-.923 1.17-.923.493 0 .965.308 1.13.842.144.493.164 1.15.164 1.95 0 .679 0 1.356-.123 1.931-.185.842-.801 1.027-1.17 1.027zm7.046-5.167c0-1.007-.144-2.588-.862-4.087-.78-1.602-1.91-2.465-2.034-2.465a.14.14 0 0 0-.143.144c0 .041 0 .062.246.308 1.294 1.294 2.033 3.368 2.033 6.1 0 2.259-.472 4.559-2.095 6.202-.184.164-.184.185-.184.226a.14.14 0 0 0 .143.144c.124 0 1.315-.904 2.075-2.568.677-1.437.821-2.895.821-4.004zm0 0" ns0:text="$f(x_0)$\n" ns0:preamble="/home/waldgeist/data/sphinx/inkscape-preamble.tex"/><path d="M350.787 217.547v309m350.788-309v309" style="marker:none" color="#000" fill="none" stroke="gray" stroke-width="2" stroke-linecap="round" stroke-linejoin="round" overflow="visible"/></svg>