<svg xmlns:ns0="http://www.iki.fi/pav/software/textext/" xmlns="http://www.w3.org/2000/svg" xmlns:xlink="http://www.w3.org/1999/xlink" width="744.094" height="1052.362"><title>Normalparabel</title><defs><marker orient="auto" id="a" overflow="visible"><path d="M2.308 0l-3.46 2v-4l3.46 2z" fill-rule="evenodd" stroke="#000" stroke-width=".4pt"/></marker></defs><g transform="translate(-575.239 128.115) scale(4.62289)" fill="green"><use y="134.765" x="231.736" xlink:href="#textext-082fa4b4-3" width="744.094" height="1052.362"/><use y="134.765" x="231.736" xlink:href="#textext-082fa4b4-3" width="744.094" height="1052.362"/><g ns0:preamble="/home/waldgeist/data/sphinx/test.tex" ns0:text="$\\Delta \\vec{r} = \\vec{r}_{\\rm{2}} - \\vec{r}_{\\rm{1}} $"><use y="134.765" x="223.432" xlink:href="#textext-082fa4b4-0" width="744.094" height="1052.362"/><use y="134.765" x="231.417" xlink:href="#textext-082fa4b4-2" width="744.094" height="1052.362"/><use y="134.765" x="231.736" xlink:href="#textext-082fa4b4-3" width="744.094" height="1052.362"/><use y="134.765" x="239.273" xlink:href="#textext-082fa4b4-1" width="744.094" height="1052.362"/><use y="134.765" x="249.472" xlink:href="#textext-082fa4b4-2" width="744.094" height="1052.362"/><use y="134.765" x="249.791" xlink:href="#textext-082fa4b4-3" width="744.094" height="1052.362"/><use y="136.259" x="254.284" xlink:href="#textext-082fa4b4-4" width="744.094" height="1052.362"/><use y="134.765" x="260.967" xlink:href="#textext-082fa4b4-6" width="744.094" height="1052.362"/><use y="134.765" x="270.612" xlink:href="#textext-082fa4b4-2" width="744.094" height="1052.362"/><use y="134.765" x="270.931" xlink:href="#textext-082fa4b4-3" width="744.094" height="1052.362"/><use y="136.259" x="275.425" xlink:href="#textext-082fa4b4-5" width="744.094" height="1052.362"/></g><g ns0:preamble="/home/waldgeist/data/sphinx/test.tex" ns0:text="$\\Delta \\vec{r} = \\vec{r}_{\\rm{2}} - \\vec{r}_{\\rm{1}} $"><use y="134.765" x="223.432" xlink:href="#textext-082fa4b4-0" width="744.094" height="1052.362"/><use y="134.765" x="231.417" xlink:href="#textext-082fa4b4-2" width="744.094" height="1052.362"/><use y="134.765" x="231.736" xlink:href="#textext-082fa4b4-3" width="744.094" height="1052.362"/><use y="134.765" x="239.273" xlink:href="#textext-082fa4b4-1" width="744.094" height="1052.362"/><use y="134.765" x="249.472" xlink:href="#textext-082fa4b4-2" width="744.094" height="1052.362"/><use y="134.765" x="249.791" xlink:href="#textext-082fa4b4-3" width="744.094" height="1052.362"/><use y="136.259" x="254.284" xlink:href="#textext-082fa4b4-4" width="744.094" height="1052.362"/><use y="134.765" x="260.967" xlink:href="#textext-082fa4b4-6" width="744.094" height="1052.362"/><use y="134.765" x="270.612" xlink:href="#textext-082fa4b4-2" width="744.094" height="1052.362"/><use y="134.765" x="270.931" xlink:href="#textext-082fa4b4-3" width="744.094" height="1052.362"/><use y="136.259" x="275.425" xlink:href="#textext-082fa4b4-5" width="744.094" height="1052.362"/></g><g ns0:preamble="/home/waldgeist/data/sphinx/test.tex" ns0:text="$\\Delta \\vec{r} = \\vec{r}_{\\rm{2}} - \\vec{r}_{\\rm{1}} $"><use y="134.765" x="223.432" xlink:href="#textext-082fa4b4-0" width="744.094" height="1052.362"/><use y="134.765" x="231.417" xlink:href="#textext-082fa4b4-2" width="744.094" height="1052.362"/><use y="134.765" x="231.736" xlink:href="#textext-082fa4b4-3" width="744.094" height="1052.362"/><use y="134.765" x="239.273" xlink:href="#textext-082fa4b4-1" width="744.094" height="1052.362"/><use y="134.765" x="249.472" xlink:href="#textext-082fa4b4-2" width="744.094" height="1052.362"/><use y="134.765" x="249.791" xlink:href="#textext-082fa4b4-3" width="744.094" height="1052.362"/><use y="136.259" x="254.284" xlink:href="#textext-082fa4b4-4" width="744.094" height="1052.362"/><use y="134.765" x="260.967" xlink:href="#textext-082fa4b4-6" width="744.094" height="1052.362"/><use y="134.765" x="270.612" xlink:href="#textext-082fa4b4-2" width="744.094" height="1052.362"/><use y="134.765" x="270.931" xlink:href="#textext-082fa4b4-3" width="744.094" height="1052.362"/><use y="136.259" x="275.425" xlink:href="#textext-082fa4b4-5" width="744.094" height="1052.362"/></g></g><path fill="#fff" stroke="#fff" stroke-width="3" stroke-linecap="round" d="M3.865 140.605h736.364v771.152H3.865z"/><path fill="#fff" stroke="#fff" stroke-width="2" stroke-linecap="round" d="M3.865 140.605h736.364v771.152H3.865z"/><g stroke="#ccc" stroke-width="1.019" fill="none"><path d="M132.012 227.272V825.09m59.782-597.818V825.09m59.781-597.818V825.09m59.782-597.818V825.09m59.782-597.818V825.09m59.781-597.818V825.09m59.782-597.818V825.09m59.782-597.818V825.09m59.782-597.818V825.09M72.23 287.054h597.817M72.23 346.836h597.817M72.23 406.618h597.817M72.23 466.4h597.817M72.23 526.181h597.817M72.23 585.963h597.817M72.23 645.745h597.817M72.23 705.526h597.817M72.23 765.308h597.817" stroke-width="1.5"/><path d="M78.208 227.272V825.09m5.978-597.818V825.09m5.979-597.818V825.09m5.978-597.818V825.09m5.978-597.818V825.09m5.979-597.818V825.09m5.977-597.818V825.09m5.978-597.818V825.09m5.979-597.818V825.09m11.956-597.818V825.09m5.978-597.818V825.09m5.978-597.818V825.09m5.979-597.818V825.09m5.978-597.818V825.09m5.977-597.818V825.09m5.979-597.818V825.09m5.978-597.818V825.09m5.978-597.818V825.09m11.957-597.818V825.09m5.978-597.818V825.09m5.978-597.818V825.09m5.978-597.818V825.09m5.978-597.818V825.09m5.979-597.818V825.09m5.977-597.818V825.09m5.979-597.818V825.09m5.978-597.818V825.09m11.956-597.818V825.09m5.979-597.818V825.09m5.978-597.818V825.09m5.978-597.818V825.09m5.978-597.818V825.09m5.978-597.818V825.09m5.978-597.818V825.09m5.978-597.818V825.09m5.979-597.818V825.09m11.956-597.818V825.09m5.978-597.818V825.09m5.979-597.818V825.09m5.978-597.818V825.09m5.978-597.818V825.09m5.978-597.818V825.09m5.978-597.818V825.09m5.978-597.818V825.09m5.978-597.818V825.09m11.957-597.818V825.09m5.978-597.818V825.09m5.978-597.818V825.09m5.978-597.818V825.09m5.979-597.818V825.09m5.978-597.818V825.09m5.978-597.818V825.09m5.978-597.818V825.09m5.978-597.818V825.09m11.957-597.818V825.09m5.978-597.818V825.09m5.978-597.818V825.09m5.978-597.818V825.09m5.978-597.818V825.09m5.979-597.818V825.09m5.978-597.818V825.09m5.978-597.818V825.09m5.978-597.818V825.09m11.956-597.818V825.09m5.979-597.818V825.09m5.978-597.818V825.09m5.978-597.818V825.09m5.978-597.818V825.09m5.978-597.818V825.09m5.979-597.818V825.09m5.978-597.818V825.09m5.978-597.818V825.09m11.956-597.818V825.09m5.978-597.818V825.09m5.978-597.818V825.09m5.979-597.818V825.09m5.978-597.818V825.09m5.978-597.818V825.09m5.978-597.818V825.09m5.979-597.818V825.09m5.977-597.818V825.09m11.957-597.818V825.09m5.978-597.818V825.09m5.978-597.818V825.09m5.978-597.818V825.09m5.979-597.818V825.09m5.978-597.818V825.09m5.978-597.818V825.09m5.978-597.818V825.09m5.979-597.818V825.09M72.23 233.25h597.817M72.23 239.229h597.817M72.23 245.207h597.817M72.23 251.185h597.817M72.23 257.163h597.817M72.23 263.141h597.817M72.23 269.12h597.817M72.23 275.098h597.817M72.23 281.076h597.817M72.23 293.032h597.817M72.23 299.01h597.817M72.23 304.989h597.817M72.23 310.967h597.817M72.23 316.945h597.817M72.23 322.923h597.817M72.23 328.901h597.817M72.23 334.88h597.817M72.23 340.858h597.817M72.23 352.814h597.817M72.23 358.792h597.817M72.23 364.77h597.817M72.23 370.749h597.817M72.23 376.727h597.817M72.23 382.705h597.817M72.23 388.683h597.817M72.23 394.661h597.817M72.23 400.64h597.817M72.23 412.596h597.817M72.23 418.574h597.817M72.23 424.552h597.817M72.23 430.53h597.817M72.23 436.508h597.817M72.23 442.487h597.817M72.23 448.465h597.817M72.23 454.443h597.817M72.23 460.421h597.817M72.23 472.378h597.817M72.23 478.356h597.817M72.23 484.334h597.817M72.23 490.312h597.817M72.23 496.29h597.817M72.23 502.268h597.817M72.23 508.247h597.817M72.23 514.225h597.817M72.23 520.203h597.817M72.23 532.16h597.817M72.23 538.137h597.817M72.23 544.116h597.817M72.23 550.094h597.817M72.23 556.072h597.817M72.23 562.05h597.817M72.23 568.028h597.817M72.23 574.006h597.817M72.23 579.985h597.817M72.23 591.941h597.817M72.23 597.92h597.817M72.23 603.897h597.817M72.23 609.876h597.817M72.23 615.854h597.817M72.23 621.832h597.817M72.23 627.81h597.817M72.23 633.788h597.817M72.23 639.766h597.817M72.23 651.723h597.817M72.23 657.7h597.817M72.23 663.68h597.817M72.23 669.657h597.817M72.23 675.635h597.817M72.23 681.614h597.817M72.23 687.592h597.817M72.23 693.57h597.817M72.23 699.548h597.817M72.23 711.504h597.817M72.23 717.483h597.817M72.23 723.46h597.817M72.23 729.439h597.817M72.23 735.417h597.817M72.23 741.395h597.817M72.23 747.373h597.817M72.23 753.352h597.817M72.23 759.33h597.817M72.23 771.286h597.817M72.23 777.264h597.817M72.23 783.243h597.817M72.23 789.22h597.817M72.23 795.199h597.817M72.23 801.177h597.817M72.23 807.155h597.817M72.23 813.133h597.817M72.23 819.112h597.817" stroke-width=".5"/><path stroke-width="1.5" d="M72.23 227.272h597.817V825.09H72.23z"/></g><path d="M353.168 182.503c.191-.575.191-.639.191-.958 0-.703-.575-1.086-1.214-1.086-.383 0-1.022.255-1.405.83-.064.256-.448 1.47-.575 2.237-.32 1.022-.575 2.172-.83 3.258l-1.854 7.348c-.128.575-1.917 3.45-4.6 3.45-2.044 0-2.492-1.79-2.492-3.323 0-1.852.703-4.408 2.045-7.986.639-1.661.83-2.108.83-2.939 0-1.789-1.277-3.322-3.322-3.322-3.897 0-5.367 5.942-5.367 6.261 0 .447.384.447.447.447.448 0 .448-.128.64-.766 1.15-3.834 2.747-5.048 4.152-5.048.32 0 1.023 0 1.023 1.278 0 1.022-.448 2.108-.703 2.875-1.661 4.345-2.364 6.645-2.364 8.561 0 3.642 2.555 4.856 4.983 4.856 1.598 0 2.94-.703 4.09-1.853-.512 2.109-1.023 4.153-2.62 6.326-1.086 1.341-2.62 2.555-4.473 2.555-.575 0-2.427-.128-3.13-1.725.639 0 1.214 0 1.725-.511.447-.32.83-.894.83-1.661 0-1.278-1.086-1.406-1.47-1.406-.957 0-2.3.64-2.3 2.62 0 2.044 1.79 3.578 4.345 3.578 4.153 0 8.37-3.706 9.52-8.306zm0 0"/><path d="M383.298 406.674H358.98m24.318-59.782H358.98m24.318-59.782H358.98m24.318-59.781H358.98m24.318 358.691H358.98m24.318 59.78H358.98m24.318 59.783H358.98m24.318 59.781H358.98m24.318 59.782H358.98" stroke-width="1.559" fill="none" stroke="#000"/><path d="M381.019 466.456h-23.913" fill="none" stroke="#000" stroke-width="2"/><path d="M712.712 550.09c.255-1.023 1.214-4.793 4.025-4.793.191 0 1.214 0 2.044.511-1.15.256-1.916 1.214-1.916 2.237 0 .638.447 1.405 1.533 1.405.894 0 2.172-.703 2.172-2.364 0-2.108-2.364-2.683-3.77-2.683-2.363 0-3.769 2.172-4.28 3.067-1.022-2.684-3.195-3.067-4.408-3.067-4.217 0-6.581 5.239-6.581 6.261 0 .447.447.447.51.447.32 0 .448-.127.512-.447 1.406-4.344 4.089-5.367 5.495-5.367.766 0 2.172.384 2.172 2.748 0 1.277-.703 3.96-2.172 9.711-.64 2.492-2.109 4.217-3.898 4.217-.255 0-1.15 0-2.044-.511 1.022-.256 1.916-1.086 1.916-2.236 0-1.087-.894-1.406-1.469-1.406-1.278 0-2.236 1.022-2.236 2.364 0 1.853 1.98 2.683 3.77 2.683 2.747 0 4.216-2.875 4.28-3.066.511 1.469 1.98 3.066 4.409 3.066 4.216 0 6.516-5.239 6.516-6.261 0-.447-.319-.447-.447-.447-.383 0-.447.191-.575.447-1.342 4.408-4.089 5.367-5.367 5.367-1.597 0-2.236-1.278-2.236-2.684 0-.894.192-1.789.64-3.578zm0 0"/><path id="v" d="M25.024 526.181H711.08" fill="none" stroke="#000" stroke-width="3" marker-end="url(#a)"/><path d="M430.92 513.912v23.912" id="b" fill="none" stroke="#000" stroke-width="2"/><use height="1052.362" width="744.094" transform="translate(59.782 -.483)" xlink:href="#b"/><use height="1052.362" width="744.094" transform="translate(119.563)" xlink:href="#b"/><use height="1052.362" width="744.094" transform="translate(179.345)" xlink:href="#b"/><use height="1052.362" width="744.094" transform="translate(-239.127 -.604)" xlink:href="#b"/><use height="1052.362" width="744.094" transform="translate(-298.909 -.483)" xlink:href="#b"/><use height="1052.362" width="744.094" transform="translate(-358.69)" xlink:href="#b"/><use xlink:href="#b" transform="translate(-179.345 -.248)" width="744.094" height="1052.362"/><use xlink:href="#b" transform="translate(-119.563 -.063)" width="1052.362" height="744.094"/><use xlink:href="#b" transform="translate(239.127 -.667)" width="1052.362" height="744.094"/><g transform="translate(-57.847 -82.006) scale(2.5424)" ns0:preamble="/home/waldgeist/data/sphinx/test.tex" ns0:text="$y = x^2$" fill="green" stroke="green" stroke-width="1.18"><defs><symbol id="c" overflow="visible"><path d="M4.844-3.797c.047-.14.047-.156.047-.234 0-.172-.141-.266-.297-.266a.455.455 0 0 0-.344.203c-.016.063-.11.36-.14.547-.079.25-.141.531-.204.797L3.453-.953c-.031.14-.469.844-1.125.844-.5 0-.61-.438-.61-.813 0-.453.173-1.078.5-1.953.157-.406.204-.516.204-.719 0-.437-.313-.812-.813-.812-.953 0-1.312 1.453-1.312 1.531 0 .11.094.11.11.11.109 0 .109-.032.156-.188.28-.938.671-1.235 1.015-1.235.078 0 .25 0 .25.313 0 .25-.11.516-.172.703-.406 1.063-.578 1.625-.578 2.094 0 .89.625 1.187 1.219 1.187.39 0 .719-.171 1-.453-.125.516-.25 1.016-.64 1.547-.266.328-.641.625-1.095.625-.14 0-.593-.031-.765-.422.156 0 .297 0 .422-.125a.493.493 0 0 0 .203-.406c0-.313-.266-.344-.36-.344C.829.531.5.687.5 1.171c0 .5.438.876 1.063.876 1.015 0 2.046-.906 2.328-2.031zm0 0" stroke="none"/></symbol><symbol id="e" overflow="visible"><path d="M3.328-3.016c.063-.25.297-1.171.985-1.171.046 0 .296 0 .5.125a.578.578 0 0 0-.47.546c0 .157.11.344.376.344a.546.546 0 0 0 .531-.578c0-.516-.578-.656-.922-.656-.578 0-.922.531-1.047.75-.25-.656-.781-.75-1.078-.75-1.031 0-1.61 1.281-1.61 1.531 0 .11.11.11.126.11.078 0 .11-.032.125-.11.344-1.063 1-1.313 1.344-1.313.187 0 .53.094.53.672 0 .313-.171.97-.53 2.375-.157.61-.516 1.032-.954 1.032-.062 0-.28 0-.5-.125.25-.063.47-.266.47-.547 0-.266-.22-.344-.36-.344-.313 0-.547.25-.547.578 0 .453.484.656.922.656.672 0 1.031-.703 1.047-.75.125.36.484.75 1.078.75 1.031 0 1.594-1.28 1.594-1.53 0-.11-.079-.11-.11-.11-.094 0-.11.047-.14.11-.329 1.077-1 1.312-1.313 1.312-.39 0-.547-.313-.547-.657 0-.218.047-.437.156-.875zm0 0" stroke="none"/></symbol><symbol id="d" overflow="visible"><path d="M6.844-3.266c.156 0 .343 0 .343-.187 0-.203-.187-.203-.328-.203H.891c-.141 0-.329 0-.329.203 0 .187.188.187.329.187zm.015 1.938c.141 0 .329 0 .329-.203 0-.188-.188-.188-.344-.188H.89c-.141 0-.329 0-.329.188 0 .203.188.203.329.203zm0 0" stroke="none"/></symbol><symbol id="f" overflow="visible"><path d="M3.516-1.266H3.28c-.015.157-.094.563-.187.625-.047.047-.578.047-.688.047h-1.28c.734-.64.984-.844 1.39-1.172.516-.406 1-.843 1-1.5 0-.843-.734-1.359-1.624-1.359-.86 0-1.454.61-1.454 1.25 0 .344.297.39.376.39a.365.365 0 0 0 .359-.374c0-.125-.047-.375-.406-.375.218-.485.687-.641 1.015-.641.703 0 1.063.547 1.063 1.11 0 .609-.438 1.078-.656 1.328L.516-.266C.437-.203.437-.187.437 0h2.876zm0 0" stroke="none"/></symbol></defs><use y="134.765" x="223.432" xlink:href="#c" width="744.094" height="1052.362"/><use y="134.765" x="231.441" xlink:href="#d" width="744.094" height="1052.362"/><use y="134.765" x="241.957" xlink:href="#e" width="744.094" height="1052.362"/><use y="131.15" x="247.651" xlink:href="#f" width="744.094" height="1052.362"/></g><g fill="#4d4d4d" stroke="green" stroke-width="1.18"><g transform="translate(-143.646 216.068) scale(2.5424)" ns0:preamble="/home/waldgeist/data/sphinx/test.tex" ns0:text="$1$"><defs><symbol id="g" overflow="visible"><path d="M2.938-6.375c0-.25 0-.266-.235-.266C2.078-6 1.203-6 .891-6v.313c.203 0 .78 0 1.296-.266v5.172c0 .36-.03.469-.921.469H.953V0c.344-.031 1.203-.031 1.61-.031.39 0 1.265 0 1.609.031v-.313h-.313c-.906 0-.921-.109-.921-.468zm0 0" stroke="none"/></symbol></defs><use height="1052.362" width="744.094" y="134.765" x="223.432" xlink:href="#g"/></g><g ns0:text="$-1$" ns0:preamble="/home/waldgeist/data/sphinx/test.tex" transform="translate(-283.164 216.068) scale(2.5424)"><defs><symbol overflow="visible" id="h"><path d="M6.563-2.297c.171 0 .359 0 .359-.203 0-.188-.188-.188-.36-.188h-5.39c-.172 0-.344 0-.344.188 0 .203.172.203.344.203zm0 0" stroke="none"/></symbol><symbol overflow="visible" id="i"><path d="M2.938-6.375c0-.25 0-.266-.235-.266C2.078-6 1.203-6 .891-6v.313c.203 0 .78 0 1.296-.266v5.172c0 .36-.03.469-.921.469H.953V0c.344-.031 1.203-.031 1.61-.031.39 0 1.265 0 1.609.031v-.313h-.313c-.906 0-.921-.109-.921-.468zm0 0" stroke="none"/></symbol></defs><use height="1052.362" width="744.094" xlink:href="#h" x="223.432" y="134.765"/><use height="1052.362" width="744.094" xlink:href="#i" x="231.181" y="134.765"/></g><g transform="translate(-342.957 216.068) scale(2.5424)" ns0:preamble="/home/waldgeist/data/sphinx/test.tex" ns0:text="$-2$"><defs><symbol id="j" overflow="visible"><path d="M6.563-2.297c.171 0 .359 0 .359-.203 0-.188-.188-.188-.36-.188h-5.39c-.172 0-.344 0-.344.188 0 .203.172.203.344.203zm0 0" stroke="none"/></symbol><symbol id="k" overflow="visible"><path d="M1.266-.766l1.062-1.03c1.547-1.376 2.14-1.907 2.14-2.907 0-1.14-.89-1.938-2.109-1.938A1.843 1.843 0 0 0 .5-4.828c0 .547.5.547.531.547.172 0 .516-.11.516-.532a.513.513 0 0 0-.531-.515c-.079 0-.094 0-.125.016.218-.657.765-1.016 1.343-1.016.907 0 1.329.812 1.329 1.625 0 .797-.485 1.578-1.047 2.203L.609-.375C.5-.265.5-.235.5 0h3.703l.266-1.734h-.235C4.172-1.438 4.11-1 4-.844c-.063.078-.719.078-.938.078zm0 0" stroke="none"/></symbol></defs><use y="134.765" x="223.432" xlink:href="#j" width="744.094" height="1052.362"/><use y="134.765" x="231.181" xlink:href="#k" width="744.094" height="1052.362"/></g><g ns0:text="$-3$" ns0:preamble="/home/waldgeist/data/sphinx/test.tex" transform="translate(-402.267 215.79) scale(2.5424)"><defs><symbol overflow="visible" id="l"><path d="M6.563-2.297c.171 0 .359 0 .359-.203 0-.188-.188-.188-.36-.188h-5.39c-.172 0-.344 0-.344.188 0 .203.172.203.344.203zm0 0" stroke="none"/></symbol><symbol overflow="visible" id="m"><path d="M2.89-3.516c.813-.265 1.391-.953 1.391-1.75 0-.812-.875-1.375-1.828-1.375-1 0-1.765.594-1.765 1.36 0 .328.218.515.515.515.297 0 .5-.218.5-.515 0-.485-.469-.485-.61-.485.298-.5.954-.625 1.313-.625.422 0 .969.22.969 1.11 0 .125-.031.703-.281 1.14-.297.485-.64.516-.89.516a3.29 3.29 0 0 1-.392.031c-.078.016-.14.031-.14.125 0 .11.062.11.234.11h.438c.812 0 1.187.671 1.187 1.656 0 1.36-.687 1.64-1.125 1.64-.437 0-1.187-.171-1.531-.75.344.047.656-.171.656-.546a.537.537 0 0 0-.547-.563c-.25 0-.562.14-.562.578C.422-.437 1.344.22 2.437.22c1.22 0 2.126-.906 2.126-1.922 0-.813-.641-1.594-1.672-1.813zm0 0" stroke="none"/></symbol></defs><use height="1052.362" width="744.094" xlink:href="#l" x="223.432" y="134.765"/><use height="1052.362" width="744.094" xlink:href="#m" x="231.181" y="134.765"/></g><g transform="translate(-464.355 216.207) scale(2.5424)" ns0:preamble="/home/waldgeist/data/sphinx/test.tex" ns0:text="$-4$"><defs><symbol id="n" overflow="visible"><path d="M6.563-2.297c.171 0 .359 0 .359-.203 0-.188-.188-.188-.36-.188h-5.39c-.172 0-.344 0-.344.188 0 .203.172.203.344.203zm0 0" stroke="none"/></symbol><symbol id="o" overflow="visible"><path d="M2.938-1.64v.859c0 .36-.032.469-.766.469h-.203V0c.406-.031.922-.031 1.343-.031.422 0 .938 0 1.36.031v-.313h-.219c-.734 0-.75-.109-.75-.468v-.86h.985v-.312h-.985v-4.531c0-.204 0-.266-.172-.266-.078 0-.11 0-.187.125L.28-1.953v.312zm.046-.313H.563l2.421-3.719zm0 0" stroke="none"/></symbol></defs><use height="1052.362" width="744.094" y="134.765" x="223.432" xlink:href="#n"/><use height="1052.362" width="744.094" y="134.765" x="231.181" xlink:href="#o"/></g><g ns0:text="$-5$" ns0:preamble="/home/waldgeist/data/sphinx/test.tex" transform="translate(-521.854 215.79) scale(2.5424)"><defs><symbol overflow="visible" id="p"><path d="M6.563-2.297c.171 0 .359 0 .359-.203 0-.188-.188-.188-.36-.188h-5.39c-.172 0-.344 0-.344.188 0 .203.172.203.344.203zm0 0" stroke="none"/></symbol><symbol overflow="visible" id="q"><path d="M4.469-2c0-1.188-.813-2.188-1.89-2.188-.47 0-.907.157-1.267.516v-1.953c.204.063.532.125.844.125 1.235 0 1.938-.906 1.938-1.031 0-.063-.032-.11-.11-.11 0 0-.03 0-.078.032a3.22 3.22 0 0 1-1.36.296 3.4 3.4 0 0 1-1.327-.28c-.078-.032-.094-.032-.11-.032C1-6.625 1-6.547 1-6.391v2.954c0 .171 0 .25.14.25.079 0 .094-.016.141-.079.11-.156.469-.703 1.282-.703.515 0 .765.453.843.64.156.376.188.75.188 1.25 0 .36 0 .954-.25 1.376-.235.39-.61.64-1.063.64-.719 0-1.297-.53-1.469-1.109.032 0 .063.016.172.016.329 0 .5-.25.5-.485 0-.25-.171-.5-.5-.5-.14 0-.484.079-.484.532C.5-.75 1.188.219 2.297.219 3.453.219 4.469-.734 4.469-2zm0 0" stroke="none"/></symbol></defs><use height="1052.362" width="744.094" xlink:href="#p" x="223.432" y="134.765"/><use height="1052.362" width="744.094" xlink:href="#q" x="231.181" y="134.765"/></g><g transform="translate(-83.732 216.068) scale(2.5424)" ns0:preamble="/home/waldgeist/data/sphinx/test.tex" ns0:text="$2$"><defs><symbol id="r" overflow="visible"><path d="M1.266-.766l1.062-1.03c1.547-1.376 2.14-1.907 2.14-2.907 0-1.14-.89-1.938-2.109-1.938A1.843 1.843 0 0 0 .5-4.828c0 .547.5.547.531.547.172 0 .516-.11.516-.532a.513.513 0 0 0-.531-.515c-.079 0-.094 0-.125.016.218-.657.765-1.016 1.343-1.016.907 0 1.329.812 1.329 1.625 0 .797-.485 1.578-1.047 2.203L.609-.375C.5-.265.5-.235.5 0h3.703l.266-1.734h-.235C4.172-1.438 4.11-1 4-.844c-.063.078-.719.078-.938.078zm0 0" stroke="none"/></symbol></defs><use y="134.765" x="223.432" xlink:href="#r" transform="translate(-.019)" width="744.094" height="1052.362"/></g><g ns0:text="$3$" ns0:preamble="/home/waldgeist/data/sphinx/test.tex" transform="translate(-24.482 215.79) scale(2.5424)"><defs><symbol overflow="visible" id="s"><path d="M2.89-3.516c.813-.265 1.391-.953 1.391-1.75 0-.812-.875-1.375-1.828-1.375-1 0-1.765.594-1.765 1.36 0 .328.218.515.515.515.297 0 .5-.218.5-.515 0-.485-.469-.485-.61-.485.298-.5.954-.625 1.313-.625.422 0 .969.22.969 1.11 0 .125-.031.703-.281 1.14-.297.485-.64.516-.89.516a3.29 3.29 0 0 1-.392.031c-.078.016-.14.031-.14.125 0 .11.062.11.234.11h.438c.812 0 1.187.671 1.187 1.656 0 1.36-.687 1.64-1.125 1.64-.437 0-1.187-.171-1.531-.75.344.047.656-.171.656-.546a.537.537 0 0 0-.547-.563c-.25 0-.562.14-.562.578C.422-.437 1.344.22 2.437.22c1.22 0 2.126-.906 2.126-1.922 0-.813-.641-1.594-1.672-1.813zm0 0" stroke="none"/></symbol></defs><use height="1052.362" width="744.094" xlink:href="#s" x="223.432" y="134.765"/></g><g transform="translate(33.62 216.207) scale(2.5424)" ns0:preamble="/home/waldgeist/data/sphinx/test.tex" ns0:text="$4$"><defs><symbol id="t" overflow="visible"><path d="M2.938-1.64v.859c0 .36-.032.469-.766.469h-.203V0c.406-.031.922-.031 1.343-.031.422 0 .938 0 1.36.031v-.313h-.219c-.734 0-.75-.109-.75-.468v-.86h.985v-.312h-.985v-4.531c0-.204 0-.266-.172-.266-.078 0-.11 0-.187.125L.28-1.953v.312zm.046-.313H.563l2.421-3.719zm0 0" stroke="none"/></symbol></defs><use y="134.765" x="223.432" xlink:href="#t" width="744.094" height="1052.362"/></g><g ns0:text="$5$" ns0:preamble="/home/waldgeist/data/sphinx/test.tex" transform="translate(95.588 215.79) scale(2.5424)"><defs><symbol overflow="visible" id="u"><path d="M4.469-2c0-1.188-.813-2.188-1.89-2.188-.47 0-.907.157-1.267.516v-1.953c.204.063.532.125.844.125 1.235 0 1.938-.906 1.938-1.031 0-.063-.032-.11-.11-.11 0 0-.03 0-.078.032a3.22 3.22 0 0 1-1.36.296 3.4 3.4 0 0 1-1.327-.28c-.078-.032-.094-.032-.11-.032C1-6.625 1-6.547 1-6.391v2.954c0 .171 0 .25.14.25.079 0 .094-.016.141-.079.11-.156.469-.703 1.282-.703.515 0 .765.453.843.64.156.376.188.75.188 1.25 0 .36 0 .954-.25 1.376-.235.39-.61.64-1.063.64-.719 0-1.297-.53-1.469-1.109.032 0 .063.016.172.016.329 0 .5-.25.5-.485 0-.25-.171-.5-.5-.5-.14 0-.484.079-.484.532C.5-.75 1.188.219 2.297.219 3.453.219 4.469-.734 4.469-2zm0 0" stroke="none"/></symbol></defs><use height="1052.362" width="744.094" xlink:href="#u" x="223.432" y="134.765"/></g></g><g fill="#4d4d4d" stroke="green" stroke-width="1.18"><g ns0:preamble="/home/waldgeist/data/sphinx/test.tex" ns0:text="$-1$" transform="translate(-245.004 251.833) scale(2.5424)"><use y="134.765" x="223.432" xlink:href="#h" width="744.094" height="1052.362"/><use y="134.765" x="231.181" xlink:href="#i" width="744.094" height="1052.362"/></g><g ns0:text="$-2$" ns0:preamble="/home/waldgeist/data/sphinx/test.tex" transform="translate(-245.759 311.615) scale(2.5424)"><use height="1052.362" width="744.094" xlink:href="#j" x="223.432" y="134.765"/><use height="1052.362" width="744.094" xlink:href="#k" x="231.181" y="134.765"/></g><g ns0:preamble="/home/waldgeist/data/sphinx/test.tex" ns0:text="$-3$" transform="translate(-245.997 371.118) scale(2.5424)"><use y="134.765" x="223.432" xlink:href="#l" width="744.094" height="1052.362"/><use y="134.765" x="231.181" xlink:href="#m" width="744.094" height="1052.362"/></g><g ns0:text="$-4$" ns0:preamble="/home/waldgeist/data/sphinx/test.tex" transform="translate(-246.315 431.317) scale(2.5424)"><use xlink:href="#n" x="223.432" y="134.765" width="744.094" height="1052.362"/><use xlink:href="#o" x="231.181" y="134.765" width="744.094" height="1052.362"/></g><g ns0:preamble="/home/waldgeist/data/sphinx/test.tex" ns0:text="$-5$" transform="translate(-245.759 490.682) scale(2.5424)"><use y="134.765" x="223.432" xlink:href="#p" width="744.094" height="1052.362"/><use y="134.765" x="231.181" xlink:href="#q" width="744.094" height="1052.362"/></g><use xlink:href="#g" x="223.432" y="134.765" width="744.094" height="1052.362" transform="translate(-225.303 132.27) scale(2.5424)" ns0:text="$1$" ns0:preamble="/home/waldgeist/data/sphinx/test.tex"/><use height="1052.362" width="744.094" transform="translate(-226.058 72.488) scale(2.5424)" xlink:href="#r" x="223.432" y="134.765" ns0:text="$2$" ns0:preamble="/home/waldgeist/data/sphinx/test.tex"/><use y="134.765" x="223.432" xlink:href="#s" width="744.094" height="1052.362" transform="translate(-226.296 12.428) scale(2.5424)" ns0:preamble="/home/waldgeist/data/sphinx/test.tex" ns0:text="$3$"/><use height="1052.362" width="744.094" xlink:href="#t" x="223.432" y="134.765" transform="translate(-226.614 -46.937) scale(2.5424)" ns0:text="$4$" ns0:preamble="/home/waldgeist/data/sphinx/test.tex"/><use y="134.765" x="223.432" xlink:href="#u" width="744.094" height="1052.362" transform="translate(-226.058 -107.135) scale(2.5424)" ns0:preamble="/home/waldgeist/data/sphinx/test.tex" ns0:text="$5$"/></g><use xlink:href="#v" transform="rotate(-90 371.139 526.181)" width="744.094" height="1052.362"/><path d="M371.162 525.78c49.503-.92 92.905-117.997 132.978-298.477M371.115 525.78c-49.502-.92-92.905-117.997-132.978-298.477" fill="none" stroke="green" stroke-width="3" stroke-linecap="round"/></svg>