<svg xmlns:ns0="http://www.iki.fi/pav/software/textext/" xmlns="http://www.w3.org/2000/svg" xmlns:xlink="http://www.w3.org/1999/xlink" width="744.094" height="1052.362"><title>Nullstellen einer Funktion</title><defs><marker id="a" orient="auto" overflow="visible"><path d="M2.308 0l-3.46 2v-4l3.46 2z" fill-rule="evenodd" stroke="#000" stroke-width=".4pt"/></marker></defs><path fill="#fff" stroke="#fff" stroke-width="2" stroke-linecap="round" d="M2.914 139.609H741.18v773.145H2.914z"/><g transform="translate(-575.239 128.115) scale(4.62289)" fill="green"><use height="1052.362" width="744.094" xlink:href="#textext-082fa4b4-3" x="231.736" y="134.765"/><use height="1052.362" width="744.094" xlink:href="#textext-082fa4b4-3" x="231.736" y="134.765"/><g ns0:text="$\\Delta \\vec{r} = \\vec{r}_{\\rm{2}} - \\vec{r}_{\\rm{1}} $" ns0:preamble="/home/waldgeist/data/sphinx/test.tex"><use height="1052.362" width="744.094" xlink:href="#textext-082fa4b4-0" x="223.432" y="134.765"/><use height="1052.362" width="744.094" xlink:href="#textext-082fa4b4-2" x="231.417" y="134.765"/><use height="1052.362" width="744.094" xlink:href="#textext-082fa4b4-3" x="231.736" y="134.765"/><use height="1052.362" width="744.094" xlink:href="#textext-082fa4b4-1" x="239.273" y="134.765"/><use height="1052.362" width="744.094" xlink:href="#textext-082fa4b4-2" x="249.472" y="134.765"/><use height="1052.362" width="744.094" xlink:href="#textext-082fa4b4-3" x="249.791" y="134.765"/><use height="1052.362" width="744.094" xlink:href="#textext-082fa4b4-4" x="254.284" y="136.259"/><use height="1052.362" width="744.094" xlink:href="#textext-082fa4b4-6" x="260.967" y="134.765"/><use height="1052.362" width="744.094" xlink:href="#textext-082fa4b4-2" x="270.612" y="134.765"/><use height="1052.362" width="744.094" xlink:href="#textext-082fa4b4-3" x="270.931" y="134.765"/><use height="1052.362" width="744.094" xlink:href="#textext-082fa4b4-5" x="275.425" y="136.259"/></g><g ns0:text="$\\Delta \\vec{r} = \\vec{r}_{\\rm{2}} - \\vec{r}_{\\rm{1}} $" ns0:preamble="/home/waldgeist/data/sphinx/test.tex"><use height="1052.362" width="744.094" xlink:href="#textext-082fa4b4-0" x="223.432" y="134.765"/><use height="1052.362" width="744.094" xlink:href="#textext-082fa4b4-2" x="231.417" y="134.765"/><use height="1052.362" width="744.094" xlink:href="#textext-082fa4b4-3" x="231.736" y="134.765"/><use height="1052.362" width="744.094" xlink:href="#textext-082fa4b4-1" x="239.273" y="134.765"/><use height="1052.362" width="744.094" xlink:href="#textext-082fa4b4-2" x="249.472" y="134.765"/><use height="1052.362" width="744.094" xlink:href="#textext-082fa4b4-3" x="249.791" y="134.765"/><use height="1052.362" width="744.094" xlink:href="#textext-082fa4b4-4" x="254.284" y="136.259"/><use height="1052.362" width="744.094" xlink:href="#textext-082fa4b4-6" x="260.967" y="134.765"/><use height="1052.362" width="744.094" xlink:href="#textext-082fa4b4-2" x="270.612" y="134.765"/><use height="1052.362" width="744.094" xlink:href="#textext-082fa4b4-3" x="270.931" y="134.765"/><use height="1052.362" width="744.094" xlink:href="#textext-082fa4b4-5" x="275.425" y="136.259"/></g><g ns0:text="$\\Delta \\vec{r} = \\vec{r}_{\\rm{2}} - \\vec{r}_{\\rm{1}} $" ns0:preamble="/home/waldgeist/data/sphinx/test.tex"><use height="1052.362" width="744.094" xlink:href="#textext-082fa4b4-0" x="223.432" y="134.765"/><use height="1052.362" width="744.094" xlink:href="#textext-082fa4b4-2" x="231.417" y="134.765"/><use height="1052.362" width="744.094" xlink:href="#textext-082fa4b4-3" x="231.736" y="134.765"/><use height="1052.362" width="744.094" xlink:href="#textext-082fa4b4-1" x="239.273" y="134.765"/><use height="1052.362" width="744.094" xlink:href="#textext-082fa4b4-2" x="249.472" y="134.765"/><use height="1052.362" width="744.094" xlink:href="#textext-082fa4b4-3" x="249.791" y="134.765"/><use height="1052.362" width="744.094" xlink:href="#textext-082fa4b4-4" x="254.284" y="136.259"/><use height="1052.362" width="744.094" xlink:href="#textext-082fa4b4-6" x="260.967" y="134.765"/><use height="1052.362" width="744.094" xlink:href="#textext-082fa4b4-2" x="270.612" y="134.765"/><use height="1052.362" width="744.094" xlink:href="#textext-082fa4b4-3" x="270.931" y="134.765"/><use height="1052.362" width="744.094" xlink:href="#textext-082fa4b4-5" x="275.425" y="136.259"/></g></g><path fill="#fff" stroke="#fff" stroke-width="3" stroke-linecap="round" d="M2.914 139.609H741.18v773.145H2.914z"/><g stroke="#ccc" stroke-width="1.016" fill="none"><path d="M132.303 226.5v599.362M192.239 226.5v599.362M252.175 226.5v599.362M312.111 226.5v599.362M372.047 226.5v599.362M431.983 226.5v599.362M491.92 226.5v599.362M551.856 226.5v599.362M611.792 226.5v599.362M72.366 286.436h599.362M72.366 346.373h599.362M72.366 406.309h599.362M72.366 466.245h599.362M72.366 526.181h599.362M72.366 586.117h599.362M72.366 646.053h599.362M72.366 705.99h599.362M72.366 765.926h599.362" stroke-width="1.5"/><path d="M78.36 226.5v599.362M84.354 226.5v599.362M90.347 226.5v599.362M96.34 226.5v599.362m5.994-599.362v599.362m5.994-599.362v599.362m5.994-599.362v599.362m5.993-599.362v599.362m5.994-599.362v599.362M138.296 226.5v599.362M144.29 226.5v599.362m5.993-599.362v599.362m5.994-599.362v599.362M162.27 226.5v599.362m5.994-599.362v599.362m5.994-599.362v599.362m5.993-599.362v599.362m5.994-599.362v599.362M198.232 226.5v599.362m5.994-599.362v599.362M210.22 226.5v599.362m5.993-599.362v599.362m5.994-599.362v599.362M228.2 226.5v599.362m5.994-599.362v599.362m5.994-599.362v599.362m5.993-599.362v599.362M258.169 226.5v599.362m5.993-599.362v599.362m5.994-599.362v599.362M276.15 226.5v599.362m5.993-599.362v599.362m5.994-599.362v599.362M294.13 226.5v599.362m5.994-599.362v599.362m5.993-599.362v599.362M318.105 226.5v599.362m5.993-599.362v599.362m5.994-599.362v599.362m5.994-599.362v599.362M342.08 226.5v599.362m5.993-599.362v599.362m5.993-599.362v599.362M360.06 226.5v599.362m5.994-599.362v599.362M378.04 226.5v599.362m5.994-599.362v599.362m5.994-599.362v599.362m5.994-599.362v599.362m5.993-599.362v599.362m5.994-599.362v599.362m5.994-599.362v599.362m5.993-599.362v599.362M425.99 226.5v599.362M437.977 226.5v599.362M443.97 226.5v599.362m5.994-599.362v599.362m5.994-599.362v599.362m5.993-599.362v599.362m5.994-599.362v599.362m5.994-599.362v599.362m5.993-599.362v599.362m5.994-599.362v599.362M497.913 226.5v599.362m5.994-599.362v599.362M509.9 226.5v599.362m5.994-599.362v599.362m5.994-599.362v599.362m5.993-599.362v599.362m5.994-599.362v599.362m5.994-599.362v599.362m5.993-599.362v599.362M557.85 226.5v599.362m5.993-599.362v599.362m5.994-599.362v599.362M575.83 226.5v599.362m5.994-599.362v599.362m5.993-599.362v599.362m5.994-599.362v599.362m5.994-599.362v599.362m5.993-599.362v599.362M617.786 226.5v599.362M623.78 226.5v599.362m5.993-599.362v599.362m5.993-599.362v599.362M641.76 226.5v599.362m5.994-599.362v599.362m5.993-599.362v599.362M659.74 226.5v599.362m5.994-599.362v599.362M72.366 232.494h599.362m-599.362 5.993h599.362m-599.362 5.994h599.362m-599.362 5.994h599.362m-599.362 5.993h599.362m-599.362 5.994h599.362m-599.362 5.994h599.362M72.366 274.45h599.362m-599.362 5.993h599.362M72.366 292.43h599.362m-599.362 5.994h599.362m-599.362 5.993h599.362M72.366 310.41h599.362m-599.362 5.994h599.362m-599.362 5.994h599.362m-599.362 5.994h599.362m-599.362 5.993h599.362m-599.362 5.994h599.362M72.366 352.366h599.362M72.366 358.36h599.362m-599.362 5.993h599.362m-599.362 5.994h599.362M72.366 376.34h599.362m-599.362 5.994h599.362m-599.362 5.994h599.362m-599.362 5.994h599.362m-599.362 5.993h599.362M72.366 412.302h599.362m-599.362 5.994h599.362M72.366 424.29h599.362m-599.362 5.993h599.362m-599.362 5.994h599.362M72.366 442.27h599.362m-599.362 5.994h599.362m-599.362 5.994h599.362m-599.362 5.993h599.362M72.366 472.239h599.362m-599.362 5.993h599.362m-599.362 5.994h599.362M72.366 490.22h599.362m-599.362 5.993h599.362m-599.362 5.994h599.362M72.366 508.2h599.362m-599.362 5.994h599.362m-599.362 5.993h599.362M72.366 532.175h599.362m-599.362 5.993h599.362m-599.362 5.994h599.362m-599.362 5.994h599.362M72.366 556.15h599.362m-599.362 5.993h599.362m-599.362 5.993h599.362M72.366 574.13h599.362m-599.362 5.994h599.362M72.366 592.11h599.362m-599.362 5.995h599.362m-599.362 5.993h599.362m-599.362 5.994h599.362m-599.362 5.993h599.362m-599.362 5.994h599.362m-599.362 5.994h599.362m-599.362 5.993h599.362M72.366 640.06h599.362M72.366 652.047h599.362M72.366 658.04h599.362m-599.362 5.994h599.362m-599.362 5.994h599.362m-599.362 5.994h599.362m-599.362 5.993h599.362m-599.362 5.994h599.362m-599.362 5.993h599.362m-599.362 5.994h599.362M72.366 711.983h599.362m-599.362 5.994h599.362M72.366 723.97h599.362m-599.362 5.994h599.362m-599.362 5.994h599.362m-599.362 5.993h599.362m-599.362 5.994h599.362m-599.362 5.994h599.362m-599.362 5.993h599.362M72.366 771.92h599.362m-599.362 5.993h599.362m-599.362 5.994h599.362M72.366 789.9h599.362m-599.362 5.994h599.362m-599.362 5.993h599.362m-599.362 5.994h599.362m-599.362 5.994h599.362m-599.362 5.993h599.362" stroke-width=".5"/><path stroke-width="1.5" d="M72.366 226.5h599.362v599.362H72.366z"/></g><path d="M354.03 181.616c.192-.577.192-.641.192-.961 0-.705-.577-1.09-1.217-1.09-.385 0-1.025.257-1.41.833-.064.257-.448 1.474-.576 2.242-.32 1.025-.577 2.178-.833 3.267l-1.857 7.367c-.129.576-1.922 3.459-4.612 3.459-2.05 0-2.499-1.794-2.499-3.331 0-1.858.705-4.42 2.05-8.007.64-1.666.833-2.114.833-2.947 0-1.793-1.281-3.33-3.331-3.33-3.907 0-5.38 5.957-5.38 6.277 0 .448.384.448.448.448.448 0 .448-.128.64-.768 1.153-3.844 2.755-5.06 4.164-5.06.32 0 1.025 0 1.025 1.28 0 1.025-.449 2.114-.705 2.883-1.665 4.356-2.37 6.662-2.37 8.583 0 3.651 2.562 4.869 4.996 4.869 1.602 0 2.947-.705 4.1-1.858-.512 2.114-1.025 4.164-2.626 6.341-1.09 1.346-2.627 2.563-4.484 2.563-.577 0-2.434-.128-3.139-1.73.64 0 1.217 0 1.73-.512.448-.32.832-.897.832-1.666 0-1.28-1.089-1.409-1.473-1.409-.96 0-2.306.64-2.306 2.626 0 2.05 1.794 3.588 4.356 3.588 4.163 0 8.391-3.716 9.544-8.328zm0 0"/><path d="M384.238 406.365h-24.382m24.382-59.935h-24.382m24.382-59.937h-24.382m24.382-59.936h-24.382m24.382 359.617h-24.382m24.382 59.936h-24.382m24.382 59.936h-24.382m24.382 59.936h-24.382m24.382 59.936h-24.382" stroke-width="1.558" fill="none" stroke="#000"/><path d="M381.953 466.301h-23.975" fill="none" stroke="#000" stroke-width="2"/><path d="M714.503 550.15c.256-1.024 1.217-4.803 4.035-4.803.192 0 1.217 0 2.05.512-1.153.256-1.922 1.217-1.922 2.242 0 .64.449 1.41 1.538 1.41.896 0 2.178-.705 2.178-2.37 0-2.115-2.37-2.691-3.78-2.691-2.37 0-3.78 2.178-4.292 3.075-1.024-2.69-3.202-3.075-4.42-3.075-4.227 0-6.597 5.252-6.597 6.277 0 .449.448.449.512.449.32 0 .449-.128.513-.449 1.409-4.355 4.1-5.38 5.509-5.38.768 0 2.177.384 2.177 2.754 0 1.281-.704 3.972-2.177 9.737-.641 2.498-2.114 4.227-3.908 4.227-.256 0-1.153 0-2.05-.512 1.025-.256 1.922-1.09 1.922-2.242 0-1.09-.897-1.41-1.473-1.41-1.281 0-2.242 1.026-2.242 2.37 0 1.858 1.985 2.691 3.779 2.691 2.754 0 4.228-2.882 4.292-3.075.512 1.474 1.986 3.075 4.42 3.075 4.227 0 6.533-5.253 6.533-6.277 0-.449-.32-.449-.448-.449-.384 0-.448.192-.577.449-1.345 4.42-4.1 5.38-5.38 5.38-1.602 0-2.242-1.28-2.242-2.69 0-.897.192-1.794.64-3.587zm0 0"/><path d="M25.039 526.181h687.827" id="r" fill="none" stroke="#000" stroke-width="3" marker-end="url(#a)"/><path id="b" d="M431.983 513.88v23.975" fill="none" stroke="#000" stroke-width="2"/><use xlink:href="#b" transform="translate(59.936 -.484)" width="744.094" height="1052.362"/><use xlink:href="#b" transform="translate(119.872)" width="744.094" height="1052.362"/><use xlink:href="#b" transform="translate(179.809)" width="744.094" height="1052.362"/><use xlink:href="#b" transform="translate(-239.745 -.606)" width="744.094" height="1052.362"/><use xlink:href="#b" transform="translate(-299.68 -.484)" width="744.094" height="1052.362"/><use xlink:href="#b" transform="translate(-359.617)" width="744.094" height="1052.362"/><use height="1052.362" width="744.094" transform="translate(-179.809 -.248)" xlink:href="#b"/><use height="744.094" width="1052.362" transform="translate(-119.872 -.064)" xlink:href="#b"/><use height="744.094" width="1052.362" transform="translate(239.745 -.67)" xlink:href="#b"/><g fill="#4d4d4d" stroke="green" stroke-width="1.177"><g ns0:text="$1$" ns0:preamble="/home/waldgeist/data/sphinx/test.tex" transform="translate(-144.067 215.267) scale(2.54898)"><defs><symbol overflow="visible" id="c"><path d="M2.938-6.375c0-.25 0-.266-.235-.266C2.078-6 1.203-6 .891-6v.313c.203 0 .78 0 1.296-.266v5.172c0 .36-.03.469-.921.469H.953V0c.344-.031 1.203-.031 1.61-.031.39 0 1.265 0 1.609.031v-.313h-.313c-.906 0-.921-.109-.921-.468zm0 0" stroke="none"/></symbol></defs><use xlink:href="#c" x="223.432" y="134.765" width="744.094" height="1052.362"/></g><g transform="translate(-283.945 215.267) scale(2.54898)" ns0:preamble="/home/waldgeist/data/sphinx/test.tex" ns0:text="$-1$"><defs><symbol id="d" overflow="visible"><path d="M6.563-2.297c.171 0 .359 0 .359-.203 0-.188-.188-.188-.36-.188h-5.39c-.172 0-.344 0-.344.188 0 .203.172.203.344.203zm0 0" stroke="none"/></symbol><symbol id="e" overflow="visible"><path d="M2.938-6.375c0-.25 0-.266-.235-.266C2.078-6 1.203-6 .891-6v.313c.203 0 .78 0 1.296-.266v5.172c0 .36-.03.469-.921.469H.953V0c.344-.031 1.203-.031 1.61-.031.39 0 1.265 0 1.609.031v-.313h-.313c-.906 0-.921-.109-.921-.468zm0 0" stroke="none"/></symbol></defs><use y="134.765" x="223.432" xlink:href="#d" width="744.094" height="1052.362"/><use y="134.765" x="231.181" xlink:href="#e" width="744.094" height="1052.362"/></g><g ns0:text="$-2$" ns0:preamble="/home/waldgeist/data/sphinx/test.tex" transform="translate(-343.893 215.267) scale(2.54898)"><defs><symbol overflow="visible" id="f"><path d="M6.563-2.297c.171 0 .359 0 .359-.203 0-.188-.188-.188-.36-.188h-5.39c-.172 0-.344 0-.344.188 0 .203.172.203.344.203zm0 0" stroke="none"/></symbol><symbol overflow="visible" id="g"><path d="M1.266-.766l1.062-1.03c1.547-1.376 2.14-1.907 2.14-2.907 0-1.14-.89-1.938-2.109-1.938A1.843 1.843 0 0 0 .5-4.828c0 .547.5.547.531.547.172 0 .516-.11.516-.532a.513.513 0 0 0-.531-.515c-.079 0-.094 0-.125.016.218-.657.765-1.016 1.343-1.016.907 0 1.329.812 1.329 1.625 0 .797-.485 1.578-1.047 2.203L.609-.375C.5-.265.5-.235.5 0h3.703l.266-1.734h-.235C4.172-1.438 4.11-1 4-.844c-.063.078-.719.078-.938.078zm0 0" stroke="none"/></symbol></defs><use height="1052.362" width="744.094" xlink:href="#f" x="223.432" y="134.765"/><use height="1052.362" width="744.094" xlink:href="#g" x="231.181" y="134.765"/></g><g transform="translate(-403.357 214.988) scale(2.54898)" ns0:preamble="/home/waldgeist/data/sphinx/test.tex" ns0:text="$-3$"><defs><symbol id="h" overflow="visible"><path d="M6.563-2.297c.171 0 .359 0 .359-.203 0-.188-.188-.188-.36-.188h-5.39c-.172 0-.344 0-.344.188 0 .203.172.203.344.203zm0 0" stroke="none"/></symbol><symbol id="i" overflow="visible"><path d="M2.89-3.516c.813-.265 1.391-.953 1.391-1.75 0-.812-.875-1.375-1.828-1.375-1 0-1.765.594-1.765 1.36 0 .328.218.515.515.515.297 0 .5-.218.5-.515 0-.485-.469-.485-.61-.485.298-.5.954-.625 1.313-.625.422 0 .969.22.969 1.11 0 .125-.031.703-.281 1.14-.297.485-.64.516-.89.516a3.29 3.29 0 0 1-.392.031c-.078.016-.14.031-.14.125 0 .11.062.11.234.11h.438c.812 0 1.187.671 1.187 1.656 0 1.36-.687 1.64-1.125 1.64-.437 0-1.187-.171-1.531-.75.344.047.656-.171.656-.546a.537.537 0 0 0-.547-.563c-.25 0-.562.14-.562.578C.422-.437 1.344.22 2.437.22c1.22 0 2.126-.906 2.126-1.922 0-.813-.641-1.594-1.672-1.813zm0 0" stroke="none"/></symbol></defs><use y="134.765" x="223.432" xlink:href="#h" width="744.094" height="1052.362"/><use y="134.765" x="231.181" xlink:href="#i" width="744.094" height="1052.362"/></g><g ns0:text="$-4$" ns0:preamble="/home/waldgeist/data/sphinx/test.tex" transform="translate(-465.605 215.406) scale(2.54898)"><defs><symbol overflow="visible" id="j"><path d="M6.563-2.297c.171 0 .359 0 .359-.203 0-.188-.188-.188-.36-.188h-5.39c-.172 0-.344 0-.344.188 0 .203.172.203.344.203zm0 0" stroke="none"/></symbol><symbol overflow="visible" id="k"><path d="M2.938-1.64v.859c0 .36-.032.469-.766.469h-.203V0c.406-.031.922-.031 1.343-.031.422 0 .938 0 1.36.031v-.313h-.219c-.734 0-.75-.109-.75-.468v-.86h.985v-.312h-.985v-4.531c0-.204 0-.266-.172-.266-.078 0-.11 0-.187.125L.28-1.953v.312zm.046-.313H.563l2.421-3.719zm0 0" stroke="none"/></symbol></defs><use xlink:href="#j" x="223.432" y="134.765" width="744.094" height="1052.362"/><use xlink:href="#k" x="231.181" y="134.765" width="744.094" height="1052.362"/></g><g transform="translate(-523.252 214.988) scale(2.54898)" ns0:preamble="/home/waldgeist/data/sphinx/test.tex" ns0:text="$-5$"><defs><symbol id="l" overflow="visible"><path d="M6.563-2.297c.171 0 .359 0 .359-.203 0-.188-.188-.188-.36-.188h-5.39c-.172 0-.344 0-.344.188 0 .203.172.203.344.203zm0 0" stroke="none"/></symbol><symbol id="m" overflow="visible"><path d="M4.469-2c0-1.188-.813-2.188-1.89-2.188-.47 0-.907.157-1.267.516v-1.953c.204.063.532.125.844.125 1.235 0 1.938-.906 1.938-1.031 0-.063-.032-.11-.11-.11 0 0-.03 0-.078.032a3.22 3.22 0 0 1-1.36.296 3.4 3.4 0 0 1-1.327-.28c-.078-.032-.094-.032-.11-.032C1-6.625 1-6.547 1-6.391v2.954c0 .171 0 .25.14.25.079 0 .094-.016.141-.079.11-.156.469-.703 1.282-.703.515 0 .765.453.843.64.156.376.188.75.188 1.25 0 .36 0 .954-.25 1.376-.235.39-.61.64-1.063.64-.719 0-1.297-.53-1.469-1.109.032 0 .063.016.172.016.329 0 .5-.25.5-.485 0-.25-.171-.5-.5-.5-.14 0-.484.079-.484.532C.5-.75 1.188.219 2.297.219 3.453.219 4.469-.734 4.469-2zm0 0" stroke="none"/></symbol></defs><use y="134.765" x="223.432" xlink:href="#l" width="744.094" height="1052.362"/><use y="134.765" x="231.181" xlink:href="#m" width="744.094" height="1052.362"/></g><g ns0:text="$2$" ns0:preamble="/home/waldgeist/data/sphinx/test.tex" transform="translate(-83.998 215.267) scale(2.54898)"><defs><symbol overflow="visible" id="n"><path d="M1.266-.766l1.062-1.03c1.547-1.376 2.14-1.907 2.14-2.907 0-1.14-.89-1.938-2.109-1.938A1.843 1.843 0 0 0 .5-4.828c0 .547.5.547.531.547.172 0 .516-.11.516-.532a.513.513 0 0 0-.531-.515c-.079 0-.094 0-.125.016.218-.657.765-1.016 1.343-1.016.907 0 1.329.812 1.329 1.625 0 .797-.485 1.578-1.047 2.203L.609-.375C.5-.265.5-.235.5 0h3.703l.266-1.734h-.235C4.172-1.438 4.11-1 4-.844c-.063.078-.719.078-.938.078zm0 0" stroke="none"/></symbol></defs><use height="1052.362" width="744.094" transform="translate(-.019)" xlink:href="#n" x="223.432" y="134.765"/></g><g transform="translate(-24.596 214.988) scale(2.54898)" ns0:preamble="/home/waldgeist/data/sphinx/test.tex" ns0:text="$3$"><defs><symbol id="o" overflow="visible"><path d="M2.89-3.516c.813-.265 1.391-.953 1.391-1.75 0-.812-.875-1.375-1.828-1.375-1 0-1.765.594-1.765 1.36 0 .328.218.515.515.515.297 0 .5-.218.5-.515 0-.485-.469-.485-.61-.485.298-.5.954-.625 1.313-.625.422 0 .969.22.969 1.11 0 .125-.031.703-.281 1.14-.297.485-.64.516-.89.516a3.29 3.29 0 0 1-.392.031c-.078.016-.14.031-.14.125 0 .11.062.11.234.11h.438c.812 0 1.187.671 1.187 1.656 0 1.36-.687 1.64-1.125 1.64-.437 0-1.187-.171-1.531-.75.344.047.656-.171.656-.546a.537.537 0 0 0-.547-.563c-.25 0-.562.14-.562.578C.422-.437 1.344.22 2.437.22c1.22 0 2.126-.906 2.126-1.922 0-.813-.641-1.594-1.672-1.813zm0 0" stroke="none"/></symbol></defs><use y="134.765" x="223.432" xlink:href="#o" width="744.094" height="1052.362"/></g><g ns0:text="$4$" ns0:preamble="/home/waldgeist/data/sphinx/test.tex" transform="translate(33.657 215.406) scale(2.54898)"><defs><symbol overflow="visible" id="p"><path d="M2.938-1.64v.859c0 .36-.032.469-.766.469h-.203V0c.406-.031.922-.031 1.343-.031.422 0 .938 0 1.36.031v-.313h-.219c-.734 0-.75-.109-.75-.468v-.86h.985v-.312h-.985v-4.531c0-.204 0-.266-.172-.266-.078 0-.11 0-.187.125L.28-1.953v.312zm.046-.313H.563l2.421-3.719zm0 0" stroke="none"/></symbol></defs><use height="1052.362" width="744.094" xlink:href="#p" x="223.432" y="134.765"/></g><g transform="translate(95.784 214.988) scale(2.54898)" ns0:preamble="/home/waldgeist/data/sphinx/test.tex" ns0:text="$5$"><defs><symbol id="q" overflow="visible"><path d="M4.469-2c0-1.188-.813-2.188-1.89-2.188-.47 0-.907.157-1.267.516v-1.953c.204.063.532.125.844.125 1.235 0 1.938-.906 1.938-1.031 0-.063-.032-.11-.11-.11 0 0-.03 0-.078.032a3.22 3.22 0 0 1-1.36.296 3.4 3.4 0 0 1-1.327-.28c-.078-.032-.094-.032-.11-.032C1-6.625 1-6.547 1-6.391v2.954c0 .171 0 .25.14.25.079 0 .094-.016.141-.079.11-.156.469-.703 1.282-.703.515 0 .765.453.843.64.156.376.188.75.188 1.25 0 .36 0 .954-.25 1.376-.235.39-.61.64-1.063.64-.719 0-1.297-.53-1.469-1.109.032 0 .063.016.172.016.329 0 .5-.25.5-.485 0-.25-.171-.5-.5-.5-.14 0-.484.079-.484.532C.5-.75 1.188.219 2.297.219 3.453.219 4.469-.734 4.469-2zm0 0" stroke="none"/></symbol></defs><use y="134.765" x="223.432" xlink:href="#q" width="744.094" height="1052.362"/></g></g><g fill="#4d4d4d" stroke="green" stroke-width="1.177"><g ns0:text="$-1$" ns0:preamble="/home/waldgeist/data/sphinx/test.tex" transform="translate(-245.687 251.124) scale(2.54898)"><use height="1052.362" width="744.094" xlink:href="#d" x="223.432" y="134.765"/><use height="1052.362" width="744.094" xlink:href="#e" x="231.181" y="134.765"/></g><g ns0:preamble="/home/waldgeist/data/sphinx/test.tex" ns0:text="$-2$" transform="translate(-246.444 311.06) scale(2.54898)"><use y="134.765" x="223.432" xlink:href="#f" width="744.094" height="1052.362"/><use y="134.765" x="231.181" xlink:href="#g" width="744.094" height="1052.362"/></g><g ns0:text="$-3$" ns0:preamble="/home/waldgeist/data/sphinx/test.tex" transform="translate(-246.683 370.718) scale(2.54898)"><use height="1052.362" width="744.094" xlink:href="#h" x="223.432" y="134.765"/><use height="1052.362" width="744.094" xlink:href="#i" x="231.181" y="134.765"/></g><g ns0:preamble="/home/waldgeist/data/sphinx/test.tex" ns0:text="$-4$" transform="translate(-247.002 431.072) scale(2.54898)"><use height="1052.362" width="744.094" y="134.765" x="223.432" xlink:href="#j"/><use height="1052.362" width="744.094" y="134.765" x="231.181" xlink:href="#k"/></g><g ns0:text="$-5$" ns0:preamble="/home/waldgeist/data/sphinx/test.tex" transform="translate(-246.444 490.59) scale(2.54898)"><use height="1052.362" width="744.094" xlink:href="#l" x="223.432" y="134.765"/><use height="1052.362" width="744.094" xlink:href="#m" x="231.181" y="134.765"/></g><use height="1052.362" width="744.094" y="134.765" x="223.432" xlink:href="#c" transform="translate(-225.935 131.252) scale(2.54898)" ns0:preamble="/home/waldgeist/data/sphinx/test.tex" ns0:text="$1$"/><use y="134.765" x="223.432" xlink:href="#n" transform="translate(-226.692 71.316) scale(2.54898)" width="744.094" height="1052.362" ns0:preamble="/home/waldgeist/data/sphinx/test.tex" ns0:text="$2$"/><use height="1052.362" width="744.094" xlink:href="#o" x="223.432" y="134.765" transform="translate(-226.931 11.1) scale(2.54898)" ns0:text="$3$" ns0:preamble="/home/waldgeist/data/sphinx/test.tex"/><use y="134.765" x="223.432" xlink:href="#p" width="744.094" height="1052.362" transform="translate(-227.25 -48.417) scale(2.54898)" ns0:preamble="/home/waldgeist/data/sphinx/test.tex" ns0:text="$4$"/><use height="1052.362" width="744.094" xlink:href="#q" x="223.432" y="134.765" transform="translate(-226.692 -108.772) scale(2.54898)" ns0:text="$5$" ns0:preamble="/home/waldgeist/data/sphinx/test.tex"/></g><use height="1052.362" width="744.094" transform="rotate(-90 372.047 526.181)" xlink:href="#r"/><path d="M373.903 466.301a1.856 1.856 0 1 1-3.711 0 1.856 1.856 0 1 1 3.71 0z" style="marker:none" color="#000" fill="none" stroke="green" stroke-width=".5" stroke-linecap="round" stroke-linejoin="round" overflow="visible"/><path d="M372.047 526.181C276.15 346.373 174.672 115.145 78.36 830.391m293.687-304.21c95.898 179.809 197.376 411.036 293.688-304.209" fill="none" stroke="green" stroke-width="3" stroke-linecap="round"/><g transform="translate(-82.76 -128.279) scale(2.54898)" ns0:preamble="/home/waldgeist/data/sphinx/inkscape-preamble.tex" ns0:text="$y = \\frac{1}{8}\\cdot x^3 - 2\\cdot x$" fill="green" stroke="green" stroke-width="1.177"><defs><symbol id="s" overflow="visible"><path d="M4.844-3.797c.047-.14.047-.156.047-.234 0-.172-.141-.266-.297-.266a.455.455 0 0 0-.344.203c-.016.063-.11.36-.14.547-.079.25-.141.531-.204.797L3.453-.953c-.031.14-.469.844-1.125.844-.5 0-.61-.438-.61-.813 0-.453.173-1.078.5-1.953.157-.406.204-.516.204-.719 0-.437-.313-.812-.813-.812-.953 0-1.312 1.453-1.312 1.531 0 .11.094.11.11.11.109 0 .109-.032.156-.188.28-.938.671-1.235 1.015-1.235.078 0 .25 0 .25.313 0 .25-.11.516-.172.703-.406 1.063-.578 1.625-.578 2.094 0 .89.625 1.187 1.219 1.187.39 0 .719-.171 1-.453-.125.516-.25 1.016-.64 1.547-.266.328-.641.625-1.095.625-.14 0-.593-.031-.765-.422.156 0 .297 0 .422-.125a.493.493 0 0 0 .203-.406c0-.313-.266-.344-.36-.344C.829.531.5.687.5 1.171c0 .5.438.876 1.063.876 1.015 0 2.046-.906 2.328-2.031zm0 0" stroke="none"/></symbol><symbol id="x" overflow="visible"><path d="M3.328-3.016c.063-.25.297-1.171.985-1.171.046 0 .296 0 .5.125a.578.578 0 0 0-.47.546c0 .157.11.344.376.344a.546.546 0 0 0 .531-.578c0-.516-.578-.656-.922-.656-.578 0-.922.531-1.047.75-.25-.656-.781-.75-1.078-.75-1.031 0-1.61 1.281-1.61 1.531 0 .11.11.11.126.11.078 0 .11-.032.125-.11.344-1.063 1-1.313 1.344-1.313.187 0 .53.094.53.672 0 .313-.171.97-.53 2.375-.157.61-.516 1.032-.954 1.032-.062 0-.28 0-.5-.125.25-.063.47-.266.47-.547 0-.266-.22-.344-.36-.344-.313 0-.547.25-.547.578 0 .453.484.656.922.656.672 0 1.031-.703 1.047-.75.125.36.484.75 1.078.75 1.031 0 1.594-1.28 1.594-1.53 0-.11-.079-.11-.11-.11-.094 0-.11.047-.14.11-.329 1.077-1 1.312-1.313 1.312-.39 0-.547-.313-.547-.657 0-.218.047-.437.156-.875zm0 0" stroke="none"/></symbol><symbol id="t" overflow="visible"><path d="M6.844-3.266c.156 0 .343 0 .343-.187 0-.203-.187-.203-.328-.203H.891c-.141 0-.329 0-.329.203 0 .187.188.187.329.187zm.015 1.938c.141 0 .329 0 .329-.203 0-.188-.188-.188-.344-.188H.89c-.141 0-.329 0-.329.188 0 .203.188.203.329.203zm0 0" stroke="none"/></symbol><symbol id="A" overflow="visible"><path d="M1.266-.766l1.062-1.03c1.547-1.376 2.14-1.907 2.14-2.907 0-1.14-.89-1.938-2.109-1.938A1.843 1.843 0 0 0 .5-4.828c0 .547.5.547.531.547.172 0 .516-.11.516-.532a.513.513 0 0 0-.531-.515c-.079 0-.094 0-.125.016.218-.657.765-1.016 1.343-1.016.907 0 1.329.812 1.329 1.625 0 .797-.485 1.578-1.047 2.203L.609-.375C.5-.265.5-.235.5 0h3.703l.266-1.734h-.235C4.172-1.438 4.11-1 4-.844c-.063.078-.719.078-.938.078zm0 0" stroke="none"/></symbol><symbol id="u" overflow="visible"><path d="M2.328-4.438c0-.187 0-.187-.203-.187-.453.438-1.078.438-1.36.438v.25c.157 0 .626 0 1-.188v3.547c0 .234 0 .328-.687.328H.812V0c.125 0 .985-.031 1.235-.031.219 0 1.094.031 1.25.031v-.25H3.03c-.703 0-.703-.094-.703-.328zm0 0" stroke="none"/></symbol><symbol id="v" overflow="visible"><path d="M2.469-2.516c.547-.265.89-.593.89-1.078 0-.672-.703-1.031-1.375-1.031-.765 0-1.39.5-1.39 1.156 0 .328.156.563.281.703.125.157.172.188.578.422-.39.172-1.078.547-1.078 1.281 0 .766.797 1.204 1.594 1.204.89 0 1.61-.563 1.61-1.313 0-.469-.267-.86-.673-1.094-.094-.062-.328-.187-.437-.25zm-1.125-.656c-.188-.11-.375-.297-.375-.562 0-.438.5-.688 1-.688.547 0 1.031.344 1.031.828 0 .625-.734.938-.734.938-.016 0-.032 0-.079-.031zm.328.969l.969.547c.171.11.515.312.515.718 0 .532-.578.86-1.172.86-.64 0-1.187-.422-1.187-.985 0-.515.375-.921.875-1.14zm0 0" stroke="none"/></symbol><symbol id="y" overflow="visible"><path d="M1.906-2.328c.547 0 .938.375.938 1.125 0 .86-.516 1.125-.906 1.125-.282 0-.907-.078-1.188-.5.328 0 .406-.235.406-.39 0-.22-.172-.376-.39-.376a.38.38 0 0 0-.391.407C.375-.281 1.094.14 1.938.14c.968 0 1.64-.657 1.64-1.344 0-.547-.437-1.094-1.203-1.25.719-.266.984-.781.984-1.219 0-.547-.625-.953-1.406-.953-.766 0-1.36.375-1.36.938 0 .234.157.359.36.359.219 0 .36-.156.36-.344 0-.203-.141-.36-.36-.375.25-.297.719-.375.985-.375.312 0 .75.156.75.75 0 .297-.094.625-.282.828-.219.266-.422.281-.765.313-.172.015-.188.015-.22.015-.015 0-.077.016-.077.094 0 .094.062.094.187.094zm0 0" stroke="none"/></symbol><symbol id="w" overflow="visible"><path d="M1.906-2.5a.524.524 0 1 0-.516.531.524.524 0 0 0 .516-.531zm0 0" stroke="none"/></symbol><symbol id="z" overflow="visible"><path d="M6.563-2.297c.171 0 .359 0 .359-.203 0-.188-.188-.188-.36-.188h-5.39c-.172 0-.344 0-.344.188 0 .203.172.203.344.203zm0 0" stroke="none"/></symbol></defs><use y="134.765" x="223.432" xlink:href="#s" width="744.094" height="1052.362"/><use y="134.765" x="231.441" xlink:href="#t" width="744.094" height="1052.362"/><use y="130.842" x="243.153" xlink:href="#u" width="744.094" height="1052.362"/><path d="M243.152 132.273h3.973" stroke-width=".397" stroke-miterlimit="10"/><use y="138.2" x="243.153" xlink:href="#v" width="744.094" height="1052.362"/><use y="134.765" x="250.534" xlink:href="#w" width="744.094" height="1052.362"/><use y="134.765" x="255.515" xlink:href="#x" width="744.094" height="1052.362"/><use y="131.149" x="261.209" xlink:href="#y" width="744.094" height="1052.362"/><use y="134.765" x="267.892" xlink:href="#z" width="744.094" height="1052.362"/><use y="134.765" x="277.855" xlink:href="#A" width="744.094" height="1052.362"/><use y="134.765" x="285.05" xlink:href="#w" width="744.094" height="1052.362"/><use y="134.765" x="290.031" xlink:href="#x" width="744.094" height="1052.362"/></g><path d="M749.083 510.761l24.652 42.699m0-42.699l-24.652 42.699" transform="matrix(.48626 0 0 .30906 241.549 361.727)" fill="#37c837" stroke="#37c837" stroke-width="7.739"/><path d="M749.083 510.761l24.652 42.699m0-42.699l-24.652 42.699" transform="matrix(.48626 0 0 .30906 1.804 361.727)" fill="#37c837" stroke="#37c837" stroke-width="7.739"/><path d="M749.083 510.761l24.652 42.699m0-42.699l-24.652 42.699" transform="matrix(.48626 0 0 .30906 -238.43 361.727)" fill="#37c837" stroke="#37c837" stroke-width="7.739"/></svg>