<svg xmlns:ns0="http://www.iki.fi/pav/software/textext/" xmlns="http://www.w3.org/2000/svg" xmlns:xlink="http://www.w3.org/1999/xlink" width="1052.362" height="744.094"><title>Obersumme und Untersumme</title><defs><marker orient="auto" id="a" overflow="visible"><path d="M2.308 0l-3.46 2v-4l3.46 2z" fill-rule="evenodd" stroke="#000" stroke-width=".4pt"/></marker></defs><path style="marker:none" color="#000" fill="#fff" stroke="#fff" stroke-linecap="round" stroke-linejoin="round" stroke-dasharray=".99999999,2.99999991" overflow="visible" d="M1.998 189.711h1048.366v364.673H1.998z"/><path d="M756.577 495.668H1013.4m-256.823 0V238.846" fill="none" stroke="#000" stroke-width="1.223" marker-end="url(#a)" transform="translate(-652.61 -236.172) scale(1.63491)"/><path d="M747.498 411.264v159.484" fill="none" stroke="#000" stroke-width="1.001" stroke-linecap="round" stroke-dasharray=".61165307,1.83495921"/><g ns0:preamble="/home/waldgeist/data/sphinx/inkscape-preamble.tex" ns0:text="$x_0$\n" transform="translate(259.103 303.318) scale(2.14765)"><use y="134.765" x="223.432" xlink:href="#textext-c90fce16-1" width="744.094" height="1052.362"/><use y="136.259" x="229.126" xlink:href="#textext-c90fce16-3" width="744.094" height="1052.362"/></g><use height="1052.362" width="744.094" xlink:href="#b" x="223.432" y="134.765" transform="translate(411.95 245.49) scale(2.60886)" ns0:text="$x$ \n" ns0:preamble="/home/waldgeist/data/sphinx/inkscape-preamble.tex"/><use y="134.765" x="223.432" xlink:href="#c" width="744.094" height="1052.362" transform="translate(31.426 -158.986) scale(2.37014)" ns0:preamble="/home/waldgeist/data/sphinx/inkscape-preamble.tex" ns0:text="$y$ \n"/><path d="M535.51 408.06h1.846c.436 0 .638 0 .638-.436 0-.235-.202-.235-.57-.235h-1.78l.437-2.45c.1-.436.403-1.946.537-2.215.168-.402.537-.738 1.007-.738.067 0 .637 0 1.04.403a1.196 1.196 0 0 0-1.175 1.14c0 .504.403.772.806.772.57 0 1.174-.503 1.174-1.308 0-.973-.973-1.477-1.845-1.477-.739 0-2.08.403-2.718 2.517-.135.436-.202.671-.705 3.356h-1.477c-.436 0-.67 0-.67.402 0 .269.2.269.603.269h1.41l-1.578 8.456c-.402 2.08-.771 4.027-1.879 4.027-.1 0-.604 0-1.04-.403 1.007-.067 1.208-.839 1.208-1.14 0-.504-.403-.772-.805-.772-.57 0-1.175.503-1.175 1.308 0 .94.94 1.477 1.812 1.477 1.175 0 2.047-1.275 2.416-2.08.705-1.343 1.175-3.927 1.208-4.095zm12.007 13.691c0-.067 0-.1-.369-.47-2.65-2.684-3.356-6.745-3.356-10.033 0-3.725.806-7.45 3.457-10.101.268-.268.268-.302.268-.37 0-.167-.067-.234-.201-.234-.235 0-2.148 1.477-3.423 4.195-1.074 2.349-1.342 4.731-1.342 6.51 0 1.678.235 4.261 1.41 6.711 1.308 2.618 3.12 4.027 3.355 4.027.134 0 .201-.067.201-.235zm8.387-11.611c.135-.537.638-2.516 2.114-2.516.101 0 .638 0 1.074.268-.604.134-1.007.638-1.007 1.174 0 .336.235.739.806.739.47 0 1.14-.37 1.14-1.242 0-1.107-1.24-1.41-1.98-1.41-1.24 0-1.979 1.142-2.247 1.611-.537-1.409-1.678-1.61-2.316-1.61-2.215 0-3.456 2.751-3.456 3.288 0 .235.235.235.268.235.168 0 .235-.067.269-.235.738-2.282 2.147-2.818 2.886-2.818.402 0 1.14.2 1.14 1.442 0 .672-.369 2.081-1.14 5.101-.336 1.309-1.108 2.215-2.047 2.215-.135 0-.604 0-1.074-.269.537-.134 1.007-.57 1.007-1.174 0-.57-.47-.738-.772-.738-.671 0-1.175.537-1.175 1.241 0 .973 1.04 1.41 1.98 1.41 1.443 0 2.215-1.51 2.248-1.611a2.402 2.402 0 0 0 2.316 1.61c2.215 0 3.423-2.751 3.423-3.288 0-.235-.168-.235-.235-.235-.202 0-.235.1-.302.235-.705 2.316-2.148 2.819-2.82 2.819-.838 0-1.174-.671-1.174-1.41 0-.47.101-.94.336-1.879zm12.799 4.92c0-1.644-.2-2.852-.872-3.892-.47-.671-1.41-1.275-2.584-1.275-3.49 0-3.49 4.093-3.49 5.167 0 1.074 0 5.067 3.49 5.067 3.456 0 3.456-3.993 3.456-5.067zm-3.456 4.631c-.705 0-1.61-.403-1.913-1.61-.201-.873-.201-2.115-.201-3.222 0-1.107 0-2.248.201-3.054.336-1.174 1.275-1.51 1.913-1.51.805 0 1.577.504 1.846 1.376.235.805.268 1.88.268 3.188 0 1.107 0 2.215-.201 3.154-.302 1.376-1.309 1.678-1.913 1.678zm11.513-8.443c0-1.645-.235-4.229-1.41-6.678-1.275-2.618-3.12-4.027-3.322-4.027a.23.23 0 0 0-.235.235c0 .067 0 .1.403.503 2.114 2.114 3.322 5.504 3.322 9.967 0 3.69-.772 7.45-3.423 10.134-.302.268-.302.302-.302.369a.23.23 0 0 0 .235.235c.202 0 2.148-1.477 3.39-4.195 1.107-2.349 1.342-4.731 1.342-6.543zm0 0" ns0:preamble="/home/waldgeist/data/sphinx/inkscape-preamble.tex" ns0:text="$f(x_0)$\n"/><g ns0:preamble="/home/waldgeist/data/sphinx/inkscape-preamble.tex" ns0:text="$y=f(x)$\n" fill="green" transform="translate(414.361 73.62) scale(2.14765)"><use y="134.765" x="223.432" xlink:href="#d" width="744.094" height="1052.362"/><use y="134.765" x="231.441" xlink:href="#e" width="744.094" height="1052.362"/><use y="134.765" x="241.957" xlink:href="#f" width="744.094" height="1052.362"/><use y="134.765" x="247.907" xlink:href="#g" width="744.094" height="1052.362"/><use y="134.765" x="251.782" xlink:href="#h" width="744.094" height="1052.362"/><use y="134.765" x="257.476" xlink:href="#i" width="744.094" height="1052.362"/></g><path d="M747.498 411.264c-84.583 0-120.839 40.212-163.17 106.85m163.17-106.85c103.909 0 134.883-60.685 193.784-156.498 7.672-12.479 15.265-25.563 22.785-39.199" fill="none" stroke="green" stroke-width="3.361" stroke-linecap="round"/><path d="M747.498 411.264H584.329" fill="none" stroke="#000" stroke-width="1.001" stroke-linecap="round" stroke-dasharray=".61165307,1.83495919"/><path d="M446.284 478.587h1.876c.444 0 .648 0 .648-.444 0-.238-.204-.238-.58-.238h-1.808l.444-2.49c.102-.444.41-1.98.546-2.252.17-.41.546-.75 1.023-.75.068 0 .648 0 1.058.409a1.216 1.216 0 0 0-1.194 1.16c0 .511.409.784.818.784.58 0 1.194-.512 1.194-1.33 0-.99-.989-1.501-1.876-1.501-.75 0-2.115.41-2.763 2.558-.137.444-.205.683-.716 3.412h-1.501c-.444 0-.683 0-.683.409 0 .273.205.273.614.273h1.433l-1.603 8.596c-.41 2.115-.785 4.094-1.91 4.094-.103 0-.615 0-1.058-.41 1.023-.068 1.228-.852 1.228-1.16 0-.51-.41-.784-.819-.784-.58 0-1.194.512-1.194 1.33 0 .956.956 1.502 1.842 1.502 1.194 0 2.081-1.297 2.457-2.115.716-1.365 1.194-3.992 1.228-4.162zm12.206 13.918c0-.068 0-.102-.376-.478-2.695-2.729-3.41-6.856-3.41-10.2 0-3.786.818-7.573 3.513-10.267.273-.273.273-.307.273-.376 0-.17-.069-.239-.205-.239-.239 0-2.183 1.501-3.48 4.265-1.091 2.388-1.364 4.81-1.364 6.618 0 1.705.239 4.332 1.433 6.822 1.33 2.661 3.172 4.094 3.411 4.094.136 0 .205-.068.205-.239zm8.526-11.803c.136-.546.648-2.559 2.149-2.559.102 0 .648 0 1.092.273-.614.137-1.024.648-1.024 1.194 0 .341.239.75.819.75.477 0 1.16-.375 1.16-1.261 0-1.126-1.262-1.433-2.013-1.433-1.262 0-2.013 1.16-2.286 1.637-.545-1.433-1.705-1.637-2.353-1.637-2.252 0-3.514 2.797-3.514 3.343 0 .239.239.239.273.239.17 0 .239-.069.273-.24.75-2.319 2.183-2.865 2.934-2.865.409 0 1.16.205 1.16 1.467 0 .683-.376 2.115-1.16 5.185-.342 1.33-1.126 2.252-2.081 2.252-.137 0-.614 0-1.092-.273.546-.136 1.023-.58 1.023-1.194 0-.58-.477-.75-.784-.75-.682 0-1.194.545-1.194 1.262 0 .989 1.057 1.433 2.013 1.433 1.466 0 2.251-1.536 2.285-1.638a2.442 2.442 0 0 0 2.354 1.638c2.251 0 3.48-2.798 3.48-3.344 0-.238-.171-.238-.24-.238-.204 0-.238.102-.306.238-.717 2.354-2.184 2.866-2.866 2.866-.853 0-1.194-.682-1.194-1.433 0-.477.103-.955.341-1.91zm13.011 5.001c0-1.671-.205-2.9-.887-3.957-.477-.682-1.433-1.296-2.627-1.296-3.547 0-3.547 4.162-3.547 5.253 0 1.092 0 5.152 3.547 5.152 3.514 0 3.514-4.06 3.514-5.152zm-3.514 4.708c-.716 0-1.637-.41-1.944-1.637-.205-.887-.205-2.15-.205-3.275 0-1.126 0-2.286.205-3.105.341-1.194 1.296-1.535 1.944-1.535.82 0 1.604.512 1.877 1.399.238.819.273 1.91.273 3.24 0 1.126 0 2.252-.205 3.207-.307 1.399-1.33 1.706-1.945 1.706zm11.704-8.583c0-1.672-.239-4.299-1.433-6.789-1.296-2.66-3.172-4.094-3.377-4.094a.233.233 0 0 0-.239.24c0 .068 0 .102.41.511 2.149 2.15 3.377 5.595 3.377 10.132 0 3.752-.785 7.573-3.48 10.302-.307.273-.307.307-.307.375 0 .136.103.239.239.239.205 0 2.183-1.501 3.445-4.264 1.126-2.388 1.365-4.81 1.365-6.652zm0 0" ns0:preamble="/home/waldgeist/data/sphinx/inkscape-preamble.tex" ns0:text="$f(x_0)$\n"/><path d="M60.985 564.688H461.02m-400.035 0V164.653" fill="none" stroke="#000" stroke-width="2" marker-end="url(#a)"/><path d="M413.546 189.71c-153.936 23.938-309.87 78.993-352.561 242.62" fill="none" stroke="green" stroke-width="3.362" stroke-linecap="round"/><path d="M135.94 262.23v300.196" fill="none" stroke="#000" stroke-linecap="round" stroke-dasharray="1.00000001,3.00000011"/><g transform="translate(-103.247 251.513) scale(2.48554)" ns0:preamble="/home/waldgeist/data/sphinx/inkscape-preamble.tex" ns0:text="$x$ \n" fill="#4d4d4d"><defs><symbol id="b" overflow="visible"><path d="M3.328-3.016c.063-.25.297-1.171.985-1.171.046 0 .296 0 .5.125a.578.578 0 0 0-.47.546c0 .157.11.344.376.344a.546.546 0 0 0 .531-.578c0-.516-.578-.656-.922-.656-.578 0-.922.531-1.047.75-.25-.656-.781-.75-1.078-.75-1.031 0-1.61 1.281-1.61 1.531 0 .11.11.11.126.11.078 0 .11-.032.125-.11.344-1.063 1-1.313 1.344-1.313.187 0 .53.094.53.672 0 .313-.171.97-.53 2.375-.157.61-.516 1.032-.954 1.032-.062 0-.28 0-.5-.125.25-.063.47-.266.47-.547 0-.266-.22-.344-.36-.344-.313 0-.547.25-.547.578 0 .453.484.656.922.656.672 0 1.031-.703 1.047-.75.125.36.484.75 1.078.75 1.031 0 1.594-1.28 1.594-1.53 0-.11-.079-.11-.11-.11-.094 0-.11.047-.14.11-.329 1.077-1 1.312-1.313 1.312-.39 0-.547-.313-.547-.657 0-.218.047-.437.156-.875zm0 0"/></symbol></defs><use y="134.765" x="223.432" xlink:href="#b" width="744.094" height="1052.362" fill="#000"/></g><g ns0:text="$y$ \n" ns0:preamble="/home/waldgeist/data/sphinx/inkscape-preamble.tex" transform="translate(-465.784 -133.844) scale(2.2581)" fill="#4d4d4d"><defs><symbol overflow="visible" id="c"><path d="M4.844-3.797c.047-.14.047-.156.047-.234 0-.172-.141-.266-.297-.266a.455.455 0 0 0-.344.203c-.016.063-.11.36-.14.547-.079.25-.141.531-.204.797L3.453-.953c-.031.14-.469.844-1.125.844-.5 0-.61-.438-.61-.813 0-.453.173-1.078.5-1.953.157-.406.204-.516.204-.719 0-.437-.313-.812-.813-.812-.953 0-1.312 1.453-1.312 1.531 0 .11.094.11.11.11.109 0 .109-.032.156-.188.28-.938.671-1.235 1.015-1.235.078 0 .25 0 .25.313 0 .25-.11.516-.172.703-.406 1.063-.578 1.625-.578 2.094 0 .89.625 1.187 1.219 1.187.39 0 .719-.171 1-.453-.125.516-.25 1.016-.64 1.547-.266.328-.641.625-1.095.625-.14 0-.593-.031-.765-.422.156 0 .297 0 .422-.125a.493.493 0 0 0 .203-.406c0-.313-.266-.344-.36-.344C.829.531.5.687.5 1.171c0 .5.438.876 1.063.876 1.015 0 2.046-.906 2.328-2.031zm0 0"/></symbol></defs><use height="1052.362" width="744.094" xlink:href="#c" x="223.432" y="134.765" fill="#000"/></g><g ns0:text="$y=f(x)$\n" ns0:preamble="/home/waldgeist/data/sphinx/inkscape-preamble.tex" transform="translate(-86.515 78.902) scale(2.04613)" fill="green"><defs><symbol overflow="visible" id="d"><path d="M4.844-3.797c.047-.14.047-.156.047-.234 0-.172-.141-.266-.297-.266a.455.455 0 0 0-.344.203c-.016.063-.11.36-.14.547-.079.25-.141.531-.204.797L3.453-.953c-.031.14-.469.844-1.125.844-.5 0-.61-.438-.61-.813 0-.453.173-1.078.5-1.953.157-.406.204-.516.204-.719 0-.437-.313-.812-.813-.812-.953 0-1.312 1.453-1.312 1.531 0 .11.094.11.11.11.109 0 .109-.032.156-.188.28-.938.671-1.235 1.015-1.235.078 0 .25 0 .25.313 0 .25-.11.516-.172.703-.406 1.063-.578 1.625-.578 2.094 0 .89.625 1.187 1.219 1.187.39 0 .719-.171 1-.453-.125.516-.25 1.016-.64 1.547-.266.328-.641.625-1.095.625-.14 0-.593-.031-.765-.422.156 0 .297 0 .422-.125a.493.493 0 0 0 .203-.406c0-.313-.266-.344-.36-.344C.829.531.5.687.5 1.171c0 .5.438.876 1.063.876 1.015 0 2.046-.906 2.328-2.031zm0 0"/></symbol><symbol overflow="visible" id="f"><path d="M3.656-3.984h.86c.203 0 .296 0 .296-.204 0-.109-.093-.109-.265-.109h-.828l.203-1.14c.047-.204.187-.907.25-1.032.078-.187.25-.343.469-.343.03 0 .296 0 .484.187a.557.557 0 0 0-.547.531c0 .235.188.36.375.36.266 0 .547-.235.547-.61 0-.453-.453-.687-.86-.687-.343 0-.968.187-1.265 1.172-.063.203-.094.312-.328 1.562h-.688c-.203 0-.312 0-.312.188 0 .125.094.125.281.125h.656L2.25-.047c-.188.969-.36 1.875-.875 1.875-.047 0-.281 0-.484-.187.468-.032.562-.391.562-.532 0-.234-.187-.359-.375-.359-.266 0-.547.234-.547.61 0 .437.438.687.844.687.547 0 .953-.594 1.125-.969.328-.625.547-1.828.563-1.906zm0 0"/></symbol><symbol overflow="visible" id="h"><path d="M3.328-3.016c.063-.25.297-1.171.985-1.171.046 0 .296 0 .5.125a.578.578 0 0 0-.47.546c0 .157.11.344.376.344a.546.546 0 0 0 .531-.578c0-.516-.578-.656-.922-.656-.578 0-.922.531-1.047.75-.25-.656-.781-.75-1.078-.75-1.031 0-1.61 1.281-1.61 1.531 0 .11.11.11.126.11.078 0 .11-.032.125-.11.344-1.063 1-1.313 1.344-1.313.187 0 .53.094.53.672 0 .313-.171.97-.53 2.375-.157.61-.516 1.032-.954 1.032-.062 0-.28 0-.5-.125.25-.063.47-.266.47-.547 0-.266-.22-.344-.36-.344-.313 0-.547.25-.547.578 0 .453.484.656.922.656.672 0 1.031-.703 1.047-.75.125.36.484.75 1.078.75 1.031 0 1.594-1.28 1.594-1.53 0-.11-.079-.11-.11-.11-.094 0-.11.047-.14.11-.329 1.077-1 1.312-1.313 1.312-.39 0-.547-.313-.547-.657 0-.218.047-.437.156-.875zm0 0"/></symbol><symbol overflow="visible" id="e"><path d="M6.844-3.266c.156 0 .343 0 .343-.187 0-.203-.187-.203-.328-.203H.891c-.141 0-.329 0-.329.203 0 .187.188.187.329.187zm.015 1.938c.141 0 .329 0 .329-.203 0-.188-.188-.188-.344-.188H.89c-.141 0-.329 0-.329.188 0 .203.188.203.329.203zm0 0"/></symbol><symbol overflow="visible" id="g"><path d="M3.297 2.39c0-.03 0-.046-.172-.218C1.891.922 1.562-.968 1.562-2.5c0-1.734.375-3.469 1.61-4.703.125-.125.125-.14.125-.172 0-.078-.031-.11-.094-.11-.11 0-1 .688-1.594 1.954C1.11-4.438.984-3.328.984-2.5c0 .781.11 1.984.657 3.125C2.25 1.844 3.094 2.5 3.203 2.5c.063 0 .094-.031.094-.11zm0 0"/></symbol><symbol overflow="visible" id="i"><path d="M2.875-2.5c0-.766-.11-1.969-.656-3.11C1.625-6.827.766-7.483.672-7.483a.107.107 0 0 0-.11.109c0 .031 0 .047.188.234.984.985 1.547 2.563 1.547 4.641C2.297-.78 1.937.97.703 2.22c-.14.125-.14.14-.14.172 0 .062.046.109.109.109.094 0 1-.688 1.578-1.953.516-1.094.625-2.203.625-3.047zm0 0"/></symbol></defs><use height="1052.362" width="744.094" xlink:href="#d" x="223.432" y="134.765"/><use height="1052.362" width="744.094" xlink:href="#e" x="231.441" y="134.765"/><use height="1052.362" width="744.094" xlink:href="#f" x="241.957" y="134.765"/><use height="1052.362" width="744.094" xlink:href="#g" x="247.907" y="134.765"/><use height="1052.362" width="744.094" xlink:href="#h" x="251.782" y="134.765"/><use height="1052.362" width="744.094" xlink:href="#i" x="257.476" y="134.765"/></g><path d="M231.94 262.23H60.985" fill="none" stroke="#000" stroke-linecap="round" stroke-dasharray="1.00000008,3.00000029"/><path d="M10.494 259.177h1.759c.415 0 .607 0 .607-.415 0-.224-.192-.224-.544-.224h-1.694l.416-2.334c.096-.416.383-1.854.511-2.11.16-.384.512-.703.96-.703.063 0 .607 0 .99.383a1.14 1.14 0 0 0-1.119 1.087c0 .48.384.736.768.736.543 0 1.119-.48 1.119-1.247 0-.927-.927-1.407-1.759-1.407-.703 0-1.982.384-2.59 2.398-.127.415-.191.64-.67 3.197H7.84c-.416 0-.64 0-.64.384 0 .255.192.255.576.255h1.342l-1.502 8.057c-.384 1.982-.736 3.836-1.79 3.836-.097 0-.576 0-.992-.383.96-.064 1.151-.8 1.151-1.087 0-.48-.383-.736-.767-.736-.544 0-1.119.48-1.119 1.247 0 .896.895 1.407 1.726 1.407 1.12 0 1.95-1.215 2.302-1.982.672-1.279 1.12-3.74 1.151-3.9zm11.439 13.044c0-.064 0-.096-.351-.447-2.526-2.558-3.198-6.426-3.198-9.56 0-3.548.768-7.097 3.293-9.623.256-.255.256-.287.256-.351 0-.16-.064-.224-.192-.224-.223 0-2.046 1.407-3.26 3.996-1.024 2.238-1.28 4.508-1.28 6.203 0 1.598.224 4.06 1.343 6.394 1.247 2.493 2.974 3.836 3.197 3.836.128 0 .192-.064.192-.224zm7.991-11.061c.128-.512.607-2.398 2.014-2.398.096 0 .607 0 1.023.255-.575.128-.959.608-.959 1.12 0 .32.224.703.767.703.448 0 1.087-.352 1.087-1.183 0-1.055-1.183-1.343-1.886-1.343-1.183 0-1.886 1.087-2.142 1.535-.512-1.343-1.599-1.535-2.206-1.535-2.11 0-3.293 2.622-3.293 3.133 0 .224.224.224.256.224.16 0 .224-.064.256-.224.703-2.174 2.046-2.685 2.749-2.685.384 0 1.087.192 1.087 1.374 0 .64-.352 1.983-1.087 4.86-.32 1.247-1.055 2.11-1.95 2.11-.128 0-.576 0-1.023-.256.511-.128.959-.543.959-1.119 0-.543-.448-.703-.735-.703-.64 0-1.12.512-1.12 1.183 0 .927.992 1.343 1.887 1.343 1.375 0 2.11-1.439 2.142-1.535a2.289 2.289 0 0 0 2.206 1.535c2.11 0 3.26-2.622 3.26-3.133 0-.224-.159-.224-.223-.224-.192 0-.224.096-.288.224-.671 2.206-2.046 2.685-2.685 2.685-.8 0-1.12-.64-1.12-1.343 0-.447.097-.895.32-1.79zm12.194 4.687c0-1.567-.192-2.718-.831-3.709-.448-.64-1.343-1.215-2.462-1.215-3.325 0-3.325 3.9-3.325 4.924 0 1.023 0 4.828 3.325 4.828 3.293 0 3.293-3.805 3.293-4.828zm-3.293 4.412c-.671 0-1.535-.384-1.822-1.535-.192-.83-.192-2.014-.192-3.069 0-1.055 0-2.142.192-2.91.32-1.118 1.215-1.438 1.822-1.438.767 0 1.503.48 1.758 1.31.224.768.256 1.791.256 3.038 0 1.055 0 2.11-.192 3.005-.287 1.311-1.247 1.599-1.822 1.599zm10.969-8.044c0-1.567-.224-4.029-1.343-6.363-1.215-2.493-2.974-3.836-3.165-3.836a.219.219 0 0 0-.224.224c0 .064 0 .096.384.48 2.014 2.013 3.165 5.242 3.165 9.495 0 3.516-.736 7.097-3.261 9.655-.288.255-.288.287-.288.351 0 .128.096.224.224.224.191 0 2.046-1.407 3.229-3.996 1.055-2.238 1.279-4.508 1.279-6.234zm0 0" fill="#000" ns0:text="$f(x_0)$\n" ns0:preamble="/home/waldgeist/data/sphinx/inkscape-preamble.tex"/><path d="M526.181 149.43v445.234" style="marker:none" color="#000" fill="none" stroke="gray" stroke-width="2" stroke-linecap="round" stroke-linejoin="round" overflow="visible"/><g ns0:text="$x_1$\n" ns0:preamble="/home/waldgeist/data/sphinx/inkscape-preamble.tex" transform="translate(-326.279 305.527) scale(2.04613)" fill="#4d4d4d"><defs><symbol overflow="visible" id="j"><path d="M3.328-3.016c.063-.25.297-1.171.985-1.171.046 0 .296 0 .5.125a.578.578 0 0 0-.47.546c0 .157.11.344.376.344a.546.546 0 0 0 .531-.578c0-.516-.578-.656-.922-.656-.578 0-.922.531-1.047.75-.25-.656-.781-.75-1.078-.75-1.031 0-1.61 1.281-1.61 1.531 0 .11.11.11.126.11.078 0 .11-.032.125-.11.344-1.063 1-1.313 1.344-1.313.187 0 .53.094.53.672 0 .313-.171.97-.53 2.375-.157.61-.516 1.032-.954 1.032-.062 0-.28 0-.5-.125.25-.063.47-.266.47-.547 0-.266-.22-.344-.36-.344-.313 0-.547.25-.547.578 0 .453.484.656.922.656.672 0 1.031-.703 1.047-.75.125.36.484.75 1.078.75 1.031 0 1.594-1.28 1.594-1.53 0-.11-.079-.11-.11-.11-.094 0-.11.047-.14.11-.329 1.077-1 1.312-1.313 1.312-.39 0-.547-.313-.547-.657 0-.218.047-.437.156-.875zm0 0"/></symbol><symbol overflow="visible" id="k"><path d="M2.328-4.438c0-.187 0-.187-.203-.187-.453.438-1.078.438-1.36.438v.25c.157 0 .626 0 1-.188v3.547c0 .234 0 .328-.687.328H.812V0c.125 0 .985-.031 1.235-.031.219 0 1.094.031 1.25.031v-.25H3.03c-.703 0-.703-.094-.703-.328zm0 0"/></symbol></defs><g fill="#000"><use height="744.094" width="1052.362" xlink:href="#j" x="223.432" y="134.765"/><use height="744.094" width="1052.362" xlink:href="#k" x="229.126" y="136.259"/></g></g><g transform="translate(-63.72 305.527) scale(2.04613)" ns0:preamble="/home/waldgeist/data/sphinx/inkscape-preamble.tex" ns0:text="$x_2$\n" fill="#4d4d4d"><defs><symbol id="l" overflow="visible"><path d="M3.328-3.016c.063-.25.297-1.171.985-1.171.046 0 .296 0 .5.125a.578.578 0 0 0-.47.546c0 .157.11.344.376.344a.546.546 0 0 0 .531-.578c0-.516-.578-.656-.922-.656-.578 0-.922.531-1.047.75-.25-.656-.781-.75-1.078-.75-1.031 0-1.61 1.281-1.61 1.531 0 .11.11.11.126.11.078 0 .11-.032.125-.11.344-1.063 1-1.313 1.344-1.313.187 0 .53.094.53.672 0 .313-.171.97-.53 2.375-.157.61-.516 1.032-.954 1.032-.062 0-.28 0-.5-.125.25-.063.47-.266.47-.547 0-.266-.22-.344-.36-.344-.313 0-.547.25-.547.578 0 .453.484.656.922.656.672 0 1.031-.703 1.047-.75.125.36.484.75 1.078.75 1.031 0 1.594-1.28 1.594-1.53 0-.11-.079-.11-.11-.11-.094 0-.11.047-.14.11-.329 1.077-1 1.312-1.313 1.312-.39 0-.547-.313-.547-.657 0-.218.047-.437.156-.875zm0 0"/></symbol><symbol id="m" overflow="visible"><path d="M3.516-1.266H3.28c-.015.157-.094.563-.187.625-.047.047-.578.047-.688.047h-1.28c.734-.64.984-.844 1.39-1.172.516-.406 1-.843 1-1.5 0-.843-.734-1.359-1.624-1.359-.86 0-1.454.61-1.454 1.25 0 .344.297.39.376.39a.365.365 0 0 0 .359-.374c0-.125-.047-.375-.406-.375.218-.485.687-.641 1.015-.641.703 0 1.063.547 1.063 1.11 0 .609-.438 1.078-.656 1.328L.516-.266C.437-.203.437-.187.437 0h2.876zm0 0"/></symbol></defs><g fill="#000"><use y="134.765" x="223.432" xlink:href="#l"/><use y="136.259" x="229.126" xlink:href="#m"/></g></g></svg>