<svg xmlns:ns0="http://www.iki.fi/pav/software/textext/" xmlns="http://www.w3.org/2000/svg" xmlns:xlink="http://www.w3.org/1999/xlink" width="1488.189" height="1052.362"><title>Parabel (b)</title><defs><marker id="b" orient="auto" overflow="visible"><path d="M2.308 0l-3.46 2v-4l3.46 2z" fill-rule="evenodd" stroke="#000" stroke-width=".4pt"/></marker></defs><use y="134.765" x="231.736" xlink:href="#textext-082fa4b4-3" width="744.094" height="1052.362" transform="translate(-841.335 -1067.618) scale(4.62289)" fill="green"/><use y="134.765" x="231.736" xlink:href="#textext-082fa4b4-3" width="744.094" height="1052.362" transform="translate(-841.335 -1067.618) scale(4.62289)" fill="green"/><g ns0:preamble="/home/waldgeist/data/sphinx/test.tex" ns0:text="$\\Delta \\vec{r} = \\vec{r}_{\\rm{2}} - \\vec{r}_{\\rm{1}} $" fill="green" transform="translate(-841.335 -1067.618) scale(4.62289)"><use y="134.765" x="223.432" xlink:href="#textext-082fa4b4-0" width="744.094" height="1052.362"/><use y="134.765" x="231.417" xlink:href="#textext-082fa4b4-2" width="744.094" height="1052.362"/><use y="134.765" x="231.736" xlink:href="#textext-082fa4b4-3" width="744.094" height="1052.362"/><use y="134.765" x="239.273" xlink:href="#textext-082fa4b4-1" width="744.094" height="1052.362"/><use y="134.765" x="249.472" xlink:href="#textext-082fa4b4-2" width="744.094" height="1052.362"/><use y="134.765" x="249.791" xlink:href="#textext-082fa4b4-3" width="744.094" height="1052.362"/><use y="136.259" x="254.284" xlink:href="#textext-082fa4b4-4" width="744.094" height="1052.362"/><use y="134.765" x="260.967" xlink:href="#textext-082fa4b4-6" width="744.094" height="1052.362"/><use y="134.765" x="270.612" xlink:href="#textext-082fa4b4-2" width="744.094" height="1052.362"/><use y="134.765" x="270.931" xlink:href="#textext-082fa4b4-3" width="744.094" height="1052.362"/><use y="136.259" x="275.425" xlink:href="#textext-082fa4b4-5" width="744.094" height="1052.362"/></g><g ns0:preamble="/home/waldgeist/data/sphinx/test.tex" ns0:text="$\\Delta \\vec{r} = \\vec{r}_{\\rm{2}} - \\vec{r}_{\\rm{1}} $" fill="green" transform="translate(-841.335 -1067.618) scale(4.62289)"><use y="134.765" x="223.432" xlink:href="#textext-082fa4b4-0" width="744.094" height="1052.362"/><use y="134.765" x="231.417" xlink:href="#textext-082fa4b4-2" width="744.094" height="1052.362"/><use y="134.765" x="231.736" xlink:href="#textext-082fa4b4-3" width="744.094" height="1052.362"/><use y="134.765" x="239.273" xlink:href="#textext-082fa4b4-1" width="744.094" height="1052.362"/><use y="134.765" x="249.472" xlink:href="#textext-082fa4b4-2" width="744.094" height="1052.362"/><use y="134.765" x="249.791" xlink:href="#textext-082fa4b4-3" width="744.094" height="1052.362"/><use y="136.259" x="254.284" xlink:href="#textext-082fa4b4-4" width="744.094" height="1052.362"/><use y="134.765" x="260.967" xlink:href="#textext-082fa4b4-6" width="744.094" height="1052.362"/><use y="134.765" x="270.612" xlink:href="#textext-082fa4b4-2" width="744.094" height="1052.362"/><use y="134.765" x="270.931" xlink:href="#textext-082fa4b4-3" width="744.094" height="1052.362"/><use y="136.259" x="275.425" xlink:href="#textext-082fa4b4-5" width="744.094" height="1052.362"/></g><g ns0:preamble="/home/waldgeist/data/sphinx/test.tex" ns0:text="$\\Delta \\vec{r} = \\vec{r}_{\\rm{2}} - \\vec{r}_{\\rm{1}} $" fill="green" transform="translate(-841.335 -1067.618) scale(4.62289)"><use y="134.765" x="223.432" xlink:href="#textext-082fa4b4-0" width="744.094" height="1052.362"/><use y="134.765" x="231.417" xlink:href="#textext-082fa4b4-2" width="744.094" height="1052.362"/><use y="134.765" x="231.736" xlink:href="#textext-082fa4b4-3" width="744.094" height="1052.362"/><use y="134.765" x="239.273" xlink:href="#textext-082fa4b4-1" width="744.094" height="1052.362"/><use y="134.765" x="249.472" xlink:href="#textext-082fa4b4-2" width="744.094" height="1052.362"/><use y="134.765" x="249.791" xlink:href="#textext-082fa4b4-3" width="744.094" height="1052.362"/><use y="136.259" x="254.284" xlink:href="#textext-082fa4b4-4" width="744.094" height="1052.362"/><use y="134.765" x="260.967" xlink:href="#textext-082fa4b4-6" width="744.094" height="1052.362"/><use y="134.765" x="270.612" xlink:href="#textext-082fa4b4-2" width="744.094" height="1052.362"/><use y="134.765" x="270.931" xlink:href="#textext-082fa4b4-3" width="744.094" height="1052.362"/><use y="136.259" x="275.425" xlink:href="#textext-082fa4b4-5" width="744.094" height="1052.362"/></g><path fill="#fff" stroke="#fff" stroke-width="2" stroke-linecap="round" d="M8.618 114.824h1470.953v822.714H8.618z"/><g stroke="#ccc" stroke-width="1.018" fill="none"><path d="M135.57 228.943v597.956m59.796-597.956v597.956m59.796-597.956v597.956m59.795-597.956v597.956m59.796-597.956v597.956m59.796-597.956v597.956m59.795-597.956v597.956m59.796-597.956v597.956m59.795-597.956v597.956M75.775 288.738h597.956M75.775 348.534h597.956M75.775 408.33h597.956M75.775 468.125h597.956M75.775 527.92h597.956M75.775 587.716h597.956M75.775 647.512h597.956M75.775 707.307h597.956M75.775 767.103h597.956" stroke-width="1.5"/><path d="M81.755 228.943v597.956m5.979-597.956v597.956m5.98-597.956v597.956m5.979-597.956v597.956m5.98-597.956v597.956m5.979-597.956v597.956m5.98-597.956v597.956m5.979-597.956v597.956m5.98-597.956v597.956m11.959-597.956v597.956m5.98-597.956v597.956m5.98-597.956v597.956m5.979-597.956v597.956m5.979-597.956v597.956m5.98-597.956v597.956m5.98-597.956v597.956m5.979-597.956v597.956m5.98-597.956v597.956m11.959-597.956v597.956m5.979-597.956v597.956m5.98-597.956v597.956m5.979-597.956v597.956m5.98-597.956v597.956m5.98-597.956v597.956m5.979-597.956v597.956m5.98-597.956v597.956m5.979-597.956v597.956m11.959-597.956v597.956m5.979-597.956v597.956m5.98-597.956v597.956m5.98-597.956v597.956m5.98-597.956v597.956m5.98-597.956v597.956m5.979-597.956v597.956m5.979-597.956v597.956m5.98-597.956v597.956m11.959-597.956v597.956m5.979-597.956v597.956m5.98-597.956v597.956m5.98-597.956v597.956m5.979-597.956v597.956m5.98-597.956v597.956m5.979-597.956v597.956m5.98-597.956v597.956m5.979-597.956v597.956m11.959-597.956v597.956m5.98-597.956v597.956m5.98-597.956v597.956m5.979-597.956v597.956m5.979-597.956v597.956m5.98-597.956v597.956m5.98-597.956v597.956m5.98-597.956v597.956m5.979-597.956v597.956m11.959-597.956v597.956m5.98-597.956v597.956m5.979-597.956v597.956m5.98-597.956v597.956m5.979-597.956v597.956m5.98-597.956v597.956m5.979-597.956v597.956m5.98-597.956v597.956m5.98-597.956v597.956m11.959-597.956v597.956m5.979-597.956v597.956m5.98-597.956v597.956m5.979-597.956v597.956m5.98-597.956v597.956m5.979-597.956v597.956m5.98-597.956v597.956m5.979-597.956v597.956m5.98-597.956v597.956m11.96-597.956v597.956m5.979-597.956v597.956m5.979-597.956v597.956m5.98-597.956v597.956m5.979-597.956v597.956m5.98-597.956v597.956m5.98-597.956v597.956m5.979-597.956v597.956m5.98-597.956v597.956m11.959-597.956v597.956m5.979-597.956v597.956m5.98-597.956v597.956m5.979-597.956v597.956m5.98-597.956v597.956m5.98-597.956v597.956m5.979-597.956v597.956m5.98-597.956v597.956m5.979-597.956v597.956M75.775 234.922h597.956m-597.956 5.98h597.956m-597.956 5.979h597.956m-597.956 5.98h597.956M75.775 258.84h597.956m-597.956 5.98h597.956M75.775 270.8h597.956m-597.956 5.98h597.956m-597.956 5.979h597.956M75.775 294.718h597.956m-597.956 5.979h597.956m-597.956 5.98h597.956m-597.956 5.98h597.956m-597.956 5.979h597.956m-597.956 5.98h597.956m-597.956 5.979h597.956m-597.956 5.98h597.956m-597.956 5.979h597.956M75.775 354.513h597.956m-597.956 5.98h597.956m-597.956 5.98h597.956m-597.956 5.979h597.956m-597.956 5.98h597.956m-597.956 5.979h597.956M75.775 390.39h597.956m-597.956 5.98h597.956m-597.956 5.98h597.956M75.775 414.309h597.956m-597.956 5.98h597.956m-597.956 5.979h597.956m-597.956 5.98h597.956m-597.956 5.979h597.956m-597.956 5.98h597.956m-597.956 5.979h597.956m-597.956 5.98h597.956m-597.956 5.98h597.956M75.775 474.105h597.956m-597.956 5.979h597.956m-597.956 5.98h597.956m-597.956 5.979h597.956m-597.956 5.98h597.956m-597.956 5.979h597.956m-597.956 5.98h597.956m-597.956 5.98h597.956m-597.956 5.979h597.956M75.775 533.9h597.956m-597.956 5.98h597.956m-597.956 5.98h597.956m-597.956 5.979h597.956m-597.956 5.979h597.956m-597.956 5.98h597.956m-597.956 5.98h597.956m-597.956 5.979h597.956m-597.956 5.98h597.956M75.775 593.696h597.956m-597.956 5.979h597.956m-597.956 5.98h597.956m-597.956 5.979h597.956m-597.956 5.98h597.956m-597.956 5.98h597.956m-597.956 5.979h597.956m-597.956 5.98h597.956m-597.956 5.979h597.956M75.775 653.491h597.956M75.775 659.47h597.956m-597.956 5.98h597.956m-597.956 5.98h597.956m-597.956 5.98h597.956m-597.956 5.98h597.956m-597.956 5.979h597.956m-597.956 5.979h597.956m-597.956 5.98h597.956M75.775 713.287h597.956m-597.956 5.979h597.956m-597.956 5.98h597.956m-597.956 5.98h597.956m-597.956 5.979h597.956m-597.956 5.98h597.956m-597.956 5.979h597.956m-597.956 5.98h597.956m-597.956 5.979h597.956m-597.956 11.96h597.956m-597.956 5.979h597.956m-597.956 5.98h597.956m-597.956 5.979h597.956M75.775 797h597.956m-597.956 5.98h597.956m-597.956 5.98h597.956m-597.956 5.98h597.956m-597.956 5.979h597.956" stroke-width=".5"/><path stroke-width="1.5" d="M75.775 228.943h597.956v597.956H75.775z"/></g><path d="M357.005 184.107c.191-.575.191-.64.191-.959 0-.703-.575-1.086-1.214-1.086-.383 0-1.022.256-1.406.83-.064.256-.447 1.47-.575 2.237-.32 1.023-.575 2.173-.83 3.26l-1.854 7.349c-.128.575-1.917 3.45-4.601 3.45-2.045 0-2.493-1.789-2.493-3.322 0-1.854.703-4.41 2.045-7.989.64-1.661.831-2.109.831-2.94 0-1.789-1.278-3.322-3.323-3.322-3.898 0-5.368 5.943-5.368 6.262 0 .448.383.448.447.448.448 0 .448-.128.64-.767 1.15-3.834 2.747-5.049 4.153-5.049.32 0 1.023 0 1.023 1.278 0 1.023-.448 2.11-.703 2.876-1.662 4.346-2.365 6.646-2.365 8.564 0 3.642 2.557 4.856 4.985 4.856 1.598 0 2.94-.703 4.09-1.853-.511 2.109-1.023 4.154-2.62 6.327-1.087 1.342-2.62 2.556-4.474 2.556-.575 0-2.428-.128-3.131-1.725.64 0 1.214 0 1.725-.512.448-.32.831-.894.831-1.661 0-1.278-1.086-1.406-1.47-1.406-.958 0-2.3.639-2.3 2.62 0 2.045 1.79 3.579 4.345 3.579 4.154 0 8.372-3.707 9.522-8.308zm0 0"/><g transform="translate(-52.571 -573.744) scale(1.64486)"><use xlink:href="#a" transform="rotate(-90 260.13 669.425)" width="744.094" height="1052.362"/><path d="M267.064 597.056h-14.788m14.788-36.353h-14.788m14.788-36.353h-14.788m14.788-36.353h-14.788m14.788 218.118h-14.788m14.788 36.353h-14.788m14.788 36.352h-14.788m14.788 36.354h-14.788m14.788 36.352h-14.788" fill="none" stroke="#000" stroke-width=".947"/><path d="M266.94 633.409H252.4" fill="none" stroke="#000" stroke-width="1.216"/></g><path d="M716.279 549.602c.255-1.023 1.214-4.793 4.026-4.793.192 0 1.214 0 2.045.511-1.15.256-1.917 1.214-1.917 2.237 0 .639.447 1.406 1.533 1.406.895 0 2.173-.703 2.173-2.365 0-2.109-2.364-2.684-3.77-2.684-2.365 0-3.77 2.173-4.282 3.068-1.022-2.685-3.195-3.068-4.41-3.068-4.217 0-6.582 5.24-6.582 6.263 0 .447.448.447.512.447.32 0 .447-.128.51-.447 1.407-4.346 4.09-5.368 5.497-5.368.767 0 2.172.383 2.172 2.748 0 1.278-.702 3.962-2.172 9.713-.64 2.493-2.11 4.218-3.899 4.218-.255 0-1.15 0-2.045-.511 1.023-.256 1.918-1.086 1.918-2.237 0-1.086-.895-1.406-1.47-1.406-1.278 0-2.237 1.023-2.237 2.365 0 1.853 1.981 2.684 3.77 2.684 2.748 0 4.218-2.876 4.282-3.068.511 1.47 1.981 3.068 4.41 3.068 4.218 0 6.518-5.24 6.518-6.263 0-.447-.32-.447-.447-.447-.384 0-.448.191-.575.447-1.342 4.41-4.09 5.368-5.368 5.368-1.598 0-2.237-1.278-2.237-2.684 0-.895.192-1.79.639-3.579zm0 0"/><g transform="translate(-52.571 -573.744) scale(1.64486)"><path d="M49.357 669.425h417.187" id="a" fill="none" stroke="#000" stroke-width="1.824" marker-end="url(#b)"/><path id="c" d="M295.897 662.12v14.54" fill="none" stroke="#000" stroke-width="1.216"/><use xlink:href="#c" transform="translate(36.353)" width="744.094" height="1052.362"/><use xlink:href="#c" transform="translate(72.706)" width="744.094" height="1052.362"/><use xlink:href="#c" transform="translate(109.059)" width="744.094" height="1052.362"/><use xlink:href="#c" transform="translate(-145.412)" width="744.094" height="1052.362"/><use xlink:href="#c" transform="translate(-181.765)" width="744.094" height="1052.362"/><use xlink:href="#c" transform="translate(-218.118)" width="744.094" height="1052.362"/><use height="1052.362" width="744.094" transform="translate(-108.544 .07)" xlink:href="#c"/><use height="744.094" width="1052.362" transform="translate(-72.456 .035)" xlink:href="#c"/><use height="744.094" width="1052.362" transform="translate(145.662 .035)" xlink:href="#c"/></g><g fill="#4d4d4d" stroke="green" stroke-width="1.18"><g ns0:text="$1$" ns0:preamble="/home/waldgeist/data/sphinx/test.tex" transform="translate(-140.19 218.448) scale(2.5424)"><defs><symbol overflow="visible" id="d"><path d="M2.938-6.375c0-.25 0-.266-.235-.266C2.078-6 1.203-6 .891-6v.313c.203 0 .78 0 1.296-.266v5.172c0 .36-.03.469-.921.469H.953V0c.344-.031 1.203-.031 1.61-.031.39 0 1.265 0 1.609.031v-.313h-.313c-.906 0-.921-.109-.921-.468zm0 0" stroke="none"/></symbol></defs><use xlink:href="#d" x="223.432" y="134.765" width="744.094" height="1052.362"/></g><g transform="translate(-279.708 218.448) scale(2.5424)" ns0:preamble="/home/waldgeist/data/sphinx/test.tex" ns0:text="$-1$"><defs><symbol id="e" overflow="visible"><path d="M6.563-2.297c.171 0 .359 0 .359-.203 0-.188-.188-.188-.36-.188h-5.39c-.172 0-.344 0-.344.188 0 .203.172.203.344.203zm0 0" stroke="none"/></symbol><symbol id="f" overflow="visible"><path d="M2.938-6.375c0-.25 0-.266-.235-.266C2.078-6 1.203-6 .891-6v.313c.203 0 .78 0 1.296-.266v5.172c0 .36-.03.469-.921.469H.953V0c.344-.031 1.203-.031 1.61-.031.39 0 1.265 0 1.609.031v-.313h-.313c-.906 0-.921-.109-.921-.468zm0 0" stroke="none"/></symbol></defs><use y="134.765" x="223.432" xlink:href="#e" width="744.094" height="1052.362"/><use y="134.765" x="231.181" xlink:href="#f" width="744.094" height="1052.362"/></g><g ns0:text="$-2$" ns0:preamble="/home/waldgeist/data/sphinx/test.tex" transform="translate(-339.502 218.448) scale(2.5424)"><defs><symbol overflow="visible" id="g"><path d="M6.563-2.297c.171 0 .359 0 .359-.203 0-.188-.188-.188-.36-.188h-5.39c-.172 0-.344 0-.344.188 0 .203.172.203.344.203zm0 0" stroke="none"/></symbol><symbol overflow="visible" id="h"><path d="M1.266-.766l1.062-1.03c1.547-1.376 2.14-1.907 2.14-2.907 0-1.14-.89-1.938-2.109-1.938A1.843 1.843 0 0 0 .5-4.828c0 .547.5.547.531.547.172 0 .516-.11.516-.532a.513.513 0 0 0-.531-.515c-.079 0-.094 0-.125.016.218-.657.765-1.016 1.343-1.016.907 0 1.329.812 1.329 1.625 0 .797-.485 1.578-1.047 2.203L.609-.375C.5-.265.5-.235.5 0h3.703l.266-1.734h-.235C4.172-1.438 4.11-1 4-.844c-.063.078-.719.078-.938.078zm0 0" stroke="none"/></symbol></defs><use height="1052.362" width="744.094" xlink:href="#g" x="223.432" y="134.765"/><use height="1052.362" width="744.094" xlink:href="#h" x="231.181" y="134.765"/></g><g transform="translate(-398.812 218.17) scale(2.5424)" ns0:preamble="/home/waldgeist/data/sphinx/test.tex" ns0:text="$-3$"><defs><symbol id="i" overflow="visible"><path d="M6.563-2.297c.171 0 .359 0 .359-.203 0-.188-.188-.188-.36-.188h-5.39c-.172 0-.344 0-.344.188 0 .203.172.203.344.203zm0 0" stroke="none"/></symbol><symbol id="j" overflow="visible"><path d="M2.89-3.516c.813-.265 1.391-.953 1.391-1.75 0-.812-.875-1.375-1.828-1.375-1 0-1.765.594-1.765 1.36 0 .328.218.515.515.515.297 0 .5-.218.5-.515 0-.485-.469-.485-.61-.485.298-.5.954-.625 1.313-.625.422 0 .969.22.969 1.11 0 .125-.031.703-.281 1.14-.297.485-.64.516-.89.516a3.29 3.29 0 0 1-.392.031c-.078.016-.14.031-.14.125 0 .11.062.11.234.11h.438c.812 0 1.187.671 1.187 1.656 0 1.36-.687 1.64-1.125 1.64-.437 0-1.187-.171-1.531-.75.344.047.656-.171.656-.546a.537.537 0 0 0-.547-.563c-.25 0-.562.14-.562.578C.422-.437 1.344.22 2.437.22c1.22 0 2.126-.906 2.126-1.922 0-.813-.641-1.594-1.672-1.813zm0 0" stroke="none"/></symbol></defs><use y="134.765" x="223.432" xlink:href="#i" width="744.094" height="1052.362"/><use y="134.765" x="231.181" xlink:href="#j" width="744.094" height="1052.362"/></g><g ns0:text="$-4$" ns0:preamble="/home/waldgeist/data/sphinx/test.tex" transform="translate(-460.9 218.587) scale(2.5424)"><defs><symbol overflow="visible" id="k"><path d="M6.563-2.297c.171 0 .359 0 .359-.203 0-.188-.188-.188-.36-.188h-5.39c-.172 0-.344 0-.344.188 0 .203.172.203.344.203zm0 0" stroke="none"/></symbol><symbol overflow="visible" id="l"><path d="M2.938-1.64v.859c0 .36-.032.469-.766.469h-.203V0c.406-.031.922-.031 1.343-.031.422 0 .938 0 1.36.031v-.313h-.219c-.734 0-.75-.109-.75-.468v-.86h.985v-.312h-.985v-4.531c0-.204 0-.266-.172-.266-.078 0-.11 0-.187.125L.28-1.953v.312zm.046-.313H.563l2.421-3.719zm0 0" stroke="none"/></symbol></defs><use xlink:href="#k" x="223.432" y="134.765" width="744.094" height="1052.362"/><use xlink:href="#l" x="231.181" y="134.765" width="744.094" height="1052.362"/></g><g transform="translate(-518.398 218.17) scale(2.5424)" ns0:preamble="/home/waldgeist/data/sphinx/test.tex" ns0:text="$-5$"><defs><symbol id="m" overflow="visible"><path d="M6.563-2.297c.171 0 .359 0 .359-.203 0-.188-.188-.188-.36-.188h-5.39c-.172 0-.344 0-.344.188 0 .203.172.203.344.203zm0 0" stroke="none"/></symbol><symbol id="n" overflow="visible"><path d="M4.469-2c0-1.188-.813-2.188-1.89-2.188-.47 0-.907.157-1.267.516v-1.953c.204.063.532.125.844.125 1.235 0 1.938-.906 1.938-1.031 0-.063-.032-.11-.11-.11 0 0-.03 0-.078.032a3.22 3.22 0 0 1-1.36.296 3.4 3.4 0 0 1-1.327-.28c-.078-.032-.094-.032-.11-.032C1-6.625 1-6.547 1-6.391v2.954c0 .171 0 .25.14.25.079 0 .094-.016.141-.079.11-.156.469-.703 1.282-.703.515 0 .765.453.843.64.156.376.188.75.188 1.25 0 .36 0 .954-.25 1.376-.235.39-.61.64-1.063.64-.719 0-1.297-.53-1.469-1.109.032 0 .063.016.172.016.329 0 .5-.25.5-.485 0-.25-.171-.5-.5-.5-.14 0-.484.079-.484.532C.5-.75 1.188.219 2.297.219 3.453.219 4.469-.734 4.469-2zm0 0" stroke="none"/></symbol></defs><use y="134.765" x="223.432" xlink:href="#m" width="744.094" height="1052.362"/><use y="134.765" x="231.181" xlink:href="#n" width="744.094" height="1052.362"/></g><g ns0:text="$2$" ns0:preamble="/home/waldgeist/data/sphinx/test.tex" transform="translate(-80.276 218.448) scale(2.5424)"><defs><symbol overflow="visible" id="o"><path d="M1.266-.766l1.062-1.03c1.547-1.376 2.14-1.907 2.14-2.907 0-1.14-.89-1.938-2.109-1.938A1.843 1.843 0 0 0 .5-4.828c0 .547.5.547.531.547.172 0 .516-.11.516-.532a.513.513 0 0 0-.531-.515c-.079 0-.094 0-.125.016.218-.657.765-1.016 1.343-1.016.907 0 1.329.812 1.329 1.625 0 .797-.485 1.578-1.047 2.203L.609-.375C.5-.265.5-.235.5 0h3.703l.266-1.734h-.235C4.172-1.438 4.11-1 4-.844c-.063.078-.719.078-.938.078zm0 0" stroke="none"/></symbol></defs><use height="1052.362" width="744.094" transform="translate(-.019)" xlink:href="#o" x="223.432" y="134.765"/></g><g transform="translate(-21.027 218.17) scale(2.5424)" ns0:preamble="/home/waldgeist/data/sphinx/test.tex" ns0:text="$3$"><defs><symbol id="p" overflow="visible"><path d="M2.89-3.516c.813-.265 1.391-.953 1.391-1.75 0-.812-.875-1.375-1.828-1.375-1 0-1.765.594-1.765 1.36 0 .328.218.515.515.515.297 0 .5-.218.5-.515 0-.485-.469-.485-.61-.485.298-.5.954-.625 1.313-.625.422 0 .969.22.969 1.11 0 .125-.031.703-.281 1.14-.297.485-.64.516-.89.516a3.29 3.29 0 0 1-.392.031c-.078.016-.14.031-.14.125 0 .11.062.11.234.11h.438c.812 0 1.187.671 1.187 1.656 0 1.36-.687 1.64-1.125 1.64-.437 0-1.187-.171-1.531-.75.344.047.656-.171.656-.546a.537.537 0 0 0-.547-.563c-.25 0-.562.14-.562.578C.422-.437 1.344.22 2.437.22c1.22 0 2.126-.906 2.126-1.922 0-.813-.641-1.594-1.672-1.813zm0 0" stroke="none"/></symbol></defs><use y="134.765" x="223.432" xlink:href="#p" width="744.094" height="1052.362"/></g><g ns0:text="$4$" ns0:preamble="/home/waldgeist/data/sphinx/test.tex" transform="translate(37.075 218.587) scale(2.5424)"><defs><symbol overflow="visible" id="q"><path d="M2.938-1.64v.859c0 .36-.032.469-.766.469h-.203V0c.406-.031.922-.031 1.343-.031.422 0 .938 0 1.36.031v-.313h-.219c-.734 0-.75-.109-.75-.468v-.86h.985v-.312h-.985v-4.531c0-.204 0-.266-.172-.266-.078 0-.11 0-.187.125L.28-1.953v.312zm.046-.313H.563l2.421-3.719zm0 0" stroke="none"/></symbol></defs><use height="1052.362" width="744.094" xlink:href="#q" x="223.432" y="134.765"/></g><g transform="translate(99.043 218.17) scale(2.5424)" ns0:preamble="/home/waldgeist/data/sphinx/test.tex" ns0:text="$5$"><defs><symbol id="r" overflow="visible"><path d="M4.469-2c0-1.188-.813-2.188-1.89-2.188-.47 0-.907.157-1.267.516v-1.953c.204.063.532.125.844.125 1.235 0 1.938-.906 1.938-1.031 0-.063-.032-.11-.11-.11 0 0-.03 0-.078.032a3.22 3.22 0 0 1-1.36.296 3.4 3.4 0 0 1-1.327-.28c-.078-.032-.094-.032-.11-.032C1-6.625 1-6.547 1-6.391v2.954c0 .171 0 .25.14.25.079 0 .094-.016.141-.079.11-.156.469-.703 1.282-.703.515 0 .765.453.843.64.156.376.188.75.188 1.25 0 .36 0 .954-.25 1.376-.235.39-.61.64-1.063.64-.719 0-1.297-.53-1.469-1.109.032 0 .063.016.172.016.329 0 .5-.25.5-.485 0-.25-.171-.5-.5-.5-.14 0-.484.079-.484.532C.5-.75 1.188.219 2.297.219 3.453.219 4.469-.734 4.469-2zm0 0" stroke="none"/></symbol></defs><use y="134.765" x="223.432" xlink:href="#r" width="744.094" height="1052.362"/></g></g><g fill="#4d4d4d" stroke="#4d4d4d" stroke-width="1.18"><g ns0:text="$-1$" ns0:preamble="/home/waldgeist/data/sphinx/test.tex" transform="translate(-241.167 253.76) scale(2.5424)"><use height="1052.362" width="744.094" xlink:href="#e" x="223.432" y="134.765"/><use height="1052.362" width="744.094" xlink:href="#f" x="231.181" y="134.765"/></g><g ns0:preamble="/home/waldgeist/data/sphinx/test.tex" ns0:text="$-2$" transform="translate(-241.922 313.542) scale(2.5424)"><use y="134.765" x="223.432" xlink:href="#g" width="744.094" height="1052.362"/><use y="134.765" x="231.181" xlink:href="#h" width="744.094" height="1052.362"/></g><g ns0:text="$-3$" ns0:preamble="/home/waldgeist/data/sphinx/test.tex" transform="translate(-242.16 373.045) scale(2.5424)"><use height="1052.362" width="744.094" xlink:href="#i" x="223.432" y="134.765"/><use height="1052.362" width="744.094" xlink:href="#j" x="231.181" y="134.765"/></g><g ns0:preamble="/home/waldgeist/data/sphinx/test.tex" ns0:text="$-4$" transform="translate(-242.478 433.244) scale(2.5424)"><use height="1052.362" width="744.094" y="134.765" x="223.432" xlink:href="#k"/><use height="1052.362" width="744.094" y="134.765" x="231.181" xlink:href="#l"/></g><g ns0:text="$-5$" ns0:preamble="/home/waldgeist/data/sphinx/test.tex" transform="translate(-241.922 492.609) scale(2.5424)"><use height="1052.362" width="744.094" xlink:href="#m" x="223.432" y="134.765"/><use height="1052.362" width="744.094" xlink:href="#n" x="231.181" y="134.765"/></g><use height="1052.362" width="744.094" y="134.765" x="223.432" xlink:href="#d" transform="translate(-221.466 134.197) scale(2.5424)" ns0:preamble="/home/waldgeist/data/sphinx/test.tex" ns0:text="$1$"/><use y="134.765" x="223.432" xlink:href="#o" transform="translate(-222.22 74.415) scale(2.5424)" width="744.094" height="1052.362" ns0:preamble="/home/waldgeist/data/sphinx/test.tex" ns0:text="$2$"/><use height="1052.362" width="744.094" xlink:href="#p" x="223.432" y="134.765" transform="translate(-222.46 14.355) scale(2.5424)" ns0:text="$3$" ns0:preamble="/home/waldgeist/data/sphinx/test.tex"/><use y="134.765" x="223.432" xlink:href="#q" width="744.094" height="1052.362" transform="translate(-222.777 -45.01) scale(2.5424)" ns0:preamble="/home/waldgeist/data/sphinx/test.tex" ns0:text="$4$"/><use height="1052.362" width="744.094" xlink:href="#r" x="223.432" y="134.765" transform="translate(-222.22 -105.208) scale(2.5424)" ns0:text="$5$" ns0:preamble="/home/waldgeist/data/sphinx/test.tex"/></g><g stroke="#ccc" stroke-width="1.018" fill="none"><path d="M871.292 229.455V827.41m59.796-597.955V827.41m59.795-597.955V827.41m59.796-597.955V827.41m59.795-597.955V827.41m59.796-597.955V827.41m59.796-597.955V827.41m59.795-597.955V827.41m59.796-597.955V827.41M811.496 289.25h597.956m-597.956 59.796h597.956m-597.956 59.796h597.956m-597.956 59.795h597.956m-597.956 59.796h597.956m-597.956 59.796h597.956m-597.956 59.795h597.956M811.496 707.82h597.956m-597.956 59.795h597.956" stroke-width="1.5"/><path d="M817.476 229.455V827.41m5.98-597.955V827.41m5.979-597.955V827.41m5.98-597.955V827.41m5.979-597.955V827.41m5.98-597.955V827.41m5.979-597.955V827.41m5.98-597.955V827.41m5.979-597.955V827.41m11.96-597.955V827.41m5.979-597.955V827.41m5.979-597.955V827.41m5.98-597.955V827.41m5.98-597.955V827.41m5.98-597.955V827.41m5.979-597.955V827.41m5.979-597.955V827.41m5.98-597.955V827.41m11.959-597.955V827.41m5.98-597.955V827.41m5.979-597.955V827.41m5.98-597.955V827.41m5.979-597.955V827.41m5.98-597.955V827.41m5.98-597.955V827.41m5.979-597.955V827.41m5.98-597.955V827.41m11.959-597.955V827.41m5.979-597.955V827.41m5.98-597.955V827.41m5.979-597.955V827.41m5.98-597.955V827.41m5.979-597.955V827.41m5.98-597.955V827.41m5.98-597.955V827.41m5.98-597.955V827.41m11.958-597.955V827.41m5.98-597.955V827.41m5.98-597.955V827.41m5.979-597.955V827.41m5.98-597.955V827.41m5.979-597.955V827.41m5.98-597.955V827.41m5.979-597.955V827.41m5.98-597.955V827.41m11.959-597.955V827.41m5.98-597.955V827.41m5.979-597.955V827.41m5.98-597.955V827.41m5.979-597.955V827.41m5.98-597.955V827.41m5.979-597.955V827.41m5.979-597.955V827.41m5.98-597.955V827.41m11.96-597.955V827.41m5.98-597.955V827.41m5.979-597.955V827.41m5.979-597.955V827.41m5.98-597.955V827.41m5.979-597.955V827.41m5.98-597.955V827.41m5.98-597.955V827.41m5.979-597.955V827.41m11.959-597.955V827.41m5.98-597.955V827.41m5.979-597.955V827.41m5.98-597.955V827.41m5.979-597.955V827.41m5.98-597.955V827.41m5.98-597.955V827.41m5.979-597.955V827.41m5.98-597.955V827.41m11.958-597.955V827.41m5.98-597.955V827.41m5.98-597.955V827.41m5.98-597.955V827.41m5.98-597.955V827.41m5.979-597.955V827.41m5.979-597.955V827.41m5.98-597.955V827.41m5.979-597.955V827.41m11.959-597.955V827.41m5.98-597.955V827.41m5.98-597.955V827.41m5.979-597.955V827.41m5.98-597.955V827.41m5.979-597.955V827.41m5.98-597.955V827.41m5.979-597.955V827.41m5.98-597.955V827.41M811.496 235.434h597.956m-597.956 5.98h597.956m-597.956 5.98h597.956m-597.956 5.979h597.956m-597.956 5.98h597.956m-597.956 5.979h597.956m-597.956 5.98h597.956m-597.956 5.979h597.956m-597.956 5.98h597.956M811.496 295.23h597.956m-597.956 5.98h597.956m-597.956 5.98h597.956m-597.956 5.979h597.956m-597.956 5.979h597.956m-597.956 5.98h597.956m-597.956 5.979h597.956m-597.956 5.98h597.956m-597.956 5.98h597.956m-597.956 11.959h597.956m-597.956 5.979h597.956m-597.956 5.98h597.956m-597.956 5.979h597.956m-597.956 5.98h597.956m-597.956 5.979h597.956m-597.956 5.98h597.956m-597.956 5.98h597.956m-597.956 5.979h597.956m-597.956 11.959h597.956M811.496 420.8h597.956m-597.956 5.98h597.956m-597.956 5.98h597.956m-597.956 5.98h597.956m-597.956 5.98h597.956m-597.956 5.979h597.956m-597.956 5.979h597.956m-597.956 5.98h597.956m-597.956 11.959h597.956m-597.956 5.979h597.956m-597.956 5.98h597.956m-597.956 5.98h597.956m-597.956 5.979h597.956m-597.956 5.98h597.956m-597.956 5.979h597.956m-597.956 5.98h597.956m-597.956 5.979h597.956m-597.956 11.96h597.956m-597.956 5.979h597.956m-597.956 5.98h597.956m-597.956 5.979h597.956m-597.956 5.979h597.956m-597.956 5.98h597.956m-597.956 5.98h597.956m-597.956 5.98h597.956m-597.956 5.979h597.956m-597.956 11.959h597.956m-597.956 5.98h597.956m-597.956 5.979h597.956m-597.956 5.98h597.956m-597.956 5.979h597.956m-597.956 5.98h597.956m-597.956 5.979h597.956m-597.956 5.98h597.956m-597.956 5.98h597.956m-597.956 11.959h597.956m-597.956 5.979h597.956m-597.956 5.98h597.956m-597.956 5.979h597.956m-597.956 5.98h597.956m-597.956 5.98h597.956m-597.956 5.979h597.956m-597.956 5.979h597.956m-597.956 5.98h597.956M811.496 713.8h597.956m-597.956 5.979h597.956m-597.956 5.979h597.956m-597.956 5.98h597.956m-597.956 5.98h597.956m-597.956 5.979h597.956m-597.956 5.98h597.956m-597.956 5.979h597.956m-597.956 5.98h597.956m-597.956 11.959h597.956m-597.956 5.979h597.956m-597.956 5.98h597.956m-597.956 5.98h597.956m-597.956 5.979h597.956m-597.956 5.98h597.956m-597.956 5.979h597.956m-597.956 5.98h597.956m-597.956 5.979h597.956" stroke-width=".5"/><path stroke-width="1.5" d="M811.496 229.455h597.956V827.41H811.496z"/></g><path d="M1092.618 184.62c.192-.576.192-.64.192-.96 0-.702-.575-1.086-1.214-1.086-.384 0-1.023.256-1.406.83-.064.257-.447 1.47-.575 2.238-.32 1.022-.575 2.172-.831 3.259l-1.853 7.349c-.128.575-1.917 3.45-4.602 3.45-2.045 0-2.492-1.788-2.492-3.322 0-1.853.703-4.41 2.045-7.988.64-1.662.83-2.11.83-2.94 0-1.79-1.277-3.323-3.322-3.323-3.898 0-5.368 5.943-5.368 6.263 0 .447.383.447.447.447.447 0 .447-.128.64-.767 1.15-3.834 2.747-5.049 4.153-5.049.32 0 1.022 0 1.022 1.279 0 1.022-.447 2.108-.702 2.875-1.662 4.346-2.365 6.647-2.365 8.564 0 3.642 2.556 4.857 4.985 4.857 1.597 0 2.94-.703 4.09-1.854-.512 2.11-1.023 4.154-2.62 6.327-1.087 1.342-2.62 2.556-4.474 2.556-.575 0-2.428-.128-3.131-1.725.639 0 1.214 0 1.725-.511.447-.32.83-.895.83-1.662 0-1.278-1.085-1.406-1.469-1.406-.959 0-2.3.64-2.3 2.62 0 2.045 1.789 3.579 4.345 3.579 4.154 0 8.372-3.707 9.522-8.308zm0 0"/><g transform="translate(683.15 -573.232) scale(1.64486)"><use height="1052.362" width="744.094" transform="rotate(-90 260.13 669.425)" xlink:href="#a"/><path d="M267.064 597.056h-14.788m14.788-36.353h-14.788m14.788-36.353h-14.788m14.788-36.353h-14.788m14.788 218.118h-14.788m14.788 36.353h-14.788m14.788 36.352h-14.788m14.788 36.354h-14.788m14.788 36.352h-14.788" fill="none" stroke="#000" stroke-width=".947"/><path d="M266.94 633.409H252.4" fill="none" stroke="#000" stroke-width="1.216"/></g><path d="M1450.484 549.602c.255-1.023 1.214-4.793 4.026-4.793.191 0 1.214 0 2.045.511-1.15.256-1.917 1.214-1.917 2.237 0 .639.447 1.406 1.533 1.406.895 0 2.173-.703 2.173-2.365 0-2.109-2.364-2.684-3.77-2.684-2.365 0-3.77 2.173-4.282 3.068-1.023-2.685-3.195-3.068-4.41-3.068-4.217 0-6.582 5.24-6.582 6.263 0 .447.447.447.511.447.32 0 .448-.128.512-.447 1.406-4.346 4.09-5.368 5.496-5.368.766 0 2.172.383 2.172 2.748 0 1.278-.703 3.962-2.172 9.713-.64 2.493-2.11 4.218-3.899 4.218-.255 0-1.15 0-2.045-.511 1.023-.256 1.917-1.086 1.917-2.237 0-1.086-.894-1.406-1.47-1.406-1.277 0-2.236 1.023-2.236 2.365 0 1.853 1.981 2.684 3.77 2.684 2.748 0 4.218-2.876 4.282-3.068.511 1.47 1.981 3.068 4.41 3.068 4.217 0 6.518-5.24 6.518-6.263 0-.447-.32-.447-.447-.447-.384 0-.448.191-.576.447-1.342 4.41-4.09 5.368-5.368 5.368-1.597 0-2.236-1.278-2.236-2.684 0-.895.191-1.79.639-3.579zm0 0"/><g transform="translate(683.15 -573.232) scale(1.64486)"><path d="M49.357 669.425h417.187" fill="none" stroke="#000" stroke-width="1.824" marker-end="url(#b)"/><path d="M295.897 662.12v14.54" fill="none" stroke="#000" stroke-width="1.216"/><use height="1052.362" width="744.094" transform="translate(36.353)" xlink:href="#c"/><use height="1052.362" width="744.094" transform="translate(72.706)" xlink:href="#c"/><use height="1052.362" width="744.094" transform="translate(109.059)" xlink:href="#c"/><use height="1052.362" width="744.094" transform="translate(-145.412)" xlink:href="#c"/><use height="1052.362" width="744.094" transform="translate(-181.765)" xlink:href="#c"/><use height="1052.362" width="744.094" transform="translate(-218.118)" xlink:href="#c"/><use xlink:href="#c" transform="translate(-108.544 .07)" width="744.094" height="1052.362"/><use xlink:href="#c" transform="translate(-72.456 .035)" width="1052.362" height="744.094"/><use xlink:href="#c" transform="translate(145.662 .035)" width="1052.362" height="744.094"/></g><g fill="#4d4d4d" stroke="green" stroke-width="1.18"><g ns0:text="$-1$" ns0:preamble="/home/waldgeist/data/sphinx/test.tex" transform="translate(494.447 253.76) scale(2.5424)"><use height="1052.362" width="744.094" xlink:href="#e" x="223.432" y="134.765"/><use height="1052.362" width="744.094" xlink:href="#f" x="231.181" y="134.765"/></g><g ns0:preamble="/home/waldgeist/data/sphinx/test.tex" ns0:text="$-2$" transform="translate(493.692 313.542) scale(2.5424)"><use y="134.765" x="223.432" xlink:href="#g" width="744.094" height="1052.362"/><use y="134.765" x="231.181" xlink:href="#h" width="744.094" height="1052.362"/></g><g ns0:text="$-3$" ns0:preamble="/home/waldgeist/data/sphinx/test.tex" transform="translate(493.454 373.045) scale(2.5424)"><use height="1052.362" width="744.094" xlink:href="#i" x="223.432" y="134.765"/><use height="1052.362" width="744.094" xlink:href="#j" x="231.181" y="134.765"/></g><g ns0:preamble="/home/waldgeist/data/sphinx/test.tex" ns0:text="$-4$" transform="translate(493.136 433.244) scale(2.5424)"><use height="1052.362" width="744.094" y="134.765" x="223.432" xlink:href="#k"/><use height="1052.362" width="744.094" y="134.765" x="231.181" xlink:href="#l"/></g><g ns0:text="$-5$" ns0:preamble="/home/waldgeist/data/sphinx/test.tex" transform="translate(493.692 492.609) scale(2.5424)"><use height="1052.362" width="744.094" xlink:href="#m" x="223.432" y="134.765"/><use height="1052.362" width="744.094" xlink:href="#n" x="231.181" y="134.765"/></g><use height="1052.362" width="744.094" y="134.765" x="223.432" xlink:href="#d" transform="translate(514.148 134.197) scale(2.5424)" ns0:preamble="/home/waldgeist/data/sphinx/test.tex" ns0:text="$1$"/><use y="134.765" x="223.432" xlink:href="#o" transform="translate(513.393 74.415) scale(2.5424)" width="744.094" height="1052.362" ns0:preamble="/home/waldgeist/data/sphinx/test.tex" ns0:text="$2$"/><use height="1052.362" width="744.094" xlink:href="#p" x="223.432" y="134.765" transform="translate(513.155 14.355) scale(2.5424)" ns0:text="$3$" ns0:preamble="/home/waldgeist/data/sphinx/test.tex"/><use y="134.765" x="223.432" xlink:href="#q" width="744.094" height="1052.362" transform="translate(512.837 -45.01) scale(2.5424)" ns0:preamble="/home/waldgeist/data/sphinx/test.tex" ns0:text="$4$"/><use height="1052.362" width="744.094" xlink:href="#r" x="223.432" y="134.765" transform="translate(513.393 -105.208) scale(2.5424)" ns0:text="$5$" ns0:preamble="/home/waldgeist/data/sphinx/test.tex"/></g><g fill="#4d4d4d" stroke="green" stroke-width="1.18"><use height="1052.362" width="744.094" y="134.765" x="223.432" xlink:href="#d" transform="translate(595.98 218.448) scale(2.5424)" ns0:preamble="/home/waldgeist/data/sphinx/test.tex" ns0:text="$1$"/><g ns0:text="$-1$" ns0:preamble="/home/waldgeist/data/sphinx/test.tex" transform="translate(456.462 218.448) scale(2.5424)"><use height="1052.362" width="744.094" xlink:href="#e" x="223.432" y="134.765"/><use height="1052.362" width="744.094" xlink:href="#f" x="231.181" y="134.765"/></g><g ns0:preamble="/home/waldgeist/data/sphinx/test.tex" ns0:text="$-2$" transform="translate(396.67 218.448) scale(2.5424)"><use y="134.765" x="223.432" xlink:href="#g" width="744.094" height="1052.362"/><use y="134.765" x="231.181" xlink:href="#h" width="744.094" height="1052.362"/></g><g ns0:text="$-3$" ns0:preamble="/home/waldgeist/data/sphinx/test.tex" transform="translate(337.359 218.17) scale(2.5424)"><use height="1052.362" width="744.094" xlink:href="#i" x="223.432" y="134.765"/><use height="1052.362" width="744.094" xlink:href="#j" x="231.181" y="134.765"/></g><g ns0:preamble="/home/waldgeist/data/sphinx/test.tex" ns0:text="$-4$" transform="translate(275.27 218.587) scale(2.5424)"><use height="1052.362" width="744.094" y="134.765" x="223.432" xlink:href="#k"/><use height="1052.362" width="744.094" y="134.765" x="231.181" xlink:href="#l"/></g><g ns0:text="$-5$" ns0:preamble="/home/waldgeist/data/sphinx/test.tex" transform="translate(217.772 218.17) scale(2.5424)"><use height="1052.362" width="744.094" xlink:href="#m" x="223.432" y="134.765"/><use height="1052.362" width="744.094" xlink:href="#n" x="231.181" y="134.765"/></g><use y="134.765" x="223.432" xlink:href="#o" transform="translate(655.847 218.448) scale(2.5424)" width="744.094" height="1052.362" ns0:preamble="/home/waldgeist/data/sphinx/test.tex" ns0:text="$2$"/><use height="1052.362" width="744.094" xlink:href="#p" x="223.432" y="134.765" transform="translate(715.144 218.17) scale(2.5424)" ns0:text="$3$" ns0:preamble="/home/waldgeist/data/sphinx/test.tex"/><use y="134.765" x="223.432" xlink:href="#q" width="744.094" height="1052.362" transform="translate(773.246 218.587) scale(2.5424)" ns0:preamble="/home/waldgeist/data/sphinx/test.tex" ns0:text="$4$"/><use height="1052.362" width="744.094" xlink:href="#r" x="223.432" y="134.765" transform="translate(835.214 218.17) scale(2.5424)" ns0:text="$5$" ns0:preamble="/home/waldgeist/data/sphinx/test.tex"/></g><path d="M375.354 527.367c49.502-.921 92.905-117.998 132.978-298.478M375.307 527.367c-49.503-.921-92.905-117.998-132.978-298.478" fill="none" stroke="green" stroke-width="3" stroke-linecap="round"/><g ns0:text="\\begin{align*}\ny &amp;= (x + 0)^2 \n\\end{align*}" ns0:preamble="/home/waldgeist/data/sphinx/test.tex" transform="translate(-514.023 -126.938) scale(2.5424)" fill="green" stroke="green" stroke-width="1.18"><defs><symbol overflow="visible" id="s"><path d="M4.844-3.797c.047-.14.047-.156.047-.234 0-.172-.141-.266-.297-.266a.455.455 0 0 0-.344.203c-.016.063-.11.36-.14.547-.079.25-.141.531-.204.797L3.453-.953c-.031.14-.469.844-1.125.844-.5 0-.61-.438-.61-.813 0-.453.173-1.078.5-1.953.157-.406.204-.516.204-.719 0-.437-.313-.812-.813-.812-.953 0-1.312 1.453-1.312 1.531 0 .11.094.11.11.11.109 0 .109-.032.156-.188.28-.938.671-1.235 1.015-1.235.078 0 .25 0 .25.313 0 .25-.11.516-.172.703-.406 1.063-.578 1.625-.578 2.094 0 .89.625 1.187 1.219 1.187.39 0 .719-.171 1-.453-.125.516-.25 1.016-.64 1.547-.266.328-.641.625-1.095.625-.14 0-.593-.031-.765-.422.156 0 .297 0 .422-.125a.493.493 0 0 0 .203-.406c0-.313-.266-.344-.36-.344C.829.531.5.687.5 1.171c0 .5.438.876 1.063.876 1.015 0 2.046-.906 2.328-2.031zm0 0" stroke="none"/></symbol><symbol overflow="visible" id="v"><path d="M3.328-3.016c.063-.25.297-1.171.985-1.171.046 0 .296 0 .5.125a.578.578 0 0 0-.47.546c0 .157.11.344.376.344a.546.546 0 0 0 .531-.578c0-.516-.578-.656-.922-.656-.578 0-.922.531-1.047.75-.25-.656-.781-.75-1.078-.75-1.031 0-1.61 1.281-1.61 1.531 0 .11.11.11.126.11.078 0 .11-.032.125-.11.344-1.063 1-1.313 1.344-1.313.187 0 .53.094.53.672 0 .313-.171.97-.53 2.375-.157.61-.516 1.032-.954 1.032-.062 0-.28 0-.5-.125.25-.063.47-.266.47-.547 0-.266-.22-.344-.36-.344-.313 0-.547.25-.547.578 0 .453.484.656.922.656.672 0 1.031-.703 1.047-.75.125.36.484.75 1.078.75 1.031 0 1.594-1.28 1.594-1.53 0-.11-.079-.11-.11-.11-.094 0-.11.047-.14.11-.329 1.077-1 1.312-1.313 1.312-.39 0-.547-.313-.547-.657 0-.218.047-.437.156-.875zm0 0" stroke="none"/></symbol><symbol overflow="visible" id="t"><path d="M6.844-3.266c.156 0 .343 0 .343-.187 0-.203-.187-.203-.328-.203H.891c-.141 0-.329 0-.329.203 0 .187.188.187.329.187zm.015 1.938c.141 0 .329 0 .329-.203 0-.188-.188-.188-.344-.188H.89c-.141 0-.329 0-.329.188 0 .203.188.203.329.203zm0 0" stroke="none"/></symbol><symbol overflow="visible" id="u"><path d="M3.297 2.39c0-.03 0-.046-.172-.218C1.891.922 1.562-.968 1.562-2.5c0-1.734.375-3.469 1.61-4.703.125-.125.125-.14.125-.172 0-.078-.031-.11-.094-.11-.11 0-1 .688-1.594 1.954C1.11-4.438.984-3.328.984-2.5c0 .781.11 1.984.657 3.125C2.25 1.844 3.094 2.5 3.203 2.5c.063 0 .094-.031.094-.11zm0 0" stroke="none"/></symbol><symbol overflow="visible" id="w"><path d="M4.078-2.297H6.86c.141 0 .329 0 .329-.203 0-.188-.188-.188-.329-.188H4.08v-2.796c0-.141 0-.329-.204-.329-.203 0-.203.188-.203.329v2.796H.89c-.141 0-.329 0-.329.188 0 .203.188.203.329.203h2.78V.5c0 .14 0 .328.204.328.203 0 .203-.187.203-.328zm0 0" stroke="none"/></symbol><symbol overflow="visible" id="x"><path d="M4.578-3.188c0-.796-.047-1.593-.39-2.328C3.733-6.484 2.905-6.64 2.5-6.64c-.61 0-1.328.266-1.75 1.188-.313.687-.36 1.469-.36 2.266 0 .75.032 1.64.454 2.406a1.83 1.83 0 0 0 1.64 1c.532 0 1.297-.203 1.735-1.157.312-.687.36-1.468.36-2.25zM2.484 0c-.39 0-.984-.25-1.156-1.203-.11-.594-.11-1.516-.11-2.11 0-.64 0-1.296.079-1.828.187-1.187.937-1.28 1.187-1.28.329 0 .985.187 1.172 1.171.11.563.11 1.313.11 1.938 0 .75 0 1.421-.11 2.062C3.5-.297 2.937 0 2.484 0zm0 0" stroke="none"/></symbol><symbol overflow="visible" id="y"><path d="M2.875-2.5c0-.766-.11-1.969-.656-3.11C1.625-6.827.766-7.483.672-7.483a.107.107 0 0 0-.11.109c0 .031 0 .047.188.234.984.985 1.547 2.563 1.547 4.641C2.297-.78 1.937.97.703 2.22c-.14.125-.14.14-.14.172 0 .062.046.109.109.109.094 0 1-.688 1.578-1.953.516-1.094.625-2.203.625-3.047zm0 0" stroke="none"/></symbol><symbol overflow="visible" id="z"><path d="M3.516-1.266H3.28c-.015.157-.094.563-.187.625-.047.047-.578.047-.688.047h-1.28c.734-.64.984-.844 1.39-1.172.516-.406 1-.843 1-1.5 0-.843-.734-1.359-1.624-1.359-.86 0-1.454.61-1.454 1.25 0 .344.297.39.376.39a.365.365 0 0 0 .359-.374c0-.125-.047-.375-.406-.375.218-.485.687-.641 1.015-.641.703 0 1.063.547 1.063 1.11 0 .609-.438 1.078-.656 1.328L.516-.266C.437-.203.437-.187.437 0h2.876zm0 0" stroke="none"/></symbol></defs><use height="1052.362" width="1488.189" xlink:href="#s" x="368.49" y="134.765"/><use height="1052.362" width="1488.189" xlink:href="#t" x="376.499" y="134.765"/><use height="1052.362" width="1488.189" xlink:href="#u" x="387.018" y="134.765"/><use height="1052.362" width="1488.189" xlink:href="#v" x="390.89" y="134.765"/><use height="1052.362" width="1488.189" xlink:href="#w" x="398.798" y="134.765"/><use height="1052.362" width="1488.189" xlink:href="#x" x="408.759" y="134.765"/><use height="1052.362" width="1488.189" xlink:href="#y" x="413.74" y="134.765"/><use height="1052.362" width="1488.189" xlink:href="#z" x="417.616" y="130.651"/></g><path d="M194.955 527.367c49.503-.921 92.905-117.998 132.978-298.478M194.908 527.367c-43.793-.815-82.97-92.523-119.133-238.629" stroke="#916f7c" fill="none" stroke-width="3" stroke-linecap="round"/><g transform="translate(-858.866 -63.684) scale(2.5424)" ns0:preamble="/home/waldgeist/data/sphinx/test.tex" ns0:text="\\begin{align*}\ny &amp;= (x + 3)^2 \n\\end{align*}" fill="#916f7c" stroke="#916f7c" stroke-width="1.18"><defs><symbol id="A" overflow="visible"><path d="M4.844-3.797c.047-.14.047-.156.047-.234 0-.172-.141-.266-.297-.266a.455.455 0 0 0-.344.203c-.016.063-.11.36-.14.547-.079.25-.141.531-.204.797L3.453-.953c-.031.14-.469.844-1.125.844-.5 0-.61-.438-.61-.813 0-.453.173-1.078.5-1.953.157-.406.204-.516.204-.719 0-.437-.313-.812-.813-.812-.953 0-1.312 1.453-1.312 1.531 0 .11.094.11.11.11.109 0 .109-.032.156-.188.28-.938.671-1.235 1.015-1.235.078 0 .25 0 .25.313 0 .25-.11.516-.172.703-.406 1.063-.578 1.625-.578 2.094 0 .89.625 1.187 1.219 1.187.39 0 .719-.171 1-.453-.125.516-.25 1.016-.64 1.547-.266.328-.641.625-1.095.625-.14 0-.593-.031-.765-.422.156 0 .297 0 .422-.125a.493.493 0 0 0 .203-.406c0-.313-.266-.344-.36-.344C.829.531.5.687.5 1.171c0 .5.438.876 1.063.876 1.015 0 2.046-.906 2.328-2.031zm0 0" stroke="none"/></symbol><symbol id="D" overflow="visible"><path d="M3.328-3.016c.063-.25.297-1.171.985-1.171.046 0 .296 0 .5.125a.578.578 0 0 0-.47.546c0 .157.11.344.376.344a.546.546 0 0 0 .531-.578c0-.516-.578-.656-.922-.656-.578 0-.922.531-1.047.75-.25-.656-.781-.75-1.078-.75-1.031 0-1.61 1.281-1.61 1.531 0 .11.11.11.126.11.078 0 .11-.032.125-.11.344-1.063 1-1.313 1.344-1.313.187 0 .53.094.53.672 0 .313-.171.97-.53 2.375-.157.61-.516 1.032-.954 1.032-.062 0-.28 0-.5-.125.25-.063.47-.266.47-.547 0-.266-.22-.344-.36-.344-.313 0-.547.25-.547.578 0 .453.484.656.922.656.672 0 1.031-.703 1.047-.75.125.36.484.75 1.078.75 1.031 0 1.594-1.28 1.594-1.53 0-.11-.079-.11-.11-.11-.094 0-.11.047-.14.11-.329 1.077-1 1.312-1.313 1.312-.39 0-.547-.313-.547-.657 0-.218.047-.437.156-.875zm0 0" stroke="none"/></symbol><symbol id="B" overflow="visible"><path d="M6.844-3.266c.156 0 .343 0 .343-.187 0-.203-.187-.203-.328-.203H.891c-.141 0-.329 0-.329.203 0 .187.188.187.329.187zm.015 1.938c.141 0 .329 0 .329-.203 0-.188-.188-.188-.344-.188H.89c-.141 0-.329 0-.329.188 0 .203.188.203.329.203zm0 0" stroke="none"/></symbol><symbol id="C" overflow="visible"><path d="M3.297 2.39c0-.03 0-.046-.172-.218C1.891.922 1.562-.968 1.562-2.5c0-1.734.375-3.469 1.61-4.703.125-.125.125-.14.125-.172 0-.078-.031-.11-.094-.11-.11 0-1 .688-1.594 1.954C1.11-4.438.984-3.328.984-2.5c0 .781.11 1.984.657 3.125C2.25 1.844 3.094 2.5 3.203 2.5c.063 0 .094-.031.094-.11zm0 0" stroke="none"/></symbol><symbol id="E" overflow="visible"><path d="M4.078-2.297H6.86c.141 0 .329 0 .329-.203 0-.188-.188-.188-.329-.188H4.08v-2.796c0-.141 0-.329-.204-.329-.203 0-.203.188-.203.329v2.796H.89c-.141 0-.329 0-.329.188 0 .203.188.203.329.203h2.78V.5c0 .14 0 .328.204.328.203 0 .203-.187.203-.328zm0 0" stroke="none"/></symbol><symbol id="F" overflow="visible"><path d="M2.89-3.516c.813-.265 1.391-.953 1.391-1.75 0-.812-.875-1.375-1.828-1.375-1 0-1.765.594-1.765 1.36 0 .328.218.515.515.515.297 0 .5-.218.5-.515 0-.485-.469-.485-.61-.485.298-.5.954-.625 1.313-.625.422 0 .969.22.969 1.11 0 .125-.031.703-.281 1.14-.297.485-.64.516-.89.516a3.29 3.29 0 0 1-.392.031c-.078.016-.14.031-.14.125 0 .11.062.11.234.11h.438c.812 0 1.187.671 1.187 1.656 0 1.36-.687 1.64-1.125 1.64-.437 0-1.187-.171-1.531-.75.344.047.656-.171.656-.546a.537.537 0 0 0-.547-.563c-.25 0-.562.14-.562.578C.422-.437 1.344.22 2.437.22c1.22 0 2.126-.906 2.126-1.922 0-.813-.641-1.594-1.672-1.813zm0 0" stroke="none"/></symbol><symbol id="G" overflow="visible"><path d="M2.875-2.5c0-.766-.11-1.969-.656-3.11C1.625-6.827.766-7.483.672-7.483a.107.107 0 0 0-.11.109c0 .031 0 .047.188.234.984.985 1.547 2.563 1.547 4.641C2.297-.78 1.937.97.703 2.22c-.14.125-.14.14-.14.172 0 .062.046.109.109.109.094 0 1-.688 1.578-1.953.516-1.094.625-2.203.625-3.047zm0 0" stroke="none"/></symbol><symbol id="H" overflow="visible"><path d="M3.516-1.266H3.28c-.015.157-.094.563-.187.625-.047.047-.578.047-.688.047h-1.28c.734-.64.984-.844 1.39-1.172.516-.406 1-.843 1-1.5 0-.843-.734-1.359-1.624-1.359-.86 0-1.454.61-1.454 1.25 0 .344.297.39.376.39a.365.365 0 0 0 .359-.374c0-.125-.047-.375-.406-.375.218-.485.687-.641 1.015-.641.703 0 1.063.547 1.063 1.11 0 .609-.438 1.078-.656 1.328L.516-.266C.437-.203.437-.187.437 0h2.876zm0 0" stroke="none"/></symbol></defs><use y="134.765" x="368.49" xlink:href="#A" width="1488.189" height="1052.362"/><use y="134.765" x="376.499" xlink:href="#B" width="1488.189" height="1052.362"/><use y="134.765" x="387.018" xlink:href="#C" width="1488.189" height="1052.362"/><use y="134.765" x="390.89" xlink:href="#D" width="1488.189" height="1052.362"/><use y="134.765" x="398.798" xlink:href="#E" width="1488.189" height="1052.362"/><use y="134.765" x="408.759" xlink:href="#F" width="1488.189" height="1052.362"/><use y="134.765" x="413.74" xlink:href="#G" width="1488.189" height="1052.362"/><use y="130.651" x="417.616" xlink:href="#H" width="1488.189" height="1052.362"/></g><path d="M524.242 527.367c49.502-.921 92.905-117.998 132.978-298.478M524.195 527.367c-49.502-.921-92.905-117.998-132.978-298.478" stroke="#5500d4" fill="none" stroke-width="3" stroke-linecap="round"/><g transform="translate(-351.399 -126.938) scale(2.5424)" ns0:preamble="/home/waldgeist/data/sphinx/test.tex" ns0:text="\\begin{align*}\ny &amp;= (x - 2,5)^2 \n\\end{align*}" fill="#5500d4" stroke="#5500d4" stroke-width="1.18"><defs><symbol id="I" overflow="visible"><path d="M4.844-3.797c.047-.14.047-.156.047-.234 0-.172-.141-.266-.297-.266a.455.455 0 0 0-.344.203c-.016.063-.11.36-.14.547-.079.25-.141.531-.204.797L3.453-.953c-.031.14-.469.844-1.125.844-.5 0-.61-.438-.61-.813 0-.453.173-1.078.5-1.953.157-.406.204-.516.204-.719 0-.437-.313-.812-.813-.812-.953 0-1.312 1.453-1.312 1.531 0 .11.094.11.11.11.109 0 .109-.032.156-.188.28-.938.671-1.235 1.015-1.235.078 0 .25 0 .25.313 0 .25-.11.516-.172.703-.406 1.063-.578 1.625-.578 2.094 0 .89.625 1.187 1.219 1.187.39 0 .719-.171 1-.453-.125.516-.25 1.016-.64 1.547-.266.328-.641.625-1.095.625-.14 0-.593-.031-.765-.422.156 0 .297 0 .422-.125a.493.493 0 0 0 .203-.406c0-.313-.266-.344-.36-.344C.829.531.5.687.5 1.171c0 .5.438.876 1.063.876 1.015 0 2.046-.906 2.328-2.031zm0 0" stroke="none"/></symbol><symbol id="L" overflow="visible"><path d="M3.328-3.016c.063-.25.297-1.171.985-1.171.046 0 .296 0 .5.125a.578.578 0 0 0-.47.546c0 .157.11.344.376.344a.546.546 0 0 0 .531-.578c0-.516-.578-.656-.922-.656-.578 0-.922.531-1.047.75-.25-.656-.781-.75-1.078-.75-1.031 0-1.61 1.281-1.61 1.531 0 .11.11.11.126.11.078 0 .11-.032.125-.11.344-1.063 1-1.313 1.344-1.313.187 0 .53.094.53.672 0 .313-.171.97-.53 2.375-.157.61-.516 1.032-.954 1.032-.062 0-.28 0-.5-.125.25-.063.47-.266.47-.547 0-.266-.22-.344-.36-.344-.313 0-.547.25-.547.578 0 .453.484.656.922.656.672 0 1.031-.703 1.047-.75.125.36.484.75 1.078.75 1.031 0 1.594-1.28 1.594-1.53 0-.11-.079-.11-.11-.11-.094 0-.11.047-.14.11-.329 1.077-1 1.312-1.313 1.312-.39 0-.547-.313-.547-.657 0-.218.047-.437.156-.875zm0 0" stroke="none"/></symbol><symbol id="O" overflow="visible"><path d="M2.031-.016c0-.656-.25-1.046-.64-1.046a.517.517 0 0 0-.532.53c0 .266.204.532.532.532a.58.58 0 0 0 .343-.125c.032-.031.047-.031.047-.031.016 0 .016 0 .016.14 0 .75-.344 1.344-.672 1.672-.11.11-.11.125-.11.157 0 .078.048.109.094.109.11 0 .922-.766.922-1.938zm0 0" stroke="none"/></symbol><symbol id="J" overflow="visible"><path d="M6.844-3.266c.156 0 .343 0 .343-.187 0-.203-.187-.203-.328-.203H.891c-.141 0-.329 0-.329.203 0 .187.188.187.329.187zm.015 1.938c.141 0 .329 0 .329-.203 0-.188-.188-.188-.344-.188H.89c-.141 0-.329 0-.329.188 0 .203.188.203.329.203zm0 0" stroke="none"/></symbol><symbol id="K" overflow="visible"><path d="M3.297 2.39c0-.03 0-.046-.172-.218C1.891.922 1.562-.968 1.562-2.5c0-1.734.375-3.469 1.61-4.703.125-.125.125-.14.125-.172 0-.078-.031-.11-.094-.11-.11 0-1 .688-1.594 1.954C1.11-4.438.984-3.328.984-2.5c0 .781.11 1.984.657 3.125C2.25 1.844 3.094 2.5 3.203 2.5c.063 0 .094-.031.094-.11zm0 0" stroke="none"/></symbol><symbol id="N" overflow="visible"><path d="M1.266-.766l1.062-1.03c1.547-1.376 2.14-1.907 2.14-2.907 0-1.14-.89-1.938-2.109-1.938A1.843 1.843 0 0 0 .5-4.828c0 .547.5.547.531.547.172 0 .516-.11.516-.532a.513.513 0 0 0-.531-.515c-.079 0-.094 0-.125.016.218-.657.765-1.016 1.343-1.016.907 0 1.329.812 1.329 1.625 0 .797-.485 1.578-1.047 2.203L.609-.375C.5-.265.5-.235.5 0h3.703l.266-1.734h-.235C4.172-1.438 4.11-1 4-.844c-.063.078-.719.078-.938.078zm0 0" stroke="none"/></symbol><symbol id="P" overflow="visible"><path d="M4.469-2c0-1.188-.813-2.188-1.89-2.188-.47 0-.907.157-1.267.516v-1.953c.204.063.532.125.844.125 1.235 0 1.938-.906 1.938-1.031 0-.063-.032-.11-.11-.11 0 0-.03 0-.078.032a3.22 3.22 0 0 1-1.36.296 3.4 3.4 0 0 1-1.327-.28c-.078-.032-.094-.032-.11-.032C1-6.625 1-6.547 1-6.391v2.954c0 .171 0 .25.14.25.079 0 .094-.016.141-.079.11-.156.469-.703 1.282-.703.515 0 .765.453.843.64.156.376.188.75.188 1.25 0 .36 0 .954-.25 1.376-.235.39-.61.64-1.063.64-.719 0-1.297-.53-1.469-1.109.032 0 .063.016.172.016.329 0 .5-.25.5-.485 0-.25-.171-.5-.5-.5-.14 0-.484.079-.484.532C.5-.75 1.188.219 2.297.219 3.453.219 4.469-.734 4.469-2zm0 0" stroke="none"/></symbol><symbol id="Q" overflow="visible"><path d="M2.875-2.5c0-.766-.11-1.969-.656-3.11C1.625-6.827.766-7.483.672-7.483a.107.107 0 0 0-.11.109c0 .031 0 .047.188.234.984.985 1.547 2.563 1.547 4.641C2.297-.78 1.937.97.703 2.22c-.14.125-.14.14-.14.172 0 .062.046.109.109.109.094 0 1-.688 1.578-1.953.516-1.094.625-2.203.625-3.047zm0 0" stroke="none"/></symbol><symbol id="M" overflow="visible"><path d="M6.563-2.297c.171 0 .359 0 .359-.203 0-.188-.188-.188-.36-.188h-5.39c-.172 0-.344 0-.344.188 0 .203.172.203.344.203zm0 0" stroke="none"/></symbol><symbol id="R" overflow="visible"><path d="M3.516-1.266H3.28c-.015.157-.094.563-.187.625-.047.047-.578.047-.688.047h-1.28c.734-.64.984-.844 1.39-1.172.516-.406 1-.843 1-1.5 0-.843-.734-1.359-1.624-1.359-.86 0-1.454.61-1.454 1.25 0 .344.297.39.376.39a.365.365 0 0 0 .359-.374c0-.125-.047-.375-.406-.375.218-.485.687-.641 1.015-.641.703 0 1.063.547 1.063 1.11 0 .609-.438 1.078-.656 1.328L.516-.266C.437-.203.437-.187.437 0h2.876zm0 0" stroke="none"/></symbol></defs><use y="134.765" x="363.785" xlink:href="#I" width="1488.189" height="1052.362"/><use y="134.765" x="371.795" xlink:href="#J" width="1488.189" height="1052.362"/><use y="134.765" x="382.314" xlink:href="#K" width="1488.189" height="1052.362"/><use y="134.765" x="386.185" xlink:href="#L" width="1488.189" height="1052.362"/><use y="134.765" x="394.093" xlink:href="#M" width="1488.189" height="1052.362"/><use y="134.765" x="404.056" xlink:href="#N" width="1488.189" height="1052.362"/><use y="134.765" x="409.037" xlink:href="#O" width="1488.189" height="1052.362"/><use y="134.765" x="413.465" xlink:href="#P" width="1488.189" height="1052.362"/><use y="134.765" x="418.446" xlink:href="#Q" width="1488.189" height="1052.362"/><use y="130.651" x="422.32" xlink:href="#R" width="1488.189" height="1052.362"/></g><g transform="translate(280.002 -123.132) scale(2.5424)" ns0:preamble="/home/waldgeist/data/sphinx/test.tex" ns0:text="\\begin{align*}\ny &amp;= x^2 + 0 \\cdot x\n\\end{align*}" fill="green" stroke="green" stroke-width="1.18"><defs><symbol id="S" overflow="visible"><path d="M4.844-3.797c.047-.14.047-.156.047-.234 0-.172-.141-.266-.297-.266a.455.455 0 0 0-.344.203c-.016.063-.11.36-.14.547-.079.25-.141.531-.204.797L3.453-.953c-.031.14-.469.844-1.125.844-.5 0-.61-.438-.61-.813 0-.453.173-1.078.5-1.953.157-.406.204-.516.204-.719 0-.437-.313-.812-.813-.812-.953 0-1.312 1.453-1.312 1.531 0 .11.094.11.11.11.109 0 .109-.032.156-.188.28-.938.671-1.235 1.015-1.235.078 0 .25 0 .25.313 0 .25-.11.516-.172.703-.406 1.063-.578 1.625-.578 2.094 0 .89.625 1.187 1.219 1.187.39 0 .719-.171 1-.453-.125.516-.25 1.016-.64 1.547-.266.328-.641.625-1.095.625-.14 0-.593-.031-.765-.422.156 0 .297 0 .422-.125a.493.493 0 0 0 .203-.406c0-.313-.266-.344-.36-.344C.829.531.5.687.5 1.171c0 .5.438.876 1.063.876 1.015 0 2.046-.906 2.328-2.031zm0 0" stroke="none"/></symbol><symbol id="U" overflow="visible"><path d="M3.328-3.016c.063-.25.297-1.171.985-1.171.046 0 .296 0 .5.125a.578.578 0 0 0-.47.546c0 .157.11.344.376.344a.546.546 0 0 0 .531-.578c0-.516-.578-.656-.922-.656-.578 0-.922.531-1.047.75-.25-.656-.781-.75-1.078-.75-1.031 0-1.61 1.281-1.61 1.531 0 .11.11.11.126.11.078 0 .11-.032.125-.11.344-1.063 1-1.313 1.344-1.313.187 0 .53.094.53.672 0 .313-.171.97-.53 2.375-.157.61-.516 1.032-.954 1.032-.062 0-.28 0-.5-.125.25-.063.47-.266.47-.547 0-.266-.22-.344-.36-.344-.313 0-.547.25-.547.578 0 .453.484.656.922.656.672 0 1.031-.703 1.047-.75.125.36.484.75 1.078.75 1.031 0 1.594-1.28 1.594-1.53 0-.11-.079-.11-.11-.11-.094 0-.11.047-.14.11-.329 1.077-1 1.312-1.313 1.312-.39 0-.547-.313-.547-.657 0-.218.047-.437.156-.875zm0 0" stroke="none"/></symbol><symbol id="T" overflow="visible"><path d="M6.844-3.266c.156 0 .343 0 .343-.187 0-.203-.187-.203-.328-.203H.891c-.141 0-.329 0-.329.203 0 .187.188.187.329.187zm.015 1.938c.141 0 .329 0 .329-.203 0-.188-.188-.188-.344-.188H.89c-.141 0-.329 0-.329.188 0 .203.188.203.329.203zm0 0" stroke="none"/></symbol><symbol id="W" overflow="visible"><path d="M4.078-2.297H6.86c.141 0 .329 0 .329-.203 0-.188-.188-.188-.329-.188H4.08v-2.796c0-.141 0-.329-.204-.329-.203 0-.203.188-.203.329v2.796H.89c-.141 0-.329 0-.329.188 0 .203.188.203.329.203h2.78V.5c0 .14 0 .328.204.328.203 0 .203-.187.203-.328zm0 0" stroke="none"/></symbol><symbol id="X" overflow="visible"><path d="M4.578-3.188c0-.796-.047-1.593-.39-2.328C3.733-6.484 2.905-6.64 2.5-6.64c-.61 0-1.328.266-1.75 1.188-.313.687-.36 1.469-.36 2.266 0 .75.032 1.64.454 2.406a1.83 1.83 0 0 0 1.64 1c.532 0 1.297-.203 1.735-1.157.312-.687.36-1.468.36-2.25zM2.484 0c-.39 0-.984-.25-1.156-1.203-.11-.594-.11-1.516-.11-2.11 0-.64 0-1.296.079-1.828.187-1.187.937-1.28 1.187-1.28.329 0 .985.187 1.172 1.171.11.563.11 1.313.11 1.938 0 .75 0 1.421-.11 2.062C3.5-.297 2.937 0 2.484 0zm0 0" stroke="none"/></symbol><symbol id="V" overflow="visible"><path d="M3.516-1.266H3.28c-.015.157-.094.563-.187.625-.047.047-.578.047-.688.047h-1.28c.734-.64.984-.844 1.39-1.172.516-.406 1-.843 1-1.5 0-.843-.734-1.359-1.624-1.359-.86 0-1.454.61-1.454 1.25 0 .344.297.39.376.39a.365.365 0 0 0 .359-.374c0-.125-.047-.375-.406-.375.218-.485.687-.641 1.015-.641.703 0 1.063.547 1.063 1.11 0 .609-.438 1.078-.656 1.328L.516-.266C.437-.203.437-.187.437 0h2.876zm0 0" stroke="none"/></symbol><symbol id="Y" overflow="visible"><path d="M1.906-2.5a.524.524 0 1 0-.516.531.524.524 0 0 0 .516-.531zm0 0" stroke="none"/></symbol></defs><use y="134.765" x="365.92" xlink:href="#S" width="1488.189" height="1052.362"/><use y="134.765" x="373.929" xlink:href="#T" width="1488.189" height="1052.362"/><use y="134.765" x="384.445" xlink:href="#U" width="1488.189" height="1052.362"/><use y="130.651" x="390.139" xlink:href="#V" width="1488.189" height="1052.362"/><use y="134.765" x="396.822" xlink:href="#W" width="1488.189" height="1052.362"/><use y="134.765" x="406.783" xlink:href="#X" width="1488.189" height="1052.362"/><use y="134.765" x="413.98" xlink:href="#Y" width="1488.189" height="1052.362"/><use y="134.765" x="418.961" xlink:href="#U" width="1488.189" height="1052.362"/></g><g ns0:text="\\begin{align*}\ny &amp;= x^2 - 2 \\cdot x\n\\end{align*}" ns0:preamble="/home/waldgeist/data/sphinx/test.tex" transform="translate(337.693 -61.293) scale(2.5424)" fill="#c87137" stroke="green" stroke-width="1.18"><defs><symbol overflow="visible" id="Z"><path d="M4.844-3.797c.047-.14.047-.156.047-.234 0-.172-.141-.266-.297-.266a.455.455 0 0 0-.344.203c-.016.063-.11.36-.14.547-.079.25-.141.531-.204.797L3.453-.953c-.031.14-.469.844-1.125.844-.5 0-.61-.438-.61-.813 0-.453.173-1.078.5-1.953.157-.406.204-.516.204-.719 0-.437-.313-.812-.813-.812-.953 0-1.312 1.453-1.312 1.531 0 .11.094.11.11.11.109 0 .109-.032.156-.188.28-.938.671-1.235 1.015-1.235.078 0 .25 0 .25.313 0 .25-.11.516-.172.703-.406 1.063-.578 1.625-.578 2.094 0 .89.625 1.187 1.219 1.187.39 0 .719-.171 1-.453-.125.516-.25 1.016-.64 1.547-.266.328-.641.625-1.095.625-.14 0-.593-.031-.765-.422.156 0 .297 0 .422-.125a.493.493 0 0 0 .203-.406c0-.313-.266-.344-.36-.344C.829.531.5.687.5 1.171c0 .5.438.876 1.063.876 1.015 0 2.046-.906 2.328-2.031zm0 0" stroke="none"/></symbol><symbol overflow="visible" id="ab"><path d="M3.328-3.016c.063-.25.297-1.171.985-1.171.046 0 .296 0 .5.125a.578.578 0 0 0-.47.546c0 .157.11.344.376.344a.546.546 0 0 0 .531-.578c0-.516-.578-.656-.922-.656-.578 0-.922.531-1.047.75-.25-.656-.781-.75-1.078-.75-1.031 0-1.61 1.281-1.61 1.531 0 .11.11.11.126.11.078 0 .11-.032.125-.11.344-1.063 1-1.313 1.344-1.313.187 0 .53.094.53.672 0 .313-.171.97-.53 2.375-.157.61-.516 1.032-.954 1.032-.062 0-.28 0-.5-.125.25-.063.47-.266.47-.547 0-.266-.22-.344-.36-.344-.313 0-.547.25-.547.578 0 .453.484.656.922.656.672 0 1.031-.703 1.047-.75.125.36.484.75 1.078.75 1.031 0 1.594-1.28 1.594-1.53 0-.11-.079-.11-.11-.11-.094 0-.11.047-.14.11-.329 1.077-1 1.312-1.313 1.312-.39 0-.547-.313-.547-.657 0-.218.047-.437.156-.875zm0 0" stroke="none"/></symbol><symbol overflow="visible" id="aa"><path d="M6.844-3.266c.156 0 .343 0 .343-.187 0-.203-.187-.203-.328-.203H.891c-.141 0-.329 0-.329.203 0 .187.188.187.329.187zm.015 1.938c.141 0 .329 0 .329-.203 0-.188-.188-.188-.344-.188H.89c-.141 0-.329 0-.329.188 0 .203.188.203.329.203zm0 0" stroke="none"/></symbol><symbol overflow="visible" id="ae"><path d="M1.266-.766l1.062-1.03c1.547-1.376 2.14-1.907 2.14-2.907 0-1.14-.89-1.938-2.109-1.938A1.843 1.843 0 0 0 .5-4.828c0 .547.5.547.531.547.172 0 .516-.11.516-.532a.513.513 0 0 0-.531-.515c-.079 0-.094 0-.125.016.218-.657.765-1.016 1.343-1.016.907 0 1.329.812 1.329 1.625 0 .797-.485 1.578-1.047 2.203L.609-.375C.5-.265.5-.235.5 0h3.703l.266-1.734h-.235C4.172-1.438 4.11-1 4-.844c-.063.078-.719.078-.938.078zm0 0" stroke="none"/></symbol><symbol overflow="visible" id="ac"><path d="M3.516-1.266H3.28c-.015.157-.094.563-.187.625-.047.047-.578.047-.688.047h-1.28c.734-.64.984-.844 1.39-1.172.516-.406 1-.843 1-1.5 0-.843-.734-1.359-1.624-1.359-.86 0-1.454.61-1.454 1.25 0 .344.297.39.376.39a.365.365 0 0 0 .359-.374c0-.125-.047-.375-.406-.375.218-.485.687-.641 1.015-.641.703 0 1.063.547 1.063 1.11 0 .609-.438 1.078-.656 1.328L.516-.266C.437-.203.437-.187.437 0h2.876zm0 0" stroke="none"/></symbol><symbol overflow="visible" id="ad"><path d="M6.563-2.297c.171 0 .359 0 .359-.203 0-.188-.188-.188-.36-.188h-5.39c-.172 0-.344 0-.344.188 0 .203.172.203.344.203zm0 0" stroke="none"/></symbol><symbol overflow="visible" id="af"><path d="M1.906-2.5a.524.524 0 1 0-.516.531.524.524 0 0 0 .516-.531zm0 0" stroke="none"/></symbol></defs><use height="1052.362" width="1488.189" xlink:href="#Z" x="365.92" y="134.765"/><use height="1052.362" width="1488.189" xlink:href="#aa" x="373.929" y="134.765"/><use height="1052.362" width="1488.189" xlink:href="#ab" x="384.445" y="134.765"/><use height="1052.362" width="1488.189" xlink:href="#ac" x="390.139" y="130.651"/><use height="1052.362" width="1488.189" xlink:href="#ad" x="396.822" y="134.765"/><use height="1052.362" width="1488.189" xlink:href="#ae" x="406.785" y="134.765"/><use height="1052.362" width="1488.189" xlink:href="#af" x="413.98" y="134.765"/><use height="1052.362" width="1488.189" xlink:href="#ab" x="418.961" y="134.765"/></g><path d="M1020.828 663.063c49.502-.92 92.905-117.998 132.978-298.478m-133.025 298.478c-49.502-.92-92.905-117.998-132.978-298.478m133.025 298.478c49.502-.92 92.905-117.998 132.978-298.478" stroke="#800033" fill="none" stroke-width="3" stroke-linecap="round"/><g ns0:text="\\begin{align*}\ny &amp;= x^2 + 3 \\cdot x\n\\end{align*}" ns0:preamble="/home/waldgeist/data/sphinx/test.tex" transform="translate(-96.877 11.25) scale(2.5424)" fill="#800033" stroke="#800033" stroke-width="1.18"><defs><symbol overflow="visible" id="ag"><path d="M4.844-3.797c.047-.14.047-.156.047-.234 0-.172-.141-.266-.297-.266a.455.455 0 0 0-.344.203c-.016.063-.11.36-.14.547-.079.25-.141.531-.204.797L3.453-.953c-.031.14-.469.844-1.125.844-.5 0-.61-.438-.61-.813 0-.453.173-1.078.5-1.953.157-.406.204-.516.204-.719 0-.437-.313-.812-.813-.812-.953 0-1.312 1.453-1.312 1.531 0 .11.094.11.11.11.109 0 .109-.032.156-.188.28-.938.671-1.235 1.015-1.235.078 0 .25 0 .25.313 0 .25-.11.516-.172.703-.406 1.063-.578 1.625-.578 2.094 0 .89.625 1.187 1.219 1.187.39 0 .719-.171 1-.453-.125.516-.25 1.016-.64 1.547-.266.328-.641.625-1.095.625-.14 0-.593-.031-.765-.422.156 0 .297 0 .422-.125a.493.493 0 0 0 .203-.406c0-.313-.266-.344-.36-.344C.829.531.5.687.5 1.171c0 .5.438.876 1.063.876 1.015 0 2.046-.906 2.328-2.031zm0 0" stroke="none"/></symbol><symbol overflow="visible" id="ai"><path d="M3.328-3.016c.063-.25.297-1.171.985-1.171.046 0 .296 0 .5.125a.578.578 0 0 0-.47.546c0 .157.11.344.376.344a.546.546 0 0 0 .531-.578c0-.516-.578-.656-.922-.656-.578 0-.922.531-1.047.75-.25-.656-.781-.75-1.078-.75-1.031 0-1.61 1.281-1.61 1.531 0 .11.11.11.126.11.078 0 .11-.032.125-.11.344-1.063 1-1.313 1.344-1.313.187 0 .53.094.53.672 0 .313-.171.97-.53 2.375-.157.61-.516 1.032-.954 1.032-.062 0-.28 0-.5-.125.25-.063.47-.266.47-.547 0-.266-.22-.344-.36-.344-.313 0-.547.25-.547.578 0 .453.484.656.922.656.672 0 1.031-.703 1.047-.75.125.36.484.75 1.078.75 1.031 0 1.594-1.28 1.594-1.53 0-.11-.079-.11-.11-.11-.094 0-.11.047-.14.11-.329 1.077-1 1.312-1.313 1.312-.39 0-.547-.313-.547-.657 0-.218.047-.437.156-.875zm0 0" stroke="none"/></symbol><symbol overflow="visible" id="ah"><path d="M6.844-3.266c.156 0 .343 0 .343-.187 0-.203-.187-.203-.328-.203H.891c-.141 0-.329 0-.329.203 0 .187.188.187.329.187zm.015 1.938c.141 0 .329 0 .329-.203 0-.188-.188-.188-.344-.188H.89c-.141 0-.329 0-.329.188 0 .203.188.203.329.203zm0 0" stroke="none"/></symbol><symbol overflow="visible" id="ak"><path d="M4.078-2.297H6.86c.141 0 .329 0 .329-.203 0-.188-.188-.188-.329-.188H4.08v-2.796c0-.141 0-.329-.204-.329-.203 0-.203.188-.203.329v2.796H.89c-.141 0-.329 0-.329.188 0 .203.188.203.329.203h2.78V.5c0 .14 0 .328.204.328.203 0 .203-.187.203-.328zm0 0" stroke="none"/></symbol><symbol overflow="visible" id="al"><path d="M2.89-3.516c.813-.265 1.391-.953 1.391-1.75 0-.812-.875-1.375-1.828-1.375-1 0-1.765.594-1.765 1.36 0 .328.218.515.515.515.297 0 .5-.218.5-.515 0-.485-.469-.485-.61-.485.298-.5.954-.625 1.313-.625.422 0 .969.22.969 1.11 0 .125-.031.703-.281 1.14-.297.485-.64.516-.89.516a3.29 3.29 0 0 1-.392.031c-.078.016-.14.031-.14.125 0 .11.062.11.234.11h.438c.812 0 1.187.671 1.187 1.656 0 1.36-.687 1.64-1.125 1.64-.437 0-1.187-.171-1.531-.75.344.047.656-.171.656-.546a.537.537 0 0 0-.547-.563c-.25 0-.562.14-.562.578C.422-.437 1.344.22 2.437.22c1.22 0 2.126-.906 2.126-1.922 0-.813-.641-1.594-1.672-1.813zm0 0" stroke="none"/></symbol><symbol overflow="visible" id="aj"><path d="M3.516-1.266H3.28c-.015.157-.094.563-.187.625-.047.047-.578.047-.688.047h-1.28c.734-.64.984-.844 1.39-1.172.516-.406 1-.843 1-1.5 0-.843-.734-1.359-1.624-1.359-.86 0-1.454.61-1.454 1.25 0 .344.297.39.376.39a.365.365 0 0 0 .359-.374c0-.125-.047-.375-.406-.375.218-.485.687-.641 1.015-.641.703 0 1.063.547 1.063 1.11 0 .609-.438 1.078-.656 1.328L.516-.266C.437-.203.437-.187.437 0h2.876zm0 0" stroke="none"/></symbol><symbol overflow="visible" id="am"><path d="M1.906-2.5a.524.524 0 1 0-.516.531.524.524 0 0 0 .516-.531zm0 0" stroke="none"/></symbol></defs><use height="1052.362" width="1488.189" xlink:href="#ag" x="365.92" y="134.765"/><use height="1052.362" width="1488.189" xlink:href="#ah" x="373.929" y="134.765"/><use height="1052.362" width="1488.189" xlink:href="#ai" x="384.445" y="134.765"/><use height="1052.362" width="1488.189" xlink:href="#aj" x="390.139" y="130.651"/><use height="1052.362" width="1488.189" xlink:href="#ak" x="396.822" y="134.765"/><use height="1052.362" width="1488.189" xlink:href="#al" x="406.783" y="134.765"/><use height="1052.362" width="1488.189" xlink:href="#am" x="413.98" y="134.765"/><use height="1052.362" width="1488.189" xlink:href="#ai" x="418.961" y="134.765"/></g><path d="M1170.317 588.229c49.502-.921 92.905-117.998 132.978-298.478M1170.27 588.229c-49.502-.921-92.905-117.998-132.978-298.478m133.025 298.478c49.502-.921 92.905-117.998 132.978-298.478" stroke="#c87137" fill="none" stroke-width="3" stroke-linecap="round"/><path d="M1110.474 527.88c49.503-.922 92.905-117.999 132.978-298.479M1110.427 527.88c-49.502-.922-92.905-117.999-132.978-298.479m133.025 298.479c49.503-.922 92.905-117.999 132.978-298.479" fill="none" stroke="green" stroke-width="3" stroke-linecap="round"/><path d="M1111.028 949.793v-75.222" fill="none" stroke="#000"/></svg>