<svg xmlns:ns0="http://www.iki.fi/pav/software/textext/" xmlns="http://www.w3.org/2000/svg" xmlns:xlink="http://www.w3.org/1999/xlink" width="744.094" height="1052.362"><title>Riemannsches Integral</title><defs><marker id="a" orient="auto" overflow="visible"><path d="M2.308 0l-3.46 2v-4l3.46 2z" fill-rule="evenodd" stroke="#000" stroke-width=".4pt"/></marker></defs><path style="marker:none" color="#000" fill="#fff" stroke="#fff" stroke-linecap="round" stroke-linejoin="round" stroke-dasharray="1.00000001,2.99999993" overflow="visible" d="M47.358 260.018h649.379v532.326H47.358z"/><path style="marker:none" opacity=".3" color="#000" fill="#00f" overflow="visible" d="M251.395 446.378h7.161v298.12h-7.161zm7.162-5.665h7.161v303.784h-7.161zm7.161-5.373h7.161v309.157h-7.161zm7.161-5.106h7.161v314.263h-7.161zm57.289-33.255h7.161v347.518h-7.161zm-7.161 3.542h7.161v343.977h-7.161zm14.322-6.939h7.161v350.915h-7.161zm7.162-3.259h7.161v354.174h-7.161zm35.806-14.468h7.161v368.643h-7.161zm14.322-5.041h7.161v373.684h-7.161zm-7.161 2.472h7.161v371.212h-7.161zm-28.645 10.903h7.161v360.308h-7.161zm7.161-2.888h7.161v363.196h-7.161zm7.161-2.776h7.161v365.973h-7.161zm-21.483 8.669h7.161v357.303h-7.161zm-71.612 38.182h7.161v319.122h-7.161zm7.161-4.63h7.161v323.752h-7.161zm7.161-4.418h7.161v328.169h-7.161zm7.162-4.219h7.161v332.388h-7.161zm14.322-7.892h7.161v340.281h-7.161zm-7.161 3.859h7.161v336.421h-7.161zM208.428 488.38h7.161v256.117h-7.161zm7.162-8.183h7.161v264.3h-7.161zm7.161-7.634h7.161v271.934h-7.161zm7.161-7.151h7.161v279.085h-7.161zm7.161-6.719h7.161v285.804h-7.161z"/><path style="marker:none" opacity=".3" color="#000" fill="#00f" overflow="visible" d="M244.234 452.36h7.161v292.137h-7.161zm157.546-83.926h7.161v376.063h-7.161zm7.161-2.291h7.161v378.354h-7.161zm7.161-2.206h7.161v380.561h-7.161zm7.162-2.125h7.161v382.686h-7.161zm7.161-2.048h7.161v384.733h-7.161zm7.161-1.973h7.161v386.707h-7.161zm7.161-1.902h7.161v388.608h-7.161zm7.161-1.833h7.161v390.441h-7.161zm7.161-1.767h7.161v392.208h-7.161zm7.162-1.703h7.161v393.911h-7.161zm7.161-1.643h7.161v395.554h-7.161zm7.161-1.584h7.161v397.138h-7.161zm7.161-1.527h7.161v398.666h-7.161zm7.161-1.474h7.161v400.139h-7.161z"/><path d="M145.42 744.497h456.347m-456.347 0V288.152" fill="none" stroke="#000" stroke-width="2" marker-end="url(#a)"/><path d="M547.61 334.99c-175.604 27.306-353.49 90.11-402.19 276.772" fill="none" stroke="green" stroke-width="3.362" stroke-linecap="round"/><path d="M601.031 760.803c.177-.709.842-3.322 2.791-3.322.133 0 .842 0 1.418.354-.798.177-1.33.842-1.33 1.55 0 .444.31.975 1.064.975.62 0 1.506-.487 1.506-1.639 0-1.462-1.639-1.86-2.614-1.86-1.639 0-2.613 1.506-2.968 2.126-.709-1.86-2.215-2.127-3.057-2.127-2.924 0-4.563 3.633-4.563 4.342 0 .31.31.31.354.31.222 0 .31-.088.355-.31.974-3.013 2.835-3.721 3.81-3.721.532 0 1.506.265 1.506 1.905 0 .886-.487 2.746-1.506 6.734-.443 1.728-1.462 2.924-2.703 2.924-.177 0-.797 0-1.417-.355.709-.177 1.329-.753 1.329-1.55 0-.754-.62-.975-1.02-.975-.885 0-1.55.709-1.55 1.64 0 1.284 1.374 1.86 2.614 1.86 1.905 0 2.924-1.994 2.968-2.127a3.172 3.172 0 0 0 3.057 2.127c2.924 0 4.52-3.633 4.52-4.342 0-.31-.222-.31-.31-.31-.267 0-.31.133-.4.31-.93 3.057-2.835 3.722-3.721 3.722-1.108 0-1.55-.886-1.55-1.861 0-.62.132-1.24.442-2.481zm0 0" ns0:text="$x$ \n" ns0:preamble="/home/waldgeist/data/sphinx/inkscape-preamble.tex"/><path d="M132.534 285.007c.12-.362.12-.402.12-.604 0-.442-.362-.684-.764-.684-.242 0-.644.161-.886.523-.04.161-.281.926-.362 1.41-.201.643-.362 1.368-.523 2.052l-1.167 4.629c-.08.362-1.208 2.173-2.898 2.173-1.288 0-1.57-1.127-1.57-2.093 0-1.167.443-2.777 1.288-5.031.402-1.047.523-1.328.523-1.852 0-1.127-.805-2.093-2.093-2.093-2.455 0-3.38 3.744-3.38 3.945 0 .282.24.282.281.282.282 0 .282-.08.402-.483.725-2.415 1.731-3.18 2.617-3.18.2 0 .644 0 .644.805 0 .644-.282 1.328-.443 1.811-1.047 2.737-1.49 4.186-1.49 5.394 0 2.294 1.61 3.059 3.14 3.059 1.006 0 1.852-.443 2.576-1.168-.322 1.329-.644 2.617-1.65 3.985-.684.845-1.65 1.61-2.818 1.61-.362 0-1.53-.08-1.972-1.087.403 0 .765 0 1.087-.322.282-.201.523-.563.523-1.046 0-.805-.684-.886-.926-.886-.603 0-1.449.403-1.449 1.65 0 1.289 1.127 2.255 2.737 2.255 2.617 0 5.273-2.335 5.998-5.233zm0 0" ns0:preamble="/home/waldgeist/data/sphinx/inkscape-preamble.tex" ns0:text="$y$ \n"/><path d="M548.405 350.724c.11-.329.11-.365.11-.547 0-.402-.329-.62-.694-.62-.218 0-.583.145-.802.474-.036.146-.255.839-.328 1.276-.183.584-.329 1.24-.474 1.86l-1.058 4.194c-.073.329-1.094 1.97-2.626 1.97-1.167 0-1.422-1.021-1.422-1.897 0-1.057.4-2.516 1.167-4.559.364-.948.474-1.203.474-1.677 0-1.021-.73-1.897-1.897-1.897-2.224 0-3.063 3.392-3.063 3.574 0 .256.219.256.255.256.255 0 .255-.073.365-.438.656-2.188 1.568-2.881 2.37-2.881.183 0 .584 0 .584.73 0 .583-.255 1.203-.401 1.64-.948 2.48-1.35 3.793-1.35 4.888 0 2.078 1.46 2.771 2.845 2.771.912 0 1.678-.4 2.334-1.057-.292 1.203-.583 2.37-1.495 3.61-.62.766-1.495 1.46-2.553 1.46-.328 0-1.386-.074-1.787-.985.365 0 .693 0 .985-.292.255-.183.474-.51.474-.948 0-.73-.62-.803-.84-.803-.546 0-1.312.365-1.312 1.495 0 1.168 1.021 2.043 2.48 2.043 2.37 0 4.778-2.115 5.434-4.741zm23.362 1.24c.365 0 .803 0 .803-.438 0-.474-.438-.474-.766-.474h-13.932c-.328 0-.766 0-.766.474 0 .438.438.438.766.438zm.037 4.522c.328 0 .766 0 .766-.474 0-.438-.438-.438-.803-.438h-13.895c-.328 0-.766 0-.766.438 0 .474.438.474.766.474zm17.069-6.2h2.006c.474 0 .693 0 .693-.474 0-.255-.219-.255-.62-.255h-1.933l.474-2.663c.11-.474.438-2.115.584-2.407.182-.438.583-.802 1.094-.802.073 0 .693 0 1.13.437a1.3 1.3 0 0 0-1.276 1.24c0 .547.438.84.875.84.62 0 1.277-.548 1.277-1.423 0-1.058-1.058-1.605-2.006-1.605-.803 0-2.261.438-2.954 2.735-.146.475-.22.73-.766 3.648h-1.605c-.474 0-.73 0-.73.437 0 .292.22.292.657.292h1.532l-1.714 9.19c-.438 2.262-.84 4.377-2.043 4.377-.109 0-.656 0-1.13-.437 1.094-.073 1.313-.912 1.313-1.24 0-.547-.438-.84-.876-.84-.62 0-1.276.548-1.276 1.423 0 1.021 1.021 1.605 1.97 1.605 1.276 0 2.224-1.386 2.625-2.261.766-1.46 1.277-4.267 1.313-4.45zm13.05 14.88c0-.073 0-.11-.402-.51-2.88-2.918-3.647-7.331-3.647-10.905 0-4.049.876-8.097 3.757-10.978.292-.292.292-.328.292-.401 0-.183-.073-.256-.22-.256-.255 0-2.333 1.605-3.72 4.56-1.166 2.552-1.458 5.142-1.458 7.075 0 1.823.255 4.632 1.532 7.294 1.422 2.845 3.391 4.377 3.647 4.377.146 0 .219-.073.219-.256zm9.117-12.619c.146-.583.693-2.735 2.298-2.735.11 0 .693 0 1.167.292-.656.146-1.094.693-1.094 1.276 0 .365.255.803.875.803.51 0 1.24-.402 1.24-1.35 0-1.203-1.35-1.532-2.152-1.532-1.349 0-2.151 1.24-2.443 1.75-.584-1.53-1.824-1.75-2.517-1.75-2.407 0-3.756 2.99-3.756 3.574 0 .256.255.256.292.256.182 0 .255-.073.291-.256.803-2.48 2.335-3.063 3.137-3.063.438 0 1.24.219 1.24 1.568 0 .73-.401 2.261-1.24 5.544-.365 1.422-1.204 2.407-2.225 2.407-.146 0-.656 0-1.167-.292.584-.146 1.094-.62 1.094-1.276 0-.62-.51-.803-.839-.803-.73 0-1.276.584-1.276 1.35 0 1.057 1.13 1.531 2.152 1.531 1.568 0 2.407-1.64 2.443-1.75a2.61 2.61 0 0 0 2.517 1.75c2.407 0 3.72-2.99 3.72-3.574 0-.255-.183-.255-.256-.255-.218 0-.255.11-.328.255-.766 2.517-2.334 3.064-3.063 3.064-.912 0-1.277-.73-1.277-1.532 0-.51.11-1.021.365-2.042zm12.233 1.203c0-1.786-.255-4.595-1.532-7.257-1.385-2.845-3.391-4.377-3.61-4.377a.25.25 0 0 0-.255.256c0 .073 0 .11.437.547 2.298 2.298 3.61 5.981 3.61 10.832 0 4.012-.838 8.096-3.72 11.014-.327.292-.327.328-.327.401a.25.25 0 0 0 .255.256c.219 0 2.334-1.605 3.683-4.56 1.204-2.552 1.46-5.142 1.46-7.111zm0 0" ns0:preamble="/home/waldgeist/data/sphinx/inkscape-preamble.tex" ns0:text="$y=f(x)$\n" fill="green"/><path d="M201.686 756.379c.146-.584.693-2.736 2.297-2.736.11 0 .693 0 1.167.292-.656.146-1.094.693-1.094 1.277 0 .364.256.802.876.802.51 0 1.24-.401 1.24-1.35 0-1.203-1.35-1.531-2.152-1.531-1.35 0-2.152 1.24-2.444 1.75-.583-1.531-1.823-1.75-2.516-1.75-2.407 0-3.757 2.99-3.757 3.574 0 .255.256.255.292.255.182 0 .255-.073.292-.255.802-2.48 2.334-3.064 3.136-3.064.438 0 1.24.22 1.24 1.569 0 .73-.4 2.26-1.24 5.543-.364 1.423-1.203 2.407-2.224 2.407-.146 0-.657 0-1.168-.291.584-.146 1.095-.62 1.095-1.277 0-.62-.511-.802-.84-.802-.729 0-1.276.583-1.276 1.35 0 1.057 1.13 1.531 2.152 1.531 1.568 0 2.407-1.641 2.444-1.75a2.61 2.61 0 0 0 2.516 1.75c2.407 0 3.72-2.99 3.72-3.574 0-.255-.182-.255-.255-.255-.219 0-.255.109-.328.255-.766 2.516-2.334 3.063-3.064 3.063-.912 0-1.276-.729-1.276-1.531 0-.511.109-1.022.364-2.043zm10.956.168c0-.437 0-.437-.474-.437-1.058 1.02-2.516 1.02-3.173 1.02v.584c.365 0 1.459 0 2.334-.437v8.279c0 .547 0 .765-1.605.765h-.62v.584c.292 0 2.298-.073 2.882-.073.51 0 2.553.073 2.917.073v-.584h-.62c-1.64 0-1.64-.218-1.64-.765zm0 0" ns0:preamble="/home/waldgeist/data/sphinx/inkscape-preamble.tex" ns0:text="$x_1$\n"/><path d="M502.455 756.379c.146-.584.693-2.736 2.297-2.736.11 0 .693 0 1.168.292-.657.146-1.095.693-1.095 1.277 0 .364.256.802.876.802.51 0 1.24-.401 1.24-1.35 0-1.203-1.35-1.531-2.152-1.531-1.35 0-2.152 1.24-2.444 1.75-.583-1.531-1.823-1.75-2.516-1.75-2.407 0-3.757 2.99-3.757 3.574 0 .255.256.255.292.255.182 0 .255-.073.292-.255.802-2.48 2.334-3.064 3.136-3.064.438 0 1.24.22 1.24 1.569 0 .73-.4 2.26-1.24 5.543-.364 1.423-1.203 2.407-2.224 2.407-.146 0-.657 0-1.167-.291.583-.146 1.094-.62 1.094-1.277 0-.62-.51-.802-.84-.802-.729 0-1.276.583-1.276 1.35 0 1.057 1.131 1.531 2.152 1.531 1.568 0 2.407-1.641 2.444-1.75a2.61 2.61 0 0 0 2.516 1.75c2.407 0 3.72-2.99 3.72-3.574 0-.255-.182-.255-.255-.255-.219 0-.255.109-.328.255-.766 2.516-2.334 3.063-3.064 3.063-.912 0-1.276-.729-1.276-1.531 0-.511.11-1.022.364-2.043zm13.728 7.571h-.547c-.036.365-.219 1.314-.438 1.46-.11.109-1.35.109-1.604.109h-2.991c1.714-1.495 2.298-1.97 3.246-2.735 1.203-.949 2.334-1.97 2.334-3.502 0-1.969-1.714-3.172-3.793-3.172-2.006 0-3.392 1.422-3.392 2.917 0 .803.693.912.876.912a.854.854 0 0 0 .838-.875c0-.292-.109-.876-.948-.876.51-1.13 1.605-1.495 2.37-1.495 1.642 0 2.48 1.277 2.48 2.59 0 1.422-1.02 2.516-1.531 3.1l-3.902 3.902c-.183.146-.183.182-.183.62h6.71zm0 0" ns0:text="$x_2$\n" ns0:preamble="/home/waldgeist/data/sphinx/inkscape-preamble.tex"/><path style="marker:none" opacity=".3" color="#000" fill="#00f" overflow="visible" d="M201.267 497.192h7.161v247.305h-7.161z"/><path d="M201.267 497.192h7.161" fill="none" stroke="#000" stroke-linecap="round" stroke-dasharray="1.00000022,3.00000071"/><path d="M201.267 497.192v247.305" fill="none" stroke="#000" stroke-width="3" stroke-linecap="round" stroke-dasharray="3.00000057,9.0000017"/><path d="M502.036 342.937v401.56" fill="none" stroke="#000" stroke-width="3" stroke-linecap="round" stroke-dasharray="3.00000069,9.00000207"/><path d="M423.264 361.812v382.685" fill="none" stroke="#000" stroke-linecap="round" stroke-dasharray="1.00000023,3.00000072"/><path d="M358.813 384.19v360.307" fill="none" stroke="#000" stroke-linecap="round" stroke-dasharray="1.00000023,3.00000073"/><path d="M294.362 416.328v328.17" fill="none" stroke="#000" stroke-linecap="round" stroke-dasharray="1.00000028,3.00000084"/><path d="M208.428 488.38v256.117" fill="none" stroke="#000" stroke-linecap="round" stroke-dasharray="1.0000002,3.00000066"/><path d="M215.59 480.197v264.3" fill="none" stroke="#000" stroke-linecap="round" stroke-dasharray="1.0000002,3.00000068"/><path d="M222.75 472.563v271.934m7.162-279.085v279.085m7.161-285.804v285.804" fill="none" stroke="#000" stroke-linecap="round" stroke-dasharray="1.0000002,3.00000067"/><path d="M244.234 452.36v292.137" fill="none" stroke="#000" stroke-linecap="round" stroke-dasharray="1.00000019,3.00000067"/><path d="M251.395 446.378v298.12" fill="none" stroke="#000" stroke-linecap="round" stroke-dasharray="1.0000002,3.00000067"/><path d="M258.557 440.713v303.784" fill="none" stroke="#000" stroke-linecap="round" stroke-dasharray="1.0000002,3.00000068"/><path d="M265.718 435.34v309.157" fill="none" stroke="#000" stroke-linecap="round" stroke-dasharray="1.00000018,3.0000006"/><path d="M272.879 430.234v314.263" fill="none" stroke="#000" stroke-linecap="round" stroke-dasharray="1.00000019,3.00000064"/><path d="M280.04 425.376v319.121" fill="none" stroke="#000" stroke-linecap="round" stroke-dasharray="1.0000002,3.00000067"/><path d="M287.201 420.746v323.751" fill="none" stroke="#000" stroke-linecap="round" stroke-dasharray="1.00000019,3.00000066"/><path d="M301.524 412.11v332.387" fill="none" stroke="#000" stroke-linecap="round" stroke-dasharray="1.00000021,3.00000071"/><path d="M308.685 408.076v336.421" fill="none" stroke="#000" stroke-linecap="round" stroke-dasharray="1.00000021,3.0000007"/><path d="M315.846 404.217v340.28" fill="none" stroke="#000" stroke-linecap="round" stroke-dasharray="1.00000021,3.00000071"/><path d="M323.007 400.52v343.977" fill="none" stroke="#000" stroke-linecap="round" stroke-dasharray="1.00000022,3.00000073"/><path d="M330.168 396.979v347.518" fill="none" stroke="#000" stroke-linecap="round" stroke-dasharray="1.00000019,3.00000065"/><path d="M337.33 393.582v350.915" fill="none" stroke="#000" stroke-linecap="round" stroke-dasharray="1.00000019,3.00000063"/><path d="M344.49 390.323v354.174" fill="none" stroke="#000" stroke-linecap="round" stroke-dasharray="1.0000002,3.00000068"/><path d="M351.652 387.194v357.303" fill="none" stroke="#000" stroke-linecap="round" stroke-dasharray="1.0000002,3.00000066"/><path d="M365.974 381.301v363.196" fill="none" stroke="#000" stroke-linecap="round" stroke-dasharray="1.00000018,3.00000061"/><path d="M373.135 378.525v365.972" fill="none" stroke="#000" stroke-linecap="round" stroke-dasharray="1.00000019,3.00000067"/><path d="M380.297 375.855v368.642" fill="none" stroke="#000" stroke-linecap="round" stroke-dasharray="1.00000019,3.00000063"/><path d="M387.458 373.286v371.211" fill="none" stroke="#000" stroke-linecap="round" stroke-dasharray="1.00000021,3.00000068"/><path d="M394.619 370.814v373.683" fill="none" stroke="#000" stroke-linecap="round" stroke-dasharray="1.00000018,3.00000063"/><path d="M401.78 368.434v376.063" fill="none" stroke="#000" stroke-linecap="round" stroke-dasharray="1.0000002,3.0000007"/><path d="M408.941 366.143v378.354" fill="none" stroke="#000" stroke-linecap="round" stroke-dasharray="1.00000019,3.00000062"/><path d="M416.102 363.937v380.56" fill="none" stroke="#000" stroke-linecap="round" stroke-dasharray="1.00000018,3.00000063"/><path d="M430.425 359.764v384.733" fill="none" stroke="#000" stroke-linecap="round" stroke-dasharray="1.00000019,3.00000066"/><path d="M437.586 357.79v386.707" fill="none" stroke="#000" stroke-linecap="round" stroke-dasharray="1.00000019,3.00000064"/><path d="M444.747 355.89v388.607" fill="none" stroke="#000" stroke-linecap="round" stroke-dasharray="1.00000022,3.00000071"/><path d="M451.908 354.056v390.441" fill="none" stroke="#000" stroke-linecap="round" stroke-dasharray="1.00000018,3.00000062"/><path d="M459.07 352.29v392.207" fill="none" stroke="#000" stroke-linecap="round" stroke-dasharray="1.00000021,3.00000072"/><path d="M466.23 350.586v393.911" fill="none" stroke="#000" stroke-linecap="round" stroke-dasharray="1.00000019,3.00000065"/><path d="M473.392 348.943v395.554" fill="none" stroke="#000" stroke-linecap="round" stroke-dasharray="1.0000002,3.00000067"/><path d="M480.553 347.36v397.137" fill="none" stroke="#000" stroke-linecap="round" stroke-dasharray="1.00000013,3.00000047"/><path d="M487.714 345.832v398.665" fill="none" stroke="#000" stroke-linecap="round" stroke-dasharray="1.00000022,3.00000072"/><path d="M494.875 344.358v400.14" fill="none" stroke="#000" stroke-linecap="round" stroke-dasharray="1.00000017,3.00000057"/><path d="M208.428 488.38h7.162m0-8.183h7.16" fill="none" stroke="#000" stroke-linecap="round" stroke-dasharray="1.00000022,3.00000071"/><g transform="translate(-704.475 82.326) scale(4.09225)" ns0:preamble="/home/waldgeist/data/sphinx/inkscape-preamble.tex" ns0:text="$A \\! = \\! \\int_{x_1}^{x_2} f(x) \\! \\cdot \\! \\mathrm{d}x$\n" fill="#00f"><defs><symbol id="b" overflow="visible"><path d="M1.781-1.14C1.391-.485 1-.345.563-.314c-.125.016-.22.016-.22.204 0 .062.063.109.141.109.266 0 .579-.031.844-.031.344 0 .688.031 1 .031.063 0 .188 0 .188-.188 0-.109-.079-.124-.157-.124-.218-.016-.468-.094-.468-.344 0-.125.062-.235.14-.375l.766-1.266h2.5c.016.203.156 1.563.156 1.656 0 .297-.516.329-.719.329-.14 0-.234 0-.234.203 0 .11.11.11.14.11.407 0 .829-.031 1.235-.031.25 0 .89.031 1.14.031.048 0 .173 0 .173-.203 0-.11-.094-.11-.235-.11-.61 0-.61-.062-.64-.359l-.61-6.219c-.016-.203-.016-.25-.187-.25-.157 0-.204.079-.266.172zm1.203-1.47l1.954-3.296.328 3.297zm0 0"/></symbol><symbol id="h" overflow="visible"><path d="M3.656-3.984h.86c.203 0 .296 0 .296-.204 0-.109-.093-.109-.265-.109h-.828l.203-1.14c.047-.204.187-.907.25-1.032.078-.187.25-.343.469-.343.03 0 .296 0 .484.187a.557.557 0 0 0-.547.531c0 .235.188.36.375.36.266 0 .547-.235.547-.61 0-.453-.453-.687-.86-.687-.343 0-.968.187-1.265 1.172-.063.203-.094.312-.328 1.562h-.688c-.203 0-.312 0-.312.188 0 .125.094.125.281.125h.656L2.25-.047c-.188.969-.36 1.875-.875 1.875-.047 0-.281 0-.484-.187.468-.032.562-.391.562-.532 0-.234-.187-.359-.375-.359-.266 0-.547.234-.547.61 0 .437.438.687.844.687.547 0 .953-.594 1.125-.969.328-.625.547-1.828.563-1.906zm0 0"/></symbol><symbol id="j" overflow="visible"><path d="M3.328-3.016c.063-.25.297-1.171.985-1.171.046 0 .296 0 .5.125a.578.578 0 0 0-.47.546c0 .157.11.344.376.344a.546.546 0 0 0 .531-.578c0-.516-.578-.656-.922-.656-.578 0-.922.531-1.047.75-.25-.656-.781-.75-1.078-.75-1.031 0-1.61 1.281-1.61 1.531 0 .11.11.11.126.11.078 0 .11-.032.125-.11.344-1.063 1-1.313 1.344-1.313.187 0 .53.094.53.672 0 .313-.171.97-.53 2.375-.157.61-.516 1.032-.954 1.032-.062 0-.28 0-.5-.125.25-.063.47-.266.47-.547 0-.266-.22-.344-.36-.344-.313 0-.547.25-.547.578 0 .453.484.656.922.656.672 0 1.031-.703 1.047-.75.125.36.484.75 1.078.75 1.031 0 1.594-1.28 1.594-1.53 0-.11-.079-.11-.11-.11-.094 0-.11.047-.14.11-.329 1.077-1 1.312-1.313 1.312-.39 0-.547-.313-.547-.657 0-.218.047-.437.156-.875zm0 0"/></symbol><symbol id="c" overflow="visible"><path d="M6.844-3.266c.156 0 .343 0 .343-.187 0-.203-.187-.203-.328-.203H.891c-.141 0-.329 0-.329.203 0 .187.188.187.329.187zm.015 1.938c.141 0 .329 0 .329-.203 0-.188-.188-.188-.344-.188H.89c-.141 0-.329 0-.329.188 0 .203.188.203.329.203zm0 0"/></symbol><symbol id="i" overflow="visible"><path d="M3.297 2.39c0-.03 0-.046-.172-.218C1.891.922 1.562-.968 1.562-2.5c0-1.734.375-3.469 1.61-4.703.125-.125.125-.14.125-.172 0-.078-.031-.11-.094-.11-.11 0-1 .688-1.594 1.954C1.11-4.438.984-3.328.984-2.5c0 .781.11 1.984.657 3.125C2.25 1.844 3.094 2.5 3.203 2.5c.063 0 .094-.031.094-.11zm0 0"/></symbol><symbol id="k" overflow="visible"><path d="M2.875-2.5c0-.766-.11-1.969-.656-3.11C1.625-6.827.766-7.483.672-7.483a.107.107 0 0 0-.11.109c0 .031 0 .047.188.234.984.985 1.547 2.563 1.547 4.641C2.297-.78 1.937.97.703 2.22c-.14.125-.14.14-.14.172 0 .062.046.109.109.109.094 0 1-.688 1.578-1.953.516-1.094.625-2.203.625-3.047zm0 0"/></symbol><symbol id="m" overflow="visible"><path d="M3.781-.547V.11L5.25 0v-.313c-.688 0-.781-.062-.781-.562v-6.047l-1.422.11v.312c.687 0 .765.063.765.563v2.156a1.582 1.582 0 0 0-1.25-.625c-1.171 0-2.218.984-2.218 2.265 0 1.266.969 2.25 2.11 2.25.64 0 1.077-.343 1.327-.656zm0-2.672v2.047c0 .172 0 .188-.11.36-.296.484-.733.703-1.171.703-.453 0-.813-.266-1.047-.641-.25-.406-.281-.969-.281-1.39 0-.36.016-.954.297-1.407.218-.312.593-.64 1.14-.64.344 0 .766.156 1.063.593.11.172.11.188.11.375zm0 0"/></symbol><symbol id="d" overflow="visible"><path d="M2.719 8.766c-.14 1.64-.5 2.093-1.063 2.093-.125 0-.437-.03-.64-.218a.397.397 0 0 0 .375-.407.406.406 0 0 0-.407-.421.414.414 0 0 0-.421.437c0 .469.5.828 1.093.828.953 0 1.422-.875 1.64-1.765.126-.516.485-3.422.579-4.532l.188-2.484C4.202.469 4.53.219 4.984.219c.094 0 .407.015.625.203a.418.418 0 0 0-.359.422c0 .281.219.406.406.406.203 0 .422-.125.422-.422 0-.484-.5-.828-1.11-.828-.937 0-1.327.969-1.5 1.719-.124.547-.484 3.36-.562 4.578zm0 0"/></symbol><symbol id="e" overflow="visible"><path d="M1.734-.734c-.062.234-.296.609-.656.609-.016 0-.234 0-.375-.094a.437.437 0 0 0 .313-.39c0-.157-.125-.25-.282-.25a.407.407 0 0 0-.406.421c0 .344.39.5.734.5.329 0 .61-.187.782-.484.172.36.547.484.828.484.812 0 1.234-.859 1.234-1.062 0-.094-.094-.094-.11-.094-.108 0-.108.047-.14.125-.14.485-.562.844-.953.844-.281 0-.422-.188-.422-.453 0-.188.172-.813.36-1.594.14-.531.453-.703.687-.703.016 0 .219 0 .375.094a.431.431 0 0 0-.312.39c0 .141.125.25.28.25a.403.403 0 0 0 .392-.421c0-.391-.454-.516-.72-.516-.359 0-.64.234-.78.5-.126-.281-.454-.5-.844-.5C.937-3.078.5-2.218.5-2c0 .078.094.078.11.078.093 0 .093-.016.14-.11.172-.546.61-.843.953-.843.234 0 .422.125.422.453 0 .14-.094.485-.156.735zm0 0"/></symbol><symbol id="f" overflow="visible"><path d="M2.938-.969h-.22c0 .094-.062.406-.14.453-.031.032-.453.032-.531.032h-.969c.328-.235.688-.516.984-.72.454-.312.876-.593.876-1.124 0-.64-.61-.985-1.313-.985-.672 0-1.172.376-1.172.876 0 .25.219.296.297.296a.283.283 0 0 0 .281-.296.27.27 0 0 0-.281-.282c.14-.234.438-.375.766-.375.484 0 .89.281.89.766 0 .422-.297.75-.672 1.062L.516-.234c-.047.047-.063.047-.063.078V0h2.313zm0 0"/></symbol><symbol id="g" overflow="visible"><path d="M1.984-3.172c0-.14-.015-.14-.187-.14C1.453-3 .89-3 .797-3H.719v.219h.078c.11 0 .437-.016.734-.14v2.5c0 .14 0 .202-.531.202H.75V0c.266-.016.719-.016 1-.016.297 0 .734 0 1.016.016v-.219h-.25c-.532 0-.532-.062-.532-.203zm0 0"/></symbol><symbol id="l" overflow="visible"><path d="M1.906-2.5a.524.524 0 1 0-.516.531.524.524 0 0 0 .516-.531zm0 0"/></symbol></defs><use y="134.765" x="223.432" xlink:href="#b" width="744.094" height="1052.362"/><use y="134.765" x="232.011" xlink:href="#c" width="744.094" height="1052.362"/><use y="126.739" x="240.867" xlink:href="#d" width="744.094" height="1052.362"/><use y="129.202" x="247.508" xlink:href="#e" width="744.094" height="1052.362"/><use y="130.198" x="252.026" xlink:href="#f" width="744.094" height="1052.362"/><use y="138.307" x="245.571" xlink:href="#e" width="744.094" height="1052.362"/><use y="139.303" x="250.089" xlink:href="#g" width="744.094" height="1052.362"/><use y="134.765" x="258.073" xlink:href="#h" width="744.094" height="1052.362"/><use y="134.765" x="264.023" xlink:href="#i" width="744.094" height="1052.362"/><use y="134.765" x="267.897" xlink:href="#j" width="744.094" height="1052.362"/><use y="134.765" x="273.591" xlink:href="#k" width="744.094" height="1052.362"/><use y="134.765" x="278.019" xlink:href="#l" width="744.094" height="1052.362"/><use y="134.765" x="281.34" xlink:href="#m" width="744.094" height="1052.362"/><use y="134.765" x="286.875" xlink:href="#j" width="744.094" height="1052.362"/></g><path d="M222.75 472.563h7.162m0-7.151h7.161m0-6.719h7.161m0-6.333h7.161m0-5.982h7.162m0-5.665h7.16m.001-5.373h7.161m0-5.106h7.161m0-4.858h7.161m0-4.63h7.161m0-4.418h7.162m0-4.218h7.16m.001-4.034h7.161m0-3.859h7.161m0-3.697h7.161m0-3.541h7.162m0-3.397h7.16m0-3.259h7.162m0-3.129h7.161m0-3.004h7.161m0-2.889h7.161m0-2.776h7.162m0-2.67h7.16m.001-2.569h7.16m.001-2.472h7.161" fill="none" stroke="#000" stroke-linecap="round" stroke-dasharray="1.00000022,3.00000071"/><path d="M401.78 368.434h7.161m0-2.291h7.161m0-2.206h7.162m0-2.125h7.16m.001-2.048h7.16m.001-1.974h7.161m0-1.9h7.161m0-1.834h7.161m.001-1.766h7.16m0-1.704h7.162m0-1.643h7.161m0-1.583h7.161m0-1.528h7.161m0-1.474h7.161" fill="none" stroke="#000" stroke-linecap="round" stroke-dasharray="1.00000023,3.00000073"/></svg>