<svg xmlns:ns0="http://www.iki.fi/pav/software/textext/" xmlns="http://www.w3.org/2000/svg" xmlns:xlink="http://www.w3.org/1999/xlink" width="2979.921" height="2104.724"><title>Sinus und Cosinus</title><defs><marker id="a" orient="auto" overflow="visible"><path d="M2.308 0l-3.46 2v-4l3.46 2z" fill-rule="evenodd" stroke="#000" stroke-width=".4pt"/></marker><symbol overflow="visible" id="b"><path d="M4.578-3.188c0-.796-.047-1.593-.39-2.328C3.733-6.484 2.905-6.64 2.5-6.64c-.61 0-1.328.266-1.75 1.188-.313.687-.36 1.469-.36 2.266 0 .75.032 1.64.454 2.406a1.83 1.83 0 0 0 1.64 1c.532 0 1.297-.203 1.735-1.157.312-.687.36-1.468.36-2.25zM2.484 0c-.39 0-.984-.25-1.156-1.203-.11-.594-.11-1.516-.11-2.11 0-.64 0-1.296.079-1.828.187-1.187.937-1.28 1.187-1.28.329 0 .985.187 1.172 1.171.11.563.11 1.313.11 1.938 0 .75 0 1.421-.11 2.062C3.5-.297 2.937 0 2.484 0zm0 0"/></symbol><symbol id="I" overflow="visible"><path d="M4.844-3.797c.047-.14.047-.156.047-.234 0-.172-.141-.266-.297-.266a.455.455 0 0 0-.344.203c-.016.063-.11.36-.14.547-.079.25-.141.531-.204.797L3.453-.953c-.031.14-.469.844-1.125.844-.5 0-.61-.438-.61-.813 0-.453.173-1.078.5-1.953.157-.406.204-.516.204-.719 0-.437-.313-.812-.813-.812-.953 0-1.312 1.453-1.312 1.531 0 .11.094.11.11.11.109 0 .109-.032.156-.188.28-.938.671-1.235 1.015-1.235.078 0 .25 0 .25.313 0 .25-.11.516-.172.703-.406 1.063-.578 1.625-.578 2.094 0 .89.625 1.187 1.219 1.187.39 0 .719-.171 1-.453-.125.516-.25 1.016-.64 1.547-.266.328-.641.625-1.095.625-.14 0-.593-.031-.765-.422.156 0 .297 0 .422-.125a.493.493 0 0 0 .203-.406c0-.313-.266-.344-.36-.344C.829.531.5.687.5 1.171c0 .5.438.876 1.063.876 1.015 0 2.046-.906 2.328-2.031zm0 0"/></symbol><symbol id="N" overflow="visible"><path d="M4.75-2.36c0-1.562-.922-2.046-1.656-2.046-1.375 0-2.688 1.422-2.688 2.828C.406-.641 1 .109 2.031.109c.625 0 1.344-.234 2.094-.843.125.53.453.843.906.843.532 0 .844-.546.844-.703 0-.078-.063-.11-.125-.11-.063 0-.094.032-.125.11-.188.485-.547.485-.563.485-.312 0-.312-.782-.312-1.016 0-.203 0-.234.11-.344C5.796-2.656 6-3.812 6-3.812c0-.032-.016-.11-.125-.11-.094 0-.094.031-.14.219-.188.625-.516 1.375-.985 1.969zM4.094-.983c-.89.765-1.657.875-2.047.875-.594 0-.906-.454-.906-1.094 0-.484.265-1.563.578-2.063.468-.734 1.015-.921 1.36-.921.983 0 .983 1.312.983 2.078 0 .375 0 .953.032 1.125zm0 0"/></symbol><symbol id="J" overflow="visible"><path d="M6.844-3.266c.156 0 .343 0 .343-.187 0-.203-.187-.203-.328-.203H.891c-.141 0-.329 0-.329.203 0 .187.188.187.329.187zm.015 1.938c.141 0 .329 0 .329-.203 0-.188-.188-.188-.344-.188H.89c-.141 0-.329 0-.329.188 0 .203.188.203.329.203zm0 0"/></symbol><symbol id="K" overflow="visible"><path d="M1.172-2.172c0-1.625.812-2.047 1.344-2.047.093 0 .718.016 1.062.375-.406.031-.469.328-.469.453 0 .266.188.454.454.454.265 0 .468-.157.468-.47 0-.671-.765-1.062-1.531-1.062C1.25-4.469.344-3.39.344-2.156c0 1.281.984 2.265 2.14 2.265 1.329 0 1.657-1.203 1.657-1.296 0-.094-.11-.094-.141-.094-.078 0-.11.031-.125.093C3.594-.265 2.937-.14 2.578-.14c-.531 0-1.406-.421-1.406-2.03zm0 0"/></symbol><symbol id="L" overflow="visible"><path d="M4.688-2.14c0-1.266-.985-2.329-2.188-2.329C1.25-4.469.281-3.375.281-2.14A2.22 2.22 0 0 0 2.484.11c1.204 0 2.204-.984 2.204-2.25zM2.5-.14c-.438 0-.875-.204-1.14-.672-.25-.438-.25-1.047-.25-1.407 0-.39 0-.922.234-1.36a1.347 1.347 0 0 1 1.14-.671c.438 0 .86.219 1.125.656.266.422.266 1 .266 1.375 0 .36 0 .906-.219 1.344-.234.453-.672.734-1.156.734zm0 0"/></symbol><symbol id="M" overflow="visible"><path d="M2.078-1.938c.219.047 1.031.204 1.031.922 0 .5-.343.907-1.125.907-.843 0-1.203-.563-1.39-1.422-.031-.125-.031-.157-.14-.157-.126 0-.126.063-.126.235v1.328c0 .172 0 .234.11.234C.483.11.5.094.688-.094.703-.109.703-.125.89-.312c.437.406.89.421 1.093.421 1.141 0 1.61-.671 1.61-1.39 0-.516-.297-.828-.422-.938-.328-.328-.719-.406-1.14-.484-.563-.11-1.22-.235-1.22-.813 0-.359.25-.765 1.11-.765 1.094 0 1.156.906 1.172 1.203 0 .094.094.094.11.094.14 0 .14-.047.14-.235v-1.015c0-.157 0-.235-.11-.235-.046 0-.078 0-.203.125a1.676 1.676 0 0 1-.172.157c-.375-.282-.78-.282-.937-.282-1.219 0-1.594.672-1.594 1.235 0 .343.156.625.422.843.328.25.61.313 1.328.454zm0 0"/></symbol><symbol overflow="visible" id="C"><path d="M4.844-3.797c.047-.14.047-.156.047-.234 0-.172-.141-.266-.297-.266a.455.455 0 0 0-.344.203c-.016.063-.11.36-.14.547-.079.25-.141.531-.204.797L3.453-.953c-.031.14-.469.844-1.125.844-.5 0-.61-.438-.61-.813 0-.453.173-1.078.5-1.953.157-.406.204-.516.204-.719 0-.437-.313-.812-.813-.812-.953 0-1.312 1.453-1.312 1.531 0 .11.094.11.11.11.109 0 .109-.032.156-.188.28-.938.671-1.235 1.015-1.235.078 0 .25 0 .25.313 0 .25-.11.516-.172.703-.406 1.063-.578 1.625-.578 2.094 0 .89.625 1.187 1.219 1.187.39 0 .719-.171 1-.453-.125.516-.25 1.016-.64 1.547-.266.328-.641.625-1.095.625-.14 0-.593-.031-.765-.422.156 0 .297 0 .422-.125a.493.493 0 0 0 .203-.406c0-.313-.266-.344-.36-.344C.829.531.5.687.5 1.171c0 .5.438.876 1.063.876 1.015 0 2.046-.906 2.328-2.031zm0 0"/></symbol><symbol overflow="visible" id="H"><path d="M4.75-2.36c0-1.562-.922-2.046-1.656-2.046-1.375 0-2.688 1.422-2.688 2.828C.406-.641 1 .109 2.031.109c.625 0 1.344-.234 2.094-.843.125.53.453.843.906.843.532 0 .844-.546.844-.703 0-.078-.063-.11-.125-.11-.063 0-.094.032-.125.11-.188.485-.547.485-.563.485-.312 0-.312-.782-.312-1.016 0-.203 0-.234.11-.344C5.796-2.656 6-3.812 6-3.812c0-.032-.016-.11-.125-.11-.094 0-.094.031-.14.219-.188.625-.516 1.375-.985 1.969zM4.094-.983c-.89.765-1.657.875-2.047.875-.594 0-.906-.454-.906-1.094 0-.484.265-1.563.578-2.063.468-.734 1.015-.921 1.36-.921.983 0 .983 1.312.983 2.078 0 .375 0 .953.032 1.125zm0 0"/></symbol><symbol overflow="visible" id="D"><path d="M6.844-3.266c.156 0 .343 0 .343-.187 0-.203-.187-.203-.328-.203H.891c-.141 0-.329 0-.329.203 0 .187.188.187.329.187zm.015 1.938c.141 0 .329 0 .329-.203 0-.188-.188-.188-.344-.188H.89c-.141 0-.329 0-.329.188 0 .203.188.203.329.203zm0 0"/></symbol><symbol overflow="visible" id="E"><path d="M2.078-1.938c.219.047 1.031.204 1.031.922 0 .5-.343.907-1.125.907-.843 0-1.203-.563-1.39-1.422-.031-.125-.031-.157-.14-.157-.126 0-.126.063-.126.235v1.328c0 .172 0 .234.11.234C.483.11.5.094.688-.094.703-.109.703-.125.89-.312c.437.406.89.421 1.093.421 1.141 0 1.61-.671 1.61-1.39 0-.516-.297-.828-.422-.938-.328-.328-.719-.406-1.14-.484-.563-.11-1.22-.235-1.22-.813 0-.359.25-.765 1.11-.765 1.094 0 1.156.906 1.172 1.203 0 .094.094.094.11.094.14 0 .14-.047.14-.235v-1.015c0-.157 0-.235-.11-.235-.046 0-.078 0-.203.125a1.676 1.676 0 0 1-.172.157c-.375-.282-.78-.282-.937-.282-1.219 0-1.594.672-1.594 1.235 0 .343.156.625.422.843.328.25.61.313 1.328.454zm0 0"/></symbol><symbol overflow="visible" id="F"><path d="M1.766-4.406l-1.391.11v.312c.64 0 .734.062.734.546V-.75c0 .438-.109.438-.78.438V0c.312-.016.859-.031 1.093-.031.36 0 .703.015 1.047.031v-.313c-.672 0-.703-.046-.703-.437zm.03-1.735a.514.514 0 0 0-.515-.53.537.537 0 0 0-.531.53c0 .266.219.532.531.532a.514.514 0 0 0 .516-.532zm0 0"/></symbol><symbol overflow="visible" id="G"><path d="M1.094-3.422V-.75c0 .438-.11.438-.782.438V0c.36-.016.86-.031 1.141-.031.25 0 .766.015 1.11.031v-.313c-.672 0-.782 0-.782-.437v-1.844c0-1.031.719-1.594 1.344-1.594.64 0 .75.532.75 1.11V-.75c0 .438-.11.438-.781.438V0c.344-.016.86-.031 1.125-.031.25 0 .781.015 1.11.031v-.313c-.516 0-.766 0-.766-.296v-1.907c0-.859 0-1.156-.313-1.515-.14-.172-.469-.375-1.047-.375-.734 0-1.203.422-1.484 1.047v-1.047l-1.407.11v.312c.704 0 .782.062.782.562zm0 0"/></symbol><symbol id="B" overflow="visible"><path d="M4.844-3.797c.047-.14.047-.156.047-.234 0-.172-.141-.266-.297-.266a.455.455 0 0 0-.344.203c-.016.063-.11.36-.14.547-.079.25-.141.531-.204.797L3.453-.953c-.031.14-.469.844-1.125.844-.5 0-.61-.438-.61-.813 0-.453.173-1.078.5-1.953.157-.406.204-.516.204-.719 0-.437-.313-.812-.813-.812-.953 0-1.312 1.453-1.312 1.531 0 .11.094.11.11.11.109 0 .109-.032.156-.188.28-.938.671-1.235 1.015-1.235.078 0 .25 0 .25.313 0 .25-.11.516-.172.703-.406 1.063-.578 1.625-.578 2.094 0 .89.625 1.187 1.219 1.187.39 0 .719-.171 1-.453-.125.516-.25 1.016-.64 1.547-.266.328-.641.625-1.095.625-.14 0-.593-.031-.765-.422.156 0 .297 0 .422-.125a.493.493 0 0 0 .203-.406c0-.313-.266-.344-.36-.344C.829.531.5.687.5 1.171c0 .5.438.876 1.063.876 1.015 0 2.046-.906 2.328-2.031zm0 0"/></symbol><symbol overflow="visible" id="A"><path d="M4.75-2.36c0-1.562-.922-2.046-1.656-2.046-1.375 0-2.688 1.422-2.688 2.828C.406-.641 1 .109 2.031.109c.625 0 1.344-.234 2.094-.843.125.53.453.843.906.843.532 0 .844-.546.844-.703 0-.078-.063-.11-.125-.11-.063 0-.094.032-.125.11-.188.485-.547.485-.563.485-.312 0-.312-.782-.312-1.016 0-.203 0-.234.11-.344C5.796-2.656 6-3.812 6-3.812c0-.032-.016-.11-.125-.11-.094 0-.094.031-.14.219-.188.625-.516 1.375-.985 1.969zM4.094-.983c-.89.765-1.657.875-2.047.875-.594 0-.906-.454-.906-1.094 0-.484.265-1.563.578-2.063.468-.734 1.015-.921 1.36-.921.983 0 .983 1.312.983 2.078 0 .375 0 .953.032 1.125zm0 0"/></symbol><symbol id="q" overflow="visible"><path d="M1.266-.766l1.062-1.03c1.547-1.376 2.14-1.907 2.14-2.907 0-1.14-.89-1.938-2.109-1.938A1.843 1.843 0 0 0 .5-4.828c0 .547.5.547.531.547.172 0 .516-.11.516-.532a.513.513 0 0 0-.531-.515c-.079 0-.094 0-.125.016.218-.657.765-1.016 1.343-1.016.907 0 1.329.812 1.329 1.625 0 .797-.485 1.578-1.047 2.203L.609-.375C.5-.265.5-.235.5 0h3.703l.266-1.734h-.235C4.172-1.438 4.11-1 4-.844c-.063.078-.719.078-.938.078zm0 0"/></symbol><symbol id="t" overflow="visible"><path d="M3.297 2.39c0-.03 0-.046-.172-.218C1.891.922 1.562-.968 1.562-2.5c0-1.734.375-3.469 1.61-4.703.125-.125.125-.14.125-.172 0-.078-.031-.11-.094-.11-.11 0-1 .688-1.594 1.954C1.11-4.438.984-3.328.984-2.5c0 .781.11 1.984.657 3.125C2.25 1.844 3.094 2.5 3.203 2.5c.063 0 .094-.031.094-.11zm0 0"/></symbol><symbol id="u" overflow="visible"><path d="M6.844-3.266c.156 0 .343 0 .343-.187 0-.203-.187-.203-.328-.203H.891c-.141 0-.329 0-.329.203 0 .187.188.187.329.187zm.015 1.938c.141 0 .329 0 .329-.203 0-.188-.188-.188-.344-.188H.89c-.141 0-.329 0-.329.188 0 .203.188.203.329.203zm0 0"/></symbol><symbol id="v" overflow="visible"><path d="M2.89-3.516c.813-.265 1.391-.953 1.391-1.75 0-.812-.875-1.375-1.828-1.375-1 0-1.765.594-1.765 1.36 0 .328.218.515.515.515.297 0 .5-.218.5-.515 0-.485-.469-.485-.61-.485.298-.5.954-.625 1.313-.625.422 0 .969.22.969 1.11 0 .125-.031.703-.281 1.14-.297.485-.64.516-.89.516a3.29 3.29 0 0 1-.392.031c-.078.016-.14.031-.14.125 0 .11.062.11.234.11h.438c.812 0 1.187.671 1.187 1.656 0 1.36-.687 1.64-1.125 1.64-.437 0-1.187-.171-1.531-.75.344.047.656-.171.656-.546a.537.537 0 0 0-.547-.563c-.25 0-.562.14-.562.578C.422-.437 1.344.22 2.437.22c1.22 0 2.126-.906 2.126-1.922 0-.813-.641-1.594-1.672-1.813zm0 0"/></symbol><symbol id="w" overflow="visible"><path d="M1.313-3.266v-.25c0-2.515 1.234-2.875 1.75-2.875.234 0 .656.063.874.407-.156 0-.546 0-.546.437 0 .313.234.469.453.469.156 0 .469-.094.469-.484 0-.594-.438-1.079-1.266-1.079C1.766-6.64.422-5.359.422-3.156.422-.484 1.578.219 2.5.219c1.11 0 2.063-.938 2.063-2.25 0-1.266-.891-2.219-2-2.219-.672 0-1.047.5-1.25.984zM2.5-.062c-.625 0-.922-.594-.984-.75-.188-.47-.188-1.266-.188-1.438 0-.781.328-1.781 1.219-1.781.172 0 .625 0 .937.625.172.36.172.875.172 1.36 0 .483 0 .983-.172 1.343-.296.594-.75.64-.984.64zm0 0"/></symbol><symbol id="x" overflow="visible"><path d="M4.578-3.188c0-.796-.047-1.593-.39-2.328C3.733-6.484 2.905-6.64 2.5-6.64c-.61 0-1.328.266-1.75 1.188-.313.687-.36 1.469-.36 2.266 0 .75.032 1.64.454 2.406a1.83 1.83 0 0 0 1.64 1c.532 0 1.297-.203 1.735-1.157.312-.687.36-1.468.36-2.25zM2.484 0c-.39 0-.984-.25-1.156-1.203-.11-.594-.11-1.516-.11-2.11 0-.64 0-1.296.079-1.828.187-1.187.937-1.28 1.187-1.28.329 0 .985.187 1.172 1.171.11.563.11 1.313.11 1.938 0 .75 0 1.421-.11 2.062C3.5-.297 2.937 0 2.484 0zm0 0"/></symbol><symbol id="z" overflow="visible"><path d="M2.875-2.5c0-.766-.11-1.969-.656-3.11C1.625-6.827.766-7.483.672-7.483a.107.107 0 0 0-.11.109c0 .031 0 .047.188.234.984.985 1.547 2.563 1.547 4.641C2.297-.78 1.937.97.703 2.22c-.14.125-.14.14-.14.172 0 .062.046.109.109.109.094 0 1-.688 1.578-1.953.516-1.094.625-2.203.625-3.047zm0 0"/></symbol><symbol id="r" overflow="visible"><path d="M1.906-2.5a.524.524 0 1 0-.516.531.524.524 0 0 0 .516-.531zm0 0"/></symbol><symbol id="s" overflow="visible"><path d="M2.64-3.719h1.126c-.329 1.469-.422 1.906-.422 2.578 0 .141 0 .407.078.75.11.438.219.5.36.5.202 0 .421-.171.421-.375 0-.062 0-.078-.062-.218-.297-.72-.297-1.375-.297-1.657 0-.515.078-1.062.187-1.578h1.125c.14 0 .5 0 .5-.344 0-.234-.218-.234-.406-.234H1.906c-.218 0-.593 0-1.031.469-.344.39-.61.844-.61.89 0 .016 0 .11.126.11.078 0 .093-.047.156-.125.484-.766 1.062-.766 1.265-.766h.563c-.313 1.203-.844 2.406-1.266 3.313-.078.156-.078.172-.078.25 0 .187.157.265.282.265.296 0 .375-.28.5-.64.14-.469.14-.485.265-.985zm0 0"/></symbol><symbol id="y" overflow="visible"><path d="M3.688-1.484c0-.875-.75-1.625-1.704-1.625-.968 0-1.718.75-1.718 1.625 0 .859.765 1.546 1.718 1.546.938 0 1.704-.687 1.704-1.546zM1.984-.156c-.265 0-.64-.078-.875-.422-.187-.281-.203-.64-.203-.969 0-.297 0-.719.25-1.016.172-.203.469-.343.828-.343.407 0 .704.187.86.406.187.266.203.625.203.953 0 .328-.016.703-.219.984-.187.266-.5.407-.844.407zm0 0"/></symbol><symbol id="i" overflow="visible"><path d="M2.64-3.719h1.126c-.329 1.469-.422 1.906-.422 2.578 0 .141 0 .407.078.75.11.438.219.5.36.5.202 0 .421-.171.421-.375 0-.062 0-.078-.062-.218-.297-.72-.297-1.375-.297-1.657 0-.515.078-1.062.187-1.578h1.125c.14 0 .5 0 .5-.344 0-.234-.218-.234-.406-.234H1.906c-.218 0-.593 0-1.031.469-.344.39-.61.844-.61.89 0 .016 0 .11.126.11.078 0 .093-.047.156-.125.484-.766 1.062-.766 1.265-.766h.563c-.313 1.203-.844 2.406-1.266 3.313-.078.156-.078.172-.078.25 0 .187.157.265.282.265.296 0 .375-.28.5-.64.14-.469.14-.485.265-.985zm0 0"/></symbol><symbol id="j" overflow="visible"><path d="M3.297 2.39c0-.03 0-.046-.172-.218C1.891.922 1.562-.968 1.562-2.5c0-1.734.375-3.469 1.61-4.703.125-.125.125-.14.125-.172 0-.078-.031-.11-.094-.11-.11 0-1 .688-1.594 1.954C1.11-4.438.984-3.328.984-2.5c0 .781.11 1.984.657 3.125C2.25 1.844 3.094 2.5 3.203 2.5c.063 0 .094-.031.094-.11zm0 0"/></symbol><symbol id="k" overflow="visible"><path d="M6.844-3.266c.156 0 .343 0 .343-.187 0-.203-.187-.203-.328-.203H.891c-.141 0-.329 0-.329.203 0 .187.188.187.329.187zm.015 1.938c.141 0 .329 0 .329-.203 0-.188-.188-.188-.344-.188H.89c-.141 0-.329 0-.329.188 0 .203.188.203.329.203zm0 0"/></symbol><symbol id="l" overflow="visible"><path d="M2.938-6.375c0-.25 0-.266-.235-.266C2.078-6 1.203-6 .891-6v.313c.203 0 .78 0 1.296-.266v5.172c0 .36-.03.469-.921.469H.953V0c.344-.031 1.203-.031 1.61-.031.39 0 1.265 0 1.609.031v-.313h-.313c-.906 0-.921-.109-.921-.468zm0 0"/></symbol><symbol id="m" overflow="visible"><path d="M1.625-4.563c-.453-.296-.5-.625-.5-.796 0-.61.656-1.032 1.36-1.032.718 0 1.359.516 1.359 1.235 0 .578-.39 1.047-.985 1.39zm1.453.954c.719-.375 1.203-.891 1.203-1.547 0-.922-.875-1.485-1.781-1.485-1 0-1.813.735-1.813 1.672 0 .172.016.625.438 1.094.11.11.484.36.734.531C1.281-3.047.422-2.5.422-1.5.422-.453 1.438.219 2.484.219c1.125 0 2.079-.828 2.079-1.89 0-.36-.11-.813-.5-1.235-.188-.203-.344-.297-.985-.703zm-1 .421l1.235.782c.28.187.75.484.75 1.094 0 .734-.75 1.25-1.563 1.25C1.64-.063.922-.672.922-1.5c0-.578.312-1.219 1.156-1.688zm0 0"/></symbol><symbol id="n" overflow="visible"><path d="M4.578-3.188c0-.796-.047-1.593-.39-2.328C3.733-6.484 2.905-6.64 2.5-6.64c-.61 0-1.328.266-1.75 1.188-.313.687-.36 1.469-.36 2.266 0 .75.032 1.64.454 2.406a1.83 1.83 0 0 0 1.64 1c.532 0 1.297-.203 1.735-1.157.312-.687.36-1.468.36-2.25zM2.484 0c-.39 0-.984-.25-1.156-1.203-.11-.594-.11-1.516-.11-2.11 0-.64 0-1.296.079-1.828.187-1.187.937-1.28 1.187-1.28.329 0 .985.187 1.172 1.171.11.563.11 1.313.11 1.938 0 .75 0 1.421-.11 2.062C3.5-.297 2.937 0 2.484 0zm0 0"/></symbol><symbol id="p" overflow="visible"><path d="M2.875-2.5c0-.766-.11-1.969-.656-3.11C1.625-6.827.766-7.483.672-7.483a.107.107 0 0 0-.11.109c0 .031 0 .047.188.234.984.985 1.547 2.563 1.547 4.641C2.297-.78 1.937.97.703 2.22c-.14.125-.14.14-.14.172 0 .062.046.109.109.109.094 0 1-.688 1.578-1.953.516-1.094.625-2.203.625-3.047zm0 0"/></symbol><symbol id="o" overflow="visible"><path d="M3.688-1.484c0-.875-.75-1.625-1.704-1.625-.968 0-1.718.75-1.718 1.625 0 .859.765 1.546 1.718 1.546.938 0 1.704-.687 1.704-1.546zM1.984-.156c-.265 0-.64-.078-.875-.422-.187-.281-.203-.64-.203-.969 0-.297 0-.719.25-1.016.172-.203.469-.343.828-.343.407 0 .704.187.86.406.187.266.203.625.203.953 0 .328-.016.703-.219.984-.187.266-.5.407-.844.407zm0 0"/></symbol><symbol overflow="visible" id="h"><path d="M1.313-3.266v-.25c0-2.515 1.234-2.875 1.75-2.875.234 0 .656.063.874.407-.156 0-.546 0-.546.437 0 .313.234.469.453.469.156 0 .469-.094.469-.484 0-.594-.438-1.079-1.266-1.079C1.766-6.64.422-5.359.422-3.156.422-.484 1.578.219 2.5.219c1.11 0 2.063-.938 2.063-2.25 0-1.266-.891-2.219-2-2.219-.672 0-1.047.5-1.25.984zM2.5-.062c-.625 0-.922-.594-.984-.75-.188-.47-.188-1.266-.188-1.438 0-.781.328-1.781 1.219-1.781.172 0 .625 0 .937.625.172.36.172.875.172 1.36 0 .483 0 .983-.172 1.343-.296.594-.75.64-.984.64zm0 0"/></symbol><symbol id="g" overflow="visible"><path d="M4.469-2c0-1.188-.813-2.188-1.89-2.188-.47 0-.907.157-1.267.516v-1.953c.204.063.532.125.844.125 1.235 0 1.938-.906 1.938-1.031 0-.063-.032-.11-.11-.11 0 0-.03 0-.078.032a3.22 3.22 0 0 1-1.36.296 3.4 3.4 0 0 1-1.327-.28c-.078-.032-.094-.032-.11-.032C1-6.625 1-6.547 1-6.391v2.954c0 .171 0 .25.14.25.079 0 .094-.016.141-.079.11-.156.469-.703 1.282-.703.515 0 .765.453.843.64.156.376.188.75.188 1.25 0 .36 0 .954-.25 1.376-.235.39-.61.64-1.063.64-.719 0-1.297-.53-1.469-1.109.032 0 .063.016.172.016.329 0 .5-.25.5-.485 0-.25-.171-.5-.5-.5-.14 0-.484.079-.484.532C.5-.75 1.188.219 2.297.219 3.453.219 4.469-.734 4.469-2zm0 0"/></symbol><symbol overflow="visible" id="f"><path d="M2.938-1.64v.859c0 .36-.032.469-.766.469h-.203V0c.406-.031.922-.031 1.343-.031.422 0 .938 0 1.36.031v-.313h-.219c-.734 0-.75-.109-.75-.468v-.86h.985v-.312h-.985v-4.531c0-.204 0-.266-.172-.266-.078 0-.11 0-.187.125L.28-1.953v.312zm.046-.313H.563l2.421-3.719zm0 0"/></symbol><symbol id="e" overflow="visible"><path d="M2.89-3.516c.813-.265 1.391-.953 1.391-1.75 0-.812-.875-1.375-1.828-1.375-1 0-1.765.594-1.765 1.36 0 .328.218.515.515.515.297 0 .5-.218.5-.515 0-.485-.469-.485-.61-.485.298-.5.954-.625 1.313-.625.422 0 .969.22.969 1.11 0 .125-.031.703-.281 1.14-.297.485-.64.516-.89.516a3.29 3.29 0 0 1-.392.031c-.078.016-.14.031-.14.125 0 .11.062.11.234.11h.438c.812 0 1.187.671 1.187 1.656 0 1.36-.687 1.64-1.125 1.64-.437 0-1.187-.171-1.531-.75.344.047.656-.171.656-.546a.537.537 0 0 0-.547-.563c-.25 0-.562.14-.562.578C.422-.437 1.344.22 2.437.22c1.22 0 2.126-.906 2.126-1.922 0-.813-.641-1.594-1.672-1.813zm0 0"/></symbol><symbol overflow="visible" id="d"><path d="M2.938-6.375c0-.25 0-.266-.235-.266C2.078-6 1.203-6 .891-6v.313c.203 0 .78 0 1.296-.266v5.172c0 .36-.03.469-.921.469H.953V0c.344-.031 1.203-.031 1.61-.031.39 0 1.265 0 1.609.031v-.313h-.313c-.906 0-.921-.109-.921-.468zm0 0"/></symbol><symbol id="c" overflow="visible"><path d="M1.266-.766l1.062-1.03c1.547-1.376 2.14-1.907 2.14-2.907 0-1.14-.89-1.938-2.109-1.938A1.843 1.843 0 0 0 .5-4.828c0 .547.5.547.531.547.172 0 .516-.11.516-.532a.513.513 0 0 0-.531-.515c-.079 0-.094 0-.125.016.218-.657.765-1.016 1.343-1.016.907 0 1.329.812 1.329 1.625 0 .797-.485 1.578-1.047 2.203L.609-.375C.5-.265.5-.235.5 0h3.703l.266-1.734h-.235C4.172-1.438 4.11-1 4-.844c-.063.078-.719.078-.938.078zm0 0"/></symbol></defs><g transform="translate(-342.71 1273.114) scale(4.62289)" fill="green"><use y="134.765" x="231.736" xlink:href="#textext-082fa4b4-3" width="744.094" height="1052.362"/><use y="134.765" x="231.736" xlink:href="#textext-082fa4b4-3" width="744.094" height="1052.362"/><g ns0:preamble="/home/waldgeist/data/sphinx/test.tex" ns0:text="$\\Delta \\vec{r} = \\vec{r}_{\\rm{2}} - \\vec{r}_{\\rm{1}} $"><use y="134.765" x="223.432" xlink:href="#textext-082fa4b4-0" width="744.094" height="1052.362"/><use y="134.765" x="231.417" xlink:href="#textext-082fa4b4-2" width="744.094" height="1052.362"/><use y="134.765" x="231.736" xlink:href="#textext-082fa4b4-3" width="744.094" height="1052.362"/><use y="134.765" x="239.273" xlink:href="#textext-082fa4b4-1" width="744.094" height="1052.362"/><use y="134.765" x="249.472" xlink:href="#textext-082fa4b4-2" width="744.094" height="1052.362"/><use y="134.765" x="249.791" xlink:href="#textext-082fa4b4-3" width="744.094" height="1052.362"/><use y="136.259" x="254.284" xlink:href="#textext-082fa4b4-4" width="744.094" height="1052.362"/><use y="134.765" x="260.967" xlink:href="#textext-082fa4b4-6" width="744.094" height="1052.362"/><use y="134.765" x="270.612" xlink:href="#textext-082fa4b4-2" width="744.094" height="1052.362"/><use y="134.765" x="270.931" xlink:href="#textext-082fa4b4-3" width="744.094" height="1052.362"/><use y="136.259" x="275.425" xlink:href="#textext-082fa4b4-5" width="744.094" height="1052.362"/></g><g ns0:preamble="/home/waldgeist/data/sphinx/test.tex" ns0:text="$\\Delta \\vec{r} = \\vec{r}_{\\rm{2}} - \\vec{r}_{\\rm{1}} $"><use y="134.765" x="223.432" xlink:href="#textext-082fa4b4-0" width="744.094" height="1052.362"/><use y="134.765" x="231.417" xlink:href="#textext-082fa4b4-2" width="744.094" height="1052.362"/><use y="134.765" x="231.736" xlink:href="#textext-082fa4b4-3" width="744.094" height="1052.362"/><use y="134.765" x="239.273" xlink:href="#textext-082fa4b4-1" width="744.094" height="1052.362"/><use y="134.765" x="249.472" xlink:href="#textext-082fa4b4-2" width="744.094" height="1052.362"/><use y="134.765" x="249.791" xlink:href="#textext-082fa4b4-3" width="744.094" height="1052.362"/><use y="136.259" x="254.284" xlink:href="#textext-082fa4b4-4" width="744.094" height="1052.362"/><use y="134.765" x="260.967" xlink:href="#textext-082fa4b4-6" width="744.094" height="1052.362"/><use y="134.765" x="270.612" xlink:href="#textext-082fa4b4-2" width="744.094" height="1052.362"/><use y="134.765" x="270.931" xlink:href="#textext-082fa4b4-3" width="744.094" height="1052.362"/><use y="136.259" x="275.425" xlink:href="#textext-082fa4b4-5" width="744.094" height="1052.362"/></g><g ns0:preamble="/home/waldgeist/data/sphinx/test.tex" ns0:text="$\\Delta \\vec{r} = \\vec{r}_{\\rm{2}} - \\vec{r}_{\\rm{1}} $"><use y="134.765" x="223.432" xlink:href="#textext-082fa4b4-0" width="744.094" height="1052.362"/><use y="134.765" x="231.417" xlink:href="#textext-082fa4b4-2" width="744.094" height="1052.362"/><use y="134.765" x="231.736" xlink:href="#textext-082fa4b4-3" width="744.094" height="1052.362"/><use y="134.765" x="239.273" xlink:href="#textext-082fa4b4-1" width="744.094" height="1052.362"/><use y="134.765" x="249.472" xlink:href="#textext-082fa4b4-2" width="744.094" height="1052.362"/><use y="134.765" x="249.791" xlink:href="#textext-082fa4b4-3" width="744.094" height="1052.362"/><use y="136.259" x="254.284" xlink:href="#textext-082fa4b4-4" width="744.094" height="1052.362"/><use y="134.765" x="260.967" xlink:href="#textext-082fa4b4-6" width="744.094" height="1052.362"/><use y="134.765" x="270.612" xlink:href="#textext-082fa4b4-2" width="744.094" height="1052.362"/><use y="134.765" x="270.931" xlink:href="#textext-082fa4b4-3" width="744.094" height="1052.362"/><use y="136.259" x="275.425" xlink:href="#textext-082fa4b4-5" width="744.094" height="1052.362"/></g></g><g transform="translate(271.469 2537.176) scale(4.62289)" fill="green"><use y="134.765" x="231.736" xlink:href="#textext-082fa4b4-3" width="744.094" height="1052.362"/><use y="134.765" x="231.736" xlink:href="#textext-082fa4b4-3" width="744.094" height="1052.362"/><g ns0:preamble="/home/waldgeist/data/sphinx/test.tex" ns0:text="$\\Delta \\vec{r} = \\vec{r}_{\\rm{2}} - \\vec{r}_{\\rm{1}} $"><use y="134.765" x="223.432" xlink:href="#textext-082fa4b4-0" width="744.094" height="1052.362"/><use y="134.765" x="231.417" xlink:href="#textext-082fa4b4-2" width="744.094" height="1052.362"/><use y="134.765" x="231.736" xlink:href="#textext-082fa4b4-3" width="744.094" height="1052.362"/><use y="134.765" x="239.273" xlink:href="#textext-082fa4b4-1" width="744.094" height="1052.362"/><use y="134.765" x="249.472" xlink:href="#textext-082fa4b4-2" width="744.094" height="1052.362"/><use y="134.765" x="249.791" xlink:href="#textext-082fa4b4-3" width="744.094" height="1052.362"/><use y="136.259" x="254.284" xlink:href="#textext-082fa4b4-4" width="744.094" height="1052.362"/><use y="134.765" x="260.967" xlink:href="#textext-082fa4b4-6" width="744.094" height="1052.362"/><use y="134.765" x="270.612" xlink:href="#textext-082fa4b4-2" width="744.094" height="1052.362"/><use y="134.765" x="270.931" xlink:href="#textext-082fa4b4-3" width="744.094" height="1052.362"/><use y="136.259" x="275.425" xlink:href="#textext-082fa4b4-5" width="744.094" height="1052.362"/></g><g ns0:preamble="/home/waldgeist/data/sphinx/test.tex" ns0:text="$\\Delta \\vec{r} = \\vec{r}_{\\rm{2}} - \\vec{r}_{\\rm{1}} $"><use y="134.765" x="223.432" xlink:href="#textext-082fa4b4-0" width="744.094" height="1052.362"/><use y="134.765" x="231.417" xlink:href="#textext-082fa4b4-2" width="744.094" height="1052.362"/><use y="134.765" x="231.736" xlink:href="#textext-082fa4b4-3" width="744.094" height="1052.362"/><use y="134.765" x="239.273" xlink:href="#textext-082fa4b4-1" width="744.094" height="1052.362"/><use y="134.765" x="249.472" xlink:href="#textext-082fa4b4-2" width="744.094" height="1052.362"/><use y="134.765" x="249.791" xlink:href="#textext-082fa4b4-3" width="744.094" height="1052.362"/><use y="136.259" x="254.284" xlink:href="#textext-082fa4b4-4" width="744.094" height="1052.362"/><use y="134.765" x="260.967" xlink:href="#textext-082fa4b4-6" width="744.094" height="1052.362"/><use y="134.765" x="270.612" xlink:href="#textext-082fa4b4-2" width="744.094" height="1052.362"/><use y="134.765" x="270.931" xlink:href="#textext-082fa4b4-3" width="744.094" height="1052.362"/><use y="136.259" x="275.425" xlink:href="#textext-082fa4b4-5" width="744.094" height="1052.362"/></g><g ns0:preamble="/home/waldgeist/data/sphinx/test.tex" ns0:text="$\\Delta \\vec{r} = \\vec{r}_{\\rm{2}} - \\vec{r}_{\\rm{1}} $"><use y="134.765" x="223.432" xlink:href="#textext-082fa4b4-0" width="744.094" height="1052.362"/><use y="134.765" x="231.417" xlink:href="#textext-082fa4b4-2" width="744.094" height="1052.362"/><use y="134.765" x="231.736" xlink:href="#textext-082fa4b4-3" width="744.094" height="1052.362"/><use y="134.765" x="239.273" xlink:href="#textext-082fa4b4-1" width="744.094" height="1052.362"/><use y="134.765" x="249.472" xlink:href="#textext-082fa4b4-2" width="744.094" height="1052.362"/><use y="134.765" x="249.791" xlink:href="#textext-082fa4b4-3" width="744.094" height="1052.362"/><use y="136.259" x="254.284" xlink:href="#textext-082fa4b4-4" width="744.094" height="1052.362"/><use y="134.765" x="260.967" xlink:href="#textext-082fa4b4-6" width="744.094" height="1052.362"/><use y="134.765" x="270.612" xlink:href="#textext-082fa4b4-2" width="744.094" height="1052.362"/><use y="134.765" x="270.931" xlink:href="#textext-082fa4b4-3" width="744.094" height="1052.362"/><use y="136.259" x="275.425" xlink:href="#textext-082fa4b4-5" width="744.094" height="1052.362"/></g></g><path fill="#fff" stroke="#fff" stroke-width="3" stroke-linecap="round" stroke-dasharray="8.99999995,8.99999995" d="M413.295 640.402h2153.331v802.543H413.295z"/><path d="M1361.468 753.42v597.818m59.782-597.818v597.818m59.782-597.818v597.818m59.781-597.818v597.818m59.782-597.818v597.818m59.782-597.818v597.818m59.781-597.818v597.818m59.782-597.818v597.818m59.782-597.818v597.818M1301.686 813.202h597.818m-597.818 59.782h597.818m-597.818 59.782h597.818m-597.818 59.782h597.818m-597.818 59.782h597.818m-597.818 59.781h597.818m-597.818 59.782h597.818m-597.818 59.781h597.818m-597.818 59.782h597.818" stroke-width="1.5" stroke="#e6e6e6" fill="none"/><path d="M1307.665 753.42v597.818m5.978-597.818v597.818m5.977-597.818v597.818m5.98-597.818v597.818m5.977-597.818v597.818m5.978-597.818v597.818m5.979-597.818v597.818m5.978-597.818v597.818m5.978-597.818v597.818m11.956-597.818v597.818m5.978-597.818v597.818m5.979-597.818v597.818m5.977-597.818v597.818m5.979-597.818v597.818m5.978-597.818v597.818m5.978-597.818v597.818m5.979-597.818v597.818m5.978-597.818v597.818m11.956-597.818v597.818m5.978-597.818v597.818m5.978-597.818v597.818m5.979-597.818v597.818m5.977-597.818v597.818m5.979-597.818v597.818m5.978-597.818v597.818m5.978-597.818v597.818m5.978-597.818v597.818m11.957-597.818v597.818m5.978-597.818v597.818m5.978-597.818v597.818m5.978-597.818v597.818m5.978-597.818v597.818m5.978-597.818v597.818m5.979-597.818v597.818m5.978-597.818v597.818m5.978-597.818v597.818m11.956-597.818v597.818m5.979-597.818v597.818m5.978-597.818v597.818m5.978-597.818v597.818m5.978-597.818v597.818m5.978-597.818v597.818m5.978-597.818v597.818m5.979-597.818v597.818m5.978-597.818v597.818m11.956-597.818v597.818m5.978-597.818v597.818m5.979-597.818v597.818m5.978-597.818v597.818m5.978-597.818v597.818m5.978-597.818v597.818m5.978-597.818v597.818m5.978-597.818v597.818m5.979-597.818v597.818m11.956-597.818v597.818m5.978-597.818v597.818m5.978-597.818v597.818m5.979-597.818v597.818m5.978-597.818v597.818m5.978-597.818v597.818m5.978-597.818v597.818m5.978-597.818v597.818m5.978-597.818v597.818m11.957-597.818v597.818m5.978-597.818v597.818m5.978-597.818v597.818m5.978-597.818v597.818m5.979-597.818v597.818m5.978-597.818v597.818m5.978-597.818v597.818m5.978-597.818v597.818m5.978-597.818v597.818m11.956-597.818v597.818m5.979-597.818v597.818m5.978-597.818v597.818m5.978-597.818v597.818m5.978-597.818v597.818m5.979-597.818v597.818m5.977-597.818v597.818m5.979-597.818v597.818m5.978-597.818v597.818M1845.7 753.42v597.818m5.978-597.818v597.818m5.978-597.818v597.818m5.979-597.818v597.818m5.978-597.818v597.818m5.978-597.818v597.818m5.979-597.818v597.818m5.977-597.818v597.818m5.978-597.818v597.818M1301.686 759.399h597.818m-597.818 5.978h597.818m-597.818 5.978h597.818m-597.818 5.978h597.818m-597.818 5.979h597.818m-597.818 5.978h597.818m-597.818 5.978h597.818m-597.818 5.978h597.818m-597.818 5.978h597.818m-597.818 11.956h597.818m-597.818 5.979h597.818m-597.818 5.978h597.818m-597.818 5.978h597.818m-597.818 5.978h597.818m-597.818 5.978h597.818m-597.818 5.979h597.818m-597.818 5.978h597.818m-597.818 5.978h597.818m-597.818 11.956h597.818m-597.818 5.978h597.818m-597.818 5.979h597.818m-597.818 5.978h597.818m-597.818 5.978h597.818m-597.818 5.978h597.818m-597.818 5.978h597.818m-597.818 5.979h597.818m-597.818 5.978h597.818m-597.818 11.956h597.818m-597.818 5.978h597.818m-597.818 5.978h597.818m-597.818 5.979h597.818m-597.818 5.978h597.818m-597.818 5.978h597.818m-597.818 5.978h597.818m-597.818 5.978h597.818m-597.818 5.979h597.818m-597.818 11.956h597.818m-597.818 5.978h597.818m-597.818 5.978h597.818m-597.818 5.978h597.818m-597.818 5.978h597.818m-597.818 5.979h597.818m-597.818 5.978h597.818m-597.818 5.978h597.818m-597.818 5.978h597.818m-597.818 11.956h597.818m-597.818 5.979h597.818m-597.818 5.978h597.818m-597.818 5.978h597.818m-597.818 5.978h597.818m-597.818 5.978h597.818m-597.818 5.979h597.818m-597.818 5.978h597.818m-597.818 5.978h597.818m-597.818 11.957h597.818m-597.818 5.977h597.818m-597.818 5.979h597.818m-597.818 5.978h597.818m-597.818 5.978h597.818m-597.818 5.978h597.818m-597.818 5.978h597.818m-597.818 5.978h597.818m-597.818 5.979h597.818m-597.818 11.955h597.818m-597.818 5.98h597.818m-597.818 5.977h597.818m-597.818 5.978h597.818m-597.818 5.979h597.818m-597.818 5.978h597.818m-597.818 5.978h597.818m-597.818 5.978h597.818m-597.818 5.978h597.818m-597.818 11.957h597.818m-597.818 5.977h597.818m-597.818 5.979h597.818m-597.818 5.978h597.818m-597.818 5.978h597.818m-597.818 5.979h597.818m-597.818 5.978h597.818m-597.818 5.978h597.818m-597.818 5.978h597.818m-597.818 11.956h597.818m-597.818 5.979h597.818m-597.818 5.977h597.818m-597.818 5.979h597.818m-597.818 5.978h597.818m-597.818 5.978h597.818m-597.818 5.978h597.818m-597.818 5.979h597.818m-597.818 5.978h597.818" stroke-width=".5" stroke="#e6e6e6" fill="none"/><path fill="none" stroke="#e6e6e6" stroke-width="1.5" d="M1301.686 753.42h597.817v597.817h-597.817zM1959.285 753.42v597.818m59.782-597.818v597.818m59.782-597.818v597.818m59.781-597.818v597.818m59.782-597.818v597.818m59.782-597.818v597.818M1899.504 813.202h358.688m-358.688 59.782h358.688m-358.688 59.782h358.688m-358.688 59.782h358.688m-358.688 59.782h358.688m-358.688 59.781h358.688m-358.688 59.782h358.688m-358.688 59.781h358.688m-358.688 59.782h358.688"/><path d="M1905.482 753.42v597.818m5.978-597.818v597.818m5.978-597.818v597.818m5.978-597.818v597.818m5.979-597.818v597.818m5.978-597.818v597.818m5.977-597.818v597.818m5.98-597.818v597.818m5.977-597.818v597.818m11.957-597.818v597.818m5.978-597.818v597.818m5.978-597.818v597.818m5.978-597.818v597.818m5.978-597.818v597.818m5.978-597.818v597.818m5.979-597.818v597.818m5.977-597.818v597.818m5.979-597.818v597.818m11.956-597.818v597.818m5.978-597.818v597.818m5.979-597.818v597.818m5.978-597.818v597.818m5.978-597.818v597.818m5.978-597.818v597.818m5.978-597.818v597.818m5.979-597.818v597.818m5.977-597.818v597.818m11.957-597.818v597.818m5.978-597.818v597.818m5.978-597.818v597.818m5.979-597.818v597.818m5.978-597.818v597.818m5.978-597.818v597.818m5.978-597.818v597.818m5.978-597.818v597.818m5.978-597.818v597.818m11.957-597.818v597.818m5.978-597.818v597.818m5.978-597.818v597.818m5.978-597.818v597.818m5.978-597.818v597.818m5.979-597.818v597.818m5.978-597.818v597.818m5.978-597.818v597.818m5.978-597.818v597.818m11.956-597.818v597.818m5.979-597.818v597.818m5.978-597.818v597.818m5.978-597.818v597.818m5.978-597.818v597.818m5.978-597.818v597.818m5.979-597.818v597.818m5.978-597.818v597.818m5.978-597.818v597.818M1900.375 759.399h357.817m-358.688 5.978h358.688m-358.688 5.978h358.688m-358.688 5.978h358.688m-358.688 5.979h358.688m-358.688 5.978h358.688m-358.688 5.978h358.688m-358.688 5.978h358.688m-358.688 5.978h358.688m-358.688 11.956h358.688m-358.688 5.979h358.688m-358.688 5.978h358.688m-358.688 5.978h358.688m-358.688 5.978h358.688m-358.688 5.978h358.688m-358.688 5.979h358.688m-358.688 5.978h358.688m-358.688 5.978h358.688m-358.688 11.956h358.688m-358.688 5.978h358.688m-358.688 5.979h358.688m-358.688 5.978h358.688m-358.688 5.978h358.688m-358.688 5.978h358.688m-358.688 5.978h358.688m-358.688 5.979h358.688m-358.688 5.978h358.688m-358.688 11.956h358.688m-358.688 5.978h358.688m-358.688 5.978h358.688m-358.688 5.979h358.688m-358.688 5.978h358.688m-358.688 5.978h358.688m-358.688 5.978h358.688m-358.688 5.978h358.688m-358.688 5.979h358.688m-358.688 11.956h358.688m-358.688 5.978h358.688m-358.688 5.978h358.688m-358.688 5.978h358.688m-358.688 5.978h358.688m-358.688 5.979h358.688m-358.688 5.978h358.688m-358.688 5.978h358.688m-358.688 5.978h358.688m-358.688 11.956h358.688m-358.688 5.979h358.688m-358.688 5.978h358.688m-358.688 5.978h358.688m-358.688 5.978h358.688m-358.688 5.978h358.688m-358.688 5.979h358.688m-358.688 5.978h358.688m-358.688 5.978h358.688m-358.688 11.957h358.688m-358.688 5.977h358.688m-358.688 5.979h358.688m-358.688 5.978h358.688m-358.688 5.978h358.688m-358.688 5.978h358.688m-358.688 5.978h358.688m-358.688 5.978h358.688m-358.688 5.979h358.688m-358.688 11.955h358.688m-358.688 5.98h358.688m-358.688 5.977h358.688m-358.688 5.978h358.688m-358.688 5.979h358.688m-358.688 5.978h358.688m-358.688 5.978h358.688m-358.688 5.978h358.688m-358.688 5.978h358.688m-358.688 11.957h358.688m-358.688 5.977h358.688m-358.688 5.979h358.688m-358.688 5.978h358.688m-358.688 5.978h358.688m-358.688 5.979h358.688m-358.688 5.978h358.688m-358.688 5.978h358.688m-358.688 5.978h358.688m-358.688 11.956h358.688m-358.688 5.979h358.688m-358.688 5.977h358.688m-358.688 5.979h358.688m-358.688 5.978h358.688m-358.688 5.978h358.688m-358.688 5.978h358.688m-358.688 5.979h358.688m-358.688 5.978h358.688" stroke-width=".5" stroke="#e6e6e6" fill="none"/><path fill="none" stroke="#e6e6e6" stroke-width="1.5" d="M1899.504 753.42h358.815v597.817h-358.815zM763.65 754.683V1352.5m59.783-597.817V1352.5m59.781-597.817V1352.5m59.782-597.817V1352.5m59.782-597.817V1352.5m59.782-597.817V1352.5m59.781-597.817V1352.5m59.782-597.817V1352.5m59.782-597.817V1352.5M703.87 814.464h597.816M703.87 874.246h597.816M703.87 934.028h597.816M703.87 993.81h597.816m-597.816 59.781h597.816m-597.816 59.782h597.816m-597.816 59.782h597.816m-597.816 59.781h597.816m-597.816 59.782h597.816"/><path d="M709.847 754.683V1352.5m5.979-597.817V1352.5m5.978-597.817V1352.5m5.978-597.817V1352.5m5.978-597.817V1352.5m5.978-597.817V1352.5m5.978-597.817V1352.5m5.979-597.817V1352.5m5.978-597.817V1352.5m11.957-597.817V1352.5m5.977-597.817V1352.5m5.978-597.817V1352.5m5.979-597.817V1352.5m5.978-597.817V1352.5m5.978-597.817V1352.5m5.978-597.817V1352.5m5.978-597.817V1352.5m5.978-597.817V1352.5m11.956-597.817V1352.5m5.979-597.817V1352.5m5.978-597.817V1352.5m5.978-597.817V1352.5m5.978-597.817V1352.5m5.979-597.817V1352.5m5.978-597.817V1352.5m5.978-597.817V1352.5m5.978-597.817V1352.5m11.957-597.817V1352.5m5.977-597.817V1352.5m5.979-597.817V1352.5m5.978-597.817V1352.5m5.978-597.817V1352.5m5.978-597.817V1352.5m5.979-597.817V1352.5m5.978-597.817V1352.5m5.978-597.817V1352.5m11.956-597.817V1352.5m5.978-597.817V1352.5m5.978-597.817V1352.5m5.979-597.817V1352.5m5.978-597.817V1352.5m5.978-597.817V1352.5m5.978-597.817V1352.5m5.978-597.817V1352.5m5.979-597.817V1352.5m11.956-597.817V1352.5m5.978-597.817V1352.5m5.978-597.817V1352.5m5.978-597.817V1352.5m5.979-597.817V1352.5m5.978-597.817V1352.5m5.978-597.817V1352.5m5.978-597.817V1352.5m5.978-597.817V1352.5m11.957-597.817V1352.5m5.978-597.817V1352.5m5.978-597.817V1352.5m5.978-597.817V1352.5m5.978-597.817V1352.5m5.979-597.817V1352.5m5.978-597.817V1352.5m5.978-597.817V1352.5m5.978-597.817V1352.5m11.957-597.817V1352.5m5.978-597.817V1352.5m5.978-597.817V1352.5m5.978-597.817V1352.5m5.978-597.817V1352.5m5.978-597.817V1352.5m5.978-597.817V1352.5m5.979-597.817V1352.5m5.978-597.817V1352.5m11.956-597.817V1352.5m5.979-597.817V1352.5m5.977-597.817V1352.5m5.979-597.817V1352.5m5.978-597.817V1352.5m5.978-597.817V1352.5m5.978-597.817V1352.5m5.978-597.817V1352.5m5.979-597.817V1352.5m11.956-597.817V1352.5m5.978-597.817V1352.5m5.979-597.817V1352.5m5.977-597.817V1352.5m5.979-597.817V1352.5m5.978-597.817V1352.5m5.978-597.817V1352.5m5.978-597.817V1352.5m5.978-597.817V1352.5M703.87 760.66h597.816m-597.816 5.979h597.816m-597.816 5.978h597.816m-597.816 5.978h597.816m-597.816 5.978h597.816m-597.816 5.979h597.816M703.87 796.53h597.816m-597.816 5.978h597.816m-597.816 5.978h597.816M703.87 820.442h597.816M703.87 826.42h597.816m-597.816 5.979h597.816m-597.816 5.978h597.816m-597.816 5.978h597.816m-597.816 5.978h597.816m-597.816 5.978h597.816M703.87 862.29h597.816m-597.816 5.978h597.816M703.87 880.224h597.816m-597.816 5.978h597.816M703.87 892.18h597.816m-597.816 5.979h597.816m-597.816 5.978h597.816m-597.816 5.978h597.816m-597.816 5.978h597.816m-597.816 5.978h597.816M703.87 928.05h597.816M703.87 940.006h597.816m-597.816 5.978h597.816m-597.816 5.978h597.816M703.87 957.94h597.816m-597.816 5.979h597.816m-597.816 5.978h597.816m-597.816 5.978h597.816m-597.816 5.978h597.816m-597.816 5.978h597.816M703.87 999.788h597.816m-597.816 5.978h597.816m-597.816 5.978h597.816m-597.816 5.978h597.816M703.87 1023.7h597.816m-597.816 5.979h597.816m-597.816 5.978h597.816m-597.816 5.978h597.816m-597.816 5.978h597.816M703.87 1059.57h597.816m-597.816 5.978h597.816m-597.816 5.978h597.816m-597.816 5.978h597.816m-597.816 5.978h597.816m-597.816 5.978h597.816m-597.816 5.978h597.816m-597.816 5.979h597.816m-597.816 5.978h597.816m-597.816 11.956h597.816m-597.816 5.979h597.816m-597.816 5.977h597.816m-597.816 5.979h597.816m-597.816 5.978h597.816m-597.816 5.978h597.816m-597.816 5.978h597.816m-597.816 5.978h597.816m-597.816 5.978h597.816m-597.816 11.957h597.816m-597.816 5.978h597.816m-597.816 5.979h597.816m-597.816 5.977h597.816m-597.816 5.979h597.816m-597.816 5.978h597.816m-597.816 5.978h597.816m-597.816 5.978h597.816m-597.816 5.978h597.816m-597.816 11.957h597.816m-597.816 5.978h597.816m-597.816 5.977h597.816m-597.816 5.98h597.816m-597.816 5.977h597.816m-597.816 5.978h597.816m-597.816 5.979h597.816m-597.816 5.978h597.816m-597.816 5.978h597.816m-597.816 11.956h597.816m-597.816 5.978h597.816m-597.816 5.979h597.816m-597.816 5.977h597.816m-597.816 5.979h597.816m-597.816 5.978h597.816m-597.816 5.978h597.816m-597.816 5.978h597.816m-597.816 5.979h597.816" stroke-width=".5" stroke="#e6e6e6" fill="none"/><path fill="none" stroke="#e6e6e6" stroke-width="1.5" d="M703.869 754.682h597.817V1352.5H703.869z"/><path d="M683.321 806.698c0-.636 0-.675-.596-.675-1.589 1.628-3.813 1.628-4.608 1.628v.795c.516 0 1.986 0 3.297-.675v13.149c0 .913-.08 1.191-2.344 1.191h-.794v.795c.874-.08 3.059-.08 4.092-.08.993 0 3.217 0 4.091.08v-.795h-.794c-2.304 0-2.344-.278-2.344-1.191zm0 0" fill="#4d4d4d"/><path d="M1660.662 1041.635v23.913m478.36-23.842v23.913" fill="none" stroke="#000" stroke-width="2" stroke-linecap="round"/><path d="M698.815 346.045v-683.447M703.833.033H2313.99" fill="none" stroke="#000" stroke-width="3" marker-end="url(#a)" transform="translate(0 1052.362)"/><path d="M716.029 814.464h-24.32m24.32 478.254h-24.32" fill="none" stroke="#000" stroke-width="1.558" stroke-linecap="round"/><path d="M672.836 1295.32c.437 0 .914 0 .914-.516 0-.477-.477-.477-.914-.477h-13.705c-.437 0-.874 0-.874.477 0 .516.437.516.874.516zm10.485-10.368c0-.636 0-.675-.596-.675-1.589 1.628-3.813 1.628-4.608 1.628v.795c.516 0 1.986 0 3.297-.675v13.149c0 .913-.08 1.191-2.344 1.191h-.794v.795c.874-.08 3.059-.08 4.092-.08.993 0 3.217 0 4.091.08v-.795h-.794c-2.304 0-2.344-.278-2.344-1.191zm0 0M683.321 806.698c0-.636 0-.675-.596-.675-1.589 1.628-3.813 1.628-4.608 1.628v.795c.516 0 1.986 0 3.297-.675v13.149c0 .913-.08 1.191-2.344 1.191h-.794v.795c.874-.08 3.059-.08 4.092-.08.993 0 3.217 0 4.091.08v-.795h-.794c-2.304 0-2.344-.278-2.344-1.191zm0 0" fill="#4d4d4d"/><use y="134.765" x="223.432" xlink:href="#b" width="2979.921" height="2104.724" transform="translate(106.764 719.127) scale(2.5424)" fill="#4d4d4d" stroke="#4d4d4d" stroke-width="1.18"/><path d="M698.815 1053.597c86.67-85.573 173.339-169.247 260.009-209.37 86.67-40.125 173.339-34.756 260.008 13.228 86.67 47.984 173.34 136.688 260.009 221.763 86.67 85.076 173.339 162.806 260.008 194.523 86.67 31.717 173.34 15.832 260.01-39.531 69.28-44.256 138.563-112.314 207.844-180.534" fill="none" stroke="navy" stroke-width="3" stroke-linecap="round"/><path d="M943.067 1041.635v23.913m239.198-23.913v23.913m238.985-23.842v23.913m478.61-23.984v23.913" fill="none" stroke="#000" stroke-width="2" stroke-linecap="round"/><use y="134.765" x="223.432" xlink:href="#c" width="2979.921" height="2104.724" transform="translate(609.767 748.724) scale(2.53412)" fill="#4d4d4d" stroke="#4d4d4d"/><use height="2104.724" width="2979.921" xlink:href="#d" x="223.432" y="134.765" transform="translate(370.414 748.724) scale(2.53412)" fill="#4d4d4d" stroke="#4d4d4d"/><g transform="translate(849.616 748.447) scale(2.53412)" fill="#4d4d4d" stroke="#4d4d4d"><use height="2104.724" width="2979.921" y="134.765" x="223.432" xlink:href="#e"/><use xlink:href="#e" x="223.432" y="134.765" width="2979.921" height="2104.724"/></g><use height="2104.724" width="2979.921" xlink:href="#f" x="223.432" y="134.765" transform="translate(1088.163 748.863) scale(2.53412)" fill="#4d4d4d" stroke="#4d4d4d"/><use y="134.765" x="223.432" xlink:href="#g" width="2979.921" height="2104.724" transform="translate(1325.663 748.447) scale(2.53412)" fill="#4d4d4d" stroke="#4d4d4d"/><use xlink:href="#h" x="223.432" y="134.765" width="2979.921" height="2104.724" transform="translate(1566.504 748.447) scale(2.53412)" fill="#4d4d4d" stroke="#4d4d4d"/><path d="M1454.593 1041.706v23.913" fill="none" stroke="#000" stroke-width="2" stroke-linecap="round"/><g stroke="#4d4d4d" transform="translate(456.876 748.785) scale(2.53412)"><use y="134.765" x="392.269" xlink:href="#i" width="2979.921" height="2104.724"/><use y="146.72" x="376.449" xlink:href="#j" width="2979.921" height="2104.724"/><use y="146.72" x="380.323" xlink:href="#k" width="2979.921" height="2104.724"/><use y="146.72" x="390.842" xlink:href="#l" width="2979.921" height="2104.724"/><use y="146.72" x="395.823" xlink:href="#m" width="2979.921" height="2104.724"/><use y="146.72" x="400.805" xlink:href="#n" width="2979.921" height="2104.724"/><use y="143.105" x="405.783" xlink:href="#o" width="2979.921" height="2104.724"/><use y="146.72" x="410.252" xlink:href="#p" width="2979.921" height="2104.724"/></g><path d="M2206.703 1040.373v23.913" fill="none" stroke="#000" stroke-width="2" stroke-linecap="round"/><g fill="#4d4d4d" stroke="#4d4d4d" transform="translate(1203.809 748.785) scale(2.53412)"><use y="134.765" x="387.842" xlink:href="#q" width="2979.921" height="2104.724"/><use y="134.765" x="393.376" xlink:href="#r" width="2979.921" height="2104.724"/><use y="134.765" x="396.697" xlink:href="#s" width="2979.921" height="2104.724"/><use y="146.72" x="376.449" xlink:href="#t" width="2979.921" height="2104.724"/><use y="146.72" x="380.323" xlink:href="#u" width="2979.921" height="2104.724"/><use y="146.72" x="390.842" xlink:href="#v" width="2979.921" height="2104.724"/><use y="146.72" x="395.823" xlink:href="#w" width="2979.921" height="2104.724"/><use y="146.72" x="400.805" xlink:href="#x" width="2979.921" height="2104.724"/><use y="143.105" x="405.783" xlink:href="#y" width="2979.921" height="2104.724"/><use y="146.72" x="410.252" xlink:href="#z" width="2979.921" height="2104.724"/></g><use height="2104.724" width="2979.921" xlink:href="#A" x="223.432" y="134.765" transform="matrix(3.48751 0 0 3.53978 1519.661 612.528)" fill="#4d4d4d" stroke="#4d4d4d" stroke-width=".721"/><use y="134.765" x="223.432" xlink:href="#B" width="2979.921" height="2104.724" transform="matrix(3.48751 0 0 3.53978 -109.819 243.376)" fill="#4d4d4d" stroke="#4d4d4d" stroke-width=".721"/><g fill="navy" stroke="navy" stroke-width=".721" transform="matrix(3.48751 0 0 3.53978 1244.998 770.878)"><use height="2104.724" width="2979.921" xlink:href="#C" x="223.432" y="134.765"/><use height="2104.724" width="2979.921" xlink:href="#D" x="231.441" y="134.765"/><use height="2104.724" width="2979.921" xlink:href="#E" x="241.96" y="134.765"/><use height="2104.724" width="2979.921" xlink:href="#F" x="245.889" y="134.765"/><use height="2104.724" width="2979.921" xlink:href="#G" x="248.656" y="134.765"/><use height="2104.724" width="2979.921" xlink:href="#H" x="255.85" y="134.765"/></g><g fill="green" stroke="green" stroke-width=".721" transform="matrix(3.48751 0 0 3.53978 1117.719 374.898)"><use y="134.765" x="223.432" xlink:href="#I" width="2979.921" height="2104.724"/><use y="134.765" x="231.441" xlink:href="#J" width="2979.921" height="2104.724"/><use y="134.765" x="241.96" xlink:href="#K" width="2979.921" height="2104.724"/><use y="134.765" x="246.387" xlink:href="#L" width="2979.921" height="2104.724"/><use y="134.765" x="251.368" xlink:href="#M" width="2979.921" height="2104.724"/><use y="134.765" x="256.957" xlink:href="#N" width="2979.921" height="2104.724"/></g><path d="M703.87 814.464c82.74-.893 165.481 44.482 248.222 115.453 85.966 73.736 171.931 172.019 257.896 245.803 85.966 73.784 171.931 119.75 257.896 115.136 85.965-4.614 171.931-59.835 257.896-137.941 85.966-78.107 171.93-175.805 257.896-244.362 73.572-58.674 147.143-93.723 220.714-93.91" fill="none" stroke="green" stroke-width="3" stroke-linecap="round"/><g ns0:text="\\centering\n$\\frac{1}{2} \\! \\cdot \\! \\pi$ \\\\\n$(=90 ^{\\rm{o}})$" ns0:preamble="/home/waldgeist/data/sphinx/test.tex" transform="translate(77.335 748.3) scale(2.53784)"><defs><symbol overflow="visible" id="O"><path d="M2.328-4.438c0-.187 0-.187-.203-.187-.453.438-1.078.438-1.36.438v.25c.157 0 .626 0 1-.188v3.547c0 .234 0 .328-.687.328H.812V0c.125 0 .985-.031 1.235-.031.219 0 1.094.031 1.25.031v-.25H3.03c-.703 0-.703-.094-.703-.328zm0 0"/></symbol><symbol overflow="visible" id="P"><path d="M3.516-1.266H3.28c-.015.157-.094.563-.187.625-.047.047-.578.047-.688.047h-1.28c.734-.64.984-.844 1.39-1.172.516-.406 1-.843 1-1.5 0-.843-.734-1.359-1.624-1.359-.86 0-1.454.61-1.454 1.25 0 .344.297.39.376.39a.365.365 0 0 0 .359-.374c0-.125-.047-.375-.406-.375.218-.485.687-.641 1.015-.641.703 0 1.063.547 1.063 1.11 0 .609-.438 1.078-.656 1.328L.516-.266C.437-.203.437-.187.437 0h2.876zm0 0"/></symbol><symbol overflow="visible" id="W"><path d="M3.688-1.484c0-.875-.75-1.625-1.704-1.625-.968 0-1.718.75-1.718 1.625 0 .859.765 1.546 1.718 1.546.938 0 1.704-.687 1.704-1.546zM1.984-.156c-.265 0-.64-.078-.875-.422-.187-.281-.203-.64-.203-.969 0-.297 0-.719.25-1.016.172-.203.469-.343.828-.343.407 0 .704.187.86.406.187.266.203.625.203.953 0 .328-.016.703-.219.984-.187.266-.5.407-.844.407zm0 0"/></symbol><symbol overflow="visible" id="Q"><path d="M1.906-2.5a.524.524 0 1 0-.516.531.524.524 0 0 0 .516-.531zm0 0"/></symbol><symbol overflow="visible" id="R"><path d="M2.64-3.719h1.126c-.329 1.469-.422 1.906-.422 2.578 0 .141 0 .407.078.75.11.438.219.5.36.5.202 0 .421-.171.421-.375 0-.062 0-.078-.062-.218-.297-.72-.297-1.375-.297-1.657 0-.515.078-1.062.187-1.578h1.125c.14 0 .5 0 .5-.344 0-.234-.218-.234-.406-.234H1.906c-.218 0-.593 0-1.031.469-.344.39-.61.844-.61.89 0 .016 0 .11.126.11.078 0 .093-.047.156-.125.484-.766 1.062-.766 1.265-.766h.563c-.313 1.203-.844 2.406-1.266 3.313-.078.156-.078.172-.078.25 0 .187.157.265.282.265.296 0 .375-.28.5-.64.14-.469.14-.485.265-.985zm0 0"/></symbol><symbol overflow="visible" id="S"><path d="M3.297 2.39c0-.03 0-.046-.172-.218C1.891.922 1.562-.968 1.562-2.5c0-1.734.375-3.469 1.61-4.703.125-.125.125-.14.125-.172 0-.078-.031-.11-.094-.11-.11 0-1 .688-1.594 1.954C1.11-4.438.984-3.328.984-2.5c0 .781.11 1.984.657 3.125C2.25 1.844 3.094 2.5 3.203 2.5c.063 0 .094-.031.094-.11zm0 0"/></symbol><symbol overflow="visible" id="T"><path d="M6.844-3.266c.156 0 .343 0 .343-.187 0-.203-.187-.203-.328-.203H.891c-.141 0-.329 0-.329.203 0 .187.188.187.329.187zm.015 1.938c.141 0 .329 0 .329-.203 0-.188-.188-.188-.344-.188H.89c-.141 0-.329 0-.329.188 0 .203.188.203.329.203zm0 0"/></symbol><symbol overflow="visible" id="U"><path d="M3.656-3.172v.328c0 2.328-1.031 2.781-1.61 2.781-.171 0-.718-.015-.983-.359.437 0 .515-.281.515-.453 0-.313-.234-.453-.453-.453-.156 0-.453.078-.453.469 0 .671.531 1.078 1.375 1.078 1.297 0 2.515-1.36 2.515-3.5 0-2.688-1.156-3.36-2.046-3.36-.547 0-1.032.188-1.454.625-.421.454-.64.875-.64 1.625 0 1.235.875 2.22 1.984 2.22.61 0 1.016-.423 1.25-1zm-1.234.766c-.156 0-.625 0-.922-.625-.188-.375-.188-.86-.188-1.36 0-.53 0-1 .22-1.375.265-.5.64-.625.984-.625.468 0 .796.344.968.782.11.328.157.953.157 1.406 0 .828-.344 1.797-1.22 1.797zm0 0"/></symbol><symbol overflow="visible" id="V"><path d="M4.578-3.188c0-.796-.047-1.593-.39-2.328C3.733-6.484 2.905-6.64 2.5-6.64c-.61 0-1.328.266-1.75 1.188-.313.687-.36 1.469-.36 2.266 0 .75.032 1.64.454 2.406a1.83 1.83 0 0 0 1.64 1c.532 0 1.297-.203 1.735-1.157.312-.687.36-1.468.36-2.25zM2.484 0c-.39 0-.984-.25-1.156-1.203-.11-.594-.11-1.516-.11-2.11 0-.64 0-1.296.079-1.828.187-1.187.937-1.28 1.187-1.28.329 0 .985.187 1.172 1.171.11.563.11 1.313.11 1.938 0 .75 0 1.421-.11 2.062C3.5-.297 2.937 0 2.484 0zm0 0"/></symbol><symbol overflow="visible" id="X"><path d="M2.875-2.5c0-.766-.11-1.969-.656-3.11C1.625-6.827.766-7.483.672-7.483a.107.107 0 0 0-.11.109c0 .031 0 .047.188.234.984.985 1.547 2.563 1.547 4.641C2.297-.78 1.937.97.703 2.22c-.14.125-.14.14-.14.172 0 .062.046.109.109.109.094 0 1-.688 1.578-1.953.516-1.094.625-2.203.625-3.047zm0 0"/></symbol></defs><use height="2104.724" width="2979.921" xlink:href="#O" x="388.347" y="130.842"/><path d="M388.5 132.5h4" fill="none" stroke="#000" stroke-miterlimit="10"/><use height="2104.724" width="2979.921" xlink:href="#P" x="388.347" y="138.2"/><use height="2104.724" width="2979.921" xlink:href="#Q" x="394.067" y="134.765"/><use height="2104.724" width="2979.921" xlink:href="#R" x="397.388" y="134.765"/><use height="2104.724" width="2979.921" xlink:href="#S" x="378.939" y="146.72"/><use height="2104.724" width="2979.921" xlink:href="#T" x="382.813" y="146.72"/><use height="2104.724" width="2979.921" xlink:href="#U" x="393.332" y="146.72"/><use height="2104.724" width="2979.921" xlink:href="#V" x="398.313" y="146.72"/><use height="2104.724" width="2979.921" xlink:href="#W" x="403.292" y="143.105"/><use height="2104.724" width="2979.921" xlink:href="#X" x="407.762" y="146.72"/></g><path d="M1078.538 1041.635v23.913m752.11-23.896v23.913" fill="none" stroke="#000" stroke-width="2" stroke-linecap="round"/><g transform="translate(820.969 748.3) scale(2.53784)" ns0:preamble="/home/waldgeist/data/sphinx/test.tex" ns0:text="\\centering\n$\\frac{3}{2} \\! \\cdot \\! \\pi$ \\\\\n$(=270 ^{\\rm{o}})$"><defs><symbol id="Y" overflow="visible"><path d="M1.906-2.328c.547 0 .938.375.938 1.125 0 .86-.516 1.125-.906 1.125-.282 0-.907-.078-1.188-.5.328 0 .406-.235.406-.39 0-.22-.172-.376-.39-.376a.38.38 0 0 0-.391.407C.375-.281 1.094.14 1.938.14c.968 0 1.64-.657 1.64-1.344 0-.547-.437-1.094-1.203-1.25.719-.266.984-.781.984-1.219 0-.547-.625-.953-1.406-.953-.766 0-1.36.375-1.36.938 0 .234.157.359.36.359.219 0 .36-.156.36-.344 0-.203-.141-.36-.36-.375.25-.297.719-.375.985-.375.312 0 .75.156.75.75 0 .297-.094.625-.282.828-.219.266-.422.281-.765.313-.172.015-.188.015-.22.015-.015 0-.077.016-.077.094 0 .094.062.094.187.094zm0 0"/></symbol><symbol id="Z" overflow="visible"><path d="M3.516-1.266H3.28c-.015.157-.094.563-.187.625-.047.047-.578.047-.688.047h-1.28c.734-.64.984-.844 1.39-1.172.516-.406 1-.843 1-1.5 0-.843-.734-1.359-1.624-1.359-.86 0-1.454.61-1.454 1.25 0 .344.297.39.376.39a.365.365 0 0 0 .359-.374c0-.125-.047-.375-.406-.375.218-.485.687-.641 1.015-.641.703 0 1.063.547 1.063 1.11 0 .609-.438 1.078-.656 1.328L.516-.266C.437-.203.437-.187.437 0h2.876zm0 0"/></symbol><symbol id="ah" overflow="visible"><path d="M3.688-1.484c0-.875-.75-1.625-1.704-1.625-.968 0-1.718.75-1.718 1.625 0 .859.765 1.546 1.718 1.546.938 0 1.704-.687 1.704-1.546zM1.984-.156c-.265 0-.64-.078-.875-.422-.187-.281-.203-.64-.203-.969 0-.297 0-.719.25-1.016.172-.203.469-.343.828-.343.407 0 .704.187.86.406.187.266.203.625.203.953 0 .328-.016.703-.219.984-.187.266-.5.407-.844.407zm0 0"/></symbol><symbol id="aa" overflow="visible"><path d="M1.906-2.5a.524.524 0 1 0-.516.531.524.524 0 0 0 .516-.531zm0 0"/></symbol><symbol id="ab" overflow="visible"><path d="M2.64-3.719h1.126c-.329 1.469-.422 1.906-.422 2.578 0 .141 0 .407.078.75.11.438.219.5.36.5.202 0 .421-.171.421-.375 0-.062 0-.078-.062-.218-.297-.72-.297-1.375-.297-1.657 0-.515.078-1.062.187-1.578h1.125c.14 0 .5 0 .5-.344 0-.234-.218-.234-.406-.234H1.906c-.218 0-.593 0-1.031.469-.344.39-.61.844-.61.89 0 .016 0 .11.126.11.078 0 .093-.047.156-.125.484-.766 1.062-.766 1.265-.766h.563c-.313 1.203-.844 2.406-1.266 3.313-.078.156-.078.172-.078.25 0 .187.157.265.282.265.296 0 .375-.28.5-.64.14-.469.14-.485.265-.985zm0 0"/></symbol><symbol id="ac" overflow="visible"><path d="M3.297 2.39c0-.03 0-.046-.172-.218C1.891.922 1.562-.968 1.562-2.5c0-1.734.375-3.469 1.61-4.703.125-.125.125-.14.125-.172 0-.078-.031-.11-.094-.11-.11 0-1 .688-1.594 1.954C1.11-4.438.984-3.328.984-2.5c0 .781.11 1.984.657 3.125C2.25 1.844 3.094 2.5 3.203 2.5c.063 0 .094-.031.094-.11zm0 0"/></symbol><symbol id="ad" overflow="visible"><path d="M6.844-3.266c.156 0 .343 0 .343-.187 0-.203-.187-.203-.328-.203H.891c-.141 0-.329 0-.329.203 0 .187.188.187.329.187zm.015 1.938c.141 0 .329 0 .329-.203 0-.188-.188-.188-.344-.188H.89c-.141 0-.329 0-.329.188 0 .203.188.203.329.203zm0 0"/></symbol><symbol id="ae" overflow="visible"><path d="M1.266-.766l1.062-1.03c1.547-1.376 2.14-1.907 2.14-2.907 0-1.14-.89-1.938-2.109-1.938A1.843 1.843 0 0 0 .5-4.828c0 .547.5.547.531.547.172 0 .516-.11.516-.532a.513.513 0 0 0-.531-.515c-.079 0-.094 0-.125.016.218-.657.765-1.016 1.343-1.016.907 0 1.329.812 1.329 1.625 0 .797-.485 1.578-1.047 2.203L.609-.375C.5-.265.5-.235.5 0h3.703l.266-1.734h-.235C4.172-1.438 4.11-1 4-.844c-.063.078-.719.078-.938.078zm0 0"/></symbol><symbol id="af" overflow="visible"><path d="M4.75-6.078c.078-.11.078-.125.078-.344H2.406c-1.203 0-1.234-.125-1.265-.312H.89L.562-4.688h.25c.032-.156.11-.78.25-.906.063-.062.844-.062.97-.062h2.062c-.11.156-.89 1.25-1.11 1.578C2.078-2.734 1.75-1.344 1.75-.328c0 .094 0 .547.469.547.453 0 .453-.453.453-.547v-.516c0-.547.031-1.094.11-1.625.046-.234.171-1.094.624-1.703zm0 0"/></symbol><symbol id="ag" overflow="visible"><path d="M4.578-3.188c0-.796-.047-1.593-.39-2.328C3.733-6.484 2.905-6.64 2.5-6.64c-.61 0-1.328.266-1.75 1.188-.313.687-.36 1.469-.36 2.266 0 .75.032 1.64.454 2.406a1.83 1.83 0 0 0 1.64 1c.532 0 1.297-.203 1.735-1.157.312-.687.36-1.468.36-2.25zM2.484 0c-.39 0-.984-.25-1.156-1.203-.11-.594-.11-1.516-.11-2.11 0-.64 0-1.296.079-1.828.187-1.187.937-1.28 1.187-1.28.329 0 .985.187 1.172 1.171.11.563.11 1.313.11 1.938 0 .75 0 1.421-.11 2.062C3.5-.297 2.937 0 2.484 0zm0 0"/></symbol><symbol id="ai" overflow="visible"><path d="M2.875-2.5c0-.766-.11-1.969-.656-3.11C1.625-6.827.766-7.483.672-7.483a.107.107 0 0 0-.11.109c0 .031 0 .047.188.234.984.985 1.547 2.563 1.547 4.641C2.297-.78 1.937.97.703 2.22c-.14.125-.14.14-.14.172 0 .062.046.109.109.109.094 0 1-.688 1.578-1.953.516-1.094.625-2.203.625-3.047zm0 0"/></symbol></defs><use y="130.842" x="388.347" xlink:href="#Y" width="2979.921" height="2104.724"/><path d="M388.5 132.5h4" fill="none" stroke="#000" stroke-miterlimit="10"/><use y="138.2" x="388.347" xlink:href="#Z" width="2979.921" height="2104.724"/><use y="134.765" x="394.067" xlink:href="#aa" width="2979.921" height="2104.724"/><use y="134.765" x="397.388" xlink:href="#ab" width="2979.921" height="2104.724"/><use y="146.72" x="376.449" xlink:href="#ac" width="2979.921" height="2104.724"/><use y="146.72" x="380.323" xlink:href="#ad" width="2979.921" height="2104.724"/><use y="146.72" x="390.842" xlink:href="#ae" width="2979.921" height="2104.724"/><use y="146.72" x="395.823" xlink:href="#af" width="2979.921" height="2104.724"/><use y="146.72" x="400.805" xlink:href="#ag" width="2979.921" height="2104.724"/><use y="143.105" x="405.783" xlink:href="#ah" width="2979.921" height="2104.724"/><use y="146.72" x="410.252" xlink:href="#ai" width="2979.921" height="2104.724"/></g></svg>