<svg xmlns:ns0="http://www.iki.fi/pav/software/textext/" xmlns="http://www.w3.org/2000/svg" xmlns:xlink="http://www.w3.org/1999/xlink" width="210mm" height="297mm"><title>Modell eines Steigungsdreiecks</title><defs><marker orient="auto" id="e" overflow="visible"><path d="M-2.308 0l3.46-2v4l-3.46-2z" fill-rule="evenodd" stroke="#000" stroke-width=".4pt"/></marker><marker orient="auto" id="f" overflow="visible"><path d="M2.308 0l-3.46 2v-4l3.46 2z" fill-rule="evenodd" stroke="#000" stroke-width=".4pt"/></marker></defs><rect width="677.694" height="757.423" x="33.2" y="147.47" rx=".711" ry=".711" fill="#fff" stroke="#fff" stroke-width="1.5" stroke-linecap="square" stroke-linejoin="round" stroke-dasharray="3,1"/><use xlink:href="#a" transform="translate(-322.574)" width="744.094" height="1052.362" stroke-width="1.5"/><path d="M413.76 772.71v89.641" id="a" fill="none" stroke="#b3b3b3" stroke-width="1.5" stroke-dasharray="2.99999998,.99999997"/><use height="1052.362" width="744.094" transform="matrix(2.32007 0 0 2.31944 -235.907 19.095)" xlink:href="#b"/><use height="1052.362" width="744.094" transform="matrix(2.32007 0 0 2.31944 -235.57 5.723)" xlink:href="#c"/><rect width="4.041" height="244.256" x="279.812" y="81.606" ry=".439" rx=".439" fill="#b3b3b3" stroke="#333" stroke-width=".431" transform="matrix(2.32007 0 0 2.31944 -230.297 .481)"/><g transform="matrix(1.66094 -1.61944 1.61988 1.6605 -668.546 444.842)" stroke="#28170b" stroke-linecap="round"><rect id="b" width="247.481" height="7.076" x="144.676" y="315.064" transform="rotate(.702)" rx=".711" ry=".711" fill="#784421" stroke-width=".647"/><path id="c" fill="#c8ab37" stroke-width=".216" d="M140.589 323.101h57.309v1.76h-57.309z"/></g><path d="M413.614 735.383v37.328h84.393v-31.747h-62.86v-5.581h-21.533z" fill="#666" stroke="#333" stroke-linejoin="round"/><path transform="matrix(.63694 0 0 .63677 -1.534 548.721)" d="M157.5 323.255a7.321 7.321 0 1 1-14.643 0 7.321 7.321 0 1 1 14.643 0z" fill="#c8ab37" stroke="#28170b" stroke-width=".785" stroke-linecap="round"/><g stroke="#333" stroke-linecap="round" stroke-linejoin="round"><path d="M417.395 444.449h32.912a1.73 1.73 0 0 1 1.735 1.734v.508c0 .961-.774 1.748-1.735 1.748H413.63c1.177-1.36 2.996-3.233 3.765-3.99z" fill="#666"/><path d="M285.315 191.612a.857.857 0 1 1-1.715 0 .857.857 0 0 1 1.715 0z" transform="matrix(4.51395 0 0 4.51273 -860.452 -418.257)" fill="#4d4d4d" stroke-width=".222"/></g><path d="M285.315 191.612a.857.857 0 1 1-1.715 0 .857.857 0 1 1 1.715 0z" transform="matrix(4.51395 0 0 4.51273 -860.16 -120.804)" fill="#4d4d4d" stroke="#333" stroke-width=".222" stroke-linecap="round" stroke-linejoin="round"/><path transform="matrix(4.67451 0 0 4.67325 -905.834 -129.902)" d="M285.315 191.612a.857.857 0 1 1-1.715 0 .857.857 0 1 1 1.715 0z" id="d" fill="#4d4d4d" stroke="#333" stroke-width=".214" stroke-linecap="round" stroke-linejoin="round"/><use height="1052.362" width="744.094" transform="translate(64.424)" xlink:href="#d" fill="#ececec" stroke="#f2f2f2"/><path d="M450.357 448.359h137.164" fill="none" stroke="#b3b3b3" stroke-width="1.5" stroke-dasharray="3,.99999999"/><path d="M543.896 754.81V452.42M98.547 815.962h307.864" fill="none" stroke="#000" stroke-width="1.5" stroke-linecap="square" marker-start="url(#e)" marker-end="url(#f)"/><g transform="translate(-352.545 59.05) scale(4.12839)" ns0:text="$h$" ns0:preamble="/home/waldgeist/data/sphinx/test.tex"><defs><symbol overflow="visible" id="g"><path d="M2.86-6.813s0-.109-.126-.109c-.234 0-.953.078-1.218.11-.079 0-.188.015-.188.187 0 .125.094.125.234.125.485 0 .5.063.5.172l-.03.203L.593-.391C.547-.25.547-.234.547-.17c0 .234.203.28.297.28a.407.407 0 0 0 .36-.265l.187-.75.218-.89c.063-.235.125-.454.172-.673.016-.062.11-.39.11-.453.03-.094.343-.64.687-.922.219-.156.516-.344.953-.344.422 0 .531.344.531.704 0 .53-.375 1.625-.609 2.234-.078.219-.14.344-.14.547 0 .469.359.812.828.812.937 0 1.296-1.453 1.296-1.53 0-.11-.078-.11-.109-.11-.11 0-.11.031-.156.187-.14.532-.469 1.235-1.016 1.235-.172 0-.234-.094-.234-.329 0-.25.078-.484.172-.703.156-.437.61-1.625.61-2.203 0-.64-.391-1.062-1.141-1.062-.626 0-1.11.312-1.485.765zm0 0"/></symbol></defs><use height="1052.362" width="744.094" xlink:href="#g" x="223.432" y="134.765"/></g><g transform="translate(-676.16 305.357) scale(4.12839)" ns0:preamble="/home/waldgeist/data/sphinx/test.tex" ns0:text="$l$"><defs><symbol id="h" overflow="visible"><path d="M2.578-6.813s0-.109-.14-.109c-.22 0-.954.078-1.22.11-.077 0-.187.015-.187.203 0 .109.11.109.25.109.485 0 .5.094.5.172l-.031.203L.484-1.141a.973.973 0 0 0-.046.329.89.89 0 0 0 .906.921c.328 0 .578-.203.75-.562.172-.375.297-.953.297-.969 0-.11-.094-.11-.125-.11-.094 0-.11.048-.125.188-.172.64-.36 1.235-.766 1.235-.297 0-.297-.313-.297-.454 0-.25.016-.296.063-.484zm0 0"/></symbol></defs><use y="134.765" x="223.432" xlink:href="#h" width="744.094" height="1052.362"/></g></svg>