<svg xmlns:ns0="http://www.iki.fi/pav/software/textext/" xmlns="http://www.w3.org/2000/svg" xmlns:xlink="http://www.w3.org/1999/xlink" width="744.094" height="1052.362"><title>Arcus-Cosinus</title><defs><marker id="a" orient="auto" overflow="visible"><path d="M2.308 0l-3.46 2v-4l3.46 2z" fill-rule="evenodd" stroke="#000" stroke-width=".4pt"/></marker></defs><g transform="translate(-575.239 128.115) scale(4.62289)" fill="green"><use height="1052.362" width="744.094" xlink:href="#textext-082fa4b4-3" x="231.736" y="134.765"/><use height="1052.362" width="744.094" xlink:href="#textext-082fa4b4-3" x="231.736" y="134.765"/><g ns0:text="$\\Delta \\vec{r} = \\vec{r}_{\\rm{2}} - \\vec{r}_{\\rm{1}} $" ns0:preamble="/home/waldgeist/data/sphinx/test.tex"><use height="1052.362" width="744.094" xlink:href="#textext-082fa4b4-0" x="223.432" y="134.765"/><use height="1052.362" width="744.094" xlink:href="#textext-082fa4b4-2" x="231.417" y="134.765"/><use height="1052.362" width="744.094" xlink:href="#textext-082fa4b4-3" x="231.736" y="134.765"/><use height="1052.362" width="744.094" xlink:href="#textext-082fa4b4-1" x="239.273" y="134.765"/><use height="1052.362" width="744.094" xlink:href="#textext-082fa4b4-2" x="249.472" y="134.765"/><use height="1052.362" width="744.094" xlink:href="#textext-082fa4b4-3" x="249.791" y="134.765"/><use height="1052.362" width="744.094" xlink:href="#textext-082fa4b4-4" x="254.284" y="136.259"/><use height="1052.362" width="744.094" xlink:href="#textext-082fa4b4-6" x="260.967" y="134.765"/><use height="1052.362" width="744.094" xlink:href="#textext-082fa4b4-2" x="270.612" y="134.765"/><use height="1052.362" width="744.094" xlink:href="#textext-082fa4b4-3" x="270.931" y="134.765"/><use height="1052.362" width="744.094" xlink:href="#textext-082fa4b4-5" x="275.425" y="136.259"/></g><g ns0:text="$\\Delta \\vec{r} = \\vec{r}_{\\rm{2}} - \\vec{r}_{\\rm{1}} $" ns0:preamble="/home/waldgeist/data/sphinx/test.tex"><use height="1052.362" width="744.094" xlink:href="#textext-082fa4b4-0" x="223.432" y="134.765"/><use height="1052.362" width="744.094" xlink:href="#textext-082fa4b4-2" x="231.417" y="134.765"/><use height="1052.362" width="744.094" xlink:href="#textext-082fa4b4-3" x="231.736" y="134.765"/><use height="1052.362" width="744.094" xlink:href="#textext-082fa4b4-1" x="239.273" y="134.765"/><use height="1052.362" width="744.094" xlink:href="#textext-082fa4b4-2" x="249.472" y="134.765"/><use height="1052.362" width="744.094" xlink:href="#textext-082fa4b4-3" x="249.791" y="134.765"/><use height="1052.362" width="744.094" xlink:href="#textext-082fa4b4-4" x="254.284" y="136.259"/><use height="1052.362" width="744.094" xlink:href="#textext-082fa4b4-6" x="260.967" y="134.765"/><use height="1052.362" width="744.094" xlink:href="#textext-082fa4b4-2" x="270.612" y="134.765"/><use height="1052.362" width="744.094" xlink:href="#textext-082fa4b4-3" x="270.931" y="134.765"/><use height="1052.362" width="744.094" xlink:href="#textext-082fa4b4-5" x="275.425" y="136.259"/></g><g ns0:text="$\\Delta \\vec{r} = \\vec{r}_{\\rm{2}} - \\vec{r}_{\\rm{1}} $" ns0:preamble="/home/waldgeist/data/sphinx/test.tex"><use height="1052.362" width="744.094" xlink:href="#textext-082fa4b4-0" x="223.432" y="134.765"/><use height="1052.362" width="744.094" xlink:href="#textext-082fa4b4-2" x="231.417" y="134.765"/><use height="1052.362" width="744.094" xlink:href="#textext-082fa4b4-3" x="231.736" y="134.765"/><use height="1052.362" width="744.094" xlink:href="#textext-082fa4b4-1" x="239.273" y="134.765"/><use height="1052.362" width="744.094" xlink:href="#textext-082fa4b4-2" x="249.472" y="134.765"/><use height="1052.362" width="744.094" xlink:href="#textext-082fa4b4-3" x="249.791" y="134.765"/><use height="1052.362" width="744.094" xlink:href="#textext-082fa4b4-4" x="254.284" y="136.259"/><use height="1052.362" width="744.094" xlink:href="#textext-082fa4b4-6" x="260.967" y="134.765"/><use height="1052.362" width="744.094" xlink:href="#textext-082fa4b4-2" x="270.612" y="134.765"/><use height="1052.362" width="744.094" xlink:href="#textext-082fa4b4-3" x="270.931" y="134.765"/><use height="1052.362" width="744.094" xlink:href="#textext-082fa4b4-5" x="275.425" y="136.259"/></g></g><path fill="#fff" stroke="#fff" stroke-width="3" stroke-linecap="round" d="M3.865 140.605h736.364v771.152H3.865z"/><g stroke="#ccc" stroke-width="1.019" fill="none"><path d="M132.92 227.272V825.09m59.782-597.818V825.09m59.782-597.818V825.09m59.782-597.818V825.09m59.781-597.818V825.09m59.782-597.818V825.09m59.781-597.818V825.09m59.782-597.818V825.09m59.782-597.818V825.09M73.139 287.054h597.817M73.139 346.836h597.817M73.139 406.618h597.817M73.139 466.4h597.817M73.139 526.181h597.817M73.139 585.963h597.817M73.139 645.745h597.817M73.139 705.526h597.817M73.139 765.308h597.817" stroke-width="1.5"/><path d="M79.117 227.272V825.09m5.978-597.818V825.09m5.978-597.818V825.09m5.978-597.818V825.09m5.979-597.818V825.09m5.978-597.818V825.09m5.978-597.818V825.09m5.978-597.818V825.09m5.978-597.818V825.09m11.957-597.818V825.09m5.978-597.818V825.09m5.978-597.818V825.09m5.978-597.818V825.09m5.978-597.818V825.09m5.979-597.818V825.09m5.978-597.818V825.09m5.978-597.818V825.09m5.978-597.818V825.09m11.956-597.818V825.09m5.978-597.818V825.09m5.979-597.818V825.09m5.978-597.818V825.09m5.978-597.818V825.09m5.978-597.818V825.09m5.979-597.818V825.09m5.977-597.818V825.09m5.979-597.818V825.09m11.956-597.818V825.09m5.978-597.818V825.09m5.978-597.818V825.09m5.978-597.818V825.09m5.979-597.818V825.09m5.978-597.818V825.09m5.978-597.818V825.09m5.979-597.818V825.09m5.977-597.818V825.09m11.957-597.818V825.09m5.978-597.818V825.09m5.978-597.818V825.09m5.978-597.818V825.09m5.978-597.818V825.09m5.979-597.818V825.09m5.978-597.818V825.09m5.977-597.818V825.09m5.98-597.818V825.09m11.955-597.818V825.09m5.979-597.818V825.09m5.978-597.818V825.09m5.978-597.818V825.09m5.978-597.818V825.09m5.978-597.818V825.09m5.978-597.818V825.09m5.979-597.818V825.09m5.977-597.818V825.09m11.957-597.818V825.09m5.978-597.818V825.09m5.978-597.818V825.09m5.979-597.818V825.09m5.978-597.818V825.09m5.978-597.818V825.09m5.978-597.818V825.09m5.978-597.818V825.09m5.979-597.818V825.09m11.956-597.818V825.09m5.978-597.818V825.09m5.978-597.818V825.09m5.978-597.818V825.09m5.979-597.818V825.09m5.978-597.818V825.09m5.978-597.818V825.09m5.978-597.818V825.09m5.978-597.818V825.09m11.956-597.818V825.09m5.979-597.818V825.09m5.978-597.818V825.09m5.978-597.818V825.09m5.978-597.818V825.09m5.978-597.818V825.09m5.979-597.818V825.09m5.978-597.818V825.09m5.978-597.818V825.09m11.956-597.818V825.09m5.978-597.818V825.09m5.979-597.818V825.09m5.978-597.818V825.09m5.978-597.818V825.09m5.978-597.818V825.09m5.978-597.818V825.09M659 227.272V825.09m5.978-597.818V825.09M73.139 233.25h597.817m-597.817 5.979h597.817m-597.817 5.978h597.817m-597.817 5.978h597.817m-597.817 5.978h597.817m-597.817 5.978h597.817M73.139 269.12h597.817m-597.817 5.978h597.817m-597.817 5.978h597.817M73.139 293.032h597.817M73.139 299.01h597.817m-597.817 5.979h597.817m-597.817 5.978h597.817m-597.817 5.978h597.817m-597.817 5.978h597.817m-597.817 5.978h597.817M73.139 334.88h597.817m-597.817 5.978h597.817M73.139 352.814h597.817m-597.817 5.978h597.817M73.139 364.77h597.817m-597.817 5.979h597.817m-597.817 5.978h597.817m-597.817 5.978h597.817m-597.817 5.978h597.817m-597.817 5.978h597.817M73.139 400.64h597.817M73.139 412.596h597.817m-597.817 5.978h597.817m-597.817 5.978h597.817M73.139 430.53h597.817m-597.817 5.979h597.817m-597.817 5.978h597.817m-597.817 5.978h597.817m-597.817 5.978h597.817m-597.817 5.978h597.817M73.139 472.378h597.817m-597.817 5.978h597.817m-597.817 5.978h597.817m-597.817 5.978h597.817M73.139 496.29h597.817m-597.817 5.978h597.817m-597.817 5.979h597.817m-597.817 5.978h597.817m-597.817 5.978h597.817M73.139 532.16h597.817m-597.817 5.977h597.817m-597.817 5.979h597.817m-597.817 5.978h597.817m-597.817 5.978h597.817M73.139 562.05h597.817m-597.817 5.978h597.817m-597.817 5.978h597.817m-597.817 5.979h597.817M73.139 591.941h597.817M73.139 597.92h597.817m-597.817 5.977h597.817m-597.817 5.979h597.817m-597.817 5.978h597.817m-597.817 5.978h597.817M73.139 627.81h597.817m-597.817 5.978h597.817m-597.817 5.978h597.817M73.139 651.723h597.817M73.139 657.7h597.817m-597.817 5.98h597.817m-597.817 5.977h597.817m-597.817 5.978h597.817m-597.817 5.979h597.817m-597.817 5.978h597.817M73.139 693.57h597.817m-597.817 5.978h597.817M73.139 711.504h597.817m-597.817 5.979h597.817M73.139 723.46h597.817m-597.817 5.979h597.817m-597.817 5.978h597.817m-597.817 5.978h597.817m-597.817 5.978h597.817m-597.817 5.979h597.817M73.139 759.33h597.817M73.139 771.286h597.817m-597.817 5.978h597.817m-597.817 5.979h597.817M73.139 789.22h597.817m-597.817 5.979h597.817m-597.817 5.978h597.817m-597.817 5.978h597.817m-597.817 5.978h597.817m-597.817 5.979h597.817" stroke-width=".5"/><path stroke-width="1.5" d="M73.139 227.272h597.817V825.09H73.139z"/></g><path d="M354.076 182.503c.192-.575.192-.638.192-.958 0-.703-.575-1.086-1.214-1.086-.384 0-1.022.255-1.406.83-.064.256-.447 1.47-.575 2.237-.32 1.022-.575 2.172-.83 3.258l-1.853 7.348c-.128.575-1.917 3.45-4.6 3.45-2.045 0-2.492-1.79-2.492-3.323 0-1.852.703-4.408 2.044-7.986.64-1.661.83-2.108.83-2.939 0-1.789-1.277-3.322-3.321-3.322-3.898 0-5.367 5.942-5.367 6.261 0 .447.383.447.447.447.447 0 .447-.128.639-.766 1.15-3.834 2.747-5.048 4.153-5.048.32 0 1.022 0 1.022 1.278 0 1.022-.447 2.108-.703 2.875-1.66 4.345-2.364 6.645-2.364 8.561 0 3.642 2.556 4.856 4.984 4.856 1.597 0 2.939-.703 4.089-1.853-.511 2.109-1.022 4.153-2.62 6.326-1.086 1.341-2.62 2.555-4.472 2.555-.575 0-2.428-.128-3.13-1.725.638 0 1.213 0 1.724-.511.448-.32.83-.894.83-1.661 0-1.278-1.085-1.406-1.469-1.406-.958 0-2.3.64-2.3 2.62 0 2.044 1.79 3.578 4.345 3.578 4.153 0 8.37-3.706 9.52-8.306zm0 0"/><path d="M384.207 406.674h-24.32m24.32-59.782h-24.32m24.32-59.782h-24.32m24.32-59.781h-24.32m24.32 358.691h-24.32m24.32 59.78h-24.32m24.32 59.783h-24.32m24.32 59.781h-24.32m24.32 59.782h-24.32" stroke-width="1.559" fill="none" stroke="#000"/><path d="M381.927 466.456h-23.913" fill="none" stroke="#000" stroke-width="2"/><path d="M713.62 550.09c.256-1.023 1.214-4.793 4.025-4.793.192 0 1.214 0 2.045.511-1.15.256-1.917 1.214-1.917 2.237 0 .638.447 1.405 1.533 1.405.895 0 2.173-.703 2.173-2.364 0-2.108-2.364-2.683-3.77-2.683-2.364 0-3.77 2.172-4.28 3.067-1.023-2.684-3.195-3.067-4.409-3.067-4.217 0-6.58 5.239-6.58 6.261 0 .447.446.447.51.447.32 0 .448-.127.511-.447 1.406-4.344 4.09-5.367 5.495-5.367.767 0 2.172.384 2.172 2.748 0 1.277-.702 3.96-2.172 9.711-.639 2.492-2.108 4.217-3.897 4.217-.256 0-1.15 0-2.045-.511 1.023-.256 1.917-1.086 1.917-2.236 0-1.087-.894-1.406-1.47-1.406-1.277 0-2.236 1.022-2.236 2.364 0 1.853 1.98 2.683 3.77 2.683 2.747 0 4.217-2.875 4.28-3.066.512 1.469 1.981 3.066 4.41 3.066 4.216 0 6.516-5.239 6.516-6.261 0-.447-.32-.447-.447-.447-.384 0-.448.191-.575.447-1.342 4.408-4.09 5.367-5.367 5.367-1.597 0-2.236-1.278-2.236-2.684 0-.894.191-1.789.639-3.577zm0 0"/><path d="M25.933 526.181h686.055" id="r" fill="none" stroke="#000" stroke-width="3" marker-end="url(#a)"/><path id="b" d="M431.829 513.912v23.912" fill="none" stroke="#000" stroke-width="2"/><use xlink:href="#b" transform="translate(59.782 -.483)" width="744.094" height="1052.362"/><use xlink:href="#b" transform="translate(119.563)" width="744.094" height="1052.362"/><use xlink:href="#b" transform="translate(179.345)" width="744.094" height="1052.362"/><use xlink:href="#b" transform="translate(-239.127 -.604)" width="744.094" height="1052.362"/><use xlink:href="#b" transform="translate(-298.909 -.483)" width="744.094" height="1052.362"/><use xlink:href="#b" transform="translate(-358.69)" width="744.094" height="1052.362"/><use height="1052.362" width="744.094" transform="translate(-179.345 -.248)" xlink:href="#b"/><use height="744.094" width="1052.362" transform="translate(-119.563 -.063)" xlink:href="#b"/><use height="744.094" width="1052.362" transform="translate(239.127 -.667)" xlink:href="#b"/><g fill="#4d4d4d" stroke="green" stroke-width="1.18"><g ns0:text="$1$" ns0:preamble="/home/waldgeist/data/sphinx/test.tex" transform="translate(-142.737 216.068) scale(2.5424)"><defs><symbol overflow="visible" id="c"><path d="M2.938-6.375c0-.25 0-.266-.235-.266C2.078-6 1.203-6 .891-6v.313c.203 0 .78 0 1.296-.266v5.172c0 .36-.03.469-.921.469H.953V0c.344-.031 1.203-.031 1.61-.031.39 0 1.265 0 1.609.031v-.313h-.313c-.906 0-.921-.109-.921-.468zm0 0" stroke="none"/></symbol></defs><use xlink:href="#c" x="223.432" y="134.765" width="744.094" height="1052.362"/></g><g transform="translate(-282.255 216.068) scale(2.5424)" ns0:preamble="/home/waldgeist/data/sphinx/test.tex" ns0:text="$-1$"><defs><symbol id="d" overflow="visible"><path d="M6.563-2.297c.171 0 .359 0 .359-.203 0-.188-.188-.188-.36-.188h-5.39c-.172 0-.344 0-.344.188 0 .203.172.203.344.203zm0 0" stroke="none"/></symbol><symbol id="e" overflow="visible"><path d="M2.938-6.375c0-.25 0-.266-.235-.266C2.078-6 1.203-6 .891-6v.313c.203 0 .78 0 1.296-.266v5.172c0 .36-.03.469-.921.469H.953V0c.344-.031 1.203-.031 1.61-.031.39 0 1.265 0 1.609.031v-.313h-.313c-.906 0-.921-.109-.921-.468zm0 0" stroke="none"/></symbol></defs><use y="134.765" x="223.432" xlink:href="#d" width="744.094" height="1052.362"/><use y="134.765" x="231.181" xlink:href="#e" width="744.094" height="1052.362"/></g><g ns0:text="$-2$" ns0:preamble="/home/waldgeist/data/sphinx/test.tex" transform="translate(-342.048 216.068) scale(2.5424)"><defs><symbol overflow="visible" id="f"><path d="M6.563-2.297c.171 0 .359 0 .359-.203 0-.188-.188-.188-.36-.188h-5.39c-.172 0-.344 0-.344.188 0 .203.172.203.344.203zm0 0" stroke="none"/></symbol><symbol overflow="visible" id="g"><path d="M1.266-.766l1.062-1.03c1.547-1.376 2.14-1.907 2.14-2.907 0-1.14-.89-1.938-2.109-1.938A1.843 1.843 0 0 0 .5-4.828c0 .547.5.547.531.547.172 0 .516-.11.516-.532a.513.513 0 0 0-.531-.515c-.079 0-.094 0-.125.016.218-.657.765-1.016 1.343-1.016.907 0 1.329.812 1.329 1.625 0 .797-.485 1.578-1.047 2.203L.609-.375C.5-.265.5-.235.5 0h3.703l.266-1.734h-.235C4.172-1.438 4.11-1 4-.844c-.063.078-.719.078-.938.078zm0 0" stroke="none"/></symbol></defs><use height="1052.362" width="744.094" xlink:href="#f" x="223.432" y="134.765"/><use height="1052.362" width="744.094" xlink:href="#g" x="231.181" y="134.765"/></g><g transform="translate(-401.359 215.79) scale(2.5424)" ns0:preamble="/home/waldgeist/data/sphinx/test.tex" ns0:text="$-3$"><defs><symbol id="h" overflow="visible"><path d="M6.563-2.297c.171 0 .359 0 .359-.203 0-.188-.188-.188-.36-.188h-5.39c-.172 0-.344 0-.344.188 0 .203.172.203.344.203zm0 0" stroke="none"/></symbol><symbol id="i" overflow="visible"><path d="M2.89-3.516c.813-.265 1.391-.953 1.391-1.75 0-.812-.875-1.375-1.828-1.375-1 0-1.765.594-1.765 1.36 0 .328.218.515.515.515.297 0 .5-.218.5-.515 0-.485-.469-.485-.61-.485.298-.5.954-.625 1.313-.625.422 0 .969.22.969 1.11 0 .125-.031.703-.281 1.14-.297.485-.64.516-.89.516a3.29 3.29 0 0 1-.392.031c-.078.016-.14.031-.14.125 0 .11.062.11.234.11h.438c.812 0 1.187.671 1.187 1.656 0 1.36-.687 1.64-1.125 1.64-.437 0-1.187-.171-1.531-.75.344.047.656-.171.656-.546a.537.537 0 0 0-.547-.563c-.25 0-.562.14-.562.578C.422-.437 1.344.22 2.437.22c1.22 0 2.126-.906 2.126-1.922 0-.813-.641-1.594-1.672-1.813zm0 0" stroke="none"/></symbol></defs><use y="134.765" x="223.432" xlink:href="#h" width="744.094" height="1052.362"/><use y="134.765" x="231.181" xlink:href="#i" width="744.094" height="1052.362"/></g><g ns0:text="$-4$" ns0:preamble="/home/waldgeist/data/sphinx/test.tex" transform="translate(-463.447 216.207) scale(2.5424)"><defs><symbol overflow="visible" id="j"><path d="M6.563-2.297c.171 0 .359 0 .359-.203 0-.188-.188-.188-.36-.188h-5.39c-.172 0-.344 0-.344.188 0 .203.172.203.344.203zm0 0" stroke="none"/></symbol><symbol overflow="visible" id="k"><path d="M2.938-1.64v.859c0 .36-.032.469-.766.469h-.203V0c.406-.031.922-.031 1.343-.031.422 0 .938 0 1.36.031v-.313h-.219c-.734 0-.75-.109-.75-.468v-.86h.985v-.312h-.985v-4.531c0-.204 0-.266-.172-.266-.078 0-.11 0-.187.125L.28-1.953v.312zm.046-.313H.563l2.421-3.719zm0 0" stroke="none"/></symbol></defs><use xlink:href="#j" x="223.432" y="134.765" width="744.094" height="1052.362"/><use xlink:href="#k" x="231.181" y="134.765" width="744.094" height="1052.362"/></g><g transform="translate(-520.945 215.79) scale(2.5424)" ns0:preamble="/home/waldgeist/data/sphinx/test.tex" ns0:text="$-5$"><defs><symbol id="l" overflow="visible"><path d="M6.563-2.297c.171 0 .359 0 .359-.203 0-.188-.188-.188-.36-.188h-5.39c-.172 0-.344 0-.344.188 0 .203.172.203.344.203zm0 0" stroke="none"/></symbol><symbol id="m" overflow="visible"><path d="M4.469-2c0-1.188-.813-2.188-1.89-2.188-.47 0-.907.157-1.267.516v-1.953c.204.063.532.125.844.125 1.235 0 1.938-.906 1.938-1.031 0-.063-.032-.11-.11-.11 0 0-.03 0-.078.032a3.22 3.22 0 0 1-1.36.296 3.4 3.4 0 0 1-1.327-.28c-.078-.032-.094-.032-.11-.032C1-6.625 1-6.547 1-6.391v2.954c0 .171 0 .25.14.25.079 0 .094-.016.141-.079.11-.156.469-.703 1.282-.703.515 0 .765.453.843.64.156.376.188.75.188 1.25 0 .36 0 .954-.25 1.376-.235.39-.61.64-1.063.64-.719 0-1.297-.53-1.469-1.109.032 0 .063.016.172.016.329 0 .5-.25.5-.485 0-.25-.171-.5-.5-.5-.14 0-.484.079-.484.532C.5-.75 1.188.219 2.297.219 3.453.219 4.469-.734 4.469-2zm0 0" stroke="none"/></symbol></defs><use y="134.765" x="223.432" xlink:href="#l" width="744.094" height="1052.362"/><use y="134.765" x="231.181" xlink:href="#m" width="744.094" height="1052.362"/></g><g ns0:text="$2$" ns0:preamble="/home/waldgeist/data/sphinx/test.tex" transform="translate(-82.823 216.068) scale(2.5424)"><defs><symbol overflow="visible" id="n"><path d="M1.266-.766l1.062-1.03c1.547-1.376 2.14-1.907 2.14-2.907 0-1.14-.89-1.938-2.109-1.938A1.843 1.843 0 0 0 .5-4.828c0 .547.5.547.531.547.172 0 .516-.11.516-.532a.513.513 0 0 0-.531-.515c-.079 0-.094 0-.125.016.218-.657.765-1.016 1.343-1.016.907 0 1.329.812 1.329 1.625 0 .797-.485 1.578-1.047 2.203L.609-.375C.5-.265.5-.235.5 0h3.703l.266-1.734h-.235C4.172-1.438 4.11-1 4-.844c-.063.078-.719.078-.938.078zm0 0" stroke="none"/></symbol></defs><use height="1052.362" width="744.094" transform="translate(-.019)" xlink:href="#n" x="223.432" y="134.765"/></g><g transform="translate(-23.574 215.79) scale(2.5424)" ns0:preamble="/home/waldgeist/data/sphinx/test.tex" ns0:text="$3$"><defs><symbol id="o" overflow="visible"><path d="M2.89-3.516c.813-.265 1.391-.953 1.391-1.75 0-.812-.875-1.375-1.828-1.375-1 0-1.765.594-1.765 1.36 0 .328.218.515.515.515.297 0 .5-.218.5-.515 0-.485-.469-.485-.61-.485.298-.5.954-.625 1.313-.625.422 0 .969.22.969 1.11 0 .125-.031.703-.281 1.14-.297.485-.64.516-.89.516a3.29 3.29 0 0 1-.392.031c-.078.016-.14.031-.14.125 0 .11.062.11.234.11h.438c.812 0 1.187.671 1.187 1.656 0 1.36-.687 1.64-1.125 1.64-.437 0-1.187-.171-1.531-.75.344.047.656-.171.656-.546a.537.537 0 0 0-.547-.563c-.25 0-.562.14-.562.578C.422-.437 1.344.22 2.437.22c1.22 0 2.126-.906 2.126-1.922 0-.813-.641-1.594-1.672-1.813zm0 0" stroke="none"/></symbol></defs><use y="134.765" x="223.432" xlink:href="#o" width="744.094" height="1052.362"/></g><g ns0:text="$4$" ns0:preamble="/home/waldgeist/data/sphinx/test.tex" transform="translate(34.529 216.207) scale(2.5424)"><defs><symbol overflow="visible" id="p"><path d="M2.938-1.64v.859c0 .36-.032.469-.766.469h-.203V0c.406-.031.922-.031 1.343-.031.422 0 .938 0 1.36.031v-.313h-.219c-.734 0-.75-.109-.75-.468v-.86h.985v-.312h-.985v-4.531c0-.204 0-.266-.172-.266-.078 0-.11 0-.187.125L.28-1.953v.312zm.046-.313H.563l2.421-3.719zm0 0" stroke="none"/></symbol></defs><use height="1052.362" width="744.094" xlink:href="#p" x="223.432" y="134.765"/></g><g transform="translate(96.496 215.79) scale(2.5424)" ns0:preamble="/home/waldgeist/data/sphinx/test.tex" ns0:text="$5$"><defs><symbol id="q" overflow="visible"><path d="M4.469-2c0-1.188-.813-2.188-1.89-2.188-.47 0-.907.157-1.267.516v-1.953c.204.063.532.125.844.125 1.235 0 1.938-.906 1.938-1.031 0-.063-.032-.11-.11-.11 0 0-.03 0-.078.032a3.22 3.22 0 0 1-1.36.296 3.4 3.4 0 0 1-1.327-.28c-.078-.032-.094-.032-.11-.032C1-6.625 1-6.547 1-6.391v2.954c0 .171 0 .25.14.25.079 0 .094-.016.141-.079.11-.156.469-.703 1.282-.703.515 0 .765.453.843.64.156.376.188.75.188 1.25 0 .36 0 .954-.25 1.376-.235.39-.61.64-1.063.64-.719 0-1.297-.53-1.469-1.109.032 0 .063.016.172.016.329 0 .5-.25.5-.485 0-.25-.171-.5-.5-.5-.14 0-.484.079-.484.532C.5-.75 1.188.219 2.297.219 3.453.219 4.469-.734 4.469-2zm0 0" stroke="none"/></symbol></defs><use y="134.765" x="223.432" xlink:href="#q" width="744.094" height="1052.362"/></g></g><g fill="#4d4d4d" stroke="green" stroke-width="1.18"><g ns0:text="$-1$" ns0:preamble="/home/waldgeist/data/sphinx/test.tex" transform="translate(-244.096 251.833) scale(2.5424)"><use height="1052.362" width="744.094" xlink:href="#d" x="223.432" y="134.765"/><use height="1052.362" width="744.094" xlink:href="#e" x="231.181" y="134.765"/></g><g ns0:preamble="/home/waldgeist/data/sphinx/test.tex" ns0:text="$-2$" transform="translate(-244.85 311.615) scale(2.5424)"><use y="134.765" x="223.432" xlink:href="#f" width="744.094" height="1052.362"/><use y="134.765" x="231.181" xlink:href="#g" width="744.094" height="1052.362"/></g><g ns0:text="$-3$" ns0:preamble="/home/waldgeist/data/sphinx/test.tex" transform="translate(-245.089 371.118) scale(2.5424)"><use height="1052.362" width="744.094" xlink:href="#h" x="223.432" y="134.765"/><use height="1052.362" width="744.094" xlink:href="#i" x="231.181" y="134.765"/></g><g ns0:preamble="/home/waldgeist/data/sphinx/test.tex" ns0:text="$-4$" transform="translate(-245.407 431.317) scale(2.5424)"><use height="1052.362" width="744.094" y="134.765" x="223.432" xlink:href="#j"/><use height="1052.362" width="744.094" y="134.765" x="231.181" xlink:href="#k"/></g><g ns0:text="$-5$" ns0:preamble="/home/waldgeist/data/sphinx/test.tex" transform="translate(-244.85 490.682) scale(2.5424)"><use height="1052.362" width="744.094" xlink:href="#l" x="223.432" y="134.765"/><use height="1052.362" width="744.094" xlink:href="#m" x="231.181" y="134.765"/></g><use height="1052.362" width="744.094" y="134.765" x="223.432" xlink:href="#c" transform="translate(-224.395 132.27) scale(2.5424)" ns0:preamble="/home/waldgeist/data/sphinx/test.tex" ns0:text="$1$"/><use y="134.765" x="223.432" xlink:href="#n" transform="translate(-225.15 72.488) scale(2.5424)" width="744.094" height="1052.362" ns0:preamble="/home/waldgeist/data/sphinx/test.tex" ns0:text="$2$"/><use height="1052.362" width="744.094" xlink:href="#o" x="223.432" y="134.765" transform="translate(-225.388 12.428) scale(2.5424)" ns0:text="$3$" ns0:preamble="/home/waldgeist/data/sphinx/test.tex"/><use y="134.765" x="223.432" xlink:href="#p" width="744.094" height="1052.362" transform="translate(-225.706 -46.937) scale(2.5424)" ns0:preamble="/home/waldgeist/data/sphinx/test.tex" ns0:text="$4$"/><use height="1052.362" width="744.094" xlink:href="#q" x="223.432" y="134.765" transform="translate(-225.15 -107.135) scale(2.5424)" ns0:text="$5$" ns0:preamble="/home/waldgeist/data/sphinx/test.tex"/></g><use height="1052.362" width="744.094" transform="rotate(-90 372.047 526.181)" xlink:href="#r"/><path d="M670.956 406.618C479.654 269.12 264.44 687.592 162.81 825.09" fill="none" stroke="green" stroke-width="3" stroke-linecap="round"/></svg>