<svg xmlns:ns0="http://www.iki.fi/pav/software/textext/" xmlns="http://www.w3.org/2000/svg" xmlns:xlink="http://www.w3.org/1999/xlink" height="1052.362" width="1488.189"><title>Erste Ableitung einer Gerade</title><defs><marker id="b" orient="auto" overflow="visible"><path d="M2.308 0l-3.46 2v-4l3.46 2z" fill-rule="evenodd" stroke="#000" stroke-width=".4pt"/></marker></defs><use transform="translate(-841.335 -1073.496) scale(4.62289)" height="1052.362" width="744.094" xlink:href="#textext-082fa4b4-3" x="231.736" y="134.765" fill="green"/><use transform="translate(-841.335 -1073.496) scale(4.62289)" height="1052.362" width="744.094" xlink:href="#textext-082fa4b4-3" x="231.736" y="134.765" fill="green"/><g fill="green" transform="translate(-841.335 -1073.496) scale(4.62289)"><use y="134.765" x="223.432" xlink:href="#textext-082fa4b4-0" width="744.094" height="1052.362"/><use y="134.765" x="231.417" xlink:href="#textext-082fa4b4-2" width="744.094" height="1052.362"/><use y="134.765" x="231.736" xlink:href="#textext-082fa4b4-3" width="744.094" height="1052.362"/><use y="134.765" x="239.273" xlink:href="#textext-082fa4b4-1" width="744.094" height="1052.362"/><use y="134.765" x="249.472" xlink:href="#textext-082fa4b4-2" width="744.094" height="1052.362"/><use y="134.765" x="249.791" xlink:href="#textext-082fa4b4-3" width="744.094" height="1052.362"/><use y="136.259" x="254.284" xlink:href="#textext-082fa4b4-4" width="744.094" height="1052.362"/><use y="134.765" x="260.967" xlink:href="#textext-082fa4b4-6" width="744.094" height="1052.362"/><use y="134.765" x="270.612" xlink:href="#textext-082fa4b4-2" width="744.094" height="1052.362"/><use y="134.765" x="270.931" xlink:href="#textext-082fa4b4-3" width="744.094" height="1052.362"/><use y="136.259" x="275.425" xlink:href="#textext-082fa4b4-5" width="744.094" height="1052.362"/></g><g fill="green" transform="translate(-841.335 -1073.496) scale(4.62289)"><use y="134.765" x="223.432" xlink:href="#textext-082fa4b4-0" width="744.094" height="1052.362"/><use y="134.765" x="231.417" xlink:href="#textext-082fa4b4-2" width="744.094" height="1052.362"/><use y="134.765" x="231.736" xlink:href="#textext-082fa4b4-3" width="744.094" height="1052.362"/><use y="134.765" x="239.273" xlink:href="#textext-082fa4b4-1" width="744.094" height="1052.362"/><use y="134.765" x="249.472" xlink:href="#textext-082fa4b4-2" width="744.094" height="1052.362"/><use y="134.765" x="249.791" xlink:href="#textext-082fa4b4-3" width="744.094" height="1052.362"/><use y="136.259" x="254.284" xlink:href="#textext-082fa4b4-4" width="744.094" height="1052.362"/><use y="134.765" x="260.967" xlink:href="#textext-082fa4b4-6" width="744.094" height="1052.362"/><use y="134.765" x="270.612" xlink:href="#textext-082fa4b4-2" width="744.094" height="1052.362"/><use y="134.765" x="270.931" xlink:href="#textext-082fa4b4-3" width="744.094" height="1052.362"/><use y="136.259" x="275.425" xlink:href="#textext-082fa4b4-5" width="744.094" height="1052.362"/></g><g fill="green" transform="translate(-841.335 -1073.496) scale(4.62289)"><use y="134.765" x="223.432" xlink:href="#textext-082fa4b4-0" width="744.094" height="1052.362"/><use y="134.765" x="231.417" xlink:href="#textext-082fa4b4-2" width="744.094" height="1052.362"/><use y="134.765" x="231.736" xlink:href="#textext-082fa4b4-3" width="744.094" height="1052.362"/><use y="134.765" x="239.273" xlink:href="#textext-082fa4b4-1" width="744.094" height="1052.362"/><use y="134.765" x="249.472" xlink:href="#textext-082fa4b4-2" width="744.094" height="1052.362"/><use y="134.765" x="249.791" xlink:href="#textext-082fa4b4-3" width="744.094" height="1052.362"/><use y="136.259" x="254.284" xlink:href="#textext-082fa4b4-4" width="744.094" height="1052.362"/><use y="134.765" x="260.967" xlink:href="#textext-082fa4b4-6" width="744.094" height="1052.362"/><use y="134.765" x="270.612" xlink:href="#textext-082fa4b4-2" width="744.094" height="1052.362"/><use y="134.765" x="270.931" xlink:href="#textext-082fa4b4-3" width="744.094" height="1052.362"/><use y="136.259" x="275.425" xlink:href="#textext-082fa4b4-5" width="744.094" height="1052.362"/></g><path fill="#fff" stroke="#fff" stroke-width="2" stroke-linecap="round" d="M8.618 108.946h1470.953V931.66H8.618z"/><path d="M135.57 223.065v597.956m59.796-597.956v597.956m59.796-597.956v597.956m59.795-597.956v597.956m59.796-597.956v597.956m59.796-597.956v597.956m59.795-597.956v597.956m59.796-597.956v597.956m59.795-597.956v597.956M75.775 282.86h597.956M75.775 342.656h597.956M75.775 402.452h597.956M75.775 462.247h597.956M75.775 522.043h597.956M75.775 581.839h597.956M75.775 641.634h597.956M75.775 701.43h597.956M75.775 761.225h597.956" stroke-width="1.5" stroke="#ccc" fill="none"/><path d="M81.755 223.065v597.956m5.979-597.956v597.956m5.98-597.956v597.956m5.979-597.956v597.956m5.98-597.956v597.956m5.979-597.956v597.956m5.98-597.956v597.956m5.979-597.956v597.956m5.98-597.956v597.956m11.959-597.956v597.956m5.98-597.956v597.956m5.98-597.956v597.956m5.979-597.956v597.956m5.979-597.956v597.956m5.98-597.956v597.956m5.98-597.956v597.956m5.979-597.956v597.956m5.98-597.956v597.956m11.959-597.956v597.956m5.979-597.956v597.956m5.98-597.956v597.956m5.979-597.956v597.956m5.98-597.956v597.956m5.98-597.956v597.956m5.979-597.956v597.956m5.98-597.956v597.956m5.979-597.956v597.956m11.959-597.956v597.956m5.979-597.956v597.956m5.98-597.956v597.956m5.98-597.956v597.956m5.98-597.956v597.956m5.98-597.956v597.956m5.979-597.956v597.956m5.979-597.956v597.956m5.98-597.956v597.956m11.959-597.956v597.956m5.979-597.956v597.956m5.98-597.956v597.956m5.98-597.956v597.956m5.979-597.956v597.956m5.98-597.956v597.956m5.979-597.956v597.956m5.98-597.956v597.956m5.979-597.956v597.956m11.959-597.956v597.956m5.98-597.956v597.956m5.98-597.956v597.956m5.979-597.956v597.956m5.979-597.956v597.956m5.98-597.956v597.956m5.98-597.956v597.956m5.98-597.956v597.956m5.979-597.956v597.956m11.959-597.956v597.956m5.98-597.956v597.956m5.979-597.956v597.956m5.98-597.956v597.956m5.979-597.956v597.956m5.98-597.956v597.956m5.979-597.956v597.956m5.98-597.956v597.956m5.98-597.956v597.956m11.959-597.956v597.956m5.979-597.956v597.956m5.98-597.956v597.956m5.979-597.956v597.956m5.98-597.956v597.956m5.979-597.956v597.956m5.98-597.956v597.956m5.979-597.956v597.956m5.98-597.956v597.956m11.96-597.956v597.956m5.979-597.956v597.956m5.979-597.956v597.956m5.98-597.956v597.956m5.979-597.956v597.956m5.98-597.956v597.956m5.98-597.956v597.956m5.979-597.956v597.956m5.98-597.956v597.956m11.959-597.956v597.956m5.979-597.956v597.956m5.98-597.956v597.956m5.979-597.956v597.956m5.98-597.956v597.956m5.98-597.956v597.956m5.979-597.956v597.956m5.98-597.956v597.956m5.979-597.956v597.956M75.775 229.045h597.956m-597.956 5.979h597.956m-597.956 5.98h597.956m-597.956 5.979h597.956m-597.956 5.98h597.956m-597.956 5.979h597.956m-597.956 5.98h597.956m-597.956 5.98h597.956m-597.956 5.979h597.956M75.775 288.84h597.956m-597.956 5.98h597.956M75.775 300.8h597.956m-597.956 5.979h597.956m-597.956 5.98h597.956m-597.956 5.979h597.956m-597.956 5.98h597.956m-597.956 5.979h597.956m-597.956 5.98h597.956M75.775 348.636h597.956m-597.956 5.979h597.956m-597.956 5.98h597.956m-597.956 5.98h597.956m-597.956 5.979h597.956m-597.956 5.98h597.956m-597.956 5.979h597.956m-597.956 5.98h597.956m-597.956 5.979h597.956M75.775 408.431h597.956m-597.956 5.98h597.956M75.775 420.39h597.956m-597.956 5.98h597.956m-597.956 5.98h597.956m-597.956 5.98h597.956m-597.956 5.979h597.956m-597.956 5.979h597.956m-597.956 5.98h597.956M75.775 468.227h597.956m-597.956 5.98h597.956m-597.956 5.979h597.956m-597.956 5.98h597.956m-597.956 5.979h597.956m-597.956 5.98h597.956m-597.956 5.979h597.956m-597.956 5.98h597.956m-597.956 5.979h597.956m-597.956 11.96h597.956m-597.956 5.979h597.956m-597.956 5.98h597.956m-597.956 5.979h597.956M75.775 551.94h597.956m-597.956 5.98h597.956M75.775 563.9h597.956m-597.956 5.98h597.956m-597.956 5.98h597.956M75.775 587.818h597.956m-597.956 5.98h597.956m-597.956 5.979h597.956m-597.956 5.98h597.956m-597.956 5.979h597.956m-597.956 5.98h597.956m-597.956 5.98h597.956m-597.956 5.979h597.956m-597.956 5.98h597.956M75.775 647.614h597.956m-597.956 5.979h597.956m-597.956 5.98h597.956m-597.956 5.979h597.956m-597.956 5.98h597.956m-597.956 5.98h597.956m-597.956 5.979h597.956M75.775 689.47h597.956m-597.956 5.98h597.956M75.775 707.41h597.956m-597.956 5.979h597.956m-597.956 5.979h597.956m-597.956 5.98h597.956m-597.956 5.98h597.956m-597.956 5.979h597.956m-597.956 5.98h597.956m-597.956 5.979h597.956m-597.956 5.98h597.956M75.775 767.205h597.956m-597.956 5.979h597.956m-597.956 5.98h597.956m-597.956 5.98h597.956m-597.956 5.979h597.956m-597.956 5.98h597.956m-597.956 5.979h597.956m-597.956 5.98h597.956m-597.956 5.979h597.956" stroke-width=".5" stroke="#ccc" fill="none"/><path fill="none" stroke="#ccc" stroke-width="1.5" d="M75.775 223.065h597.956v597.956H75.775z"/><g transform="translate(-52.571 -579.622) scale(1.64486)"><use xlink:href="#a" transform="rotate(-90 260.13 669.425)" width="744.094" height="1052.362"/><path d="M267.064 597.056h-14.788m14.788-36.353h-14.788m14.788-36.353h-14.788m14.788-36.353h-14.788m14.788 218.118h-14.788m14.788 36.353h-14.788m14.788 36.352h-14.788m14.788 36.354h-14.788m14.788 36.352h-14.788" fill="none" stroke="#000" stroke-width=".947"/><path d="M266.94 633.409H252.4" fill="none" stroke="#000" stroke-width="1.216"/></g><path d="M716.279 543.724c.255-1.022 1.214-4.793 4.026-4.793.192 0 1.214 0 2.045.511-1.15.256-1.917 1.215-1.917 2.237 0 .64.447 1.406 1.533 1.406.895 0 2.173-.703 2.173-2.364 0-2.11-2.364-2.685-3.77-2.685-2.365 0-3.77 2.173-4.282 3.068-1.022-2.684-3.195-3.068-4.41-3.068-4.217 0-6.582 5.24-6.582 6.263 0 .448.448.448.512.448.32 0 .447-.128.51-.448 1.407-4.345 4.09-5.368 5.497-5.368.767 0 2.172.384 2.172 2.748 0 1.278-.702 3.962-2.172 9.714-.64 2.492-2.11 4.218-3.899 4.218-.255 0-1.15 0-2.045-.512 1.023-.255 1.918-1.086 1.918-2.236 0-1.087-.895-1.406-1.47-1.406-1.278 0-2.237 1.022-2.237 2.364 0 1.853 1.981 2.684 3.77 2.684 2.748 0 4.218-2.876 4.282-3.067.511 1.47 1.981 3.067 4.41 3.067 4.218 0 6.518-5.24 6.518-6.263 0-.447-.32-.447-.447-.447-.384 0-.448.192-.575.447-1.342 4.41-4.09 5.369-5.368 5.369-1.598 0-2.237-1.279-2.237-2.684 0-.895.192-1.79.639-3.58zm0 0"/><g transform="translate(-52.571 -579.622) scale(1.64486)"><path id="a" d="M49.357 669.425h417.187" fill="none" stroke="#000" stroke-width="1.824" marker-end="url(#b)"/><path d="M295.897 662.12v14.54" id="c" fill="none" stroke="#000" stroke-width="1.216"/><use height="1052.362" width="744.094" transform="translate(36.353)" xlink:href="#c"/><use height="1052.362" width="744.094" transform="translate(72.706)" xlink:href="#c"/><use height="1052.362" width="744.094" transform="translate(109.059)" xlink:href="#c"/><use height="1052.362" width="744.094" transform="translate(-145.412)" xlink:href="#c"/><use height="1052.362" width="744.094" transform="translate(-181.765)" xlink:href="#c"/><use height="1052.362" width="744.094" transform="translate(-218.118)" xlink:href="#c"/><use xlink:href="#c" transform="translate(-108.544 .07)" width="744.094" height="1052.362"/><use xlink:href="#c" transform="translate(-72.456 .035)" width="1052.362" height="744.094"/><use xlink:href="#c" transform="translate(145.662 .035)" width="1052.362" height="744.094"/></g><g fill="#4d4d4d" stroke="green" stroke-width="1.18"><g transform="translate(-140.19 212.57) scale(2.5424)" ns0:preamble="/home/waldgeist/data/sphinx/test.tex" ns0:text="$1$"><defs><symbol id="d" overflow="visible"><path d="M2.938-6.375c0-.25 0-.266-.235-.266C2.078-6 1.203-6 .891-6v.313c.203 0 .78 0 1.296-.266v5.172c0 .36-.03.469-.921.469H.953V0c.344-.031 1.203-.031 1.61-.031.39 0 1.265 0 1.609.031v-.313h-.313c-.906 0-.921-.109-.921-.468zm0 0" stroke="none"/></symbol></defs><use height="1052.362" width="744.094" y="134.765" x="223.432" xlink:href="#d"/></g><g ns0:text="$-1$" ns0:preamble="/home/waldgeist/data/sphinx/test.tex" transform="translate(-279.708 212.57) scale(2.5424)"><defs><symbol overflow="visible" id="e"><path d="M6.563-2.297c.171 0 .359 0 .359-.203 0-.188-.188-.188-.36-.188h-5.39c-.172 0-.344 0-.344.188 0 .203.172.203.344.203zm0 0" stroke="none"/></symbol><symbol overflow="visible" id="f"><path d="M2.938-6.375c0-.25 0-.266-.235-.266C2.078-6 1.203-6 .891-6v.313c.203 0 .78 0 1.296-.266v5.172c0 .36-.03.469-.921.469H.953V0c.344-.031 1.203-.031 1.61-.031.39 0 1.265 0 1.609.031v-.313h-.313c-.906 0-.921-.109-.921-.468zm0 0" stroke="none"/></symbol></defs><use height="1052.362" width="744.094" xlink:href="#e" x="223.432" y="134.765"/><use height="1052.362" width="744.094" xlink:href="#f" x="231.181" y="134.765"/></g><g transform="translate(-339.502 212.57) scale(2.5424)" ns0:preamble="/home/waldgeist/data/sphinx/test.tex" ns0:text="$-2$"><defs><symbol id="g" overflow="visible"><path d="M6.563-2.297c.171 0 .359 0 .359-.203 0-.188-.188-.188-.36-.188h-5.39c-.172 0-.344 0-.344.188 0 .203.172.203.344.203zm0 0" stroke="none"/></symbol><symbol id="h" overflow="visible"><path d="M1.266-.766l1.062-1.03c1.547-1.376 2.14-1.907 2.14-2.907 0-1.14-.89-1.938-2.109-1.938A1.843 1.843 0 0 0 .5-4.828c0 .547.5.547.531.547.172 0 .516-.11.516-.532a.513.513 0 0 0-.531-.515c-.079 0-.094 0-.125.016.218-.657.765-1.016 1.343-1.016.907 0 1.329.812 1.329 1.625 0 .797-.485 1.578-1.047 2.203L.609-.375C.5-.265.5-.235.5 0h3.703l.266-1.734h-.235C4.172-1.438 4.11-1 4-.844c-.063.078-.719.078-.938.078zm0 0" stroke="none"/></symbol></defs><use y="134.765" x="223.432" xlink:href="#g" width="744.094" height="1052.362"/><use y="134.765" x="231.181" xlink:href="#h" width="744.094" height="1052.362"/></g><g ns0:text="$-3$" ns0:preamble="/home/waldgeist/data/sphinx/test.tex" transform="translate(-398.812 212.292) scale(2.5424)"><defs><symbol overflow="visible" id="i"><path d="M6.563-2.297c.171 0 .359 0 .359-.203 0-.188-.188-.188-.36-.188h-5.39c-.172 0-.344 0-.344.188 0 .203.172.203.344.203zm0 0" stroke="none"/></symbol><symbol overflow="visible" id="j"><path d="M2.89-3.516c.813-.265 1.391-.953 1.391-1.75 0-.812-.875-1.375-1.828-1.375-1 0-1.765.594-1.765 1.36 0 .328.218.515.515.515.297 0 .5-.218.5-.515 0-.485-.469-.485-.61-.485.298-.5.954-.625 1.313-.625.422 0 .969.22.969 1.11 0 .125-.031.703-.281 1.14-.297.485-.64.516-.89.516a3.29 3.29 0 0 1-.392.031c-.078.016-.14.031-.14.125 0 .11.062.11.234.11h.438c.812 0 1.187.671 1.187 1.656 0 1.36-.687 1.64-1.125 1.64-.437 0-1.187-.171-1.531-.75.344.047.656-.171.656-.546a.537.537 0 0 0-.547-.563c-.25 0-.562.14-.562.578C.422-.437 1.344.22 2.437.22c1.22 0 2.126-.906 2.126-1.922 0-.813-.641-1.594-1.672-1.813zm0 0" stroke="none"/></symbol></defs><use height="1052.362" width="744.094" xlink:href="#i" x="223.432" y="134.765"/><use height="1052.362" width="744.094" xlink:href="#j" x="231.181" y="134.765"/></g><g transform="translate(-460.9 212.709) scale(2.5424)" ns0:preamble="/home/waldgeist/data/sphinx/test.tex" ns0:text="$-4$"><defs><symbol id="k" overflow="visible"><path d="M6.563-2.297c.171 0 .359 0 .359-.203 0-.188-.188-.188-.36-.188h-5.39c-.172 0-.344 0-.344.188 0 .203.172.203.344.203zm0 0" stroke="none"/></symbol><symbol id="l" overflow="visible"><path d="M2.938-1.64v.859c0 .36-.032.469-.766.469h-.203V0c.406-.031.922-.031 1.343-.031.422 0 .938 0 1.36.031v-.313h-.219c-.734 0-.75-.109-.75-.468v-.86h.985v-.312h-.985v-4.531c0-.204 0-.266-.172-.266-.078 0-.11 0-.187.125L.28-1.953v.312zm.046-.313H.563l2.421-3.719zm0 0" stroke="none"/></symbol></defs><use height="1052.362" width="744.094" y="134.765" x="223.432" xlink:href="#k"/><use height="1052.362" width="744.094" y="134.765" x="231.181" xlink:href="#l"/></g><g ns0:text="$-5$" ns0:preamble="/home/waldgeist/data/sphinx/test.tex" transform="translate(-518.398 212.292) scale(2.5424)"><defs><symbol overflow="visible" id="m"><path d="M6.563-2.297c.171 0 .359 0 .359-.203 0-.188-.188-.188-.36-.188h-5.39c-.172 0-.344 0-.344.188 0 .203.172.203.344.203zm0 0" stroke="none"/></symbol><symbol overflow="visible" id="n"><path d="M4.469-2c0-1.188-.813-2.188-1.89-2.188-.47 0-.907.157-1.267.516v-1.953c.204.063.532.125.844.125 1.235 0 1.938-.906 1.938-1.031 0-.063-.032-.11-.11-.11 0 0-.03 0-.078.032a3.22 3.22 0 0 1-1.36.296 3.4 3.4 0 0 1-1.327-.28c-.078-.032-.094-.032-.11-.032C1-6.625 1-6.547 1-6.391v2.954c0 .171 0 .25.14.25.079 0 .094-.016.141-.079.11-.156.469-.703 1.282-.703.515 0 .765.453.843.64.156.376.188.75.188 1.25 0 .36 0 .954-.25 1.376-.235.39-.61.64-1.063.64-.719 0-1.297-.53-1.469-1.109.032 0 .063.016.172.016.329 0 .5-.25.5-.485 0-.25-.171-.5-.5-.5-.14 0-.484.079-.484.532C.5-.75 1.188.219 2.297.219 3.453.219 4.469-.734 4.469-2zm0 0" stroke="none"/></symbol></defs><use height="1052.362" width="744.094" xlink:href="#m" x="223.432" y="134.765"/><use height="1052.362" width="744.094" xlink:href="#n" x="231.181" y="134.765"/></g><g transform="translate(-80.276 212.57) scale(2.5424)" ns0:preamble="/home/waldgeist/data/sphinx/test.tex" ns0:text="$2$"><defs><symbol id="o" overflow="visible"><path d="M1.266-.766l1.062-1.03c1.547-1.376 2.14-1.907 2.14-2.907 0-1.14-.89-1.938-2.109-1.938A1.843 1.843 0 0 0 .5-4.828c0 .547.5.547.531.547.172 0 .516-.11.516-.532a.513.513 0 0 0-.531-.515c-.079 0-.094 0-.125.016.218-.657.765-1.016 1.343-1.016.907 0 1.329.812 1.329 1.625 0 .797-.485 1.578-1.047 2.203L.609-.375C.5-.265.5-.235.5 0h3.703l.266-1.734h-.235C4.172-1.438 4.11-1 4-.844c-.063.078-.719.078-.938.078zm0 0" stroke="none"/></symbol></defs><use y="134.765" x="223.432" xlink:href="#o" transform="translate(-.019)" width="744.094" height="1052.362"/></g><g ns0:text="$3$" ns0:preamble="/home/waldgeist/data/sphinx/test.tex" transform="translate(-21.027 212.292) scale(2.5424)"><defs><symbol overflow="visible" id="p"><path d="M2.89-3.516c.813-.265 1.391-.953 1.391-1.75 0-.812-.875-1.375-1.828-1.375-1 0-1.765.594-1.765 1.36 0 .328.218.515.515.515.297 0 .5-.218.5-.515 0-.485-.469-.485-.61-.485.298-.5.954-.625 1.313-.625.422 0 .969.22.969 1.11 0 .125-.031.703-.281 1.14-.297.485-.64.516-.89.516a3.29 3.29 0 0 1-.392.031c-.078.016-.14.031-.14.125 0 .11.062.11.234.11h.438c.812 0 1.187.671 1.187 1.656 0 1.36-.687 1.64-1.125 1.64-.437 0-1.187-.171-1.531-.75.344.047.656-.171.656-.546a.537.537 0 0 0-.547-.563c-.25 0-.562.14-.562.578C.422-.437 1.344.22 2.437.22c1.22 0 2.126-.906 2.126-1.922 0-.813-.641-1.594-1.672-1.813zm0 0" stroke="none"/></symbol></defs><use height="1052.362" width="744.094" xlink:href="#p" x="223.432" y="134.765"/></g><g transform="translate(37.075 212.709) scale(2.5424)" ns0:preamble="/home/waldgeist/data/sphinx/test.tex" ns0:text="$4$"><defs><symbol id="q" overflow="visible"><path d="M2.938-1.64v.859c0 .36-.032.469-.766.469h-.203V0c.406-.031.922-.031 1.343-.031.422 0 .938 0 1.36.031v-.313h-.219c-.734 0-.75-.109-.75-.468v-.86h.985v-.312h-.985v-4.531c0-.204 0-.266-.172-.266-.078 0-.11 0-.187.125L.28-1.953v.312zm.046-.313H.563l2.421-3.719zm0 0" stroke="none"/></symbol></defs><use y="134.765" x="223.432" xlink:href="#q" width="744.094" height="1052.362"/></g><g ns0:text="$5$" ns0:preamble="/home/waldgeist/data/sphinx/test.tex" transform="translate(99.043 212.292) scale(2.5424)"><defs><symbol overflow="visible" id="r"><path d="M4.469-2c0-1.188-.813-2.188-1.89-2.188-.47 0-.907.157-1.267.516v-1.953c.204.063.532.125.844.125 1.235 0 1.938-.906 1.938-1.031 0-.063-.032-.11-.11-.11 0 0-.03 0-.078.032a3.22 3.22 0 0 1-1.36.296 3.4 3.4 0 0 1-1.327-.28c-.078-.032-.094-.032-.11-.032C1-6.625 1-6.547 1-6.391v2.954c0 .171 0 .25.14.25.079 0 .094-.016.141-.079.11-.156.469-.703 1.282-.703.515 0 .765.453.843.64.156.376.188.75.188 1.25 0 .36 0 .954-.25 1.376-.235.39-.61.64-1.063.64-.719 0-1.297-.53-1.469-1.109.032 0 .063.016.172.016.329 0 .5-.25.5-.485 0-.25-.171-.5-.5-.5-.14 0-.484.079-.484.532C.5-.75 1.188.219 2.297.219 3.453.219 4.469-.734 4.469-2zm0 0" stroke="none"/></symbol></defs><use height="1052.362" width="744.094" xlink:href="#r" x="223.432" y="134.765"/></g></g><g fill="#4d4d4d" stroke="#4d4d4d" stroke-width="1.18"><g ns0:preamble="/home/waldgeist/data/sphinx/test.tex" ns0:text="$-1$" transform="translate(-241.167 247.882) scale(2.5424)"><use y="134.765" x="223.432" xlink:href="#e" width="744.094" height="1052.362"/><use y="134.765" x="231.181" xlink:href="#f" width="744.094" height="1052.362"/></g><g ns0:text="$-2$" ns0:preamble="/home/waldgeist/data/sphinx/test.tex" transform="translate(-241.922 307.664) scale(2.5424)"><use height="1052.362" width="744.094" xlink:href="#g" x="223.432" y="134.765"/><use height="1052.362" width="744.094" xlink:href="#h" x="231.181" y="134.765"/></g><g ns0:preamble="/home/waldgeist/data/sphinx/test.tex" ns0:text="$-3$" transform="translate(-242.16 367.168) scale(2.5424)"><use y="134.765" x="223.432" xlink:href="#i" width="744.094" height="1052.362"/><use y="134.765" x="231.181" xlink:href="#j" width="744.094" height="1052.362"/></g><g ns0:text="$-4$" ns0:preamble="/home/waldgeist/data/sphinx/test.tex" transform="translate(-242.478 427.367) scale(2.5424)"><use xlink:href="#k" x="223.432" y="134.765" width="744.094" height="1052.362"/><use xlink:href="#l" x="231.181" y="134.765" width="744.094" height="1052.362"/></g><g ns0:preamble="/home/waldgeist/data/sphinx/test.tex" ns0:text="$-5$" transform="translate(-241.922 486.731) scale(2.5424)"><use y="134.765" x="223.432" xlink:href="#m" width="744.094" height="1052.362"/><use y="134.765" x="231.181" xlink:href="#n" width="744.094" height="1052.362"/></g><use xlink:href="#d" x="223.432" y="134.765" width="744.094" height="1052.362" transform="translate(-221.466 128.319) scale(2.5424)" ns0:text="$1$" ns0:preamble="/home/waldgeist/data/sphinx/test.tex"/><use height="1052.362" width="744.094" transform="translate(-222.22 68.537) scale(2.5424)" xlink:href="#o" x="223.432" y="134.765" ns0:text="$2$" ns0:preamble="/home/waldgeist/data/sphinx/test.tex"/><use y="134.765" x="223.432" xlink:href="#p" width="744.094" height="1052.362" transform="translate(-222.46 8.477) scale(2.5424)" ns0:preamble="/home/waldgeist/data/sphinx/test.tex" ns0:text="$3$"/><use height="1052.362" width="744.094" xlink:href="#q" x="223.432" y="134.765" transform="translate(-222.777 -50.887) scale(2.5424)" ns0:text="$4$" ns0:preamble="/home/waldgeist/data/sphinx/test.tex"/><use y="134.765" x="223.432" xlink:href="#r" width="744.094" height="1052.362" transform="translate(-222.22 -111.086) scale(2.5424)" ns0:preamble="/home/waldgeist/data/sphinx/test.tex" ns0:text="$5$"/></g><g stroke="#ccc" stroke-width="1.018" fill="none"><path d="M871.292 223.577v597.956m59.796-597.956v597.956m59.795-597.956v597.956m59.796-597.956v597.956m59.795-597.956v597.956m59.796-597.956v597.956m59.796-597.956v597.956m59.795-597.956v597.956m59.796-597.956v597.956M811.496 283.373h597.956m-597.956 59.796h597.956m-597.956 59.795h597.956M811.496 462.76h597.956m-597.956 59.795h597.956m-597.956 59.796h597.956m-597.956 59.796h597.956m-597.956 59.795h597.956m-597.956 59.796h597.956" stroke-width="1.5"/><path d="M817.476 223.577v597.956m5.98-597.956v597.956m5.979-597.956v597.956m5.98-597.956v597.956m5.979-597.956v597.956m5.98-597.956v597.956m5.979-597.956v597.956m5.98-597.956v597.956m5.979-597.956v597.956m11.96-597.956v597.956m5.979-597.956v597.956m5.979-597.956v597.956m5.98-597.956v597.956m5.98-597.956v597.956m5.98-597.956v597.956m5.979-597.956v597.956m5.979-597.956v597.956m5.98-597.956v597.956m11.959-597.956v597.956m5.98-597.956v597.956m5.979-597.956v597.956m5.98-597.956v597.956m5.979-597.956v597.956m5.98-597.956v597.956m5.98-597.956v597.956m5.979-597.956v597.956m5.98-597.956v597.956m11.959-597.956v597.956m5.979-597.956v597.956m5.98-597.956v597.956m5.979-597.956v597.956m5.98-597.956v597.956m5.979-597.956v597.956m5.98-597.956v597.956m5.98-597.956v597.956m5.98-597.956v597.956m11.958-597.956v597.956m5.98-597.956v597.956m5.98-597.956v597.956m5.979-597.956v597.956m5.98-597.956v597.956m5.979-597.956v597.956m5.98-597.956v597.956m5.979-597.956v597.956m5.98-597.956v597.956m11.959-597.956v597.956m5.98-597.956v597.956m5.979-597.956v597.956m5.98-597.956v597.956m5.979-597.956v597.956m5.98-597.956v597.956m5.979-597.956v597.956m5.979-597.956v597.956m5.98-597.956v597.956m11.96-597.956v597.956m5.98-597.956v597.956m5.979-597.956v597.956m5.979-597.956v597.956m5.98-597.956v597.956m5.979-597.956v597.956m5.98-597.956v597.956m5.98-597.956v597.956m5.979-597.956v597.956m11.959-597.956v597.956m5.98-597.956v597.956m5.979-597.956v597.956m5.98-597.956v597.956m5.979-597.956v597.956m5.98-597.956v597.956m5.98-597.956v597.956m5.979-597.956v597.956m5.98-597.956v597.956m11.958-597.956v597.956m5.98-597.956v597.956m5.98-597.956v597.956m5.98-597.956v597.956m5.98-597.956v597.956m5.979-597.956v597.956m5.979-597.956v597.956m5.98-597.956v597.956m5.979-597.956v597.956m11.959-597.956v597.956m5.98-597.956v597.956m5.98-597.956v597.956m5.979-597.956v597.956m5.98-597.956v597.956m5.979-597.956v597.956m5.98-597.956v597.956m5.979-597.956v597.956m5.98-597.956v597.956M811.496 229.557h597.956m-597.956 5.979h597.956m-597.956 5.98h597.956m-597.956 5.98h597.956m-597.956 5.979h597.956m-597.956 5.98h597.956m-597.956 5.979h597.956m-597.956 5.98h597.956m-597.956 5.979h597.956m-597.956 11.959h597.956m-597.956 5.98h597.956m-597.956 5.98h597.956m-597.956 5.979h597.956m-597.956 5.979h597.956m-597.956 5.98h597.956m-597.956 5.98h597.956m-597.956 5.98h597.956m-597.956 5.979h597.956m-597.956 11.959h597.956m-597.956 5.98h597.956m-597.956 5.979h597.956m-597.956 5.98h597.956m-597.956 5.979h597.956m-597.956 5.98h597.956m-597.956 5.979h597.956m-597.956 5.98h597.956m-597.956 5.98h597.956m-597.956 11.959h597.956m-597.956 5.979h597.956m-597.956 5.98h597.956m-597.956 5.979h597.956m-597.956 5.98h597.956m-597.956 5.98h597.956m-597.956 5.979h597.956M811.496 450.8h597.956m-597.956 5.98h597.956m-597.956 11.96h597.956m-597.956 5.979h597.956m-597.956 5.979h597.956m-597.956 5.98h597.956m-597.956 5.98h597.956m-597.956 5.979h597.956m-597.956 5.98h597.956m-597.956 5.979h597.956m-597.956 5.98h597.956m-597.956 11.959h597.956m-597.956 5.979h597.956m-597.956 5.98h597.956m-597.956 5.98h597.956m-597.956 5.979h597.956m-597.956 5.98h597.956m-597.956 5.979h597.956m-597.956 5.98h597.956m-597.956 5.979h597.956M811.496 588.33h597.956m-597.956 5.98h597.956m-597.956 5.98h597.956m-597.956 5.98h597.956m-597.956 5.979h597.956m-597.956 5.979h597.956m-597.956 5.98h597.956m-597.956 5.979h597.956m-597.956 5.98h597.956m-597.956 11.959h597.956m-597.956 5.98h597.956m-597.956 5.979h597.956m-597.956 5.98h597.956m-597.956 5.979h597.956m-597.956 5.98h597.956m-597.956 5.979h597.956m-597.956 5.98h597.956m-597.956 5.98h597.956m-597.956 11.959h597.956m-597.956 5.979h597.956m-597.956 5.979h597.956m-597.956 5.98h597.956m-597.956 5.98h597.956m-597.956 5.98h597.956m-597.956 5.98h597.956m-597.956 5.979h597.956m-597.956 5.979h597.956m-597.956 11.959h597.956m-597.956 5.98h597.956m-597.956 5.979h597.956m-597.956 5.98h597.956m-597.956 5.98h597.956m-597.956 5.979h597.956m-597.956 5.98h597.956m-597.956 5.979h597.956m-597.956 5.98h597.956" stroke-width=".5"/><path stroke-width="1.5" d="M811.496 223.577h597.956v597.956H811.496z"/></g><g transform="translate(683.15 -579.11) scale(1.64486)"><use xlink:href="#a" transform="rotate(-90 260.13 669.425)" width="744.094" height="1052.362"/><path d="M267.064 597.056h-14.788m14.788-36.353h-14.788m14.788-36.353h-14.788m14.788-36.353h-14.788m14.788 218.118h-14.788m14.788 36.353h-14.788m14.788 36.352h-14.788m14.788 36.354h-14.788m14.788 36.352h-14.788" fill="none" stroke="#000" stroke-width=".947"/><path d="M266.94 633.409H252.4" fill="none" stroke="#000" stroke-width="1.216"/></g><path d="M1450.484 543.724c.255-1.022 1.214-4.793 4.026-4.793.191 0 1.214 0 2.045.511-1.15.256-1.917 1.215-1.917 2.237 0 .64.447 1.406 1.533 1.406.895 0 2.173-.703 2.173-2.364 0-2.11-2.364-2.685-3.77-2.685-2.365 0-3.77 2.173-4.282 3.068-1.023-2.684-3.195-3.068-4.41-3.068-4.217 0-6.582 5.24-6.582 6.263 0 .448.447.448.511.448.32 0 .448-.128.512-.448 1.406-4.345 4.09-5.368 5.496-5.368.766 0 2.172.384 2.172 2.748 0 1.278-.703 3.962-2.172 9.714-.64 2.492-2.11 4.218-3.899 4.218-.255 0-1.15 0-2.045-.512 1.023-.255 1.917-1.086 1.917-2.236 0-1.087-.894-1.406-1.47-1.406-1.277 0-2.236 1.022-2.236 2.364 0 1.853 1.981 2.684 3.77 2.684 2.748 0 4.218-2.876 4.282-3.067.511 1.47 1.981 3.067 4.41 3.067 4.217 0 6.518-5.24 6.518-6.263 0-.447-.32-.447-.447-.447-.384 0-.448.192-.576.447-1.342 4.41-4.09 5.369-5.368 5.369-1.597 0-2.236-1.279-2.236-2.684 0-.895.191-1.79.639-3.58zm0 0"/><g transform="translate(683.15 -579.11) scale(1.64486)"><path d="M49.357 669.425h417.187" fill="none" stroke="#000" stroke-width="1.824" marker-end="url(#b)"/><path d="M295.897 662.12v14.54" fill="none" stroke="#000" stroke-width="1.216"/><use xlink:href="#c" transform="translate(36.353)" width="744.094" height="1052.362"/><use xlink:href="#c" transform="translate(72.706)" width="744.094" height="1052.362"/><use xlink:href="#c" transform="translate(109.059)" width="744.094" height="1052.362"/><use xlink:href="#c" transform="translate(-145.412)" width="744.094" height="1052.362"/><use xlink:href="#c" transform="translate(-181.765)" width="744.094" height="1052.362"/><use xlink:href="#c" transform="translate(-218.118)" width="744.094" height="1052.362"/><use height="1052.362" width="744.094" transform="translate(-108.544 .07)" xlink:href="#c"/><use height="744.094" width="1052.362" transform="translate(-72.456 .035)" xlink:href="#c"/><use height="744.094" width="1052.362" transform="translate(145.662 .035)" xlink:href="#c"/></g><g fill="#4d4d4d" stroke="green" stroke-width="1.18"><g ns0:preamble="/home/waldgeist/data/sphinx/test.tex" ns0:text="$-1$" transform="translate(494.447 247.882) scale(2.5424)"><use y="134.765" x="223.432" xlink:href="#e" width="744.094" height="1052.362"/><use y="134.765" x="231.181" xlink:href="#f" width="744.094" height="1052.362"/></g><g ns0:text="$-2$" ns0:preamble="/home/waldgeist/data/sphinx/test.tex" transform="translate(493.692 307.664) scale(2.5424)"><use height="1052.362" width="744.094" xlink:href="#g" x="223.432" y="134.765"/><use height="1052.362" width="744.094" xlink:href="#h" x="231.181" y="134.765"/></g><g ns0:preamble="/home/waldgeist/data/sphinx/test.tex" ns0:text="$-3$" transform="translate(493.454 367.168) scale(2.5424)"><use y="134.765" x="223.432" xlink:href="#i" width="744.094" height="1052.362"/><use y="134.765" x="231.181" xlink:href="#j" width="744.094" height="1052.362"/></g><g ns0:text="$-4$" ns0:preamble="/home/waldgeist/data/sphinx/test.tex" transform="translate(493.136 427.367) scale(2.5424)"><use xlink:href="#k" x="223.432" y="134.765" width="744.094" height="1052.362"/><use xlink:href="#l" x="231.181" y="134.765" width="744.094" height="1052.362"/></g><g ns0:preamble="/home/waldgeist/data/sphinx/test.tex" ns0:text="$-5$" transform="translate(493.692 486.731) scale(2.5424)"><use y="134.765" x="223.432" xlink:href="#m" width="744.094" height="1052.362"/><use y="134.765" x="231.181" xlink:href="#n" width="744.094" height="1052.362"/></g><use xlink:href="#d" x="223.432" y="134.765" width="744.094" height="1052.362" transform="translate(514.148 128.319) scale(2.5424)" ns0:text="$1$" ns0:preamble="/home/waldgeist/data/sphinx/test.tex"/><use height="1052.362" width="744.094" transform="translate(513.393 68.537) scale(2.5424)" xlink:href="#o" x="223.432" y="134.765" ns0:text="$2$" ns0:preamble="/home/waldgeist/data/sphinx/test.tex"/><use y="134.765" x="223.432" xlink:href="#p" width="744.094" height="1052.362" transform="translate(513.155 8.477) scale(2.5424)" ns0:preamble="/home/waldgeist/data/sphinx/test.tex" ns0:text="$3$"/><use height="1052.362" width="744.094" xlink:href="#q" x="223.432" y="134.765" transform="translate(512.837 -50.887) scale(2.5424)" ns0:text="$4$" ns0:preamble="/home/waldgeist/data/sphinx/test.tex"/><use y="134.765" x="223.432" xlink:href="#r" width="744.094" height="1052.362" transform="translate(513.393 -111.086) scale(2.5424)" ns0:preamble="/home/waldgeist/data/sphinx/test.tex" ns0:text="$5$"/></g><g fill="#4d4d4d" stroke="green" stroke-width="1.18"><use xlink:href="#d" x="223.432" y="134.765" width="744.094" height="1052.362" transform="translate(595.98 212.57) scale(2.5424)" ns0:text="$1$" ns0:preamble="/home/waldgeist/data/sphinx/test.tex"/><g ns0:preamble="/home/waldgeist/data/sphinx/test.tex" ns0:text="$-1$" transform="translate(456.462 212.57) scale(2.5424)"><use y="134.765" x="223.432" xlink:href="#e" width="744.094" height="1052.362"/><use y="134.765" x="231.181" xlink:href="#f" width="744.094" height="1052.362"/></g><g ns0:text="$-2$" ns0:preamble="/home/waldgeist/data/sphinx/test.tex" transform="translate(396.67 212.57) scale(2.5424)"><use height="1052.362" width="744.094" xlink:href="#g" x="223.432" y="134.765"/><use height="1052.362" width="744.094" xlink:href="#h" x="231.181" y="134.765"/></g><g ns0:preamble="/home/waldgeist/data/sphinx/test.tex" ns0:text="$-3$" transform="translate(337.359 212.292) scale(2.5424)"><use y="134.765" x="223.432" xlink:href="#i" width="744.094" height="1052.362"/><use y="134.765" x="231.181" xlink:href="#j" width="744.094" height="1052.362"/></g><g ns0:text="$-4$" ns0:preamble="/home/waldgeist/data/sphinx/test.tex" transform="translate(275.27 212.709) scale(2.5424)"><use xlink:href="#k" x="223.432" y="134.765" width="744.094" height="1052.362"/><use xlink:href="#l" x="231.181" y="134.765" width="744.094" height="1052.362"/></g><g ns0:preamble="/home/waldgeist/data/sphinx/test.tex" ns0:text="$-5$" transform="translate(217.772 212.292) scale(2.5424)"><use y="134.765" x="223.432" xlink:href="#m" width="744.094" height="1052.362"/><use y="134.765" x="231.181" xlink:href="#n" width="744.094" height="1052.362"/></g><use height="1052.362" width="744.094" transform="translate(655.847 212.57) scale(2.5424)" xlink:href="#o" x="223.432" y="134.765" ns0:text="$2$" ns0:preamble="/home/waldgeist/data/sphinx/test.tex"/><use y="134.765" x="223.432" xlink:href="#p" width="744.094" height="1052.362" transform="translate(715.144 212.292) scale(2.5424)" ns0:preamble="/home/waldgeist/data/sphinx/test.tex" ns0:text="$3$"/><use height="1052.362" width="744.094" xlink:href="#q" x="223.432" y="134.765" transform="translate(773.246 212.709) scale(2.5424)" ns0:text="$4$" ns0:preamble="/home/waldgeist/data/sphinx/test.tex"/><use y="134.765" x="223.432" xlink:href="#r" width="744.094" height="1052.362" transform="translate(835.214 212.292) scale(2.5424)" ns0:preamble="/home/waldgeist/data/sphinx/test.tex" ns0:text="$5$"/></g><path d="M1111.028 943.916v-75.222" fill="none" stroke="#000"/><path d="M117.632 779.164l514.242-514.242" fill="green" stroke="green" stroke-width="3" stroke-linecap="round"/><g ns0:preamble="/home/waldgeist/data/sphinx/test.tex" ns0:text="$y = f(x)$" transform="translate(-616.96 -398.686) scale(4.0996)"><defs><symbol id="s" overflow="visible"><path d="M4.844-3.797c.047-.14.047-.156.047-.234 0-.172-.141-.266-.297-.266a.455.455 0 0 0-.344.203c-.016.063-.11.36-.14.547-.079.25-.141.531-.204.797L3.453-.953c-.031.14-.469.844-1.125.844-.5 0-.61-.438-.61-.813 0-.453.173-1.078.5-1.953.157-.406.204-.516.204-.719 0-.437-.313-.812-.813-.812-.953 0-1.312 1.453-1.312 1.531 0 .11.094.11.11.11.109 0 .109-.032.156-.188.28-.938.671-1.235 1.015-1.235.078 0 .25 0 .25.313 0 .25-.11.516-.172.703-.406 1.063-.578 1.625-.578 2.094 0 .89.625 1.187 1.219 1.187.39 0 .719-.171 1-.453-.125.516-.25 1.016-.64 1.547-.266.328-.641.625-1.095.625-.14 0-.593-.031-.765-.422.156 0 .297 0 .422-.125a.493.493 0 0 0 .203-.406c0-.313-.266-.344-.36-.344C.829.531.5.687.5 1.171c0 .5.438.876 1.063.876 1.015 0 2.046-.906 2.328-2.031zm0 0"/></symbol><symbol id="u" overflow="visible"><path d="M3.656-3.984h.86c.203 0 .296 0 .296-.204 0-.109-.093-.109-.265-.109h-.828l.203-1.14c.047-.204.187-.907.25-1.032.078-.187.25-.343.469-.343.03 0 .296 0 .484.187a.557.557 0 0 0-.547.531c0 .235.188.36.375.36.266 0 .547-.235.547-.61 0-.453-.453-.687-.86-.687-.343 0-.968.187-1.265 1.172-.063.203-.094.312-.328 1.562h-.688c-.203 0-.312 0-.312.188 0 .125.094.125.281.125h.656L2.25-.047c-.188.969-.36 1.875-.875 1.875-.047 0-.281 0-.484-.187.468-.032.562-.391.562-.532 0-.234-.187-.359-.375-.359-.266 0-.547.234-.547.61 0 .437.438.687.844.687.547 0 .953-.594 1.125-.969.328-.625.547-1.828.563-1.906zm0 0"/></symbol><symbol id="w" overflow="visible"><path d="M3.328-3.016c.063-.25.297-1.171.985-1.171.046 0 .296 0 .5.125a.578.578 0 0 0-.47.546c0 .157.11.344.376.344a.546.546 0 0 0 .531-.578c0-.516-.578-.656-.922-.656-.578 0-.922.531-1.047.75-.25-.656-.781-.75-1.078-.75-1.031 0-1.61 1.281-1.61 1.531 0 .11.11.11.126.11.078 0 .11-.032.125-.11.344-1.063 1-1.313 1.344-1.313.187 0 .53.094.53.672 0 .313-.171.97-.53 2.375-.157.61-.516 1.032-.954 1.032-.062 0-.28 0-.5-.125.25-.063.47-.266.47-.547 0-.266-.22-.344-.36-.344-.313 0-.547.25-.547.578 0 .453.484.656.922.656.672 0 1.031-.703 1.047-.75.125.36.484.75 1.078.75 1.031 0 1.594-1.28 1.594-1.53 0-.11-.079-.11-.11-.11-.094 0-.11.047-.14.11-.329 1.077-1 1.312-1.313 1.312-.39 0-.547-.313-.547-.657 0-.218.047-.437.156-.875zm0 0"/></symbol><symbol id="t" overflow="visible"><path d="M6.844-3.266c.156 0 .343 0 .343-.187 0-.203-.187-.203-.328-.203H.891c-.141 0-.329 0-.329.203 0 .187.188.187.329.187zm.015 1.938c.141 0 .329 0 .329-.203 0-.188-.188-.188-.344-.188H.89c-.141 0-.329 0-.329.188 0 .203.188.203.329.203zm0 0"/></symbol><symbol id="v" overflow="visible"><path d="M3.297 2.39c0-.03 0-.046-.172-.218C1.891.922 1.562-.968 1.562-2.5c0-1.734.375-3.469 1.61-4.703.125-.125.125-.14.125-.172 0-.078-.031-.11-.094-.11-.11 0-1 .688-1.594 1.954C1.11-4.438.984-3.328.984-2.5c0 .781.11 1.984.657 3.125C2.25 1.844 3.094 2.5 3.203 2.5c.063 0 .094-.031.094-.11zm0 0"/></symbol><symbol id="x" overflow="visible"><path d="M2.875-2.5c0-.766-.11-1.969-.656-3.11C1.625-6.827.766-7.483.672-7.483a.107.107 0 0 0-.11.109c0 .031 0 .047.188.234.984.985 1.547 2.563 1.547 4.641C2.297-.78 1.937.97.703 2.22c-.14.125-.14.14-.14.172 0 .062.046.109.109.109.094 0 1-.688 1.578-1.953.516-1.094.625-2.203.625-3.047zm0 0"/></symbol></defs><use y="134.765" x="223.432" xlink:href="#s" width="1488.189" height="1052.362"/><use y="134.765" x="231.441" xlink:href="#t" width="1488.189" height="1052.362"/><use y="134.765" x="241.957" xlink:href="#u" width="1488.189" height="1052.362"/><use y="134.765" x="247.907" xlink:href="#v" width="1488.189" height="1052.362"/><use y="134.765" x="251.782" xlink:href="#w" width="1488.189" height="1052.362"/><use y="134.765" x="257.476" xlink:href="#x" width="1488.189" height="1052.362"/></g><path d="M825.976 462.76h570.105" fill="#5500d4" stroke="#5500d4" stroke-width="3" stroke-linecap="round"/><g ns0:text="$y = f\'(x)$" ns0:preamble="/home/waldgeist/data/sphinx/test.tex" transform="translate(113.032 -398.686) scale(4.0996)"><defs><symbol overflow="visible" id="y"><path d="M4.844-3.797c.047-.14.047-.156.047-.234 0-.172-.141-.266-.297-.266a.455.455 0 0 0-.344.203c-.016.063-.11.36-.14.547-.079.25-.141.531-.204.797L3.453-.953c-.031.14-.469.844-1.125.844-.5 0-.61-.438-.61-.813 0-.453.173-1.078.5-1.953.157-.406.204-.516.204-.719 0-.437-.313-.812-.813-.812-.953 0-1.312 1.453-1.312 1.531 0 .11.094.11.11.11.109 0 .109-.032.156-.188.28-.938.671-1.235 1.015-1.235.078 0 .25 0 .25.313 0 .25-.11.516-.172.703-.406 1.063-.578 1.625-.578 2.094 0 .89.625 1.187 1.219 1.187.39 0 .719-.171 1-.453-.125.516-.25 1.016-.64 1.547-.266.328-.641.625-1.095.625-.14 0-.593-.031-.765-.422.156 0 .297 0 .422-.125a.493.493 0 0 0 .203-.406c0-.313-.266-.344-.36-.344C.829.531.5.687.5 1.171c0 .5.438.876 1.063.876 1.015 0 2.046-.906 2.328-2.031zm0 0"/></symbol><symbol overflow="visible" id="A"><path d="M3.656-3.984h.86c.203 0 .296 0 .296-.204 0-.109-.093-.109-.265-.109h-.828l.203-1.14c.047-.204.187-.907.25-1.032.078-.187.25-.343.469-.343.03 0 .296 0 .484.187a.557.557 0 0 0-.547.531c0 .235.188.36.375.36.266 0 .547-.235.547-.61 0-.453-.453-.687-.86-.687-.343 0-.968.187-1.265 1.172-.063.203-.094.312-.328 1.562h-.688c-.203 0-.312 0-.312.188 0 .125.094.125.281.125h.656L2.25-.047c-.188.969-.36 1.875-.875 1.875-.047 0-.281 0-.484-.187.468-.032.562-.391.562-.532 0-.234-.187-.359-.375-.359-.266 0-.547.234-.547.61 0 .437.438.687.844.687.547 0 .953-.594 1.125-.969.328-.625.547-1.828.563-1.906zm0 0"/></symbol><symbol overflow="visible" id="D"><path d="M3.328-3.016c.063-.25.297-1.171.985-1.171.046 0 .296 0 .5.125a.578.578 0 0 0-.47.546c0 .157.11.344.376.344a.546.546 0 0 0 .531-.578c0-.516-.578-.656-.922-.656-.578 0-.922.531-1.047.75-.25-.656-.781-.75-1.078-.75-1.031 0-1.61 1.281-1.61 1.531 0 .11.11.11.126.11.078 0 .11-.032.125-.11.344-1.063 1-1.313 1.344-1.313.187 0 .53.094.53.672 0 .313-.171.97-.53 2.375-.157.61-.516 1.032-.954 1.032-.062 0-.28 0-.5-.125.25-.063.47-.266.47-.547 0-.266-.22-.344-.36-.344-.313 0-.547.25-.547.578 0 .453.484.656.922.656.672 0 1.031-.703 1.047-.75.125.36.484.75 1.078.75 1.031 0 1.594-1.28 1.594-1.53 0-.11-.079-.11-.11-.11-.094 0-.11.047-.14.11-.329 1.077-1 1.312-1.313 1.312-.39 0-.547-.313-.547-.657 0-.218.047-.437.156-.875zm0 0"/></symbol><symbol overflow="visible" id="z"><path d="M6.844-3.266c.156 0 .343 0 .343-.187 0-.203-.187-.203-.328-.203H.891c-.141 0-.329 0-.329.203 0 .187.188.187.329.187zm.015 1.938c.141 0 .329 0 .329-.203 0-.188-.188-.188-.344-.188H.89c-.141 0-.329 0-.329.188 0 .203.188.203.329.203zm0 0"/></symbol><symbol overflow="visible" id="C"><path d="M3.297 2.39c0-.03 0-.046-.172-.218C1.891.922 1.562-.968 1.562-2.5c0-1.734.375-3.469 1.61-4.703.125-.125.125-.14.125-.172 0-.078-.031-.11-.094-.11-.11 0-1 .688-1.594 1.954C1.11-4.438.984-3.328.984-2.5c0 .781.11 1.984.657 3.125C2.25 1.844 3.094 2.5 3.203 2.5c.063 0 .094-.031.094-.11zm0 0"/></symbol><symbol overflow="visible" id="E"><path d="M2.875-2.5c0-.766-.11-1.969-.656-3.11C1.625-6.827.766-7.483.672-7.483a.107.107 0 0 0-.11.109c0 .031 0 .047.188.234.984.985 1.547 2.563 1.547 4.641C2.297-.78 1.937.97.703 2.22c-.14.125-.14.14-.14.172 0 .062.046.109.109.109.094 0 1-.688 1.578-1.953.516-1.094.625-2.203.625-3.047zm0 0"/></symbol><symbol overflow="visible" id="B"><path d="M2.016-3.297c.062-.11.062-.172.062-.219 0-.218-.187-.375-.406-.375-.266 0-.344.22-.375.329L.375-.547a.33.33 0 0 0-.047.11c0 .078.219.156.281.156.047 0 .047-.016.094-.125zm0 0"/></symbol></defs><use height="1052.362" width="1488.189" xlink:href="#y" x="223.432" y="134.765"/><use height="1052.362" width="1488.189" xlink:href="#z" x="231.441" y="134.765"/><use height="1052.362" width="1488.189" xlink:href="#A" x="241.957" y="134.765"/><use height="1052.362" width="1488.189" xlink:href="#B" x="247.907" y="131.15"/><use height="1052.362" width="1488.189" xlink:href="#C" x="250.702" y="134.765"/><use height="1052.362" width="1488.189" xlink:href="#D" x="254.577" y="134.765"/><use height="1052.362" width="1488.189" xlink:href="#E" x="260.271" y="134.765"/></g><g transform="translate(-374.737 -11.03) scale(2.5424)" ns0:preamble="/home/waldgeist/data/sphinx/test.tex" ns0:text="\\begin{align*}\ny &amp;= x^1 \n\\end{align*}" fill="green" stroke="green" stroke-width="1.18"><defs><symbol id="F" overflow="visible"><path d="M4.844-3.797c.047-.14.047-.156.047-.234 0-.172-.141-.266-.297-.266a.455.455 0 0 0-.344.203c-.016.063-.11.36-.14.547-.079.25-.141.531-.204.797L3.453-.953c-.031.14-.469.844-1.125.844-.5 0-.61-.438-.61-.813 0-.453.173-1.078.5-1.953.157-.406.204-.516.204-.719 0-.437-.313-.812-.813-.812-.953 0-1.312 1.453-1.312 1.531 0 .11.094.11.11.11.109 0 .109-.032.156-.188.28-.938.671-1.235 1.015-1.235.078 0 .25 0 .25.313 0 .25-.11.516-.172.703-.406 1.063-.578 1.625-.578 2.094 0 .89.625 1.187 1.219 1.187.39 0 .719-.171 1-.453-.125.516-.25 1.016-.64 1.547-.266.328-.641.625-1.095.625-.14 0-.593-.031-.765-.422.156 0 .297 0 .422-.125a.493.493 0 0 0 .203-.406c0-.313-.266-.344-.36-.344C.829.531.5.687.5 1.171c0 .5.438.876 1.063.876 1.015 0 2.046-.906 2.328-2.031zm0 0" stroke="none"/></symbol><symbol id="H" overflow="visible"><path d="M3.328-3.016c.063-.25.297-1.171.985-1.171.046 0 .296 0 .5.125a.578.578 0 0 0-.47.546c0 .157.11.344.376.344a.546.546 0 0 0 .531-.578c0-.516-.578-.656-.922-.656-.578 0-.922.531-1.047.75-.25-.656-.781-.75-1.078-.75-1.031 0-1.61 1.281-1.61 1.531 0 .11.11.11.126.11.078 0 .11-.032.125-.11.344-1.063 1-1.313 1.344-1.313.187 0 .53.094.53.672 0 .313-.171.97-.53 2.375-.157.61-.516 1.032-.954 1.032-.062 0-.28 0-.5-.125.25-.063.47-.266.47-.547 0-.266-.22-.344-.36-.344-.313 0-.547.25-.547.578 0 .453.484.656.922.656.672 0 1.031-.703 1.047-.75.125.36.484.75 1.078.75 1.031 0 1.594-1.28 1.594-1.53 0-.11-.079-.11-.11-.11-.094 0-.11.047-.14.11-.329 1.077-1 1.312-1.313 1.312-.39 0-.547-.313-.547-.657 0-.218.047-.437.156-.875zm0 0" stroke="none"/></symbol><symbol id="G" overflow="visible"><path d="M6.844-3.266c.156 0 .343 0 .343-.187 0-.203-.187-.203-.328-.203H.891c-.141 0-.329 0-.329.203 0 .187.188.187.329.187zm.015 1.938c.141 0 .329 0 .329-.203 0-.188-.188-.188-.344-.188H.89c-.141 0-.329 0-.329.188 0 .203.188.203.329.203zm0 0" stroke="none"/></symbol><symbol id="I" overflow="visible"><path d="M2.328-4.438c0-.187 0-.187-.203-.187-.453.438-1.078.438-1.36.438v.25c.157 0 .626 0 1-.188v3.547c0 .234 0 .328-.687.328H.812V0c.125 0 .985-.031 1.235-.031.219 0 1.094.031 1.25.031v-.25H3.03c-.703 0-.703-.094-.703-.328zm0 0" stroke="none"/></symbol></defs><use y="134.765" x="380.943" xlink:href="#F" width="1488.189" height="1052.362"/><use y="134.765" x="388.953" xlink:href="#G" width="1488.189" height="1052.362"/><use y="134.765" x="399.469" xlink:href="#H" width="1488.189" height="1052.362"/><use y="130.651" x="405.163" xlink:href="#I" width="1488.189" height="1052.362"/></g><g transform="translate(358.834 148.613) scale(2.5424)" ns0:preamble="/home/waldgeist/data/sphinx/test.tex" ns0:text="\\begin{align*}\ny &amp;= x^0\n\\end{align*}" fill="#5500d4" stroke="green" stroke-width="1.18"><defs><symbol id="J" overflow="visible"><path d="M4.844-3.797c.047-.14.047-.156.047-.234 0-.172-.141-.266-.297-.266a.455.455 0 0 0-.344.203c-.016.063-.11.36-.14.547-.079.25-.141.531-.204.797L3.453-.953c-.031.14-.469.844-1.125.844-.5 0-.61-.438-.61-.813 0-.453.173-1.078.5-1.953.157-.406.204-.516.204-.719 0-.437-.313-.812-.813-.812-.953 0-1.312 1.453-1.312 1.531 0 .11.094.11.11.11.109 0 .109-.032.156-.188.28-.938.671-1.235 1.015-1.235.078 0 .25 0 .25.313 0 .25-.11.516-.172.703-.406 1.063-.578 1.625-.578 2.094 0 .89.625 1.187 1.219 1.187.39 0 .719-.171 1-.453-.125.516-.25 1.016-.64 1.547-.266.328-.641.625-1.095.625-.14 0-.593-.031-.765-.422.156 0 .297 0 .422-.125a.493.493 0 0 0 .203-.406c0-.313-.266-.344-.36-.344C.829.531.5.687.5 1.171c0 .5.438.876 1.063.876 1.015 0 2.046-.906 2.328-2.031zm0 0" stroke="none"/></symbol><symbol id="L" overflow="visible"><path d="M3.328-3.016c.063-.25.297-1.171.985-1.171.046 0 .296 0 .5.125a.578.578 0 0 0-.47.546c0 .157.11.344.376.344a.546.546 0 0 0 .531-.578c0-.516-.578-.656-.922-.656-.578 0-.922.531-1.047.75-.25-.656-.781-.75-1.078-.75-1.031 0-1.61 1.281-1.61 1.531 0 .11.11.11.126.11.078 0 .11-.032.125-.11.344-1.063 1-1.313 1.344-1.313.187 0 .53.094.53.672 0 .313-.171.97-.53 2.375-.157.61-.516 1.032-.954 1.032-.062 0-.28 0-.5-.125.25-.063.47-.266.47-.547 0-.266-.22-.344-.36-.344-.313 0-.547.25-.547.578 0 .453.484.656.922.656.672 0 1.031-.703 1.047-.75.125.36.484.75 1.078.75 1.031 0 1.594-1.28 1.594-1.53 0-.11-.079-.11-.11-.11-.094 0-.11.047-.14.11-.329 1.077-1 1.312-1.313 1.312-.39 0-.547-.313-.547-.657 0-.218.047-.437.156-.875zm0 0" stroke="none"/></symbol><symbol id="K" overflow="visible"><path d="M6.844-3.266c.156 0 .343 0 .343-.187 0-.203-.187-.203-.328-.203H.891c-.141 0-.329 0-.329.203 0 .187.188.187.329.187zm.015 1.938c.141 0 .329 0 .329-.203 0-.188-.188-.188-.344-.188H.89c-.141 0-.329 0-.329.188 0 .203.188.203.329.203zm0 0" stroke="none"/></symbol><symbol id="M" overflow="visible"><path d="M3.594-2.219c0-.765-.094-1.328-.406-1.812-.22-.313-.657-.594-1.204-.594C.36-4.625.36-2.719.36-2.219c0 .5 0 2.36 1.625 2.36 1.61 0 1.61-1.86 1.61-2.36zM1.984-.063c-.328 0-.75-.187-.89-.75C1-1.219 1-1.796 1-2.313c0-.515 0-1.046.094-1.421.156-.547.593-.704.89-.704.375 0 .735.235.86.641.11.375.125.875.125 1.485 0 .515 0 1.03-.094 1.468-.14.64-.61.781-.89.781zm0 0" stroke="none"/></symbol></defs><use y="134.765" x="380.943" xlink:href="#J" width="1488.189" height="1052.362"/><use y="134.765" x="388.953" xlink:href="#K" width="1488.189" height="1052.362"/><use y="134.765" x="399.469" xlink:href="#L" width="1488.189" height="1052.362"/><use y="130.651" x="405.163" xlink:href="#M" width="1488.189" height="1052.362"/></g></svg>