<svg xmlns:ns0="http://www.iki.fi/pav/software/textext/" xmlns="http://www.w3.org/2000/svg" xmlns:xlink="http://www.w3.org/1999/xlink" width="1052.362" height="744.094"><title>Untersumme und Obersumme</title><defs><marker orient="auto" id="a" overflow="visible"><path d="M2.308 0l-3.46 2v-4l3.46 2z" fill-rule="evenodd" stroke="#000" stroke-width=".4pt"/></marker></defs><path style="marker:none" color="#000" fill="#fff" stroke="#fff" stroke-linecap="round" stroke-linejoin="round" stroke-dasharray=".99999999,2.99999988" overflow="visible" d="M3.996 118.393h1048.366V625.7H3.996z"/><path d="M526.181 149.43v445.234" style="marker:none" color="#000" fill="none" stroke="gray" stroke-width="2" stroke-linecap="round" stroke-linejoin="round" overflow="visible"/><path style="marker:none" opacity=".3" color="#000" fill="#00f" overflow="visible" d="M698.527 262.697h52.731v300.895h-52.731zm52.731-22.716h52.731v323.612h-52.731zm52.731-16.385h52.731v339.996h-52.731zM645.795 295.38h52.731v268.212h-52.731zm210.925-83.798h52.731v352.01H856.72z"/><path d="M596.84 563.592h400.035m-400.035 0V163.557" fill="none" stroke="#000" stroke-width="2" marker-end="url(#a)"/><path d="M949.402 204.615c-153.936 23.937-309.871 78.993-352.562 242.62" fill="none" stroke="green" stroke-width="3.362" stroke-linecap="round"/><path d="M645.795 346.803v216.79" fill="none" stroke="#000" stroke-width="3" stroke-linecap="round" stroke-dasharray="3.00000001,9.00000002"/><path d="M996.23 577.886c.156-.621.739-2.913 2.447-2.913.117 0 .738 0 1.243.311-.699.155-1.165.738-1.165 1.36 0 .388.272.854.932.854.544 0 1.32-.427 1.32-1.437 0-1.282-1.436-1.631-2.29-1.631-1.438 0-2.292 1.32-2.603 1.864-.621-1.631-1.942-1.864-2.68-1.864-2.563 0-4 3.184-4 3.806 0 .272.272.272.311.272.194 0 .272-.078.31-.272.855-2.641 2.486-3.263 3.34-3.263.467 0 1.321.233 1.321 1.67 0 .777-.427 2.408-1.32 5.904-.389 1.514-1.282 2.563-2.37 2.563-.155 0-.698 0-1.242-.31.621-.156 1.165-.661 1.165-1.36 0-.66-.544-.855-.893-.855-.777 0-1.36.622-1.36 1.437 0 1.127 1.204 1.631 2.292 1.631 1.67 0 2.563-1.747 2.602-1.864a2.78 2.78 0 0 0 2.68 1.864c2.563 0 3.96-3.184 3.96-3.806 0-.271-.193-.271-.271-.271-.233 0-.272.116-.35.271-.815 2.68-2.485 3.263-3.262 3.263-.97 0-1.36-.777-1.36-1.631 0-.544.117-1.088.39-2.175zm0 0" ns0:text="$x$ \n" ns0:preamble="/home/waldgeist/data/sphinx/inkscape-preamble.tex"/><path d="M585.543 160.8c.106-.317.106-.352.106-.529 0-.388-.317-.6-.67-.6-.212 0-.565.142-.777.46-.035.14-.247.81-.317 1.234-.176.565-.318 1.2-.459 1.8l-1.023 4.057c-.07.318-1.058 1.905-2.54 1.905-1.13 0-1.376-.987-1.376-1.834 0-1.023.388-2.435 1.129-4.41.353-.918.458-1.165.458-1.624 0-.988-.705-1.834-1.834-1.834-2.153 0-2.964 3.281-2.964 3.457 0 .247.212.247.247.247.247 0 .247-.07.353-.423.635-2.117 1.517-2.787 2.293-2.787.176 0 .565 0 .565.705 0 .565-.247 1.165-.389 1.588-.917 2.4-1.305 3.67-1.305 4.728 0 2.011 1.411 2.681 2.752 2.681.882 0 1.623-.388 2.258-1.023-.282 1.165-.564 2.294-1.446 3.493-.6.741-1.447 1.412-2.47 1.412-.318 0-1.341-.071-1.73-.953.354 0 .671 0 .954-.282.247-.177.458-.494.458-.918 0-.705-.6-.776-.811-.776-.53 0-1.27.353-1.27 1.447 0 1.129.987 1.976 2.399 1.976 2.293 0 4.622-2.047 5.257-4.587zm0 0" ns0:preamble="/home/waldgeist/data/sphinx/inkscape-preamble.tex" ns0:text="$y$ \n"/><path d="M950.098 218.408c.096-.288.096-.32.096-.48 0-.351-.288-.543-.607-.543-.192 0-.512.128-.704.416-.032.128-.223.735-.287 1.119-.16.511-.288 1.087-.416 1.63l-.927 3.677c-.064.288-.96 1.726-2.302 1.726-1.023 0-1.247-.895-1.247-1.662 0-.927.352-2.206 1.023-3.996.32-.832.416-1.056.416-1.471 0-.895-.64-1.663-1.663-1.663-1.95 0-2.685 2.974-2.685 3.134 0 .223.192.223.224.223.223 0 .223-.064.32-.383.575-1.919 1.374-2.526 2.077-2.526.16 0 .512 0 .512.64 0 .51-.224 1.054-.352 1.438-.831 2.174-1.183 3.325-1.183 4.284 0 1.822 1.28 2.43 2.494 2.43.8 0 1.47-.352 2.046-.927-.256 1.055-.511 2.078-1.31 3.165-.544.671-1.311 1.279-2.239 1.279-.287 0-1.214-.064-1.566-.864.32 0 .607 0 .863-.255a1.01 1.01 0 0 0 .416-.832c0-.639-.544-.703-.736-.703-.48 0-1.15.32-1.15 1.31 0 1.024.895 1.791 2.173 1.791 2.079 0 4.189-1.854 4.764-4.156zm20.48 1.087c.32 0 .703 0 .703-.383 0-.416-.383-.416-.671-.416h-12.213c-.288 0-.671 0-.671.416 0 .383.383.383.671.383zm.032 3.965c.288 0 .671 0 .671-.416 0-.384-.383-.384-.703-.384h-12.18c-.289 0-.672 0-.672.384 0 .416.383.416.671.416zm14.963-5.435h1.758c.416 0 .608 0 .608-.416 0-.224-.192-.224-.544-.224h-1.694l.416-2.334c.095-.415.383-1.854.511-2.11.16-.383.512-.703.96-.703.063 0 .607 0 .99.384a1.14 1.14 0 0 0-1.119 1.087c0 .48.384.735.768.735.543 0 1.119-.48 1.119-1.247 0-.927-.928-1.407-1.759-1.407-.703 0-1.982.384-2.59 2.398-.127.416-.191.64-.67 3.197h-1.408c-.415 0-.639 0-.639.384 0 .256.192.256.576.256h1.342l-1.502 8.056c-.384 1.982-.736 3.837-1.79 3.837-.097 0-.576 0-.992-.384.96-.064 1.151-.8 1.151-1.087 0-.48-.383-.735-.767-.735-.544 0-1.12.48-1.12 1.247 0 .895.896 1.406 1.727 1.406 1.12 0 1.95-1.215 2.302-1.982.672-1.279 1.12-3.74 1.151-3.9zm11.439 13.044c0-.064 0-.096-.352-.448-2.525-2.558-3.197-6.426-3.197-9.56 0-3.548.768-7.097 3.293-9.622.256-.256.256-.288.256-.352 0-.16-.064-.224-.192-.224-.223 0-2.046 1.407-3.26 3.996-1.024 2.238-1.28 4.508-1.28 6.203 0 1.598.224 4.06 1.343 6.394 1.247 2.494 2.974 3.836 3.197 3.836.128 0 .192-.063.192-.223zm7.993-11.062c.128-.512.607-2.398 2.014-2.398.096 0 .607 0 1.023.256-.575.128-.96.607-.96 1.119 0 .32.225.703.768.703.448 0 1.087-.352 1.087-1.183 0-1.055-1.183-1.343-1.886-1.343-1.183 0-1.886 1.087-2.142 1.535-.512-1.343-1.599-1.535-2.206-1.535-2.11 0-3.293 2.622-3.293 3.134 0 .223.224.223.256.223.16 0 .224-.064.255-.223.704-2.175 2.047-2.686 2.75-2.686.384 0 1.087.192 1.087 1.375 0 .64-.352 1.982-1.087 4.86-.32 1.246-1.055 2.11-1.95 2.11-.128 0-.576 0-1.023-.256.511-.128.959-.544.959-1.12 0-.543-.448-.703-.736-.703-.639 0-1.118.512-1.118 1.183 0 .927.99 1.343 1.886 1.343 1.375 0 2.11-1.439 2.142-1.535a2.289 2.289 0 0 0 2.206 1.535c2.11 0 3.26-2.622 3.26-3.133 0-.224-.159-.224-.223-.224-.192 0-.224.096-.288.224-.671 2.206-2.046 2.685-2.685 2.685-.8 0-1.12-.64-1.12-1.342 0-.448.097-.896.32-1.79zm10.723 1.055c0-1.567-.223-4.029-1.342-6.362-1.215-2.494-2.974-3.837-3.166-3.837a.219.219 0 0 0-.223.224c0 .064 0 .096.383.48 2.015 2.014 3.165 5.243 3.165 9.495 0 3.517-.735 7.097-3.26 9.655-.288.256-.288.288-.288.352 0 .128.096.223.223.223.192 0 2.047-1.406 3.23-3.996 1.055-2.238 1.278-4.508 1.278-6.234zm0 0" ns0:preamble="/home/waldgeist/data/sphinx/inkscape-preamble.tex" ns0:text="$y=f(x)$\n" fill="green"/><path d="M646.055 574.008c.128-.512.607-2.398 2.014-2.398.096 0 .607 0 1.023.256-.575.128-.96.607-.96 1.119 0 .32.225.703.768.703.448 0 1.087-.352 1.087-1.183 0-1.055-1.183-1.343-1.886-1.343-1.183 0-1.886 1.087-2.142 1.535-.512-1.343-1.599-1.535-2.206-1.535-2.11 0-3.293 2.622-3.293 3.133 0 .224.224.224.256.224.16 0 .223-.064.255-.224.704-2.174 2.047-2.685 2.75-2.685.384 0 1.087.192 1.087 1.375 0 .639-.352 1.982-1.087 4.86-.32 1.246-1.055 2.11-1.95 2.11-.128 0-.576 0-1.023-.257.511-.127.959-.543.959-1.119 0-.543-.448-.703-.736-.703-.639 0-1.119.512-1.119 1.183 0 .927.992 1.343 1.887 1.343 1.374 0 2.11-1.439 2.142-1.535a2.289 2.289 0 0 0 2.206 1.535c2.11 0 3.26-2.622 3.26-3.133 0-.224-.16-.224-.223-.224-.192 0-.224.096-.288.224-.671 2.206-2.046 2.685-2.685 2.685-.8 0-1.12-.64-1.12-1.343 0-.447.097-.895.32-1.79zm9.605.147c0-.383 0-.383-.416-.383-.927.895-2.206.895-2.782.895v.511c.32 0 1.28 0 2.046-.383v7.257c0 .48 0 .671-1.406.671h-.544v.512c.256 0 2.014-.064 2.526-.064.447 0 2.238.064 2.557.064v-.512h-.543c-1.439 0-1.439-.191-1.439-.671zm0 0" ns0:preamble="/home/waldgeist/data/sphinx/inkscape-preamble.tex" ns0:text="$x_1$\n"/><path d="M909.71 574.008c.128-.512.608-2.398 2.015-2.398.096 0 .607 0 1.023.256-.576.128-.96.607-.96 1.119 0 .32.224.703.768.703.448 0 1.087-.352 1.087-1.183 0-1.055-1.183-1.343-1.886-1.343-1.183 0-1.887 1.087-2.142 1.535-.512-1.343-1.599-1.535-2.206-1.535-2.11 0-3.293 2.622-3.293 3.133 0 .224.223.224.255.224.16 0 .224-.064.256-.224.704-2.174 2.046-2.685 2.75-2.685.383 0 1.087.192 1.087 1.375 0 .639-.352 1.982-1.087 4.86-.32 1.246-1.055 2.11-1.95 2.11-.128 0-.576 0-1.024-.257.512-.127.96-.543.96-1.119 0-.543-.448-.703-.736-.703-.64 0-1.119.512-1.119 1.183 0 .927.991 1.343 1.886 1.343 1.375 0 2.11-1.439 2.143-1.535a2.289 2.289 0 0 0 2.206 1.535c2.11 0 3.26-2.622 3.26-3.133 0-.224-.16-.224-.223-.224-.192 0-.224.096-.288.224-.671 2.206-2.046 2.685-2.686 2.685-.799 0-1.119-.64-1.119-1.343 0-.447.096-.895.32-1.79zm12.035 6.637h-.48c-.032.32-.192 1.151-.383 1.28-.096.095-1.183.095-1.407.095h-2.622a79.118 79.118 0 0 1 2.846-2.398c1.055-.831 2.046-1.726 2.046-3.069 0-1.726-1.503-2.781-3.325-2.781-1.759 0-2.973 1.246-2.973 2.557 0 .704.607.8.767.8.32 0 .735-.256.735-.768 0-.256-.096-.767-.831-.767.448-.991 1.407-1.31 2.078-1.31 1.439 0 2.174 1.118 2.174 2.269 0 1.247-.895 2.206-1.343 2.718l-3.42 3.42c-.16.128-.16.16-.16.544h5.882zm0 0" ns0:text="$x_2$\n" ns0:preamble="/home/waldgeist/data/sphinx/inkscape-preamble.tex"/><path d="M909.451 211.582v352.01" fill="none" stroke="#333" stroke-width="3" stroke-linecap="round" stroke-dasharray="3,9"/><path d="M856.72 211.791v351.801" fill="none" stroke="#000" stroke-linecap="round" stroke-dasharray="1.00000005,3.00000022"/><path d="M803.989 223.596v339.996" fill="none" stroke="#000" stroke-linecap="round" stroke-dasharray="1.00000003,3.00000019"/><path d="M751.258 240.534v323.058" fill="none" stroke="#000" stroke-linecap="round" stroke-dasharray="1.00000009,3.00000033"/><path d="M698.527 262.697v300.895" fill="none" stroke="#000" stroke-linecap="round" stroke-dasharray=".99999997,3.00000003"/><path d="M645.795 295.38h52.732m0-32.683h52.73m.001-22.717h52.73m.001-16.384h52.731m0-12.014h52.731" fill="none" stroke="#000" stroke-linecap="round" stroke-dasharray="1.00000001,3.00000011"/><g ns0:text="$A = O _{\\rm{n}}(x)$\n" ns0:preamble="/home/waldgeist/data/sphinx/inkscape-preamble.tex" transform="translate(-230.92 -111.808) scale(4.09225)" fill="#00f"><defs><symbol overflow="visible" id="b"><path d="M1.781-1.14C1.391-.485 1-.345.563-.314c-.125.016-.22.016-.22.204 0 .062.063.109.141.109.266 0 .579-.031.844-.031.344 0 .688.031 1 .031.063 0 .188 0 .188-.188 0-.109-.079-.124-.157-.124-.218-.016-.468-.094-.468-.344 0-.125.062-.235.14-.375l.766-1.266h2.5c.016.203.156 1.563.156 1.656 0 .297-.516.329-.719.329-.14 0-.234 0-.234.203 0 .11.11.11.14.11.407 0 .829-.031 1.235-.031.25 0 .89.031 1.14.031.048 0 .173 0 .173-.203 0-.11-.094-.11-.235-.11-.61 0-.61-.062-.64-.359l-.61-6.219c-.016-.203-.016-.25-.187-.25-.157 0-.204.079-.266.172zm1.203-1.47l1.954-3.296.328 3.297zm0 0"/></symbol><symbol overflow="visible" id="d"><path d="M7.375-4.344c0-1.61-1.063-2.687-2.547-2.687-2.14 0-4.344 2.265-4.344 4.593C.484-.78 1.61.22 3.047.22c2.11 0 4.328-2.188 4.328-4.563zM3.094-.047c-.985 0-1.672-.797-1.672-2.11 0-.452.14-1.905.906-3.062.688-1.047 1.656-1.562 2.453-1.562.813 0 1.703.562 1.703 2.047 0 .718-.265 2.265-1.25 3.5-.484.609-1.296 1.187-2.14 1.187zm0 0"/></symbol><symbol overflow="visible" id="g"><path d="M3.328-3.016c.063-.25.297-1.171.985-1.171.046 0 .296 0 .5.125a.578.578 0 0 0-.47.546c0 .157.11.344.376.344a.546.546 0 0 0 .531-.578c0-.516-.578-.656-.922-.656-.578 0-.922.531-1.047.75-.25-.656-.781-.75-1.078-.75-1.031 0-1.61 1.281-1.61 1.531 0 .11.11.11.126.11.078 0 .11-.032.125-.11.344-1.063 1-1.313 1.344-1.313.187 0 .53.094.53.672 0 .313-.171.97-.53 2.375-.157.61-.516 1.032-.954 1.032-.062 0-.28 0-.5-.125.25-.063.47-.266.47-.547 0-.266-.22-.344-.36-.344-.313 0-.547.25-.547.578 0 .453.484.656.922.656.672 0 1.031-.703 1.047-.75.125.36.484.75 1.078.75 1.031 0 1.594-1.28 1.594-1.53 0-.11-.079-.11-.11-.11-.094 0-.11.047-.14.11-.329 1.077-1 1.312-1.313 1.312-.39 0-.547-.313-.547-.657 0-.218.047-.437.156-.875zm0 0"/></symbol><symbol overflow="visible" id="c"><path d="M6.844-3.266c.156 0 .343 0 .343-.187 0-.203-.187-.203-.328-.203H.891c-.141 0-.329 0-.329.203 0 .187.188.187.329.187zm.015 1.938c.141 0 .329 0 .329-.203 0-.188-.188-.188-.344-.188H.89c-.141 0-.329 0-.329.188 0 .203.188.203.329.203zm0 0"/></symbol><symbol overflow="visible" id="f"><path d="M3.297 2.39c0-.03 0-.046-.172-.218C1.891.922 1.562-.968 1.562-2.5c0-1.734.375-3.469 1.61-4.703.125-.125.125-.14.125-.172 0-.078-.031-.11-.094-.11-.11 0-1 .688-1.594 1.954C1.11-4.438.984-3.328.984-2.5c0 .781.11 1.984.657 3.125C2.25 1.844 3.094 2.5 3.203 2.5c.063 0 .094-.031.094-.11zm0 0"/></symbol><symbol overflow="visible" id="h"><path d="M2.875-2.5c0-.766-.11-1.969-.656-3.11C1.625-6.827.766-7.483.672-7.483a.107.107 0 0 0-.11.109c0 .031 0 .047.188.234.984.985 1.547 2.563 1.547 4.641C2.297-.78 1.937.97.703 2.22c-.14.125-.14.14-.14.172 0 .062.046.109.109.109.094 0 1-.688 1.578-1.953.516-1.094.625-2.203.625-3.047zm0 0"/></symbol><symbol overflow="visible" id="e"><path d="M3.594-2.11c0-.609-.297-.968-1.047-.968-.578 0-.938.312-1.14.687v-.687L.374-3v.25c.469 0 .531.047.531.39v1.813c0 .297-.078.297-.531.297V0c.016 0 .5-.031.797-.031.25 0 .734.031.797.031v-.25c-.453 0-.516 0-.516-.297v-1.265c0-.72.578-1.063 1.031-1.063.485 0 .547.375.547.734v1.594c0 .297-.062.297-.515.297V0c.015 0 .5-.031.796-.031.25 0 .735.031.797.031v-.25c-.453 0-.515 0-.515-.297zm0 0"/></symbol></defs><use height="744.094" width="1052.362" xlink:href="#b" x="223.432" y="134.765"/><use height="744.094" width="1052.362" xlink:href="#c" x="233.671" y="134.765"/><use height="744.094" width="1052.362" xlink:href="#d" x="244.188" y="134.765"/><use height="744.094" width="1052.362" xlink:href="#e" x="251.787" y="136.259"/><use height="744.094" width="1052.362" xlink:href="#f" x="256.685" y="134.765"/><use height="744.094" width="1052.362" xlink:href="#g" x="260.559" y="134.765"/><use height="744.094" width="1052.362" xlink:href="#h" x="266.253" y="134.765"/></g><path d="M645.795 348.111V295.38" fill="none" stroke="#000" stroke-linecap="round" stroke-dasharray="1.00000001,3.00000011"/><path style="marker:none" opacity=".3" color="#000" fill="#00f" overflow="visible" d="M212.616 262.697h52.731v300.895h-52.731z"/><path style="marker:none" opacity=".3" color="#000" fill="#00f" overflow="visible" d="M265.347 239.981h52.731v323.612h-52.731zM159.885 295.38h52.731v268.212h-52.731zm-52.732 51.423h52.731v216.789h-52.731z"/><path d="M58.198 563.592h400.035m-400.035 0V163.557" fill="none" stroke="#000" stroke-width="2" marker-end="url(#a)"/><path d="M410.76 204.615c-153.936 23.937-309.871 78.993-352.562 242.62" fill="none" stroke="green" stroke-width="3.362" stroke-linecap="round"/><path d="M107.153 346.803v216.79" fill="none" stroke="#000" stroke-width="3" stroke-linecap="round" stroke-dasharray="3,9"/><path d="M457.589 577.886c.155-.621.738-2.913 2.446-2.913.117 0 .738 0 1.243.311-.699.155-1.165.738-1.165 1.36 0 .388.272.854.932.854.544 0 1.32-.427 1.32-1.437 0-1.282-1.436-1.631-2.29-1.631-1.438 0-2.292 1.32-2.603 1.864-.621-1.631-1.942-1.864-2.68-1.864-2.563 0-4 3.184-4 3.806 0 .272.272.272.31.272.195 0 .273-.078.312-.272.854-2.641 2.485-3.263 3.34-3.263.466 0 1.32.233 1.32 1.67 0 .777-.427 2.408-1.32 5.904-.389 1.514-1.282 2.563-2.37 2.563-.155 0-.699 0-1.242-.31.621-.156 1.165-.661 1.165-1.36 0-.66-.544-.855-.893-.855-.777 0-1.36.622-1.36 1.437 0 1.127 1.204 1.631 2.292 1.631 1.67 0 2.563-1.747 2.602-1.864a2.78 2.78 0 0 0 2.68 1.864c2.563 0 3.96-3.184 3.96-3.806 0-.271-.193-.271-.271-.271-.233 0-.272.116-.35.271-.815 2.68-2.485 3.263-3.262 3.263-.97 0-1.36-.777-1.36-1.631 0-.544.117-1.088.39-2.175zm0 0" ns0:preamble="/home/waldgeist/data/sphinx/inkscape-preamble.tex" ns0:text="$x$ \n"/><path d="M46.901 160.8c.106-.317.106-.352.106-.529 0-.388-.318-.6-.67-.6-.212 0-.565.142-.777.46-.035.14-.247.81-.317 1.234-.177.565-.318 1.2-.459 1.8l-1.023 4.057c-.07.318-1.059 1.905-2.54 1.905-1.13 0-1.376-.987-1.376-1.834 0-1.023.388-2.435 1.129-4.41.352-.918.458-1.165.458-1.624 0-.988-.705-1.834-1.834-1.834-2.153 0-2.964 3.281-2.964 3.457 0 .247.212.247.247.247.247 0 .247-.07.353-.423.635-2.117 1.517-2.787 2.293-2.787.176 0 .565 0 .565.705 0 .565-.247 1.165-.389 1.588-.917 2.4-1.305 3.67-1.305 4.728 0 2.011 1.411 2.681 2.752 2.681.882 0 1.623-.388 2.258-1.023-.282 1.165-.564 2.294-1.446 3.493-.6.741-1.447 1.412-2.47 1.412-.318 0-1.341-.071-1.73-.953.354 0 .671 0 .954-.282.246-.177.458-.494.458-.918 0-.705-.6-.776-.811-.776-.53 0-1.27.353-1.27 1.447 0 1.129.987 1.976 2.399 1.976 2.293 0 4.622-2.047 5.257-4.587zm0 0" ns0:text="$y$ \n" ns0:preamble="/home/waldgeist/data/sphinx/inkscape-preamble.tex"/><path d="M411.456 218.408c.096-.288.096-.32.096-.48 0-.351-.288-.543-.607-.543-.192 0-.512.128-.704.416-.032.128-.223.735-.287 1.119-.16.511-.288 1.087-.416 1.63l-.927 3.677c-.064.288-.96 1.726-2.302 1.726-1.023 0-1.247-.895-1.247-1.662 0-.927.352-2.206 1.023-3.996.32-.832.416-1.056.416-1.471 0-.895-.64-1.663-1.663-1.663-1.95 0-2.685 2.974-2.685 3.134 0 .223.192.223.224.223.223 0 .223-.064.32-.383.575-1.919 1.374-2.526 2.077-2.526.16 0 .512 0 .512.64 0 .51-.224 1.054-.352 1.438-.831 2.174-1.183 3.325-1.183 4.284 0 1.822 1.28 2.43 2.494 2.43.8 0 1.47-.352 2.046-.927-.256 1.055-.511 2.078-1.31 3.165-.544.671-1.311 1.279-2.239 1.279-.287 0-1.214-.064-1.566-.864.32 0 .607 0 .863-.255a1.01 1.01 0 0 0 .416-.832c0-.639-.544-.703-.736-.703-.48 0-1.15.32-1.15 1.31 0 1.024.895 1.791 2.173 1.791 2.078 0 4.189-1.854 4.764-4.156zm20.48 1.087c.32 0 .703 0 .703-.383 0-.416-.383-.416-.671-.416h-12.213c-.288 0-.671 0-.671.416 0 .383.383.383.671.383zm.032 3.965c.288 0 .671 0 .671-.416 0-.384-.383-.384-.703-.384h-12.18c-.289 0-.672 0-.672.384 0 .416.383.416.671.416zm14.963-5.435h1.758c.416 0 .608 0 .608-.416 0-.224-.192-.224-.544-.224h-1.694l.415-2.334c.096-.415.384-1.854.512-2.11.16-.383.512-.703.96-.703.063 0 .607 0 .99.384a1.14 1.14 0 0 0-1.119 1.087c0 .48.384.735.768.735.543 0 1.119-.48 1.119-1.247 0-.927-.928-1.407-1.759-1.407-.703 0-1.982.384-2.59 2.398-.127.416-.191.64-.67 3.197h-1.408c-.415 0-.639 0-.639.384 0 .256.192.256.575.256h1.343l-1.502 8.056c-.384 1.982-.736 3.837-1.79 3.837-.097 0-.576 0-.992-.384.96-.064 1.151-.8 1.151-1.087 0-.48-.384-.735-.767-.735-.544 0-1.12.48-1.12 1.247 0 .895.896 1.406 1.727 1.406 1.12 0 1.95-1.215 2.302-1.982.672-1.279 1.12-3.74 1.151-3.9zm11.439 13.044c0-.064 0-.096-.352-.448-2.525-2.558-3.197-6.426-3.197-9.56 0-3.548.768-7.097 3.293-9.622.256-.256.256-.288.256-.352 0-.16-.064-.224-.192-.224-.224 0-2.046 1.407-3.26 3.996-1.024 2.238-1.28 4.508-1.28 6.203 0 1.598.224 4.06 1.343 6.394 1.247 2.494 2.973 3.836 3.197 3.836.128 0 .192-.063.192-.223zm7.993-11.062c.128-.512.607-2.398 2.014-2.398.096 0 .607 0 1.023.256-.575.128-.96.607-.96 1.119 0 .32.225.703.768.703.448 0 1.087-.352 1.087-1.183 0-1.055-1.183-1.343-1.886-1.343-1.183 0-1.886 1.087-2.142 1.535-.512-1.343-1.599-1.535-2.206-1.535-2.11 0-3.293 2.622-3.293 3.134 0 .223.224.223.256.223.16 0 .223-.064.255-.223.704-2.175 2.047-2.686 2.75-2.686.384 0 1.087.192 1.087 1.375 0 .64-.352 1.982-1.087 4.86-.32 1.246-1.055 2.11-1.95 2.11-.128 0-.576 0-1.023-.256.511-.128.959-.544.959-1.12 0-.543-.448-.703-.736-.703-.639 0-1.119.512-1.119 1.183 0 .927.992 1.343 1.887 1.343 1.374 0 2.11-1.439 2.142-1.535a2.289 2.289 0 0 0 2.206 1.535c2.11 0 3.26-2.622 3.26-3.133 0-.224-.16-.224-.223-.224-.192 0-.224.096-.288.224-.671 2.206-2.046 2.685-2.685 2.685-.8 0-1.12-.64-1.12-1.342 0-.448.097-.896.32-1.79zm10.723 1.055c0-1.567-.223-4.029-1.342-6.362-1.215-2.494-2.974-3.837-3.166-3.837a.219.219 0 0 0-.223.224c0 .064 0 .096.383.48 2.014 2.014 3.165 5.243 3.165 9.495 0 3.517-.735 7.097-3.26 9.655-.288.256-.288.288-.288.352 0 .128.096.223.223.223.192 0 2.047-1.406 3.23-3.996 1.055-2.238 1.278-4.508 1.278-6.234zm0 0" ns0:text="$y=f(x)$\n" ns0:preamble="/home/waldgeist/data/sphinx/inkscape-preamble.tex" fill="green"/><path d="M107.413 574.008c.128-.512.607-2.398 2.014-2.398.096 0 .607 0 1.023.256-.576.128-.96.607-.96 1.119 0 .32.225.703.768.703.448 0 1.087-.352 1.087-1.183 0-1.055-1.183-1.343-1.886-1.343-1.183 0-1.886 1.087-2.142 1.535-.512-1.343-1.599-1.535-2.206-1.535-2.11 0-3.293 2.622-3.293 3.133 0 .224.224.224.256.224.16 0 .223-.064.255-.224.704-2.174 2.046-2.685 2.75-2.685.384 0 1.087.192 1.087 1.375 0 .639-.352 1.982-1.087 4.86-.32 1.246-1.055 2.11-1.95 2.11-.128 0-.576 0-1.023-.257.511-.127.959-.543.959-1.119 0-.543-.448-.703-.736-.703-.639 0-1.119.512-1.119 1.183 0 .927.991 1.343 1.887 1.343 1.374 0 2.11-1.439 2.142-1.535a2.289 2.289 0 0 0 2.206 1.535c2.11 0 3.26-2.622 3.26-3.133 0-.224-.16-.224-.223-.224-.192 0-.224.096-.288.224-.671 2.206-2.046 2.685-2.685 2.685-.8 0-1.12-.64-1.12-1.343 0-.447.097-.895.32-1.79zm9.604.147c0-.383 0-.383-.415-.383-.928.895-2.206.895-2.782.895v.511c.32 0 1.279 0 2.046-.383v7.257c0 .48 0 .671-1.406.671h-.544v.512c.256 0 2.014-.064 2.526-.064.447 0 2.238.064 2.557.064v-.512h-.543c-1.439 0-1.439-.191-1.439-.671zm0 0" ns0:text="$x_1$\n" ns0:preamble="/home/waldgeist/data/sphinx/inkscape-preamble.tex"/><path d="M370.866 574.008c.127-.512.607-2.398 2.014-2.398.096 0 .607 0 1.023.256-.576.128-.96.607-.96 1.119 0 .32.224.703.768.703.448 0 1.087-.352 1.087-1.183 0-1.055-1.183-1.343-1.886-1.343-1.183 0-1.887 1.087-2.142 1.535-.512-1.343-1.599-1.535-2.206-1.535-2.11 0-3.293 2.622-3.293 3.133 0 .224.223.224.255.224.16 0 .224-.064.256-.224.704-2.174 2.046-2.685 2.75-2.685.383 0 1.087.192 1.087 1.375 0 .639-.352 1.982-1.087 4.86-.32 1.246-1.055 2.11-1.95 2.11-.128 0-.576 0-1.024-.257.512-.127.96-.543.96-1.119 0-.543-.448-.703-.736-.703-.64 0-1.119.512-1.119 1.183 0 .927.991 1.343 1.887 1.343 1.374 0 2.11-1.439 2.142-1.535a2.289 2.289 0 0 0 2.206 1.535c2.11 0 3.26-2.622 3.26-3.133 0-.224-.16-.224-.223-.224-.192 0-.224.096-.288.224-.671 2.206-2.046 2.685-2.686 2.685-.799 0-1.118-.64-1.118-1.343 0-.447.095-.895.32-1.79zm12.034 6.637h-.48c-.032.32-.192 1.151-.383 1.28-.096.095-1.183.095-1.407.095h-2.622a79.118 79.118 0 0 1 2.846-2.398c1.055-.831 2.046-1.726 2.046-3.069 0-1.726-1.503-2.781-3.325-2.781-1.758 0-2.973 1.246-2.973 2.557 0 .704.607.8.767.8.32 0 .735-.256.735-.768 0-.256-.096-.767-.831-.767.448-.991 1.407-1.31 2.078-1.31 1.439 0 2.174 1.118 2.174 2.269 0 1.247-.895 2.206-1.343 2.718l-3.42 3.42c-.16.128-.16.16-.16.544h5.882zm0 0" ns0:preamble="/home/waldgeist/data/sphinx/inkscape-preamble.tex" ns0:text="$x_2$\n"/><path d="M370.81 211.582v352.01" fill="none" stroke="#000" stroke-width="3" stroke-linecap="round" stroke-dasharray="3,9"/><path d="M318.078 223.596v339.996M265.347 239.98v323.612" fill="none" stroke="#000" stroke-linecap="round" stroke-dasharray="1.00000002,3.00000015"/><path d="M212.616 262.697v300.895" fill="none" stroke="#000" stroke-linecap="round" stroke-dasharray="1.00000008,3.0000003"/><path d="M159.885 295.38v268.212" fill="none" stroke="#000" stroke-linecap="round" stroke-dasharray="1,3.0000001"/><path style="marker:none" opacity=".3" color="#000" fill="#00f" overflow="visible" d="M318.078 223.596h52.73v339.996h-52.73z"/><path d="M107.153 346.803h52.732m0-51.423h52.73m.001-32.683h52.73m.001-22.717h52.731m0-16.384h52.731" fill="none" stroke="#000" stroke-linecap="round" stroke-dasharray="1.00000001,3.00000011"/><g transform="translate(-768.182 -111.808) scale(4.09225)" ns0:preamble="/home/waldgeist/data/sphinx/inkscape-preamble.tex" ns0:text="$A = U _{\\rm{n}}(x)$\n" fill="#00f"><defs><symbol id="i" overflow="visible"><path d="M1.781-1.14C1.391-.485 1-.345.563-.314c-.125.016-.22.016-.22.204 0 .062.063.109.141.109.266 0 .579-.031.844-.031.344 0 .688.031 1 .031.063 0 .188 0 .188-.188 0-.109-.079-.124-.157-.124-.218-.016-.468-.094-.468-.344 0-.125.062-.235.14-.375l.766-1.266h2.5c.016.203.156 1.563.156 1.656 0 .297-.516.329-.719.329-.14 0-.234 0-.234.203 0 .11.11.11.14.11.407 0 .829-.031 1.235-.031.25 0 .89.031 1.14.031.048 0 .173 0 .173-.203 0-.11-.094-.11-.235-.11-.61 0-.61-.062-.64-.359l-.61-6.219c-.016-.203-.016-.25-.187-.25-.157 0-.204.079-.266.172zm1.203-1.47l1.954-3.296.328 3.297zm0 0"/></symbol><symbol id="k" overflow="visible"><path d="M6.328-5.766c.11-.406.281-.703 1.078-.734.047 0 .172-.016.172-.203 0 0 0-.11-.125-.11-.328 0-.687.032-1.016.032-.343 0-.718-.032-1.046-.032-.063 0-.172 0-.172.204 0 .109.093.109.172.109.578.016.687.219.687.438 0 .03-.031.187-.031.203L5.14-2.297C4.812-.953 3.656-.094 2.656-.094c-.672 0-1.203-.437-1.203-1.297 0-.015 0-.328.11-.765l.953-3.89c.093-.36.109-.454.843-.454.266 0 .344 0 .344-.203 0-.11-.11-.11-.14-.11-.282 0-1 .032-1.282.032-.281 0-1-.032-1.281-.032-.078 0-.188 0-.188.204 0 .109.079.109.282.109.015 0 .203 0 .375.016.172.03.265.03.265.171 0 .047-.109.47-.171.704l-.22.875C1.25-4.344.782-2.47.735-2.266c-.062.266-.062.422-.062.579 0 1.203.906 1.906 1.953 1.906 1.25 0 2.484-1.125 2.813-2.438zm0 0"/></symbol><symbol id="n" overflow="visible"><path d="M3.328-3.016c.063-.25.297-1.171.985-1.171.046 0 .296 0 .5.125a.578.578 0 0 0-.47.546c0 .157.11.344.376.344a.546.546 0 0 0 .531-.578c0-.516-.578-.656-.922-.656-.578 0-.922.531-1.047.75-.25-.656-.781-.75-1.078-.75-1.031 0-1.61 1.281-1.61 1.531 0 .11.11.11.126.11.078 0 .11-.032.125-.11.344-1.063 1-1.313 1.344-1.313.187 0 .53.094.53.672 0 .313-.171.97-.53 2.375-.157.61-.516 1.032-.954 1.032-.062 0-.28 0-.5-.125.25-.063.47-.266.47-.547 0-.266-.22-.344-.36-.344-.313 0-.547.25-.547.578 0 .453.484.656.922.656.672 0 1.031-.703 1.047-.75.125.36.484.75 1.078.75 1.031 0 1.594-1.28 1.594-1.53 0-.11-.079-.11-.11-.11-.094 0-.11.047-.14.11-.329 1.077-1 1.312-1.313 1.312-.39 0-.547-.313-.547-.657 0-.218.047-.437.156-.875zm0 0"/></symbol><symbol id="j" overflow="visible"><path d="M6.844-3.266c.156 0 .343 0 .343-.187 0-.203-.187-.203-.328-.203H.891c-.141 0-.329 0-.329.203 0 .187.188.187.329.187zm.015 1.938c.141 0 .329 0 .329-.203 0-.188-.188-.188-.344-.188H.89c-.141 0-.329 0-.329.188 0 .203.188.203.329.203zm0 0"/></symbol><symbol id="m" overflow="visible"><path d="M3.297 2.39c0-.03 0-.046-.172-.218C1.891.922 1.562-.968 1.562-2.5c0-1.734.375-3.469 1.61-4.703.125-.125.125-.14.125-.172 0-.078-.031-.11-.094-.11-.11 0-1 .688-1.594 1.954C1.11-4.438.984-3.328.984-2.5c0 .781.11 1.984.657 3.125C2.25 1.844 3.094 2.5 3.203 2.5c.063 0 .094-.031.094-.11zm0 0"/></symbol><symbol id="o" overflow="visible"><path d="M2.875-2.5c0-.766-.11-1.969-.656-3.11C1.625-6.827.766-7.483.672-7.483a.107.107 0 0 0-.11.109c0 .031 0 .047.188.234.984.985 1.547 2.563 1.547 4.641C2.297-.78 1.937.97.703 2.22c-.14.125-.14.14-.14.172 0 .062.046.109.109.109.094 0 1-.688 1.578-1.953.516-1.094.625-2.203.625-3.047zm0 0"/></symbol><symbol id="l" overflow="visible"><path d="M3.594-2.11c0-.609-.297-.968-1.047-.968-.578 0-.938.312-1.14.687v-.687L.374-3v.25c.469 0 .531.047.531.39v1.813c0 .297-.078.297-.531.297V0c.016 0 .5-.031.797-.031.25 0 .734.031.797.031v-.25c-.453 0-.516 0-.516-.297v-1.265c0-.72.578-1.063 1.031-1.063.485 0 .547.375.547.734v1.594c0 .297-.062.297-.515.297V0c.015 0 .5-.031.796-.031.25 0 .735.031.797.031v-.25c-.453 0-.515 0-.515-.297zm0 0"/></symbol></defs><use y="134.765" x="223.432" xlink:href="#i" width="1052.362" height="744.094"/><use y="134.765" x="233.671" xlink:href="#j" width="1052.362" height="744.094"/><use y="134.765" x="244.188" xlink:href="#k" width="1052.362" height="744.094"/><use y="136.259" x="250.99" xlink:href="#l" width="1052.362" height="744.094"/><use y="134.765" x="255.888" xlink:href="#m" width="1052.362" height="744.094"/><use y="134.765" x="259.762" xlink:href="#n" width="1052.362" height="744.094"/><use y="134.765" x="265.456" xlink:href="#o" width="1052.362" height="744.094"/></g></svg>