<svg xmlns:ns0="http://www.iki.fi/pav/software/textext/" xmlns="http://www.w3.org/2000/svg" xmlns:xlink="http://www.w3.org/1999/xlink" width="1052.362" height="744.094"><title>Regel von Sarrus</title><defs><marker id="a" orient="auto" overflow="visible"><path d="M2.308 0l-3.46 2v-4l3.46 2z" fill-rule="evenodd" stroke="#000" stroke-width=".4pt"/></marker></defs><g transform="translate(0 -308.268)"><path fill="#fff" stroke="#fff" stroke-width="2" stroke-dasharray="2.00000002,8.00000007" d="M14.034 480.305h1024.295v400.02H14.034z"/><path d="M232.35 722.8l360.022-190.633M512.763 722.8l360.022-190.633M372.556 722.8L732.58 532.167" fill="none" stroke="navy" stroke-width="3" stroke-linecap="round" marker-end="url(#a)"/><path d="M216.778 614.086l360.023 190.633" fill="none" stroke="maroon" stroke-width="3" stroke-linecap="round" marker-end="url(#a)"/><g transform="translate(-99.921 117.83)"><rect ry="7.377" rx="7.377" y="448.49" x="235.89" height="47.766" width="80.81" id="p" style="marker:none" color="#000" fill="#fff" stroke="#fff" stroke-linecap="round" stroke-linejoin="round" overflow="visible"/><g ns0:text="$a _{11}$" ns0:preamble="/home/waldgeist/data/sphinx/inkscape-preamble.tex" transform="translate(-1035.922 -288.515) scale(5.70771)"><defs><symbol overflow="visible" id="b"><path d="M3.719-3.766c-.188-.375-.469-.64-.922-.64-1.156 0-2.39 1.468-2.39 2.922C.406-.547.952.109 1.718.109c.203 0 .703-.046 1.297-.75a.91.91 0 0 0 .906.75c.36 0 .578-.234.75-.546a6.49 6.49 0 0 0 .297-.985c0-.11-.094-.11-.125-.11-.094 0-.11.048-.14.188-.173.64-.345 1.235-.75 1.235-.282 0-.298-.266-.298-.454 0-.218.016-.312.125-.75.11-.406.125-.515.219-.89l.36-1.39c.062-.282.062-.298.062-.345 0-.171-.11-.265-.281-.265-.25 0-.391.219-.422.437zm-.64 2.579c-.063.187-.063.203-.204.375-.438.546-.844.703-1.125.703-.5 0-.64-.547-.64-.938 0-.5.312-1.719.546-2.187.313-.579.75-.954 1.157-.954.64 0 .78.813.78.875a.562.562 0 0 1-.03.172zm0 0"/></symbol><symbol overflow="visible" id="c"><path d="M2.328-4.438c0-.187 0-.187-.203-.187-.453.438-1.078.438-1.36.438v.25c.157 0 .626 0 1-.188v3.547c0 .234 0 .328-.687.328H.812V0c.125 0 .985-.031 1.235-.031.219 0 1.094.031 1.25.031v-.25H3.03c-.703 0-.703-.094-.703-.328zm0 0"/></symbol></defs><use height="744.094" width="1052.362" xlink:href="#b" x="223.432" y="134.765"/><use height="744.094" width="1052.362" xlink:href="#c" x="228.698" y="136.259"/><use height="744.094" width="1052.362" xlink:href="#c" x="232.67" y="136.259"/></g></g><path d="M372.556 614.086L732.58 804.719" fill="none" stroke="maroon" stroke-width="3" stroke-linecap="round" marker-end="url(#a)"/><g transform="translate(-115.854 122.002)"><use height="744.094" width="1052.362" transform="translate(-726.06 482.63)" xlink:href="#d"/><g transform="translate(-864.836 -292.688) scale(5.70771)" ns0:preamble="/home/waldgeist/data/sphinx/inkscape-preamble.tex" ns0:text="$a _{12}$"><defs><symbol id="e" overflow="visible"><path d="M3.719-3.766c-.188-.375-.469-.64-.922-.64-1.156 0-2.39 1.468-2.39 2.922C.406-.547.952.109 1.718.109c.203 0 .703-.046 1.297-.75a.91.91 0 0 0 .906.75c.36 0 .578-.234.75-.546a6.49 6.49 0 0 0 .297-.985c0-.11-.094-.11-.125-.11-.094 0-.11.048-.14.188-.173.64-.345 1.235-.75 1.235-.282 0-.298-.266-.298-.454 0-.218.016-.312.125-.75.11-.406.125-.515.219-.89l.36-1.39c.062-.282.062-.298.062-.345 0-.171-.11-.265-.281-.265-.25 0-.391.219-.422.437zm-.64 2.579c-.063.187-.063.203-.204.375-.438.546-.844.703-1.125.703-.5 0-.64-.547-.64-.938 0-.5.312-1.719.546-2.187.313-.579.75-.954 1.157-.954.64 0 .78.813.78.875a.562.562 0 0 1-.03.172zm0 0"/></symbol><symbol id="f" overflow="visible"><path d="M2.328-4.438c0-.187 0-.187-.203-.187-.453.438-1.078.438-1.36.438v.25c.157 0 .626 0 1-.188v3.547c0 .234 0 .328-.687.328H.812V0c.125 0 .985-.031 1.235-.031.219 0 1.094.031 1.25.031v-.25H3.03c-.703 0-.703-.094-.703-.328zm0 0"/></symbol><symbol id="g" overflow="visible"><path d="M3.516-1.266H3.28c-.015.157-.094.563-.187.625-.047.047-.578.047-.688.047H1.125c.734-.64.984-.844 1.39-1.172.516-.406 1-.843 1-1.5 0-.843-.734-1.359-1.624-1.359-.86 0-1.454.61-1.454 1.25 0 .344.297.39.376.39.156 0 .359-.124.359-.374 0-.125-.047-.375-.406-.375.218-.485.687-.641 1.015-.641.703 0 1.063.547 1.063 1.11 0 .609-.438 1.078-.656 1.328L.516-.266C.437-.203.437-.187.437 0h2.876zm0 0"/></symbol></defs><use y="134.765" x="223.432" xlink:href="#e" width="1052.362" height="744.094"/><use y="136.259" x="228.698" xlink:href="#f" width="1052.362" height="744.094"/><use y="136.259" x="232.67" xlink:href="#g" width="1052.362" height="744.094"/></g></g><use xlink:href="#h" id="d" transform="translate(761.137 -435.098)" width="1052.362" height="744.094"/><g transform="translate(-840.661 -171.087) scale(5.70771)" ns0:preamble="/home/waldgeist/data/sphinx/inkscape-preamble.tex" ns0:text="$a _{13}$"><defs><symbol id="i" overflow="visible"><path d="M3.719-3.766c-.188-.375-.469-.64-.922-.64-1.156 0-2.39 1.468-2.39 2.922C.406-.547.952.109 1.718.109c.203 0 .703-.046 1.297-.75a.91.91 0 0 0 .906.75c.36 0 .578-.234.75-.546a6.49 6.49 0 0 0 .297-.985c0-.11-.094-.11-.125-.11-.094 0-.11.048-.14.188-.173.64-.345 1.235-.75 1.235-.282 0-.298-.266-.298-.454 0-.218.016-.312.125-.75.11-.406.125-.515.219-.89l.36-1.39c.062-.282.062-.298.062-.345 0-.171-.11-.265-.281-.265-.25 0-.391.219-.422.437zm-.64 2.579c-.063.187-.063.203-.204.375-.438.546-.844.703-1.125.703-.5 0-.64-.547-.64-.938 0-.5.312-1.719.546-2.187.313-.579.75-.954 1.157-.954.64 0 .78.813.78.875a.562.562 0 0 1-.03.172zm0 0"/></symbol><symbol id="j" overflow="visible"><path d="M2.328-4.438c0-.187 0-.187-.203-.187-.453.438-1.078.438-1.36.438v.25c.157 0 .626 0 1-.188v3.547c0 .234 0 .328-.687.328H.812V0c.125 0 .985-.031 1.235-.031.219 0 1.094.031 1.25.031v-.25H3.03c-.703 0-.703-.094-.703-.328zm0 0"/></symbol><symbol id="k" overflow="visible"><path d="M1.906-2.328c.547 0 .938.375.938 1.125 0 .86-.516 1.125-.906 1.125-.282 0-.907-.078-1.188-.5.328 0 .406-.235.406-.39 0-.22-.172-.376-.39-.376a.38.38 0 0 0-.391.407C.375-.281 1.094.14 1.938.14c.968 0 1.64-.657 1.64-1.344 0-.547-.437-1.094-1.203-1.25.719-.266.984-.781.984-1.219 0-.547-.625-.953-1.406-.953-.766 0-1.36.375-1.36.938 0 .234.157.359.36.359.219 0 .36-.156.36-.344 0-.203-.141-.36-.36-.375.25-.297.719-.375.985-.375.312 0 .75.156.75.75 0 .297-.094.625-.282.828-.219.266-.422.281-.765.313-.172.015-.188.015-.22.015-.015 0-.077.016-.077.094 0 .094.062.094.187.094zm0 0"/></symbol></defs><use height="744.094" width="1052.362" y="134.765" x="223.432" xlink:href="#i"/><use height="744.094" width="1052.362" y="136.259" x="228.698" xlink:href="#j"/><use height="744.094" width="1052.362" y="136.259" x="232.67" xlink:href="#k"/></g><use xlink:href="#l" id="u" transform="translate(-132.092)" width="1052.362" height="744.094"/><g ns0:text="$a _{23}$" ns0:preamble="/home/waldgeist/data/sphinx/inkscape-preamble.tex" transform="translate(-840.661 -92.847) scale(5.70771)"><defs><symbol overflow="visible" id="m"><path d="M3.719-3.766c-.188-.375-.469-.64-.922-.64-1.156 0-2.39 1.468-2.39 2.922C.406-.547.952.109 1.718.109c.203 0 .703-.046 1.297-.75a.91.91 0 0 0 .906.75c.36 0 .578-.234.75-.546a6.49 6.49 0 0 0 .297-.985c0-.11-.094-.11-.125-.11-.094 0-.11.048-.14.188-.173.64-.345 1.235-.75 1.235-.282 0-.298-.266-.298-.454 0-.218.016-.312.125-.75.11-.406.125-.515.219-.89l.36-1.39c.062-.282.062-.298.062-.345 0-.171-.11-.265-.281-.265-.25 0-.391.219-.422.437zm-.64 2.579c-.063.187-.063.203-.204.375-.438.546-.844.703-1.125.703-.5 0-.64-.547-.64-.938 0-.5.312-1.719.546-2.187.313-.579.75-.954 1.157-.954.64 0 .78.813.78.875a.562.562 0 0 1-.03.172zm0 0"/></symbol><symbol overflow="visible" id="n"><path d="M3.516-1.266H3.28c-.015.157-.094.563-.187.625-.047.047-.578.047-.688.047H1.125c.734-.64.984-.844 1.39-1.172.516-.406 1-.843 1-1.5 0-.843-.734-1.359-1.624-1.359-.86 0-1.454.61-1.454 1.25 0 .344.297.39.376.39.156 0 .359-.124.359-.374 0-.125-.047-.375-.406-.375.218-.485.687-.641 1.015-.641.703 0 1.063.547 1.063 1.11 0 .609-.438 1.078-.656 1.328L.516-.266C.437-.203.437-.187.437 0h2.876zm0 0"/></symbol><symbol overflow="visible" id="o"><path d="M1.906-2.328c.547 0 .938.375.938 1.125 0 .86-.516 1.125-.906 1.125-.282 0-.907-.078-1.188-.5.328 0 .406-.235.406-.39 0-.22-.172-.376-.39-.376a.38.38 0 0 0-.391.407C.375-.281 1.094.14 1.938.14c.968 0 1.64-.657 1.64-1.344 0-.547-.437-1.094-1.203-1.25.719-.266.984-.781.984-1.219 0-.547-.625-.953-1.406-.953-.766 0-1.36.375-1.36.938 0 .234.157.359.36.359.219 0 .36-.156.36-.344 0-.203-.141-.36-.36-.375.25-.297.719-.375.985-.375.312 0 .75.156.75.75 0 .297-.094.625-.282.828-.219.266-.422.281-.765.313-.172.015-.188.015-.22.015-.015 0-.077.016-.077.094 0 .094.062.094.187.094zm0 0"/></symbol></defs><use xlink:href="#m" x="223.432" y="134.765" width="1052.362" height="744.094"/><use xlink:href="#n" x="228.698" y="136.259" width="1052.362" height="744.094"/><use xlink:href="#o" x="232.67" y="136.259" width="1052.362" height="744.094"/></g><path d="M512.763 614.086l360.022 190.633" fill="none" stroke="maroon" stroke-width="3" stroke-linecap="round" marker-end="url(#a)"/><g transform="translate(-129.176 115.341)"><use height="744.094" width="1052.362" transform="translate(325.24 158.968)" id="s" xlink:href="#p"/><g ns0:text="$a _{33}$" ns0:preamble="/home/waldgeist/data/sphinx/inkscape-preamble.tex" transform="translate(-711.485 -129.948) scale(5.70771)"><defs><symbol overflow="visible" id="q"><path d="M3.719-3.766c-.188-.375-.469-.64-.922-.64-1.156 0-2.39 1.468-2.39 2.922C.406-.547.952.109 1.718.109c.203 0 .703-.046 1.297-.75a.91.91 0 0 0 .906.75c.36 0 .578-.234.75-.546a6.49 6.49 0 0 0 .297-.985c0-.11-.094-.11-.125-.11-.094 0-.11.048-.14.188-.173.64-.345 1.235-.75 1.235-.282 0-.298-.266-.298-.454 0-.218.016-.312.125-.75.11-.406.125-.515.219-.89l.36-1.39c.062-.282.062-.298.062-.345 0-.171-.11-.265-.281-.265-.25 0-.391.219-.422.437zm-.64 2.579c-.063.187-.063.203-.204.375-.438.546-.844.703-1.125.703-.5 0-.64-.547-.64-.938 0-.5.312-1.719.546-2.187.313-.579.75-.954 1.157-.954.64 0 .78.813.78.875a.562.562 0 0 1-.03.172zm0 0"/></symbol><symbol overflow="visible" id="r"><path d="M1.906-2.328c.547 0 .938.375.938 1.125 0 .86-.516 1.125-.906 1.125-.282 0-.907-.078-1.188-.5.328 0 .406-.235.406-.39 0-.22-.172-.376-.39-.376a.38.38 0 0 0-.391.407C.375-.281 1.094.14 1.938.14c.968 0 1.64-.657 1.64-1.344 0-.547-.437-1.094-1.203-1.25.719-.266.984-.781.984-1.219 0-.547-.625-.953-1.406-.953-.766 0-1.36.375-1.36.938 0 .234.157.359.36.359.219 0 .36-.156.36-.344 0-.203-.141-.36-.36-.375.25-.297.719-.375.985-.375.312 0 .75.156.75.75 0 .297-.094.625-.282.828-.219.266-.422.281-.765.313-.172.015-.188.015-.22.015-.015 0-.077.016-.077.094 0 .094.062.094.187.094zm0 0"/></symbol></defs><use height="744.094" width="1052.362" xlink:href="#q" x="223.432" y="134.765"/><use height="744.094" width="1052.362" xlink:href="#r" x="228.698" y="136.259"/><use height="744.094" width="1052.362" xlink:href="#r" x="232.67" y="136.259"/></g></g><use xlink:href="#s" id="t" transform="translate(-269.383 115.341)" width="1052.362" height="744.094"/><use xlink:href="#t" id="l" transform="translate(272.3 -78.24)" width="1052.362" height="744.094"/><use xlink:href="#u" id="x" transform="translate(-302.117 126.175)" width="1052.362" height="744.094"/><use height="744.094" width="1052.362" transform="translate(-140.207 78.24)" xlink:href="#d"/><g ns0:text="$a _{22}$" ns0:preamble="/home/waldgeist/data/sphinx/inkscape-preamble.tex" transform="translate(-980.69 -92.446) scale(5.70771)"><defs><symbol overflow="visible" id="v"><path d="M3.719-3.766c-.188-.375-.469-.64-.922-.64-1.156 0-2.39 1.468-2.39 2.922C.406-.547.952.109 1.718.109c.203 0 .703-.046 1.297-.75a.91.91 0 0 0 .906.75c.36 0 .578-.234.75-.546a6.49 6.49 0 0 0 .297-.985c0-.11-.094-.11-.125-.11-.094 0-.11.048-.14.188-.173.64-.345 1.235-.75 1.235-.282 0-.298-.266-.298-.454 0-.218.016-.312.125-.75.11-.406.125-.515.219-.89l.36-1.39c.062-.282.062-.298.062-.345 0-.171-.11-.265-.281-.265-.25 0-.391.219-.422.437zm-.64 2.579c-.063.187-.063.203-.204.375-.438.546-.844.703-1.125.703-.5 0-.64-.547-.64-.938 0-.5.312-1.719.546-2.187.313-.579.75-.954 1.157-.954.64 0 .78.813.78.875a.562.562 0 0 1-.03.172zm0 0"/></symbol><symbol overflow="visible" id="w"><path d="M3.516-1.266H3.28c-.015.157-.094.563-.187.625-.047.047-.578.047-.688.047H1.125c.734-.64.984-.844 1.39-1.172.516-.406 1-.843 1-1.5 0-.843-.734-1.359-1.624-1.359-.86 0-1.454.61-1.454 1.25 0 .344.297.39.376.39.156 0 .359-.124.359-.374 0-.125-.047-.375-.406-.375.218-.485.687-.641 1.015-.641.703 0 1.063.547 1.063 1.11 0 .609-.438 1.078-.656 1.328L.516-.266C.437-.203.437-.187.437 0h2.876zm0 0"/></symbol></defs><use xlink:href="#v" x="223.432" y="134.765" width="1052.362" height="744.094"/><use xlink:href="#w" x="228.698" y="136.259" width="1052.362" height="744.094"/><use xlink:href="#w" x="232.67" y="136.259" width="1052.362" height="744.094"/></g><g transform="translate(-99.921 126.175)"><use height="744.094" width="1052.362" transform="translate(-459.02 230.683)" id="h" xlink:href="#x"/><g ns0:text="$a _{21}$" ns0:preamble="/home/waldgeist/data/sphinx/inkscape-preamble.tex" transform="translate(-1028.465 -218.62) scale(5.70771)"><defs><symbol overflow="visible" id="y"><path d="M3.719-3.766c-.188-.375-.469-.64-.922-.64-1.156 0-2.39 1.468-2.39 2.922C.406-.547.952.109 1.718.109c.203 0 .703-.046 1.297-.75a.91.91 0 0 0 .906.75c.36 0 .578-.234.75-.546a6.49 6.49 0 0 0 .297-.985c0-.11-.094-.11-.125-.11-.094 0-.11.048-.14.188-.173.64-.345 1.235-.75 1.235-.282 0-.298-.266-.298-.454 0-.218.016-.312.125-.75.11-.406.125-.515.219-.89l.36-1.39c.062-.282.062-.298.062-.345 0-.171-.11-.265-.281-.265-.25 0-.391.219-.422.437zm-.64 2.579c-.063.187-.063.203-.204.375-.438.546-.844.703-1.125.703-.5 0-.64-.547-.64-.938 0-.5.312-1.719.546-2.187.313-.579.75-.954 1.157-.954.64 0 .78.813.78.875a.562.562 0 0 1-.03.172zm0 0"/></symbol><symbol overflow="visible" id="z"><path d="M3.516-1.266H3.28c-.015.157-.094.563-.187.625-.047.047-.578.047-.688.047H1.125c.734-.64.984-.844 1.39-1.172.516-.406 1-.843 1-1.5 0-.843-.734-1.359-1.624-1.359-.86 0-1.454.61-1.454 1.25 0 .344.297.39.376.39.156 0 .359-.124.359-.374 0-.125-.047-.375-.406-.375.218-.485.687-.641 1.015-.641.703 0 1.063.547 1.063 1.11 0 .609-.438 1.078-.656 1.328L.516-.266C.437-.203.437-.187.437 0h2.876zm0 0"/></symbol><symbol overflow="visible" id="A"><path d="M2.328-4.438c0-.187 0-.187-.203-.187-.453.438-1.078.438-1.36.438v.25c.157 0 .626 0 1-.188v3.547c0 .234 0 .328-.687.328H.812V0c.125 0 .985-.031 1.235-.031.219 0 1.094.031 1.25.031v-.25H3.03c-.703 0-.703-.094-.703-.328zm0 0"/></symbol></defs><use height="744.094" width="1052.362" xlink:href="#y" x="223.432" y="134.765"/><use height="744.094" width="1052.362" xlink:href="#z" x="228.698" y="136.259"/><use height="744.094" width="1052.362" xlink:href="#A" x="232.67" y="136.259"/></g></g><rect ry="7.377" rx="7.377" y="566.319" x="556.589" height="47.766" width="80.81" style="marker:none" color="#000" fill="#fff" stroke="#fff" stroke-linecap="round" stroke-linejoin="round" overflow="visible"/><g ns0:text="$a _{11}$" ns0:preamble="/home/waldgeist/data/sphinx/inkscape-preamble.tex" fill="gray"><use height="744.094" width="1052.362" xlink:href="#b" x="223.432" y="134.765" transform="translate(-715.223 -170.686) scale(5.70771)"/><g transform="translate(-715.223 -170.686) scale(5.70771)"><use height="744.094" width="1052.362" xlink:href="#c" x="228.698" y="136.259"/><use height="744.094" width="1052.362" xlink:href="#c" x="232.67" y="136.259"/></g></g><use height="744.094" width="1052.362" transform="translate(420.62 -156.48)" xlink:href="#t"/><g ns0:preamble="/home/waldgeist/data/sphinx/inkscape-preamble.tex" ns0:text="$a _{12}$" fill="gray"><use y="134.765" x="223.432" xlink:href="#e" width="1052.362" height="744.094" transform="translate(-560.07 -170.686) scale(5.70771)"/><g transform="translate(-560.07 -170.686) scale(5.70771)"><use y="136.259" x="228.698" xlink:href="#f" width="1052.362" height="744.094"/><use y="136.259" x="232.67" xlink:href="#g" width="1052.362" height="744.094"/></g></g><use height="744.094" width="1052.362" transform="translate(151.237 115.341)" xlink:href="#s"/><use height="744.094" width="1052.362" transform="translate(140.207 78.24)" xlink:href="#u"/><use height="744.094" width="1052.362" transform="translate(582.53 -126.175)" xlink:href="#x"/><g ns0:preamble="/home/waldgeist/data/sphinx/inkscape-preamble.tex" ns0:text="$a _{22}$" fill="gray"><use height="744.094" width="1052.362" y="134.765" x="223.432" xlink:href="#v" transform="translate(-560.07 -92.446) scale(5.70771)"/><g transform="translate(-560.07 -92.446) scale(5.70771)"><use height="744.094" width="1052.362" y="136.259" x="228.698" xlink:href="#w"/><use height="744.094" width="1052.362" y="136.259" x="232.67" xlink:href="#w"/></g></g><g ns0:text="$a _{21}$" ns0:preamble="/home/waldgeist/data/sphinx/inkscape-preamble.tex" fill="gray"><use height="744.094" width="1052.362" xlink:href="#y" x="223.432" y="134.765" transform="translate(-707.766 -92.446) scale(5.70771)"/><g transform="translate(-707.766 -92.446) scale(5.70771)"><use height="744.094" width="1052.362" xlink:href="#z" x="228.698" y="136.259"/><use height="744.094" width="1052.362" xlink:href="#A" x="232.67" y="136.259"/></g></g><g ns0:text="$+$" ns0:preamble="/home/waldgeist/data/sphinx/inkscape-preamble.tex" transform="translate(-690.73 72.726) scale(5.70771)" fill="maroon" stroke="maroon"><defs><symbol overflow="visible" id="B"><path d="M4.078-2.297H6.86c.141 0 .329 0 .329-.203 0-.188-.188-.188-.329-.188H4.08v-2.796c0-.141 0-.329-.204-.329-.203 0-.203.188-.203.329v2.796H.89c-.141 0-.329 0-.329.188 0 .203.188.203.329.203h2.78V.5c0 .14 0 .328.204.328.203 0 .203-.187.203-.328zm0 0" stroke="none"/></symbol></defs><use height="744.094" width="1052.362" xlink:href="#B" x="223.432" y="134.765"/></g><g transform="translate(-690.73 -243.883) scale(5.70771)" ns0:preamble="/home/waldgeist/data/sphinx/inkscape-preamble.tex" ns0:text="$-$" fill="#0e0e87" stroke="#0e0e87"><defs><symbol id="C" overflow="visible"><path d="M6.563-2.297c.171 0 .359 0 .359-.203 0-.188-.188-.188-.36-.188h-5.39c-.172 0-.344 0-.344.188 0 .203.172.203.344.203zm0 0" stroke="none"/></symbol></defs><use y="134.765" x="223.432" xlink:href="#C" width="1052.362" height="744.094"/></g><use y="134.765" x="223.432" xlink:href="#B" width="1052.362" height="744.094" transform="translate(-540.335 72.726) scale(5.70771)" ns0:preamble="/home/waldgeist/data/sphinx/inkscape-preamble.tex" ns0:text="$+$" fill="maroon" stroke="maroon"/><use height="744.094" width="1052.362" xlink:href="#B" x="223.432" y="134.765" transform="translate(-397.416 72.726) scale(5.70771)" ns0:text="$+$" ns0:preamble="/home/waldgeist/data/sphinx/inkscape-preamble.tex" fill="maroon" stroke="maroon"/><use xlink:href="#C" x="223.432" y="134.765" width="1052.362" height="744.094" transform="translate(-540.335 -243.883) scale(5.70771)" ns0:text="$-$" ns0:preamble="/home/waldgeist/data/sphinx/inkscape-preamble.tex" fill="#0e0e87" stroke="#0e0e87"/><use height="744.094" width="1052.362" y="134.765" x="223.432" xlink:href="#C" transform="translate(-397.416 -243.883) scale(5.70771)" ns0:preamble="/home/waldgeist/data/sphinx/inkscape-preamble.tex" ns0:text="$-$" fill="#0e0e87" stroke="#0e0e87"/><g ns0:text="$a _{32}$" ns0:preamble="/home/waldgeist/data/sphinx/inkscape-preamble.tex" transform="translate(-980.868 -14.607) scale(5.70771)"><defs><symbol overflow="visible" id="D"><path d="M3.719-3.766c-.188-.375-.469-.64-.922-.64-1.156 0-2.39 1.468-2.39 2.922C.406-.547.952.109 1.718.109c.203 0 .703-.046 1.297-.75a.91.91 0 0 0 .906.75c.36 0 .578-.234.75-.546a6.49 6.49 0 0 0 .297-.985c0-.11-.094-.11-.125-.11-.094 0-.11.048-.14.188-.173.64-.345 1.235-.75 1.235-.282 0-.298-.266-.298-.454 0-.218.016-.312.125-.75.11-.406.125-.515.219-.89l.36-1.39c.062-.282.062-.298.062-.345 0-.171-.11-.265-.281-.265-.25 0-.391.219-.422.437zm-.64 2.579c-.063.187-.063.203-.204.375-.438.546-.844.703-1.125.703-.5 0-.64-.547-.64-.938 0-.5.312-1.719.546-2.187.313-.579.75-.954 1.157-.954.64 0 .78.813.78.875a.562.562 0 0 1-.03.172zm0 0"/></symbol><symbol overflow="visible" id="E"><path d="M1.906-2.328c.547 0 .938.375.938 1.125 0 .86-.516 1.125-.906 1.125-.282 0-.907-.078-1.188-.5.328 0 .406-.235.406-.39 0-.22-.172-.376-.39-.376a.38.38 0 0 0-.391.407C.375-.281 1.094.14 1.938.14c.968 0 1.64-.657 1.64-1.344 0-.547-.437-1.094-1.203-1.25.719-.266.984-.781.984-1.219 0-.547-.625-.953-1.406-.953-.766 0-1.36.375-1.36.938 0 .234.157.359.36.359.219 0 .36-.156.36-.344 0-.203-.141-.36-.36-.375.25-.297.719-.375.985-.375.312 0 .75.156.75.75 0 .297-.094.625-.282.828-.219.266-.422.281-.765.313-.172.015-.188.015-.22.015-.015 0-.077.016-.077.094 0 .094.062.094.187.094zm0 0"/></symbol><symbol overflow="visible" id="F"><path d="M3.516-1.266H3.28c-.015.157-.094.563-.187.625-.047.047-.578.047-.688.047H1.125c.734-.64.984-.844 1.39-1.172.516-.406 1-.843 1-1.5 0-.843-.734-1.359-1.624-1.359-.86 0-1.454.61-1.454 1.25 0 .344.297.39.376.39.156 0 .359-.124.359-.374 0-.125-.047-.375-.406-.375.218-.485.687-.641 1.015-.641.703 0 1.063.547 1.063 1.11 0 .609-.438 1.078-.656 1.328L.516-.266C.437-.203.437-.187.437 0h2.876zm0 0"/></symbol></defs><use xlink:href="#D" x="223.432" y="134.765"/><use xlink:href="#E" x="228.698" y="136.259"/><use xlink:href="#F" x="232.67" y="136.259"/></g><g transform="translate(-1121.075 -14.607) scale(5.70771)" ns0:preamble="/home/waldgeist/data/sphinx/inkscape-preamble.tex" ns0:text="$a _{31}$"><defs><symbol id="G" overflow="visible"><path d="M3.719-3.766c-.188-.375-.469-.64-.922-.64-1.156 0-2.39 1.468-2.39 2.922C.406-.547.952.109 1.718.109c.203 0 .703-.046 1.297-.75a.91.91 0 0 0 .906.75c.36 0 .578-.234.75-.546a6.49 6.49 0 0 0 .297-.985c0-.11-.094-.11-.125-.11-.094 0-.11.048-.14.188-.173.64-.345 1.235-.75 1.235-.282 0-.298-.266-.298-.454 0-.218.016-.312.125-.75.11-.406.125-.515.219-.89l.36-1.39c.062-.282.062-.298.062-.345 0-.171-.11-.265-.281-.265-.25 0-.391.219-.422.437zm-.64 2.579c-.063.187-.063.203-.204.375-.438.546-.844.703-1.125.703-.5 0-.64-.547-.64-.938 0-.5.312-1.719.546-2.187.313-.579.75-.954 1.157-.954.64 0 .78.813.78.875a.562.562 0 0 1-.03.172zm0 0"/></symbol><symbol id="H" overflow="visible"><path d="M1.906-2.328c.547 0 .938.375.938 1.125 0 .86-.516 1.125-.906 1.125-.282 0-.907-.078-1.188-.5.328 0 .406-.235.406-.39 0-.22-.172-.376-.39-.376a.38.38 0 0 0-.391.407C.375-.281 1.094.14 1.938.14c.968 0 1.64-.657 1.64-1.344 0-.547-.437-1.094-1.203-1.25.719-.266.984-.781.984-1.219 0-.547-.625-.953-1.406-.953-.766 0-1.36.375-1.36.938 0 .234.157.359.36.359.219 0 .36-.156.36-.344 0-.203-.141-.36-.36-.375.25-.297.719-.375.985-.375.312 0 .75.156.75.75 0 .297-.094.625-.282.828-.219.266-.422.281-.765.313-.172.015-.188.015-.22.015-.015 0-.077.016-.077.094 0 .094.062.094.187.094zm0 0"/></symbol><symbol id="I" overflow="visible"><path d="M2.328-4.438c0-.187 0-.187-.203-.187-.453.438-1.078.438-1.36.438v.25c.157 0 .626 0 1-.188v3.547c0 .234 0 .328-.687.328H.812V0c.125 0 .985-.031 1.235-.031.219 0 1.094.031 1.25.031v-.25H3.03c-.703 0-.703-.094-.703-.328zm0 0"/></symbol></defs><use y="134.765" x="223.432" xlink:href="#G"/><use y="136.259" x="228.698" xlink:href="#H"/><use y="136.259" x="232.67" xlink:href="#I"/></g><g ns0:text="$a _{31}$" ns0:preamble="/home/waldgeist/data/sphinx/inkscape-preamble.tex" fill="gray"><use xlink:href="#G" x="223.432" y="134.765" transform="translate(-700.455 -14.607) scale(5.70771)"/><g transform="translate(-700.455 -14.607) scale(5.70771)"><use xlink:href="#H" x="228.698" y="136.259"/><use xlink:href="#I" x="232.67" y="136.259"/></g></g><g ns0:preamble="/home/waldgeist/data/sphinx/inkscape-preamble.tex" ns0:text="$a _{32}$" fill="gray"><use y="134.765" x="223.432" xlink:href="#D" width="1052.362" height="744.094" transform="translate(-560.248 -14.607) scale(5.70771)"/><g transform="translate(-560.248 -14.607) scale(5.70771)"><use y="136.259" x="228.698" xlink:href="#E" width="1052.362" height="744.094"/><use y="136.259" x="232.67" xlink:href="#F" width="1052.362" height="744.094"/></g></g></g></svg>