<svg xmlns:ns0="http://www.iki.fi/pav/software/textext/" xmlns="http://www.w3.org/2000/svg" xmlns:xlink="http://www.w3.org/1999/xlink" width="1052.362" height="744.094"><title>Regel von Sarrus</title><g transform="translate(0 -308.268)"><path fill="#fff" stroke="#fff" stroke-width="2" stroke-dasharray="1.99999999000000006,7.99999993000000043" d="M14.034 413.882h1024.295v532.865H14.034z"/><rect ry="7.377" rx="7.377" y="651.898" x="623.219" height="47.766" width="80.81" style="marker:none" color="#000" fill="#fff" stroke="#fff" stroke-linecap="round" stroke-linejoin="round" overflow="visible"/><rect style="marker:none" width="80.81" height="47.766" x="615.105" y="573.657" rx="7.377" ry="7.377" color="#000" fill="#fff" stroke="#fff" stroke-linecap="round" stroke-linejoin="round" overflow="visible"/><g transform="translate(-1062.513 -235.675) scale(5.70771)" ns0:preamble="/home/waldgeist/data/sphinx/inkscape-preamble.tex" ns0:text="$+$" stroke="#000"><defs><symbol id="a" overflow="visible"><path d="M4.078-2.297H6.86c.141 0 .329 0 .329-.203 0-.188-.188-.188-.329-.188H4.08v-2.796c0-.141 0-.329-.204-.329-.203 0-.203.188-.203.329v2.796H.89c-.141 0-.329 0-.329.188 0 .203.188.203.329.203h2.78V.5c0 .14 0 .328.204.328.203 0 .203-.187.203-.328zm0 0" stroke="none"/></symbol></defs><use y="134.765" x="223.432" xlink:href="#a" width="1052.362" height="744.094"/></g><g ns0:text="$-$" ns0:preamble="/home/waldgeist/data/sphinx/inkscape-preamble.tex" transform="translate(-914.192 -235.675) scale(5.70771)" stroke="#000"><defs><symbol overflow="visible" id="b"><path d="M6.563-2.297c.171 0 .359 0 .359-.203 0-.188-.188-.188-.36-.188h-5.39c-.172 0-.344 0-.344.188 0 .203.172.203.344.203zm0 0" stroke="none"/></symbol></defs><use height="744.094" width="1052.362" xlink:href="#b" x="223.432" y="134.765"/></g><g transform="translate(-500.316 -235.675) scale(5.70771)" ns0:preamble="/home/waldgeist/data/sphinx/inkscape-preamble.tex" ns0:text="$\\cdots$" fill="#0e0e87" stroke="#000"><defs><symbol id="c" overflow="visible"><path d="M1.906-2.5a.524.524 0 1 0-.516.531.524.524 0 0 0 .516-.531zm0 0" stroke="none"/></symbol></defs><g fill="#000"><use y="134.765" x="223.432" xlink:href="#c" width="1052.362" height="744.094"/><use y="134.765" x="227.863" xlink:href="#c" width="1052.362" height="744.094"/><use y="134.765" x="232.285" xlink:href="#c" width="1052.362" height="744.094"/></g></g><use height="744.094" width="1052.362" xlink:href="#a" x="223.432" y="134.765" transform="translate(-914.192 -157.435) scale(5.70771)" ns0:text="$+$" ns0:preamble="/home/waldgeist/data/sphinx/inkscape-preamble.tex" stroke="#000"/><use height="744.094" width="1052.362" xlink:href="#a" x="223.432" y="134.765" transform="translate(-773.986 -79.194) scale(5.70771)" ns0:text="$+$" ns0:preamble="/home/waldgeist/data/sphinx/inkscape-preamble.tex" stroke="#000"/><use height="744.094" width="1052.362" xlink:href="#a" x="223.432" y="134.765" transform="translate(-773.986 -235.675) scale(5.70771)" ns0:text="$+$" ns0:preamble="/home/waldgeist/data/sphinx/inkscape-preamble.tex" stroke="#000"/><use y="134.765" x="223.432" xlink:href="#a" width="1052.362" height="744.094" transform="translate(-1062.513 -79.194) scale(5.70771)" ns0:preamble="/home/waldgeist/data/sphinx/inkscape-preamble.tex" ns0:text="$+$" stroke="#000"/><use y="134.765" x="223.432" xlink:href="#b" width="1052.362" height="744.094" transform="translate(-1062.513 -157.435) scale(5.70771)" ns0:preamble="/home/waldgeist/data/sphinx/inkscape-preamble.tex" ns0:text="$-$" stroke="#000"/><use y="134.765" x="223.432" xlink:href="#b" width="1052.362" height="744.094" transform="translate(-914.192 -79.194) scale(5.70771)" ns0:preamble="/home/waldgeist/data/sphinx/inkscape-preamble.tex" ns0:text="$-$" stroke="#000"/><use y="134.765" x="223.432" xlink:href="#b" width="1052.362" height="744.094" transform="translate(-773.986 -157.435) scale(5.70771)" ns0:preamble="/home/waldgeist/data/sphinx/inkscape-preamble.tex" ns0:text="$-$" stroke="#000"/><use y="134.765" x="223.432" xlink:href="#a" width="1052.362" height="744.094" transform="translate(-641.893 -157.435) scale(5.70771)" ns0:preamble="/home/waldgeist/data/sphinx/inkscape-preamble.tex" ns0:text="$+$" stroke="#000"/><use height="744.094" width="1052.362" xlink:href="#b" x="223.432" y="134.765" transform="translate(-649.35 -235.675) scale(5.70771)" ns0:text="$-$" ns0:preamble="/home/waldgeist/data/sphinx/inkscape-preamble.tex" stroke="#000"/><use y="134.765" x="223.432" xlink:href="#b" width="1052.362" height="744.094" transform="translate(-649.35 -79.194) scale(5.70771)" ns0:preamble="/home/waldgeist/data/sphinx/inkscape-preamble.tex" ns0:text="$-$" stroke="#000"/><g stroke="#000"><use height="744.094" width="1052.362" xlink:href="#a" x="223.432" y="134.765" transform="translate(-914.192 -.954) scale(5.70771)" ns0:text="$+$" ns0:preamble="/home/waldgeist/data/sphinx/inkscape-preamble.tex"/></g><use height="744.094" width="1052.362" xlink:href="#b" x="223.432" y="134.765" transform="translate(-1062.513 -.954) scale(5.70771)" ns0:text="$-$" ns0:preamble="/home/waldgeist/data/sphinx/inkscape-preamble.tex" stroke="#000"/><use height="744.094" width="1052.362" xlink:href="#b" x="223.432" y="134.765" transform="translate(-773.986 -.954) scale(5.70771)" ns0:text="$-$" ns0:preamble="/home/waldgeist/data/sphinx/inkscape-preamble.tex" stroke="#000"/><use height="744.094" width="1052.362" xlink:href="#a" x="223.432" y="134.765" transform="translate(-641.893 -.954) scale(5.70771)" ns0:text="$+$" ns0:preamble="/home/waldgeist/data/sphinx/inkscape-preamble.tex" stroke="#000"/><g fill="#000" ns0:text="$\\cdots$" ns0:preamble="/home/waldgeist/data/sphinx/inkscape-preamble.tex" stroke="#000"><use height="744.094" width="1052.362" xlink:href="#c" x="223.432" y="134.765" transform="translate(-500.316 -157.435) scale(5.70771)"/><use height="744.094" width="1052.362" xlink:href="#c" x="227.863" y="134.765" transform="translate(-500.316 -157.435) scale(5.70771)"/><use height="744.094" width="1052.362" xlink:href="#c" x="232.285" y="134.765" transform="translate(-500.316 -157.435) scale(5.70771)"/></g><g fill="#000" ns0:text="$\\cdots$" ns0:preamble="/home/waldgeist/data/sphinx/inkscape-preamble.tex" stroke="#000"><use height="744.094" width="1052.362" xlink:href="#c" x="223.432" y="134.765" transform="translate(-500.316 -79.194) scale(5.70771)"/><use height="744.094" width="1052.362" xlink:href="#c" x="227.863" y="134.765" transform="translate(-500.316 -79.194) scale(5.70771)"/><use height="744.094" width="1052.362" xlink:href="#c" x="232.285" y="134.765" transform="translate(-500.316 -79.194) scale(5.70771)"/></g><g fill="#000" ns0:preamble="/home/waldgeist/data/sphinx/inkscape-preamble.tex" ns0:text="$\\cdots$" stroke="#000"><use y="134.765" x="223.432" xlink:href="#c" width="1052.362" height="744.094" transform="translate(-500.316 -.954) scale(5.70771)"/><use y="134.765" x="227.863" xlink:href="#c" width="1052.362" height="744.094" transform="translate(-500.316 -.954) scale(5.70771)"/><use y="134.765" x="232.285" xlink:href="#c" width="1052.362" height="744.094" transform="translate(-500.316 -.954) scale(5.70771)"/></g><g fill="#000" ns0:preamble="/home/waldgeist/data/sphinx/inkscape-preamble.tex" ns0:text="$\\cdots$" stroke="#000"><use y="134.765" x="223.432" xlink:href="#c" width="1052.362" height="744.094" transform="rotate(90 733.215 256.802) scale(5.70771)"/><use y="134.765" x="227.863" xlink:href="#c" width="1052.362" height="744.094" transform="rotate(90 733.215 256.802) scale(5.70771)"/><use y="134.765" x="232.285" xlink:href="#c" width="1052.362" height="744.094" transform="rotate(90 733.215 256.802) scale(5.70771)"/></g><g fill="#000" ns0:text="$\\cdots$" ns0:preamble="/home/waldgeist/data/sphinx/inkscape-preamble.tex" stroke="#000"><use height="744.094" width="1052.362" xlink:href="#c" x="223.432" y="134.765" transform="rotate(90 807.3 330.886) scale(5.70771)"/><use height="744.094" width="1052.362" xlink:href="#c" x="227.863" y="134.765" transform="rotate(90 807.3 330.886) scale(5.70771)"/><use height="744.094" width="1052.362" xlink:href="#c" x="232.285" y="134.765" transform="rotate(90 807.3 330.886) scale(5.70771)"/></g><g fill="#000" ns0:preamble="/home/waldgeist/data/sphinx/inkscape-preamble.tex" ns0:text="$\\cdots$" stroke="#000"><use y="134.765" x="223.432" xlink:href="#c" width="1052.362" height="744.094" transform="rotate(90 877.403 400.99) scale(5.70771)"/><use y="134.765" x="227.863" xlink:href="#c" width="1052.362" height="744.094" transform="rotate(90 877.403 400.99) scale(5.70771)"/><use y="134.765" x="232.285" xlink:href="#c" width="1052.362" height="744.094" transform="rotate(90 877.403 400.99) scale(5.70771)"/></g><g fill="#000" ns0:text="$\\cdots$" ns0:preamble="/home/waldgeist/data/sphinx/inkscape-preamble.tex" stroke="#000"><use height="744.094" width="1052.362" xlink:href="#c" x="223.432" y="134.765" transform="rotate(90 939.72 463.307) scale(5.70771)"/><use height="744.094" width="1052.362" xlink:href="#c" x="227.863" y="134.765" transform="rotate(90 939.72 463.307) scale(5.70771)"/><use height="744.094" width="1052.362" xlink:href="#c" x="232.285" y="134.765" transform="rotate(90 939.72 463.307) scale(5.70771)"/></g><g fill="#000" ns0:preamble="/home/waldgeist/data/sphinx/inkscape-preamble.tex" ns0:text="$\\cdots$" stroke="#000"><use y="134.765" x="223.432" xlink:href="#c" width="1052.362" height="744.094" transform="rotate(45 946.269 143.689) scale(5.70771)"/><use y="134.765" x="227.863" xlink:href="#c" width="1052.362" height="744.094" transform="rotate(45 946.269 143.689) scale(5.70771)"/><use y="134.765" x="232.285" xlink:href="#c" width="1052.362" height="744.094" transform="rotate(45 946.269 143.689) scale(5.70771)"/></g><path d="M126.102 456.847v446.936M926.26 456.847v446.936" fill="none" stroke="#000" stroke-width="3" stroke-linecap="round"/></g></svg>