<svg xmlns:ns0="http://www.iki.fi/pav/software/textext/" xmlns="http://www.w3.org/2000/svg" xmlns:xlink="http://www.w3.org/1999/xlink" width="1052.362" height="744.094"><title>Matrix-Multiplikation (Falk-Schema) 2</title><path fill="#fff" stroke="#fff" stroke-width="2" stroke-dasharray="2.00000003,8.00000009" d="M24.894 611.347h998.574v-478.6H24.894z"/><path d="M366.086 148.348v447.398M51.453 372.047h957.716" fill="none" stroke="#000" stroke-width="3" stroke-linecap="round"/><g ns0:text="\\begin{align*}\n\\begin{pmatrix}\n(a_{11} &amp; a_{12} &amp; \\ldots &amp; a_{1n}) \\\\\n(a_{21} &amp; a_{22} &amp; \\ldots &amp; a_{2n}) \\\\\n\\vdots &amp; \\vdots &amp; \\ddots &amp; \\vdots \\\\\n(a_{m1} &amp; a_{m2} &amp; \\ldots &amp; a_{mn}) \\\\\n\\end{pmatrix}\n\\end{align*}" ns0:preamble="/home/waldgeist/data/homepage/inkscape-preamble.tex"><use xlink:href="#textext-c0ce48c2-1" x="336.256" y="125.527" width="1052.362" height="744.094" transform="matrix(3.37392 0 0 3.37392 -595.693 -863.368)"/><use xlink:href="#textext-c0ce48c2-2" x="336.256" y="143.061" width="1052.362" height="744.094" transform="matrix(3.37392 0 0 3.37392 -595.693 -863.368)"/><use xlink:href="#textext-c0ce48c2-2" x="336.256" y="149.039" width="1052.362" height="744.094" transform="matrix(3.37392 0 0 3.37392 -595.693 -863.368)"/><use xlink:href="#textext-c0ce48c2-2" x="336.256" y="155.017" width="1052.362" height="744.094" transform="matrix(3.37392 0 0 3.37392 -595.693 -863.368)"/><use xlink:href="#textext-c0ce48c2-3" x="336.256" y="161.393" width="1052.362" height="744.094" transform="matrix(3.37392 0 0 3.37392 -595.693 -863.368)"/><use xlink:href="#textext-c0ce48c2-8" x="346.523" y="133.171" width="1052.362" height="744.094" transform="matrix(3.37392 0 0 3.37392 -595.693 -863.368)"/><use xlink:href="#textext-c0ce48c2-12" x="350.397" y="133.171" width="1052.362" height="744.094" transform="matrix(3.37392 0 0 3.37392 -595.693 -863.368)"/><g transform="matrix(3.37392 0 0 3.37392 -595.693 -863.368)"><use xlink:href="#textext-c0ce48c2-15" x="355.663" y="134.665" width="1052.362" height="744.094"/><use xlink:href="#textext-c0ce48c2-15" x="359.635" y="134.665" width="1052.362" height="744.094"/></g><use xlink:href="#textext-c0ce48c2-12" x="377.165" y="133.171" width="1052.362" height="744.094" transform="matrix(3.37392 0 0 3.37392 -595.693 -863.368)"/><g transform="matrix(3.37392 0 0 3.37392 -595.693 -863.368)"><use xlink:href="#textext-c0ce48c2-15" x="382.431" y="134.665" width="1052.362" height="744.094"/><use xlink:href="#textext-c0ce48c2-16" x="386.403" y="134.665" width="1052.362" height="744.094"/></g><use xlink:href="#textext-c0ce48c2-13" x="402.383" y="133.171" width="1052.362" height="744.094" transform="matrix(3.37392 0 0 3.37392 -595.693 -863.368)"/><use xlink:href="#textext-c0ce48c2-13" x="406.814" y="133.171" width="1052.362" height="744.094" transform="matrix(3.37392 0 0 3.37392 -595.693 -863.368)"/><use xlink:href="#textext-c0ce48c2-13" x="411.236" y="133.171" width="1052.362" height="744.094" transform="matrix(3.37392 0 0 3.37392 -595.693 -863.368)"/><use xlink:href="#textext-c0ce48c2-12" x="425.52" y="133.171" width="1052.362" height="744.094" transform="matrix(3.37392 0 0 3.37392 -595.693 -863.368)"/><use xlink:href="#textext-c0ce48c2-15" x="430.784" y="134.665" width="1052.362" height="744.094" transform="matrix(3.37392 0 0 3.37392 -595.693 -863.368)"/><use xlink:href="#textext-c0ce48c2-18" x="434.755" y="134.665" width="1052.362" height="744.094" transform="matrix(3.37392 0 0 3.37392 -595.693 -863.368)"/><use xlink:href="#textext-c0ce48c2-9" x="440.178" y="133.171" width="1052.362" height="744.094" transform="matrix(3.37392 0 0 3.37392 -595.693 -863.368)"/><use xlink:href="#textext-c0ce48c2-8" x="346.523" y="145.126" width="1052.362" height="744.094" transform="matrix(3.37392 0 0 3.37392 -595.693 -863.368)"/><use xlink:href="#textext-c0ce48c2-12" x="350.397" y="145.126" width="1052.362" height="744.094" transform="matrix(3.37392 0 0 3.37392 -595.693 -863.368)"/><g transform="matrix(3.37392 0 0 3.37392 -595.693 -863.368)"><use xlink:href="#textext-c0ce48c2-16" x="355.663" y="146.62" width="1052.362" height="744.094"/><use xlink:href="#textext-c0ce48c2-15" x="359.635" y="146.62" width="1052.362" height="744.094"/></g><use xlink:href="#textext-c0ce48c2-12" x="377.165" y="145.126" width="1052.362" height="744.094" transform="matrix(3.37392 0 0 3.37392 -595.693 -863.368)"/><g transform="matrix(3.37392 0 0 3.37392 -595.693 -863.368)"><use xlink:href="#textext-c0ce48c2-16" x="382.431" y="146.62" width="1052.362" height="744.094"/><use xlink:href="#textext-c0ce48c2-16" x="386.403" y="146.62" width="1052.362" height="744.094"/></g><use xlink:href="#textext-c0ce48c2-13" x="402.383" y="145.126" width="1052.362" height="744.094" transform="matrix(3.37392 0 0 3.37392 -595.693 -863.368)"/><use xlink:href="#textext-c0ce48c2-13" x="406.814" y="145.126" width="1052.362" height="744.094" transform="matrix(3.37392 0 0 3.37392 -595.693 -863.368)"/><use xlink:href="#textext-c0ce48c2-13" x="411.236" y="145.126" width="1052.362" height="744.094" transform="matrix(3.37392 0 0 3.37392 -595.693 -863.368)"/><use xlink:href="#textext-c0ce48c2-12" x="425.52" y="145.126" width="1052.362" height="744.094" transform="matrix(3.37392 0 0 3.37392 -595.693 -863.368)"/><use xlink:href="#textext-c0ce48c2-16" x="430.784" y="146.62" width="1052.362" height="744.094" transform="matrix(3.37392 0 0 3.37392 -595.693 -863.368)"/><use xlink:href="#textext-c0ce48c2-18" x="434.755" y="146.62" width="1052.362" height="744.094" transform="matrix(3.37392 0 0 3.37392 -595.693 -863.368)"/><use xlink:href="#textext-c0ce48c2-9" x="440.178" y="145.126" width="1052.362" height="744.094" transform="matrix(3.37392 0 0 3.37392 -595.693 -863.368)"/><use xlink:href="#textext-c0ce48c2-10" x="353.929" y="155.742" width="1052.362" height="744.094" transform="matrix(3.37392 0 0 3.37392 -595.693 -863.368)"/><use xlink:href="#textext-c0ce48c2-10" x="353.929" y="159.727" width="1052.362" height="744.094" transform="matrix(3.37392 0 0 3.37392 -595.693 -863.368)"/><use xlink:href="#textext-c0ce48c2-10" x="353.929" y="163.712" width="1052.362" height="744.094" transform="matrix(3.37392 0 0 3.37392 -595.693 -863.368)"/><use xlink:href="#textext-c0ce48c2-10" x="382.634" y="155.742" width="1052.362" height="744.094" transform="matrix(3.37392 0 0 3.37392 -595.693 -863.368)"/><use xlink:href="#textext-c0ce48c2-10" x="382.634" y="159.727" width="1052.362" height="744.094" transform="matrix(3.37392 0 0 3.37392 -595.693 -863.368)"/><use xlink:href="#textext-c0ce48c2-10" x="382.634" y="163.712" width="1052.362" height="744.094" transform="matrix(3.37392 0 0 3.37392 -595.693 -863.368)"/><use xlink:href="#textext-c0ce48c2-10" x="402.937" y="156.738" width="1052.362" height="744.094" transform="matrix(3.37392 0 0 3.37392 -595.693 -863.368)"/><use xlink:href="#textext-c0ce48c2-10" x="406.811" y="159.727" width="1052.362" height="744.094" transform="matrix(3.37392 0 0 3.37392 -595.693 -863.368)"/><use xlink:href="#textext-c0ce48c2-10" x="410.685" y="162.715" width="1052.362" height="744.094" transform="matrix(3.37392 0 0 3.37392 -595.693 -863.368)"/><use xlink:href="#textext-c0ce48c2-10" x="433.402" y="155.742" width="1052.362" height="744.094" transform="matrix(3.37392 0 0 3.37392 -595.693 -863.368)"/><use xlink:href="#textext-c0ce48c2-10" x="433.402" y="159.727" width="1052.362" height="744.094" transform="matrix(3.37392 0 0 3.37392 -595.693 -863.368)"/><use xlink:href="#textext-c0ce48c2-10" x="433.402" y="163.712" width="1052.362" height="744.094" transform="matrix(3.37392 0 0 3.37392 -595.693 -863.368)"/><use xlink:href="#textext-c0ce48c2-8" x="344.973" y="175.667" width="1052.362" height="744.094" transform="matrix(3.37392 0 0 3.37392 -595.693 -863.368)"/><use xlink:href="#textext-c0ce48c2-12" x="348.848" y="175.667" width="1052.362" height="744.094" transform="matrix(3.37392 0 0 3.37392 -595.693 -863.368)"/><use xlink:href="#textext-c0ce48c2-19" x="354.114" y="177.161" width="1052.362" height="744.094" transform="matrix(3.37392 0 0 3.37392 -595.693 -863.368)"/><use xlink:href="#textext-c0ce48c2-15" x="361.183" y="177.161" width="1052.362" height="744.094" transform="matrix(3.37392 0 0 3.37392 -595.693 -863.368)"/><use xlink:href="#textext-c0ce48c2-12" x="375.615" y="175.667" width="1052.362" height="744.094" transform="matrix(3.37392 0 0 3.37392 -595.693 -863.368)"/><use xlink:href="#textext-c0ce48c2-19" x="380.882" y="177.161" width="1052.362" height="744.094" transform="matrix(3.37392 0 0 3.37392 -595.693 -863.368)"/><use xlink:href="#textext-c0ce48c2-16" x="387.951" y="177.161" width="1052.362" height="744.094" transform="matrix(3.37392 0 0 3.37392 -595.693 -863.368)"/><use xlink:href="#textext-c0ce48c2-13" x="402.383" y="175.667" width="1052.362" height="744.094" transform="matrix(3.37392 0 0 3.37392 -595.693 -863.368)"/><use xlink:href="#textext-c0ce48c2-13" x="406.814" y="175.667" width="1052.362" height="744.094" transform="matrix(3.37392 0 0 3.37392 -595.693 -863.368)"/><use xlink:href="#textext-c0ce48c2-13" x="411.236" y="175.667" width="1052.362" height="744.094" transform="matrix(3.37392 0 0 3.37392 -595.693 -863.368)"/><use xlink:href="#textext-c0ce48c2-12" x="423.966" y="175.667" width="1052.362" height="744.094" transform="matrix(3.37392 0 0 3.37392 -595.693 -863.368)"/><g transform="matrix(3.37392 0 0 3.37392 -595.693 -863.368)"><use xlink:href="#textext-c0ce48c2-19" x="429.235" y="177.161" width="1052.362" height="744.094"/><use xlink:href="#textext-c0ce48c2-18" x="436.304" y="177.161" width="1052.362" height="744.094"/></g><use xlink:href="#textext-c0ce48c2-9" x="441.728" y="175.667" width="1052.362" height="744.094" transform="matrix(3.37392 0 0 3.37392 -595.693 -863.368)"/><use xlink:href="#textext-c0ce48c2-4" x="445.602" y="125.527" width="1052.362" height="744.094" transform="matrix(3.37392 0 0 3.37392 -595.693 -863.368)"/><use xlink:href="#textext-c0ce48c2-5" x="445.602" y="143.061" width="1052.362" height="744.094" transform="matrix(3.37392 0 0 3.37392 -595.693 -863.368)"/><use xlink:href="#textext-c0ce48c2-5" x="445.602" y="149.039" width="1052.362" height="744.094" transform="matrix(3.37392 0 0 3.37392 -595.693 -863.368)"/><use xlink:href="#textext-c0ce48c2-5" x="445.602" y="155.017" width="1052.362" height="744.094" transform="matrix(3.37392 0 0 3.37392 -595.693 -863.368)"/><use xlink:href="#textext-c0ce48c2-6" x="445.602" y="161.393" width="1052.362" height="744.094" transform="matrix(3.37392 0 0 3.37392 -595.693 -863.368)"/></g><path style="marker:none" color="#000" fill="#fff" fill-rule="evenodd" stroke="#000" stroke-width="1.5" overflow="visible" d="M1052.362 744.094h423.598v287.27h-423.598z"/><g transform="matrix(2.6286 0 0 2.62731 -837.98 68.762)" ns0:preamble="/home/waldgeist/data/homepage/inkscape-preamble.tex" ns0:text="\\begin{align*}\n\\begin{pmatrix}\n(a_{11} &amp; a_{12} &amp; \\ldots &amp; a_{1n}) \\\\[4pt]\n(a_{21} &amp; a_{22} &amp; \\ldots &amp; a_{2n}) \\\\[4pt]\n\\vdots &amp; \\vdots &amp; \\ddots &amp; \\vdots \\\\[4pt]\n(a_{m1} &amp; a_{m2} &amp; \\ldots &amp; a_{mn}) \\\\\n\\end{pmatrix}\n\\end{align*}"><defs><symbol id="a" overflow="visible"><path d="M3.734 17.64c.22 0 .266 0 .266-.14.031-6.984.828-12.781 4.328-17.656.063-.094.063-.11.063-.14 0-.095-.063-.095-.22-.095-.171 0-.187 0-.202.016-.047.031-1.313 1.484-2.313 3.5-1.312 2.625-2.14 5.64-2.515 9.281a50.3 50.3 0 0 0-.235 4.735v.39c0 .11.063.11.281.11zm0 0"/></symbol><symbol id="b" overflow="visible"><path d="M4 .172c0-.266 0-.266-.266-.266h-.546c-.282 0-.282 0-.282.266v5.64c0 .266 0 .266.281.266h.547c.266 0 .266 0 .266-.266zm0 0"/></symbol><symbol id="c" overflow="visible"><path d="M3.188-.5c-.22 0-.282 0-.282.11V0c0 6.094 1.078 9.656 1.39 10.672.673 2.203 1.782 4.547 3.454 6.594.14.187.188.234.219.25.031.015.031.015.203.015.156 0 .219 0 .219-.093 0-.016 0-.047-.063-.125C5.016 12.703 4.016 7.155 4-.36 4-.5 3.953-.5 3.734-.5zm0 0"/></symbol><symbol id="m" overflow="visible"><path d="M5.813 17.14c0-6.078-1.094-9.656-1.391-10.656C3.734 4.266 2.625 1.938.969-.125.813-.297.78-.344.734-.375c-.015 0-.03-.016-.187-.016-.14 0-.235 0-.235.094 0 .031 0 .047.141.234C3.922 4.782 4.687 10.75 4.703 17.5c0 .14.063.14.281.14h.547c.203 0 .266 0 .282-.109zm0 0"/></symbol><symbol id="n" overflow="visible"><path d="M5.813.172c0-.266-.016-.266-.282-.266h-.547c-.265 0-.28 0-.28.266v5.64c0 .266.015.266.28.266h.547c.266 0 .282 0 .282-.266zm0 0"/></symbol><symbol id="o" overflow="visible"><path d="M5.813-.39C5.796-.5 5.734-.5 5.53-.5h-.547c-.218 0-.28 0-.28.14 0 1.032-.016 3.407-.266 5.876C3.89 10.672 2.577 14.25.39 17.312c-.079.079-.079.11-.079.125 0 .094.094.094.235.094.156 0 .187 0 .203-.015.031-.032 1.297-1.485 2.313-3.485 1.312-2.64 2.14-5.656 2.515-9.281.031-.313.234-2.39.234-4.75zm0 0"/></symbol><symbol id="d" overflow="visible"><path d="M3.297 2.39c0-.03 0-.046-.172-.218C1.891.922 1.562-.968 1.562-2.5c0-1.734.375-3.469 1.61-4.703.125-.125.125-.14.125-.172 0-.078-.031-.11-.094-.11-.11 0-1 .688-1.594 1.954C1.11-4.438.984-3.328.984-2.5c0 .781.11 1.984.657 3.125C2.25 1.844 3.094 2.5 3.203 2.5c.063 0 .094-.031.094-.11zm0 0"/></symbol><symbol id="j" overflow="visible"><path d="M2.875-2.5c0-.766-.11-1.969-.656-3.11C1.625-6.827.766-7.483.672-7.483a.107.107 0 0 0-.11.109c0 .031 0 .047.188.234.984.985 1.547 2.563 1.547 4.641 0 1.719-.36 3.469-1.594 4.719-.14.125-.14.14-.14.172 0 .062.046.109.109.109.094 0 1-.688 1.578-1.953.516-1.094.625-2.203.625-3.047zm0 0"/></symbol><symbol id="k" overflow="visible"><path d="M1.906-.531a.534.534 0 0 0-.515-.531.537.537 0 0 0-.532.53.524.524 0 1 0 1.047 0zm0 0"/></symbol><symbol id="e" overflow="visible"><path d="M3.719-3.766c-.188-.375-.469-.64-.922-.64-1.156 0-2.39 1.468-2.39 2.922C.406-.547.952.109 1.718.109c.203 0 .703-.046 1.297-.75a.91.91 0 0 0 .906.75c.36 0 .578-.234.75-.546a6.49 6.49 0 0 0 .297-.985c0-.11-.094-.11-.125-.11-.094 0-.11.048-.14.188-.173.64-.345 1.235-.75 1.235-.282 0-.298-.266-.298-.454 0-.218.016-.312.125-.75.11-.406.125-.515.219-.89l.36-1.39c.062-.282.062-.298.062-.345 0-.171-.11-.265-.281-.265-.25 0-.391.219-.422.437zm-.64 2.579c-.063.187-.063.203-.204.375-.438.546-.844.703-1.125.703-.5 0-.64-.547-.64-.938 0-.5.312-1.719.546-2.187.313-.579.75-.954 1.157-.954.64 0 .78.813.78.875a.562.562 0 0 1-.03.172zm0 0"/></symbol><symbol id="h" overflow="visible"><path d="M1.906-.531a.534.534 0 0 0-.515-.531.537.537 0 0 0-.532.53.524.524 0 1 0 1.047 0zm0 0"/></symbol><symbol id="f" overflow="visible"><path d="M2.328-4.438c0-.187 0-.187-.203-.187-.453.438-1.078.438-1.36.438v.25c.157 0 .626 0 1-.188v3.547c0 .234 0 .328-.687.328H.812V0c.125 0 .985-.031 1.235-.031.219 0 1.094.031 1.25.031v-.25H3.03c-.703 0-.703-.094-.703-.328zm0 0"/></symbol><symbol id="g" overflow="visible"><path d="M3.516-1.266H3.28c-.015.157-.094.563-.187.625-.047.047-.578.047-.688.047H1.125c.734-.64.984-.844 1.39-1.172.516-.406 1-.843 1-1.5 0-.843-.734-1.359-1.624-1.359-.86 0-1.454.61-1.454 1.25 0 .344.297.39.376.39.156 0 .359-.124.359-.374 0-.125-.047-.375-.406-.375.218-.485.687-.641 1.015-.641.703 0 1.063.547 1.063 1.11 0 .609-.438 1.078-.656 1.328L.516-.266C.437-.203.437-.187.437 0h2.876zm0 0"/></symbol><symbol id="i" overflow="visible"><path d="M.844-.438C.828-.344.78-.171.78-.156c0 .156.125.218.235.218a.377.377 0 0 0 .28-.14c.032-.063.079-.297.126-.438.031-.125.11-.453.14-.625.047-.156.094-.312.125-.468.079-.282.094-.344.297-.625.188-.282.516-.641 1.047-.641.39 0 .406.36.406.484 0 .422-.296 1.188-.406 1.485-.078.203-.11.265-.11.375 0 .375.298.594.657.594.703 0 1-.954 1-1.063 0-.094-.078-.094-.11-.094-.093 0-.093.047-.124.125-.157.563-.469.844-.735.844-.156 0-.187-.094-.187-.25s.047-.25.172-.563c.078-.218.36-.953.36-1.343 0-.672-.532-.797-.907-.797-.578 0-.969.36-1.172.64-.047-.484-.453-.64-.75-.64s-.453.219-.547.375c-.156.265-.25.656-.25.703 0 .078.094.078.125.078.094 0 .094-.016.14-.203.11-.406.25-.75.516-.75.188 0 .235.156.235.344 0 .125-.063.39-.125.578-.047.187-.11.469-.14.625zm0 0"/></symbol><symbol id="l" overflow="visible"><path d="M3.031-.563c-.047.141-.11.375-.11.407 0 .156.126.218.235.218.14 0 .25-.078.281-.14a3.17 3.17 0 0 0 .126-.438c.03-.125.109-.453.156-.625.031-.156.078-.312.11-.468.077-.297.077-.313.218-.532.219-.343.578-.734 1.11-.734.39 0 .421.313.421.484 0 .422-.297 1.188-.422 1.485-.062.203-.093.265-.093.375 0 .375.296.594.656.594.703 0 1-.954 1-1.063 0-.094-.078-.094-.11-.094-.093 0-.093.047-.125.125-.156.563-.468.844-.734.844-.156 0-.188-.094-.188-.25s.047-.25.172-.563c.079-.218.36-.953.36-1.343 0-.11 0-.406-.25-.61a1.17 1.17 0 0 0-.657-.187c-.625 0-1 .422-1.234.703-.047-.594-.547-.703-.906-.703-.578 0-.969.36-1.172.64-.047-.484-.453-.64-.75-.64s-.453.219-.547.375c-.156.265-.25.656-.25.703 0 .078.094.078.125.078.094 0 .094-.016.14-.203.11-.406.25-.75.516-.75.188 0 .235.156.235.344 0 .125-.063.39-.125.578-.047.187-.11.469-.14.625l-.235.89C.828-.344.78-.171.78-.156c0 .156.125.218.235.218a.377.377 0 0 0 .28-.14c.032-.063.079-.297.126-.438.031-.125.11-.453.14-.625.047-.156.094-.312.125-.468.079-.282.094-.344.297-.625.188-.282.516-.641 1.047-.641.39 0 .406.36.406.484 0 .172-.015.266-.124.657zm0 0"/></symbol></defs><use height="744.094" width="1052.362" y="125.527" x="336.256" xlink:href="#a"/><use height="744.094" width="1052.362" y="143.061" x="336.256" xlink:href="#b"/><use height="744.094" width="1052.362" y="149.039" x="336.256" xlink:href="#b"/><use height="744.094" width="1052.362" y="155.016" x="336.256" xlink:href="#b"/><use height="744.094" width="1052.362" y="160.994" x="336.256" xlink:href="#b"/><use height="744.094" width="1052.362" y="166.972" x="336.256" xlink:href="#b"/><use height="744.094" width="1052.362" y="173.348" x="336.256" xlink:href="#c"/><use height="744.094" width="1052.362" y="133.171" x="346.523" xlink:href="#d"/><use height="744.094" width="1052.362" y="133.171" x="350.397" xlink:href="#e"/><use height="744.094" width="1052.362" y="134.665" x="355.663" xlink:href="#f"/><use height="744.094" width="1052.362" y="134.665" x="359.635" xlink:href="#f"/><use height="744.094" width="1052.362" y="133.171" x="377.165" xlink:href="#e"/><use height="744.094" width="1052.362" y="134.665" x="382.431" xlink:href="#f"/><use height="744.094" width="1052.362" y="134.665" x="386.403" xlink:href="#g"/><use height="744.094" width="1052.362" y="133.171" x="402.383" xlink:href="#h"/><use height="744.094" width="1052.362" y="133.171" x="406.814" xlink:href="#h"/><use height="744.094" width="1052.362" y="133.171" x="411.236" xlink:href="#h"/><use height="744.094" width="1052.362" y="133.171" x="425.52" xlink:href="#e"/><use height="744.094" width="1052.362" y="134.665" x="430.784" xlink:href="#f"/><use height="744.094" width="1052.362" y="134.665" x="434.755" xlink:href="#i"/><use height="744.094" width="1052.362" y="133.171" x="440.178" xlink:href="#j"/><use height="744.094" width="1052.362" y="149.111" x="346.523" xlink:href="#d"/><use height="744.094" width="1052.362" y="149.111" x="350.397" xlink:href="#e"/><use height="744.094" width="1052.362" y="150.605" x="355.663" xlink:href="#g"/><use height="744.094" width="1052.362" y="150.605" x="359.635" xlink:href="#f"/><use height="744.094" width="1052.362" y="149.111" x="377.165" xlink:href="#e"/><use height="744.094" width="1052.362" y="150.605" x="382.431" xlink:href="#g"/><use height="744.094" width="1052.362" y="150.605" x="386.403" xlink:href="#g"/><use height="744.094" width="1052.362" y="149.111" x="402.383" xlink:href="#h"/><use height="744.094" width="1052.362" y="149.111" x="406.814" xlink:href="#h"/><use height="744.094" width="1052.362" y="149.111" x="411.236" xlink:href="#h"/><use height="744.094" width="1052.362" y="149.111" x="425.52" xlink:href="#e"/><use height="744.094" width="1052.362" y="150.605" x="430.784" xlink:href="#g"/><use height="744.094" width="1052.362" y="150.605" x="434.755" xlink:href="#i"/><use height="744.094" width="1052.362" y="149.111" x="440.178" xlink:href="#j"/><use height="744.094" width="1052.362" y="163.712" x="353.929" xlink:href="#k"/><use height="744.094" width="1052.362" y="167.697" x="353.929" xlink:href="#k"/><use height="744.094" width="1052.362" y="171.682" x="353.929" xlink:href="#k"/><use height="744.094" width="1052.362" y="163.712" x="382.634" xlink:href="#k"/><use height="744.094" width="1052.362" y="167.697" x="382.634" xlink:href="#k"/><use height="744.094" width="1052.362" y="171.682" x="382.634" xlink:href="#k"/><use height="744.094" width="1052.362" y="164.708" x="402.937" xlink:href="#k"/><use height="744.094" width="1052.362" y="167.697" x="406.811" xlink:href="#k"/><use height="744.094" width="1052.362" y="170.686" x="410.685" xlink:href="#k"/><use height="744.094" width="1052.362" y="163.712" x="433.402" xlink:href="#k"/><use height="744.094" width="1052.362" y="167.697" x="433.402" xlink:href="#k"/><use height="744.094" width="1052.362" y="171.682" x="433.402" xlink:href="#k"/><use height="744.094" width="1052.362" y="187.622" x="344.973" xlink:href="#d"/><use height="744.094" width="1052.362" y="187.622" x="348.848" xlink:href="#e"/><use height="744.094" width="1052.362" y="189.116" x="354.114" xlink:href="#l"/><use height="744.094" width="1052.362" y="189.116" x="361.183" xlink:href="#f"/><use height="744.094" width="1052.362" y="187.622" x="375.615" xlink:href="#e"/><use height="744.094" width="1052.362" y="189.116" x="380.882" xlink:href="#l"/><use height="744.094" width="1052.362" y="189.116" x="387.951" xlink:href="#g"/><use height="744.094" width="1052.362" y="187.622" x="402.383" xlink:href="#h"/><use height="744.094" width="1052.362" y="187.622" x="406.814" xlink:href="#h"/><use height="744.094" width="1052.362" y="187.622" x="411.236" xlink:href="#h"/><use height="744.094" width="1052.362" y="187.622" x="423.966" xlink:href="#e"/><use height="744.094" width="1052.362" y="189.116" x="429.235" xlink:href="#l"/><use height="744.094" width="1052.362" y="189.116" x="436.304" xlink:href="#i"/><use height="744.094" width="1052.362" y="187.622" x="441.728" xlink:href="#j"/><use height="744.094" width="1052.362" y="125.527" x="445.602" xlink:href="#m"/><use height="744.094" width="1052.362" y="143.061" x="445.602" xlink:href="#n"/><g><use height="744.094" width="1052.362" y="149.039" x="445.602" xlink:href="#n"/></g><g><use height="744.094" width="1052.362" y="155.017" x="445.602" xlink:href="#n"/></g><g><use height="744.094" width="1052.362" y="160.994" x="445.602" xlink:href="#n"/></g><g><use height="744.094" width="1052.362" y="166.972" x="445.602" xlink:href="#n"/></g><g><use height="744.094" width="1052.362" y="173.348" x="445.602" xlink:href="#o"/></g></g><g ns0:text="\\begin{align*}\n\\underline{A} \\cdot \\underline{B}\n\\end{align*}" ns0:preamble="/home/waldgeist/data/homepage/inkscape-preamble.tex" transform="matrix(2.6286 0 0 2.62731 -838.82 -83.153)"><defs><symbol overflow="visible" id="p"><path d="M1.781-1.14C1.391-.485 1-.345.563-.314c-.125.016-.22.016-.22.204 0 .062.063.109.141.109.266 0 .579-.031.844-.031.344 0 .688.031 1 .031.063 0 .188 0 .188-.188 0-.109-.079-.124-.157-.124-.218-.016-.468-.094-.468-.344 0-.125.062-.235.14-.375l.766-1.266h2.5c.016.203.156 1.563.156 1.656 0 .297-.516.329-.719.329-.14 0-.234 0-.234.203C4.5 0 4.61 0 4.64 0c.407 0 .829-.031 1.235-.031.25 0 .89.031 1.14.031.048 0 .173 0 .173-.203 0-.11-.094-.11-.235-.11-.61 0-.61-.062-.64-.359l-.61-6.219c-.016-.203-.016-.25-.187-.25-.157 0-.204.079-.266.172zm1.203-1.47l1.954-3.296.328 3.297zm0 0"/></symbol><symbol overflow="visible" id="r"><path d="M1.594-.781c-.094.39-.125.469-.907.469-.171 0-.265 0-.265.203C.422 0 .516 0 .688 0H4.25C5.828 0 7-1.172 7-2.156c0-.719-.578-1.297-1.547-1.406 1.031-.188 2.078-.922 2.078-1.876 0-.734-.656-1.375-1.843-1.375h-3.36c-.187 0-.281 0-.281.204 0 .109.094.109.281.109.016 0 .203 0 .375.016.172.03.266.03.266.171 0 .032-.016.063-.031.188zm1.5-2.875l.625-2.469c.094-.344.11-.375.531-.375h1.297c.875 0 1.078.594 1.078 1.031 0 .875-.86 1.813-2.063 1.813zM2.656-.312h-.219c-.109-.016-.14-.032-.14-.11 0-.031 0-.047.062-.219l.688-2.78h1.875c.953 0 1.156.733 1.156 1.155 0 .985-.89 1.954-2.078 1.954zm0 0"/></symbol><symbol overflow="visible" id="q"><path d="M1.906-2.5a.524.524 0 1 0-.516.531.524.524 0 0 0 .516-.531zm0 0"/></symbol></defs><use height="744.094" width="1052.362" xlink:href="#p" x="383.926" y="134.765"/><path d="M383.926 136.16h7.472" fill="none" stroke="#000" stroke-width=".511" stroke-miterlimit="10"/><use height="744.094" width="1052.362" xlink:href="#q" x="393.612" y="134.765"/><use height="744.094" width="1052.362" xlink:href="#r" x="398.593" y="134.765"/><path d="M398.594 136.16h8.054" fill="none" stroke="#000" stroke-width=".511" stroke-miterlimit="10"/></g><g ns0:text="\\begin{align*}\n\\begin{pmatrix}\n\\qquad\\; b_{11}\\;\\qquad &amp; \\;\\qquad b_{12}\\qquad\\; &amp; \\; \\cdots &amp; \\qquad b_{1p}\\qquad\\; \\\\[4pt]\n\\qquad\\; b_{21}\\;\\qquad &amp; \\;\\qquad b_{22}\\qquad\\; &amp; \\; \\cdots &amp; \\qquad b_{2p}\\qquad\\; \\\\[4pt]\n\\qquad\\; \\vdots \\;\\qquad &amp; \\;\\qquad \\vdots \\qquad\\; &amp; \\; \\ddots &amp; \\vdots\\;\\; \\\\[4pt]\n\\qquad\\; b_{n1}\\;\\qquad &amp; \\;\\qquad b_{n2} \\qquad\\; &amp; \\;\\cdots &amp; \\qquad b_{np}\\qquad\\;\\\\\n\\end{pmatrix}\n\\end{align*}" ns0:preamble="/home/waldgeist/data/homepage/inkscape-preamble.tex" transform="matrix(2.6286 0 0 2.62731 -349.842 -170.535)"><defs><symbol overflow="visible" id="s"><path d="M3.734 17.64c.22 0 .266 0 .266-.14.031-6.984.828-12.781 4.328-17.656.063-.094.063-.11.063-.14 0-.095-.063-.095-.22-.095-.171 0-.187 0-.202.016-.047.031-1.313 1.484-2.313 3.5-1.312 2.625-2.14 5.64-2.515 9.281a50.3 50.3 0 0 0-.235 4.735v.39c0 .11.063.11.281.11zm0 0"/></symbol><symbol overflow="visible" id="t"><path d="M4 .172c0-.266 0-.266-.266-.266h-.546c-.282 0-.282 0-.282.266v5.64c0 .266 0 .266.281.266h.547c.266 0 .266 0 .266-.266zm0 0"/></symbol><symbol overflow="visible" id="u"><path d="M3.188-.5c-.22 0-.282 0-.282.11V0c0 6.094 1.078 9.656 1.39 10.672.673 2.203 1.782 4.547 3.454 6.594.14.187.188.234.219.25.031.015.031.015.203.015.156 0 .219 0 .219-.093 0-.016 0-.047-.063-.125C5.016 12.703 4.016 7.155 4-.36 4-.5 3.953-.5 3.734-.5zm0 0"/></symbol><symbol overflow="visible" id="C"><path d="M5.813 17.14c0-6.078-1.094-9.656-1.391-10.656C3.734 4.266 2.625 1.938.969-.125.813-.297.78-.344.734-.375c-.015 0-.03-.016-.187-.016-.14 0-.235 0-.235.094 0 .031 0 .047.141.234C3.922 4.782 4.687 10.75 4.703 17.5c0 .14.063.14.281.14h.547c.203 0 .266 0 .282-.109zm0 0"/></symbol><symbol overflow="visible" id="D"><path d="M5.813.172c0-.266-.016-.266-.282-.266h-.547c-.265 0-.28 0-.28.266v5.64c0 .266.015.266.28.266h.547c.266 0 .282 0 .282-.266zm0 0"/></symbol><symbol overflow="visible" id="E"><path d="M5.813-.39C5.796-.5 5.734-.5 5.53-.5h-.547c-.218 0-.28 0-.28.14 0 1.032-.016 3.407-.266 5.876C3.89 10.672 2.577 14.25.39 17.312c-.079.079-.079.11-.079.125 0 .094.094.094.235.094.156 0 .187 0 .203-.015.031-.032 1.297-1.485 2.313-3.485 1.312-2.64 2.14-5.656 2.515-9.281.031-.313.234-2.39.234-4.75zm0 0"/></symbol><symbol overflow="visible" id="v"><path d="M2.375-6.813s0-.109-.125-.109c-.219 0-.953.078-1.219.11-.078 0-.187.015-.187.187 0 .125.094.125.25.125.468 0 .484.063.484.172 0 .062-.078.406-.125.61l-.828 3.25c-.11.5-.156.671-.156 1.015C.469-.516 1 .109 1.734.109c1.172 0 2.407-1.484 2.407-2.921 0-.907-.532-1.594-1.329-1.594-.453 0-.874.297-1.171.593zm-.922 3.766c.047-.219.047-.234.14-.344.485-.64.938-.796 1.204-.796.36 0 .625.296.625.937 0 .594-.328 1.734-.516 2.11-.328.671-.781 1.03-1.172 1.03-.343 0-.671-.265-.671-1 0-.202 0-.39.156-1.015zm0 0"/></symbol><symbol overflow="visible" id="w"><path d="M2.328-4.438c0-.187 0-.187-.203-.187-.453.438-1.078.438-1.36.438v.25c.157 0 .626 0 1-.188v3.547c0 .234 0 .328-.687.328H.812V0c.125 0 .985-.031 1.235-.031.219 0 1.094.031 1.25.031v-.25H3.03c-.703 0-.703-.094-.703-.328zm0 0"/></symbol><symbol overflow="visible" id="x"><path d="M3.516-1.266H3.28c-.015.157-.094.563-.187.625-.047.047-.578.047-.688.047H1.125c.734-.64.984-.844 1.39-1.172.516-.406 1-.843 1-1.5 0-.843-.734-1.359-1.624-1.359-.86 0-1.454.61-1.454 1.25 0 .344.297.39.376.39.156 0 .359-.124.359-.374 0-.125-.047-.375-.406-.375.218-.485.687-.641 1.015-.641.703 0 1.063.547 1.063 1.11 0 .609-.438 1.078-.656 1.328L.516-.266C.437-.203.437-.187.437 0h2.876zm0 0"/></symbol><symbol overflow="visible" id="y"><path d="M1.906-2.5a.524.524 0 1 0-.516.531.524.524 0 0 0 .516-.531zm0 0"/></symbol><symbol overflow="visible" id="z"><path d="M.516.844c-.047.203-.063.25-.329.25-.093 0-.187 0-.187.156 0 .078.063.11.094.11.172 0 .406-.032.594-.032.234 0 .5.031.734.031.062 0 .14-.03.14-.156 0-.11-.093-.11-.187-.11-.156 0-.344 0-.344-.077 0-.032.063-.22.078-.313.094-.375.188-.75.266-1.047.078.14.297.406.719.406.844 0 1.781-.937 1.781-1.968 0-.813-.563-1.172-1.031-1.172-.438 0-.813.297-1 .5-.11-.406-.5-.5-.719-.5-.266 0-.438.187-.547.375-.14.234-.25.656-.25.703 0 .078.094.078.125.078.094 0 .094-.016.14-.203.11-.406.25-.75.516-.75.188 0 .235.156.235.344a.693.693 0 0 1-.032.203zm1.328-3.078c.406-.547.75-.641.968-.641.282 0 .516.203.516.672 0 .281-.156 1-.36 1.406-.187.344-.515.672-.874.672-.5 0-.625-.531-.625-.61 0-.03.015-.078.015-.109zm0 0"/></symbol><symbol overflow="visible" id="B"><path d="M.844-.438C.828-.344.78-.171.78-.156c0 .156.125.218.235.218a.377.377 0 0 0 .28-.14c.032-.063.079-.297.126-.438.031-.125.11-.453.14-.625.047-.156.094-.312.125-.468.079-.282.094-.344.297-.625.188-.282.516-.641 1.047-.641.39 0 .406.36.406.484 0 .422-.296 1.188-.406 1.485-.078.203-.11.265-.11.375 0 .375.298.594.657.594.703 0 1-.954 1-1.063 0-.094-.078-.094-.11-.094-.093 0-.093.047-.124.125-.157.563-.469.844-.735.844-.156 0-.187-.094-.187-.25s.047-.25.172-.563c.078-.218.36-.953.36-1.343 0-.672-.532-.797-.907-.797-.578 0-.969.36-1.172.64-.047-.484-.453-.64-.75-.64s-.453.219-.547.375c-.156.265-.25.656-.25.703 0 .078.094.078.125.078.094 0 .094-.016.14-.203.11-.406.25-.75.516-.75.188 0 .235.156.235.344 0 .125-.063.39-.125.578-.047.187-.11.469-.14.625zm0 0"/></symbol><symbol overflow="visible" id="A"><path d="M1.906-.531a.534.534 0 0 0-.515-.531.537.537 0 0 0-.532.53.524.524 0 1 0 1.047 0zm0 0"/></symbol></defs><use height="744.094" width="1052.362" xlink:href="#s" x="276.334" y="125.527"/><use height="744.094" width="1052.362" xlink:href="#t" x="276.334" y="143.061"/><use height="744.094" width="1052.362" xlink:href="#t" x="276.334" y="149.039"/><use height="744.094" width="1052.362" xlink:href="#t" x="276.334" y="155.016"/><use height="744.094" width="1052.362" xlink:href="#t" x="276.334" y="160.994"/><use height="744.094" width="1052.362" xlink:href="#t" x="276.334" y="166.972"/><use height="744.094" width="1052.362" xlink:href="#u" x="276.334" y="173.348"/><use height="744.094" width="1052.362" xlink:href="#v" x="308.221" y="133.171"/><use height="744.094" width="1052.362" xlink:href="#w" x="312.497" y="134.665"/><use height="744.094" width="1052.362" xlink:href="#w" x="316.469" y="134.665"/><use height="744.094" width="1052.362" xlink:href="#v" x="377.239" y="133.171"/><use height="744.094" width="1052.362" xlink:href="#w" x="381.514" y="134.665"/><use height="744.094" width="1052.362" xlink:href="#x" x="385.486" y="134.665"/><use height="744.094" width="1052.362" xlink:href="#y" x="425.854" y="133.171"/><use height="744.094" width="1052.362" xlink:href="#y" x="430.285" y="133.171"/><use height="744.094" width="1052.362" xlink:href="#y" x="434.707" y="133.171"/><use height="744.094" width="1052.362" xlink:href="#v" x="469.503" y="133.171"/><use height="744.094" width="1052.362" xlink:href="#w" x="473.778" y="134.665"/><use height="744.094" width="1052.362" xlink:href="#z" x="477.749" y="134.665"/><use height="744.094" width="1052.362" xlink:href="#v" x="308.221" y="149.111"/><use height="744.094" width="1052.362" xlink:href="#x" x="312.497" y="150.605"/><use height="744.094" width="1052.362" xlink:href="#w" x="316.469" y="150.605"/><use height="744.094" width="1052.362" xlink:href="#v" x="377.239" y="149.111"/><use height="744.094" width="1052.362" xlink:href="#x" x="381.514" y="150.605"/><use height="744.094" width="1052.362" xlink:href="#x" x="385.486" y="150.605"/><use height="744.094" width="1052.362" xlink:href="#y" x="425.854" y="149.111"/><use height="744.094" width="1052.362" xlink:href="#y" x="430.285" y="149.111"/><use height="744.094" width="1052.362" xlink:href="#y" x="434.707" y="149.111"/><use height="744.094" width="1052.362" xlink:href="#v" x="469.502" y="149.111"/><use height="744.094" width="1052.362" xlink:href="#x" x="473.778" y="150.605"/><use height="744.094" width="1052.362" xlink:href="#z" x="477.749" y="150.605"/><use height="744.094" width="1052.362" xlink:href="#A" x="313.195" y="163.712"/><use height="744.094" width="1052.362" xlink:href="#A" x="313.195" y="167.697"/><use height="744.094" width="1052.362" xlink:href="#A" x="313.195" y="171.682"/><use height="744.094" width="1052.362" xlink:href="#A" x="382.213" y="163.712"/><use height="744.094" width="1052.362" xlink:href="#A" x="382.213" y="167.697"/><use height="744.094" width="1052.362" xlink:href="#A" x="382.213" y="171.682"/><use height="744.094" width="1052.362" xlink:href="#A" x="427.238" y="164.708"/><use height="744.094" width="1052.362" xlink:href="#A" x="431.112" y="167.697"/><use height="744.094" width="1052.362" xlink:href="#A" x="434.987" y="170.686"/><use height="744.094" width="1052.362" xlink:href="#A" x="473.161" y="163.712"/><use height="744.094" width="1052.362" xlink:href="#A" x="473.161" y="167.697"/><use height="744.094" width="1052.362" xlink:href="#A" x="473.161" y="171.682"/><use height="744.094" width="1052.362" xlink:href="#v" x="307.744" y="187.622"/><use height="744.094" width="1052.362" xlink:href="#B" x="312.02" y="189.116"/><use height="744.094" width="1052.362" xlink:href="#w" x="316.945" y="189.116"/><use height="744.094" width="1052.362" xlink:href="#v" x="376.762" y="187.622"/><use height="744.094" width="1052.362" xlink:href="#B" x="381.037" y="189.116"/><use height="744.094" width="1052.362" xlink:href="#x" x="385.962" y="189.116"/><use height="744.094" width="1052.362" xlink:href="#y" x="425.854" y="187.622"/><use height="744.094" width="1052.362" xlink:href="#y" x="430.285" y="187.622"/><use height="744.094" width="1052.362" xlink:href="#y" x="434.707" y="187.622"/><use height="744.094" width="1052.362" xlink:href="#v" x="469.026" y="187.622"/><use height="744.094" width="1052.362" xlink:href="#B" x="473.301" y="189.116"/><use height="744.094" width="1052.362" xlink:href="#z" x="478.226" y="189.116"/><use height="744.094" width="1052.362" xlink:href="#C" x="505.524" y="125.527"/><use height="744.094" width="1052.362" xlink:href="#D" x="505.524" y="143.061"/><g><use height="744.094" width="1052.362" xlink:href="#D" x="505.524" y="149.039"/></g><g><use height="744.094" width="1052.362" xlink:href="#D" x="505.524" y="155.017"/></g><g><use height="744.094" width="1052.362" xlink:href="#D" x="505.524" y="160.994"/></g><g><use height="744.094" width="1052.362" xlink:href="#D" x="505.524" y="166.972"/></g><g><use height="744.094" width="1052.362" xlink:href="#E" x="505.524" y="173.348"/></g></g><g transform="matrix(2.6286 0 0 2.62731 -349.843 66.215)" ns0:preamble="/home/waldgeist/data/homepage/inkscape-preamble.tex" ns0:text="\\begin{align*}\n\\begin{pmatrix}\n\\sum_{i=1}^{n}a_{1i} \\cdot b_{1i} &amp; \\sum_{i=1}^{n}a_{1i} \\cdot b_{2i} &amp; \\cdots &amp; \\sum_{i=1}^{n}a_{1i} \\cdot b_{pi}\\\\[4pt]\n\\sum_{i=1}^{n}a_{2i} \\cdot b_{1i} &amp; \\sum_{i=1}^{n}a_{2i} \\cdot b_{2i} &amp; \\cdots &amp; \\sum_{i=1}^{n}a_{2i} \\cdot b_{pi}\\\\[4pt]\n\\vdots &amp; \\vdots &amp; \\ddots &amp; \\vdots \\\\[4pt]\n\\sum_{i=1}^{n}a_{mi} \\cdot b_{1i} &amp; \\sum_{i=1}^{n}a_{mi} \\cdot b_{2i} &amp; \\cdots &amp; \\sum_{i=1}^{n}a_{mi} \\cdot b_{pi}\\\\[4pt]\n\\end{pmatrix}\n\\end{align*}"><defs><symbol id="F" overflow="visible"><path d="M3.734 17.64c.22 0 .266 0 .266-.14.031-6.984.828-12.781 4.328-17.656.063-.094.063-.11.063-.14 0-.095-.063-.095-.22-.095-.171 0-.187 0-.202.016-.047.031-1.313 1.484-2.313 3.5-1.312 2.625-2.14 5.64-2.515 9.281a50.3 50.3 0 0 0-.235 4.735v.39c0 .11.063.11.281.11zm0 0"/></symbol><symbol id="G" overflow="visible"><path d="M4 .172c0-.266 0-.266-.266-.266h-.546c-.282 0-.282 0-.282.266v5.64c0 .266 0 .266.281.266h.547c.266 0 .266 0 .266-.266zm0 0"/></symbol><symbol id="H" overflow="visible"><path d="M3.188-.5c-.22 0-.282 0-.282.11V0c0 6.094 1.078 9.656 1.39 10.672.673 2.203 1.782 4.547 3.454 6.594.14.187.188.234.219.25.031.015.031.015.203.015.156 0 .219 0 .219-.093 0-.016 0-.047-.063-.125C5.016 12.703 4.016 7.155 4-.36 4-.5 3.953-.5 3.734-.5zm0 0"/></symbol><symbol id="I" overflow="visible"><path d="M4.203 5.328L.656 9.703c-.078.094-.094.11-.094.156 0 .11.094.11.282.11h8.25l.86-2.485h-.25c-.25.75-.907 1.36-1.767 1.641-.156.063-.843.297-2.312.297H1.391L4.859 5.14c.063-.094.079-.11.079-.157 0-.046 0-.046-.063-.14L1.641.406h3.937c1.14 0 3.438.063 4.125 1.922h.25L9.093 0H.844c-.28 0-.28.016-.28.313zm0 0"/></symbol><symbol id="U" overflow="visible"><path d="M5.813 17.14c0-6.078-1.094-9.656-1.391-10.656C3.734 4.266 2.625 1.938.969-.125.813-.297.78-.344.734-.375c-.015 0-.03-.016-.187-.016-.14 0-.235 0-.235.094 0 .031 0 .047.141.234C3.922 4.782 4.687 10.75 4.703 17.5c0 .14.063.14.281.14h.547c.203 0 .266 0 .282-.109zm0 0"/></symbol><symbol id="V" overflow="visible"><path d="M5.813.172c0-.266-.016-.266-.282-.266h-.547c-.265 0-.28 0-.28.266v5.64c0 .266.015.266.28.266h.547c.266 0 .282 0 .282-.266zm0 0"/></symbol><symbol id="W" overflow="visible"><path d="M5.813-.39C5.796-.5 5.734-.5 5.53-.5h-.547c-.218 0-.28 0-.28.14 0 1.032-.016 3.407-.266 5.876C3.89 10.672 2.577 14.25.39 17.312c-.079.079-.079.11-.079.125 0 .094.094.094.235.094.156 0 .187 0 .203-.015.031-.032 1.297-1.485 2.313-3.485 1.312-2.64 2.14-5.656 2.515-9.281.031-.313.234-2.39.234-4.75zm0 0"/></symbol><symbol id="J" overflow="visible"><path d="M.844-.438C.828-.344.78-.171.78-.156c0 .156.125.218.235.218a.377.377 0 0 0 .28-.14c.032-.063.079-.297.126-.438.031-.125.11-.453.14-.625.047-.156.094-.312.125-.468.079-.282.094-.344.297-.625.188-.282.516-.641 1.047-.641.39 0 .406.36.406.484 0 .422-.296 1.188-.406 1.485-.078.203-.11.265-.11.375 0 .375.298.594.657.594.703 0 1-.954 1-1.063 0-.094-.078-.094-.11-.094-.093 0-.093.047-.124.125-.157.563-.469.844-.735.844-.156 0-.187-.094-.187-.25s.047-.25.172-.563c.078-.218.36-.953.36-1.343 0-.672-.532-.797-.907-.797-.578 0-.969.36-1.172.64-.047-.484-.453-.64-.75-.64s-.453.219-.547.375c-.156.265-.25.656-.25.703 0 .078.094.078.125.078.094 0 .094-.016.14-.203.11-.406.25-.75.516-.75.188 0 .235.156.235.344 0 .125-.063.39-.125.578-.047.187-.11.469-.14.625zm0 0"/></symbol><symbol id="K" overflow="visible"><path d="M2.266-4.36a.276.276 0 0 0-.282-.265c-.187 0-.39.188-.39.39 0 .11.078.266.281.266.188 0 .39-.203.39-.39zM.844-.811C.813-.72.78-.641.78-.516c0 .329.266.579.656.579.688 0 1-.954 1-1.063 0-.094-.093-.094-.109-.094-.094 0-.11.047-.14.125-.157.563-.454.844-.735.844-.14 0-.172-.094-.172-.25s.047-.281.11-.438c.078-.187.156-.375.218-.562.063-.172.329-.797.344-.89A.5.5 0 0 0 2-2.486c0-.328-.281-.593-.656-.593C.64-3.078.328-2.125.328-2c0 .078.094.078.125.078.094 0 .094-.031.125-.11.172-.593.485-.843.735-.843.109 0 .171.047.171.234 0 .172-.03.266-.203.704zm0 0"/></symbol><symbol id="R" overflow="visible"><path d="M.516.844c-.047.203-.063.25-.329.25-.093 0-.187 0-.187.156 0 .078.063.11.094.11.172 0 .406-.032.594-.032.234 0 .5.031.734.031.062 0 .14-.03.14-.156 0-.11-.093-.11-.187-.11-.156 0-.344 0-.344-.077 0-.032.063-.22.078-.313.094-.375.188-.75.266-1.047.078.14.297.406.719.406.844 0 1.781-.937 1.781-1.968 0-.813-.563-1.172-1.031-1.172-.438 0-.813.297-1 .5-.11-.406-.5-.5-.719-.5-.266 0-.438.187-.547.375-.14.234-.25.656-.25.703 0 .078.094.078.125.078.094 0 .094-.016.14-.203.11-.406.25-.75.516-.75.188 0 .235.156.235.344a.693.693 0 0 1-.032.203zm1.328-3.078c.406-.547.75-.641.968-.641.282 0 .516.203.516.672 0 .281-.156 1-.36 1.406-.187.344-.515.672-.874.672-.5 0-.625-.531-.625-.61 0-.03.015-.078.015-.109zm0 0"/></symbol><symbol id="T" overflow="visible"><path d="M3.031-.563c-.047.141-.11.375-.11.407 0 .156.126.218.235.218.14 0 .25-.078.281-.14a3.17 3.17 0 0 0 .126-.438c.03-.125.109-.453.156-.625.031-.156.078-.312.11-.468.077-.297.077-.313.218-.532.219-.343.578-.734 1.11-.734.39 0 .421.313.421.484 0 .422-.297 1.188-.422 1.485-.062.203-.093.265-.093.375 0 .375.296.594.656.594.703 0 1-.954 1-1.063 0-.094-.078-.094-.11-.094-.093 0-.093.047-.125.125-.156.563-.468.844-.734.844-.156 0-.188-.094-.188-.25s.047-.25.172-.563c.079-.218.36-.953.36-1.343 0-.11 0-.406-.25-.61a1.17 1.17 0 0 0-.657-.187c-.625 0-1 .422-1.234.703-.047-.594-.547-.703-.906-.703-.578 0-.969.36-1.172.64-.047-.484-.453-.64-.75-.64s-.453.219-.547.375c-.156.265-.25.656-.25.703 0 .078.094.078.125.078.094 0 .094-.016.14-.203.11-.406.25-.75.516-.75.188 0 .235.156.235.344 0 .125-.063.39-.125.578-.047.187-.11.469-.14.625l-.235.89C.828-.344.78-.171.78-.156c0 .156.125.218.235.218a.377.377 0 0 0 .28-.14c.032-.063.079-.297.126-.438.031-.125.11-.453.14-.625.047-.156.094-.312.125-.468.079-.282.094-.344.297-.625.188-.282.516-.641 1.047-.641.39 0 .406.36.406.484 0 .172-.015.266-.124.657zm0 0"/></symbol><symbol id="L" overflow="visible"><path d="M5.36-2.344c.093 0 .25 0 .25-.172 0-.171-.157-.171-.25-.171H.75c-.094 0-.266 0-.266.171 0 .172.157.172.266.172zm0 1.531c.093 0 .25 0 .25-.156 0-.187-.157-.187-.25-.187H.75c-.11 0-.266 0-.266.187 0 .156.172.156.266.156zm0 0"/></symbol><symbol id="M" overflow="visible"><path d="M2.328-4.438c0-.187 0-.187-.203-.187-.453.438-1.078.438-1.36.438v.25c.157 0 .626 0 1-.188v3.547c0 .234 0 .328-.687.328H.812V0c.125 0 .985-.031 1.235-.031.219 0 1.094.031 1.25.031v-.25H3.03c-.703 0-.703-.094-.703-.328zm0 0"/></symbol><symbol id="Q" overflow="visible"><path d="M3.516-1.266H3.28c-.015.157-.094.563-.187.625-.047.047-.578.047-.688.047H1.125c.734-.64.984-.844 1.39-1.172.516-.406 1-.843 1-1.5 0-.843-.734-1.359-1.624-1.359-.86 0-1.454.61-1.454 1.25 0 .344.297.39.376.39.156 0 .359-.124.359-.374 0-.125-.047-.375-.406-.375.218-.485.687-.641 1.015-.641.703 0 1.063.547 1.063 1.11 0 .609-.438 1.078-.656 1.328L.516-.266C.437-.203.437-.187.437 0h2.876zm0 0"/></symbol><symbol id="N" overflow="visible"><path d="M3.719-3.766c-.188-.375-.469-.64-.922-.64-1.156 0-2.39 1.468-2.39 2.922C.406-.547.952.109 1.718.109c.203 0 .703-.046 1.297-.75a.91.91 0 0 0 .906.75c.36 0 .578-.234.75-.546a6.49 6.49 0 0 0 .297-.985c0-.11-.094-.11-.125-.11-.094 0-.11.048-.14.188-.173.64-.345 1.235-.75 1.235-.282 0-.298-.266-.298-.454 0-.218.016-.312.125-.75.11-.406.125-.515.219-.89l.36-1.39c.062-.282.062-.298.062-.345 0-.171-.11-.265-.281-.265-.25 0-.391.219-.422.437zm-.64 2.579c-.063.187-.063.203-.204.375-.438.546-.844.703-1.125.703-.5 0-.64-.547-.64-.938 0-.5.312-1.719.546-2.187.313-.579.75-.954 1.157-.954.64 0 .78.813.78.875a.562.562 0 0 1-.03.172zm0 0"/></symbol><symbol id="P" overflow="visible"><path d="M2.375-6.813s0-.109-.125-.109c-.219 0-.953.078-1.219.11-.078 0-.187.015-.187.187 0 .125.094.125.25.125.468 0 .484.063.484.172 0 .062-.078.406-.125.61l-.828 3.25c-.11.5-.156.671-.156 1.015C.469-.516 1 .109 1.734.109c1.172 0 2.407-1.484 2.407-2.921 0-.907-.532-1.594-1.329-1.594-.453 0-.874.297-1.171.593zm-.922 3.766c.047-.219.047-.234.14-.344.485-.64.938-.796 1.204-.796.36 0 .625.296.625.937 0 .594-.328 1.734-.516 2.11-.328.671-.781 1.03-1.172 1.03-.343 0-.671-.265-.671-1 0-.202 0-.39.156-1.015zm0 0"/></symbol><symbol id="O" overflow="visible"><path d="M1.906-2.5a.524.524 0 1 0-.516.531.524.524 0 0 0 .516-.531zm0 0"/></symbol><symbol id="S" overflow="visible"><path d="M1.906-.531a.534.534 0 0 0-.515-.531.537.537 0 0 0-.532.53.524.524 0 1 0 1.047 0zm0 0"/></symbol></defs><use y="127.519" x="274.929" xlink:href="#F"/><use y="145.054" x="274.929" xlink:href="#G"/><use y="151.031" x="274.929" xlink:href="#G"/><use y="157.009" x="274.929" xlink:href="#G"/><use y="162.987" x="274.929" xlink:href="#G"/><use y="168.964" x="274.929" xlink:href="#G"/><use y="175.34" x="274.929" xlink:href="#H"/><use y="125.699" x="285.195" xlink:href="#I"/><use y="128.161" x="295.711" xlink:href="#J"/><use y="136.159" x="295.711" xlink:href="#K"/><use y="136.159" x="298.53" xlink:href="#L"/><use y="136.159" x="304.646" xlink:href="#M"/><use y="133.171" x="310.776" xlink:href="#N"/><use y="134.665" x="316.042" xlink:href="#M"/><use y="134.665" x="320.013" xlink:href="#K"/><use y="133.171" x="325.544" xlink:href="#O"/><use y="133.171" x="330.525" xlink:href="#P"/><use y="134.665" x="334.801" xlink:href="#M"/><use y="134.665" x="338.772" xlink:href="#K"/><use y="125.699" x="355.15" xlink:href="#I"/><use y="128.162" x="365.666" xlink:href="#J"/><use y="136.159" x="365.666" xlink:href="#K"/><use y="136.159" x="368.485" xlink:href="#L"/><use y="136.159" x="374.601" xlink:href="#M"/><use y="133.171" x="380.731" xlink:href="#N"/><use y="134.665" x="385.997" xlink:href="#M"/><use y="134.665" x="389.968" xlink:href="#K"/><use y="133.171" x="395.499" xlink:href="#O"/><use y="133.171" x="400.48" xlink:href="#P"/><use y="134.665" x="404.756" xlink:href="#Q"/><use y="134.665" x="408.727" xlink:href="#K"/><use y="133.171" x="423.556" xlink:href="#O"/><use y="133.171" x="427.987" xlink:href="#O"/><use y="133.171" x="432.409" xlink:href="#O"/><use y="125.699" x="448.351" xlink:href="#I"/><use y="128.162" x="458.867" xlink:href="#J"/><use y="136.159" x="458.867" xlink:href="#K"/><use y="136.159" x="461.686" xlink:href="#L"/><use y="136.159" x="467.802" xlink:href="#M"/><use y="133.171" x="473.931" xlink:href="#N"/><use y="134.665" x="479.198" xlink:href="#M"/><use y="134.665" x="483.169" xlink:href="#K"/><use y="133.171" x="488.7" xlink:href="#O"/><use y="133.171" x="493.681" xlink:href="#P"/><use y="134.665" x="497.956" xlink:href="#R"/><use y="134.665" x="502.063" xlink:href="#K"/><use y="141.639" x="285.195" xlink:href="#I"/><use y="144.102" x="295.712" xlink:href="#J"/><use y="152.1" x="295.712" xlink:href="#K"/><use y="152.1" x="298.53" xlink:href="#L"/><use y="152.1" x="304.646" xlink:href="#M"/><use y="149.111" x="310.776" xlink:href="#N"/><use y="150.605" x="316.042" xlink:href="#Q"/><use y="150.605" x="320.013" xlink:href="#K"/><use y="149.111" x="325.544" xlink:href="#O"/><use y="149.111" x="330.525" xlink:href="#P"/><use y="150.605" x="334.801" xlink:href="#M"/><use y="150.605" x="338.772" xlink:href="#K"/><use y="141.639" x="355.15" xlink:href="#I"/><use y="144.102" x="365.666" xlink:href="#J"/><use y="152.1" x="365.666" xlink:href="#K"/><use y="152.1" x="368.485" xlink:href="#L"/><use y="152.1" x="374.601" xlink:href="#M"/><use y="149.111" x="380.731" xlink:href="#N"/><use y="150.605" x="385.997" xlink:href="#Q"/><use y="150.605" x="389.968" xlink:href="#K"/><use y="149.111" x="395.499" xlink:href="#O"/><use y="149.111" x="400.48" xlink:href="#P"/><use y="150.605" x="404.756" xlink:href="#Q"/><use y="150.605" x="408.727" xlink:href="#K"/><use y="149.111" x="423.556" xlink:href="#O"/><use y="149.111" x="427.987" xlink:href="#O"/><use y="149.111" x="432.409" xlink:href="#O"/><use y="141.639" x="448.351" xlink:href="#I"/><use y="144.102" x="458.867" xlink:href="#J"/><use y="152.1" x="458.867" xlink:href="#K"/><use y="152.1" x="461.686" xlink:href="#L"/><use y="152.1" x="467.802" xlink:href="#M"/><use y="149.111" x="473.932" xlink:href="#N"/><use y="150.605" x="479.198" xlink:href="#Q"/><use y="150.605" x="483.169" xlink:href="#K"/><use y="149.111" x="488.7" xlink:href="#O"/><use y="149.111" x="493.681" xlink:href="#P"/><use y="150.605" x="497.957" xlink:href="#R"/><use y="150.605" x="502.064" xlink:href="#K"/><use y="163.712" x="312.259" xlink:href="#S"/><use y="167.697" x="312.259" xlink:href="#S"/><use y="171.682" x="312.259" xlink:href="#S"/><use y="163.712" x="382.213" xlink:href="#S"/><use y="167.697" x="382.213" xlink:href="#S"/><use y="171.682" x="382.213" xlink:href="#S"/><use y="164.708" x="424.939" xlink:href="#S"/><use y="167.697" x="428.814" xlink:href="#S"/><use y="170.686" x="432.688" xlink:href="#S"/><use y="163.712" x="475.482" xlink:href="#S"/><use y="167.697" x="475.482" xlink:href="#S"/><use y="171.682" x="475.482" xlink:href="#S"/><use y="180.15" x="283.646" xlink:href="#I"/><use y="182.613" x="294.162" xlink:href="#J"/><use y="190.611" x="294.162" xlink:href="#K"/><use y="190.611" x="296.981" xlink:href="#L"/><use y="190.611" x="303.097" xlink:href="#M"/><use y="187.622" x="309.227" xlink:href="#N"/><use y="189.117" x="314.493" xlink:href="#T"/><use y="189.117" x="321.562" xlink:href="#K"/><use y="187.622" x="327.093" xlink:href="#O"/><use y="187.622" x="332.075" xlink:href="#P"/><use y="189.117" x="336.35" xlink:href="#M"/><use y="189.117" x="340.322" xlink:href="#K"/><use y="180.15" x="353.601" xlink:href="#I"/><use y="182.613" x="364.117" xlink:href="#J"/><use y="190.611" x="364.117" xlink:href="#K"/><use y="190.611" x="366.936" xlink:href="#L"/><use y="190.611" x="373.052" xlink:href="#M"/><use y="187.622" x="379.182" xlink:href="#N"/><use y="189.117" x="384.448" xlink:href="#T"/><use y="189.117" x="391.517" xlink:href="#K"/><use y="187.622" x="397.048" xlink:href="#O"/><use y="187.622" x="402.029" xlink:href="#P"/><use y="189.117" x="406.305" xlink:href="#Q"/><use y="189.117" x="410.276" xlink:href="#K"/><use y="187.622" x="423.556" xlink:href="#O"/><use y="187.622" x="427.987" xlink:href="#O"/><use y="187.622" x="432.409" xlink:href="#O"/><use y="180.15" x="446.802" xlink:href="#I"/><use y="182.613" x="457.318" xlink:href="#J"/><use y="190.611" x="457.318" xlink:href="#K"/><use y="190.611" x="460.137" xlink:href="#L"/><use y="190.611" x="466.253" xlink:href="#M"/><g><use y="187.622" x="472.382" xlink:href="#N"/></g><g><use y="189.117" x="477.649" xlink:href="#T"/><use y="189.117" x="484.718" xlink:href="#K"/></g><g><use y="187.622" x="490.249" xlink:href="#O"/></g><g><use y="187.622" x="495.23" xlink:href="#P"/></g><g><use y="189.117" x="499.506" xlink:href="#R"/><use y="189.117" x="503.613" xlink:href="#K"/></g><g><use y="127.519" x="506.93" xlink:href="#U"/></g><g><use y="145.054" x="506.93" xlink:href="#V"/></g><g><use y="151.032" x="506.93" xlink:href="#V"/></g><g><use y="157.009" x="506.93" xlink:href="#V"/></g><g><use y="162.987" x="506.93" xlink:href="#V"/></g><g><use y="168.964" x="506.93" xlink:href="#V"/></g><g><use y="175.341" x="506.93" xlink:href="#W"/></g></g></svg>